<?xml version="1.0" encoding="UTF-8" standalone="no"?>
<svg
   xmlns:dc="http://purl.org/dc/elements/1.1/"
   xmlns:cc="http://creativecommons.org/ns#"
   xmlns:rdf="http://www.w3.org/1999/02/22-rdf-syntax-ns#"
   xmlns:svg="http://www.w3.org/2000/svg"
   xmlns="http://www.w3.org/2000/svg"
   xmlns:sodipodi="http://sodipodi.sourceforge.net/DTD/sodipodi-0.dtd"
   xmlns:inkscape="http://www.inkscape.org/namespaces/inkscape"
   width="33.866669mm"
   height="125.94167mm"
   viewBox="0 0 33.866669 125.94167"
   version="1.1"
   id="svg734"
   inkscape:version="1.0.2 (e86c870879, 2021-01-15)"
   sodipodi:docname="f1a.svg">
  <defs
     id="defs728">
    <filter
       inkscape:collect="always"
       style="color-interpolation-filters:sRGB"
       id="filter1501"
       x="-0.025"
       width="1.05"
       y="-0.0078947367"
       height="1.0157895">
      <feGaussianBlur
         inkscape:collect="always"
         stdDeviation="0.19843748"
         id="feGaussianBlur1503" />
    </filter>
  </defs>
  <sodipodi:namedview
     id="base"
     pagecolor="#ffffff"
     bordercolor="#666666"
     borderopacity="1.0"
     inkscape:pageopacity="0.0"
     inkscape:pageshadow="2"
     inkscape:zoom="0.7"
     inkscape:cx="104.9196"
     inkscape:cy="357.73842"
     inkscape:document-units="mm"
     inkscape:current-layer="layer1"
     inkscape:document-rotation="0"
     showgrid="false"
     inkscape:window-width="958"
     inkscape:window-height="1048"
     inkscape:window-x="2880"
     inkscape:window-y="18"
     inkscape:window-maximized="0" />
  <metadata
     id="metadata731">
    <rdf:RDF>
      <cc:Work
         rdf:about="">
        <dc:format>image/svg+xml</dc:format>
        <dc:type
           rdf:resource="http://purl.org/dc/dcmitype/StillImage" />
        <dc:title></dc:title>
      </cc:Work>
    </rdf:RDF>
  </metadata>
  <g
     inkscape:label="Capa 1"
     inkscape:groupmode="layer"
     id="layer1"
     transform="translate(-108.55476,-71.588684)">
    <rect
       style="fill:#ffffff;fill-opacity:1;stroke:none;stroke-width:0.529167;stroke-linecap:round;stroke-miterlimit:4;stroke-dasharray:none;stroke-opacity:1"
       id="rect2813"
       width="33.866669"
       height="125.94167"
       x="108.55476"
       y="71.588684" />
    <text
       xml:space="preserve"
       style="font-style:normal;font-variant:normal;font-weight:normal;font-stretch:condensed;font-size:8.42891px;line-height:1.25;font-family:'Helvetica Neue LT Com';-inkscape-font-specification:'Helvetica Neue LT Com, weight=255 Condensed';font-variant-ligatures:normal;font-variant-caps:normal;font-variant-numeric:normal;font-variant-east-asian:normal;fill:#800000;fill-opacity:1;stroke:none;stroke-width:0.210723"
       x="121.05701"
       y="161.48695"
       id="text2735"><tspan
         sodipodi:role="line"
         id="tspan2733"
         x="121.05701"
         y="161.48695"
         style="font-style:normal;font-variant:normal;font-stretch:condensed;font-size:4.23333px;font-family:'Helvetica Neue LT Com';-inkscape-font-specification:'Helvetica Neue LT Com, weight=255 Condensed';font-variant-ligatures:normal;font-variant-caps:normal;font-variant-numeric:normal;font-variant-east-asian:normal;fill:#800000;stroke-width:0.210723">Gas</tspan></text>
    <circle
       style="fill:none;fill-opacity:1;stroke:#4d4d4d;stroke-width:0.529167;stroke-miterlimit:4;stroke-dasharray:none;stroke-opacity:1"
       id="circle925"
       sodipodi:type="arc"
       sodipodi:cx="138.1881"
       sodipodi:cy="183.77122"
       sodipodi:rx="1.0583333"
       sodipodi:ry="1.0583333"
       sodipodi:start="3.1415927"
       sodipodi:end="0"
       sodipodi:arc-type="arc"
       sodipodi:open="true"
       d="m 137.12976,183.77122 a 1.0583333,1.0583333 0 0 1 1.05834,-1.05833 1.0583333,1.0583333 0 0 1 1.05833,1.05833" />
    <path
       style="fill:#4cb5cd;fill-opacity:0.25;stroke:none;stroke-width:0.529167;stroke-linecap:butt;stroke-linejoin:miter;stroke-miterlimit:4;stroke-dasharray:none;stroke-opacity:1"
       d="m 139.24643,75.82202 c 0,-0.299337 -0.47383,-0.536253 -1.05834,-0.536253 -0.5845,0 -1.05833,0.236916 -1.05833,0.536253 v 107.95667 c 0,-0.58489 0.47383,-1.05872 1.05833,-1.05872 0.5845,0 1.05834,0.47383 1.05834,1.05872 z"
       id="path1270"
       sodipodi:nodetypes="csccscc" />
    <circle
       style="fill:none;stroke:#4d4d4d;stroke-width:0.529167;stroke-miterlimit:4;stroke-dasharray:none;stroke-opacity:1"
       id="circle923"
       sodipodi:type="arc"
       sodipodi:cx="119.13498"
       sodipodi:cy="183.77122"
       sodipodi:rx="1.0583333"
       sodipodi:ry="1.0583333"
       sodipodi:start="3.1415927"
       sodipodi:end="0"
       sodipodi:arc-type="arc"
       sodipodi:open="true"
       d="m 118.07665,183.77122 a 1.0583333,1.0583333 0 0 1 1.05833,-1.05833 1.0583333,1.0583333 0 0 1 1.05833,1.05833" />
    <path
       style="fill:#ffff00;fill-opacity:0.25;stroke:none;stroke-width:0.529167;stroke-linecap:butt;stroke-linejoin:miter;stroke-miterlimit:4;stroke-dasharray:none;stroke-opacity:1"
       d="m 120.19803,158.37242 c 0,-0.5845 -0.47383,-1.05833 -1.05833,-1.05833 -0.58451,0 -1.05834,0.47383 -1.05834,1.05833 l -0.002,25.39959 c -0.002,-0.58489 0.47228,-1.05872 1.05678,-1.05872 0.5845,0 1.05833,0.47383 1.05989,1.05872 z"
       id="path1215"
       sodipodi:nodetypes="csccscc" />
    <path
       id="path881-6"
       style="fill:#4d4d4d;stroke:none;stroke-width:0.529167;stroke-miterlimit:4;stroke-dasharray:none"
       d="m 133.95476,192.93744 c -3.27449,1.89053 -7.30884,1.89053 -10.58333,0 -3.27449,-1.89053 -5.29167,-5.38437 -5.29323,-9.16583 -0.002,-0.58489 0.47227,-1.05873 1.05678,-1.05873 0.5845,0 1.05833,0.47384 1.05989,1.05873 0.002,3.02525 1.61529,5.82033 4.23489,7.33275 2.6196,1.51242 5.84707,1.51242 8.46667,0 2.6196,-1.51242 4.23333,-4.3075 4.23333,-7.33275 0,-0.58489 0.47383,-1.05873 1.05834,-1.05873 0.5845,0 1.05833,0.47384 1.05833,1.05873 0,3.78146 -2.01718,7.2753 -5.29167,9.16583 z"
       sodipodi:nodetypes="sscscsscscs" />
    <path
       style="fill:none;stroke:#5fbcd3;stroke-width:0.529167;stroke-linecap:butt;stroke-linejoin:miter;stroke-miterlimit:4;stroke-dasharray:none;stroke-opacity:1"
       d="M 137.12976,183.77201 V 75.82202"
       id="path873"
       sodipodi:nodetypes="cc" />
    <path
       style="fill:none;stroke:#5fbcd3;stroke-width:0.529167;stroke-linecap:butt;stroke-linejoin:miter;stroke-miterlimit:4;stroke-dasharray:none;stroke-opacity:1"
       d="M 139.24643,75.82202 V 183.77201"
       id="path875"
       sodipodi:nodetypes="cc" />
    <path
       id="path879"
       style="fill:none;stroke:#5fbcd3;stroke-width:0.529167;stroke-miterlimit:4;stroke-dasharray:none"
       d="m 137.12976,183.77201 c 0,3.02485 -1.61374,5.81993 -4.23333,7.33235 -2.6196,1.51242 -5.84707,1.51242 -8.46667,0 -2.6196,-1.51242 -4.23333,-4.3075 -4.23333,-7.33235 v -25.39999 c 0,-0.58451 -0.47383,-1.05834 -1.05833,-1.05834 -0.5845,0 -1.05834,0.47384 -1.05834,1.05834 v 25.39999 c 0,3.78106 2.01717,7.2749 5.29167,9.16543 3.27449,1.89053 7.30883,1.89053 10.58333,0 3.27449,-1.89053 5.29166,-5.38437 5.29167,-9.16543"
       sodipodi:nodetypes="cssccsccssc" />
    <ellipse
       style="fill:none;fill-opacity:1;stroke:#5fbcd3;stroke-width:0.529167;stroke-miterlimit:4;stroke-dasharray:none;stroke-opacity:1"
       id="ellipse999"
       cx="138.1881"
       cy="75.807846"
       rx="1.0583333"
       ry="0.52916664" />
    <path
       id="path1614"
       style="fill:none;fill-opacity:1;stroke:#808080;stroke-width:0.529167;stroke-miterlimit:4;stroke-dasharray:none;stroke-opacity:1;filter:url(#filter1501)"
       d="m 119.13809,183.77201 v 0 c 0,3.40295 1.81546,6.54741 4.7625,8.24889 2.94705,1.70148 6.57796,1.70148 9.525,0 2.94705,-1.70148 4.7625,-4.84594 4.7625,-8.24889 v 0"
       sodipodi:nodetypes="ccsscc" />
    <text
       xml:space="preserve"
       style="font-style:normal;font-variant:normal;font-weight:normal;font-stretch:condensed;font-size:3.68366px;line-height:1.25;font-family:'Helvetica Neue LT Com';-inkscape-font-specification:'Helvetica Neue LT Com, weight=255 Condensed';font-variant-ligatures:normal;font-variant-caps:normal;font-variant-numeric:normal;font-variant-east-asian:normal;fill:#000000;fill-opacity:1;stroke:none;stroke-width:0.0920918"
       x="-176.98631"
       y="112.77956"
       id="text2739"
       transform="rotate(-90)"><tspan
         sodipodi:role="line"
         id="tspan2737"
         x="-176.98631"
         y="112.77956"
         style="font-style:normal;font-variant:normal;font-stretch:condensed;font-size:3.52778px;font-family:'Helvetica Neue LT Com';-inkscape-font-specification:'Helvetica Neue LT Com,  weight=255 Condensed';font-variant-ligatures:normal;font-variant-caps:normal;font-variant-numeric:normal;font-variant-east-asian:normal;stroke-width:0.0920918">100 [mL]</tspan></text>
    <text
       xml:space="preserve"
       style="font-style:normal;font-variant:normal;font-weight:normal;font-stretch:condensed;font-size:4.04863px;line-height:1.25;font-family:'Helvetica Neue LT Com';-inkscape-font-specification:'Helvetica Neue LT Com, weight=255 Condensed';font-variant-ligatures:normal;font-variant-caps:normal;font-variant-numeric:normal;font-variant-east-asian:normal;fill:#800000;fill-opacity:1;stroke:none;stroke-width:0.101216"
       x="126.89236"
       y="189.29613"
       id="text2751"><tspan
         sodipodi:role="line"
         id="tspan2749"
         x="126.89236"
         y="189.29613"
         style="font-style:normal;font-variant:normal;font-stretch:condensed;font-size:3.52778px;font-family:'Helvetica Neue LT Com';-inkscape-font-specification:'Helvetica Neue LT Com, weight=255 Condensed';font-variant-ligatures:normal;font-variant-caps:normal;font-variant-numeric:normal;font-variant-east-asian:normal;fill:#800000;stroke-width:0.101216">Hg</tspan></text>
    <path
       style="fill:none;stroke:#000000;stroke-width:0.264583px;stroke-linecap:butt;stroke-linejoin:miter;stroke-opacity:1"
       d="m 117.02143,183.77201 h -4.23334"
       id="path2761"
       sodipodi:nodetypes="cc" />
    <path
       style="fill:none;stroke:#000000;stroke-width:0.264583px;stroke-linecap:butt;stroke-linejoin:miter;stroke-opacity:1"
       d="m 117.02143,158.37202 h -4.23334"
       id="path2763"
       sodipodi:nodetypes="cc" />
    <path
       style="fill:none;stroke:#000000;stroke-width:0.264583px;stroke-linecap:butt;stroke-linejoin:miter;stroke-opacity:1"
       d="m 114.90476,158.37202 v 25.39999"
       id="path2765" />
  </g>
</svg>
