<?xml version="1.0" encoding="UTF-8" standalone="no"?>
<svg
   xmlns:dc="http://purl.org/dc/elements/1.1/"
   xmlns:cc="http://creativecommons.org/ns#"
   xmlns:rdf="http://www.w3.org/1999/02/22-rdf-syntax-ns#"
   xmlns:svg="http://www.w3.org/2000/svg"
   xmlns="http://www.w3.org/2000/svg"
   xmlns:xlink="http://www.w3.org/1999/xlink"
   xmlns:sodipodi="http://sodipodi.sourceforge.net/DTD/sodipodi-0.dtd"
   xmlns:inkscape="http://www.inkscape.org/namespaces/inkscape"
   width="1920"
   height="1080"
   viewBox="0 0 507.99999 285.75001"
   version="1.1"
   id="svg8"
   inkscape:version="1.0.2 (e86c870879, 2021-01-15)"
   sodipodi:docname="15.svg"
   inkscape:export-filename="/home/jacobian/Documentos/UMSS/FIS102/Exposición 07/imágenes/227.png"
   inkscape:export-xdpi="96"
   inkscape:export-ydpi="96">
  <defs
     id="defs2">
    <marker
       style="overflow:visible"
       id="marker2011"
       refX="0"
       refY="0"
       orient="auto"
       inkscape:stockid="Arrow1Send"
       inkscape:isstock="true">
      <path
         transform="matrix(-0.2,0,0,-0.2,-1.2,0)"
         style="fill:#0000ff;fill-opacity:1;fill-rule:evenodd;stroke:#0000ff;stroke-width:1pt;stroke-opacity:1"
         d="M 0,0 5,-5 -12.5,0 5,5 Z"
         id="path2009" />
    </marker>
    <marker
       style="overflow:visible"
       id="Arrow1Sstart"
       refX="0"
       refY="0"
       orient="auto"
       inkscape:stockid="Arrow1Sstart"
       inkscape:isstock="true">
      <path
         transform="matrix(0.2,0,0,0.2,1.2,0)"
         style="fill:#ff0000;fill-opacity:1;fill-rule:evenodd;stroke:#ff0000;stroke-width:1pt;stroke-opacity:1"
         d="M 0,0 5,-5 -12.5,0 5,5 Z"
         id="path1340" />
    </marker>
    <linearGradient
       inkscape:collect="always"
       id="linearGradient1143">
      <stop
         style="stop-color:#ff0000;stop-opacity:1"
         offset="0"
         id="stop1139" />
      <stop
         style="stop-color:#0000ff;stop-opacity:1"
         offset="1"
         id="stop1141" />
    </linearGradient>
    <linearGradient
       inkscape:collect="always"
       xlink:href="#linearGradient1143"
       id="linearGradient1158"
       gradientUnits="userSpaceOnUse"
       gradientTransform="matrix(-0.26458334,0,0,-0.26458334,512.23334,287.86667)"
       x1="1472"
       y1="256"
       x2="1472"
       y2="832" />
    <linearGradient
       inkscape:collect="always"
       xlink:href="#linearGradient1143"
       id="linearGradient1169"
       gradientUnits="userSpaceOnUse"
       gradientTransform="matrix(-0.26458334,0,0,-0.26458334,512.23335,287.86667)"
       x1="1472"
       y1="256"
       x2="1472"
       y2="832" />
    <linearGradient
       inkscape:collect="always"
       xlink:href="#linearGradient1143"
       id="linearGradient1122"
       gradientUnits="userSpaceOnUse"
       gradientTransform="matrix(0.26458334,0,0,-0.26458334,-207.43333,287.86667)"
       x1="1472"
       y1="256"
       x2="1472"
       y2="832" />
    <linearGradient
       inkscape:collect="always"
       xlink:href="#linearGradient1143"
       id="linearGradient1124"
       gradientUnits="userSpaceOnUse"
       gradientTransform="matrix(-0.26458334,0,0,-0.26458334,512.23334,287.86667)"
       x1="1472"
       y1="256"
       x2="1472"
       y2="832" />
    <g
       id="g4704">
      <symbol
         overflow="visible"
         id="symbol8433">
        <path
           style="stroke:none;"
           d=""
           id="path3355" />
      </symbol>
      <symbol
         overflow="visible"
         id="symbol5498">
        <path
           style="stroke:none;"
           d="M 4.359375 -0.0625 C 5.90625 -0.640625 7.375 -2.421875 7.375 -4.34375 C 7.375 -5.953125 6.3125 -7.03125 4.828125 -7.03125 C 2.6875 -7.03125 0.484375 -4.765625 0.484375 -2.4375 C 0.484375 -0.78125 1.609375 0.21875 3.046875 0.21875 C 3.296875 0.21875 3.625 0.171875 4.015625 0.0625 C 3.984375 0.6875 3.984375 0.703125 3.984375 0.84375 C 3.984375 1.15625 3.984375 1.9375 4.8125 1.9375 C 5.984375 1.9375 6.46875 0.109375 6.46875 0 C 6.46875 -0.0625 6.40625 -0.09375 6.359375 -0.09375 C 6.28125 -0.09375 6.265625 -0.046875 6.234375 0.015625 C 6 0.71875 5.421875 0.96875 5.078125 0.96875 C 4.609375 0.96875 4.46875 0.703125 4.359375 -0.0625 Z M 2.484375 -0.140625 C 1.703125 -0.453125 1.359375 -1.21875 1.359375 -2.125 C 1.359375 -2.8125 1.625 -4.234375 2.375 -5.296875 C 3.109375 -6.3125 4.046875 -6.78125 4.78125 -6.78125 C 5.765625 -6.78125 6.5 -6 6.5 -4.671875 C 6.5 -3.671875 5.984375 -1.328125 4.3125 -0.40625 C 4.265625 -0.75 4.171875 -1.46875 3.4375 -1.46875 C 2.90625 -1.46875 2.421875 -0.984375 2.421875 -0.453125 C 2.421875 -0.265625 2.484375 -0.15625 2.484375 -0.140625 Z M 3.09375 -0.03125 C 2.953125 -0.03125 2.640625 -0.03125 2.640625 -0.453125 C 2.640625 -0.859375 3.015625 -1.25 3.4375 -1.25 C 3.859375 -1.25 4.046875 -1.015625 4.046875 -0.40625 C 4.046875 -0.265625 4.03125 -0.25 3.9375 -0.203125 C 3.671875 -0.09375 3.375 -0.03125 3.09375 -0.03125 Z M 3.09375 -0.03125 "
           id="path7228" />
      </symbol>
      <symbol
         overflow="visible"
         id="symbol5761">
        <path
           style="stroke:none;"
           d=""
           id="path1657" />
      </symbol>
      <symbol
         overflow="visible"
         id="symbol6579">
        <path
           style="stroke:none;"
           d="M 5.875 -4.8125 C 5.875 -4.84375 5.859375 -4.90625 5.78125 -4.90625 C 5.734375 -4.90625 5.71875 -4.890625 5.65625 -4.8125 L 5.15625 -4.28125 C 5.09375 -4.359375 4.703125 -4.90625 3.84375 -4.90625 C 2.140625 -4.90625 0.484375 -3.40625 0.484375 -1.828125 C 0.484375 -0.6875 1.375 0.140625 2.625 0.140625 C 3 0.140625 3.671875 0.0625 4.390625 -0.546875 C 4.9375 -1.015625 5.09375 -1.609375 5.09375 -1.671875 C 5.09375 -1.765625 5.015625 -1.765625 4.96875 -1.765625 C 4.890625 -1.765625 4.875 -1.734375 4.84375 -1.65625 C 4.5625 -0.703125 3.59375 -0.109375 2.75 -0.109375 C 2 -0.109375 1.1875 -0.515625 1.1875 -1.609375 C 1.1875 -1.8125 1.234375 -2.90625 2.03125 -3.796875 C 2.515625 -4.328125 3.25 -4.640625 3.90625 -4.640625 C 4.71875 -4.640625 5.1875 -4.0625 5.1875 -3.28125 C 5.1875 -3.09375 5.171875 -3.03125 5.171875 -3 C 5.171875 -2.90625 5.265625 -2.90625 5.296875 -2.90625 C 5.40625 -2.90625 5.40625 -2.921875 5.4375 -3.0625 Z M 5.875 -4.8125 "
           id="path5217" />
      </symbol>
    </g>
    <linearGradient
       inkscape:collect="always"
       xlink:href="#linearGradient1143"
       id="linearGradient1077"
       gradientUnits="userSpaceOnUse"
       gradientTransform="matrix(-0.26458334,0,0,-0.26458334,393.70001,287.86667)"
       x1="1472"
       y1="256"
       x2="1472"
       y2="832" />
    <g
       id="g7610">
      <symbol
         overflow="visible"
         id="symbol1568">
        <path
           style="stroke:none;"
           d=""
           id="path2476" />
      </symbol>
      <symbol
         overflow="visible"
         id="symbol8652">
        <path
           style="stroke:none;"
           d="M 9.140625 -5.65625 C 9.390625 -6.09375 9.625 -6.453125 10.265625 -6.5 C 10.34375 -6.515625 10.453125 -6.515625 10.453125 -6.703125 C 10.453125 -6.734375 10.40625 -6.8125 10.328125 -6.8125 C 10.09375 -6.8125 9.8125 -6.78125 9.5625 -6.78125 C 9.21875 -6.78125 8.859375 -6.8125 8.515625 -6.8125 C 8.46875 -6.8125 8.328125 -6.8125 8.328125 -6.625 C 8.328125 -6.515625 8.421875 -6.5 8.484375 -6.5 C 8.71875 -6.484375 9.078125 -6.40625 9.078125 -6.109375 C 9.078125 -6 9.015625 -5.921875 8.9375 -5.78125 L 6.25 -1.09375 L 5.875 -6.03125 C 5.875 -6.234375 5.859375 -6.484375 6.578125 -6.5 C 6.75 -6.5 6.84375 -6.5 6.84375 -6.703125 C 6.84375 -6.796875 6.734375 -6.8125 6.703125 -6.8125 C 6.296875 -6.8125 5.875 -6.78125 5.484375 -6.78125 C 5.25 -6.78125 4.671875 -6.8125 4.4375 -6.8125 C 4.375 -6.8125 4.25 -6.8125 4.25 -6.609375 C 4.25 -6.5 4.34375 -6.5 4.484375 -6.5 C 4.921875 -6.5 5 -6.4375 5.015625 -6.25 L 5.078125 -5.484375 L 2.546875 -1.09375 L 2.171875 -6.140625 C 2.171875 -6.265625 2.171875 -6.484375 2.9375 -6.5 C 3.03125 -6.5 3.140625 -6.5 3.140625 -6.703125 C 3.140625 -6.8125 3.015625 -6.8125 3 -6.8125 C 2.609375 -6.8125 2.1875 -6.78125 1.78125 -6.78125 C 1.421875 -6.78125 1.0625 -6.8125 0.734375 -6.8125 C 0.671875 -6.8125 0.546875 -6.8125 0.546875 -6.625 C 0.546875 -6.5 0.640625 -6.5 0.796875 -6.5 C 1.296875 -6.5 1.3125 -6.40625 1.328125 -6.125 L 1.78125 -0.046875 C 1.78125 0.140625 1.796875 0.21875 1.9375 0.21875 C 2.046875 0.21875 2.078125 0.15625 2.171875 0.015625 L 5.109375 -5.078125 L 5.46875 -0.046875 C 5.5 0.171875 5.515625 0.21875 5.625 0.21875 C 5.765625 0.21875 5.828125 0.125 5.875 0.03125 Z M 9.140625 -5.65625 "
           id="path789" />
      </symbol>
    </g>
    <g
       id="g6985">
      <symbol
         overflow="visible"
         id="symbol9700">
        <path
           style="stroke:none;"
           d=""
           id="path5022" />
      </symbol>
      <symbol
         overflow="visible"
         id="symbol2060">
        <path
           style="stroke:none;"
           d="M 4.359375 -0.0625 C 5.90625 -0.640625 7.375 -2.421875 7.375 -4.34375 C 7.375 -5.953125 6.3125 -7.03125 4.828125 -7.03125 C 2.6875 -7.03125 0.484375 -4.765625 0.484375 -2.4375 C 0.484375 -0.78125 1.609375 0.21875 3.046875 0.21875 C 3.296875 0.21875 3.625 0.171875 4.015625 0.0625 C 3.984375 0.6875 3.984375 0.703125 3.984375 0.84375 C 3.984375 1.15625 3.984375 1.9375 4.8125 1.9375 C 5.984375 1.9375 6.46875 0.109375 6.46875 0 C 6.46875 -0.0625 6.40625 -0.09375 6.359375 -0.09375 C 6.28125 -0.09375 6.265625 -0.046875 6.234375 0.015625 C 6 0.71875 5.421875 0.96875 5.078125 0.96875 C 4.609375 0.96875 4.46875 0.703125 4.359375 -0.0625 Z M 2.484375 -0.140625 C 1.703125 -0.453125 1.359375 -1.21875 1.359375 -2.125 C 1.359375 -2.8125 1.625 -4.234375 2.375 -5.296875 C 3.109375 -6.3125 4.046875 -6.78125 4.78125 -6.78125 C 5.765625 -6.78125 6.5 -6 6.5 -4.671875 C 6.5 -3.671875 5.984375 -1.328125 4.3125 -0.40625 C 4.265625 -0.75 4.171875 -1.46875 3.4375 -1.46875 C 2.90625 -1.46875 2.421875 -0.984375 2.421875 -0.453125 C 2.421875 -0.265625 2.484375 -0.15625 2.484375 -0.140625 Z M 3.09375 -0.03125 C 2.953125 -0.03125 2.640625 -0.03125 2.640625 -0.453125 C 2.640625 -0.859375 3.015625 -1.25 3.4375 -1.25 C 3.859375 -1.25 4.046875 -1.015625 4.046875 -0.40625 C 4.046875 -0.265625 4.03125 -0.25 3.9375 -0.203125 C 3.671875 -0.09375 3.375 -0.03125 3.09375 -0.03125 Z M 3.09375 -0.03125 "
           id="path6195" />
      </symbol>
      <symbol
         overflow="visible"
         id="symbol7126">
        <path
           style="stroke:none;"
           d=""
           id="path6720" />
      </symbol>
      <symbol
         overflow="visible"
         id="symbol1311">
        <path
           style="stroke:none;"
           d="M 5.859375 -4.1875 C 5.921875 -4.453125 5.9375 -4.515625 6.453125 -4.515625 C 6.609375 -4.515625 6.6875 -4.515625 6.6875 -4.65625 C 6.6875 -4.6875 6.671875 -4.765625 6.578125 -4.765625 C 6.375 -4.765625 5.875 -4.734375 5.671875 -4.734375 C 5.546875 -4.734375 5.296875 -4.734375 5.1875 -4.734375 C 5.046875 -4.75 4.875 -4.765625 4.75 -4.765625 C 4.703125 -4.765625 4.59375 -4.765625 4.59375 -4.609375 C 4.59375 -4.515625 4.6875 -4.515625 4.828125 -4.515625 C 4.828125 -4.515625 4.96875 -4.515625 5.09375 -4.5 C 5.234375 -4.484375 5.25 -4.46875 5.25 -4.390625 C 5.25 -4.390625 5.25 -4.34375 5.21875 -4.25 L 4.8125 -2.59375 L 2.46875 -2.59375 L 2.875 -4.21875 C 2.9375 -4.453125 2.953125 -4.515625 3.484375 -4.515625 C 3.609375 -4.515625 3.703125 -4.515625 3.703125 -4.65625 C 3.703125 -4.6875 3.671875 -4.765625 3.59375 -4.765625 C 3.390625 -4.765625 2.875 -4.734375 2.671875 -4.734375 C 2.5625 -4.734375 2.3125 -4.734375 2.1875 -4.734375 C 2.0625 -4.75 1.890625 -4.765625 1.75 -4.765625 C 1.71875 -4.765625 1.609375 -4.765625 1.609375 -4.609375 C 1.609375 -4.515625 1.6875 -4.515625 1.828125 -4.515625 C 1.84375 -4.515625 1.96875 -4.515625 2.09375 -4.5 C 2.25 -4.484375 2.265625 -4.46875 2.265625 -4.390625 C 2.265625 -4.390625 2.265625 -4.34375 2.234375 -4.25 L 1.296875 -0.546875 C 1.25 -0.3125 1.234375 -0.25 0.6875 -0.25 C 0.578125 -0.25 0.484375 -0.25 0.484375 -0.109375 C 0.484375 -0.03125 0.53125 0 0.59375 0 C 0.796875 0 1.296875 -0.03125 1.5 -0.03125 C 1.609375 -0.03125 1.859375 -0.03125 1.984375 -0.015625 C 2.125 -0.015625 2.296875 0 2.421875 0 C 2.453125 0 2.578125 0 2.578125 -0.140625 C 2.578125 -0.25 2.5 -0.25 2.34375 -0.25 C 2.234375 -0.25 2.203125 -0.25 2.078125 -0.265625 C 1.921875 -0.28125 1.921875 -0.296875 1.921875 -0.375 C 1.921875 -0.375 1.921875 -0.421875 1.953125 -0.515625 L 2.40625 -2.34375 L 4.75 -2.34375 L 4.296875 -0.546875 C 4.234375 -0.3125 4.21875 -0.25 3.671875 -0.25 C 3.5625 -0.25 3.46875 -0.25 3.46875 -0.109375 C 3.46875 -0.03125 3.515625 0 3.578125 0 C 3.78125 0 4.28125 -0.03125 4.484375 -0.03125 C 4.609375 -0.03125 4.84375 -0.03125 4.96875 -0.015625 C 5.109375 -0.015625 5.28125 0 5.421875 0 C 5.453125 0 5.5625 0 5.5625 -0.140625 C 5.5625 -0.25 5.484375 -0.25 5.328125 -0.25 C 5.21875 -0.25 5.1875 -0.25 5.0625 -0.265625 C 4.90625 -0.28125 4.90625 -0.296875 4.90625 -0.375 C 4.90625 -0.40625 4.9375 -0.484375 4.9375 -0.515625 Z M 5.859375 -4.1875 "
           id="path837" />
      </symbol>
    </g>
    <g
       id="g8979">
      <symbol
         overflow="visible"
         id="symbol8471">
        <path
           style="stroke:none;"
           d=""
           id="path6798" />
      </symbol>
      <symbol
         overflow="visible"
         id="symbol4511">
        <path
           style="stroke:none;"
           d="M 5.078125 -4.03125 C 5.0625 -4.0625 5.03125 -4.140625 5.03125 -4.171875 C 5.03125 -4.171875 5.203125 -4.3125 5.3125 -4.390625 L 7.0625 -5.734375 C 8 -6.4375 8.390625 -6.46875 8.6875 -6.5 C 8.765625 -6.515625 8.859375 -6.515625 8.859375 -6.703125 C 8.859375 -6.734375 8.828125 -6.8125 8.75 -6.8125 C 8.53125 -6.8125 8.28125 -6.78125 8.046875 -6.78125 C 7.6875 -6.78125 7.296875 -6.8125 6.9375 -6.8125 C 6.875 -6.8125 6.75 -6.8125 6.75 -6.609375 C 6.75 -6.546875 6.796875 -6.515625 6.875 -6.5 C 7.09375 -6.484375 7.171875 -6.4375 7.171875 -6.296875 C 7.171875 -6.109375 6.875 -5.875 6.8125 -5.828125 L 2.9375 -2.84375 L 3.734375 -6.046875 C 3.8125 -6.40625 3.84375 -6.5 4.5625 -6.5 C 4.8125 -6.5 4.90625 -6.5 4.90625 -6.703125 C 4.90625 -6.78125 4.828125 -6.8125 4.765625 -6.8125 C 4.484375 -6.8125 3.765625 -6.78125 3.484375 -6.78125 C 3.203125 -6.78125 2.5 -6.8125 2.203125 -6.8125 C 2.140625 -6.8125 2 -6.8125 2 -6.625 C 2 -6.5 2.09375 -6.5 2.296875 -6.5 C 2.421875 -6.5 2.609375 -6.484375 2.71875 -6.484375 C 2.875 -6.453125 2.9375 -6.4375 2.9375 -6.3125 C 2.9375 -6.28125 2.9375 -6.25 2.90625 -6.125 L 1.5625 -0.78125 C 1.46875 -0.390625 1.453125 -0.3125 0.65625 -0.3125 C 0.484375 -0.3125 0.375 -0.3125 0.375 -0.125 C 0.375 0 0.5 0 0.53125 0 C 0.8125 0 1.515625 -0.03125 1.796875 -0.03125 C 2 -0.03125 2.21875 -0.015625 2.4375 -0.015625 C 2.65625 -0.015625 2.875 0 3.078125 0 C 3.15625 0 3.28125 0 3.28125 -0.203125 C 3.28125 -0.3125 3.1875 -0.3125 3 -0.3125 C 2.625 -0.3125 2.359375 -0.3125 2.359375 -0.484375 C 2.359375 -0.5625 2.40625 -0.78125 2.4375 -0.921875 C 2.578125 -1.453125 2.71875 -1.96875 2.84375 -2.5 L 4.328125 -3.65625 L 5.484375 -0.96875 C 5.609375 -0.703125 5.609375 -0.671875 5.609375 -0.625 C 5.609375 -0.3125 5.171875 -0.3125 5.078125 -0.3125 C 4.96875 -0.3125 4.859375 -0.3125 4.859375 -0.109375 C 4.859375 0 4.984375 0 5 0 C 5.40625 0 5.828125 -0.03125 6.21875 -0.03125 C 6.4375 -0.03125 6.984375 0 7.203125 0 C 7.25 0 7.375 0 7.375 -0.203125 C 7.375 -0.3125 7.265625 -0.3125 7.171875 -0.3125 C 6.765625 -0.3125 6.640625 -0.40625 6.484375 -0.75 Z M 5.078125 -4.03125 "
           id="path2713" />
      </symbol>
    </g>
    <g
       id="g5936">
      <symbol
         overflow="visible"
         id="symbol9523">
        <path
           style="stroke:none;"
           d=""
           id="path600" />
      </symbol>
      <symbol
         overflow="visible"
         id="symbol2414">
        <path
           style="stroke:none;"
           d="M 5.078125 -4.03125 C 5.0625 -4.0625 5.03125 -4.140625 5.03125 -4.171875 C 5.03125 -4.171875 5.203125 -4.3125 5.3125 -4.390625 L 7.0625 -5.734375 C 8 -6.4375 8.390625 -6.46875 8.6875 -6.5 C 8.765625 -6.515625 8.859375 -6.515625 8.859375 -6.703125 C 8.859375 -6.734375 8.828125 -6.8125 8.75 -6.8125 C 8.53125 -6.8125 8.28125 -6.78125 8.046875 -6.78125 C 7.6875 -6.78125 7.296875 -6.8125 6.9375 -6.8125 C 6.875 -6.8125 6.75 -6.8125 6.75 -6.609375 C 6.75 -6.546875 6.796875 -6.515625 6.875 -6.5 C 7.09375 -6.484375 7.171875 -6.4375 7.171875 -6.296875 C 7.171875 -6.109375 6.875 -5.875 6.8125 -5.828125 L 2.9375 -2.84375 L 3.734375 -6.046875 C 3.8125 -6.40625 3.84375 -6.5 4.5625 -6.5 C 4.8125 -6.5 4.90625 -6.5 4.90625 -6.703125 C 4.90625 -6.78125 4.828125 -6.8125 4.765625 -6.8125 C 4.484375 -6.8125 3.765625 -6.78125 3.484375 -6.78125 C 3.203125 -6.78125 2.5 -6.8125 2.203125 -6.8125 C 2.140625 -6.8125 2 -6.8125 2 -6.625 C 2 -6.5 2.09375 -6.5 2.296875 -6.5 C 2.421875 -6.5 2.609375 -6.484375 2.71875 -6.484375 C 2.875 -6.453125 2.9375 -6.4375 2.9375 -6.3125 C 2.9375 -6.28125 2.9375 -6.25 2.90625 -6.125 L 1.5625 -0.78125 C 1.46875 -0.390625 1.453125 -0.3125 0.65625 -0.3125 C 0.484375 -0.3125 0.375 -0.3125 0.375 -0.125 C 0.375 0 0.5 0 0.53125 0 C 0.8125 0 1.515625 -0.03125 1.796875 -0.03125 C 2 -0.03125 2.21875 -0.015625 2.4375 -0.015625 C 2.65625 -0.015625 2.875 0 3.078125 0 C 3.15625 0 3.28125 0 3.28125 -0.203125 C 3.28125 -0.3125 3.1875 -0.3125 3 -0.3125 C 2.625 -0.3125 2.359375 -0.3125 2.359375 -0.484375 C 2.359375 -0.5625 2.40625 -0.78125 2.4375 -0.921875 C 2.578125 -1.453125 2.71875 -1.96875 2.84375 -2.5 L 4.328125 -3.65625 L 5.484375 -0.96875 C 5.609375 -0.703125 5.609375 -0.671875 5.609375 -0.625 C 5.609375 -0.3125 5.171875 -0.3125 5.078125 -0.3125 C 4.96875 -0.3125 4.859375 -0.3125 4.859375 -0.109375 C 4.859375 0 4.984375 0 5 0 C 5.40625 0 5.828125 -0.03125 6.21875 -0.03125 C 6.4375 -0.03125 6.984375 0 7.203125 0 C 7.25 0 7.375 0 7.375 -0.203125 C 7.375 -0.3125 7.265625 -0.3125 7.171875 -0.3125 C 6.765625 -0.3125 6.640625 -0.40625 6.484375 -0.75 Z M 5.078125 -4.03125 "
           id="path8281" />
      </symbol>
      <symbol
         overflow="visible"
         id="symbol5207">
        <path
           style="stroke:none;"
           d="M 4.359375 -0.0625 C 5.90625 -0.640625 7.375 -2.421875 7.375 -4.34375 C 7.375 -5.953125 6.3125 -7.03125 4.828125 -7.03125 C 2.6875 -7.03125 0.484375 -4.765625 0.484375 -2.4375 C 0.484375 -0.78125 1.609375 0.21875 3.046875 0.21875 C 3.296875 0.21875 3.625 0.171875 4.015625 0.0625 C 3.984375 0.6875 3.984375 0.703125 3.984375 0.84375 C 3.984375 1.15625 3.984375 1.9375 4.8125 1.9375 C 5.984375 1.9375 6.46875 0.109375 6.46875 0 C 6.46875 -0.0625 6.40625 -0.09375 6.359375 -0.09375 C 6.28125 -0.09375 6.265625 -0.046875 6.234375 0.015625 C 6 0.71875 5.421875 0.96875 5.078125 0.96875 C 4.609375 0.96875 4.46875 0.703125 4.359375 -0.0625 Z M 2.484375 -0.140625 C 1.703125 -0.453125 1.359375 -1.21875 1.359375 -2.125 C 1.359375 -2.8125 1.625 -4.234375 2.375 -5.296875 C 3.109375 -6.3125 4.046875 -6.78125 4.78125 -6.78125 C 5.765625 -6.78125 6.5 -6 6.5 -4.671875 C 6.5 -3.671875 5.984375 -1.328125 4.3125 -0.40625 C 4.265625 -0.75 4.171875 -1.46875 3.4375 -1.46875 C 2.90625 -1.46875 2.421875 -0.984375 2.421875 -0.453125 C 2.421875 -0.265625 2.484375 -0.15625 2.484375 -0.140625 Z M 3.09375 -0.03125 C 2.953125 -0.03125 2.640625 -0.03125 2.640625 -0.453125 C 2.640625 -0.859375 3.015625 -1.25 3.4375 -1.25 C 3.859375 -1.25 4.046875 -1.015625 4.046875 -0.40625 C 4.046875 -0.265625 4.03125 -0.25 3.9375 -0.203125 C 3.671875 -0.09375 3.375 -0.03125 3.09375 -0.03125 Z M 3.09375 -0.03125 "
           id="path5701" />
      </symbol>
      <symbol
         overflow="visible"
         id="symbol1055">
        <path
           style="stroke:none;"
           d="M 9.140625 -5.65625 C 9.390625 -6.09375 9.625 -6.453125 10.265625 -6.5 C 10.34375 -6.515625 10.453125 -6.515625 10.453125 -6.703125 C 10.453125 -6.734375 10.40625 -6.8125 10.328125 -6.8125 C 10.09375 -6.8125 9.8125 -6.78125 9.5625 -6.78125 C 9.21875 -6.78125 8.859375 -6.8125 8.515625 -6.8125 C 8.46875 -6.8125 8.328125 -6.8125 8.328125 -6.625 C 8.328125 -6.515625 8.421875 -6.5 8.484375 -6.5 C 8.71875 -6.484375 9.078125 -6.40625 9.078125 -6.109375 C 9.078125 -6 9.015625 -5.921875 8.9375 -5.78125 L 6.25 -1.09375 L 5.875 -6.03125 C 5.875 -6.234375 5.859375 -6.484375 6.578125 -6.5 C 6.75 -6.5 6.84375 -6.5 6.84375 -6.703125 C 6.84375 -6.796875 6.734375 -6.8125 6.703125 -6.8125 C 6.296875 -6.8125 5.875 -6.78125 5.484375 -6.78125 C 5.25 -6.78125 4.671875 -6.8125 4.4375 -6.8125 C 4.375 -6.8125 4.25 -6.8125 4.25 -6.609375 C 4.25 -6.5 4.34375 -6.5 4.484375 -6.5 C 4.921875 -6.5 5 -6.4375 5.015625 -6.25 L 5.078125 -5.484375 L 2.546875 -1.09375 L 2.171875 -6.140625 C 2.171875 -6.265625 2.171875 -6.484375 2.9375 -6.5 C 3.03125 -6.5 3.140625 -6.5 3.140625 -6.703125 C 3.140625 -6.8125 3.015625 -6.8125 3 -6.8125 C 2.609375 -6.8125 2.1875 -6.78125 1.78125 -6.78125 C 1.421875 -6.78125 1.0625 -6.8125 0.734375 -6.8125 C 0.671875 -6.8125 0.546875 -6.8125 0.546875 -6.625 C 0.546875 -6.5 0.640625 -6.5 0.796875 -6.5 C 1.296875 -6.5 1.3125 -6.40625 1.328125 -6.125 L 1.78125 -0.046875 C 1.78125 0.140625 1.796875 0.21875 1.9375 0.21875 C 2.046875 0.21875 2.078125 0.15625 2.171875 0.015625 L 5.109375 -5.078125 L 5.46875 -0.046875 C 5.5 0.171875 5.515625 0.21875 5.625 0.21875 C 5.765625 0.21875 5.828125 0.125 5.875 0.03125 Z M 9.140625 -5.65625 "
           id="path2511" />
      </symbol>
      <symbol
         overflow="visible"
         id="symbol4786">
        <path
           style="stroke:none;"
           d=""
           id="path6695" />
      </symbol>
      <symbol
         overflow="visible"
         id="symbol2135">
        <path
           style="stroke:none;"
           d="M 6.84375 -3.265625 C 7 -3.265625 7.1875 -3.265625 7.1875 -3.453125 C 7.1875 -3.65625 7 -3.65625 6.859375 -3.65625 L 0.890625 -3.65625 C 0.75 -3.65625 0.5625 -3.65625 0.5625 -3.453125 C 0.5625 -3.265625 0.75 -3.265625 0.890625 -3.265625 Z M 6.859375 -1.328125 C 7 -1.328125 7.1875 -1.328125 7.1875 -1.53125 C 7.1875 -1.71875 7 -1.71875 6.84375 -1.71875 L 0.890625 -1.71875 C 0.75 -1.71875 0.5625 -1.71875 0.5625 -1.53125 C 0.5625 -1.328125 0.75 -1.328125 0.890625 -1.328125 Z M 6.859375 -1.328125 "
           id="path2657" />
      </symbol>
      <symbol
         overflow="visible"
         id="symbol9173">
        <path
           style="stroke:none;"
           d=""
           id="path5043" />
      </symbol>
      <symbol
         overflow="visible"
         id="symbol6975">
        <path
           style="stroke:none;"
           d="M 1.578125 -7.125 C 1.578125 -7.296875 1.578125 -7.484375 1.390625 -7.484375 C 1.1875 -7.484375 1.1875 -7.296875 1.1875 -7.125 L 1.1875 2.140625 C 1.1875 2.3125 1.1875 2.5 1.390625 2.5 C 1.578125 2.5 1.578125 2.3125 1.578125 2.140625 Z M 1.578125 -7.125 "
           id="path4582" />
      </symbol>
      <symbol
         overflow="visible"
         id="symbol6183">
        <path
           style="stroke:none;"
           d=""
           id="path2558" />
      </symbol>
      <symbol
         overflow="visible"
         id="symbol4493">
        <path
           style="stroke:none;"
           d="M 5.875 -4.8125 C 5.875 -4.84375 5.859375 -4.90625 5.78125 -4.90625 C 5.734375 -4.90625 5.71875 -4.890625 5.65625 -4.8125 L 5.15625 -4.28125 C 5.09375 -4.359375 4.703125 -4.90625 3.84375 -4.90625 C 2.140625 -4.90625 0.484375 -3.40625 0.484375 -1.828125 C 0.484375 -0.6875 1.375 0.140625 2.625 0.140625 C 3 0.140625 3.671875 0.0625 4.390625 -0.546875 C 4.9375 -1.015625 5.09375 -1.609375 5.09375 -1.671875 C 5.09375 -1.765625 5.015625 -1.765625 4.96875 -1.765625 C 4.890625 -1.765625 4.875 -1.734375 4.84375 -1.65625 C 4.5625 -0.703125 3.59375 -0.109375 2.75 -0.109375 C 2 -0.109375 1.1875 -0.515625 1.1875 -1.609375 C 1.1875 -1.8125 1.234375 -2.90625 2.03125 -3.796875 C 2.515625 -4.328125 3.25 -4.640625 3.90625 -4.640625 C 4.71875 -4.640625 5.1875 -4.0625 5.1875 -3.28125 C 5.1875 -3.09375 5.171875 -3.03125 5.171875 -3 C 5.171875 -2.90625 5.265625 -2.90625 5.296875 -2.90625 C 5.40625 -2.90625 5.40625 -2.921875 5.4375 -3.0625 Z M 5.875 -4.8125 "
           id="path3983" />
      </symbol>
    </g>
    <g
       id="g2781">
      <symbol
         overflow="visible"
         id="symbol3720">
        <path
           style="stroke:none;"
           d=""
           id="path4541" />
      </symbol>
      <symbol
         overflow="visible"
         id="symbol2132">
        <path
           style="stroke:none;"
           d="M 5.078125 -4.03125 C 5.0625 -4.0625 5.03125 -4.140625 5.03125 -4.171875 C 5.03125 -4.171875 5.203125 -4.3125 5.3125 -4.390625 L 7.0625 -5.734375 C 8 -6.4375 8.390625 -6.46875 8.6875 -6.5 C 8.765625 -6.515625 8.859375 -6.515625 8.859375 -6.703125 C 8.859375 -6.734375 8.828125 -6.8125 8.75 -6.8125 C 8.53125 -6.8125 8.28125 -6.78125 8.046875 -6.78125 C 7.6875 -6.78125 7.296875 -6.8125 6.9375 -6.8125 C 6.875 -6.8125 6.75 -6.8125 6.75 -6.609375 C 6.75 -6.546875 6.796875 -6.515625 6.875 -6.5 C 7.09375 -6.484375 7.171875 -6.4375 7.171875 -6.296875 C 7.171875 -6.109375 6.875 -5.875 6.8125 -5.828125 L 2.9375 -2.84375 L 3.734375 -6.046875 C 3.8125 -6.40625 3.84375 -6.5 4.5625 -6.5 C 4.8125 -6.5 4.90625 -6.5 4.90625 -6.703125 C 4.90625 -6.78125 4.828125 -6.8125 4.765625 -6.8125 C 4.484375 -6.8125 3.765625 -6.78125 3.484375 -6.78125 C 3.203125 -6.78125 2.5 -6.8125 2.203125 -6.8125 C 2.140625 -6.8125 2 -6.8125 2 -6.625 C 2 -6.5 2.09375 -6.5 2.296875 -6.5 C 2.421875 -6.5 2.609375 -6.484375 2.71875 -6.484375 C 2.875 -6.453125 2.9375 -6.4375 2.9375 -6.3125 C 2.9375 -6.28125 2.9375 -6.25 2.90625 -6.125 L 1.5625 -0.78125 C 1.46875 -0.390625 1.453125 -0.3125 0.65625 -0.3125 C 0.484375 -0.3125 0.375 -0.3125 0.375 -0.125 C 0.375 0 0.5 0 0.53125 0 C 0.8125 0 1.515625 -0.03125 1.796875 -0.03125 C 2 -0.03125 2.21875 -0.015625 2.4375 -0.015625 C 2.65625 -0.015625 2.875 0 3.078125 0 C 3.15625 0 3.28125 0 3.28125 -0.203125 C 3.28125 -0.3125 3.1875 -0.3125 3 -0.3125 C 2.625 -0.3125 2.359375 -0.3125 2.359375 -0.484375 C 2.359375 -0.5625 2.40625 -0.78125 2.4375 -0.921875 C 2.578125 -1.453125 2.71875 -1.96875 2.84375 -2.5 L 4.328125 -3.65625 L 5.484375 -0.96875 C 5.609375 -0.703125 5.609375 -0.671875 5.609375 -0.625 C 5.609375 -0.3125 5.171875 -0.3125 5.078125 -0.3125 C 4.96875 -0.3125 4.859375 -0.3125 4.859375 -0.109375 C 4.859375 0 4.984375 0 5 0 C 5.40625 0 5.828125 -0.03125 6.21875 -0.03125 C 6.4375 -0.03125 6.984375 0 7.203125 0 C 7.25 0 7.375 0 7.375 -0.203125 C 7.375 -0.3125 7.265625 -0.3125 7.171875 -0.3125 C 6.765625 -0.3125 6.640625 -0.40625 6.484375 -0.75 Z M 5.078125 -4.03125 "
           id="path1328" />
      </symbol>
      <symbol
         overflow="visible"
         id="symbol7983">
        <path
           style="stroke:none;"
           d="M 4.359375 -0.0625 C 5.90625 -0.640625 7.375 -2.421875 7.375 -4.34375 C 7.375 -5.953125 6.3125 -7.03125 4.828125 -7.03125 C 2.6875 -7.03125 0.484375 -4.765625 0.484375 -2.4375 C 0.484375 -0.78125 1.609375 0.21875 3.046875 0.21875 C 3.296875 0.21875 3.625 0.171875 4.015625 0.0625 C 3.984375 0.6875 3.984375 0.703125 3.984375 0.84375 C 3.984375 1.15625 3.984375 1.9375 4.8125 1.9375 C 5.984375 1.9375 6.46875 0.109375 6.46875 0 C 6.46875 -0.0625 6.40625 -0.09375 6.359375 -0.09375 C 6.28125 -0.09375 6.265625 -0.046875 6.234375 0.015625 C 6 0.71875 5.421875 0.96875 5.078125 0.96875 C 4.609375 0.96875 4.46875 0.703125 4.359375 -0.0625 Z M 2.484375 -0.140625 C 1.703125 -0.453125 1.359375 -1.21875 1.359375 -2.125 C 1.359375 -2.8125 1.625 -4.234375 2.375 -5.296875 C 3.109375 -6.3125 4.046875 -6.78125 4.78125 -6.78125 C 5.765625 -6.78125 6.5 -6 6.5 -4.671875 C 6.5 -3.671875 5.984375 -1.328125 4.3125 -0.40625 C 4.265625 -0.75 4.171875 -1.46875 3.4375 -1.46875 C 2.90625 -1.46875 2.421875 -0.984375 2.421875 -0.453125 C 2.421875 -0.265625 2.484375 -0.15625 2.484375 -0.140625 Z M 3.09375 -0.03125 C 2.953125 -0.03125 2.640625 -0.03125 2.640625 -0.453125 C 2.640625 -0.859375 3.015625 -1.25 3.4375 -1.25 C 3.859375 -1.25 4.046875 -1.015625 4.046875 -0.40625 C 4.046875 -0.265625 4.03125 -0.25 3.9375 -0.203125 C 3.671875 -0.09375 3.375 -0.03125 3.09375 -0.03125 Z M 3.09375 -0.03125 "
           id="path3844" />
      </symbol>
      <symbol
         overflow="visible"
         id="symbol2201">
        <path
           style="stroke:none;"
           d="M 9.140625 -5.65625 C 9.390625 -6.09375 9.625 -6.453125 10.265625 -6.5 C 10.34375 -6.515625 10.453125 -6.515625 10.453125 -6.703125 C 10.453125 -6.734375 10.40625 -6.8125 10.328125 -6.8125 C 10.09375 -6.8125 9.8125 -6.78125 9.5625 -6.78125 C 9.21875 -6.78125 8.859375 -6.8125 8.515625 -6.8125 C 8.46875 -6.8125 8.328125 -6.8125 8.328125 -6.625 C 8.328125 -6.515625 8.421875 -6.5 8.484375 -6.5 C 8.71875 -6.484375 9.078125 -6.40625 9.078125 -6.109375 C 9.078125 -6 9.015625 -5.921875 8.9375 -5.78125 L 6.25 -1.09375 L 5.875 -6.03125 C 5.875 -6.234375 5.859375 -6.484375 6.578125 -6.5 C 6.75 -6.5 6.84375 -6.5 6.84375 -6.703125 C 6.84375 -6.796875 6.734375 -6.8125 6.703125 -6.8125 C 6.296875 -6.8125 5.875 -6.78125 5.484375 -6.78125 C 5.25 -6.78125 4.671875 -6.8125 4.4375 -6.8125 C 4.375 -6.8125 4.25 -6.8125 4.25 -6.609375 C 4.25 -6.5 4.34375 -6.5 4.484375 -6.5 C 4.921875 -6.5 5 -6.4375 5.015625 -6.25 L 5.078125 -5.484375 L 2.546875 -1.09375 L 2.171875 -6.140625 C 2.171875 -6.265625 2.171875 -6.484375 2.9375 -6.5 C 3.03125 -6.5 3.140625 -6.5 3.140625 -6.703125 C 3.140625 -6.8125 3.015625 -6.8125 3 -6.8125 C 2.609375 -6.8125 2.1875 -6.78125 1.78125 -6.78125 C 1.421875 -6.78125 1.0625 -6.8125 0.734375 -6.8125 C 0.671875 -6.8125 0.546875 -6.8125 0.546875 -6.625 C 0.546875 -6.5 0.640625 -6.5 0.796875 -6.5 C 1.296875 -6.5 1.3125 -6.40625 1.328125 -6.125 L 1.78125 -0.046875 C 1.78125 0.140625 1.796875 0.21875 1.9375 0.21875 C 2.046875 0.21875 2.078125 0.15625 2.171875 0.015625 L 5.109375 -5.078125 L 5.46875 -0.046875 C 5.5 0.171875 5.515625 0.21875 5.625 0.21875 C 5.765625 0.21875 5.828125 0.125 5.875 0.03125 Z M 9.140625 -5.65625 "
           id="path4329" />
      </symbol>
      <symbol
         overflow="visible"
         id="symbol4304">
        <path
           style="stroke:none;"
           d=""
           id="path9455" />
      </symbol>
      <symbol
         overflow="visible"
         id="symbol5445">
        <path
           style="stroke:none;"
           d="M 6.84375 -3.265625 C 7 -3.265625 7.1875 -3.265625 7.1875 -3.453125 C 7.1875 -3.65625 7 -3.65625 6.859375 -3.65625 L 0.890625 -3.65625 C 0.75 -3.65625 0.5625 -3.65625 0.5625 -3.453125 C 0.5625 -3.265625 0.75 -3.265625 0.890625 -3.265625 Z M 6.859375 -1.328125 C 7 -1.328125 7.1875 -1.328125 7.1875 -1.53125 C 7.1875 -1.71875 7 -1.71875 6.84375 -1.71875 L 0.890625 -1.71875 C 0.75 -1.71875 0.5625 -1.71875 0.5625 -1.53125 C 0.5625 -1.328125 0.75 -1.328125 0.890625 -1.328125 Z M 6.859375 -1.328125 "
           id="path4454" />
      </symbol>
      <symbol
         overflow="visible"
         id="symbol9217">
        <path
           style="stroke:none;"
           d=""
           id="path1281" />
      </symbol>
      <symbol
         overflow="visible"
         id="symbol2986">
        <path
           style="stroke:none;"
           d="M 1.578125 -7.125 C 1.578125 -7.296875 1.578125 -7.484375 1.390625 -7.484375 C 1.1875 -7.484375 1.1875 -7.296875 1.1875 -7.125 L 1.1875 2.140625 C 1.1875 2.3125 1.1875 2.5 1.390625 2.5 C 1.578125 2.5 1.578125 2.3125 1.578125 2.140625 Z M 1.578125 -7.125 "
           id="path5721" />
      </symbol>
      <symbol
         overflow="visible"
         id="symbol3796">
        <path
           style="stroke:none;"
           d="M 6.5625 -2.296875 C 6.734375 -2.296875 6.921875 -2.296875 6.921875 -2.5 C 6.921875 -2.6875 6.734375 -2.6875 6.5625 -2.6875 L 1.171875 -2.6875 C 1 -2.6875 0.828125 -2.6875 0.828125 -2.5 C 0.828125 -2.296875 1 -2.296875 1.171875 -2.296875 Z M 6.5625 -2.296875 "
           id="path2015" />
      </symbol>
      <symbol
         overflow="visible"
         id="symbol3368">
        <path
           style="stroke:none;"
           d=""
           id="path3616" />
      </symbol>
      <symbol
         overflow="visible"
         id="symbol5108">
        <path
           style="stroke:none;"
           d="M 5.875 -4.8125 C 5.875 -4.84375 5.859375 -4.90625 5.78125 -4.90625 C 5.734375 -4.90625 5.71875 -4.890625 5.65625 -4.8125 L 5.15625 -4.28125 C 5.09375 -4.359375 4.703125 -4.90625 3.84375 -4.90625 C 2.140625 -4.90625 0.484375 -3.40625 0.484375 -1.828125 C 0.484375 -0.6875 1.375 0.140625 2.625 0.140625 C 3 0.140625 3.671875 0.0625 4.390625 -0.546875 C 4.9375 -1.015625 5.09375 -1.609375 5.09375 -1.671875 C 5.09375 -1.765625 5.015625 -1.765625 4.96875 -1.765625 C 4.890625 -1.765625 4.875 -1.734375 4.84375 -1.65625 C 4.5625 -0.703125 3.59375 -0.109375 2.75 -0.109375 C 2 -0.109375 1.1875 -0.515625 1.1875 -1.609375 C 1.1875 -1.8125 1.234375 -2.90625 2.03125 -3.796875 C 2.515625 -4.328125 3.25 -4.640625 3.90625 -4.640625 C 4.71875 -4.640625 5.1875 -4.0625 5.1875 -3.28125 C 5.1875 -3.09375 5.171875 -3.03125 5.171875 -3 C 5.171875 -2.90625 5.265625 -2.90625 5.296875 -2.90625 C 5.40625 -2.90625 5.40625 -2.921875 5.4375 -3.0625 Z M 5.875 -4.8125 "
           id="path898" />
      </symbol>
      <symbol
         overflow="visible"
         id="symbol213">
        <path
           style="stroke:none;"
           d="M 5.859375 -4.1875 C 5.921875 -4.453125 5.9375 -4.515625 6.453125 -4.515625 C 6.609375 -4.515625 6.6875 -4.515625 6.6875 -4.65625 C 6.6875 -4.6875 6.671875 -4.765625 6.578125 -4.765625 C 6.375 -4.765625 5.875 -4.734375 5.671875 -4.734375 C 5.546875 -4.734375 5.296875 -4.734375 5.1875 -4.734375 C 5.046875 -4.75 4.875 -4.765625 4.75 -4.765625 C 4.703125 -4.765625 4.59375 -4.765625 4.59375 -4.609375 C 4.59375 -4.515625 4.6875 -4.515625 4.828125 -4.515625 C 4.828125 -4.515625 4.96875 -4.515625 5.09375 -4.5 C 5.234375 -4.484375 5.25 -4.46875 5.25 -4.390625 C 5.25 -4.390625 5.25 -4.34375 5.21875 -4.25 L 4.8125 -2.59375 L 2.46875 -2.59375 L 2.875 -4.21875 C 2.9375 -4.453125 2.953125 -4.515625 3.484375 -4.515625 C 3.609375 -4.515625 3.703125 -4.515625 3.703125 -4.65625 C 3.703125 -4.6875 3.671875 -4.765625 3.59375 -4.765625 C 3.390625 -4.765625 2.875 -4.734375 2.671875 -4.734375 C 2.5625 -4.734375 2.3125 -4.734375 2.1875 -4.734375 C 2.0625 -4.75 1.890625 -4.765625 1.75 -4.765625 C 1.71875 -4.765625 1.609375 -4.765625 1.609375 -4.609375 C 1.609375 -4.515625 1.6875 -4.515625 1.828125 -4.515625 C 1.84375 -4.515625 1.96875 -4.515625 2.09375 -4.5 C 2.25 -4.484375 2.265625 -4.46875 2.265625 -4.390625 C 2.265625 -4.390625 2.265625 -4.34375 2.234375 -4.25 L 1.296875 -0.546875 C 1.25 -0.3125 1.234375 -0.25 0.6875 -0.25 C 0.578125 -0.25 0.484375 -0.25 0.484375 -0.109375 C 0.484375 -0.03125 0.53125 0 0.59375 0 C 0.796875 0 1.296875 -0.03125 1.5 -0.03125 C 1.609375 -0.03125 1.859375 -0.03125 1.984375 -0.015625 C 2.125 -0.015625 2.296875 0 2.421875 0 C 2.453125 0 2.578125 0 2.578125 -0.140625 C 2.578125 -0.25 2.5 -0.25 2.34375 -0.25 C 2.234375 -0.25 2.203125 -0.25 2.078125 -0.265625 C 1.921875 -0.28125 1.921875 -0.296875 1.921875 -0.375 C 1.921875 -0.375 1.921875 -0.421875 1.953125 -0.515625 L 2.40625 -2.34375 L 4.75 -2.34375 L 4.296875 -0.546875 C 4.234375 -0.3125 4.21875 -0.25 3.671875 -0.25 C 3.5625 -0.25 3.46875 -0.25 3.46875 -0.109375 C 3.46875 -0.03125 3.515625 0 3.578125 0 C 3.78125 0 4.28125 -0.03125 4.484375 -0.03125 C 4.609375 -0.03125 4.84375 -0.03125 4.96875 -0.015625 C 5.109375 -0.015625 5.28125 0 5.421875 0 C 5.453125 0 5.5625 0 5.5625 -0.140625 C 5.5625 -0.25 5.484375 -0.25 5.328125 -0.25 C 5.21875 -0.25 5.1875 -0.25 5.0625 -0.265625 C 4.90625 -0.28125 4.90625 -0.296875 4.90625 -0.375 C 4.90625 -0.40625 4.9375 -0.484375 4.9375 -0.515625 Z M 5.859375 -4.1875 "
           id="path7355" />
      </symbol>
    </g>
  </defs>
  <sodipodi:namedview
     id="base"
     pagecolor="#ffffff"
     bordercolor="#666666"
     borderopacity="1.0"
     inkscape:pageopacity="0.0"
     inkscape:pageshadow="2"
     inkscape:zoom="0.175"
     inkscape:cx="680.99473"
     inkscape:cy="-230.26202"
     inkscape:document-units="px"
     inkscape:current-layer="layer1"
     inkscape:document-rotation="0"
     showgrid="true"
     units="px"
     borderlayer="true"
     inkscape:showpageshadow="false"
     inkscape:window-width="958"
     inkscape:window-height="1048"
     inkscape:window-x="1920"
     inkscape:window-y="18"
     inkscape:window-maximized="0"
     showguides="true"
     inkscape:guide-bbox="true">
    <inkscape:grid
       type="xygrid"
       id="grid10"
       spacingx="2.1166667"
       spacingy="2.1166667"
       empspacing="8"
       enabled="true" />
    <sodipodi:guide
       position="0,-2.3125003e-06"
       orientation="0,-1"
       id="guide831" />
    <sodipodi:guide
       position="507.99999,285.75001"
       orientation="0,-1"
       id="guide833" />
    <sodipodi:guide
       position="0,-2.3125003e-06"
       orientation="1,0"
       id="guide835" />
    <sodipodi:guide
       position="507.99999,285.75002"
       orientation="1,0"
       id="guide837" />
    <inkscape:grid
       type="axonomgrid"
       id="grid839"
       gridanglex="30"
       gridanglez="30"
       empspacing="16"
       enabled="false" />
    <sodipodi:guide
       position="67.733333,-2.3125004e-06"
       orientation="1,0"
       id="guide923" />
    <sodipodi:guide
       position="203.2,-2.3125004e-06"
       orientation="1,0"
       id="guide925" />
  </sodipodi:namedview>
  <metadata
     id="metadata5">
    <rdf:RDF>
      <cc:Work
         rdf:about="">
        <dc:format>image/svg+xml</dc:format>
        <dc:type
           rdf:resource="http://purl.org/dc/dcmitype/StillImage" />
        <dc:title />
      </cc:Work>
    </rdf:RDF>
  </metadata>
  <g
     inkscape:label="fondo"
     inkscape:groupmode="layer"
     id="layer1"
     style="display:inline">
    <rect
       style="fill:#35205f;fill-opacity:1;stroke-width:0.79375;stroke-linecap:round;stroke-linejoin:bevel"
       id="rect836"
       width="508"
       height="285.75"
       x="0"
       y="0" />
  </g>
  <g
     inkscape:groupmode="layer"
     id="layer2"
     inkscape:label="diagrama"
     style="display:none"
     sodipodi:insensitive="true">
    <path
       id="path1167"
       style="display:inline;fill:url(#linearGradient1169);fill-opacity:1;stroke:none;stroke-width:2.64583;stroke-linecap:round;stroke-miterlimit:4;stroke-dasharray:none"
       d="m 118.53334,186.26667 v -50.8 c -1.3e-4,-4.49095 -1.78427,-8.79792 -4.95992,-11.97343 -3.17551,-3.17565 -7.48248,-4.95978 -11.97343,-4.95991 H 33.866667 v 16.93334 h 63.499998 c 2.34527,0 4.233335,1.88807 4.233335,4.23333 v 46.56667 z"
       sodipodi:nodetypes="ccccccsscc" />
    <path
       id="path1075"
       style="display:inline;fill:url(#linearGradient1077);fill-opacity:1;stroke:none;stroke-width:2.64583;stroke-linecap:round;stroke-miterlimit:4;stroke-dasharray:none"
       d="m -84.666668,118.53334 v 16.93333 h 50.800001 v -16.93333 z"
       sodipodi:nodetypes="ccccc" />
    <path
       id="path1305"
       style="display:inline;fill:url(#linearGradient1122);fill-opacity:1;stroke:none;stroke-width:2.64583;stroke-linecap:round;stroke-miterlimit:4;stroke-dasharray:none"
       d="M 118.53334,101.6 V 67.733334 h 50.8 V 101.6 Z"
       sodipodi:nodetypes="ccccc" />
    <path
       id="path1292"
       style="display:inline;fill:url(#linearGradient1124);fill-opacity:1;stroke:none;stroke-width:2.64583;stroke-linecap:round;stroke-miterlimit:4;stroke-dasharray:none"
       d="m 169.33334,186.26667 v -50.8 V 101.6 h -50.8 v 33.86667 50.8 z" />
    <path
       id="path1156"
       style="display:inline;fill:url(#linearGradient1158);fill-opacity:1;stroke:none;stroke-width:2.64583;stroke-linecap:round;stroke-miterlimit:4;stroke-dasharray:none"
       d="M 169.33334,220.13334 V 186.26667 H 101.6 v 33.86667 z" />
    <path
       style="display:inline;fill:none;stroke:#000000;stroke-width:2.64583;stroke-linecap:butt;stroke-linejoin:miter;stroke-miterlimit:4;stroke-dasharray:none;stroke-opacity:1"
       d="M 101.6,220.13334 V 186.26667"
       id="path1165" />
    <path
       id="rect1096"
       style="display:inline;fill:#000000;fill-opacity:1;stroke:none;stroke-width:2.64583;stroke-linecap:round;stroke-miterlimit:4;stroke-dasharray:none"
       d="M -99.483311,148.16667 V 152.4 h 4.23333 c -2.34526,0 -4.23333,-1.88807 -4.23333,-4.23333 z" />
    <rect
       style="display:inline;fill:#000000;fill-opacity:1;stroke:none;stroke-width:2.64583;stroke-linecap:round;stroke-miterlimit:4;stroke-dasharray:none"
       id="rect992"
       width="67.73333"
       height="84.666672"
       x="-167.21664"
       y="67.733337" />
    <rect
       style="display:inline;fill:#000000;fill-opacity:1;stroke:none;stroke-width:2.64583;stroke-linecap:round;stroke-miterlimit:4;stroke-dasharray:none"
       id="rect1080"
       width="50.799999"
       height="67.73333"
       x="-167.21666"
       y="152.40001" />
    <path
       style="display:inline;fill:none;stroke:#000000;stroke-width:2.64583;stroke-linecap:butt;stroke-linejoin:miter;stroke-miterlimit:4;stroke-dasharray:none;stroke-opacity:1"
       d="M 169.33334,220.13334 V 186.26667"
       id="path1163" />
    <path
       id="rect838"
       style="display:inline;fill:#ff0000;fill-opacity:1;stroke:#800000;stroke-width:2.64583;stroke-linecap:round;stroke-miterlimit:4;stroke-dasharray:none"
       d="m 67.73333,285.75 v -50.8 c 0,-9.38107 7.55227,-16.93334 16.93333,-16.93334 h 101.60001 c 9.38106,0 16.93333,7.55227 16.93333,16.93334 v 50.8 z"
       sodipodi:nodetypes="csssscc" />
    <rect
       style="display:inline;fill:#000000;fill-opacity:1;stroke:none;stroke-width:2.64583;stroke-linecap:round;stroke-miterlimit:4;stroke-dasharray:none"
       id="rect1082"
       width="84.666664"
       height="16.933334"
       x="-99.483307"
       y="152.40001" />
    <path
       style="display:inline;fill:#000000;fill-opacity:1;stroke:none;stroke-width:2.64583;stroke-linecap:round;stroke-miterlimit:4;stroke-dasharray:none"
       id="path1084"
       sodipodi:type="arc"
       sodipodi:cx="-99.483307"
       sodipodi:cy="152.40001"
       sodipodi:rx="16.933342"
       sodipodi:ry="16.933329"
       sodipodi:start="1.5707963"
       sodipodi:end="3.1415927"
       sodipodi:arc-type="slice"
       d="m -99.483307,169.33334 a 16.933342,16.933329 0 0 1 -11.973683,-4.95966 16.933342,16.933329 0 0 1 -4.95966,-11.97367 h 16.933343 z" />
    <rect
       style="display:inline;fill:#e6e6e6;fill-opacity:0.5;stroke:#000000;stroke-width:2.64583;stroke-linecap:round;stroke-miterlimit:4;stroke-dasharray:none"
       id="rect1078"
       width="101.6"
       height="84.666679"
       x="84.666672"
       y="101.60002"
       rx="16.933321"
       ry="16.933321" />
    <path
       style="display:inline;fill:none;stroke:#000000;stroke-width:2.64583;stroke-linecap:butt;stroke-linejoin:miter;stroke-miterlimit:4;stroke-dasharray:none;stroke-opacity:1"
       d="M 84.666668,135.46667 H 33.866667"
       id="path1177"
       sodipodi:nodetypes="cc" />
    <path
       style="display:inline;fill:none;stroke:#000000;stroke-width:2.64583;stroke-linecap:butt;stroke-linejoin:miter;stroke-miterlimit:4;stroke-dasharray:none;stroke-opacity:1"
       d="M 84.666668,118.53333 H 33.866667"
       id="path1179"
       sodipodi:nodetypes="cc" />
    <path
       style="display:inline;fill:none;stroke:#000000;stroke-width:2.64583;stroke-linecap:butt;stroke-linejoin:miter;stroke-miterlimit:4;stroke-dasharray:none;stroke-opacity:1"
       d="M 169.33334,101.6 V 67.733336"
       id="path1312" />
    <path
       style="display:inline;fill:none;stroke:#000000;stroke-width:2.64583;stroke-linecap:butt;stroke-linejoin:miter;stroke-miterlimit:4;stroke-dasharray:none;stroke-opacity:1"
       d="M 118.53334,101.6 V 67.733334"
       id="path1314" />
    <text
       xml:space="preserve"
       style="font-style:normal;font-weight:normal;font-size:10.5833px;line-height:1.25;font-family:sans-serif;display:inline;fill:#000000;fill-opacity:1;stroke:none;stroke-width:0.264583"
       x="235.31378"
       y="102.64558"
       id="text1999"><tspan
         sodipodi:role="line"
         id="tspan1997"
         x="235.31378"
         y="102.64558"
         style="stroke-width:0.264583">Coeficiente de rendimiento</tspan></text>
    <path
       id="path1324"
       style="display:inline;fill:#0000ff;fill-opacity:1;stroke:#000080;stroke-width:2.64583;stroke-linecap:round;stroke-miterlimit:4;stroke-dasharray:none"
       d="m 67.733331,0 v 50.8 c 0,9.38107 7.55227,16.93334 16.93333,16.93334 H 186.26667 C 195.64773,67.73334 203.2,60.18107 203.2,50.8 V 0 Z"
       sodipodi:nodetypes="csssscc" />
    <g
       inkscape:label=""
       transform="matrix(1.5662016,0,0,1.5662016,-19.654154,-90.514988)"
       id="g1039"
       style="fill:#ffffff">
      <g
         id="g1816"
         style="fill:#ffffff">
        <g
           style="fill:#ffffff;fill-opacity:1"
           id="g3535">
          <use
             xlink:href="#symbol5498"
             x="91.925003"
             y="81.962997"
             id="use1768"
             width="100%"
             height="100%"
             style="fill:#ffffff" />
        </g>
        <g
           style="fill:#ffffff;fill-opacity:1"
           id="g2040">
          <use
             xlink:href="#symbol6579"
             x="99.801003"
             y="83.457001"
             id="use860"
             width="100%"
             height="100%"
             style="fill:#ffffff" />
        </g>
      </g>
    </g>
    <g
       inkscape:label=""
       transform="matrix(1.6833848,0,0,1.6833848,-143.09766,-5.4253538)"
       id="g1186">
      <g
         id="g7103">
        <g
           style="fill:#000000;fill-opacity:1"
           id="g60">
          <use
             xlink:href="#symbol8652"
             x="91.925003"
             y="81.962997"
             id="use891"
             width="100%"
             height="100%" />
        </g>
      </g>
    </g>
    <g
       inkscape:label=""
       transform="matrix(1.563778,0,0,1.563778,-20.0494,127.69414)"
       id="g1326"
       style="fill:#ffffff">
      <g
         id="g3956"
         style="fill:#ffffff">
        <g
           style="fill:#ffffff;fill-opacity:1"
           id="g7636">
          <use
             xlink:href="#symbol2060"
             x="91.925003"
             y="81.962997"
             id="use4006"
             width="100%"
             height="100%"
             style="fill:#ffffff" />
        </g>
        <g
           style="fill:#ffffff;fill-opacity:1"
           id="g7397">
          <use
             xlink:href="#symbol1311"
             x="99.801003"
             y="83.457001"
             id="use818"
             width="100%"
             height="100%"
             style="fill:#ffffff" />
        </g>
      </g>
    </g>
    <g
       inkscape:label=""
       transform="matrix(1.3678223,0,0,1.3678223,145.45403,39.380701)"
       id="g1531">
      <g
         id="g3594">
        <g
           style="fill:#000000;fill-opacity:1"
           id="g9906">
          <use
             xlink:href="#symbol4511"
             x="91.925003"
             y="81.962997"
             id="use8934"
             width="100%"
             height="100%" />
        </g>
      </g>
    </g>
    <g
       inkscape:label=""
       transform="matrix(1.3678223,0,0,1.3678223,145.45403,33.577175)"
       id="g1687">
      <g
         id="g9365">
        <g
           style="fill:#000000;fill-opacity:1"
           id="g1655">
          <use
             xlink:href="#symbol2414"
             x="91.925003"
             y="86.211998"
             id="use1210"
             width="100%"
             height="100%" />
        </g>
        <g
           style="fill:#000000;fill-opacity:1"
           id="g2530">
          <use
             xlink:href="#symbol2135"
             x="103.867"
             y="86.211998"
             id="use3768"
             width="100%"
             height="100%" />
        </g>
        <g
           style="fill:#000000;fill-opacity:1"
           id="g3641">
          <use
             xlink:href="#symbol6975"
             x="115.578"
             y="79.472"
             id="use4680"
             width="100%"
             height="100%" />
        </g>
        <g
           style="fill:#000000;fill-opacity:1"
           id="g5163">
          <use
             xlink:href="#symbol5207"
             x="118.346"
             y="79.472"
             id="use8212"
             width="100%"
             height="100%" />
        </g>
        <g
           style="fill:#000000;fill-opacity:1"
           id="g1292">
          <use
             xlink:href="#symbol4493"
             x="126.222"
             y="80.967003"
             id="use8615"
             width="100%"
             height="100%" />
        </g>
        <g
           style="fill:#000000;fill-opacity:1"
           id="g3744">
          <use
             xlink:href="#symbol6975"
             x="132.922"
             y="79.472"
             id="use503"
             width="100%"
             height="100%" />
        </g>
        <path
           style="fill:none;stroke:#000000;stroke-width:0.398;stroke-linecap:butt;stroke-linejoin:miter;stroke-miterlimit:10;stroke-opacity:1"
           d="M 1.25e-4,-0.00165625 H 20.113406"
           transform="matrix(1,0,0,-1,115.578,83.721)"
           id="path6740" />
        <g
           style="fill:#000000;fill-opacity:1"
           id="g2275">
          <use
             xlink:href="#symbol6975"
             x="117.47"
             y="93.045998"
             id="use1985"
             width="100%"
             height="100%" />
        </g>
        <g
           style="fill:#000000;fill-opacity:1"
           id="g5261">
          <use
             xlink:href="#symbol1055"
             x="120.238"
             y="93.045998"
             id="use18"
             width="100%"
             height="100%" />
        </g>
        <g
           style="fill:#000000;fill-opacity:1"
           id="g3138">
          <use
             xlink:href="#symbol6975"
             x="131.03"
             y="93.045998"
             id="use8474"
             width="100%"
             height="100%" />
        </g>
      </g>
    </g>
    <g
       inkscape:label=""
       transform="matrix(1.3678223,0,0,1.3678223,145.45403,33.577175)"
       id="g1951">
      <g
         id="g9965">
        <g
           style="fill:#000000;fill-opacity:1"
           id="g8153">
          <use
             xlink:href="#symbol2132"
             x="91.925003"
             y="86.211998"
             id="use3464"
             width="100%"
             height="100%" />
        </g>
        <g
           style="fill:#000000;fill-opacity:1"
           id="g7780">
          <use
             xlink:href="#symbol5445"
             x="103.867"
             y="86.211998"
             id="use3446"
             width="100%"
             height="100%" />
        </g>
        <g
           style="fill:#000000;fill-opacity:1"
           id="g4141">
          <use
             xlink:href="#symbol2986"
             x="115.578"
             y="79.472"
             id="use5953"
             width="100%"
             height="100%" />
        </g>
        <g
           style="fill:#000000;fill-opacity:1"
           id="g9216">
          <use
             xlink:href="#symbol7983"
             x="118.346"
             y="79.472"
             id="use3629"
             width="100%"
             height="100%" />
        </g>
        <g
           style="fill:#000000;fill-opacity:1"
           id="g7717">
          <use
             xlink:href="#symbol5108"
             x="126.222"
             y="80.967003"
             id="use4739"
             width="100%"
             height="100%" />
        </g>
        <g
           style="fill:#000000;fill-opacity:1"
           id="g2205">
          <use
             xlink:href="#symbol2986"
             x="132.922"
             y="79.472"
             id="use1574"
             width="100%"
             height="100%" />
        </g>
        <path
           style="fill:none;stroke:#000000;stroke-width:0.398;stroke-linecap:butt;stroke-linejoin:miter;stroke-miterlimit:10;stroke-opacity:1"
           d="M 1.25e-4,-0.00165625 H 20.113406"
           transform="matrix(1,0,0,-1,115.578,83.721)"
           id="path2493" />
        <g
           style="fill:#000000;fill-opacity:1"
           id="g3135">
          <use
             xlink:href="#symbol2986"
             x="117.47"
             y="93.045998"
             id="use8903"
             width="100%"
             height="100%" />
        </g>
        <g
           style="fill:#000000;fill-opacity:1"
           id="g4803">
          <use
             xlink:href="#symbol2201"
             x="120.238"
             y="93.045998"
             id="use6016"
             width="100%"
             height="100%" />
        </g>
        <g
           style="fill:#000000;fill-opacity:1"
           id="g989">
          <use
             xlink:href="#symbol2986"
             x="131.03"
             y="93.045998"
             id="use683"
             width="100%"
             height="100%" />
        </g>
        <g
           style="fill:#000000;fill-opacity:1"
           id="g6051">
          <use
             xlink:href="#symbol5445"
             x="139.653"
             y="86.211998"
             id="use1579"
             width="100%"
             height="100%" />
        </g>
        <g
           style="fill:#000000;fill-opacity:1"
           id="g8287">
          <use
             xlink:href="#symbol2986"
             x="167.936"
             y="79.472"
             id="use9810"
             width="100%"
             height="100%" />
        </g>
        <g
           style="fill:#000000;fill-opacity:1"
           id="g4792">
          <use
             xlink:href="#symbol7983"
             x="170.703"
             y="79.472"
             id="use6058"
             width="100%"
             height="100%" />
        </g>
        <g
           style="fill:#000000;fill-opacity:1"
           id="g5722">
          <use
             xlink:href="#symbol5108"
             x="178.57899"
             y="80.967003"
             id="use5412"
             width="100%"
             height="100%" />
        </g>
        <g
           style="fill:#000000;fill-opacity:1"
           id="g5786">
          <use
             xlink:href="#symbol2986"
             x="185.28"
             y="79.472"
             id="use4334"
             width="100%"
             height="100%" />
        </g>
        <path
           style="fill:none;stroke:#000000;stroke-width:0.398;stroke-linecap:butt;stroke-linejoin:miter;stroke-miterlimit:10;stroke-opacity:1"
           d="M -7.1875e-4,-0.00165625 H 53.253187"
           transform="matrix(1,0,0,-1,151.364,83.721)"
           id="path1459" />
        <g
           style="fill:#000000;fill-opacity:1"
           id="g5847">
          <use
             xlink:href="#symbol2986"
             x="151.364"
             y="93.045998"
             id="use2510"
             width="100%"
             height="100%" />
        </g>
        <g
           style="fill:#000000;fill-opacity:1"
           id="g5940">
          <use
             xlink:href="#symbol7983"
             x="154.132"
             y="93.045998"
             id="use9280"
             width="100%"
             height="100%" />
        </g>
        <g
           style="fill:#000000;fill-opacity:1"
           id="g8151">
          <use
             xlink:href="#symbol213"
             x="162.008"
             y="94.540001"
             id="use7901"
             width="100%"
             height="100%" />
        </g>
        <g
           style="fill:#000000;fill-opacity:1"
           id="g7822">
          <use
             xlink:href="#symbol2986"
             x="169.564"
             y="93.045998"
             id="use9040"
             width="100%"
             height="100%" />
        </g>
        <g
           style="fill:#000000;fill-opacity:1"
           id="g6392">
          <use
             xlink:href="#symbol3796"
             x="174.5433"
             y="93.045998"
             id="use8866"
             width="100%"
             height="100%" />
        </g>
        <g
           style="fill:#000000;fill-opacity:1"
           id="g4344">
          <use
             xlink:href="#symbol2986"
             x="184.50392"
             y="93.045998"
             id="use489"
             width="100%"
             height="100%" />
        </g>
        <g
           style="fill:#000000;fill-opacity:1"
           id="g9592">
          <use
             xlink:href="#symbol7983"
             x="187.27499"
             y="93.045998"
             id="use2815"
             width="100%"
             height="100%" />
        </g>
        <g
           style="fill:#000000;fill-opacity:1"
           id="g138">
          <use
             xlink:href="#symbol5108"
             x="195.151"
             y="94.540001"
             id="use6680"
             width="100%"
             height="100%" />
        </g>
        <g
           style="fill:#000000;fill-opacity:1"
           id="g2218">
          <use
             xlink:href="#symbol2986"
             x="201.85201"
             y="93.045998"
             id="use270"
             width="100%"
             height="100%" />
        </g>
      </g>
    </g>
  </g>
</svg>
