<?xml version="1.0" encoding="UTF-8" standalone="no"?>
<svg
   xmlns:dc="http://purl.org/dc/elements/1.1/"
   xmlns:cc="http://creativecommons.org/ns#"
   xmlns:rdf="http://www.w3.org/1999/02/22-rdf-syntax-ns#"
   xmlns:svg="http://www.w3.org/2000/svg"
   xmlns="http://www.w3.org/2000/svg"
   xmlns:xlink="http://www.w3.org/1999/xlink"
   xmlns:sodipodi="http://sodipodi.sourceforge.net/DTD/sodipodi-0.dtd"
   xmlns:inkscape="http://www.inkscape.org/namespaces/inkscape"
   width="1920"
   height="1080"
   viewBox="0 0 507.99999 285.75001"
   version="1.1"
   id="svg8"
   inkscape:version="1.0.2 (e86c870879, 2021-01-15)"
   sodipodi:docname="18.svg"
   inkscape:export-filename="/home/jacobian/Documentos/UMSS/FIS102/Exposición 07/imágenes/266.png"
   inkscape:export-xdpi="96"
   inkscape:export-ydpi="96">
  <defs
     id="defs2">
    <marker
       style="overflow:visible;"
       id="marker1624"
       refX="0.0"
       refY="0.0"
       orient="auto"
       inkscape:stockid="Arrow1Send"
       inkscape:isstock="true">
      <path
         transform="scale(0.2) rotate(180) translate(6,0)"
         style="fill-rule:evenodd;stroke:#ff0000;stroke-width:1pt;stroke-opacity:1;fill:#ff0000;fill-opacity:1"
         d="M 0.0,0.0 L 5.0,-5.0 L -12.5,0.0 L 5.0,5.0 L 0.0,0.0 z "
         id="path1622" />
    </marker>
    <marker
       style="overflow:visible;"
       id="Arrow1Mend"
       refX="0.0"
       refY="0.0"
       orient="auto"
       inkscape:stockid="Arrow1Mend"
       inkscape:isstock="true">
      <path
         transform="scale(0.4) rotate(180) translate(10,0)"
         style="fill-rule:evenodd;stroke:#ff0000;stroke-width:1pt;stroke-opacity:1;fill:#ff0000;fill-opacity:1"
         d="M 0.0,0.0 L 5.0,-5.0 L -12.5,0.0 L 5.0,5.0 L 0.0,0.0 z "
         id="path1261" />
    </marker>
    <marker
       style="overflow:visible;"
       id="Arrow1Send"
       refX="0.0"
       refY="0.0"
       orient="auto"
       inkscape:stockid="Arrow1Send"
       inkscape:isstock="true">
      <path
         transform="scale(0.2) rotate(180) translate(6,0)"
         style="fill-rule:evenodd;stroke:#ff0000;stroke-width:1pt;stroke-opacity:1;fill:#ff0000;fill-opacity:1"
         d="M 0.0,0.0 L 5.0,-5.0 L -12.5,0.0 L 5.0,5.0 L 0.0,0.0 z "
         id="path1267" />
    </marker>
    <marker
       style="overflow:visible"
       id="Arrow1Sstart"
       refX="0.0"
       refY="0.0"
       orient="auto"
       inkscape:stockid="Arrow1Sstart"
       inkscape:isstock="true">
      <path
         transform="scale(0.2) translate(6,0)"
         style="fill-rule:evenodd;stroke:#ff0000;stroke-width:1pt;stroke-opacity:1;fill:#ff0000;fill-opacity:1"
         d="M 0.0,0.0 L 5.0,-5.0 L -12.5,0.0 L 5.0,5.0 L 0.0,0.0 z "
         id="path1264" />
    </marker>
    <g
       id="g1496">
      <symbol
         overflow="visible"
         id="symbol537">
        <path
           style="stroke:none;"
           d=""
           id="path7526" />
      </symbol>
      <symbol
         overflow="visible"
         id="symbol3120">
        <path
           style="stroke:none;"
           d="M 1.859375 -2.296875 C 2.15625 -2.296875 2.890625 -2.328125 3.390625 -2.53125 C 4.09375 -2.828125 4.140625 -3.421875 4.140625 -3.5625 C 4.140625 -4 3.765625 -4.40625 3.078125 -4.40625 C 1.96875 -4.40625 0.453125 -3.4375 0.453125 -1.6875 C 0.453125 -0.671875 1.046875 0.109375 2.03125 0.109375 C 3.453125 0.109375 4.28125 -0.953125 4.28125 -1.0625 C 4.28125 -1.125 4.234375 -1.203125 4.171875 -1.203125 C 4.109375 -1.203125 4.09375 -1.171875 4.03125 -1.09375 C 3.25 -0.109375 2.15625 -0.109375 2.046875 -0.109375 C 1.265625 -0.109375 1.171875 -0.953125 1.171875 -1.265625 C 1.171875 -1.390625 1.1875 -1.6875 1.328125 -2.296875 Z M 1.390625 -2.515625 C 1.78125 -4.03125 2.8125 -4.1875 3.078125 -4.1875 C 3.53125 -4.1875 3.8125 -3.890625 3.8125 -3.5625 C 3.8125 -2.515625 2.21875 -2.515625 1.796875 -2.515625 Z M 1.390625 -2.515625 "
           id="path3254" />
      </symbol>
      <symbol
         overflow="visible"
         id="symbol9164">
        <path
           style="stroke:none;"
           d=""
           id="path2904" />
      </symbol>
      <symbol
         overflow="visible"
         id="symbol6367">
        <path
           style="stroke:none;"
           d="M 6.84375 -3.265625 C 7 -3.265625 7.1875 -3.265625 7.1875 -3.453125 C 7.1875 -3.65625 7 -3.65625 6.859375 -3.65625 L 0.890625 -3.65625 C 0.75 -3.65625 0.5625 -3.65625 0.5625 -3.453125 C 0.5625 -3.265625 0.75 -3.265625 0.890625 -3.265625 Z M 6.859375 -1.328125 C 7 -1.328125 7.1875 -1.328125 7.1875 -1.53125 C 7.1875 -1.71875 7 -1.71875 6.84375 -1.71875 L 0.890625 -1.71875 C 0.75 -1.71875 0.5625 -1.71875 0.5625 -1.53125 C 0.5625 -1.328125 0.75 -1.328125 0.890625 -1.328125 Z M 6.859375 -1.328125 "
           id="path5567" />
      </symbol>
      <symbol
         overflow="visible"
         id="symbol5348">
        <path
           style="stroke:none;"
           d=""
           id="path8725" />
      </symbol>
      <symbol
         overflow="visible"
         id="symbol7930">
        <path
           style="stroke:none;"
           d="M 3.390625 -4.21875 C 3.4375 -4.421875 3.453125 -4.4375 3.609375 -4.453125 C 3.640625 -4.453125 3.875 -4.453125 4.015625 -4.453125 C 4.453125 -4.453125 4.625 -4.453125 4.796875 -4.40625 C 5.109375 -4.3125 5.125 -4.109375 5.125 -3.859375 C 5.125 -3.75 5.125 -3.65625 5.078125 -3.296875 L 5.0625 -3.21875 C 5.0625 -3.140625 5.109375 -3.109375 5.1875 -3.109375 C 5.296875 -3.109375 5.296875 -3.171875 5.3125 -3.28125 L 5.5 -4.609375 C 5.5 -4.703125 5.421875 -4.703125 5.296875 -4.703125 L 1.015625 -4.703125 C 0.84375 -4.703125 0.828125 -4.703125 0.78125 -4.5625 L 0.328125 -3.328125 C 0.328125 -3.296875 0.296875 -3.234375 0.296875 -3.203125 C 0.296875 -3.171875 0.3125 -3.109375 0.421875 -3.109375 C 0.515625 -3.109375 0.515625 -3.140625 0.5625 -3.28125 C 0.96875 -4.390625 1.203125 -4.453125 2.265625 -4.453125 L 2.546875 -4.453125 C 2.765625 -4.453125 2.765625 -4.453125 2.765625 -4.390625 C 2.765625 -4.390625 2.765625 -4.34375 2.734375 -4.25 L 1.8125 -0.578125 C 1.75 -0.328125 1.734375 -0.25 1 -0.25 C 0.75 -0.25 0.6875 -0.25 0.6875 -0.09375 C 0.6875 -0.078125 0.703125 0 0.8125 0 C 1 0 1.21875 -0.015625 1.40625 -0.015625 C 1.609375 -0.015625 1.8125 -0.03125 2 -0.03125 C 2.203125 -0.03125 2.4375 -0.03125 2.640625 -0.015625 C 2.828125 -0.015625 3.03125 0 3.21875 0 C 3.28125 0 3.375 0 3.375 -0.15625 C 3.375 -0.25 3.3125 -0.25 3.09375 -0.25 C 2.96875 -0.25 2.828125 -0.265625 2.6875 -0.265625 C 2.453125 -0.28125 2.4375 -0.3125 2.4375 -0.390625 C 2.4375 -0.453125 2.4375 -0.453125 2.46875 -0.5625 Z M 3.390625 -4.21875 "
           id="path1165" />
      </symbol>
      <symbol
         overflow="visible"
         id="symbol3793">
        <path
           style="stroke:none;"
           d=""
           id="path8205" />
      </symbol>
      <symbol
         overflow="visible"
         id="symbol2554">
        <path
           style="stroke:none;"
           d="M 4.796875 -2.984375 C 4.828125 -3.140625 4.84375 -3.1875 5.21875 -3.1875 C 5.359375 -3.1875 5.359375 -3.1875 5.390625 -3.1875 C 5.40625 -3.21875 5.421875 -3.28125 5.421875 -3.3125 C 5.421875 -3.328125 5.421875 -3.40625 5.34375 -3.40625 C 5.234375 -3.40625 5.109375 -3.390625 5 -3.390625 C 4.890625 -3.390625 4.765625 -3.390625 4.640625 -3.390625 C 4.515625 -3.390625 4.390625 -3.390625 4.265625 -3.390625 C 4.15625 -3.390625 4.03125 -3.40625 3.921875 -3.40625 C 3.890625 -3.40625 3.796875 -3.40625 3.796875 -3.265625 C 3.796875 -3.1875 3.859375 -3.1875 3.984375 -3.1875 C 4.03125 -3.1875 4.203125 -3.1875 4.296875 -3.15625 C 4.296875 -3.09375 4.296875 -3.078125 4.28125 -3.03125 L 4 -1.890625 L 2.109375 -1.890625 L 2.375 -2.984375 C 2.421875 -3.140625 2.421875 -3.1875 2.8125 -3.1875 C 2.9375 -3.1875 2.953125 -3.1875 2.96875 -3.1875 C 3 -3.21875 3.015625 -3.28125 3.015625 -3.3125 C 3.015625 -3.328125 3 -3.40625 2.921875 -3.40625 C 2.8125 -3.40625 2.703125 -3.390625 2.59375 -3.390625 C 2.46875 -3.390625 2.34375 -3.390625 2.21875 -3.390625 C 2.09375 -3.390625 1.984375 -3.390625 1.859375 -3.390625 C 1.734375 -3.390625 1.609375 -3.40625 1.5 -3.40625 C 1.46875 -3.40625 1.375 -3.40625 1.375 -3.265625 C 1.375 -3.1875 1.4375 -3.1875 1.5625 -3.1875 C 1.609375 -3.1875 1.78125 -3.1875 1.890625 -3.15625 C 1.890625 -3.09375 1.890625 -3.078125 1.875 -3.03125 L 1.21875 -0.40625 C 1.171875 -0.265625 1.171875 -0.21875 0.78125 -0.21875 C 0.65625 -0.21875 0.578125 -0.21875 0.578125 -0.078125 C 0.578125 -0.046875 0.625 0 0.671875 0 C 0.78125 0 0.890625 -0.015625 1 -0.015625 C 1.125 -0.015625 1.25 -0.015625 1.375 -0.015625 C 1.5 -0.015625 1.625 -0.015625 1.75 -0.015625 C 1.859375 -0.015625 1.984375 0 2.09375 0 C 2.125 0 2.21875 0 2.21875 -0.140625 C 2.21875 -0.21875 2.140625 -0.21875 2.046875 -0.21875 C 2.046875 -0.21875 1.921875 -0.21875 1.84375 -0.234375 C 1.71875 -0.25 1.703125 -0.25 1.703125 -0.296875 C 1.703125 -0.296875 1.703125 -0.3125 1.71875 -0.359375 L 2.046875 -1.65625 L 3.953125 -1.65625 L 3.640625 -0.40625 C 3.59375 -0.265625 3.578125 -0.21875 3.203125 -0.21875 C 3.078125 -0.21875 3 -0.21875 3 -0.078125 C 3 -0.046875 3.03125 0 3.09375 0 C 3.1875 0 3.3125 -0.015625 3.421875 -0.015625 C 3.546875 -0.015625 3.671875 -0.015625 3.796875 -0.015625 C 3.921875 -0.015625 4.03125 -0.015625 4.15625 -0.015625 C 4.28125 -0.015625 4.40625 0 4.515625 0 C 4.546875 0 4.640625 0 4.640625 -0.140625 C 4.640625 -0.21875 4.5625 -0.21875 4.46875 -0.21875 C 4.46875 -0.21875 4.34375 -0.21875 4.25 -0.234375 C 4.125 -0.25 4.125 -0.25 4.125 -0.296875 C 4.125 -0.296875 4.125 -0.3125 4.140625 -0.359375 Z M 4.796875 -2.984375 "
           id="path2441" />
      </symbol>
      <symbol
         overflow="visible"
         id="symbol3490">
        <path
           style="stroke:none;"
           d="M 4.859375 -3.4375 C 4.859375 -3.453125 4.859375 -3.515625 4.78125 -3.515625 C 4.75 -3.515625 4.75 -3.515625 4.6875 -3.453125 L 4.34375 -3.109375 C 4.328125 -3.09375 4.296875 -3.0625 4.28125 -3.0625 C 4.28125 -3.0625 4.265625 -3.078125 4.265625 -3.078125 C 4.15625 -3.1875 3.859375 -3.515625 3.203125 -3.515625 C 1.828125 -3.515625 0.578125 -2.4375 0.578125 -1.34375 C 0.578125 -0.53125 1.265625 0.109375 2.34375 0.109375 C 2.84375 0.109375 3.28125 -0.0625 3.59375 -0.25 C 4.234375 -0.671875 4.296875 -1.203125 4.296875 -1.203125 C 4.296875 -1.28125 4.234375 -1.28125 4.203125 -1.28125 C 4.140625 -1.28125 4.109375 -1.265625 4.09375 -1.21875 C 3.859375 -0.421875 3.03125 -0.109375 2.46875 -0.109375 C 1.875 -0.109375 1.125 -0.359375 1.125 -1.234375 C 1.125 -1.796875 1.421875 -2.375 1.734375 -2.671875 C 2.3125 -3.21875 2.96875 -3.296875 3.28125 -3.296875 C 3.921875 -3.296875 4.328125 -2.875 4.328125 -2.296875 C 4.328125 -2.1875 4.3125 -2.171875 4.3125 -2.140625 C 4.3125 -2.0625 4.375 -2.0625 4.421875 -2.0625 C 4.515625 -2.0625 4.515625 -2.078125 4.546875 -2.171875 Z M 4.859375 -3.4375 "
           id="path1808" />
      </symbol>
      <symbol
         overflow="visible"
         id="symbol2056">
        <path
           style="stroke:none;"
           d=""
           id="path6074" />
      </symbol>
      <symbol
         overflow="visible"
         id="symbol1485">
        <path
           style="stroke:none;"
           d="M 5.1875 -1.578125 C 5.296875 -1.578125 5.46875 -1.578125 5.46875 -1.734375 C 5.46875 -1.921875 5.296875 -1.921875 5.1875 -1.921875 L 1.03125 -1.921875 C 0.921875 -1.921875 0.75 -1.921875 0.75 -1.75 C 0.75 -1.578125 0.90625 -1.578125 1.03125 -1.578125 Z M 5.1875 -1.578125 "
           id="path4181" />
      </symbol>
    </g>
    <g
       id="g8637">
      <symbol
         overflow="visible"
         id="symbol5478">
        <path
           style="stroke:none;"
           d=""
           id="path9629" />
      </symbol>
      <symbol
         overflow="visible"
         id="symbol9541">
        <path
           style="stroke:none;"
           d="M 1.859375 -2.296875 C 2.15625 -2.296875 2.890625 -2.328125 3.390625 -2.53125 C 4.09375 -2.828125 4.140625 -3.421875 4.140625 -3.5625 C 4.140625 -4 3.765625 -4.40625 3.078125 -4.40625 C 1.96875 -4.40625 0.453125 -3.4375 0.453125 -1.6875 C 0.453125 -0.671875 1.046875 0.109375 2.03125 0.109375 C 3.453125 0.109375 4.28125 -0.953125 4.28125 -1.0625 C 4.28125 -1.125 4.234375 -1.203125 4.171875 -1.203125 C 4.109375 -1.203125 4.09375 -1.171875 4.03125 -1.09375 C 3.25 -0.109375 2.15625 -0.109375 2.046875 -0.109375 C 1.265625 -0.109375 1.171875 -0.953125 1.171875 -1.265625 C 1.171875 -1.390625 1.1875 -1.6875 1.328125 -2.296875 Z M 1.390625 -2.515625 C 1.78125 -4.03125 2.8125 -4.1875 3.078125 -4.1875 C 3.53125 -4.1875 3.8125 -3.890625 3.8125 -3.5625 C 3.8125 -2.515625 2.21875 -2.515625 1.796875 -2.515625 Z M 1.390625 -2.515625 "
           id="path5108" />
      </symbol>
      <symbol
         overflow="visible"
         id="symbol9271">
        <path
           style="stroke:none;"
           d="M 4.25 -6.046875 C 4.328125 -6.328125 4.359375 -6.390625 4.484375 -6.421875 C 4.578125 -6.4375 4.90625 -6.4375 5.109375 -6.4375 C 6.125 -6.4375 6.5625 -6.40625 6.5625 -5.625 C 6.5625 -5.46875 6.53125 -5.078125 6.484375 -4.828125 C 6.484375 -4.78125 6.453125 -4.671875 6.453125 -4.640625 C 6.453125 -4.578125 6.484375 -4.5 6.578125 -4.5 C 6.6875 -4.5 6.703125 -4.578125 6.734375 -4.734375 L 7 -6.46875 C 7.015625 -6.515625 7.015625 -6.609375 7.015625 -6.640625 C 7.015625 -6.75 6.921875 -6.75 6.75 -6.75 L 1.21875 -6.75 C 0.984375 -6.75 0.96875 -6.734375 0.890625 -6.546875 L 0.296875 -4.796875 C 0.296875 -4.78125 0.234375 -4.640625 0.234375 -4.609375 C 0.234375 -4.5625 0.296875 -4.5 0.359375 -4.5 C 0.453125 -4.5 0.46875 -4.5625 0.53125 -4.71875 C 1.0625 -6.265625 1.328125 -6.4375 2.796875 -6.4375 L 3.1875 -6.4375 C 3.46875 -6.4375 3.46875 -6.40625 3.46875 -6.3125 C 3.46875 -6.265625 3.4375 -6.140625 3.421875 -6.109375 L 2.09375 -0.78125 C 2 -0.421875 1.96875 -0.3125 0.90625 -0.3125 C 0.546875 -0.3125 0.484375 -0.3125 0.484375 -0.125 C 0.484375 0 0.59375 0 0.65625 0 C 0.921875 0 1.203125 -0.015625 1.46875 -0.015625 C 1.75 -0.015625 2.046875 -0.03125 2.328125 -0.03125 C 2.609375 -0.03125 2.875 -0.015625 3.15625 -0.015625 C 3.4375 -0.015625 3.734375 0 4.015625 0 C 4.109375 0 4.234375 0 4.234375 -0.203125 C 4.234375 -0.3125 4.15625 -0.3125 3.890625 -0.3125 C 3.65625 -0.3125 3.515625 -0.3125 3.265625 -0.328125 C 2.96875 -0.359375 2.890625 -0.390625 2.890625 -0.546875 C 2.890625 -0.5625 2.890625 -0.609375 2.9375 -0.75 Z M 4.25 -6.046875 "
           id="path3573" />
      </symbol>
      <symbol
         overflow="visible"
         id="symbol1467">
        <path
           style="stroke:none;"
           d=""
           id="path3973" />
      </symbol>
      <symbol
         overflow="visible"
         id="symbol6494">
        <path
           style="stroke:none;"
           d="M 6.84375 -3.265625 C 7 -3.265625 7.1875 -3.265625 7.1875 -3.453125 C 7.1875 -3.65625 7 -3.65625 6.859375 -3.65625 L 0.890625 -3.65625 C 0.75 -3.65625 0.5625 -3.65625 0.5625 -3.453125 C 0.5625 -3.265625 0.75 -3.265625 0.890625 -3.265625 Z M 6.859375 -1.328125 C 7 -1.328125 7.1875 -1.328125 7.1875 -1.53125 C 7.1875 -1.71875 7 -1.71875 6.84375 -1.71875 L 0.890625 -1.71875 C 0.75 -1.71875 0.5625 -1.71875 0.5625 -1.53125 C 0.5625 -1.328125 0.75 -1.328125 0.890625 -1.328125 Z M 6.859375 -1.328125 "
           id="path9089" />
      </symbol>
      <symbol
         overflow="visible"
         id="symbol1234">
        <path
           style="stroke:none;"
           d=""
           id="path5240" />
      </symbol>
      <symbol
         overflow="visible"
         id="symbol5918">
        <path
           style="stroke:none;"
           d="M 5.859375 -4.1875 C 5.921875 -4.453125 5.9375 -4.515625 6.453125 -4.515625 C 6.609375 -4.515625 6.6875 -4.515625 6.6875 -4.65625 C 6.6875 -4.6875 6.671875 -4.765625 6.578125 -4.765625 C 6.375 -4.765625 5.875 -4.734375 5.671875 -4.734375 C 5.546875 -4.734375 5.296875 -4.734375 5.1875 -4.734375 C 5.046875 -4.75 4.875 -4.765625 4.75 -4.765625 C 4.703125 -4.765625 4.59375 -4.765625 4.59375 -4.609375 C 4.59375 -4.515625 4.6875 -4.515625 4.828125 -4.515625 C 4.828125 -4.515625 4.96875 -4.515625 5.09375 -4.5 C 5.234375 -4.484375 5.25 -4.46875 5.25 -4.390625 C 5.25 -4.390625 5.25 -4.34375 5.21875 -4.25 L 4.8125 -2.59375 L 2.46875 -2.59375 L 2.875 -4.21875 C 2.9375 -4.453125 2.953125 -4.515625 3.484375 -4.515625 C 3.609375 -4.515625 3.703125 -4.515625 3.703125 -4.65625 C 3.703125 -4.6875 3.671875 -4.765625 3.59375 -4.765625 C 3.390625 -4.765625 2.875 -4.734375 2.671875 -4.734375 C 2.5625 -4.734375 2.3125 -4.734375 2.1875 -4.734375 C 2.0625 -4.75 1.890625 -4.765625 1.75 -4.765625 C 1.71875 -4.765625 1.609375 -4.765625 1.609375 -4.609375 C 1.609375 -4.515625 1.6875 -4.515625 1.828125 -4.515625 C 1.84375 -4.515625 1.96875 -4.515625 2.09375 -4.5 C 2.25 -4.484375 2.265625 -4.46875 2.265625 -4.390625 C 2.265625 -4.390625 2.265625 -4.34375 2.234375 -4.25 L 1.296875 -0.546875 C 1.25 -0.3125 1.234375 -0.25 0.6875 -0.25 C 0.578125 -0.25 0.484375 -0.25 0.484375 -0.109375 C 0.484375 -0.03125 0.53125 0 0.59375 0 C 0.796875 0 1.296875 -0.03125 1.5 -0.03125 C 1.609375 -0.03125 1.859375 -0.03125 1.984375 -0.015625 C 2.125 -0.015625 2.296875 0 2.421875 0 C 2.453125 0 2.578125 0 2.578125 -0.140625 C 2.578125 -0.25 2.5 -0.25 2.34375 -0.25 C 2.234375 -0.25 2.203125 -0.25 2.078125 -0.265625 C 1.921875 -0.28125 1.921875 -0.296875 1.921875 -0.375 C 1.921875 -0.375 1.921875 -0.421875 1.953125 -0.515625 L 2.40625 -2.34375 L 4.75 -2.34375 L 4.296875 -0.546875 C 4.234375 -0.3125 4.21875 -0.25 3.671875 -0.25 C 3.5625 -0.25 3.46875 -0.25 3.46875 -0.109375 C 3.46875 -0.03125 3.515625 0 3.578125 0 C 3.78125 0 4.28125 -0.03125 4.484375 -0.03125 C 4.609375 -0.03125 4.84375 -0.03125 4.96875 -0.015625 C 5.109375 -0.015625 5.28125 0 5.421875 0 C 5.453125 0 5.5625 0 5.5625 -0.140625 C 5.5625 -0.25 5.484375 -0.25 5.328125 -0.25 C 5.21875 -0.25 5.1875 -0.25 5.0625 -0.265625 C 4.90625 -0.28125 4.90625 -0.296875 4.90625 -0.375 C 4.90625 -0.40625 4.9375 -0.484375 4.9375 -0.515625 Z M 5.859375 -4.1875 "
           id="path4234" />
      </symbol>
      <symbol
         overflow="visible"
         id="symbol8092">
        <path
           style="stroke:none;"
           d="M 5.875 -4.8125 C 5.875 -4.84375 5.859375 -4.90625 5.78125 -4.90625 C 5.734375 -4.90625 5.71875 -4.890625 5.65625 -4.8125 L 5.15625 -4.28125 C 5.09375 -4.359375 4.703125 -4.90625 3.84375 -4.90625 C 2.140625 -4.90625 0.484375 -3.40625 0.484375 -1.828125 C 0.484375 -0.6875 1.375 0.140625 2.625 0.140625 C 3 0.140625 3.671875 0.0625 4.390625 -0.546875 C 4.9375 -1.015625 5.09375 -1.609375 5.09375 -1.671875 C 5.09375 -1.765625 5.015625 -1.765625 4.96875 -1.765625 C 4.890625 -1.765625 4.875 -1.734375 4.84375 -1.65625 C 4.5625 -0.703125 3.59375 -0.109375 2.75 -0.109375 C 2 -0.109375 1.1875 -0.515625 1.1875 -1.609375 C 1.1875 -1.8125 1.234375 -2.90625 2.03125 -3.796875 C 2.515625 -4.328125 3.25 -4.640625 3.90625 -4.640625 C 4.71875 -4.640625 5.1875 -4.0625 5.1875 -3.28125 C 5.1875 -3.09375 5.171875 -3.03125 5.171875 -3 C 5.171875 -2.90625 5.265625 -2.90625 5.296875 -2.90625 C 5.40625 -2.90625 5.40625 -2.921875 5.4375 -3.0625 Z M 5.875 -4.8125 "
           id="path5566" />
      </symbol>
      <symbol
         overflow="visible"
         id="symbol4602">
        <path
           style="stroke:none;"
           d=""
           id="path522" />
      </symbol>
      <symbol
         overflow="visible"
         id="symbol921">
        <path
           style="stroke:none;"
           d="M 6.5625 -2.296875 C 6.734375 -2.296875 6.921875 -2.296875 6.921875 -2.5 C 6.921875 -2.6875 6.734375 -2.6875 6.5625 -2.6875 L 1.171875 -2.6875 C 1 -2.6875 0.828125 -2.6875 0.828125 -2.5 C 0.828125 -2.296875 1 -2.296875 1.171875 -2.296875 Z M 6.5625 -2.296875 "
           id="path1397" />
      </symbol>
    </g>
    <g
       id="g7894">
      <symbol
         overflow="visible"
         id="symbol1830">
        <path
           style="stroke:none;"
           d=""
           id="path6143" />
      </symbol>
      <symbol
         overflow="visible"
         id="symbol6755">
        <path
           style="stroke:none;"
           d="M 4.25 -6.046875 C 4.328125 -6.328125 4.359375 -6.390625 4.484375 -6.421875 C 4.578125 -6.4375 4.90625 -6.4375 5.109375 -6.4375 C 6.125 -6.4375 6.5625 -6.40625 6.5625 -5.625 C 6.5625 -5.46875 6.53125 -5.078125 6.484375 -4.828125 C 6.484375 -4.78125 6.453125 -4.671875 6.453125 -4.640625 C 6.453125 -4.578125 6.484375 -4.5 6.578125 -4.5 C 6.6875 -4.5 6.703125 -4.578125 6.734375 -4.734375 L 7 -6.46875 C 7.015625 -6.515625 7.015625 -6.609375 7.015625 -6.640625 C 7.015625 -6.75 6.921875 -6.75 6.75 -6.75 L 1.21875 -6.75 C 0.984375 -6.75 0.96875 -6.734375 0.890625 -6.546875 L 0.296875 -4.796875 C 0.296875 -4.78125 0.234375 -4.640625 0.234375 -4.609375 C 0.234375 -4.5625 0.296875 -4.5 0.359375 -4.5 C 0.453125 -4.5 0.46875 -4.5625 0.53125 -4.71875 C 1.0625 -6.265625 1.328125 -6.4375 2.796875 -6.4375 L 3.1875 -6.4375 C 3.46875 -6.4375 3.46875 -6.40625 3.46875 -6.3125 C 3.46875 -6.265625 3.4375 -6.140625 3.421875 -6.109375 L 2.09375 -0.78125 C 2 -0.421875 1.96875 -0.3125 0.90625 -0.3125 C 0.546875 -0.3125 0.484375 -0.3125 0.484375 -0.125 C 0.484375 0 0.59375 0 0.65625 0 C 0.921875 0 1.203125 -0.015625 1.46875 -0.015625 C 1.75 -0.015625 2.046875 -0.03125 2.328125 -0.03125 C 2.609375 -0.03125 2.875 -0.015625 3.15625 -0.015625 C 3.4375 -0.015625 3.734375 0 4.015625 0 C 4.109375 0 4.234375 0 4.234375 -0.203125 C 4.234375 -0.3125 4.15625 -0.3125 3.890625 -0.3125 C 3.65625 -0.3125 3.515625 -0.3125 3.265625 -0.328125 C 2.96875 -0.359375 2.890625 -0.390625 2.890625 -0.546875 C 2.890625 -0.5625 2.890625 -0.609375 2.9375 -0.75 Z M 4.25 -6.046875 "
           id="path1040" />
      </symbol>
      <symbol
         overflow="visible"
         id="symbol8709">
        <path
           style="stroke:none;"
           d=""
           id="path8675" />
      </symbol>
      <symbol
         overflow="visible"
         id="symbol9058">
        <path
           style="stroke:none;"
           d="M 5.875 -4.8125 C 5.875 -4.84375 5.859375 -4.90625 5.78125 -4.90625 C 5.734375 -4.90625 5.71875 -4.890625 5.65625 -4.8125 L 5.15625 -4.28125 C 5.09375 -4.359375 4.703125 -4.90625 3.84375 -4.90625 C 2.140625 -4.90625 0.484375 -3.40625 0.484375 -1.828125 C 0.484375 -0.6875 1.375 0.140625 2.625 0.140625 C 3 0.140625 3.671875 0.0625 4.390625 -0.546875 C 4.9375 -1.015625 5.09375 -1.609375 5.09375 -1.671875 C 5.09375 -1.765625 5.015625 -1.765625 4.96875 -1.765625 C 4.890625 -1.765625 4.875 -1.734375 4.84375 -1.65625 C 4.5625 -0.703125 3.59375 -0.109375 2.75 -0.109375 C 2 -0.109375 1.1875 -0.515625 1.1875 -1.609375 C 1.1875 -1.8125 1.234375 -2.90625 2.03125 -3.796875 C 2.515625 -4.328125 3.25 -4.640625 3.90625 -4.640625 C 4.71875 -4.640625 5.1875 -4.0625 5.1875 -3.28125 C 5.1875 -3.09375 5.171875 -3.03125 5.171875 -3 C 5.171875 -2.90625 5.265625 -2.90625 5.296875 -2.90625 C 5.40625 -2.90625 5.40625 -2.921875 5.4375 -3.0625 Z M 5.875 -4.8125 "
           id="path1610" />
      </symbol>
      <symbol
         overflow="visible"
         id="symbol6363">
        <path
           style="stroke:none;"
           d=""
           id="path8355" />
      </symbol>
      <symbol
         overflow="visible"
         id="symbol986">
        <path
           style="stroke:none;"
           d="M 6.84375 -3.265625 C 7 -3.265625 7.1875 -3.265625 7.1875 -3.453125 C 7.1875 -3.65625 7 -3.65625 6.859375 -3.65625 L 0.890625 -3.65625 C 0.75 -3.65625 0.5625 -3.65625 0.5625 -3.453125 C 0.5625 -3.265625 0.75 -3.265625 0.890625 -3.265625 Z M 6.859375 -1.328125 C 7 -1.328125 7.1875 -1.328125 7.1875 -1.53125 C 7.1875 -1.71875 7 -1.71875 6.84375 -1.71875 L 0.890625 -1.71875 C 0.75 -1.71875 0.5625 -1.71875 0.5625 -1.53125 C 0.5625 -1.328125 0.75 -1.328125 0.890625 -1.328125 Z M 6.859375 -1.328125 "
           id="path3281" />
      </symbol>
      <symbol
         overflow="visible"
         id="symbol1914">
        <path
           style="stroke:none;"
           d="M 4.578125 -3.1875 C 4.578125 -3.984375 4.53125 -4.78125 4.1875 -5.515625 C 3.734375 -6.484375 2.90625 -6.640625 2.5 -6.640625 C 1.890625 -6.640625 1.171875 -6.375 0.75 -5.453125 C 0.4375 -4.765625 0.390625 -3.984375 0.390625 -3.1875 C 0.390625 -2.4375 0.421875 -1.546875 0.84375 -0.78125 C 1.265625 0.015625 2 0.21875 2.484375 0.21875 C 3.015625 0.21875 3.78125 0.015625 4.21875 -0.9375 C 4.53125 -1.625 4.578125 -2.40625 4.578125 -3.1875 Z M 2.484375 0 C 2.09375 0 1.5 -0.25 1.328125 -1.203125 C 1.21875 -1.796875 1.21875 -2.71875 1.21875 -3.3125 C 1.21875 -3.953125 1.21875 -4.609375 1.296875 -5.140625 C 1.484375 -6.328125 2.234375 -6.421875 2.484375 -6.421875 C 2.8125 -6.421875 3.46875 -6.234375 3.65625 -5.25 C 3.765625 -4.6875 3.765625 -3.9375 3.765625 -3.3125 C 3.765625 -2.5625 3.765625 -1.890625 3.65625 -1.25 C 3.5 -0.296875 2.9375 0 2.484375 0 Z M 2.484375 0 "
           id="path6931" />
      </symbol>
    </g>
  </defs>
  <sodipodi:namedview
     id="base"
     pagecolor="#ffffff"
     bordercolor="#666666"
     borderopacity="1.0"
     inkscape:pageopacity="0.0"
     inkscape:pageshadow="2"
     inkscape:zoom="0.49497475"
     inkscape:cx="1549.2784"
     inkscape:cy="479.24339"
     inkscape:document-units="px"
     inkscape:current-layer="layer1"
     inkscape:document-rotation="0"
     showgrid="false"
     units="px"
     borderlayer="true"
     inkscape:showpageshadow="false"
     inkscape:window-width="1920"
     inkscape:window-height="1050"
     inkscape:window-x="1920"
     inkscape:window-y="18"
     inkscape:window-maximized="0"
     showguides="true"
     inkscape:guide-bbox="true">
    <inkscape:grid
       type="xygrid"
       id="grid10"
       spacingx="2.1166667"
       spacingy="2.1166667"
       empspacing="8"
       enabled="true" />
    <sodipodi:guide
       position="0,-2.3125003e-06"
       orientation="0,-1"
       id="guide831" />
    <sodipodi:guide
       position="507.99999,285.75001"
       orientation="0,-1"
       id="guide833" />
    <sodipodi:guide
       position="0,-2.3125003e-06"
       orientation="1,0"
       id="guide835" />
    <sodipodi:guide
       position="507.99999,285.75002"
       orientation="1,0"
       id="guide837" />
    <inkscape:grid
       type="axonomgrid"
       id="grid839"
       gridanglex="30"
       gridanglez="30"
       empspacing="16"
       enabled="false" />
  </sodipodi:namedview>
  <metadata
     id="metadata5">
    <rdf:RDF>
      <cc:Work
         rdf:about="">
        <dc:format>image/svg+xml</dc:format>
        <dc:type
           rdf:resource="http://purl.org/dc/dcmitype/StillImage" />
        <dc:title />
      </cc:Work>
    </rdf:RDF>
  </metadata>
  <g
     inkscape:label="fondo"
     inkscape:groupmode="layer"
     id="layer1"
     style="display:inline">
    <rect
       style="fill:#5f204a;fill-opacity:1;stroke-width:0.79375;stroke-linecap:round;stroke-linejoin:bevel"
       id="rect836"
       width="508"
       height="285.75"
       x="0"
       y="0" />
  </g>
  <g
     inkscape:label="fondo final"
     inkscape:groupmode="layer"
     id="g1697"
     style="display:none"
     sodipodi:insensitive="true">
    <rect
       style="fill:#5f2035;fill-opacity:1;stroke-width:0.79375;stroke-linecap:round;stroke-linejoin:bevel"
       id="rect1695"
       width="508"
       height="285.75"
       x="0"
       y="0" />
  </g>
  <g
     inkscape:groupmode="layer"
     id="layer2"
     inkscape:label="carnot"
     style="display:none"
     sodipodi:insensitive="true">
    <image
       sodipodi:absref="/home/jacobian/Imágenes/Captura de pantalla_2021-07-22_08-13-08.png"
       xlink:href="../../../../Im%C3%A1genes/Captura%20de%20pantalla_2021-07-22_08-13-08.png"
       y="41.374519"
       x="67.733337"
       id="image848"
       preserveAspectRatio="none"
       height="203.00096"
       width="372.53333" />
  </g>
  <g
     inkscape:groupmode="layer"
     id="layer3"
     inkscape:label="eficiencia"
     sodipodi:insensitive="true"
     style="display:none">
    <g
       inkscape:label=""
       transform="matrix(1.5801536,0,0,1.5801536,63.197069,11.774399)"
       id="g1061">
      <g
         id="g4245">
        <g
           style="fill:#000000;fill-opacity:1"
           id="g5631">
          <use
             xlink:href="#symbol9541"
             x="91.925003"
             y="85.547997"
             id="use8546"
             width="100%"
             height="100%" />
        </g>
        <g
           style="fill:#000000;fill-opacity:1"
           id="g291">
          <use
             xlink:href="#symbol6494"
             x="99.331001"
             y="85.547997"
             id="use2514"
             width="100%"
             height="100%" />
        </g>
        <g
           style="fill:#000000;fill-opacity:1"
           id="g2844">
          <use
             xlink:href="#symbol9271"
             x="111.043"
             y="78.807999"
             id="use9577"
             width="100%"
             height="100%" />
        </g>
        <g
           style="fill:#000000;fill-opacity:1"
           id="g1612">
          <use
             xlink:href="#symbol5918"
             x="116.865"
             y="80.302002"
             id="use6289"
             width="100%"
             height="100%" />
        </g>
        <g
           style="fill:#000000;fill-opacity:1"
           id="g3188">
          <use
             xlink:href="#symbol921"
             x="126.635"
             y="78.807999"
             id="use4615"
             width="100%"
             height="100%" />
        </g>
        <g
           style="fill:#000000;fill-opacity:1"
           id="g2236">
          <use
             xlink:href="#symbol9271"
             x="136.59801"
             y="78.807999"
             id="use3199"
             width="100%"
             height="100%" />
        </g>
        <g
           style="fill:#000000;fill-opacity:1"
           id="g3807">
          <use
             xlink:href="#symbol8092"
             x="142.42"
             y="80.302002"
             id="use7462"
             width="100%"
             height="100%" />
        </g>
        <path
           style="fill:none;stroke:#000000;stroke-width:0.398;stroke-linecap:butt;stroke-linejoin:miter;stroke-miterlimit:10;stroke-opacity:1"
           d="M -3.125e-5,-0.00159375 H 38.078094"
           transform="matrix(1,0,0,-1,111.043,83.057)"
           id="path5279" />
        <g
           style="fill:#000000;fill-opacity:1"
           id="g2000">
          <use
             xlink:href="#symbol9271"
             x="123.393"
             y="92.382004"
             id="use3235"
             width="100%"
             height="100%" />
        </g>
        <g
           style="fill:#000000;fill-opacity:1"
           id="g4900">
          <use
             xlink:href="#symbol5918"
             x="129.215"
             y="93.875999"
             id="use4167"
             width="100%"
             height="100%" />
        </g>
      </g>
    </g>
    <g
       inkscape:label=""
       transform="matrix(1.5801536,0,0,1.5801536,195.96586,-45.763261)"
       id="g1215">
      <g
         id="g2874">
        <g
           style="fill:#000000;fill-opacity:1"
           id="g6336">
          <use
             xlink:href="#symbol6755"
             x="91.925003"
             y="81.962997"
             id="use6722"
             width="100%"
             height="100%" />
        </g>
        <g
           style="fill:#000000;fill-opacity:1"
           id="g1584">
          <use
             xlink:href="#symbol9058"
             x="97.747002"
             y="83.457001"
             id="use1107"
             width="100%"
             height="100%" />
        </g>
        <g
           style="fill:#000000;fill-opacity:1"
           id="g6510">
          <use
             xlink:href="#symbol986"
             x="107.215"
             y="81.962997"
             id="use843"
             width="100%"
             height="100%" />
        </g>
        <g
           style="fill:#000000;fill-opacity:1"
           id="g3646">
          <use
             xlink:href="#symbol1914"
             x="117.73351"
             y="81.962997"
             id="use3662"
             width="100%"
             height="100%" />
        </g>
      </g>
    </g>
    <path
       style="fill:none;stroke:#ff0000;stroke-width:2.11667;stroke-linecap:round;stroke-linejoin:miter;stroke-miterlimit:4;stroke-dasharray:none;stroke-opacity:1"
       d="m 276.35202,143.23188 25.34005,-21.1309"
       id="path1250"
       sodipodi:nodetypes="cc" />
    <path
       style="fill:none;stroke:#ff0000;stroke-width:2.11667;stroke-linecap:round;stroke-linejoin:miter;stroke-miterlimit:4;stroke-dasharray:none;stroke-opacity:1"
       d="m 301.69207,143.23188 -25.34005,-21.1309"
       id="path1686"
       sodipodi:nodetypes="cc" />
  </g>
  <g
     inkscape:groupmode="layer"
     id="layer4"
     inkscape:label="ley"
     sodipodi:insensitive="true"
     style="display:none">
    <text
       xml:space="preserve"
       style="font-style:normal;font-variant:normal;font-weight:normal;font-stretch:normal;font-size:14.7346px;line-height:1.25;font-family:Roboto;-inkscape-font-specification:'Roboto, Normal';font-variant-ligatures:normal;font-variant-caps:normal;font-variant-numeric:normal;font-variant-east-asian:normal;letter-spacing:0px;stroke-width:0.345342"
       x="254.03957"
       y="139.1194"
       id="text1691"><tspan
         sodipodi:role="line"
         id="tspan1689"
         x="254.03957"
         y="139.1194"
         style="font-style:normal;font-variant:normal;font-weight:normal;font-stretch:normal;font-size:14.7346px;font-family:Roboto;-inkscape-font-specification:'Roboto, Normal';font-variant-ligatures:normal;font-variant-caps:normal;font-variant-numeric:normal;font-variant-east-asian:normal;text-align:center;text-anchor:middle;stroke-width:0.345342">«Es imposible lograr una temperatura</tspan><tspan
         sodipodi:role="line"
         x="254.03957"
         y="157.53764"
         style="font-style:normal;font-variant:normal;font-weight:normal;font-stretch:normal;font-size:14.7346px;font-family:Roboto;-inkscape-font-specification:'Roboto, Normal';font-variant-ligatures:normal;font-variant-caps:normal;font-variant-numeric:normal;font-variant-east-asian:normal;text-align:center;text-anchor:middle;stroke-width:0.345342"
         id="tspan1693"> de cero absoluto.»</tspan></text>
  </g>
</svg>
