<?xml version="1.0" encoding="UTF-8" standalone="no"?>
<!-- Created with Inkscape (http://www.inkscape.org/) -->

<svg
   inkscape:version="1.2 (dc2aedaf03, 2022-05-15)"
   sodipodi:docname="base.svg"
   id="svg5"
   version="1.1"
   viewBox="0 0 45.51306 33.866671"
   height="128.00002"
   width="172.01787"
   xmlns:inkscape="http://www.inkscape.org/namespaces/inkscape"
   xmlns:sodipodi="http://sodipodi.sourceforge.net/DTD/sodipodi-0.dtd"
   xmlns:xlink="http://www.w3.org/1999/xlink"
   xmlns="http://www.w3.org/2000/svg"
   xmlns:svg="http://www.w3.org/2000/svg">
  <sodipodi:namedview
     id="namedview7"
     pagecolor="#ffffff"
     bordercolor="#666666"
     borderopacity="1.0"
     inkscape:showpageshadow="false"
     inkscape:pageopacity="0.0"
     inkscape:pagecheckerboard="false"
     inkscape:deskcolor="#d1d1d1"
     inkscape:document-units="px"
     showgrid="true"
     showborder="false"
     borderlayer="false"
     shape-rendering="auto"
     inkscape:zoom="2"
     inkscape:cx="1079"
     inkscape:cy="142.75"
     inkscape:window-width="1920"
     inkscape:window-height="1050"
     inkscape:window-x="1920"
     inkscape:window-y="18"
     inkscape:window-maximized="0"
     inkscape:current-layer="layer1"
     showguides="true"
     inkscape:lockguides="false">
    <inkscape:grid
       type="xygrid"
       id="grid9"
       spacingx="1.0583333"
       spacingy="1.0583333"
       empspacing="4"
       dotted="false"
       snapvisiblegridlinesonly="false"
       originx="0"
       originy="0" />
    <sodipodi:guide
       position="-239.78644,42.333339"
       orientation="0,1920"
       id="guide280"
       inkscape:locked="false" />
    <sodipodi:guide
       position="268.21356,42.333339"
       orientation="1080,0"
       id="guide282"
       inkscape:locked="false" />
    <sodipodi:guide
       position="268.21356,-243.41666"
       orientation="0,-1920"
       id="guide284"
       inkscape:locked="false" />
    <sodipodi:guide
       position="-239.78644,-243.41666"
       orientation="-1080,0"
       id="guide286"
       inkscape:locked="false" />
    <sodipodi:guide
       position="-239.78644,42.333339"
       orientation="0,1920"
       id="guide288"
       inkscape:locked="false" />
    <sodipodi:guide
       position="268.21356,42.333339"
       orientation="1080,0"
       id="guide290"
       inkscape:locked="false" />
    <sodipodi:guide
       position="268.21356,-243.41666"
       orientation="0,-1920"
       id="guide292"
       inkscape:locked="false" />
    <sodipodi:guide
       position="-239.78644,-243.41666"
       orientation="-1080,0"
       id="guide294"
       inkscape:locked="false" />
    <sodipodi:guide
       position="-239.78644,42.333339"
       orientation="0,1920"
       id="guide296"
       inkscape:locked="false" />
    <sodipodi:guide
       position="268.21356,42.333339"
       orientation="1080,0"
       id="guide298"
       inkscape:locked="false" />
    <sodipodi:guide
       position="268.21356,-243.41666"
       orientation="0,-1920"
       id="guide300"
       inkscape:locked="false" />
    <sodipodi:guide
       position="-239.78644,-243.41666"
       orientation="-1080,0"
       id="guide302"
       inkscape:locked="false" />
    <sodipodi:guide
       position="-239.78644,42.333339"
       orientation="0,1920"
       id="guide304"
       inkscape:locked="false" />
    <sodipodi:guide
       position="268.21356,42.333339"
       orientation="1080,0"
       id="guide306"
       inkscape:locked="false" />
    <sodipodi:guide
       position="268.21356,-243.41666"
       orientation="0,-1920"
       id="guide308"
       inkscape:locked="false" />
    <sodipodi:guide
       position="-239.78644,-243.41666"
       orientation="-1080,0"
       id="guide310"
       inkscape:locked="false" />
    <sodipodi:guide
       position="-239.78644,42.333339"
       orientation="0,1920"
       id="guide157"
       inkscape:locked="false" />
    <sodipodi:guide
       position="268.21356,42.333339"
       orientation="1080,0"
       id="guide159"
       inkscape:locked="false" />
    <sodipodi:guide
       position="268.21356,-243.41666"
       orientation="0,-1920"
       id="guide161"
       inkscape:locked="false" />
    <sodipodi:guide
       position="-239.78644,-243.41666"
       orientation="-1080,0"
       id="guide163"
       inkscape:locked="false" />
    <sodipodi:guide
       position="268.21356,42.333339"
       orientation="1080,0"
       id="guide167"
       inkscape:locked="false" />
    <sodipodi:guide
       position="268.21356,-243.41666"
       orientation="0,-1920"
       id="guide169"
       inkscape:locked="false" />
    <sodipodi:guide
       position="-205.91978,42.333339"
       orientation="1,0"
       id="guide1350"
       inkscape:locked="false" />
    <sodipodi:guide
       position="-155.11978,42.333339"
       orientation="1,0"
       id="guide3109"
       inkscape:locked="false" />
    <sodipodi:guide
       position="-239.78644,-8.4666617"
       orientation="0,-1"
       id="guide7523"
       inkscape:locked="false" />
    <sodipodi:guide
       position="-104.31978,42.333339"
       orientation="1,0"
       id="guide12549"
       inkscape:locked="false" />
    <sodipodi:guide
       position="-53.519781,42.333339"
       orientation="1,0"
       id="guide15016"
       inkscape:locked="false" />
    <sodipodi:guide
       position="-2.7197804,42.333339"
       orientation="1,0"
       id="guide21711"
       inkscape:locked="false" />
    <sodipodi:guide
       position="48.08021,42.333339"
       orientation="1,0"
       id="guide26719"
       inkscape:locked="false" />
    <sodipodi:guide
       position="98.88021,42.333339"
       orientation="1,0"
       id="guide32627"
       inkscape:locked="false" />
    <sodipodi:guide
       position="149.68021,42.333339"
       orientation="1,0"
       id="guide49129"
       inkscape:locked="false" />
  </sodipodi:namedview>
  <defs
     id="defs2">
    <linearGradient
       inkscape:collect="always"
       id="linearGradient41556">
      <stop
         style="stop-color:#ffaaaa;stop-opacity:1;"
         offset="0"
         id="stop41552" />
      <stop
         style="stop-color:#ffaaaa;stop-opacity:0;"
         offset="1"
         id="stop41554" />
    </linearGradient>
    <linearGradient
       inkscape:collect="always"
       id="linearGradient38026">
      <stop
         style="stop-color:#aaccff;stop-opacity:1;"
         offset="0"
         id="stop38022" />
      <stop
         style="stop-color:#aaccff;stop-opacity:0;"
         offset="1"
         id="stop38024" />
    </linearGradient>
    <linearGradient
       inkscape:collect="always"
       xlink:href="#linearGradient38026"
       id="linearGradient38028"
       x1="262.46664"
       y1="33.866665"
       x2="262.46664"
       y2="42.333332"
       gradientUnits="userSpaceOnUse" />
    <linearGradient
       inkscape:collect="always"
       xlink:href="#linearGradient41556"
       id="linearGradient41558"
       x1="262.46664"
       y1="16.933332"
       x2="262.46664"
       y2="8.4666662"
       gradientUnits="userSpaceOnUse" />
  </defs>
  <g
     inkscape:label="Capa 1"
     inkscape:groupmode="layer"
     id="layer1"
     transform="translate(-239.78644,-8.4666652)">
    <path
       style="fill:#ffff00;stroke:#d4aa00;stroke-width:0.264583;stroke-linejoin:round;stroke-dasharray:none"
       d="M 267.7583,22.225 V 19.05 h -1.05833 l 2.11667,-2.11667 2.11666,2.11667 h -1.05833 v 3.175 z"
       id="path14057"
       sodipodi:nodetypes="cccccccc"
       inkscape:export-filename="f06.svg"
       inkscape:export-xdpi="96"
       inkscape:export-ydpi="96" />
    <path
       style="fill:#ffff00;stroke:#d4aa00;stroke-width:0.264583;stroke-linejoin:round;stroke-dasharray:none"
       d="m 279.39996,24.341667 h -4.23333 V 23.283333 L 273.04996,25.4 l 2.11667,2.116667 v -1.058334 h 4.23333 z"
       id="path13629" />
    <path
       style="fill:#ffff00;stroke:#d4aa00;stroke-width:0.264583;stroke-linejoin:round;stroke-dasharray:none"
       d="m 267.7583,33.866666 v -3.175 h -1.05833 l 2.11667,-2.11667 2.11666,2.11667 h -1.05833 v 3.175 z"
       id="path14053"
       sodipodi:nodetypes="cccccccc" />
    <path
       style="fill:#ffff00;stroke:#d4aa00;stroke-width:0.264583;stroke-linejoin:round;stroke-dasharray:none"
       d="m 255.0583,33.866666 v -3.175 h -1.05833 l 2.11667,-2.11667 2.11666,2.11667 h -1.05833 v 3.175 z"
       id="path14051"
       sodipodi:nodetypes="cccccccc" />
    <path
       style="fill:#ffff00;stroke:#d4aa00;stroke-width:0.264583;stroke-linejoin:round;stroke-dasharray:none"
       d="m 245.5333,24.341667 h 4.23333 V 23.283333 L 251.8833,25.4 l -2.11667,2.116667 v -1.058334 h -4.23333 z"
       id="path13627" />
    <path
       style="fill:#ffff00;stroke:#d4aa00;stroke-width:0.264583;stroke-linejoin:round;stroke-dasharray:none"
       d="M 255.0583,22.225 V 19.05 h -1.05833 l 2.11667,-2.11667 2.11666,2.11667 h -1.05833 v 3.175 z"
       id="path14055"
       sodipodi:nodetypes="cccccccc" />
    <rect
       style="fill:#e6e6e6;fill-opacity:1;stroke:#000000;stroke-width:0.264583;stroke-linejoin:round;stroke-dasharray:none"
       id="rect13625"
       width="8.4666662"
       height="6.3499999"
       x="264.58331"
       y="22.224998" />
    <rect
       style="fill:#e6e6e6;stroke:#000000;stroke-width:0.264583;stroke-linejoin:round;stroke-dasharray:none"
       id="rect12756"
       width="8.4666662"
       height="6.3499999"
       x="251.88332"
       y="22.224998" />
    <rect
       style="fill:url(#linearGradient41558);fill-opacity:1;stroke:none;stroke-width:0.105833;stroke-linejoin:round"
       id="rect33615"
       width="33.866665"
       height="8.4666662"
       x="245.53333"
       y="8.4666653" />
    <rect
       style="fill:url(#linearGradient38028);fill-opacity:1;stroke:none;stroke-width:0.105833;stroke-linejoin:round"
       id="rect33509"
       width="33.866665"
       height="8.4666662"
       x="245.53333"
       y="33.866665" />
    <g
       inkscape:label=""
       transform="translate(254.27238,23.934824)"
       id="g12719"
       inkscape:export-filename="f6.svg"
       inkscape:export-xdpi="96"
       inkscape:export-ydpi="96">
      <g
         id="g12717"
         transform="matrix(0.352778,0,0,0.352778,-0.143316,0.00158747)">
        <g
           style="fill:#000000;fill-opacity:1"
           id="g20">
          <g
             id="use18"
             transform="translate(0,6.8080001)">
            <path
               style="stroke:none"
               d="m 3.734375,-6.125 c 0.0625,-0.234375 0.09375,-0.328125 0.28125,-0.359375 C 4.109375,-6.5 4.421875,-6.5 4.625,-6.5 c 0.703125,0 1.8125,0 1.8125,0.984375 0,0.34375 -0.15625,1.03125 -0.546875,1.421875 -0.265625,0.25 -0.78125,0.578125 -1.6875,0.578125 H 3.09375 Z m 1.4375,2.734375 c 1.015625,-0.21875 2.1875,-0.921875 2.1875,-1.921875 0,-0.859375 -0.890625,-1.5 -2.203125,-1.5 H 2.328125 c -0.203125,0 -0.296875,0 -0.296875,0.203125 C 2.03125,-6.5 2.125,-6.5 2.3125,-6.5 c 0.015625,0 0.203125,0 0.375,0.015625 0.1875,0.03125 0.265625,0.03125 0.265625,0.171875 0,0.03125 0,0.0625 -0.03125,0.1875 l -1.34375,5.34375 C 1.484375,-0.390625 1.46875,-0.3125 0.671875,-0.3125 0.5,-0.3125 0.40625,-0.3125 0.40625,-0.109375 0.40625,0 0.53125,0 0.546875,0 c 0.28125,0 0.984375,-0.03125 1.25,-0.03125 0.28125,0 1,0.03125 1.28125,0.03125 0.078125,0 0.1875,0 0.1875,-0.203125 0,-0.109375 -0.078125,-0.109375 -0.28125,-0.109375 -0.359375,0 -0.640625,0 -0.640625,-0.171875 0,-0.0625 0.015625,-0.109375 0.03125,-0.171875 l 0.65625,-2.640625 h 1.1875 c 0.90625,0 1.078125,0.5625 1.078125,0.90625 0,0.140625 -0.078125,0.453125 -0.140625,0.6875 C 5.09375,-1.421875 5,-1.0625 5,-0.859375 5,0.21875 6.203125,0.21875 6.328125,0.21875 c 0.84375,0 1.203125,-1 1.203125,-1.140625 0,-0.125 -0.109375,-0.125 -0.125,-0.125 -0.09375,0 -0.109375,0.0625 -0.125,0.140625 C 7.03125,-0.171875 6.59375,0 6.375,0 6.046875,0 5.96875,-0.21875 5.96875,-0.609375 c 0,-0.3125 0.0625,-0.8125 0.109375,-1.140625 0.015625,-0.140625 0.03125,-0.328125 0.03125,-0.46875 0,-0.765625 -0.671875,-1.078125 -0.9375,-1.171875 z m 0,0"
               id="path31" />
          </g>
        </g>
        <g
           style="fill:#000000;fill-opacity:1"
           id="g24">
          <g
             id="use22"
             transform="translate(7.5650001,8.302)">
            <path
               style="stroke:none"
               d="m 2.328125,-4.4375 c 0,-0.1875 0,-0.1875 -0.203125,-0.1875 -0.453125,0.4375 -1.078125,0.4375 -1.359375,0.4375 v 0.25 c 0.15625,0 0.625,0 1,-0.1875 v 3.546875 c 0,0.234375 0,0.328125 -0.6875,0.328125 H 0.8125 V 0 c 0.125,0 0.984375,-0.03125 1.234375,-0.03125 0.21875,0 1.09375,0.03125 1.25,0.03125 V -0.25 H 3.03125 c -0.703125,0 -0.703125,-0.09375 -0.703125,-0.328125 z m 0,0"
               id="path35" />
          </g>
        </g>
      </g>
    </g>
    <g
       inkscape:label=""
       transform="translate(266.93379,23.934824)"
       id="g13588">
      <g
         id="g13586"
         transform="matrix(0.352778,0,0,0.352778,-0.143316,0.00158747)">
        <g
           style="fill:#000000;fill-opacity:1"
           id="g13578">
          <g
             id="g13576"
             transform="translate(0,6.8080001)">
            <path
               style="stroke:none"
               d="m 3.734375,-6.125 c 0.0625,-0.234375 0.09375,-0.328125 0.28125,-0.359375 C 4.109375,-6.5 4.421875,-6.5 4.625,-6.5 c 0.703125,0 1.8125,0 1.8125,0.984375 0,0.34375 -0.15625,1.03125 -0.546875,1.421875 -0.265625,0.25 -0.78125,0.578125 -1.6875,0.578125 H 3.09375 Z m 1.4375,2.734375 c 1.015625,-0.21875 2.1875,-0.921875 2.1875,-1.921875 0,-0.859375 -0.890625,-1.5 -2.203125,-1.5 H 2.328125 c -0.203125,0 -0.296875,0 -0.296875,0.203125 C 2.03125,-6.5 2.125,-6.5 2.3125,-6.5 c 0.015625,0 0.203125,0 0.375,0.015625 0.1875,0.03125 0.265625,0.03125 0.265625,0.171875 0,0.03125 0,0.0625 -0.03125,0.1875 l -1.34375,5.34375 C 1.484375,-0.390625 1.46875,-0.3125 0.671875,-0.3125 0.5,-0.3125 0.40625,-0.3125 0.40625,-0.109375 0.40625,0 0.53125,0 0.546875,0 c 0.28125,0 0.984375,-0.03125 1.25,-0.03125 0.28125,0 1,0.03125 1.28125,0.03125 0.078125,0 0.1875,0 0.1875,-0.203125 0,-0.109375 -0.078125,-0.109375 -0.28125,-0.109375 -0.359375,0 -0.640625,0 -0.640625,-0.171875 0,-0.0625 0.015625,-0.109375 0.03125,-0.171875 l 0.65625,-2.640625 h 1.1875 c 0.90625,0 1.078125,0.5625 1.078125,0.90625 0,0.140625 -0.078125,0.453125 -0.140625,0.6875 C 5.09375,-1.421875 5,-1.0625 5,-0.859375 5,0.21875 6.203125,0.21875 6.328125,0.21875 c 0.84375,0 1.203125,-1 1.203125,-1.140625 0,-0.125 -0.109375,-0.125 -0.125,-0.125 -0.09375,0 -0.109375,0.0625 -0.125,0.140625 C 7.03125,-0.171875 6.59375,0 6.375,0 6.046875,0 5.96875,-0.21875 5.96875,-0.609375 c 0,-0.3125 0.0625,-0.8125 0.109375,-1.140625 0.015625,-0.140625 0.03125,-0.328125 0.03125,-0.46875 0,-0.765625 -0.671875,-1.078125 -0.9375,-1.171875 z m 0,0"
               id="path13574" />
          </g>
        </g>
        <g
           style="fill:#000000;fill-opacity:1"
           id="g13584">
          <g
             id="g13582"
             transform="translate(7.5650001,8.302)">
            <path
               style="stroke:none"
               d="M 3.515625,-1.265625 H 3.28125 c -0.015625,0.15625 -0.09375,0.5625 -0.1875,0.625 C 3.046875,-0.59375 2.515625,-0.59375 2.40625,-0.59375 H 1.125 c 0.734375,-0.640625 0.984375,-0.84375 1.390625,-1.171875 0.515625,-0.40625 1,-0.84375 1,-1.5 0,-0.84375 -0.734375,-1.359375 -1.625,-1.359375 -0.859375,0 -1.453125,0.609375 -1.453125,1.25 0,0.34375 0.296875,0.390625 0.375,0.390625 0.15625,0 0.359375,-0.125 0.359375,-0.375 0,-0.125 -0.046875,-0.375 -0.40625,-0.375 C 0.984375,-4.21875 1.453125,-4.375 1.78125,-4.375 c 0.703125,0 1.0625,0.546875 1.0625,1.109375 0,0.609375 -0.4375,1.078125 -0.65625,1.328125 L 0.515625,-0.265625 C 0.4375,-0.203125 0.4375,-0.1875 0.4375,0 h 2.875 z m 0,0"
               id="path13580" />
          </g>
        </g>
      </g>
    </g>
    <path
       style="fill:none;stroke:#000000;stroke-width:0.264583;stroke-linejoin:round;stroke-dasharray:none"
       d="m 245.51908,8.4666672 v 8.4666658 h 33.86667 V 8.4666672"
       id="path14059" />
    <path
       style="fill:none;stroke:#000000;stroke-width:0.264583;stroke-linejoin:round;stroke-dasharray:none"
       d="m 245.51908,42.333332 v -8.466666 h 33.86667 v 8.466666"
       id="path14061" />
    <g
       id="g18284"
       transform="translate(12.796954,-2.0505202)">
      <text
         xml:space="preserve"
         style="font-style:normal;font-variant:normal;font-weight:300;font-stretch:normal;font-size:3.175px;font-family:Roboto;-inkscape-font-specification:'Roboto, Light';font-variant-ligatures:normal;font-variant-caps:normal;font-variant-numeric:normal;font-variant-east-asian:normal;fill:#000000;stroke:none;stroke-width:0.264583;stroke-dasharray:none"
         x="237.75388"
         y="15.945279"
         id="text9419-1"><tspan
           sodipodi:role="line"
           id="tspan9417-7"
           style="font-style:normal;font-variant:normal;font-weight:300;font-stretch:normal;font-size:3.175px;font-family:Roboto;-inkscape-font-specification:'Roboto, Light';font-variant-ligatures:normal;font-variant-caps:normal;font-variant-numeric:normal;font-variant-east-asian:normal;fill:#000000;stroke:none;stroke-width:0.264583"
           x="237.75388"
           y="15.945279">EXTERIOR</tspan></text>
      <g
         inkscape:label=""
         transform="translate(253.95147,13.537846)"
         id="g16794">
        <g
           id="g16792"
           transform="matrix(0.352778,0,0,0.352778,-0.148828,0.0604131)">
          <g
             style="fill:#000000;fill-opacity:1"
             id="g28">
            <g
               id="g16779"
               transform="translate(0,6.8600001)">
              <path
                 style="stroke:none"
                 d="m 2.890625,-3.515625 c 0.8125,-0.265625 1.390625,-0.953125 1.390625,-1.75 0,-0.8125 -0.875,-1.375 -1.828125,-1.375 -1,0 -1.765625,0.59375 -1.765625,1.359375 0,0.328125 0.21875,0.515625 0.515625,0.515625 0.296875,0 0.5,-0.21875 0.5,-0.515625 0,-0.484375 -0.46875,-0.484375 -0.609375,-0.484375 0.296875,-0.5 0.953125,-0.625 1.3125,-0.625 0.421875,0 0.96875,0.21875 0.96875,1.109375 0,0.125 -0.03125,0.703125 -0.28125,1.140625 C 2.796875,-3.65625 2.453125,-3.625 2.203125,-3.625 2.125,-3.609375 1.890625,-3.59375 1.8125,-3.59375 c -0.078125,0.015625 -0.140625,0.03125 -0.140625,0.125 0,0.109375 0.0625,0.109375 0.234375,0.109375 h 0.4375 c 0.8125,0 1.1875,0.671875 1.1875,1.65625 0,1.359375 -0.6875,1.640625 -1.125,1.640625 -0.4375,0 -1.1875,-0.171875 -1.53125,-0.75 0.34375,0.046875 0.65625,-0.171875 0.65625,-0.546875 0,-0.359375 -0.265625,-0.5625 -0.546875,-0.5625 -0.25,0 -0.5625,0.140625 -0.5625,0.578125 0,0.90625 0.921875,1.5625 2.015625,1.5625 1.21875,0 2.125,-0.90625 2.125,-1.921875 0,-0.8125 -0.640625,-1.59375 -1.671875,-1.8125 z m 0,0"
                 id="path43" />
            </g>
            <g
               id="use26"
               transform="translate(4.9812999,6.8600001)">
              <path
                 style="stroke:none"
                 d="m 4.578125,-3.1875 c 0,-0.796875 -0.046875,-1.59375 -0.390625,-2.328125 -0.453125,-0.96875 -1.28125,-1.125 -1.6875,-1.125 -0.609375,0 -1.328125,0.265625 -1.75,1.1875 -0.3125,0.6875 -0.359375,1.46875 -0.359375,2.265625 0,0.75 0.03125,1.640625 0.453125,2.40625 0.421875,0.796875 1.15625,1 1.640625,1 0.53125,0 1.296875,-0.203125 1.734375,-1.15625 0.3125,-0.6875 0.359375,-1.46875 0.359375,-2.25 z M 2.484375,0 C 2.09375,0 1.5,-0.25 1.328125,-1.203125 1.21875,-1.796875 1.21875,-2.71875 1.21875,-3.3125 c 0,-0.640625 0,-1.296875 0.078125,-1.828125 0.1875,-1.1875 0.9375,-1.28125 1.1875,-1.28125 0.328125,0 0.984375,0.1875 1.171875,1.171875 0.109375,0.5625 0.109375,1.3125 0.109375,1.9375 0,0.75 0,1.421875 -0.109375,2.0625 C 3.5,-0.296875 2.9375,0 2.484375,0 Z m 0,0"
                 id="path47" />
            </g>
          </g>
          <g
             style="fill:#000000;fill-opacity:1"
             id="g32">
            <g
               id="g16785"
               transform="translate(9.9630003,3.244)">
              <path
                 style="stroke:none"
                 d="m 3.53125,-1.734375 c 0,-0.84375 -0.671875,-1.5 -1.5,-1.5 -0.828125,0 -1.5,0.671875 -1.5,1.484375 0,0.84375 0.6875,1.5 1.5,1.5 0.84375,0 1.5,-0.671875 1.5,-1.484375 z m -1.5,1.140625 C 1.375,-0.59375 0.875,-1.125 0.875,-1.734375 c 0,-0.65625 0.515625,-1.171875 1.15625,-1.171875 0.65625,0 1.15625,0.53125 1.15625,1.15625 0,0.65625 -0.515625,1.15625 -1.15625,1.15625 z m 0,0"
                 id="path51" />
            </g>
          </g>
          <g
             style="fill:#000000;fill-opacity:1"
             id="g16790">
            <g
               id="use34"
               transform="translate(14.543,6.8600001)">
              <path
                 style="stroke:none"
                 d="m 0.5625,-3.40625 c 0,2.0625 1.609375,3.625 3.46875,3.625 1.625,0 2.59375,-1.390625 2.59375,-2.546875 C 6.625,-2.421875 6.625,-2.5 6.5,-2.5 6.390625,-2.5 6.390625,-2.4375 6.375,-2.328125 6.296875,-0.90625 5.234375,-0.09375 4.140625,-0.09375 c -0.609375,0 -2.5625,-0.328125 -2.5625,-3.3125 0,-2.96875 1.953125,-3.3125 2.5625,-3.3125 1.078125,0 1.96875,0.90625 2.171875,2.359375 C 6.328125,-4.21875 6.328125,-4.1875 6.46875,-4.1875 6.625,-4.1875 6.625,-4.21875 6.625,-4.421875 V -6.78125 c 0,-0.171875 0,-0.25 -0.109375,-0.25 -0.03125,0 -0.078125,0 -0.15625,0.125 l -0.5,0.734375 C 5.5,-6.53125 4.984375,-7.03125 4.03125,-7.03125 c -1.875,0 -3.46875,1.59375 -3.46875,3.625 z m 0,0"
                 id="path55" />
            </g>
          </g>
        </g>
      </g>
    </g>
    <g
       id="g18267"
       transform="translate(8.9467312,-7.3731927)">
      <text
         xml:space="preserve"
         style="font-style:normal;font-variant:normal;font-weight:300;font-stretch:normal;font-size:3.175px;font-family:Roboto;-inkscape-font-specification:'Roboto, Light';font-variant-ligatures:normal;font-variant-caps:normal;font-variant-numeric:normal;font-variant-east-asian:normal;fill:#000000;stroke:none;stroke-width:0.264583;stroke-dasharray:none"
         x="244.65454"
         y="46.53566"
         id="text14518"><tspan
           sodipodi:role="line"
           id="tspan14516"
           style="font-style:normal;font-variant:normal;font-weight:300;font-stretch:normal;font-size:3.175px;font-family:Roboto;-inkscape-font-specification:'Roboto, Light';font-variant-ligatures:normal;font-variant-caps:normal;font-variant-numeric:normal;font-variant-east-asian:normal;fill:#000000;stroke:none;stroke-width:0.264583"
           x="244.65454"
           y="46.53566">CASA</tspan></text>
      <g
         inkscape:label=""
         transform="translate(254.99878,44.128226)"
         id="g17750">
        <g
           id="g17748"
           transform="matrix(0.352778,0,0,0.352778,-0.314193,0.0604131)">
          <g
             style="fill:#000000;fill-opacity:1"
             id="g17736">
            <g
               id="g17730"
               transform="translate(0,6.8600001)">
              <path
                 style="stroke:none"
                 d="m 2.9375,-6.375 c 0,-0.25 0,-0.265625 -0.234375,-0.265625 C 2.078125,-6 1.203125,-6 0.890625,-6 v 0.3125 c 0.203125,0 0.78125,0 1.296875,-0.265625 v 5.171875 c 0,0.359375 -0.03125,0.46875 -0.921875,0.46875 h -0.3125 V 0 c 0.34375,-0.03125 1.203125,-0.03125 1.609375,-0.03125 0.390625,0 1.265625,0 1.609375,0.03125 v -0.3125 h -0.3125 c -0.90625,0 -0.921875,-0.109375 -0.921875,-0.46875 z m 0,0"
                 id="path17728" />
            </g>
            <g
               id="g17734"
               transform="translate(4.9812999,6.8600001)">
              <path
                 style="stroke:none"
                 d="m 1.625,-4.5625 c -0.453125,-0.296875 -0.5,-0.625 -0.5,-0.796875 0,-0.609375 0.65625,-1.03125 1.359375,-1.03125 0.71875,0 1.359375,0.515625 1.359375,1.234375 0,0.578125 -0.390625,1.046875 -0.984375,1.390625 z m 1.453125,0.953125 C 3.796875,-3.984375 4.28125,-4.5 4.28125,-5.15625 c 0,-0.921875 -0.875,-1.484375 -1.78125,-1.484375 -1,0 -1.8125,0.734375 -1.8125,1.671875 0,0.171875 0.015625,0.625 0.4375,1.09375 0.109375,0.109375 0.484375,0.359375 0.734375,0.53125 C 1.28125,-3.046875 0.421875,-2.5 0.421875,-1.5 c 0,1.046875 1.015625,1.71875 2.0625,1.71875 1.125,0 2.078125,-0.828125 2.078125,-1.890625 0,-0.359375 -0.109375,-0.8125 -0.5,-1.234375 C 3.875,-3.109375 3.71875,-3.203125 3.078125,-3.609375 Z m -1,0.421875 1.234375,0.78125 c 0.28125,0.1875 0.75,0.484375 0.75,1.09375 0,0.734375 -0.75,1.25 -1.5625,1.25 -0.859375,0 -1.578125,-0.609375 -1.578125,-1.4375 0,-0.578125 0.3125,-1.21875 1.15625,-1.6875 z m 0,0"
                 id="path17732" />
            </g>
          </g>
          <g
             style="fill:#000000;fill-opacity:1"
             id="g17741">
            <g
               id="use30"
               transform="translate(9.9630003,3.244)">
              <path
                 style="stroke:none"
                 d="m 3.53125,-1.734375 c 0,-0.84375 -0.671875,-1.5 -1.5,-1.5 -0.828125,0 -1.5,0.671875 -1.5,1.484375 0,0.84375 0.6875,1.5 1.5,1.5 0.84375,0 1.5,-0.671875 1.5,-1.484375 z m -1.5,1.140625 C 1.375,-0.59375 0.875,-1.125 0.875,-1.734375 c 0,-0.65625 0.515625,-1.171875 1.15625,-1.171875 0.65625,0 1.15625,0.53125 1.15625,1.15625 0,0.65625 -0.515625,1.15625 -1.15625,1.15625 z m 0,0"
                 id="path17738" />
            </g>
          </g>
          <g
             style="fill:#000000;fill-opacity:1"
             id="g36">
            <g
               id="g17745"
               transform="translate(14.543,6.8600001)">
              <path
                 style="stroke:none"
                 d="m 0.5625,-3.40625 c 0,2.0625 1.609375,3.625 3.46875,3.625 1.625,0 2.59375,-1.390625 2.59375,-2.546875 C 6.625,-2.421875 6.625,-2.5 6.5,-2.5 6.390625,-2.5 6.390625,-2.4375 6.375,-2.328125 6.296875,-0.90625 5.234375,-0.09375 4.140625,-0.09375 c -0.609375,0 -2.5625,-0.328125 -2.5625,-3.3125 0,-2.96875 1.953125,-3.3125 2.5625,-3.3125 1.078125,0 1.96875,0.90625 2.171875,2.359375 C 6.328125,-4.21875 6.328125,-4.1875 6.46875,-4.1875 6.625,-4.1875 6.625,-4.21875 6.625,-4.421875 V -6.78125 c 0,-0.171875 0,-0.25 -0.109375,-0.25 -0.03125,0 -0.078125,0 -0.15625,0.125 l -0.5,0.734375 C 5.5,-6.53125 4.984375,-7.03125 4.03125,-7.03125 c -1.875,0 -3.46875,1.59375 -3.46875,3.625 z m 0,0"
                 id="path17743" />
            </g>
          </g>
        </g>
      </g>
    </g>
    <g
       inkscape:label=""
       transform="translate(247.7335,29.807921)"
       id="g20710">
      <g
         id="g20708"
         transform="matrix(0.352778,0,0,0.352778,-0.143316,0.00507125)">
        <g
           style="fill:#000000;fill-opacity:1"
           id="g20688">
          <g
             id="g20686"
             transform="translate(2.8599999,5.3449998)">
            <path
               style="stroke:none"
               d="m 1.609375,-4.90625 c 0,-0.265625 -0.203125,-0.453125 -0.4375,-0.453125 -0.234375,0 -0.4375,0.1875 -0.4375,0.453125 0,0.234375 0.1875,0.4375 0.4375,0.4375 0.25,0 0.4375,-0.203125 0.4375,-0.4375 z m 0,0"
               id="path20684" />
          </g>
        </g>
        <g
           style="fill:#000000;fill-opacity:1"
           id="g20694">
          <g
             id="g20692"
             transform="translate(0,7.3590002)">
            <path
               style="stroke:none"
               d="m 3.734375,-0.0625 c 1.25,-0.4375 2.484375,-1.796875 2.484375,-3.359375 0,-1.3125 -0.90625,-2.1875 -2.171875,-2.1875 -1.859375,0 -3.640625,1.84375 -3.640625,3.625 0,1.21875 0.859375,2.15625 2.203125,2.15625 0.21875,0 0.484375,-0.03125 0.796875,-0.109375 0,0.09375 -0.015625,0.390625 -0.015625,0.453125 0,0.328125 0,1.03125 0.734375,1.03125 C 5.0625,1.546875 5.5,0.140625 5.5,0 c 0,-0.0625 -0.046875,-0.109375 -0.109375,-0.109375 -0.078125,0 -0.09375,0.078125 -0.109375,0.09375 -0.171875,0.53125 -0.625,0.75 -0.96875,0.75 -0.265625,0 -0.46875,-0.09375 -0.578125,-0.796875 z M 2.09375,-0.1875 c -0.625,-0.25 -0.9375,-0.8125 -0.9375,-1.59375 0,-0.53125 0.1875,-1.578125 0.828125,-2.453125 0.515625,-0.6875 1.296875,-1.125 1.984375,-1.125 0.84375,0 1.515625,0.59375 1.515625,1.703125 0,0.421875 -0.15625,2.375 -1.796875,3.3125 -0.09375,-0.46875 -0.25,-0.859375 -0.765625,-0.859375 -0.453125,0 -0.859375,0.40625 -0.859375,0.8125 0,0.078125 0.015625,0.140625 0.03125,0.203125 z M 3.421875,-0.234375 C 3.25,-0.15625 2.96875,-0.078125 2.65625,-0.078125 c -0.09375,0 -0.375,0 -0.375,-0.3125 0,-0.28125 0.296875,-0.59375 0.640625,-0.59375 0.359375,0 0.484375,0.21875 0.5,0.75 z m 0,0"
               id="path20690" />
          </g>
        </g>
        <g
           style="fill:#000000;fill-opacity:1"
           id="g20700">
          <g
             id="g20698"
             transform="translate(6.6609998,8.6990004)">
            <path
               style="stroke:none"
               d="m 2.171875,-1.921875 h 0.6875 c 0.484375,0 0.5625,0.078125 0.5625,0.28125 0,0.078125 -0.03125,0.265625 -0.0625,0.34375 0,0 0.015625,0.078125 0.125,0.078125 0.078125,0 0.09375,-0.03125 0.109375,-0.125 l 0.359375,-1.421875 c 0,-0.015625 -0.015625,-0.09375 -0.109375,-0.09375 -0.09375,0 -0.109375,0.046875 -0.125,0.125 -0.125,0.46875 -0.265625,0.578125 -0.828125,0.578125 H 2.25 L 2.609375,-3.625 c 0.046875,-0.1875 0.046875,-0.203125 0.3125,-0.203125 h 0.96875 c 0.796875,0 1,0.15625 1,0.703125 0,0.140625 -0.015625,0.34375 -0.015625,0.359375 0,0.109375 0.078125,0.109375 0.109375,0.109375 0.09375,0 0.109375,-0.046875 0.109375,-0.15625 L 5.203125,-3.875 C 5.21875,-4.0625 5.171875,-4.0625 5.03125,-4.0625 h -3.375 c -0.109375,0 -0.203125,0 -0.203125,0.15625 0,0.078125 0.09375,0.078125 0.203125,0.078125 0.109375,0 0.265625,0 0.390625,0.046875 0,0.0625 0,0.09375 -0.03125,0.1875 L 1.234375,-0.5 c -0.046875,0.21875 -0.0625,0.265625 -0.515625,0.265625 -0.125,0 -0.140625,0 -0.15625,0.015625 C 0.53125,-0.203125 0.5,-0.125 0.5,-0.078125 0.515625,-0.0625 0.515625,0 0.609375,0 c 0.125,0 0.265625,-0.015625 0.40625,-0.015625 0.140625,0 0.28125,-0.015625 0.421875,-0.015625 0.15625,0 0.328125,0.015625 0.5,0.015625 C 2.078125,-0.015625 2.25,0 2.390625,0 2.421875,0 2.53125,0 2.53125,-0.15625 c 0,-0.078125 -0.078125,-0.078125 -0.21875,-0.078125 -0.015625,0 -0.171875,0 -0.3125,-0.015625 -0.1875,-0.015625 -0.203125,-0.03125 -0.203125,-0.09375 0,-0.015625 0,-0.046875 0.015625,-0.125 z m 0,0"
               id="path20696" />
          </g>
        </g>
        <g
           style="fill:#000000;fill-opacity:1"
           id="g20706">
          <g
             id="g20704"
             transform="translate(12.262,8.6990004)">
            <path
               style="stroke:none"
               d="m 2.140625,-3.796875 c 0,-0.1875 -0.015625,-0.1875 -0.203125,-0.1875 -0.390625,0.390625 -1,0.390625 -1.21875,0.390625 v 0.234375 c 0.15625,0 0.5625,0 0.921875,-0.171875 v 3.015625 c 0,0.203125 0,0.28125 -0.625,0.28125 h -0.25 V 0 c 0.328125,-0.03125 0.796875,-0.03125 1.125,-0.03125 0.328125,0 0.796875,0 1.125,0.03125 v -0.234375 h -0.25 c -0.625,0 -0.625,-0.078125 -0.625,-0.28125 z m 0,0"
               id="path20702" />
          </g>
        </g>
      </g>
    </g>
    <g
       inkscape:label=""
       transform="translate(272.03825,29.807921)"
       id="g21724">
      <g
         id="g21722"
         transform="matrix(0.352778,0,0,0.352778,-0.143316,0.00507125)">
        <g
           style="fill:#000000;fill-opacity:1"
           id="g21707">
          <g
             id="g21705"
             transform="translate(2.8599999,5.3449998)">
            <path
               style="stroke:none"
               d="m 1.609375,-4.90625 c 0,-0.265625 -0.203125,-0.453125 -0.4375,-0.453125 -0.234375,0 -0.4375,0.1875 -0.4375,0.453125 0,0.234375 0.1875,0.4375 0.4375,0.4375 0.25,0 0.4375,-0.203125 0.4375,-0.4375 z m 0,0"
               id="path21703" />
          </g>
        </g>
        <g
           style="fill:#000000;fill-opacity:1"
           id="g21713">
          <g
             id="g21711"
             transform="translate(0,7.3590002)">
            <path
               style="stroke:none"
               d="m 3.734375,-0.0625 c 1.25,-0.4375 2.484375,-1.796875 2.484375,-3.359375 0,-1.3125 -0.90625,-2.1875 -2.171875,-2.1875 -1.859375,0 -3.640625,1.84375 -3.640625,3.625 0,1.21875 0.859375,2.15625 2.203125,2.15625 0.21875,0 0.484375,-0.03125 0.796875,-0.109375 0,0.09375 -0.015625,0.390625 -0.015625,0.453125 0,0.328125 0,1.03125 0.734375,1.03125 C 5.0625,1.546875 5.5,0.140625 5.5,0 c 0,-0.0625 -0.046875,-0.109375 -0.109375,-0.109375 -0.078125,0 -0.09375,0.078125 -0.109375,0.09375 -0.171875,0.53125 -0.625,0.75 -0.96875,0.75 -0.265625,0 -0.46875,-0.09375 -0.578125,-0.796875 z M 2.09375,-0.1875 c -0.625,-0.25 -0.9375,-0.8125 -0.9375,-1.59375 0,-0.53125 0.1875,-1.578125 0.828125,-2.453125 0.515625,-0.6875 1.296875,-1.125 1.984375,-1.125 0.84375,0 1.515625,0.59375 1.515625,1.703125 0,0.421875 -0.15625,2.375 -1.796875,3.3125 -0.09375,-0.46875 -0.25,-0.859375 -0.765625,-0.859375 -0.453125,0 -0.859375,0.40625 -0.859375,0.8125 0,0.078125 0.015625,0.140625 0.03125,0.203125 z M 3.421875,-0.234375 C 3.25,-0.15625 2.96875,-0.078125 2.65625,-0.078125 c -0.09375,0 -0.375,0 -0.375,-0.3125 0,-0.28125 0.296875,-0.59375 0.640625,-0.59375 0.359375,0 0.484375,0.21875 0.5,0.75 z m 0,0"
               id="path21709" />
          </g>
        </g>
        <g
           style="fill:#000000;fill-opacity:1"
           id="g40">
          <g
             id="use38"
             transform="translate(6.6609998,8.6990004)">
            <path
               style="stroke:none"
               d="m 2.171875,-1.921875 h 0.6875 c 0.484375,0 0.5625,0.078125 0.5625,0.28125 0,0.078125 -0.03125,0.265625 -0.0625,0.34375 0,0 0.015625,0.078125 0.125,0.078125 0.078125,0 0.09375,-0.03125 0.109375,-0.125 l 0.359375,-1.421875 c 0,-0.015625 -0.015625,-0.09375 -0.109375,-0.09375 -0.09375,0 -0.109375,0.046875 -0.125,0.125 -0.125,0.46875 -0.265625,0.578125 -0.828125,0.578125 H 2.25 L 2.609375,-3.625 c 0.046875,-0.1875 0.046875,-0.203125 0.3125,-0.203125 h 0.96875 c 0.796875,0 1,0.15625 1,0.703125 0,0.140625 -0.015625,0.34375 -0.015625,0.359375 0,0.109375 0.078125,0.109375 0.109375,0.109375 0.09375,0 0.109375,-0.046875 0.109375,-0.15625 L 5.203125,-3.875 C 5.21875,-4.0625 5.171875,-4.0625 5.03125,-4.0625 h -3.375 c -0.109375,0 -0.203125,0 -0.203125,0.15625 0,0.078125 0.09375,0.078125 0.203125,0.078125 0.109375,0 0.265625,0 0.390625,0.046875 0,0.0625 0,0.09375 -0.03125,0.1875 L 1.234375,-0.5 c -0.046875,0.21875 -0.0625,0.265625 -0.515625,0.265625 -0.125,0 -0.140625,0 -0.15625,0.015625 C 0.53125,-0.203125 0.5,-0.125 0.5,-0.078125 0.515625,-0.0625 0.515625,0 0.609375,0 c 0.125,0 0.265625,-0.015625 0.40625,-0.015625 0.140625,0 0.28125,-0.015625 0.421875,-0.015625 0.15625,0 0.328125,0.015625 0.5,0.015625 C 2.078125,-0.015625 2.25,0 2.390625,0 2.421875,0 2.53125,0 2.53125,-0.15625 c 0,-0.078125 -0.078125,-0.078125 -0.21875,-0.078125 -0.015625,0 -0.171875,0 -0.3125,-0.015625 -0.1875,-0.015625 -0.203125,-0.03125 -0.203125,-0.09375 0,-0.015625 0,-0.046875 0.015625,-0.125 z m 0,0"
               id="path59" />
          </g>
        </g>
        <g
           style="fill:#000000;fill-opacity:1"
           id="g21720">
          <g
             id="use42"
             transform="translate(12.262,8.6990004)">
            <path
               style="stroke:none"
               d="M 3.21875,-1.125 H 3 C 2.984375,-1.03125 2.921875,-0.640625 2.84375,-0.578125 2.796875,-0.53125 2.3125,-0.53125 2.21875,-0.53125 H 1.109375 L 1.875,-1.15625 C 2.078125,-1.328125 2.609375,-1.703125 2.796875,-1.890625 2.96875,-2.0625 3.21875,-2.375 3.21875,-2.796875 c 0,-0.75 -0.671875,-1.1875 -1.484375,-1.1875 -0.765625,0 -1.296875,0.515625 -1.296875,1.078125 0,0.296875 0.25,0.34375 0.3125,0.34375 0.15625,0 0.328125,-0.109375 0.328125,-0.328125 C 1.078125,-3.015625 1,-3.21875 0.734375,-3.21875 0.875,-3.515625 1.234375,-3.75 1.65625,-3.75 c 0.625,0 0.953125,0.46875 0.953125,0.953125 0,0.421875 -0.28125,0.859375 -0.6875,1.25 L 0.5,-0.25 C 0.4375,-0.1875 0.4375,-0.1875 0.4375,0 h 2.59375 z m 0,0"
               id="path63" />
          </g>
        </g>
      </g>
    </g>
    <g
       inkscape:label=""
       transform="translate(272.03825,17.797211)"
       id="g22771">
      <g
         id="g22769"
         transform="matrix(0.352778,0,0,0.352778,-0.143316,0.00507125)">
        <g
           style="fill:#000000;fill-opacity:1"
           id="g22749">
          <g
             id="g22747"
             transform="translate(2.8599999,5.3449998)">
            <path
               style="stroke:none"
               d="m 1.609375,-4.90625 c 0,-0.265625 -0.203125,-0.453125 -0.4375,-0.453125 -0.234375,0 -0.4375,0.1875 -0.4375,0.453125 0,0.234375 0.1875,0.4375 0.4375,0.4375 0.25,0 0.4375,-0.203125 0.4375,-0.4375 z m 0,0"
               id="path22745" />
          </g>
        </g>
        <g
           style="fill:#000000;fill-opacity:1"
           id="g22755">
          <g
             id="g22753"
             transform="translate(0,7.3590002)">
            <path
               style="stroke:none"
               d="m 3.734375,-0.0625 c 1.25,-0.4375 2.484375,-1.796875 2.484375,-3.359375 0,-1.3125 -0.90625,-2.1875 -2.171875,-2.1875 -1.859375,0 -3.640625,1.84375 -3.640625,3.625 0,1.21875 0.859375,2.15625 2.203125,2.15625 0.21875,0 0.484375,-0.03125 0.796875,-0.109375 0,0.09375 -0.015625,0.390625 -0.015625,0.453125 0,0.328125 0,1.03125 0.734375,1.03125 C 5.0625,1.546875 5.5,0.140625 5.5,0 c 0,-0.0625 -0.046875,-0.109375 -0.109375,-0.109375 -0.078125,0 -0.09375,0.078125 -0.109375,0.09375 -0.171875,0.53125 -0.625,0.75 -0.96875,0.75 -0.265625,0 -0.46875,-0.09375 -0.578125,-0.796875 z M 2.09375,-0.1875 c -0.625,-0.25 -0.9375,-0.8125 -0.9375,-1.59375 0,-0.53125 0.1875,-1.578125 0.828125,-2.453125 0.515625,-0.6875 1.296875,-1.125 1.984375,-1.125 0.84375,0 1.515625,0.59375 1.515625,1.703125 0,0.421875 -0.15625,2.375 -1.796875,3.3125 -0.09375,-0.46875 -0.25,-0.859375 -0.765625,-0.859375 -0.453125,0 -0.859375,0.40625 -0.859375,0.8125 0,0.078125 0.015625,0.140625 0.03125,0.203125 z M 3.421875,-0.234375 C 3.25,-0.15625 2.96875,-0.078125 2.65625,-0.078125 c -0.09375,0 -0.375,0 -0.375,-0.3125 0,-0.28125 0.296875,-0.59375 0.640625,-0.59375 0.359375,0 0.484375,0.21875 0.5,0.75 z m 0,0"
               id="path22751" />
          </g>
        </g>
        <g
           style="fill:#000000;fill-opacity:1"
           id="g22761">
          <g
             id="g22759"
             transform="translate(6.6609998,8.6990004)">
            <path
               style="stroke:none"
               d="M 5.3125,-4.046875 C 5.328125,-4.09375 5.34375,-4.125 5.34375,-4.125 c 0,-0.015625 -0.015625,-0.09375 -0.09375,-0.09375 -0.046875,0 -0.0625,0.015625 -0.109375,0.078125 L 4.6875,-3.671875 C 4.359375,-4.078125 3.921875,-4.21875 3.5,-4.21875 c -1.53125,0 -2.984375,1.28125 -2.984375,2.625 0,1.03125 0.828125,1.71875 1.9375,1.71875 0.625,0 1.171875,-0.25 1.53125,-0.53125 0.59375,-0.46875 0.6875,-1 0.6875,-1.03125 0,-0.0625 -0.0625,-0.09375 -0.109375,-0.09375 -0.078125,0 -0.09375,0.03125 -0.109375,0.09375 -0.296875,0.921875 -1.234375,1.328125 -1.890625,1.328125 -0.453125,0 -1.421875,-0.1875 -1.421875,-1.328125 0,-0.234375 0.046875,-1.0625 0.703125,-1.78125 0.328125,-0.359375 0.96875,-0.75 1.703125,-0.75 0.78125,0 1.1875,0.546875 1.1875,1.171875 0,0.109375 -0.03125,0.21875 -0.03125,0.21875 0,0.09375 0.09375,0.09375 0.125,0.09375 0.078125,0 0.109375,0 0.140625,-0.125 z m 0,0"
               id="path22757" />
          </g>
        </g>
        <g
           style="fill:#000000;fill-opacity:1"
           id="g22767">
          <g
             id="g22765"
             transform="translate(12.357,8.6990004)">
            <path
               style="stroke:none"
               d="M 3.21875,-1.125 H 3 C 2.984375,-1.03125 2.921875,-0.640625 2.84375,-0.578125 2.796875,-0.53125 2.3125,-0.53125 2.21875,-0.53125 H 1.109375 L 1.875,-1.15625 C 2.078125,-1.328125 2.609375,-1.703125 2.796875,-1.890625 2.96875,-2.0625 3.21875,-2.375 3.21875,-2.796875 c 0,-0.75 -0.671875,-1.1875 -1.484375,-1.1875 -0.765625,0 -1.296875,0.515625 -1.296875,1.078125 0,0.296875 0.25,0.34375 0.3125,0.34375 0.15625,0 0.328125,-0.109375 0.328125,-0.328125 C 1.078125,-3.015625 1,-3.21875 0.734375,-3.21875 0.875,-3.515625 1.234375,-3.75 1.65625,-3.75 c 0.625,0 0.953125,0.46875 0.953125,0.953125 0,0.421875 -0.28125,0.859375 -0.6875,1.25 L 0.5,-0.25 C 0.4375,-0.1875 0.4375,-0.1875 0.4375,0 h 2.59375 z m 0,0"
               id="path22763" />
          </g>
        </g>
      </g>
    </g>
    <g
       inkscape:label=""
       transform="translate(247.7335,17.797211)"
       id="g23846">
      <g
         id="g23844"
         transform="matrix(0.352778,0,0,0.352778,-0.143316,0.00507125)">
        <g
           style="fill:#000000;fill-opacity:1"
           id="g23824">
          <g
             id="g23822"
             transform="translate(2.8599999,5.3449998)">
            <path
               style="stroke:none"
               d="m 1.609375,-4.90625 c 0,-0.265625 -0.203125,-0.453125 -0.4375,-0.453125 -0.234375,0 -0.4375,0.1875 -0.4375,0.453125 0,0.234375 0.1875,0.4375 0.4375,0.4375 0.25,0 0.4375,-0.203125 0.4375,-0.4375 z m 0,0"
               id="path23820" />
          </g>
        </g>
        <g
           style="fill:#000000;fill-opacity:1"
           id="g23830">
          <g
             id="g23828"
             transform="translate(0,7.3590002)">
            <path
               style="stroke:none"
               d="m 3.734375,-0.0625 c 1.25,-0.4375 2.484375,-1.796875 2.484375,-3.359375 0,-1.3125 -0.90625,-2.1875 -2.171875,-2.1875 -1.859375,0 -3.640625,1.84375 -3.640625,3.625 0,1.21875 0.859375,2.15625 2.203125,2.15625 0.21875,0 0.484375,-0.03125 0.796875,-0.109375 0,0.09375 -0.015625,0.390625 -0.015625,0.453125 0,0.328125 0,1.03125 0.734375,1.03125 C 5.0625,1.546875 5.5,0.140625 5.5,0 c 0,-0.0625 -0.046875,-0.109375 -0.109375,-0.109375 -0.078125,0 -0.09375,0.078125 -0.109375,0.09375 -0.171875,0.53125 -0.625,0.75 -0.96875,0.75 -0.265625,0 -0.46875,-0.09375 -0.578125,-0.796875 z M 2.09375,-0.1875 c -0.625,-0.25 -0.9375,-0.8125 -0.9375,-1.59375 0,-0.53125 0.1875,-1.578125 0.828125,-2.453125 0.515625,-0.6875 1.296875,-1.125 1.984375,-1.125 0.84375,0 1.515625,0.59375 1.515625,1.703125 0,0.421875 -0.15625,2.375 -1.796875,3.3125 -0.09375,-0.46875 -0.25,-0.859375 -0.765625,-0.859375 -0.453125,0 -0.859375,0.40625 -0.859375,0.8125 0,0.078125 0.015625,0.140625 0.03125,0.203125 z M 3.421875,-0.234375 C 3.25,-0.15625 2.96875,-0.078125 2.65625,-0.078125 c -0.09375,0 -0.375,0 -0.375,-0.3125 0,-0.28125 0.296875,-0.59375 0.640625,-0.59375 0.359375,0 0.484375,0.21875 0.5,0.75 z m 0,0"
               id="path23826" />
          </g>
        </g>
        <g
           style="fill:#000000;fill-opacity:1"
           id="g23836">
          <g
             id="g23834"
             transform="translate(6.6609998,8.6990004)">
            <path
               style="stroke:none"
               d="M 5.3125,-4.046875 C 5.328125,-4.09375 5.34375,-4.125 5.34375,-4.125 c 0,-0.015625 -0.015625,-0.09375 -0.09375,-0.09375 -0.046875,0 -0.0625,0.015625 -0.109375,0.078125 L 4.6875,-3.671875 C 4.359375,-4.078125 3.921875,-4.21875 3.5,-4.21875 c -1.53125,0 -2.984375,1.28125 -2.984375,2.625 0,1.03125 0.828125,1.71875 1.9375,1.71875 0.625,0 1.171875,-0.25 1.53125,-0.53125 0.59375,-0.46875 0.6875,-1 0.6875,-1.03125 0,-0.0625 -0.0625,-0.09375 -0.109375,-0.09375 -0.078125,0 -0.09375,0.03125 -0.109375,0.09375 -0.296875,0.921875 -1.234375,1.328125 -1.890625,1.328125 -0.453125,0 -1.421875,-0.1875 -1.421875,-1.328125 0,-0.234375 0.046875,-1.0625 0.703125,-1.78125 0.328125,-0.359375 0.96875,-0.75 1.703125,-0.75 0.78125,0 1.1875,0.546875 1.1875,1.171875 0,0.109375 -0.03125,0.21875 -0.03125,0.21875 0,0.09375 0.09375,0.09375 0.125,0.09375 0.078125,0 0.109375,0 0.140625,-0.125 z m 0,0"
               id="path23832" />
          </g>
        </g>
        <g
           style="fill:#000000;fill-opacity:1"
           id="g23842">
          <g
             id="g23840"
             transform="translate(12.357,8.6990004)">
            <path
               style="stroke:none"
               d="m 2.140625,-3.796875 c 0,-0.1875 -0.015625,-0.1875 -0.203125,-0.1875 -0.390625,0.390625 -1,0.390625 -1.21875,0.390625 v 0.234375 c 0.15625,0 0.5625,0 0.921875,-0.171875 v 3.015625 c 0,0.203125 0,0.28125 -0.625,0.28125 h -0.25 V 0 c 0.328125,-0.03125 0.796875,-0.03125 1.125,-0.03125 0.328125,0 0.796875,0 1.125,0.03125 v -0.234375 h -0.25 c -0.625,0 -0.625,-0.078125 -0.625,-0.28125 z m 0,0"
               id="path23838" />
          </g>
        </g>
      </g>
    </g>
    <g
       inkscape:label=""
       transform="translate(239.78644,23.904155)"
       id="g25461">
      <g
         id="g25459"
         transform="matrix(0.352778,0,0,0.352778,-0.170877,0.00507125)">
        <g
           style="fill:#000000;fill-opacity:1"
           id="g25445">
          <g
             id="g25443"
             transform="translate(3.4070001,5.3449998)">
            <path
               style="stroke:none"
               d="m 1.609375,-4.90625 c 0,-0.265625 -0.203125,-0.453125 -0.4375,-0.453125 -0.234375,0 -0.4375,0.1875 -0.4375,0.453125 0,0.234375 0.1875,0.4375 0.4375,0.4375 0.25,0 0.4375,-0.203125 0.4375,-0.4375 z m 0,0"
               id="path25441" />
          </g>
        </g>
        <g
           style="fill:#000000;fill-opacity:1"
           id="g25451">
          <g
             id="g25449"
             transform="translate(0,7.3590002)">
            <path
               style="stroke:none"
               d="M 7.78125,-4.484375 C 8.140625,-5.078125 8.421875,-5.15625 8.671875,-5.171875 8.75,-5.1875 8.84375,-5.203125 8.84375,-5.328125 c 0,-0.0625 -0.046875,-0.109375 -0.109375,-0.109375 -0.140625,0 -0.015625,0.015625 -0.640625,0.015625 -0.53125,0 -0.75,-0.015625 -0.796875,-0.015625 -0.125,0 -0.15625,0.078125 -0.15625,0.140625 0,0.109375 0.125,0.125 0.140625,0.125 0.21875,0 0.421875,0.078125 0.421875,0.28125 0,0.09375 -0.078125,0.234375 -0.109375,0.296875 L 5.375,-0.875 5,-4.84375 c 0,-0.015625 -0.015625,-0.0625 -0.015625,-0.09375 0,-0.109375 0.15625,-0.234375 0.546875,-0.234375 0.125,0 0.21875,0 0.21875,-0.15625 0,-0.0625 -0.046875,-0.109375 -0.125,-0.109375 -0.09375,0 -0.375,0.015625 -0.46875,0.015625 H 4.6875 c -0.71875,0 -0.796875,-0.015625 -0.859375,-0.015625 -0.03125,0 -0.15625,0 -0.15625,0.140625 0,0.125 0.09375,0.125 0.21875,0.125 0.328125,0 0.359375,0.0625 0.375,0.171875 0,0.015625 0.046875,0.46875 0.046875,0.5 0,0.015625 0,0.0625 -0.0625,0.15625 L 2.1875,-0.875 1.8125,-4.796875 c 0,-0.046875 -0.015625,-0.109375 -0.015625,-0.140625 0,-0.0625 0.0625,-0.234375 0.546875,-0.234375 0.09375,0 0.203125,0 0.203125,-0.15625 0,-0.0625 -0.046875,-0.109375 -0.125,-0.109375 -0.078125,0 -0.375,0.015625 -0.453125,0.015625 H 1.484375 C 0.75,-5.421875 0.71875,-5.4375 0.625,-5.4375 c -0.125,0 -0.140625,0.078125 -0.140625,0.140625 0,0.125 0.109375,0.125 0.1875,0.125 0.375,0 0.390625,0.046875 0.40625,0.25 L 1.53125,-0.0625 C 1.546875,0.09375 1.5625,0.171875 1.703125,0.171875 1.765625,0.171875 1.84375,0.140625 1.921875,0 L 4.34375,-4.078125 4.734375,-0.0625 C 4.75,0.09375 4.75,0.171875 4.890625,0.171875 5.015625,0.171875 5.0625,0.078125 5.109375,0 Z m 0,0"
               id="path25447" />
          </g>
        </g>
        <g
           style="fill:#000000;fill-opacity:1"
           id="g25457">
          <g
             id="g25455"
             transform="translate(7.9899998,8.4659996)">
            <path
               style="stroke:none"
               d="m 2.140625,-3.796875 c 0,-0.1875 -0.015625,-0.1875 -0.203125,-0.1875 -0.390625,0.390625 -1,0.390625 -1.21875,0.390625 v 0.234375 c 0.15625,0 0.5625,0 0.921875,-0.171875 v 3.015625 c 0,0.203125 0,0.28125 -0.625,0.28125 h -0.25 V 0 c 0.328125,-0.03125 0.796875,-0.03125 1.125,-0.03125 0.328125,0 0.796875,0 1.125,0.03125 v -0.234375 h -0.25 c -0.625,0 -0.625,-0.078125 -0.625,-0.28125 z m 0,0"
               id="path25453" />
          </g>
        </g>
      </g>
    </g>
    <g
       inkscape:label=""
       transform="translate(281.51619,23.904155)"
       id="g26577">
      <g
         id="g26575"
         transform="matrix(0.352778,0,0,0.352778,-0.170877,0.00507125)">
        <g
           style="fill:#000000;fill-opacity:1"
           id="g26561">
          <g
             id="g26559"
             transform="translate(3.4070001,5.3449998)">
            <path
               style="stroke:none"
               d="m 1.609375,-4.90625 c 0,-0.265625 -0.203125,-0.453125 -0.4375,-0.453125 -0.234375,0 -0.4375,0.1875 -0.4375,0.453125 0,0.234375 0.1875,0.4375 0.4375,0.4375 0.25,0 0.4375,-0.203125 0.4375,-0.4375 z m 0,0"
               id="path26557" />
          </g>
        </g>
        <g
           style="fill:#000000;fill-opacity:1"
           id="g26567">
          <g
             id="g26565"
             transform="translate(0,7.3590002)">
            <path
               style="stroke:none"
               d="M 7.78125,-4.484375 C 8.140625,-5.078125 8.421875,-5.15625 8.671875,-5.171875 8.75,-5.1875 8.84375,-5.203125 8.84375,-5.328125 c 0,-0.0625 -0.046875,-0.109375 -0.109375,-0.109375 -0.140625,0 -0.015625,0.015625 -0.640625,0.015625 -0.53125,0 -0.75,-0.015625 -0.796875,-0.015625 -0.125,0 -0.15625,0.078125 -0.15625,0.140625 0,0.109375 0.125,0.125 0.140625,0.125 0.21875,0 0.421875,0.078125 0.421875,0.28125 0,0.09375 -0.078125,0.234375 -0.109375,0.296875 L 5.375,-0.875 5,-4.84375 c 0,-0.015625 -0.015625,-0.0625 -0.015625,-0.09375 0,-0.109375 0.15625,-0.234375 0.546875,-0.234375 0.125,0 0.21875,0 0.21875,-0.15625 0,-0.0625 -0.046875,-0.109375 -0.125,-0.109375 -0.09375,0 -0.375,0.015625 -0.46875,0.015625 H 4.6875 c -0.71875,0 -0.796875,-0.015625 -0.859375,-0.015625 -0.03125,0 -0.15625,0 -0.15625,0.140625 0,0.125 0.09375,0.125 0.21875,0.125 0.328125,0 0.359375,0.0625 0.375,0.171875 0,0.015625 0.046875,0.46875 0.046875,0.5 0,0.015625 0,0.0625 -0.0625,0.15625 L 2.1875,-0.875 1.8125,-4.796875 c 0,-0.046875 -0.015625,-0.109375 -0.015625,-0.140625 0,-0.0625 0.0625,-0.234375 0.546875,-0.234375 0.09375,0 0.203125,0 0.203125,-0.15625 0,-0.0625 -0.046875,-0.109375 -0.125,-0.109375 -0.078125,0 -0.375,0.015625 -0.453125,0.015625 H 1.484375 C 0.75,-5.421875 0.71875,-5.4375 0.625,-5.4375 c -0.125,0 -0.140625,0.078125 -0.140625,0.140625 0,0.125 0.109375,0.125 0.1875,0.125 0.375,0 0.390625,0.046875 0.40625,0.25 L 1.53125,-0.0625 C 1.546875,0.09375 1.5625,0.171875 1.703125,0.171875 1.765625,0.171875 1.84375,0.140625 1.921875,0 L 4.34375,-4.078125 4.734375,-0.0625 C 4.75,0.09375 4.75,0.171875 4.890625,0.171875 5.015625,0.171875 5.0625,0.078125 5.109375,0 Z m 0,0"
               id="path26563" />
          </g>
        </g>
        <g
           style="fill:#000000;fill-opacity:1"
           id="g26573">
          <g
             id="g26571"
             transform="translate(7.9899998,8.4659996)">
            <path
               style="stroke:none"
               d="M 3.21875,-1.125 H 3 C 2.984375,-1.03125 2.921875,-0.640625 2.84375,-0.578125 2.796875,-0.53125 2.3125,-0.53125 2.21875,-0.53125 H 1.109375 L 1.875,-1.15625 C 2.078125,-1.328125 2.609375,-1.703125 2.796875,-1.890625 2.96875,-2.0625 3.21875,-2.375 3.21875,-2.796875 c 0,-0.75 -0.671875,-1.1875 -1.484375,-1.1875 -0.765625,0 -1.296875,0.515625 -1.296875,1.078125 0,0.296875 0.25,0.34375 0.3125,0.34375 0.15625,0 0.328125,-0.109375 0.328125,-0.328125 C 1.078125,-3.015625 1,-3.21875 0.734375,-3.21875 0.875,-3.515625 1.234375,-3.75 1.65625,-3.75 c 0.625,0 0.953125,0.46875 0.953125,0.953125 0,0.421875 -0.28125,0.859375 -0.6875,1.25 L 0.5,-0.25 C 0.4375,-0.1875 0.4375,-0.1875 0.4375,0 h 2.59375 z m 0,0"
               id="path26569" />
          </g>
        </g>
      </g>
    </g>
  </g>
</svg>
