<?xml version="1.0" encoding="UTF-8" standalone="no"?>
<!-- Created with Inkscape (http://www.inkscape.org/) -->

<svg
   inkscape:version="1.2 (dc2aedaf03, 2022-05-15)"
   sodipodi:docname="base.svg"
   id="svg5"
   version="1.1"
   viewBox="0 0 69.311005 45.985121"
   height="173.80203"
   width="261.96286"
   xmlns:inkscape="http://www.inkscape.org/namespaces/inkscape"
   xmlns:sodipodi="http://sodipodi.sourceforge.net/DTD/sodipodi-0.dtd"
   xmlns="http://www.w3.org/2000/svg"
   xmlns:svg="http://www.w3.org/2000/svg">
  <sodipodi:namedview
     id="namedview7"
     pagecolor="#ffffff"
     bordercolor="#666666"
     borderopacity="1.0"
     inkscape:showpageshadow="false"
     inkscape:pageopacity="0.0"
     inkscape:pagecheckerboard="false"
     inkscape:deskcolor="#d1d1d1"
     inkscape:document-units="px"
     showgrid="false"
     showborder="false"
     borderlayer="false"
     shape-rendering="auto"
     inkscape:zoom="2.0000001"
     inkscape:cx="473.49999"
     inkscape:cy="541.74999"
     inkscape:window-width="1920"
     inkscape:window-height="1050"
     inkscape:window-x="0"
     inkscape:window-y="18"
     inkscape:window-maximized="0"
     inkscape:current-layer="layer1"
     showguides="true"
     inkscape:lockguides="false">
    <inkscape:grid
       type="xygrid"
       id="grid9"
       spacingx="1.0583333"
       spacingy="1.0583333"
       empspacing="4"
       dotted="false"
       snapvisiblegridlinesonly="false"
       originx="0"
       originy="0" />
    <sodipodi:guide
       position="-176.33331,152.53227"
       orientation="0,1920"
       id="guide280"
       inkscape:locked="false" />
    <sodipodi:guide
       position="331.66668,152.53227"
       orientation="1080,0"
       id="guide282"
       inkscape:locked="false" />
    <sodipodi:guide
       position="331.66668,-133.21773"
       orientation="0,-1920"
       id="guide284"
       inkscape:locked="false" />
    <sodipodi:guide
       position="-176.33331,-133.21773"
       orientation="-1080,0"
       id="guide286"
       inkscape:locked="false" />
    <sodipodi:guide
       position="-176.33331,152.53227"
       orientation="0,1920"
       id="guide288"
       inkscape:locked="false" />
    <sodipodi:guide
       position="331.66668,152.53227"
       orientation="1080,0"
       id="guide290"
       inkscape:locked="false" />
    <sodipodi:guide
       position="331.66668,-133.21773"
       orientation="0,-1920"
       id="guide292"
       inkscape:locked="false" />
    <sodipodi:guide
       position="-176.33331,-133.21773"
       orientation="-1080,0"
       id="guide294"
       inkscape:locked="false" />
    <sodipodi:guide
       position="-176.33331,152.53227"
       orientation="0,1920"
       id="guide296"
       inkscape:locked="false" />
    <sodipodi:guide
       position="331.66668,152.53227"
       orientation="1080,0"
       id="guide298"
       inkscape:locked="false" />
    <sodipodi:guide
       position="331.66668,-133.21773"
       orientation="0,-1920"
       id="guide300"
       inkscape:locked="false" />
    <sodipodi:guide
       position="-176.33331,-133.21773"
       orientation="-1080,0"
       id="guide302"
       inkscape:locked="false" />
    <sodipodi:guide
       position="-176.33331,152.53227"
       orientation="0,1920"
       id="guide304"
       inkscape:locked="false" />
    <sodipodi:guide
       position="331.66668,152.53227"
       orientation="1080,0"
       id="guide306"
       inkscape:locked="false" />
    <sodipodi:guide
       position="331.66668,-133.21773"
       orientation="0,-1920"
       id="guide308"
       inkscape:locked="false" />
    <sodipodi:guide
       position="-176.33331,-133.21773"
       orientation="-1080,0"
       id="guide310"
       inkscape:locked="false" />
    <sodipodi:guide
       position="-176.33331,152.53227"
       orientation="0,1920"
       id="guide157"
       inkscape:locked="false" />
    <sodipodi:guide
       position="331.66668,152.53227"
       orientation="1080,0"
       id="guide159"
       inkscape:locked="false" />
    <sodipodi:guide
       position="331.66668,-133.21773"
       orientation="0,-1920"
       id="guide161"
       inkscape:locked="false" />
    <sodipodi:guide
       position="-176.33331,-133.21773"
       orientation="-1080,0"
       id="guide163"
       inkscape:locked="false" />
    <sodipodi:guide
       position="331.66668,152.53227"
       orientation="1080,0"
       id="guide167"
       inkscape:locked="false" />
    <sodipodi:guide
       position="331.66668,-133.21773"
       orientation="0,-1920"
       id="guide169"
       inkscape:locked="false" />
    <sodipodi:guide
       position="-91.66665,152.53227"
       orientation="1,0"
       id="guide3109"
       inkscape:locked="false" />
    <sodipodi:guide
       position="-176.33331,101.73227"
       orientation="0,-1"
       id="guide7523"
       inkscape:locked="false" />
    <sodipodi:guide
       position="-6.9999847,50.932272"
       orientation="1,0"
       id="guide12549"
       inkscape:locked="false" />
    <sodipodi:guide
       position="77.666675,49.873942"
       orientation="1,0"
       id="guide21711"
       inkscape:locked="false" />
    <sodipodi:guide
       position="162.33333,152.53227"
       orientation="1,0"
       id="guide32627"
       inkscape:locked="false" />
    <sodipodi:guide
       position="247,50.932272"
       orientation="1,0"
       id="guide49129"
       inkscape:locked="false" />
    <sodipodi:guide
       position="-176.33331,50.932272"
       orientation="0,-1"
       id="guide103157"
       inkscape:locked="false" />
    <sodipodi:guide
       position="-176.33331,-8.3343879"
       orientation="0,-1"
       id="guide200474"
       inkscape:locked="false" />
    <sodipodi:guide
       position="-176.33331,-67.601057"
       orientation="0,-1"
       id="guide418319"
       inkscape:locked="false" />
    <sodipodi:guide
       position="247,-126.86773"
       orientation="0,-1"
       id="guide88349"
       inkscape:locked="false" />
  </sodipodi:namedview>
  <defs
     id="defs2">
    <marker
       style="overflow:visible"
       id="marker248152"
       refX="5"
       refY="0"
       orient="auto-start-reverse"
       inkscape:stockid="TriangleStart"
       markerWidth="4"
       markerHeight="4"
       viewBox="0 0 5.3244081 6.1553851"
       inkscape:isstock="true"
       inkscape:collect="always"
       preserveAspectRatio="xMidYMid">
      <path
         transform="scale(0.5)"
         style="fill:context-stroke;fill-rule:evenodd;stroke:context-stroke;stroke-width:1pt"
         d="M 5.77,0 -2.88,5 V -5 Z"
         id="path248150" />
    </marker>
  </defs>
  <g
     inkscape:label="Capa 1"
     inkscape:groupmode="layer"
     id="layer1"
     transform="translate(-176.33331,-106.54715)">
    <rect
       style="fill:#ffffff;fill-opacity:1;stroke:#000000;stroke-width:0.105833;stroke-linecap:round;stroke-linejoin:round;stroke-dasharray:none;stroke-dashoffset:0;stroke-opacity:1;paint-order:stroke markers fill"
       id="rect276605"
       width="63.5"
       height="42.333332"
       x="182.01201"
       y="110.06667"
       inkscape:export-filename="g03.svg"
       inkscape:export-xdpi="96"
       inkscape:export-ydpi="96" />
    <path
       style="fill:none;stroke:#b3b3b3;stroke-width:0.15875;stroke-linecap:round;stroke-linejoin:round;stroke-miterlimit:4;stroke-dasharray:0.15875, 0.47625;stroke-dashoffset:0;stroke-opacity:1"
       d="m 183.34228,148.95351 3.51604,-13.48685 28.01359,0.002 18.18312,-24.8556"
       id="path276609"
       sodipodi:nodetypes="cccc" />
    <path
       style="fill:none;stroke:#999999;stroke-width:0.15875;stroke-linecap:round;stroke-linejoin:round;stroke-miterlimit:4;stroke-dasharray:0.15875, 0.47625;stroke-dashoffset:0;stroke-opacity:1;paint-order:stroke markers fill"
       d="m 182.01203,135.46666 h 63.49999"
       id="path276611"
       sodipodi:nodetypes="cc" />
    <path
       style="fill:none;stroke:#000000;stroke-width:0.264583;stroke-linecap:round;stroke-linejoin:round;stroke-miterlimit:4;stroke-dasharray:none;stroke-opacity:1"
       d="m 182.01203,110.06666 v 42.33333 h 63.49999"
       id="path276613"
       sodipodi:nodetypes="ccc" />
    <g
       inkscape:label=""
       transform="translate(179.13193,106.54715)"
       id="g276645">
      <g
         id="g276643"
         transform="matrix(0.352778,0,0,0.352778,-0.071658,-0.0029105)">
        <g
           style="fill:#000000;fill-opacity:1"
           id="g276619">
          <g
             id="g276617"
             transform="translate(0,5.9770002)">
            <path
               style="stroke:none"
               d="M 3.609375,-4.828125 C 3.671875,-5.109375 3.6875,-5.125 4.015625,-5.125 h 0.59375 c 0.828125,0 0.921875,0.265625 0.921875,0.65625 0,0.203125 -0.046875,0.546875 -0.046875,0.59375 -0.015625,0.078125 -0.03125,0.15625 -0.03125,0.171875 0,0.09375 0.078125,0.125 0.125,0.125 0.09375,0 0.125,-0.046875 0.140625,-0.203125 l 0.21875,-1.5 c 0,-0.109375 -0.09375,-0.109375 -0.234375,-0.109375 H 1 c -0.1875,0 -0.21875,0 -0.265625,0.171875 L 0.25,-3.84375 c -0.015625,0.046875 -0.046875,0.109375 -0.046875,0.15625 0,0.0625 0.0625,0.109375 0.125,0.109375 0.09375,0 0.109375,-0.046875 0.15625,-0.171875 C 0.9375,-5.03125 1.15625,-5.125 2.375,-5.125 h 0.3125 c 0.234375,0 0.25,0.015625 0.25,0.078125 0,0.015625 -0.03125,0.171875 -0.046875,0.203125 l -1.046875,4.1875 c -0.078125,0.3125 -0.09375,0.390625 -0.921875,0.390625 -0.265625,0 -0.34375,0 -0.34375,0.15625 0,0 0,0.109375 0.140625,0.109375 0.21875,0 0.765625,-0.03125 0.984375,-0.03125 H 2.375 c 0.21875,0 0.78125,0.03125 1,0.03125 0.0625,0 0.1875,0 0.1875,-0.15625 0,-0.109375 -0.09375,-0.109375 -0.296875,-0.109375 -0.203125,0 -0.265625,0 -0.46875,-0.015625 -0.25,-0.015625 -0.28125,-0.046875 -0.28125,-0.15625 0,-0.03125 0,-0.0625 0.03125,-0.140625 z m 0,0"
               id="path276615" />
          </g>
        </g>
        <g
           style="fill:#000000;fill-opacity:1"
           id="g276625">
          <g
             id="g276623"
             transform="translate(6.1059999,5.9770002)">
            <path
               style="stroke:none"
               d="M 2.15625,1.984375 V 1.625 H 1.359375 V -5.609375 H 2.15625 V -5.96875 H 0.984375 v 7.953125 z m 0,0"
               id="path276621" />
          </g>
        </g>
        <g
           style="fill:#000000;fill-opacity:1"
           id="g276631">
          <g
             id="g276629"
             transform="translate(8.4589996,3.165)">
            <path
               style="stroke:none"
               d="m 3.265625,-1.5 c 0,-0.75 -0.609375,-1.359375 -1.359375,-1.359375 -0.734375,0 -1.34375,0.609375 -1.34375,1.359375 0,0.765625 0.609375,1.359375 1.34375,1.359375 0.75,0 1.359375,-0.59375 1.359375,-1.359375 z M 1.90625,-0.453125 C 1.328125,-0.453125 0.875,-0.90625 0.875,-1.5 c 0,-0.578125 0.453125,-1.046875 1.03125,-1.046875 0.578125,0 1.046875,0.46875 1.046875,1.046875 0,0.59375 -0.46875,1.046875 -1.046875,1.046875 z m 0,0"
               id="path276627" />
          </g>
        </g>
        <g
           style="fill:#000000;fill-opacity:1"
           id="g276641">
          <g
             id="g276635"
             transform="translate(12.776,5.9770002)">
            <path
               style="stroke:none"
               d="m 5.640625,-5.40625 c 0,-0.125 0,-0.203125 -0.109375,-0.203125 -0.0625,0 -0.0625,0 -0.140625,0.109375 l -0.40625,0.59375 c -0.28125,-0.3125 -0.8125,-0.703125 -1.578125,-0.703125 -1.59375,0 -2.9375,1.28125 -2.9375,2.890625 0,1.609375 1.328125,2.890625 2.953125,2.890625 1.328125,0 2.21875,-1.0625 2.21875,-2.03125 0,-0.078125 0,-0.15625 -0.140625,-0.15625 -0.078125,0 -0.109375,0.046875 -0.109375,0.125 -0.0625,1.21875 -1.0625,1.796875 -1.90625,1.796875 -0.671875,0 -2.1875,-0.421875 -2.1875,-2.625 0,-2.15625 1.4375,-2.625 2.1875,-2.625 0.75,0 1.671875,0.53125 1.890625,1.90625 0,0.0625 0.015625,0.109375 0.125,0.109375 0.140625,0 0.140625,-0.046875 0.140625,-0.203125 z m 0,0"
               id="path276633" />
          </g>
          <g
             id="g276639"
             transform="translate(18.892256,5.9770002)">
            <path
               style="stroke:none"
               d="M 1.359375,-5.96875 H 0.1875 v 0.359375 H 0.984375 V 1.625 H 0.1875 v 0.359375 h 1.171875 z m 0,0"
               id="path276637" />
          </g>
        </g>
      </g>
    </g>
    <path
       style="fill:none;stroke:#ff6600;stroke-width:0.264583;stroke-linecap:butt;stroke-linejoin:miter;stroke-miterlimit:4;stroke-dasharray:none;stroke-opacity:1"
       d="m 186.24535,148.16666 c 0.28754,-9.05745 0.32257,-27.55654 7.40833,-25.4 7.54787,2.15654 32.71409,22.96619 47.625,25.4"
       id="path276647"
       sodipodi:nodetypes="ccc" />
    <path
       style="fill:none;fill-opacity:1;stroke:#0000ff;stroke-width:0.396875;stroke-linecap:round;stroke-linejoin:round;stroke-dasharray:none;stroke-dashoffset:0;stroke-opacity:1;marker-end:url(#marker248152);paint-order:stroke markers fill"
       d="m 194.73333,135.46666 h 20.14005"
       id="path276747"
       sodipodi:nodetypes="cc" />
    <circle
       style="fill:#ffffff;fill-opacity:1;stroke:#0000ff;stroke-width:0.529167;stroke-linecap:round;stroke-linejoin:round;stroke-dasharray:none;stroke-dashoffset:0;stroke-opacity:1;paint-order:stroke markers fill"
       id="circle276749"
       cx="214.87338"
       cy="135.46666"
       r="0.46229276" />
    <circle
       style="fill:#ffffff;fill-opacity:1;stroke:#0000ff;stroke-width:0.529167;stroke-linecap:round;stroke-linejoin:round;stroke-dasharray:none;stroke-dashoffset:0;stroke-opacity:1;paint-order:stroke markers fill"
       id="circle276751"
       cx="194.73332"
       cy="135.46666"
       r="0.46229276" />
    <g
       inkscape:label=""
       transform="rotate(-53.411143,236.53529,-148.82708)"
       id="g289035">
      <g
         id="g289033"
         transform="matrix(0.352778,0,0,0.352778,-0.15434,-0.00396876)">
        <g
           style="fill:#000000;fill-opacity:1"
           id="g289011">
          <g
             id="use39"
             transform="translate(0,5.23)">
            <path
               style="stroke:none"
               d="M 3.515625,-1.265625 H 3.28125 c -0.015625,0.15625 -0.09375,0.5625 -0.1875,0.625 C 3.046875,-0.59375 2.515625,-0.59375 2.40625,-0.59375 H 1.125 c 0.734375,-0.640625 0.984375,-0.84375 1.390625,-1.171875 0.515625,-0.40625 1,-0.84375 1,-1.5 0,-0.84375 -0.734375,-1.359375 -1.625,-1.359375 -0.859375,0 -1.453125,0.609375 -1.453125,1.25 0,0.34375 0.296875,0.390625 0.375,0.390625 0.15625,0 0.359375,-0.125 0.359375,-0.375 0,-0.125 -0.046875,-0.375 -0.40625,-0.375 C 0.984375,-4.21875 1.453125,-4.375 1.78125,-4.375 c 0.703125,0 1.0625,0.546875 1.0625,1.109375 0,0.609375 -0.4375,1.078125 -0.65625,1.328125 L 0.515625,-0.265625 C 0.4375,-0.203125 0.4375,-0.1875 0.4375,0 h 2.875 z m 0,0"
               id="path74" />
          </g>
          <g
             id="g289007"
             transform="translate(3.9715791,5.23)">
            <path
               style="stroke:none"
               d="m 2.328125,-4.4375 c 0,-0.1875 0,-0.1875 -0.203125,-0.1875 -0.453125,0.4375 -1.078125,0.4375 -1.359375,0.4375 v 0.25 c 0.15625,0 0.625,0 1,-0.1875 v 3.546875 c 0,0.234375 0,0.328125 -0.6875,0.328125 H 0.8125 V 0 c 0.125,0 0.984375,-0.03125 1.234375,-0.03125 0.21875,0 1.09375,0.03125 1.25,0.03125 V -0.25 H 3.03125 c -0.703125,0 -0.703125,-0.09375 -0.703125,-0.328125 z m 0,0"
               id="path78" />
          </g>
          <g
             id="use43"
             transform="translate(7.9431581,5.23)">
            <path
               style="stroke:none"
               d="m 2.90625,-2.078125 c 0,1.734375 -0.84375,2 -1.265625,2 -0.15625,0 -0.53125,-0.015625 -0.71875,-0.234375 0.296875,-0.03125 0.3125,-0.265625 0.3125,-0.328125 0,-0.171875 -0.125,-0.328125 -0.328125,-0.328125 -0.203125,0 -0.328125,0.140625 -0.328125,0.34375 0,0.46875 0.390625,0.765625 1.0625,0.765625 1,0 1.9375,-0.9375 1.9375,-2.4375 C 3.578125,-4.015625 2.8125,-4.625 2,-4.625 c -0.234375,0 -0.703125,0.03125 -1.109375,0.421875 -0.234375,0.234375 -0.515625,0.5 -0.515625,1.125 0,0.890625 0.703125,1.546875 1.515625,1.546875 0.5625,0 0.859375,-0.375 1.015625,-0.6875 z m -0.96875,0.34375 c -0.28125,0 -0.53125,-0.078125 -0.734375,-0.40625 -0.15625,-0.25 -0.15625,-0.546875 -0.15625,-0.9375 0,-0.40625 0,-0.671875 0.203125,-0.953125 0.171875,-0.25 0.390625,-0.390625 0.75,-0.390625 0.359375,0 0.578125,0.21875 0.6875,0.40625 0.1875,0.28125 0.203125,0.78125 0.203125,1.015625 0,0.90625 -0.515625,1.265625 -0.953125,1.265625 z m 0,0"
               id="path82" />
          </g>
        </g>
        <g
           style="fill:#000000;fill-opacity:1"
           id="g49">
          <g
             id="g289014"
             transform="translate(11.914,5.23)">
            <path
               style="stroke:none"
               d="m 1.578125,-0.390625 c 0,-0.25 -0.203125,-0.40625 -0.390625,-0.40625 -0.234375,0 -0.40625,0.1875 -0.40625,0.390625 0,0.25 0.203125,0.40625 0.390625,0.40625 0.234375,0 0.40625,-0.1875 0.40625,-0.390625 z m 0,0"
               id="path86" />
          </g>
        </g>
        <g
           style="fill:#000000;fill-opacity:1"
           id="g61">
          <g
             id="use51"
             transform="translate(14.28,5.23)">
            <path
               style="stroke:none"
               d="m 2.328125,-4.4375 c 0,-0.1875 0,-0.1875 -0.203125,-0.1875 -0.453125,0.4375 -1.078125,0.4375 -1.359375,0.4375 v 0.25 c 0.15625,0 0.625,0 1,-0.1875 v 3.546875 c 0,0.234375 0,0.328125 -0.6875,0.328125 H 0.8125 V 0 c 0.125,0 0.984375,-0.03125 1.234375,-0.03125 0.21875,0 1.09375,0.03125 1.25,0.03125 V -0.25 H 3.03125 c -0.703125,0 -0.703125,-0.09375 -0.703125,-0.328125 z m 0,0"
               id="path90" />
          </g>
          <g
             id="use53"
             transform="translate(18.251579,5.23)">
            <path
               style="stroke:none"
               d="M 3.515625,-1.265625 H 3.28125 c -0.015625,0.15625 -0.09375,0.5625 -0.1875,0.625 C 3.046875,-0.59375 2.515625,-0.59375 2.40625,-0.59375 H 1.125 c 0.734375,-0.640625 0.984375,-0.84375 1.390625,-1.171875 0.515625,-0.40625 1,-0.84375 1,-1.5 0,-0.84375 -0.734375,-1.359375 -1.625,-1.359375 -0.859375,0 -1.453125,0.609375 -1.453125,1.25 0,0.34375 0.296875,0.390625 0.375,0.390625 0.15625,0 0.359375,-0.125 0.359375,-0.375 0,-0.125 -0.046875,-0.375 -0.40625,-0.375 C 0.984375,-4.21875 1.453125,-4.375 1.78125,-4.375 c 0.703125,0 1.0625,0.546875 1.0625,1.109375 0,0.609375 -0.4375,1.078125 -0.65625,1.328125 L 0.515625,-0.265625 C 0.4375,-0.203125 0.4375,-0.1875 0.4375,0 h 2.875 z m 0,0"
               id="path94" />
          </g>
          <g
             id="use55"
             transform="translate(22.223158,5.23)">
            <path
               style="stroke:none"
               d="M 2.015625,1.734375 V 1.40625 h -0.71875 v -6.296875 h 0.71875 V -5.21875 h -1.0625 v 6.953125 z m 0,0"
               id="path98" />
          </g>
          <g
             id="use57"
             transform="translate(24.478485,5.23)">
            <path
               style="stroke:none"
               d="M 2.25,-1.890625 C 3.109375,-2.546875 3.34375,-2.734375 3.8125,-2.75 V -3 C 3.671875,-2.984375 3.484375,-2.96875 3.34375,-2.96875 3.0625,-2.96875 2.78125,-2.984375 2.515625,-3 v 0.25 c 0.078125,0.015625 0.125,0.0625 0.125,0.125 0,0.109375 -0.140625,0.234375 -0.21875,0.296875 l -1.03125,0.796875 v -3.3125 L 0.34375,-4.765625 v 0.25 c 0.46875,0 0.515625,0.0625 0.515625,0.390625 v 3.578125 C 0.859375,-0.25 0.796875,-0.25 0.34375,-0.25 V 0 c 0.25,-0.015625 0.515625,-0.03125 0.765625,-0.03125 C 1.375,-0.03125 1.625,-0.015625 1.890625,0 v -0.25 c -0.453125,0 -0.53125,0 -0.53125,-0.296875 V -1.21875 L 1.875,-1.609375 2.625,-0.65625 c 0.078125,0.078125 0.15625,0.1875 0.15625,0.28125 0,0.109375 -0.125,0.125 -0.1875,0.125 V 0 C 2.6875,0 3.171875,-0.03125 3.375,-0.03125 c 0.203125,0 0.40625,0.015625 0.609375,0.03125 v -0.25 c -0.25,0 -0.40625,-0.015625 -0.609375,-0.265625 z m 0,0"
               id="path102" />
          </g>
          <g
             id="use59"
             transform="translate(28.66416,5.23)">
            <path
               style="stroke:none"
               d="m 1.78125,-2.15625 h 1.265625 c 1.015625,0 1.8125,-0.59375 1.8125,-1.296875 0,-0.6875 -0.78125,-1.3125 -1.8125,-1.3125 H 0.40625 v 0.25 h 0.171875 c 0.53125,0 0.546875,0.078125 0.546875,0.328125 v 3.625 c 0,0.234375 -0.015625,0.3125 -0.546875,0.3125 H 0.40625 V 0 C 0.75,-0.015625 1.203125,-0.03125 1.453125,-0.03125 1.703125,-0.03125 2.15625,-0.015625 2.5,0 V -0.25 H 2.328125 C 1.796875,-0.25 1.78125,-0.328125 1.78125,-0.5625 Z M 2.875,-4.515625 c 1.171875,0 1.234375,0.65625 1.234375,1.0625 0,0.3125 0,1.0625 -1.234375,1.0625 H 1.75 v -1.84375 c 0,-0.21875 0.015625,-0.28125 0.34375,-0.28125 z m 0,0"
               id="path106" />
          </g>
        </g>
        <g
           style="fill:#000000;fill-opacity:1"
           id="g67">
          <g
             id="use63"
             transform="translate(33.803154,5.23)">
            <path
               style="stroke:none"
               d="m 3.109375,-1.875 c 0,-0.359375 0,-0.625 -0.328125,-0.890625 C 2.5,-3 2.171875,-3.109375 1.75,-3.109375 c -0.65625,0 -1.125,0.25 -1.125,0.671875 0,0.234375 0.15625,0.34375 0.34375,0.34375 0.1875,0 0.328125,-0.140625 0.328125,-0.328125 0,-0.109375 -0.0625,-0.265625 -0.25,-0.3125 0.25,-0.171875 0.65625,-0.171875 0.6875,-0.171875 0.390625,0 0.828125,0.25 0.828125,0.84375 v 0.203125 C 2.171875,-1.84375 1.71875,-1.8125 1.203125,-1.625 c -0.625,0.21875 -0.8125,0.609375 -0.8125,0.921875 0,0.59375 0.71875,0.765625 1.21875,0.765625 0.546875,0 0.875,-0.3125 1.03125,-0.578125 0.015625,0.28125 0.203125,0.546875 0.53125,0.546875 0.015625,0 0.6875,0 0.6875,-0.65625 V -1.015625 H 3.625 v 0.375 c 0,0.078125 0,0.40625 -0.265625,0.40625 -0.25,0 -0.25,-0.328125 -0.25,-0.40625 z M 2.5625,-0.984375 c 0,0.671875 -0.59375,0.859375 -0.90625,0.859375 -0.359375,0 -0.6875,-0.234375 -0.6875,-0.578125 0,-0.390625 0.328125,-0.921875 1.59375,-0.96875 z m 0,0"
               id="path110" />
          </g>
          <g
             id="use65"
             transform="translate(37.774731,5.23)">
            <path
               style="stroke:none"
               d="M 1.296875,-5.21875 H 0.21875 v 0.328125 H 0.953125 V 1.40625 H 0.21875 v 0.328125 h 1.078125 z m 0,0"
               id="path114" />
          </g>
        </g>
      </g>
    </g>
    <g
       inkscape:label=""
       transform="translate(176.3333,134.62606)"
       id="g291646">
      <g
         id="g291644"
         transform="matrix(0.352778,0,0,0.352778,-0.264583,0.0462139)">
        <g
           style="fill:#000000;fill-opacity:1"
           id="g23">
          <g
             id="g291634"
             transform="translate(0,4.494)">
            <path
               style="stroke:none"
               d="m 5.1875,-1.578125 c 0.109375,0 0.28125,0 0.28125,-0.15625 0,-0.1875 -0.171875,-0.1875 -0.28125,-0.1875 H 1.03125 c -0.109375,0 -0.28125,0 -0.28125,0.171875 0,0.171875 0.15625,0.171875 0.28125,0.171875 z m 0,0"
               id="path291632" />
          </g>
        </g>
        <g
           style="fill:#000000;fill-opacity:1"
           id="g29">
          <g
             id="g291638"
             transform="translate(6.2270002,4.494)">
            <path
               style="stroke:none"
               d="m 2.328125,-4.4375 c 0,-0.1875 0,-0.1875 -0.203125,-0.1875 -0.453125,0.4375 -1.078125,0.4375 -1.359375,0.4375 v 0.25 c 0.15625,0 0.625,0 1,-0.1875 v 3.546875 c 0,0.234375 0,0.328125 -0.6875,0.328125 H 0.8125 V 0 c 0.125,0 0.984375,-0.03125 1.234375,-0.03125 0.21875,0 1.09375,0.03125 1.25,0.03125 V -0.25 H 3.03125 c -0.703125,0 -0.703125,-0.09375 -0.703125,-0.328125 z m 0,0"
               id="path40" />
          </g>
          <g
             id="g291641"
             transform="translate(10.198579,4.494)">
            <path
               style="stroke:none"
               d="M 3.59375,-2.21875 C 3.59375,-2.984375 3.5,-3.546875 3.1875,-4.03125 2.96875,-4.34375 2.53125,-4.625 1.984375,-4.625 c -1.625,0 -1.625,1.90625 -1.625,2.40625 0,0.5 0,2.359375 1.625,2.359375 1.609375,0 1.609375,-1.859375 1.609375,-2.359375 z M 1.984375,-0.0625 c -0.328125,0 -0.75,-0.1875 -0.890625,-0.75 C 1,-1.21875 1,-1.796875 1,-2.3125 1,-2.828125 1,-3.359375 1.09375,-3.734375 1.25,-4.28125 1.6875,-4.4375 1.984375,-4.4375 c 0.375,0 0.734375,0.234375 0.859375,0.640625 0.109375,0.375 0.125,0.875 0.125,1.484375 0,0.515625 0,1.03125 -0.09375,1.46875 -0.140625,0.640625 -0.609375,0.78125 -0.890625,0.78125 z m 0,0"
               id="path44" />
          </g>
        </g>
      </g>
    </g>
    <g
       id="g26963-1-3"
       transform="translate(57.412189,74.287322)">
      <path
         id="path21611-8-7"
         style="fill:#ffffff;fill-opacity:1;stroke:#008000;stroke-width:0.123026;stroke-linecap:round;stroke-linejoin:round;stroke-dasharray:none;stroke-dashoffset:0;stroke-opacity:1;paint-order:stroke markers fill"
         d="m 159.71285,61.967727 c -0.87675,0 -1.5875,0.710748 -1.5875,1.5875 0,0.876752 0.71075,1.5875 1.5875,1.5875 0.87675,0 1.5875,-0.710748 1.5875,-1.5875 0,-0.876752 -0.71075,-1.5875 -1.5875,-1.5875 z"
         sodipodi:nodetypes="sssss" />
      <path
         id="circle234399-7-5"
         style="fill:#00ff00;fill-opacity:1;stroke:none;stroke-width:0.123026;stroke-linecap:round;stroke-linejoin:round;stroke-dasharray:none;stroke-dashoffset:0;stroke-opacity:1;paint-order:stroke markers fill"
         d="m 159.71285,61.967727 a 1.5875,1.5875 0 0 0 -1.5875,1.5875 1.5875,1.5875 0 0 0 1.5875,1.5875 1.5875,1.5875 0 0 0 1.5875,-1.5875 1.5875,1.5875 0 0 0 -1.5875,-1.5875 z m 0.0687,0.70952 h 0.37001 v 1.08365 c 0.11006,0 0.17208,0.05077 0.17208,0.14108 0,0.09031 -0.0592,0.13877 -0.17208,0.14159 v 0.10697 c 0.11006,0 0.17208,0.05077 0.17208,0.14108 0,0.11289 -0.0875,0.14107 -0.18914,0.14107 h -0.37258 c -0.15805,0 -0.18604,-0.08181 -0.18604,-0.14107 0,-0.11571 0.0816,-0.14108 0.18604,-0.14108 h 0.10748 v -0.10697 h -0.76791 v -0.23461 z m 0.0879,0.401 -0.42323,0.68265 h 0.42323 z" />
    </g>
    <g
       id="g26955-9-9"
       transform="translate(39.325693,74.287322)">
      <path
         id="path21607-2-2"
         style="fill:#ffffff;fill-opacity:1;stroke:#008000;stroke-width:0.123026;stroke-linecap:round;stroke-linejoin:round;stroke-dasharray:none;stroke-dashoffset:0;stroke-opacity:1;paint-order:stroke markers fill"
         d="m 153.03174,61.967727 c -0.87675,0 -1.5875,0.710748 -1.5875,1.5875 0,0.876752 0.71075,1.5875 1.5875,1.5875 0.87675,0 1.5875,-0.710748 1.5875,-1.5875 0,-0.876752 -0.71075,-1.5875 -1.5875,-1.5875 z"
         sodipodi:nodetypes="sssss" />
      <path
         id="circle234395-02-2"
         style="fill:#00ff00;fill-opacity:1;stroke:none;stroke-width:0.123026;stroke-linecap:round;stroke-linejoin:round;stroke-dasharray:none;stroke-dashoffset:0;stroke-opacity:1;paint-order:stroke markers fill"
         d="m 153.03174,61.967727 a 1.5875,1.5875 0 0 0 -1.5875,1.5875 1.5875,1.5875 0 0 0 1.5875,1.5875 1.5875,1.5875 0 0 0 1.5875,-1.5875 1.5875,1.5875 0 0 0 -1.5875,-1.5875 z m 0.0253,0.68729 c 0.34431,0 0.60151,0.23399 0.60151,0.54726 0,0.23142 -0.051,0.29367 -0.83561,0.971 h 0.56741 c 0.008,-0.1016 0.0536,-0.15245 0.14108,-0.15245 0.11571,0 0.14107,0.08162 0.14107,0.18604 v 0.24856 h -1.28157 v -0.29662 c 0.45155,-0.37253 0.98495,-0.78163 0.98495,-0.9679 0,-0.14393 -0.14108,-0.25373 -0.32453,-0.25373 -0.381,0 -0.26213,0.32711 -0.4625,0.32711 -0.0762,0 -0.14108,-0.06201 -0.14108,-0.13539 0,-0.19756 0.24238,-0.47388 0.60927,-0.47388 z" />
    </g>
  </g>
</svg>
