<?xml version="1.0" encoding="UTF-8" standalone="no"?>
<svg
   xmlns:dc="http://purl.org/dc/elements/1.1/"
   xmlns:cc="http://creativecommons.org/ns#"
   xmlns:rdf="http://www.w3.org/1999/02/22-rdf-syntax-ns#"
   xmlns:svg="http://www.w3.org/2000/svg"
   xmlns="http://www.w3.org/2000/svg"
   xmlns:xlink="http://www.w3.org/1999/xlink"
   xmlns:sodipodi="http://sodipodi.sourceforge.net/DTD/sodipodi-0.dtd"
   xmlns:inkscape="http://www.inkscape.org/namespaces/inkscape"
   width="90.629692mm"
   height="58.871975mm"
   viewBox="0 0 90.629692 58.871975"
   version="1.1"
   id="svg8"
   sodipodi:docname="figura1.svg"
   inkscape:version="1.0.2 (e86c870879, 2021-01-15)"
   inkscape:export-filename="/home/jacobian/Documentos/Laboratorio/FIS200/04. Informe #04/figura2.png"
   inkscape:export-xdpi="180"
   inkscape:export-ydpi="180">
  <defs
     id="defs2">
    <g
       id="g8181">
      <symbol
         overflow="visible"
         id="symbol7563">
        <path
           style="stroke:none"
           d=""
           id="path260" />
      </symbol>
      <symbol
         overflow="visible"
         id="symbol2628">
        <path
           style="stroke:none"
           d="m 3.734375,-6.125 c 0.0625,-0.234375 0.09375,-0.328125 0.28125,-0.359375 C 4.109375,-6.5 4.421875,-6.5 4.625,-6.5 c 0.703125,0 1.8125,0 1.8125,0.984375 0,0.34375 -0.15625,1.03125 -0.546875,1.421875 -0.265625,0.25 -0.78125,0.578125 -1.6875,0.578125 H 3.09375 Z m 1.4375,2.734375 c 1.015625,-0.21875 2.1875,-0.921875 2.1875,-1.921875 0,-0.859375 -0.890625,-1.5 -2.203125,-1.5 H 2.328125 c -0.203125,0 -0.296875,0 -0.296875,0.203125 C 2.03125,-6.5 2.125,-6.5 2.3125,-6.5 c 0.015625,0 0.203125,0 0.375,0.015625 0.1875,0.03125 0.265625,0.03125 0.265625,0.171875 0,0.03125 0,0.0625 -0.03125,0.1875 l -1.34375,5.34375 C 1.484375,-0.390625 1.46875,-0.3125 0.671875,-0.3125 0.5,-0.3125 0.40625,-0.3125 0.40625,-0.109375 0.40625,0 0.53125,0 0.546875,0 c 0.28125,0 0.984375,-0.03125 1.25,-0.03125 0.28125,0 1,0.03125 1.28125,0.03125 0.078125,0 0.1875,0 0.1875,-0.203125 0,-0.109375 -0.078125,-0.109375 -0.28125,-0.109375 -0.359375,0 -0.640625,0 -0.640625,-0.171875 0,-0.0625 0.015625,-0.109375 0.03125,-0.171875 l 0.65625,-2.640625 h 1.1875 c 0.90625,0 1.078125,0.5625 1.078125,0.90625 0,0.140625 -0.078125,0.453125 -0.140625,0.6875 C 5.09375,-1.421875 5,-1.0625 5,-0.859375 5,0.21875 6.203125,0.21875 6.328125,0.21875 c 0.84375,0 1.203125,-1 1.203125,-1.140625 0,-0.125 -0.109375,-0.125 -0.125,-0.125 -0.09375,0 -0.109375,0.0625 -0.125,0.140625 C 7.03125,-0.171875 6.59375,0 6.375,0 6.046875,0 5.96875,-0.21875 5.96875,-0.609375 c 0,-0.3125 0.0625,-0.8125 0.109375,-1.140625 0.015625,-0.140625 0.03125,-0.328125 0.03125,-0.46875 0,-0.765625 -0.671875,-1.078125 -0.9375,-1.171875 z m 0,0"
           id="path9912" />
      </symbol>
      <symbol
         overflow="visible"
         id="symbol8546">
        <path
           style="stroke:none"
           d=""
           id="path834" />
      </symbol>
      <symbol
         overflow="visible"
         id="symbol9619">
        <path
           style="stroke:none"
           d="m 2.328125,-4.4375 c 0,-0.1875 0,-0.1875 -0.203125,-0.1875 -0.453125,0.4375 -1.078125,0.4375 -1.359375,0.4375 v 0.25 c 0.15625,0 0.625,0 1,-0.1875 v 3.546875 c 0,0.234375 0,0.328125 -0.6875,0.328125 H 0.8125 V 0 c 0.125,0 0.984375,-0.03125 1.234375,-0.03125 0.21875,0 1.09375,0.03125 1.25,0.03125 V -0.25 H 3.03125 c -0.703125,0 -0.703125,-0.09375 -0.703125,-0.328125 z m 0,0"
           id="path7678" />
      </symbol>
    </g>
    <g
       id="g492">
      <symbol
         overflow="visible"
         id="symbol6152">
        <path
           style="stroke:none"
           d=""
           id="path1081" />
      </symbol>
      <symbol
         overflow="visible"
         id="symbol195">
        <path
           style="stroke:none"
           d="m 3.734375,-6.125 c 0.0625,-0.234375 0.09375,-0.328125 0.28125,-0.359375 C 4.109375,-6.5 4.421875,-6.5 4.625,-6.5 c 0.703125,0 1.8125,0 1.8125,0.984375 0,0.34375 -0.15625,1.03125 -0.546875,1.421875 -0.265625,0.25 -0.78125,0.578125 -1.6875,0.578125 H 3.09375 Z m 1.4375,2.734375 c 1.015625,-0.21875 2.1875,-0.921875 2.1875,-1.921875 0,-0.859375 -0.890625,-1.5 -2.203125,-1.5 H 2.328125 c -0.203125,0 -0.296875,0 -0.296875,0.203125 C 2.03125,-6.5 2.125,-6.5 2.3125,-6.5 c 0.015625,0 0.203125,0 0.375,0.015625 0.1875,0.03125 0.265625,0.03125 0.265625,0.171875 0,0.03125 0,0.0625 -0.03125,0.1875 l -1.34375,5.34375 C 1.484375,-0.390625 1.46875,-0.3125 0.671875,-0.3125 0.5,-0.3125 0.40625,-0.3125 0.40625,-0.109375 0.40625,0 0.53125,0 0.546875,0 c 0.28125,0 0.984375,-0.03125 1.25,-0.03125 0.28125,0 1,0.03125 1.28125,0.03125 0.078125,0 0.1875,0 0.1875,-0.203125 0,-0.109375 -0.078125,-0.109375 -0.28125,-0.109375 -0.359375,0 -0.640625,0 -0.640625,-0.171875 0,-0.0625 0.015625,-0.109375 0.03125,-0.171875 l 0.65625,-2.640625 h 1.1875 c 0.90625,0 1.078125,0.5625 1.078125,0.90625 0,0.140625 -0.078125,0.453125 -0.140625,0.6875 C 5.09375,-1.421875 5,-1.0625 5,-0.859375 5,0.21875 6.203125,0.21875 6.328125,0.21875 c 0.84375,0 1.203125,-1 1.203125,-1.140625 0,-0.125 -0.109375,-0.125 -0.125,-0.125 -0.09375,0 -0.109375,0.0625 -0.125,0.140625 C 7.03125,-0.171875 6.59375,0 6.375,0 6.046875,0 5.96875,-0.21875 5.96875,-0.609375 c 0,-0.3125 0.0625,-0.8125 0.109375,-1.140625 0.015625,-0.140625 0.03125,-0.328125 0.03125,-0.46875 0,-0.765625 -0.671875,-1.078125 -0.9375,-1.171875 z m 0,0"
           id="path7346" />
      </symbol>
      <symbol
         overflow="visible"
         id="symbol747">
        <path
           style="stroke:none"
           d=""
           id="path6355" />
      </symbol>
      <symbol
         overflow="visible"
         id="symbol6832">
        <path
           style="stroke:none"
           d="M 3.515625,-1.265625 H 3.28125 c -0.015625,0.15625 -0.09375,0.5625 -0.1875,0.625 C 3.046875,-0.59375 2.515625,-0.59375 2.40625,-0.59375 H 1.125 c 0.734375,-0.640625 0.984375,-0.84375 1.390625,-1.171875 0.515625,-0.40625 1,-0.84375 1,-1.5 0,-0.84375 -0.734375,-1.359375 -1.625,-1.359375 -0.859375,0 -1.453125,0.609375 -1.453125,1.25 0,0.34375 0.296875,0.390625 0.375,0.390625 0.15625,0 0.359375,-0.125 0.359375,-0.375 0,-0.125 -0.046875,-0.375 -0.40625,-0.375 C 0.984375,-4.21875 1.453125,-4.375 1.78125,-4.375 c 0.703125,0 1.0625,0.546875 1.0625,1.109375 0,0.609375 -0.4375,1.078125 -0.65625,1.328125 L 0.515625,-0.265625 C 0.4375,-0.203125 0.4375,-0.1875 0.4375,0 h 2.875 z m 0,0"
           id="path3373" />
      </symbol>
    </g>
    <g
       id="g1039">
      <symbol
         overflow="visible"
         id="symbol5211">
        <path
           style="stroke:none"
           d=""
           id="path7720" />
      </symbol>
      <symbol
         overflow="visible"
         id="symbol7360">
        <path
           style="stroke:none"
           d="m 3.734375,-6.125 c 0.0625,-0.234375 0.09375,-0.328125 0.28125,-0.359375 C 4.109375,-6.5 4.421875,-6.5 4.625,-6.5 c 0.703125,0 1.8125,0 1.8125,0.984375 0,0.34375 -0.15625,1.03125 -0.546875,1.421875 -0.265625,0.25 -0.78125,0.578125 -1.6875,0.578125 H 3.09375 Z m 1.4375,2.734375 c 1.015625,-0.21875 2.1875,-0.921875 2.1875,-1.921875 0,-0.859375 -0.890625,-1.5 -2.203125,-1.5 H 2.328125 c -0.203125,0 -0.296875,0 -0.296875,0.203125 C 2.03125,-6.5 2.125,-6.5 2.3125,-6.5 c 0.015625,0 0.203125,0 0.375,0.015625 0.1875,0.03125 0.265625,0.03125 0.265625,0.171875 0,0.03125 0,0.0625 -0.03125,0.1875 l -1.34375,5.34375 C 1.484375,-0.390625 1.46875,-0.3125 0.671875,-0.3125 0.5,-0.3125 0.40625,-0.3125 0.40625,-0.109375 0.40625,0 0.53125,0 0.546875,0 c 0.28125,0 0.984375,-0.03125 1.25,-0.03125 0.28125,0 1,0.03125 1.28125,0.03125 0.078125,0 0.1875,0 0.1875,-0.203125 0,-0.109375 -0.078125,-0.109375 -0.28125,-0.109375 -0.359375,0 -0.640625,0 -0.640625,-0.171875 0,-0.0625 0.015625,-0.109375 0.03125,-0.171875 l 0.65625,-2.640625 h 1.1875 c 0.90625,0 1.078125,0.5625 1.078125,0.90625 0,0.140625 -0.078125,0.453125 -0.140625,0.6875 C 5.09375,-1.421875 5,-1.0625 5,-0.859375 5,0.21875 6.203125,0.21875 6.328125,0.21875 c 0.84375,0 1.203125,-1 1.203125,-1.140625 0,-0.125 -0.109375,-0.125 -0.125,-0.125 -0.09375,0 -0.109375,0.0625 -0.125,0.140625 C 7.03125,-0.171875 6.59375,0 6.375,0 6.046875,0 5.96875,-0.21875 5.96875,-0.609375 c 0,-0.3125 0.0625,-0.8125 0.109375,-1.140625 0.015625,-0.140625 0.03125,-0.328125 0.03125,-0.46875 0,-0.765625 -0.671875,-1.078125 -0.9375,-1.171875 z m 0,0"
           id="path5634" />
      </symbol>
      <symbol
         overflow="visible"
         id="symbol9943">
        <path
           style="stroke:none"
           d=""
           id="path7115" />
      </symbol>
      <symbol
         overflow="visible"
         id="symbol3914">
        <path
           style="stroke:none"
           d="m 1.90625,-2.328125 c 0.546875,0 0.9375,0.375 0.9375,1.125 0,0.859375 -0.515625,1.125 -0.90625,1.125 -0.28125,0 -0.90625,-0.078125 -1.1875,-0.5 0.328125,0 0.40625,-0.234375 0.40625,-0.390625 0,-0.21875 -0.171875,-0.375 -0.390625,-0.375 -0.1875,0 -0.390625,0.125 -0.390625,0.40625 0,0.65625 0.71875,1.078125 1.5625,1.078125 0.96875,0 1.640625,-0.65625 1.640625,-1.34375 0,-0.546875 -0.4375,-1.09375 -1.203125,-1.25 0.71875,-0.265625 0.984375,-0.78125 0.984375,-1.21875 0,-0.546875 -0.625,-0.953125 -1.40625,-0.953125 -0.765625,0 -1.359375,0.375 -1.359375,0.9375 0,0.234375 0.15625,0.359375 0.359375,0.359375 0.21875,0 0.359375,-0.15625 0.359375,-0.34375 0,-0.203125 -0.140625,-0.359375 -0.359375,-0.375 0.25,-0.296875 0.71875,-0.375 0.984375,-0.375 0.3125,0 0.75,0.15625 0.75,0.75 0,0.296875 -0.09375,0.625 -0.28125,0.828125 -0.21875,0.265625 -0.421875,0.28125 -0.765625,0.3125 -0.171875,0.015625 -0.1875,0.015625 -0.21875,0.015625 -0.015625,0 -0.078125,0.015625 -0.078125,0.09375 0,0.09375 0.0625,0.09375 0.1875,0.09375 z m 0,0"
           id="path3568" />
      </symbol>
    </g>
    <g
       id="g1404">
      <symbol
         overflow="visible"
         id="symbol1917">
        <path
           style="stroke:none"
           d=""
           id="path3779" />
      </symbol>
      <symbol
         overflow="visible"
         id="symbol9982">
        <path
           style="stroke:none"
           d="m 3.734375,-6.125 c 0.0625,-0.234375 0.09375,-0.328125 0.28125,-0.359375 C 4.109375,-6.5 4.421875,-6.5 4.625,-6.5 c 0.703125,0 1.8125,0 1.8125,0.984375 0,0.34375 -0.15625,1.03125 -0.546875,1.421875 -0.265625,0.25 -0.78125,0.578125 -1.6875,0.578125 H 3.09375 Z m 1.4375,2.734375 c 1.015625,-0.21875 2.1875,-0.921875 2.1875,-1.921875 0,-0.859375 -0.890625,-1.5 -2.203125,-1.5 H 2.328125 c -0.203125,0 -0.296875,0 -0.296875,0.203125 C 2.03125,-6.5 2.125,-6.5 2.3125,-6.5 c 0.015625,0 0.203125,0 0.375,0.015625 0.1875,0.03125 0.265625,0.03125 0.265625,0.171875 0,0.03125 0,0.0625 -0.03125,0.1875 l -1.34375,5.34375 C 1.484375,-0.390625 1.46875,-0.3125 0.671875,-0.3125 0.5,-0.3125 0.40625,-0.3125 0.40625,-0.109375 0.40625,0 0.53125,0 0.546875,0 c 0.28125,0 0.984375,-0.03125 1.25,-0.03125 0.28125,0 1,0.03125 1.28125,0.03125 0.078125,0 0.1875,0 0.1875,-0.203125 0,-0.109375 -0.078125,-0.109375 -0.28125,-0.109375 -0.359375,0 -0.640625,0 -0.640625,-0.171875 0,-0.0625 0.015625,-0.109375 0.03125,-0.171875 l 0.65625,-2.640625 h 1.1875 c 0.90625,0 1.078125,0.5625 1.078125,0.90625 0,0.140625 -0.078125,0.453125 -0.140625,0.6875 C 5.09375,-1.421875 5,-1.0625 5,-0.859375 5,0.21875 6.203125,0.21875 6.328125,0.21875 c 0.84375,0 1.203125,-1 1.203125,-1.140625 0,-0.125 -0.109375,-0.125 -0.125,-0.125 -0.09375,0 -0.109375,0.0625 -0.125,0.140625 C 7.03125,-0.171875 6.59375,0 6.375,0 6.046875,0 5.96875,-0.21875 5.96875,-0.609375 c 0,-0.3125 0.0625,-0.8125 0.109375,-1.140625 0.015625,-0.140625 0.03125,-0.328125 0.03125,-0.46875 0,-0.765625 -0.671875,-1.078125 -0.9375,-1.171875 z m 0,0"
           id="path65" />
      </symbol>
      <symbol
         overflow="visible"
         id="symbol8979">
        <path
           style="stroke:none"
           d=""
           id="path7644" />
      </symbol>
      <symbol
         overflow="visible"
         id="symbol6854">
        <path
           style="stroke:none"
           d="m 3.6875,-1.140625 v -0.25 H 2.90625 V -4.5 c 0,-0.140625 0,-0.203125 -0.140625,-0.203125 -0.09375,0 -0.125,0 -0.1875,0.109375 l -2.3125,3.203125 v 0.25 h 2.0625 v 0.5625 c 0,0.25 0,0.328125 -0.578125,0.328125 H 1.5625 V 0 C 1.921875,-0.015625 2.359375,-0.03125 2.609375,-0.03125 2.875,-0.03125 3.3125,-0.015625 3.671875,0 v -0.25 h -0.1875 C 2.90625,-0.25 2.90625,-0.328125 2.90625,-0.578125 v -0.5625 z M 2.375,-3.9375 v 2.546875 H 0.53125 Z m 0,0"
           id="path4434" />
      </symbol>
    </g>
  </defs>
  <sodipodi:namedview
     id="base"
     pagecolor="#ffffff"
     bordercolor="#666666"
     borderopacity="1.0"
     inkscape:pageopacity="0.0"
     inkscape:pageshadow="2"
     inkscape:zoom="1.979899"
     inkscape:cx="341.14566"
     inkscape:cy="125.558"
     inkscape:document-units="mm"
     inkscape:current-layer="layer2"
     inkscape:document-rotation="0"
     showgrid="false"
     inkscape:window-width="1920"
     inkscape:window-height="1050"
     inkscape:window-x="1920"
     inkscape:window-y="18"
     inkscape:window-maximized="0"
     lock-margins="true"
     fit-margin-top="4"
     fit-margin-left="4"
     fit-margin-right="4"
     fit-margin-bottom="8"
     inkscape:showpageshadow="false"
     showguides="false">
    <inkscape:grid
       type="xygrid"
       id="grid88"
       originx="128.83046"
       originy="-19.386248" />
  </sodipodi:namedview>
  <metadata
     id="metadata5">
    <rdf:RDF>
      <cc:Work
         rdf:about="">
        <dc:format>image/svg+xml</dc:format>
        <dc:type
           rdf:resource="http://purl.org/dc/dcmitype/StillImage" />
        <dc:title></dc:title>
      </cc:Work>
    </rdf:RDF>
  </metadata>
  <g
     inkscape:groupmode="layer"
     id="layer2"
     inkscape:label="Capa 2"
     transform="translate(67.315877,-117.75367)">
    <path
       style="fill:none;stroke:#000000;stroke-width:0.265112;stroke-linecap:round;stroke-linejoin:round;stroke-miterlimit:10;paint-order:markers fill stroke"
       d="m -23.152077,149.16742 10.652988,-1e-5 0.94495,-2.27847 2.0231701,4.67083 2.02316,-4.67083 2.02317,4.67083 2.02315,-4.67083 2.02317,4.67083 0.75595003,-2.39235 H 10.71459"
       id="path31"
       sodipodi:nodetypes="cccccccccc" />
    <path
       style="fill:none;stroke:#000000;stroke-width:0.265112;stroke-linecap:round;stroke-linejoin:round;stroke-miterlimit:10;paint-order:markers fill stroke"
       d="m -57.018743,140.70076 v 11.63252 m 0,1.06748 v 12.7"
       id="path33"
       sodipodi:nodetypes="cccc" />
    <path
       style="fill:none;stroke:#000000;stroke-width:0.265112;stroke-linecap:round;stroke-linejoin:round;stroke-miterlimit:10;paint-order:markers fill stroke"
       d="m -53.208843,152.36012 c -7.61059,0 -7.61059,0 -7.61059,0"
       id="path35" />
    <path
       style="fill:none;stroke:#000000;stroke-width:0.265112;stroke-linecap:round;stroke-linejoin:round;stroke-miterlimit:10;paint-order:markers fill stroke"
       d="m -54.642213,153.40076 h -4.74931"
       id="path37" />
    <path
       style="fill:none;stroke:#000000;stroke-width:0.265112;stroke-linecap:round;stroke-linejoin:round;stroke-miterlimit:10;paint-order:markers fill stroke"
       d="m -23.152077,132.23409 v 16.93333"
       id="path45"
       sodipodi:nodetypes="cc" />
    <text
       xml:space="preserve"
       style="font-size:5.64444px;font-family:'Latin Modern Math';-inkscape-font-specification:'Latin Modern Math, Normal';text-align:center;text-anchor:middle;fill:#000000;stroke:none;stroke-width:0.265112;stroke-linecap:round;stroke-linejoin:round;stroke-miterlimit:10;paint-order:markers fill stroke"
       x="-61.306461"
       y="149.90073"
       id="text141"><tspan
         sodipodi:role="line"
         id="tspan139"
         x="-61.306461"
         y="149.90073"
         style="stroke-width:0.265112">V</tspan></text>
    <g
       inkscape:label=""
       transform="matrix(0.6180542,0,0,0.6180542,-100.54994,84.398199)"
       id="g183">
      <g
         id="g2022">
        <g
           style="fill:#000000;fill-opacity:1"
           id="g9827">
          <use
             xlink:href="#symbol2628"
             x="91.925003"
             y="81.962997"
             id="use7796"
             width="100%"
             height="100%" />
        </g>
        <g
           style="fill:#000000;fill-opacity:1"
           id="g5152">
          <use
             xlink:href="#symbol9619"
             x="99.489998"
             y="83.457001"
             id="use8679"
             width="100%"
             height="100%" />
        </g>
      </g>
    </g>
    <g
       inkscape:label=""
       transform="matrix(0.6180542,0,0,0.6180542,-66.583132,75.30659)"
       id="g258">
      <g
         id="g7486">
        <g
           style="fill:#000000;fill-opacity:1"
           id="g6766">
          <use
             xlink:href="#symbol195"
             x="91.925003"
             y="81.962997"
             id="use3086"
             width="100%"
             height="100%" />
        </g>
        <g
           style="fill:#000000;fill-opacity:1"
           id="g8698">
          <use
             xlink:href="#symbol6832"
             x="99.489998"
             y="83.457001"
             id="use344"
             width="100%"
             height="100%" />
        </g>
      </g>
    </g>
    <g
       inkscape:label=""
       transform="matrix(0.6180542,0,0,0.6180542,-66.602446,92.740936)"
       id="g347">
      <g
         id="g2659">
        <g
           style="fill:#000000;fill-opacity:1"
           id="g2104">
          <use
             xlink:href="#symbol7360"
             x="91.925003"
             y="81.962997"
             id="use5348"
             width="100%"
             height="100%" />
        </g>
        <g
           style="fill:#000000;fill-opacity:1"
           id="g390">
          <use
             xlink:href="#symbol3914"
             x="99.489998"
             y="83.457001"
             id="use648"
             width="100%"
             height="100%" />
        </g>
      </g>
    </g>
    <g
       inkscape:label=""
       transform="matrix(0.6180542,0,0,0.6180542,-79.829034,110.32074)"
       id="g451">
      <g
         id="g7947">
        <g
           style="fill:#000000;fill-opacity:1"
           id="g3889">
          <use
             xlink:href="#symbol9982"
             x="91.925003"
             y="81.962997"
             id="use1855"
             width="100%"
             height="100%" />
        </g>
        <g
           style="fill:#000000;fill-opacity:1"
           id="g4240">
          <use
             xlink:href="#symbol6854"
             x="99.489998"
             y="83.457001"
             id="use8482"
             width="100%"
             height="100%" />
        </g>
      </g>
    </g>
    <path
       style="fill:none;stroke:#000000;stroke-width:0.265112;stroke-linecap:round;stroke-linejoin:round;stroke-miterlimit:10;paint-order:markers fill stroke"
       d="m -23.152077,132.23409 10.652988,-1e-5 0.94495,-2.27847 2.0231704,4.67083 2.02316,-4.67083 2.02317,4.67083 2.02315,-4.67083 2.02317,4.67083 0.75595006,-2.39235 H 10.71459"
       id="path92"
       sodipodi:nodetypes="cccccccccc" />
    <path
       style="fill:none;stroke:#000000;stroke-width:0.265112;stroke-linecap:round;stroke-linejoin:round;stroke-miterlimit:10;paint-order:markers fill stroke"
       d="m -57.088398,140.70077 10.652988,-1e-5 0.94495,-2.27847 2.02317,4.67083 2.02316,-4.67083 2.02317,4.67083 2.02315,-4.67083 2.02317,4.67083 0.75595,-2.39235 h 11.396959"
       id="path94"
       sodipodi:nodetypes="cccccccccc" />
    <path
       style="fill:none;stroke:#000000;stroke-width:0.265112;stroke-linecap:round;stroke-linejoin:round;stroke-miterlimit:10;paint-order:markers fill stroke"
       d="m 10.71459,132.23409 v 16.93333"
       id="path96"
       sodipodi:nodetypes="cc" />
    <path
       style="fill:none;stroke:#000000;stroke-width:0.265112;stroke-linecap:round;stroke-linejoin:round;stroke-miterlimit:10;paint-order:markers fill stroke"
       d="m -57.018743,166.10076 31.75,-1e-5 0.94495,-2.27847 2.02317,4.67083 2.02316,-4.67083 2.02317,4.67083 2.02315,-4.67083 2.02317,4.67083 0.75595,-2.39235 h 32.63328"
       id="path98"
       sodipodi:nodetypes="cccccccccc" />
    <path
       style="fill:none;stroke:#000000;stroke-width:0.265112;stroke-linecap:round;stroke-linejoin:round;stroke-miterlimit:10;paint-order:markers fill stroke"
       d="M 19.181257,140.70076 H 10.714593"
       id="path45-3"
       sodipodi:nodetypes="cc" />
    <path
       style="fill:none;stroke:#000000;stroke-width:0.265112;stroke-linecap:round;stroke-linejoin:round;stroke-miterlimit:10;paint-order:markers fill stroke"
       d="m 19.181257,140.70076 v 25.4"
       id="path120"
       sodipodi:nodetypes="cc" />
    <circle
       style="fill:#000000;stroke:none;stroke-width:2.64583;stroke-miterlimit:10;paint-order:markers fill stroke"
       id="path125"
       cx="-23.163267"
       cy="140.70078"
       r="0.91878873" />
    <circle
       style="fill:#000000;stroke:none;stroke-width:2.64583;stroke-miterlimit:10;paint-order:markers fill stroke"
       id="circle127"
       cx="10.712595"
       cy="140.70078"
       r="0.91878873" />
  </g>
</svg>
