<?xml version="1.0" encoding="UTF-8" standalone="no"?>
<!-- Created with Inkscape (http://www.inkscape.org/) -->

<svg
   width="150.00002"
   height="160"
   viewBox="0 0 39.687503 42.333333"
   version="1.1"
   id="svg1"
   inkscape:version="1.3.2 (091e20ef0f, 2023-11-25)"
   sodipodi:docname="figura03_06.svg"
   xmlns:inkscape="http://www.inkscape.org/namespaces/inkscape"
   xmlns:sodipodi="http://sodipodi.sourceforge.net/DTD/sodipodi-0.dtd"
   xmlns="http://www.w3.org/2000/svg"
   xmlns:svg="http://www.w3.org/2000/svg">
  <sodipodi:namedview
     id="namedview1"
     pagecolor="#ffffff"
     bordercolor="#000000"
     borderopacity="0.25"
     inkscape:showpageshadow="false"
     inkscape:pageopacity="0.0"
     inkscape:pagecheckerboard="0"
     inkscape:deskcolor="#d1d1d1"
     inkscape:document-units="px"
     showgrid="true"
     inkscape:zoom="3.0003928"
     inkscape:cx="61.825238"
     inkscape:cy="45.660688"
     inkscape:window-width="1920"
     inkscape:window-height="1046"
     inkscape:window-x="1920"
     inkscape:window-y="18"
     inkscape:window-maximized="1"
     inkscape:current-layer="layer1">
    <inkscape:grid
       id="grid1"
       units="px"
       originx="-14.552083"
       originy="-2.6458332"
       spacingx="1.3229166"
       spacingy="1.3229166"
       empcolor="#0099e5"
       empopacity="0.30196078"
       color="#0099e5"
       opacity="0.14901961"
       empspacing="4"
       dotted="false"
       gridanglex="30"
       gridanglez="30"
       visible="true" />
  </sodipodi:namedview>
  <defs
     id="defs1">
    <marker
       style="overflow:visible"
       id="ArrowWide"
       refX="0"
       refY="0"
       orient="auto-start-reverse"
       inkscape:stockid="Wide arrow"
       markerWidth="1"
       markerHeight="1"
       viewBox="0 0 1 1"
       inkscape:isstock="true"
       inkscape:collect="always"
       preserveAspectRatio="xMidYMid">
      <path
         style="fill:none;stroke:context-stroke;stroke-width:1;stroke-linecap:butt"
         d="M 3,-3 0,0 3,3"
         transform="rotate(180,0.125,0)"
         sodipodi:nodetypes="ccc"
         id="path69" />
    </marker>
    <marker
       style="overflow:visible"
       id="marker67"
       refX="0"
       refY="0"
       orient="auto-start-reverse"
       inkscape:stockid="Wide arrow"
       markerWidth="1"
       markerHeight="1"
       viewBox="0 0 1 1"
       inkscape:isstock="true"
       inkscape:collect="always"
       preserveAspectRatio="xMidYMid">
      <path
         style="fill:none;stroke:context-stroke;stroke-width:1;stroke-linecap:butt"
         d="M 3,-3 0,0 3,3"
         transform="rotate(180,0.125,0)"
         sodipodi:nodetypes="ccc"
         id="path67" />
    </marker>
  </defs>
  <g
     inkscape:label="Capa 1"
     inkscape:groupmode="layer"
     id="layer1"
     transform="translate(-14.552151,-2.6458704)">
    <path
       style="fill:none;stroke:#0000ff;stroke-width:0.105833;stroke-linejoin:round;stroke-dasharray:none;stroke-dashoffset:0;marker-end:url(#marker67)"
       d="M 23.812567,31.750036 H 37.041734"
       id="path1"
       sodipodi:nodetypes="cc" />
    <path
       style="fill:none;stroke:#0000ff;stroke-width:0.105833;stroke-linejoin:round;stroke-dasharray:none;stroke-dashoffset:0;marker-end:url(#marker67)"
       d="M 26.458401,34.395869 V 5.2917037"
       id="path66"
       sodipodi:nodetypes="cc" />
    <g
       inkscape:label=""
       transform="translate(16.846792,13.743243)"
       id="g47">
      <g
         fill="#000000"
         fill-opacity="1"
         id="g3"
         transform="matrix(0.352778,0,0,0.352778,-0.774744,-0.674026)">
        <g
           id="use2"
           transform="translate(1.993,6.895)">
          <path
             d="m 1.765625,-3.171875 h 0.78125 c 0.140625,0 0.234375,0 0.234375,-0.15625 C 2.78125,-3.4375 2.6875,-3.4375 2.546875,-3.4375 h -0.71875 l 0.28125,-1.125 c 0.03125,-0.125 0.03125,-0.15625 0.03125,-0.171875 0,-0.171875 -0.125,-0.25 -0.265625,-0.25 -0.265625,0 -0.328125,0.21875 -0.40625,0.578125 l -0.25,0.96875 H 0.453125 c -0.15625,0 -0.25,0 -0.25,0.15625 0,0.109375 0.09375,0.109375 0.234375,0.109375 h 0.71875 l -0.484375,1.90625 C 0.625,-1.0625 0.5625,-0.78125 0.5625,-0.671875 c 0,0.484375 0.390625,0.75 0.8125,0.75 0.84375,0 1.328125,-1.125 1.328125,-1.21875 C 2.703125,-1.234375 2.640625,-1.25 2.59375,-1.25 2.5,-1.25 2.5,-1.21875 2.4375,-1.09375 2.28125,-0.703125 1.875,-0.140625 1.390625,-0.140625 1.234375,-0.140625 1.125,-0.25 1.125,-0.515625 c 0,-0.15625 0.03125,-0.234375 0.046875,-0.34375 z m 0,0"
             id="path4" />
        </g>
      </g>
      <g
         fill="#000000"
         fill-opacity="1"
         id="g4"
         transform="matrix(0.352778,0,0,0.352778,-0.774744,-0.674026)">
        <g
           id="use3"
           transform="translate(5.0510001,7.8909998)">
          <path
             d="m 3.484375,-1.890625 c -0.625,-0.671875 -1.265625,-0.75 -1.578125,-0.75 -0.765625,0 -1.34375,0.625 -1.34375,1.359375 0,0.6875 0.546875,1.34375 1.328125,1.34375 0.734375,0 1.34375,-0.484375 1.703125,-1 l 0.21875,0.25 c 0.640625,0.671875 1.265625,0.75 1.578125,0.75 C 6.171875,0.0625 6.75,-0.5625 6.75,-1.296875 6.75,-2 6.203125,-2.640625 5.421875,-2.640625 c -0.734375,0 -1.34375,0.484375 -1.71875,1 z m 0.421875,0.46875 C 4.25,-1.890625 4.765625,-2.375 5.46875,-2.375 c 0.640625,0 1.078125,0.515625 1.078125,1.078125 0,0.578125 -0.5,1 -1.046875,1 -0.46875,0 -0.890625,-0.28125 -1.59375,-1.125 z M 3.390625,-1.15625 C 3.046875,-0.6875 2.546875,-0.203125 1.84375,-0.203125 1.1875,-0.203125 0.75,-0.71875 0.75,-1.28125 c 0,-0.578125 0.5,-1 1.0625,-1 0.46875,0 0.875,0.28125 1.578125,1.125 z m 0,0"
             id="path5" />
        </g>
      </g>
    </g>
    <text
       xml:space="preserve"
       style="font-size:1.41111px;font-family:Futura;-inkscape-font-specification:'Futura, Normal';fill:#000000;stroke:none;stroke-width:0.211667;stroke-linejoin:round;stroke-dasharray:none;stroke-dashoffset:0"
       x="35.718754"
       y="29.10417"
       id="text48"><tspan
         sodipodi:role="line"
         id="tspan48"
         style="stroke-width:0.211667"
         x="35.718754"
         y="29.10417" /></text>
    <g
       inkscape:label=""
       transform="translate(28.525423,36.523559)"
       id="g53">
      <g
         fill="#000000"
         fill-opacity="1"
         id="g52"
         transform="matrix(0.352778,0,0,0.352778,-0.84089,-0.673232)">
        <g
           id="g51"
           transform="translate(1.993,5.4239998)">
          <path
             d="m 1.609375,-1.8125 c 0.171875,0 0.765625,-0.015625 1.1875,-0.15625 0.6875,-0.25 0.71875,-0.71875 0.71875,-0.84375 0,-0.453125 -0.421875,-0.703125 -0.9375,-0.703125 -0.90625,0 -2.1875,0.703125 -2.1875,2.125 0,0.8125 0.5,1.46875 1.375,1.46875 1.234375,0 1.90625,-0.796875 1.90625,-0.90625 0,-0.078125 -0.078125,-0.125 -0.125,-0.125 -0.046875,0 -0.078125,0.015625 -0.109375,0.0625 -0.625,0.75 -1.53125,0.75 -1.65625,0.75 -0.59375,0 -0.765625,-0.5 -0.765625,-0.9375 0,-0.25 0.078125,-0.609375 0.109375,-0.734375 z M 1.1875,-2.046875 c 0.25,-0.96875 0.984375,-1.25 1.390625,-1.25 0.3125,0 0.625,0.171875 0.625,0.484375 0,0.765625 -1.3125,0.765625 -1.65625,0.765625 z m 0,0"
             id="path51" />
        </g>
      </g>
    </g>
    <path
       style="fill:none;stroke:#000000;stroke-width:0.105833;stroke-linejoin:round;stroke-dasharray:none;stroke-dashoffset:0"
       d="M 31.750033,7.9375565 V 33.072972"
       id="path53"
       sodipodi:nodetypes="cc" />
    <path
       style="fill:none;stroke:#000000;stroke-width:0.105833;stroke-linejoin:round;stroke-dasharray:none;stroke-dashoffset:0"
       d="M 26.458367,7.9375369 V 33.072952"
       id="path54"
       sodipodi:nodetypes="cc" />
    <path
       style="fill:none;stroke:#000000;stroke-width:0.105833;stroke-linejoin:round;stroke-dasharray:none;stroke-dashoffset:0"
       d="m 26.458401,7.9375369 c 2.645833,-1.3229165 2.645833,1.5275725 5.291666,0"
       id="path55"
       sodipodi:nodetypes="cc" />
    <path
       style="fill:none;stroke:#000000;stroke-width:0.105833;stroke-linejoin:round;stroke-dasharray:none;stroke-dashoffset:0"
       d="m 26.458401,33.072952 c 2.645833,-1.322916 2.645833,1.527573 5.291666,0"
       id="path55-3"
       sodipodi:nodetypes="cc" />
    <path
       style="fill:none;stroke:#000000;stroke-width:0.132292;stroke-linejoin:round;stroke-dasharray:none;stroke-dashoffset:0"
       d="m 26.458367,34.395869 v 2.645833"
       id="path63" />
    <path
       style="fill:none;stroke:#000000;stroke-width:0.132292;stroke-linejoin:round;stroke-dasharray:none;stroke-dashoffset:0"
       d="m 31.750033,34.395869 v 2.645833"
       id="path64" />
    <path
       style="fill:none;stroke:#000000;stroke-width:0.132292;stroke-linejoin:round;stroke-dasharray:none;stroke-dashoffset:0"
       d="M 31.750033,35.718785 H 26.458367"
       id="path65"
       sodipodi:nodetypes="cc" />
    <g
       inkscape:label=""
       transform="translate(34.3959,23.498342)"
       id="g8">
      <g
         fill="#000000"
         fill-opacity="1"
         id="g5"
         transform="matrix(0.352778,0,0,0.352778,-0.791281,-0.64598)">
        <g
           id="g1"
           transform="translate(1.993,7.1279998)">
          <path
             d="M 4,-3.171875 C 3.640625,-3.09375 3.625,-2.78125 3.625,-2.75 c 0,0.171875 0.140625,0.296875 0.3125,0.296875 0.171875,0 0.4375,-0.140625 0.4375,-0.484375 0,-0.453125 -0.5,-0.578125 -0.796875,-0.578125 C 3.21875,-3.515625 2.90625,-3.25 2.71875,-2.9375 2.546875,-3.359375 2.140625,-3.515625 1.8125,-3.515625 c -0.875,0 -1.359375,1 -1.359375,1.21875 0,0.078125 0.0625,0.109375 0.125,0.109375 0.09375,0 0.109375,-0.046875 0.125,-0.140625 0.1875,-0.578125 0.671875,-0.96875 1.078125,-0.96875 0.3125,0 0.46875,0.234375 0.46875,0.515625 C 2.25,-2.625 2.15625,-2.25 2.09375,-2 c -0.0625,0.234375 -0.234375,0.9375 -0.28125,1.09375 -0.109375,0.421875 -0.390625,0.765625 -0.75,0.765625 -0.03125,0 -0.234375,0 -0.40625,-0.109375 0.359375,-0.09375 0.359375,-0.421875 0.359375,-0.4375 0,-0.1875 -0.140625,-0.296875 -0.3125,-0.296875 -0.21875,0 -0.453125,0.1875 -0.453125,0.484375 0,0.375 0.390625,0.578125 0.796875,0.578125 0.421875,0 0.71875,-0.3125 0.859375,-0.578125 0.1875,0.390625 0.546875,0.578125 0.9375,0.578125 0.859375,0 1.34375,-1 1.34375,-1.21875 C 4.1875,-1.21875 4.125,-1.25 4.0625,-1.25 c -0.09375,0 -0.109375,0.0625 -0.140625,0.140625 -0.15625,0.53125 -0.609375,0.96875 -1.0625,0.96875 -0.265625,0 -0.453125,-0.171875 -0.453125,-0.515625 0,-0.15625 0.046875,-0.34375 0.15625,-0.78125 0.046875,-0.25 0.21875,-0.9375 0.265625,-1.09375 0.109375,-0.421875 0.390625,-0.765625 0.75,-0.765625 0.046875,0 0.25,0 0.421875,0.125 z m 0,0"
             id="path6" />
        </g>
      </g>
      <g
         fill="#000000"
         fill-opacity="1"
         id="g6"
         transform="matrix(0.352778,0,0,0.352778,-0.791281,-0.64598)">
        <g
           id="use4"
           transform="translate(9.1120005,7.1279998)">
          <path
             d="m 5.828125,-2.65625 c 0.109375,0 0.28125,0 0.28125,-0.1875 0,-0.171875 -0.203125,-0.171875 -0.3125,-0.171875 H 0.78125 c -0.125,0 -0.3125,0 -0.3125,0.171875 0,0.1875 0.15625,0.1875 0.28125,0.1875 z m -0.03125,1.6875 c 0.109375,0 0.3125,0 0.3125,-0.171875 0,-0.1875 -0.171875,-0.1875 -0.28125,-0.1875 H 0.75 c -0.125,0 -0.28125,0 -0.28125,0.1875 0,0.171875 0.1875,0.171875 0.3125,0.171875 z m 0,0"
             id="path7" />
        </g>
      </g>
      <g
         fill="#000000"
         fill-opacity="1"
         id="g7"
         transform="matrix(0.352778,0,0,0.352778,-0.791281,-0.64598)">
        <g
           id="use5"
           transform="translate(18.049669,7.1279998)">
          <path
             d="m 3.890625,-2.546875 c 0,-0.84375 -0.078125,-1.359375 -0.34375,-1.875 -0.34375,-0.703125 -1,-0.875 -1.4375,-0.875 -1,0 -1.375,0.75 -1.484375,0.96875 -0.28125,0.578125 -0.296875,1.375 -0.296875,1.78125 0,0.53125 0.015625,1.328125 0.40625,1.96875 0.359375,0.59375 0.953125,0.75 1.375,0.75 0.390625,0 1.0625,-0.125 1.46875,-0.90625 0.296875,-0.578125 0.3125,-1.296875 0.3125,-1.8125 z M 2.109375,-0.0625 C 1.84375,-0.0625 1.296875,-0.1875 1.125,-1.015625 1.03125,-1.46875 1.03125,-2.21875 1.03125,-2.640625 1.03125,-3.1875 1.03125,-3.75 1.125,-4.1875 1.296875,-5 1.90625,-5.078125 2.109375,-5.078125 c 0.265625,0 0.828125,0.140625 0.984375,0.859375 0.09375,0.4375 0.09375,1.046875 0.09375,1.578125 0,0.46875 0,1.1875 -0.09375,1.640625 -0.171875,0.828125 -0.71875,0.9375 -0.984375,0.9375 z m 0,0"
             id="path8" />
        </g>
      </g>
    </g>
    <g
       inkscape:label=""
       transform="translate(34.3959,20.157978)"
       id="g25">
      <g
         fill="#000000"
         fill-opacity="1"
         id="g12"
         transform="matrix(0.352778,0,0,0.352778,-0.791281,-0.673232)">
        <g
           id="g11"
           transform="translate(1.993,5.4239998)">
          <path
             d="M 4,-3.171875 C 3.640625,-3.09375 3.625,-2.78125 3.625,-2.75 c 0,0.171875 0.140625,0.296875 0.3125,0.296875 0.171875,0 0.4375,-0.140625 0.4375,-0.484375 0,-0.453125 -0.5,-0.578125 -0.796875,-0.578125 C 3.21875,-3.515625 2.90625,-3.25 2.71875,-2.9375 2.546875,-3.359375 2.140625,-3.515625 1.8125,-3.515625 c -0.875,0 -1.359375,1 -1.359375,1.21875 0,0.078125 0.0625,0.109375 0.125,0.109375 0.09375,0 0.109375,-0.046875 0.125,-0.140625 0.1875,-0.578125 0.671875,-0.96875 1.078125,-0.96875 0.3125,0 0.46875,0.234375 0.46875,0.515625 C 2.25,-2.625 2.15625,-2.25 2.09375,-2 c -0.0625,0.234375 -0.234375,0.9375 -0.28125,1.09375 -0.109375,0.421875 -0.390625,0.765625 -0.75,0.765625 -0.03125,0 -0.234375,0 -0.40625,-0.109375 0.359375,-0.09375 0.359375,-0.421875 0.359375,-0.4375 0,-0.1875 -0.140625,-0.296875 -0.3125,-0.296875 -0.21875,0 -0.453125,0.1875 -0.453125,0.484375 0,0.375 0.390625,0.578125 0.796875,0.578125 0.421875,0 0.71875,-0.3125 0.859375,-0.578125 0.1875,0.390625 0.546875,0.578125 0.9375,0.578125 0.859375,0 1.34375,-1 1.34375,-1.21875 C 4.1875,-1.21875 4.125,-1.25 4.0625,-1.25 c -0.09375,0 -0.109375,0.0625 -0.140625,0.140625 -0.15625,0.53125 -0.609375,0.96875 -1.0625,0.96875 -0.265625,0 -0.453125,-0.171875 -0.453125,-0.515625 0,-0.15625 0.046875,-0.34375 0.15625,-0.78125 0.046875,-0.25 0.21875,-0.9375 0.265625,-1.09375 0.109375,-0.421875 0.390625,-0.765625 0.75,-0.765625 0.046875,0 0.25,0 0.421875,0.125 z m 0,0"
             id="path9" />
        </g>
      </g>
      <g
         fill="#000000"
         fill-opacity="1"
         id="g21"
         transform="matrix(0.352778,0,0,0.352778,-0.791281,-0.673232)">
        <g
           id="g20"
           transform="translate(9.1120005,5.4239998)">
          <path
             d="m 5.828125,-2.65625 c 0.109375,0 0.28125,0 0.28125,-0.1875 0,-0.171875 -0.203125,-0.171875 -0.3125,-0.171875 H 0.78125 c -0.125,0 -0.3125,0 -0.3125,0.171875 0,0.1875 0.15625,0.1875 0.28125,0.1875 z m -0.03125,1.6875 c 0.109375,0 0.3125,0 0.3125,-0.171875 0,-0.1875 -0.171875,-0.1875 -0.28125,-0.1875 H 0.75 c -0.125,0 -0.28125,0 -0.28125,0.1875 0,0.171875 0.1875,0.171875 0.3125,0.171875 z m 0,0"
             id="path15" />
        </g>
      </g>
      <g
         fill="#000000"
         fill-opacity="1"
         id="g23"
         transform="matrix(0.352778,0,0,0.352778,-0.791281,-0.673232)">
        <g
           id="g22"
           transform="translate(18.051001,5.4239998)">
          <path
             d="M 4,-3.171875 C 3.640625,-3.09375 3.625,-2.78125 3.625,-2.75 c 0,0.171875 0.140625,0.296875 0.3125,0.296875 0.171875,0 0.4375,-0.140625 0.4375,-0.484375 0,-0.453125 -0.5,-0.578125 -0.796875,-0.578125 C 3.21875,-3.515625 2.90625,-3.25 2.71875,-2.9375 2.546875,-3.359375 2.140625,-3.515625 1.8125,-3.515625 c -0.875,0 -1.359375,1 -1.359375,1.21875 0,0.078125 0.0625,0.109375 0.125,0.109375 0.09375,0 0.109375,-0.046875 0.125,-0.140625 0.1875,-0.578125 0.671875,-0.96875 1.078125,-0.96875 0.3125,0 0.46875,0.234375 0.46875,0.515625 C 2.25,-2.625 2.15625,-2.25 2.09375,-2 c -0.0625,0.234375 -0.234375,0.9375 -0.28125,1.09375 -0.109375,0.421875 -0.390625,0.765625 -0.75,0.765625 -0.03125,0 -0.234375,0 -0.40625,-0.109375 0.359375,-0.09375 0.359375,-0.421875 0.359375,-0.4375 0,-0.1875 -0.140625,-0.296875 -0.3125,-0.296875 -0.21875,0 -0.453125,0.1875 -0.453125,0.484375 0,0.375 0.390625,0.578125 0.796875,0.578125 0.421875,0 0.71875,-0.3125 0.859375,-0.578125 0.1875,0.390625 0.546875,0.578125 0.9375,0.578125 0.859375,0 1.34375,-1 1.34375,-1.21875 C 4.1875,-1.21875 4.125,-1.25 4.0625,-1.25 c -0.09375,0 -0.109375,0.0625 -0.140625,0.140625 -0.15625,0.53125 -0.609375,0.96875 -1.0625,0.96875 -0.265625,0 -0.453125,-0.171875 -0.453125,-0.515625 0,-0.15625 0.046875,-0.34375 0.15625,-0.78125 0.046875,-0.25 0.21875,-0.9375 0.265625,-1.09375 0.109375,-0.421875 0.390625,-0.765625 0.75,-0.765625 0.046875,0 0.25,0 0.421875,0.125 z m 0,0"
             id="path21" />
        </g>
      </g>
      <g
         fill="#000000"
         fill-opacity="1"
         id="g24"
         transform="matrix(0.352778,0,0,0.352778,-0.791281,-0.673232)">
        <g
           id="use6"
           transform="translate(22.816999,6.6389999)">
          <path
             d="M 2.078125,-3.734375 C 2.078125,-3.875 1.96875,-3.96875 1.84375,-3.96875 1.671875,-3.96875 1.5,-3.8125 1.5,-3.640625 1.5,-3.5 1.609375,-3.40625 1.734375,-3.40625 c 0.203125,0 0.34375,-0.171875 0.34375,-0.328125 z M 1.71875,-1.640625 C 1.75,-1.703125 1.796875,-1.84375 1.828125,-1.90625 1.84375,-1.953125 1.859375,-2.015625 1.859375,-2.125 c 0,-0.328125 -0.296875,-0.515625 -0.59375,-0.515625 -0.609375,0 -0.90625,0.796875 -0.90625,0.921875 0,0.03125 0.03125,0.078125 0.109375,0.078125 0.09375,0 0.109375,-0.03125 0.125,-0.078125 C 0.765625,-2.296875 1.078125,-2.4375 1.25,-2.4375 c 0.109375,0 0.15625,0.078125 0.15625,0.21875 0,0.109375 -0.03125,0.203125 -0.046875,0.25 l -0.3125,0.765625 c -0.078125,0.171875 -0.078125,0.1875 -0.15625,0.390625 -0.078125,0.171875 -0.09375,0.25 -0.09375,0.359375 0,0.296875 0.265625,0.515625 0.59375,0.515625 0.609375,0 0.90625,-0.796875 0.90625,-0.921875 0,-0.015625 0,-0.09375 -0.109375,-0.09375 -0.09375,0 -0.09375,0.03125 -0.125,0.15625 C 1.96875,-0.5 1.71875,-0.140625 1.40625,-0.140625 1.296875,-0.140625 1.25,-0.203125 1.25,-0.359375 1.25,-0.46875 1.28125,-0.5625 1.359375,-0.75 Z m 0,0"
             id="path10" />
        </g>
      </g>
    </g>
    <g
       inkscape:label=""
       transform="translate(34.3959,11.536971)"
       id="g34">
      <g
         fill="#000000"
         fill-opacity="1"
         id="g27"
         transform="matrix(0.352778,0,0,0.352778,-0.791281,-0.646333)">
        <g
           id="g26"
           transform="translate(1.993,7.1290002)">
          <path
             d="M 4,-3.171875 C 3.640625,-3.09375 3.625,-2.78125 3.625,-2.75 c 0,0.171875 0.140625,0.296875 0.3125,0.296875 0.171875,0 0.4375,-0.140625 0.4375,-0.484375 0,-0.453125 -0.5,-0.578125 -0.796875,-0.578125 C 3.21875,-3.515625 2.90625,-3.25 2.71875,-2.9375 2.546875,-3.359375 2.140625,-3.515625 1.8125,-3.515625 c -0.875,0 -1.359375,1 -1.359375,1.21875 0,0.078125 0.0625,0.109375 0.125,0.109375 0.09375,0 0.109375,-0.046875 0.125,-0.140625 0.1875,-0.578125 0.671875,-0.96875 1.078125,-0.96875 0.3125,0 0.46875,0.234375 0.46875,0.515625 C 2.25,-2.625 2.15625,-2.25 2.09375,-2 c -0.0625,0.234375 -0.234375,0.9375 -0.28125,1.09375 -0.109375,0.421875 -0.390625,0.765625 -0.75,0.765625 -0.03125,0 -0.234375,0 -0.40625,-0.109375 0.359375,-0.09375 0.359375,-0.421875 0.359375,-0.4375 0,-0.1875 -0.140625,-0.296875 -0.3125,-0.296875 -0.21875,0 -0.453125,0.1875 -0.453125,0.484375 0,0.375 0.390625,0.578125 0.796875,0.578125 0.421875,0 0.71875,-0.3125 0.859375,-0.578125 0.1875,0.390625 0.546875,0.578125 0.9375,0.578125 0.859375,0 1.34375,-1 1.34375,-1.21875 C 4.1875,-1.21875 4.125,-1.25 4.0625,-1.25 c -0.09375,0 -0.109375,0.0625 -0.140625,0.140625 -0.15625,0.53125 -0.609375,0.96875 -1.0625,0.96875 -0.265625,0 -0.453125,-0.171875 -0.453125,-0.515625 0,-0.15625 0.046875,-0.34375 0.15625,-0.78125 0.046875,-0.25 0.21875,-0.9375 0.265625,-1.09375 0.109375,-0.421875 0.390625,-0.765625 0.75,-0.765625 0.046875,0 0.25,0 0.421875,0.125 z m 0,0"
             id="path25" />
        </g>
      </g>
      <g
         fill="#000000"
         fill-opacity="1"
         id="g28"
         transform="matrix(0.352778,0,0,0.352778,-0.791281,-0.646333)">
        <g
           id="use7"
           transform="translate(9.1120005,7.1290002)">
          <path
             d="m 5.828125,-2.65625 c 0.109375,0 0.28125,0 0.28125,-0.1875 0,-0.171875 -0.203125,-0.171875 -0.3125,-0.171875 H 0.78125 c -0.125,0 -0.3125,0 -0.3125,0.171875 0,0.1875 0.15625,0.1875 0.28125,0.1875 z m -0.03125,1.6875 c 0.109375,0 0.3125,0 0.3125,-0.171875 0,-0.1875 -0.171875,-0.1875 -0.28125,-0.1875 H 0.75 c -0.125,0 -0.28125,0 -0.28125,0.1875 0,0.171875 0.1875,0.171875 0.3125,0.171875 z m 0,0"
             id="path27" />
        </g>
      </g>
      <g
         fill="#000000"
         fill-opacity="1"
         id="g29"
         transform="matrix(0.352778,0,0,0.352778,-0.791281,-0.646333)">
        <g
           id="use8"
           transform="translate(18.049669,7.1290002)">
          <path
             d="m 2.25,-1.625 c 0.125,-0.125 0.453125,-0.390625 0.59375,-0.5 0.484375,-0.453125 0.953125,-0.890625 0.953125,-1.609375 0,-0.953125 -0.796875,-1.5625 -1.78125,-1.5625 -0.96875,0 -1.59375,0.71875 -1.59375,1.4375 0,0.390625 0.3125,0.4375 0.421875,0.4375 0.171875,0 0.421875,-0.109375 0.421875,-0.421875 0,-0.40625 -0.40625,-0.40625 -0.5,-0.40625 C 1,-4.84375 1.53125,-5.03125 1.921875,-5.03125 c 0.734375,0 1.125,0.625 1.125,1.296875 0,0.828125 -0.578125,1.4375 -1.53125,2.390625 l -1,1.046875 C 0.421875,-0.21875 0.421875,-0.203125 0.421875,0 H 3.5625 l 0.234375,-1.421875 h -0.25 C 3.53125,-1.265625 3.46875,-0.875 3.375,-0.71875 c -0.046875,0.0625 -0.65625,0.0625 -0.78125,0.0625 H 1.171875 Z m 0,0"
             id="path28" />
        </g>
      </g>
      <g
         fill="#000000"
         fill-opacity="1"
         id="g30"
         transform="matrix(0.352778,0,0,0.352778,-0.791281,-0.646333)">
        <g
           id="use9"
           transform="translate(22.285,7.1290002)">
          <path
             d="m 1.53125,-1.09375 c 0.09375,-0.34375 0.1875,-0.6875 0.265625,-1.046875 0,-0.015625 0.0625,-0.234375 0.0625,-0.28125 0.03125,-0.078125 0.234375,-0.40625 0.4375,-0.59375 0.25,-0.234375 0.53125,-0.28125 0.671875,-0.28125 0.078125,0 0.234375,0.015625 0.34375,0.109375 -0.34375,0.078125 -0.390625,0.359375 -0.390625,0.4375 0,0.171875 0.125,0.296875 0.3125,0.296875 0.203125,0 0.453125,-0.171875 0.453125,-0.5 0,-0.28125 -0.25,-0.5625 -0.703125,-0.5625 -0.546875,0 -0.90625,0.359375 -1.078125,0.578125 C 1.75,-3.515625 1.203125,-3.515625 1.125,-3.515625 c -0.28125,0 -0.484375,0.1875 -0.609375,0.4375 -0.1875,0.359375 -0.28125,0.765625 -0.28125,0.78125 0,0.078125 0.0625,0.109375 0.125,0.109375 0.109375,0 0.109375,-0.03125 0.171875,-0.25 0.09375,-0.390625 0.234375,-0.859375 0.5625,-0.859375 0.21875,0 0.265625,0.203125 0.265625,0.375 0,0.15625 -0.046875,0.296875 -0.109375,0.5625 -0.015625,0.0625 -0.140625,0.53125 -0.171875,0.640625 L 0.78125,-0.515625 c -0.03125,0.125 -0.078125,0.3125 -0.078125,0.34375 0,0.1875 0.15625,0.25 0.265625,0.25 0.28125,0 0.328125,-0.21875 0.390625,-0.5 z m 0,0"
             id="path29" />
        </g>
      </g>
      <g
         fill="#000000"
         fill-opacity="1"
         id="g31"
         transform="matrix(0.352778,0,0,0.352778,-0.791281,-0.646333)">
        <g
           id="use10"
           transform="translate(26.106001,8.125)">
          <path
             d="M 2.828125,-0.515625 C 2.796875,-0.390625 2.75,-0.171875 2.75,-0.140625 2.75,0 2.84375,0.0625 2.953125,0.0625 c 0.109375,0 0.21875,-0.078125 0.265625,-0.171875 0,-0.03125 0.0625,-0.234375 0.09375,-0.359375 L 3.4375,-1 C 3.484375,-1.15625 3.5,-1.265625 3.546875,-1.40625 3.59375,-1.609375 3.8125,-1.921875 4.03125,-2.140625 c 0.109375,-0.125 0.375,-0.296875 0.703125,-0.296875 0.375,0 0.375,0.296875 0.375,0.421875 0,0.34375 -0.25,0.984375 -0.359375,1.25 -0.046875,0.109375 -0.078125,0.203125 -0.078125,0.3125 0,0.296875 0.265625,0.515625 0.59375,0.515625 0.609375,0 0.90625,-0.796875 0.90625,-0.921875 0,-0.015625 0,-0.09375 -0.109375,-0.09375 -0.078125,0 -0.09375,0.03125 -0.125,0.15625 -0.109375,0.34375 -0.359375,0.65625 -0.640625,0.65625 -0.078125,0 -0.171875,-0.03125 -0.171875,-0.21875 0,-0.109375 0.046875,-0.21875 0.09375,-0.34375 C 5.296875,-0.875 5.578125,-1.59375 5.578125,-1.9375 c 0,-0.5 -0.359375,-0.703125 -0.828125,-0.703125 -0.328125,0 -0.71875,0.125 -1.109375,0.625 -0.03125,-0.4375 -0.390625,-0.625 -0.828125,-0.625 -0.296875,0 -0.671875,0.09375 -1.0625,0.5625 -0.03125,-0.453125 -0.453125,-0.5625 -0.671875,-0.5625 -0.234375,0 -0.390625,0.140625 -0.484375,0.328125 -0.15625,0.25 -0.234375,0.578125 -0.234375,0.59375 0,0.0625 0.0625,0.078125 0.109375,0.078125 0.09375,0 0.109375,-0.03125 0.140625,-0.125 C 0.71875,-2.25 0.875,-2.4375 1.0625,-2.4375 c 0.203125,0 0.21875,0.203125 0.21875,0.296875 0,0.09375 -0.0625,0.34375 -0.109375,0.5 C 1.125,-1.46875 1.078125,-1.234375 1.046875,-1.09375 1,-0.953125 0.96875,-0.796875 0.921875,-0.640625 0.875,-0.46875 0.8125,-0.171875 0.8125,-0.140625 0.8125,0 0.90625,0.0625 1.015625,0.0625 c 0.109375,0 0.21875,-0.078125 0.265625,-0.171875 0,-0.03125 0.0625,-0.234375 0.09375,-0.359375 L 1.5,-1 c 0.046875,-0.15625 0.0625,-0.265625 0.109375,-0.40625 0.046875,-0.203125 0.25,-0.515625 0.484375,-0.734375 0.109375,-0.125 0.375,-0.296875 0.6875,-0.296875 0.390625,0 0.390625,0.296875 0.390625,0.421875 0,0.140625 -0.0625,0.375 -0.109375,0.5625 z m 0,0"
             id="path17" />
        </g>
      </g>
      <g
         fill="#000000"
         fill-opacity="1"
         id="g32"
         transform="matrix(0.352778,0,0,0.352778,-0.791281,-0.646333)">
        <g
           id="use11"
           transform="translate(35.494999,7.1290002)">
          <path
             d="m 5.828125,-2.65625 c 0.109375,0 0.28125,0 0.28125,-0.1875 0,-0.171875 -0.203125,-0.171875 -0.3125,-0.171875 H 0.78125 c -0.125,0 -0.3125,0 -0.3125,0.171875 0,0.1875 0.15625,0.1875 0.28125,0.1875 z m -0.03125,1.6875 c 0.109375,0 0.3125,0 0.3125,-0.171875 0,-0.1875 -0.171875,-0.1875 -0.28125,-0.1875 H 0.75 c -0.125,0 -0.28125,0 -0.28125,0.1875 0,0.171875 0.1875,0.171875 0.3125,0.171875 z m 0,0"
             id="path18" />
        </g>
      </g>
      <g
         fill="#000000"
         fill-opacity="1"
         id="g33"
         transform="matrix(0.352778,0,0,0.352778,-0.791281,-0.646333)">
        <g
           id="use12"
           transform="translate(44.432999,7.1290002)">
          <path
             d="m 1.609375,-1.8125 c 0.171875,0 0.765625,-0.015625 1.1875,-0.15625 0.6875,-0.25 0.71875,-0.71875 0.71875,-0.84375 0,-0.453125 -0.421875,-0.703125 -0.9375,-0.703125 -0.90625,0 -2.1875,0.703125 -2.1875,2.125 0,0.8125 0.5,1.46875 1.375,1.46875 1.234375,0 1.90625,-0.796875 1.90625,-0.90625 0,-0.078125 -0.078125,-0.125 -0.125,-0.125 -0.046875,0 -0.078125,0.015625 -0.109375,0.0625 -0.625,0.75 -1.53125,0.75 -1.65625,0.75 -0.59375,0 -0.765625,-0.5 -0.765625,-0.9375 0,-0.25 0.078125,-0.609375 0.109375,-0.734375 z M 1.1875,-2.046875 c 0.25,-0.96875 0.984375,-1.25 1.390625,-1.25 0.3125,0 0.625,0.171875 0.625,0.484375 0,0.765625 -1.3125,0.765625 -1.65625,0.765625 z m 0,0"
             id="path19" />
        </g>
      </g>
    </g>
    <path
       style="fill:none;stroke:#ff0000;stroke-width:0.15875;stroke-linejoin:round;stroke-dasharray:0.3175, 0.15875;stroke-dashoffset:0"
       d="M 29.104234,6.6146202 V 34.39587"
       id="path34" />
    <text
       xml:space="preserve"
       style="font-size:1.41111px;font-family:Futura;-inkscape-font-specification:'Futura, Normal';fill:#000000;stroke:none;stroke-width:0.105833;stroke-linejoin:round;stroke-dasharray:none;stroke-dashoffset:0"
       x="29.026623"
       y="5.1936307"
       id="text34"><tspan
         sodipodi:role="line"
         id="tspan34"
         style="fill:#000000;stroke:none;stroke-width:0.105833"
         x="29.026623"
         y="5.1936307">plano medio</tspan></text>
    <g
       inkscape:label=""
       transform="translate(34.3959,16.134106)"
       id="g43">
      <g
         fill="#000000"
         fill-opacity="1"
         id="g36"
         transform="matrix(0.352778,0,0,0.352778,-0.791281,-0.673232)">
        <g
           id="g35"
           transform="translate(1.993,5.4239998)">
          <path
             d="M 4,-3.171875 C 3.640625,-3.09375 3.625,-2.78125 3.625,-2.75 c 0,0.171875 0.140625,0.296875 0.3125,0.296875 0.171875,0 0.4375,-0.140625 0.4375,-0.484375 0,-0.453125 -0.5,-0.578125 -0.796875,-0.578125 C 3.21875,-3.515625 2.90625,-3.25 2.71875,-2.9375 2.546875,-3.359375 2.140625,-3.515625 1.8125,-3.515625 c -0.875,0 -1.359375,1 -1.359375,1.21875 0,0.078125 0.0625,0.109375 0.125,0.109375 0.09375,0 0.109375,-0.046875 0.125,-0.140625 0.1875,-0.578125 0.671875,-0.96875 1.078125,-0.96875 0.3125,0 0.46875,0.234375 0.46875,0.515625 C 2.25,-2.625 2.15625,-2.25 2.09375,-2 c -0.0625,0.234375 -0.234375,0.9375 -0.28125,1.09375 -0.109375,0.421875 -0.390625,0.765625 -0.75,0.765625 -0.03125,0 -0.234375,0 -0.40625,-0.109375 0.359375,-0.09375 0.359375,-0.421875 0.359375,-0.4375 0,-0.1875 -0.140625,-0.296875 -0.3125,-0.296875 -0.21875,0 -0.453125,0.1875 -0.453125,0.484375 0,0.375 0.390625,0.578125 0.796875,0.578125 0.421875,0 0.71875,-0.3125 0.859375,-0.578125 0.1875,0.390625 0.546875,0.578125 0.9375,0.578125 0.859375,0 1.34375,-1 1.34375,-1.21875 C 4.1875,-1.21875 4.125,-1.25 4.0625,-1.25 c -0.09375,0 -0.109375,0.0625 -0.140625,0.140625 -0.15625,0.53125 -0.609375,0.96875 -1.0625,0.96875 -0.265625,0 -0.453125,-0.171875 -0.453125,-0.515625 0,-0.15625 0.046875,-0.34375 0.15625,-0.78125 0.046875,-0.25 0.21875,-0.9375 0.265625,-1.09375 0.109375,-0.421875 0.390625,-0.765625 0.75,-0.765625 0.046875,0 0.25,0 0.421875,0.125 z m 0,0"
             id="path35" />
        </g>
      </g>
      <g
         fill="#000000"
         fill-opacity="1"
         id="g38"
         transform="matrix(0.352778,0,0,0.352778,-0.791281,-0.673232)">
        <g
           id="g37"
           transform="translate(9.1120005,5.4239998)">
          <path
             d="m 5.828125,-2.65625 c 0.109375,0 0.28125,0 0.28125,-0.1875 0,-0.171875 -0.203125,-0.171875 -0.3125,-0.171875 H 0.78125 c -0.125,0 -0.3125,0 -0.3125,0.171875 0,0.1875 0.15625,0.1875 0.28125,0.1875 z m -0.03125,1.6875 c 0.109375,0 0.3125,0 0.3125,-0.171875 0,-0.1875 -0.171875,-0.1875 -0.28125,-0.1875 H 0.75 c -0.125,0 -0.28125,0 -0.28125,0.1875 0,0.171875 0.1875,0.171875 0.3125,0.171875 z m 0,0"
             id="path36" />
        </g>
      </g>
      <g
         fill="#000000"
         fill-opacity="1"
         id="g40"
         transform="matrix(0.352778,0,0,0.352778,-0.791281,-0.673232)">
        <g
           id="g39"
           transform="translate(18.051001,5.4239998)">
          <path
             d="m 1.53125,-1.09375 c 0.09375,-0.34375 0.1875,-0.6875 0.265625,-1.046875 0,-0.015625 0.0625,-0.234375 0.0625,-0.28125 0.03125,-0.078125 0.234375,-0.40625 0.4375,-0.59375 0.25,-0.234375 0.53125,-0.28125 0.671875,-0.28125 0.078125,0 0.234375,0.015625 0.34375,0.109375 -0.34375,0.078125 -0.390625,0.359375 -0.390625,0.4375 0,0.171875 0.125,0.296875 0.3125,0.296875 0.203125,0 0.453125,-0.171875 0.453125,-0.5 0,-0.28125 -0.25,-0.5625 -0.703125,-0.5625 -0.546875,0 -0.90625,0.359375 -1.078125,0.578125 C 1.75,-3.515625 1.203125,-3.515625 1.125,-3.515625 c -0.28125,0 -0.484375,0.1875 -0.609375,0.4375 -0.1875,0.359375 -0.28125,0.765625 -0.28125,0.78125 0,0.078125 0.0625,0.109375 0.125,0.109375 0.109375,0 0.109375,-0.03125 0.171875,-0.25 0.09375,-0.390625 0.234375,-0.859375 0.5625,-0.859375 0.21875,0 0.265625,0.203125 0.265625,0.375 0,0.15625 -0.046875,0.296875 -0.109375,0.5625 -0.015625,0.0625 -0.140625,0.53125 -0.171875,0.640625 L 0.78125,-0.515625 c -0.03125,0.125 -0.078125,0.3125 -0.078125,0.34375 0,0.1875 0.15625,0.25 0.265625,0.25 0.28125,0 0.328125,-0.21875 0.390625,-0.5 z m 0,0"
             id="path38" />
        </g>
      </g>
      <g
         fill="#000000"
         fill-opacity="1"
         id="g42"
         transform="matrix(0.352778,0,0,0.352778,-0.791281,-0.673232)">
        <g
           id="g41"
           transform="translate(21.872,6.4200001)">
          <path
             d="M 2.828125,-0.515625 C 2.796875,-0.390625 2.75,-0.171875 2.75,-0.140625 2.75,0 2.84375,0.0625 2.953125,0.0625 c 0.109375,0 0.21875,-0.078125 0.265625,-0.171875 0,-0.03125 0.0625,-0.234375 0.09375,-0.359375 L 3.4375,-1 C 3.484375,-1.15625 3.5,-1.265625 3.546875,-1.40625 3.59375,-1.609375 3.8125,-1.921875 4.03125,-2.140625 c 0.109375,-0.125 0.375,-0.296875 0.703125,-0.296875 0.375,0 0.375,0.296875 0.375,0.421875 0,0.34375 -0.25,0.984375 -0.359375,1.25 -0.046875,0.109375 -0.078125,0.203125 -0.078125,0.3125 0,0.296875 0.265625,0.515625 0.59375,0.515625 0.609375,0 0.90625,-0.796875 0.90625,-0.921875 0,-0.015625 0,-0.09375 -0.109375,-0.09375 -0.078125,0 -0.09375,0.03125 -0.125,0.15625 -0.109375,0.34375 -0.359375,0.65625 -0.640625,0.65625 -0.078125,0 -0.171875,-0.03125 -0.171875,-0.21875 0,-0.109375 0.046875,-0.21875 0.09375,-0.34375 C 5.296875,-0.875 5.578125,-1.59375 5.578125,-1.9375 c 0,-0.5 -0.359375,-0.703125 -0.828125,-0.703125 -0.328125,0 -0.71875,0.125 -1.109375,0.625 -0.03125,-0.4375 -0.390625,-0.625 -0.828125,-0.625 -0.296875,0 -0.671875,0.09375 -1.0625,0.5625 -0.03125,-0.453125 -0.453125,-0.5625 -0.671875,-0.5625 -0.234375,0 -0.390625,0.140625 -0.484375,0.328125 -0.15625,0.25 -0.234375,0.578125 -0.234375,0.59375 0,0.0625 0.0625,0.078125 0.109375,0.078125 0.09375,0 0.109375,-0.03125 0.140625,-0.125 C 0.71875,-2.25 0.875,-2.4375 1.0625,-2.4375 c 0.203125,0 0.21875,0.203125 0.21875,0.296875 0,0.09375 -0.0625,0.34375 -0.109375,0.5 C 1.125,-1.46875 1.078125,-1.234375 1.046875,-1.09375 1,-0.953125 0.96875,-0.796875 0.921875,-0.640625 0.875,-0.46875 0.8125,-0.171875 0.8125,-0.140625 0.8125,0 0.90625,0.0625 1.015625,0.0625 c 0.109375,0 0.21875,-0.078125 0.265625,-0.171875 0,-0.03125 0.0625,-0.234375 0.09375,-0.359375 L 1.5,-1 c 0.046875,-0.15625 0.0625,-0.265625 0.109375,-0.40625 0.046875,-0.203125 0.25,-0.515625 0.484375,-0.734375 0.109375,-0.125 0.375,-0.296875 0.6875,-0.296875 0.390625,0 0.390625,0.296875 0.390625,0.421875 0,0.140625 -0.0625,0.375 -0.109375,0.5625 z m 0,0"
             id="path11" />
        </g>
      </g>
    </g>
    <g
       inkscape:label=""
       transform="translate(26.060008,41.69947)"
       id="g49">
      <g
         fill="#000000"
         fill-opacity="1"
         id="g45"
         transform="matrix(0.352778,0,0,0.352778,-0.785768,-0.673232)">
        <g
           id="g44"
           transform="translate(1.993,5.4239998)">
          <path
             d="m 1.53125,-1.09375 c 0.09375,-0.34375 0.1875,-0.6875 0.265625,-1.046875 0,-0.015625 0.0625,-0.234375 0.0625,-0.28125 0.03125,-0.078125 0.234375,-0.40625 0.4375,-0.59375 0.25,-0.234375 0.53125,-0.28125 0.671875,-0.28125 0.078125,0 0.234375,0.015625 0.34375,0.109375 -0.34375,0.078125 -0.390625,0.359375 -0.390625,0.4375 0,0.171875 0.125,0.296875 0.3125,0.296875 0.203125,0 0.453125,-0.171875 0.453125,-0.5 0,-0.28125 -0.25,-0.5625 -0.703125,-0.5625 -0.546875,0 -0.90625,0.359375 -1.078125,0.578125 C 1.75,-3.515625 1.203125,-3.515625 1.125,-3.515625 c -0.28125,0 -0.484375,0.1875 -0.609375,0.4375 -0.1875,0.359375 -0.28125,0.765625 -0.28125,0.78125 0,0.078125 0.0625,0.109375 0.125,0.109375 0.109375,0 0.109375,-0.03125 0.171875,-0.25 0.09375,-0.390625 0.234375,-0.859375 0.5625,-0.859375 0.21875,0 0.265625,0.203125 0.265625,0.375 0,0.15625 -0.046875,0.296875 -0.109375,0.5625 -0.015625,0.0625 -0.140625,0.53125 -0.171875,0.640625 L 0.78125,-0.515625 c -0.03125,0.125 -0.078125,0.3125 -0.078125,0.34375 0,0.1875 0.15625,0.25 0.265625,0.25 0.28125,0 0.328125,-0.21875 0.390625,-0.5 z m 0,0"
             id="path43" />
        </g>
      </g>
      <g
         fill="#000000"
         fill-opacity="1"
         id="g48"
         transform="matrix(0.352778,0,0,0.352778,-0.785768,-0.673232)">
        <g
           id="g46"
           transform="translate(5.8140001,6.4200001)">
          <path
             d="M 2.828125,-0.515625 C 2.796875,-0.390625 2.75,-0.171875 2.75,-0.140625 2.75,0 2.84375,0.0625 2.953125,0.0625 c 0.109375,0 0.21875,-0.078125 0.265625,-0.171875 0,-0.03125 0.0625,-0.234375 0.09375,-0.359375 L 3.4375,-1 C 3.484375,-1.15625 3.5,-1.265625 3.546875,-1.40625 3.59375,-1.609375 3.8125,-1.921875 4.03125,-2.140625 c 0.109375,-0.125 0.375,-0.296875 0.703125,-0.296875 0.375,0 0.375,0.296875 0.375,0.421875 0,0.34375 -0.25,0.984375 -0.359375,1.25 -0.046875,0.109375 -0.078125,0.203125 -0.078125,0.3125 0,0.296875 0.265625,0.515625 0.59375,0.515625 0.609375,0 0.90625,-0.796875 0.90625,-0.921875 0,-0.015625 0,-0.09375 -0.109375,-0.09375 -0.078125,0 -0.09375,0.03125 -0.125,0.15625 -0.109375,0.34375 -0.359375,0.65625 -0.640625,0.65625 -0.078125,0 -0.171875,-0.03125 -0.171875,-0.21875 0,-0.109375 0.046875,-0.21875 0.09375,-0.34375 C 5.296875,-0.875 5.578125,-1.59375 5.578125,-1.9375 c 0,-0.5 -0.359375,-0.703125 -0.828125,-0.703125 -0.328125,0 -0.71875,0.125 -1.109375,0.625 -0.03125,-0.4375 -0.390625,-0.625 -0.828125,-0.625 -0.296875,0 -0.671875,0.09375 -1.0625,0.5625 -0.03125,-0.453125 -0.453125,-0.5625 -0.671875,-0.5625 -0.234375,0 -0.390625,0.140625 -0.484375,0.328125 -0.15625,0.25 -0.234375,0.578125 -0.234375,0.59375 0,0.0625 0.0625,0.078125 0.109375,0.078125 0.09375,0 0.109375,-0.03125 0.140625,-0.125 C 0.71875,-2.25 0.875,-2.4375 1.0625,-2.4375 c 0.203125,0 0.21875,0.203125 0.21875,0.296875 0,0.09375 -0.0625,0.34375 -0.109375,0.5 C 1.125,-1.46875 1.078125,-1.234375 1.046875,-1.09375 1,-0.953125 0.96875,-0.796875 0.921875,-0.640625 0.875,-0.46875 0.8125,-0.171875 0.8125,-0.140625 0.8125,0 0.90625,0.0625 1.015625,0.0625 c 0.109375,0 0.21875,-0.078125 0.265625,-0.171875 0,-0.03125 0.0625,-0.234375 0.09375,-0.359375 L 1.5,-1 c 0.046875,-0.15625 0.0625,-0.265625 0.109375,-0.40625 0.046875,-0.203125 0.25,-0.515625 0.484375,-0.734375 0.109375,-0.125 0.375,-0.296875 0.6875,-0.296875 0.390625,0 0.390625,0.296875 0.390625,0.421875 0,0.140625 -0.0625,0.375 -0.109375,0.5625 z m 0,0"
             id="path45" />
        </g>
      </g>
    </g>
    <g
       inkscape:label=""
       transform="translate(43.382385,31.642547)"
       id="g62">
      <g
         fill="#000000"
         fill-opacity="1"
         id="g54"
         transform="matrix(0.352778,0,0,0.352778,-0.774744,-0.674026)">
        <g
           id="g50"
           transform="translate(1.993,6.895)">
          <path
             d="m 1.765625,-3.171875 h 0.78125 c 0.140625,0 0.234375,0 0.234375,-0.15625 C 2.78125,-3.4375 2.6875,-3.4375 2.546875,-3.4375 h -0.71875 l 0.28125,-1.125 c 0.03125,-0.125 0.03125,-0.15625 0.03125,-0.171875 0,-0.171875 -0.125,-0.25 -0.265625,-0.25 -0.265625,0 -0.328125,0.21875 -0.40625,0.578125 l -0.25,0.96875 H 0.453125 c -0.15625,0 -0.25,0 -0.25,0.15625 0,0.109375 0.09375,0.109375 0.234375,0.109375 h 0.71875 l -0.484375,1.90625 C 0.625,-1.0625 0.5625,-0.78125 0.5625,-0.671875 c 0,0.484375 0.390625,0.75 0.8125,0.75 0.84375,0 1.328125,-1.125 1.328125,-1.21875 C 2.703125,-1.234375 2.640625,-1.25 2.59375,-1.25 2.5,-1.25 2.5,-1.21875 2.4375,-1.09375 2.28125,-0.703125 1.875,-0.140625 1.390625,-0.140625 1.234375,-0.140625 1.125,-0.25 1.125,-0.515625 c 0,-0.15625 0.03125,-0.234375 0.046875,-0.34375 z m 0,0"
             id="path49" />
        </g>
      </g>
      <g
         fill="#000000"
         fill-opacity="1"
         id="g57"
         transform="matrix(0.352778,0,0,0.352778,-0.774744,-0.674026)">
        <g
           id="g56"
           transform="translate(7.402307,6.895)">
          <path
             d="M 5.703125,-1.796875 C 5.796875,-1.84375 5.875,-1.890625 5.875,-1.984375 5.875,-2.09375 5.796875,-2.140625 5.703125,-2.1875 L 1.03125,-4.4375 C 0.921875,-4.5 0.90625,-4.5 0.890625,-4.5 c -0.109375,0 -0.1875,0.078125 -0.1875,0.1875 0,0.109375 0.0625,0.15625 0.171875,0.203125 l 4.390625,2.125 L 0.875,0.125 C 0.765625,0.171875 0.703125,0.21875 0.703125,0.328125 c 0,0.109375 0.078125,0.1875 0.1875,0.1875 0.015625,0 0.03125,0 0.140625,-0.0625 z m 0,0"
             id="path56" />
        </g>
      </g>
      <g
         fill="#000000"
         fill-opacity="1"
         id="g59"
         transform="matrix(0.352778,0,0,0.352778,-0.774744,-0.674026)">
        <g
           id="g58"
           transform="translate(16.339977,6.895)">
          <path
             d="m 1.765625,-3.171875 h 0.78125 c 0.140625,0 0.234375,0 0.234375,-0.15625 C 2.78125,-3.4375 2.6875,-3.4375 2.546875,-3.4375 h -0.71875 l 0.28125,-1.125 c 0.03125,-0.125 0.03125,-0.15625 0.03125,-0.171875 0,-0.171875 -0.125,-0.25 -0.265625,-0.25 -0.265625,0 -0.328125,0.21875 -0.40625,0.578125 l -0.25,0.96875 H 0.453125 c -0.15625,0 -0.25,0 -0.25,0.15625 0,0.109375 0.09375,0.109375 0.234375,0.109375 h 0.71875 l -0.484375,1.90625 C 0.625,-1.0625 0.5625,-0.78125 0.5625,-0.671875 c 0,0.484375 0.390625,0.75 0.8125,0.75 0.84375,0 1.328125,-1.125 1.328125,-1.21875 C 2.703125,-1.234375 2.640625,-1.25 2.59375,-1.25 2.5,-1.25 2.5,-1.21875 2.4375,-1.09375 2.28125,-0.703125 1.875,-0.140625 1.390625,-0.140625 1.234375,-0.140625 1.125,-0.25 1.125,-0.515625 c 0,-0.15625 0.03125,-0.234375 0.046875,-0.34375 z m 0,0"
             id="path57" />
        </g>
      </g>
      <g
         fill="#000000"
         fill-opacity="1"
         id="g61"
         transform="matrix(0.352778,0,0,0.352778,-0.774744,-0.674026)">
        <g
           id="g60"
           transform="translate(19.4,7.8909998)">
          <path
             d="m 3.484375,-1.890625 c -0.625,-0.671875 -1.265625,-0.75 -1.578125,-0.75 -0.765625,0 -1.34375,0.625 -1.34375,1.359375 0,0.6875 0.546875,1.34375 1.328125,1.34375 0.734375,0 1.34375,-0.484375 1.703125,-1 l 0.21875,0.25 c 0.640625,0.671875 1.265625,0.75 1.578125,0.75 C 6.171875,0.0625 6.75,-0.5625 6.75,-1.296875 6.75,-2 6.203125,-2.640625 5.421875,-2.640625 c -0.734375,0 -1.34375,0.484375 -1.71875,1 z m 0.421875,0.46875 C 4.25,-1.890625 4.765625,-2.375 5.46875,-2.375 c 0.640625,0 1.078125,0.515625 1.078125,1.078125 0,0.578125 -0.5,1 -1.046875,1 -0.46875,0 -0.890625,-0.28125 -1.59375,-1.125 z M 3.390625,-1.15625 C 3.046875,-0.6875 2.546875,-0.203125 1.84375,-0.203125 1.1875,-0.203125 0.75,-0.71875 0.75,-1.28125 c 0,-0.578125 0.5,-1 1.0625,-1 0.46875,0 0.875,0.28125 1.578125,1.125 z m 0,0"
             id="path59" />
        </g>
      </g>
    </g>
    <path
       style="fill:none;stroke:#ff5555;stroke-width:0.15875;stroke-linejoin:round;stroke-dasharray:0.3175, 0.15875;stroke-dashoffset:0"
       d="M 27.197105,6.6146202 V 34.39587"
       id="path62" />
    <path
       style="fill:none;stroke:#0000ff;stroke-width:0.105833;stroke-linejoin:round;stroke-dasharray:none;stroke-dashoffset:0;marker-end:url(#ArrowWide)"
       d="M 33.844444,12.800937 H 31.750067"
       id="path68" />
    <path
       style="fill:none;stroke:#0000ff;stroke-width:0.105833;stroke-linejoin:round;stroke-dasharray:none;stroke-dashoffset:0;marker-end:url(#ArrowWide)"
       d="m 33.844444,16.843037 h -4.74021"
       id="path70"
       sodipodi:nodetypes="cc" />
    <path
       style="fill:none;stroke:#0000ff;stroke-width:0.105833;stroke-linejoin:round;stroke-dasharray:none;stroke-dashoffset:0;marker-end:url(#ArrowWide)"
       d="M 33.844444,20.811786 H 27.197105"
       id="path71"
       sodipodi:nodetypes="cc" />
    <path
       style="fill:none;stroke:#0000ff;stroke-width:0.105833;stroke-linejoin:round;stroke-dasharray:none;stroke-dashoffset:0;marker-end:url(#ArrowWide)"
       d="M 33.844444,24.780536 H 26.458401"
       id="path72"
       sodipodi:nodetypes="cc" />
    <path
       style="fill:none;stroke:#000000;stroke-width:0.132292;stroke-linejoin:round;stroke-dasharray:none;stroke-dashoffset:0"
       d="m 26.458367,38.298473 v 2.645833"
       id="path75" />
    <path
       style="fill:none;stroke:#000000;stroke-width:0.132292;stroke-linejoin:round;stroke-dasharray:none;stroke-dashoffset:0"
       d="m 29.104234,38.298473 v 2.645833"
       id="path76" />
    <path
       style="fill:none;stroke:#000000;stroke-width:0.132292;stroke-linejoin:round;stroke-dasharray:none;stroke-dashoffset:0"
       d="M 29.104234,39.621389 H 26.458367"
       id="path77"
       sodipodi:nodetypes="cc" />
    <g
       inkscape:label=""
       transform="translate(23.647202,29.115226)"
       id="g82">
      <g
         fill="#000000"
         fill-opacity="1"
         id="g79"
         transform="matrix(0.352778,0,0,0.352778,-0.774744,-0.674026)">
        <g
           id="g78"
           transform="translate(1.993,6.895)">
          <path
             d="m 1.765625,-3.171875 h 0.78125 c 0.140625,0 0.234375,0 0.234375,-0.15625 C 2.78125,-3.4375 2.6875,-3.4375 2.546875,-3.4375 h -0.71875 l 0.28125,-1.125 c 0.03125,-0.125 0.03125,-0.15625 0.03125,-0.171875 0,-0.171875 -0.125,-0.25 -0.265625,-0.25 -0.265625,0 -0.328125,0.21875 -0.40625,0.578125 l -0.25,0.96875 H 0.453125 c -0.15625,0 -0.25,0 -0.25,0.15625 0,0.109375 0.09375,0.109375 0.234375,0.109375 h 0.71875 l -0.484375,1.90625 C 0.625,-1.0625 0.5625,-0.78125 0.5625,-0.671875 c 0,0.484375 0.390625,0.75 0.8125,0.75 0.84375,0 1.328125,-1.125 1.328125,-1.21875 C 2.703125,-1.234375 2.640625,-1.25 2.59375,-1.25 2.5,-1.25 2.5,-1.21875 2.4375,-1.09375 2.28125,-0.703125 1.875,-0.140625 1.390625,-0.140625 1.234375,-0.140625 1.125,-0.25 1.125,-0.515625 c 0,-0.15625 0.03125,-0.234375 0.046875,-0.34375 z m 0,0"
             id="path78" />
        </g>
      </g>
    </g>
    <path
       style="fill:none;stroke:#0000ff;stroke-width:0.105833;stroke-linejoin:round;stroke-dasharray:none;stroke-dashoffset:0;marker-end:url(#ArrowWide)"
       d="m 24.845099,30.072203 h 1.613302"
       id="path82"
       sodipodi:nodetypes="cc" />
  </g>
</svg>
