<?xml version="1.0" encoding="UTF-8" standalone="no"?>
<!-- Created with Inkscape (http://www.inkscape.org/) -->

<svg
   width="64.951912mm"
   height="42.5mm"
   viewBox="0 0 245.48755 160.62992"
   version="1.1"
   id="svg1"
   inkscape:version="1.3.2 (091e20ef0f, 2023-11-25)"
   sodipodi:docname="figura02_10.svg"
   xmlns:inkscape="http://www.inkscape.org/namespaces/inkscape"
   xmlns:sodipodi="http://sodipodi.sourceforge.net/DTD/sodipodi-0.dtd"
   xmlns="http://www.w3.org/2000/svg"
   xmlns:svg="http://www.w3.org/2000/svg">
  <sodipodi:namedview
     id="namedview1"
     pagecolor="#ffffff"
     bordercolor="#000000"
     borderopacity="0.25"
     inkscape:showpageshadow="2"
     inkscape:pageopacity="0.0"
     inkscape:pagecheckerboard="0"
     inkscape:deskcolor="#d1d1d1"
     inkscape:document-units="mm"
     borderlayer="false"
     showborder="false"
     showgrid="true"
     showguides="false"
     inkscape:zoom="2.8284271"
     inkscape:cx="72.124892"
     inkscape:cy="85.559921"
     inkscape:window-width="1920"
     inkscape:window-height="1046"
     inkscape:window-x="1920"
     inkscape:window-y="18"
     inkscape:window-maximized="1"
     inkscape:current-layer="layer1">
    <inkscape:grid
       type="axonomgrid"
       id="grid1"
       units="mm"
       originx="-157.11202"
       originy="-393.07087"
       spacingx="0"
       spacingy="3.7795276"
       empcolor="#0099e5"
       empopacity="0.30196078"
       color="#0099e5"
       opacity="0.14901961"
       empspacing="5"
       dotted="false"
       gridanglex="30"
       gridanglez="30"
       visible="true" />
  </sodipodi:namedview>
  <defs
     id="defs1" />
  <g
     inkscape:label="Capa 1"
     inkscape:groupmode="layer"
     id="layer1"
     transform="translate(-157.11201,-393.07089)">
    <path
       style="fill:none;stroke:#0000ff;stroke-width:1.13386;stroke-linecap:round;stroke-linejoin:round;stroke-dasharray:none;stroke-dashoffset:0"
       d="m 212.75587,462.99217 -39.27802,22.67714"
       id="path54"
       sodipodi:nodetypes="cc" />
    <path
       style="fill:none;stroke:#000000;stroke-width:1.13386;stroke-linecap:round;stroke-linejoin:round;stroke-dasharray:none"
       id="path5"
       sodipodi:type="arc"
       sodipodi:cx="294.58502"
       sodipodi:cy="472.44095"
       sodipodi:rx="65.463341"
       sodipodi:ry="65.463341"
       sodipodi:start="0"
       sodipodi:end="1.0471976"
       sodipodi:open="true"
       sodipodi:arc-type="arc"
       d="m 360.04836,472.44095 a 65.463341,65.463341 0 0 1 -32.73167,56.69292" />
    <path
       style="fill:none;stroke:#000000;stroke-width:1.13386;stroke-linecap:round;stroke-linejoin:round;stroke-dasharray:none"
       id="path6"
       sodipodi:type="arc"
       sodipodi:cx="310.95087"
       sodipodi:cy="481.88977"
       sodipodi:rx="32.73167"
       sodipodi:ry="32.73167"
       sodipodi:start="0"
       sodipodi:end="1.0471976"
       sodipodi:open="true"
       sodipodi:arc-type="arc"
       d="M 343.68254,481.88977 A 32.73167,32.73167 0 0 1 327.3167,510.23623" />
    <path
       style="fill:none;stroke:#000000;stroke-width:1.13386;stroke-linecap:round;stroke-linejoin:round;stroke-dasharray:none"
       id="path7"
       sodipodi:type="arc"
       sodipodi:cx="343.68253"
       sodipodi:cy="500.78741"
       sodipodi:rx="32.73167"
       sodipodi:ry="32.73167"
       sodipodi:start="3.1415927"
       sodipodi:end="4.1887902"
       sodipodi:open="true"
       sodipodi:arc-type="arc"
       d="m 310.95086,500.78741 a 32.73167,32.73167 0 0 1 16.36583,-28.34645" />
    <path
       style="fill:none;stroke:#000000;stroke-width:1.13386;stroke-linecap:round;stroke-linejoin:round;stroke-dasharray:none"
       id="path8"
       sodipodi:type="arc"
       sodipodi:cx="360.04837"
       sodipodi:cy="510.23624"
       sodipodi:rx="65.463341"
       sodipodi:ry="65.463341"
       sodipodi:start="3.1415927"
       sodipodi:end="4.1887902"
       sodipodi:open="true"
       sodipodi:arc-type="arc"
       d="M 294.58503,510.23624 A 65.463341,65.463341 0 0 1 327.3167,453.54332" />
    <path
       style="fill:none;stroke:#000000;stroke-width:1.13386;stroke-linecap:round;stroke-linejoin:round;stroke-dasharray:none"
       id="path16"
       sodipodi:type="arc"
       sodipodi:cx="338.22726"
       sodipodi:cy="472.44095"
       sodipodi:rx="21.821104"
       sodipodi:ry="21.821104"
       sodipodi:start="4.1887902"
       sodipodi:end="0"
       sodipodi:arc-type="arc"
       d="m 327.31671,453.54332 a 21.821104,21.821104 0 0 1 21.82111,0 21.821104,21.821104 0 0 1 10.91055,18.89763"
       sodipodi:open="true" />
    <path
       style="fill:none;stroke:#000000;stroke-width:1.13386;stroke-linecap:round;stroke-linejoin:round;stroke-dasharray:none"
       id="path17"
       sodipodi:type="arc"
       sodipodi:cx="316.40613"
       sodipodi:cy="510.23624"
       sodipodi:rx="21.821114"
       sodipodi:ry="21.821114"
       sodipodi:start="1.0471976"
       sodipodi:end="3.1415927"
       sodipodi:arc-type="arc"
       d="m 327.31668,529.13388 a 21.821114,21.821114 0 0 1 -21.82111,-10e-6 21.821114,21.821114 0 0 1 -10.91056,-18.89763"
       sodipodi:open="true" />
    <path
       style="fill:none;stroke:#000000;stroke-width:1.13386;stroke-linecap:round;stroke-linejoin:round;stroke-dasharray:none"
       id="path20"
       sodipodi:type="arc"
       sodipodi:cx="332.77148"
       sodipodi:cy="481.89066"
       sodipodi:rx="10.911057"
       sodipodi:ry="10.911057"
       sodipodi:start="4.1887902"
       sodipodi:end="0"
       sodipodi:arc-type="arc"
       d="m 327.31596,472.4414 a 10.911057,10.911057 0 0 1 10.91105,0 10.911057,10.911057 0 0 1 5.45553,9.44926"
       sodipodi:open="true" />
    <path
       style="fill:none;stroke:#000000;stroke-width:1.13386;stroke-linecap:round;stroke-linejoin:round;stroke-dasharray:none"
       id="path21"
       sodipodi:type="arc"
       sodipodi:cx="321.86142"
       sodipodi:cy="500.78741"
       sodipodi:rx="10.910561"
       sodipodi:ry="10.910561"
       sodipodi:start="1.0471976"
       sodipodi:end="3.1415927"
       sodipodi:arc-type="arc"
       d="m 327.3167,510.23624 a 10.910561,10.910561 0 0 1 -10.91056,0 10.910561,10.910561 0 0 1 -5.45528,-9.44883"
       sodipodi:open="true" />
    <path
       style="fill:none;stroke:#000000;stroke-width:0.377953;stroke-linecap:round;stroke-linejoin:round;stroke-dasharray:1.51181, 1.51181;stroke-dashoffset:0"
       id="path24"
       sodipodi:type="arc"
       sodipodi:cx="212.75584"
       sodipodi:cy="425.19684"
       sodipodi:rx="65.463341"
       sodipodi:ry="65.463341"
       sodipodi:start="0"
       sodipodi:end="1.0471976"
       sodipodi:open="true"
       sodipodi:arc-type="arc"
       d="m 278.21918,425.19684 a 65.463341,65.463341 0 0 1 -32.73167,56.69292" />
    <path
       style="fill:none;stroke:#000000;stroke-width:0.377953;stroke-linecap:round;stroke-linejoin:round;stroke-dasharray:1.51181, 1.51181;stroke-dashoffset:0"
       id="path25"
       sodipodi:type="arc"
       sodipodi:cx="229.12169"
       sodipodi:cy="434.64566"
       sodipodi:rx="32.73167"
       sodipodi:ry="32.73167"
       sodipodi:start="0"
       sodipodi:end="1.0471976"
       sodipodi:open="true"
       sodipodi:arc-type="arc"
       d="m 261.85336,434.64566 a 32.73167,32.73167 0 0 1 -16.36584,28.34646" />
    <path
       style="fill:none;stroke:#000000;stroke-width:0.377953;stroke-linecap:round;stroke-linejoin:round;stroke-dasharray:1.51181, 1.51181;stroke-dashoffset:0"
       id="path26"
       sodipodi:type="arc"
       sodipodi:cx="261.85339"
       sodipodi:cy="453.5433"
       sodipodi:rx="32.73167"
       sodipodi:ry="32.73167"
       sodipodi:start="3.1415927"
       sodipodi:end="4.1887902"
       sodipodi:open="true"
       sodipodi:arc-type="arc"
       d="m 229.12172,453.5433 a 32.73167,32.73167 0 0 1 16.36584,-28.34645" />
    <path
       style="fill:none;stroke:#000000;stroke-width:1.13386;stroke-linecap:round;stroke-linejoin:round;stroke-dasharray:none"
       id="path27"
       sodipodi:type="arc"
       sodipodi:cx="278.21924"
       sodipodi:cy="462.99213"
       sodipodi:rx="65.463341"
       sodipodi:ry="65.463341"
       sodipodi:start="3.1415927"
       sodipodi:end="4.1887902"
       sodipodi:open="true"
       sodipodi:arc-type="arc"
       d="m 212.7559,462.99213 a 65.463341,65.463341 0 0 1 32.73167,-56.69292" />
    <path
       style="fill:none;stroke:#000000;stroke-width:0.377953;stroke-linecap:round;stroke-linejoin:round;stroke-dasharray:1.51181, 1.51181;stroke-dashoffset:0"
       id="path32"
       sodipodi:type="arc"
       sodipodi:cx="256.39813"
       sodipodi:cy="425.19684"
       sodipodi:rx="21.821104"
       sodipodi:ry="21.821104"
       sodipodi:start="5.2359878"
       sodipodi:end="0"
       sodipodi:arc-type="arc"
       d="m 267.30869,406.29921 a 21.821104,21.821104 0 0 1 10.91055,18.89763"
       sodipodi:open="true" />
    <path
       style="fill:none;stroke:#000000;stroke-width:0.377953;stroke-linecap:round;stroke-linejoin:round;stroke-dasharray:1.51181, 1.51181;stroke-dashoffset:0"
       id="path33"
       sodipodi:type="arc"
       sodipodi:cx="234.57695"
       sodipodi:cy="462.99213"
       sodipodi:rx="21.821114"
       sodipodi:ry="21.821114"
       sodipodi:start="1.0471976"
       sodipodi:end="2.0943951"
       sodipodi:arc-type="arc"
       d="m 245.48751,481.88977 a 21.821114,21.821114 0 0 1 -21.82112,0"
       sodipodi:open="true" />
    <path
       style="fill:none;stroke:#000000;stroke-width:0.377953;stroke-linecap:round;stroke-linejoin:round;stroke-dasharray:1.51181, 1.51181;stroke-dashoffset:0"
       id="path36"
       sodipodi:type="arc"
       sodipodi:cx="250.94231"
       sodipodi:cy="434.64655"
       sodipodi:rx="10.911057"
       sodipodi:ry="10.911057"
       sodipodi:start="4.1887902"
       sodipodi:end="0"
       sodipodi:arc-type="arc"
       d="m 245.48678,425.19729 a 10.911057,10.911057 0 0 1 10.91106,0 10.911057,10.911057 0 0 1 5.45552,9.44926"
       sodipodi:open="true" />
    <path
       style="fill:none;stroke:#000000;stroke-width:0.377953;stroke-linecap:round;stroke-linejoin:round;stroke-dasharray:1.51181, 1.51181;stroke-dashoffset:0"
       id="path37"
       sodipodi:type="arc"
       sodipodi:cx="240.03224"
       sodipodi:cy="453.5433"
       sodipodi:rx="10.910561"
       sodipodi:ry="10.910561"
       sodipodi:start="1.0471976"
       sodipodi:end="3.1415927"
       sodipodi:arc-type="arc"
       d="m 245.48752,462.99213 a 10.910561,10.910561 0 0 1 -10.91056,0 10.910561,10.910561 0 0 1 -5.45528,-9.44883"
       sodipodi:open="true" />
    <path
       style="fill:none;stroke:#000000;stroke-width:1.13386;stroke-linecap:round;stroke-linejoin:round;stroke-dasharray:none"
       d="M 349.13781,453.54332 267.30864,406.29923"
       id="path38" />
    <path
       style="fill:none;stroke:#000000;stroke-width:1.13386;stroke-linecap:round;stroke-linejoin:round;stroke-dasharray:none"
       d="M 305.49558,529.13388 223.66641,481.88979"
       id="path39" />
    <path
       style="fill:none;stroke:#000000;stroke-width:0.377953;stroke-linecap:round;stroke-linejoin:round;stroke-dasharray:1.51181, 1.51181;stroke-dashoffset:0"
       d="M 338.227,472.44138 256.39783,425.19729"
       id="path40" />
    <path
       style="fill:none;stroke:#000000;stroke-width:0.377953;stroke-linecap:round;stroke-linejoin:round;stroke-dasharray:1.51181, 1.51181;stroke-dashoffset:0"
       d="M 316.40612,510.23621 234.57695,462.99212"
       id="path41" />
    <path
       style="fill:none;stroke:#0000ff;stroke-width:1.13386;stroke-linecap:round;stroke-linejoin:round;stroke-dasharray:none;stroke-dashoffset:0"
       d="M 327.31668,529.13388 376.4142,500.78742"
       id="path42"
       sodipodi:nodetypes="cc" />
    <path
       style="fill:none;stroke:#ffd42a;stroke-width:1.51181;stroke-linecap:round;stroke-linejoin:round;stroke-dasharray:12.0945, 3.02362, 1.51181, 3.02362;stroke-dashoffset:0"
       d="m 229.12169,434.64568 114.56084,66.14173"
       id="path43" />
    <path
       style="fill:none;stroke:#0000ff;stroke-width:1.13386;stroke-linecap:round;stroke-linejoin:round;stroke-dasharray:none;stroke-dashoffset:0"
       d="m 294.58501,510.23629 39.27802,22.67713"
       id="path44"
       sodipodi:nodetypes="cc" />
    <path
       style="fill:none;stroke:#0000ff;stroke-width:1.13386;stroke-linecap:round;stroke-linejoin:round;stroke-dasharray:none;stroke-dashoffset:0"
       d="m 343.68256,481.88981 39.27797,22.67713"
       id="path45"
       sodipodi:nodetypes="cc" />
    <path
       style="fill:none;stroke:#0000ff;stroke-width:1.13386;stroke-linecap:round;stroke-linejoin:round;stroke-dasharray:none;stroke-dashoffset:0"
       d="m 327.31672,491.33863 39.27798,22.67713"
       id="path46"
       sodipodi:nodetypes="cc" />
    <g
       inkscape:label=""
       transform="translate(378.53114,510.4637)"
       id="g47">
      <g
         fill="#000000"
         fill-opacity="1"
         id="g3"
         transform="matrix(1.33333,0,0,1.33333,-3.05317,-2.501)">
        <g
           id="use2"
           transform="translate(1.993,6.2820001)">
          <path
             d="m 0.875,-0.59375 c -0.03125,0.15625 -0.09375,0.390625 -0.09375,0.4375 0,0.171875 0.140625,0.265625 0.296875,0.265625 0.125,0 0.296875,-0.078125 0.375,-0.28125 C 1.46875,-0.203125 1.796875,-1.5625 1.84375,-1.75 c 0.078125,-0.328125 0.265625,-1.015625 0.3125,-1.296875 0.046875,-0.125 0.328125,-0.59375 0.5625,-0.8125 0.078125,-0.0625 0.375,-0.328125 0.796875,-0.328125 0.265625,0 0.40625,0.125 0.421875,0.125 -0.296875,0.046875 -0.515625,0.28125 -0.515625,0.546875 0,0.15625 0.109375,0.34375 0.375,0.34375 0.265625,0 0.546875,-0.234375 0.546875,-0.59375 0,-0.34375 -0.3125,-0.640625 -0.828125,-0.640625 C 2.875,-4.40625 2.4375,-3.921875 2.25,-3.640625 2.15625,-4.09375 1.796875,-4.40625 1.328125,-4.40625 0.875,-4.40625 0.6875,-4.015625 0.59375,-3.84375 0.421875,-3.5 0.296875,-2.90625 0.296875,-2.875 c 0,0.109375 0.09375,0.109375 0.109375,0.109375 0.109375,0 0.109375,-0.015625 0.171875,-0.234375 0.171875,-0.703125 0.375,-1.1875 0.734375,-1.1875 0.15625,0 0.296875,0.078125 0.296875,0.453125 0,0.21875 -0.03125,0.328125 -0.15625,0.84375 z m 0,0"
             id="path4" />
        </g>
      </g>
      <g
         fill="#000000"
         fill-opacity="1"
         id="g4"
         transform="matrix(1.33333,0,0,1.33333,-3.05317,-2.501)">
        <g
           id="use3"
           transform="translate(6.487,7.776)">
          <path
             d="m 2.265625,-4.359375 c 0,-0.109375 -0.09375,-0.265625 -0.28125,-0.265625 -0.1875,0 -0.390625,0.1875 -0.390625,0.390625 0,0.109375 0.078125,0.265625 0.28125,0.265625 0.1875,0 0.390625,-0.203125 0.390625,-0.390625 z M 0.84375,-0.8125 c -0.03125,0.09375 -0.0625,0.171875 -0.0625,0.296875 0,0.328125 0.265625,0.578125 0.65625,0.578125 0.6875,0 1,-0.953125 1,-1.0625 0,-0.09375 -0.09375,-0.09375 -0.109375,-0.09375 -0.09375,0 -0.109375,0.046875 -0.140625,0.125 -0.15625,0.5625 -0.453125,0.84375 -0.734375,0.84375 -0.140625,0 -0.171875,-0.09375 -0.171875,-0.25 0,-0.15625 0.046875,-0.28125 0.109375,-0.4375 C 1.46875,-1 1.546875,-1.1875 1.609375,-1.375 1.671875,-1.546875 1.9375,-2.171875 1.953125,-2.265625 1.984375,-2.328125 2,-2.40625 2,-2.484375 2,-2.8125 1.71875,-3.078125 1.34375,-3.078125 0.640625,-3.078125 0.328125,-2.125 0.328125,-2 c 0,0.078125 0.09375,0.078125 0.125,0.078125 0.09375,0 0.09375,-0.03125 0.125,-0.109375 C 0.75,-2.625 1.0625,-2.875 1.3125,-2.875 c 0.109375,0 0.171875,0.046875 0.171875,0.234375 0,0.171875 -0.03125,0.265625 -0.203125,0.703125 z m 0,0"
             id="path47" />
        </g>
      </g>
    </g>
    <g
       inkscape:label=""
       transform="translate(352.3458,529.36134)"
       id="g52">
      <g
         fill="#000000"
         fill-opacity="1"
         id="g49"
         transform="matrix(1.33333,0,0,1.33333,-3.05317,-2.501)">
        <g
           id="g48"
           transform="translate(1.993,6.2820001)">
          <path
             d="m 0.875,-0.59375 c -0.03125,0.15625 -0.09375,0.390625 -0.09375,0.4375 0,0.171875 0.140625,0.265625 0.296875,0.265625 0.125,0 0.296875,-0.078125 0.375,-0.28125 C 1.46875,-0.203125 1.796875,-1.5625 1.84375,-1.75 c 0.078125,-0.328125 0.265625,-1.015625 0.3125,-1.296875 0.046875,-0.125 0.328125,-0.59375 0.5625,-0.8125 0.078125,-0.0625 0.375,-0.328125 0.796875,-0.328125 0.265625,0 0.40625,0.125 0.421875,0.125 -0.296875,0.046875 -0.515625,0.28125 -0.515625,0.546875 0,0.15625 0.109375,0.34375 0.375,0.34375 0.265625,0 0.546875,-0.234375 0.546875,-0.59375 0,-0.34375 -0.3125,-0.640625 -0.828125,-0.640625 C 2.875,-4.40625 2.4375,-3.921875 2.25,-3.640625 2.15625,-4.09375 1.796875,-4.40625 1.328125,-4.40625 0.875,-4.40625 0.6875,-4.015625 0.59375,-3.84375 0.421875,-3.5 0.296875,-2.90625 0.296875,-2.875 c 0,0.109375 0.09375,0.109375 0.109375,0.109375 0.109375,0 0.109375,-0.015625 0.171875,-0.234375 0.171875,-0.703125 0.375,-1.1875 0.734375,-1.1875 0.15625,0 0.296875,0.078125 0.296875,0.453125 0,0.21875 -0.03125,0.328125 -0.15625,0.84375 z m 0,0"
             id="path48" />
        </g>
      </g>
      <g
         fill="#000000"
         fill-opacity="1"
         id="g51"
         transform="matrix(1.33333,0,0,1.33333,-3.05317,-2.501)">
        <g
           id="g50"
           transform="translate(6.487,7.776)">
          <path
             d="m 1.5625,-1.59375 c 0.1875,0 0.75,-0.015625 1.125,-0.140625 0.515625,-0.1875 0.609375,-0.515625 0.609375,-0.71875 0,-0.390625 -0.390625,-0.625 -0.859375,-0.625 -0.84375,0 -1.96875,0.640625 -1.96875,1.84375 0,0.703125 0.4375,1.296875 1.25,1.296875 1.1875,0 1.734375,-0.6875 1.734375,-0.78125 0,-0.046875 -0.0625,-0.125 -0.125,-0.125 -0.03125,0 -0.046875,0.015625 -0.109375,0.078125 C 2.671875,-0.125 1.859375,-0.125 1.734375,-0.125 1.3125,-0.125 1.03125,-0.40625 1.03125,-0.96875 c 0,-0.09375 0,-0.234375 0.09375,-0.625 z M 1.171875,-1.78125 C 1.46875,-2.796875 2.234375,-2.875 2.4375,-2.875 2.734375,-2.875 3,-2.71875 3,-2.453125 3,-1.78125 1.8125,-1.78125 1.515625,-1.78125 Z m 0,0"
             id="path49" />
        </g>
      </g>
    </g>
    <path
       style="fill:none;stroke:#000000;stroke-width:1.13386;stroke-linecap:round;stroke-linejoin:round;stroke-dasharray:none"
       id="path52"
       sodipodi:type="arc"
       sodipodi:cx="256.39813"
       sodipodi:cy="425.19684"
       sodipodi:rx="21.821104"
       sodipodi:ry="21.821104"
       sodipodi:start="4.1887902"
       sodipodi:end="5.2359878"
       sodipodi:arc-type="arc"
       d="m 245.48758,406.29921 a 21.821104,21.821104 0 0 1 21.82111,0"
       sodipodi:open="true" />
    <path
       style="fill:none;stroke:#000000;stroke-width:1.13386;stroke-linecap:round;stroke-linejoin:round;stroke-dasharray:none"
       id="path53"
       sodipodi:type="arc"
       sodipodi:cx="234.57695"
       sodipodi:cy="462.99213"
       sodipodi:rx="21.821114"
       sodipodi:ry="21.821114"
       sodipodi:start="2.0943951"
       sodipodi:end="3.1415927"
       sodipodi:arc-type="arc"
       d="M 223.66639,481.88977 A 21.821114,21.821114 0 0 1 212.75584,462.99213"
       sodipodi:open="true" />
    <path
       style="fill:none;stroke:#0000ff;stroke-width:1.13386;stroke-linecap:round;stroke-linejoin:round;stroke-dasharray:none;stroke-dashoffset:0"
       d="m 294.58505,510.23627 -39.27803,22.67714"
       id="path55"
       sodipodi:nodetypes="cc" />
    <path
       style="fill:none;stroke:#0000ff;stroke-width:1.13386;stroke-linecap:round;stroke-linejoin:round;stroke-dasharray:none;stroke-dashoffset:0"
       d="m 180.02418,481.88978 81.82918,47.2441"
       id="path56"
       sodipodi:nodetypes="cc" />
    <g
       inkscape:label=""
       transform="translate(252.25,489)"
       id="g56">
      <g
         fill="#000000"
         fill-opacity="1"
         id="g2"
         transform="matrix(1.33333,0,0,1.33333,-3.17817,-2.65)">
        <g
           id="use1"
           transform="translate(1.993,8.8000002)">
          <path
             d="m -34.422819,9.5340288 c 0.07813,-0.359375 0.109375,-0.46875 1.046875,-0.46875 0.296875,0 0.375,0 0.375,-0.1875 0,-0.125 -0.109375,-0.125 -0.15625,-0.125 -0.328125,0 -1.140625,0.03125 -1.46875,0.03125 -0.296875,0 -1.03125,-0.03125 -1.328125,-0.03125 -0.0625,0 -0.1875,0 -0.1875,0.203125 0,0.109375 0.09375,0.109375 0.28125,0.109375 0.01563,0 0.203125,0 0.375,0.015625 0.171875,0.03125 0.265625,0.03125 0.265625,0.171875 0,0.03125 0,0.0625 -0.03125,0.1875 l -1.34375,5.3437502 c -0.09375,0.390625 -0.109375,0.46875 -0.90625,0.46875 -0.171875,0 -0.265625,0 -0.265625,0.203125 0,0.109375 0.09375,0.109375 0.265625,0.109375 h 4.625 c 0.234375,0 0.234375,0 0.296875,-0.171875 l 0.796875,-2.15625 c 0.03125,-0.109375 0.03125,-0.125 0.03125,-0.140625 0,-0.03125 -0.03125,-0.109375 -0.109375,-0.109375 -0.09375,0 -0.109375,0.0625 -0.171875,0.21875 -0.34375,0.90625 -0.78125,2.046875 -2.5,2.046875 h -0.9375 c -0.140625,0 -0.171875,0 -0.21875,0 -0.109375,-0.01563 -0.140625,-0.03125 -0.140625,-0.109375 0,-0.03125 0,-0.04687 0.04687,-0.21875 z m 0,0"
             id="path2" />
        </g>
      </g>
    </g>
  </g>
</svg>
