<?xml version="1.0" encoding="UTF-8" standalone="no"?>
<!-- Created with Inkscape (http://www.inkscape.org/) -->

<svg
   width="240.00002"
   height="190.00003"
   viewBox="0 0 63.499997 50.270836"
   version="1.1"
   id="svg1"
   inkscape:version="1.3.2 (091e20ef0f, 2023-11-25)"
   sodipodi:docname="figura04_02.svg"
   xmlns:inkscape="http://www.inkscape.org/namespaces/inkscape"
   xmlns:sodipodi="http://sodipodi.sourceforge.net/DTD/sodipodi-0.dtd"
   xmlns="http://www.w3.org/2000/svg"
   xmlns:svg="http://www.w3.org/2000/svg">
  <sodipodi:namedview
     id="namedview1"
     pagecolor="#ffffff"
     bordercolor="#000000"
     borderopacity="0.25"
     inkscape:showpageshadow="false"
     inkscape:pageopacity="0.0"
     inkscape:pagecheckerboard="0"
     inkscape:deskcolor="#d1d1d1"
     inkscape:document-units="px"
     showgrid="true"
     inkscape:zoom="3.0003928"
     inkscape:cx="153.64655"
     inkscape:cy="86.65532"
     inkscape:window-width="1920"
     inkscape:window-height="1046"
     inkscape:window-x="1920"
     inkscape:window-y="18"
     inkscape:window-maximized="1"
     inkscape:current-layer="layer1">
    <inkscape:grid
       id="grid1"
       units="px"
       originx="-5.2916665"
       originy="-2.6458335"
       spacingx="1.3229166"
       spacingy="1.3229167"
       empcolor="#0099e5"
       empopacity="0.30196078"
       color="#0099e5"
       opacity="0.14901961"
       empspacing="4"
       dotted="false"
       gridanglex="30"
       gridanglez="30"
       visible="true"
       snapvisiblegridlinesonly="true" />
  </sodipodi:namedview>
  <defs
     id="defs1">
    <marker
       style="overflow:visible"
       id="marker75"
       refX="0"
       refY="0"
       orient="auto-start-reverse"
       inkscape:stockid="Wide arrow"
       markerWidth="1"
       markerHeight="1"
       viewBox="0 0 1 1"
       inkscape:isstock="true"
       inkscape:collect="always"
       preserveAspectRatio="xMidYMid">
      <path
         style="fill:none;stroke:context-stroke;stroke-width:1;stroke-linecap:butt"
         d="M 3,-3 0,0 3,3"
         transform="rotate(180,0.125,0)"
         sodipodi:nodetypes="ccc"
         id="path75" />
    </marker>
    <marker
       style="overflow:visible"
       id="ArrowWide"
       refX="0"
       refY="0"
       orient="auto-start-reverse"
       inkscape:stockid="Wide arrow"
       markerWidth="1"
       markerHeight="1"
       viewBox="0 0 1 1"
       inkscape:isstock="true"
       inkscape:collect="always"
       preserveAspectRatio="xMidYMid">
      <path
         style="fill:none;stroke:context-stroke;stroke-width:1;stroke-linecap:butt"
         d="M 3,-3 0,0 3,3"
         transform="rotate(180,0.125,0)"
         sodipodi:nodetypes="ccc"
         id="path1" />
    </marker>
  </defs>
  <g
     inkscape:label="Capa 1"
     inkscape:groupmode="layer"
     id="layer1"
     transform="translate(-5.2916665,-2.6458335)">
    <rect
       style="fill:#4d4d4d;fill-opacity:0.25;stroke:none;stroke-width:0.264583;stroke-linejoin:round"
       id="rect75"
       width="10.583334"
       height="39.687504"
       x="52.916664"
       y="7.9375005" />
    <rect
       style="fill:#00ffff;fill-opacity:0.25;stroke:none;stroke-width:0.264583;stroke-linejoin:round"
       id="rect28"
       width="31.749998"
       height="39.687504"
       x="10.583333"
       y="7.9375005" />
    <text
       xml:space="preserve"
       style="font-size:2.11667px;font-family:Futura;-inkscape-font-specification:'Futura, Normal';text-align:center;text-anchor:middle;fill:#000000;stroke:none;stroke-width:0.211667;stroke-linejoin:round"
       x="19.513113"
       y="12.786545"
       id="text1"><tspan
         sodipodi:role="line"
         id="tspan1"
         style="fill:#000000;stroke:none;stroke-width:0.211667"
         x="19.513113"
         y="12.786545">Zona</tspan><tspan
         sodipodi:role="line"
         style="fill:#000000;stroke:none;stroke-width:0.211667"
         x="19.513113"
         y="15.432383"
         id="tspan29">turbulenta</tspan></text>
    <text
       xml:space="preserve"
       style="font-size:2.11667px;font-family:Futura;-inkscape-font-specification:'Futura, Normal';text-align:center;text-anchor:middle;fill:#000000;stroke:none;stroke-width:0.211667;stroke-linejoin:round"
       x="36.36639"
       y="23.08099"
       id="text2"><tspan
         sodipodi:role="line"
         id="tspan2"
         style="stroke-width:0.211667"
         x="36.36639"
         y="23.08099">Limite o</tspan><tspan
         sodipodi:role="line"
         style="stroke-width:0.211667"
         x="36.36639"
         y="25.726828"
         id="tspan3">frontera</tspan></text>
    <text
       xml:space="preserve"
       style="font-size:2.11667px;font-family:Futura;-inkscape-font-specification:'Futura, Normal';text-align:center;text-anchor:middle;fill:#000000;stroke:none;stroke-width:0.211667;stroke-linejoin:round"
       x="14.917571"
       y="35.707195"
       id="text4"><tspan
         sodipodi:role="line"
         id="tspan4"
         style="stroke-width:0.211667"
         x="14.917571"
         y="35.707195">Zona</tspan><tspan
         sodipodi:role="line"
         style="stroke-width:0.211667"
         x="14.917571"
         y="38.353031"
         id="tspan28">laminar</tspan></text>
    <g
       inkscape:label=""
       transform="translate(10.081726,4.723914)"
       id="g5">
      <g
         fill="#000000"
         fill-opacity="1"
         id="g3"
         transform="matrix(0.352778,0,0,0.352778,-0.807817,-0.678259)">
        <g
           id="use2"
           transform="translate(1.993,6.2820001)">
          <path
             d="m 1.71875,-2.75 h 0.703125 c 0.140625,0 0.21875,0 0.21875,-0.15625 C 2.640625,-3 2.5625,-3 2.4375,-3 H 1.78125 l 0.25,-1.03125 C 2.046875,-4.0625 2.0625,-4.109375 2.0625,-4.125 c 0,-0.140625 -0.109375,-0.234375 -0.25,-0.234375 -0.171875,0 -0.265625,0.125 -0.328125,0.296875 C 1.4375,-3.875 1.53125,-4.21875 1.21875,-3 H 0.515625 c -0.125,0 -0.21875,0 -0.21875,0.15625 C 0.296875,-2.75 0.375,-2.75 0.5,-2.75 H 1.15625 L 0.75,-1.109375 C 0.703125,-0.9375 0.640625,-0.6875 0.640625,-0.59375 c 0,0.40625 0.359375,0.65625 0.75,0.65625 0.78125,0 1.21875,-0.96875 1.21875,-1.0625 0,-0.09375 -0.09375,-0.09375 -0.109375,-0.09375 -0.09375,0 -0.09375,0.015625 -0.15625,0.140625 -0.1875,0.4375 -0.546875,0.828125 -0.921875,0.828125 -0.15625,0 -0.25,-0.09375 -0.25,-0.34375 0,-0.0625 0.03125,-0.21875 0.046875,-0.28125 z m 0,0"
             id="path4" />
        </g>
      </g>
      <g
         fill="#000000"
         fill-opacity="1"
         id="g4"
         transform="matrix(0.352778,0,0,0.352778,-0.807817,-0.678259)">
        <g
           id="use3"
           transform="translate(5.0019999,7.2779999)">
          <path
             d="m 2.53125,-1.890625 c -0.171875,0.0625 -0.203125,0.203125 -0.203125,0.25 0,0.125 0.109375,0.1875 0.1875,0.1875 0.0625,0 0.265625,-0.046875 0.265625,-0.3125 0,-0.328125 -0.390625,-0.4375 -0.765625,-0.4375 -0.84375,0 -1,0.515625 -1,0.6875 0,0.1875 0.09375,0.296875 0.1875,0.359375 0.140625,0.09375 0.296875,0.125 0.5625,0.171875 0.3125,0.046875 0.65625,0.09375 0.65625,0.34375 0,0.015625 0,0.53125 -0.921875,0.53125 -0.1875,0 -0.5,-0.015625 -0.65625,-0.171875 0.1875,-0.046875 0.265625,-0.1875 0.265625,-0.3125 0,-0.140625 -0.109375,-0.203125 -0.21875,-0.203125 -0.171875,0 -0.3125,0.140625 -0.3125,0.359375 0,0.5 0.765625,0.5 0.921875,0.5 1.015625,0 1.1875,-0.59375 1.1875,-0.796875 C 2.6875,-1.1875 2.140625,-1.265625 1.890625,-1.3125 1.53125,-1.375 1.28125,-1.40625 1.28125,-1.609375 c 0,-0.015625 0,-0.421875 0.71875,-0.421875 0.140625,0 0.390625,0 0.53125,0.140625 z m 0,0"
             id="path5" />
        </g>
      </g>
    </g>
    <g
       inkscape:label=""
       transform="translate(24.832247,29.859332)"
       id="g10">
      <g
         fill="#000000"
         fill-opacity="1"
         id="g7"
         transform="matrix(0.352778,0,0,0.352778,-0.807817,-0.678259)">
        <g
           id="g6"
           transform="translate(1.993,6.2820001)">
          <path
             d="m 1.71875,-2.75 h 0.703125 c 0.140625,0 0.21875,0 0.21875,-0.15625 C 2.640625,-3 2.5625,-3 2.4375,-3 H 1.78125 l 0.25,-1.03125 C 2.046875,-4.0625 2.0625,-4.109375 2.0625,-4.125 c 0,-0.140625 -0.109375,-0.234375 -0.25,-0.234375 -0.171875,0 -0.265625,0.125 -0.328125,0.296875 C 1.4375,-3.875 1.53125,-4.21875 1.21875,-3 H 0.515625 c -0.125,0 -0.21875,0 -0.21875,0.15625 C 0.296875,-2.75 0.375,-2.75 0.5,-2.75 H 1.15625 L 0.75,-1.109375 C 0.703125,-0.9375 0.640625,-0.6875 0.640625,-0.59375 c 0,0.40625 0.359375,0.65625 0.75,0.65625 0.78125,0 1.21875,-0.96875 1.21875,-1.0625 0,-0.09375 -0.09375,-0.09375 -0.109375,-0.09375 -0.09375,0 -0.09375,0.015625 -0.15625,0.140625 -0.1875,0.4375 -0.546875,0.828125 -0.921875,0.828125 -0.15625,0 -0.25,-0.09375 -0.25,-0.34375 0,-0.0625 0.03125,-0.21875 0.046875,-0.28125 z m 0,0"
             id="path6" />
        </g>
      </g>
      <g
         fill="#000000"
         fill-opacity="1"
         id="g9"
         transform="matrix(0.352778,0,0,0.352778,-0.807817,-0.678259)">
        <g
           id="g8"
           transform="translate(5.0019999,7.2779999)">
          <path
             d="M 3.4375,-1.375 C 3.3125,-1.5 3.25,-1.578125 3.125,-1.6875 2.984375,-1.828125 2.5,-2.203125 1.828125,-2.203125 c -0.6875,0 -1.203125,0.515625 -1.203125,1.125 0,0.625 0.515625,1.140625 1.1875,1.140625 0.375,0 0.96875,-0.140625 1.53125,-0.84375 0.125,0.140625 0.1875,0.203125 0.3125,0.328125 0.140625,0.140625 0.625,0.515625 1.296875,0.515625 0.6875,0 1.203125,-0.515625 1.203125,-1.140625 0,-0.609375 -0.515625,-1.125 -1.1875,-1.125 C 4.59375,-2.203125 4,-2.0625 3.4375,-1.375 Z m 0.1875,0.203125 c 0.3125,-0.4375 0.828125,-0.8125 1.390625,-0.8125 0.53125,0 0.96875,0.40625 0.96875,0.90625 0,0.46875 -0.421875,0.8125 -0.9375,0.8125 -0.171875,0 -0.4375,-0.015625 -0.875,-0.375 -0.1875,-0.15625 -0.34375,-0.34375 -0.546875,-0.53125 z M 3.15625,-0.96875 c -0.3125,0.421875 -0.8125,0.796875 -1.390625,0.796875 -0.53125,0 -0.96875,-0.390625 -0.96875,-0.90625 0,-0.46875 0.421875,-0.8125 0.9375,-0.8125 0.171875,0 0.4375,0.015625 0.875,0.375 0.203125,0.171875 0.34375,0.34375 0.546875,0.546875 z m 0,0"
             id="path7" />
        </g>
      </g>
    </g>
    <path
       style="fill:none;stroke:#ff0000;stroke-width:0.264583;stroke-linejoin:round;stroke-dasharray:none"
       d="M 10.583333,7.9375004 V 47.625002"
       id="path10"
       sodipodi:nodetypes="cc" />
    <path
       style="fill:#000000;stroke:#ff0000;stroke-width:0.264583;stroke-linejoin:round"
       d="M 7.9374998,13.229167 10.583333,10.583334"
       id="path12"
       sodipodi:nodetypes="cc" />
    <path
       style="fill:#000000;stroke:#ff0000;stroke-width:0.264583;stroke-linejoin:round"
       d="M 7.9374998,10.583334 10.583333,7.9375007"
       id="path13"
       sodipodi:nodetypes="cc" />
    <path
       style="fill:#000000;stroke:#ff0000;stroke-width:0.264583;stroke-linejoin:round"
       d="M 7.9374998,18.520834 10.583333,15.875001"
       id="path14"
       sodipodi:nodetypes="cc" />
    <path
       style="fill:#000000;stroke:#ff0000;stroke-width:0.264583;stroke-linejoin:round"
       d="M 7.9374998,15.875001 10.583333,13.229168"
       id="path15"
       sodipodi:nodetypes="cc" />
    <path
       style="fill:#000000;stroke:#ff0000;stroke-width:0.264583;stroke-linejoin:round"
       d="M 7.9374998,23.812501 10.583333,21.166668"
       id="path16"
       sodipodi:nodetypes="cc" />
    <path
       style="fill:#000000;stroke:#ff0000;stroke-width:0.264583;stroke-linejoin:round"
       d="M 7.9374998,21.166668 10.583333,18.520835"
       id="path17"
       sodipodi:nodetypes="cc" />
    <path
       style="fill:#000000;stroke:#ff0000;stroke-width:0.264583;stroke-linejoin:round"
       d="M 7.9374998,29.104168 10.583333,26.458335"
       id="path18"
       sodipodi:nodetypes="cc" />
    <path
       style="fill:#000000;stroke:#ff0000;stroke-width:0.264583;stroke-linejoin:round"
       d="M 7.9374998,26.458335 10.583333,23.812502"
       id="path19"
       sodipodi:nodetypes="cc" />
    <path
       style="fill:#000000;stroke:#ff0000;stroke-width:0.264583;stroke-linejoin:round"
       d="M 7.9374998,34.395835 10.583333,31.750002"
       id="path20"
       sodipodi:nodetypes="cc" />
    <path
       style="fill:#000000;stroke:#ff0000;stroke-width:0.264583;stroke-linejoin:round"
       d="M 7.9374998,31.750002 10.583333,29.104169"
       id="path21"
       sodipodi:nodetypes="cc" />
    <path
       style="fill:#000000;stroke:#ff0000;stroke-width:0.264583;stroke-linejoin:round"
       d="M 7.9374998,39.687502 10.583333,37.041669"
       id="path22"
       sodipodi:nodetypes="cc" />
    <path
       style="fill:#000000;stroke:#ff0000;stroke-width:0.264583;stroke-linejoin:round"
       d="M 7.9374998,37.041669 10.583333,34.395836"
       id="path23"
       sodipodi:nodetypes="cc" />
    <path
       style="fill:#000000;stroke:#ff0000;stroke-width:0.264583;stroke-linejoin:round"
       d="M 7.9374998,44.979169 10.583333,42.333336"
       id="path24"
       sodipodi:nodetypes="cc" />
    <path
       style="fill:#000000;stroke:#ff0000;stroke-width:0.264583;stroke-linejoin:round"
       d="M 7.9374998,42.333336 10.583333,39.687503"
       id="path25"
       sodipodi:nodetypes="cc" />
    <path
       style="fill:#000000;stroke:#ff0000;stroke-width:0.264583;stroke-linejoin:round"
       d="M 7.9374998,47.625003 10.583333,44.97917"
       id="path27"
       sodipodi:nodetypes="cc" />
    <path
       style="fill:none;stroke:#000000;stroke-width:0.264583;stroke-linejoin:round"
       d="m 11.90625,47.625002 c 0,0 6.804532,-5.233324 7.937499,-9.260416 1.322917,-4.702262 0,0 1.322917,-6.614584 0.580137,-2.900687 5.007036,-7.36824 6.614583,-10.583334 2.645833,-5.291667 6.614583,-13.2291675 6.614583,-13.2291675"
       id="path28"
       sodipodi:nodetypes="csssc" />
    <g
       inkscape:label=""
       transform="translate(52.415058,4.723914)"
       id="g33">
      <g
         fill="#000000"
         fill-opacity="1"
         id="g30"
         transform="matrix(0.352778,0,0,0.352778,-0.807817,-0.678259)">
        <g
           id="g29"
           transform="translate(1.993,6.2820001)">
          <path
             d="m 1.71875,-2.75 h 0.703125 c 0.140625,0 0.21875,0 0.21875,-0.15625 C 2.640625,-3 2.5625,-3 2.4375,-3 H 1.78125 l 0.25,-1.03125 C 2.046875,-4.0625 2.0625,-4.109375 2.0625,-4.125 c 0,-0.140625 -0.109375,-0.234375 -0.25,-0.234375 -0.171875,0 -0.265625,0.125 -0.328125,0.296875 C 1.4375,-3.875 1.53125,-4.21875 1.21875,-3 H 0.515625 c -0.125,0 -0.21875,0 -0.21875,0.15625 C 0.296875,-2.75 0.375,-2.75 0.5,-2.75 H 1.15625 L 0.75,-1.109375 C 0.703125,-0.9375 0.640625,-0.6875 0.640625,-0.59375 c 0,0.40625 0.359375,0.65625 0.75,0.65625 0.78125,0 1.21875,-0.96875 1.21875,-1.0625 0,-0.09375 -0.09375,-0.09375 -0.109375,-0.09375 -0.09375,0 -0.09375,0.015625 -0.15625,0.140625 -0.1875,0.4375 -0.546875,0.828125 -0.921875,0.828125 -0.15625,0 -0.25,-0.09375 -0.25,-0.34375 0,-0.0625 0.03125,-0.21875 0.046875,-0.28125 z m 0,0"
             id="path29" />
        </g>
      </g>
      <g
         fill="#000000"
         fill-opacity="1"
         id="g32"
         transform="matrix(0.352778,0,0,0.352778,-0.807817,-0.678259)">
        <g
           id="g31"
           transform="translate(5.0019999,7.2779999)">
          <path
             d="m 2.53125,-1.890625 c -0.171875,0.0625 -0.203125,0.203125 -0.203125,0.25 0,0.125 0.109375,0.1875 0.1875,0.1875 0.0625,0 0.265625,-0.046875 0.265625,-0.3125 0,-0.328125 -0.390625,-0.4375 -0.765625,-0.4375 -0.84375,0 -1,0.515625 -1,0.6875 0,0.1875 0.09375,0.296875 0.1875,0.359375 0.140625,0.09375 0.296875,0.125 0.5625,0.171875 0.3125,0.046875 0.65625,0.09375 0.65625,0.34375 0,0.015625 0,0.53125 -0.921875,0.53125 -0.1875,0 -0.5,-0.015625 -0.65625,-0.171875 0.1875,-0.046875 0.265625,-0.1875 0.265625,-0.3125 0,-0.140625 -0.109375,-0.203125 -0.21875,-0.203125 -0.171875,0 -0.3125,0.140625 -0.3125,0.359375 0,0.5 0.765625,0.5 0.921875,0.5 1.015625,0 1.1875,-0.59375 1.1875,-0.796875 C 2.6875,-1.1875 2.140625,-1.265625 1.890625,-1.3125 1.53125,-1.375 1.28125,-1.40625 1.28125,-1.609375 c 0,-0.015625 0,-0.421875 0.71875,-0.421875 0.140625,0 0.390625,0 0.53125,0.140625 z m 0,0"
             id="path30" />
        </g>
      </g>
    </g>
    <path
       style="fill:none;stroke:#ff0000;stroke-width:0.264583;stroke-linejoin:round;stroke-dasharray:none"
       d="M 52.916665,7.9375004 V 47.625002"
       id="path33"
       sodipodi:nodetypes="cc" />
    <path
       style="fill:#000000;stroke:#ff0000;stroke-width:0.264583;stroke-linejoin:round"
       d="m 50.270832,13.229167 2.645833,-2.645833"
       id="path34"
       sodipodi:nodetypes="cc" />
    <path
       style="fill:#000000;stroke:#ff0000;stroke-width:0.264583;stroke-linejoin:round"
       d="M 50.270832,10.583334 52.916665,7.9375007"
       id="path35"
       sodipodi:nodetypes="cc" />
    <path
       style="fill:#000000;stroke:#ff0000;stroke-width:0.264583;stroke-linejoin:round"
       d="m 50.270832,18.520834 2.645833,-2.645833"
       id="path36"
       sodipodi:nodetypes="cc" />
    <path
       style="fill:#000000;stroke:#ff0000;stroke-width:0.264583;stroke-linejoin:round"
       d="m 50.270832,15.875001 2.645833,-2.645833"
       id="path37"
       sodipodi:nodetypes="cc" />
    <path
       style="fill:#000000;stroke:#ff0000;stroke-width:0.264583;stroke-linejoin:round"
       d="m 50.270832,23.812501 2.645833,-2.645833"
       id="path38"
       sodipodi:nodetypes="cc" />
    <path
       style="fill:#000000;stroke:#ff0000;stroke-width:0.264583;stroke-linejoin:round"
       d="m 50.270832,21.166668 2.645833,-2.645833"
       id="path39"
       sodipodi:nodetypes="cc" />
    <path
       style="fill:#000000;stroke:#ff0000;stroke-width:0.264583;stroke-linejoin:round"
       d="m 50.270832,29.104168 2.645833,-2.645833"
       id="path40"
       sodipodi:nodetypes="cc" />
    <path
       style="fill:#000000;stroke:#ff0000;stroke-width:0.264583;stroke-linejoin:round"
       d="m 50.270832,26.458335 2.645833,-2.645833"
       id="path41"
       sodipodi:nodetypes="cc" />
    <path
       style="fill:#000000;stroke:#ff0000;stroke-width:0.264583;stroke-linejoin:round"
       d="m 50.270832,34.395835 2.645833,-2.645833"
       id="path42"
       sodipodi:nodetypes="cc" />
    <path
       style="fill:#000000;stroke:#ff0000;stroke-width:0.264583;stroke-linejoin:round"
       d="m 50.270832,31.750002 2.645833,-2.645833"
       id="path43"
       sodipodi:nodetypes="cc" />
    <path
       style="fill:#000000;stroke:#ff0000;stroke-width:0.264583;stroke-linejoin:round"
       d="m 50.270832,39.687502 2.645833,-2.645833"
       id="path44"
       sodipodi:nodetypes="cc" />
    <path
       style="fill:#000000;stroke:#ff0000;stroke-width:0.264583;stroke-linejoin:round"
       d="m 50.270832,37.041669 2.645833,-2.645833"
       id="path45"
       sodipodi:nodetypes="cc" />
    <path
       style="fill:#000000;stroke:#ff0000;stroke-width:0.264583;stroke-linejoin:round"
       d="m 50.270832,44.979169 2.645833,-2.645833"
       id="path46"
       sodipodi:nodetypes="cc" />
    <path
       style="fill:#000000;stroke:#ff0000;stroke-width:0.264583;stroke-linejoin:round"
       d="m 50.270832,42.333336 2.645833,-2.645833"
       id="path47"
       sodipodi:nodetypes="cc" />
    <path
       style="fill:#000000;stroke:#ff0000;stroke-width:0.264583;stroke-linejoin:round"
       d="M 50.270832,47.625003 52.916665,44.97917"
       id="path48"
       sodipodi:nodetypes="cc" />
    <path
       style="fill:none;stroke:#ff0000;stroke-width:0.264583;stroke-linejoin:round;stroke-dasharray:none"
       d="M 63.538745,47.625003 V 7.9375017"
       id="path49"
       sodipodi:nodetypes="cc" />
    <path
       style="fill:#000000;stroke:#ff0000;stroke-width:0.264583;stroke-linejoin:round"
       d="M 66.184578,42.333337 63.538745,44.97917"
       id="path50"
       sodipodi:nodetypes="cc" />
    <path
       style="fill:#000000;stroke:#ff0000;stroke-width:0.264583;stroke-linejoin:round"
       d="m 66.184578,44.97917 -2.645833,2.645833"
       id="path51"
       sodipodi:nodetypes="cc" />
    <path
       style="fill:#000000;stroke:#ff0000;stroke-width:0.264583;stroke-linejoin:round"
       d="m 66.184578,37.04167 -2.645833,2.645833"
       id="path52"
       sodipodi:nodetypes="cc" />
    <path
       style="fill:#000000;stroke:#ff0000;stroke-width:0.264583;stroke-linejoin:round"
       d="m 66.184578,39.687503 -2.645833,2.645833"
       id="path53"
       sodipodi:nodetypes="cc" />
    <path
       style="fill:#000000;stroke:#ff0000;stroke-width:0.264583;stroke-linejoin:round"
       d="m 66.184578,31.750003 -2.645833,2.645833"
       id="path54"
       sodipodi:nodetypes="cc" />
    <path
       style="fill:#000000;stroke:#ff0000;stroke-width:0.264583;stroke-linejoin:round"
       d="m 66.184578,34.395836 -2.645833,2.645833"
       id="path55"
       sodipodi:nodetypes="cc" />
    <path
       style="fill:#000000;stroke:#ff0000;stroke-width:0.264583;stroke-linejoin:round"
       d="m 66.184578,26.458336 -2.645833,2.645833"
       id="path56"
       sodipodi:nodetypes="cc" />
    <path
       style="fill:#000000;stroke:#ff0000;stroke-width:0.264583;stroke-linejoin:round"
       d="m 66.184578,29.104169 -2.645833,2.645833"
       id="path57"
       sodipodi:nodetypes="cc" />
    <path
       style="fill:#000000;stroke:#ff0000;stroke-width:0.264583;stroke-linejoin:round"
       d="m 66.184578,21.166669 -2.645833,2.645833"
       id="path58"
       sodipodi:nodetypes="cc" />
    <path
       style="fill:#000000;stroke:#ff0000;stroke-width:0.264583;stroke-linejoin:round"
       d="m 66.184578,23.812502 -2.645833,2.645833"
       id="path59"
       sodipodi:nodetypes="cc" />
    <path
       style="fill:#000000;stroke:#ff0000;stroke-width:0.264583;stroke-linejoin:round"
       d="m 66.184578,15.875002 -2.645833,2.645833"
       id="path60"
       sodipodi:nodetypes="cc" />
    <path
       style="fill:#000000;stroke:#ff0000;stroke-width:0.264583;stroke-linejoin:round"
       d="m 66.184578,18.520835 -2.645833,2.645833"
       id="path61"
       sodipodi:nodetypes="cc" />
    <path
       style="fill:#000000;stroke:#ff0000;stroke-width:0.264583;stroke-linejoin:round"
       d="m 66.184578,10.583335 -2.645833,2.645833"
       id="path62"
       sodipodi:nodetypes="cc" />
    <path
       style="fill:#000000;stroke:#ff0000;stroke-width:0.264583;stroke-linejoin:round"
       d="m 66.184578,13.229168 -2.645833,2.645833"
       id="path63"
       sodipodi:nodetypes="cc" />
    <path
       style="fill:#000000;stroke:#ff0000;stroke-width:0.264583;stroke-linejoin:round"
       d="M 66.184578,7.9375007 63.538745,10.583334"
       id="path64"
       sodipodi:nodetypes="cc" />
    <g
       inkscape:label=""
       transform="translate(62.998391,4.7239141)"
       id="g69">
      <g
         fill="#000000"
         fill-opacity="1"
         id="g66"
         transform="matrix(0.352778,0,0,0.352778,-0.807817,-0.678259)">
        <g
           id="g65"
           transform="translate(1.993,6.2820001)">
          <path
             d="m 1.71875,-2.75 h 0.703125 c 0.140625,0 0.21875,0 0.21875,-0.15625 C 2.640625,-3 2.5625,-3 2.4375,-3 H 1.78125 l 0.25,-1.03125 C 2.046875,-4.0625 2.0625,-4.109375 2.0625,-4.125 c 0,-0.140625 -0.109375,-0.234375 -0.25,-0.234375 -0.171875,0 -0.265625,0.125 -0.328125,0.296875 C 1.4375,-3.875 1.53125,-4.21875 1.21875,-3 H 0.515625 c -0.125,0 -0.21875,0 -0.21875,0.15625 C 0.296875,-2.75 0.375,-2.75 0.5,-2.75 H 1.15625 L 0.75,-1.109375 C 0.703125,-0.9375 0.640625,-0.6875 0.640625,-0.59375 c 0,0.40625 0.359375,0.65625 0.75,0.65625 0.78125,0 1.21875,-0.96875 1.21875,-1.0625 0,-0.09375 -0.09375,-0.09375 -0.109375,-0.09375 -0.09375,0 -0.09375,0.015625 -0.15625,0.140625 -0.1875,0.4375 -0.546875,0.828125 -0.921875,0.828125 -0.15625,0 -0.25,-0.09375 -0.25,-0.34375 0,-0.0625 0.03125,-0.21875 0.046875,-0.28125 z m 0,0"
             id="path65" />
        </g>
      </g>
      <g
         fill="#000000"
         fill-opacity="1"
         id="g68"
         transform="matrix(0.352778,0,0,0.352778,-0.807817,-0.678259)">
        <g
           id="g67"
           transform="translate(5.0019999,7.2779999)">
          <path
             d="M 3.4375,-1.375 C 3.3125,-1.5 3.25,-1.578125 3.125,-1.6875 2.984375,-1.828125 2.5,-2.203125 1.828125,-2.203125 c -0.6875,0 -1.203125,0.515625 -1.203125,1.125 0,0.625 0.515625,1.140625 1.1875,1.140625 0.375,0 0.96875,-0.140625 1.53125,-0.84375 0.125,0.140625 0.1875,0.203125 0.3125,0.328125 0.140625,0.140625 0.625,0.515625 1.296875,0.515625 0.6875,0 1.203125,-0.515625 1.203125,-1.140625 0,-0.609375 -0.515625,-1.125 -1.1875,-1.125 C 4.59375,-2.203125 4,-2.0625 3.4375,-1.375 Z m 0.1875,0.203125 c 0.3125,-0.4375 0.828125,-0.8125 1.390625,-0.8125 0.53125,0 0.96875,0.40625 0.96875,0.90625 0,0.46875 -0.421875,0.8125 -0.9375,0.8125 -0.171875,0 -0.4375,-0.015625 -0.875,-0.375 -0.1875,-0.15625 -0.34375,-0.34375 -0.546875,-0.53125 z M 3.15625,-0.96875 c -0.3125,0.421875 -0.8125,0.796875 -1.390625,0.796875 -0.53125,0 -0.96875,-0.390625 -0.96875,-0.90625 0,-0.46875 0.421875,-0.8125 0.9375,-0.8125 0.171875,0 0.4375,0.015625 0.875,0.375 0.203125,0.171875 0.34375,0.34375 0.546875,0.546875 z m 0,0"
             id="path66" />
        </g>
      </g>
    </g>
    <g
       inkscape:label=""
       transform="translate(57.054012,31.211526)"
       id="g74">
      <g
         fill="#000000"
         fill-opacity="1"
         id="g71"
         transform="matrix(0.352778,0,0,0.352778,-0.868451,-0.676584)">
        <g
           id="g70"
           transform="translate(1.993,4.9959998)">
          <path
             d="m 1.5625,-1.59375 c 0.1875,0 0.75,-0.015625 1.125,-0.140625 0.515625,-0.1875 0.609375,-0.515625 0.609375,-0.71875 0,-0.390625 -0.390625,-0.625 -0.859375,-0.625 -0.84375,0 -1.96875,0.640625 -1.96875,1.84375 0,0.703125 0.4375,1.296875 1.25,1.296875 1.1875,0 1.734375,-0.6875 1.734375,-0.78125 0,-0.046875 -0.0625,-0.125 -0.125,-0.125 -0.03125,0 -0.046875,0.015625 -0.109375,0.078125 C 2.671875,-0.125 1.859375,-0.125 1.734375,-0.125 1.3125,-0.125 1.03125,-0.40625 1.03125,-0.96875 c 0,-0.09375 0,-0.234375 0.09375,-0.625 z M 1.171875,-1.78125 C 1.46875,-2.796875 2.234375,-2.875 2.4375,-2.875 2.734375,-2.875 3,-2.71875 3,-2.453125 3,-1.78125 1.8125,-1.78125 1.515625,-1.78125 Z m 0,0"
             id="path69" />
        </g>
      </g>
      <g
         fill="#000000"
         fill-opacity="1"
         id="g73"
         transform="matrix(0.352778,0,0,0.352778,-0.868451,-0.676584)">
        <g
           id="g72"
           transform="translate(5.7719998,5.9920001)">
          <path
             d="M 0.703125,0.578125 C 0.65625,0.71875 0.65625,0.75 0.4375,0.75 c -0.078125,0 -0.15625,0 -0.15625,0.125 0,0.0625 0.03125,0.09375 0.078125,0.09375 0.0625,0 0.15625,-0.015625 0.234375,-0.015625 0.078125,0 0.171875,0 0.25,0 0.109375,0 0.203125,0 0.296875,0 0.078125,0 0.1875,0.015625 0.28125,0.015625 0.0625,0 0.125,-0.03125 0.125,-0.140625 C 1.546875,0.75 1.453125,0.75 1.390625,0.75 c -0.171875,0 -0.28125,0 -0.28125,-0.0625 0,-0.03125 0.078125,-0.34375 0.234375,-0.9375 0.125,0.171875 0.328125,0.3125 0.59375,0.3125 0.703125,0 1.40625,-0.703125 1.40625,-1.390625 0,-0.5 -0.375,-0.875 -0.875,-0.875 -0.390625,0 -0.6875,0.25 -0.796875,0.34375 C 1.578125,-2.125 1.28125,-2.203125 1.09375,-2.203125 c -0.171875,0 -0.328125,0.078125 -0.453125,0.28125 -0.125,0.203125 -0.1875,0.46875 -0.1875,0.484375 0,0.078125 0.078125,0.078125 0.109375,0.078125 0.078125,0 0.09375,-0.03125 0.109375,-0.109375 0.0625,-0.203125 0.15625,-0.5625 0.390625,-0.5625 0.171875,0 0.203125,0.15625 0.203125,0.265625 0,0.0625 0,0.078125 -0.015625,0.125 z m 0.953125,-2.0625 c 0.015625,-0.078125 0.015625,-0.09375 0.109375,-0.1875 0.1875,-0.21875 0.453125,-0.359375 0.6875,-0.359375 0.203125,0 0.4375,0.125 0.4375,0.5 0,0.21875 -0.109375,0.703125 -0.25,0.9375 -0.21875,0.375 -0.515625,0.484375 -0.703125,0.484375 -0.40625,0 -0.515625,-0.40625 -0.515625,-0.453125 0,-0.015625 0.015625,-0.046875 0.015625,-0.078125 z m 0,0"
             id="path71" />
        </g>
      </g>
    </g>
    <path
       style="fill:none;fill-opacity:0.25;stroke:#000000;stroke-width:0.264583;stroke-linejoin:round;stroke-dasharray:none;marker-start:url(#ArrowWide);marker-end:url(#marker75)"
       d="m 53.290793,30.427085 h 9.866253"
       id="path74"
       sodipodi:nodetypes="cc" />
    <text
       xml:space="preserve"
       style="font-size:2.11667px;font-family:Futura;-inkscape-font-specification:'Futura, Normal';text-align:center;text-anchor:middle;fill:#000000;fill-opacity:1;stroke:none;stroke-width:0.264583;stroke-linejoin:round;stroke-dasharray:none"
       x="58.242199"
       y="51.59375"
       id="text75"><tspan
         sodipodi:role="line"
         id="tspan75"
         style="fill:#000000;fill-opacity:1;stroke:none;stroke-width:0.264583"
         x="58.242199"
         y="51.59375">Conducción</tspan></text>
    <text
       xml:space="preserve"
       style="font-size:2.11667px;font-family:Futura;-inkscape-font-specification:'Futura, Normal';text-align:center;text-anchor:middle;fill:#000000;fill-opacity:1;stroke:none;stroke-width:0.264583;stroke-linejoin:round;stroke-dasharray:none"
       x="26.492199"
       y="50.270836"
       id="text76"><tspan
         sodipodi:role="line"
         id="tspan76"
         style="fill:#000000;fill-opacity:1;stroke:none;stroke-width:0.264583"
         x="26.492199"
         y="50.270836">Convección</tspan></text>
  </g>
</svg>
