<?xml version="1.0" encoding="UTF-8" standalone="no"?>
<!-- Created with Inkscape (http://www.inkscape.org/) -->

<svg
   width="200"
   height="200"
   viewBox="0 0 52.916665 52.916666"
   version="1.1"
   id="svg1"
   inkscape:version="1.3.2 (091e20ef0f, 2023-11-25)"
   sodipodi:docname="figura03_08.svg"
   xmlns:inkscape="http://www.inkscape.org/namespaces/inkscape"
   xmlns:sodipodi="http://sodipodi.sourceforge.net/DTD/sodipodi-0.dtd"
   xmlns="http://www.w3.org/2000/svg"
   xmlns:svg="http://www.w3.org/2000/svg">
  <sodipodi:namedview
     id="namedview1"
     pagecolor="#ffffff"
     bordercolor="#000000"
     borderopacity="0.25"
     inkscape:showpageshadow="false"
     inkscape:pageopacity="0.0"
     inkscape:pagecheckerboard="0"
     inkscape:deskcolor="#d1d1d1"
     inkscape:document-units="px"
     labelstyle="default"
     showgrid="true"
     inkscape:zoom="3.0003928"
     inkscape:cx="155.64629"
     inkscape:cy="125.9835"
     inkscape:window-width="1920"
     inkscape:window-height="1046"
     inkscape:window-x="1920"
     inkscape:window-y="18"
     inkscape:window-maximized="1"
     inkscape:current-layer="layer1">
    <inkscape:grid
       id="grid1"
       units="px"
       originx="0"
       originy="0"
       spacingx="1.3229166"
       spacingy="1.3229167"
       empcolor="#0099e5"
       empopacity="0.30196078"
       color="#0099e5"
       opacity="0.14901961"
       empspacing="4"
       dotted="false"
       gridanglex="30"
       gridanglez="30"
       visible="true" />
  </sodipodi:namedview>
  <defs
     id="defs1" />
  <g
     inkscape:label="Capa 1"
     inkscape:groupmode="layer"
     id="layer1">
    <path
       style="fill:none;fill-opacity:0.2;stroke-width:0.21166666;stroke-linejoin:round;stroke:#000000;stroke-dasharray:none"
       d="M 26.458333,5.2916669 V 47.625002"
       id="path1" />
    <path
       style="fill:none;fill-opacity:0.2;stroke:#000000;stroke-width:0.21166666;stroke-linejoin:round;stroke-dasharray:none"
       d="M 5.2916666,26.458336 H 47.624999"
       id="path2" />
    <path
       style="fill:none;fill-opacity:0.2;stroke:#000000;stroke-width:0.21166666;stroke-linejoin:round;stroke-dasharray:none"
       d="M 10.583333,5.2916669 V 47.625002"
       id="path3" />
    <path
       style="fill:none;fill-opacity:0.2;stroke:#000000;stroke-width:0.21166666;stroke-linejoin:round;stroke-dasharray:none"
       d="M 42.333333,5.2916669 V 47.625002"
       id="path4" />
    <path
       style="fill:none;fill-opacity:0.2;stroke:#000000;stroke-width:0.21166666;stroke-linejoin:round;stroke-dasharray:none"
       d="M 5.2916666,10.583334 H 47.624999"
       id="path5" />
    <path
       style="fill:none;fill-opacity:0.2;stroke:#000000;stroke-width:0.21166666;stroke-linejoin:round;stroke-dasharray:none"
       d="M 5.2916666,42.333335 H 47.624999"
       id="path6" />
    <g
       inkscape:label=""
       transform="translate(32.088091,46.368231)"
       id="g13">
      <g
         fill="#000000"
         fill-opacity="1"
         id="g10"
         transform="matrix(0.352778,0,0,0.352778,-0.868451,-0.585391)">
        <g
           id="g9"
           transform="translate(1.993,8.8000002)">
          <path
             d="m 4.40625,-6.953125 c -0.0625,-0.140625 -0.09375,-0.1875 -0.265625,-0.1875 -0.15625,0 -0.1875,0.046875 -0.25,0.1875 l -3.375,6.75 C 0.46875,-0.109375 0.46875,-0.09375 0.46875,-0.078125 0.46875,0 0.53125,0 0.6875,0 h 6.921875 c 0.15625,0 0.21875,0 0.21875,-0.078125 0,-0.015625 0,-0.03125 -0.046875,-0.125 z m -0.578125,0.8125 2.6875,5.390625 h -5.375 z m 0,0"
             id="path9" />
        </g>
      </g>
      <g
         fill="#000000"
         fill-opacity="1"
         id="g12"
         transform="matrix(0.352778,0,0,0.352778,-0.868451,-0.585391)">
        <g
           id="g11"
           transform="translate(10.295,8.8000002)">
          <path
             d="M 3.328125,-3.015625 C 3.390625,-3.265625 3.625,-4.1875 4.3125,-4.1875 c 0.046875,0 0.296875,0 0.5,0.125 C 4.53125,-4 4.34375,-3.765625 4.34375,-3.515625 c 0,0.15625 0.109375,0.34375 0.375,0.34375 0.21875,0 0.53125,-0.171875 0.53125,-0.578125 0,-0.515625 -0.578125,-0.65625 -0.921875,-0.65625 -0.578125,0 -0.921875,0.53125 -1.046875,0.75 -0.25,-0.65625 -0.78125,-0.75 -1.078125,-0.75 -1.03125,0 -1.609375,1.28125 -1.609375,1.53125 0,0.109375 0.109375,0.109375 0.125,0.109375 0.078125,0 0.109375,-0.03125 0.125,-0.109375 0.34375,-1.0625 1,-1.3125 1.34375,-1.3125 0.1875,0 0.53125,0.09375 0.53125,0.671875 0,0.3125 -0.171875,0.96875 -0.53125,2.375 -0.15625,0.609375 -0.515625,1.03125 -0.953125,1.03125 -0.0625,0 -0.28125,0 -0.5,-0.125 0.25,-0.0625 0.46875,-0.265625 0.46875,-0.546875 0,-0.265625 -0.21875,-0.34375 -0.359375,-0.34375 -0.3125,0 -0.546875,0.25 -0.546875,0.578125 0,0.453125 0.484375,0.65625 0.921875,0.65625 0.671875,0 1.03125,-0.703125 1.046875,-0.75 0.125,0.359375 0.484375,0.75 1.078125,0.75 1.03125,0 1.59375,-1.28125 1.59375,-1.53125 0,-0.109375 -0.078125,-0.109375 -0.109375,-0.109375 -0.09375,0 -0.109375,0.046875 -0.140625,0.109375 -0.328125,1.078125 -1,1.3125 -1.3125,1.3125 -0.390625,0 -0.546875,-0.3125 -0.546875,-0.65625 0,-0.21875 0.046875,-0.4375 0.15625,-0.875 z m 0,0"
             id="path10" />
        </g>
      </g>
    </g>
    <g
       inkscape:label=""
       transform="translate(44.168878,32.775261)"
       id="g14">
      <g
         fill="#000000"
         fill-opacity="1"
         id="g3"
         transform="matrix(0.352778,0,0,0.352778,-0.868451,-0.585391)">
        <g
           id="use2"
           transform="translate(1.993,8.8000002)">
          <path
             d="m 4.40625,-6.953125 c -0.0625,-0.140625 -0.09375,-0.1875 -0.265625,-0.1875 -0.15625,0 -0.1875,0.046875 -0.25,0.1875 l -3.375,6.75 C 0.46875,-0.109375 0.46875,-0.09375 0.46875,-0.078125 0.46875,0 0.53125,0 0.6875,0 h 6.921875 c 0.15625,0 0.21875,0 0.21875,-0.078125 0,-0.015625 0,-0.03125 -0.046875,-0.125 z m -0.578125,0.8125 2.6875,5.390625 h -5.375 z m 0,0"
             id="path13" />
        </g>
      </g>
      <g
         fill="#000000"
         fill-opacity="1"
         id="g4"
         transform="matrix(0.352778,0,0,0.352778,-0.868451,-0.585391)">
        <g
           id="use3"
           transform="translate(10.295,8.8000002)">
          <path
             d="m 4.84375,-3.796875 c 0.046875,-0.140625 0.046875,-0.15625 0.046875,-0.234375 0,-0.171875 -0.140625,-0.265625 -0.296875,-0.265625 -0.09375,0 -0.25,0.0625 -0.34375,0.203125 -0.015625,0.0625 -0.109375,0.359375 -0.140625,0.546875 -0.078125,0.25 -0.140625,0.53125 -0.203125,0.796875 l -0.453125,1.796875 c -0.03125,0.140625 -0.46875,0.84375 -1.125,0.84375 -0.5,0 -0.609375,-0.4375 -0.609375,-0.8125 C 1.71875,-1.375 1.890625,-2 2.21875,-2.875 2.375,-3.28125 2.421875,-3.390625 2.421875,-3.59375 c 0,-0.4375 -0.3125,-0.8125 -0.8125,-0.8125 -0.953125,0 -1.3125,1.453125 -1.3125,1.53125 0,0.109375 0.09375,0.109375 0.109375,0.109375 0.109375,0 0.109375,-0.03125 0.15625,-0.1875 0.28125,-0.9375 0.671875,-1.234375 1.015625,-1.234375 0.078125,0 0.25,0 0.25,0.3125 0,0.25 -0.109375,0.515625 -0.171875,0.703125 -0.40625,1.0625 -0.578125,1.625 -0.578125,2.09375 0,0.890625 0.625,1.1875 1.21875,1.1875 0.390625,0 0.71875,-0.171875 1,-0.453125 -0.125,0.515625 -0.25,1.015625 -0.640625,1.546875 -0.265625,0.328125 -0.640625,0.625 -1.09375,0.625 -0.140625,0 -0.59375,-0.03125 -0.765625,-0.421875 0.15625,0 0.296875,0 0.421875,-0.125 C 1.328125,1.203125 1.421875,1.0625 1.421875,0.875 1.421875,0.5625 1.15625,0.53125 1.0625,0.53125 0.828125,0.53125 0.5,0.6875 0.5,1.171875 c 0,0.5 0.4375,0.875 1.0625,0.875 1.015625,0 2.046875,-0.90625 2.328125,-2.03125 z m 0,0"
             id="path14" />
        </g>
      </g>
    </g>
    <path
       style="fill:none;fill-opacity:0.2;stroke:#000000;stroke-width:0.211667;stroke-linejoin:round;stroke-dasharray:0.423334,0.211667;stroke-dashoffset:0"
       d="m 18.520833,18.520834 h 15.875 v 15.875002 h -15.875 V 18.520834"
       id="path15" />
    <text
       xml:space="preserve"
       style="font-size:2.82222px;font-family:Futura;-inkscape-font-specification:'Futura, Normal';text-align:center;text-anchor:middle;fill:#000000;fill-opacity:1;stroke:none;stroke-width:0.211667;stroke-linejoin:round;stroke-dasharray:0.423333, 0.211667;stroke-dashoffset:0"
       x="8.4059877"
       y="25.135418"
       id="text15"><tspan
         sodipodi:role="line"
         id="tspan15"
         style="font-size:2.82222px;fill:#000000;fill-opacity:1;stroke:none;stroke-width:0.211667"
         x="8.4059877"
         y="25.135418">1</tspan></text>
    <text
       xml:space="preserve"
       style="font-size:2.82223px;font-family:Futura;-inkscape-font-specification:'Futura, Normal';text-align:center;text-anchor:middle;fill:#000000;fill-opacity:1;stroke:none;stroke-width:0.211667;stroke-linejoin:round;stroke-dasharray:0.423333, 0.211667;stroke-dashoffset:0"
       x="24.449614"
       y="45.464176"
       id="text16"><tspan
         sodipodi:role="line"
         id="tspan16"
         style="fill:#000000;fill-opacity:1;stroke:none;stroke-width:0.211667"
         x="24.449614"
         y="45.464176">2</tspan></text>
    <text
       xml:space="preserve"
       style="font-size:2.82223px;font-family:Futura;-inkscape-font-specification:'Futura, Normal';text-align:center;text-anchor:middle;fill:#000000;fill-opacity:1;stroke:none;stroke-width:0.211667;stroke-linejoin:round;stroke-dasharray:0.423333, 0.211667;stroke-dashoffset:0"
       x="44.315941"
       y="25.090261"
       id="text17"><tspan
         sodipodi:role="line"
         id="tspan17"
         style="fill:#000000;fill-opacity:1;stroke:none;stroke-width:0.211667"
         x="44.315941"
         y="25.090261">3</tspan></text>
    <text
       xml:space="preserve"
       style="font-size:2.82223px;font-family:Futura;-inkscape-font-specification:'Futura, Normal';text-align:center;text-anchor:middle;fill:#000000;fill-opacity:1;stroke:none;stroke-width:0.211667;stroke-linejoin:round;stroke-dasharray:0.423333, 0.211667;stroke-dashoffset:0"
       x="28.577118"
       y="9.260417"
       id="text18"><tspan
         sodipodi:role="line"
         id="tspan18"
         style="fill:#000000;fill-opacity:1;stroke:none;stroke-width:0.211667"
         x="28.577118"
         y="9.260417">4</tspan></text>
    <circle
       style="fill:#000000;fill-opacity:1;stroke:none;stroke-width:0.211667;stroke-linejoin:round;stroke-dasharray:0.423333, 0.211667;stroke-dashoffset:0"
       id="path18"
       cx="26.458332"
       cy="26.45834"
       r="0.78657413" />
    <circle
       style="fill:#000000;fill-opacity:1;stroke:none;stroke-width:0.211667;stroke-linejoin:round;stroke-dasharray:0.423333, 0.211667;stroke-dashoffset:0"
       id="circle18"
       cx="10.583333"
       cy="26.45834"
       r="0.78657413" />
    <circle
       style="fill:#000000;fill-opacity:1;stroke:none;stroke-width:0.211667;stroke-linejoin:round;stroke-dasharray:0.423333, 0.211667;stroke-dashoffset:0"
       id="circle19"
       cx="42.333332"
       cy="26.45834"
       r="0.78657413" />
    <circle
       style="fill:#000000;fill-opacity:1;stroke:none;stroke-width:0.211667;stroke-linejoin:round;stroke-dasharray:0.423333, 0.211667;stroke-dashoffset:0"
       id="circle20"
       cx="26.458332"
       cy="10.583334"
       r="0.78657413" />
    <circle
       style="fill:#000000;fill-opacity:1;stroke:none;stroke-width:0.211667;stroke-linejoin:round;stroke-dasharray:0.423333, 0.211667;stroke-dashoffset:0"
       id="circle21"
       cx="26.458332"
       cy="42.333336"
       r="0.78657413" />
    <path
       style="fill:none;fill-opacity:1;stroke:#0000ff;stroke-width:0.13229166;stroke-linejoin:round;stroke-dasharray:none;stroke-dashoffset:0"
       d="m 26.458333,48.947919 v 2.645833"
       id="path21" />
    <path
       style="fill:none;fill-opacity:1;stroke:#0000ff;stroke-width:0.13229166;stroke-linejoin:round;stroke-dasharray:none;stroke-dashoffset:0"
       d="m 42.333333,48.947919 v 2.645833"
       id="path22" />
    <path
       style="fill:none;fill-opacity:1;stroke:#0000ff;stroke-width:0.13229166;stroke-linejoin:round;stroke-dasharray:none;stroke-dashoffset:0"
       d="m 26.458333,50.270835 h 15.875"
       id="path23" />
    <path
       style="fill:none;fill-opacity:1;stroke:#0000ff;stroke-width:0.132292;stroke-linejoin:round;stroke-dasharray:none;stroke-dashoffset:0"
       d="m 48.947916,42.333335 h 2.645833"
       id="path24" />
    <path
       style="fill:none;fill-opacity:1;stroke:#0000ff;stroke-width:0.132292;stroke-linejoin:round;stroke-dasharray:none;stroke-dashoffset:0"
       d="m 48.947916,26.458335 h 2.645833"
       id="path25" />
    <path
       style="fill:none;fill-opacity:1;stroke:#0000ff;stroke-width:0.132292;stroke-linejoin:round;stroke-dasharray:none;stroke-dashoffset:0"
       d="m 50.270832,42.333335 v -15.875"
       id="path26" />
  </g>
</svg>
