<?xml version="1.0" encoding="UTF-8" standalone="no"?>
<!-- Created with Inkscape (http://www.inkscape.org/) -->

<svg
   width="38.971142mm"
   height="34.963032mm"
   viewBox="0 0 147.29251 132.14374"
   version="1.1"
   id="svg1"
   inkscape:version="1.3.2 (091e20ef0f, 2023-11-25)"
   sodipodi:docname="figura02_13.svg"
   xmlns:inkscape="http://www.inkscape.org/namespaces/inkscape"
   xmlns:sodipodi="http://sodipodi.sourceforge.net/DTD/sodipodi-0.dtd"
   xmlns="http://www.w3.org/2000/svg"
   xmlns:svg="http://www.w3.org/2000/svg">
  <sodipodi:namedview
     id="namedview1"
     pagecolor="#ffffff"
     bordercolor="#000000"
     borderopacity="0.25"
     inkscape:showpageshadow="2"
     inkscape:pageopacity="0.0"
     inkscape:pagecheckerboard="0"
     inkscape:deskcolor="#d1d1d1"
     inkscape:document-units="mm"
     borderlayer="false"
     showborder="false"
     showgrid="true"
     showguides="false"
     inkscape:zoom="2.8284271"
     inkscape:cx="51.265241"
     inkscape:cy="42.77996"
     inkscape:window-width="1920"
     inkscape:window-height="1046"
     inkscape:window-x="1920"
     inkscape:window-y="18"
     inkscape:window-maximized="1"
     inkscape:current-layer="layer1">
    <inkscape:grid
       type="axonomgrid"
       id="grid1"
       units="mm"
       originx="-196.39004"
       originy="-415.74803"
       spacingx="0"
       spacingy="3.7795276"
       empcolor="#0099e5"
       empopacity="0.30196078"
       color="#0099e5"
       opacity="0.14901961"
       empspacing="5"
       dotted="false"
       gridanglex="30"
       gridanglez="30"
       visible="true" />
  </sodipodi:namedview>
  <defs
     id="defs1" />
  <g
     inkscape:label="Capa 1"
     inkscape:groupmode="layer"
     id="layer1"
     transform="translate(-196.39003,-415.74817)">
    <g
       inkscape:label=""
       transform="translate(221.92954,527.2469)"
       id="g1">
      <g
         fill="#000000"
         fill-opacity="1"
         id="g3"
         transform="matrix(1.33333,0,0,1.33333,-3.05317,-2.501)">
        <g
           id="use2"
           transform="translate(1.993,6.2820001)">
          <path
             d="m 0.875,-0.59375 c -0.03125,0.15625 -0.09375,0.390625 -0.09375,0.4375 0,0.171875 0.140625,0.265625 0.296875,0.265625 0.125,0 0.296875,-0.078125 0.375,-0.28125 C 1.46875,-0.203125 1.796875,-1.5625 1.84375,-1.75 c 0.078125,-0.328125 0.265625,-1.015625 0.3125,-1.296875 0.046875,-0.125 0.328125,-0.59375 0.5625,-0.8125 0.078125,-0.0625 0.375,-0.328125 0.796875,-0.328125 0.265625,0 0.40625,0.125 0.421875,0.125 -0.296875,0.046875 -0.515625,0.28125 -0.515625,0.546875 0,0.15625 0.109375,0.34375 0.375,0.34375 0.265625,0 0.546875,-0.234375 0.546875,-0.59375 0,-0.34375 -0.3125,-0.640625 -0.828125,-0.640625 C 2.875,-4.40625 2.4375,-3.921875 2.25,-3.640625 2.15625,-4.09375 1.796875,-4.40625 1.328125,-4.40625 0.875,-4.40625 0.6875,-4.015625 0.59375,-3.84375 0.421875,-3.5 0.296875,-2.90625 0.296875,-2.875 c 0,0.109375 0.09375,0.109375 0.109375,0.109375 0.109375,0 0.109375,-0.015625 0.171875,-0.234375 0.171875,-0.703125 0.375,-1.1875 0.734375,-1.1875 0.15625,0 0.296875,0.078125 0.296875,0.453125 0,0.21875 -0.03125,0.328125 -0.15625,0.84375 z m 0,0"
             id="path4" />
        </g>
      </g>
      <g
         fill="#000000"
         fill-opacity="1"
         id="g4"
         transform="matrix(1.33333,0,0,1.33333,-3.05317,-2.501)">
        <g
           id="use3"
           transform="translate(6.487,7.776)">
          <path
             d="m 1.5625,-1.59375 c 0.1875,0 0.75,-0.015625 1.125,-0.140625 0.515625,-0.1875 0.609375,-0.515625 0.609375,-0.71875 0,-0.390625 -0.390625,-0.625 -0.859375,-0.625 -0.84375,0 -1.96875,0.640625 -1.96875,1.84375 0,0.703125 0.4375,1.296875 1.25,1.296875 1.1875,0 1.734375,-0.6875 1.734375,-0.78125 0,-0.046875 -0.0625,-0.125 -0.125,-0.125 -0.03125,0 -0.046875,0.015625 -0.109375,0.078125 C 2.671875,-0.125 1.859375,-0.125 1.734375,-0.125 1.3125,-0.125 1.03125,-0.40625 1.03125,-0.96875 c 0,-0.09375 0,-0.234375 0.09375,-0.625 z M 1.171875,-1.78125 C 1.46875,-2.796875 2.234375,-2.875 2.4375,-2.875 2.734375,-2.875 3,-2.71875 3,-2.453125 3,-1.78125 1.8125,-1.78125 1.515625,-1.78125 Z m 0,0"
             id="path5" />
        </g>
      </g>
    </g>
    <g
       inkscape:label=""
       transform="translate(237.39955,514.03939)"
       id="g8">
      <g
         fill="#000000"
         fill-opacity="1"
         id="g5"
         transform="matrix(1.33333,0,0,1.33333,-3.05317,-2.501)">
        <g
           id="g2"
           transform="translate(1.993,6.2820001)">
          <path
             d="m 0.875,-0.59375 c -0.03125,0.15625 -0.09375,0.390625 -0.09375,0.4375 0,0.171875 0.140625,0.265625 0.296875,0.265625 0.125,0 0.296875,-0.078125 0.375,-0.28125 C 1.46875,-0.203125 1.796875,-1.5625 1.84375,-1.75 c 0.078125,-0.328125 0.265625,-1.015625 0.3125,-1.296875 0.046875,-0.125 0.328125,-0.59375 0.5625,-0.8125 0.078125,-0.0625 0.375,-0.328125 0.796875,-0.328125 0.265625,0 0.40625,0.125 0.421875,0.125 -0.296875,0.046875 -0.515625,0.28125 -0.515625,0.546875 0,0.15625 0.109375,0.34375 0.375,0.34375 0.265625,0 0.546875,-0.234375 0.546875,-0.59375 0,-0.34375 -0.3125,-0.640625 -0.828125,-0.640625 C 2.875,-4.40625 2.4375,-3.921875 2.25,-3.640625 2.15625,-4.09375 1.796875,-4.40625 1.328125,-4.40625 0.875,-4.40625 0.6875,-4.015625 0.59375,-3.84375 0.421875,-3.5 0.296875,-2.90625 0.296875,-2.875 c 0,0.109375 0.09375,0.109375 0.109375,0.109375 0.109375,0 0.109375,-0.015625 0.171875,-0.234375 0.171875,-0.703125 0.375,-1.1875 0.734375,-1.1875 0.15625,0 0.296875,0.078125 0.296875,0.453125 0,0.21875 -0.03125,0.328125 -0.15625,0.84375 z m 0,0"
             id="path1" />
        </g>
      </g>
      <g
         fill="#000000"
         fill-opacity="1"
         id="g7"
         transform="matrix(1.33333,0,0,1.33333,-3.05317,-2.501)">
        <g
           id="g6"
           transform="translate(6.487,7.776)">
          <path
             d="m 2.265625,-4.359375 c 0,-0.109375 -0.09375,-0.265625 -0.28125,-0.265625 -0.1875,0 -0.390625,0.1875 -0.390625,0.390625 0,0.109375 0.078125,0.265625 0.28125,0.265625 0.1875,0 0.390625,-0.203125 0.390625,-0.390625 z M 0.84375,-0.8125 c -0.03125,0.09375 -0.0625,0.171875 -0.0625,0.296875 0,0.328125 0.265625,0.578125 0.65625,0.578125 0.6875,0 1,-0.953125 1,-1.0625 0,-0.09375 -0.09375,-0.09375 -0.109375,-0.09375 -0.09375,0 -0.109375,0.046875 -0.140625,0.125 -0.15625,0.5625 -0.453125,0.84375 -0.734375,0.84375 -0.140625,0 -0.171875,-0.09375 -0.171875,-0.25 0,-0.15625 0.046875,-0.28125 0.109375,-0.4375 C 1.46875,-1 1.546875,-1.1875 1.609375,-1.375 1.671875,-1.546875 1.9375,-2.171875 1.953125,-2.265625 1.984375,-2.328125 2,-2.40625 2,-2.484375 2,-2.8125 1.71875,-3.078125 1.34375,-3.078125 0.640625,-3.078125 0.328125,-2.125 0.328125,-2 c 0,0.078125 0.09375,0.078125 0.125,0.078125 0.09375,0 0.09375,-0.03125 0.125,-0.109375 C 0.75,-2.625 1.0625,-2.875 1.3125,-2.875 c 0.109375,0 0.171875,0.046875 0.171875,0.234375 0,0.171875 -0.03125,0.265625 -0.203125,0.703125 z m 0,0"
             id="path6" />
        </g>
      </g>
    </g>
    <path
       style="fill:none;stroke:#000000;stroke-width:0.377953;stroke-linejoin:round;stroke-dasharray:none"
       d="M 278.2192,481.88992 V 425.197"
       id="path8" />
    <path
       style="fill:none;stroke:#000000;stroke-width:0.377953;stroke-linejoin:round;stroke-dasharray:none"
       d="m 229.1217,510.23638 49.0975,-28.34646"
       id="path9" />
    <path
       style="fill:none;stroke:#000000;stroke-width:0.377953;stroke-linejoin:round;stroke-dasharray:none"
       d="M 327.52673,510.40004 278.2192,481.88992"
       id="path10" />
    <path
       style="fill:none;stroke:#000000;stroke-width:0.377953;stroke-linejoin:round;stroke-dasharray:1.51181, 1.51181;stroke-dashoffset:0"
       id="path15"
       sodipodi:type="arc"
       sodipodi:cx="278.21921"
       sodipodi:cy="519.68518"
       sodipodi:rx="65.463341"
       sodipodi:ry="65.463341"
       sodipodi:start="4.1887902"
       sodipodi:end="5.2359878"
       sodipodi:open="true"
       sodipodi:arc-type="arc"
       d="m 245.48754,462.99226 a 65.463341,65.463341 0 0 1 65.46334,1e-5" />
    <path
       style="fill:none;stroke:#000000;stroke-width:0.377953;stroke-linejoin:round;stroke-dasharray:none"
       id="path16"
       sodipodi:type="arc"
       sodipodi:cx="278.21921"
       sodipodi:cy="444.17953"
       sodipodi:rx="65.463348"
       sodipodi:ry="65.463348"
       sodipodi:start="1.0471976"
       sodipodi:end="2.0943951"
       sodipodi:arc-type="arc"
       d="m 310.95088,500.87246 a 65.463348,65.463348 0 0 1 -65.46335,0"
       sodipodi:open="true" />
    <path
       style="fill:none;stroke:#000000;stroke-width:0.377953;stroke-linejoin:round;stroke-dasharray:1.51181, 1.51181;stroke-dashoffset:0"
       id="path17"
       sodipodi:type="arc"
       sodipodi:cx="245.48753"
       sodipodi:cy="462.99228"
       sodipodi:rx="65.463341"
       sodipodi:ry="65.463341"
       sodipodi:start="0"
       sodipodi:end="1.0471976"
       sodipodi:open="true"
       sodipodi:arc-type="arc"
       d="M 310.95087,462.99228 A 65.463341,65.463341 0 0 1 278.2192,519.6852" />
    <path
       style="fill:none;stroke:#000000;stroke-width:0.377953;stroke-linejoin:round;stroke-dasharray:none"
       id="path18"
       sodipodi:type="arc"
       sodipodi:cx="310.95087"
       sodipodi:cy="500.8157"
       sodipodi:rx="65.463341"
       sodipodi:ry="65.463341"
       sodipodi:start="3.1415927"
       sodipodi:end="4.1887902"
       sodipodi:arc-type="arc"
       d="M 245.48753,500.8157 A 65.463341,65.463341 0 0 1 278.2192,444.12279"
       sodipodi:open="true" />
    <path
       style="fill:none;stroke:#000000;stroke-width:0.377953;stroke-linejoin:round;stroke-dasharray:1.51181, 1.51181;stroke-dashoffset:0"
       id="path19"
       sodipodi:type="arc"
       sodipodi:cx="310.95062"
       sodipodi:cy="463.03458"
       sodipodi:rx="65.463081"
       sodipodi:ry="65.463081"
       sodipodi:start="2.0943951"
       sodipodi:end="3.1415927"
       sodipodi:open="true"
       sodipodi:arc-type="arc"
       d="M 278.21908,519.72727 A 65.463081,65.463081 0 0 1 245.48754,463.03458" />
    <path
       style="fill:none;stroke:#000000;stroke-width:0.377953;stroke-linejoin:round;stroke-dasharray:none"
       id="path20"
       sodipodi:type="arc"
       sodipodi:cx="245.48753"
       sodipodi:cy="500.81503"
       sodipodi:rx="65.463348"
       sodipodi:ry="65.463348"
       sodipodi:start="5.2359878"
       sodipodi:end="0"
       sodipodi:arc-type="arc"
       d="m 278.21921,444.12211 a 65.463348,65.463348 0 0 1 32.73167,56.69292"
       sodipodi:open="true" />
    <path
       style="fill:none;stroke:#000000;stroke-width:0.377953;stroke-linejoin:round;stroke-dasharray:1.51181, 1.51181;stroke-dashoffset:0"
       id="path24"
       sodipodi:type="arc"
       sodipodi:cx="256.38351"
       sodipodi:cy="481.88992"
       sodipodi:rx="21.835691"
       sodipodi:ry="21.874157"
       sodipodi:start="3.1415927"
       sodipodi:end="4.1887902"
       sodipodi:open="true"
       sodipodi:arc-type="arc"
       d="m 234.54782,481.88992 a 21.835691,21.874157 0 0 1 10.91785,-18.94357" />
    <path
       style="fill:none;stroke:#000000;stroke-width:0.377953;stroke-linejoin:round;stroke-dasharray:1.51181, 1.51181;stroke-dashoffset:0"
       id="path29"
       sodipodi:type="arc"
       sodipodi:cx="267.29233"
       sodipodi:cy="500.81583"
       sodipodi:rx="21.8048"
       sodipodi:ry="21.8048"
       sodipodi:start="1.0471976"
       sodipodi:end="2.0943951"
       sodipodi:open="true"
       sodipodi:arc-type="arc"
       d="m 278.19473,519.69934 a 21.8048,21.8048 0 0 1 -21.8048,0" />
    <path
       style="fill:none;stroke:#000000;stroke-width:0.377953;stroke-linejoin:round;stroke-dasharray:1.51181, 1.51181;stroke-dashoffset:0"
       id="circle29"
       sodipodi:type="arc"
       sodipodi:cx="289.14581"
       sodipodi:cy="463.03458"
       sodipodi:rx="21.8048"
       sodipodi:ry="21.8048"
       sodipodi:start="5.2359878"
       sodipodi:end="0"
       sodipodi:open="true"
       sodipodi:arc-type="arc"
       d="m 300.04821,444.15107 a 21.8048,21.8048 0 0 1 10.9024,18.88351" />
    <path
       style="fill:none;stroke:#000000;stroke-width:0.377953;stroke-linejoin:round;stroke-dasharray:1.51181, 1.51181;stroke-dashoffset:0"
       id="path31"
       sodipodi:type="arc"
       sodipodi:cx="267.34952"
       sodipodi:cy="463.00641"
       sodipodi:rx="21.861971"
       sodipodi:ry="21.861971"
       sodipodi:start="3.1415927"
       sodipodi:end="4.1887902"
       sodipodi:open="true"
       sodipodi:arc-type="arc"
       d="m 245.48755,463.00641 a 21.861971,21.861971 0 0 1 10.93098,-18.93302" />
    <path
       style="fill:none;stroke:#000000;stroke-width:0.377953;stroke-linejoin:round;stroke-dasharray:1.51181, 1.51181;stroke-dashoffset:0"
       id="path32"
       sodipodi:type="arc"
       sodipodi:cx="289.10516"
       sodipodi:cy="500.84415"
       sodipodi:rx="21.845707"
       sodipodi:ry="21.845707"
       sodipodi:start="1.0471976"
       sodipodi:end="2.0943951"
       sodipodi:arc-type="arc"
       d="m 300.02802,519.76308 a 21.845707,21.845707 0 0 1 -21.84571,0"
       sodipodi:open="true" />
    <ellipse
       style="fill:none;stroke:#000000;stroke-width:1.13386;stroke-linejoin:round;stroke-dasharray:none"
       id="path33"
       cx="278.21921"
       cy="481.88992"
       rx="43.860352"
       ry="43.497574" />
    <path
       style="fill:none;stroke:#000000;stroke-width:0.377953;stroke-linejoin:round;stroke-dasharray:1.51181, 1.51181;stroke-dashoffset:0"
       id="path34"
       sodipodi:type="arc"
       sodipodi:cx="300.08807"
       sodipodi:cy="481.88992"
       sodipodi:rx="21.835691"
       sodipodi:ry="21.874157"
       sodipodi:start="5.2359878"
       sodipodi:end="0"
       sodipodi:arc-type="arc"
       d="m 311.00592,462.94635 a 21.835691,21.874157 0 0 1 10.91785,18.94357"
       sodipodi:open="true" />
    <path
       style="fill:none;stroke:#000000;stroke-width:0.377953;stroke-linejoin:round;stroke-dasharray:none"
       id="path35"
       sodipodi:type="arc"
       sodipodi:cx="256.38351"
       sodipodi:cy="481.88992"
       sodipodi:rx="21.835691"
       sodipodi:ry="21.874157"
       sodipodi:start="2.0943951"
       sodipodi:end="3.1415927"
       sodipodi:open="true"
       sodipodi:arc-type="arc"
       d="M 245.46567,500.8335 A 21.835691,21.874157 0 0 1 234.54782,481.88992" />
    <path
       style="fill:none;stroke:#000000;stroke-width:0.377953;stroke-linejoin:round;stroke-dasharray:none"
       id="path36"
       sodipodi:type="arc"
       sodipodi:cx="300.08807"
       sodipodi:cy="481.88992"
       sodipodi:rx="21.835691"
       sodipodi:ry="21.874157"
       sodipodi:start="0"
       sodipodi:end="1.0471976"
       sodipodi:arc-type="arc"
       d="M 321.92377,481.88992 A 21.835691,21.874157 0 0 1 311.00592,500.8335"
       sodipodi:open="true" />
    <path
       style="fill:none;stroke:#000000;stroke-width:0.377953;stroke-linejoin:round;stroke-dasharray:none"
       id="path37"
       sodipodi:type="arc"
       sodipodi:cx="289.14581"
       sodipodi:cy="463.03458"
       sodipodi:rx="21.8048"
       sodipodi:ry="21.8048"
       sodipodi:start="4.1887902"
       sodipodi:end="5.2359878"
       sodipodi:open="true"
       sodipodi:arc-type="arc"
       d="m 278.24341,444.15107 a 21.8048,21.8048 0 0 1 21.8048,0" />
    <path
       style="fill:none;stroke:#000000;stroke-width:0.377953;stroke-linejoin:round;stroke-dasharray:none"
       id="path38"
       sodipodi:type="arc"
       sodipodi:cx="267.29233"
       sodipodi:cy="500.81583"
       sodipodi:rx="21.8048"
       sodipodi:ry="21.8048"
       sodipodi:start="2.0943951"
       sodipodi:end="3.1415927"
       sodipodi:open="true"
       sodipodi:arc-type="arc"
       d="m 256.38993,519.69934 a 21.8048,21.8048 0 0 1 -10.9024,-18.88351" />
    <path
       style="fill:none;stroke:#000000;stroke-width:0.377953;stroke-linejoin:round;stroke-dasharray:none"
       id="path39"
       sodipodi:type="arc"
       sodipodi:cx="267.34952"
       sodipodi:cy="463.00641"
       sodipodi:rx="21.861971"
       sodipodi:ry="21.861971"
       sodipodi:start="4.1887902"
       sodipodi:end="5.2359878"
       sodipodi:open="true"
       sodipodi:arc-type="arc"
       d="m 256.41853,444.07339 a 21.861971,21.861971 0 0 1 21.86197,0" />
    <path
       style="fill:none;stroke:#000000;stroke-width:0.377953;stroke-linejoin:round;stroke-dasharray:none"
       id="path40"
       sodipodi:type="arc"
       sodipodi:cx="289.10516"
       sodipodi:cy="500.84415"
       sodipodi:rx="21.845707"
       sodipodi:ry="21.845707"
       sodipodi:start="0"
       sodipodi:end="1.0471976"
       sodipodi:arc-type="arc"
       d="m 310.95087,500.84415 a 21.845707,21.845707 0 0 1 -10.92285,18.91893"
       sodipodi:open="true" />
    <path
       style="fill:none;stroke:#000000;stroke-width:0.0944882;stroke-linejoin:round;stroke-dasharray:0.377953, 0.377953;stroke-dashoffset:0"
       id="path61"
       sodipodi:type="arc"
       sodipodi:cx="278.20898"
       sodipodi:cy="512.13678"
       sodipodi:rx="52.370674"
       sodipodi:ry="52.370674"
       sodipodi:start="4.1887902"
       sodipodi:end="5.2359878"
       sodipodi:open="true"
       sodipodi:arc-type="arc"
       d="m 252.02365,466.78245 a 52.370674,52.370674 0 0 1 52.37067,0" />
    <path
       style="fill:none;stroke:#000000;stroke-width:0.0944882;stroke-linejoin:round;stroke-dasharray:0.377953, 0.377953;stroke-dashoffset:0"
       id="path62"
       sodipodi:type="arc"
       sodipodi:cx="278.20898"
       sodipodi:cy="-451.66437"
       sodipodi:rx="52.370674"
       sodipodi:ry="52.370674"
       sodipodi:start="4.1887902"
       sodipodi:end="5.2359878"
       sodipodi:open="true"
       sodipodi:arc-type="arc"
       d="m 252.02365,-497.0187 a 52.370674,52.370674 0 0 1 52.37067,0"
       transform="scale(1,-1)" />
    <path
       style="fill:none;stroke:#000000;stroke-width:0.0944882;stroke-linejoin:round;stroke-dasharray:0.377953, 0.377953;stroke-dashoffset:0"
       id="path65"
       sodipodi:type="arc"
       sodipodi:cx="295.66522"
       sodipodi:cy="481.9006"
       sodipodi:rx="17.456232"
       sodipodi:ry="17.451372"
       sodipodi:start="5.2359878"
       sodipodi:end="1.0471976"
       sodipodi:arc-type="arc"
       d="m 304.39334,466.78727 a 17.456232,17.451372 0 0 1 8.72811,15.11333 17.456232,17.451372 0 0 1 -8.72811,15.11334"
       sodipodi:open="true" />
    <path
       style="fill:none;stroke:#000000;stroke-width:0.0944882;stroke-linejoin:round;stroke-dasharray:0.377953, 0.377953;stroke-dashoffset:0"
       id="path66"
       sodipodi:type="arc"
       sodipodi:cx="-260.75177"
       sodipodi:cy="481.9006"
       sodipodi:rx="17.456232"
       sodipodi:ry="17.451372"
       sodipodi:start="5.2359878"
       sodipodi:end="1.0471976"
       sodipodi:arc-type="arc"
       d="m -252.02365,466.78727 a 17.456232,17.451372 0 0 1 8.72811,15.11333 17.456232,17.451372 0 0 1 -8.72811,15.11334"
       sodipodi:open="true"
       transform="scale(-1,1)" />
    <path
       style="fill:none;stroke:#000000;stroke-width:0.0944882;stroke-linejoin:round;stroke-dasharray:0.377953, 0.377953;stroke-dashoffset:0"
       id="path67"
       sodipodi:type="arc"
       sodipodi:cx="304.39435"
       sodipodi:cy="497.01871"
       sodipodi:rx="52.370674"
       sodipodi:ry="52.370674"
       sodipodi:start="3.1415927"
       sodipodi:end="4.1887902"
       sodipodi:open="true"
       sodipodi:arc-type="arc"
       d="m 252.02367,497.01871 a 52.370674,52.370674 0 0 1 26.18534,-45.35434" />
    <path
       style="fill:none;stroke:#000000;stroke-width:0.0944882;stroke-linejoin:round;stroke-dasharray:0.377953, 0.377953;stroke-dashoffset:0"
       id="path68"
       sodipodi:type="arc"
       sodipodi:cx="252.0255"
       sodipodi:cy="466.78143"
       sodipodi:rx="52.36882"
       sodipodi:ry="52.36882"
       sodipodi:start="0"
       sodipodi:end="1.0471976"
       sodipodi:arc-type="arc"
       d="m 304.39432,466.78143 a 52.36882,52.36882 0 0 1 -26.18441,45.35273"
       sodipodi:open="true" />
    <path
       style="fill:none;stroke:#000000;stroke-width:0.0944882;stroke-linejoin:round;stroke-dasharray:0.377953, 0.377953;stroke-dashoffset:0"
       id="path72"
       sodipodi:type="arc"
       sodipodi:cx="269.48654"
       sodipodi:cy="497.00833"
       sodipodi:rx="17.462885"
       sodipodi:ry="17.462885"
       sodipodi:start="1.0471976"
       sodipodi:end="3.1415927"
       sodipodi:arc-type="arc"
       d="m 278.21798,512.13163 a 17.462885,17.462885 0 0 1 -17.46288,0 17.462885,17.462885 0 0 1 -8.73144,-15.1233"
       sodipodi:open="true" />
    <path
       style="fill:none;stroke:#000000;stroke-width:0.0944882;stroke-linejoin:round;stroke-dasharray:0.377953, 0.377953;stroke-dashoffset:0"
       id="circle72"
       sodipodi:type="arc"
       sodipodi:cx="286.93143"
       sodipodi:cy="466.78329"
       sodipodi:rx="17.462885"
       sodipodi:ry="17.462885"
       sodipodi:start="4.1887902"
       sodipodi:end="0"
       sodipodi:arc-type="arc"
       d="m 278.19998,451.65999 a 17.462885,17.462885 0 0 1 17.46289,0 17.462885,17.462885 0 0 1 8.73144,15.1233"
       sodipodi:open="true" />
    <path
       style="fill:none;stroke:#000000;stroke-width:0.0944882;stroke-linejoin:round;stroke-dasharray:0.377953, 0.377953;stroke-dashoffset:0"
       id="path73"
       sodipodi:type="arc"
       sodipodi:cx="252.02367"
       sodipodi:cy="497.01871"
       sodipodi:rx="52.370667"
       sodipodi:ry="52.370667"
       sodipodi:start="5.2359878"
       sodipodi:end="0"
       sodipodi:open="true"
       sodipodi:arc-type="arc"
       d="m 278.209,451.66438 a 52.370667,52.370667 0 0 1 26.18533,45.35433" />
    <path
       style="fill:none;stroke:#000000;stroke-width:0.0944882;stroke-linejoin:round;stroke-dasharray:0.377953, 0.377953;stroke-dashoffset:0"
       id="path74"
       sodipodi:type="arc"
       sodipodi:cx="304.39435"
       sodipodi:cy="466.7825"
       sodipodi:rx="52.370678"
       sodipodi:ry="52.370678"
       sodipodi:start="2.0943951"
       sodipodi:end="3.1415927"
       sodipodi:arc-type="arc"
       d="M 278.20901,512.13684 A 52.370678,52.370678 0 0 1 252.02367,466.7825"
       sodipodi:open="true" />
    <path
       style="fill:none;stroke:#000000;stroke-width:0.0944882;stroke-linejoin:round;stroke-dasharray:0.377953, 0.377953;stroke-dashoffset:0"
       id="path76"
       sodipodi:type="arc"
       sodipodi:cx="269.50012"
       sodipodi:cy="466.78329"
       sodipodi:rx="17.47645"
       sodipodi:ry="17.47645"
       sodipodi:start="3.1415927"
       sodipodi:end="5.2359878"
       sodipodi:arc-type="arc"
       d="m 252.02367,466.78329 a 17.47645,17.47645 0 0 1 8.73823,-15.13505 17.47645,17.47645 0 0 1 17.47645,1e-5"
       sodipodi:open="true" />
    <path
       style="fill:none;stroke:#000000;stroke-width:0.0944882;stroke-linejoin:round;stroke-dasharray:0.377953, 0.377953;stroke-dashoffset:0"
       id="circle76"
       sodipodi:type="arc"
       sodipodi:cx="286.91788"
       sodipodi:cy="497.01871"
       sodipodi:rx="17.47645"
       sodipodi:ry="17.47645"
       sodipodi:start="0"
       sodipodi:end="2.0943951"
       sodipodi:open="true"
       sodipodi:arc-type="arc"
       d="m 304.39433,497.01871 a 17.47645,17.47645 0 0 1 -8.73823,15.13505 17.47645,17.47645 0 0 1 -17.47645,0" />
    <ellipse
       style="fill:none;stroke:#000000;stroke-width:0.755906;stroke-linejoin:round;stroke-dasharray:3.02362, 3.02362;stroke-dashoffset:0"
       id="path77"
       cx="278.2066"
       cy="481.90472"
       rx="34.958313"
       ry="34.766518" />
    <path
       style="fill:none;stroke:#000000;stroke-width:0.0944882;stroke-linejoin:round;stroke-dasharray:none;stroke-dashoffset:0"
       d="m 278.22945,451.64304 -0.0205,60.49377"
       id="path79" />
    <path
       style="fill:none;stroke:#0000ff;stroke-width:0.755906;stroke-linejoin:round;stroke-dasharray:none;stroke-dashoffset:0"
       d="m 245.48764,500.7875 -32.73178,18.8977"
       id="path80"
       sodipodi:nodetypes="cc" />
    <path
       style="fill:none;stroke:#0000ff;stroke-width:0.755906;stroke-linejoin:round;stroke-dasharray:none;stroke-dashoffset:0"
       d="m 278.21931,519.68514 -32.91856,19.32388"
       id="path81"
       sodipodi:nodetypes="cc" />
    <path
       style="fill:none;stroke:#0000ff;stroke-width:0.755906;stroke-linejoin:round;stroke-dasharray:none;stroke-dashoffset:0"
       d="m 271.67297,515.90561 -16.36594,9.44888"
       id="path82" />
    <path
       style="fill:none;stroke:#0000ff;stroke-width:0.755906;stroke-linejoin:round;stroke-dasharray:none;stroke-dashoffset:0"
       d="m 237.30467,505.51194 24.5487,16.06302"
       id="path83"
       sodipodi:nodetypes="cc" />
    <path
       style="fill:none;stroke:#0000ff;stroke-width:0.755906;stroke-linejoin:round;stroke-dasharray:none;stroke-dashoffset:0"
       d="m 218.24441,516.03315 31.09503,19.84255"
       id="path84" />
  </g>
</svg>
