<?xml version="1.0" encoding="UTF-8" standalone="no"?>
<!-- Created with Inkscape (http://www.inkscape.org/) -->

<svg
   width="150"
   height="95.000008"
   viewBox="0 0 39.687499 25.135419"
   version="1.1"
   id="svg1"
   inkscape:version="1.3.2 (091e20ef0f, 2023-11-25)"
   sodipodi:docname="figura05_07.svg"
   xmlns:inkscape="http://www.inkscape.org/namespaces/inkscape"
   xmlns:sodipodi="http://sodipodi.sourceforge.net/DTD/sodipodi-0.dtd"
   xmlns="http://www.w3.org/2000/svg"
   xmlns:svg="http://www.w3.org/2000/svg">
  <sodipodi:namedview
     id="namedview1"
     pagecolor="#ffffff"
     bordercolor="#000000"
     borderopacity="0.25"
     inkscape:showpageshadow="2"
     inkscape:pageopacity="0.0"
     inkscape:pagecheckerboard="0"
     inkscape:deskcolor="#d1d1d1"
     inkscape:document-units="px"
     inkscape:zoom="4.2431962"
     inkscape:cx="81.777977"
     inkscape:cy="58.446508"
     inkscape:window-width="1920"
     inkscape:window-height="1046"
     inkscape:window-x="1920"
     inkscape:window-y="18"
     inkscape:window-maximized="1"
     inkscape:current-layer="layer1"
     showgrid="true">
    <inkscape:grid
       id="grid1"
       units="px"
       originx="15.875"
       originy="-7.9375005"
       spacingx="1.3229166"
       spacingy="1.3229167"
       empcolor="#0099e5"
       empopacity="0.30196078"
       color="#0099e5"
       opacity="0.14901961"
       empspacing="4"
       dotted="false"
       gridanglex="30"
       gridanglez="30"
       visible="true" />
  </sodipodi:namedview>
  <defs
     id="defs1">
    <marker
       style="overflow:visible"
       id="ArrowWide"
       refX="0"
       refY="0"
       orient="auto-start-reverse"
       inkscape:stockid="Wide arrow"
       markerWidth="1"
       markerHeight="1"
       viewBox="0 0 1 1"
       inkscape:isstock="true"
       inkscape:collect="always"
       preserveAspectRatio="xMidYMid">
      <path
         style="fill:none;stroke:context-stroke;stroke-width:1;stroke-linecap:butt"
         d="M 3,-3 0,0 3,3"
         transform="rotate(180,0.125,0)"
         sodipodi:nodetypes="ccc"
         id="path6" />
    </marker>
  </defs>
  <g
     inkscape:label="Capa 1"
     inkscape:groupmode="layer"
     id="layer1"
     transform="translate(15.875,-7.9375005)">
    <ellipse
       style="fill:none;fill-opacity:0.25119;stroke:#000000;stroke-width:0.079375;stroke-linejoin:round;stroke-dasharray:none"
       id="path1"
       cx="7.9375"
       cy="13.229168"
       rx="2.6458333"
       ry="2.6458335" />
    <ellipse
       style="fill:none;fill-opacity:0.25119;stroke:#000000;stroke-width:0.079375;stroke-linejoin:round;stroke-dasharray:none"
       id="ellipse1"
       cx="18.520832"
       cy="18.520834"
       rx="2.6458333"
       ry="2.6458335" />
    <ellipse
       style="fill:none;fill-opacity:0.25119;stroke:#000000;stroke-width:0.079375;stroke-linejoin:round;stroke-dasharray:none"
       id="ellipse3"
       cx="7.9375"
       cy="23.812502"
       rx="2.6458333"
       ry="2.6458335" />
    <path
       style="fill:none;fill-opacity:0.25119;stroke:#000000;stroke-width:0.079375;stroke-linejoin:round;stroke-dasharray:0.3175, 0.15875, 0.079375, 0.15875;stroke-dashoffset:0"
       d="m 3.96875,13.229168 h 7.9375"
       id="path8" />
    <path
       style="fill:none;fill-opacity:0.25119;stroke:#000000;stroke-width:0.079375;stroke-linejoin:round;stroke-dasharray:0.3175, 0.15875, 0.079375, 0.15875;stroke-dashoffset:0"
       d="M 7.9374999,9.2604173 V 17.197918"
       id="path9" />
    <path
       style="fill:none;fill-opacity:0.25119;stroke:#000000;stroke-width:0.079375;stroke-linejoin:round;stroke-dasharray:0.3175, 0.15875, 0.079375, 0.15875;stroke-dashoffset:0"
       d="m 14.552083,18.520835 h 7.9375"
       id="path10" />
    <path
       style="fill:none;fill-opacity:0.25119;stroke:#000000;stroke-width:0.079375;stroke-linejoin:round;stroke-dasharray:0.3175, 0.15875, 0.079375, 0.15875;stroke-dashoffset:0"
       d="m 18.520833,14.552084 v 7.937501"
       id="path11" />
    <path
       style="fill:none;fill-opacity:0.25119;stroke:#000000;stroke-width:0.079375;stroke-linejoin:round;stroke-dasharray:0.3175, 0.15875, 0.079375, 0.15875;stroke-dashoffset:0"
       d="M 3.9687499,23.812502 H 11.90625"
       id="path12" />
    <path
       style="fill:none;fill-opacity:0.25119;stroke:#000000;stroke-width:0.079375;stroke-linejoin:round;stroke-dasharray:0.3175, 0.15875, 0.079375, 0.15875;stroke-dashoffset:0"
       d="m 7.9374998,19.843751 v 7.937501"
       id="path13" />
    <g
       inkscape:label=""
       transform="translate(-7.050017e-7,18.030252)"
       id="g1">
      <g
         fill="#000000"
         fill-opacity="1"
         id="g2"
         transform="matrix(0.352778,0,0,0.352778,-0.884987,-0.682228)">
        <g
           id="use1"
           transform="translate(1.993,4.1370001)">
          <path
             d="m 2.875,-1.609375 c 0.03125,-0.109375 0.078125,-0.296875 0.078125,-0.3125 0,-0.09375 -0.0625,-0.1875 -0.1875,-0.1875 -0.078125,0 -0.203125,0.0625 -0.25,0.203125 -0.09375,-0.125 -0.28125,-0.296875 -0.59375,-0.296875 -0.703125,0 -1.40625,0.6875 -1.40625,1.390625 0,0.515625 0.375,0.875 0.875,0.875 0.40625,0 0.734375,-0.296875 0.796875,-0.359375 0.078125,0.25 0.359375,0.359375 0.578125,0.359375 0.203125,0 0.34375,-0.125 0.4375,-0.28125 0.140625,-0.203125 0.203125,-0.46875 0.203125,-0.5 0,-0.0625 -0.078125,-0.0625 -0.109375,-0.0625 -0.078125,0 -0.09375,0.03125 -0.109375,0.109375 -0.09375,0.359375 -0.21875,0.5625 -0.390625,0.5625 -0.140625,0 -0.203125,-0.109375 -0.203125,-0.265625 0,-0.078125 0.046875,-0.265625 0.078125,-0.40625 z M 2.21875,-0.65625 c -0.03125,0.0625 -0.03125,0.078125 -0.109375,0.171875 -0.1875,0.21875 -0.453125,0.375 -0.703125,0.375 -0.171875,0 -0.4375,-0.09375 -0.4375,-0.515625 0,-0.234375 0.125,-0.75 0.296875,-1.015625 0.1875,-0.265625 0.453125,-0.390625 0.65625,-0.390625 0.21875,0 0.4375,0.125 0.515625,0.4375 z m 0,0"
             id="path8-3" />
        </g>
      </g>
    </g>
    <path
       style="fill:none;fill-opacity:0.25119;stroke:#000000;stroke-width:0.105833;stroke-linejoin:round;stroke-dasharray:none"
       d="M 1.3229167,13.229169 H 2.6458333"
       id="path16-5" />
    <path
       style="fill:none;fill-opacity:0.25119;stroke:#000000;stroke-width:0.105833;stroke-linejoin:round;stroke-dasharray:none"
       d="M 1.3229167,23.812502 H 2.6458333"
       id="path17-6" />
    <path
       style="fill:none;fill-opacity:0.25119;stroke:#000000;stroke-width:0.105833;stroke-linejoin:round;stroke-dasharray:none"
       d="M 1.984375,13.229169 V 23.812502"
       id="path18" />
    <path
       style="fill:none;fill-opacity:0.25119;stroke:#000000;stroke-width:0.105833;stroke-linejoin:round;marker-end:url(#ArrowWide)"
       d="m -10.583333,13.229169 h 7.9374998"
       id="path9-2"
       sodipodi:nodetypes="cc" />
    <path
       style="fill:none;fill-opacity:0.25119;stroke:#000000;stroke-width:0.105833;stroke-linejoin:round;marker-end:url(#ArrowWide)"
       d="m -10.583333,15.875002 h 7.9374998"
       id="path10-9"
       sodipodi:nodetypes="cc" />
    <path
       style="fill:none;fill-opacity:0.25119;stroke:#000000;stroke-width:0.105833;stroke-linejoin:round;marker-end:url(#ArrowWide)"
       d="m -10.583333,18.520835 h 7.9374998"
       id="path20-1"
       sodipodi:nodetypes="cc" />
    <path
       style="fill:none;fill-opacity:0.25119;stroke:#000000;stroke-width:0.105833;stroke-linejoin:round;marker-end:url(#ArrowWide)"
       d="m -10.583333,21.166669 h 7.9374998"
       id="path21-2"
       sodipodi:nodetypes="cc" />
    <path
       style="fill:none;fill-opacity:0.25119;stroke:#000000;stroke-width:0.105833;stroke-linejoin:round;marker-end:url(#ArrowWide)"
       d="m -10.583333,23.812502 h 7.9374998"
       id="path22-7"
       sodipodi:nodetypes="cc" />
    <path
       style="fill:none;fill-opacity:0.25119;stroke:#000000;stroke-width:0.105833;stroke-linejoin:round;marker-end:url(#ArrowWide)"
       d="m -10.583333,26.458335 h 7.9374998"
       id="path23-0"
       sodipodi:nodetypes="cc" />
    <path
       style="fill:none;fill-opacity:0.25119;stroke:#000000;stroke-width:0.105833;stroke-linejoin:round;marker-end:url(#ArrowWide)"
       d="m -10.583333,10.583334 h 7.9374998"
       id="path30"
       sodipodi:nodetypes="cc" />
    <g
       inkscape:label=""
       transform="translate(-15.069522,17.634789)"
       id="g33">
      <g
         fill="#000000"
         fill-opacity="1"
         id="g31"
         transform="matrix(0.352778,0,0,0.352778,-0.929084,-0.70194)">
        <g
           id="use2"
           transform="translate(1.993,5.3959999)">
          <path
             d="m 4.1875,-2.78125 c 0.046875,-0.046875 0.046875,-0.0625 0.109375,-0.125 0.078125,-0.109375 0.234375,-0.25 0.546875,-0.28125 0.0625,0 0.140625,0 0.140625,-0.125 0,-0.03125 -0.015625,-0.09375 -0.078125,-0.09375 -0.078125,0 -0.15625,0.015625 -0.21875,0.015625 -0.078125,0 -0.15625,0 -0.234375,0 -0.09375,0 -0.1875,0 -0.28125,0 -0.078125,0 -0.1875,-0.015625 -0.28125,-0.015625 -0.078125,0 -0.125,0.0625 -0.125,0.140625 0,0.078125 0.09375,0.078125 0.125,0.078125 0.078125,0.015625 0.203125,0.03125 0.203125,0.125 0,0.046875 -0.015625,0.109375 -0.09375,0.203125 L 2.25,-0.46875 1.671875,-3 c 0,-0.0625 0,-0.0625 0,-0.078125 0,-0.078125 0.15625,-0.109375 0.328125,-0.109375 0.0625,0 0.140625,0 0.140625,-0.125 0,-0.046875 -0.015625,-0.09375 -0.078125,-0.09375 -0.109375,0 -0.234375,0.015625 -0.34375,0.015625 -0.109375,0 -0.234375,0 -0.34375,0 -0.109375,0 -0.21875,0 -0.328125,0 -0.09375,0 -0.203125,-0.015625 -0.296875,-0.015625 -0.03125,0 -0.109375,0 -0.109375,0.140625 0,0.078125 0.0625,0.078125 0.15625,0.078125 0.296875,0 0.296875,0.046875 0.328125,0.140625 l 0.671875,3.015625 c 0.03125,0.09375 0.046875,0.140625 0.171875,0.140625 0.0625,0 0.125,0 0.203125,-0.109375 z m 0,0"
             id="path31" />
        </g>
      </g>
      <g
         fill="#000000"
         fill-opacity="1"
         id="g32"
         transform="matrix(0.352778,0,0,0.352778,-0.929084,-0.70194)">
        <g
           id="use3"
           transform="translate(6.1160002,6.3920002)">
          <path
             d="M 3.4375,-1.375 C 3.3125,-1.5 3.25,-1.578125 3.125,-1.6875 2.984375,-1.828125 2.5,-2.203125 1.828125,-2.203125 c -0.6875,0 -1.203125,0.515625 -1.203125,1.125 0,0.625 0.515625,1.140625 1.1875,1.140625 0.375,0 0.96875,-0.140625 1.53125,-0.84375 0.125,0.140625 0.1875,0.203125 0.3125,0.328125 0.140625,0.140625 0.625,0.515625 1.296875,0.515625 0.6875,0 1.203125,-0.515625 1.203125,-1.140625 0,-0.609375 -0.515625,-1.125 -1.1875,-1.125 C 4.59375,-2.203125 4,-2.0625 3.4375,-1.375 Z m 0.1875,0.203125 c 0.3125,-0.4375 0.828125,-0.8125 1.390625,-0.8125 0.53125,0 0.96875,0.40625 0.96875,0.90625 0,0.46875 -0.421875,0.8125 -0.9375,0.8125 -0.171875,0 -0.4375,-0.015625 -0.875,-0.375 -0.1875,-0.15625 -0.34375,-0.34375 -0.546875,-0.53125 z M 3.15625,-0.96875 c -0.3125,0.421875 -0.8125,0.796875 -1.390625,0.796875 -0.53125,0 -0.96875,-0.390625 -0.96875,-0.90625 0,-0.46875 0.421875,-0.8125 0.9375,-0.8125 0.171875,0 0.4375,0.015625 0.875,0.375 0.203125,0.171875 0.34375,0.34375 0.546875,0.546875 z m 0,0"
             id="path32" />
        </g>
      </g>
    </g>
    <g
       inkscape:label=""
       transform="translate(12.829535,30.735765)"
       id="g5">
      <g
         fill="#000000"
         fill-opacity="1"
         id="g4"
         transform="matrix(0.352778,0,0,0.352778,-0.896011,-0.704806)">
        <g
           id="g3"
           transform="translate(1.993,5.4510002)">
          <path
             d="M 1.5625,-3.265625 C 1.59375,-3.34375 1.59375,-3.34375 1.59375,-3.375 c 0,-0.078125 -0.078125,-0.078125 -0.15625,-0.078125 L 0.828125,-3.40625 c -0.09375,0 -0.09375,0 -0.125,0.03125 -0.015625,0.015625 -0.03125,0.078125 -0.03125,0.109375 0,0.078125 0.078125,0.078125 0.140625,0.078125 0.015625,0 0.09375,0 0.171875,0.015625 0.09375,0.015625 0.109375,0.03125 0.109375,0.0625 0,0.03125 -0.0625,0.234375 -0.09375,0.34375 L 0.59375,-1.09375 C 0.5625,-1 0.546875,-0.921875 0.546875,-0.8125 c 0,0.515625 0.375,0.875 0.859375,0.875 0.71875,0 1.40625,-0.703125 1.40625,-1.390625 0,-0.5 -0.359375,-0.875 -0.875,-0.875 -0.21875,0 -0.453125,0.078125 -0.703125,0.265625 z m -0.15625,3.15625 c -0.203125,0 -0.453125,-0.140625 -0.453125,-0.53125 0,-0.171875 0.03125,-0.328125 0.078125,-0.5 0.015625,-0.0625 0.09375,-0.375 0.109375,-0.40625 C 1.15625,-1.59375 1.5,-2.03125 1.921875,-2.03125 c 0.21875,0 0.4375,0.125 0.4375,0.5 0,0.1875 -0.09375,0.65625 -0.25,0.953125 -0.171875,0.28125 -0.453125,0.46875 -0.703125,0.46875 z m 0,0"
             id="path3" />
        </g>
      </g>
    </g>
    <path
       style="fill:none;fill-opacity:0.25119;stroke:#000000;stroke-width:0.105833;stroke-linejoin:round;stroke-dasharray:none"
       d="m 18.520835,29.104169 v 1.322916"
       id="path19" />
    <path
       style="fill:none;fill-opacity:0.25119;stroke:#000000;stroke-width:0.105833;stroke-linejoin:round;stroke-dasharray:none"
       d="m 7.9374999,29.104169 v 1.322916"
       id="path24" />
    <path
       style="fill:none;fill-opacity:0.25119;stroke:#000000;stroke-width:0.105833;stroke-linejoin:round;stroke-dasharray:none"
       d="M 18.520835,29.765627 H 7.9374999"
       id="path25" />
    <g
       inkscape:label=""
       transform="translate(14.552086,12.628342)"
       id="g8">
      <g
         fill="#000000"
         fill-opacity="1"
         id="g7"
         transform="matrix(0.352778,0,0,0.352778,-0.912548,-0.70194)">
        <g
           id="g6"
           transform="translate(1.993,5.3959999)">
          <path
             d="m 1.21875,-0.40625 c -0.03125,0.140625 -0.03125,0.1875 -0.421875,0.1875 -0.125,0 -0.203125,0 -0.203125,0.140625 C 0.59375,0 0.671875,0 0.75,0 H 2.765625 C 3.9375,0 5.125,-0.953125 5.125,-2.046875 5.125,-2.875 4.46875,-3.40625 3.609375,-3.40625 H 1.5625 c -0.09375,0 -0.171875,0 -0.171875,0.140625 0,0.078125 0.0625,0.078125 0.1875,0.078125 0.046875,0 0.21875,0 0.3125,0.03125 0,0.0625 0,0.078125 -0.015625,0.125 z M 2.375,-3.015625 C 2.421875,-3.171875 2.421875,-3.1875 2.625,-3.1875 h 0.796875 c 0.34375,0 0.671875,0.09375 0.890625,0.28125 0.171875,0.171875 0.28125,0.375 0.28125,0.71875 0,0.3125 -0.109375,0.953125 -0.484375,1.375 -0.375,0.40625 -0.921875,0.59375 -1.4375,0.59375 H 1.84375 c -0.03125,0 -0.109375,0 -0.15625,-0.015625 0,-0.046875 0,-0.0625 0.015625,-0.09375 z m 0,0"
             id="path5" />
        </g>
      </g>
    </g>
    <path
       style="fill:none;fill-opacity:0.25119;stroke:#000000;stroke-width:0.105833;stroke-linejoin:round;stroke-dasharray:none"
       d="m 13.229166,10.583334 h 1.322917"
       id="path26" />
    <path
       style="fill:none;fill-opacity:0.25119;stroke:#000000;stroke-width:0.105833;stroke-linejoin:round;stroke-dasharray:none"
       d="m 13.229166,15.875001 h 1.322917"
       id="path27" />
    <path
       style="fill:none;fill-opacity:0.25119;stroke:#000000;stroke-width:0.105833;stroke-linejoin:round;stroke-dasharray:none"
       d="m 13.890625,10.583334 v 5.291667"
       id="path28"
       sodipodi:nodetypes="cc" />
  </g>
</svg>
