<?xml version="1.0" encoding="UTF-8" standalone="no"?>
<!-- Created with Inkscape (http://www.inkscape.org/) -->

<svg
   width="160"
   height="135"
   viewBox="0 0 42.333332 35.71875"
   version="1.1"
   id="svg1"
   inkscape:version="1.3.2 (091e20ef0f, 2023-11-25)"
   sodipodi:docname="figura03_05.svg"
   xmlns:inkscape="http://www.inkscape.org/namespaces/inkscape"
   xmlns:sodipodi="http://sodipodi.sourceforge.net/DTD/sodipodi-0.dtd"
   xmlns="http://www.w3.org/2000/svg"
   xmlns:svg="http://www.w3.org/2000/svg">
  <sodipodi:namedview
     id="namedview1"
     pagecolor="#ffffff"
     bordercolor="#000000"
     borderopacity="0.25"
     inkscape:showpageshadow="false"
     inkscape:pageopacity="0.0"
     inkscape:pagecheckerboard="0"
     inkscape:deskcolor="#d1d1d1"
     inkscape:document-units="px"
     showgrid="true"
     inkscape:zoom="4.2431962"
     inkscape:cx="57.385987"
     inkscape:cy="53.026066"
     inkscape:window-width="1920"
     inkscape:window-height="1046"
     inkscape:window-x="1920"
     inkscape:window-y="18"
     inkscape:window-maximized="1"
     inkscape:current-layer="layer1">
    <inkscape:grid
       id="grid1"
       units="px"
       originx="-18.520832"
       originy="-2.6458327"
       spacingx="1.3229166"
       spacingy="1.3229166"
       empcolor="#0099e5"
       empopacity="0.30196078"
       color="#0099e5"
       opacity="0.14901961"
       empspacing="4"
       dotted="false"
       gridanglex="30"
       gridanglez="30"
       visible="true" />
  </sodipodi:namedview>
  <defs
     id="defs1">
    <marker
       style="overflow:visible"
       id="marker67"
       refX="0"
       refY="0"
       orient="auto-start-reverse"
       inkscape:stockid="Wide arrow"
       markerWidth="1"
       markerHeight="1"
       viewBox="0 0 1 1"
       inkscape:isstock="true"
       inkscape:collect="always"
       preserveAspectRatio="xMidYMid">
      <path
         style="fill:none;stroke:context-stroke;stroke-width:1;stroke-linecap:butt"
         d="M 3,-3 0,0 3,3"
         transform="rotate(180,0.125,0)"
         sodipodi:nodetypes="ccc"
         id="path67" />
    </marker>
    <marker
       style="overflow:visible"
       id="ArrowWide"
       refX="0"
       refY="0"
       orient="auto-start-reverse"
       inkscape:stockid="Wide arrow"
       markerWidth="1"
       markerHeight="1"
       viewBox="0 0 1 1"
       inkscape:isstock="true"
       inkscape:collect="always"
       preserveAspectRatio="xMidYMid">
      <path
         style="fill:none;stroke:context-stroke;stroke-width:1;stroke-linecap:butt"
         d="M 3,-3 0,0 3,3"
         transform="rotate(180,0.125,0)"
         sodipodi:nodetypes="ccc"
         id="path1" />
    </marker>
  </defs>
  <g
     inkscape:label="Capa 1"
     inkscape:groupmode="layer"
     id="layer1"
     transform="translate(-18.5209, -2.64587)">
    <text
       xml:space="preserve"
       style="font-size:2.57267px;font-family:Futura;-inkscape-font-specification:'Futura, Normal';fill:#000000;stroke:none;stroke-width:0.385902;stroke-linejoin:round;stroke-dasharray:none;stroke-dashoffset:0"
       x="44.529484"
       y="19.461899"
       id="text47"><tspan
         sodipodi:role="line"
         id="tspan47"
         style="fill:#000000;stroke:none;stroke-width:0.385902"
         x="44.529484"
         y="19.461899">Medio fluido</tspan></text>
    <g
       inkscape:label=""
       transform="translate(50.020062,21.513964)"
       id="g47">
      <g
         fill="#000000"
         fill-opacity="1"
         id="g3"
         transform="matrix(0.352778,0,0,0.352778,-0.774744,-0.674026)">
        <g
           id="use2"
           transform="translate(1.993,6.895)">
          <path
             d="m 1.765625,-3.171875 h 0.78125 c 0.140625,0 0.234375,0 0.234375,-0.15625 C 2.78125,-3.4375 2.6875,-3.4375 2.546875,-3.4375 h -0.71875 l 0.28125,-1.125 c 0.03125,-0.125 0.03125,-0.15625 0.03125,-0.171875 0,-0.171875 -0.125,-0.25 -0.265625,-0.25 -0.265625,0 -0.328125,0.21875 -0.40625,0.578125 l -0.25,0.96875 H 0.453125 c -0.15625,0 -0.25,0 -0.25,0.15625 0,0.109375 0.09375,0.109375 0.234375,0.109375 h 0.71875 l -0.484375,1.90625 C 0.625,-1.0625 0.5625,-0.78125 0.5625,-0.671875 c 0,0.484375 0.390625,0.75 0.8125,0.75 0.84375,0 1.328125,-1.125 1.328125,-1.21875 C 2.703125,-1.234375 2.640625,-1.25 2.59375,-1.25 2.5,-1.25 2.5,-1.21875 2.4375,-1.09375 2.28125,-0.703125 1.875,-0.140625 1.390625,-0.140625 1.234375,-0.140625 1.125,-0.25 1.125,-0.515625 c 0,-0.15625 0.03125,-0.234375 0.046875,-0.34375 z m 0,0"
             id="path4" />
        </g>
      </g>
      <g
         fill="#000000"
         fill-opacity="1"
         id="g4"
         transform="matrix(0.352778,0,0,0.352778,-0.774744,-0.674026)">
        <g
           id="use3"
           transform="translate(5.0510001,7.8909998)">
          <path
             d="m 3.484375,-1.890625 c -0.625,-0.671875 -1.265625,-0.75 -1.578125,-0.75 -0.765625,0 -1.34375,0.625 -1.34375,1.359375 0,0.6875 0.546875,1.34375 1.328125,1.34375 0.734375,0 1.34375,-0.484375 1.703125,-1 l 0.21875,0.25 c 0.640625,0.671875 1.265625,0.75 1.578125,0.75 C 6.171875,0.0625 6.75,-0.5625 6.75,-1.296875 6.75,-2 6.203125,-2.640625 5.421875,-2.640625 c -0.734375,0 -1.34375,0.484375 -1.71875,1 z m 0.421875,0.46875 C 4.25,-1.890625 4.765625,-2.375 5.46875,-2.375 c 0.640625,0 1.078125,0.515625 1.078125,1.078125 0,0.578125 -0.5,1 -1.046875,1 -0.46875,0 -0.890625,-0.28125 -1.59375,-1.125 z M 3.390625,-1.15625 C 3.046875,-0.6875 2.546875,-0.203125 1.84375,-0.203125 1.1875,-0.203125 0.75,-0.71875 0.75,-1.28125 c 0,-0.578125 0.5,-1 1.0625,-1 0.46875,0 0.875,0.28125 1.578125,1.125 z m 0,0"
             id="path5" />
        </g>
      </g>
    </g>
    <text
       xml:space="preserve"
       style="font-size:1.41111px;font-family:Futura;-inkscape-font-specification:'Futura, Normal';fill:#000000;stroke:none;stroke-width:0.211667;stroke-linejoin:round;stroke-dasharray:none;stroke-dashoffset:0"
       x="35.718754"
       y="29.10417"
       id="text48"><tspan
         sodipodi:role="line"
         id="tspan48"
         style="stroke-width:0.211667"
         x="35.718754"
         y="29.10417" /></text>
    <g
       inkscape:label=""
       transform="translate(35.818,20.053244)"
       id="g48">
      <g
         fill="#000000"
         fill-opacity="1"
         id="g2"
         transform="matrix(0.352778,0,0,0.352778,-0.824353,-0.673232)">
        <g
           id="use1"
           transform="translate(1.993,5.4239998)">
          <path
             d="m 3.796875,-3.28125 c 0,-0.03125 0.015625,-0.078125 0.015625,-0.125 0,-0.046875 -0.03125,-0.109375 -0.109375,-0.109375 -0.09375,0 -0.421875,0.3125 -0.546875,0.53125 -0.09375,-0.171875 -0.328125,-0.53125 -0.828125,-0.53125 -0.9375,0 -1.984375,1.109375 -1.984375,2.28125 0,0.84375 0.53125,1.3125 1.140625,1.3125 0.40625,0 0.734375,-0.234375 0.96875,-0.4375 0,0.03125 -0.25,1.03125 -0.28125,1.171875 -0.125,0.453125 -0.125,0.46875 -0.625,0.46875 -0.09375,0 -0.203125,0 -0.203125,0.15625 0,0.046875 0.046875,0.109375 0.125,0.109375 0.09375,0 0.28125,-0.015625 0.390625,-0.03125 H 2.28125 c 0.640625,0 0.78125,0.03125 0.84375,0.03125 0.03125,0 0.15625,0 0.15625,-0.15625 0,-0.109375 -0.125,-0.109375 -0.21875,-0.109375 -0.375,0 -0.375,-0.046875 -0.375,-0.125 0,0 0,-0.046875 0.03125,-0.15625 z m -1.1875,2.296875 C 2.578125,-0.875 2.578125,-0.84375 2.453125,-0.6875 2.03125,-0.203125 1.6875,-0.140625 1.515625,-0.140625 c -0.375,0 -0.546875,-0.34375 -0.546875,-0.75 0,-0.375 0.203125,-1.234375 0.390625,-1.578125 0.21875,-0.484375 0.609375,-0.828125 0.984375,-0.828125 0.53125,0 0.671875,0.625 0.671875,0.6875 0,0.03125 -0.015625,0.078125 -0.03125,0.125 z m 0,0"
             id="path2" />
        </g>
      </g>
    </g>
    <g
       inkscape:label=""
       transform="translate(28.525423,35.470735)"
       id="g53">
      <g
         fill="#000000"
         fill-opacity="1"
         id="g52"
         transform="matrix(0.352778,0,0,0.352778,-0.84089,-0.673232)">
        <g
           id="g51"
           transform="translate(1.993,5.4239998)">
          <path
             d="m 1.609375,-1.8125 c 0.171875,0 0.765625,-0.015625 1.1875,-0.15625 0.6875,-0.25 0.71875,-0.71875 0.71875,-0.84375 0,-0.453125 -0.421875,-0.703125 -0.9375,-0.703125 -0.90625,0 -2.1875,0.703125 -2.1875,2.125 0,0.8125 0.5,1.46875 1.375,1.46875 1.234375,0 1.90625,-0.796875 1.90625,-0.90625 0,-0.078125 -0.078125,-0.125 -0.125,-0.125 -0.046875,0 -0.078125,0.015625 -0.109375,0.0625 -0.625,0.75 -1.53125,0.75 -1.65625,0.75 -0.59375,0 -0.765625,-0.5 -0.765625,-0.9375 0,-0.25 0.078125,-0.609375 0.109375,-0.734375 z M 1.1875,-2.046875 c 0.25,-0.96875 0.984375,-1.25 1.390625,-1.25 0.3125,0 0.625,0.171875 0.625,0.484375 0,0.765625 -1.3125,0.765625 -1.65625,0.765625 z m 0,0"
             id="path51" />
        </g>
      </g>
    </g>
    <path
       style="fill:none;stroke:#000000;stroke-width:0.264583;stroke-linejoin:round;stroke-dasharray:none;stroke-dashoffset:0"
       d="M 31.750033,5.2917004 V 31.750033"
       id="path53" />
    <path
       style="fill:none;stroke:#000000;stroke-width:0.264583;stroke-linejoin:round;stroke-dasharray:none;stroke-dashoffset:0"
       d="M 26.458367,5.2917005 V 31.750033"
       id="path54"
       sodipodi:nodetypes="cc" />
    <path
       style="fill:none;stroke:#000000;stroke-width:0.264583;stroke-linejoin:round;stroke-dasharray:none;stroke-dashoffset:0"
       d="m 26.458367,5.2917004 c 2.645833,-1.3229165 2.645833,1.5275725 5.291666,0"
       id="path55"
       sodipodi:nodetypes="cc" />
    <path
       style="fill:none;stroke:#000000;stroke-width:0.264583;stroke-linejoin:round;stroke-dasharray:none;stroke-dashoffset:0"
       d="m 26.458367,31.750033 c 2.645833,-1.322916 2.645833,1.527573 5.291666,0"
       id="path55-3"
       sodipodi:nodetypes="cc" />
    <path
       style="fill:none;stroke:#000000;stroke-width:0.132292;stroke-linejoin:round;stroke-dasharray:0.396875, 0.396875;stroke-dashoffset:0"
       d="M 32.25549,5.2917005 V 31.750033"
       id="path56"
       sodipodi:nodetypes="cc" />
    <path
       style="fill:none;stroke:#000000;stroke-width:0.132292;stroke-linejoin:round;stroke-dasharray:0.396875, 0.396875;stroke-dashoffset:0"
       d="M 25.95291,5.2917005 V 31.750033"
       id="path57"
       sodipodi:nodetypes="cc" />
    <path
       style="fill:none;stroke:#ff0000;stroke-width:0.264583;stroke-linejoin:round;stroke-dasharray:none;stroke-dashoffset:0;marker-end:url(#ArrowWide)"
       d="M 26.458367,18.085243 H 21.180715"
       id="path60"
       sodipodi:nodetypes="cc" />
    <path
       style="fill:none;stroke:#ff0000;stroke-width:0.264583;stroke-linejoin:round;stroke-dasharray:none;stroke-dashoffset:0;marker-end:url(#ArrowWide)"
       d="m 31.750033,18.085243 h 5.325188"
       id="path50"
       sodipodi:nodetypes="cc" />
    <g
       inkscape:label=""
       transform="translate(21.166699,20.053244)"
       id="g63">
      <g
         fill="#000000"
         fill-opacity="1"
         id="g62"
         transform="matrix(0.352778,0,0,0.352778,-0.824353,-0.673232)">
        <g
           id="g61"
           transform="translate(1.993,5.4239998)">
          <path
             d="m 3.796875,-3.28125 c 0,-0.03125 0.015625,-0.078125 0.015625,-0.125 0,-0.046875 -0.03125,-0.109375 -0.109375,-0.109375 -0.09375,0 -0.421875,0.3125 -0.546875,0.53125 -0.09375,-0.171875 -0.328125,-0.53125 -0.828125,-0.53125 -0.9375,0 -1.984375,1.109375 -1.984375,2.28125 0,0.84375 0.53125,1.3125 1.140625,1.3125 0.40625,0 0.734375,-0.234375 0.96875,-0.4375 0,0.03125 -0.25,1.03125 -0.28125,1.171875 -0.125,0.453125 -0.125,0.46875 -0.625,0.46875 -0.09375,0 -0.203125,0 -0.203125,0.15625 0,0.046875 0.046875,0.109375 0.125,0.109375 0.09375,0 0.28125,-0.015625 0.390625,-0.03125 H 2.28125 c 0.640625,0 0.78125,0.03125 0.84375,0.03125 0.03125,0 0.15625,0 0.15625,-0.15625 0,-0.109375 -0.125,-0.109375 -0.21875,-0.109375 -0.375,0 -0.375,-0.046875 -0.375,-0.125 0,0 0,-0.046875 0.03125,-0.15625 z m -1.1875,2.296875 C 2.578125,-0.875 2.578125,-0.84375 2.453125,-0.6875 2.03125,-0.203125 1.6875,-0.140625 1.515625,-0.140625 c -0.375,0 -0.546875,-0.34375 -0.546875,-0.75 0,-0.375 0.203125,-1.234375 0.390625,-1.578125 0.21875,-0.484375 0.609375,-0.828125 0.984375,-0.828125 0.53125,0 0.671875,0.625 0.671875,0.6875 0,0.03125 -0.015625,0.078125 -0.03125,0.125 z m 0,0"
             id="path61" />
        </g>
      </g>
    </g>
    <path
       style="fill:none;stroke:#000000;stroke-width:0.132292;stroke-linejoin:round;stroke-dasharray:none;stroke-dashoffset:0"
       d="m 26.458367,33.07295 v 2.645833"
       id="path63" />
    <path
       style="fill:none;stroke:#000000;stroke-width:0.132292;stroke-linejoin:round;stroke-dasharray:none;stroke-dashoffset:0"
       d="m 31.750033,33.07295 v 2.645833"
       id="path64" />
    <path
       style="fill:none;stroke:#000000;stroke-width:0.132292;stroke-linejoin:round;stroke-dasharray:none;stroke-dashoffset:0"
       d="M 31.750033,34.395866 H 26.458367"
       id="path65"
       sodipodi:nodetypes="cc" />
    <text
       xml:space="preserve"
       style="font-size:1.58191px;font-family:Futura;-inkscape-font-specification:'Futura, Normal';fill:#000000;stroke:none;stroke-width:0.148305;stroke-linejoin:round;stroke-dasharray:none;stroke-dashoffset:0"
       x="36.861656"
       y="34.754688"
       id="text65"><tspan
         sodipodi:role="line"
         id="tspan65"
         style="fill:#000000;stroke:none;stroke-width:0.148305"
         x="36.861656"
         y="34.754688">Pelicula de convección</tspan></text>
    <path
       style="fill:none;stroke:#0000ff;stroke-width:0.132292;stroke-linejoin:round;stroke-dasharray:none;stroke-dashoffset:0;marker-end:url(#marker67)"
       d="M 36.404685,33.462667 32.567264,31.261883"
       id="path66"
       sodipodi:nodetypes="cc" />
    <g
       inkscape:label=""
       transform="translate(36.909408,6.2374357)"
       id="g19">
      <g
         fill="#000000"
         fill-opacity="1"
         id="g10"
         transform="matrix(0.352778,0,0,0.352778,-1.12448,-0.639013)">
        <g
           id="g9"
           transform="translate(3.188,6.0770001)">
          <path
             d="m 1.359375,-0.734375 c -0.234375,0.34375 -0.4375,0.46875 -0.765625,0.5 -0.09375,0 -0.15625,0 -0.15625,0.140625 C 0.4375,-0.03125 0.484375,0 0.515625,0 0.6875,0 0.890625,-0.03125 1.0625,-0.03125 1.203125,-0.03125 1.5625,0 1.703125,0 c 0.0625,0 0.125,-0.03125 0.125,-0.15625 0,-0.078125 -0.078125,-0.078125 -0.09375,-0.078125 C 1.578125,-0.25 1.453125,-0.28125 1.453125,-0.40625 c 0,-0.078125 0.0625,-0.1875 0.078125,-0.21875 l 0.5,-0.734375 h 1.796875 l 0.15625,0.96875 c 0,0.15625 -0.34375,0.15625 -0.40625,0.15625 -0.078125,0 -0.171875,0 -0.171875,0.140625 C 3.40625,-0.0625 3.4375,0 3.5,0 c 0.1875,0 0.625,-0.03125 0.796875,-0.03125 0.125,0 0.234375,0.015625 0.359375,0.015625 C 4.78125,-0.015625 4.90625,0 5.015625,0 5.0625,0 5.15625,0 5.15625,-0.15625 c 0,-0.078125 -0.078125,-0.078125 -0.171875,-0.078125 -0.375,0 -0.375,-0.046875 -0.40625,-0.203125 L 3.984375,-4.109375 C 3.96875,-4.21875 3.96875,-4.265625 3.828125,-4.265625 c -0.125,0 -0.15625,0.046875 -0.21875,0.125 z M 2.1875,-1.59375 3.484375,-3.546875 3.78125,-1.59375 Z m 0,0"
             id="path3" />
        </g>
      </g>
      <path
         fill="none"
         stroke-width="0.359"
         stroke-linecap="butt"
         stroke-linejoin="miter"
         stroke="#000000"
         stroke-opacity="1"
         stroke-miterlimit="10"
         d="M 0,5.5323749 H 5.523437"
         id="path12"
         transform="scale(0.352778)" />
      <g
         fill="#000000"
         fill-opacity="1"
         id="g14"
         transform="matrix(0.352778,0,0,0.352778,-1.12448,-0.639013)">
        <g
           id="g13"
           transform="translate(4.1890001,12.461)">
          <path
             d="m 1.328125,-1.34375 c 0.390625,0 0.84375,-0.03125 1.15625,-0.140625 C 3,-1.65625 3.03125,-2.015625 3.03125,-2.109375 c 0,-0.296875 -0.296875,-0.53125 -0.796875,-0.53125 -0.734375,0 -1.75,0.53125 -1.75,1.546875 0,0.640625 0.40625,1.15625 1.15625,1.15625 1.109375,0 1.546875,-0.59375 1.546875,-0.671875 0,-0.046875 -0.0625,-0.109375 -0.109375,-0.109375 -0.03125,0 -0.03125,0 -0.125,0.09375 C 2.59375,-0.21875 1.984375,-0.140625 1.65625,-0.140625 1.171875,-0.140625 1,-0.484375 1,-0.875 1,-0.921875 1,-1.109375 1.0625,-1.34375 Z M 1.109375,-1.546875 C 1.3125,-2.25 1.890625,-2.4375 2.234375,-2.4375 c 0.28125,0 0.515625,0.125 0.515625,0.34375 0,0.546875 -1,0.546875 -1.640625,0.546875 z m 0,0"
             id="path13" />
        </g>
      </g>
      <g
         fill="#000000"
         fill-opacity="1"
         id="g16"
         transform="matrix(0.352778,0,0,0.352778,-1.12448,-0.639013)">
        <g
           id="g15"
           transform="translate(12.26,9.3360004)">
          <path
             d="M 6.953125,-1.8125 C 6.6875,-1.609375 6.4375,-1.359375 6.25,-1.0625 c -0.34375,0.515625 -0.4375,1.015625 -0.4375,1.046875 0,0.125 0.109375,0.125 0.1875,0.125 0.09375,0 0.15625,0 0.1875,-0.09375 C 6.390625,-0.875 6.90625,-1.546875 7.859375,-1.875 7.921875,-1.890625 8,-1.90625 8,-1.984375 8,-2.078125 7.921875,-2.09375 7.890625,-2.109375 6.828125,-2.46875 6.359375,-3.21875 6.203125,-3.90625 6.15625,-4.078125 6.15625,-4.09375 6,-4.09375 c -0.078125,0 -0.1875,0 -0.1875,0.125 0,0.015625 0.078125,0.53125 0.4375,1.0625 0.234375,0.328125 0.5,0.578125 0.703125,0.734375 h -6.1875 c -0.125,0 -0.296875,0 -0.296875,0.1875 0,0.171875 0.171875,0.171875 0.296875,0.171875 z m 0,0"
             id="path14" />
        </g>
      </g>
      <g
         fill="#000000"
         fill-opacity="1"
         id="g18"
         transform="matrix(0.352778,0,0,0.352778,-1.12448,-0.639013)">
        <g
           id="g17"
           transform="translate(23.079411,9.3360004)">
          <path
             d="m 4.296875,-2.1875 c -0.46875,-0.5625 -0.53125,-0.625 -0.8125,-0.828125 -0.359375,-0.28125 -0.84375,-0.5 -1.375,-0.5 -0.96875,0 -1.640625,0.859375 -1.640625,1.796875 0,0.9375 0.65625,1.796875 1.609375,1.796875 0.65625,0 1.421875,-0.34375 2.078125,-1.328125 0.46875,0.5625 0.53125,0.625 0.8125,0.828125 0.375,0.28125 0.859375,0.5 1.375,0.5 C 7.328125,0.078125 8,-0.765625 8,-1.71875 8,-2.65625 7.328125,-3.515625 6.390625,-3.515625 c -0.65625,0 -1.421875,0.34375 -2.09375,1.328125 z m 0.25,0.296875 C 4.84375,-2.390625 5.5,-3.21875 6.4375,-3.21875 c 0.859375,0 1.328125,0.78125 1.328125,1.5 0,0.765625 -0.578125,1.375 -1.28125,1.375 -0.703125,0 -1.171875,-0.59375 -1.9375,-1.546875 z m -0.625,0.34375 c -0.296875,0.5 -0.953125,1.328125 -1.890625,1.328125 -0.859375,0 -1.34375,-0.78125 -1.34375,-1.5 0,-0.765625 0.59375,-1.359375 1.296875,-1.359375 0.703125,0 1.171875,0.578125 1.9375,1.53125 z m 0,0"
             id="path16" />
        </g>
      </g>
    </g>
  </g>
</svg>
