<?xml version="1.0" encoding="UTF-8" standalone="no"?>
<!-- Created with Inkscape (http://www.inkscape.org/) -->

<svg
   width="55mm"
   height="49.999996mm"
   viewBox="0 0 207.87402 188.97637"
   version="1.1"
   id="svg1"
   inkscape:version="1.3.2 (091e20ef0f, 2023-11-25)"
   sodipodi:docname="figura02_02.svg"
   xmlns:inkscape="http://www.inkscape.org/namespaces/inkscape"
   xmlns:sodipodi="http://sodipodi.sourceforge.net/DTD/sodipodi-0.dtd"
   xmlns="http://www.w3.org/2000/svg"
   xmlns:svg="http://www.w3.org/2000/svg">
  <sodipodi:namedview
     id="namedview1"
     pagecolor="#ffffff"
     bordercolor="#000000"
     borderopacity="0.25"
     inkscape:showpageshadow="false"
     inkscape:pageopacity="0.0"
     inkscape:pagecheckerboard="0"
     inkscape:deskcolor="#d1d1d1"
     inkscape:document-units="mm"
     borderlayer="false"
     showgrid="true"
     inkscape:zoom="1.5607744"
     inkscape:cx="91.941539"
     inkscape:cy="-20.502643"
     inkscape:window-width="1920"
     inkscape:window-height="1046"
     inkscape:window-x="1920"
     inkscape:window-y="18"
     inkscape:window-maximized="1"
     inkscape:current-layer="layer1">
    <inkscape:grid
       id="grid1"
       units="mm"
       originx="0"
       originy="-170.07875"
       spacingx="3.7795277"
       spacingy="3.7795276"
       empcolor="#0099e5"
       empopacity="0.30196078"
       color="#0099e5"
       opacity="0.14901961"
       empspacing="5"
       dotted="false"
       gridanglex="30"
       gridanglez="30"
       visible="true" />
  </sodipodi:namedview>
  <defs
     id="defs1">
    <marker
       style="overflow:visible"
       id="marker25"
       refX="0"
       refY="0"
       orient="auto-start-reverse"
       inkscape:stockid="Wide arrow"
       markerWidth="1"
       markerHeight="1"
       viewBox="0 0 1 1"
       inkscape:isstock="true"
       inkscape:collect="always"
       preserveAspectRatio="xMidYMid">
      <path
         style="fill:none;stroke:context-stroke;stroke-width:1;stroke-linecap:butt"
         d="M 3,-3 0,0 3,3"
         transform="rotate(180,0.125,0)"
         sodipodi:nodetypes="ccc"
         id="path25" />
    </marker>
    <marker
       style="overflow:visible"
       id="marker23"
       refX="0"
       refY="0"
       orient="auto-start-reverse"
       inkscape:stockid="Wide arrow"
       markerWidth="1"
       markerHeight="1"
       viewBox="0 0 1 1"
       inkscape:isstock="true"
       inkscape:collect="always"
       preserveAspectRatio="xMidYMid">
      <path
         style="fill:none;stroke:context-stroke;stroke-width:1;stroke-linecap:butt"
         d="M 3,-3 0,0 3,3"
         transform="rotate(180,0.125,0)"
         sodipodi:nodetypes="ccc"
         id="path23" />
    </marker>
    <marker
       style="overflow:visible"
       id="ArrowWide"
       refX="0"
       refY="0"
       orient="auto-start-reverse"
       inkscape:stockid="Wide arrow"
       markerWidth="1"
       markerHeight="1"
       viewBox="0 0 1 1"
       inkscape:isstock="true"
       inkscape:collect="always"
       preserveAspectRatio="xMidYMid"
       markerUnits="strokeWidth">
      <path
         style="fill:none;stroke:context-stroke;stroke-width:1;stroke-linecap:butt"
         d="M 3,-3 0,0 3,3"
         transform="rotate(180,0.125,0)"
         sodipodi:nodetypes="ccc"
         id="path1" />
    </marker>
  </defs>
  <g
     inkscape:label="Capa 1"
     inkscape:groupmode="layer"
     id="layer1"
     transform="translate(0, -170.079)">
    <rect
       style="fill:#f4e3d7;stroke:none;stroke-width:2.88"
       id="rect8"
       width="94.48819"
       height="94.488197"
       x="56.692913"
       y="226.77167"
       ry="0" />
    <path
       style="fill:none;stroke:#000000;stroke-width:2.88;marker-start:url(#ArrowWide)"
       d="m 56.692914,188.97639 v 151.1811"
       id="path4"
       sodipodi:nodetypes="cc" />
    <path
       style="fill:none;stroke:#000000;stroke-width:2.88;marker-end:url(#marker23)"
       d="M 37.795276,321.25986 H 188.97638"
       id="path5"
       sodipodi:nodetypes="cc" />
    <path
       style="fill:none;stroke:#000000;stroke-width:0.990236;stroke-dasharray:none"
       d="M 56.692914,226.77166 H 151.1811 v 94.4882"
       id="path9"
       sodipodi:nodetypes="ccc" />
    <g
       inkscape:label=""
       transform="translate(95.214868,210.6918)"
       id="g11">
      <g
         fill="#000000"
         fill-opacity="1"
         id="g3"
         transform="matrix(1.33333,0,0,1.33333,-3.28233,-2.2125)">
        <g
           id="use2"
           transform="translate(1.993,8.8000002)">
          <path
             d="m 4.40625,-6.953125 c -0.0625,-0.140625 -0.09375,-0.1875 -0.265625,-0.1875 -0.15625,0 -0.1875,0.046875 -0.25,0.1875 l -3.375,6.75 C 0.46875,-0.109375 0.46875,-0.09375 0.46875,-0.078125 0.46875,0 0.53125,0 0.6875,0 h 6.921875 c 0.15625,0 0.21875,0 0.21875,-0.078125 0,-0.015625 0,-0.03125 -0.046875,-0.125 z m -0.578125,0.8125 2.6875,5.390625 h -5.375 z m 0,0"
             id="path10" />
        </g>
      </g>
      <g
         fill="#000000"
         fill-opacity="1"
         id="g4"
         transform="matrix(1.33333,0,0,1.33333,-3.28233,-2.2125)">
        <g
           id="use3"
           transform="translate(10.295,8.8000002)">
          <path
             d="M 3.328125,-3.015625 C 3.390625,-3.265625 3.625,-4.1875 4.3125,-4.1875 c 0.046875,0 0.296875,0 0.5,0.125 C 4.53125,-4 4.34375,-3.765625 4.34375,-3.515625 c 0,0.15625 0.109375,0.34375 0.375,0.34375 0.21875,0 0.53125,-0.171875 0.53125,-0.578125 0,-0.515625 -0.578125,-0.65625 -0.921875,-0.65625 -0.578125,0 -0.921875,0.53125 -1.046875,0.75 -0.25,-0.65625 -0.78125,-0.75 -1.078125,-0.75 -1.03125,0 -1.609375,1.28125 -1.609375,1.53125 0,0.109375 0.109375,0.109375 0.125,0.109375 0.078125,0 0.109375,-0.03125 0.125,-0.109375 0.34375,-1.0625 1,-1.3125 1.34375,-1.3125 0.1875,0 0.53125,0.09375 0.53125,0.671875 0,0.3125 -0.171875,0.96875 -0.53125,2.375 -0.15625,0.609375 -0.515625,1.03125 -0.953125,1.03125 -0.0625,0 -0.28125,0 -0.5,-0.125 0.25,-0.0625 0.46875,-0.265625 0.46875,-0.546875 0,-0.265625 -0.21875,-0.34375 -0.359375,-0.34375 -0.3125,0 -0.546875,0.25 -0.546875,0.578125 0,0.453125 0.484375,0.65625 0.921875,0.65625 0.671875,0 1.03125,-0.703125 1.046875,-0.75 0.125,0.359375 0.484375,0.75 1.078125,0.75 1.03125,0 1.59375,-1.28125 1.59375,-1.53125 0,-0.109375 -0.078125,-0.109375 -0.109375,-0.109375 -0.09375,0 -0.109375,0.046875 -0.140625,0.109375 -0.328125,1.078125 -1,1.3125 -1.3125,1.3125 -0.390625,0 -0.546875,-0.3125 -0.546875,-0.65625 0,-0.21875 0.046875,-0.4375 0.15625,-0.875 z m 0,0"
             id="path11" />
        </g>
      </g>
    </g>
    <g
       inkscape:label=""
       transform="translate(158.22648,267.89079)"
       id="g16">
      <g
         fill="#000000"
         fill-opacity="1"
         id="g13"
         transform="matrix(1.33333,0,0,1.33333,-3.28233,-2.2125)">
        <g
           id="g12"
           transform="translate(1.993,8.8000002)">
          <path
             d="m 4.40625,-6.953125 c -0.0625,-0.140625 -0.09375,-0.1875 -0.265625,-0.1875 -0.15625,0 -0.1875,0.046875 -0.25,0.1875 l -3.375,6.75 C 0.46875,-0.109375 0.46875,-0.09375 0.46875,-0.078125 0.46875,0 0.53125,0 0.6875,0 h 6.921875 c 0.15625,0 0.21875,0 0.21875,-0.078125 0,-0.015625 0,-0.03125 -0.046875,-0.125 z m -0.578125,0.8125 2.6875,5.390625 h -5.375 z m 0,0"
             id="path12" />
        </g>
      </g>
      <g
         fill="#000000"
         fill-opacity="1"
         id="g15"
         transform="matrix(1.33333,0,0,1.33333,-3.28233,-2.2125)">
        <g
           id="g14"
           transform="translate(10.295,8.8000002)">
          <path
             d="m 4.84375,-3.796875 c 0.046875,-0.140625 0.046875,-0.15625 0.046875,-0.234375 0,-0.171875 -0.140625,-0.265625 -0.296875,-0.265625 -0.09375,0 -0.25,0.0625 -0.34375,0.203125 -0.015625,0.0625 -0.109375,0.359375 -0.140625,0.546875 -0.078125,0.25 -0.140625,0.53125 -0.203125,0.796875 l -0.453125,1.796875 c -0.03125,0.140625 -0.46875,0.84375 -1.125,0.84375 -0.5,0 -0.609375,-0.4375 -0.609375,-0.8125 C 1.71875,-1.375 1.890625,-2 2.21875,-2.875 2.375,-3.28125 2.421875,-3.390625 2.421875,-3.59375 c 0,-0.4375 -0.3125,-0.8125 -0.8125,-0.8125 -0.953125,0 -1.3125,1.453125 -1.3125,1.53125 0,0.109375 0.09375,0.109375 0.109375,0.109375 0.109375,0 0.109375,-0.03125 0.15625,-0.1875 0.28125,-0.9375 0.671875,-1.234375 1.015625,-1.234375 0.078125,0 0.25,0 0.25,0.3125 0,0.25 -0.109375,0.515625 -0.171875,0.703125 -0.40625,1.0625 -0.578125,1.625 -0.578125,2.09375 0,0.890625 0.625,1.1875 1.21875,1.1875 0.390625,0 0.71875,-0.171875 1,-0.453125 -0.125,0.515625 -0.25,1.015625 -0.640625,1.546875 -0.265625,0.328125 -0.640625,0.625 -1.09375,0.625 -0.140625,0 -0.59375,-0.03125 -0.765625,-0.421875 0.15625,0 0.296875,0 0.421875,-0.125 C 1.328125,1.203125 1.421875,1.0625 1.421875,0.875 1.421875,0.5625 1.15625,0.53125 1.0625,0.53125 0.828125,0.53125 0.5,0.6875 0.5,1.171875 c 0,0.5 0.4375,0.875 1.0625,0.875 1.015625,0 2.046875,-0.90625 2.328125,-2.03125 z m 0,0"
             id="path13" />
        </g>
      </g>
    </g>
    <g
       inkscape:label=""
       transform="translate(192.95212,328.91095)"
       id="g20">
      <g
         fill="#000000"
         fill-opacity="1"
         id="g19"
         transform="matrix(1.33333,0,0,1.33333,-3.05317,-2.501)">
        <g
           id="g18"
           transform="translate(1.993,6.2820001)">
          <path
             d="M 3.328125,-3.015625 C 3.390625,-3.265625 3.625,-4.1875 4.3125,-4.1875 c 0.046875,0 0.296875,0 0.5,0.125 C 4.53125,-4 4.34375,-3.765625 4.34375,-3.515625 c 0,0.15625 0.109375,0.34375 0.375,0.34375 0.21875,0 0.53125,-0.171875 0.53125,-0.578125 0,-0.515625 -0.578125,-0.65625 -0.921875,-0.65625 -0.578125,0 -0.921875,0.53125 -1.046875,0.75 -0.25,-0.65625 -0.78125,-0.75 -1.078125,-0.75 -1.03125,0 -1.609375,1.28125 -1.609375,1.53125 0,0.109375 0.109375,0.109375 0.125,0.109375 0.078125,0 0.109375,-0.03125 0.125,-0.109375 0.34375,-1.0625 1,-1.3125 1.34375,-1.3125 0.1875,0 0.53125,0.09375 0.53125,0.671875 0,0.3125 -0.171875,0.96875 -0.53125,2.375 -0.15625,0.609375 -0.515625,1.03125 -0.953125,1.03125 -0.0625,0 -0.28125,0 -0.5,-0.125 0.25,-0.0625 0.46875,-0.265625 0.46875,-0.546875 0,-0.265625 -0.21875,-0.34375 -0.359375,-0.34375 -0.3125,0 -0.546875,0.25 -0.546875,0.578125 0,0.453125 0.484375,0.65625 0.921875,0.65625 0.671875,0 1.03125,-0.703125 1.046875,-0.75 0.125,0.359375 0.484375,0.75 1.078125,0.75 1.03125,0 1.59375,-1.28125 1.59375,-1.53125 0,-0.109375 -0.078125,-0.109375 -0.109375,-0.109375 -0.09375,0 -0.109375,0.046875 -0.140625,0.109375 -0.328125,1.078125 -1,1.3125 -1.3125,1.3125 -0.390625,0 -0.546875,-0.3125 -0.546875,-0.65625 0,-0.21875 0.046875,-0.4375 0.15625,-0.875 z m 0,0"
             id="path17" />
        </g>
      </g>
    </g>
    <g
       inkscape:label=""
       transform="translate(41.428982,179.22984)"
       id="g23">
      <g
         fill="#000000"
         fill-opacity="1"
         id="g22"
         transform="matrix(1.33333,0,0,1.33333,-3.05317,-2.501)">
        <g
           id="g21"
           transform="translate(1.993,6.2820001)">
          <path
             d="m 4.84375,-3.796875 c 0.046875,-0.140625 0.046875,-0.15625 0.046875,-0.234375 0,-0.171875 -0.140625,-0.265625 -0.296875,-0.265625 -0.09375,0 -0.25,0.0625 -0.34375,0.203125 -0.015625,0.0625 -0.109375,0.359375 -0.140625,0.546875 -0.078125,0.25 -0.140625,0.53125 -0.203125,0.796875 l -0.453125,1.796875 c -0.03125,0.140625 -0.46875,0.84375 -1.125,0.84375 -0.5,0 -0.609375,-0.4375 -0.609375,-0.8125 C 1.71875,-1.375 1.890625,-2 2.21875,-2.875 2.375,-3.28125 2.421875,-3.390625 2.421875,-3.59375 c 0,-0.4375 -0.3125,-0.8125 -0.8125,-0.8125 -0.953125,0 -1.3125,1.453125 -1.3125,1.53125 0,0.109375 0.09375,0.109375 0.109375,0.109375 0.109375,0 0.109375,-0.03125 0.15625,-0.1875 0.28125,-0.9375 0.671875,-1.234375 1.015625,-1.234375 0.078125,0 0.25,0 0.25,0.3125 0,0.25 -0.109375,0.515625 -0.171875,0.703125 -0.40625,1.0625 -0.578125,1.625 -0.578125,2.09375 0,0.890625 0.625,1.1875 1.21875,1.1875 0.390625,0 0.71875,-0.171875 1,-0.453125 -0.125,0.515625 -0.25,1.015625 -0.640625,1.546875 -0.265625,0.328125 -0.640625,0.625 -1.09375,0.625 -0.140625,0 -0.59375,-0.03125 -0.765625,-0.421875 0.15625,0 0.296875,0 0.421875,-0.125 C 1.328125,1.203125 1.421875,1.0625 1.421875,0.875 1.421875,0.5625 1.15625,0.53125 1.0625,0.53125 0.828125,0.53125 0.5,0.6875 0.5,1.171875 c 0,0.5 0.4375,0.875 1.0625,0.875 1.015625,0 2.046875,-0.90625 2.328125,-2.03125 z m 0,0"
             id="path20" />
        </g>
      </g>
    </g>
    <path
       style="fill:none;stroke:#000000;stroke-width:0.990236;stroke-dasharray:none;marker-end:url(#marker25)"
       d="M 29.778725,274.01576 H 48.692913"
       id="path24" />
    <g
       inkscape:label=""
       transform="translate(14.355991,269.78662)"
       id="g9">
      <g
         fill="#000000"
         fill-opacity="1"
         id="g6"
         transform="matrix(1.33333,0,0,1.33333,-3.199,-2.501)">
        <g
           id="g5"
           transform="translate(1.993,6.2820001)">
          <path
             d="m 4.5,-4.296875 c 0,-0.046875 -0.03125,-0.09375 -0.09375,-0.09375 -0.109375,0 -0.515625,0.390625 -0.671875,0.6875 C 3.515625,-4.25 3.125,-4.40625 2.796875,-4.40625 c -1.171875,0 -2.390625,1.46875 -2.390625,2.921875 0,0.96875 0.578125,1.59375 1.3125,1.59375 0.421875,0 0.8125,-0.234375 1.171875,-0.59375 -0.09375,0.34375 -0.421875,1.6875 -0.453125,1.78125 -0.078125,0.28125 -0.15625,0.3125 -0.71875,0.328125 -0.125,0 -0.21875,0 -0.21875,0.203125 0,0 0,0.109375 0.125,0.109375 0.3125,0 0.671875,-0.03125 1,-0.03125 0.328125,0 0.6875,0.03125 1.03125,0.03125 0.046875,0 0.171875,0 0.171875,-0.203125 C 3.828125,1.625 3.734375,1.625 3.5625,1.625 3.09375,1.625 3.09375,1.5625 3.09375,1.46875 3.09375,1.390625 3.109375,1.328125 3.125,1.25 Z m -2.75,4.1875 c -0.609375,0 -0.640625,-0.765625 -0.640625,-0.9375 0,-0.484375 0.28125,-1.5625 0.453125,-1.984375 0.3125,-0.734375 0.828125,-1.15625 1.234375,-1.15625 0.65625,0 0.796875,0.8125 0.796875,0.875 0,0.0625 -0.546875,2.25 -0.578125,2.28125 C 2.859375,-0.75 2.296875,-0.109375 1.75,-0.109375 Z m 0,0"
             id="path3" />
        </g>
      </g>
      <g
         fill="#000000"
         fill-opacity="1"
         id="g8"
         transform="matrix(1.33333,0,0,1.33333,-3.199,-2.501)">
        <g
           id="g7"
           transform="translate(6.4400001,7.777)">
          <path
             d="M 1.734375,-0.734375 C 1.671875,-0.5 1.4375,-0.125 1.078125,-0.125 c -0.015625,0 -0.234375,0 -0.375,-0.09375 0.28125,-0.09375 0.3125,-0.34375 0.3125,-0.390625 0,-0.15625 -0.125,-0.25 -0.28125,-0.25 -0.203125,0 -0.40625,0.15625 -0.40625,0.421875 0,0.34375 0.390625,0.5 0.734375,0.5 0.328125,0 0.609375,-0.1875 0.78125,-0.484375 C 2.015625,-0.0625 2.390625,0.0625 2.671875,0.0625 c 0.8125,0 1.234375,-0.859375 1.234375,-1.0625 0,-0.09375 -0.09375,-0.09375 -0.109375,-0.09375 -0.109375,0 -0.109375,0.046875 -0.140625,0.125 -0.140625,0.484375 -0.5625,0.84375 -0.953125,0.84375 -0.28125,0 -0.421875,-0.1875 -0.421875,-0.453125 0,-0.1875 0.171875,-0.8125 0.359375,-1.59375 C 2.78125,-2.703125 3.09375,-2.875 3.328125,-2.875 c 0.015625,0 0.21875,0 0.375,0.09375 -0.21875,0.0625 -0.3125,0.265625 -0.3125,0.390625 0,0.140625 0.125,0.25 0.28125,0.25 0.15625,0 0.390625,-0.125 0.390625,-0.421875 0,-0.390625 -0.453125,-0.515625 -0.71875,-0.515625 -0.359375,0 -0.640625,0.234375 -0.78125,0.5 -0.125,-0.28125 -0.453125,-0.5 -0.84375,-0.5 C 0.9375,-3.078125 0.5,-2.21875 0.5,-2 c 0,0.078125 0.09375,0.078125 0.109375,0.078125 0.09375,0 0.09375,-0.015625 0.140625,-0.109375 C 0.921875,-2.578125 1.359375,-2.875 1.703125,-2.875 1.9375,-2.875 2.125,-2.75 2.125,-2.421875 2.125,-2.28125 2.03125,-1.9375 1.96875,-1.6875 Z m 0,0"
             id="path6" />
        </g>
      </g>
    </g>
  </g>
</svg>
