<?xml version="1.0" encoding="UTF-8" standalone="no"?>
<!-- Created with Inkscape (http://www.inkscape.org/) -->

<svg
   width="120"
   height="120.00001"
   viewBox="0 0 31.749999 31.750002"
   version="1.1"
   id="svg1"
   inkscape:version="1.3.2 (091e20ef0f, 2023-11-25)"
   sodipodi:docname="figura04_05.svg"
   xmlns:inkscape="http://www.inkscape.org/namespaces/inkscape"
   xmlns:sodipodi="http://sodipodi.sourceforge.net/DTD/sodipodi-0.dtd"
   xmlns="http://www.w3.org/2000/svg"
   xmlns:svg="http://www.w3.org/2000/svg">
  <sodipodi:namedview
     id="namedview1"
     pagecolor="#ffffff"
     bordercolor="#000000"
     borderopacity="0.25"
     inkscape:showpageshadow="false"
     inkscape:pageopacity="0.0"
     inkscape:pagecheckerboard="0"
     inkscape:deskcolor="#d1d1d1"
     inkscape:document-units="px"
     showgrid="true"
     inkscape:zoom="4.2431962"
     inkscape:cx="69.405228"
     inkscape:cy="67.402021"
     inkscape:window-width="1920"
     inkscape:window-height="1046"
     inkscape:window-x="1920"
     inkscape:window-y="18"
     inkscape:window-maximized="1"
     inkscape:current-layer="layer1">
    <inkscape:grid
       id="grid1"
       units="px"
       originx="-10.583333"
       originy="-10.583334"
       spacingx="1.3229166"
       spacingy="1.3229167"
       empcolor="#0099e5"
       empopacity="0.30196078"
       color="#0099e5"
       opacity="0.14901961"
       empspacing="4"
       dotted="false"
       gridanglex="30"
       gridanglez="30"
       visible="true" />
  </sodipodi:namedview>
  <defs
     id="defs1">
    <marker
       style="overflow:visible"
       id="ArrowWide"
       refX="0"
       refY="0"
       orient="auto-start-reverse"
       inkscape:stockid="Wide arrow"
       markerWidth="1"
       markerHeight="1"
       viewBox="0 0 1 1"
       inkscape:isstock="true"
       inkscape:collect="always"
       preserveAspectRatio="xMidYMid">
      <path
         style="fill:none;stroke:context-stroke;stroke-width:1;stroke-linecap:butt"
         d="M 3,-3 0,0 3,3"
         transform="rotate(180,0.125,0)"
         sodipodi:nodetypes="ccc"
         id="path12" />
    </marker>
  </defs>
  <g
     inkscape:label="Capa 1"
     inkscape:groupmode="layer"
     id="layer1"
     transform="translate(-10.583333,-10.583334)">
    <rect
       style="fill:#ccffff;fill-opacity:1;stroke:none;stroke-width:0.264583;stroke-linejoin:round;stroke-dasharray:none;stroke-dashoffset:0"
       id="rect10"
       width="31.75"
       height="31.750002"
       x="10.583333"
       y="10.583334" />
    <g
       inkscape:label=""
       transform="translate(11.487325,13.124436)"
       id="g1">
      <g
         fill="#000000"
         fill-opacity="1"
         id="g3"
         transform="matrix(0.352778,0,0,0.352778,-0.807817,-0.678259)">
        <g
           id="use2"
           transform="translate(1.993,6.2820001)">
          <path
             d="m 1.71875,-2.75 h 0.703125 c 0.140625,0 0.21875,0 0.21875,-0.15625 C 2.640625,-3 2.5625,-3 2.4375,-3 H 1.78125 l 0.25,-1.03125 C 2.046875,-4.0625 2.0625,-4.109375 2.0625,-4.125 c 0,-0.140625 -0.109375,-0.234375 -0.25,-0.234375 -0.171875,0 -0.265625,0.125 -0.328125,0.296875 C 1.4375,-3.875 1.53125,-4.21875 1.21875,-3 H 0.515625 c -0.125,0 -0.21875,0 -0.21875,0.15625 C 0.296875,-2.75 0.375,-2.75 0.5,-2.75 H 1.15625 L 0.75,-1.109375 C 0.703125,-0.9375 0.640625,-0.6875 0.640625,-0.59375 c 0,0.40625 0.359375,0.65625 0.75,0.65625 0.78125,0 1.21875,-0.96875 1.21875,-1.0625 0,-0.09375 -0.09375,-0.09375 -0.109375,-0.09375 -0.09375,0 -0.09375,0.015625 -0.15625,0.140625 -0.1875,0.4375 -0.546875,0.828125 -0.921875,0.828125 -0.15625,0 -0.25,-0.09375 -0.25,-0.34375 0,-0.0625 0.03125,-0.21875 0.046875,-0.28125 z m 0,0"
             id="path4" />
        </g>
      </g>
      <g
         fill="#000000"
         fill-opacity="1"
         id="g4"
         transform="matrix(0.352778,0,0,0.352778,-0.807817,-0.678259)">
        <g
           id="use3"
           transform="translate(5.0019999,7.2779999)">
          <path
             d="M 3.4375,-1.375 C 3.3125,-1.5 3.25,-1.578125 3.125,-1.6875 2.984375,-1.828125 2.5,-2.203125 1.828125,-2.203125 c -0.6875,0 -1.203125,0.515625 -1.203125,1.125 0,0.625 0.515625,1.140625 1.1875,1.140625 0.375,0 0.96875,-0.140625 1.53125,-0.84375 0.125,0.140625 0.1875,0.203125 0.3125,0.328125 0.140625,0.140625 0.625,0.515625 1.296875,0.515625 0.6875,0 1.203125,-0.515625 1.203125,-1.140625 0,-0.609375 -0.515625,-1.125 -1.1875,-1.125 C 4.59375,-2.203125 4,-2.0625 3.4375,-1.375 Z m 0.1875,0.203125 c 0.3125,-0.4375 0.828125,-0.8125 1.390625,-0.8125 0.53125,0 0.96875,0.40625 0.96875,0.90625 0,0.46875 -0.421875,0.8125 -0.9375,0.8125 -0.171875,0 -0.4375,-0.015625 -0.875,-0.375 -0.1875,-0.15625 -0.34375,-0.34375 -0.546875,-0.53125 z M 3.15625,-0.96875 c -0.3125,0.421875 -0.8125,0.796875 -1.390625,0.796875 -0.53125,0 -0.96875,-0.390625 -0.96875,-0.90625 0,-0.46875 0.421875,-0.8125 0.9375,-0.8125 0.171875,0 0.4375,0.015625 0.875,0.375 0.203125,0.171875 0.34375,0.34375 0.546875,0.546875 z m 0,0"
             id="path5" />
        </g>
      </g>
    </g>
    <circle
       style="fill:#999999;stroke:#000000;stroke-width:0.264583;stroke-linejoin:round"
       id="path8"
       cx="26.458332"
       cy="26.458336"
       r="10.583333" />
    <circle
       style="fill:#ffffff;stroke:#000000;stroke-width:0.264583;stroke-linejoin:round"
       id="circle8"
       cx="26.458332"
       cy="26.458336"
       r="9.6480122" />
    <circle
       style="fill:none;stroke:#000000;stroke-width:0.15875;stroke-linejoin:round;stroke-dasharray:0.47625, 0.47625;stroke-dashoffset:0"
       id="circle9"
       cx="26.458332"
       cy="26.458336"
       r="11.144526" />
    <path
       style="fill:none;stroke:#000000;stroke-width:0.264583;stroke-linejoin:round;stroke-dasharray:none;stroke-dashoffset:0"
       d="m 10.583333,26.458336 c 0,0 31.75,0 31.75,0"
       id="path9" />
    <path
       style="fill:none;stroke:#000000;stroke-width:0.264583;stroke-linejoin:round;stroke-dasharray:none;stroke-dashoffset:0"
       d="M 26.458333,10.583334 V 42.333335"
       id="path10" />
    <g
       inkscape:label=""
       transform="translate(36.319573,12.027516)"
       id="g8">
      <g
         fill="#000000"
         fill-opacity="1"
         id="g5"
         transform="matrix(0.352778,0,0,0.352778,-0.807817,-0.678259)">
        <g
           id="g2"
           transform="translate(1.993,6.2820001)">
          <path
             d="m 1.71875,-2.75 h 0.703125 c 0.140625,0 0.21875,0 0.21875,-0.15625 C 2.640625,-3 2.5625,-3 2.4375,-3 H 1.78125 l 0.25,-1.03125 C 2.046875,-4.0625 2.0625,-4.109375 2.0625,-4.125 c 0,-0.140625 -0.109375,-0.234375 -0.25,-0.234375 -0.171875,0 -0.265625,0.125 -0.328125,0.296875 C 1.4375,-3.875 1.53125,-4.21875 1.21875,-3 H 0.515625 c -0.125,0 -0.21875,0 -0.21875,0.15625 C 0.296875,-2.75 0.375,-2.75 0.5,-2.75 H 1.15625 L 0.75,-1.109375 C 0.703125,-0.9375 0.640625,-0.6875 0.640625,-0.59375 c 0,0.40625 0.359375,0.65625 0.75,0.65625 0.78125,0 1.21875,-0.96875 1.21875,-1.0625 0,-0.09375 -0.09375,-0.09375 -0.109375,-0.09375 -0.09375,0 -0.09375,0.015625 -0.15625,0.140625 -0.1875,0.4375 -0.546875,0.828125 -0.921875,0.828125 -0.15625,0 -0.25,-0.09375 -0.25,-0.34375 0,-0.0625 0.03125,-0.21875 0.046875,-0.28125 z m 0,0"
             id="path1" />
        </g>
      </g>
      <g
         fill="#000000"
         fill-opacity="1"
         id="g7"
         transform="matrix(0.352778,0,0,0.352778,-0.807817,-0.678259)">
        <g
           id="g6"
           transform="translate(5.0019999,7.2779999)">
          <path
             d="m 2.53125,-1.890625 c -0.171875,0.0625 -0.203125,0.203125 -0.203125,0.25 0,0.125 0.109375,0.1875 0.1875,0.1875 0.0625,0 0.265625,-0.046875 0.265625,-0.3125 0,-0.328125 -0.390625,-0.4375 -0.765625,-0.4375 -0.84375,0 -1,0.515625 -1,0.6875 0,0.1875 0.09375,0.296875 0.1875,0.359375 0.140625,0.09375 0.296875,0.125 0.5625,0.171875 0.3125,0.046875 0.65625,0.09375 0.65625,0.34375 0,0.015625 0,0.53125 -0.921875,0.53125 -0.1875,0 -0.5,-0.015625 -0.65625,-0.171875 0.1875,-0.046875 0.265625,-0.1875 0.265625,-0.3125 0,-0.140625 -0.109375,-0.203125 -0.21875,-0.203125 -0.171875,0 -0.3125,0.140625 -0.3125,0.359375 0,0.5 0.765625,0.5 0.921875,0.5 1.015625,0 1.1875,-0.59375 1.1875,-0.796875 C 2.6875,-1.1875 2.140625,-1.265625 1.890625,-1.3125 1.53125,-1.375 1.28125,-1.40625 1.28125,-1.609375 c 0,-0.015625 0,-0.421875 0.71875,-0.421875 0.140625,0 0.390625,0 0.53125,0.140625 z m 0,0"
             id="path6" />
        </g>
      </g>
    </g>
    <path
       style="fill:#999999;fill-opacity:1;stroke:#000000;stroke-width:0.264583;stroke-linejoin:round;stroke-dasharray:none;stroke-dashoffset:0;marker-end:url(#ArrowWide)"
       d="M 37.041665,26.458336 V 14.552084"
       id="path11" />
  </g>
</svg>
