<?xml version="1.0" encoding="UTF-8" standalone="no"?>
<!-- Created with Inkscape (http://www.inkscape.org/) -->

<svg
   width="120.00001"
   height="100"
   viewBox="0 0 31.750002 26.458333"
   version="1.1"
   id="svg1"
   inkscape:version="1.3.2 (091e20ef0f, 2023-11-25)"
   sodipodi:docname="figura03_02.svg"
   xmlns:inkscape="http://www.inkscape.org/namespaces/inkscape"
   xmlns:sodipodi="http://sodipodi.sourceforge.net/DTD/sodipodi-0.dtd"
   xmlns="http://www.w3.org/2000/svg"
   xmlns:svg="http://www.w3.org/2000/svg">
  <sodipodi:namedview
     id="namedview1"
     pagecolor="#ffffff"
     bordercolor="#000000"
     borderopacity="0.25"
     inkscape:showpageshadow="false"
     inkscape:pageopacity="0.0"
     inkscape:pagecheckerboard="0"
     inkscape:deskcolor="#d1d1d1"
     inkscape:document-units="px"
     showgrid="true"
     inkscape:zoom="6.0007856"
     inkscape:cx="57.07586"
     inkscape:cy="43.827595"
     inkscape:window-width="1920"
     inkscape:window-height="1046"
     inkscape:window-x="1920"
     inkscape:window-y="18"
     inkscape:window-maximized="1"
     inkscape:current-layer="layer1">
    <inkscape:grid
       id="grid1"
       units="px"
       originx="0"
       originy="0"
       spacingx="1.3229167"
       spacingy="1.3229167"
       empcolor="#0099e5"
       empopacity="0.30196078"
       color="#0099e5"
       opacity="0.14901961"
       empspacing="4"
       dotted="false"
       gridanglex="30"
       gridanglez="30"
       visible="true" />
  </sodipodi:namedview>
  <defs
     id="defs1" />
  <g
     inkscape:label="Capa 1"
     inkscape:groupmode="layer"
     id="layer1">
    <path
       style="fill:none;stroke:#000000;stroke-width:0.211667;stroke-linejoin:round;stroke-dasharray:0.846667, 0.846667;stroke-dashoffset:0"
       d="M 13.229168,2.6458336 V 22.489585"
       id="path1"
       sodipodi:nodetypes="cc" />
    <path
       style="fill:none;stroke:#000000;stroke-width:0.211667;stroke-linejoin:round;stroke-dasharray:0.846667, 0.846667;stroke-dashoffset:0"
       d="M 2.6458336,13.229168 H 23.812502"
       id="path2" />
    <circle
       style="fill:none;stroke:#000000;stroke-width:0.105833;stroke-linejoin:round;stroke-dasharray:none;stroke-dashoffset:0"
       id="path3"
       cx="13.229168"
       cy="13.229168"
       r="2.645834" />
    <circle
       style="fill:none;stroke:#000000;stroke-width:0.105833;stroke-linejoin:round;stroke-dasharray:none;stroke-dashoffset:0"
       id="path4"
       cx="13.229168"
       cy="13.229168"
       r="5.2916675" />
    <circle
       style="fill:none;stroke:#000000;stroke-width:0.105833;stroke-linejoin:round;stroke-dasharray:none;stroke-dashoffset:0"
       id="path5"
       cx="13.229168"
       cy="13.229168"
       r="7.937501" />
    <text
       xml:space="preserve"
       style="font-size:1.41111px;font-family:Futura;-inkscape-font-specification:'Futura, Normal';fill:#0000ff;stroke:none;stroke-width:0.105833;stroke-linejoin:round;stroke-dasharray:none;stroke-dashoffset:0"
       x="6.3298101"
       y="6.5920062"
       id="text5"><tspan
         sodipodi:role="line"
         id="tspan5"
         style="fill:#0000ff;stroke:none;stroke-width:0.105833;stroke-dasharray:none"
         x="6.3298101"
         y="6.5920062">0</tspan></text>
    <text
       xml:space="preserve"
       style="font-size:1.41111px;font-family:Futura;-inkscape-font-specification:'Futura, Normal';fill:#0000ff;stroke:none;stroke-width:0.105833;stroke-linejoin:round;stroke-dasharray:none;stroke-dashoffset:0"
       x="8.230546"
       y="8.9485607"
       id="text6"><tspan
         sodipodi:role="line"
         id="tspan6"
         style="fill:#0000ff;stroke:none;stroke-width:0.105833;stroke-dasharray:none"
         x="8.230546"
         y="8.9485607">1</tspan></text>
    <text
       xml:space="preserve"
       style="font-size:1.41111px;font-family:Futura;-inkscape-font-specification:'Futura, Normal';fill:#0000ff;stroke:none;stroke-width:0.105833;stroke-linejoin:round;stroke-dasharray:none;stroke-dashoffset:0"
       x="10.14735"
       y="10.748659"
       id="text7"><tspan
         sodipodi:role="line"
         id="tspan7"
         style="fill:#0000ff;stroke:none;stroke-width:0.105833;stroke-dasharray:none"
         x="10.14735"
         y="10.748659">2</tspan></text>
    <text
       xml:space="preserve"
       style="font-size:1.41111px;font-family:Futura;-inkscape-font-specification:'Futura, Normal';fill:#0000ff;stroke:none;stroke-width:0.105833;stroke-linejoin:round;stroke-dasharray:none;stroke-dashoffset:0"
       x="11.706753"
       y="12.603087"
       id="text8"><tspan
         sodipodi:role="line"
         id="tspan8"
         style="fill:#0000ff;stroke:none;stroke-width:0.105833;stroke-dasharray:none"
         x="11.706753"
         y="12.603087">3</tspan></text>
    <g
       inkscape:label=""
       transform="translate(3.8735826,23.952421)"
       id="g83">
      <g
         fill="#000000"
         fill-opacity="1"
         id="g22"
         transform="matrix(0.352778,0,0,0.352778,-0.851914,-0.681214)">
        <g
           id="g6"
           transform="translate(1.993,5.0560002)">
          <path
             d="m 1.5625,-1.921875 h 0.59375 c 0.109375,0 0.109375,0 0.125,-0.03125 C 2.3125,-1.96875 2.328125,-2.03125 2.328125,-2.0625 2.328125,-2.140625 2.25,-2.140625 2.171875,-2.140625 H 1.625 L 1.71875,-2.5625 C 1.75,-2.6875 1.8125,-2.921875 1.8125,-2.953125 1.8125,-3.03125 1.75,-3.125 1.625,-3.125 c -0.078125,0 -0.203125,0.0625 -0.234375,0.1875 -0.03125,0.09375 0.03125,-0.140625 -0.203125,0.796875 H 0.59375 c -0.09375,0 -0.171875,0 -0.171875,0.125 0,0.09375 0.0625,0.09375 0.15625,0.09375 H 1.125 L 0.84375,-0.75 c -0.03125,0.109375 -0.078125,0.265625 -0.078125,0.328125 0,0.28125 0.265625,0.484375 0.625,0.484375 0.59375,0 0.96875,-0.6875 0.96875,-0.78125 0,-0.0625 -0.09375,-0.0625 -0.109375,-0.0625 -0.078125,0 -0.09375,0.015625 -0.109375,0.078125 -0.171875,0.359375 -0.46875,0.59375 -0.734375,0.59375 -0.15625,0 -0.203125,-0.125 -0.203125,-0.265625 0,-0.078125 0,-0.09375 0.015625,-0.140625 z m 0,0"
             id="path6" />
        </g>
      </g>
      <g
         fill="#000000"
         fill-opacity="1"
         id="g36"
         transform="matrix(0.352778,0,0,0.352778,-0.851914,-0.681214)">
        <g
           id="g35"
           transform="translate(4.8000002,6.5500002)">
          <path
             d="M 3,-1.59375 C 3,-1.953125 3,-3.3125 1.6875,-3.3125 c -1.296875,0 -1.296875,1.359375 -1.296875,1.71875 0,0.359375 0,1.703125 1.296875,1.703125 C 3,0.109375 3,-1.234375 3,-1.59375 Z M 1.6875,-0.0625 C 1.515625,-0.0625 1.09375,-0.125 0.96875,-0.625 0.890625,-0.890625 0.890625,-1.25 0.890625,-1.65625 c 0,-0.375 0,-0.71875 0.078125,-1 0.125,-0.421875 0.515625,-0.5 0.71875,-0.5 0.375,0 0.640625,0.1875 0.734375,0.546875 C 2.5,-2.359375 2.5,-1.953125 2.5,-1.65625 c 0,0.34375 0,0.75 -0.078125,1.046875 C 2.296875,-0.125 1.890625,-0.0625 1.6875,-0.0625 Z m 0,0"
             id="path35" />
        </g>
      </g>
      <g
         fill="#000000"
         fill-opacity="1"
         id="g66"
         transform="matrix(0.352778,0,0,0.352778,-0.851914,-0.681214)">
        <g
           id="g37"
           transform="translate(10.726,5.0560002)">
          <path
             d="m 4.4375,-1.703125 c 0.078125,0 0.203125,0 0.203125,-0.140625 0,-0.140625 -0.15625,-0.140625 -0.21875,-0.140625 h -3.71875 c -0.078125,0 -0.21875,0 -0.21875,0.140625 0,0.140625 0.125,0.140625 0.1875,0.140625 z m -0.015625,1.1875 c 0.0625,0 0.21875,0 0.21875,-0.140625 0,-0.140625 -0.125,-0.140625 -0.203125,-0.140625 H 0.671875 c -0.0625,0 -0.1875,0 -0.1875,0.140625 0,0.140625 0.140625,0.140625 0.21875,0.140625 z m 0,0"
             id="path36" />
        </g>
      </g>
      <g
         fill="#000000"
         fill-opacity="1"
         id="g68"
         transform="matrix(0.352778,0,0,0.352778,-0.851914,-0.681214)">
        <g
           id="g67"
           transform="translate(17.882999,5.0560002)">
          <path
             d="m 1.5625,-1.921875 h 0.59375 c 0.109375,0 0.109375,0 0.125,-0.03125 C 2.3125,-1.96875 2.328125,-2.03125 2.328125,-2.0625 2.328125,-2.140625 2.25,-2.140625 2.171875,-2.140625 H 1.625 L 1.71875,-2.5625 C 1.75,-2.6875 1.8125,-2.921875 1.8125,-2.953125 1.8125,-3.03125 1.75,-3.125 1.625,-3.125 c -0.078125,0 -0.203125,0.0625 -0.234375,0.1875 -0.03125,0.09375 0.03125,-0.140625 -0.203125,0.796875 H 0.59375 c -0.09375,0 -0.171875,0 -0.171875,0.125 0,0.09375 0.0625,0.09375 0.15625,0.09375 H 1.125 L 0.84375,-0.75 c -0.03125,0.109375 -0.078125,0.265625 -0.078125,0.328125 0,0.28125 0.265625,0.484375 0.625,0.484375 0.59375,0 0.96875,-0.6875 0.96875,-0.78125 0,-0.0625 -0.09375,-0.0625 -0.109375,-0.0625 -0.078125,0 -0.09375,0.015625 -0.109375,0.078125 -0.171875,0.359375 -0.46875,0.59375 -0.734375,0.59375 -0.15625,0 -0.203125,-0.125 -0.203125,-0.265625 0,-0.078125 0,-0.09375 0.015625,-0.140625 z m 0,0"
             id="path66" />
        </g>
      </g>
      <g
         fill="#000000"
         fill-opacity="1"
         id="g70"
         transform="matrix(0.352778,0,0,0.352778,-0.851914,-0.681214)">
        <g
           id="g69"
           transform="translate(20.690001,6.5500002)">
          <path
             d="M 1.984375,-3.171875 C 1.984375,-3.3125 1.96875,-3.3125 1.796875,-3.3125 1.453125,-3 0.890625,-3 0.796875,-3 H 0.71875 v 0.21875 h 0.078125 c 0.109375,0 0.4375,-0.015625 0.734375,-0.140625 v 2.5 c 0,0.140625 0,0.203125 -0.53125,0.203125 H 0.75 V 0 c 0.265625,-0.015625 0.71875,-0.015625 1,-0.015625 0.296875,0 0.734375,0 1.015625,0.015625 v -0.21875 h -0.25 c -0.53125,0 -0.53125,-0.0625 -0.53125,-0.203125 z m 0,0"
             id="path68" />
        </g>
      </g>
      <g
         fill="#000000"
         fill-opacity="1"
         id="g72"
         transform="matrix(0.352778,0,0,0.352778,-0.851914,-0.681214)">
        <g
           id="g71"
           transform="translate(26.615999,5.0560002)">
          <path
             d="m 4.4375,-1.703125 c 0.078125,0 0.203125,0 0.203125,-0.140625 0,-0.140625 -0.15625,-0.140625 -0.21875,-0.140625 h -3.71875 c -0.078125,0 -0.21875,0 -0.21875,0.140625 0,0.140625 0.125,0.140625 0.1875,0.140625 z m -0.015625,1.1875 c 0.0625,0 0.21875,0 0.21875,-0.140625 0,-0.140625 -0.125,-0.140625 -0.203125,-0.140625 H 0.671875 c -0.0625,0 -0.1875,0 -0.1875,0.140625 0,0.140625 0.140625,0.140625 0.21875,0.140625 z m 0,0"
             id="path70" />
        </g>
      </g>
      <g
         fill="#000000"
         fill-opacity="1"
         id="g74"
         transform="matrix(0.352778,0,0,0.352778,-0.851914,-0.681214)">
        <g
           id="g73"
           transform="translate(33.772999,5.0560002)">
          <path
             d="m 1.5625,-1.921875 h 0.59375 c 0.109375,0 0.109375,0 0.125,-0.03125 C 2.3125,-1.96875 2.328125,-2.03125 2.328125,-2.0625 2.328125,-2.140625 2.25,-2.140625 2.171875,-2.140625 H 1.625 L 1.71875,-2.5625 C 1.75,-2.6875 1.8125,-2.921875 1.8125,-2.953125 1.8125,-3.03125 1.75,-3.125 1.625,-3.125 c -0.078125,0 -0.203125,0.0625 -0.234375,0.1875 -0.03125,0.09375 0.03125,-0.140625 -0.203125,0.796875 H 0.59375 c -0.09375,0 -0.171875,0 -0.171875,0.125 0,0.09375 0.0625,0.09375 0.15625,0.09375 H 1.125 L 0.84375,-0.75 c -0.03125,0.109375 -0.078125,0.265625 -0.078125,0.328125 0,0.28125 0.265625,0.484375 0.625,0.484375 0.59375,0 0.96875,-0.6875 0.96875,-0.78125 0,-0.0625 -0.09375,-0.0625 -0.109375,-0.0625 -0.078125,0 -0.09375,0.015625 -0.109375,0.078125 -0.171875,0.359375 -0.46875,0.59375 -0.734375,0.59375 -0.15625,0 -0.203125,-0.125 -0.203125,-0.265625 0,-0.078125 0,-0.09375 0.015625,-0.140625 z m 0,0"
             id="path72" />
        </g>
      </g>
      <g
         fill="#000000"
         fill-opacity="1"
         id="g76"
         transform="matrix(0.352778,0,0,0.352778,-0.851914,-0.681214)">
        <g
           id="g75"
           transform="translate(36.580002,6.5500002)">
          <path
             d="M 2.9375,-0.96875 H 2.71875 c 0,0.09375 -0.0625,0.40625 -0.140625,0.453125 -0.03125,0.03125 -0.453125,0.03125 -0.53125,0.03125 H 1.078125 C 1.40625,-0.71875 1.765625,-1 2.0625,-1.203125 c 0.453125,-0.3125 0.875,-0.59375 0.875,-1.125 0,-0.640625 -0.609375,-0.984375 -1.3125,-0.984375 -0.671875,0 -1.171875,0.375 -1.171875,0.875 0,0.25 0.21875,0.296875 0.296875,0.296875 0.125,0 0.28125,-0.09375 0.28125,-0.296875 0,-0.171875 -0.125,-0.28125 -0.28125,-0.28125 0.140625,-0.234375 0.4375,-0.375 0.765625,-0.375 0.484375,0 0.890625,0.28125 0.890625,0.765625 0,0.421875 -0.296875,0.75 -0.671875,1.0625 l -1.21875,1.03125 C 0.46875,-0.1875 0.453125,-0.1875 0.453125,-0.15625 V 0 h 2.3125 z m 0,0"
             id="path74" />
        </g>
      </g>
      <g
         fill="#000000"
         fill-opacity="1"
         id="g78"
         transform="matrix(0.352778,0,0,0.352778,-0.851914,-0.681214)">
        <g
           id="g77"
           transform="translate(42.506001,5.0560002)">
          <path
             d="m 4.4375,-1.703125 c 0.078125,0 0.203125,0 0.203125,-0.140625 0,-0.140625 -0.15625,-0.140625 -0.21875,-0.140625 h -3.71875 c -0.078125,0 -0.21875,0 -0.21875,0.140625 0,0.140625 0.125,0.140625 0.1875,0.140625 z m -0.015625,1.1875 c 0.0625,0 0.21875,0 0.21875,-0.140625 0,-0.140625 -0.125,-0.140625 -0.203125,-0.140625 H 0.671875 c -0.0625,0 -0.1875,0 -0.1875,0.140625 0,0.140625 0.140625,0.140625 0.21875,0.140625 z m 0,0"
             id="path76" />
        </g>
      </g>
      <g
         fill="#000000"
         fill-opacity="1"
         id="g80"
         transform="matrix(0.352778,0,0,0.352778,-0.851914,-0.681214)">
        <g
           id="g79"
           transform="translate(49.662998,5.0560002)">
          <path
             d="m 1.5625,-1.921875 h 0.59375 c 0.109375,0 0.109375,0 0.125,-0.03125 C 2.3125,-1.96875 2.328125,-2.03125 2.328125,-2.0625 2.328125,-2.140625 2.25,-2.140625 2.171875,-2.140625 H 1.625 L 1.71875,-2.5625 C 1.75,-2.6875 1.8125,-2.921875 1.8125,-2.953125 1.8125,-3.03125 1.75,-3.125 1.625,-3.125 c -0.078125,0 -0.203125,0.0625 -0.234375,0.1875 -0.03125,0.09375 0.03125,-0.140625 -0.203125,0.796875 H 0.59375 c -0.09375,0 -0.171875,0 -0.171875,0.125 0,0.09375 0.0625,0.09375 0.15625,0.09375 H 1.125 L 0.84375,-0.75 c -0.03125,0.109375 -0.078125,0.265625 -0.078125,0.328125 0,0.28125 0.265625,0.484375 0.625,0.484375 0.59375,0 0.96875,-0.6875 0.96875,-0.78125 0,-0.0625 -0.09375,-0.0625 -0.109375,-0.0625 -0.078125,0 -0.09375,0.015625 -0.109375,0.078125 -0.171875,0.359375 -0.46875,0.59375 -0.734375,0.59375 -0.15625,0 -0.203125,-0.125 -0.203125,-0.265625 0,-0.078125 0,-0.09375 0.015625,-0.140625 z m 0,0"
             id="path78" />
        </g>
      </g>
      <g
         fill="#000000"
         fill-opacity="1"
         id="g82"
         transform="matrix(0.352778,0,0,0.352778,-0.851914,-0.681214)">
        <g
           id="g81"
           transform="translate(52.470001,6.5500002)">
          <path
             d="m 1.640625,-1.65625 c 0.46875,0 0.765625,0.296875 0.765625,0.78125 0,0.515625 -0.3125,0.78125 -0.75,0.78125 -0.0625,0 -0.65625,0 -0.90625,-0.265625 0.203125,-0.03125 0.265625,-0.171875 0.265625,-0.296875 0,-0.1875 -0.140625,-0.3125 -0.3125,-0.3125 -0.15625,0 -0.296875,0.109375 -0.296875,0.328125 0,0.515625 0.578125,0.75 1.265625,0.75 0.8125,0 1.3125,-0.5 1.3125,-0.984375 0,-0.40625 -0.359375,-0.75 -0.921875,-0.875 0.59375,-0.203125 0.75,-0.578125 0.75,-0.859375 0,-0.40625 -0.5,-0.703125 -1.125,-0.703125 -0.625,0 -1.109375,0.25 -1.109375,0.703125 0,0.234375 0.1875,0.296875 0.28125,0.296875 0.140625,0 0.28125,-0.109375 0.28125,-0.296875 0,-0.109375 -0.0625,-0.25 -0.234375,-0.28125 C 1.109375,-3.109375 1.5625,-3.125 1.671875,-3.125 c 0.359375,0 0.609375,0.171875 0.609375,0.515625 0,0.296875 -0.1875,0.75 -0.703125,0.78125 -0.140625,0 -0.15625,0 -0.296875,0.015625 -0.046875,0 -0.109375,0 -0.109375,0.078125 0,0.078125 0.046875,0.078125 0.140625,0.078125 z m 0,0"
             id="path80" />
        </g>
      </g>
    </g>
    <g
       inkscape:label=""
       transform="translate(19.518613,1.4607194)"
       id="g95">
      <g
         fill="#000000"
         fill-opacity="1"
         id="g86"
         transform="matrix(0.352778,0,0,0.352778,-0.857426,-0.704806)">
        <g
           id="g84"
           transform="translate(1.993,5.5760002)">
          <path
             d="m 0.984375,-0.421875 c 0,0.15625 0,0.203125 -0.40625,0.203125 H 0.4375 V 0 h 2.359375 c 0.765625,0 1.375,-0.421875 1.375,-0.921875 C 4.171875,-1.28125 3.8125,-1.6875 3,-1.78125 3.515625,-1.859375 4,-2.15625 4,-2.546875 4,-3.015625 3.375,-3.40625 2.640625,-3.40625 H 0.4375 v 0.21875 h 0.140625 c 0.40625,0 0.40625,0.046875 0.40625,0.203125 z m 0.484375,-1.4375 V -3 c 0,-0.15625 0,-0.1875 0.25,-0.1875 h 0.890625 c 0.53125,0 0.84375,0.328125 0.84375,0.640625 0,0.359375 -0.4375,0.6875 -0.984375,0.6875 z m 0.25,1.640625 c -0.25,0 -0.25,-0.03125 -0.25,-0.1875 V -1.6875 h 1.1875 c 0.65625,0 0.953125,0.4375 0.953125,0.765625 0,0.375 -0.421875,0.703125 -1,0.703125 z m 0,0"
             id="path83" />
        </g>
        <g
           id="g85"
           transform="translate(6.6490211,5.5760002)">
          <path
             d="m 1.265625,-3.078125 c 0,-0.15625 -0.140625,-0.296875 -0.3125,-0.296875 -0.15625,0 -0.296875,0.125 -0.296875,0.296875 0,0.1875 0.140625,0.3125 0.296875,0.3125 0.171875,0 0.3125,-0.140625 0.3125,-0.3125 z m -0.828125,0.9375 v 0.21875 c 0.34375,0 0.390625,0.03125 0.390625,0.265625 v 1.234375 c 0,0.15625 0,0.203125 -0.328125,0.203125 H 0.40625 V 0 c 0.21875,-0.015625 0.421875,-0.015625 0.625,-0.015625 0.1875,0 0.40625,0 0.59375,0.015625 v -0.21875 c -0.328125,0 -0.375,0 -0.375,-0.203125 v -1.78125 z m 0,0"
             id="path84" />
        </g>
      </g>
      <g
         fill="#000000"
         fill-opacity="1"
         id="g88"
         transform="matrix(0.352778,0,0,0.352778,-0.857426,-0.704806)">
        <g
           id="g87"
           transform="translate(10.692,5.5760002)">
          <path
             d="M 4.484375,-3.296875 C 4.546875,-3.328125 4.59375,-3.375 4.59375,-3.4375 c 0,-0.078125 -0.0625,-0.140625 -0.125,-0.140625 -0.03125,0 -0.0625,0 -0.109375,0.03125 l -3.453125,1.5625 c -0.0625,0.03125 -0.109375,0.078125 -0.109375,0.15625 0,0.0625 0.046875,0.109375 0.109375,0.140625 l 3.4375,1.5625 c 0.078125,0.046875 0.109375,0.046875 0.125,0.046875 0.0625,0 0.125,-0.078125 0.125,-0.140625 0,-0.078125 -0.046875,-0.125 -0.125,-0.15625 L 1.265625,-1.828125 Z M 4.390625,1.09375 c 0.078125,0 0.203125,0 0.203125,-0.140625 C 4.59375,0.8125 4.46875,0.8125 4.390625,0.8125 h -3.375 c -0.078125,0 -0.21875,0 -0.21875,0.140625 0,0.140625 0.140625,0.140625 0.21875,0.140625 z m 0,0"
             id="path86" />
        </g>
      </g>
      <g
         fill="#000000"
         fill-opacity="1"
         id="g90"
         transform="matrix(0.352778,0,0,0.352778,-0.857426,-0.704806)">
        <g
           id="g89"
           transform="translate(18.125999,5.5760002)">
          <path
             d="M 3,-1.59375 C 3,-1.953125 3,-3.3125 1.6875,-3.3125 c -1.296875,0 -1.296875,1.359375 -1.296875,1.71875 0,0.359375 0,1.703125 1.296875,1.703125 C 3,0.109375 3,-1.234375 3,-1.59375 Z M 1.6875,-0.0625 C 1.515625,-0.0625 1.09375,-0.125 0.96875,-0.625 0.890625,-0.890625 0.890625,-1.25 0.890625,-1.65625 c 0,-0.375 0,-0.71875 0.078125,-1 0.125,-0.421875 0.515625,-0.5 0.71875,-0.5 0.375,0 0.640625,0.1875 0.734375,0.546875 C 2.5,-2.359375 2.5,-1.953125 2.5,-1.65625 c 0,0.34375 0,0.75 -0.078125,1.046875 C 2.296875,-0.125 1.890625,-0.0625 1.6875,-0.0625 Z m 0,0"
             id="path88" />
        </g>
      </g>
      <g
         fill="#000000"
         fill-opacity="1"
         id="g92"
         transform="matrix(0.352778,0,0,0.352778,-0.857426,-0.704806)">
        <g
           id="g91"
           transform="translate(21.516001,5.5760002)">
          <path
             d="m 1.453125,-0.296875 c 0,-0.171875 -0.140625,-0.3125 -0.3125,-0.3125 -0.15625,0 -0.296875,0.140625 -0.296875,0.3125 C 0.84375,-0.140625 0.984375,0 1.140625,0 c 0.171875,0 0.3125,-0.140625 0.3125,-0.296875 z m 0,0"
             id="path90" />
        </g>
      </g>
      <g
         fill="#000000"
         fill-opacity="1"
         id="g94"
         transform="matrix(0.352778,0,0,0.352778,-0.857426,-0.704806)">
        <g
           id="g93"
           transform="translate(23.799,5.5760002)">
          <path
             d="M 1.984375,-3.171875 C 1.984375,-3.3125 1.96875,-3.3125 1.796875,-3.3125 1.453125,-3 0.890625,-3 0.796875,-3 H 0.71875 v 0.21875 h 0.078125 c 0.109375,0 0.4375,-0.015625 0.734375,-0.140625 v 2.5 c 0,0.140625 0,0.203125 -0.53125,0.203125 H 0.75 V 0 c 0.265625,-0.015625 0.71875,-0.015625 1,-0.015625 0.296875,0 0.734375,0 1.015625,0.015625 v -0.21875 h -0.25 c -0.53125,0 -0.53125,-0.0625 -0.53125,-0.203125 z m 0,0"
             id="path92" />
        </g>
      </g>
    </g>
    <g
       inkscape:label=""
       transform="translate(19.501997,3.9522129)"
       id="g104">
      <g
         fill="#000000"
         fill-opacity="1"
         id="g7"
         transform="matrix(0.352778,0,0,0.352778,-0.851914,-0.703307)">
        <g
           id="use6"
           transform="translate(1.993,5.7280002)">
          <path
             d="m 1.5625,-1.921875 h 0.59375 c 0.109375,0 0.109375,0 0.125,-0.03125 C 2.3125,-1.96875 2.328125,-2.03125 2.328125,-2.0625 2.328125,-2.140625 2.25,-2.140625 2.171875,-2.140625 H 1.625 L 1.71875,-2.5625 C 1.75,-2.6875 1.8125,-2.921875 1.8125,-2.953125 1.8125,-3.03125 1.75,-3.125 1.625,-3.125 c -0.078125,0 -0.203125,0.0625 -0.234375,0.1875 -0.03125,0.09375 0.03125,-0.140625 -0.203125,0.796875 H 0.59375 c -0.09375,0 -0.171875,0 -0.171875,0.125 0,0.09375 0.0625,0.09375 0.15625,0.09375 H 1.125 L 0.84375,-0.75 c -0.03125,0.109375 -0.078125,0.265625 -0.078125,0.328125 0,0.28125 0.265625,0.484375 0.625,0.484375 0.59375,0 0.96875,-0.6875 0.96875,-0.78125 0,-0.0625 -0.09375,-0.0625 -0.109375,-0.0625 -0.078125,0 -0.09375,0.015625 -0.109375,0.078125 -0.171875,0.359375 -0.46875,0.59375 -0.734375,0.59375 -0.15625,0 -0.203125,-0.125 -0.203125,-0.265625 0,-0.078125 0,-0.09375 0.015625,-0.140625 z m 0,0"
             id="path12" />
        </g>
      </g>
      <g
         fill="#000000"
         fill-opacity="1"
         id="g8"
         transform="matrix(0.352778,0,0,0.352778,-0.851914,-0.703307)">
        <g
           id="use7"
           transform="translate(6.8369999,5.7280002)">
          <path
             d="m 4.4375,-1.703125 c 0.078125,0 0.203125,0 0.203125,-0.140625 0,-0.140625 -0.15625,-0.140625 -0.21875,-0.140625 h -3.71875 c -0.078125,0 -0.21875,0 -0.21875,0.140625 0,0.140625 0.125,0.140625 0.1875,0.140625 z m -0.015625,1.1875 c 0.0625,0 0.21875,0 0.21875,-0.140625 0,-0.140625 -0.125,-0.140625 -0.203125,-0.140625 H 0.671875 c -0.0625,0 -0.1875,0 -0.1875,0.140625 0,0.140625 0.140625,0.140625 0.21875,0.140625 z m 0,0"
             id="path13" />
        </g>
      </g>
      <g
         fill="#000000"
         fill-opacity="1"
         id="g97"
         transform="matrix(0.352778,0,0,0.352778,-0.851914,-0.703307)">
        <g
           id="g96"
           transform="translate(13.994,5.7280002)">
          <path
             d="m 2.375,-1.921875 h 0.5625 c 0.09375,0 0.109375,0 0.125,-0.03125 0.03125,-0.015625 0.046875,-0.078125 0.046875,-0.109375 0,-0.078125 -0.078125,-0.078125 -0.15625,-0.078125 H 2.40625 c 0.0625,-0.375 0.171875,-1.015625 0.234375,-1.078125 0.078125,-0.078125 0.15625,-0.125 0.234375,-0.125 0.03125,0 0.140625,0 0.25,0.046875 C 2.921875,-3.203125 2.921875,-3.03125 2.921875,-3 c 0,0.125 0.09375,0.203125 0.21875,0.203125 0.125,0 0.3125,-0.109375 0.3125,-0.328125 0,-0.296875 -0.328125,-0.390625 -0.578125,-0.390625 -0.625,0 -0.75,0.609375 -0.796875,0.8125 -0.046875,0.21875 -0.015625,0.09375 -0.09375,0.5625 H 1.53125 c -0.09375,0 -0.1875,0 -0.1875,0.125 0,0.09375 0.078125,0.09375 0.171875,0.09375 H 1.9375 C 1.84375,-1.4375 1.640625,-0.046875 1.5,0.484375 1.46875,0.59375 1.34375,0.859375 1.15625,0.859375 1.125,0.859375 1.015625,0.84375 0.921875,0.796875 1.0625,0.75 1.125,0.625 1.125,0.515625 1.125,0.390625 1.03125,0.3125 0.90625,0.3125 c -0.125,0 -0.3125,0.109375 -0.3125,0.328125 0,0.296875 0.359375,0.375 0.5625,0.375 0.28125,0 0.5,-0.21875 0.625,-0.375 0.1875,-0.28125 0.3125,-0.9375 0.3125,-0.953125 z m 0,0"
             id="path14" />
        </g>
      </g>
      <g
         fill="#000000"
         fill-opacity="1"
         id="g99"
         transform="matrix(0.352778,0,0,0.352778,-0.851914,-0.703307)">
        <g
           id="g98"
           transform="translate(17.99,5.7280002)">
          <path
             d="m 2.203125,-3.625 c 0,0 0.015625,-0.015625 0.015625,-0.046875 0,-0.015625 -0.015625,-0.0625 -0.09375,-0.0625 -0.09375,0 -1.375,0.796875 -1.375,2.484375 0,1.6875 1.28125,2.5 1.375,2.5 0.078125,0 0.09375,-0.046875 0.09375,-0.078125 C 2.21875,1.140625 2.1875,1.125 2.171875,1.109375 1.296875,0.40625 1.125,-0.609375 1.125,-1.25 c 0,-1.21875 0.5625,-2.015625 1.078125,-2.375 z m 0,0"
             id="path15" />
        </g>
      </g>
      <g
         fill="#000000"
         fill-opacity="1"
         id="g101"
         transform="matrix(0.352778,0,0,0.352778,-0.851914,-0.703307)">
        <g
           id="g100"
           transform="translate(20.688,5.7280002)">
          <path
             d="m 3.015625,-2.359375 c 0,-0.609375 -0.28125,-1.15625 -0.8125,-1.15625 -0.796875,0 -1.671875,1.25 -1.671875,2.421875 0,0.671875 0.328125,1.15625 0.8125,1.15625 0.8125,0 1.671875,-1.296875 1.671875,-2.421875 z m -1.875,0.515625 c 0.3125,-1.234375 0.8125,-1.5 1.046875,-1.5 0.28125,0 0.40625,0.3125 0.40625,0.703125 0,0.15625 -0.015625,0.359375 -0.125,0.796875 z m 1.265625,0.234375 c -0.296875,1.1875 -0.796875,1.5 -1.046875,1.5 -0.375,0 -0.40625,-0.5625 -0.40625,-0.703125 0,-0.203125 0.03125,-0.4375 0.125,-0.796875 z m 0,0"
             id="path99" />
        </g>
      </g>
      <g
         fill="#000000"
         fill-opacity="1"
         id="g103"
         transform="matrix(0.352778,0,0,0.352778,-0.851914,-0.703307)">
        <g
           id="g102"
           transform="translate(24.233999,5.7280002)">
          <path
             d="m 1.953125,-1.25 c 0,-1.6875 -1.28125,-2.484375 -1.390625,-2.484375 -0.078125,0 -0.078125,0.0625 -0.078125,0.0625 0,0.015625 0,0.03125 0.03125,0.0625 0.75,0.59375 1.046875,1.46875 1.046875,2.359375 0,0.453125 -0.078125,0.921875 -0.25,1.328125 C 1.078125,0.640625 0.75,0.921875 0.515625,1.125 0.5,1.125 0.484375,1.15625 0.484375,1.171875 c 0,0.015625 0,0.078125 0.078125,0.078125 0.109375,0 1.390625,-0.796875 1.390625,-2.5 z m 0,0"
             id="path101" />
        </g>
      </g>
    </g>
  </g>
</svg>
