<?xml version="1.0" encoding="UTF-8" standalone="no"?>
<svg
   width="349.82349mm"
   height="352.40369mm"
   viewBox="0 0 349.82349 352.40369"
   version="1.1"
   id="svg148"
   sodipodi:docname="esfera.svg"
   inkscape:version="1.1.2 (0a00cf5339, 2022-02-04)"
   xmlns:inkscape="http://www.inkscape.org/namespaces/inkscape"
   xmlns:sodipodi="http://sodipodi.sourceforge.net/DTD/sodipodi-0.dtd"
   xmlns="http://www.w3.org/2000/svg"
   xmlns:svg="http://www.w3.org/2000/svg">
  <defs
     id="defs152">
    <marker
       style="overflow:visible"
       id="Arrow1Mend"
       refX="0"
       refY="0"
       orient="auto"
       inkscape:stockid="Arrow1Mend"
       inkscape:isstock="true">
      <path
         transform="matrix(-0.4,0,0,-0.4,-4,0)"
         style="fill:context-stroke;fill-rule:evenodd;stroke:context-stroke;stroke-width:1pt"
         d="M 0,0 5,-5 -12.5,0 5,5 Z"
         id="path1696" />
    </marker>
  </defs>
  <sodipodi:namedview
     id="namedview150"
     pagecolor="#ffffff"
     bordercolor="#666666"
     borderopacity="1.0"
     inkscape:pageshadow="2"
     inkscape:pageopacity="0.0"
     inkscape:pagecheckerboard="0"
     inkscape:document-units="mm"
     showgrid="false"
     inkscape:showpageshadow="true"
     showborder="true"
     inkscape:zoom="0.47625"
     inkscape:cx="679.26509"
     inkscape:cy="817.84777"
     inkscape:window-width="1920"
     inkscape:window-height="1050"
     inkscape:window-x="1920"
     inkscape:window-y="18"
     inkscape:window-maximized="0"
     inkscape:current-layer="svg148"
     showguides="true"
     fit-margin-top="0"
     fit-margin-left="0"
     fit-margin-right="0"
     fit-margin-bottom="0">
    <inkscape:grid
       type="xygrid"
       id="grid5083"
       originx="1.7066602"
       originy="1.9706814" />
  </sodipodi:namedview>
  <line
     x1="174.91174"
     y1="201.97069"
     x2="174.91174"
     y2="1.9706813"
     id="line2"
     style="fill:none;stroke:#000080;stroke-width:1;marker-end:url(#Arrow1Mend)" />
  <line
     x1="174.91174"
     y1="201.97069"
     x2="1.7066602"
     y2="301.97067"
     id="line4"
     style="fill:none;stroke:#000080;stroke-width:1;marker-end:url(#Arrow1Mend)" />
  <line
     x1="174.91174"
     y1="201.97069"
     x2="348.11682"
     y2="301.97067"
     id="line6"
     style="fill:none;stroke:#000080;stroke-width:1;marker-end:url(#Arrow1Mend)" />
  <path
     d="m 297.38623,201.97068 c 0,-39.01702 -54.89503,-70.71068 -122.47449,-70.71068 -67.57946,0 -122.474486,31.69366 -122.474486,70.71068 0,39.01702 54.895026,70.71068 122.474486,70.71068 67.57946,0 122.47449,-31.69366 122.47449,-70.71068 z"
     id="path8"
     style="fill:none;stroke:#b3b3b3;stroke-width:0.7;stroke-miterlimit:4;stroke-dasharray:1.4, 0.7;stroke-dashoffset:0" />
  <path
     d="m 285.13878,201.97068 c 0,-35.11532 -49.40552,-63.63961 -110.22704,-63.63961 -60.82152,0 -110.227038,28.52429 -110.227038,63.63961 0,35.11532 49.405518,63.63961 110.227038,63.63961 60.82152,0 110.22704,-28.52429 110.22704,-63.63961 z"
     id="path10"
     style="fill:none;stroke:#b3b3b3;stroke-width:0.7;stroke-miterlimit:4;stroke-dasharray:1.4, 0.7;stroke-dashoffset:0" />
  <path
     d="m 248.39643,201.97068 c 0,-23.41021 -32.93701,-42.42641 -73.48469,-42.42641 -40.54768,0 -73.48469,19.0162 -73.48469,42.42641 0,23.41021 32.93701,42.42641 73.48469,42.42641 40.54768,0 73.48469,-19.0162 73.48469,-42.42641 z"
     id="path12"
     style="fill:none;stroke:#b3b3b3;stroke-width:0.7;stroke-miterlimit:4;stroke-dasharray:1.4, 0.7;stroke-dashoffset:0" />
  <path
     d="m 236.14898,201.97068 c 0,-19.50851 -27.44751,-35.35534 -61.23724,-35.35534 -33.78973,0 -61.23724,15.84683 -61.23724,35.35534 0,19.50851 27.44751,35.35534 61.23724,35.35534 33.78973,0 61.23724,-15.84683 61.23724,-35.35534 z"
     id="path14"
     style="fill:none;stroke:#b3b3b3;stroke-width:0.7;stroke-miterlimit:4;stroke-dasharray:1.4, 0.7;stroke-dashoffset:0" />
  <line
     x1="88.309196"
     y1="251.97069"
     x2="96.969452"
     y2="246.97069"
     id="line18"
     style="fill:none;stroke:#000000;stroke-width:1" />
  <line
     x1="174.91174"
     y1="301.97067"
     x2="348.11682"
     y2="201.97069"
     id="line20"
     style="fill:none;stroke:#000000;stroke-width:1" />
  <line
     x1="348.11682"
     y1="201.97069"
     x2="174.91174"
     y2="101.97068"
     id="line22"
     style="fill:none;stroke:#000000;stroke-width:1" />
  <line
     x1="174.91174"
     y1="101.97068"
     x2="1.7066602"
     y2="201.97069"
     id="line24"
     style="fill:none;stroke:#000000;stroke-width:1" />
  <line
     x1="1.7066602"
     y1="201.97069"
     x2="174.91174"
     y2="301.97067"
     id="line26"
     style="fill:none;stroke:#000000;stroke-width:1" />
  <line
     x1="88.309196"
     y1="51.97068"
     x2="88.309196"
     y2="251.97069"
     id="line52"
     style="fill:none;stroke:#000000;stroke-width:1" />
  <line
     x1="88.309196"
     y1="51.97068"
     x2="261.51428"
     y2="151.97069"
     id="line54"
     style="fill:none;stroke:#000000;stroke-width:1" />
  <line
     x1="261.51428"
     y1="151.97069"
     x2="261.51428"
     y2="351.97067"
     id="line56"
     style="fill:none;stroke:#000000;stroke-width:1" />
  <line
     x1="226.87328"
     y1="291.97067"
     x2="122.95021"
     y2="231.97069"
     id="line70"
     style="fill:none;stroke:#008000;stroke-width:1" />
  <path
     d="m 236.14898,308.0367 c 33.78974,-19.50851 33.78974,-82.89583 0,-141.42136 -33.78973,-58.52553 -88.68475,-90.219187 -122.47448,-70.710676 -33.789734,19.508506 -33.789734,82.895826 0,141.421356 33.78973,58.52553 88.68475,90.21919 122.47448,70.71068 z"
     id="path82"
     style="fill:none;stroke:#b3b3b3;stroke-width:0.7;stroke-miterlimit:4;stroke-dasharray:1.4, 0.7;stroke-dashoffset:0" />
  <path
     d="m 230.02526,297.4301 c 30.41076,-17.55766 30.41076,-74.60625 0,-127.27923 -30.41076,-52.67297 -79.81628,-81.197264 -110.22704,-63.63961 -30.410757,17.55766 -30.410757,74.60625 0,127.27923 30.41076,52.67297 79.81628,81.19726 110.22704,63.63961 z"
     id="path84"
     style="fill:none;stroke:#b3b3b3;stroke-width:0.7;stroke-miterlimit:4;stroke-dasharray:1.4, 0.7;stroke-dashoffset:0" />
  <path
     d="m 211.65409,265.61029 c 20.27384,-11.70511 20.27384,-49.73749 0,-84.85281 -20.27384,-35.11532 -53.21086,-54.13152 -73.4847,-42.42641 -20.27383,11.70511 -20.27383,49.73749 0,84.85281 20.27384,35.11532 53.21086,54.13152 73.4847,42.42641 z"
     id="path86"
     style="fill:none;stroke:#b3b3b3;stroke-width:0.7;stroke-miterlimit:4;stroke-dasharray:1.4, 0.7;stroke-dashoffset:0" />
  <path
     d="m 205.53036,255.00369 c 16.89487,-9.75426 16.89487,-41.44791 0,-70.71068 -16.89486,-29.26277 -44.34238,-45.10959 -61.23724,-35.35534 -16.89487,9.75426 -16.89487,41.44791 0,70.71068 16.89486,29.26277 44.34238,45.10959 61.23724,35.35534 z"
     id="path88"
     style="fill:none;stroke:#b3b3b3;stroke-width:0.7;stroke-miterlimit:4;stroke-dasharray:1.4, 0.7;stroke-dashoffset:0" />
  <line
     x1="88.309196"
     y1="251.97069"
     x2="261.51428"
     y2="351.97067"
     id="line90"
     style="fill:none;stroke:#000000;stroke-width:1" />
  <line
     x1="88.309196"
     y1="351.97067"
     x2="88.309196"
     y2="151.97069"
     id="line92"
     style="fill:none;stroke:#000000;stroke-width:1" />
  <line
     x1="88.309196"
     y1="151.97069"
     x2="261.51428"
     y2="51.97068"
     id="line94"
     style="fill:none;stroke:#000000;stroke-width:1" />
  <path
     d="M 236.14898,95.904664 C 202.35925,76.396153 147.46423,108.08981 113.6745,166.61534 c -33.789734,58.52553 -33.789734,121.91285 0,141.42136 33.78973,19.50851 88.68475,-12.18515 122.47448,-70.71068 33.78974,-58.52553 33.78974,-121.91285 0,-141.421356 z"
     id="path120"
     style="fill:none;stroke:#b3b3b3;stroke-width:0.7;stroke-miterlimit:4;stroke-dasharray:1.4, 0.7;stroke-dashoffset:0" />
  <path
     d="m 230.02526,106.51126 c -30.41076,-17.557654 -79.81628,10.96664 -110.22704,63.63961 -30.410757,52.67298 -30.410757,109.72157 0,127.27923 30.41076,17.55765 79.81628,-10.96664 110.22704,-63.63961 30.41076,-52.67298 30.41076,-109.72157 0,-127.27923 z"
     id="path122"
     style="fill:none;stroke:#b3b3b3;stroke-width:0.7;stroke-miterlimit:4;stroke-dasharray:1.4, 0.7;stroke-dashoffset:0" />
  <path
     d="m 211.65409,138.33107 c -20.27384,-11.70511 -53.21086,7.31109 -73.4847,42.42641 -20.27383,35.11532 -20.27383,73.1477 0,84.85281 20.27384,11.70511 53.21086,-7.31109 73.4847,-42.42641 20.27384,-35.11532 20.27384,-73.1477 0,-84.85281 z"
     id="path124"
     style="fill:none;stroke:#b3b3b3;stroke-width:0.7;stroke-miterlimit:4;stroke-dasharray:1.4, 0.7;stroke-dashoffset:0" />
  <path
     d="m 205.53036,148.93767 c -16.89486,-9.75425 -44.34238,6.09257 -61.23724,35.35534 -16.89487,29.26277 -16.89487,60.95642 0,70.71068 16.89486,9.75425 44.34238,-6.09257 61.23724,-35.35534 16.89487,-29.26277 16.89487,-60.95642 0,-70.71068 z"
     id="path126"
     style="fill:none;stroke:#b3b3b3;stroke-width:0.7;stroke-miterlimit:4;stroke-dasharray:1.4, 0.7;stroke-dashoffset:0" />
  <line
     x1="261.51428"
     y1="51.97068"
     x2="261.51428"
     y2="251.97069"
     id="line128"
     style="fill:none;stroke:#000000;stroke-width:1" />
  <line
     x1="261.51428"
     y1="251.97069"
     x2="88.309196"
     y2="351.97067"
     id="line130"
     style="fill:none;stroke:#000000;stroke-width:1" />
  <circle
     cx="174.91174"
     cy="201.97069"
     r="73.484459"
     id="circle136"
     style="fill:none;stroke:#0000ff;stroke-width:1" />
  <circle
     cx="174.91174"
     cy="201.5611"
     r="60.875916"
     id="circle138"
     style="fill:none;stroke:#0000ff;stroke-width:1" />
  <path
     id="path5733"
     style="fill:none;stroke:#008000;stroke-width:1"
     d="M 226.87327,291.97068 274.8187,319.652" />
  <line
     x1="252.85403"
     y1="336.97067"
     x2="330.79633"
     y2="291.97067"
     id="line144"
     style="fill:none;stroke:#008000;stroke-width:1" />
  <circle
     cx="174.91174"
     cy="201.97069"
     r="122.47222"
     id="circle132"
     style="fill:none;stroke:#ff0000;stroke-width:1" />
  <circle
     cx="174.91174"
     cy="201.97069"
     r="110.22313"
     id="circle134"
     style="fill:none;stroke:#ff0000;stroke-width:1" />
  <g
     inkscape:label=""
     transform="matrix(2.5392801,0,0,2.5392801,46.082404,90.255703)"
     id="g3121"
     style="fill:#008000;stroke:#008000">
    <g
       id="g7340"
       style="fill:#008000;stroke:#008000">
      <g
         style="fill:#008000;fill-opacity:1;stroke:#008000"
         id="g8195">
        <g
           id="use8950"
           style="fill:#008000;stroke:#008000"
           transform="translate(91.925003,81.962997)">
          <path
             style="stroke:none"
             d="M 3.71875,-3.765625 C 3.53125,-4.140625 3.25,-4.40625 2.796875,-4.40625 c -1.15625,0 -2.390625,1.46875 -2.390625,2.921875 0,0.9375 0.546875,1.59375 1.3125,1.59375 0.203125,0 0.703125,-0.046875 1.296875,-0.75 0.078125,0.421875 0.4375,0.75 0.90625,0.75 0.359375,0 0.578125,-0.234375 0.75,-0.546875 0.15625,-0.359375 0.296875,-0.96875 0.296875,-0.984375 0,-0.109375 -0.09375,-0.109375 -0.125,-0.109375 -0.09375,0 -0.109375,0.046875 -0.140625,0.1875 -0.171875,0.640625 -0.34375,1.234375 -0.75,1.234375 -0.28125,0 -0.296875,-0.265625 -0.296875,-0.453125 0,-0.21875 0.015625,-0.3125 0.125,-0.75 C 3.890625,-1.71875 3.90625,-1.828125 4,-2.203125 L 4.359375,-3.59375 c 0.0625,-0.28125 0.0625,-0.296875 0.0625,-0.34375 0,-0.171875 -0.109375,-0.265625 -0.28125,-0.265625 -0.25,0 -0.390625,0.21875 -0.421875,0.4375 z M 3.078125,-1.1875 C 3.015625,-1 3.015625,-0.984375 2.875,-0.8125 2.4375,-0.265625 2.03125,-0.109375 1.75,-0.109375 c -0.5,0 -0.640625,-0.546875 -0.640625,-0.9375 0,-0.5 0.3125,-1.71875 0.546875,-2.1875 0.3125,-0.578125 0.75,-0.953125 1.15625,-0.953125 0.640625,0 0.78125,0.8125 0.78125,0.875 0,0.0625 -0.015625,0.125 -0.03125,0.171875 z m 0,0"
             id="path4989" />
        </g>
      </g>
    </g>
  </g>
  <g
     inkscape:label=""
     transform="matrix(2.5392801,0,0,2.5392801,55.221765,129.82757)"
     id="g3270"
     style="fill:#008000;stroke:#008000">
    <g
       id="g9677"
       style="fill:#008000;stroke:#008000">
      <g
         style="fill:#008000;fill-opacity:1;stroke:#008000"
         id="g4365">
        <g
           id="use3008"
           style="fill:#008000;stroke:#008000"
           transform="translate(91.925003,81.962997)">
          <path
             style="stroke:none"
             d="m 2.375,-6.8125 c 0,0 0,-0.109375 -0.125,-0.109375 -0.21875,0 -0.953125,0.078125 -1.21875,0.109375 -0.078125,0 -0.1875,0.015625 -0.1875,0.1875 0,0.125 0.09375,0.125 0.25,0.125 0.46875,0 0.484375,0.0625 0.484375,0.171875 0,0.0625 -0.078125,0.40625 -0.125,0.609375 l -0.828125,3.25 c -0.109375,0.5 -0.15625,0.671875 -0.15625,1.015625 0,0.9375 0.53125,1.5625 1.265625,1.5625 1.171875,0 2.40625,-1.484375 2.40625,-2.921875 0,-0.90625 -0.53125,-1.59375 -1.328125,-1.59375 -0.453125,0 -0.875,0.296875 -1.171875,0.59375 z M 1.453125,-3.046875 C 1.5,-3.265625 1.5,-3.28125 1.59375,-3.390625 2.078125,-4.03125 2.53125,-4.1875 2.796875,-4.1875 c 0.359375,0 0.625,0.296875 0.625,0.9375 0,0.59375 -0.328125,1.734375 -0.515625,2.109375 -0.328125,0.671875 -0.78125,1.03125 -1.171875,1.03125 -0.34375,0 -0.671875,-0.265625 -0.671875,-1 0,-0.203125 0,-0.390625 0.15625,-1.015625 z m 0,0"
             id="path4985" />
        </g>
      </g>
    </g>
  </g>
  <path
     id="line5085"
     style="fill:none;stroke:#008000;stroke-width:1"
     d="m 271.47876,317.70988 51.92064,-29.9764" />
  <path
     id="path6013"
     style="fill:none;stroke:#008000;stroke-width:1"
     d="m 96.96943,246.97068 159.26498,91.95166" />
</svg>
