<?xml version="1.0" encoding="UTF-8" standalone="no"?>
<svg
   xmlns:dc="http://purl.org/dc/elements/1.1/"
   xmlns:cc="http://creativecommons.org/ns#"
   xmlns:rdf="http://www.w3.org/1999/02/22-rdf-syntax-ns#"
   xmlns:svg="http://www.w3.org/2000/svg"
   xmlns="http://www.w3.org/2000/svg"
   xmlns:xlink="http://www.w3.org/1999/xlink"
   xmlns:sodipodi="http://sodipodi.sourceforge.net/DTD/sodipodi-0.dtd"
   xmlns:inkscape="http://www.inkscape.org/namespaces/inkscape"
   width="427.22595"
   height="285.68771"
   viewBox="0 0 113.03686 75.588209"
   version="1.1"
   id="svg8"
   sodipodi:docname="f2.svg"
   inkscape:version="1.0.2 (e86c870879, 2021-01-15)">
  <defs
     id="defs2">
    <marker
       style="overflow:visible"
       id="Arrow1Send"
       refX="0"
       refY="0"
       orient="auto"
       inkscape:stockid="Arrow1Send"
       inkscape:isstock="true">
      <path
         transform="matrix(-0.2,0,0,-0.2,-1.2,0)"
         style="fill:#ff0000;fill-opacity:0.988235;fill-rule:evenodd;stroke:#000000;stroke-width:1pt;stroke-opacity:1"
         d="M 0,0 5,-5 -12.5,0 5,5 Z"
         id="path1103" />
    </marker>
    <g
       id="g9013">
      <symbol
         overflow="visible"
         id="symbol9314">
        <path
           style="stroke:none"
           d=""
           id="path1796" />
      </symbol>
      <symbol
         overflow="visible"
         id="symbol888">
        <path
           style="stroke:none"
           d="m 3.734375,-6.125 c 0.0625,-0.234375 0.09375,-0.328125 0.28125,-0.359375 C 4.109375,-6.5 4.421875,-6.5 4.625,-6.5 c 0.703125,0 1.8125,0 1.8125,0.984375 0,0.34375 -0.15625,1.03125 -0.546875,1.421875 -0.265625,0.25 -0.78125,0.578125 -1.6875,0.578125 H 3.09375 Z m 1.4375,2.734375 c 1.015625,-0.21875 2.1875,-0.921875 2.1875,-1.921875 0,-0.859375 -0.890625,-1.5 -2.203125,-1.5 H 2.328125 c -0.203125,0 -0.296875,0 -0.296875,0.203125 C 2.03125,-6.5 2.125,-6.5 2.3125,-6.5 c 0.015625,0 0.203125,0 0.375,0.015625 0.1875,0.03125 0.265625,0.03125 0.265625,0.171875 0,0.03125 0,0.0625 -0.03125,0.1875 l -1.34375,5.34375 C 1.484375,-0.390625 1.46875,-0.3125 0.671875,-0.3125 0.5,-0.3125 0.40625,-0.3125 0.40625,-0.109375 0.40625,0 0.53125,0 0.546875,0 c 0.28125,0 0.984375,-0.03125 1.25,-0.03125 0.28125,0 1,0.03125 1.28125,0.03125 0.078125,0 0.1875,0 0.1875,-0.203125 0,-0.109375 -0.078125,-0.109375 -0.28125,-0.109375 -0.359375,0 -0.640625,0 -0.640625,-0.171875 0,-0.0625 0.015625,-0.109375 0.03125,-0.171875 l 0.65625,-2.640625 h 1.1875 c 0.90625,0 1.078125,0.5625 1.078125,0.90625 0,0.140625 -0.078125,0.453125 -0.140625,0.6875 C 5.09375,-1.421875 5,-1.0625 5,-0.859375 5,0.21875 6.203125,0.21875 6.328125,0.21875 c 0.84375,0 1.203125,-1 1.203125,-1.140625 0,-0.125 -0.109375,-0.125 -0.125,-0.125 -0.09375,0 -0.109375,0.0625 -0.125,0.140625 C 7.03125,-0.171875 6.59375,0 6.375,0 6.046875,0 5.96875,-0.21875 5.96875,-0.609375 c 0,-0.3125 0.0625,-0.8125 0.109375,-1.140625 0.015625,-0.140625 0.03125,-0.328125 0.03125,-0.46875 0,-0.765625 -0.671875,-1.078125 -0.9375,-1.171875 z m 0,0"
           id="path7218" />
      </symbol>
    </g>
    <g
       id="g9919">
      <symbol
         overflow="visible"
         id="symbol5555">
        <path
           style="stroke:none"
           d=""
           id="path2312" />
      </symbol>
      <symbol
         overflow="visible"
         id="symbol6564">
        <path
           style="stroke:none"
           d="M 3.734375,-6.03125 C 3.8125,-6.390625 3.84375,-6.5 4.78125,-6.5 c 0.296875,0 0.375,0 0.375,-0.1875 0,-0.125 -0.109375,-0.125 -0.15625,-0.125 -0.328125,0 -1.140625,0.03125 -1.46875,0.03125 -0.296875,0 -1.03125,-0.03125 -1.328125,-0.03125 -0.0625,0 -0.1875,0 -0.1875,0.203125 0,0.109375 0.09375,0.109375 0.28125,0.109375 0.015625,0 0.203125,0 0.375,0.015625 0.171875,0.03125 0.265625,0.03125 0.265625,0.171875 0,0.03125 0,0.0625 -0.03125,0.1875 L 1.5625,-0.78125 c -0.09375,0.390625 -0.109375,0.46875 -0.90625,0.46875 -0.171875,0 -0.265625,0 -0.265625,0.203125 C 0.390625,0 0.484375,0 0.65625,0 h 4.625 C 5.515625,0 5.515625,0 5.578125,-0.171875 L 6.375,-2.328125 c 0.03125,-0.109375 0.03125,-0.125 0.03125,-0.140625 0,-0.03125 -0.03125,-0.109375 -0.109375,-0.109375 -0.09375,0 -0.109375,0.0625 -0.171875,0.21875 -0.34375,0.90625 -0.78125,2.046875 -2.5,2.046875 H 2.6875 c -0.140625,0 -0.171875,0 -0.21875,0 -0.109375,-0.015625 -0.140625,-0.03125 -0.140625,-0.109375 0,-0.03125 0,-0.046875 0.046875,-0.21875 z m 0,0"
           id="path8568" />
      </symbol>
    </g>
    <g
       id="g5943">
      <symbol
         overflow="visible"
         id="symbol2980">
        <path
           style="stroke:none"
           d=""
           id="path6051" />
      </symbol>
      <symbol
         overflow="visible"
         id="symbol2079">
        <path
           style="stroke:none"
           d="m 5.140625,-6.8125 c 0,0 0,-0.109375 -0.125,-0.109375 -0.15625,0 -1.09375,0.09375 -1.265625,0.109375 -0.078125,0.015625 -0.140625,0.0625 -0.140625,0.1875 0,0.125 0.09375,0.125 0.234375,0.125 0.484375,0 0.5,0.0625 0.5,0.171875 L 4.3125,-6.125 3.71875,-3.765625 C 3.53125,-4.140625 3.25,-4.40625 2.796875,-4.40625 c -1.15625,0 -2.390625,1.46875 -2.390625,2.921875 0,0.9375 0.546875,1.59375 1.3125,1.59375 0.203125,0 0.703125,-0.046875 1.296875,-0.75 0.078125,0.421875 0.4375,0.75 0.90625,0.75 0.359375,0 0.578125,-0.234375 0.75,-0.546875 0.15625,-0.359375 0.296875,-0.96875 0.296875,-0.984375 0,-0.109375 -0.09375,-0.109375 -0.125,-0.109375 -0.09375,0 -0.109375,0.046875 -0.140625,0.1875 -0.171875,0.640625 -0.34375,1.234375 -0.75,1.234375 -0.28125,0 -0.296875,-0.265625 -0.296875,-0.453125 0,-0.25 0.015625,-0.3125 0.046875,-0.484375 z m -2.0625,5.625 C 3.015625,-1 3.015625,-0.984375 2.875,-0.8125 2.4375,-0.265625 2.03125,-0.109375 1.75,-0.109375 c -0.5,0 -0.640625,-0.546875 -0.640625,-0.9375 0,-0.5 0.3125,-1.71875 0.546875,-2.1875 0.3125,-0.578125 0.75,-0.953125 1.15625,-0.953125 0.640625,0 0.78125,0.8125 0.78125,0.875 0,0.0625 -0.015625,0.125 -0.03125,0.171875 z m 0,0"
           id="path4376" />
      </symbol>
      <symbol
         overflow="visible"
         id="symbol6987">
        <path
           style="stroke:none"
           d="M 3.328125,-3.015625 C 3.390625,-3.265625 3.625,-4.1875 4.3125,-4.1875 c 0.046875,0 0.296875,0 0.5,0.125 C 4.53125,-4 4.34375,-3.765625 4.34375,-3.515625 c 0,0.15625 0.109375,0.34375 0.375,0.34375 0.21875,0 0.53125,-0.171875 0.53125,-0.578125 0,-0.515625 -0.578125,-0.65625 -0.921875,-0.65625 -0.578125,0 -0.921875,0.53125 -1.046875,0.75 -0.25,-0.65625 -0.78125,-0.75 -1.078125,-0.75 -1.03125,0 -1.609375,1.28125 -1.609375,1.53125 0,0.109375 0.109375,0.109375 0.125,0.109375 0.078125,0 0.109375,-0.03125 0.125,-0.109375 0.34375,-1.0625 1,-1.3125 1.34375,-1.3125 0.1875,0 0.53125,0.09375 0.53125,0.671875 0,0.3125 -0.171875,0.96875 -0.53125,2.375 -0.15625,0.609375 -0.515625,1.03125 -0.953125,1.03125 -0.0625,0 -0.28125,0 -0.5,-0.125 0.25,-0.0625 0.46875,-0.265625 0.46875,-0.546875 0,-0.265625 -0.21875,-0.34375 -0.359375,-0.34375 -0.3125,0 -0.546875,0.25 -0.546875,0.578125 0,0.453125 0.484375,0.65625 0.921875,0.65625 0.671875,0 1.03125,-0.703125 1.046875,-0.75 0.125,0.359375 0.484375,0.75 1.078125,0.75 1.03125,0 1.59375,-1.28125 1.59375,-1.53125 0,-0.109375 -0.078125,-0.109375 -0.109375,-0.109375 -0.09375,0 -0.109375,0.046875 -0.140625,0.109375 -0.328125,1.078125 -1,1.3125 -1.3125,1.3125 -0.390625,0 -0.546875,-0.3125 -0.546875,-0.65625 0,-0.21875 0.046875,-0.4375 0.15625,-0.875 z m 0,0"
           id="path1043" />
      </symbol>
    </g>
    <g
       id="g1074">
      <symbol
         overflow="visible"
         id="symbol7973">
        <path
           style="stroke:none"
           d=""
           id="path7729" />
      </symbol>
      <symbol
         overflow="visible"
         id="symbol384">
        <path
           style="stroke:none"
           d="m 5.140625,-6.8125 c 0,0 0,-0.109375 -0.125,-0.109375 -0.15625,0 -1.09375,0.09375 -1.265625,0.109375 -0.078125,0.015625 -0.140625,0.0625 -0.140625,0.1875 0,0.125 0.09375,0.125 0.234375,0.125 0.484375,0 0.5,0.0625 0.5,0.171875 L 4.3125,-6.125 3.71875,-3.765625 C 3.53125,-4.140625 3.25,-4.40625 2.796875,-4.40625 c -1.15625,0 -2.390625,1.46875 -2.390625,2.921875 0,0.9375 0.546875,1.59375 1.3125,1.59375 0.203125,0 0.703125,-0.046875 1.296875,-0.75 0.078125,0.421875 0.4375,0.75 0.90625,0.75 0.359375,0 0.578125,-0.234375 0.75,-0.546875 0.15625,-0.359375 0.296875,-0.96875 0.296875,-0.984375 0,-0.109375 -0.09375,-0.109375 -0.125,-0.109375 -0.09375,0 -0.109375,0.046875 -0.140625,0.1875 -0.171875,0.640625 -0.34375,1.234375 -0.75,1.234375 -0.28125,0 -0.296875,-0.265625 -0.296875,-0.453125 0,-0.25 0.015625,-0.3125 0.046875,-0.484375 z m -2.0625,5.625 C 3.015625,-1 3.015625,-0.984375 2.875,-0.8125 2.4375,-0.265625 2.03125,-0.109375 1.75,-0.109375 c -0.5,0 -0.640625,-0.546875 -0.640625,-0.9375 0,-0.5 0.3125,-1.71875 0.546875,-2.1875 0.3125,-0.578125 0.75,-0.953125 1.15625,-0.953125 0.640625,0 0.78125,0.8125 0.78125,0.875 0,0.0625 -0.015625,0.125 -0.03125,0.171875 z m 0,0"
           id="path4544" />
      </symbol>
      <symbol
         overflow="visible"
         id="symbol5091">
        <path
           style="stroke:none"
           d="M 3.890625,-3.734375 C 3.625,-3.71875 3.421875,-3.5 3.421875,-3.28125 c 0,0.140625 0.09375,0.296875 0.3125,0.296875 0.21875,0 0.453125,-0.171875 0.453125,-0.5625 C 4.1875,-4 3.765625,-4.40625 3,-4.40625 c -1.3125,0 -1.6875,1.015625 -1.6875,1.453125 0,0.78125 0.734375,0.921875 1.03125,0.984375 0.515625,0.109375 1.03125,0.21875 1.03125,0.765625 0,0.25 -0.21875,1.09375 -1.421875,1.09375 -0.140625,0 -0.90625,0 -1.140625,-0.53125 0.390625,0.046875 0.640625,-0.25 0.640625,-0.53125 0,-0.21875 -0.171875,-0.34375 -0.375,-0.34375 -0.265625,0 -0.5625,0.203125 -0.5625,0.65625 0,0.5625 0.578125,0.96875 1.421875,0.96875 1.625,0 2.015625,-1.203125 2.015625,-1.65625 0,-0.359375 -0.1875,-0.609375 -0.3125,-0.71875 -0.265625,-0.28125 -0.5625,-0.34375 -1,-0.421875 -0.359375,-0.078125 -0.75,-0.15625 -0.75,-0.609375 C 1.890625,-3.578125 2.125,-4.1875 3,-4.1875 c 0.25,0 0.75,0.078125 0.890625,0.453125 z m 0,0"
           id="path6868" />
      </symbol>
    </g>
    <g
       id="g5965">
      <symbol
         overflow="visible"
         id="symbol5018">
        <path
           style="stroke:none"
           d=""
           id="path3994" />
      </symbol>
      <symbol
         overflow="visible"
         id="symbol2735">
        <path
           style="stroke:none"
           d="M 4.359375,-0.0625 C 5.90625,-0.640625 7.375,-2.421875 7.375,-4.34375 c 0,-1.609375 -1.0625,-2.6875 -2.546875,-2.6875 -2.140625,0 -4.34375,2.265625 -4.34375,4.59375 0,1.65625 1.125,2.65625 2.5625,2.65625 0.25,0 0.578125,-0.046875 0.96875,-0.15625 -0.03125,0.625 -0.03125,0.640625 -0.03125,0.78125 0,0.3125 0,1.09375 0.828125,1.09375 1.171875,0 1.65625,-1.828125 1.65625,-1.9375 0,-0.0625 -0.0625,-0.09375 -0.109375,-0.09375 -0.078125,0 -0.09375,0.046875 -0.125,0.109375 C 6,0.71875 5.421875,0.96875 5.078125,0.96875 c -0.46875,0 -0.609375,-0.265625 -0.71875,-1.03125 z m -1.875,-0.078125 c -0.78125,-0.3125 -1.125,-1.078125 -1.125,-1.984375 0,-0.6875 0.265625,-2.109375 1.015625,-3.171875 C 3.109375,-6.3125 4.046875,-6.78125 4.78125,-6.78125 5.765625,-6.78125 6.5,-6 6.5,-4.671875 c 0,1 -0.515625,3.34375 -2.1875,4.265625 -0.046875,-0.34375 -0.140625,-1.0625 -0.875,-1.0625 -0.53125,0 -1.015625,0.484375 -1.015625,1.015625 0,0.1875 0.0625,0.296875 0.0625,0.3125 z M 3.09375,-0.03125 c -0.140625,0 -0.453125,0 -0.453125,-0.421875 0,-0.40625 0.375,-0.796875 0.796875,-0.796875 0.421875,0 0.609375,0.234375 0.609375,0.84375 0,0.140625 -0.015625,0.15625 -0.109375,0.203125 C 3.671875,-0.09375 3.375,-0.03125 3.09375,-0.03125 Z m 0,0"
           id="path5701" />
      </symbol>
    </g>
    <g
       id="g9776">
      <symbol
         overflow="visible"
         id="symbol7510">
        <path
           style="stroke:none"
           d=""
           id="path1650" />
      </symbol>
      <symbol
         overflow="visible"
         id="symbol1408">
        <path
           style="stroke:none"
           d="M 3.328125,-3.015625 C 3.390625,-3.265625 3.625,-4.1875 4.3125,-4.1875 c 0.046875,0 0.296875,0 0.5,0.125 C 4.53125,-4 4.34375,-3.765625 4.34375,-3.515625 c 0,0.15625 0.109375,0.34375 0.375,0.34375 0.21875,0 0.53125,-0.171875 0.53125,-0.578125 0,-0.515625 -0.578125,-0.65625 -0.921875,-0.65625 -0.578125,0 -0.921875,0.53125 -1.046875,0.75 -0.25,-0.65625 -0.78125,-0.75 -1.078125,-0.75 -1.03125,0 -1.609375,1.28125 -1.609375,1.53125 0,0.109375 0.109375,0.109375 0.125,0.109375 0.078125,0 0.109375,-0.03125 0.125,-0.109375 0.34375,-1.0625 1,-1.3125 1.34375,-1.3125 0.1875,0 0.53125,0.09375 0.53125,0.671875 0,0.3125 -0.171875,0.96875 -0.53125,2.375 -0.15625,0.609375 -0.515625,1.03125 -0.953125,1.03125 -0.0625,0 -0.28125,0 -0.5,-0.125 0.25,-0.0625 0.46875,-0.265625 0.46875,-0.546875 0,-0.265625 -0.21875,-0.34375 -0.359375,-0.34375 -0.3125,0 -0.546875,0.25 -0.546875,0.578125 0,0.453125 0.484375,0.65625 0.921875,0.65625 0.671875,0 1.03125,-0.703125 1.046875,-0.75 0.125,0.359375 0.484375,0.75 1.078125,0.75 1.03125,0 1.59375,-1.28125 1.59375,-1.53125 0,-0.109375 -0.078125,-0.109375 -0.109375,-0.109375 -0.09375,0 -0.109375,0.046875 -0.140625,0.109375 -0.328125,1.078125 -1,1.3125 -1.3125,1.3125 -0.390625,0 -0.546875,-0.3125 -0.546875,-0.65625 0,-0.21875 0.046875,-0.4375 0.15625,-0.875 z m 0,0"
           id="path235" />
      </symbol>
    </g>
    <g
       id="g9160">
      <symbol
         overflow="visible"
         id="symbol2487">
        <path
           style="stroke:none"
           d=""
           id="path6155" />
      </symbol>
      <symbol
         overflow="visible"
         id="symbol3368">
        <path
           style="stroke:none"
           d="m 5.140625,-6.8125 c 0,0 0,-0.109375 -0.125,-0.109375 -0.15625,0 -1.09375,0.09375 -1.265625,0.109375 -0.078125,0.015625 -0.140625,0.0625 -0.140625,0.1875 0,0.125 0.09375,0.125 0.234375,0.125 0.484375,0 0.5,0.0625 0.5,0.171875 L 4.3125,-6.125 3.71875,-3.765625 C 3.53125,-4.140625 3.25,-4.40625 2.796875,-4.40625 c -1.15625,0 -2.390625,1.46875 -2.390625,2.921875 0,0.9375 0.546875,1.59375 1.3125,1.59375 0.203125,0 0.703125,-0.046875 1.296875,-0.75 0.078125,0.421875 0.4375,0.75 0.90625,0.75 0.359375,0 0.578125,-0.234375 0.75,-0.546875 0.15625,-0.359375 0.296875,-0.96875 0.296875,-0.984375 0,-0.109375 -0.09375,-0.109375 -0.125,-0.109375 -0.09375,0 -0.109375,0.046875 -0.140625,0.1875 -0.171875,0.640625 -0.34375,1.234375 -0.75,1.234375 -0.28125,0 -0.296875,-0.265625 -0.296875,-0.453125 0,-0.25 0.015625,-0.3125 0.046875,-0.484375 z m -2.0625,5.625 C 3.015625,-1 3.015625,-0.984375 2.875,-0.8125 2.4375,-0.265625 2.03125,-0.109375 1.75,-0.109375 c -0.5,0 -0.640625,-0.546875 -0.640625,-0.9375 0,-0.5 0.3125,-1.71875 0.546875,-2.1875 0.3125,-0.578125 0.75,-0.953125 1.15625,-0.953125 0.640625,0 0.78125,0.8125 0.78125,0.875 0,0.0625 -0.015625,0.125 -0.03125,0.171875 z m 0,0"
           id="path3672" />
      </symbol>
    </g>
    <g
       id="g3162">
      <symbol
         overflow="visible"
         id="symbol5214">
        <path
           style="stroke:none"
           d=""
           id="path2866" />
      </symbol>
      <symbol
         overflow="visible"
         id="symbol8017">
        <path
           style="stroke:none"
           d="m 0.875,-0.59375 c -0.03125,0.15625 -0.09375,0.390625 -0.09375,0.4375 0,0.171875 0.140625,0.265625 0.296875,0.265625 0.125,0 0.296875,-0.078125 0.375,-0.28125 C 1.46875,-0.203125 1.796875,-1.5625 1.84375,-1.75 c 0.078125,-0.328125 0.265625,-1.015625 0.3125,-1.296875 0.046875,-0.125 0.328125,-0.59375 0.5625,-0.8125 0.078125,-0.0625 0.375,-0.328125 0.796875,-0.328125 0.265625,0 0.40625,0.125 0.421875,0.125 -0.296875,0.046875 -0.515625,0.28125 -0.515625,0.546875 0,0.15625 0.109375,0.34375 0.375,0.34375 0.265625,0 0.546875,-0.234375 0.546875,-0.59375 0,-0.34375 -0.3125,-0.640625 -0.828125,-0.640625 C 2.875,-4.40625 2.4375,-3.921875 2.25,-3.640625 2.15625,-4.09375 1.796875,-4.40625 1.328125,-4.40625 0.875,-4.40625 0.6875,-4.015625 0.59375,-3.84375 0.421875,-3.5 0.296875,-2.90625 0.296875,-2.875 c 0,0.109375 0.09375,0.109375 0.109375,0.109375 0.109375,0 0.109375,-0.015625 0.171875,-0.234375 0.171875,-0.703125 0.375,-1.1875 0.734375,-1.1875 0.15625,0 0.296875,0.078125 0.296875,0.453125 0,0.21875 -0.03125,0.328125 -0.15625,0.84375 z m 0,0"
           id="path2194" />
      </symbol>
    </g>
    <g
       id="g9693">
      <symbol
         overflow="visible"
         id="symbol4193">
        <path
           style="stroke:none"
           d=""
           id="path4576" />
      </symbol>
      <symbol
         overflow="visible"
         id="symbol90">
        <path
           style="stroke:none"
           d="m 5.359375,-5.9375 c -0.140625,0.140625 -0.46875,0.421875 -0.46875,0.59375 0,0.09375 0.09375,0.203125 0.1875,0.203125 0.09375,0 0.140625,-0.078125 0.203125,-0.140625 C 5.390625,-5.421875 5.625,-5.703125 6.0625,-5.921875 6.125,-5.96875 6.234375,-6.015625 6.234375,-6.125 6.234375,-6.234375 6.15625,-6.28125 6.09375,-6.328125 5.875,-6.484375 5.765625,-6.65625 5.6875,-6.890625 5.65625,-6.984375 5.625,-7.125 5.484375,-7.125 c -0.140625,0 -0.203125,0.140625 -0.203125,0.21875 0,0.046875 0.078125,0.359375 0.234375,0.578125 H 2.15625 c -0.15625,0 -0.34375,0 -0.34375,0.203125 0,0.1875 0.1875,0.1875 0.34375,0.1875 z m 0,0"
           id="path6661" />
      </symbol>
      <symbol
         overflow="visible"
         id="symbol8562">
        <path
           style="stroke:none"
           d="M 1.59375,-0.78125 C 1.5,-0.390625 1.46875,-0.3125 0.6875,-0.3125 c -0.171875,0 -0.265625,0 -0.265625,0.203125 C 0.421875,0 0.515625,0 0.6875,0 H 4.25 C 5.828125,0 7,-1.171875 7,-2.15625 7,-2.875 6.421875,-3.453125 5.453125,-3.5625 6.484375,-3.75 7.53125,-4.484375 7.53125,-5.4375 c 0,-0.734375 -0.65625,-1.375 -1.84375,-1.375 H 2.328125 c -0.1875,0 -0.28125,0 -0.28125,0.203125 0,0.109375 0.09375,0.109375 0.28125,0.109375 0.015625,0 0.203125,0 0.375,0.015625 0.171875,0.03125 0.265625,0.03125 0.265625,0.171875 0,0.03125 -0.015625,0.0625 -0.03125,0.1875 z m 1.5,-2.875 0.625,-2.46875 C 3.8125,-6.46875 3.828125,-6.5 4.25,-6.5 h 1.296875 c 0.875,0 1.078125,0.59375 1.078125,1.03125 0,0.875 -0.859375,1.8125 -2.0625,1.8125 z m -0.4375,3.34375 c -0.140625,0 -0.15625,0 -0.21875,0 -0.109375,-0.015625 -0.140625,-0.03125 -0.140625,-0.109375 0,-0.03125 0,-0.046875 0.0625,-0.21875 l 0.6875,-2.78125 h 1.875 c 0.953125,0 1.15625,0.734375 1.15625,1.15625 C 6.078125,-1.28125 5.1875,-0.3125 4,-0.3125 Z m 0,0"
           id="path6495" />
      </symbol>
    </g>
  </defs>
  <sodipodi:namedview
     id="base"
     pagecolor="#ffffff"
     bordercolor="#666666"
     borderopacity="1.0"
     inkscape:pageopacity="0.0"
     inkscape:pageshadow="2"
     inkscape:zoom="1.4142136"
     inkscape:cx="322.96394"
     inkscape:cy="157.53989"
     inkscape:document-units="px"
     inkscape:current-layer="layer1"
     inkscape:document-rotation="0"
     showgrid="true"
     units="px"
     borderlayer="true"
     inkscape:showpageshadow="false"
     inkscape:window-width="1920"
     inkscape:window-height="1050"
     inkscape:window-x="1920"
     inkscape:window-y="18"
     inkscape:window-maximized="1"
     showguides="false"
     inkscape:guide-bbox="true">
    <inkscape:grid
       type="axonomgrid"
       id="grid833"
       originx="-77.641611"
       originy="-124.43681" />
    <sodipodi:guide
       position="50.674479,43.920841"
       orientation="1,0"
       id="guide861" />
    <sodipodi:guide
       position="50.674479,43.920841"
       orientation="-0.5,-0.8660254"
       id="guide863" />
    <sodipodi:guide
       position="50.674479,43.920841"
       orientation="0.5,-0.8660254"
       id="guide865" />
    <sodipodi:guide
       position="57.548549,54.504171"
       orientation="0,-1"
       id="guide895" />
    <sodipodi:guide
       position="56.784499,54.504171"
       orientation="1,0"
       id="guide897" />
    <sodipodi:guide
       position="46.09176,33.337511"
       orientation="0,-1"
       id="guide899" />
    <sodipodi:guide
       position="44.56384,33.337511"
       orientation="1,0"
       id="guide901" />
    <sodipodi:guide
       position="38.4473,22.769201"
       orientation="-0.5,-0.8660254"
       id="guide931" />
    <sodipodi:guide
       position="62.893539,65.096561"
       orientation="-0.5,-0.8660254"
       id="guide933" />
    <sodipodi:guide
       position="24.32385,56.488551"
       orientation="-0.5,-0.8660254"
       id="guide1043" />
    <sodipodi:guide
       position="32.3436,33.337511"
       orientation="-0.5,-0.8660254"
       id="guide1779" />
    <sodipodi:guide
       position="36.926327,51.858341"
       orientation="1,0"
       id="guide1080" />
  </sodipodi:namedview>
  <metadata
     id="metadata5">
    <rdf:RDF>
      <cc:Work
         rdf:about="">
        <dc:format>image/svg+xml</dc:format>
        <dc:type
           rdf:resource="http://purl.org/dc/dcmitype/StillImage" />
        <dc:title />
      </cc:Work>
    </rdf:RDF>
  </metadata>
  <g
     inkscape:label="Capa 1"
     inkscape:groupmode="layer"
     id="layer1"
     transform="translate(-77.641621,-124.43679)">
    <path
       style="fill:none;fill-opacity:0.988235;stroke:#000000;stroke-width:0.529167;stroke-linecap:round;stroke-linejoin:round;stroke-miterlimit:4;stroke-dasharray:none;paint-order:markers fill stroke"
       id="path957"
       sodipodi:type="arc"
       sodipodi:cx="97.382759"
       sodipodi:cy="138.24478"
       sodipodi:rx="36.661743"
       sodipodi:ry="36.661743"
       sodipodi:start="0"
       sodipodi:end="1.0471976"
       sodipodi:open="true"
       sodipodi:arc-type="arc"
       d="m 134.0445,138.24478 a 36.661743,36.661743 0 0 1 -18.33087,31.75" />
    <path
       style="fill:none;fill-opacity:0.988235;stroke:#000000;stroke-width:0.529167;stroke-linecap:round;stroke-linejoin:round;stroke-miterlimit:4;stroke-dasharray:none;paint-order:markers fill stroke"
       id="path943"
       sodipodi:type="arc"
       sodipodi:cx="95.091393"
       sodipodi:cy="136.92188"
       sodipodi:rx="36.661743"
       sodipodi:ry="36.661743"
       sodipodi:start="0"
       sodipodi:end="1.0471976"
       sodipodi:open="true"
       sodipodi:arc-type="arc"
       d="m 131.75314,136.92187 a 36.661743,36.661743 0 0 1 -18.33088,31.75001" />
    <path
       style="fill:none;fill-opacity:0.988235;stroke:#000000;stroke-width:0.529167;stroke-linecap:round;stroke-linejoin:round;stroke-miterlimit:4;stroke-dasharray:none;paint-order:markers fill stroke"
       id="path941"
       sodipodi:type="arc"
       sodipodi:cx="131.75314"
       sodipodi:cy="158.08855"
       sodipodi:rx="36.661743"
       sodipodi:ry="36.661743"
       sodipodi:start="3.1415927"
       sodipodi:end="4.1887902"
       sodipodi:open="true"
       sodipodi:arc-type="arc"
       d="m 95.0914,158.08855 a 36.661743,36.661743 0 0 1 18.33087,-31.75" />
    <path
       style="fill:none;fill-opacity:0.988235;stroke:#000000;stroke-width:0.529167;stroke-linecap:round;stroke-linejoin:round;stroke-miterlimit:4;stroke-dasharray:none;stroke-dashoffset:0;paint-order:markers fill stroke"
       id="path945"
       sodipodi:type="arc"
       sodipodi:cx="119.53228"
       sodipodi:cy="136.92188"
       sodipodi:rx="12.220659"
       sodipodi:ry="12.220659"
       sodipodi:start="5.2359878"
       sodipodi:end="6.0175288"
       sodipodi:arc-type="arc"
       sodipodi:open="true"
       d="m 125.64261,126.33847 a 12.220659,12.220659 0 0 1 5.68163,7.37496" />
    <path
       style="fill:none;fill-opacity:0.988235;stroke:#000000;stroke-width:0.529167;stroke-linecap:round;stroke-linejoin:round;stroke-miterlimit:4;stroke-dasharray:none;stroke-dashoffset:0;paint-order:markers fill stroke"
       id="path947"
       sodipodi:type="arc"
       sodipodi:cx="107.31162"
       sodipodi:cy="158.08855"
       sodipodi:rx="12.220659"
       sodipodi:ry="12.220659"
       sodipodi:start="1.3146615"
       sodipodi:end="2.0943951"
       sodipodi:open="true"
       sodipodi:arc-type="arc"
       d="m 110.40765,169.91052 a 12.220659,12.220659 0 0 1 -9.20636,-1.23857" />
    <path
       style="fill:none;fill-opacity:0.988235;stroke:#000000;stroke-width:0.529167;stroke-linecap:round;stroke-linejoin:round;stroke-miterlimit:4;stroke-dasharray:none;paint-order:markers fill stroke"
       id="path955"
       sodipodi:type="arc"
       sodipodi:cx="134.04449"
       sodipodi:cy="159.41145"
       sodipodi:rx="36.661743"
       sodipodi:ry="36.661743"
       sodipodi:start="3.1415927"
       sodipodi:end="4.1887902"
       sodipodi:open="true"
       sodipodi:arc-type="arc"
       d="m 97.382751,159.41145 a 36.661743,36.661743 0 0 1 18.330869,-31.75" />
    <path
       style="fill:none;fill-opacity:0.988235;stroke:#000000;stroke-width:0.529167;stroke-linecap:round;stroke-linejoin:round;stroke-miterlimit:4;stroke-dasharray:none;stroke-dashoffset:0;paint-order:markers fill stroke"
       id="path959"
       sodipodi:type="arc"
       sodipodi:cx="121.82365"
       sodipodi:cy="138.24478"
       sodipodi:rx="12.220659"
       sodipodi:ry="12.220659"
       sodipodi:start="5.2359878"
       sodipodi:end="5.8750972"
       sodipodi:arc-type="arc"
       sodipodi:open="true"
       d="m 127.93398,127.66138 a 12.220659,12.220659 0 0 1 5.10678,5.73357" />
    <path
       style="fill:none;fill-opacity:0.988235;stroke:#000000;stroke-width:0.529167;stroke-linecap:round;stroke-linejoin:round;stroke-miterlimit:4;stroke-dasharray:none;stroke-dashoffset:0;paint-order:markers fill stroke"
       id="path961"
       sodipodi:type="arc"
       sodipodi:cx="109.60299"
       sodipodi:cy="159.41145"
       sodipodi:rx="12.220659"
       sodipodi:ry="12.220659"
       sodipodi:start="1.4564533"
       sodipodi:end="2.0943951"
       sodipodi:open="true"
       sodipodi:arc-type="arc"
       d="m 110.99729,171.55231 a 12.220659,12.220659 0 0 1 -7.50463,-1.55746" />
    <path
       style="fill:none;fill-opacity:0.988235;stroke:#000000;stroke-width:0.529167;stroke-linecap:round;stroke-linejoin:round;stroke-miterlimit:4;stroke-dasharray:none;paint-order:markers fill stroke"
       d="m 100.05431,139.78721 2.23817,1.29221"
       id="path929-3"
       sodipodi:nodetypes="cc" />
    <path
       style="fill:none;fill-opacity:0.988235;stroke:#000000;stroke-width:0.529167;stroke-linecap:round;stroke-linejoin:round;stroke-miterlimit:4;stroke-dasharray:none;paint-order:markers fill stroke"
       d="m 98.941787,141.79073 2.236293,1.29112"
       id="path929-6"
       sodipodi:nodetypes="cc" />
    <path
       style="fill:none;fill-opacity:0.988235;stroke:#000000;stroke-width:0.529167;stroke-linecap:round;stroke-linejoin:round;stroke-miterlimit:4;stroke-dasharray:none;paint-order:markers fill stroke"
       id="path1027"
       sodipodi:type="arc"
       sodipodi:cx="107.31162"
       sodipodi:cy="158.08855"
       sodipodi:rx="12.220659"
       sodipodi:ry="12.220659"
       sodipodi:start="2.0943951"
       sodipodi:end="3.1415927"
       sodipodi:open="true"
       sodipodi:arc-type="arc"
       d="m 101.20129,168.67195 a 12.220659,12.220659 0 0 1 -6.110327,-10.5834" />
    <path
       style="fill:none;fill-opacity:0.988235;stroke:#000000;stroke-width:0.529167;stroke-linecap:round;stroke-linejoin:round;stroke-miterlimit:4;stroke-dasharray:none;paint-order:markers fill stroke"
       id="path1029"
       sodipodi:type="arc"
       sodipodi:cx="109.60299"
       sodipodi:cy="159.41145"
       sodipodi:rx="12.220659"
       sodipodi:ry="12.220659"
       sodipodi:start="2.0943951"
       sodipodi:end="3.1415927"
       sodipodi:open="true"
       sodipodi:arc-type="arc"
       d="m 103.49266,169.99485 a 12.220659,12.220659 0 0 1 -6.11033,-10.5834" />
    <path
       style="fill:none;fill-opacity:0.988235;stroke:#000000;stroke-width:0.529167;stroke-linecap:round;stroke-linejoin:round;stroke-miterlimit:4;stroke-dasharray:none;paint-order:markers fill stroke"
       id="path1031"
       sodipodi:type="arc"
       sodipodi:cx="119.53228"
       sodipodi:cy="136.92188"
       sodipodi:rx="12.220659"
       sodipodi:ry="12.220659"
       sodipodi:start="4.1887902"
       sodipodi:end="5.2359878"
       sodipodi:arc-type="arc"
       sodipodi:open="true"
       d="m 113.42195,126.33847 a 12.220659,12.220659 0 0 1 12.22066,0" />
    <path
       style="fill:none;fill-opacity:0.988235;stroke:#000000;stroke-width:0.529167;stroke-linecap:round;stroke-linejoin:round;stroke-miterlimit:4;stroke-dasharray:none;paint-order:markers fill stroke"
       id="path1033"
       sodipodi:type="arc"
       sodipodi:cx="121.82365"
       sodipodi:cy="138.24478"
       sodipodi:rx="12.220659"
       sodipodi:ry="12.220659"
       sodipodi:start="4.1887902"
       sodipodi:end="5.2359878"
       sodipodi:arc-type="arc"
       sodipodi:open="true"
       d="m 115.71332,127.66138 a 12.220659,12.220659 0 0 1 12.22066,0" />
    <path
       style="fill:none;fill-opacity:0.988235;stroke:#000000;stroke-width:0.529167;stroke-linecap:round;stroke-linejoin:round;stroke-miterlimit:4;stroke-dasharray:none;stroke-dashoffset:0;paint-order:markers fill stroke"
       id="path1035"
       sodipodi:type="arc"
       sodipodi:cx="119.53228"
       sodipodi:cy="136.92188"
       sodipodi:rx="12.220659"
       sodipodi:ry="12.220659"
       sodipodi:start="6.0164573"
       sodipodi:end="0"
       sodipodi:arc-type="arc"
       sodipodi:open="true"
       d="m 131.3208,133.7008 a 12.220659,12.220659 0 0 1 0.43214,3.22107" />
    <path
       style="fill:none;fill-opacity:0.988235;stroke:#000000;stroke-width:0.529167;stroke-linecap:round;stroke-linejoin:round;stroke-miterlimit:4;stroke-dasharray:none;stroke-dashoffset:0;paint-order:markers fill stroke"
       id="path1037"
       sodipodi:type="arc"
       sodipodi:cx="121.82365"
       sodipodi:cy="138.24478"
       sodipodi:rx="12.220659"
       sodipodi:ry="12.220659"
       sodipodi:start="5.873943"
       sodipodi:end="0"
       sodipodi:arc-type="arc"
       sodipodi:open="true"
       d="m 133.03516,133.38201 a 12.220659,12.220659 0 0 1 1.00915,4.86277" />
    <path
       style="fill:none;fill-opacity:0.988235;stroke:#000000;stroke-width:0.529167;stroke-linecap:round;stroke-linejoin:round;stroke-miterlimit:4;stroke-dasharray:none;stroke-dashoffset:0;paint-order:markers fill stroke"
       id="path1039"
       sodipodi:type="arc"
       sodipodi:cx="107.31162"
       sodipodi:cy="158.08855"
       sodipodi:rx="12.220659"
       sodipodi:ry="12.220659"
       sodipodi:start="1.0471976"
       sodipodi:end="1.3145758"
       sodipodi:open="true"
       sodipodi:arc-type="arc"
       d="m 113.42195,168.67195 a 12.220659,12.220659 0 0 1 -3.01329,1.23831" />
    <path
       style="fill:none;fill-opacity:0.988235;stroke:#000000;stroke-width:0.529167;stroke-linecap:round;stroke-linejoin:round;stroke-miterlimit:4;stroke-dasharray:none;stroke-dashoffset:0;paint-order:markers fill stroke"
       id="path1041"
       sodipodi:type="arc"
       sodipodi:cx="109.60299"
       sodipodi:cy="159.41145"
       sodipodi:rx="12.220659"
       sodipodi:ry="12.220659"
       sodipodi:start="1.0471976"
       sodipodi:end="1.4544265"
       sodipodi:open="true"
       sodipodi:arc-type="arc"
       d="m 115.71332,169.99485 a 12.220659,12.220659 0 0 1 -4.69142,1.55461" />
    <path
       style="fill:#000000;fill-opacity:0.988235;stroke:none;stroke-width:0.25;stroke-linecap:round;stroke-linejoin:round;stroke-miterlimit:4;stroke-dasharray:0.999999, 0.499999, 0.25, 0.499999;stroke-dashoffset:0;paint-order:markers fill stroke"
       d="m 378.48193,537.77044 -3.78392,-2.18649 1.50688,-2.85651 c 0.82878,-1.57108 1.65445,-3.01134 1.83482,-3.20058 0.27609,-0.28967 0.89469,-0.0172 3.91245,1.72358 1.97147,1.13721 3.62049,2.09679 3.66448,2.13239 0.044,0.0356 -0.69194,1.52934 -1.6354,3.31942 l -1.71538,3.25468 z"
       id="path1055"
       transform="scale(0.26458333)" />
    <path
       style="fill:#999999;fill-opacity:0.988235;stroke:none;stroke-width:0.499999;stroke-linecap:round;stroke-linejoin:round;stroke-miterlimit:4;stroke-dasharray:2, 0.999999, 0.499999, 0.999999;stroke-dashoffset:0;paint-order:markers fill stroke"
       d="m 382.8378,530.1125 c -1.90477,-1.10294 -3.54578,-2.08535 -3.64668,-2.18313 -0.35916,-0.34802 7.32194,-11.56397 11.45562,-16.72751 11.27276,-14.08128 28.20363,-28.08892 41.72784,-34.52322 7.53204,-3.58346 10.56009,-4.22592 19.75,-4.1903 6.95613,0.027 8.20418,0.169 12.18385,1.38664 2.43861,0.74613 5.02611,1.68473 5.75,2.08579 1.26334,0.69992 1.22586,0.71437 -0.93385,0.36013 -1.2375,-0.20297 -5.5125,-0.35651 -9.5,-0.3412 -5.92519,0.0228 -7.98093,0.23249 -11.25,1.14774 -10.14658,2.84078 -24.92419,12.33265 -37.30704,23.96284 -7.98454,7.49921 -16.36634,17.64848 -22.04667,26.69563 l -2.71984,4.33194 z"
       id="path1057"
       transform="scale(0.26458333)" />
    <path
       style="fill:#999999;fill-opacity:0.988235;stroke:none;stroke-width:0.499999;stroke-linecap:round;stroke-linejoin:round;stroke-miterlimit:4;stroke-dasharray:2, 0.999999, 0.499999, 0.999999;stroke-dashoffset:0;paint-order:markers fill stroke"
       d="m 376.07385,631.83592 c -8.24497,-7.19233 -13.32198,-16.19906 -15.19918,-26.9637 -2.05398,-11.77843 0.45465,-32.44892 6.03185,-49.70094 2.00032,-6.18761 6.54368,-17.30263 7.25137,-17.74001 0.5975,-0.36928 6.96669,3.33948 6.96669,4.05667 0,0.3152 -0.7625,2.23602 -1.69444,4.2685 -6.50209,14.18043 -10.64855,31.16311 -11.77853,48.24144 -0.63613,9.61426 -0.0919,16.36047 1.80525,22.37764 1.93712,6.14399 5.30042,12.39484 8.57988,15.94612 2.14274,2.32034 0.90186,2.01329 -1.96289,-0.48572 z"
       id="path1059"
       transform="scale(0.26458333)" />
    <path
       style="fill:none;fill-opacity:0.988235;stroke:#000000;stroke-width:0.529167;stroke-linecap:round;stroke-linejoin:round;stroke-miterlimit:4;stroke-dasharray:none;stroke-dashoffset:0;paint-order:markers fill stroke"
       d="m 87.071643,164.04166 -9.165439,5.29167"
       id="path1091" />
    <path
       style="fill:none;fill-opacity:0.988235;stroke:#000000;stroke-width:0.529167;stroke-linecap:round;stroke-linejoin:round;stroke-miterlimit:4;stroke-dasharray:1.5875, 1.5875;stroke-dashoffset:0;paint-order:markers fill stroke"
       d="m 167.2692,178.59375 -27.49631,15.875"
       id="path1069-56"
       sodipodi:nodetypes="cc" />
    <path
       style="fill:none;fill-opacity:0.988235;stroke:#000000;stroke-width:0.529167;stroke-linecap:round;stroke-linejoin:round;stroke-miterlimit:4;stroke-dasharray:none;stroke-dashoffset:0;paint-order:markers fill stroke"
       d="m 139.77289,194.46875 -9.16544,5.29167"
       id="path1091-2" />
    <path
       style="fill:none;fill-opacity:0.988235;stroke:#000000;stroke-width:0.529167;stroke-linecap:round;stroke-linejoin:round;stroke-miterlimit:4;stroke-dasharray:none;stroke-dashoffset:0;paint-order:markers fill stroke"
       d="m 83.634604,166.02603 52.701246,30.4271"
       id="path1067-9"
       sodipodi:nodetypes="cc" />
    <path
       style="fill:none;fill-opacity:0.988235;stroke:#000000;stroke-width:0.529167;stroke-linecap:round;stroke-linejoin:round;stroke-miterlimit:4;stroke-dasharray:none;stroke-dashoffset:0;paint-order:markers fill stroke"
       d="m 185.60006,189.17709 -9.16543,-5.29167"
       id="path1091-2-1"
       sodipodi:nodetypes="cc" />
    <path
       style="fill:none;fill-opacity:0.988235;stroke:#000000;stroke-width:0.529167;stroke-linecap:round;stroke-linejoin:round;stroke-miterlimit:4;stroke-dasharray:none;stroke-dashoffset:0;paint-order:markers fill stroke"
       d="m 167.2692,199.76042 -9.16543,-5.29167"
       id="path1775"
       sodipodi:nodetypes="cc" />
    <path
       style="fill:none;fill-opacity:0.988235;stroke:#000000;stroke-width:0.529167;stroke-linecap:round;stroke-linejoin:round;stroke-miterlimit:4;stroke-dasharray:1.5875, 1.5875;stroke-dashoffset:0;paint-order:markers fill stroke"
       d="m 176.43463,183.88542 -9.16543,-5.29167"
       id="path1777"
       sodipodi:nodetypes="cc" />
    <path
       style="fill:none;fill-opacity:0.988235;stroke:#000000;stroke-width:0.529167;stroke-linecap:round;stroke-linejoin:round;stroke-miterlimit:4;stroke-dasharray:1.5875, 1.5875;stroke-dashoffset:0;paint-order:markers fill stroke"
       d="M 158.10376,194.46875 97.382758,159.41145"
       id="path1781"
       sodipodi:nodetypes="cc" />
    <path
       style="fill:none;fill-opacity:0.988235;stroke:#000000;stroke-width:0.529167;stroke-linecap:round;stroke-linejoin:round;stroke-miterlimit:4;stroke-dasharray:none;stroke-dashoffset:0;paint-order:markers fill stroke"
       d="M 179.87167,185.86979 161.5408,196.45313"
       id="path1783"
       sodipodi:nodetypes="cc" />
    <circle
       style="fill:#ffffff;fill-opacity:0.988235;stroke:#000000;stroke-width:1.05833;stroke-linecap:round;stroke-linejoin:round;stroke-miterlimit:4;stroke-dasharray:none;stroke-dashoffset:0;paint-order:markers fill stroke"
       id="path1709"
       cx="167.2692"
       cy="178.59375"
       r="1.2640671" />
    <g
       inkscape:label=""
       transform="translate(15.950356,111.5625)"
       id="g1061">
      <g
         id="g4014">
        <g
           style="fill:#000000;fill-opacity:1"
           id="g2892">
          <use
             xlink:href="#symbol3368"
             x="91.925003"
             y="81.962997"
             id="use8593"
             width="100%"
             height="100%" />
        </g>
      </g>
    </g>
    <g
       inkscape:label=""
       transform="translate(82.181475,114.60417)"
       id="g1051">
      <g
         id="g8597">
        <g
           style="fill:#000000;fill-opacity:1"
           id="g6063">
          <use
             xlink:href="#symbol8017"
             x="91.925003"
             y="81.962997"
             id="use2926"
             width="100%"
             height="100%" />
        </g>
      </g>
    </g>
    <path
       style="fill:#666666;fill-opacity:0.988235;stroke:none;stroke-width:0.5;stroke-linecap:round;stroke-linejoin:bevel;stroke-miterlimit:4;stroke-dasharray:none;stroke-dashoffset:0;paint-order:markers fill stroke"
       d="m 246.61385,259.55113 c -3.03443,-0.29267 -6.80987,-1.09533 -9.99419,-2.12475 -2.65548,-0.85846 -3.47955,-1.29685 -1.88538,-1.003 2.61817,0.48261 7.16989,0.66042 10.49709,0.41006 10.79581,-0.81232 18.46407,-4.03523 31.41796,-13.20471 32.10529,-22.7259 53.18077,-58.15656 57.87737,-97.29947 0.70768,-5.89801 0.94694,-10.71372 0.83477,-16.80218 -0.12508,-6.78943 -0.48933,-9.26162 -2.11032,-14.32282 -1.50282,-4.69222 -4.62435,-10.68864 -7.39154,-14.19903 -2.27123,-2.881225 1.9921,0.6295 4.93717,4.06562 6.1735,7.20284 9.80348,15.53696 10.89258,25.00841 0.33681,2.92907 0.19381,11.94184 -0.26575,16.75 -3.93411,41.16016 -25.11738,77.47463 -58.87683,100.9325 -4.0543,2.81714 -10.34795,6.6063 -13.03402,7.84727 -7.00269,3.23525 -15.34237,4.67095 -22.89891,3.9421 z"
       id="path1082"
       transform="matrix(0.26458333,0,0,0.26458333,43.271228,102.60982)" />
    <path
       style="fill:none;stroke:#000000;stroke-width:0.529167;stroke-linecap:round;stroke-linejoin:miter;stroke-miterlimit:4;stroke-dasharray:0.529167, 1.5875;stroke-dashoffset:0;stroke-opacity:1"
       d="M 98.070161,157.69167 132.89882,137.58333"
       id="path1076"
       sodipodi:nodetypes="cc" />
    <path
       style="fill:#ff0000;fill-opacity:0.988235;stroke:#000000;stroke-width:1.05833;stroke-linecap:round;stroke-linejoin:bevel;stroke-miterlimit:4;stroke-dasharray:none;stroke-dashoffset:0;marker-end:url(#Arrow1Send);paint-order:markers fill stroke"
       d="m 168.39173,179.38888 20.64538,11.77258"
       id="path1086"
       sodipodi:nodetypes="cc" />
    <g
       inkscape:label=""
       transform="matrix(0.87383591,0,0,0.87383591,97.036431,111.01092)"
       id="g1488">
      <g
         id="g5491">
        <g
           style="fill:#000000;fill-opacity:1"
           id="g5527">
          <use
             xlink:href="#symbol90"
             x="93.527"
             y="79.445"
             id="use6939"
             width="100%"
             height="100%" />
        </g>
        <g
           style="fill:#000000;fill-opacity:1"
           id="g575">
          <use
             xlink:href="#symbol8562"
             x="91.925003"
             y="81.962997"
             id="use4119"
             width="100%"
             height="100%" />
        </g>
      </g>
    </g>
    <path
       style="fill:none;stroke:#000000;stroke-width:0.529167;stroke-linecap:round;stroke-linejoin:miter;stroke-miterlimit:4;stroke-dasharray:0.529167, 1.5875;stroke-dashoffset:0;stroke-opacity:1"
       d="m 114.56795,129.11667 v 39.6875"
       id="path1518"
       sodipodi:nodetypes="cc" />
    <path
       style="fill:none;fill-opacity:0.988235;stroke:#000000;stroke-width:1.05833;stroke-linecap:round;stroke-linejoin:round;stroke-miterlimit:4;stroke-dasharray:4.23333, 2.11667, 1.05833, 2.11667;stroke-dashoffset:0;paint-order:markers fill stroke"
       d="m 114.56795,148.16667 51.62549,29.74888"
       id="path1047"
       sodipodi:nodetypes="cc" />
    <path
       style="fill:none;fill-opacity:0.988235;stroke:#000000;stroke-width:0.529167;stroke-linecap:round;stroke-linejoin:round;stroke-miterlimit:4;stroke-dasharray:1.5875, 1.5875;stroke-dashoffset:0;paint-order:markers fill stroke"
       d="m 96.237078,158.74999 -9.165435,5.29167"
       id="path1069"
       sodipodi:nodetypes="cc" />
  </g>
</svg>
