<?xml version="1.0" encoding="UTF-8" standalone="no"?>
<!-- Created with Inkscape (http://www.inkscape.org/) -->

<svg
   width="192"
   height="160.00002"
   viewBox="0 0 50.799998 42.333338"
   version="1.1"
   id="svg5"
   sodipodi:docname="f01.svg"
   inkscape:version="1.2.1 (9c6d41e410, 2022-07-14)"
   xmlns:inkscape="http://www.inkscape.org/namespaces/inkscape"
   xmlns:sodipodi="http://sodipodi.sourceforge.net/DTD/sodipodi-0.dtd"
   xmlns="http://www.w3.org/2000/svg"
   xmlns:svg="http://www.w3.org/2000/svg">
  <sodipodi:namedview
     id="namedview7"
     pagecolor="#ffffff"
     bordercolor="#000000"
     borderopacity="0.25"
     inkscape:showpageshadow="false"
     inkscape:pageopacity="0.0"
     inkscape:pagecheckerboard="false"
     inkscape:deskcolor="#d1d1d1"
     inkscape:document-units="px"
     showgrid="true"
     inkscape:zoom="2"
     inkscape:cx="262.25"
     inkscape:cy="114.75"
     inkscape:window-width="1920"
     inkscape:window-height="1050"
     inkscape:window-x="1920"
     inkscape:window-y="18"
     inkscape:window-maximized="1"
     inkscape:current-layer="layer1"
     showguides="true">
    <inkscape:grid
       type="xygrid"
       id="grid1223"
       spacingx="1.0583333"
       spacingy="1.0583333"
       empspacing="4"
       originx="-6.9935164e-13"
       originy="-42.333335" />
    <sodipodi:guide
       position="-1.3987033e-12,84.666672"
       orientation="0,-1"
       id="guide1694"
       inkscape:locked="false" />
    <sodipodi:guide
       position="-1.3987033e-12,84.666672"
       orientation="1,0"
       id="guide1696"
       inkscape:locked="false" />
    <sodipodi:guide
       position="50.799998,84.666682"
       orientation="1,0"
       id="guide21735"
       inkscape:locked="false" />
    <sodipodi:guide
       position="-1.3987033e-12,42.333332"
       orientation="0,-1"
       id="guide21941"
       inkscape:locked="false" />
    <sodipodi:guide
       position="101.59999,84.666682"
       orientation="1,0"
       id="guide24413"
       inkscape:locked="false" />
    <sodipodi:guide
       position="-1.3987033e-12,2.0848109e-06"
       orientation="0,-1"
       id="guide35496"
       inkscape:locked="false" />
    <sodipodi:guide
       position="152.4,84.666662"
       orientation="1,0"
       id="guide50631"
       inkscape:locked="false" />
    <sodipodi:guide
       position="-1.3987033e-12,-38.099998"
       orientation="0,-1"
       id="guide53352"
       inkscape:locked="false" />
    <sodipodi:guide
       position="-1.3987033e-12,-76.199987"
       orientation="0,-1"
       id="guide159195"
       inkscape:locked="false" />
    <sodipodi:guide
       position="67.733331,-76.199987"
       orientation="1,0"
       id="guide500405"
       inkscape:locked="false" />
    <sodipodi:guide
       position="-1.3987033e-12,-118.53332"
       orientation="0,-1"
       id="guide503869"
       inkscape:locked="false" />
    <sodipodi:guide
       position="135.46666,-118.53332"
       orientation="1,0"
       id="guide515144"
       inkscape:locked="false" />
    <sodipodi:guide
       position="203.19999,-118.53332"
       orientation="1,0"
       id="guide645019"
       inkscape:locked="false" />
    <sodipodi:guide
       position="59.266665,-156.63332"
       orientation="1,0"
       id="guide686712"
       inkscape:locked="false" />
    <sodipodi:guide
       position="-1.3987033e-12,-156.63332"
       orientation="0,-1"
       id="guide686714"
       inkscape:locked="false" />
    <sodipodi:guide
       position="118.53333,-156.63332"
       orientation="1,0"
       id="guide765939"
       inkscape:locked="false" />
    <sodipodi:guide
       position="177.79999,-156.63332"
       orientation="1,0"
       id="guide816936"
       inkscape:locked="false" />
    <sodipodi:guide
       position="253.99999,-76.199985"
       orientation="1,0"
       id="guide839718"
       inkscape:locked="false" />
  </sodipodi:namedview>
  <defs
     id="defs2">
    <clipPath
       id="clipPath2215">
      <path
         d="M 0,0 H 11 V 7.597656 H 0 Z m 0,0"
         id="path897" />
    </clipPath>
    <clipPath
       id="clipPath8952">
      <path
         d="M 0,0 H 11.816406 V 7.453125 H 0 Z m 0,0"
         id="path4309" />
    </clipPath>
    <clipPath
       id="clipPath7255">
      <path
         d="M 0,0 H 31 V 10.910156 H 0 Z m 0,0"
         id="path6767" />
    </clipPath>
    <clipPath
       id="clipPath4945">
      <path
         d="m 36,3 h 6 v 7.910156 h -6 z m 0,0"
         id="path448" />
    </clipPath>
    <clipPath
       id="clipPath834">
      <path
         d="m 42,0 h 2 v 10.910156 h -2 z m 0,0"
         id="path9986" />
    </clipPath>
  </defs>
  <g
     inkscape:label="Capa 1"
     inkscape:groupmode="layer"
     id="layer1"
     transform="translate(0,-42.333332)">
    <rect
       style="fill:#ffffff;stroke:none;stroke-width:0.264583;stroke-linejoin:round;stroke-dasharray:none;stroke-dashoffset:0;paint-order:stroke markers fill"
       id="rect423879"
       width="50.799999"
       height="42.333336"
       x="6.9935166e-13"
       y="42.333332"
       inkscape:export-filename="f01.svg"
       inkscape:export-xdpi="96"
       inkscape:export-ydpi="96" />
    <g
       inkscape:label=""
       transform="matrix(0.69480594,0,0,0.69480594,33.903021,52.1605)"
       id="g1319"
       style="fill:#0000ff">
      <g
         id="g1317"
         transform="matrix(0.352778,0,0,0.352778,-0.110243,5.73285e-4)"
         style="fill:#0000ff">
        <g
           clip-path="url(#clipPath2215)"
           clip-rule="nonzero"
           id="g1309"
           style="fill:#0000ff">
          <g
             style="fill:#0000ff;fill-opacity:1"
             id="g1307">
            <g
               id="g1301"
               transform="translate(0,7.598)"
               style="fill:#0000ff">
              <path
                 style="fill:#0000ff;stroke:none"
                 d="m 3.203125,-1.796875 v 0.953125 c 0,0.390625 -0.015625,0.5 -0.828125,0.5 H 2.15625 V 0 c 0.4375,-0.03125 1,-0.03125 1.46875,-0.03125 0.453125,0 1.03125,0 1.484375,0.03125 V -0.34375 H 4.875 c -0.8125,0 -0.828125,-0.109375 -0.828125,-0.5 v -0.953125 h 1.09375 v -0.34375 H 4.046875 V -7.09375 c 0,-0.21875 0,-0.296875 -0.171875,-0.296875 -0.09375,0 -0.140625,0 -0.21875,0.140625 L 0.3125,-2.140625 v 0.34375 z m 0.0625,-0.34375 h -2.65625 l 2.65625,-4.0625 z m 0,0"
                 id="path1299" />
            </g>
            <g
               id="g1305"
               transform="translate(5.4545498,7.598)"
               style="fill:#0000ff">
              <path
                 style="fill:#0000ff;stroke:none"
                 d="m 4.890625,-2.1875 c 0,-1.296875 -0.890625,-2.390625 -2.0625,-2.390625 -0.53125,0 -1,0.171875 -1.390625,0.546875 v -2.125 c 0.21875,0.078125 0.578125,0.140625 0.921875,0.140625 1.34375,0 2.109375,-0.984375 2.109375,-1.125 0,-0.0625 -0.03125,-0.125 -0.109375,-0.125 0,0 -0.03125,0 -0.078125,0.03125 -0.21875,0.109375 -0.765625,0.3125 -1.484375,0.3125 -0.4375,0 -0.9375,-0.0625 -1.453125,-0.296875 C 1.25,-7.25 1.234375,-7.25 1.203125,-7.25 1.09375,-7.25 1.09375,-7.171875 1.09375,-6.984375 v 3.21875 c 0,0.203125 0,0.28125 0.15625,0.28125 0.078125,0 0.109375,-0.03125 0.140625,-0.09375 0.125,-0.171875 0.53125,-0.765625 1.40625,-0.765625 0.578125,0 0.84375,0.5 0.9375,0.703125 0.171875,0.40625 0.1875,0.828125 0.1875,1.375 0,0.375 0,1.03125 -0.25,1.484375 C 3.40625,-0.34375 3,-0.0625 2.5,-0.0625 c -0.796875,0 -1.421875,-0.578125 -1.609375,-1.21875 0.03125,0 0.0625,0.015625 0.1875,0.015625 0.359375,0 0.546875,-0.265625 0.546875,-0.53125 0,-0.265625 -0.1875,-0.53125 -0.546875,-0.53125 -0.15625,0 -0.53125,0.078125 -0.53125,0.578125 0,0.9375 0.75,1.984375 1.96875,1.984375 1.265625,0 2.375,-1.046875 2.375,-2.421875 z m 0,0"
                 id="path1303" />
            </g>
          </g>
        </g>
        <g
           style="fill:#0000ff;fill-opacity:1"
           id="g1315">
          <g
             id="g1313"
             transform="translate(10.909,3.6389999)"
             style="fill:#0000ff">
            <path
               style="fill:#0000ff;stroke:none"
               d="m 3.75,-1.984375 c 0,-0.921875 -0.734375,-1.65625 -1.640625,-1.65625 -0.90625,0 -1.640625,0.734375 -1.640625,1.65625 0,0.90625 0.734375,1.640625 1.640625,1.640625 0.90625,0 1.640625,-0.734375 1.640625,-1.640625 z m -1.640625,1.28125 c -0.703125,0 -1.265625,-0.578125 -1.265625,-1.28125 0,-0.71875 0.5625,-1.296875 1.265625,-1.296875 0.71875,0 1.28125,0.578125 1.28125,1.296875 0,0.703125 -0.5625,1.28125 -1.28125,1.28125 z m 0,0"
               id="path1311" />
          </g>
        </g>
      </g>
    </g>
    <g
       inkscape:label=""
       transform="matrix(0.69480594,0,0,0.69480594,13.499261,52.049188)"
       id="g1465"
       style="fill:#0000ff">
      <g
         id="g1463"
         transform="matrix(0.352778,0,0,0.352778,-0.16413485,0.16078015)"
         style="fill:#0000ff">
        <g
           clip-path="url(#clipPath2215)"
           clip-rule="nonzero"
           id="g1455"
           style="fill:#0000ff">
          <g
             style="fill:#0000ff;fill-opacity:1"
             id="g1453">
            <g
               id="g1447"
               transform="translate(0,7.598)"
               style="fill:#0000ff">
              <path
                 style="fill:#0000ff;stroke:none"
                 d="m 3.203125,-1.796875 v 0.953125 c 0,0.390625 -0.015625,0.5 -0.828125,0.5 H 2.15625 V 0 c 0.4375,-0.03125 1,-0.03125 1.46875,-0.03125 0.453125,0 1.03125,0 1.484375,0.03125 V -0.34375 H 4.875 c -0.8125,0 -0.828125,-0.109375 -0.828125,-0.5 v -0.953125 h 1.09375 v -0.34375 H 4.046875 V -7.09375 c 0,-0.21875 0,-0.296875 -0.171875,-0.296875 -0.09375,0 -0.140625,0 -0.21875,0.140625 L 0.3125,-2.140625 v 0.34375 z m 0.0625,-0.34375 h -2.65625 l 2.65625,-4.0625 z m 0,0"
                 id="path1445" />
            </g>
            <g
               id="g1451"
               transform="translate(5.4545498,7.598)"
               style="fill:#0000ff">
              <path
                 style="fill:#0000ff;stroke:none"
                 d="m 4.890625,-2.1875 c 0,-1.296875 -0.890625,-2.390625 -2.0625,-2.390625 -0.53125,0 -1,0.171875 -1.390625,0.546875 v -2.125 c 0.21875,0.078125 0.578125,0.140625 0.921875,0.140625 1.34375,0 2.109375,-0.984375 2.109375,-1.125 0,-0.0625 -0.03125,-0.125 -0.109375,-0.125 0,0 -0.03125,0 -0.078125,0.03125 -0.21875,0.109375 -0.765625,0.3125 -1.484375,0.3125 -0.4375,0 -0.9375,-0.0625 -1.453125,-0.296875 C 1.25,-7.25 1.234375,-7.25 1.203125,-7.25 1.09375,-7.25 1.09375,-7.171875 1.09375,-6.984375 v 3.21875 c 0,0.203125 0,0.28125 0.15625,0.28125 0.078125,0 0.109375,-0.03125 0.140625,-0.09375 0.125,-0.171875 0.53125,-0.765625 1.40625,-0.765625 0.578125,0 0.84375,0.5 0.9375,0.703125 0.171875,0.40625 0.1875,0.828125 0.1875,1.375 0,0.375 0,1.03125 -0.25,1.484375 C 3.40625,-0.34375 3,-0.0625 2.5,-0.0625 c -0.796875,0 -1.421875,-0.578125 -1.609375,-1.21875 0.03125,0 0.0625,0.015625 0.1875,0.015625 0.359375,0 0.546875,-0.265625 0.546875,-0.53125 0,-0.265625 -0.1875,-0.53125 -0.546875,-0.53125 -0.15625,0 -0.53125,0.078125 -0.53125,0.578125 0,0.9375 0.75,1.984375 1.96875,1.984375 1.265625,0 2.375,-1.046875 2.375,-2.421875 z m 0,0"
                 id="path1449" />
            </g>
          </g>
        </g>
        <g
           style="fill:#0000ff;fill-opacity:1"
           id="g1461">
          <g
             id="g1459"
             transform="translate(10.909,3.6389999)"
             style="fill:#0000ff">
            <path
               style="fill:#0000ff;stroke:none"
               d="m 3.75,-1.984375 c 0,-0.921875 -0.734375,-1.65625 -1.640625,-1.65625 -0.90625,0 -1.640625,0.734375 -1.640625,1.65625 0,0.90625 0.734375,1.640625 1.640625,1.640625 0.90625,0 1.640625,-0.734375 1.640625,-1.640625 z m -1.640625,1.28125 c -0.703125,0 -1.265625,-0.578125 -1.265625,-1.28125 0,-0.71875 0.5625,-1.296875 1.265625,-1.296875 0.71875,0 1.28125,0.578125 1.28125,1.296875 0,0.703125 -0.5625,1.28125 -1.28125,1.28125 z m 0,0"
               id="path1457" />
          </g>
        </g>
      </g>
    </g>
    <g
       inkscape:label=""
       transform="matrix(0.80906088,0,0,0.80906088,23.852494,75.136638)"
       id="g1534">
      <g
         id="surface1"
         transform="matrix(0.352778,0,0,0.352778,-0.209462,-6.6143e-4)">
        <g
           clip-path="url(#clipPath8952)"
           clip-rule="nonzero"
           id="g19">
          <g
             style="fill:#000000;fill-opacity:1"
             id="g17">
            <g
               id="use15"
               transform="translate(0,7.4549999)">
              <path
                 style="stroke:none"
                 d="m 10,-6.1875 c 0.28125,-0.46875 0.53125,-0.875 1.21875,-0.921875 0.109375,-0.015625 0.21875,-0.015625 0.21875,-0.21875 0,-0.046875 -0.04687,-0.125 -0.140625,-0.125 -0.265625,0 -0.5625,0.03125 -0.84375,0.03125 -0.359375,0 -0.765625,-0.03125 -1.125,-0.03125 -0.0625,0 -0.203125,0 -0.203125,0.21875 0,0.109375 0.09375,0.125 0.15625,0.125 0.265625,0.015625 0.640625,0.09375 0.640625,0.421875 0,0.125 -0.046875,0.203125 -0.140625,0.359375 L 6.84375,-1.1875 6.4375,-6.59375 c -0.015625,-0.21875 -0.03125,-0.5 0.765625,-0.515625 0.1875,0 0.296875,0 0.296875,-0.21875 0,-0.109375 -0.125,-0.125 -0.171875,-0.125 -0.4375,0 -0.890625,0.03125 -1.328125,0.03125 -0.25,0 -0.890625,-0.03125 -1.140625,-0.03125 -0.078125,0 -0.21875,0 -0.21875,0.21875 0,0.125 0.109375,0.125 0.265625,0.125 0.484375,0 0.5625,0.0625 0.578125,0.265625 L 5.546875,-6 2.796875,-1.1875 2.375,-6.71875 c 0,-0.125 0,-0.375 0.828125,-0.390625 0.109375,0 0.234375,0 0.234375,-0.21875 0,-0.125 -0.140625,-0.125 -0.15625,-0.125 -0.4375,0 -0.890625,0.03125 -1.34375,0.03125 -0.375,0 -0.765625,-0.03125 -1.140625,-0.03125 -0.0625,0 -0.203125,0 -0.203125,0.21875 0,0.125 0.109375,0.125 0.28125,0.125 0.546875,0 0.546875,0.09375 0.578125,0.40625 l 0.484375,6.65625 c 0.015625,0.203125 0.03125,0.28125 0.171875,0.28125 0.140625,0 0.171875,-0.0625 0.265625,-0.21875 l 3.203125,-5.5625 0.40625,5.5 C 6.015625,0.1875 6.03125,0.234375 6.15625,0.234375 6.296875,0.234375 6.375,0.125 6.421875,0.03125 Z m 0,0"
                 id="path26" />
            </g>
          </g>
        </g>
      </g>
    </g>
    <g
       inkscape:label=""
       transform="matrix(0.69480594,0,0,0.69480594,30.658403,75.156791)"
       id="g1656"
       style="fill:#0000ff">
      <g
         id="g1654"
         transform="matrix(0.352778,0,0,0.352778,-0.341753,-0.00357193)"
         style="fill:#0000ff">
        <g
           clip-path="url(#clipPath7255)"
           clip-rule="nonzero"
           id="g53"
           style="fill:#0000ff">
          <g
             style="fill:#0000ff;fill-opacity:1"
             id="g51">
            <g
               id="use39"
               transform="translate(0,8.1820002)"
               style="fill:#0000ff">
              <path
                 style="fill:#0000ff;stroke:none"
                 d="m 3.203125,-6.984375 c 0,-0.25 0,-0.28125 -0.25,-0.28125 C 2.28125,-6.5625 1.3125,-6.5625 0.96875,-6.5625 v 0.328125 c 0.21875,0 0.859375,0 1.4375,-0.28125 v 5.65625 c 0,0.390625 -0.046875,0.515625 -1.015625,0.515625 H 1.03125 V 0 c 0.390625,-0.03125 1.328125,-0.03125 1.765625,-0.03125 0.4375,0 1.390625,0 1.765625,0.03125 V -0.34375 H 4.21875 c -0.984375,0 -1.015625,-0.109375 -1.015625,-0.515625 z m 0,0"
                 id="path76" />
            </g>
            <g
               id="use41"
               transform="translate(5.4545498,8.1820002)"
               style="fill:#0000ff">
              <path
                 style="fill:#0000ff;stroke:none"
                 d="m 5.015625,-3.484375 c 0,-0.875 -0.046875,-1.75 -0.4375,-2.5625 -0.5,-1.046875 -1.390625,-1.21875 -1.859375,-1.21875 -0.640625,0 -1.4375,0.28125 -1.890625,1.296875 -0.34375,0.75 -0.40625,1.609375 -0.40625,2.484375 0,0.8125 0.046875,1.796875 0.5,2.625 0.46875,0.875 1.265625,1.09375 1.796875,1.09375 0.578125,0 1.421875,-0.21875 1.890625,-1.265625 0.359375,-0.75 0.40625,-1.59375 0.40625,-2.453125 z M 2.71875,0 C 2.296875,0 1.640625,-0.265625 1.453125,-1.3125 c -0.125,-0.65625 -0.125,-1.671875 -0.125,-2.3125 0,-0.6875 0,-1.40625 0.09375,-2 C 1.625,-6.921875 2.4375,-7.03125 2.71875,-7.03125 c 0.359375,0 1.078125,0.203125 1.28125,1.28125 0.109375,0.609375 0.109375,1.4375 0.109375,2.125 0,0.828125 0,1.5625 -0.125,2.265625 C 3.828125,-0.328125 3.203125,0 2.71875,0 Z m 0,0"
                 id="path80" />
            </g>
            <g
               id="use43"
               transform="translate(10.9091,8.1820002)"
               style="fill:#0000ff">
              <path
                 style="fill:#0000ff;stroke:none"
                 d="m 5.015625,-3.484375 c 0,-0.875 -0.046875,-1.75 -0.4375,-2.5625 -0.5,-1.046875 -1.390625,-1.21875 -1.859375,-1.21875 -0.640625,0 -1.4375,0.28125 -1.890625,1.296875 -0.34375,0.75 -0.40625,1.609375 -0.40625,2.484375 0,0.8125 0.046875,1.796875 0.5,2.625 0.46875,0.875 1.265625,1.09375 1.796875,1.09375 0.578125,0 1.421875,-0.21875 1.890625,-1.265625 0.359375,-0.75 0.40625,-1.59375 0.40625,-2.453125 z M 2.71875,0 C 2.296875,0 1.640625,-0.265625 1.453125,-1.3125 c -0.125,-0.65625 -0.125,-1.671875 -0.125,-2.3125 0,-0.6875 0,-1.40625 0.09375,-2 C 1.625,-6.921875 2.4375,-7.03125 2.71875,-7.03125 c 0.359375,0 1.078125,0.203125 1.28125,1.28125 0.109375,0.609375 0.109375,1.4375 0.109375,2.125 0,0.828125 0,1.5625 -0.125,2.265625 C 3.828125,-0.328125 3.203125,0 2.71875,0 Z m 0,0"
                 id="path84" />
            </g>
            <g
               id="use45"
               transform="translate(16.363649,8.1820002)"
               style="fill:#0000ff">
              <path
                 style="fill:#0000ff;stroke:none"
                 d="m 5.015625,-3.484375 c 0,-0.875 -0.046875,-1.75 -0.4375,-2.5625 -0.5,-1.046875 -1.390625,-1.21875 -1.859375,-1.21875 -0.640625,0 -1.4375,0.28125 -1.890625,1.296875 -0.34375,0.75 -0.40625,1.609375 -0.40625,2.484375 0,0.8125 0.046875,1.796875 0.5,2.625 0.46875,0.875 1.265625,1.09375 1.796875,1.09375 0.578125,0 1.421875,-0.21875 1.890625,-1.265625 0.359375,-0.75 0.40625,-1.59375 0.40625,-2.453125 z M 2.71875,0 C 2.296875,0 1.640625,-0.265625 1.453125,-1.3125 c -0.125,-0.65625 -0.125,-1.671875 -0.125,-2.3125 0,-0.6875 0,-1.40625 0.09375,-2 C 1.625,-6.921875 2.4375,-7.03125 2.71875,-7.03125 c 0.359375,0 1.078125,0.203125 1.28125,1.28125 0.109375,0.609375 0.109375,1.4375 0.109375,2.125 0,0.828125 0,1.5625 -0.125,2.265625 C 3.828125,-0.328125 3.203125,0 2.71875,0 Z m 0,0"
                 id="path88" />
            </g>
            <g
               id="use47"
               transform="translate(21.818199,8.1820002)"
               style="fill:#0000ff">
              <path
                 style="fill:#0000ff;stroke:none"
                 d="m 5.015625,-3.484375 c 0,-0.875 -0.046875,-1.75 -0.4375,-2.5625 -0.5,-1.046875 -1.390625,-1.21875 -1.859375,-1.21875 -0.640625,0 -1.4375,0.28125 -1.890625,1.296875 -0.34375,0.75 -0.40625,1.609375 -0.40625,2.484375 0,0.8125 0.046875,1.796875 0.5,2.625 0.46875,0.875 1.265625,1.09375 1.796875,1.09375 0.578125,0 1.421875,-0.21875 1.890625,-1.265625 0.359375,-0.75 0.40625,-1.59375 0.40625,-2.453125 z M 2.71875,0 C 2.296875,0 1.640625,-0.265625 1.453125,-1.3125 c -0.125,-0.65625 -0.125,-1.671875 -0.125,-2.3125 0,-0.6875 0,-1.40625 0.09375,-2 C 1.625,-6.921875 2.4375,-7.03125 2.71875,-7.03125 c 0.359375,0 1.078125,0.203125 1.28125,1.28125 0.109375,0.609375 0.109375,1.4375 0.109375,2.125 0,0.828125 0,1.5625 -0.125,2.265625 C 3.828125,-0.328125 3.203125,0 2.71875,0 Z m 0,0"
                 id="path92" />
            </g>
            <g
               id="use49"
               transform="translate(27.272751,8.1820002)"
               style="fill:#0000ff">
              <path
                 style="fill:#0000ff;stroke:none"
                 d="M 2.78125,2.71875 V 2.296875 H 1.71875 V -7.75 h 1.0625 v -0.421875 h -1.5 V 2.71875 Z m 0,0"
                 id="path96" />
            </g>
          </g>
        </g>
        <g
           style="fill:#0000ff;fill-opacity:1"
           id="g57">
          <g
             id="use55"
             transform="translate(30.302999,8.1820002)"
             style="fill:#0000ff">
            <path
               style="fill:#0000ff;stroke:none"
               d="m 3.125,-7.453125 c 0,0 0,-0.109375 -0.140625,-0.109375 -0.25,0 -1.046875,0.078125 -1.328125,0.109375 -0.078125,0 -0.203125,0.015625 -0.203125,0.21875 0,0.125 0.09375,0.125 0.265625,0.125 0.515625,0 0.53125,0.078125 0.53125,0.1875 l -0.03125,0.21875 -1.578125,6.28125 C 0.59375,-0.265625 0.59375,-0.25 0.59375,-0.1875 c 0,0.25 0.21875,0.3125 0.328125,0.3125 C 1.0625,0.125 1.21875,0.015625 1.28125,-0.109375 1.34375,-0.203125 1.828125,-2.21875 1.890625,-2.5 c 0.375,0.03125 1.265625,0.203125 1.265625,0.921875 0,0.078125 0,0.125 -0.03125,0.234375 -0.015625,0.140625 -0.03125,0.265625 -0.03125,0.390625 0,0.640625 0.421875,1.078125 1,1.078125 0.328125,0 0.625,-0.171875 0.859375,-0.578125 C 5.21875,-0.9375 5.34375,-1.53125 5.34375,-1.5625 c 0,-0.109375 -0.09375,-0.109375 -0.125,-0.109375 -0.109375,0 -0.125,0.046875 -0.15625,0.203125 -0.21875,0.796875 -0.46875,1.34375 -0.953125,1.34375 -0.203125,0 -0.34375,-0.109375 -0.34375,-0.5 0,-0.1875 0.046875,-0.4375 0.078125,-0.625 0.046875,-0.171875 0.046875,-0.21875 0.046875,-0.328125 0,-0.71875 -0.6875,-1.03125 -1.609375,-1.140625 0.34375,-0.203125 0.6875,-0.546875 0.9375,-0.8125 0.515625,-0.578125 1.03125,-1.046875 1.5625,-1.046875 0.0625,0 0.078125,0 0.09375,0.015625 C 5,-4.546875 5.015625,-4.546875 5.109375,-4.484375 5.125,-4.46875 5.125,-4.453125 5.140625,-4.4375 4.625,-4.40625 4.53125,-3.984375 4.53125,-3.84375 c 0,0.171875 0.109375,0.375 0.40625,0.375 0.28125,0 0.609375,-0.234375 0.609375,-0.671875 0,-0.3125 -0.25,-0.6875 -0.75,-0.6875 -0.296875,0 -0.8125,0.09375 -1.59375,0.96875 C 2.828125,-3.453125 2.40625,-3.015625 2,-2.84375 Z m 0,0"
               id="path100" />
          </g>
        </g>
        <g
           clip-path="url(#clipPath4945)"
           clip-rule="nonzero"
           id="g63"
           style="fill:#0000ff">
          <g
             style="fill:#0000ff;fill-opacity:1"
             id="g61">
            <g
               id="use59"
               transform="translate(36.320461,8.1820002)"
               style="fill:#0000ff">
              <path
                 style="fill:#0000ff;stroke:none"
                 d="m 5.140625,-4.109375 c 0,-0.0625 0.03125,-0.125 0.03125,-0.203125 0,-0.1875 -0.140625,-0.296875 -0.3125,-0.296875 -0.109375,0 -0.40625,0.078125 -0.453125,0.46875 -0.203125,-0.390625 -0.578125,-0.6875 -1.015625,-0.6875 -1.234375,0 -2.59375,1.53125 -2.59375,3.109375 C 0.796875,-0.640625 1.46875,0 2.25,0 2.890625,0 3.40625,-0.515625 3.515625,-0.625 3.296875,0.34375 3.15625,0.796875 3.15625,0.8125 3.125,0.921875 2.75,2 1.59375,2 1.390625,2 1.03125,1.984375 0.71875,1.890625 1.046875,1.78125 1.171875,1.5 1.171875,1.3125 c 0,-0.171875 -0.125,-0.375 -0.421875,-0.375 -0.234375,0 -0.59375,0.203125 -0.59375,0.640625 0,0.4375 0.40625,0.65625 1.453125,0.65625 1.375,0 2.15625,-0.84375 2.3125,-1.5 z m -1.421875,2.71875 c -0.0625,0.28125 -0.3125,0.546875 -0.5625,0.765625 -0.21875,0.1875 -0.5625,0.390625 -0.875,0.390625 -0.546875,0 -0.703125,-0.578125 -0.703125,-1.015625 0,-0.515625 0.3125,-1.796875 0.609375,-2.359375 0.28125,-0.53125 0.75,-0.96875 1.21875,-0.96875 0.71875,0 0.875,0.875 0.875,0.9375 0,0.046875 -0.03125,0.125 -0.03125,0.15625 z m 0,0"
                 id="path104" />
            </g>
          </g>
        </g>
        <g
           clip-path="url(#clipPath834)"
           clip-rule="nonzero"
           id="g69"
           style="fill:#0000ff">
          <g
             style="fill:#0000ff;fill-opacity:1"
             id="g67">
            <g
               id="use65"
               transform="translate(41.919998,8.1820002)"
               style="fill:#0000ff">
              <path
                 style="fill:#0000ff;stroke:none"
                 d="m 1.734375,-8.171875 h -1.5 V -7.75 h 1.0625 V 2.296875 h -1.0625 V 2.71875 h 1.5 z m 0,0"
                 id="path108" />
            </g>
          </g>
        </g>
      </g>
    </g>
    <path
       style="fill:none;stroke:#000000;stroke-width:0.264583;stroke-linejoin:round;stroke-dasharray:none;paint-order:stroke markers fill"
       d="m 6.3499998,50.800003 19.0499992,19.05 19.05,-19.05"
       id="path17100"
       sodipodi:nodetypes="ccc" />
    <path
       style="fill:none;stroke:#000000;stroke-width:0.264583;stroke-linejoin:round;stroke-dasharray:none;paint-order:stroke markers fill"
       d="m 25.399999,69.850003 v 3.175"
       id="path17156"
       sodipodi:nodetypes="cc" />
    <rect
       style="fill:none;stroke:#000000;stroke-width:0.264583;stroke-linejoin:round;stroke-dasharray:none;paint-order:stroke markers fill"
       id="rect17257"
       width="6.3500013"
       height="6.3499985"
       x="22.224998"
       y="73.025002" />
    <path
       style="fill:none;stroke:#0000ff;stroke-width:0.264583;stroke-linejoin:round;stroke-dasharray:none;paint-order:stroke markers fill"
       id="path17360"
       sodipodi:type="arc"
       sodipodi:cx="6.3499999"
       sodipodi:cy="50.800003"
       sodipodi:rx="6.3499999"
       sodipodi:ry="6.3499999"
       sodipodi:start="0"
       sodipodi:end="0.78539816"
       sodipodi:open="true"
       sodipodi:arc-type="arc"
       d="m 12.7,50.800003 a 6.3499999,6.3499999 0 0 1 -1.859872,4.490128" />
    <path
       style="fill:none;stroke:#0000ff;stroke-width:0.264583;stroke-linejoin:round;stroke-dasharray:none;paint-order:stroke markers fill"
       id="path17364"
       sodipodi:type="arc"
       sodipodi:cx="44.450001"
       sodipodi:cy="50.800003"
       sodipodi:rx="6.3499999"
       sodipodi:ry="6.3499999"
       sodipodi:start="2.3561945"
       sodipodi:end="3.1415927"
       sodipodi:arc-type="arc"
       d="M 39.959873,55.290131 A 6.3499999,6.3499999 0 0 1 38.100001,50.800003"
       sodipodi:open="true" />
    <rect
       style="fill:none;stroke:#000000;stroke-width:0.264583;stroke-linejoin:round;stroke-dasharray:none;paint-order:stroke markers fill"
       id="rect18502"
       width="42.333332"
       height="2.1166666"
       x="4.2333331"
       y="48.683338" />
    <path
       style="fill:none;stroke:#000000;stroke-width:0.264583;stroke-linejoin:round;stroke-dasharray:none;paint-order:stroke markers fill"
       d="M 4.2333333,50.800003 C 6.3499999,48.683336 6.3499999,48.683336 6.3499999,48.683336"
       id="path18504" />
    <path
       style="fill:none;stroke:#000000;stroke-width:0.264583;stroke-linejoin:round;stroke-dasharray:none;paint-order:stroke markers fill"
       d="M 5.2916665,50.800003 C 7.4083331,48.683336 7.4083331,48.683336 7.4083331,48.683336"
       id="path18506" />
    <path
       style="fill:none;stroke:#000000;stroke-width:0.264583;stroke-linejoin:round;stroke-dasharray:none;paint-order:stroke markers fill"
       d="M 6.3499998,50.800003 C 8.4666664,48.683336 8.4666664,48.683336 8.4666664,48.683336"
       id="path18508" />
    <path
       style="fill:none;stroke:#000000;stroke-width:0.264583;stroke-linejoin:round;stroke-dasharray:none;paint-order:stroke markers fill"
       d="M 7.408333,50.800003 C 9.5249996,48.683336 9.5249996,48.683336 9.5249996,48.683336"
       id="path18510" />
    <path
       style="fill:none;stroke:#000000;stroke-width:0.264583;stroke-linejoin:round;stroke-dasharray:none;paint-order:stroke markers fill"
       d="M 8.4666665,50.800003 C 10.583333,48.683336 10.583333,48.683336 10.583333,48.683336"
       id="path18512" />
    <path
       style="fill:none;stroke:#000000;stroke-width:0.264583;stroke-linejoin:round;stroke-dasharray:none;paint-order:stroke markers fill"
       d="M 9.5249997,50.800003 C 11.641666,48.683336 11.641666,48.683336 11.641666,48.683336"
       id="path18514" />
    <path
       style="fill:none;stroke:#000000;stroke-width:0.264583;stroke-linejoin:round;stroke-dasharray:none;paint-order:stroke markers fill"
       d="M 10.583333,50.800003 C 12.7,48.683336 12.7,48.683336 12.7,48.683336"
       id="path18516" />
    <path
       style="fill:none;stroke:#000000;stroke-width:0.264583;stroke-linejoin:round;stroke-dasharray:none;paint-order:stroke markers fill"
       d="m 11.641666,50.800003 c 2.116667,-2.116667 2.116667,-2.116667 2.116667,-2.116667"
       id="path18518" />
    <path
       style="fill:none;stroke:#000000;stroke-width:0.264583;stroke-linejoin:round;stroke-dasharray:none;paint-order:stroke markers fill"
       d="M 4.2333332,49.74167 5.2916665,48.683336"
       id="path18520"
       sodipodi:nodetypes="cc" />
    <path
       style="fill:none;stroke:#000000;stroke-width:0.264583;stroke-linejoin:round;stroke-dasharray:none;paint-order:stroke markers fill"
       d="m 12.7,50.800003 c 2.116666,-2.116667 2.116666,-2.116667 2.116666,-2.116667"
       id="path18522" />
    <path
       style="fill:none;stroke:#000000;stroke-width:0.264583;stroke-linejoin:round;stroke-dasharray:none;paint-order:stroke markers fill"
       d="m 13.758333,50.800003 c 2.116666,-2.116667 2.116666,-2.116667 2.116666,-2.116667"
       id="path18524" />
    <path
       style="fill:none;stroke:#000000;stroke-width:0.264583;stroke-linejoin:round;stroke-dasharray:none;paint-order:stroke markers fill"
       d="m 14.816666,50.800003 c 2.116667,-2.116667 2.116667,-2.116667 2.116667,-2.116667"
       id="path18526" />
    <path
       style="fill:none;stroke:#000000;stroke-width:0.264583;stroke-linejoin:round;stroke-dasharray:none;paint-order:stroke markers fill"
       d="m 15.874999,50.800003 c 2.116667,-2.116667 2.116667,-2.116667 2.116667,-2.116667"
       id="path18528" />
    <path
       style="fill:none;stroke:#000000;stroke-width:0.264583;stroke-linejoin:round;stroke-dasharray:none;paint-order:stroke markers fill"
       d="m 16.933333,50.800003 c 2.116666,-2.116667 2.116666,-2.116667 2.116666,-2.116667"
       id="path18530" />
    <path
       style="fill:none;stroke:#000000;stroke-width:0.264583;stroke-linejoin:round;stroke-dasharray:none;paint-order:stroke markers fill"
       d="m 17.991666,50.800003 c 2.116666,-2.116667 2.116666,-2.116667 2.116666,-2.116667"
       id="path18532" />
    <path
       style="fill:none;stroke:#000000;stroke-width:0.264583;stroke-linejoin:round;stroke-dasharray:none;paint-order:stroke markers fill"
       d="m 19.049999,50.800003 c 2.116667,-2.116667 2.116667,-2.116667 2.116667,-2.116667"
       id="path18534" />
    <path
       style="fill:none;stroke:#000000;stroke-width:0.264583;stroke-linejoin:round;stroke-dasharray:none;paint-order:stroke markers fill"
       d="m 20.108332,50.800003 c 2.116667,-2.116667 2.116667,-2.116667 2.116667,-2.116667"
       id="path18536" />
    <path
       style="fill:none;stroke:#000000;stroke-width:0.264583;stroke-linejoin:round;stroke-dasharray:none;paint-order:stroke markers fill"
       d="m 21.166666,50.800003 c 2.116667,-2.116667 2.116667,-2.116667 2.116667,-2.116667"
       id="path19571" />
    <path
       style="fill:none;stroke:#000000;stroke-width:0.264583;stroke-linejoin:round;stroke-dasharray:none;paint-order:stroke markers fill"
       d="m 22.225,50.800003 c 2.116666,-2.116667 2.116666,-2.116667 2.116666,-2.116667"
       id="path19573" />
    <path
       style="fill:none;stroke:#000000;stroke-width:0.264583;stroke-linejoin:round;stroke-dasharray:none;paint-order:stroke markers fill"
       d="m 23.283333,50.800003 c 2.116666,-2.116667 2.116666,-2.116667 2.116666,-2.116667"
       id="path19575" />
    <path
       style="fill:none;stroke:#000000;stroke-width:0.264583;stroke-linejoin:round;stroke-dasharray:none;paint-order:stroke markers fill"
       d="m 24.341666,50.800003 c 2.116667,-2.116667 2.116667,-2.116667 2.116667,-2.116667"
       id="path19577" />
    <path
       style="fill:none;stroke:#000000;stroke-width:0.264583;stroke-linejoin:round;stroke-dasharray:none;paint-order:stroke markers fill"
       d="m 25.399999,50.800003 c 2.116667,-2.116667 2.116667,-2.116667 2.116667,-2.116667"
       id="path19579" />
    <path
       style="fill:none;stroke:#000000;stroke-width:0.264583;stroke-linejoin:round;stroke-dasharray:none;paint-order:stroke markers fill"
       d="M 26.458333,50.800003 C 28.575,48.683336 28.575,48.683336 28.575,48.683336"
       id="path19581" />
    <path
       style="fill:none;stroke:#000000;stroke-width:0.264583;stroke-linejoin:round;stroke-dasharray:none;paint-order:stroke markers fill"
       d="m 27.516667,50.800003 c 2.116666,-2.116667 2.116666,-2.116667 2.116666,-2.116667"
       id="path19583" />
    <path
       style="fill:none;stroke:#000000;stroke-width:0.264583;stroke-linejoin:round;stroke-dasharray:none;paint-order:stroke markers fill"
       d="m 28.575,50.800003 c 2.116666,-2.116667 2.116666,-2.116667 2.116666,-2.116667"
       id="path19585" />
    <path
       style="fill:none;stroke:#000000;stroke-width:0.264583;stroke-linejoin:round;stroke-dasharray:none;paint-order:stroke markers fill"
       d="M 29.633333,50.800003 C 31.75,48.683336 31.75,48.683336 31.75,48.683336"
       id="path19587" />
    <path
       style="fill:none;stroke:#000000;stroke-width:0.264583;stroke-linejoin:round;stroke-dasharray:none;paint-order:stroke markers fill"
       d="m 30.691666,50.800003 c 2.116667,-2.116667 2.116667,-2.116667 2.116667,-2.116667"
       id="path19589" />
    <path
       style="fill:none;stroke:#000000;stroke-width:0.264583;stroke-linejoin:round;stroke-dasharray:none;paint-order:stroke markers fill"
       d="m 31.749999,50.800003 c 2.116667,-2.116667 2.116667,-2.116667 2.116667,-2.116667"
       id="path19591" />
    <path
       style="fill:none;stroke:#000000;stroke-width:0.264583;stroke-linejoin:round;stroke-dasharray:none;paint-order:stroke markers fill"
       d="m 32.808333,50.800003 c 2.116666,-2.116667 2.116666,-2.116667 2.116666,-2.116667"
       id="path19593" />
    <path
       style="fill:none;stroke:#000000;stroke-width:0.264583;stroke-linejoin:round;stroke-dasharray:none;paint-order:stroke markers fill"
       d="m 33.866666,50.800003 c 2.116666,-2.116667 2.116666,-2.116667 2.116666,-2.116667"
       id="path19595" />
    <path
       style="fill:none;stroke:#000000;stroke-width:0.264583;stroke-linejoin:round;stroke-dasharray:none;paint-order:stroke markers fill"
       d="m 34.924999,50.800003 c 2.116667,-2.116667 2.116667,-2.116667 2.116667,-2.116667"
       id="path19597" />
    <path
       style="fill:none;stroke:#000000;stroke-width:0.264583;stroke-linejoin:round;stroke-dasharray:none;paint-order:stroke markers fill"
       d="m 35.983332,50.800003 c 2.116667,-2.116667 2.116667,-2.116667 2.116667,-2.116667"
       id="path19599" />
    <path
       style="fill:none;stroke:#000000;stroke-width:0.264583;stroke-linejoin:round;stroke-dasharray:none;paint-order:stroke markers fill"
       d="m 37.041665,50.800003 c 2.116667,-2.116667 2.116667,-2.116667 2.116667,-2.116667"
       id="path19601" />
    <path
       style="fill:none;stroke:#000000;stroke-width:0.264583;stroke-linejoin:round;stroke-dasharray:none;paint-order:stroke markers fill"
       d="m 38.099999,50.800003 c 2.116666,-2.116667 2.116666,-2.116667 2.116666,-2.116667"
       id="path19603" />
    <path
       style="fill:none;stroke:#000000;stroke-width:0.264583;stroke-linejoin:round;stroke-dasharray:none;paint-order:stroke markers fill"
       d="m 39.158332,50.800003 c 2.116666,-2.116667 2.116666,-2.116667 2.116666,-2.116667"
       id="path19605" />
    <path
       style="fill:none;stroke:#000000;stroke-width:0.264583;stroke-linejoin:round;stroke-dasharray:none;paint-order:stroke markers fill"
       d="m 40.216665,50.800003 c 2.116667,-2.116667 2.116667,-2.116667 2.116667,-2.116667"
       id="path19607" />
    <path
       style="fill:none;stroke:#000000;stroke-width:0.264583;stroke-linejoin:round;stroke-dasharray:none;paint-order:stroke markers fill"
       d="m 41.274998,50.800003 c 2.116667,-2.116667 2.116667,-2.116667 2.116667,-2.116667"
       id="path19609" />
    <path
       style="fill:none;stroke:#000000;stroke-width:0.264583;stroke-linejoin:round;stroke-dasharray:none;paint-order:stroke markers fill"
       d="m 42.333332,50.800003 c 2.116667,-2.116667 2.116667,-2.116667 2.116667,-2.116667"
       id="path19611" />
    <path
       style="fill:none;stroke:#000000;stroke-width:0.264583;stroke-linejoin:round;stroke-dasharray:none;paint-order:stroke markers fill"
       d="m 43.391666,50.800003 c 2.116666,-2.116667 2.116666,-2.116667 2.116666,-2.116667"
       id="path19613" />
    <path
       style="fill:none;stroke:#000000;stroke-width:0.264583;stroke-linejoin:round;stroke-dasharray:none;paint-order:stroke markers fill"
       d="m 44.449999,50.800003 c 2.116666,-2.116667 2.116666,-2.116667 2.116666,-2.116667"
       id="path19615" />
    <path
       style="fill:none;stroke:#000000;stroke-width:0.264583;stroke-linejoin:round;stroke-dasharray:none;paint-order:stroke markers fill"
       d="M 45.508332,50.800003 46.566665,49.74167"
       id="path19617"
       sodipodi:nodetypes="cc" />
  </g>
</svg>
