<?xml version="1.0" encoding="UTF-8" standalone="no"?>
<!-- Created with Inkscape (http://www.inkscape.org/) -->

<svg
   width="192"
   height="144.00002"
   viewBox="0 0 50.799998 38.100005"
   version="1.1"
   id="svg5"
   sodipodi:docname="base.svg"
   inkscape:version="1.2.1 (9c6d41e410, 2022-07-14)"
   xmlns:inkscape="http://www.inkscape.org/namespaces/inkscape"
   xmlns:sodipodi="http://sodipodi.sourceforge.net/DTD/sodipodi-0.dtd"
   xmlns="http://www.w3.org/2000/svg"
   xmlns:svg="http://www.w3.org/2000/svg">
  <sodipodi:namedview
     id="namedview7"
     pagecolor="#ffffff"
     bordercolor="#000000"
     borderopacity="0.25"
     inkscape:showpageshadow="false"
     inkscape:pageopacity="0.0"
     inkscape:pagecheckerboard="false"
     inkscape:deskcolor="#d1d1d1"
     inkscape:document-units="px"
     showgrid="true"
     inkscape:zoom="2.8284271"
     inkscape:cx="158.74547"
     inkscape:cy="673.34244"
     inkscape:window-width="1920"
     inkscape:window-height="1050"
     inkscape:window-x="1920"
     inkscape:window-y="18"
     inkscape:window-maximized="1"
     inkscape:current-layer="layer1"
     showguides="true">
    <inkscape:grid
       type="xygrid"
       id="grid1223"
       spacingx="1.0583333"
       spacingy="1.0583333"
       empspacing="4"
       originx="3.1554436e-30"
       originy="-42.333334" />
    <sodipodi:guide
       position="3.1554437e-30,237.06668"
       orientation="0,-1"
       id="guide1694"
       inkscape:locked="false" />
    <sodipodi:guide
       position="3.1554437e-30,237.06668"
       orientation="1,0"
       id="guide1696"
       inkscape:locked="false" />
    <sodipodi:guide
       position="50.799998,237.06669"
       orientation="1,0"
       id="guide21735"
       inkscape:locked="false" />
    <sodipodi:guide
       position="3.1554437e-30,194.73334"
       orientation="0,-1"
       id="guide21941"
       inkscape:locked="false" />
    <sodipodi:guide
       position="101.59999,237.06669"
       orientation="1,0"
       id="guide24413"
       inkscape:locked="false" />
    <sodipodi:guide
       position="3.1554437e-30,152.40001"
       orientation="0,-1"
       id="guide35496"
       inkscape:locked="false" />
    <sodipodi:guide
       position="152.4,237.06667"
       orientation="1,0"
       id="guide50631"
       inkscape:locked="false" />
    <sodipodi:guide
       position="3.1554437e-30,114.30001"
       orientation="0,-1"
       id="guide53352"
       inkscape:locked="false" />
    <sodipodi:guide
       position="3.1554437e-30,76.200022"
       orientation="0,-1"
       id="guide159195"
       inkscape:locked="false" />
    <sodipodi:guide
       position="67.733331,76.200022"
       orientation="1,0"
       id="guide500405"
       inkscape:locked="false" />
    <sodipodi:guide
       position="3.1554437e-30,38.10002"
       orientation="0,-1"
       id="guide503869"
       inkscape:locked="false" />
    <sodipodi:guide
       position="135.46666,33.866686"
       orientation="1,0"
       id="guide515144"
       inkscape:locked="false" />
    <sodipodi:guide
       position="203.19999,33.866684"
       orientation="1,0"
       id="guide645019"
       inkscape:locked="false" />
    <sodipodi:guide
       position="59.266665,-4.2333152"
       orientation="1,0"
       id="guide686712"
       inkscape:locked="false" />
    <sodipodi:guide
       position="3.1554437e-30,2.1238042e-05"
       orientation="0,-1"
       id="guide686714"
       inkscape:locked="false" />
    <sodipodi:guide
       position="118.53333,-4.2333142"
       orientation="1,0"
       id="guide765939"
       inkscape:locked="false" />
    <sodipodi:guide
       position="177.79999,-4.2333142"
       orientation="1,0"
       id="guide816936"
       inkscape:locked="false" />
    <sodipodi:guide
       position="253.99999,76.200024"
       orientation="1,0"
       id="guide839718"
       inkscape:locked="false" />
  </sodipodi:namedview>
  <defs
     id="defs2">
    <clipPath
       id="clipPath8949">
      <path
         d="M 0,0 H 20 V 10.910156 H 0 Z m 0,0"
         id="path5518" />
    </clipPath>
    <clipPath
       id="clipPath5441">
      <path
         d="m 25,3 h 6 v 7.910156 h -6 z m 0,0"
         id="path5186" />
    </clipPath>
    <clipPath
       id="clipPath464">
      <path
         d="M 31,0 H 46 V 10.910156 H 31 Z m 0,0"
         id="path1405" />
    </clipPath>
    <clipPath
       id="clipPath8841">
      <path
         d="m 46,0 h 2 v 10.910156 h -2 z m 0,0"
         id="path2805" />
    </clipPath>
    <clipPath
       id="clipPath9902">
      <path
         d="M 0,0 H 25 V 10.910156 H 0 Z m 0,0"
         id="path4289" />
    </clipPath>
    <clipPath
       id="clipPath1047">
      <path
         d="m 31,3 h 6 v 7.910156 h -6 z m 0,0"
         id="path4752" />
    </clipPath>
    <clipPath
       id="clipPath8779">
      <path
         d="m 36,0 h 3 v 10.910156 h -3 z m 0,0"
         id="path4012" />
    </clipPath>
    <clipPath
       id="clipPath1547">
      <path
         d="M 0,0 H 9 V 10.910156 H 0 Z m 0,0"
         id="path5093" />
    </clipPath>
    <clipPath
       id="clipPath6104">
      <path
         d="m 18,0 h 2 v 10.910156 h -2 z m 0,0"
         id="path1337" />
    </clipPath>
    <clipPath
       id="clipPath3850">
      <path
         d="M 0,0 H 9 V 10.910156 H 0 Z m 0,0"
         id="path7450" />
    </clipPath>
    <clipPath
       id="clipPath852">
      <path
         d="m 18,0 h 2 v 10.910156 h -2 z m 0,0"
         id="path3371" />
    </clipPath>
    <clipPath
       id="clipPath1497">
      <path
         d="M 0,0 H 20 V 10.910156 H 0 Z m 0,0"
         id="path1329" />
    </clipPath>
    <clipPath
       id="clipPath3207">
      <path
         d="m 25,3 h 6 v 7.910156 h -6 z m 0,0"
         id="path480" />
    </clipPath>
    <clipPath
       id="clipPath1709">
      <path
         d="m 31,0 h 2 v 10.910156 h -2 z m 0,0"
         id="path5212" />
    </clipPath>
    <marker
       style="overflow:visible"
       id="Arrow2-4-3-6"
       refX="0"
       refY="0"
       orient="auto-start-reverse"
       inkscape:stockid="Arrow2"
       markerWidth="3.3000002"
       markerHeight="2.4000001"
       viewBox="0 0 7.7 5.6"
       inkscape:isstock="true"
       inkscape:collect="always"
       preserveAspectRatio="xMidYMid">
      <path
         transform="scale(0.7)"
         d="M -2,-4 9,0 -2,4 c 2,-2.33 2,-5.66 0,-8 z"
         style="fill:context-stroke;fill-rule:evenodd;stroke:none"
         id="arrow2L-4-9-0" />
    </marker>
    <marker
       style="overflow:visible"
       id="Arrow2-4-0-4-7"
       refX="0"
       refY="0"
       orient="auto-start-reverse"
       inkscape:stockid="Arrow2"
       markerWidth="3.3000002"
       markerHeight="2.4000001"
       viewBox="0 0 7.7 5.6"
       inkscape:isstock="true"
       inkscape:collect="always"
       preserveAspectRatio="xMidYMid">
      <path
         transform="scale(0.7)"
         d="M -2,-4 9,0 -2,4 c 2,-2.33 2,-5.66 0,-8 z"
         style="fill:context-stroke;fill-rule:evenodd;stroke:none"
         id="arrow2L-4-2-7-5" />
    </marker>
  </defs>
  <g
     inkscape:label="Capa 1"
     inkscape:groupmode="layer"
     id="layer1"
     transform="translate(0,-198.96664)">
    <rect
       style="fill:#ffffff;stroke:none;stroke-width:0.264583;stroke-linejoin:round;stroke-dasharray:none;stroke-dashoffset:0;paint-order:stroke markers fill"
       id="rect427331"
       width="50.799999"
       height="38.099998"
       x="0"
       y="198.96663"
       inkscape:export-filename="f06.svg"
       inkscape:export-xdpi="96"
       inkscape:export-ydpi="96" />
    <rect
       style="fill:#cccccc;stroke:#000000;stroke-width:0.132292;stroke-linejoin:round;stroke-dasharray:none;paint-order:stroke markers fill"
       id="rect38641-3-2-7"
       width="33.866665"
       height="2.1166687"
       x="4.2333374"
       y="216.9583" />
    <g
       inkscape:label=""
       transform="matrix(0.56806002,0,0,0.56806002,14.995055,229.62537)"
       id="g7687"
       style="fill:#0000ff">
      <g
         id="g7685"
         transform="matrix(0.352778,0,0,0.352778,-0.159852,-0.00357193)"
         style="fill:#0000ff">
        <g
           clip-path="url(#clipPath1547)"
           clip-rule="nonzero"
           id="g7669"
           style="fill:#0000ff">
          <g
             style="fill:#0000ff;fill-opacity:1"
             id="g7667">
            <g
               id="g7661"
               transform="translate(0,8.1820002)"
               style="fill:#0000ff">
              <path
                 style="fill:#0000ff;stroke:none"
                 d="M 3.15625,-3.84375 C 4.0625,-4.140625 4.6875,-4.890625 4.6875,-5.765625 c 0,-0.890625 -0.953125,-1.5 -2,-1.5 -1.109375,0 -1.9375,0.65625 -1.9375,1.484375 0,0.359375 0.25,0.5625 0.5625,0.5625 0.328125,0 0.546875,-0.234375 0.546875,-0.546875 0,-0.546875 -0.5,-0.546875 -0.671875,-0.546875 C 1.53125,-6.84375 2.25,-6.984375 2.640625,-6.984375 3.09375,-6.984375 3.6875,-6.75 3.6875,-5.765625 3.6875,-5.640625 3.671875,-5 3.375,-4.53125 3.046875,-4 2.6875,-3.96875 2.40625,-3.953125 c -0.078125,0 -0.34375,0.03125 -0.421875,0.03125 -0.09375,0 -0.15625,0.015625 -0.15625,0.125 0,0.125 0.0625,0.125 0.25,0.125 H 2.5625 c 0.890625,0 1.296875,0.734375 1.296875,1.8125 0,1.484375 -0.75,1.796875 -1.234375,1.796875 -0.46875,0 -1.28125,-0.1875 -1.671875,-0.828125 0.390625,0.046875 0.71875,-0.1875 0.71875,-0.609375 0,-0.390625 -0.28125,-0.609375 -0.609375,-0.609375 -0.25,0 -0.609375,0.15625 -0.609375,0.640625 0,0.984375 1.015625,1.703125 2.203125,1.703125 1.328125,0 2.328125,-0.984375 2.328125,-2.09375 0,-0.90625 -0.6875,-1.75 -1.828125,-1.984375 z m 0,0"
                 id="path7659" />
            </g>
            <g
               id="g7665"
               transform="translate(5.4545498,8.1820002)"
               style="fill:#0000ff">
              <path
                 style="fill:#0000ff;stroke:none"
                 d="M 2.78125,2.71875 V 2.296875 H 1.71875 V -7.75 h 1.0625 v -0.421875 h -1.5 V 2.71875 Z m 0,0"
                 id="path7663" />
            </g>
          </g>
        </g>
        <g
           style="fill:#0000ff;fill-opacity:1"
           id="g7675">
          <g
             id="g7673"
             transform="translate(8.4849997,8.1820002)"
             style="fill:#0000ff">
            <path
               style="fill:#0000ff;stroke:none"
               d="m 0.953125,-0.640625 c -0.03125,0.15625 -0.09375,0.40625 -0.09375,0.46875 0,0.1875 0.15625,0.296875 0.3125,0.296875 C 1.3125,0.125 1.5,0.03125 1.578125,-0.1875 1.59375,-0.203125 1.71875,-0.71875 1.78125,-1 l 0.25,-0.96875 c 0.0625,-0.25 0.125,-0.484375 0.1875,-0.734375 0.03125,-0.1875 0.125,-0.5 0.140625,-0.546875 0.15625,-0.34375 0.734375,-1.328125 1.78125,-1.328125 0.484375,0 0.578125,0.40625 0.578125,0.765625 0,0.265625 -0.078125,0.578125 -0.15625,0.90625 L 4.25,-1.640625 4.03125,-0.8125 c -0.046875,0.21875 -0.140625,0.578125 -0.140625,0.640625 0,0.1875 0.15625,0.296875 0.3125,0.296875 0.34375,0 0.40625,-0.28125 0.5,-0.625 0.15625,-0.609375 0.546875,-2.203125 0.65625,-2.625 0.03125,-0.140625 0.609375,-1.453125 1.796875,-1.453125 0.46875,0 0.59375,0.375 0.59375,0.765625 0,0.609375 -0.46875,1.859375 -0.6875,2.4375 -0.09375,0.265625 -0.140625,0.375 -0.140625,0.59375 0,0.515625 0.390625,0.90625 0.890625,0.90625 1.03125,0 1.4375,-1.59375 1.4375,-1.6875 0,-0.109375 -0.09375,-0.109375 -0.125,-0.109375 -0.109375,0 -0.109375,0.03125 -0.171875,0.203125 C 8.796875,-0.890625 8.4375,-0.125 7.84375,-0.125 c -0.1875,0 -0.265625,-0.109375 -0.265625,-0.359375 0,-0.265625 0.09375,-0.53125 0.203125,-0.765625 0.203125,-0.578125 0.65625,-1.78125 0.65625,-2.40625 0,-0.703125 -0.4375,-1.171875 -1.25,-1.171875 -0.8125,0 -1.375,0.484375 -1.78125,1.0625 C 5.40625,-3.90625 5.359375,-4.28125 5.0625,-4.53125 4.78125,-4.765625 4.4375,-4.828125 4.171875,-4.828125 3.1875,-4.828125 2.65625,-4.125 2.46875,-3.875 c -0.0625,-0.625 -0.515625,-0.953125 -1,-0.953125 -0.515625,0 -0.71875,0.4375 -0.8125,0.625 -0.203125,0.390625 -0.34375,1.03125 -0.34375,1.0625 0,0.109375 0.109375,0.109375 0.140625,0.109375 0.109375,0 0.109375,-0.015625 0.171875,-0.25 0.1875,-0.78125 0.40625,-1.296875 0.796875,-1.296875 0.1875,0 0.34375,0.078125 0.34375,0.5 0,0.234375 -0.03125,0.34375 -0.171875,0.921875 z m 0,0"
               id="path7671" />
          </g>
        </g>
        <g
           clip-path="url(#clipPath6104)"
           clip-rule="nonzero"
           id="g7683"
           style="fill:#0000ff">
          <g
             style="fill:#0000ff;fill-opacity:1"
             id="g7681">
            <g
               id="g7679"
               transform="translate(18.063,8.1820002)"
               style="fill:#0000ff">
              <path
                 style="fill:#0000ff;stroke:none"
                 d="m 1.734375,-8.171875 h -1.5 V -7.75 h 1.0625 V 2.296875 h -1.0625 V 2.71875 h 1.5 z m 0,0"
                 id="path7677" />
            </g>
          </g>
        </g>
      </g>
    </g>
    <g
       inkscape:label=""
       transform="matrix(0.56806002,0,0,0.56806002,31.980055,229.62536)"
       id="g7717"
       style="fill:#0000ff">
      <g
         id="g7715"
         transform="matrix(0.352778,0,0,0.352778,-0.341753,-0.00357193)"
         style="fill:#0000ff">
        <g
           clip-path="url(#clipPath3850)"
           clip-rule="nonzero"
           id="g7699"
           style="fill:#0000ff">
          <g
             style="fill:#0000ff;fill-opacity:1"
             id="g7697">
            <g
               id="g7691"
               transform="translate(0,8.1820002)"
               style="fill:#0000ff">
              <path
                 style="fill:#0000ff;stroke:none"
                 d="m 3.203125,-6.984375 c 0,-0.25 0,-0.28125 -0.25,-0.28125 C 2.28125,-6.5625 1.3125,-6.5625 0.96875,-6.5625 v 0.328125 c 0.21875,0 0.859375,0 1.4375,-0.28125 v 5.65625 c 0,0.390625 -0.046875,0.515625 -1.015625,0.515625 H 1.03125 V 0 c 0.390625,-0.03125 1.328125,-0.03125 1.765625,-0.03125 0.4375,0 1.390625,0 1.765625,0.03125 V -0.34375 H 4.21875 c -0.984375,0 -1.015625,-0.109375 -1.015625,-0.515625 z m 0,0"
                 id="path7689" />
            </g>
            <g
               id="g7695"
               transform="translate(5.4545498,8.1820002)"
               style="fill:#0000ff">
              <path
                 style="fill:#0000ff;stroke:none"
                 d="M 2.78125,2.71875 V 2.296875 H 1.71875 V -7.75 h 1.0625 v -0.421875 h -1.5 V 2.71875 Z m 0,0"
                 id="path7693" />
            </g>
          </g>
        </g>
        <g
           style="fill:#0000ff;fill-opacity:1"
           id="g7705">
          <g
             id="g7703"
             transform="translate(8.4849997,8.1820002)"
             style="fill:#0000ff">
            <path
               style="fill:#0000ff;stroke:none"
               d="m 0.953125,-0.640625 c -0.03125,0.15625 -0.09375,0.40625 -0.09375,0.46875 0,0.1875 0.15625,0.296875 0.3125,0.296875 C 1.3125,0.125 1.5,0.03125 1.578125,-0.1875 1.59375,-0.203125 1.71875,-0.71875 1.78125,-1 l 0.25,-0.96875 c 0.0625,-0.25 0.125,-0.484375 0.1875,-0.734375 0.03125,-0.1875 0.125,-0.5 0.140625,-0.546875 0.15625,-0.34375 0.734375,-1.328125 1.78125,-1.328125 0.484375,0 0.578125,0.40625 0.578125,0.765625 0,0.265625 -0.078125,0.578125 -0.15625,0.90625 L 4.25,-1.640625 4.03125,-0.8125 c -0.046875,0.21875 -0.140625,0.578125 -0.140625,0.640625 0,0.1875 0.15625,0.296875 0.3125,0.296875 0.34375,0 0.40625,-0.28125 0.5,-0.625 0.15625,-0.609375 0.546875,-2.203125 0.65625,-2.625 0.03125,-0.140625 0.609375,-1.453125 1.796875,-1.453125 0.46875,0 0.59375,0.375 0.59375,0.765625 0,0.609375 -0.46875,1.859375 -0.6875,2.4375 -0.09375,0.265625 -0.140625,0.375 -0.140625,0.59375 0,0.515625 0.390625,0.90625 0.890625,0.90625 1.03125,0 1.4375,-1.59375 1.4375,-1.6875 0,-0.109375 -0.09375,-0.109375 -0.125,-0.109375 -0.109375,0 -0.109375,0.03125 -0.171875,0.203125 C 8.796875,-0.890625 8.4375,-0.125 7.84375,-0.125 c -0.1875,0 -0.265625,-0.109375 -0.265625,-0.359375 0,-0.265625 0.09375,-0.53125 0.203125,-0.765625 0.203125,-0.578125 0.65625,-1.78125 0.65625,-2.40625 0,-0.703125 -0.4375,-1.171875 -1.25,-1.171875 -0.8125,0 -1.375,0.484375 -1.78125,1.0625 C 5.40625,-3.90625 5.359375,-4.28125 5.0625,-4.53125 4.78125,-4.765625 4.4375,-4.828125 4.171875,-4.828125 3.1875,-4.828125 2.65625,-4.125 2.46875,-3.875 c -0.0625,-0.625 -0.515625,-0.953125 -1,-0.953125 -0.515625,0 -0.71875,0.4375 -0.8125,0.625 -0.203125,0.390625 -0.34375,1.03125 -0.34375,1.0625 0,0.109375 0.109375,0.109375 0.140625,0.109375 0.109375,0 0.109375,-0.015625 0.171875,-0.25 0.1875,-0.78125 0.40625,-1.296875 0.796875,-1.296875 0.1875,0 0.34375,0.078125 0.34375,0.5 0,0.234375 -0.03125,0.34375 -0.171875,0.921875 z m 0,0"
               id="path7701" />
          </g>
        </g>
        <g
           clip-path="url(#clipPath852)"
           clip-rule="nonzero"
           id="g7713"
           style="fill:#0000ff">
          <g
             style="fill:#0000ff;fill-opacity:1"
             id="g7711">
            <g
               id="g7709"
               transform="translate(18.063,8.1820002)"
               style="fill:#0000ff">
              <path
                 style="fill:#0000ff;stroke:none"
                 d="m 1.734375,-8.171875 h -1.5 V -7.75 h 1.0625 V 2.296875 h -1.0625 V 2.71875 h 1.5 z m 0,0"
                 id="path7707" />
            </g>
          </g>
        </g>
      </g>
    </g>
    <g
       inkscape:label=""
       transform="matrix(0.56806002,0,0,0.56806002,38.964155,220.25224)"
       id="g7767"
       style="fill:#0000ff">
      <g
         id="g7765"
         transform="matrix(0.352778,0,0,0.352778,-0.341753,-0.00357193)"
         style="fill:#0000ff">
        <g
           clip-path="url(#clipPath9902)"
           clip-rule="nonzero"
           id="g7741"
           style="fill:#0000ff">
          <g
             style="fill:#0000ff;fill-opacity:1"
             id="g7739">
            <g
               id="g7721"
               transform="translate(0,8.1820002)"
               style="fill:#0000ff">
              <path
                 style="fill:#0000ff;stroke:none"
                 d="m 3.203125,-6.984375 c 0,-0.25 0,-0.28125 -0.25,-0.28125 C 2.28125,-6.5625 1.3125,-6.5625 0.96875,-6.5625 v 0.328125 c 0.21875,0 0.859375,0 1.4375,-0.28125 v 5.65625 c 0,0.390625 -0.046875,0.515625 -1.015625,0.515625 H 1.03125 V 0 c 0.390625,-0.03125 1.328125,-0.03125 1.765625,-0.03125 0.4375,0 1.390625,0 1.765625,0.03125 V -0.34375 H 4.21875 c -0.984375,0 -1.015625,-0.109375 -1.015625,-0.515625 z m 0,0"
                 id="path7719" />
            </g>
            <g
               id="g7725"
               transform="translate(5.4545498,8.1820002)"
               style="fill:#0000ff">
              <path
                 style="fill:#0000ff;stroke:none"
                 d="m 5.015625,-3.484375 c 0,-0.875 -0.046875,-1.75 -0.4375,-2.5625 -0.5,-1.046875 -1.390625,-1.21875 -1.859375,-1.21875 -0.640625,0 -1.4375,0.28125 -1.890625,1.296875 -0.34375,0.75 -0.40625,1.609375 -0.40625,2.484375 0,0.8125 0.046875,1.796875 0.5,2.625 0.46875,0.875 1.265625,1.09375 1.796875,1.09375 0.578125,0 1.421875,-0.21875 1.890625,-1.265625 0.359375,-0.75 0.40625,-1.59375 0.40625,-2.453125 z M 2.71875,0 C 2.296875,0 1.640625,-0.265625 1.453125,-1.3125 c -0.125,-0.65625 -0.125,-1.671875 -0.125,-2.3125 0,-0.6875 0,-1.40625 0.09375,-2 C 1.625,-6.921875 2.4375,-7.03125 2.71875,-7.03125 c 0.359375,0 1.078125,0.203125 1.28125,1.28125 0.109375,0.609375 0.109375,1.4375 0.109375,2.125 0,0.828125 0,1.5625 -0.125,2.265625 C 3.828125,-0.328125 3.203125,0 2.71875,0 Z m 0,0"
                 id="path7723" />
            </g>
            <g
               id="g7729"
               transform="translate(10.9091,8.1820002)"
               style="fill:#0000ff">
              <path
                 style="fill:#0000ff;stroke:none"
                 d="m 5.015625,-3.484375 c 0,-0.875 -0.046875,-1.75 -0.4375,-2.5625 -0.5,-1.046875 -1.390625,-1.21875 -1.859375,-1.21875 -0.640625,0 -1.4375,0.28125 -1.890625,1.296875 -0.34375,0.75 -0.40625,1.609375 -0.40625,2.484375 0,0.8125 0.046875,1.796875 0.5,2.625 0.46875,0.875 1.265625,1.09375 1.796875,1.09375 0.578125,0 1.421875,-0.21875 1.890625,-1.265625 0.359375,-0.75 0.40625,-1.59375 0.40625,-2.453125 z M 2.71875,0 C 2.296875,0 1.640625,-0.265625 1.453125,-1.3125 c -0.125,-0.65625 -0.125,-1.671875 -0.125,-2.3125 0,-0.6875 0,-1.40625 0.09375,-2 C 1.625,-6.921875 2.4375,-7.03125 2.71875,-7.03125 c 0.359375,0 1.078125,0.203125 1.28125,1.28125 0.109375,0.609375 0.109375,1.4375 0.109375,2.125 0,0.828125 0,1.5625 -0.125,2.265625 C 3.828125,-0.328125 3.203125,0 2.71875,0 Z m 0,0"
                 id="path7727" />
            </g>
            <g
               id="g7733"
               transform="translate(16.363649,8.1820002)"
               style="fill:#0000ff">
              <path
                 style="fill:#0000ff;stroke:none"
                 d="m 5.015625,-3.484375 c 0,-0.875 -0.046875,-1.75 -0.4375,-2.5625 -0.5,-1.046875 -1.390625,-1.21875 -1.859375,-1.21875 -0.640625,0 -1.4375,0.28125 -1.890625,1.296875 -0.34375,0.75 -0.40625,1.609375 -0.40625,2.484375 0,0.8125 0.046875,1.796875 0.5,2.625 0.46875,0.875 1.265625,1.09375 1.796875,1.09375 0.578125,0 1.421875,-0.21875 1.890625,-1.265625 0.359375,-0.75 0.40625,-1.59375 0.40625,-2.453125 z M 2.71875,0 C 2.296875,0 1.640625,-0.265625 1.453125,-1.3125 c -0.125,-0.65625 -0.125,-1.671875 -0.125,-2.3125 0,-0.6875 0,-1.40625 0.09375,-2 C 1.625,-6.921875 2.4375,-7.03125 2.71875,-7.03125 c 0.359375,0 1.078125,0.203125 1.28125,1.28125 0.109375,0.609375 0.109375,1.4375 0.109375,2.125 0,0.828125 0,1.5625 -0.125,2.265625 C 3.828125,-0.328125 3.203125,0 2.71875,0 Z m 0,0"
                 id="path7731" />
            </g>
            <g
               id="g7737"
               transform="translate(21.818199,8.1820002)"
               style="fill:#0000ff">
              <path
                 style="fill:#0000ff;stroke:none"
                 d="M 2.78125,2.71875 V 2.296875 H 1.71875 V -7.75 h 1.0625 v -0.421875 h -1.5 V 2.71875 Z m 0,0"
                 id="path7735" />
            </g>
          </g>
        </g>
        <g
           style="fill:#0000ff;fill-opacity:1"
           id="g7747">
          <g
             id="g7745"
             transform="translate(24.849001,8.1820002)"
             style="fill:#0000ff">
            <path
               style="fill:#0000ff;stroke:none"
               d="m 3.125,-7.453125 c 0,0 0,-0.109375 -0.140625,-0.109375 -0.25,0 -1.046875,0.078125 -1.328125,0.109375 -0.078125,0 -0.203125,0.015625 -0.203125,0.21875 0,0.125 0.09375,0.125 0.265625,0.125 0.515625,0 0.53125,0.078125 0.53125,0.1875 l -0.03125,0.21875 -1.578125,6.28125 C 0.59375,-0.265625 0.59375,-0.25 0.59375,-0.1875 c 0,0.25 0.21875,0.3125 0.328125,0.3125 C 1.0625,0.125 1.21875,0.015625 1.28125,-0.109375 1.34375,-0.203125 1.828125,-2.21875 1.890625,-2.5 c 0.375,0.03125 1.265625,0.203125 1.265625,0.921875 0,0.078125 0,0.125 -0.03125,0.234375 -0.015625,0.140625 -0.03125,0.265625 -0.03125,0.390625 0,0.640625 0.421875,1.078125 1,1.078125 0.328125,0 0.625,-0.171875 0.859375,-0.578125 C 5.21875,-0.9375 5.34375,-1.53125 5.34375,-1.5625 c 0,-0.109375 -0.09375,-0.109375 -0.125,-0.109375 -0.109375,0 -0.125,0.046875 -0.15625,0.203125 -0.21875,0.796875 -0.46875,1.34375 -0.953125,1.34375 -0.203125,0 -0.34375,-0.109375 -0.34375,-0.5 0,-0.1875 0.046875,-0.4375 0.078125,-0.625 0.046875,-0.171875 0.046875,-0.21875 0.046875,-0.328125 0,-0.71875 -0.6875,-1.03125 -1.609375,-1.140625 0.34375,-0.203125 0.6875,-0.546875 0.9375,-0.8125 0.515625,-0.578125 1.03125,-1.046875 1.5625,-1.046875 0.0625,0 0.078125,0 0.09375,0.015625 C 5,-4.546875 5.015625,-4.546875 5.109375,-4.484375 5.125,-4.46875 5.125,-4.453125 5.140625,-4.4375 4.625,-4.40625 4.53125,-3.984375 4.53125,-3.84375 c 0,0.171875 0.109375,0.375 0.40625,0.375 0.28125,0 0.609375,-0.234375 0.609375,-0.671875 0,-0.3125 -0.25,-0.6875 -0.75,-0.6875 -0.296875,0 -0.8125,0.09375 -1.59375,0.96875 C 2.828125,-3.453125 2.40625,-3.015625 2,-2.84375 Z m 0,0"
               id="path7743" />
          </g>
        </g>
        <g
           clip-path="url(#clipPath1047)"
           clip-rule="nonzero"
           id="g7755"
           style="fill:#0000ff">
          <g
             style="fill:#0000ff;fill-opacity:1"
             id="g7753">
            <g
               id="g7751"
               transform="translate(30.866461,8.1820002)"
               style="fill:#0000ff">
              <path
                 style="fill:#0000ff;stroke:none"
                 d="m 5.140625,-4.109375 c 0,-0.0625 0.03125,-0.125 0.03125,-0.203125 0,-0.1875 -0.140625,-0.296875 -0.3125,-0.296875 -0.109375,0 -0.40625,0.078125 -0.453125,0.46875 -0.203125,-0.390625 -0.578125,-0.6875 -1.015625,-0.6875 -1.234375,0 -2.59375,1.53125 -2.59375,3.109375 C 0.796875,-0.640625 1.46875,0 2.25,0 2.890625,0 3.40625,-0.515625 3.515625,-0.625 3.296875,0.34375 3.15625,0.796875 3.15625,0.8125 3.125,0.921875 2.75,2 1.59375,2 1.390625,2 1.03125,1.984375 0.71875,1.890625 1.046875,1.78125 1.171875,1.5 1.171875,1.3125 c 0,-0.171875 -0.125,-0.375 -0.421875,-0.375 -0.234375,0 -0.59375,0.203125 -0.59375,0.640625 0,0.4375 0.40625,0.65625 1.453125,0.65625 1.375,0 2.15625,-0.84375 2.3125,-1.5 z m -1.421875,2.71875 c -0.0625,0.28125 -0.3125,0.546875 -0.5625,0.765625 -0.21875,0.1875 -0.5625,0.390625 -0.875,0.390625 -0.546875,0 -0.703125,-0.578125 -0.703125,-1.015625 0,-0.515625 0.3125,-1.796875 0.609375,-2.359375 0.28125,-0.53125 0.75,-0.96875 1.21875,-0.96875 0.71875,0 0.875,0.875 0.875,0.9375 0,0.046875 -0.03125,0.125 -0.03125,0.15625 z m 0,0"
                 id="path7749" />
            </g>
          </g>
        </g>
        <g
           clip-path="url(#clipPath8779)"
           clip-rule="nonzero"
           id="g7763"
           style="fill:#0000ff">
          <g
             style="fill:#0000ff;fill-opacity:1"
             id="g7761">
            <g
               id="g7759"
               transform="translate(36.466,8.1820002)"
               style="fill:#0000ff">
              <path
                 style="fill:#0000ff;stroke:none"
                 d="m 1.734375,-8.171875 h -1.5 V -7.75 h 1.0625 V 2.296875 h -1.0625 V 2.71875 h 1.5 z m 0,0"
                 id="path7757" />
            </g>
          </g>
        </g>
      </g>
    </g>
    <g
       inkscape:label=""
       transform="matrix(0.56806002,0,0,0.56806002,30.647215,220.25224)"
       id="g9039"
       style="fill:#0000ff">
      <g
         id="g9037"
         transform="matrix(0.352778,0,0,0.352778,-0.192925,-0.00357193)"
         style="fill:#0000ff">
        <g
           clip-path="url(#clipPath1497)"
           clip-rule="nonzero"
           id="g9015"
           style="fill:#0000ff">
          <g
             style="fill:#0000ff;fill-opacity:1"
             id="g47">
            <g
               id="g9000"
               transform="translate(0,8.1820002)"
               style="fill:#0000ff">
              <path
                 style="fill:#0000ff;stroke:none"
                 d="m 4.890625,-2.1875 c 0,-1.296875 -0.890625,-2.390625 -2.0625,-2.390625 -0.53125,0 -1,0.171875 -1.390625,0.546875 v -2.125 c 0.21875,0.078125 0.578125,0.140625 0.921875,0.140625 1.34375,0 2.109375,-0.984375 2.109375,-1.125 0,-0.0625 -0.03125,-0.125 -0.109375,-0.125 0,0 -0.03125,0 -0.078125,0.03125 -0.21875,0.109375 -0.765625,0.3125 -1.484375,0.3125 -0.4375,0 -0.9375,-0.0625 -1.453125,-0.296875 C 1.25,-7.25 1.234375,-7.25 1.203125,-7.25 1.09375,-7.25 1.09375,-7.171875 1.09375,-6.984375 v 3.21875 c 0,0.203125 0,0.28125 0.15625,0.28125 0.078125,0 0.109375,-0.03125 0.140625,-0.09375 0.125,-0.171875 0.53125,-0.765625 1.40625,-0.765625 0.578125,0 0.84375,0.5 0.9375,0.703125 0.171875,0.40625 0.1875,0.828125 0.1875,1.375 0,0.375 0,1.03125 -0.25,1.484375 C 3.40625,-0.34375 3,-0.0625 2.5,-0.0625 c -0.796875,0 -1.421875,-0.578125 -1.609375,-1.21875 0.03125,0 0.0625,0.015625 0.1875,0.015625 0.359375,0 0.546875,-0.265625 0.546875,-0.53125 0,-0.265625 -0.1875,-0.53125 -0.546875,-0.53125 -0.15625,0 -0.53125,0.078125 -0.53125,0.578125 0,0.9375 0.75,1.984375 1.96875,1.984375 1.265625,0 2.375,-1.046875 2.375,-2.421875 z m 0,0"
                 id="path72" />
            </g>
            <g
               id="g9004"
               transform="translate(5.4545498,8.1820002)"
               style="fill:#0000ff">
              <path
                 style="fill:#0000ff;stroke:none"
                 d="m 5.015625,-3.484375 c 0,-0.875 -0.046875,-1.75 -0.4375,-2.5625 -0.5,-1.046875 -1.390625,-1.21875 -1.859375,-1.21875 -0.640625,0 -1.4375,0.28125 -1.890625,1.296875 -0.34375,0.75 -0.40625,1.609375 -0.40625,2.484375 0,0.8125 0.046875,1.796875 0.5,2.625 0.46875,0.875 1.265625,1.09375 1.796875,1.09375 0.578125,0 1.421875,-0.21875 1.890625,-1.265625 0.359375,-0.75 0.40625,-1.59375 0.40625,-2.453125 z M 2.71875,0 C 2.296875,0 1.640625,-0.265625 1.453125,-1.3125 c -0.125,-0.65625 -0.125,-1.671875 -0.125,-2.3125 0,-0.6875 0,-1.40625 0.09375,-2 C 1.625,-6.921875 2.4375,-7.03125 2.71875,-7.03125 c 0.359375,0 1.078125,0.203125 1.28125,1.28125 0.109375,0.609375 0.109375,1.4375 0.109375,2.125 0,0.828125 0,1.5625 -0.125,2.265625 C 3.828125,-0.328125 3.203125,0 2.71875,0 Z m 0,0"
                 id="path9002" />
            </g>
            <g
               id="g9008"
               transform="translate(10.9091,8.1820002)"
               style="fill:#0000ff">
              <path
                 style="fill:#0000ff;stroke:none"
                 d="m 5.015625,-3.484375 c 0,-0.875 -0.046875,-1.75 -0.4375,-2.5625 -0.5,-1.046875 -1.390625,-1.21875 -1.859375,-1.21875 -0.640625,0 -1.4375,0.28125 -1.890625,1.296875 -0.34375,0.75 -0.40625,1.609375 -0.40625,2.484375 0,0.8125 0.046875,1.796875 0.5,2.625 0.46875,0.875 1.265625,1.09375 1.796875,1.09375 0.578125,0 1.421875,-0.21875 1.890625,-1.265625 0.359375,-0.75 0.40625,-1.59375 0.40625,-2.453125 z M 2.71875,0 C 2.296875,0 1.640625,-0.265625 1.453125,-1.3125 c -0.125,-0.65625 -0.125,-1.671875 -0.125,-2.3125 0,-0.6875 0,-1.40625 0.09375,-2 C 1.625,-6.921875 2.4375,-7.03125 2.71875,-7.03125 c 0.359375,0 1.078125,0.203125 1.28125,1.28125 0.109375,0.609375 0.109375,1.4375 0.109375,2.125 0,0.828125 0,1.5625 -0.125,2.265625 C 3.828125,-0.328125 3.203125,0 2.71875,0 Z m 0,0"
                 id="path9006" />
            </g>
            <g
               id="g9012"
               transform="translate(16.363649,8.1820002)"
               style="fill:#0000ff">
              <path
                 style="fill:#0000ff;stroke:none"
                 d="M 2.78125,2.71875 V 2.296875 H 1.71875 V -7.75 h 1.0625 v -0.421875 h -1.5 V 2.71875 Z m 0,0"
                 id="path9010" />
            </g>
          </g>
        </g>
        <g
           style="fill:#0000ff;fill-opacity:1"
           id="g9020">
          <g
             id="use51"
             transform="translate(19.393999,8.1820002)"
             style="fill:#0000ff">
            <path
               style="fill:#0000ff;stroke:none"
               d="m 3.125,-7.453125 c 0,0 0,-0.109375 -0.140625,-0.109375 -0.25,0 -1.046875,0.078125 -1.328125,0.109375 -0.078125,0 -0.203125,0.015625 -0.203125,0.21875 0,0.125 0.09375,0.125 0.265625,0.125 0.515625,0 0.53125,0.078125 0.53125,0.1875 l -0.03125,0.21875 -1.578125,6.28125 C 0.59375,-0.265625 0.59375,-0.25 0.59375,-0.1875 c 0,0.25 0.21875,0.3125 0.328125,0.3125 C 1.0625,0.125 1.21875,0.015625 1.28125,-0.109375 1.34375,-0.203125 1.828125,-2.21875 1.890625,-2.5 c 0.375,0.03125 1.265625,0.203125 1.265625,0.921875 0,0.078125 0,0.125 -0.03125,0.234375 -0.015625,0.140625 -0.03125,0.265625 -0.03125,0.390625 0,0.640625 0.421875,1.078125 1,1.078125 0.328125,0 0.625,-0.171875 0.859375,-0.578125 C 5.21875,-0.9375 5.34375,-1.53125 5.34375,-1.5625 c 0,-0.109375 -0.09375,-0.109375 -0.125,-0.109375 -0.109375,0 -0.125,0.046875 -0.15625,0.203125 -0.21875,0.796875 -0.46875,1.34375 -0.953125,1.34375 -0.203125,0 -0.34375,-0.109375 -0.34375,-0.5 0,-0.1875 0.046875,-0.4375 0.078125,-0.625 0.046875,-0.171875 0.046875,-0.21875 0.046875,-0.328125 0,-0.71875 -0.6875,-1.03125 -1.609375,-1.140625 0.34375,-0.203125 0.6875,-0.546875 0.9375,-0.8125 0.515625,-0.578125 1.03125,-1.046875 1.5625,-1.046875 0.0625,0 0.078125,0 0.09375,0.015625 C 5,-4.546875 5.015625,-4.546875 5.109375,-4.484375 5.125,-4.46875 5.125,-4.453125 5.140625,-4.4375 4.625,-4.40625 4.53125,-3.984375 4.53125,-3.84375 c 0,0.171875 0.109375,0.375 0.40625,0.375 0.28125,0 0.609375,-0.234375 0.609375,-0.671875 0,-0.3125 -0.25,-0.6875 -0.75,-0.6875 -0.296875,0 -0.8125,0.09375 -1.59375,0.96875 C 2.828125,-3.453125 2.40625,-3.015625 2,-2.84375 Z m 0,0"
               id="path9017" />
          </g>
        </g>
        <g
           clip-path="url(#clipPath3207)"
           clip-rule="nonzero"
           id="g9028"
           style="fill:#0000ff">
          <g
             style="fill:#0000ff;fill-opacity:1"
             id="g9026">
            <g
               id="g9024"
               transform="translate(25.411461,8.1820002)"
               style="fill:#0000ff">
              <path
                 style="fill:#0000ff;stroke:none"
                 d="m 5.140625,-4.109375 c 0,-0.0625 0.03125,-0.125 0.03125,-0.203125 0,-0.1875 -0.140625,-0.296875 -0.3125,-0.296875 -0.109375,0 -0.40625,0.078125 -0.453125,0.46875 -0.203125,-0.390625 -0.578125,-0.6875 -1.015625,-0.6875 -1.234375,0 -2.59375,1.53125 -2.59375,3.109375 C 0.796875,-0.640625 1.46875,0 2.25,0 2.890625,0 3.40625,-0.515625 3.515625,-0.625 3.296875,0.34375 3.15625,0.796875 3.15625,0.8125 3.125,0.921875 2.75,2 1.59375,2 1.390625,2 1.03125,1.984375 0.71875,1.890625 1.046875,1.78125 1.171875,1.5 1.171875,1.3125 c 0,-0.171875 -0.125,-0.375 -0.421875,-0.375 -0.234375,0 -0.59375,0.203125 -0.59375,0.640625 0,0.4375 0.40625,0.65625 1.453125,0.65625 1.375,0 2.15625,-0.84375 2.3125,-1.5 z m -1.421875,2.71875 c -0.0625,0.28125 -0.3125,0.546875 -0.5625,0.765625 -0.21875,0.1875 -0.5625,0.390625 -0.875,0.390625 -0.546875,0 -0.703125,-0.578125 -0.703125,-1.015625 0,-0.515625 0.3125,-1.796875 0.609375,-2.359375 0.28125,-0.53125 0.75,-0.96875 1.21875,-0.96875 0.71875,0 0.875,0.875 0.875,0.9375 0,0.046875 -0.03125,0.125 -0.03125,0.15625 z m 0,0"
                 id="path9022" />
            </g>
          </g>
        </g>
        <g
           clip-path="url(#clipPath1709)"
           clip-rule="nonzero"
           id="g9035"
           style="fill:#0000ff">
          <g
             style="fill:#0000ff;fill-opacity:1"
             id="g9033">
            <g
               id="use61"
               transform="translate(31.011,8.1820002)"
               style="fill:#0000ff">
              <path
                 style="fill:#0000ff;stroke:none"
                 d="m 1.734375,-8.171875 h -1.5 V -7.75 h 1.0625 V 2.296875 h -1.0625 V 2.71875 h 1.5 z m 0,0"
                 id="path9030" />
            </g>
          </g>
        </g>
      </g>
    </g>
    <g
       inkscape:label=""
       transform="matrix(0.56806002,0,0,0.56806002,39.048745,209.52366)"
       id="g9131"
       style="fill:#0000ff">
      <g
         id="g9129"
         transform="matrix(0.352778,0,0,0.352778,-0.192925,-0.00357193)"
         style="fill:#0000ff">
        <g
           clip-path="url(#clipPath8949)"
           clip-rule="nonzero"
           id="g9093"
           style="fill:#0000ff">
          <g
             style="fill:#0000ff;fill-opacity:1"
             id="g9091">
            <g
               id="g9077"
               transform="translate(0,8.1820002)"
               style="fill:#0000ff">
              <path
                 style="fill:#0000ff;stroke:none"
                 d="m 4.890625,-2.1875 c 0,-1.296875 -0.890625,-2.390625 -2.0625,-2.390625 -0.53125,0 -1,0.171875 -1.390625,0.546875 v -2.125 c 0.21875,0.078125 0.578125,0.140625 0.921875,0.140625 1.34375,0 2.109375,-0.984375 2.109375,-1.125 0,-0.0625 -0.03125,-0.125 -0.109375,-0.125 0,0 -0.03125,0 -0.078125,0.03125 -0.21875,0.109375 -0.765625,0.3125 -1.484375,0.3125 -0.4375,0 -0.9375,-0.0625 -1.453125,-0.296875 C 1.25,-7.25 1.234375,-7.25 1.203125,-7.25 1.09375,-7.25 1.09375,-7.171875 1.09375,-6.984375 v 3.21875 c 0,0.203125 0,0.28125 0.15625,0.28125 0.078125,0 0.109375,-0.03125 0.140625,-0.09375 0.125,-0.171875 0.53125,-0.765625 1.40625,-0.765625 0.578125,0 0.84375,0.5 0.9375,0.703125 0.171875,0.40625 0.1875,0.828125 0.1875,1.375 0,0.375 0,1.03125 -0.25,1.484375 C 3.40625,-0.34375 3,-0.0625 2.5,-0.0625 c -0.796875,0 -1.421875,-0.578125 -1.609375,-1.21875 0.03125,0 0.0625,0.015625 0.1875,0.015625 0.359375,0 0.546875,-0.265625 0.546875,-0.53125 0,-0.265625 -0.1875,-0.53125 -0.546875,-0.53125 -0.15625,0 -0.53125,0.078125 -0.53125,0.578125 0,0.9375 0.75,1.984375 1.96875,1.984375 1.265625,0 2.375,-1.046875 2.375,-2.421875 z m 0,0"
                 id="path9075" />
            </g>
            <g
               id="g9081"
               transform="translate(5.4545498,8.1820002)"
               style="fill:#0000ff">
              <path
                 style="fill:#0000ff;stroke:none"
                 d="m 5.015625,-3.484375 c 0,-0.875 -0.046875,-1.75 -0.4375,-2.5625 -0.5,-1.046875 -1.390625,-1.21875 -1.859375,-1.21875 -0.640625,0 -1.4375,0.28125 -1.890625,1.296875 -0.34375,0.75 -0.40625,1.609375 -0.40625,2.484375 0,0.8125 0.046875,1.796875 0.5,2.625 0.46875,0.875 1.265625,1.09375 1.796875,1.09375 0.578125,0 1.421875,-0.21875 1.890625,-1.265625 0.359375,-0.75 0.40625,-1.59375 0.40625,-2.453125 z M 2.71875,0 C 2.296875,0 1.640625,-0.265625 1.453125,-1.3125 c -0.125,-0.65625 -0.125,-1.671875 -0.125,-2.3125 0,-0.6875 0,-1.40625 0.09375,-2 C 1.625,-6.921875 2.4375,-7.03125 2.71875,-7.03125 c 0.359375,0 1.078125,0.203125 1.28125,1.28125 0.109375,0.609375 0.109375,1.4375 0.109375,2.125 0,0.828125 0,1.5625 -0.125,2.265625 C 3.828125,-0.328125 3.203125,0 2.71875,0 Z m 0,0"
                 id="path9079" />
            </g>
            <g
               id="g9085"
               transform="translate(10.9091,8.1820002)"
               style="fill:#0000ff">
              <path
                 style="fill:#0000ff;stroke:none"
                 d="m 5.015625,-3.484375 c 0,-0.875 -0.046875,-1.75 -0.4375,-2.5625 -0.5,-1.046875 -1.390625,-1.21875 -1.859375,-1.21875 -0.640625,0 -1.4375,0.28125 -1.890625,1.296875 -0.34375,0.75 -0.40625,1.609375 -0.40625,2.484375 0,0.8125 0.046875,1.796875 0.5,2.625 0.46875,0.875 1.265625,1.09375 1.796875,1.09375 0.578125,0 1.421875,-0.21875 1.890625,-1.265625 0.359375,-0.75 0.40625,-1.59375 0.40625,-2.453125 z M 2.71875,0 C 2.296875,0 1.640625,-0.265625 1.453125,-1.3125 c -0.125,-0.65625 -0.125,-1.671875 -0.125,-2.3125 0,-0.6875 0,-1.40625 0.09375,-2 C 1.625,-6.921875 2.4375,-7.03125 2.71875,-7.03125 c 0.359375,0 1.078125,0.203125 1.28125,1.28125 0.109375,0.609375 0.109375,1.4375 0.109375,2.125 0,0.828125 0,1.5625 -0.125,2.265625 C 3.828125,-0.328125 3.203125,0 2.71875,0 Z m 0,0"
                 id="path9083" />
            </g>
            <g
               id="g9089"
               transform="translate(16.363649,8.1820002)"
               style="fill:#0000ff">
              <path
                 style="fill:#0000ff;stroke:none"
                 d="M 2.78125,2.71875 V 2.296875 H 1.71875 V -7.75 h 1.0625 v -0.421875 h -1.5 V 2.71875 Z m 0,0"
                 id="path9087" />
            </g>
          </g>
        </g>
        <g
           style="fill:#0000ff;fill-opacity:1"
           id="g9099">
          <g
             id="g9097"
             transform="translate(19.393999,8.1820002)"
             style="fill:#0000ff">
            <path
               style="fill:#0000ff;stroke:none"
               d="m 3.125,-7.453125 c 0,0 0,-0.109375 -0.140625,-0.109375 -0.25,0 -1.046875,0.078125 -1.328125,0.109375 -0.078125,0 -0.203125,0.015625 -0.203125,0.21875 0,0.125 0.09375,0.125 0.265625,0.125 0.515625,0 0.53125,0.078125 0.53125,0.1875 l -0.03125,0.21875 -1.578125,6.28125 C 0.59375,-0.265625 0.59375,-0.25 0.59375,-0.1875 c 0,0.25 0.21875,0.3125 0.328125,0.3125 C 1.0625,0.125 1.21875,0.015625 1.28125,-0.109375 1.34375,-0.203125 1.828125,-2.21875 1.890625,-2.5 c 0.375,0.03125 1.265625,0.203125 1.265625,0.921875 0,0.078125 0,0.125 -0.03125,0.234375 -0.015625,0.140625 -0.03125,0.265625 -0.03125,0.390625 0,0.640625 0.421875,1.078125 1,1.078125 0.328125,0 0.625,-0.171875 0.859375,-0.578125 C 5.21875,-0.9375 5.34375,-1.53125 5.34375,-1.5625 c 0,-0.109375 -0.09375,-0.109375 -0.125,-0.109375 -0.109375,0 -0.125,0.046875 -0.15625,0.203125 -0.21875,0.796875 -0.46875,1.34375 -0.953125,1.34375 -0.203125,0 -0.34375,-0.109375 -0.34375,-0.5 0,-0.1875 0.046875,-0.4375 0.078125,-0.625 0.046875,-0.171875 0.046875,-0.21875 0.046875,-0.328125 0,-0.71875 -0.6875,-1.03125 -1.609375,-1.140625 0.34375,-0.203125 0.6875,-0.546875 0.9375,-0.8125 0.515625,-0.578125 1.03125,-1.046875 1.5625,-1.046875 0.0625,0 0.078125,0 0.09375,0.015625 C 5,-4.546875 5.015625,-4.546875 5.109375,-4.484375 5.125,-4.46875 5.125,-4.453125 5.140625,-4.4375 4.625,-4.40625 4.53125,-3.984375 4.53125,-3.84375 c 0,0.171875 0.109375,0.375 0.40625,0.375 0.28125,0 0.609375,-0.234375 0.609375,-0.671875 0,-0.3125 -0.25,-0.6875 -0.75,-0.6875 -0.296875,0 -0.8125,0.09375 -1.59375,0.96875 C 2.828125,-3.453125 2.40625,-3.015625 2,-2.84375 Z m 0,0"
               id="path9095" />
          </g>
        </g>
        <g
           clip-path="url(#clipPath5441)"
           clip-rule="nonzero"
           id="g9107"
           style="fill:#0000ff">
          <g
             style="fill:#0000ff;fill-opacity:1"
             id="g9105">
            <g
               id="g9103"
               transform="translate(25.411461,8.1820002)"
               style="fill:#0000ff">
              <path
                 style="fill:#0000ff;stroke:none"
                 d="m 5.140625,-4.109375 c 0,-0.0625 0.03125,-0.125 0.03125,-0.203125 0,-0.1875 -0.140625,-0.296875 -0.3125,-0.296875 -0.109375,0 -0.40625,0.078125 -0.453125,0.46875 -0.203125,-0.390625 -0.578125,-0.6875 -1.015625,-0.6875 -1.234375,0 -2.59375,1.53125 -2.59375,3.109375 C 0.796875,-0.640625 1.46875,0 2.25,0 2.890625,0 3.40625,-0.515625 3.515625,-0.625 3.296875,0.34375 3.15625,0.796875 3.15625,0.8125 3.125,0.921875 2.75,2 1.59375,2 1.390625,2 1.03125,1.984375 0.71875,1.890625 1.046875,1.78125 1.171875,1.5 1.171875,1.3125 c 0,-0.171875 -0.125,-0.375 -0.421875,-0.375 -0.234375,0 -0.59375,0.203125 -0.59375,0.640625 0,0.4375 0.40625,0.65625 1.453125,0.65625 1.375,0 2.15625,-0.84375 2.3125,-1.5 z m -1.421875,2.71875 c -0.0625,0.28125 -0.3125,0.546875 -0.5625,0.765625 -0.21875,0.1875 -0.5625,0.390625 -0.875,0.390625 -0.546875,0 -0.703125,-0.578125 -0.703125,-1.015625 0,-0.515625 0.3125,-1.796875 0.609375,-2.359375 0.28125,-0.53125 0.75,-0.96875 1.21875,-0.96875 0.71875,0 0.875,0.875 0.875,0.9375 0,0.046875 -0.03125,0.125 -0.03125,0.15625 z m 0,0"
                 id="path9101" />
            </g>
          </g>
        </g>
        <g
           clip-path="url(#clipPath464)"
           clip-rule="nonzero"
           id="g9119"
           style="fill:#0000ff">
          <g
             style="fill:#0000ff;fill-opacity:1"
             id="g9117">
            <g
               id="g9111"
               transform="translate(31.007828,8.1820002)"
               style="fill:#0000ff">
              <path
                 style="fill:#0000ff;stroke:none"
                 d="m 4.78125,-7.765625 c 0.0625,-0.140625 0.0625,-0.1875 0.0625,-0.203125 0,-0.109375 -0.09375,-0.203125 -0.21875,-0.203125 -0.078125,0 -0.15625,0.03125 -0.1875,0.09375 L 0.65625,2.3125 C 0.59375,2.453125 0.59375,2.5 0.59375,2.515625 c 0,0.109375 0.109375,0.203125 0.21875,0.203125 0.140625,0 0.1875,-0.0625 0.25,-0.25 z m 0,0"
                 id="path9109" />
            </g>
            <g
               id="g9115"
               transform="translate(36.462379,8.1820002)"
               style="fill:#0000ff">
              <path
                 style="fill:#0000ff;stroke:none"
                 d="m 0.953125,-0.640625 c -0.03125,0.15625 -0.09375,0.40625 -0.09375,0.46875 0,0.1875 0.15625,0.296875 0.3125,0.296875 C 1.3125,0.125 1.5,0.03125 1.578125,-0.1875 1.59375,-0.203125 1.71875,-0.71875 1.78125,-1 l 0.25,-0.96875 c 0.0625,-0.25 0.125,-0.484375 0.1875,-0.734375 0.03125,-0.1875 0.125,-0.5 0.140625,-0.546875 0.15625,-0.34375 0.734375,-1.328125 1.78125,-1.328125 0.484375,0 0.578125,0.40625 0.578125,0.765625 0,0.265625 -0.078125,0.578125 -0.15625,0.90625 L 4.25,-1.640625 4.03125,-0.8125 c -0.046875,0.21875 -0.140625,0.578125 -0.140625,0.640625 0,0.1875 0.15625,0.296875 0.3125,0.296875 0.34375,0 0.40625,-0.28125 0.5,-0.625 0.15625,-0.609375 0.546875,-2.203125 0.65625,-2.625 0.03125,-0.140625 0.609375,-1.453125 1.796875,-1.453125 0.46875,0 0.59375,0.375 0.59375,0.765625 0,0.609375 -0.46875,1.859375 -0.6875,2.4375 -0.09375,0.265625 -0.140625,0.375 -0.140625,0.59375 0,0.515625 0.390625,0.90625 0.890625,0.90625 1.03125,0 1.4375,-1.59375 1.4375,-1.6875 0,-0.109375 -0.09375,-0.109375 -0.125,-0.109375 -0.109375,0 -0.109375,0.03125 -0.171875,0.203125 C 8.796875,-0.890625 8.4375,-0.125 7.84375,-0.125 c -0.1875,0 -0.265625,-0.109375 -0.265625,-0.359375 0,-0.265625 0.09375,-0.53125 0.203125,-0.765625 0.203125,-0.578125 0.65625,-1.78125 0.65625,-2.40625 0,-0.703125 -0.4375,-1.171875 -1.25,-1.171875 -0.8125,0 -1.375,0.484375 -1.78125,1.0625 C 5.40625,-3.90625 5.359375,-4.28125 5.0625,-4.53125 4.78125,-4.765625 4.4375,-4.828125 4.171875,-4.828125 3.1875,-4.828125 2.65625,-4.125 2.46875,-3.875 c -0.0625,-0.625 -0.515625,-0.953125 -1,-0.953125 -0.515625,0 -0.71875,0.4375 -0.8125,0.625 -0.203125,0.390625 -0.34375,1.03125 -0.34375,1.0625 0,0.109375 0.109375,0.109375 0.140625,0.109375 0.109375,0 0.109375,-0.015625 0.171875,-0.25 0.1875,-0.78125 0.40625,-1.296875 0.796875,-1.296875 0.1875,0 0.34375,0.078125 0.34375,0.5 0,0.234375 -0.03125,0.34375 -0.171875,0.921875 z m 0,0"
                 id="path9113" />
            </g>
          </g>
        </g>
        <g
           clip-path="url(#clipPath8841)"
           clip-rule="nonzero"
           id="g9127"
           style="fill:#0000ff">
          <g
             style="fill:#0000ff;fill-opacity:1"
             id="g9125">
            <g
               id="g9123"
               transform="translate(46.043999,8.1820002)"
               style="fill:#0000ff">
              <path
                 style="fill:#0000ff;stroke:none"
                 d="m 1.734375,-8.171875 h -1.5 V -7.75 h 1.0625 V 2.296875 h -1.0625 V 2.71875 h 1.5 z m 0,0"
                 id="path9121" />
            </g>
          </g>
        </g>
      </g>
    </g>
    <path
       style="fill:none;stroke:#000000;stroke-width:0.396875;stroke-linejoin:round;stroke-dasharray:none;paint-order:stroke markers fill"
       d="m 4.2333448,232.83328 v -4.23334"
       id="path38697-1-9-8" />
    <path
       style="fill:none;stroke:#000000;stroke-width:0.396875;stroke-linejoin:round;stroke-dasharray:none;paint-order:stroke markers fill"
       d="M 4.2333548,230.71661 H 13.758345"
       id="path44948-2-7-8"
       sodipodi:nodetypes="cc" />
    <path
       style="fill:none;stroke:#000000;stroke-width:0.396875;stroke-linejoin:round;stroke-dasharray:none;paint-order:stroke markers fill"
       d="m 38.100005,228.59993 v 4.23334"
       id="path38703-1-6-6" />
    <path
       style="fill:none;stroke:#000000;stroke-width:0.396875;stroke-linejoin:round;stroke-dasharray:none;paint-order:stroke markers fill"
       d="m 37.041675,230.7166 h 1.05833"
       id="path44954-7-0-0"
       sodipodi:nodetypes="cc" />
    <path
       style="fill:none;stroke:#008000;stroke-width:0.396875;stroke-linejoin:round;stroke-dasharray:none;marker-end:url(#Arrow2-4-3-6);paint-order:stroke markers fill"
       d="m 29.633345,218.01662 2.11666,-1e-5"
       id="path229677-9"
       sodipodi:nodetypes="cc" />
    <path
       style="fill:none;stroke:#008000;stroke-width:0.396875;stroke-linejoin:round;stroke-dasharray:none;marker-end:url(#Arrow2-4-0-4-7);paint-order:stroke markers fill"
       d="m 38.100005,204.25828 v 11.64166"
       id="path232077-9"
       sodipodi:nodetypes="cc" />
    <path
       style="fill:none;stroke:#000000;stroke-width:0.396875;stroke-linejoin:round;stroke-dasharray:none;paint-order:stroke markers fill"
       d="m 20.108345,230.71661 10.58333,1e-5"
       id="path44952-4-4-4"
       sodipodi:nodetypes="cc" />
    <path
       style="fill:none;stroke:#000000;stroke-width:0.396875;stroke-linejoin:round;stroke-dasharray:none;paint-order:stroke markers fill"
       d="m 29.633345,228.59993 v 4.23334"
       id="path237295-6" />
    <path
       style="fill:none;stroke:#000000;stroke-width:0.132292;stroke-linejoin:round;stroke-dasharray:0.264583, 0.132292;stroke-dashoffset:0;paint-order:stroke markers fill"
       d="m 29.633345,228.59995 v -9.52501"
       id="path239764-7"
       sodipodi:nodetypes="cc" />
    <path
       style="fill:none;stroke:#000000;stroke-width:0.264583;stroke-linejoin:round;stroke-dasharray:none;paint-order:stroke markers fill"
       d="m 4.2333455,214.84161 -1.05833,-1.05833"
       id="path334973"
       sodipodi:nodetypes="cc" />
    <path
       style="fill:none;stroke:#000000;stroke-width:0.264583;stroke-linejoin:round;stroke-dasharray:none;paint-order:stroke markers fill"
       d="m 3.1750155,222.24994 -1.05834,-1.05834"
       id="path334977"
       sodipodi:nodetypes="cc" />
    <path
       style="fill:none;stroke:#000000;stroke-width:0.264583;stroke-linejoin:round;stroke-dasharray:none;paint-order:stroke markers fill"
       d="m 4.2333455,222.24993 c -2.11667,-2.11666 -2.11667,-2.11666 -2.11667,-2.11666"
       id="path334979" />
    <path
       style="fill:none;stroke:#000000;stroke-width:0.264583;stroke-linejoin:round;stroke-dasharray:none;paint-order:stroke markers fill"
       d="m 4.2333455,221.1916 c -2.11667,-2.11667 -2.11667,-2.11667 -2.11667,-2.11667"
       id="path334981" />
    <path
       style="fill:none;stroke:#000000;stroke-width:0.264583;stroke-linejoin:round;stroke-dasharray:none;paint-order:stroke markers fill"
       d="m 4.2333455,220.13327 c -2.11667,-2.11667 -2.11667,-2.11667 -2.11667,-2.11667"
       id="path334983" />
    <path
       style="fill:none;stroke:#000000;stroke-width:0.264583;stroke-linejoin:round;stroke-dasharray:none;paint-order:stroke markers fill"
       d="m 4.2333455,219.07493 c -2.11667,-2.11666 -2.11667,-2.11666 -2.11667,-2.11666"
       id="path334985" />
    <path
       style="fill:none;stroke:#000000;stroke-width:0.264583;stroke-linejoin:round;stroke-dasharray:none;paint-order:stroke markers fill"
       d="m 4.2333455,218.0166 c -2.11667,-2.11667 -2.11667,-2.11667 -2.11667,-2.11667"
       id="path334987" />
    <path
       style="fill:none;stroke:#000000;stroke-width:0.264583;stroke-linejoin:round;stroke-dasharray:none;paint-order:stroke markers fill"
       d="m 4.2333455,216.95826 c -2.11667,-2.11666 -2.11667,-2.11666 -2.11667,-2.11666"
       id="path334989" />
    <path
       style="fill:none;stroke:#000000;stroke-width:0.264583;stroke-linejoin:round;stroke-dasharray:none;paint-order:stroke markers fill"
       d="m 4.2333455,215.89994 c -2.11667,-2.11666 -2.11667,-2.11666 -2.11667,-2.11666"
       id="path334991" />
    <path
       style="fill:none;stroke:#000000;stroke-width:0.132292;stroke-linejoin:round;stroke-dasharray:0.264583, 0.132292;stroke-dashoffset:0;paint-order:stroke markers fill"
       d="m 38.100005,228.59995 v -9.52501"
       id="path340985"
       sodipodi:nodetypes="cc" />
    <path
       style="fill:none;stroke:#000000;stroke-width:0.132292;stroke-linejoin:round;stroke-dasharray:0.264583, 0.132292;stroke-dashoffset:0;paint-order:stroke markers fill"
       d="m 4.2333448,228.59995 v -6.35002"
       id="path340987"
       sodipodi:nodetypes="cc" />
    <path
       style="fill:none;stroke:#008000;stroke-width:0.396875;stroke-linejoin:round;stroke-dasharray:none;marker-end:url(#Arrow2-4-3-6);paint-order:stroke markers fill"
       d="m 38.100005,218.01662 4.23334,-1e-5"
       id="path347011"
       sodipodi:nodetypes="cc" />
    <path
       style="fill:none;stroke:#008000;stroke-width:0.396875;stroke-linejoin:round;stroke-dasharray:none;marker-end:url(#Arrow2-4-0-4-7);paint-order:stroke markers fill"
       d="m 35.983345,204.25828 v 11.64166"
       id="path364923"
       sodipodi:nodetypes="cc" />
    <path
       style="fill:none;stroke:#008000;stroke-width:0.396875;stroke-linejoin:round;stroke-dasharray:none;marker-end:url(#Arrow2-4-0-4-7);paint-order:stroke markers fill"
       d="m 33.866675,204.25828 v 11.64166"
       id="path364925"
       sodipodi:nodetypes="cc" />
    <path
       style="fill:none;stroke:#008000;stroke-width:0.396875;stroke-linejoin:round;stroke-dasharray:none;marker-end:url(#Arrow2-4-0-4-7);paint-order:stroke markers fill"
       d="m 31.750005,204.25828 v 11.64166"
       id="path364927"
       sodipodi:nodetypes="cc" />
    <path
       style="fill:none;stroke:#008000;stroke-width:0.396875;stroke-linejoin:round;stroke-dasharray:none;marker-end:url(#Arrow2-4-0-4-7);paint-order:stroke markers fill"
       d="m 29.633345,204.25828 v 11.64166"
       id="path364929"
       sodipodi:nodetypes="cc" />
    <path
       style="fill:none;stroke:#000000;stroke-width:0.132292;stroke-linejoin:round;stroke-dasharray:0.264583, 0.132292;stroke-dashoffset:0;paint-order:stroke markers fill"
       d="m 4.2333448,216.95828 25.4000002,-12.7"
       id="path340987-7"
       sodipodi:nodetypes="cc" />
    <path
       style="fill:none;stroke:#008000;stroke-width:0.396875;stroke-linejoin:round;stroke-dasharray:none;marker-end:url(#Arrow2-4-0-4-7);paint-order:stroke markers fill"
       d="m 27.516675,205.31661 v 10.57672"
       id="path367913"
       sodipodi:nodetypes="cc" />
    <path
       style="fill:none;stroke:#008000;stroke-width:0.396875;stroke-linejoin:round;stroke-dasharray:none;marker-end:url(#Arrow2-4-0-4-7);paint-order:stroke markers fill"
       d="m 25.400005,206.37494 v 9.51839"
       id="path367915"
       sodipodi:nodetypes="cc" />
    <path
       style="fill:none;stroke:#008000;stroke-width:0.396875;stroke-linejoin:round;stroke-dasharray:none;marker-end:url(#Arrow2-4-0-4-7);paint-order:stroke markers fill"
       d="m 23.283345,207.43328 v 8.46005"
       id="path367917"
       sodipodi:nodetypes="cc" />
    <path
       style="fill:none;stroke:#008000;stroke-width:0.396875;stroke-linejoin:round;stroke-dasharray:none;marker-end:url(#Arrow2-4-0-4-7);paint-order:stroke markers fill"
       d="m 21.166675,208.49161 v 7.40172"
       id="path367919"
       sodipodi:nodetypes="cc" />
    <path
       style="fill:none;stroke:#008000;stroke-width:0.396875;stroke-linejoin:round;stroke-dasharray:none;marker-end:url(#Arrow2-4-0-4-7);paint-order:stroke markers fill"
       d="m 19.050005,209.54994 v 6.34339"
       id="path367921"
       sodipodi:nodetypes="cc" />
    <path
       style="fill:none;stroke:#008000;stroke-width:0.396875;stroke-linejoin:round;stroke-dasharray:none;marker-end:url(#Arrow2-4-0-4-7);paint-order:stroke markers fill"
       d="m 16.933345,210.60828 v 5.28505"
       id="path367923"
       sodipodi:nodetypes="cc" />
    <path
       style="fill:none;stroke:#008000;stroke-width:0.396875;stroke-linejoin:round;stroke-dasharray:none;marker-end:url(#Arrow2-4-0-4-7);paint-order:stroke markers fill"
       d="m 14.816675,211.66661 v 4.22672"
       id="path367925"
       sodipodi:nodetypes="cc" />
    <path
       style="fill:none;stroke:#008000;stroke-width:0.396875;stroke-linejoin:round;stroke-dasharray:none;marker-end:url(#Arrow2-4-0-4-7);paint-order:stroke markers fill"
       d="m 12.700005,212.72494 v 3.16839"
       id="path367927"
       sodipodi:nodetypes="cc" />
    <path
       style="fill:none;stroke:#008000;stroke-width:0.396875;stroke-linejoin:round;stroke-dasharray:none;marker-end:url(#Arrow2-4-0-4-7);paint-order:stroke markers fill"
       d="m 10.583345,213.78328 v 2.11005"
       id="path367929"
       sodipodi:nodetypes="cc" />
    <path
       style="fill:none;stroke:#008000;stroke-width:0.396875;stroke-linejoin:round;stroke-dasharray:none;marker-end:url(#Arrow2-4-0-4-7);paint-order:stroke markers fill"
       d="m 8.4666748,214.84161 v 1.05172"
       id="path367931"
       sodipodi:nodetypes="cc" />
    <path
       style="fill:none;stroke:#008000;stroke-width:0.396875;stroke-linejoin:round;stroke-dasharray:none;marker-end:url(#Arrow2-4-0-4-7);paint-order:stroke markers fill"
       d="m 6.3500048,215.87243 v 0.0209"
       id="path367933"
       sodipodi:nodetypes="cc" />
    <path
       style="fill:none;stroke:#000000;stroke-width:0.132292;stroke-linejoin:round;stroke-dasharray:0.264583, 0.132292;stroke-dashoffset:0;paint-order:stroke markers fill"
       d="m 29.633345,204.25828 h 8.46666"
       id="path163570-8-3"
       sodipodi:nodetypes="cc" />
    <path
       style="fill:none;stroke:#000000;stroke-width:0.264583;stroke-linejoin:round;paint-order:stroke markers fill"
       d="m 4.2333332,213.78329 v 8.46667"
       id="path5089-2" />
  </g>
</svg>
