<?xml version="1.0" encoding="UTF-8" standalone="no"?>
<svg
   xmlns:dc="http://purl.org/dc/elements/1.1/"
   xmlns:cc="http://creativecommons.org/ns#"
   xmlns:rdf="http://www.w3.org/1999/02/22-rdf-syntax-ns#"
   xmlns:svg="http://www.w3.org/2000/svg"
   xmlns="http://www.w3.org/2000/svg"
   xmlns:xlink="http://www.w3.org/1999/xlink"
   xmlns:sodipodi="http://sodipodi.sourceforge.net/DTD/sodipodi-0.dtd"
   xmlns:inkscape="http://www.inkscape.org/namespaces/inkscape"
   width="135.91304mm"
   height="125.14791mm"
   viewBox="0 0 135.91304 125.14791"
   version="1.1"
   id="svg39159"
   inkscape:version="1.0.2 (e86c870879, 2021-01-15)"
   sodipodi:docname="f6.svg">
  <defs
     id="defs39153">
    <marker
       style="overflow:visible"
       id="Arrow1Lend"
       refX="0"
       refY="0"
       orient="auto"
       inkscape:stockid="Arrow1Lend"
       inkscape:isstock="true"
       inkscape:collect="always">
      <path
         transform="matrix(-0.8,0,0,-0.8,-10,0)"
         style="fill:#000000;fill-opacity:1;fill-rule:evenodd;stroke:#000000;stroke-width:1pt;stroke-opacity:1"
         d="M 0,0 5,-5 -12.5,0 5,5 Z"
         id="path996" />
    </marker>
    <marker
       style="overflow:visible"
       id="marker2007"
       refX="0"
       refY="0"
       orient="auto"
       inkscape:stockid="Arrow1Lend"
       inkscape:isstock="true"
       inkscape:collect="always">
      <path
         transform="matrix(-0.8,0,0,-0.8,-10,0)"
         style="fill:#000000;fill-opacity:1;fill-rule:evenodd;stroke:#000000;stroke-width:1pt;stroke-opacity:1"
         d="M 0,0 5,-5 -12.5,0 5,5 Z"
         id="path2005" />
    </marker>
    <marker
       style="overflow:visible"
       id="marker2061"
       refX="0"
       refY="0"
       orient="auto"
       inkscape:stockid="Arrow1Lend"
       inkscape:isstock="true"
       inkscape:collect="always">
      <path
         transform="matrix(-0.8,0,0,-0.8,-10,0)"
         style="fill:#000000;fill-opacity:1;fill-rule:evenodd;stroke:#000000;stroke-width:1pt;stroke-opacity:1"
         d="M 0,0 5,-5 -12.5,0 5,5 Z"
         id="path2059" />
    </marker>
    <marker
       style="overflow:visible"
       id="marker3495"
       refX="0"
       refY="0"
       orient="auto"
       inkscape:stockid="Arrow1Lstart"
       inkscape:isstock="true"
       inkscape:collect="always">
      <path
         transform="matrix(0.8,0,0,0.8,10,0)"
         style="fill:#000000;fill-opacity:1;fill-rule:evenodd;stroke:#000000;stroke-width:1pt;stroke-opacity:1"
         d="M 0,0 5,-5 -12.5,0 5,5 Z"
         id="path3493" />
    </marker>
    <marker
       style="overflow:visible"
       id="marker3589"
       refX="0"
       refY="0"
       orient="auto"
       inkscape:stockid="Arrow1Lend"
       inkscape:isstock="true"
       inkscape:collect="always">
      <path
         transform="matrix(-0.8,0,0,-0.8,-10,0)"
         style="fill:#000000;fill-opacity:1;fill-rule:evenodd;stroke:#000000;stroke-width:1pt;stroke-opacity:1"
         d="M 0,0 5,-5 -12.5,0 5,5 Z"
         id="path3587" />
    </marker>
    <g
       id="g4576">
      <symbol
         overflow="visible"
         id="symbol5217">
        <path
           style="stroke:none;"
           d=""
           id="path9031" />
      </symbol>
      <symbol
         overflow="visible"
         id="symbol1453">
        <path
           style="stroke:none;"
           d="M 3.734375 -6.03125 C 3.8125 -6.390625 3.84375 -6.5 4.78125 -6.5 C 5.078125 -6.5 5.15625 -6.5 5.15625 -6.6875 C 5.15625 -6.8125 5.046875 -6.8125 5 -6.8125 C 4.671875 -6.8125 3.859375 -6.78125 3.53125 -6.78125 C 3.234375 -6.78125 2.5 -6.8125 2.203125 -6.8125 C 2.140625 -6.8125 2.015625 -6.8125 2.015625 -6.609375 C 2.015625 -6.5 2.109375 -6.5 2.296875 -6.5 C 2.3125 -6.5 2.5 -6.5 2.671875 -6.484375 C 2.84375 -6.453125 2.9375 -6.453125 2.9375 -6.3125 C 2.9375 -6.28125 2.9375 -6.25 2.90625 -6.125 L 1.5625 -0.78125 C 1.46875 -0.390625 1.453125 -0.3125 0.65625 -0.3125 C 0.484375 -0.3125 0.390625 -0.3125 0.390625 -0.109375 C 0.390625 0 0.484375 0 0.65625 0 L 5.28125 0 C 5.515625 0 5.515625 0 5.578125 -0.171875 L 6.375 -2.328125 C 6.40625 -2.4375 6.40625 -2.453125 6.40625 -2.46875 C 6.40625 -2.5 6.375 -2.578125 6.296875 -2.578125 C 6.203125 -2.578125 6.1875 -2.515625 6.125 -2.359375 C 5.78125 -1.453125 5.34375 -0.3125 3.625 -0.3125 L 2.6875 -0.3125 C 2.546875 -0.3125 2.515625 -0.3125 2.46875 -0.3125 C 2.359375 -0.328125 2.328125 -0.34375 2.328125 -0.421875 C 2.328125 -0.453125 2.328125 -0.46875 2.375 -0.640625 Z M 3.734375 -6.03125 "
           id="path6311" />
      </symbol>
    </g>
  </defs>
  <sodipodi:namedview
     id="base"
     pagecolor="#ffffff"
     bordercolor="#666666"
     borderopacity="1.0"
     inkscape:pageopacity="0.0"
     inkscape:pageshadow="2"
     inkscape:zoom="1.4"
     inkscape:cx="308.87206"
     inkscape:cy="285.21747"
     inkscape:document-units="mm"
     inkscape:current-layer="layer1"
     inkscape:document-rotation="0"
     showgrid="false"
     fit-margin-top="0"
     fit-margin-left="0"
     fit-margin-right="0"
     fit-margin-bottom="0"
     inkscape:window-width="958"
     inkscape:window-height="1048"
     inkscape:window-x="2880"
     inkscape:window-y="18"
     inkscape:window-maximized="0" />
  <metadata
     id="metadata39156">
    <rdf:RDF>
      <cc:Work
         rdf:about="">
        <dc:format>image/svg+xml</dc:format>
        <dc:type
           rdf:resource="http://purl.org/dc/dcmitype/StillImage" />
        <dc:title />
      </cc:Work>
    </rdf:RDF>
  </metadata>
  <g
     inkscape:label="Capa 1"
     inkscape:groupmode="layer"
     id="layer1"
     transform="translate(-87.01372,-143.04509)">
    <path
       style="fill:none;fill-opacity:1;stroke:#ff0000;stroke-width:1.32292;stroke-linecap:round;stroke-linejoin:round;stroke-miterlimit:4;stroke-dasharray:5.29167, 2.64583, 1.32292, 2.64583;stroke-dashoffset:0;paint-order:markers fill stroke"
       d="M 154.97014,254.30243 V 211.25042"
       id="path2666-1"
       sodipodi:nodetypes="cc" />
    <path
       style="fill:none;fill-opacity:1;stroke:#000000;stroke-width:0.264583;stroke-linecap:round;stroke-linejoin:round;stroke-miterlimit:4;stroke-dasharray:none;marker-end:url(#Arrow1Lend);paint-order:markers fill stroke"
       d="m 154.97014,200.06284 1e-5,-53.71042"
       id="path1879"
       sodipodi:nodetypes="cc" />
    <path
       style="fill:none;fill-opacity:1;stroke:#000000;stroke-width:0.264583;stroke-linecap:round;stroke-linejoin:round;stroke-miterlimit:4;stroke-dasharray:none;marker-end:url(#marker2007);paint-order:markers fill stroke"
       d="m 159.78199,208.39722 45.13977,26.06146"
       id="path2003"
       sodipodi:nodetypes="cc" />
    <path
       style="fill:none;fill-opacity:1;stroke:#000000;stroke-width:0.264583;stroke-linecap:round;stroke-linejoin:round;stroke-miterlimit:4;stroke-dasharray:none;paint-order:markers fill stroke"
       id="path2137"
       sodipodi:type="arc"
       sodipodi:cx="118.30839"
       sodipodi:cy="226.78577"
       sodipodi:rx="7.3323483"
       sodipodi:ry="7.3323483"
       sodipodi:start="5.2359878"
       sodipodi:end="0"
       sodipodi:open="true"
       sodipodi:arc-type="arc"
       d="m 121.97456,220.43577 a 7.3323483,7.3323483 0 0 1 3.66618,6.35" />
    <path
       style="fill:none;fill-opacity:1;stroke:#000000;stroke-width:0.264583;stroke-linecap:round;stroke-linejoin:round;stroke-miterlimit:4;stroke-dasharray:none;paint-order:markers fill stroke"
       id="path2141"
       sodipodi:type="arc"
       sodipodi:cx="125.64074"
       sodipodi:cy="222.55243"
       sodipodi:rx="7.3323483"
       sodipodi:ry="7.3323483"
       sodipodi:start="2.0943951"
       sodipodi:end="3.1415927"
       sodipodi:open="true"
       sodipodi:arc-type="arc"
       d="m 121.97457,228.90243 a 7.3323483,7.3323483 0 0 1 -3.66618,-6.35" />
    <path
       style="fill:none;fill-opacity:1;stroke:#000000;stroke-width:0.264583;stroke-linecap:round;stroke-linejoin:round;stroke-miterlimit:4;stroke-dasharray:none;paint-order:markers fill stroke"
       id="path2143"
       sodipodi:type="arc"
       sodipodi:cx="120.74858"
       sodipodi:cy="222.54965"
       sodipodi:rx="2.4366231"
       sodipodi:ry="2.4366231"
       sodipodi:start="3.1415927"
       sodipodi:end="5.2359878"
       sodipodi:open="true"
       sodipodi:arc-type="arc"
       d="m 118.31196,222.54965 a 2.4366231,2.4366231 0 0 1 1.21831,-2.11018 2.4366231,2.4366231 0 0 1 2.43662,0" />
    <path
       style="fill:none;fill-opacity:1;stroke:#000000;stroke-width:0.264583;stroke-linecap:round;stroke-linejoin:round;stroke-miterlimit:4;stroke-dasharray:none;paint-order:markers fill stroke"
       id="path2145"
       sodipodi:type="arc"
       sodipodi:cx="123.19201"
       sodipodi:cy="226.78398"
       sodipodi:rx="2.4374723"
       sodipodi:ry="2.4374723"
       sodipodi:start="0"
       sodipodi:end="2.0943951"
       sodipodi:open="true"
       sodipodi:arc-type="arc"
       d="m 125.62948,226.78398 a 2.4374723,2.4374723 0 0 1 -1.21873,2.11091 2.4374723,2.4374723 0 0 1 -2.43748,0" />
    <path
       style="fill:none;fill-opacity:1;stroke:#000000;stroke-width:0.264583;stroke-linecap:round;stroke-linejoin:round;stroke-miterlimit:4;stroke-dasharray:none;paint-order:markers fill stroke"
       id="path2137-6"
       sodipodi:type="arc"
       sodipodi:cx="184.29951"
       sodipodi:cy="188.68576"
       sodipodi:rx="7.3323483"
       sodipodi:ry="7.3323483"
       sodipodi:start="5.2359878"
       sodipodi:end="0"
       sodipodi:open="true"
       sodipodi:arc-type="arc"
       d="m 187.96569,182.33576 a 7.3323483,7.3323483 0 0 1 3.66617,6.35" />
    <path
       style="fill:none;fill-opacity:1;stroke:#000000;stroke-width:0.264583;stroke-linecap:round;stroke-linejoin:round;stroke-miterlimit:4;stroke-dasharray:none;paint-order:markers fill stroke"
       id="path2143-9"
       sodipodi:type="arc"
       sodipodi:cx="186.73972"
       sodipodi:cy="184.44965"
       sodipodi:rx="2.4366231"
       sodipodi:ry="2.4366231"
       sodipodi:start="4.2023516"
       sodipodi:end="5.2359878"
       sodipodi:open="true"
       sodipodi:arc-type="arc"
       d="m 185.55013,182.32314 a 2.4366231,2.4366231 0 0 1 2.4079,0.0163" />
    <path
       style="fill:none;fill-opacity:1;stroke:#000000;stroke-width:0.264583;stroke-linecap:round;stroke-linejoin:round;stroke-miterlimit:4;stroke-dasharray:none;paint-order:markers fill stroke"
       id="path2145-1"
       sodipodi:type="arc"
       sodipodi:cx="189.18315"
       sodipodi:cy="188.68398"
       sodipodi:rx="2.4374723"
       sodipodi:ry="2.4374723"
       sodipodi:start="0"
       sodipodi:end="1.0394356"
       sodipodi:open="true"
       sodipodi:arc-type="arc"
       d="m 191.62062,188.68398 a 2.4374723,2.4374723 0 0 1 -1.20238,2.10138" />
    <path
       style="fill:none;fill-opacity:1;stroke:#000000;stroke-width:0.264583;stroke-linecap:round;stroke-linejoin:round;stroke-miterlimit:4;stroke-dasharray:none;paint-order:markers fill stroke"
       d="M 124.33885,228.93545 190.4862,190.74522"
       id="path2213-7"
       sodipodi:nodetypes="cc" />
    <g
       inkscape:label=""
       transform="matrix(3.7785524,0,0,3.7785524,-248.98647,-69.954813)"
       id="g2341">
      <g
         id="g2204">
        <g
           style="fill:#000000;fill-opacity:1"
           id="g2364">
          <g
             id="use5947"
             transform="matrix(0.26458333,0,0,0.26458333,91.925003,81.962997)">
            <path
               style="stroke:none"
               d="M 3.328125,-3.015625 C 3.390625,-3.265625 3.625,-4.1875 4.3125,-4.1875 c 0.046875,0 0.296875,0 0.5,0.125 C 4.53125,-4 4.34375,-3.765625 4.34375,-3.515625 c 0,0.15625 0.109375,0.34375 0.375,0.34375 0.21875,0 0.53125,-0.171875 0.53125,-0.578125 0,-0.515625 -0.578125,-0.65625 -0.921875,-0.65625 -0.578125,0 -0.921875,0.53125 -1.046875,0.75 -0.25,-0.65625 -0.78125,-0.75 -1.078125,-0.75 -1.03125,0 -1.609375,1.28125 -1.609375,1.53125 0,0.109375 0.109375,0.109375 0.125,0.109375 0.078125,0 0.109375,-0.03125 0.125,-0.109375 0.34375,-1.0625 1,-1.3125 1.34375,-1.3125 0.1875,0 0.53125,0.09375 0.53125,0.671875 0,0.3125 -0.171875,0.96875 -0.53125,2.375 -0.15625,0.609375 -0.515625,1.03125 -0.953125,1.03125 -0.0625,0 -0.28125,0 -0.5,-0.125 0.25,-0.0625 0.46875,-0.265625 0.46875,-0.546875 0,-0.265625 -0.21875,-0.34375 -0.359375,-0.34375 -0.3125,0 -0.546875,0.25 -0.546875,0.578125 0,0.453125 0.484375,0.65625 0.921875,0.65625 0.671875,0 1.03125,-0.703125 1.046875,-0.75 0.125,0.359375 0.484375,0.75 1.078125,0.75 1.03125,0 1.59375,-1.28125 1.59375,-1.53125 0,-0.109375 -0.078125,-0.109375 -0.109375,-0.109375 -0.09375,0 -0.109375,0.046875 -0.140625,0.109375 -0.328125,1.078125 -1,1.3125 -1.3125,1.3125 -0.390625,0 -0.546875,-0.3125 -0.546875,-0.65625 0,-0.21875 0.046875,-0.4375 0.15625,-0.875 z m 0,0"
               id="path40068" />
          </g>
        </g>
      </g>
    </g>
    <g
       inkscape:label=""
       transform="matrix(3.7785524,0,0,3.7785524,-141.30326,-69.954813)"
       id="g2462">
      <g
         id="g3488">
        <g
           style="fill:#000000;fill-opacity:1"
           id="g4211">
          <g
             id="use2134"
             transform="matrix(0.26458333,0,0,0.26458333,91.925003,81.962997)">
            <path
               style="stroke:none"
               d="m 4.84375,-3.796875 c 0.046875,-0.140625 0.046875,-0.15625 0.046875,-0.234375 0,-0.171875 -0.140625,-0.265625 -0.296875,-0.265625 -0.09375,0 -0.25,0.0625 -0.34375,0.203125 -0.015625,0.0625 -0.109375,0.359375 -0.140625,0.546875 -0.078125,0.25 -0.140625,0.53125 -0.203125,0.796875 l -0.453125,1.796875 c -0.03125,0.140625 -0.46875,0.84375 -1.125,0.84375 -0.5,0 -0.609375,-0.4375 -0.609375,-0.8125 C 1.71875,-1.375 1.890625,-2 2.21875,-2.875 2.375,-3.28125 2.421875,-3.390625 2.421875,-3.59375 c 0,-0.4375 -0.3125,-0.8125 -0.8125,-0.8125 -0.953125,0 -1.3125,1.453125 -1.3125,1.53125 0,0.109375 0.09375,0.109375 0.109375,0.109375 0.109375,0 0.109375,-0.03125 0.15625,-0.1875 0.28125,-0.9375 0.671875,-1.234375 1.015625,-1.234375 0.078125,0 0.25,0 0.25,0.3125 0,0.25 -0.109375,0.515625 -0.171875,0.703125 -0.40625,1.0625 -0.578125,1.625 -0.578125,2.09375 0,0.890625 0.625,1.1875 1.21875,1.1875 0.390625,0 0.71875,-0.171875 1,-0.453125 -0.125,0.515625 -0.25,1.015625 -0.640625,1.546875 -0.265625,0.328125 -0.640625,0.625 -1.09375,0.625 -0.140625,0 -0.59375,-0.03125 -0.765625,-0.421875 0.15625,0 0.296875,0 0.421875,-0.125 C 1.328125,1.203125 1.421875,1.0625 1.421875,0.875 1.421875,0.5625 1.15625,0.53125 1.0625,0.53125 0.828125,0.53125 0.5,0.6875 0.5,1.171875 c 0,0.5 0.4375,0.875 1.0625,0.875 1.015625,0 2.046875,-0.90625 2.328125,-2.03125 z m 0,0"
               id="path40064" />
          </g>
        </g>
      </g>
    </g>
    <g
       inkscape:label=""
       transform="matrix(3.7785524,0,0,3.7785524,-200.11628,-158.54746)"
       id="g2592">
      <g
         id="g2648">
        <g
           style="fill:#000000;fill-opacity:1"
           id="g6188">
          <g
             id="use8250"
             transform="matrix(0.26458333,0,0,0.26458333,91.925003,81.962997)">
            <path
               style="stroke:none"
               d="m 1.328125,-0.828125 c 0.53125,-0.578125 0.828125,-0.828125 1.1875,-1.140625 0,0 0.609375,-0.53125 0.96875,-0.890625 C 4.4375,-3.78125 4.65625,-4.265625 4.65625,-4.3125 c 0,-0.09375 -0.09375,-0.09375 -0.109375,-0.09375 -0.078125,0 -0.09375,0.015625 -0.15625,0.109375 -0.296875,0.484375 -0.5,0.640625 -0.734375,0.640625 -0.25,0 -0.359375,-0.15625 -0.515625,-0.328125 -0.1875,-0.21875 -0.359375,-0.421875 -0.6875,-0.421875 -0.75,0 -1.203125,0.921875 -1.203125,1.140625 0,0.046875 0.03125,0.109375 0.109375,0.109375 0.09375,0 0.109375,-0.046875 0.140625,-0.109375 0.1875,-0.46875 0.765625,-0.46875 0.84375,-0.46875 0.203125,0 0.390625,0.0625 0.625,0.140625 0.40625,0.15625 0.515625,0.15625 0.765625,0.15625 -0.359375,0.421875 -1.1875,1.140625 -1.375,1.296875 l -0.90625,0.84375 C 0.78125,-0.625 0.421875,-0.0625 0.421875,0.015625 c 0,0.09375 0.109375,0.09375 0.125,0.09375 0.078125,0 0.09375,-0.015625 0.15625,-0.125 0.234375,-0.359375 0.53125,-0.625 0.859375,-0.625 0.21875,0 0.328125,0.09375 0.578125,0.375 0.15625,0.21875 0.34375,0.375 0.625,0.375 1,0 1.578125,-1.265625 1.578125,-1.53125 0,-0.046875 -0.046875,-0.109375 -0.125,-0.109375 -0.09375,0 -0.109375,0.0625 -0.140625,0.140625 C 3.84375,-0.75 3.203125,-0.5625 2.875,-0.5625 c -0.1875,0 -0.375,-0.0625 -0.578125,-0.125 -0.34375,-0.125 -0.5,-0.171875 -0.703125,-0.171875 -0.015625,0 -0.171875,0 -0.265625,0.03125 z m 0,0"
               id="path40060" />
          </g>
        </g>
      </g>
    </g>
    <path
       style="fill:none;fill-opacity:1;stroke:#000000;stroke-width:0.264583;stroke-linecap:round;stroke-linejoin:round;stroke-miterlimit:4;stroke-dasharray:none;paint-order:markers fill stroke"
       id="path2137-2"
       sodipodi:type="arc"
       sodipodi:cx="134.80617"
       sodipodi:cy="217.26076"
       sodipodi:rx="7.3323483"
       sodipodi:ry="7.3323483"
       sodipodi:start="5.2359878"
       sodipodi:end="0"
       sodipodi:open="true"
       sodipodi:arc-type="arc"
       d="m 138.47234,210.91076 a 7.3323483,7.3323483 0 0 1 3.66618,6.35" />
    <path
       style="fill:none;fill-opacity:1;stroke:#000000;stroke-width:0.264583;stroke-linecap:round;stroke-linejoin:round;stroke-miterlimit:4;stroke-dasharray:none;paint-order:markers fill stroke"
       id="path2143-2"
       sodipodi:type="arc"
       sodipodi:cx="137.24637"
       sodipodi:cy="213.02466"
       sodipodi:rx="2.4366231"
       sodipodi:ry="2.4366231"
       sodipodi:start="4.2249011"
       sodipodi:end="5.2359878"
       sodipodi:open="true"
       sodipodi:arc-type="arc"
       d="m 136.10503,210.87187 a 2.4366231,2.4366231 0 0 1 2.35965,0.0426" />
    <path
       style="fill:none;fill-opacity:1;stroke:#000000;stroke-width:0.264583;stroke-linecap:round;stroke-linejoin:round;stroke-miterlimit:4;stroke-dasharray:none;paint-order:markers fill stroke"
       id="path2145-3"
       sodipodi:type="arc"
       sodipodi:cx="139.68979"
       sodipodi:cy="217.25897"
       sodipodi:rx="2.4374723"
       sodipodi:ry="2.4374723"
       sodipodi:start="0"
       sodipodi:end="1.0067539"
       sodipodi:open="true"
       sodipodi:arc-type="arc"
       d="m 142.12726,217.25897 a 2.4374723,2.4374723 0 0 1 -1.13438,2.05991" />
    <path
       style="fill:none;fill-opacity:1;stroke:#000000;stroke-width:0.264583;stroke-linecap:round;stroke-linejoin:round;stroke-miterlimit:4;stroke-dasharray:none;paint-order:markers fill stroke"
       id="path2738"
       sodipodi:type="arc"
       sodipodi:cx="136.63925"
       sodipodi:cy="216.20242"
       sodipodi:rx="7.3323483"
       sodipodi:ry="7.3323483"
       sodipodi:start="5.2359878"
       sodipodi:end="0"
       sodipodi:open="true"
       sodipodi:arc-type="arc"
       d="m 140.30543,209.85242 a 7.3323483,7.3323483 0 0 1 3.66617,6.35" />
    <path
       style="fill:none;fill-opacity:1;stroke:#000000;stroke-width:0.264583;stroke-linecap:round;stroke-linejoin:round;stroke-miterlimit:4;stroke-dasharray:none;paint-order:markers fill stroke"
       id="path2742"
       sodipodi:type="arc"
       sodipodi:cx="139.07945"
       sodipodi:cy="211.96632"
       sodipodi:rx="2.4366231"
       sodipodi:ry="2.4366231"
       sodipodi:start="4.2954324"
       sodipodi:end="5.2359878"
       sodipodi:open="true"
       sodipodi:arc-type="arc"
       d="m 138.09267,209.73846 a 2.4366231,2.4366231 0 0 1 2.20509,0.11769" />
    <path
       style="fill:none;fill-opacity:1;stroke:#000000;stroke-width:0.264583;stroke-linecap:round;stroke-linejoin:round;stroke-miterlimit:4;stroke-dasharray:none;paint-order:markers fill stroke"
       id="path2744"
       sodipodi:type="arc"
       sodipodi:cx="141.52289"
       sodipodi:cy="216.20064"
       sodipodi:rx="2.4374723"
       sodipodi:ry="2.4374723"
       sodipodi:start="0"
       sodipodi:end="1.0401804"
       sodipodi:open="true"
       sodipodi:arc-type="arc"
       d="m 143.96036,216.20064 a 2.4374723,2.4374723 0 0 1 -1.20395,2.10231" />
    <path
       style="fill:#c6e9af;fill-opacity:1;stroke:none;stroke-width:0.0661458;stroke-linecap:round;stroke-linejoin:round;stroke-miterlimit:4;stroke-dasharray:none;stroke-dashoffset:0;paint-order:markers fill stroke"
       d="m 122.51683,228.95102 c -0.7045,-0.22615 -1.91801,-1.20488 -2.57602,-2.07763 -0.39635,-0.5257 -0.92217,-1.53356 -1.10753,-2.12284 -0.25571,-0.81296 -0.30999,-1.15953 -0.31076,-1.98437 -7.9e-4,-0.7457 0.0152,-0.85928 0.16204,-1.15755 0.54052,-1.09801 1.88073,-1.62071 2.92715,-1.14164 1.65267,0.75662 3.12412,2.60001 3.62587,4.54241 0.39979,1.54767 0.24254,2.67159 -0.47406,3.38818 -0.54753,0.54754 -1.51933,0.78692 -2.24669,0.55344 z"
       id="path2806" />
    <path
       style="fill:#aade87;fill-opacity:1;stroke:none;stroke-width:0.0661458;stroke-linecap:round;stroke-linejoin:round;stroke-miterlimit:4;stroke-dasharray:none;stroke-dashoffset:0;paint-order:markers fill stroke"
       d="m 125.53128,227.94938 c 0.18963,-0.45843 0.24739,-0.77747 0.24568,-1.35703 -0.006,-1.8778 -0.78035,-3.69627 -2.17149,-5.09666 -0.83295,-0.83849 -1.90323,-1.50012 -2.43789,-1.50708 -0.10914,-0.001 -0.23178,-0.0245 -0.27254,-0.0512 -0.076,-0.0499 15.02433,-8.80748 15.58093,-9.0363 0.41251,-0.16959 1.12053,-0.16643 1.56764,0.007 0.78722,0.30532 2.09703,1.44941 2.69205,2.35144 0.82583,1.25193 1.32238,2.9526 1.21084,4.14709 -0.0521,0.55848 -0.34814,1.16747 -0.73055,1.50307 -0.15763,0.13834 -3.68816,2.21606 -7.84562,4.61715 -8.88709,5.13265 -7.90318,4.57756 -7.83905,4.42252 z"
       id="path2808" />
    <path
       style="fill:#8dd35f;fill-opacity:1;stroke:none;stroke-width:0.0661458;stroke-linecap:round;stroke-linejoin:round;stroke-miterlimit:4;stroke-dasharray:none;stroke-dashoffset:0;paint-order:markers fill stroke"
       d="m 142.11529,218.18558 c 0.47046,-1.23647 -0.0247,-3.51875 -1.12033,-5.16384 -0.83363,-1.2517 -2.5646,-2.55869 -3.38872,-2.55869 -0.32938,0 -0.28226,-0.1119 0.14712,-0.34945 0.87521,-0.4842 1.52266,-0.53696 2.27513,-0.18538 1.55395,0.72604 2.94775,2.4514 3.48893,4.3189 0.4473,1.54352 0.35313,2.66014 -0.28994,3.4383 -0.15771,0.19083 -1.10294,0.84742 -1.21995,0.84742 -0.0134,0 0.0351,-0.15626 0.10776,-0.34726 z"
       id="path2810" />
    <path
       style="fill:none;fill-opacity:1;stroke:#000000;stroke-width:0.264583;stroke-linecap:round;stroke-linejoin:round;stroke-miterlimit:4;stroke-dasharray:none;marker-end:url(#marker2061);paint-order:markers fill stroke"
       d="m 121.97457,224.66909 -16.95606,9.78959"
       id="path2057"
       sodipodi:nodetypes="cc" />
    <path
       style="fill:none;fill-opacity:1;stroke:#000000;stroke-width:0.264583;stroke-linecap:round;stroke-linejoin:round;stroke-miterlimit:4;stroke-dasharray:none;stroke-dashoffset:0;paint-order:markers fill stroke"
       d="m 129.30691,228.90243 7.33235,4.23333"
       id="path3463"
       sodipodi:nodetypes="cc" />
    <path
       style="fill:none;fill-opacity:1;stroke:#000000;stroke-width:0.264583;stroke-linecap:round;stroke-linejoin:round;stroke-miterlimit:4;stroke-dasharray:none;stroke-dashoffset:0;paint-order:markers fill stroke"
       d="m 195.29805,190.80242 7.33235,4.23334"
       id="path3463-4"
       sodipodi:nodetypes="cc" />
    <path
       style="fill:none;fill-opacity:1;stroke:#000000;stroke-width:0.264583;stroke-linecap:round;stroke-linejoin:round;stroke-miterlimit:4;stroke-dasharray:none;stroke-dashoffset:0;marker-start:url(#marker3495);marker-end:url(#marker3589);paint-order:markers fill stroke"
       d="m 132.97309,231.01909 65.99114,-38.1"
       id="path3491" />
    <path
       style="fill:none;fill-opacity:1;stroke:#000000;stroke-width:0.264583;stroke-linecap:round;stroke-linejoin:round;stroke-miterlimit:4;stroke-dasharray:0.264583, 1.05833;stroke-dashoffset:0;paint-order:markers fill stroke"
       d="m 129.30691,228.90243 -7.33234,-4.23334"
       id="path3729" />
    <path
       style="fill:none;fill-opacity:1;stroke:#000000;stroke-width:0.264583;stroke-linecap:round;stroke-linejoin:round;stroke-miterlimit:4;stroke-dasharray:0.264583, 1.05833;stroke-dashoffset:0;paint-order:markers fill stroke"
       d="m 195.29805,190.80243 -3.66617,-2.11667"
       id="path3731" />
    <path
       style="fill:none;fill-opacity:1;stroke:#ffffff;stroke-width:0.529167;stroke-linecap:round;stroke-linejoin:round;stroke-miterlimit:4;stroke-dasharray:none;stroke-dashoffset:0;paint-order:markers fill stroke"
       d="m 160.4694,215.14409 10.99852,-6.35"
       id="path3733"
       sodipodi:nodetypes="cc" />
    <path
       style="fill:#aade87;fill-opacity:1;stroke:none;stroke-width:0.0661458;stroke-linecap:round;stroke-linejoin:round;stroke-miterlimit:4;stroke-dasharray:none;stroke-dashoffset:0;paint-order:markers fill stroke"
       d="m 143.82253,217.44444 c 0,-0.0234 0.0439,-0.1276 0.0976,-0.23145 0.48519,-0.93825 0.087,-3.29488 -0.81086,-4.79863 -0.9082,-1.52113 -2.46109,-2.82588 -3.57237,-3.00155 -0.19103,-0.0302 -0.3576,-0.0667 -0.37015,-0.0811 -0.0306,-0.0352 46.15404,-26.69644 46.67064,-26.94178 0.51349,-0.24386 1.15767,-0.26588 1.68649,-0.0576 1.20853,0.47589 2.5785,1.88433 3.2717,3.36358 0.42948,0.91648 0.60521,1.6932 0.61259,2.70757 0.005,0.74989 -0.012,0.89946 -0.13668,1.16917 -0.21649,0.46844 -0.64065,0.88139 -1.30637,1.27185 -0.33067,0.19394 -10.72153,6.19445 -23.0908,13.33448 -12.36927,7.14002 -22.61608,13.05527 -22.7707,13.14501 -0.15462,0.0897 -0.28112,0.14396 -0.28112,0.12051 z"
       id="path2812"
       sodipodi:nodetypes="ssssssssssssss" />
    <path
       style="fill:none;fill-opacity:1;stroke:#000000;stroke-width:0.264583;stroke-linecap:round;stroke-linejoin:round;stroke-miterlimit:4;stroke-dasharray:none;paint-order:markers fill stroke"
       d="m 119.51787,220.44436 66.08125,-38.15203"
       id="path2213-0"
       sodipodi:nodetypes="cc" />
    <path
       style="fill:none;fill-opacity:1;stroke:#ff0000;stroke-width:1.32292;stroke-linecap:round;stroke-linejoin:round;stroke-miterlimit:4;stroke-dasharray:5.29167, 2.64583, 1.32292, 2.64583;stroke-dashoffset:0;paint-order:markers fill stroke"
       d="m 154.97013,201.38576 v -44.45"
       id="path2666"
       sodipodi:nodetypes="cc" />
    <g
       inkscape:label=""
       transform="translate(70.655065,133.25723)"
       id="g364">
      <g
         id="g9587">
        <g
           style="fill:#000000;fill-opacity:1"
           id="g3349">
          <use
             xlink:href="#symbol1453"
             x="91.925003"
             y="81.962997"
             id="use5765"
             width="100%"
             height="100%" />
        </g>
      </g>
    </g>
  </g>
</svg>
