<?xml version="1.0" encoding="UTF-8" standalone="no"?>
<!-- Created with Inkscape (http://www.inkscape.org/) -->

<svg
   width="1920"
   height="1080"
   viewBox="0 0 1920 1080"
   version="1.1"
   id="svg5"
   sodipodi:docname="a1.svg"
   inkscape:version="1.1.2 (0a00cf5339, 2022-02-04)"
   xmlns:inkscape="http://www.inkscape.org/namespaces/inkscape"
   xmlns:sodipodi="http://sodipodi.sourceforge.net/DTD/sodipodi-0.dtd"
   xmlns:xlink="http://www.w3.org/1999/xlink"
   xmlns="http://www.w3.org/2000/svg"
   xmlns:svg="http://www.w3.org/2000/svg">
  <sodipodi:namedview
     id="namedview7"
     pagecolor="#ffffff"
     bordercolor="#666666"
     borderopacity="1.0"
     inkscape:pageshadow="2"
     inkscape:pageopacity="0.0"
     inkscape:pagecheckerboard="0"
     inkscape:document-units="px"
     showgrid="true"
     showborder="true"
     inkscape:showpageshadow="false"
     inkscape:zoom="8"
     inkscape:cx="327.0625"
     inkscape:cy="265.1875"
     inkscape:window-width="1920"
     inkscape:window-height="1050"
     inkscape:window-x="1920"
     inkscape:window-y="18"
     inkscape:window-maximized="1"
     inkscape:current-layer="layer1"
     showguides="true"
     inkscape:guide-bbox="true"
     gridtolerance="10"
     inkscape:snap-perpendicular="true"
     inkscape:snap-tangential="true"
     inkscape:snap-path-clip="true"
     inkscape:snap-path-mask="true">
    <inkscape:grid
       type="axonomgrid"
       id="grid127"
       spacingy="15.11811"
       empspacing="4" />
  </sodipodi:namedview>
  <defs
     id="defs2">
    <marker
       style="overflow:visible;"
       id="Arrow2Mend"
       refX="0.0"
       refY="0.0"
       orient="auto"
       inkscape:stockid="Arrow2Mend"
       inkscape:isstock="true">
      <path
         transform="scale(0.6) rotate(180) translate(0,0)"
         d="M 8.7185878,4.0337352 L -2.2072895,0.016013256 L 8.7185884,-4.0017078 C 6.9730900,-1.6296469 6.9831476,1.6157441 8.7185878,4.0337352 z "
         style="stroke:context-stroke;fill-rule:evenodd;fill:context-stroke;stroke-width:0.62500000;stroke-linejoin:round;"
         id="path952" />
    </marker>
    <marker
       style="overflow:visible"
       id="marker1203"
       refX="0.0"
       refY="0.0"
       orient="auto"
       inkscape:stockid="Arrow2Mstart"
       inkscape:isstock="true">
      <path
         transform="scale(0.6) translate(0,0)"
         d="M 8.7185878,4.0337352 L -2.2072895,0.016013256 L 8.7185884,-4.0017078 C 6.9730900,-1.6296469 6.9831476,1.6157441 8.7185878,4.0337352 z "
         style="stroke:context-stroke;fill-rule:evenodd;fill:context-stroke;stroke-width:0.62500000;stroke-linejoin:round"
         id="path1201" />
    </marker>
    <marker
       style="overflow:visible"
       id="Arrow1Sstart"
       refX="0.0"
       refY="0.0"
       orient="auto"
       inkscape:stockid="Arrow1Sstart"
       inkscape:isstock="true">
      <path
         transform="scale(0.2) translate(6,0)"
         style="fill-rule:evenodd;fill:context-stroke;stroke:context-stroke;stroke-width:1.0pt"
         d="M 0.0,0.0 L 5.0,-5.0 L -12.5,0.0 L 5.0,5.0 L 0.0,0.0 z "
         id="path937" />
    </marker>
    <marker
       style="overflow:visible"
       id="Arrow2Mstart"
       refX="0.0"
       refY="0.0"
       orient="auto"
       inkscape:stockid="Arrow2Mstart"
       inkscape:isstock="true">
      <path
         transform="scale(0.6) translate(0,0)"
         d="M 8.7185878,4.0337352 L -2.2072895,0.016013256 L 8.7185884,-4.0017078 C 6.9730900,-1.6296469 6.9831476,1.6157441 8.7185878,4.0337352 z "
         style="stroke:context-stroke;fill-rule:evenodd;fill:context-stroke;stroke-width:0.62500000;stroke-linejoin:round"
         id="path949" />
    </marker>
    <marker
       style="overflow:visible"
       id="Arrow1Mstart"
       refX="0.0"
       refY="0.0"
       orient="auto"
       inkscape:stockid="Arrow1Mstart"
       inkscape:isstock="true">
      <path
         transform="scale(0.4) translate(10,0)"
         style="fill-rule:evenodd;fill:context-stroke;stroke:context-stroke;stroke-width:1.0pt"
         d="M 0.0,0.0 L 5.0,-5.0 L -12.5,0.0 L 5.0,5.0 L 0.0,0.0 z "
         id="path1281" />
    </marker>
    <marker
       style="overflow:visible"
       id="Arrow2Sstart"
       refX="0.0"
       refY="0.0"
       orient="auto"
       inkscape:stockid="Arrow2Sstart"
       inkscape:isstock="true">
      <path
         transform="scale(0.3) translate(-2.3,0)"
         d="M 8.7185878,4.0337352 L -2.2072895,0.016013256 L 8.7185884,-4.0017078 C 6.9730900,-1.6296469 6.9831476,1.6157441 8.7185878,4.0337352 z "
         style="stroke:context-stroke;fill-rule:evenodd;fill:context-stroke;stroke-width:0.62500000;stroke-linejoin:round"
         id="path1305" />
    </marker>
    <g
       id="g3135">
      <symbol
         overflow="visible"
         id="symbol9629">
        <path
           style="stroke:none;"
           d=""
           id="path3269" />
      </symbol>
      <symbol
         overflow="visible"
         id="symbol6817">
        <path
           style="stroke:none;"
           d="M 3.328125 -3.015625 C 3.390625 -3.265625 3.625 -4.1875 4.3125 -4.1875 C 4.359375 -4.1875 4.609375 -4.1875 4.8125 -4.0625 C 4.53125 -4 4.34375 -3.765625 4.34375 -3.515625 C 4.34375 -3.359375 4.453125 -3.171875 4.71875 -3.171875 C 4.9375 -3.171875 5.25 -3.34375 5.25 -3.75 C 5.25 -4.265625 4.671875 -4.40625 4.328125 -4.40625 C 3.75 -4.40625 3.40625 -3.875 3.28125 -3.65625 C 3.03125 -4.3125 2.5 -4.40625 2.203125 -4.40625 C 1.171875 -4.40625 0.59375 -3.125 0.59375 -2.875 C 0.59375 -2.765625 0.703125 -2.765625 0.71875 -2.765625 C 0.796875 -2.765625 0.828125 -2.796875 0.84375 -2.875 C 1.1875 -3.9375 1.84375 -4.1875 2.1875 -4.1875 C 2.375 -4.1875 2.71875 -4.09375 2.71875 -3.515625 C 2.71875 -3.203125 2.546875 -2.546875 2.1875 -1.140625 C 2.03125 -0.53125 1.671875 -0.109375 1.234375 -0.109375 C 1.171875 -0.109375 0.953125 -0.109375 0.734375 -0.234375 C 0.984375 -0.296875 1.203125 -0.5 1.203125 -0.78125 C 1.203125 -1.046875 0.984375 -1.125 0.84375 -1.125 C 0.53125 -1.125 0.296875 -0.875 0.296875 -0.546875 C 0.296875 -0.09375 0.78125 0.109375 1.21875 0.109375 C 1.890625 0.109375 2.25 -0.59375 2.265625 -0.640625 C 2.390625 -0.28125 2.75 0.109375 3.34375 0.109375 C 4.375 0.109375 4.9375 -1.171875 4.9375 -1.421875 C 4.9375 -1.53125 4.859375 -1.53125 4.828125 -1.53125 C 4.734375 -1.53125 4.71875 -1.484375 4.6875 -1.421875 C 4.359375 -0.34375 3.6875 -0.109375 3.375 -0.109375 C 2.984375 -0.109375 2.828125 -0.421875 2.828125 -0.765625 C 2.828125 -0.984375 2.875 -1.203125 2.984375 -1.640625 Z M 3.328125 -3.015625 "
           id="path6902" />
      </symbol>
    </g>
    <g
       id="g3702">
      <symbol
         overflow="visible"
         id="symbol6423">
        <path
           style="stroke:none;"
           d=""
           id="path1284" />
      </symbol>
      <symbol
         overflow="visible"
         id="symbol3247">
        <path
           style="stroke:none;"
           d="M 4.84375 -3.796875 C 4.890625 -3.9375 4.890625 -3.953125 4.890625 -4.03125 C 4.890625 -4.203125 4.75 -4.296875 4.59375 -4.296875 C 4.5 -4.296875 4.34375 -4.234375 4.25 -4.09375 C 4.234375 -4.03125 4.140625 -3.734375 4.109375 -3.546875 C 4.03125 -3.296875 3.96875 -3.015625 3.90625 -2.75 L 3.453125 -0.953125 C 3.421875 -0.8125 2.984375 -0.109375 2.328125 -0.109375 C 1.828125 -0.109375 1.71875 -0.546875 1.71875 -0.921875 C 1.71875 -1.375 1.890625 -2 2.21875 -2.875 C 2.375 -3.28125 2.421875 -3.390625 2.421875 -3.59375 C 2.421875 -4.03125 2.109375 -4.40625 1.609375 -4.40625 C 0.65625 -4.40625 0.296875 -2.953125 0.296875 -2.875 C 0.296875 -2.765625 0.390625 -2.765625 0.40625 -2.765625 C 0.515625 -2.765625 0.515625 -2.796875 0.5625 -2.953125 C 0.84375 -3.890625 1.234375 -4.1875 1.578125 -4.1875 C 1.65625 -4.1875 1.828125 -4.1875 1.828125 -3.875 C 1.828125 -3.625 1.71875 -3.359375 1.65625 -3.171875 C 1.25 -2.109375 1.078125 -1.546875 1.078125 -1.078125 C 1.078125 -0.1875 1.703125 0.109375 2.296875 0.109375 C 2.6875 0.109375 3.015625 -0.0625 3.296875 -0.34375 C 3.171875 0.171875 3.046875 0.671875 2.65625 1.203125 C 2.390625 1.53125 2.015625 1.828125 1.5625 1.828125 C 1.421875 1.828125 0.96875 1.796875 0.796875 1.40625 C 0.953125 1.40625 1.09375 1.40625 1.21875 1.28125 C 1.328125 1.203125 1.421875 1.0625 1.421875 0.875 C 1.421875 0.5625 1.15625 0.53125 1.0625 0.53125 C 0.828125 0.53125 0.5 0.6875 0.5 1.171875 C 0.5 1.671875 0.9375 2.046875 1.5625 2.046875 C 2.578125 2.046875 3.609375 1.140625 3.890625 0.015625 Z M 4.84375 -3.796875 "
           id="path6055" />
      </symbol>
    </g>
    <g
       id="g5946">
      <symbol
         overflow="visible"
         id="symbol9348">
        <path
           style="stroke:none;"
           d=""
           id="path8367" />
      </symbol>
      <symbol
         overflow="visible"
         id="symbol4488">
        <path
           style="stroke:none;"
           d="M 1.328125 -0.828125 C 1.859375 -1.40625 2.15625 -1.65625 2.515625 -1.96875 C 2.515625 -1.96875 3.125 -2.5 3.484375 -2.859375 C 4.4375 -3.78125 4.65625 -4.265625 4.65625 -4.3125 C 4.65625 -4.40625 4.5625 -4.40625 4.546875 -4.40625 C 4.46875 -4.40625 4.453125 -4.390625 4.390625 -4.296875 C 4.09375 -3.8125 3.890625 -3.65625 3.65625 -3.65625 C 3.40625 -3.65625 3.296875 -3.8125 3.140625 -3.984375 C 2.953125 -4.203125 2.78125 -4.40625 2.453125 -4.40625 C 1.703125 -4.40625 1.25 -3.484375 1.25 -3.265625 C 1.25 -3.21875 1.28125 -3.15625 1.359375 -3.15625 C 1.453125 -3.15625 1.46875 -3.203125 1.5 -3.265625 C 1.6875 -3.734375 2.265625 -3.734375 2.34375 -3.734375 C 2.546875 -3.734375 2.734375 -3.671875 2.96875 -3.59375 C 3.375 -3.4375 3.484375 -3.4375 3.734375 -3.4375 C 3.375 -3.015625 2.546875 -2.296875 2.359375 -2.140625 L 1.453125 -1.296875 C 0.78125 -0.625 0.421875 -0.0625 0.421875 0.015625 C 0.421875 0.109375 0.53125 0.109375 0.546875 0.109375 C 0.625 0.109375 0.640625 0.09375 0.703125 -0.015625 C 0.9375 -0.375 1.234375 -0.640625 1.5625 -0.640625 C 1.78125 -0.640625 1.890625 -0.546875 2.140625 -0.265625 C 2.296875 -0.046875 2.484375 0.109375 2.765625 0.109375 C 3.765625 0.109375 4.34375 -1.15625 4.34375 -1.421875 C 4.34375 -1.46875 4.296875 -1.53125 4.21875 -1.53125 C 4.125 -1.53125 4.109375 -1.46875 4.078125 -1.390625 C 3.84375 -0.75 3.203125 -0.5625 2.875 -0.5625 C 2.6875 -0.5625 2.5 -0.625 2.296875 -0.6875 C 1.953125 -0.8125 1.796875 -0.859375 1.59375 -0.859375 C 1.578125 -0.859375 1.421875 -0.859375 1.328125 -0.828125 Z M 1.328125 -0.828125 "
           id="path7223" />
      </symbol>
    </g>
    <g
       id="g237">
      <symbol
         overflow="visible"
         id="symbol3815">
        <path
           style="stroke:none;"
           d=""
           id="path7809" />
      </symbol>
      <symbol
         overflow="visible"
         id="symbol7348">
        <path
           style="stroke:none;"
           d="M 3.71875 -3.765625 C 3.53125 -4.140625 3.25 -4.40625 2.796875 -4.40625 C 1.640625 -4.40625 0.40625 -2.9375 0.40625 -1.484375 C 0.40625 -0.546875 0.953125 0.109375 1.71875 0.109375 C 1.921875 0.109375 2.421875 0.0625 3.015625 -0.640625 C 3.09375 -0.21875 3.453125 0.109375 3.921875 0.109375 C 4.28125 0.109375 4.5 -0.125 4.671875 -0.4375 C 4.828125 -0.796875 4.96875 -1.40625 4.96875 -1.421875 C 4.96875 -1.53125 4.875 -1.53125 4.84375 -1.53125 C 4.75 -1.53125 4.734375 -1.484375 4.703125 -1.34375 C 4.53125 -0.703125 4.359375 -0.109375 3.953125 -0.109375 C 3.671875 -0.109375 3.65625 -0.375 3.65625 -0.5625 C 3.65625 -0.78125 3.671875 -0.875 3.78125 -1.3125 C 3.890625 -1.71875 3.90625 -1.828125 4 -2.203125 L 4.359375 -3.59375 C 4.421875 -3.875 4.421875 -3.890625 4.421875 -3.9375 C 4.421875 -4.109375 4.3125 -4.203125 4.140625 -4.203125 C 3.890625 -4.203125 3.75 -3.984375 3.71875 -3.765625 Z M 3.078125 -1.1875 C 3.015625 -1 3.015625 -0.984375 2.875 -0.8125 C 2.4375 -0.265625 2.03125 -0.109375 1.75 -0.109375 C 1.25 -0.109375 1.109375 -0.65625 1.109375 -1.046875 C 1.109375 -1.546875 1.421875 -2.765625 1.65625 -3.234375 C 1.96875 -3.8125 2.40625 -4.1875 2.8125 -4.1875 C 3.453125 -4.1875 3.59375 -3.375 3.59375 -3.3125 C 3.59375 -3.25 3.578125 -3.1875 3.5625 -3.140625 Z M 3.078125 -1.1875 "
           id="path1930" />
      </symbol>
    </g>
    <g
       id="g1044">
      <symbol
         overflow="visible"
         id="symbol9530">
        <path
           style="stroke:none;"
           d=""
           id="path6601" />
      </symbol>
      <symbol
         overflow="visible"
         id="symbol6527">
        <path
           style="stroke:none;"
           d="M 2.375 -6.8125 C 2.375 -6.8125 2.375 -6.921875 2.25 -6.921875 C 2.03125 -6.921875 1.296875 -6.84375 1.03125 -6.8125 C 0.953125 -6.8125 0.84375 -6.796875 0.84375 -6.625 C 0.84375 -6.5 0.9375 -6.5 1.09375 -6.5 C 1.5625 -6.5 1.578125 -6.4375 1.578125 -6.328125 C 1.578125 -6.265625 1.5 -5.921875 1.453125 -5.71875 L 0.625 -2.46875 C 0.515625 -1.96875 0.46875 -1.796875 0.46875 -1.453125 C 0.46875 -0.515625 1 0.109375 1.734375 0.109375 C 2.90625 0.109375 4.140625 -1.375 4.140625 -2.8125 C 4.140625 -3.71875 3.609375 -4.40625 2.8125 -4.40625 C 2.359375 -4.40625 1.9375 -4.109375 1.640625 -3.8125 Z M 1.453125 -3.046875 C 1.5 -3.265625 1.5 -3.28125 1.59375 -3.390625 C 2.078125 -4.03125 2.53125 -4.1875 2.796875 -4.1875 C 3.15625 -4.1875 3.421875 -3.890625 3.421875 -3.25 C 3.421875 -2.65625 3.09375 -1.515625 2.90625 -1.140625 C 2.578125 -0.46875 2.125 -0.109375 1.734375 -0.109375 C 1.390625 -0.109375 1.0625 -0.375 1.0625 -1.109375 C 1.0625 -1.3125 1.0625 -1.5 1.21875 -2.125 Z M 1.453125 -3.046875 "
           id="path375" />
      </symbol>
    </g>
  </defs>
  <g
     inkscape:label="Capa 1"
     inkscape:groupmode="layer"
     id="layer1">
    <path
       id="path6258-7"
       style="fill:#003380;stroke:none;stroke-width:0.3;stroke-linecap:round"
       d="m 209.53694,241.85539 c 0.003,-37.4259 19.96673,-72.00385 52.37068,-90.70868 32.40395,18.71565 52.36753,53.2936 52.36752,90.71409 -32.40709,18.71024 -72.33426,18.71024 -104.7382,-0.005 z"
       sodipodi:nodetypes="cccc"
       inkscape:transform-center-x="-189.68657"
       inkscape:transform-center-y="-105.36992" />
    <path
       id="circle6358-2"
       style="fill:#0055d4;stroke:none;stroke-width:0.3;stroke-linecap:round;stroke-miterlimit:4;stroke-dasharray:none"
       d="m 261.90395,141.56978 a 70.054443,70.054443 0 0 0 -70.05468,70.05469 70.054443,70.054443 0 0 0 70.05468,70.05469 70.054443,70.054443 0 0 0 70.05469,-70.05469 70.054443,70.054443 0 0 0 -70.05469,-70.05469 z m 0.004,9.57617 c 32.40394,18.71564 52.3672,53.29436 52.36719,90.71485 -32.40708,18.71024 -72.33435,18.70978 -104.73828,-0.006 0.003,-37.4259 19.96715,-72.00416 52.37109,-90.70899 z" />
    <path
       id="path6266-3"
       style="fill:#550000;stroke:none;stroke-width:0.3;stroke-linecap:round"
       d="m 288.08927,226.74242 a 52.37067,52.37067 0 0 1 -52.37067,0 l 26.18534,-15.11811 z" />
    <path
       id="path6342-6"
       style="fill:#aa0000;stroke:none;stroke-width:1;stroke-linecap:round;stroke-miterlimit:4;stroke-dasharray:none"
       d="m 235.72491,226.73161 a 52.37067,52.37067 0 0 1 26.18533,-45.35432 l -0.006,30.24702 z" />
    <path
       id="path6302-5"
       style="fill:#800000;stroke:none;stroke-width:0.3;stroke-linecap:round"
       d="m 288.08927,226.74243 a 52.37067,52.37067 0 0 0 -26.18532,-45.35434 l -1e-5,30.23622 z" />
    <path
       id="circle6360-5"
       style="fill:#ff0000;stroke:none;stroke-width:0.3;stroke-linecap:round;stroke-miterlimit:4;stroke-dasharray:none"
       d="m 261.84935,176.74554 a 34.914478,34.914478 0 0 0 -34.91406,34.91406 34.914478,34.914478 0 0 0 34.91406,34.91406 34.914478,34.914478 0 0 0 34.91406,-34.91406 34.914478,34.914478 0 0 0 -34.91406,-34.91406 z m 0.004,4.67187 c 16.20041,9.36052 26.18128,26.64934 26.18164,45.35938 -16.20355,9.35512 -36.1668,9.35662 -52.36719,-0.004 0.003,-18.71564 9.98514,-36.00575 26.18555,-45.35547 z" />
    <g
       inkscape:label=""
       transform="translate(90.620083,169.00553)"
       id="g27">
      <g
         id="g1744">
        <g
           style="fill:#000000;fill-opacity:1"
           id="g8799">
          <use
             xlink:href="#symbol6817"
             x="91.925003"
             y="81.962997"
             id="use7116"
             width="100%"
             height="100%" />
        </g>
      </g>
    </g>
    <g
       inkscape:label=""
       transform="translate(269.02498,180.37431)"
       id="g93">
      <g
         id="g5851">
        <g
           style="fill:#000000;fill-opacity:1"
           id="g6891">
          <use
             xlink:href="#symbol3247"
             x="91.925003"
             y="81.962997"
             id="use2307"
             width="100%"
             height="100%" />
        </g>
      </g>
    </g>
    <g
       inkscape:label=""
       transform="translate(162.11115,48.862706)"
       id="g214">
      <g
         id="g9741">
        <g
           style="fill:#000000;fill-opacity:1"
           id="g1378">
          <use
             xlink:href="#symbol4488"
             x="91.925003"
             y="81.962997"
             id="use7588"
             width="100%"
             height="100%" />
        </g>
      </g>
    </g>
    <path
       style="fill:none;stroke:#000000;stroke-width:0.6;stroke-linecap:butt;stroke-linejoin:miter;stroke-miterlimit:4;stroke-dasharray:none;stroke-opacity:1;marker-start:url(#Arrow1Mstart)"
       d="m 261.85335,120.94488 0,90.70866"
       id="path374"
       sodipodi:nodetypes="cc" />
    <path
       style="fill:none;stroke:#000000;stroke-width:0.6;stroke-linecap:butt;stroke-linejoin:miter;stroke-miterlimit:4;stroke-dasharray:none;stroke-opacity:1;marker-start:url(#Arrow1Mstart)"
       d="M 366.59468,272.12598 261.85335,211.65354"
       id="path376"
       sodipodi:nodetypes="cc" />
    <path
       style="fill:none;stroke:#000000;stroke-width:0.6;stroke-linecap:butt;stroke-linejoin:miter;stroke-miterlimit:4;stroke-dasharray:none;stroke-opacity:1;marker-start:url(#Arrow1Mstart)"
       d="m 183.29734,257.00787 78.55601,-45.35433"
       id="path378"
       sodipodi:nodetypes="cc" />
    <path
       style="fill:none;stroke:#000000;stroke-width:0.1;stroke-linecap:round;stroke-miterlimit:4;stroke-dasharray:none"
       d="m 261.85335,151.15154 v 30.23622 60.47244 30.23622"
       id="path6250" />
    <path
       style="fill:none;stroke:#000000;stroke-width:0.30000001;stroke-linecap:round;stroke-miterlimit:4;stroke-dasharray:0.30000001,0.90000004;stroke-dashoffset:0"
       id="path6256"
       sodipodi:type="arc"
       sodipodi:cx="261.85333"
       sodipodi:cy="272.09644"
       sodipodi:rx="104.74134"
       sodipodi:ry="104.74134"
       sodipodi:start="4.1887902"
       sodipodi:end="5.2359878"
       sodipodi:open="true"
       sodipodi:arc-type="arc"
       d="m 209.48266,181.38777 a 104.74134,104.74134 0 0 1 104.74135,1e-5" />
    <path
       style="fill:none;stroke:#000000;stroke-width:1;stroke-linecap:round;stroke-miterlimit:4;stroke-dasharray:none"
       id="path6258"
       sodipodi:type="arc"
       sodipodi:cx="261.85333"
       sodipodi:cy="151.15154"
       sodipodi:rx="104.74134"
       sodipodi:ry="104.74134"
       sodipodi:start="1.0471976"
       sodipodi:end="2.0943951"
       sodipodi:open="true"
       sodipodi:arc-type="arc"
       d="m 314.224,241.8602 a 104.74134,104.74134 0 0 1 -104.74134,0" />
    <path
       style="fill:none;stroke:#000000;stroke-width:0.30000001;stroke-linecap:round;stroke-miterlimit:4;stroke-dasharray:0.30000001,0.90000004;stroke-dashoffset:0"
       id="path6264"
       sodipodi:type="arc"
       sodipodi:cx="261.85333"
       sodipodi:cy="241.86018"
       sodipodi:rx="52.37067"
       sodipodi:ry="52.37067"
       sodipodi:start="4.1887902"
       sodipodi:end="5.2359878"
       sodipodi:open="true"
       sodipodi:arc-type="arc"
       d="m 235.668,196.50585 a 52.37067,52.37067 0 0 1 52.37067,0" />
    <path
       style="fill:none;stroke:#000000;stroke-width:1;stroke-linecap:round;stroke-miterlimit:4;stroke-dasharray:none"
       id="path6266"
       sodipodi:type="arc"
       sodipodi:cx="261.85333"
       sodipodi:cy="181.38774"
       sodipodi:rx="52.37067"
       sodipodi:ry="52.37067"
       sodipodi:start="1.0471976"
       sodipodi:end="2.0943951"
       sodipodi:open="true"
       sodipodi:arc-type="arc"
       d="m 288.03867,226.74207 a 52.37067,52.37067 0 0 1 -52.37067,0" />
    <path
       style="fill:none;stroke:#000000;stroke-width:0.30000001;stroke-linecap:round;stroke-miterlimit:4;stroke-dasharray:0.30000001,0.90000004;stroke-dashoffset:0"
       id="path6272"
       sodipodi:type="arc"
       sodipodi:cx="226.93887"
       sodipodi:cy="211.62398"
       sodipodi:rx="34.914474"
       sodipodi:ry="34.914474"
       sodipodi:start="2.0943951"
       sodipodi:end="4.1887902"
       sodipodi:open="true"
       sodipodi:arc-type="arc"
       d="M 209.48164,241.8608 A 34.914474,34.914474 0 0 1 192.0244,211.62398 34.914474,34.914474 0 0 1 209.48164,181.38716" />
    <path
       style="fill:none;stroke:#000000;stroke-width:0.30000001;stroke-linecap:round;stroke-miterlimit:4;stroke-dasharray:0.30000001,0.90000004;stroke-dashoffset:0"
       id="path6274"
       sodipodi:type="arc"
       sodipodi:cx="244.39616"
       sodipodi:cy="211.62398"
       sodipodi:rx="17.457291"
       sodipodi:ry="17.457291"
       sodipodi:start="2.0943951"
       sodipodi:end="4.1887902"
       sodipodi:open="true"
       sodipodi:arc-type="arc"
       d="m 235.66752,226.74243 a 17.457291,17.457291 0 0 1 -8.72865,-15.11845 17.457291,17.457291 0 0 1 8.72865,-15.11846" />
    <path
       style="fill:none;stroke:#000000;stroke-width:0.30000001;stroke-linecap:round;stroke-miterlimit:4;stroke-dasharray:0.30000001,0.90000004;stroke-dashoffset:0"
       id="path6276"
       transform="scale(-1,1)"
       sodipodi:type="arc"
       sodipodi:cx="-296.8179"
       sodipodi:cy="211.62398"
       sodipodi:rx="34.914474"
       sodipodi:ry="34.914474"
       sodipodi:start="2.0943951"
       sodipodi:end="4.1887902"
       sodipodi:open="true"
       sodipodi:arc-type="arc"
       d="m -314.27514,241.8608 a 34.914474,34.914474 0 0 1 -17.45724,-30.23682 34.914474,34.914474 0 0 1 17.45724,-30.23682" />
    <path
       style="fill:none;stroke:#000000;stroke-width:0.30000001;stroke-linecap:round;stroke-miterlimit:4;stroke-dasharray:0.30000001,0.90000004;stroke-dashoffset:0"
       id="path6278"
       transform="scale(-1,1)"
       sodipodi:type="arc"
       sodipodi:cx="-279.36063"
       sodipodi:cy="211.62398"
       sodipodi:rx="17.457291"
       sodipodi:ry="17.457291"
       sodipodi:start="2.0943951"
       sodipodi:end="4.1887902"
       sodipodi:open="true"
       sodipodi:arc-type="arc"
       d="m -288.08927,226.74243 a 17.457291,17.457291 0 0 1 -8.72865,-15.11845 17.457291,17.457291 0 0 1 8.72865,-15.11846" />
    <path
       style="fill:none;stroke:#000000;stroke-width:0.1;stroke-linecap:round;stroke-miterlimit:4;stroke-dasharray:none"
       d="m 261.85335,151.15155 -10e-6,30.23621 0,60.47244 10e-6,30.23623"
       id="path6292" />
    <path
       style="fill:none;stroke:#000000;stroke-width:1;stroke-linecap:round;stroke-miterlimit:4;stroke-dasharray:none"
       id="path6294"
       sodipodi:type="arc"
       sodipodi:cx="314.19839"
       sodipodi:cy="-60.487213"
       sodipodi:rx="104.74134"
       sodipodi:ry="104.74134"
       sodipodi:start="4.1887902"
       sodipodi:end="5.2359878"
       sodipodi:open="true"
       sodipodi:arc-type="arc"
       d="m 261.82772,-151.19587 a 104.74134,104.74134 0 0 1 104.74135,0"
       transform="rotate(60)" />
    <path
       style="fill:none;stroke:#000000;stroke-width:0.30000001;stroke-linecap:round;stroke-miterlimit:4;stroke-dasharray:0.30000001,0.90000004;stroke-dashoffset:0"
       id="path6296"
       sodipodi:type="arc"
       sodipodi:cx="314.19839"
       sodipodi:cy="-181.4321"
       sodipodi:rx="104.74134"
       sodipodi:ry="104.74134"
       sodipodi:start="1.0471976"
       sodipodi:end="2.0943951"
       sodipodi:open="true"
       sodipodi:arc-type="arc"
       d="m 366.56906,-90.723434 a 104.74134,104.74134 0 0 1 -104.74134,-2e-6"
       transform="rotate(60)" />
    <path
       style="fill:none;stroke:#000000;stroke-width:1;stroke-linecap:round;stroke-miterlimit:4;stroke-dasharray:none"
       id="path6302"
       sodipodi:type="arc"
       sodipodi:cx="314.19839"
       sodipodi:cy="-90.72345"
       sodipodi:rx="52.37067"
       sodipodi:ry="52.37067"
       sodipodi:start="4.1887902"
       sodipodi:end="5.2359878"
       sodipodi:open="true"
       sodipodi:arc-type="arc"
       d="m 288.01306,-136.07778 a 52.37067,52.37067 0 0 1 52.37067,0"
       transform="rotate(60)" />
    <path
       style="fill:none;stroke:#000000;stroke-width:0.30000001;stroke-linecap:round;stroke-miterlimit:4;stroke-dasharray:0.30000001,0.90000004;stroke-dashoffset:0"
       id="path6304"
       sodipodi:type="arc"
       sodipodi:cx="314.19839"
       sodipodi:cy="-151.19589"
       sodipodi:rx="52.37067"
       sodipodi:ry="52.37067"
       sodipodi:start="1.0471976"
       sodipodi:end="2.0943951"
       sodipodi:open="true"
       sodipodi:arc-type="arc"
       d="m 340.38373,-105.84156 a 52.37067,52.37067 0 0 1 -52.37067,0"
       transform="rotate(60)" />
    <path
       style="fill:none;stroke:#000000;stroke-width:0.30000001;stroke-linecap:round;stroke-miterlimit:4;stroke-dasharray:0.30000001,0.90000004;stroke-dashoffset:0"
       id="path6310"
       sodipodi:type="arc"
       sodipodi:cx="279.28394"
       sodipodi:cy="-120.95966"
       sodipodi:rx="34.914474"
       sodipodi:ry="34.914474"
       sodipodi:start="2.0943951"
       sodipodi:end="4.1887902"
       sodipodi:open="true"
       sodipodi:arc-type="arc"
       d="m 261.8267,-90.722841 a 34.914474,34.914474 0 0 1 -17.45724,-30.236819 34.914474,34.914474 0 0 1 17.45724,-30.23683"
       transform="rotate(60)" />
    <path
       style="fill:none;stroke:#000000;stroke-width:0.3;stroke-linecap:round;stroke-miterlimit:4;stroke-dasharray:0.3,0.9;stroke-dashoffset:0"
       id="path6312"
       sodipodi:type="arc"
       sodipodi:cx="296.74124"
       sodipodi:cy="-120.95966"
       sodipodi:rx="17.457291"
       sodipodi:ry="17.457291"
       sodipodi:start="2.0943951"
       sodipodi:end="4.1887902"
       sodipodi:open="true"
       sodipodi:arc-type="arc"
       d="m 288.0126,-105.84121 a 17.457291,17.457291 0 0 1 -8.72865,-15.11845 17.457291,17.457291 0 0 1 8.72865,-15.11846"
       transform="rotate(60)" />
    <path
       style="fill:none;stroke:#000000;stroke-width:0.30000001;stroke-linecap:round;stroke-miterlimit:4;stroke-dasharray:0.30000001,0.90000004;stroke-dashoffset:0"
       id="path6314"
       transform="matrix(-0.5,-0.8660254,-0.8660254,0.5,0,0)"
       sodipodi:type="arc"
       sodipodi:cx="-349.16296"
       sodipodi:cy="-120.95966"
       sodipodi:rx="34.914474"
       sodipodi:ry="34.914474"
       sodipodi:start="2.0943951"
       sodipodi:end="4.1887902"
       sodipodi:open="true"
       sodipodi:arc-type="arc"
       d="m -366.6202,-90.722841 a 34.914474,34.914474 0 0 1 -17.45724,-30.236819 34.914474,34.914474 0 0 1 17.45724,-30.23683" />
    <path
       style="fill:none;stroke:#000000;stroke-width:0.30000001;stroke-linecap:round;stroke-miterlimit:4;stroke-dasharray:0.30000001,0.90000004;stroke-dashoffset:0"
       id="path6316"
       transform="matrix(-0.5,-0.8660254,-0.8660254,0.5,0,0)"
       sodipodi:type="arc"
       sodipodi:cx="-331.70569"
       sodipodi:cy="-120.95966"
       sodipodi:rx="17.457291"
       sodipodi:ry="17.457291"
       sodipodi:start="2.0943951"
       sodipodi:end="4.1887902"
       sodipodi:open="true"
       sodipodi:arc-type="arc"
       d="m -340.43433,-105.84121 a 17.457291,17.457291 0 0 1 -8.72865,-15.11845 17.457291,17.457291 0 0 1 8.72865,-15.11846" />
    <path
       style="fill:none;stroke:#000000;stroke-width:0.1;stroke-linecap:round;stroke-miterlimit:4;stroke-dasharray:none"
       d="m 261.8596,151.14071 0,30.23622 0,60.47244 -10e-6,30.23623"
       id="path6328" />
    <path
       style="fill:none;stroke:#000000;stroke-width:0.30000001;stroke-linecap:round;stroke-miterlimit:4;stroke-dasharray:0.30000001,0.90000004;stroke-dashoffset:0"
       id="path6332"
       sodipodi:type="arc"
       sodipodi:cx="52.332554"
       sodipodi:cy="-272.11121"
       sodipodi:rx="104.74134"
       sodipodi:ry="104.74134"
       sodipodi:start="4.1887902"
       sodipodi:end="5.2359878"
       sodipodi:open="true"
       sodipodi:arc-type="arc"
       d="m -0.03811689,-362.81987 a 104.74134,104.74134 0 0 1 104.74134689,0"
       transform="rotate(120)" />
    <path
       style="fill:none;stroke:#000000;stroke-width:1;stroke-linecap:round;stroke-miterlimit:4;stroke-dasharray:none"
       id="path6334"
       sodipodi:type="arc"
       sodipodi:cx="52.332554"
       sodipodi:cy="-393.05609"
       sodipodi:rx="104.74134"
       sodipodi:ry="104.74134"
       sodipodi:start="1.0471976"
       sodipodi:end="2.0943951"
       sodipodi:open="true"
       sodipodi:arc-type="arc"
       d="m 104.70322,-302.34743 a 104.74134,104.74134 0 0 1 -104.74133624,0"
       transform="rotate(120)" />
    <path
       style="fill:none;stroke:#000000;stroke-width:0.30000001;stroke-linecap:round;stroke-miterlimit:4;stroke-dasharray:0.30000001,0.90000004;stroke-dashoffset:0"
       id="path6340"
       sodipodi:type="arc"
       sodipodi:cx="52.332554"
       sodipodi:cy="-302.34744"
       sodipodi:rx="52.37067"
       sodipodi:ry="52.37067"
       sodipodi:start="4.1887902"
       sodipodi:end="5.2359878"
       sodipodi:open="true"
       sodipodi:arc-type="arc"
       d="m 26.147218,-347.70177 a 52.37067,52.37067 0 0 1 52.370673,0"
       transform="rotate(120)" />
    <path
       style="fill:none;stroke:#000000;stroke-width:1;stroke-linecap:round;stroke-miterlimit:4;stroke-dasharray:none"
       id="path6342"
       sodipodi:type="arc"
       sodipodi:cx="52.332554"
       sodipodi:cy="-362.81989"
       sodipodi:rx="52.37067"
       sodipodi:ry="52.37067"
       sodipodi:start="1.0471976"
       sodipodi:end="2.0943951"
       sodipodi:open="true"
       sodipodi:arc-type="arc"
       d="m 78.517887,-317.46555 a 52.37067,52.37067 0 0 1 -52.370668,0"
       transform="rotate(120)" />
    <path
       style="fill:none;stroke:#000000;stroke-width:0.30000001;stroke-linecap:round;stroke-miterlimit:4;stroke-dasharray:0.30000001,0.90000004;stroke-dashoffset:0"
       id="path6348"
       sodipodi:type="arc"
       sodipodi:cx="17.418093"
       sodipodi:cy="-332.58365"
       sodipodi:rx="34.914474"
       sodipodi:ry="34.914474"
       sodipodi:start="2.0943951"
       sodipodi:end="4.1887902"
       sodipodi:open="true"
       sodipodi:arc-type="arc"
       d="M -0.03914444,-302.34683 A 34.914474,34.914474 0 0 1 -17.496382,-332.58365 34.914474,34.914474 0 0 1 -0.03914466,-362.82047"
       transform="rotate(120)" />
    <path
       style="fill:none;stroke:#000000;stroke-width:0.30000001;stroke-linecap:round;stroke-miterlimit:4;stroke-dasharray:0.30000001,0.90000004;stroke-dashoffset:0"
       id="path6350"
       sodipodi:type="arc"
       sodipodi:cx="34.875385"
       sodipodi:cy="-332.58365"
       sodipodi:rx="17.457291"
       sodipodi:ry="17.457291"
       sodipodi:start="2.0943951"
       sodipodi:end="4.1887902"
       sodipodi:open="true"
       sodipodi:arc-type="arc"
       d="m 26.14674,-317.46519 a 17.457291,17.457291 0 0 1 -8.728645,-15.11846 17.457291,17.457291 0 0 1 8.728645,-15.11846"
       transform="rotate(120)" />
    <path
       style="fill:none;stroke:#000000;stroke-width:0.30000001;stroke-linecap:round;stroke-miterlimit:4;stroke-dasharray:0.30000001,0.90000004;stroke-dashoffset:0"
       id="path6352"
       transform="matrix(0.5,-0.8660254,-0.8660254,-0.5,0,0)"
       sodipodi:type="arc"
       sodipodi:cx="-87.297119"
       sodipodi:cy="-332.58365"
       sodipodi:rx="34.914474"
       sodipodi:ry="34.914474"
       sodipodi:start="2.0943951"
       sodipodi:end="4.1887902"
       sodipodi:open="true"
       sodipodi:arc-type="arc"
       d="m -104.75436,-302.34683 a 34.914474,34.914474 0 0 1 -17.45723,-30.23682 34.914474,34.914474 0 0 1 17.45723,-30.23682" />
    <path
       style="fill:none;stroke:#000000;stroke-width:0.30000001;stroke-linecap:round;stroke-miterlimit:4;stroke-dasharray:0.30000001,0.90000004;stroke-dashoffset:0"
       id="path6354"
       transform="matrix(0.5,-0.8660254,-0.8660254,-0.5,0,0)"
       sodipodi:type="arc"
       sodipodi:cx="-69.839844"
       sodipodi:cy="-332.58365"
       sodipodi:rx="17.457291"
       sodipodi:ry="17.457291"
       sodipodi:start="2.0943951"
       sodipodi:end="4.1887902"
       sodipodi:open="true"
       sodipodi:arc-type="arc"
       d="m -78.568489,-317.46519 a 17.457291,17.457291 0 0 1 -8.728645,-15.11846 17.457291,17.457291 0 0 1 8.728645,-15.11846" />
    <circle
       style="fill:none;stroke:#000000;stroke-width:1;stroke-linecap:round;stroke-miterlimit:4;stroke-dasharray:none"
       id="circle6358"
       cx="261.85336"
       cy="211.62398"
       r="70.054443" />
    <circle
       style="fill:none;stroke:#000000;stroke-width:1;stroke-linecap:round;stroke-miterlimit:4;stroke-dasharray:none"
       id="circle6360"
       cx="261.85336"
       cy="211.62398"
       r="34.914478" />
    <g
       inkscape:label=""
       transform="translate(235.44501,189.83065)"
       id="g13524">
      <g
         id="g5962">
        <g
           style="fill:#000000;fill-opacity:1"
           id="g307">
          <use
             xlink:href="#symbol7348"
             x="91.925003"
             y="81.962997"
             id="use5283"
             width="100%"
             height="100%" />
        </g>
      </g>
    </g>
    <g
       inkscape:label=""
       transform="translate(235.91275,208.98141)"
       id="g13728">
      <g
         id="g8462">
        <g
           style="fill:#000000;fill-opacity:1"
           id="g602">
          <use
             xlink:href="#symbol6527"
             x="91.925003"
             y="81.962997"
             id="use3578"
             width="100%"
             height="100%" />
        </g>
      </g>
    </g>
    <path
       style="fill:none;stroke:#000000;stroke-width:0.6;stroke-linecap:round;stroke-miterlimit:4;stroke-dasharray:none;stroke-dashoffset:0"
       d="m 222.57534,249.44881 78.55601,45.35433"
       id="path13965"
       sodipodi:nodetypes="cc" />
    <path
       style="fill:none;stroke:#000000;stroke-width:0.6;stroke-linecap:round;stroke-miterlimit:4;stroke-dasharray:none;stroke-dashoffset:0"
       d="m 248.76068,234.33071 65.46334,37.79527"
       id="path14273"
       sodipodi:nodetypes="cc" />
    <path
       style="fill:none;stroke:#000000;stroke-width:0.6;stroke-linecap:round;stroke-miterlimit:4;stroke-dasharray:none;stroke-dashoffset:0;marker-start:url(#marker1203);marker-end:url(#Arrow2Mend)"
       d="m 314.22402,272.12598 26.18533,-15.11811"
       id="path14597" />
    <path
       style="fill:none;stroke:#000000;stroke-width:0.6;stroke-linecap:round;stroke-miterlimit:4;stroke-dasharray:none;stroke-dashoffset:0;marker-start:url(#marker1203);marker-end:url(#Arrow2Mend)"
       d="m 301.13135,294.80314 52.37066,-30.23621"
       id="path1403"
       sodipodi:nodetypes="cc" />
  </g>
</svg>
