<?xml version="1.0" encoding="UTF-8" standalone="no"?>
<!-- Created with Inkscape (http://www.inkscape.org/) -->

<svg
   width="100.00001"
   height="90.000008"
   viewBox="0 0 26.458335 23.812502"
   version="1.1"
   id="svg1"
   inkscape:version="1.3.2 (091e20ef0f, 2023-11-25)"
   sodipodi:docname="figura02_22.svg"
   xmlns:inkscape="http://www.inkscape.org/namespaces/inkscape"
   xmlns:sodipodi="http://sodipodi.sourceforge.net/DTD/sodipodi-0.dtd"
   xmlns="http://www.w3.org/2000/svg"
   xmlns:svg="http://www.w3.org/2000/svg">
  <sodipodi:namedview
     id="namedview1"
     pagecolor="#ffffff"
     bordercolor="#000000"
     borderopacity="0.25"
     inkscape:showpageshadow="false"
     inkscape:pageopacity="0.0"
     inkscape:pagecheckerboard="0"
     inkscape:deskcolor="#d1d1d1"
     inkscape:document-units="px"
     showborder="true"
     borderlayer="false"
     showgrid="true"
     inkscape:zoom="4"
     inkscape:cx="48.25"
     inkscape:cy="33.75"
     inkscape:window-width="1920"
     inkscape:window-height="1046"
     inkscape:window-x="1920"
     inkscape:window-y="18"
     inkscape:window-maximized="1"
     inkscape:current-layer="layer1"
     showguides="false">
    <inkscape:grid
       id="grid1"
       units="px"
       originx="-26.458336"
       originy="-52.91667"
       spacingx="1.3229167"
       spacingy="1.3229167"
       empcolor="#0099e5"
       empopacity="0.30196078"
       color="#0099e5"
       opacity="0.14901961"
       empspacing="4"
       dotted="false"
       gridanglex="30"
       gridanglez="30"
       visible="true" />
    <sodipodi:guide
       position="26.458334,48.947921"
       orientation="0,-1"
       id="guide51"
       inkscape:locked="false" />
    <sodipodi:guide
       position="26.458334,52.916671"
       orientation="0,1"
       id="guide52"
       inkscape:locked="false" />
    <sodipodi:guide
       position="26.458335,52.916671"
       orientation="1,0"
       id="guide53"
       inkscape:locked="false" />
    <sodipodi:guide
       position="42.333335,52.916671"
       orientation="1,0"
       id="guide54"
       inkscape:locked="false" />
    <sodipodi:guide
       position="13.229167,39.687504"
       orientation="0,-1"
       id="guide55"
       inkscape:locked="false" />
    <sodipodi:guide
       position="13.229167,23.812503"
       orientation="0,-1"
       id="guide56"
       inkscape:locked="false" />
    <sodipodi:guide
       position="13.229167,23.812503"
       orientation="1,0"
       id="guide57"
       inkscape:locked="false" />
    <sodipodi:guide
       position="17.197917,23.812502"
       orientation="1,0"
       id="guide58"
       inkscape:locked="false" />
  </sodipodi:namedview>
  <defs
     id="defs1" />
  <g
     inkscape:label="Capa 1"
     inkscape:groupmode="layer"
     id="layer1"
     transform="translate(-26.4583,-52.916634)">
    <path
       id="path8"
       style="fill:#ffd5d5;stroke:none;stroke-width:0.132292;stroke-linejoin:round;stroke-dasharray:none;stroke-dashoffset:0"
       d="M 50.270837,58.208338 H 34.395836 l 10e-7,15.875001 15.875,-10e-7 z"
       sodipodi:nodetypes="ccccc" />
    <path
       style="fill:none;stroke:#000000;stroke-width:0.0793308;stroke-linejoin:round;stroke-dasharray:none;stroke-dashoffset:0"
       d="M 38.368996,58.217155 V 74.083338"
       id="path22"
       sodipodi:nodetypes="cc" />
    <path
       style="fill:none;stroke:#000000;stroke-width:0.0793308;stroke-linejoin:round;stroke-dasharray:none;stroke-dashoffset:0"
       d="M 42.33554,58.217155 V 74.083338"
       id="path23"
       sodipodi:nodetypes="cc" />
    <path
       style="fill:none;stroke:#000000;stroke-width:0.0793308;stroke-linejoin:round;stroke-dasharray:none;stroke-dashoffset:0"
       d="M 46.302086,58.217155 V 74.083338"
       id="path24"
       sodipodi:nodetypes="cc" />
    <path
       style="fill:none;stroke:#000000;stroke-width:0.0793308;stroke-linejoin:round;stroke-dasharray:none;stroke-dashoffset:0"
       d="M 34.40245,62.183705 H 50.268632"
       id="path49"
       sodipodi:nodetypes="cc" />
    <path
       style="fill:none;stroke:#000000;stroke-width:0.0793308;stroke-linejoin:round;stroke-dasharray:none;stroke-dashoffset:0"
       d="M 34.40245,66.150251 H 50.268632"
       id="path50"
       sodipodi:nodetypes="cc" />
    <path
       style="fill:none;stroke:#000000;stroke-width:0.0793308;stroke-linejoin:round;stroke-dasharray:none;stroke-dashoffset:0"
       d="M 34.40245,70.116798 H 50.268632"
       id="path51"
       sodipodi:nodetypes="cc" />
    <circle
       style="fill:#000000;stroke:none;stroke-width:0.0793308;stroke-linejoin:round;stroke-dasharray:none"
       id="circle385"
       cx="38.369003"
       cy="62.183678"
       r="0.54274905" />
    <circle
       style="fill:#000000;stroke:none;stroke-width:0.0793308;stroke-linejoin:round;stroke-dasharray:none"
       id="circle386"
       cx="42.335552"
       cy="62.183678"
       r="0.54274905" />
    <circle
       style="fill:#000000;stroke:none;stroke-width:0.0793308;stroke-linejoin:round;stroke-dasharray:none"
       id="circle387"
       cx="46.302101"
       cy="62.183678"
       r="0.54274905" />
    <circle
       style="fill:#000000;stroke:none;stroke-width:0.0793308;stroke-linejoin:round;stroke-dasharray:none"
       id="circle408"
       cx="38.369003"
       cy="66.150261"
       r="0.54274905" />
    <circle
       style="fill:#000000;stroke:none;stroke-width:0.0793308;stroke-linejoin:round;stroke-dasharray:none"
       id="circle409"
       cx="42.335552"
       cy="66.150261"
       r="0.54274905" />
    <circle
       style="fill:#000000;stroke:none;stroke-width:0.0793308;stroke-linejoin:round;stroke-dasharray:none"
       id="circle410"
       cx="46.302101"
       cy="66.150261"
       r="0.54274905" />
    <circle
       style="fill:#000000;stroke:none;stroke-width:0.0793308;stroke-linejoin:round;stroke-dasharray:none"
       id="circle431"
       cx="38.369003"
       cy="70.116821"
       r="0.54274905" />
    <circle
       style="fill:#000000;stroke:none;stroke-width:0.0793308;stroke-linejoin:round;stroke-dasharray:none"
       id="circle432"
       cx="42.335552"
       cy="70.116821"
       r="0.54274905" />
    <circle
       style="fill:#000000;stroke:none;stroke-width:0.0793308;stroke-linejoin:round;stroke-dasharray:none"
       id="circle433"
       cx="46.302101"
       cy="70.116821"
       r="0.54274905" />
    <text
       xml:space="preserve"
       style="font-size:1.41111px;font-family:Futura;-inkscape-font-specification:'Futura, Normal';fill:#000000;stroke:none;stroke-width:0.132292;stroke-linejoin:round"
       x="42.841614"
       y="65.58493"
       id="text1"><tspan
         sodipodi:role="line"
         id="tspan1"
         style="fill:#000000;stroke:none;stroke-width:0.132292"
         x="42.841614"
         y="65.58493">0</tspan></text>
    <text
       xml:space="preserve"
       style="font-size:1.41111px;font-family:Futura;-inkscape-font-specification:'Futura, Normal';fill:#000000;stroke:none;stroke-width:0.132292;stroke-linejoin:round"
       x="38.738186"
       y="65.607513"
       id="text2"><tspan
         sodipodi:role="line"
         id="tspan2"
         style="stroke-width:0.132292"
         x="38.738186"
         y="65.607513">1</tspan></text>
    <text
       xml:space="preserve"
       style="font-size:1.41111px;font-family:Futura;-inkscape-font-specification:'Futura, Normal';fill:#000000;stroke:none;stroke-width:0.132292;stroke-linejoin:round"
       x="42.8148"
       y="69.574074"
       id="text3"><tspan
         sodipodi:role="line"
         id="tspan3"
         style="stroke-width:0.132292"
         x="42.8148"
         y="69.574074">2</tspan></text>
    <text
       xml:space="preserve"
       style="font-size:1.41111px;font-family:Futura;-inkscape-font-specification:'Futura, Normal';fill:#000000;stroke:none;stroke-width:0.132292;stroke-linejoin:round"
       x="46.770061"
       y="65.58493"
       id="text4"><tspan
         sodipodi:role="line"
         id="tspan4"
         style="stroke-width:0.132292"
         x="46.770061"
         y="65.58493">3</tspan></text>
    <text
       xml:space="preserve"
       style="font-size:1.41111px;font-family:Futura;-inkscape-font-specification:'Futura, Normal';fill:#000000;stroke:none;stroke-width:0.132292;stroke-linejoin:round"
       x="42.868423"
       y="61.64093"
       id="text5"><tspan
         sodipodi:role="line"
         id="tspan5"
         style="stroke-width:0.132292"
         x="42.868423"
         y="61.64093">4</tspan></text>
    <g
       inkscape:label=""
       transform="translate(38.87978,54.663985)"
       id="g15">
      <g
         fill="#000000"
         fill-opacity="1"
         id="g12"
         transform="matrix(0.352778,0,0,0.352778,-0.851914,-0.639013)">
        <g
           id="g11"
           transform="translate(1.993,6.0770001)">
          <path
             d="m 3.203125,-4.140625 c -0.0625,-0.109375 -0.109375,-0.125 -0.21875,-0.125 -0.109375,0 -0.15625,0.03125 -0.203125,0.125 L 0.453125,-0.15625 c 0,0.015625 -0.03125,0.0625 -0.03125,0.09375 C 0.421875,0 0.484375,0 0.578125,0 H 5.40625 C 5.5,0 5.546875,0 5.546875,-0.0625 c 0,-0.015625 0,-0.046875 -0.015625,-0.078125 z m -0.421875,0.46875 1.828125,3.15625 h -3.65625 z m 0,0"
             id="path10" />
        </g>
      </g>
      <g
         fill="#000000"
         fill-opacity="1"
         id="g14"
         transform="matrix(0.352778,0,0,0.352778,-0.851914,-0.639013)">
        <g
           id="g13"
           transform="translate(7.9699998,6.0770001)">
          <path
             d="m 3.375,-2.359375 c -0.21875,0.0625 -0.265625,0.234375 -0.265625,0.328125 0,0.1875 0.15625,0.234375 0.234375,0.234375 0.1875,0 0.359375,-0.140625 0.359375,-0.375 0,-0.328125 -0.359375,-0.46875 -0.65625,-0.46875 -0.40625,0 -0.640625,0.3125 -0.703125,0.421875 -0.078125,-0.15625 -0.3125,-0.421875 -0.765625,-0.421875 -0.6875,0 -1.09375,0.71875 -1.09375,0.921875 0,0.03125 0.03125,0.078125 0.109375,0.078125 0.09375,0 0.109375,-0.03125 0.125,-0.078125 0.15625,-0.484375 0.5625,-0.71875 0.84375,-0.71875 0.296875,0 0.390625,0.1875 0.390625,0.390625 0,0.0625 0,0.125 -0.046875,0.3125 -0.140625,0.546875 -0.265625,1.09375 -0.296875,1.171875 -0.09375,0.21875 -0.3125,0.421875 -0.5625,0.421875 -0.03125,0 -0.203125,0 -0.34375,-0.09375 C 0.9375,-0.3125 0.96875,-0.5 0.96875,-0.546875 c 0,-0.15625 -0.125,-0.234375 -0.25,-0.234375 -0.15625,0 -0.34375,0.125 -0.34375,0.375 0,0.34375 0.375,0.46875 0.65625,0.46875 0.34375,0 0.59375,-0.234375 0.703125,-0.421875 0.125,0.25 0.40625,0.421875 0.75,0.421875 0.703125,0 1.09375,-0.734375 1.09375,-0.921875 0,-0.015625 0,-0.09375 -0.109375,-0.09375 -0.078125,0 -0.09375,0.046875 -0.109375,0.109375 C 3.1875,-0.328125 2.765625,-0.140625 2.5,-0.140625 c -0.21875,0 -0.375,-0.125 -0.375,-0.375 0,-0.125 0.015625,-0.25 0.078125,-0.453125 L 2.390625,-1.75 c 0.0625,-0.234375 0.09375,-0.34375 0.21875,-0.484375 C 2.6875,-2.328125 2.84375,-2.4375 3.03125,-2.4375 c 0.03125,0 0.203125,0 0.34375,0.078125 z m 0,0"
             id="path12" />
        </g>
      </g>
    </g>
    <g
       inkscape:label=""
       transform="translate(28.858051,63.296017)"
       id="g20">
      <g
         fill="#000000"
         fill-opacity="1"
         id="g17"
         transform="matrix(0.352778,0,0,0.352778,-0.851914,-0.639013)">
        <g
           id="g16"
           transform="translate(1.993,6.0770001)">
          <path
             d="m 3.203125,-4.140625 c -0.0625,-0.109375 -0.109375,-0.125 -0.21875,-0.125 -0.109375,0 -0.15625,0.03125 -0.203125,0.125 L 0.453125,-0.15625 c 0,0.015625 -0.03125,0.0625 -0.03125,0.09375 C 0.421875,0 0.484375,0 0.578125,0 H 5.40625 C 5.5,0 5.546875,0 5.546875,-0.0625 c 0,-0.015625 0,-0.046875 -0.015625,-0.078125 z m -0.421875,0.46875 1.828125,3.15625 h -3.65625 z m 0,0"
             id="path15" />
        </g>
      </g>
      <g
         fill="#000000"
         fill-opacity="1"
         id="g19"
         transform="matrix(0.352778,0,0,0.352778,-0.851914,-0.639013)">
        <g
           id="g18"
           transform="translate(7.9699998,6.0770001)">
          <path
             d="m 3.5625,-2.296875 c 0.015625,-0.046875 0.015625,-0.0625 0.015625,-0.078125 0,-0.078125 -0.046875,-0.203125 -0.203125,-0.203125 -0.109375,0 -0.203125,0.0625 -0.25,0.15625 -0.03125,0.03125 -0.0625,0.21875 -0.09375,0.328125 l -0.3125,1.25 c -0.046875,0.171875 -0.0625,0.265625 -0.3125,0.484375 -0.0625,0.0625 -0.25,0.21875 -0.515625,0.21875 -0.4375,0 -0.4375,-0.390625 -0.4375,-0.5 0,-0.25 0.078125,-0.53125 0.34375,-1.1875 0.046875,-0.140625 0.0625,-0.1875 0.0625,-0.296875 0,-0.328125 -0.296875,-0.515625 -0.59375,-0.515625 -0.609375,0 -0.90625,0.796875 -0.90625,0.921875 0,0.03125 0.03125,0.078125 0.109375,0.078125 0.09375,0 0.109375,-0.03125 0.125,-0.078125 C 0.765625,-2.296875 1.078125,-2.4375 1.25,-2.4375 c 0.109375,0 0.15625,0.078125 0.15625,0.21875 0,0.125 -0.078125,0.328125 -0.140625,0.484375 -0.21875,0.53125 -0.28125,0.796875 -0.28125,1.015625 0,0.5625 0.421875,0.78125 0.890625,0.78125 0.078125,0 0.359375,0 0.6875,-0.28125 -0.078125,0.328125 -0.140625,0.5625 -0.421875,0.875 -0.109375,0.125 -0.375,0.359375 -0.734375,0.359375 -0.0625,0 -0.3125,0 -0.453125,-0.15625 C 1.21875,0.8125 1.25,0.578125 1.25,0.53125 1.25,0.359375 1.125,0.296875 1,0.296875 c -0.140625,0 -0.34375,0.125 -0.34375,0.390625 0,0.296875 0.28125,0.53125 0.75,0.53125 C 2.046875,1.21875 2.8125,0.75 2.984375,0 Z m 0,0"
             id="path17" />
        </g>
      </g>
    </g>
    <path
       style="fill:none;stroke:#000000;stroke-width:0.132292;stroke-linejoin:round"
       d="M 38.36455,56.885384 H 42.3333"
       id="path20" />
    <path
       style="fill:none;stroke:#000000;stroke-width:0.132292;stroke-linejoin:round"
       d="m 33.072883,62.17705 v 3.968752"
       id="path21" />
    <path
       style="fill:none;stroke:#000000;stroke-width:0.132292;stroke-linejoin:round"
       d="M 33.59489,62.17705 H 32.594434"
       id="path25" />
    <path
       style="fill:none;stroke:#000000;stroke-width:0.132292;stroke-linejoin:round"
       d="M 33.59489,66.145801 H 32.594434"
       id="path26" />
    <path
       style="fill:none;stroke:#000000;stroke-width:0.132292;stroke-linejoin:round"
       d="m 38.36455,56.548851 v 0.744141"
       id="path27" />
    <path
       style="fill:none;stroke:#000000;stroke-width:0.132292;stroke-linejoin:round"
       d="m 42.3333,56.548851 v 0.744141"
       id="path28" />
  </g>
</svg>
