<?xml version="1.0" encoding="UTF-8" standalone="no"?>
<!-- Created with Inkscape (http://www.inkscape.org/) -->

<svg
   width="57mm"
   height="39.999996mm"
   viewBox="0 0 215.43308 151.18109"
   version="1.1"
   id="svg1"
   inkscape:version="1.3.2 (091e20ef0f, 2023-11-25)"
   sodipodi:docname="figura02_08.svg"
   xmlns:inkscape="http://www.inkscape.org/namespaces/inkscape"
   xmlns:sodipodi="http://sodipodi.sourceforge.net/DTD/sodipodi-0.dtd"
   xmlns="http://www.w3.org/2000/svg"
   xmlns:svg="http://www.w3.org/2000/svg">
  <sodipodi:namedview
     id="namedview1"
     pagecolor="#ffffff"
     bordercolor="#000000"
     borderopacity="0.25"
     inkscape:showpageshadow="2"
     inkscape:pageopacity="0.0"
     inkscape:pagecheckerboard="0"
     inkscape:deskcolor="#d1d1d1"
     inkscape:document-units="mm"
     showgrid="true"
     inkscape:zoom="3.0003928"
     inkscape:cx="121.65074"
     inkscape:cy="72.990443"
     inkscape:window-width="1920"
     inkscape:window-height="1046"
     inkscape:window-x="1920"
     inkscape:window-y="18"
     inkscape:window-maximized="1"
     inkscape:current-layer="layer1">
    <inkscape:grid
       id="grid1"
       units="mm"
       originx="-86.929139"
       originy="-226.77166"
       spacingx="3.7795276"
       spacingy="3.7795276"
       empcolor="#0099e5"
       empopacity="0.30196078"
       color="#0099e5"
       opacity="0.14901961"
       empspacing="5"
       dotted="false"
       gridanglex="30"
       gridanglez="30"
       visible="true" />
  </sodipodi:namedview>
  <defs
     id="defs1">
    <marker
       style="overflow:visible"
       id="ArrowWide"
       refX="0"
       refY="0"
       orient="auto-start-reverse"
       inkscape:stockid="Wide arrow"
       markerWidth="1"
       markerHeight="1"
       viewBox="0 0 1 1"
       inkscape:isstock="true"
       inkscape:collect="always"
       preserveAspectRatio="xMidYMid">
      <path
         style="fill:none;stroke:context-stroke;stroke-width:1;stroke-linecap:butt"
         d="M 3,-3 0,0 3,3"
         transform="rotate(180,0.125,0)"
         sodipodi:nodetypes="ccc"
         id="path29" />
    </marker>
  </defs>
  <g
     inkscape:label="Capa 1"
     inkscape:groupmode="layer"
     id="layer1"
     transform="translate(-86.929138,-226.77167)">
    <path
       style="fill:#cccccc;fill-opacity:0.504962;stroke:none;stroke-width:0.990236;stroke-linecap:round;stroke-linejoin:round"
       d="m 170.07874,245.6693 c 0,0 7.55906,-7.55905 18.89764,0 11.33858,7.55906 18.89764,0 18.89764,0 v 56.69292 c 0,0 -7.55906,7.55905 -18.89764,0 -11.33858,-7.55906 -18.89764,0 -18.89764,0 z"
       id="path48"
       sodipodi:nodetypes="czcczcc" />
    <path
       style="fill:#cccccc;fill-opacity:0.504962;stroke:none;stroke-width:0.990236;stroke-linecap:round;stroke-linejoin:round"
       d="m 207.87402,283.46458 c 0,0 7.55906,-7.55905 18.89764,0 11.33858,7.55906 18.89764,0 18.89764,0 v 37.79528 c 0,0 -7.55906,7.55905 -18.89764,0 -11.33858,-7.55906 -18.89764,0 -18.89764,0 z"
       id="path46"
       sodipodi:nodetypes="czcczcc" />
    <path
       style="fill:#cccccc;fill-opacity:0.504962;stroke:none;stroke-width:0.990236;stroke-linecap:round;stroke-linejoin:round"
       d="m 207.87402,245.6693 c 0,0 7.55906,-7.55905 18.89764,0 11.33858,7.55906 18.89764,0 18.89764,0 v 37.79528 c 0,0 -7.55906,7.55905 -18.89764,0 -11.33858,-7.55906 -18.89764,0 -18.89764,0 z"
       id="path47"
       sodipodi:nodetypes="czcczcc" />
    <path
       style="fill:#cccccc;fill-opacity:0.504962;stroke:none;stroke-width:0.990236;stroke-linecap:round;stroke-linejoin:round"
       d="m 245.66929,245.66929 c 0,0 7.55906,-7.55905 18.89764,0 11.33858,7.55906 18.89764,0 18.89764,0 v 113.38584 c 0,0 -7.55906,7.55905 -18.89764,0 -11.33858,-7.55906 -18.89764,0 -18.89764,0 z"
       id="path12"
       sodipodi:nodetypes="czcczcc" />
    <path
       style="fill:#cccccc;fill-opacity:0.504962;stroke:none;stroke-width:0.990236;stroke-linecap:round;stroke-linejoin:round"
       d="m 207.87402,321.25985 c 0,0 7.55906,-7.55905 18.89764,0 11.33858,7.55906 18.89764,0 18.89764,0 v 37.79528 c 0,0 -7.55906,7.55905 -18.89764,0 -11.33858,-7.55906 -18.89764,0 -18.89764,0 z"
       id="path14"
       sodipodi:nodetypes="czcczcc" />
    <path
       style="fill:#cccccc;fill-opacity:0.504962;stroke:none;stroke-width:0.990236;stroke-linecap:round;stroke-linejoin:round"
       d="m 170.07874,302.36221 c 0,0 7.55906,-7.55905 18.89764,0 11.33858,7.55906 18.89764,0 18.89764,0 v 56.69292 c 0,0 -7.55906,7.55905 -18.89764,0 -11.33858,-7.55906 -18.89764,0 -18.89764,0 z"
       id="path30"
       sodipodi:nodetypes="czcczcc" />
    <path
       style="fill:#cccccc;fill-opacity:0.504962;stroke:none;stroke-width:0.990236;stroke-linecap:round;stroke-linejoin:round"
       d="m 132.28347,245.6693 c 0,0 7.55906,-7.55905 18.89764,0 11.33858,7.55906 18.89764,0 18.89764,0 v 113.38583 c 0,0 -7.55906,7.55905 -18.89764,0 -11.33858,-7.55906 -18.89764,0 -18.89764,0 z"
       id="path28"
       sodipodi:nodetypes="czcczcc" />
    <g
       inkscape:label=""
       transform="translate(287.52364,341.23217)"
       id="g14">
      <g
         fill="#000000"
         fill-opacity="1"
         id="g11"
         transform="matrix(1.33333,0,0,1.33333,-2.96983,-2.51417)">
        <g
           id="g10"
           transform="translate(1.993,8.1199999)">
          <path
             d="m 2.046875,-3.984375 h 0.9375 c 0.203125,0 0.3125,0 0.3125,-0.203125 0,-0.109375 -0.109375,-0.109375 -0.28125,-0.109375 h -0.875 C 2.5,-5.71875 2.546875,-5.90625 2.546875,-5.96875 c 0,-0.171875 -0.125,-0.265625 -0.296875,-0.265625 -0.03125,0 -0.3125,0 -0.390625,0.359375 L 1.46875,-4.296875 h -0.9375 c -0.203125,0 -0.296875,0 -0.296875,0.1875 0,0.125 0.078125,0.125 0.28125,0.125 h 0.875 C 0.671875,-1.15625 0.625,-0.984375 0.625,-0.8125 0.625,-0.265625 1,0.109375 1.546875,0.109375 2.5625,0.109375 3.125,-1.34375 3.125,-1.421875 3.125,-1.53125 3.046875,-1.53125 3.015625,-1.53125 2.921875,-1.53125 2.90625,-1.5 2.859375,-1.390625 2.4375,-0.34375 1.90625,-0.109375 1.5625,-0.109375 c -0.203125,0 -0.3125,-0.125 -0.3125,-0.453125 0,-0.25 0.03125,-0.3125 0.0625,-0.484375 z m 0,0"
             id="path8" />
        </g>
      </g>
      <g
         fill="#000000"
         fill-opacity="1"
         id="g13"
         transform="matrix(1.33333,0,0,1.33333,-2.96983,-2.51417)">
        <g
           id="g12"
           transform="translate(5.5900002,9.6140003)">
          <path
             d="m 3.703125,-1.859375 c 0,-0.765625 -0.578125,-1.21875 -1.265625,-1.21875 -1.03125,0 -2,0.96875 -2,1.921875 0,0.703125 0.5,1.21875 1.265625,1.21875 1,0 2,-0.90625 2,-1.921875 z m -2,1.734375 c -0.34375,0 -0.6875,-0.21875 -0.6875,-0.78125 0,-0.28125 0.125,-0.96875 0.40625,-1.359375 C 1.71875,-2.703125 2.125,-2.875 2.4375,-2.875 c 0.375,0 0.6875,0.25 0.6875,0.765625 C 3.125,-1.9375 3.046875,-1.25 2.734375,-0.765625 2.46875,-0.34375 2.0625,-0.125 1.703125,-0.125 Z m 0,0"
             id="path10" />
        </g>
      </g>
    </g>
    <g
       inkscape:label=""
       transform="translate(119.19492,252.32504)"
       id="g19">
      <g
         fill="#000000"
         fill-opacity="1"
         id="g16"
         transform="matrix(1.33333,0,0,1.33333,-2.96983,-2.51417)">
        <g
           id="g15"
           transform="translate(1.993,8.1199999)">
          <path
             d="m 2.046875,-3.984375 h 0.9375 c 0.203125,0 0.3125,0 0.3125,-0.203125 0,-0.109375 -0.109375,-0.109375 -0.28125,-0.109375 h -0.875 C 2.5,-5.71875 2.546875,-5.90625 2.546875,-5.96875 c 0,-0.171875 -0.125,-0.265625 -0.296875,-0.265625 -0.03125,0 -0.3125,0 -0.390625,0.359375 L 1.46875,-4.296875 h -0.9375 c -0.203125,0 -0.296875,0 -0.296875,0.1875 0,0.125 0.078125,0.125 0.28125,0.125 h 0.875 C 0.671875,-1.15625 0.625,-0.984375 0.625,-0.8125 0.625,-0.265625 1,0.109375 1.546875,0.109375 2.5625,0.109375 3.125,-1.34375 3.125,-1.421875 3.125,-1.53125 3.046875,-1.53125 3.015625,-1.53125 2.921875,-1.53125 2.90625,-1.5 2.859375,-1.390625 2.4375,-0.34375 1.90625,-0.109375 1.5625,-0.109375 c -0.203125,0 -0.3125,-0.125 -0.3125,-0.453125 0,-0.25 0.03125,-0.3125 0.0625,-0.484375 z m 0,0"
             id="path13" />
        </g>
      </g>
      <g
         fill="#000000"
         fill-opacity="1"
         id="g18"
         transform="matrix(1.33333,0,0,1.33333,-2.96983,-2.51417)">
        <g
           id="g17"
           transform="translate(5.5900002,9.6140003)">
          <path
             d="m 2.265625,-4.359375 c 0,-0.109375 -0.09375,-0.265625 -0.28125,-0.265625 -0.1875,0 -0.390625,0.1875 -0.390625,0.390625 0,0.109375 0.078125,0.265625 0.28125,0.265625 0.1875,0 0.390625,-0.203125 0.390625,-0.390625 z M 0.84375,-0.8125 c -0.03125,0.09375 -0.0625,0.171875 -0.0625,0.296875 0,0.328125 0.265625,0.578125 0.65625,0.578125 0.6875,0 1,-0.953125 1,-1.0625 0,-0.09375 -0.09375,-0.09375 -0.109375,-0.09375 -0.09375,0 -0.109375,0.046875 -0.140625,0.125 -0.15625,0.5625 -0.453125,0.84375 -0.734375,0.84375 -0.140625,0 -0.171875,-0.09375 -0.171875,-0.25 0,-0.15625 0.046875,-0.28125 0.109375,-0.4375 C 1.46875,-1 1.546875,-1.1875 1.609375,-1.375 1.671875,-1.546875 1.9375,-2.171875 1.953125,-2.265625 1.984375,-2.328125 2,-2.40625 2,-2.484375 2,-2.8125 1.71875,-3.078125 1.34375,-3.078125 0.640625,-3.078125 0.328125,-2.125 0.328125,-2 c 0,0.078125 0.09375,0.078125 0.125,0.078125 0.09375,0 0.09375,-0.03125 0.125,-0.109375 C 0.75,-2.625 1.0625,-2.875 1.3125,-2.875 c 0.109375,0 0.171875,0.046875 0.171875,0.234375 0,0.171875 -0.03125,0.265625 -0.203125,0.703125 z m 0,0"
             id="path15" />
        </g>
      </g>
    </g>
    <path
       style="fill:none;fill-opacity:0.504962;stroke:#000000;stroke-width:0.990236;stroke-linecap:round;stroke-linejoin:round"
       d="m 170.07875,245.6693 c 0,0 -7.55906,7.55906 -18.89764,0 -11.33857,-7.55905 -18.89763,0 -18.89763,0 l -1e-5,113.38583 c 0,0 7.55906,-7.55905 18.89763,0 11.33858,7.55906 18.89764,0 18.89764,0 z"
       id="path21"
       sodipodi:nodetypes="czcczcc" />
    <circle
       style="fill:#ff0000;fill-opacity:1;stroke:none;stroke-width:1.53526;stroke-linecap:round;stroke-linejoin:round"
       id="path23"
       cx="132.28348"
       cy="264.56693"
       r="1.3958179" />
    <path
       style="fill:none;fill-opacity:0.504962;stroke:#000000;stroke-width:0.990236;stroke-linecap:round;stroke-linejoin:round"
       d="m 283.46457,245.6693 c 0,0 -7.55906,7.55906 -18.89764,0 -11.33858,-7.55905 -18.89764,0 -18.89764,0 v 113.38583 c 0,0 7.55906,-7.55905 18.89764,0 11.33858,7.55906 18.89764,0 18.89764,0 z"
       id="path31"
       sodipodi:nodetypes="czcczcc" />
    <circle
       style="fill:#ff0000;fill-opacity:1;stroke:none;stroke-width:1.53526;stroke-linecap:round;stroke-linejoin:round"
       id="path23-3"
       cx="283.46457"
       cy="340.1575"
       r="1.3958179" />
    <g
       inkscape:label=""
       transform="translate(93.078117,298.13306)"
       id="g24">
      <g
         fill="#000000"
         fill-opacity="1"
         id="g21"
         transform="matrix(1.33333,0,0,1.33333,-3.199,-2.501)">
        <g
           id="g20"
           transform="translate(1.993,6.2820001)">
          <path
             d="m 4.5,-4.296875 c 0,-0.046875 -0.03125,-0.09375 -0.09375,-0.09375 -0.109375,0 -0.515625,0.390625 -0.671875,0.6875 C 3.515625,-4.25 3.125,-4.40625 2.796875,-4.40625 c -1.171875,0 -2.390625,1.46875 -2.390625,2.921875 0,0.96875 0.578125,1.59375 1.3125,1.59375 0.421875,0 0.8125,-0.234375 1.171875,-0.59375 -0.09375,0.34375 -0.421875,1.6875 -0.453125,1.78125 -0.078125,0.28125 -0.15625,0.3125 -0.71875,0.328125 -0.125,0 -0.21875,0 -0.21875,0.203125 0,0 0,0.109375 0.125,0.109375 0.3125,0 0.671875,-0.03125 1,-0.03125 0.328125,0 0.6875,0.03125 1.03125,0.03125 0.046875,0 0.171875,0 0.171875,-0.203125 C 3.828125,1.625 3.734375,1.625 3.5625,1.625 3.09375,1.625 3.09375,1.5625 3.09375,1.46875 3.09375,1.390625 3.109375,1.328125 3.125,1.25 Z m -2.75,4.1875 c -0.609375,0 -0.640625,-0.765625 -0.640625,-0.9375 0,-0.484375 0.28125,-1.5625 0.453125,-1.984375 0.3125,-0.734375 0.828125,-1.15625 1.234375,-1.15625 0.65625,0 0.796875,0.8125 0.796875,0.875 0,0.0625 -0.546875,2.25 -0.578125,2.28125 C 2.859375,-0.75 2.296875,-0.109375 1.75,-0.109375 Z m 0,0"
             id="path2" />
        </g>
      </g>
      <g
         fill="#000000"
         fill-opacity="1"
         id="g23"
         transform="matrix(1.33333,0,0,1.33333,-3.199,-2.501)">
        <g
           id="g22"
           transform="translate(6.4400001,7.777)">
          <path
             d="M 1.734375,-0.734375 C 1.671875,-0.5 1.4375,-0.125 1.078125,-0.125 c -0.015625,0 -0.234375,0 -0.375,-0.09375 0.28125,-0.09375 0.3125,-0.34375 0.3125,-0.390625 0,-0.15625 -0.125,-0.25 -0.28125,-0.25 -0.203125,0 -0.40625,0.15625 -0.40625,0.421875 0,0.34375 0.390625,0.5 0.734375,0.5 0.328125,0 0.609375,-0.1875 0.78125,-0.484375 C 2.015625,-0.0625 2.390625,0.0625 2.671875,0.0625 c 0.8125,0 1.234375,-0.859375 1.234375,-1.0625 0,-0.09375 -0.09375,-0.09375 -0.109375,-0.09375 -0.109375,0 -0.109375,0.046875 -0.140625,0.125 -0.140625,0.484375 -0.5625,0.84375 -0.953125,0.84375 -0.28125,0 -0.421875,-0.1875 -0.421875,-0.453125 0,-0.1875 0.171875,-0.8125 0.359375,-1.59375 C 2.78125,-2.703125 3.09375,-2.875 3.328125,-2.875 c 0.015625,0 0.21875,0 0.375,0.09375 -0.21875,0.0625 -0.3125,0.265625 -0.3125,0.390625 0,0.140625 0.125,0.25 0.28125,0.25 0.15625,0 0.390625,-0.125 0.390625,-0.421875 0,-0.390625 -0.453125,-0.515625 -0.71875,-0.515625 -0.359375,0 -0.640625,0.234375 -0.78125,0.5 -0.125,-0.28125 -0.453125,-0.5 -0.84375,-0.5 C 0.9375,-3.078125 0.5,-2.21875 0.5,-2 c 0,0.078125 0.09375,0.078125 0.109375,0.078125 0.09375,0 0.09375,-0.015625 0.140625,-0.109375 C 0.921875,-2.578125 1.359375,-2.875 1.703125,-2.875 1.9375,-2.875 2.125,-2.75 2.125,-2.421875 2.125,-2.28125 2.03125,-1.9375 1.96875,-1.6875 Z m 0,0"
             id="path22" />
        </g>
      </g>
    </g>
    <path
       style="fill:none;fill-opacity:1;stroke:#000000;stroke-width:0.990236;stroke-linecap:round;stroke-linejoin:round;marker-start:url(#ArrowWide)"
       d="m 126.62683,302.36221 -18.92294,10e-6"
       id="path24"
       sodipodi:nodetypes="cc" />
    <path
       style="fill:none;fill-opacity:0.504962;stroke:#000000;stroke-width:0.990236;stroke-linecap:round;stroke-linejoin:round"
       d="m 207.87403,302.36222 c 0,0 -7.55906,7.55906 -18.89764,0 -11.33857,-7.55905 -18.89763,0 -18.89763,0 l -10e-6,56.69291 c 0,0 7.55906,-7.55905 18.89763,0 11.33858,7.55906 18.89764,0 18.89764,0 z"
       id="path4"
       sodipodi:nodetypes="czcczcc" />
    <path
       style="fill:none;fill-opacity:0.504962;stroke:#000000;stroke-width:0.990236;stroke-linecap:round;stroke-linejoin:round"
       d="m 207.87403,245.6693 c 0,0 -7.55906,7.55906 -18.89764,0 -11.33857,-7.55905 -18.89763,0 -18.89763,0 l -10e-6,56.69291 c 0,0 7.55906,-7.55905 18.89763,0 11.33858,7.55906 18.89764,0 18.89764,0 z"
       id="path5"
       sodipodi:nodetypes="czcczcc" />
    <path
       style="fill:none;fill-opacity:0.504962;stroke:#000000;stroke-width:0.990236;stroke-linecap:round;stroke-linejoin:round"
       d="m 245.6693,245.6693 c 0,0 -7.55906,7.55906 -18.89764,0 -11.33857,-7.55905 -18.89763,0 -18.89763,0 l -1e-5,37.79528 c 0,0 7.55906,-7.55905 18.89763,0 11.33858,7.55906 18.89764,0 18.89764,0 z"
       id="path7"
       sodipodi:nodetypes="czcczcc" />
    <path
       style="fill:none;fill-opacity:0.504962;stroke:#000000;stroke-width:0.990236;stroke-linecap:round;stroke-linejoin:round"
       d="m 245.6693,283.46457 c 0,0 -7.55906,7.55906 -18.89764,0 -11.33857,-7.55905 -18.89763,0 -18.89763,0 l -1e-5,37.79528 c 0,0 7.55906,-7.55905 18.89763,0 11.33858,7.55906 18.89764,0 18.89764,0 z"
       id="path9"
       sodipodi:nodetypes="czcczcc" />
    <path
       style="fill:none;fill-opacity:0.504962;stroke:#000000;stroke-width:0.990236;stroke-linecap:round;stroke-linejoin:round"
       d="m 245.6693,321.25985 c 0,0 -7.55906,7.55906 -18.89764,0 -11.33857,-7.55905 -18.89763,0 -18.89763,0 l -1e-5,37.79528 c 0,0 7.55906,-7.55905 18.89763,0 11.33858,7.55906 18.89764,0 18.89764,0 z"
       id="path11"
       sodipodi:nodetypes="czcczcc" />
    <g
       inkscape:label=""
       transform="translate(148.13946,299.35181)"
       id="g25">
      <g
         fill="#000000"
         fill-opacity="1"
         id="g2"
         transform="matrix(1.33333,0,0,1.33333,-3.199,-2.501)">
        <g
           id="use1"
           transform="translate(1.993,6.2820001)">
          <path
             d="M 3.71875,-3.765625 C 3.53125,-4.140625 3.25,-4.40625 2.796875,-4.40625 c -1.15625,0 -2.390625,1.46875 -2.390625,2.921875 0,0.9375 0.546875,1.59375 1.3125,1.59375 0.203125,0 0.703125,-0.046875 1.296875,-0.75 0.078125,0.421875 0.4375,0.75 0.90625,0.75 0.359375,0 0.578125,-0.234375 0.75,-0.546875 0.15625,-0.359375 0.296875,-0.96875 0.296875,-0.984375 0,-0.109375 -0.09375,-0.109375 -0.125,-0.109375 -0.09375,0 -0.109375,0.046875 -0.140625,0.1875 -0.171875,0.640625 -0.34375,1.234375 -0.75,1.234375 -0.28125,0 -0.296875,-0.265625 -0.296875,-0.453125 0,-0.21875 0.015625,-0.3125 0.125,-0.75 C 3.890625,-1.71875 3.90625,-1.828125 4,-2.203125 L 4.359375,-3.59375 c 0.0625,-0.28125 0.0625,-0.296875 0.0625,-0.34375 0,-0.171875 -0.109375,-0.265625 -0.28125,-0.265625 -0.25,0 -0.390625,0.21875 -0.421875,0.4375 z M 3.078125,-1.1875 C 3.015625,-1 3.015625,-0.984375 2.875,-0.8125 2.4375,-0.265625 2.03125,-0.109375 1.75,-0.109375 c -0.5,0 -0.640625,-0.546875 -0.640625,-0.9375 0,-0.5 0.3125,-1.71875 0.546875,-2.1875 0.3125,-0.578125 0.75,-0.953125 1.15625,-0.953125 0.640625,0 0.78125,0.8125 0.78125,0.875 0,0.0625 -0.015625,0.125 -0.03125,0.171875 z m 0,0"
             id="path16" />
        </g>
      </g>
    </g>
    <g
       inkscape:label=""
       transform="translate(186.52847,269.32828)"
       id="g28">
      <g
         fill="#000000"
         fill-opacity="1"
         id="g27"
         transform="matrix(1.33333,0,0,1.33333,-3.28233,-2.65217)">
        <g
           id="g26"
           transform="translate(1.993,8.9110003)">
          <path
             d="m 2.375,-6.8125 c 0,0 0,-0.109375 -0.125,-0.109375 -0.21875,0 -0.953125,0.078125 -1.21875,0.109375 -0.078125,0 -0.1875,0.015625 -0.1875,0.1875 0,0.125 0.09375,0.125 0.25,0.125 0.46875,0 0.484375,0.0625 0.484375,0.171875 0,0.0625 -0.078125,0.40625 -0.125,0.609375 l -0.828125,3.25 c -0.109375,0.5 -0.15625,0.671875 -0.15625,1.015625 0,0.9375 0.53125,1.5625 1.265625,1.5625 1.171875,0 2.40625,-1.484375 2.40625,-2.921875 0,-0.90625 -0.53125,-1.59375 -1.328125,-1.59375 -0.453125,0 -0.875,0.296875 -1.171875,0.59375 z M 1.453125,-3.046875 C 1.5,-3.265625 1.5,-3.28125 1.59375,-3.390625 2.078125,-4.03125 2.53125,-4.1875 2.796875,-4.1875 c 0.359375,0 0.625,0.296875 0.625,0.9375 0,0.59375 -0.328125,1.734375 -0.515625,2.109375 -0.328125,0.671875 -0.78125,1.03125 -1.171875,1.03125 -0.34375,0 -0.671875,-0.265625 -0.671875,-1 0,-0.203125 0,-0.390625 0.15625,-1.015625 z m 0,0"
             id="path25" />
        </g>
      </g>
    </g>
    <g
       inkscape:label=""
       transform="translate(186.39306,327.69827)"
       id="g34">
      <g
         fill="#000000"
         fill-opacity="1"
         id="g33"
         transform="matrix(1.33333,0,0,1.33333,-3.199,-2.501)">
        <g
           id="g32"
           transform="translate(1.993,6.2820001)">
          <path
             d="m 3.953125,-3.78125 c -0.171875,0 -0.296875,0 -0.4375,0.125 -0.171875,0.15625 -0.1875,0.328125 -0.1875,0.390625 0,0.25 0.1875,0.359375 0.375,0.359375 0.28125,0 0.546875,-0.25 0.546875,-0.640625 0,-0.484375 -0.46875,-0.859375 -1.171875,-0.859375 -1.34375,0 -2.671875,1.421875 -2.671875,2.828125 0,0.90625 0.578125,1.6875 1.625,1.6875 1.421875,0 2.25,-1.0625 2.25,-1.171875 0,-0.0625 -0.046875,-0.140625 -0.109375,-0.140625 -0.0625,0 -0.078125,0.03125 -0.140625,0.109375 -0.78125,0.984375 -1.875,0.984375 -1.984375,0.984375 -0.625,0 -0.90625,-0.484375 -0.90625,-1.09375 0,-0.40625 0.203125,-1.375 0.546875,-1.984375 0.3125,-0.578125 0.859375,-1 1.40625,-1 0.328125,0 0.71875,0.125 0.859375,0.40625 z m 0,0"
             id="path32" />
        </g>
      </g>
    </g>
    <g
       inkscape:label=""
       transform="translate(223.61543,259.87946)"
       id="g37">
      <g
         fill="#000000"
         fill-opacity="1"
         id="g36"
         transform="matrix(1.33333,0,0,1.33333,-3.199,-2.65217)">
        <g
           id="g35"
           transform="translate(1.993,8.9110003)">
          <path
             d="m 5.140625,-6.8125 c 0,0 0,-0.109375 -0.125,-0.109375 -0.15625,0 -1.09375,0.09375 -1.265625,0.109375 -0.078125,0.015625 -0.140625,0.0625 -0.140625,0.1875 0,0.125 0.09375,0.125 0.234375,0.125 0.484375,0 0.5,0.0625 0.5,0.171875 L 4.3125,-6.125 3.71875,-3.765625 C 3.53125,-4.140625 3.25,-4.40625 2.796875,-4.40625 c -1.15625,0 -2.390625,1.46875 -2.390625,2.921875 0,0.9375 0.546875,1.59375 1.3125,1.59375 0.203125,0 0.703125,-0.046875 1.296875,-0.75 0.078125,0.421875 0.4375,0.75 0.90625,0.75 0.359375,0 0.578125,-0.234375 0.75,-0.546875 0.15625,-0.359375 0.296875,-0.96875 0.296875,-0.984375 0,-0.109375 -0.09375,-0.109375 -0.125,-0.109375 -0.09375,0 -0.109375,0.046875 -0.140625,0.1875 -0.171875,0.640625 -0.34375,1.234375 -0.75,1.234375 -0.28125,0 -0.296875,-0.265625 -0.296875,-0.453125 0,-0.25 0.015625,-0.3125 0.046875,-0.484375 z m -2.0625,5.625 C 3.015625,-1 3.015625,-0.984375 2.875,-0.8125 2.4375,-0.265625 2.03125,-0.109375 1.75,-0.109375 c -0.5,0 -0.640625,-0.546875 -0.640625,-0.9375 0,-0.5 0.3125,-1.71875 0.546875,-2.1875 0.3125,-0.578125 0.75,-0.953125 1.15625,-0.953125 0.640625,0 0.78125,0.8125 0.78125,0.875 0,0.0625 -0.015625,0.125 -0.03125,0.171875 z m 0,0"
             id="path34" />
        </g>
      </g>
    </g>
    <g
       inkscape:label=""
       transform="translate(224.21959,299.35182)"
       id="g40">
      <g
         fill="#000000"
         fill-opacity="1"
         id="g39"
         transform="matrix(1.33333,0,0,1.33333,-3.2615,-2.501)">
        <g
           id="g38"
           transform="translate(1.993,6.2820001)">
          <path
             d="m 1.859375,-2.296875 c 0.296875,0 1.03125,-0.03125 1.53125,-0.234375 0.703125,-0.296875 0.75,-0.890625 0.75,-1.03125 0,-0.4375 -0.375,-0.84375 -1.0625,-0.84375 -1.109375,0 -2.625,0.96875 -2.625,2.71875 0,1.015625 0.59375,1.796875 1.578125,1.796875 1.421875,0 2.25,-1.0625 2.25,-1.171875 0,-0.0625 -0.046875,-0.140625 -0.109375,-0.140625 -0.0625,0 -0.078125,0.03125 -0.140625,0.109375 -0.78125,0.984375 -1.875,0.984375 -1.984375,0.984375 -0.78125,0 -0.875,-0.84375 -0.875,-1.15625 0,-0.125 0.015625,-0.421875 0.15625,-1.03125 z m -0.46875,-0.21875 C 1.78125,-4.03125 2.8125,-4.1875 3.078125,-4.1875 c 0.453125,0 0.734375,0.296875 0.734375,0.625 0,1.046875 -1.59375,1.046875 -2.015625,1.046875 z m 0,0"
             id="path37" />
        </g>
      </g>
    </g>
    <g
       inkscape:label=""
       transform="translate(223.45918,334.10542)"
       id="g43">
      <g
         fill="#000000"
         fill-opacity="1"
         id="g42"
         transform="matrix(1.33333,0,0,1.33333,-3.36567,-2.50633)">
        <g
           id="g41"
           transform="translate(1.993,8.9110003)">
          <path
             d="m 3.65625,-3.984375 h 0.859375 c 0.203125,0 0.296875,0 0.296875,-0.203125 0,-0.109375 -0.09375,-0.109375 -0.265625,-0.109375 H 3.71875 L 3.921875,-5.4375 c 0.046875,-0.203125 0.1875,-0.90625 0.25,-1.03125 0.078125,-0.1875 0.25,-0.34375 0.46875,-0.34375 0.03125,0 0.296875,0 0.484375,0.1875 -0.4375,0.03125 -0.546875,0.390625 -0.546875,0.53125 0,0.234375 0.1875,0.359375 0.375,0.359375 C 5.21875,-5.734375 5.5,-5.96875 5.5,-6.34375 c 0,-0.453125 -0.453125,-0.6875 -0.859375,-0.6875 -0.34375,0 -0.96875,0.1875 -1.265625,1.171875 -0.0625,0.203125 -0.09375,0.3125 -0.328125,1.5625 h -0.6875 c -0.203125,0 -0.3125,0 -0.3125,0.1875 0,0.125 0.09375,0.125 0.28125,0.125 h 0.65625 L 2.25,-0.046875 c -0.1875,0.96875 -0.359375,1.875 -0.875,1.875 -0.046875,0 -0.28125,0 -0.484375,-0.1875 C 1.359375,1.609375 1.453125,1.25 1.453125,1.109375 1.453125,0.875 1.265625,0.75 1.078125,0.75 0.8125,0.75 0.53125,0.984375 0.53125,1.359375 c 0,0.4375 0.4375,0.6875 0.84375,0.6875 0.546875,0 0.953125,-0.59375 1.125,-0.96875 0.328125,-0.625 0.546875,-1.828125 0.5625,-1.90625 z m 0,0"
             id="path40" />
        </g>
      </g>
    </g>
    <g
       inkscape:label=""
       transform="translate(261.52528,298.06014)"
       id="g46">
      <g
         fill="#000000"
         fill-opacity="1"
         id="g45"
         transform="matrix(1.33333,0,0,1.33333,-2.86567,-2.501)">
        <g
           id="g44"
           transform="translate(1.993,6.2820001)">
          <path
             d="M 4.6875,-3.765625 C 4.703125,-3.8125 4.71875,-3.875 4.71875,-3.9375 c 0,-0.171875 -0.109375,-0.265625 -0.28125,-0.265625 -0.09375,0 -0.375,0.0625 -0.40625,0.421875 -0.1875,-0.359375 -0.53125,-0.625 -0.9375,-0.625 -1.125,0 -2.359375,1.390625 -2.359375,2.828125 0,0.984375 0.59375,1.578125 1.3125,1.578125 0.59375,0 1.0625,-0.46875 1.15625,-0.578125 L 3.21875,-0.5625 C 3.015625,0.3125 2.890625,0.734375 2.890625,0.75 2.84375,0.84375 2.515625,1.828125 1.453125,1.828125 1.265625,1.828125 0.9375,1.8125 0.65625,1.71875 0.953125,1.640625 1.0625,1.375 1.0625,1.203125 c 0,-0.15625 -0.109375,-0.34375 -0.375,-0.34375 -0.21875,0 -0.53125,0.171875 -0.53125,0.578125 0,0.40625 0.359375,0.609375 1.3125,0.609375 1.25,0 1.96875,-0.78125 2.125,-1.375 z M 3.40625,-1.28125 C 3.34375,-1.015625 3.109375,-0.765625 2.890625,-0.578125 2.6875,-0.40625 2.375,-0.21875 2.078125,-0.21875 c -0.5,0 -0.640625,-0.515625 -0.640625,-0.921875 0,-0.46875 0.28125,-1.65625 0.5625,-2.15625 C 2.265625,-3.78125 2.6875,-4.1875 3.109375,-4.1875 c 0.65625,0 0.796875,0.8125 0.796875,0.859375 0,0.046875 -0.015625,0.109375 -0.03125,0.140625 z m 0,0"
             id="path43" />
        </g>
      </g>
    </g>
  </g>
</svg>
