<?xml version="1.0" encoding="UTF-8" standalone="no"?>
<!-- Created with Inkscape (http://www.inkscape.org/) -->

<svg
   width="95"
   height="95.000008"
   viewBox="0 0 25.135416 25.135418"
   version="1.1"
   id="svg1"
   inkscape:version="1.3.2 (091e20ef0f, 2023-11-25)"
   sodipodi:docname="figura04_07.svg"
   xmlns:inkscape="http://www.inkscape.org/namespaces/inkscape"
   xmlns:sodipodi="http://sodipodi.sourceforge.net/DTD/sodipodi-0.dtd"
   xmlns="http://www.w3.org/2000/svg"
   xmlns:svg="http://www.w3.org/2000/svg">
  <sodipodi:namedview
     id="namedview1"
     pagecolor="#ffffff"
     bordercolor="#000000"
     borderopacity="0.25"
     inkscape:showpageshadow="2"
     inkscape:pageopacity="0.0"
     inkscape:pagecheckerboard="0"
     inkscape:deskcolor="#d1d1d1"
     inkscape:document-units="px"
     showgrid="true"
     inkscape:zoom="4.2431962"
     inkscape:cx="56.796808"
     inkscape:cy="63.86695"
     inkscape:window-width="1920"
     inkscape:window-height="1046"
     inkscape:window-x="1920"
     inkscape:window-y="18"
     inkscape:window-maximized="1"
     inkscape:current-layer="layer1">
    <inkscape:grid
       id="grid1"
       units="px"
       originx="-2.6458332"
       originy="-6.6145839"
       spacingx="1.3229166"
       spacingy="1.3229167"
       empcolor="#0099e5"
       empopacity="0.30196078"
       color="#0099e5"
       opacity="0.14901961"
       empspacing="4"
       dotted="false"
       gridanglex="30"
       gridanglez="30"
       visible="true" />
  </sodipodi:namedview>
  <defs
     id="defs1" />
  <g
     inkscape:label="Capa 1"
     inkscape:groupmode="layer"
     id="layer1"
     transform="translate(-2.6458333,-6.614584)">
    <rect
       style="fill:#00ffff;fill-opacity:0.251839;stroke:none;stroke-width:0.169333;stroke-linejoin:round;stroke-dasharray:none"
       id="rect51"
       width="5.2916665"
       height="15.875001"
       x="10.583333"
       y="10.583334" />
    <path
       style="fill:#ffffff;stroke:#000000;stroke-width:0.248708;stroke-linejoin:round"
       d="M 10.583333,10.583334 V 26.458335"
       id="path1"
       sodipodi:nodetypes="cc" />
    <g
       inkscape:label=""
       transform="matrix(0.66352747,0,0,0.66352747,9.7969773,8.1339166)"
       id="g1">
      <g
         fill="#000000"
         fill-opacity="1"
         id="g3"
         transform="matrix(0.352778,0,0,0.352778,-0.774744,-0.722268)">
        <g
           id="use2"
           transform="translate(1.993,7.4380002)">
          <path
             d="M 3.609375,-4.828125 C 3.671875,-5.109375 3.6875,-5.125 4.015625,-5.125 h 0.59375 c 0.828125,0 0.921875,0.265625 0.921875,0.65625 0,0.203125 -0.046875,0.546875 -0.046875,0.59375 -0.015625,0.078125 -0.03125,0.15625 -0.03125,0.171875 0,0.09375 0.078125,0.125 0.125,0.125 0.09375,0 0.125,-0.046875 0.140625,-0.203125 l 0.21875,-1.5 c 0,-0.109375 -0.09375,-0.109375 -0.234375,-0.109375 H 1 c -0.1875,0 -0.21875,0 -0.265625,0.171875 L 0.25,-3.84375 c -0.015625,0.046875 -0.046875,0.109375 -0.046875,0.15625 0,0.0625 0.0625,0.109375 0.125,0.109375 0.09375,0 0.109375,-0.046875 0.15625,-0.171875 C 0.9375,-5.03125 1.15625,-5.125 2.375,-5.125 h 0.3125 c 0.234375,0 0.25,0.015625 0.25,0.078125 0,0.015625 -0.03125,0.171875 -0.046875,0.203125 l -1.046875,4.1875 c -0.078125,0.3125 -0.09375,0.390625 -0.921875,0.390625 -0.265625,0 -0.34375,0 -0.34375,0.15625 0,0 0,0.109375 0.140625,0.109375 0.21875,0 0.765625,-0.03125 0.984375,-0.03125 H 2.375 c 0.21875,0 0.78125,0.03125 1,0.03125 0.0625,0 0.1875,0 0.1875,-0.15625 0,-0.109375 -0.09375,-0.109375 -0.296875,-0.109375 -0.203125,0 -0.265625,0 -0.46875,-0.015625 -0.25,-0.015625 -0.28125,-0.046875 -0.28125,-0.15625 0,-0.03125 0,-0.0625 0.03125,-0.140625 z m 0,0"
             id="path4" />
        </g>
      </g>
      <g
         fill="#000000"
         fill-opacity="1"
         id="g4"
         transform="matrix(0.352778,0,0,0.352778,-0.774744,-0.722268)">
        <g
           id="use3"
           transform="translate(6.9229999,8.6529999)">
          <path
             d="M 2.078125,-3.734375 C 2.078125,-3.875 1.96875,-3.96875 1.84375,-3.96875 1.671875,-3.96875 1.5,-3.8125 1.5,-3.640625 1.5,-3.5 1.609375,-3.40625 1.734375,-3.40625 c 0.203125,0 0.34375,-0.171875 0.34375,-0.328125 z M 1.71875,-1.640625 C 1.75,-1.703125 1.796875,-1.84375 1.828125,-1.90625 1.84375,-1.953125 1.859375,-2.015625 1.859375,-2.125 c 0,-0.328125 -0.296875,-0.515625 -0.59375,-0.515625 -0.609375,0 -0.90625,0.796875 -0.90625,0.921875 0,0.03125 0.03125,0.078125 0.109375,0.078125 0.09375,0 0.109375,-0.03125 0.125,-0.078125 C 0.765625,-2.296875 1.078125,-2.4375 1.25,-2.4375 c 0.109375,0 0.15625,0.078125 0.15625,0.21875 0,0.109375 -0.03125,0.203125 -0.046875,0.25 l -0.3125,0.765625 c -0.078125,0.171875 -0.078125,0.1875 -0.15625,0.390625 -0.078125,0.171875 -0.09375,0.25 -0.09375,0.359375 0,0.296875 0.265625,0.515625 0.59375,0.515625 0.609375,0 0.90625,-0.796875 0.90625,-0.921875 0,-0.015625 0,-0.09375 -0.109375,-0.09375 -0.09375,0 -0.09375,0.03125 -0.125,0.15625 C 1.96875,-0.5 1.71875,-0.140625 1.40625,-0.140625 1.296875,-0.140625 1.25,-0.203125 1.25,-0.359375 1.25,-0.46875 1.28125,-0.5625 1.359375,-0.75 Z m 0,0"
             id="path5" />
        </g>
      </g>
    </g>
    <g
       inkscape:label=""
       transform="matrix(0.66352747,0,0,0.66352747,19.887602,16.898005)"
       id="g2">
      <g
         fill="#000000"
         fill-opacity="1"
         id="g5"
         transform="matrix(0.352778,0,0,0.352778,-0.774744,-0.722268)">
        <g
           id="use4"
           transform="translate(1.993,7.4380002)">
          <path
             d="M 3.609375,-4.828125 C 3.671875,-5.109375 3.6875,-5.125 4.015625,-5.125 h 0.59375 c 0.828125,0 0.921875,0.265625 0.921875,0.65625 0,0.203125 -0.046875,0.546875 -0.046875,0.59375 -0.015625,0.078125 -0.03125,0.15625 -0.03125,0.171875 0,0.09375 0.078125,0.125 0.125,0.125 0.09375,0 0.125,-0.046875 0.140625,-0.203125 l 0.21875,-1.5 c 0,-0.109375 -0.09375,-0.109375 -0.234375,-0.109375 H 1 c -0.1875,0 -0.21875,0 -0.265625,0.171875 L 0.25,-3.84375 c -0.015625,0.046875 -0.046875,0.109375 -0.046875,0.15625 0,0.0625 0.0625,0.109375 0.125,0.109375 0.09375,0 0.109375,-0.046875 0.15625,-0.171875 C 0.9375,-5.03125 1.15625,-5.125 2.375,-5.125 h 0.3125 c 0.234375,0 0.25,0.015625 0.25,0.078125 0,0.015625 -0.03125,0.171875 -0.046875,0.203125 l -1.046875,4.1875 c -0.078125,0.3125 -0.09375,0.390625 -0.921875,0.390625 -0.265625,0 -0.34375,0 -0.34375,0.15625 0,0 0,0.109375 0.140625,0.109375 0.21875,0 0.765625,-0.03125 0.984375,-0.03125 H 2.375 c 0.21875,0 0.78125,0.03125 1,0.03125 0.0625,0 0.1875,0 0.1875,-0.15625 0,-0.109375 -0.09375,-0.109375 -0.296875,-0.109375 -0.203125,0 -0.265625,0 -0.46875,-0.015625 -0.25,-0.015625 -0.28125,-0.046875 -0.28125,-0.15625 0,-0.03125 0,-0.0625 0.03125,-0.140625 z m 0,0"
             id="path9" />
        </g>
      </g>
      <g
         fill="#000000"
         fill-opacity="1"
         id="g6"
         transform="matrix(0.352778,0,0,0.352778,-0.774744,-0.722268)">
        <g
           id="use5"
           transform="translate(6.9229999,8.6529999)">
          <path
             d="M 2.078125,-3.734375 C 2.078125,-3.875 1.96875,-3.96875 1.84375,-3.96875 1.671875,-3.96875 1.5,-3.8125 1.5,-3.640625 1.5,-3.5 1.609375,-3.40625 1.734375,-3.40625 c 0.203125,0 0.34375,-0.171875 0.34375,-0.328125 z M 1.71875,-1.640625 C 1.75,-1.703125 1.796875,-1.84375 1.828125,-1.90625 1.84375,-1.953125 1.859375,-2.015625 1.859375,-2.125 c 0,-0.328125 -0.296875,-0.515625 -0.59375,-0.515625 -0.609375,0 -0.90625,0.796875 -0.90625,0.921875 0,0.03125 0.03125,0.078125 0.109375,0.078125 0.09375,0 0.109375,-0.03125 0.125,-0.078125 C 0.765625,-2.296875 1.078125,-2.4375 1.25,-2.4375 c 0.109375,0 0.15625,0.078125 0.15625,0.21875 0,0.109375 -0.03125,0.203125 -0.046875,0.25 l -0.3125,0.765625 c -0.078125,0.171875 -0.078125,0.1875 -0.15625,0.390625 -0.078125,0.171875 -0.09375,0.25 -0.09375,0.359375 0,0.296875 0.265625,0.515625 0.59375,0.515625 0.609375,0 0.90625,-0.796875 0.90625,-0.921875 0,-0.015625 0,-0.09375 -0.109375,-0.09375 -0.09375,0 -0.09375,0.03125 -0.125,0.15625 C 1.96875,-0.5 1.71875,-0.140625 1.40625,-0.140625 1.296875,-0.140625 1.25,-0.203125 1.25,-0.359375 1.25,-0.46875 1.28125,-0.5625 1.359375,-0.75 Z m 0,0"
             id="path10" />
        </g>
      </g>
      <g
         fill="#000000"
         fill-opacity="1"
         id="g7"
         transform="matrix(0.352778,0,0,0.352778,-0.774744,-0.722268)">
        <g
           id="use6"
           transform="translate(12.437,7.4380002)">
          <path
             d="M 5.703125,-1.796875 C 5.796875,-1.84375 5.875,-1.890625 5.875,-1.984375 5.875,-2.09375 5.796875,-2.140625 5.703125,-2.1875 L 1.03125,-4.4375 C 0.921875,-4.5 0.90625,-4.5 0.890625,-4.5 c -0.109375,0 -0.1875,0.078125 -0.1875,0.1875 0,0.109375 0.0625,0.15625 0.171875,0.203125 l 4.390625,2.125 L 0.875,0.125 C 0.765625,0.171875 0.703125,0.21875 0.703125,0.328125 c 0,0.109375 0.078125,0.1875 0.1875,0.1875 0.015625,0 0.03125,0 0.140625,-0.0625 z m 0,0"
             id="path11" />
        </g>
      </g>
      <g
         fill="#000000"
         fill-opacity="1"
         id="g8"
         transform="matrix(0.352778,0,0,0.352778,-0.774744,-0.722268)">
        <g
           id="use7"
           transform="translate(21.37467,7.4380002)">
          <path
             d="M 3.609375,-4.828125 C 3.671875,-5.109375 3.6875,-5.125 4.015625,-5.125 h 0.59375 c 0.828125,0 0.921875,0.265625 0.921875,0.65625 0,0.203125 -0.046875,0.546875 -0.046875,0.59375 -0.015625,0.078125 -0.03125,0.15625 -0.03125,0.171875 0,0.09375 0.078125,0.125 0.125,0.125 0.09375,0 0.125,-0.046875 0.140625,-0.203125 l 0.21875,-1.5 c 0,-0.109375 -0.09375,-0.109375 -0.234375,-0.109375 H 1 c -0.1875,0 -0.21875,0 -0.265625,0.171875 L 0.25,-3.84375 c -0.015625,0.046875 -0.046875,0.109375 -0.046875,0.15625 0,0.0625 0.0625,0.109375 0.125,0.109375 0.09375,0 0.109375,-0.046875 0.15625,-0.171875 C 0.9375,-5.03125 1.15625,-5.125 2.375,-5.125 h 0.3125 c 0.234375,0 0.25,0.015625 0.25,0.078125 0,0.015625 -0.03125,0.171875 -0.046875,0.203125 l -1.046875,4.1875 c -0.078125,0.3125 -0.09375,0.390625 -0.921875,0.390625 -0.265625,0 -0.34375,0 -0.34375,0.15625 0,0 0,0.109375 0.140625,0.109375 0.21875,0 0.765625,-0.03125 0.984375,-0.03125 H 2.375 c 0.21875,0 0.78125,0.03125 1,0.03125 0.0625,0 0.1875,0 0.1875,-0.15625 0,-0.109375 -0.09375,-0.109375 -0.296875,-0.109375 -0.203125,0 -0.265625,0 -0.46875,-0.015625 -0.25,-0.015625 -0.28125,-0.046875 -0.28125,-0.15625 0,-0.03125 0,-0.0625 0.03125,-0.140625 z m 0,0"
             id="path12" />
        </g>
      </g>
      <g
         fill="#000000"
         fill-opacity="1"
         id="g9"
         transform="matrix(0.352778,0,0,0.352778,-0.774744,-0.722268)">
        <g
           id="use8"
           transform="translate(26.306,8.4350004)">
          <path
             d="M 2.78125,-2.296875 C 2.703125,-2.28125 2.5,-2.171875 2.5,-1.953125 c 0,0.140625 0.109375,0.21875 0.234375,0.21875 0.140625,0 0.34375,-0.09375 0.34375,-0.390625 C 3.078125,-2.5 2.625,-2.640625 2.25,-2.640625 1.3125,-2.640625 0.453125,-1.84375 0.453125,-1 c 0,0.5625 0.40625,1.0625 1.1875,1.0625 1.125,0 1.546875,-0.59375 1.546875,-0.671875 0,-0.046875 -0.0625,-0.109375 -0.109375,-0.109375 -0.03125,0 -0.03125,0 -0.125,0.09375 -0.328125,0.375 -0.875,0.484375 -1.3125,0.484375 -0.484375,0 -0.671875,-0.3125 -0.671875,-0.671875 0,-0.015625 0.015625,-0.703125 0.421875,-1.21875 C 1.484375,-2.125 1.796875,-2.4375 2.25,-2.4375 c 0.03125,0 0.34375,0 0.53125,0.140625 z m 0,0"
             id="path13" />
        </g>
      </g>
    </g>
    <g
       inkscape:label=""
       transform="matrix(0.66352747,0,0,0.66352747,15.077671,8.1339168)"
       id="g16">
      <g
         fill="#000000"
         fill-opacity="1"
         id="g11"
         transform="matrix(0.352778,0,0,0.352778,-0.774744,-0.722621)">
        <g
           id="g10"
           transform="translate(1.993,7.4390001)">
          <path
             d="M 3.609375,-4.828125 C 3.671875,-5.109375 3.6875,-5.125 4.015625,-5.125 h 0.59375 c 0.828125,0 0.921875,0.265625 0.921875,0.65625 0,0.203125 -0.046875,0.546875 -0.046875,0.59375 -0.015625,0.078125 -0.03125,0.15625 -0.03125,0.171875 0,0.09375 0.078125,0.125 0.125,0.125 0.09375,0 0.125,-0.046875 0.140625,-0.203125 l 0.21875,-1.5 c 0,-0.109375 -0.09375,-0.109375 -0.234375,-0.109375 H 1 c -0.1875,0 -0.21875,0 -0.265625,0.171875 L 0.25,-3.84375 c -0.015625,0.046875 -0.046875,0.109375 -0.046875,0.15625 0,0.0625 0.0625,0.109375 0.125,0.109375 0.09375,0 0.109375,-0.046875 0.15625,-0.171875 C 0.9375,-5.03125 1.15625,-5.125 2.375,-5.125 h 0.3125 c 0.234375,0 0.25,0.015625 0.25,0.078125 0,0.015625 -0.03125,0.171875 -0.046875,0.203125 l -1.046875,4.1875 c -0.078125,0.3125 -0.09375,0.390625 -0.921875,0.390625 -0.265625,0 -0.34375,0 -0.34375,0.15625 0,0 0,0.109375 0.140625,0.109375 0.21875,0 0.765625,-0.03125 0.984375,-0.03125 H 2.375 c 0.21875,0 0.78125,0.03125 1,0.03125 0.0625,0 0.1875,0 0.1875,-0.15625 0,-0.109375 -0.09375,-0.109375 -0.296875,-0.109375 -0.203125,0 -0.265625,0 -0.46875,-0.015625 -0.25,-0.015625 -0.28125,-0.046875 -0.28125,-0.15625 0,-0.03125 0,-0.0625 0.03125,-0.140625 z m 0,0"
             id="path2" />
        </g>
      </g>
      <g
         fill="#000000"
         fill-opacity="1"
         id="g15"
         transform="matrix(0.352778,0,0,0.352778,-0.774744,-0.722621)">
        <g
           id="g14"
           transform="translate(6.9229999,8.4350004)">
          <path
             d="M 2.78125,-2.296875 C 2.703125,-2.28125 2.5,-2.171875 2.5,-1.953125 c 0,0.140625 0.109375,0.21875 0.234375,0.21875 0.140625,0 0.34375,-0.09375 0.34375,-0.390625 C 3.078125,-2.5 2.625,-2.640625 2.25,-2.640625 1.3125,-2.640625 0.453125,-1.84375 0.453125,-1 c 0,0.5625 0.40625,1.0625 1.1875,1.0625 1.125,0 1.546875,-0.59375 1.546875,-0.671875 0,-0.046875 -0.0625,-0.109375 -0.109375,-0.109375 -0.03125,0 -0.03125,0 -0.125,0.09375 -0.328125,0.375 -0.875,0.484375 -1.3125,0.484375 -0.484375,0 -0.671875,-0.3125 -0.671875,-0.671875 0,-0.015625 0.015625,-0.703125 0.421875,-1.21875 C 1.484375,-2.125 1.796875,-2.4375 2.25,-2.4375 c 0.03125,0 0.34375,0 0.53125,0.140625 z m 0,0"
             id="path14" />
        </g>
      </g>
    </g>
    <g
       inkscape:label=""
       transform="matrix(0.66352747,0,0,0.66352747,3.7493016,17.884435)"
       id="g18">
      <g
         fill="#000000"
         fill-opacity="1"
         id="g17"
         transform="matrix(0.352778,0,0,0.352778,-0.84089,-0.705732)">
        <g
           id="use1"
           transform="translate(1.993,7.4380002)">
          <path
             d="m 3.09375,-4.828125 c 0.0625,-0.265625 0.078125,-0.34375 0.8125,-0.34375 0.234375,0 0.3125,0 0.3125,-0.15625 0,-0.015625 -0.015625,-0.109375 -0.140625,-0.109375 -0.171875,0 -0.40625,0.015625 -0.578125,0.015625 H 2.9375 c -0.828125,0 -1.03125,-0.015625 -1.078125,-0.015625 -0.03125,0 -0.15625,0 -0.15625,0.140625 0,0.125 0.09375,0.125 0.21875,0.125 0.265625,0 0.5,0 0.5,0.125 0,0.03125 0,0.03125 -0.03125,0.140625 l -1.0625,4.28125 c -0.078125,0.296875 -0.09375,0.359375 -0.6875,0.359375 -0.140625,0 -0.25,0 -0.25,0.15625 C 0.390625,0 0.5,0 0.640625,0 h 3.84375 C 4.6875,0 4.6875,-0.015625 4.75,-0.15625 4.84375,-0.375 5.421875,-1.875 5.421875,-1.953125 c 0,-0.078125 -0.0625,-0.125 -0.125,-0.125 -0.078125,0 -0.09375,0.0625 -0.15625,0.1875 -0.28125,0.734375 -0.625,1.625 -2.0625,1.625 h -1 C 2,-0.28125 1.96875,-0.28125 1.96875,-0.328125 c 0,-0.0625 0.015625,-0.140625 0.046875,-0.1875 z m 0,0"
             id="path16" />
        </g>
      </g>
    </g>
    <g
       inkscape:label=""
       transform="matrix(0.66352747,0,0,0.66352747,12.865248,29.049306)"
       id="g21">
      <g
         fill="#000000"
         fill-opacity="1"
         id="g20"
         transform="matrix(0.352778,0,0,0.352778,-0.84089,-0.704056)">
        <g
           id="g19"
           transform="translate(1.993,7.527)">
          <path
             d="m 1.9375,-5.296875 c 0.015625,-0.015625 0.03125,-0.109375 0.03125,-0.125 0,-0.03125 -0.03125,-0.109375 -0.125,-0.109375 -0.03125,0 -0.28125,0.03125 -0.453125,0.046875 L 0.9375,-5.453125 c -0.171875,0.015625 -0.25,0.015625 -0.25,0.15625 0,0.125 0.109375,0.125 0.203125,0.125 0.390625,0 0.390625,0.046875 0.390625,0.109375 0,0.046875 -0.09375,0.375 -0.140625,0.546875 l -0.6875,2.78125 c -0.0625,0.265625 -0.0625,0.390625 -0.0625,0.515625 0,0.828125 0.5,1.296875 1.109375,1.296875 0.984375,0 2,-1.125 2,-2.28125 C 3.5,-3 3,-3.515625 2.359375,-3.515625 c -0.453125,0 -0.796875,0.28125 -0.96875,0.4375 z M 1.5,-0.140625 c -0.28125,0 -0.5625,-0.21875 -0.5625,-0.8125 0,-0.203125 0.03125,-0.40625 0.125,-0.796875 C 1.109375,-1.96875 1.171875,-2.203125 1.234375,-2.4375 1.28125,-2.578125 1.28125,-2.59375 1.375,-2.703125 1.640625,-3.046875 2,-3.296875 2.328125,-3.296875 c 0.40625,0 0.5625,0.390625 0.5625,0.75 0,0.296875 -0.1875,1.15625 -0.421875,1.625 C 2.265625,-0.5 1.875,-0.140625 1.5,-0.140625 Z m 0,0"
             id="path18" />
        </g>
      </g>
    </g>
    <path
       style="fill:#ffffff;stroke:#000000;stroke-width:0.248708;stroke-linejoin:round"
       d="M 9.2604166,11.906251 10.583333,10.583334"
       id="path21" />
    <path
       style="fill:#ffffff;stroke:#000000;stroke-width:0.248708;stroke-linejoin:round"
       d="M 9.2604166,13.229167 10.583333,11.90625"
       id="path22" />
    <path
       style="fill:#ffffff;stroke:#000000;stroke-width:0.248708;stroke-linejoin:round"
       d="M 9.2604166,14.552084 10.583333,13.229167"
       id="path23" />
    <path
       style="fill:#ffffff;stroke:#000000;stroke-width:0.248708;stroke-linejoin:round"
       d="M 9.2604166,15.875 10.583333,14.552083"
       id="path24" />
    <path
       style="fill:#ffffff;stroke:#000000;stroke-width:0.248708;stroke-linejoin:round"
       d="M 9.2604166,17.197917 10.583333,15.875"
       id="path25" />
    <path
       style="fill:#ffffff;stroke:#000000;stroke-width:0.248708;stroke-linejoin:round"
       d="M 9.2604166,18.520833 10.583333,17.197916"
       id="path26" />
    <path
       style="fill:#ffffff;stroke:#000000;stroke-width:0.248708;stroke-linejoin:round"
       d="M 9.2604166,19.84375 10.583333,18.520833"
       id="path27" />
    <path
       style="fill:#ffffff;stroke:#000000;stroke-width:0.248708;stroke-linejoin:round"
       d="M 9.2604166,21.166666 10.583333,19.843749"
       id="path28" />
    <path
       style="fill:#ffffff;stroke:#000000;stroke-width:0.248708;stroke-linejoin:round"
       d="M 9.2604166,22.489583 10.583333,21.166666"
       id="path29" />
    <path
       style="fill:#ffffff;stroke:#000000;stroke-width:0.248708;stroke-linejoin:round"
       d="M 9.2604166,23.812499 10.583333,22.489582"
       id="path30" />
    <path
       style="fill:#ffffff;stroke:#000000;stroke-width:0.248708;stroke-linejoin:round"
       d="M 9.2604166,25.135416 10.583333,23.812499"
       id="path31" />
    <path
       style="fill:#ffffff;stroke:#000000;stroke-width:0.248708;stroke-linejoin:round"
       d="M 9.2604166,26.458332 10.583333,25.135415"
       id="path32" />
    <path
       style="fill:#ffffff;stroke:#000000;stroke-width:0.248708;stroke-linejoin:round"
       d="M 15.875,26.458333 V 10.583332"
       id="path33"
       sodipodi:nodetypes="cc" />
    <path
       style="fill:#ffffff;stroke:#000000;stroke-width:0.248708;stroke-linejoin:round"
       d="M 17.197916,25.135416 15.875,26.458333"
       id="path34" />
    <path
       style="fill:#ffffff;stroke:#000000;stroke-width:0.248708;stroke-linejoin:round"
       d="M 17.197916,23.8125 15.875,25.135417"
       id="path35" />
    <path
       style="fill:#ffffff;stroke:#000000;stroke-width:0.248708;stroke-linejoin:round"
       d="M 17.197916,22.489583 15.875,23.8125"
       id="path36" />
    <path
       style="fill:#ffffff;stroke:#000000;stroke-width:0.248708;stroke-linejoin:round"
       d="M 17.197916,21.166667 15.875,22.489584"
       id="path37" />
    <path
       style="fill:#ffffff;stroke:#000000;stroke-width:0.248708;stroke-linejoin:round"
       d="M 17.197916,19.84375 15.875,21.166667"
       id="path38" />
    <path
       style="fill:#ffffff;stroke:#000000;stroke-width:0.248708;stroke-linejoin:round"
       d="M 17.197916,18.520834 15.875,19.843751"
       id="path39" />
    <path
       style="fill:#ffffff;stroke:#000000;stroke-width:0.248708;stroke-linejoin:round"
       d="M 17.197916,17.197917 15.875,18.520834"
       id="path40" />
    <path
       style="fill:#ffffff;stroke:#000000;stroke-width:0.248708;stroke-linejoin:round"
       d="M 17.197916,15.875001 15.875,17.197918"
       id="path41" />
    <path
       style="fill:#ffffff;stroke:#000000;stroke-width:0.248708;stroke-linejoin:round"
       d="M 17.197916,14.552084 15.875,15.875001"
       id="path42" />
    <path
       style="fill:#ffffff;stroke:#000000;stroke-width:0.248708;stroke-linejoin:round"
       d="M 17.197916,13.229168 15.875,14.552085"
       id="path43" />
    <path
       style="fill:#ffffff;stroke:#000000;stroke-width:0.248708;stroke-linejoin:round"
       d="M 17.197916,11.906251 15.875,13.229168"
       id="path44" />
    <path
       style="fill:#ffffff;stroke:#000000;stroke-width:0.248708;stroke-linejoin:round"
       d="M 17.197916,10.583335 15.875,11.906252"
       id="path45" />
    <path
       style="fill:#ffffff;stroke:#000000;stroke-width:0.169333;stroke-linejoin:round;stroke-dasharray:none"
       d="M 5.2916666,10.583334 H 6.6145832"
       id="path46" />
    <path
       style="fill:#ffffff;stroke:#000000;stroke-width:0.169333;stroke-linejoin:round;stroke-dasharray:none"
       d="M 5.9531249,26.458336 V 10.583334"
       id="path47"
       sodipodi:nodetypes="cc" />
    <path
       style="fill:#ffffff;stroke:#000000;stroke-width:0.169333;stroke-linejoin:round;stroke-dasharray:none"
       d="M 5.2916666,26.458335 H 6.6145832"
       id="path48" />
    <path
       style="fill:#ffffff;stroke:#000000;stroke-width:0.169333;stroke-linejoin:round;stroke-dasharray:none"
       d="m 15.875,27.119792 v 1.322917"
       id="path49"
       sodipodi:nodetypes="cc" />
    <path
       style="fill:#ffffff;stroke:#000000;stroke-width:0.169333;stroke-linejoin:round;stroke-dasharray:none"
       d="m 10.583332,27.781251 5.291668,0"
       id="path50"
       sodipodi:nodetypes="cc" />
    <path
       style="fill:#ffffff;stroke:#000000;stroke-width:0.169333;stroke-linejoin:round;stroke-dasharray:none"
       d="m 10.583333,27.119792 v 1.322917"
       id="path51"
       sodipodi:nodetypes="cc" />
  </g>
</svg>
