<?xml version="1.0" encoding="UTF-8" standalone="no"?>
<!-- Created with Inkscape (http://www.inkscape.org/) -->

<svg
   width="320"
   height="160"
   viewBox="0 0 84.666664 42.333333"
   version="1.1"
   id="svg1"
   inkscape:version="1.3.2 (091e20ef0f, 2023-11-25)"
   sodipodi:docname="figura03_03.svg"
   xmlns:inkscape="http://www.inkscape.org/namespaces/inkscape"
   xmlns:sodipodi="http://sodipodi.sourceforge.net/DTD/sodipodi-0.dtd"
   xmlns="http://www.w3.org/2000/svg"
   xmlns:svg="http://www.w3.org/2000/svg">
  <sodipodi:namedview
     id="namedview1"
     pagecolor="#ffffff"
     bordercolor="#000000"
     borderopacity="0.25"
     inkscape:showpageshadow="false"
     inkscape:pageopacity="0.0"
     inkscape:pagecheckerboard="0"
     inkscape:deskcolor="#d1d1d1"
     inkscape:document-units="px"
     showgrid="true"
     inkscape:zoom="3.0003928"
     inkscape:cx="145.98089"
     inkscape:cy="80.322816"
     inkscape:window-width="1920"
     inkscape:window-height="1046"
     inkscape:window-x="1920"
     inkscape:window-y="18"
     inkscape:window-maximized="1"
     inkscape:current-layer="layer1">
    <inkscape:grid
       id="grid1"
       units="px"
       originx="-5.2916665"
       originy="-5.2916666"
       spacingx="1.3229166"
       spacingy="1.3229166"
       empcolor="#0099e5"
       empopacity="0.30196078"
       color="#0099e5"
       opacity="0.14901961"
       empspacing="4"
       dotted="false"
       gridanglex="30"
       gridanglez="30"
       visible="true" />
  </sodipodi:namedview>
  <defs
     id="defs1">
    <marker
       style="overflow:visible"
       id="ArrowWide"
       refX="0"
       refY="0"
       orient="auto-start-reverse"
       inkscape:stockid="Wide arrow"
       markerWidth="1"
       markerHeight="1"
       viewBox="0 0 1 1"
       inkscape:isstock="true"
       inkscape:collect="always"
       preserveAspectRatio="xMidYMid">
      <path
         style="fill:none;stroke:context-stroke;stroke-width:1;stroke-linecap:butt"
         d="M 3,-3 0,0 3,3"
         transform="rotate(180,0.125,0)"
         sodipodi:nodetypes="ccc"
         id="path30" />
    </marker>
  </defs>
  <g
     inkscape:label="Capa 1"
     inkscape:groupmode="layer"
     id="layer1"
     transform="translate(-5.29167, -5.29167)">
    <path
       id="path4-3"
       style="fill:#cccccc;stroke:none;stroke-width:0.105833;stroke-linejoin:round"
       d="m 26.458333,11.906253 a 11.90625,11.90625 0 0 0 -11.90625,11.90625 11.90625,11.90625 0 0 0 11.90625,11.90625 11.90625,11.90625 0 0 0 11.90625,-11.90625 11.90625,11.90625 0 0 0 -11.90625,-11.90625 z m 0,1.322917 A 10.583333,10.583333 0 0 1 37.041666,23.812503 10.583333,10.583333 0 0 1 26.458333,34.395836 10.583333,10.583333 0 0 1 15.875,23.812503 10.583333,10.583333 0 0 1 26.458333,13.22917 Z" />
    <rect
       style="fill:#cccccc;stroke:none;stroke-width:0.211667;stroke-linejoin:round;stroke-dasharray:1.69333, 0.423333, 0.211667, 0.423333;stroke-dashoffset:0"
       id="rect9"
       width="37.041668"
       height="1.3229166"
       x="47.625"
       y="34.395836" />
    <rect
       style="fill:#cccccc;stroke:none;stroke-width:0.211667;stroke-linejoin:round;stroke-dasharray:1.69333, 0.423333, 0.211667, 0.423333;stroke-dashoffset:0"
       id="rect8"
       width="37.041668"
       height="1.3229166"
       x="47.625"
       y="11.906254" />
    <path
       style="fill:none;stroke:#000000;stroke-width:0.211667;stroke-linejoin:round;stroke-dasharray:none"
       d="m 26.458333,7.9375036 3e-6,29.1041694"
       id="path1"
       sodipodi:nodetypes="cc" />
    <path
       style="fill:none;stroke:#000000;stroke-width:0.211667;stroke-linejoin:round;stroke-dasharray:none"
       d="M 10.583333,23.812503 H 42.333332"
       id="path2"
       sodipodi:nodetypes="cc" />
    <circle
       style="fill:none;stroke:#000000;stroke-width:0.105833;stroke-linejoin:round"
       id="path3"
       cx="26.458332"
       cy="23.812502"
       r="10.583333" />
    <circle
       style="fill:none;stroke:#000000;stroke-width:0.105833;stroke-linejoin:round"
       id="path4"
       cx="26.458332"
       cy="23.812502"
       r="11.90625" />
    <path
       style="fill:none;stroke:#000000;stroke-width:0.105833;stroke-linejoin:round"
       d="m 47.677916,11.906254 v 23.8125 h 37.041667 v -23.8125 z"
       id="path5" />
    <path
       style="fill:none;stroke:#000000;stroke-width:0.105833;stroke-linejoin:round"
       d="M 47.624999,13.229171 H 84.666666"
       id="path6" />
    <path
       style="fill:none;stroke:#000000;stroke-width:0.105833;stroke-linejoin:round"
       d="m 47.624999,34.395837 c 0,0 37.041667,0 37.041667,0"
       id="path7" />
    <path
       style="fill:none;stroke:#d4aa00;stroke-width:0.211667;stroke-linejoin:round;stroke-dasharray:1.69333, 0.423333, 0.211667, 0.423333;stroke-dashoffset:0"
       d="M 44.979166,23.812503 H 87.312498"
       id="path8"
       sodipodi:nodetypes="cc" />
    <g
       inkscape:label=""
       transform="translate(36.705427,8.6210126)"
       id="g15">
      <g
         fill="#000000"
         fill-opacity="1"
         id="g12"
         transform="matrix(0.352778,0,0,0.352778,-0.774744,-0.673673)">
        <g
           id="g11"
           transform="translate(1.993,6.8940001)">
          <path
             d="m 1.765625,-3.171875 h 0.78125 c 0.140625,0 0.234375,0 0.234375,-0.15625 C 2.78125,-3.4375 2.6875,-3.4375 2.546875,-3.4375 h -0.71875 l 0.28125,-1.125 c 0.03125,-0.125 0.03125,-0.15625 0.03125,-0.171875 0,-0.171875 -0.125,-0.25 -0.265625,-0.25 -0.265625,0 -0.328125,0.21875 -0.40625,0.578125 l -0.25,0.96875 H 0.453125 c -0.15625,0 -0.25,0 -0.25,0.15625 0,0.109375 0.09375,0.109375 0.234375,0.109375 h 0.71875 l -0.484375,1.90625 C 0.625,-1.0625 0.5625,-0.78125 0.5625,-0.671875 c 0,0.484375 0.390625,0.75 0.8125,0.75 0.84375,0 1.328125,-1.125 1.328125,-1.21875 C 2.703125,-1.234375 2.640625,-1.25 2.59375,-1.25 2.5,-1.25 2.5,-1.21875 2.4375,-1.09375 2.28125,-0.703125 1.875,-0.140625 1.390625,-0.140625 1.234375,-0.140625 1.125,-0.25 1.125,-0.515625 c 0,-0.15625 0.03125,-0.234375 0.046875,-0.34375 z m 0,0"
             id="path11" />
        </g>
      </g>
      <g
         fill="#000000"
         fill-opacity="1"
         id="g14"
         transform="matrix(0.352778,0,0,0.352778,-0.774744,-0.673673)">
        <g
           id="g13"
           transform="translate(5.0510001,8.1090002)">
          <path
             d="M 2.078125,-3.734375 C 2.078125,-3.875 1.96875,-3.96875 1.84375,-3.96875 1.671875,-3.96875 1.5,-3.8125 1.5,-3.640625 1.5,-3.5 1.609375,-3.40625 1.734375,-3.40625 c 0.203125,0 0.34375,-0.171875 0.34375,-0.328125 z M 1.71875,-1.640625 C 1.75,-1.703125 1.796875,-1.84375 1.828125,-1.90625 1.84375,-1.953125 1.859375,-2.015625 1.859375,-2.125 c 0,-0.328125 -0.296875,-0.515625 -0.59375,-0.515625 -0.609375,0 -0.90625,0.796875 -0.90625,0.921875 0,0.03125 0.03125,0.078125 0.109375,0.078125 0.09375,0 0.109375,-0.03125 0.125,-0.078125 C 0.765625,-2.296875 1.078125,-2.4375 1.25,-2.4375 c 0.109375,0 0.15625,0.078125 0.15625,0.21875 0,0.109375 -0.03125,0.203125 -0.046875,0.25 l -0.3125,0.765625 c -0.078125,0.171875 -0.078125,0.1875 -0.15625,0.390625 -0.078125,0.171875 -0.09375,0.25 -0.09375,0.359375 0,0.296875 0.265625,0.515625 0.59375,0.515625 0.609375,0 0.90625,-0.796875 0.90625,-0.921875 0,-0.015625 0,-0.09375 -0.109375,-0.09375 -0.09375,0 -0.09375,0.03125 -0.125,0.15625 C 1.96875,-0.5 1.71875,-0.140625 1.40625,-0.140625 1.296875,-0.140625 1.25,-0.203125 1.25,-0.359375 1.25,-0.46875 1.28125,-0.5625 1.359375,-0.75 Z m 0,0"
             id="path12" />
        </g>
      </g>
    </g>
    <g
       inkscape:label=""
       transform="translate(38.022832,14.419797)"
       id="g16">
      <g
         fill="#000000"
         fill-opacity="1"
         id="g3"
         transform="matrix(0.352778,0,0,0.352778,-0.774744,-0.674026)">
        <g
           id="use2"
           transform="translate(1.993,6.895)">
          <path
             d="m 1.765625,-3.171875 h 0.78125 c 0.140625,0 0.234375,0 0.234375,-0.15625 C 2.78125,-3.4375 2.6875,-3.4375 2.546875,-3.4375 h -0.71875 l 0.28125,-1.125 c 0.03125,-0.125 0.03125,-0.15625 0.03125,-0.171875 0,-0.171875 -0.125,-0.25 -0.265625,-0.25 -0.265625,0 -0.328125,0.21875 -0.40625,0.578125 l -0.25,0.96875 H 0.453125 c -0.15625,0 -0.25,0 -0.25,0.15625 0,0.109375 0.09375,0.109375 0.234375,0.109375 h 0.71875 l -0.484375,1.90625 C 0.625,-1.0625 0.5625,-0.78125 0.5625,-0.671875 c 0,0.484375 0.390625,0.75 0.8125,0.75 0.84375,0 1.328125,-1.125 1.328125,-1.21875 C 2.703125,-1.234375 2.640625,-1.25 2.59375,-1.25 2.5,-1.25 2.5,-1.21875 2.4375,-1.09375 2.28125,-0.703125 1.875,-0.140625 1.390625,-0.140625 1.234375,-0.140625 1.125,-0.25 1.125,-0.515625 c 0,-0.15625 0.03125,-0.234375 0.046875,-0.34375 z m 0,0"
             id="path15" />
        </g>
      </g>
      <g
         fill="#000000"
         fill-opacity="1"
         id="g4"
         transform="matrix(0.352778,0,0,0.352778,-0.774744,-0.674026)">
        <g
           id="use3"
           transform="translate(5.0510001,7.8909998)">
          <path
             d="m 3.40625,-1.578125 c 0,-0.59375 -0.46875,-1.0625 -1.171875,-1.0625 -0.90625,0 -1.78125,0.796875 -1.78125,1.640625 0,0.640625 0.5,1.0625 1.15625,1.0625 0.9375,0 1.796875,-0.8125 1.796875,-1.640625 z m -1.78125,1.4375 c -0.34375,0 -0.65625,-0.203125 -0.65625,-0.671875 0,-0.203125 0.09375,-0.75 0.34375,-1.109375 0.25,-0.359375 0.625,-0.515625 0.921875,-0.515625 0.296875,0 0.640625,0.171875 0.640625,0.671875 0,0.140625 -0.0625,0.75 -0.390625,1.171875 -0.1875,0.234375 -0.515625,0.453125 -0.859375,0.453125 z m 0,0"
             id="path16" />
        </g>
      </g>
    </g>
    <g
       inkscape:label=""
       transform="translate(65.258378,41.357687)"
       id="g27">
      <g
         fill="#000000"
         fill-opacity="1"
         id="g2"
         transform="matrix(0.352778,0,0,0.352778,-0.84089,-0.705732)">
        <g
           id="use1"
           transform="translate(1.993,7.4380002)">
          <path
             d="m 3.09375,-4.828125 c 0.0625,-0.265625 0.078125,-0.34375 0.8125,-0.34375 0.234375,0 0.3125,0 0.3125,-0.15625 0,-0.015625 -0.015625,-0.109375 -0.140625,-0.109375 -0.171875,0 -0.40625,0.015625 -0.578125,0.015625 H 2.9375 c -0.828125,0 -1.03125,-0.015625 -1.078125,-0.015625 -0.03125,0 -0.15625,0 -0.15625,0.140625 0,0.125 0.09375,0.125 0.21875,0.125 0.265625,0 0.5,0 0.5,0.125 0,0.03125 0,0.03125 -0.03125,0.140625 l -1.0625,4.28125 c -0.078125,0.296875 -0.09375,0.359375 -0.6875,0.359375 -0.140625,0 -0.25,0 -0.25,0.15625 C 0.390625,0 0.5,0 0.640625,0 h 3.84375 C 4.6875,0 4.6875,-0.015625 4.75,-0.15625 4.84375,-0.375 5.421875,-1.875 5.421875,-1.953125 c 0,-0.078125 -0.0625,-0.125 -0.125,-0.125 -0.078125,0 -0.09375,0.0625 -0.15625,0.1875 -0.28125,0.734375 -0.625,1.625 -2.0625,1.625 h -1 C 2,-0.28125 1.96875,-0.28125 1.96875,-0.328125 c 0,-0.0625 0.015625,-0.140625 0.046875,-0.1875 z m 0,0"
             id="path26" />
        </g>
      </g>
    </g>
    <path
       style="fill:none;stroke:#ff0000;stroke-width:0.211667;stroke-linejoin:round;stroke-dasharray:none;stroke-dashoffset:0;marker-end:url(#ArrowWide)"
       d="M 38.364586,23.812507 V 17.197924"
       id="path29" />
    <path
       style="fill:none;stroke:#ff0000;stroke-width:0.211667;stroke-linejoin:round;stroke-dasharray:none;stroke-dashoffset:0;marker-end:url(#ArrowWide)"
       d="M 37.041669,23.812507 V 11.906257"
       id="path31"
       sodipodi:nodetypes="cc" />
    <path
       style="fill:none;stroke:#ff0000;stroke-width:0.211667;stroke-linejoin:round;stroke-dasharray:none;stroke-dashoffset:0"
       d="m 47.625003,37.041673 v 3.968751"
       id="path32"
       sodipodi:nodetypes="cc" />
    <path
       style="fill:none;stroke:#ff0000;stroke-width:0.211667;stroke-linejoin:round;stroke-dasharray:none;stroke-dashoffset:0"
       d="M 47.625003,39.687507 H 84.666669"
       id="path33" />
    <path
       style="fill:none;stroke:#ff0000;stroke-width:0.211667;stroke-linejoin:round;stroke-dasharray:none;stroke-dashoffset:0"
       d="m 84.666669,41.010424 v -3.96875"
       id="path34" />
    <path
       style="fill:none;stroke:#ff0000;stroke-width:0.211667;stroke-linejoin:round;stroke-dasharray:none;stroke-dashoffset:0"
       d="m 15.875003,35.718756 v 3.968751"
       id="path32-9"
       sodipodi:nodetypes="cc" />
    <path
       style="fill:none;stroke:#ff0000;stroke-width:0.211667;stroke-linejoin:round;stroke-dasharray:none;stroke-dashoffset:0"
       d="M 15.875003,38.36459 H 37.041669"
       id="path33-1"
       sodipodi:nodetypes="cc" />
    <path
       style="fill:none;stroke:#ff0000;stroke-width:0.211667;stroke-linejoin:round;stroke-dasharray:none;stroke-dashoffset:0"
       d="m 37.041669,39.687507 v -3.96875"
       id="path34-2" />
    <path
       style="fill:none;stroke:#ff0000;stroke-width:0.211667;stroke-linejoin:round;stroke-dasharray:none;stroke-dashoffset:0"
       d="m 14.552086,39.687505 v 3.968751"
       id="path35"
       sodipodi:nodetypes="cc" />
    <path
       style="fill:none;stroke:#ff0000;stroke-width:0.211667;stroke-linejoin:round;stroke-dasharray:none;stroke-dashoffset:0"
       d="m 14.552086,42.333339 h 23.8125"
       id="path36"
       sodipodi:nodetypes="cc" />
    <path
       style="fill:none;stroke:#ff0000;stroke-width:0.211667;stroke-linejoin:round;stroke-dasharray:none;stroke-dashoffset:0"
       d="m 38.364586,43.656256 v -3.96875"
       id="path37" />
    <g
       inkscape:label=""
       transform="translate(24.369802,43.490886)"
       id="g42">
      <g
         fill="#000000"
         fill-opacity="1"
         id="g39"
         transform="matrix(0.352778,0,0,0.352778,-0.846402,-0.706085)">
        <g
           id="g38"
           transform="translate(1.993,7.4390001)">
          <path
             d="M 1.328125,-0.625 C 1.265625,-0.328125 1.25,-0.265625 0.65625,-0.265625 c -0.15625,0 -0.25,0 -0.25,0.15625 C 0.40625,0 0.515625,0 0.640625,0 h 2.75 c 1.671875,0 3.34375,-1.609375 3.34375,-3.390625 0,-1.21875 -0.8125,-2.046875 -2,-2.046875 h -2.78125 c -0.140625,0 -0.25,0 -0.25,0.140625 0,0.125 0.09375,0.125 0.234375,0.125 0.265625,0 0.5,0 0.5,0.125 0,0.03125 -0.015625,0.03125 -0.03125,0.140625 z M 3.09375,-4.890625 C 3.15625,-5.15625 3.171875,-5.171875 3.5,-5.171875 h 0.96875 c 0.921875,0 1.5625,0.53125 1.5625,1.5 0,0.265625 -0.125,1.5625 -0.8125,2.453125 C 4.875,-0.765625 4.1875,-0.265625 3.25,-0.265625 H 2.0625 C 1.984375,-0.28125 1.953125,-0.28125 1.953125,-0.328125 c 0,-0.0625 0.015625,-0.140625 0.03125,-0.1875 z m 0,0"
             id="path38" />
        </g>
      </g>
      <g
         fill="#000000"
         fill-opacity="1"
         id="g41"
         transform="matrix(0.352778,0,0,0.352778,-0.846402,-0.706085)">
        <g
           id="g40"
           transform="translate(8.9399996,8.7779999)">
          <path
             d="M 2.203125,-1.984375 H 2.90625 c 0.546875,0 0.5625,0.09375 0.5625,0.28125 0,0.140625 -0.015625,0.21875 -0.046875,0.328125 0,0.015625 0,0.09375 0.109375,0.09375 0.078125,0 0.09375,-0.03125 0.125,-0.140625 L 4.015625,-2.84375 c 0,0 -0.015625,-0.078125 -0.125,-0.078125 -0.078125,0 -0.09375,0.03125 -0.109375,0.109375 -0.140625,0.5 -0.296875,0.59375 -0.859375,0.59375 H 2.265625 L 2.609375,-3.625 c 0.046875,-0.1875 0.046875,-0.203125 0.3125,-0.203125 h 1.03125 c 0.796875,0 1.03125,0.140625 1.03125,0.71875 0,0.109375 -0.015625,0.25 -0.015625,0.34375 0,0.109375 0.078125,0.109375 0.109375,0.109375 0.09375,0 0.109375,-0.046875 0.109375,-0.15625 L 5.296875,-3.875 C 5.3125,-4.0625 5.265625,-4.0625 5.125,-4.0625 H 1.65625 c -0.109375,0 -0.1875,0 -0.1875,0.15625 0,0.078125 0.078125,0.078125 0.1875,0.078125 0.109375,0 0.265625,0 0.390625,0.046875 0,0.0625 0,0.09375 -0.03125,0.1875 L 1.234375,-0.5 c -0.046875,0.21875 -0.0625,0.265625 -0.515625,0.265625 -0.125,0 -0.203125,0 -0.203125,0.140625 C 0.515625,0 0.59375,0 0.6875,0 H 4.25 c 0.125,0 0.125,0 0.15625,-0.015625 0.015625,-0.015625 0.015625,-0.03125 0.0625,-0.109375 0.0625,-0.15625 0.609375,-1.34375 0.609375,-1.390625 0,-0.078125 -0.09375,-0.078125 -0.109375,-0.078125 -0.078125,0 -0.09375,0.015625 -0.15625,0.15625 -0.40625,0.890625 -0.71875,1.203125 -1.75,1.203125 H 1.96875 c -0.109375,0 -0.125,0 -0.1875,-0.015625 z m 0,0"
             id="path39" />
        </g>
      </g>
    </g>
    <g
       inkscape:label=""
       transform="translate(24.712062,39.153664)"
       id="g47">
      <g
         fill="#000000"
         fill-opacity="1"
         id="g44"
         transform="matrix(0.352778,0,0,0.352778,-0.846402,-0.706085)">
        <g
           id="g43"
           transform="translate(1.993,7.4390001)">
          <path
             d="M 1.328125,-0.625 C 1.265625,-0.328125 1.25,-0.265625 0.65625,-0.265625 c -0.15625,0 -0.25,0 -0.25,0.15625 C 0.40625,0 0.515625,0 0.640625,0 h 2.75 c 1.671875,0 3.34375,-1.609375 3.34375,-3.390625 0,-1.21875 -0.8125,-2.046875 -2,-2.046875 h -2.78125 c -0.140625,0 -0.25,0 -0.25,0.140625 0,0.125 0.09375,0.125 0.234375,0.125 0.265625,0 0.5,0 0.5,0.125 0,0.03125 -0.015625,0.03125 -0.03125,0.140625 z M 3.09375,-4.890625 C 3.15625,-5.15625 3.171875,-5.171875 3.5,-5.171875 h 0.96875 c 0.921875,0 1.5625,0.53125 1.5625,1.5 0,0.265625 -0.125,1.5625 -0.8125,2.453125 C 4.875,-0.765625 4.1875,-0.265625 3.25,-0.265625 H 2.0625 C 1.984375,-0.28125 1.953125,-0.28125 1.953125,-0.328125 c 0,-0.0625 0.015625,-0.140625 0.03125,-0.1875 z m 0,0"
             id="path42" />
        </g>
      </g>
      <g
         fill="#000000"
         fill-opacity="1"
         id="g46"
         transform="matrix(0.352778,0,0,0.352778,-0.846402,-0.706085)">
        <g
           id="g45"
           transform="translate(8.9399996,8.7779999)">
          <path
             d="m 2.59375,-3.59375 c 0.046875,-0.203125 0.0625,-0.25 0.53125,-0.25 0.15625,0 0.234375,0 0.234375,-0.140625 0,-0.0625 -0.046875,-0.109375 -0.109375,-0.109375 -0.125,0 -0.265625,0.03125 -0.390625,0.03125 -0.171875,0 -0.328125,0 -0.4375,0 0,0 -0.453125,0 -0.453125,0 -0.125,0 -0.28125,-0.03125 -0.40625,-0.03125 -0.03125,0 -0.125,0 -0.125,0.15625 0,0.09375 0.078125,0.09375 0.203125,0.09375 0.015625,0 0.125,0 0.25,0 0.140625,0.015625 0.15625,0.03125 0.15625,0.09375 0,0 0,0.046875 -0.03125,0.125 l -0.78125,3.140625 c -0.046875,0.1875 -0.0625,0.25 -0.53125,0.25 -0.140625,0 -0.15625,0 -0.171875,0 -0.046875,0.03125 -0.0625,0.109375 -0.0625,0.15625 C 0.46875,-0.0625 0.484375,0 0.578125,0 c 0.125,0 0.265625,-0.015625 0.390625,-0.015625 0.296875,0 0.21875,-0.015625 0.4375,-0.015625 0.140625,0 0.296875,0.015625 0.4375,0.015625 C 1.984375,-0.015625 2.125,0 2.25,0 2.296875,0 2.328125,0 2.359375,-0.03125 2.375,-0.0625 2.40625,-0.140625 2.40625,-0.15625 2.375,-0.234375 2.328125,-0.234375 2.1875,-0.234375 c 0,0 -0.140625,0 -0.25,-0.015625 -0.09375,-0.015625 -0.140625,-0.015625 -0.140625,-0.078125 0,-0.03125 0,-0.046875 0,-0.09375 z m 0,0"
             id="path44" />
        </g>
      </g>
    </g>
  </g>
</svg>
