<?xml version="1.0" encoding="UTF-8" standalone="no"?>
<!-- Created with Inkscape (http://www.inkscape.org/) -->

<svg
   width="190"
   height="100"
   viewBox="0 0 50.270832 26.458333"
   version="1.1"
   id="svg1"
   inkscape:version="1.3.2 (091e20ef0f, 2023-11-25)"
   sodipodi:docname="figura03_04.svg"
   xmlns:inkscape="http://www.inkscape.org/namespaces/inkscape"
   xmlns:sodipodi="http://sodipodi.sourceforge.net/DTD/sodipodi-0.dtd"
   xmlns="http://www.w3.org/2000/svg"
   xmlns:svg="http://www.w3.org/2000/svg">
  <sodipodi:namedview
     id="namedview1"
     pagecolor="#ffffff"
     bordercolor="#000000"
     borderopacity="0.25"
     inkscape:showpageshadow="false"
     inkscape:pageopacity="0.0"
     inkscape:pagecheckerboard="0"
     inkscape:deskcolor="#d1d1d1"
     inkscape:document-units="px"
     showgrid="true"
     inkscape:zoom="4.2431962"
     inkscape:cx="121.60644"
     inkscape:cy="52.790394"
     inkscape:window-width="1920"
     inkscape:window-height="1046"
     inkscape:window-x="1920"
     inkscape:window-y="18"
     inkscape:window-maximized="1"
     inkscape:current-layer="layer1">
    <inkscape:grid
       id="grid1"
       units="px"
       originx="-13.229166"
       originy="-13.229166"
       spacingx="1.3229166"
       spacingy="1.3229166"
       empcolor="#0099e5"
       empopacity="0.30196078"
       color="#0099e5"
       opacity="0.14901961"
       empspacing="4"
       dotted="false"
       gridanglex="30"
       gridanglez="30"
       visible="true" />
  </sodipodi:namedview>
  <defs
     id="defs1">
    <marker
       style="overflow:visible"
       id="ArrowWide"
       refX="0"
       refY="0"
       orient="auto-start-reverse"
       inkscape:stockid="Wide arrow"
       markerWidth="1"
       markerHeight="1"
       viewBox="0 0 1 1"
       inkscape:isstock="true"
       inkscape:collect="always"
       preserveAspectRatio="xMidYMid">
      <path
         style="fill:none;stroke:context-stroke;stroke-width:1;stroke-linecap:butt"
         d="M 3,-3 0,0 3,3"
         transform="rotate(180,0.125,0)"
         sodipodi:nodetypes="ccc"
         id="path1" />
    </marker>
  </defs>
  <g
     inkscape:label="Capa 1"
     inkscape:groupmode="layer"
     id="layer1"
     transform="translate(-13.22917,-13.22917)">
    <text
       xml:space="preserve"
       style="font-size:2.57267px;font-family:Futura;-inkscape-font-specification:'Futura, Normal';fill:#000000;stroke:none;stroke-width:0.385902;stroke-linejoin:round;stroke-dasharray:none;stroke-dashoffset:0"
       x="47.109138"
       y="23.181541"
       id="text47"><tspan
         sodipodi:role="line"
         id="tspan47"
         style="fill:#000000;stroke:none;stroke-width:0.385902"
         x="47.109138"
         y="23.181541">Medio fluido</tspan></text>
    <g
       inkscape:label=""
       transform="translate(52.007163,24.55113)"
       id="g47">
      <g
         fill="#000000"
         fill-opacity="1"
         id="g3"
         transform="matrix(0.352778,0,0,0.352778,-0.774744,-0.674026)">
        <g
           id="use2"
           transform="translate(1.993,6.895)">
          <path
             d="m 1.765625,-3.171875 h 0.78125 c 0.140625,0 0.234375,0 0.234375,-0.15625 C 2.78125,-3.4375 2.6875,-3.4375 2.546875,-3.4375 h -0.71875 l 0.28125,-1.125 c 0.03125,-0.125 0.03125,-0.15625 0.03125,-0.171875 0,-0.171875 -0.125,-0.25 -0.265625,-0.25 -0.265625,0 -0.328125,0.21875 -0.40625,0.578125 l -0.25,0.96875 H 0.453125 c -0.15625,0 -0.25,0 -0.25,0.15625 0,0.109375 0.09375,0.109375 0.234375,0.109375 h 0.71875 l -0.484375,1.90625 C 0.625,-1.0625 0.5625,-0.78125 0.5625,-0.671875 c 0,0.484375 0.390625,0.75 0.8125,0.75 0.84375,0 1.328125,-1.125 1.328125,-1.21875 C 2.703125,-1.234375 2.640625,-1.25 2.59375,-1.25 2.5,-1.25 2.5,-1.21875 2.4375,-1.09375 2.28125,-0.703125 1.875,-0.140625 1.390625,-0.140625 1.234375,-0.140625 1.125,-0.25 1.125,-0.515625 c 0,-0.15625 0.03125,-0.234375 0.046875,-0.34375 z m 0,0"
             id="path4" />
        </g>
      </g>
      <g
         fill="#000000"
         fill-opacity="1"
         id="g4"
         transform="matrix(0.352778,0,0,0.352778,-0.774744,-0.674026)">
        <g
           id="use3"
           transform="translate(5.0510001,7.8909998)">
          <path
             d="m 3.484375,-1.890625 c -0.625,-0.671875 -1.265625,-0.75 -1.578125,-0.75 -0.765625,0 -1.34375,0.625 -1.34375,1.359375 0,0.6875 0.546875,1.34375 1.328125,1.34375 0.734375,0 1.34375,-0.484375 1.703125,-1 l 0.21875,0.25 c 0.640625,0.671875 1.265625,0.75 1.578125,0.75 C 6.171875,0.0625 6.75,-0.5625 6.75,-1.296875 6.75,-2 6.203125,-2.640625 5.421875,-2.640625 c -0.734375,0 -1.34375,0.484375 -1.71875,1 z m 0.421875,0.46875 C 4.25,-1.890625 4.765625,-2.375 5.46875,-2.375 c 0.640625,0 1.078125,0.515625 1.078125,1.078125 0,0.578125 -0.5,1 -1.046875,1 -0.46875,0 -0.890625,-0.28125 -1.59375,-1.125 z M 3.390625,-1.15625 C 3.046875,-0.6875 2.546875,-0.203125 1.84375,-0.203125 1.1875,-0.203125 0.75,-0.71875 0.75,-1.28125 c 0,-0.578125 0.5,-1 1.0625,-1 0.46875,0 0.875,0.28125 1.578125,1.125 z m 0,0"
             id="path5" />
        </g>
      </g>
    </g>
    <text
       xml:space="preserve"
       style="font-size:1.41111px;font-family:Futura;-inkscape-font-specification:'Futura, Normal';fill:#000000;stroke:none;stroke-width:0.211667;stroke-linejoin:round;stroke-dasharray:none;stroke-dashoffset:0"
       x="35.718754"
       y="29.10417"
       id="text48"><tspan
         sodipodi:role="line"
         id="tspan48"
         style="stroke-width:0.211667"
         x="35.718754"
         y="29.10417" /></text>
    <g
       inkscape:label=""
       transform="translate(42.912111,27.990713)"
       id="g48">
      <g
         fill="#000000"
         fill-opacity="1"
         id="g2"
         transform="matrix(0.352778,0,0,0.352778,-0.824353,-0.673232)">
        <g
           id="use1"
           transform="translate(1.993,5.4239998)">
          <path
             d="m 3.796875,-3.28125 c 0,-0.03125 0.015625,-0.078125 0.015625,-0.125 0,-0.046875 -0.03125,-0.109375 -0.109375,-0.109375 -0.09375,0 -0.421875,0.3125 -0.546875,0.53125 -0.09375,-0.171875 -0.328125,-0.53125 -0.828125,-0.53125 -0.9375,0 -1.984375,1.109375 -1.984375,2.28125 0,0.84375 0.53125,1.3125 1.140625,1.3125 0.40625,0 0.734375,-0.234375 0.96875,-0.4375 0,0.03125 -0.25,1.03125 -0.28125,1.171875 -0.125,0.453125 -0.125,0.46875 -0.625,0.46875 -0.09375,0 -0.203125,0 -0.203125,0.15625 0,0.046875 0.046875,0.109375 0.125,0.109375 0.09375,0 0.28125,-0.015625 0.390625,-0.03125 H 2.28125 c 0.640625,0 0.78125,0.03125 0.84375,0.03125 0.03125,0 0.15625,0 0.15625,-0.15625 0,-0.109375 -0.125,-0.109375 -0.21875,-0.109375 -0.375,0 -0.375,-0.046875 -0.375,-0.125 0,0 0,-0.046875 0.03125,-0.15625 z m -1.1875,2.296875 C 2.578125,-0.875 2.578125,-0.84375 2.453125,-0.6875 2.03125,-0.203125 1.6875,-0.140625 1.515625,-0.140625 c -0.375,0 -0.546875,-0.34375 -0.546875,-0.75 0,-0.375 0.203125,-1.234375 0.390625,-1.578125 0.21875,-0.484375 0.609375,-0.828125 0.984375,-0.828125 0.53125,0 0.671875,0.625 0.671875,0.6875 0,0.03125 -0.015625,0.078125 -0.03125,0.125 z m 0,0"
             id="path2" />
        </g>
      </g>
    </g>
    <g
       inkscape:label=""
       transform="translate(21.336065,25.055491)"
       id="g49">
      <g
         fill="#000000"
         fill-opacity="1"
         id="g7"
         transform="matrix(0.352778,0,0,0.352778,-0.774744,-0.705996)">
        <g
           id="use6"
           transform="translate(1.993,7.9699998)">
          <path
             d="m 1.765625,-3.171875 h 0.78125 c 0.140625,0 0.234375,0 0.234375,-0.15625 C 2.78125,-3.4375 2.6875,-3.4375 2.546875,-3.4375 h -0.71875 l 0.28125,-1.125 c 0.03125,-0.125 0.03125,-0.15625 0.03125,-0.171875 0,-0.171875 -0.125,-0.25 -0.265625,-0.25 -0.265625,0 -0.328125,0.21875 -0.40625,0.578125 l -0.25,0.96875 H 0.453125 c -0.15625,0 -0.25,0 -0.25,0.15625 0,0.109375 0.09375,0.109375 0.234375,0.109375 h 0.71875 l -0.484375,1.90625 C 0.625,-1.0625 0.5625,-0.78125 0.5625,-0.671875 c 0,0.484375 0.390625,0.75 0.8125,0.75 0.84375,0 1.328125,-1.125 1.328125,-1.21875 C 2.703125,-1.234375 2.640625,-1.25 2.59375,-1.25 2.5,-1.25 2.5,-1.21875 2.4375,-1.09375 2.28125,-0.703125 1.875,-0.140625 1.390625,-0.140625 1.234375,-0.140625 1.125,-0.25 1.125,-0.515625 c 0,-0.15625 0.03125,-0.234375 0.046875,-0.34375 z m 0,0"
             id="path12" />
        </g>
      </g>
      <g
         fill="#000000"
         fill-opacity="1"
         id="g8"
         transform="matrix(0.352778,0,0,0.352778,-0.774744,-0.705996)">
        <g
           id="use7"
           transform="translate(7.4029999,7.9699998)">
          <path
             d="m 5.828125,-2.65625 c 0.109375,0 0.28125,0 0.28125,-0.1875 0,-0.171875 -0.203125,-0.171875 -0.3125,-0.171875 H 0.78125 c -0.125,0 -0.3125,0 -0.3125,0.171875 0,0.1875 0.15625,0.1875 0.28125,0.1875 z m -0.03125,1.6875 c 0.109375,0 0.3125,0 0.3125,-0.171875 0,-0.1875 -0.171875,-0.1875 -0.28125,-0.1875 H 0.75 c -0.125,0 -0.28125,0 -0.28125,0.1875 0,0.171875 0.1875,0.171875 0.3125,0.171875 z m 0,0"
             id="path13" />
        </g>
      </g>
      <g
         fill="#000000"
         fill-opacity="1"
         id="g9"
         transform="matrix(0.352778,0,0,0.352778,-0.774744,-0.705996)">
        <g
           id="use8"
           transform="translate(16.341999,7.9699998)">
          <path
             d="m 3.046875,-3.171875 h 0.75 c 0.15625,0 0.25,0 0.25,-0.15625 C 4.046875,-3.4375 3.9375,-3.4375 3.8125,-3.4375 H 3.09375 c 0.140625,-0.71875 0.21875,-1.171875 0.296875,-1.53125 0.03125,-0.125 0.046875,-0.21875 0.171875,-0.3125 0.109375,-0.09375 0.171875,-0.109375 0.25,-0.109375 0.125,0 0.25,0.03125 0.359375,0.09375 -0.046875,0.015625 -0.09375,0.03125 -0.125,0.0625 -0.140625,0.078125 -0.234375,0.21875 -0.234375,0.375 0,0.1875 0.140625,0.296875 0.3125,0.296875 0.234375,0 0.453125,-0.203125 0.453125,-0.484375 0,-0.375 -0.390625,-0.5625 -0.765625,-0.5625 -0.28125,0 -0.78125,0.125 -1.03125,0.859375 C 2.703125,-4.5625 2.703125,-4.546875 2.5,-3.4375 H 1.890625 c -0.15625,0 -0.25,0 -0.25,0.15625 0,0.109375 0.109375,0.109375 0.234375,0.109375 H 2.453125 L 1.875,-0.078125 C 1.71875,0.71875 1.609375,1.40625 1.171875,1.40625 c -0.015625,0 -0.1875,0 -0.328125,-0.09375 0.359375,-0.09375 0.359375,-0.421875 0.359375,-0.4375 0,-0.1875 -0.140625,-0.296875 -0.3125,-0.296875 -0.21875,0 -0.453125,0.1875 -0.453125,0.484375 0,0.34375 0.34375,0.5625 0.734375,0.5625 0.5,0 0.828125,-0.515625 0.9375,-0.703125 0.28125,-0.53125 0.46875,-1.53125 0.484375,-1.609375 z m 0,0"
             id="path14" />
        </g>
      </g>
      <g
         fill="#000000"
         fill-opacity="1"
         id="g10"
         transform="matrix(0.352778,0,0,0.352778,-0.774744,-0.705996)">
        <g
           id="use9"
           transform="translate(21.288,7.9699998)">
          <path
             d="m 2.65625,1.984375 c 0.0625,0 0.15625,0 0.15625,-0.09375 0,-0.03125 0,-0.03125 -0.109375,-0.140625 -1.09375,-1.03125 -1.359375,-2.5 -1.359375,-3.734375 0,-2.296875 0.9375,-3.375 1.34375,-3.75 0.125,-0.09375 0.125,-0.109375 0.125,-0.140625 0,-0.046875 -0.03125,-0.09375 -0.109375,-0.09375 -0.125,0 -0.53125,0.40625 -0.59375,0.46875 -1.0625,1.125 -1.28125,2.546875 -1.28125,3.515625 0,1.78125 0.734375,3.21875 1.828125,3.96875 z m 0,0"
             id="path15" />
        </g>
      </g>
      <g
         fill="#000000"
         fill-opacity="1"
         id="g11"
         transform="matrix(0.352778,0,0,0.352778,-0.774744,-0.705996)">
        <g
           id="use10"
           transform="translate(24.582001,7.9699998)">
          <path
             d="m 3.8125,-3.90625 c 0,-1 -0.375,-1.703125 -1.046875,-1.703125 -1.1875,0 -2.421875,2.21875 -2.421875,3.984375 0,0.765625 0.265625,1.703125 1.0625,1.703125 1.15625,0 2.40625,-2.15625 2.40625,-3.984375 z m -2.5625,1 C 1.625,-4.515625 2.265625,-5.390625 2.765625,-5.390625 3.25,-5.390625 3.25,-4.53125 3.25,-4.375 3.25,-3.9375 3.09375,-3.296875 3,-2.90625 Z M 2.9375,-2.625 c -0.375,1.59375 -1.03125,2.484375 -1.53125,2.484375 -0.421875,0 -0.46875,-0.640625 -0.46875,-1 0,-0.515625 0.140625,-1.15625 0.234375,-1.484375 z m 0,0"
             id="path16" />
        </g>
      </g>
      <g
         fill="#000000"
         fill-opacity="1"
         id="g12"
         transform="matrix(0.352778,0,0,0.352778,-0.774744,-0.705996)">
        <g
           id="use11"
           transform="translate(28.767,7.9699998)">
          <path
             d="m 2.46875,-1.984375 c 0,-0.765625 -0.140625,-1.671875 -0.625,-2.609375 -0.390625,-0.734375 -1.125,-1.375 -1.265625,-1.375 -0.078125,0 -0.09375,0.046875 -0.09375,0.09375 0,0.03125 0,0.046875 0.09375,0.140625 1.109375,1.0625 1.359375,2.515625 1.359375,3.75 C 1.9375,0.296875 1,1.375 0.59375,1.75 0.484375,1.84375 0.484375,1.859375 0.484375,1.890625 c 0,0.046875 0.015625,0.09375 0.09375,0.09375 0.125,0 0.53125,-0.40625 0.59375,-0.46875 1.0625,-1.125 1.296875,-2.546875 1.296875,-3.5 z m 0,0"
             id="path17" />
        </g>
      </g>
    </g>
    <circle
       style="fill:none;stroke:#000000;stroke-width:0.211667;stroke-linejoin:round;stroke-dasharray:none;stroke-dashoffset:0"
       id="path49"
       cx="26.458336"
       cy="26.458336"
       r="10.583333" />
    <path
       style="fill:none;stroke:#ff0000;stroke-width:0.264583;stroke-linejoin:round;stroke-dasharray:none;stroke-dashoffset:0;marker-end:url(#ArrowWide)"
       d="M 34.395836,26.458336 H 47.625003"
       id="path50" />
  </g>
</svg>
