<?xml version="1.0" encoding="UTF-8" standalone="no"?>
<!-- Created with Inkscape (http://www.inkscape.org/) -->

<svg
   width="175"
   height="80.000008"
   viewBox="0 0 46.302082 21.166668"
   version="1.1"
   id="svg1"
   inkscape:version="1.3.2 (091e20ef0f, 2023-11-25)"
   sodipodi:docname="figura05_02.svg"
   xmlns:inkscape="http://www.inkscape.org/namespaces/inkscape"
   xmlns:sodipodi="http://sodipodi.sourceforge.net/DTD/sodipodi-0.dtd"
   xmlns="http://www.w3.org/2000/svg"
   xmlns:svg="http://www.w3.org/2000/svg">
  <sodipodi:namedview
     id="namedview1"
     pagecolor="#ffffff"
     bordercolor="#000000"
     borderopacity="0.25"
     inkscape:showpageshadow="2"
     inkscape:pageopacity="0.0"
     inkscape:pagecheckerboard="0"
     inkscape:deskcolor="#d1d1d1"
     inkscape:document-units="px"
     showgrid="true"
     inkscape:zoom="16"
     inkscape:cx="30"
     inkscape:cy="33.6875"
     inkscape:window-width="1920"
     inkscape:window-height="1046"
     inkscape:window-x="1920"
     inkscape:window-y="18"
     inkscape:window-maximized="1"
     inkscape:current-layer="layer1">
    <inkscape:grid
       id="grid1"
       units="px"
       originx="-1.3229166"
       originy="1.3229167"
       spacingx="1.3229166"
       spacingy="1.3229167"
       empcolor="#0099e5"
       empopacity="0.30196078"
       color="#0099e5"
       opacity="0.14901961"
       empspacing="4"
       dotted="false"
       gridanglex="30"
       gridanglez="30"
       visible="true" />
  </sodipodi:namedview>
  <defs
     id="defs1">
    <marker
       style="overflow:visible"
       id="ArrowWide"
       refX="0"
       refY="0"
       orient="auto-start-reverse"
       inkscape:stockid="Wide arrow"
       markerWidth="1"
       markerHeight="1"
       viewBox="0 0 1 1"
       inkscape:isstock="true"
       inkscape:collect="always"
       preserveAspectRatio="xMidYMid">
      <path
         style="fill:none;stroke:context-stroke;stroke-width:1;stroke-linecap:butt"
         d="M 3,-3 0,0 3,3"
         transform="rotate(180,0.125,0)"
         sodipodi:nodetypes="ccc"
         id="path32" />
    </marker>
  </defs>
  <g
     inkscape:label="Capa 1"
     inkscape:groupmode="layer"
     id="layer1"
     transform="translate(-1.3229166,1.3229167)">
    <circle
       style="fill:#00ffff;stroke:none;stroke-width:0.105833;stroke-linejoin:round;stroke-dasharray:none;fill-opacity:0.25118986"
       id="circle1"
       cx="7.9375"
       cy="7.9375005"
       r="3.96875" />
    <rect
       style="fill:#00ffff;fill-opacity:0.250921;stroke-width:0.105833;stroke-linejoin:round"
       id="rect1"
       width="26.458332"
       height="7.9375005"
       x="18.520834"
       y="3.9687505" />
    <path
       id="circle91"
       style="fill:#000000;stroke:none;stroke-width:0.105833;stroke-linejoin:round;stroke-dasharray:none"
       d="m 7.9509358,2.6401535 a 5.2916665,5.2916665 0 0 0 -0.079582,0.00568 l -1.78077,1.7807701 c 0.092836,-0.04941 0.188212,-0.09487 0.285254,-0.136943 l 1.612305,-1.6117881 z m 0.00155,0 a 5.2916665,5.2916665 0 0 1 0.593246,0.042375 5.2916665,5.2916665 0 0 0 -0.593246,-0.042375 z m 0.593246,0.042375 a 5.2916665,5.2916665 0 0 1 0.520898,0.090434 l -1.192175,1.1921751 c 0.026064,-5.05e-4 0.051846,-0.0021 0.078031,-0.0021 0.023928,0 0.047486,0.0011 0.071314,0.0015 l 1.165303,-1.1653031 a 5.2916665,5.2916665 0 0 0 -0.643371,-0.116789 z m 0.643371,0.116789 a 5.2916665,5.2916665 0 0 1 0.425814,0.1193721 5.2916665,5.2916665 0 0 0 -0.425814,-0.1193721 z m 0.425814,0.1193721 a 5.2916665,5.2916665 0 0 1 0.3808567,0.141594 5.2916665,5.2916665 0 0 0 -0.3808567,-0.141594 z m 0.3808567,0.141594 a 5.2916665,5.2916665 0 0 1 0.077521,0.02946 l -1.0273322,1.027328 c 0.038539,0.01103 0.07719,0.02195 0.115239,0.03411 l 1.0169962,-1.016992 a 5.2916665,5.2916665 0 0 1 0.04547,0.02377 5.2916665,5.2916665 0 0 0 -0.2278955,-0.09767 z m 0.2278935,0.09767 a 5.2916665,5.2916665 0 0 1 0.426848,0.233578 5.2916665,5.2916665 0 0 0 -0.426848,-0.233578 z m 0.426848,0.233578 a 5.2916665,5.2916665 0 0 1 0.271818,0.171565 l -0.951365,0.95188 c 0.03104,0.01838 0.06149,0.03765 0.09199,0.05684 l 0.944645,-0.944643 a 5.2916665,5.2916665 0 0 1 0.638204,0.535368 l -0.925525,0.925525 c 0.02514,0.02448 0.04992,0.04929 0.07441,0.07441 l 0.925525,-0.925525 a 5.2916665,5.2916665 0 0 1 0.535884,0.638721 l -0.944128,0.944128 c 0.01924,0.03053 0.03791,0.06142 0.05633,0.0925 l 0.95188,-0.951363 a 5.2916665,5.2916665 0 0 1 0.178284,0.282153 5.2916665,5.2916665 0 0 0 -1.847949,-1.851566 z m 1.847949,1.851566 a 5.2916665,5.2916665 0 0 1 0.214457,0.393258 5.2916665,5.2916665 0 0 0 -0.214457,-0.393258 z m 0.214457,0.393258 a 5.2916665,5.2916665 0 0 1 0.03617,0.06873 l -1.016475,1.016475 c 0.01212,0.03789 0.0231,0.07635 0.03411,0.114722 l 1.026294,-1.026294 a 5.2916665,5.2916665 0 0 1 0.104387,0.275952 5.2916665,5.2916665 0 0 0 -0.184486,-0.449585 z m 0.184485,0.449585 a 5.2916665,5.2916665 0 0 1 0.06356,0.170015 5.2916665,5.2916665 0 0 0 -0.06356,-0.170015 z m 0.06356,0.170015 a 5.2916665,5.2916665 0 0 1 0.122473,0.4377 l -1.16427,1.16427 c 4.53e-4,0.02469 0.0021,0.0491 0.0021,0.0739 0,0.02515 -0.0016,0.0499 -0.0021,0.07493 l 1.190625,-1.190625 a 5.2916665,5.2916665 0 0 1 0.127641,1.046448 l -1.64021,1.640209 c -0.04198,0.09726 -0.08759,0.192726 -0.136943,0.285771 l 1.778186,-1.778186 a 5.2916665,5.2916665 0 0 0 0.0057,-0.07855 5.2916665,5.2916665 0 0 0 -0.283187,-1.675867 z M 6.4967608,2.8468595 a 5.2916665,5.2916665 0 0 0 -0.228927,0.080099 l -3.32021,3.319694 a 5.2916665,5.2916665 0 0 0 -0.079582,0.228409 z m -2.04897,3.2215091 -1.781287,1.781286 a 5.2916665,5.2916665 0 0 0 -0.00568,0.08217 5.2916665,5.2916665 0 0 0 0.00465,0.06821 l 1.644861,-1.644861 c 0.042285,-0.09754 0.087757,-0.193516 0.13746,-0.286804 z m -0.461988,1.785421 -1.192692,1.192692 a 5.2916665,5.2916665 0 0 0 0.026872,0.121956 l 1.165303,-1.165304 c -4.21e-4,-0.02383 -0.00155,-0.04739 -0.00155,-0.07131 0,-0.02618 0.00156,-0.05197 0.00207,-0.07803 z m -1.281575,0.685229 a 5.2916665,5.2916665 0 0 0 0.082165,0.476457 5.2916665,5.2916665 0 0 1 -0.082165,-0.476457 z m 1.433504,0.486275 -1.027844,1.0273284 a 5.2916665,5.2916665 0 0 0 0.043925,0.104903 l 1.017509,-1.0175094 c -0.012082,-0.03784 -0.022622,-0.0764 -0.03359,-0.114722 z m -1.311548,0.173116 a 5.2916665,5.2916665 0 0 0 0.104903,0.374654 5.2916665,5.2916665 0 0 1 -0.104903,-0.374654 z M 13.037966,9.3844446 9.4045938,13.017299 a 5.2916665,5.2916665 0 0 0 0.227376,-0.07855 L 12.958901,9.6123376 a 5.2916665,5.2916665 0 0 0 0.07906,-0.227893 z m -0.154513,0.429432 a 5.2916665,5.2916665 0 0 1 -0.16123,0.3963584 5.2916665,5.2916665 0 0 0 0.16123,-0.3963584 z m -8.3483292,0.135392 -0.952914,0.9529134 a 5.2916665,5.2916665 0 0 0 0.064079,0.08527 l 0.945679,-0.945678 c -0.019266,-0.03062 -0.038399,-0.061331 -0.056844,-0.0925 z m 8.0511902,0.5090134 a 5.2916665,5.2916665 0 0 1 -0.220142,0.384989 5.2916665,5.2916665 0 0 0 0.220142,-0.384989 z m -9.1596502,0.198437 a 5.2916665,5.2916665 0 0 0 0.148312,0.235128 5.2916665,5.2916665 0 0 1 -0.148312,-0.235128 z m 1.682068,0.04289 -0.926558,0.926558 a 5.2916665,5.2916665 0 0 0 0.074414,0.07441 l 0.926558,-0.926558 c -0.025129,-0.02449 -0.049939,-0.04927 -0.074414,-0.07441 z m -1.429887,0.331246 a 5.2916665,5.2916665 0 0 0 0.492477,0.58446 5.2916665,5.2916665 0 0 1 -0.492477,-0.58446 z m 2.161109,0.259932 -0.945162,0.945162 a 5.2916665,5.2916665 0 0 0 0.085266,0.06408 l 0.952396,-0.952397 c -0.031159,-0.01847 -0.061898,-0.03756 -0.0925,-0.05684 z m 3.968233,0.149345 c -0.093069,0.04933 -0.188493,0.0955 -0.285771,0.137459 l -1.608687,1.608171 0.037207,0.03772 a 5.2916665,5.2916665 0 0 0 0.00155,0 5.2916665,5.2916665 0 0 0 0.078032,-0.0057 z m -5.540747,0.271301 a 5.2916665,5.2916665 0 0 0 0.605131,0.507979 5.2916665,5.2916665 0 0 1 -0.605131,-0.507979 z m 2.473751,5.17e-4 -1.016993,1.016992 a 5.2916665,5.2916665 0 0 0 0.104904,0.04444 l 1.02681,-1.027328 c -0.038367,-0.01101 -0.07684,-0.02198 -0.114721,-0.03411 z m 1.137398,0.186552 -1.165304,1.165303 a 5.2916665,5.2916665 0 0 0 0.121957,0.02687 L 8.0274168,11.8985 c -0.025034,4.65e-4 -0.049785,0.0021 -0.074931,0.0021 -0.024799,0 -0.049206,-0.0016 -0.073897,-0.0021 z m -2.89233,0.406177 a 5.2916665,5.2916665 0 0 0 0.24598,0.155546 5.2916665,5.2916665 0 0 1 -0.24598,-0.155546 z m 5.8756122,0.04289 a 5.2916665,5.2916665 0 0 1 -0.364835,0.208773 5.2916665,5.2916665 0 0 0 0.364835,-0.208773 z m -0.638204,0.358118 a 5.2916665,5.2916665 0 0 1 -0.3632872,0.147794 5.2916665,5.2916665 0 0 0 0.3632872,-0.147794 z m -3.9243102,0.242879 a 5.2916665,5.2916665 0 0 0 0.403593,0.113171 5.2916665,5.2916665 0 0 1 -0.403593,-0.113171 z m 0.542086,0.143144 a 5.2916665,5.2916665 0 0 0 0.513147,0.08888 5.2916665,5.2916665 0 0 1 -0.513147,-0.08888 z m 2.140954,0.01757 a 5.2916665,5.2916665 0 0 1 -0.594279,0.0832 5.2916665,5.2916665 0 0 0 0.594279,-0.0832 z" />
    <circle
       style="fill:none;stroke:#000000;stroke-width:0.105833;stroke-linejoin:round;stroke-dasharray:none"
       id="path1"
       cx="7.9375"
       cy="7.9375005"
       r="5.2916665" />
    <circle
       style="fill:none;stroke:#000000;stroke-width:0.105833;stroke-linejoin:round;stroke-dasharray:none"
       id="path2"
       cx="7.9375"
       cy="7.9375005"
       r="3.96875" />
    <path
       style="fill:none;stroke:#000000;stroke-width:0.105833;stroke-linejoin:round;stroke-dasharray:none"
       d="M 18.520833,2.6458329 V 13.229167 H 44.979166 V 2.6458329 Z"
       id="path3" />
    <path
       style="fill:none;stroke:#000000;stroke-width:0.0529167;stroke-linejoin:round;stroke-dasharray:none"
       d="M 18.520833,3.9687495 H 44.979166"
       id="path4" />
    <path
       style="fill:none;stroke:#000000;stroke-width:0.0529167;stroke-linejoin:round;stroke-dasharray:none"
       d="M 18.520833,11.90625 H 44.979166"
       id="path5" />
    <circle
       style="fill:none;stroke:#000000;stroke-width:0.0484187;stroke-linejoin:round;stroke-dasharray:0.145256, 0.145256;stroke-dashoffset:0"
       id="circle12"
       cx="7.9375"
       cy="7.9375005"
       r="3.6280701" />
    <text
       xml:space="preserve"
       style="font-size:1.76389px;font-family:Futura;-inkscape-font-specification:'Futura, Normal';fill:#000000;stroke:none;stroke-width:0.0484187;stroke-linejoin:round;stroke-dasharray:0.145256, 0.145256;stroke-dashoffset:0"
       x="3.1077104"
       y="17.063337"
       id="text12"><tspan
         sodipodi:role="line"
         id="tspan12"
         style="font-style:normal;font-variant:normal;font-weight:normal;font-stretch:normal;font-size:1.41111px;font-family:Sans;-inkscape-font-specification:'Sans, Normal';font-variant-ligatures:normal;font-variant-caps:normal;font-variant-numeric:normal;font-variant-east-asian:normal;stroke:none;stroke-width:0.0484187"
         x="3.1077104"
         y="17.063337">Pelicula de convección</tspan><tspan
         sodipodi:role="line"
         style="font-style:normal;font-variant:normal;font-weight:normal;font-stretch:normal;font-size:1.41111px;font-family:Sans;-inkscape-font-specification:'Sans, Normal';font-variant-ligatures:normal;font-variant-caps:normal;font-variant-numeric:normal;font-variant-east-asian:normal;stroke:none;stroke-width:0.0484187"
         x="3.1077104"
         y="19.2682"
         id="tspan13">forzada interna</tspan></text>
    <g
       inkscape:label=""
       transform="translate(9.5985966,-0.29148384)"
       id="g25">
      <g
         fill="#000000"
         fill-opacity="1"
         id="g19"
         transform="matrix(0.352778,0,0,0.352778,-0.851914,-0.681214)">
        <g
           id="g18"
           transform="translate(1.993,5.0560002)">
          <path
             d="m 1.5625,-1.921875 h 0.59375 c 0.109375,0 0.109375,0 0.125,-0.03125 C 2.3125,-1.96875 2.328125,-2.03125 2.328125,-2.0625 2.328125,-2.140625 2.25,-2.140625 2.171875,-2.140625 H 1.625 L 1.71875,-2.5625 C 1.75,-2.6875 1.8125,-2.921875 1.8125,-2.953125 1.8125,-3.03125 1.75,-3.125 1.625,-3.125 c -0.078125,0 -0.203125,0.0625 -0.234375,0.1875 -0.03125,0.09375 0.03125,-0.140625 -0.203125,0.796875 H 0.59375 c -0.09375,0 -0.171875,0 -0.171875,0.125 0,0.09375 0.0625,0.09375 0.15625,0.09375 H 1.125 L 0.84375,-0.75 c -0.03125,0.109375 -0.078125,0.265625 -0.078125,0.328125 0,0.28125 0.265625,0.484375 0.625,0.484375 0.59375,0 0.96875,-0.6875 0.96875,-0.78125 0,-0.0625 -0.09375,-0.0625 -0.109375,-0.0625 -0.078125,0 -0.09375,0.015625 -0.109375,0.078125 -0.171875,0.359375 -0.46875,0.59375 -0.734375,0.59375 -0.15625,0 -0.203125,-0.125 -0.203125,-0.265625 0,-0.078125 0,-0.09375 0.015625,-0.140625 z m 0,0"
             id="path17" />
        </g>
      </g>
      <g
         fill="#000000"
         fill-opacity="1"
         id="g22"
         transform="matrix(0.352778,0,0,0.352778,-0.851914,-0.681214)">
        <g
           id="g20"
           transform="translate(4.8000002,6.7259998)">
          <path
             d="m 1.265625,-3.078125 c 0,-0.15625 -0.140625,-0.296875 -0.3125,-0.296875 -0.15625,0 -0.296875,0.125 -0.296875,0.296875 0,0.1875 0.140625,0.3125 0.296875,0.3125 0.171875,0 0.3125,-0.140625 0.3125,-0.3125 z m -0.828125,0.9375 v 0.21875 c 0.34375,0 0.390625,0.03125 0.390625,0.265625 v 1.234375 c 0,0.15625 0,0.203125 -0.328125,0.203125 H 0.40625 V 0 c 0.21875,-0.015625 0.421875,-0.015625 0.625,-0.015625 0.1875,0 0.40625,0 0.59375,0.015625 v -0.21875 c -0.328125,0 -0.375,0 -0.375,-0.203125 v -1.78125 z m 0,0"
             id="path19" />
        </g>
        <g
           id="g21"
           transform="translate(6.806468,6.7259998)">
          <path
             d="m 2.984375,-1.5 c 0,-0.546875 -0.375,-0.703125 -0.828125,-0.703125 -0.53125,0 -0.8125,0.296875 -0.9375,0.484375 v -0.484375 l -0.8125,0.0625 v 0.21875 c 0.375,0 0.421875,0.03125 0.421875,0.265625 v 1.234375 c 0,0.15625 0,0.203125 -0.328125,0.203125 H 0.40625 V 0 C 0.625,-0.015625 0.828125,-0.015625 1.046875,-0.015625 1.25,-0.015625 1.46875,-0.015625 1.6875,0 V -0.21875 H 1.59375 c -0.328125,0 -0.328125,-0.046875 -0.328125,-0.203125 V -1.28125 c 0,-0.5625 0.515625,-0.75 0.828125,-0.75 0.375,0 0.453125,0.203125 0.453125,0.515625 v 1.09375 c 0,0.15625 0,0.203125 -0.328125,0.203125 H 2.140625 V 0 c 0.203125,-0.015625 0.421875,-0.015625 0.625,-0.015625 0.21875,0 0.421875,0 0.640625,0.015625 V -0.21875 H 3.3125 c -0.328125,0 -0.328125,-0.046875 -0.328125,-0.203125 z m 0,0"
             id="path20" />
        </g>
      </g>
      <g
         fill="#000000"
         fill-opacity="1"
         id="g24"
         transform="matrix(0.352778,0,0,0.352778,-0.851914,-0.681214)">
        <g
           id="g23"
           transform="translate(10.368097,6.7259998)">
          <path
             d="m 1.21875,-1.921875 h 0.890625 v -0.21875 H 1.21875 V -3.0625 H 1.015625 c 0,0.46875 -0.25,0.953125 -0.765625,0.96875 v 0.171875 H 0.78125 V -0.625 c 0,0.5625 0.46875,0.6875 0.78125,0.6875 0.375,0 0.65625,-0.28125 0.65625,-0.6875 V -0.90625 H 2 v 0.265625 C 2,-0.265625 1.78125,-0.125 1.609375,-0.125 1.21875,-0.125 1.21875,-0.515625 1.21875,-0.625 Z m 0,0"
             id="path22" />
        </g>
      </g>
    </g>
    <g
       inkscape:label=""
       transform="translate(17.848349,-0.37482767)"
       id="g26">
      <g
         fill="#000000"
         fill-opacity="1"
         id="g3"
         transform="matrix(0.352778,0,0,0.352778,-0.851914,-0.681214)">
        <g
           id="use2"
           transform="translate(1.993,5.0560002)">
          <path
             d="m 1.5625,-1.921875 h 0.59375 c 0.109375,0 0.109375,0 0.125,-0.03125 C 2.3125,-1.96875 2.328125,-2.03125 2.328125,-2.0625 2.328125,-2.140625 2.25,-2.140625 2.171875,-2.140625 H 1.625 L 1.71875,-2.5625 C 1.75,-2.6875 1.8125,-2.921875 1.8125,-2.953125 1.8125,-3.03125 1.75,-3.125 1.625,-3.125 c -0.078125,0 -0.203125,0.0625 -0.234375,0.1875 -0.03125,0.09375 0.03125,-0.140625 -0.203125,0.796875 H 0.59375 c -0.09375,0 -0.171875,0 -0.171875,0.125 0,0.09375 0.0625,0.09375 0.15625,0.09375 H 1.125 L 0.84375,-0.75 c -0.03125,0.109375 -0.078125,0.265625 -0.078125,0.328125 0,0.28125 0.265625,0.484375 0.625,0.484375 0.59375,0 0.96875,-0.6875 0.96875,-0.78125 0,-0.0625 -0.09375,-0.0625 -0.109375,-0.0625 -0.078125,0 -0.09375,0.015625 -0.109375,0.078125 -0.171875,0.359375 -0.46875,0.59375 -0.734375,0.59375 -0.15625,0 -0.203125,-0.125 -0.203125,-0.265625 0,-0.078125 0,-0.09375 0.015625,-0.140625 z m 0,0"
             id="path25" />
        </g>
      </g>
      <g
         fill="#000000"
         fill-opacity="1"
         id="g4"
         transform="matrix(0.352778,0,0,0.352778,-0.851914,-0.681214)">
        <g
           id="use3"
           transform="translate(4.8000002,6.5500002)">
          <path
             d="M 1.984375,-3.171875 C 1.984375,-3.3125 1.96875,-3.3125 1.796875,-3.3125 1.453125,-3 0.890625,-3 0.796875,-3 H 0.71875 v 0.21875 h 0.078125 c 0.109375,0 0.4375,-0.015625 0.734375,-0.140625 v 2.5 c 0,0.140625 0,0.203125 -0.53125,0.203125 H 0.75 V 0 c 0.265625,-0.015625 0.71875,-0.015625 1,-0.015625 0.296875,0 0.734375,0 1.015625,0.015625 v -0.21875 h -0.25 c -0.53125,0 -0.53125,-0.0625 -0.53125,-0.203125 z m 0,0"
             id="path26" />
        </g>
      </g>
    </g>
    <g
       inkscape:label=""
       transform="translate(44.323218,-0.41341277)"
       id="g31">
      <g
         fill="#000000"
         fill-opacity="1"
         id="g28"
         transform="matrix(0.352778,0,0,0.352778,-0.851914,-0.681214)">
        <g
           id="g27"
           transform="translate(1.993,5.0560002)">
          <path
             d="m 1.5625,-1.921875 h 0.59375 c 0.109375,0 0.109375,0 0.125,-0.03125 C 2.3125,-1.96875 2.328125,-2.03125 2.328125,-2.0625 2.328125,-2.140625 2.25,-2.140625 2.171875,-2.140625 H 1.625 L 1.71875,-2.5625 C 1.75,-2.6875 1.8125,-2.921875 1.8125,-2.953125 1.8125,-3.03125 1.75,-3.125 1.625,-3.125 c -0.078125,0 -0.203125,0.0625 -0.234375,0.1875 -0.03125,0.09375 0.03125,-0.140625 -0.203125,0.796875 H 0.59375 c -0.09375,0 -0.171875,0 -0.171875,0.125 0,0.09375 0.0625,0.09375 0.15625,0.09375 H 1.125 L 0.84375,-0.75 c -0.03125,0.109375 -0.078125,0.265625 -0.078125,0.328125 0,0.28125 0.265625,0.484375 0.625,0.484375 0.59375,0 0.96875,-0.6875 0.96875,-0.78125 0,-0.0625 -0.09375,-0.0625 -0.109375,-0.0625 -0.078125,0 -0.09375,0.015625 -0.109375,0.078125 -0.171875,0.359375 -0.46875,0.59375 -0.734375,0.59375 -0.15625,0 -0.203125,-0.125 -0.203125,-0.265625 0,-0.078125 0,-0.09375 0.015625,-0.140625 z m 0,0"
             id="path27" />
        </g>
      </g>
      <g
         fill="#000000"
         fill-opacity="1"
         id="g30"
         transform="matrix(0.352778,0,0,0.352778,-0.851914,-0.681214)">
        <g
           id="g29"
           transform="translate(4.8000002,6.5500002)">
          <path
             d="M 2.9375,-0.96875 H 2.71875 c 0,0.09375 -0.0625,0.40625 -0.140625,0.453125 -0.03125,0.03125 -0.453125,0.03125 -0.53125,0.03125 H 1.078125 C 1.40625,-0.71875 1.765625,-1 2.0625,-1.203125 c 0.453125,-0.3125 0.875,-0.59375 0.875,-1.125 0,-0.640625 -0.609375,-0.984375 -1.3125,-0.984375 -0.671875,0 -1.171875,0.375 -1.171875,0.875 0,0.25 0.21875,0.296875 0.296875,0.296875 0.125,0 0.28125,-0.09375 0.28125,-0.296875 0,-0.171875 -0.125,-0.28125 -0.28125,-0.28125 0.140625,-0.234375 0.4375,-0.375 0.765625,-0.375 0.484375,0 0.890625,0.28125 0.890625,0.765625 0,0.421875 -0.296875,0.75 -0.671875,1.0625 l -1.21875,1.03125 C 0.46875,-0.1875 0.453125,-0.1875 0.453125,-0.15625 V 0 h 2.3125 z m 0,0"
             id="path28" />
        </g>
      </g>
    </g>
    <path
       style="fill:none;stroke:#000000;stroke-width:0.132292;stroke-linejoin:round;stroke-dasharray:none;stroke-dashoffset:0;marker-end:url(#ArrowWide)"
       d="M 11.90625,7.9375004 V 2.2973952"
       id="path31" />
    <path
       style="fill:none;stroke:#000000;stroke-width:0.132292;stroke-linejoin:round;stroke-dasharray:none;stroke-dashoffset:0;marker-end:url(#ArrowWide)"
       d="m 3.9687499,15.500873 2.3606583,-3.93501"
       id="path33"
       sodipodi:nodetypes="cc" />
    <path
       style="fill:none;stroke:#000000;stroke-width:0.105833;stroke-linejoin:round;stroke-dasharray:none;stroke-dashoffset:0"
       d="M 18.520833,3.9687502 19.84375,2.6458336"
       id="path34" />
    <path
       style="fill:none;stroke:#000000;stroke-width:0.105833;stroke-linejoin:round;stroke-dasharray:none;stroke-dashoffset:0"
       d="M 19.843749,3.9687502 21.166666,2.6458336"
       id="path35" />
    <path
       style="fill:none;stroke:#000000;stroke-width:0.105833;stroke-linejoin:round;stroke-dasharray:none;stroke-dashoffset:0"
       d="M 21.166666,3.9687502 22.489583,2.6458336"
       id="path36" />
    <path
       style="fill:none;stroke:#000000;stroke-width:0.105833;stroke-linejoin:round;stroke-dasharray:none;stroke-dashoffset:0"
       d="M 22.489582,3.9687502 23.812499,2.6458336"
       id="path37" />
    <path
       style="fill:none;stroke:#000000;stroke-width:0.105833;stroke-linejoin:round;stroke-dasharray:none;stroke-dashoffset:0"
       d="M 23.812499,3.9687501 25.135416,2.6458335"
       id="path38" />
    <path
       style="fill:none;stroke:#000000;stroke-width:0.105833;stroke-linejoin:round;stroke-dasharray:none;stroke-dashoffset:0"
       d="M 25.135415,3.9687501 26.458332,2.6458335"
       id="path39" />
    <path
       style="fill:none;stroke:#000000;stroke-width:0.105833;stroke-linejoin:round;stroke-dasharray:none;stroke-dashoffset:0"
       d="M 26.458332,3.9687501 27.781249,2.6458335"
       id="path40" />
    <path
       style="fill:none;stroke:#000000;stroke-width:0.105833;stroke-linejoin:round;stroke-dasharray:none;stroke-dashoffset:0"
       d="M 27.781248,3.9687501 29.104165,2.6458335"
       id="path41" />
    <path
       style="fill:none;stroke:#000000;stroke-width:0.105833;stroke-linejoin:round;stroke-dasharray:none;stroke-dashoffset:0"
       d="M 29.104165,3.9687502 30.427082,2.6458336"
       id="path42" />
    <path
       style="fill:none;stroke:#000000;stroke-width:0.105833;stroke-linejoin:round;stroke-dasharray:none;stroke-dashoffset:0"
       d="M 30.427081,3.9687502 31.749998,2.6458336"
       id="path43" />
    <path
       style="fill:none;stroke:#000000;stroke-width:0.105833;stroke-linejoin:round;stroke-dasharray:none;stroke-dashoffset:0"
       d="M 31.749998,3.9687502 33.072915,2.6458336"
       id="path44" />
    <path
       style="fill:none;stroke:#000000;stroke-width:0.105833;stroke-linejoin:round;stroke-dasharray:none;stroke-dashoffset:0"
       d="M 33.072914,3.9687502 34.395831,2.6458336"
       id="path45" />
    <path
       style="fill:none;stroke:#000000;stroke-width:0.105833;stroke-linejoin:round;stroke-dasharray:none;stroke-dashoffset:0"
       d="M 34.395831,3.9687501 35.718748,2.6458335"
       id="path46" />
    <path
       style="fill:none;stroke:#000000;stroke-width:0.105833;stroke-linejoin:round;stroke-dasharray:none;stroke-dashoffset:0"
       d="M 35.718747,3.9687501 37.041664,2.6458335"
       id="path47" />
    <path
       style="fill:none;stroke:#000000;stroke-width:0.105833;stroke-linejoin:round;stroke-dasharray:none;stroke-dashoffset:0"
       d="M 37.041664,3.9687501 38.364581,2.6458335"
       id="path48" />
    <path
       style="fill:none;stroke:#000000;stroke-width:0.105833;stroke-linejoin:round;stroke-dasharray:none;stroke-dashoffset:0"
       d="M 38.36458,3.9687501 39.687497,2.6458335"
       id="path49" />
    <path
       style="fill:none;stroke:#000000;stroke-width:0.105833;stroke-linejoin:round;stroke-dasharray:none;stroke-dashoffset:0"
       d="M 39.687497,3.9687501 41.010414,2.6458335"
       id="path50" />
    <path
       style="fill:none;stroke:#000000;stroke-width:0.105833;stroke-linejoin:round;stroke-dasharray:none;stroke-dashoffset:0"
       d="M 41.010413,3.9687501 42.33333,2.6458335"
       id="path51" />
    <path
       style="fill:none;stroke:#000000;stroke-width:0.105833;stroke-linejoin:round;stroke-dasharray:none;stroke-dashoffset:0"
       d="M 42.33333,3.9687501 43.656247,2.6458335"
       id="path52" />
    <path
       style="fill:none;stroke:#000000;stroke-width:0.105833;stroke-linejoin:round;stroke-dasharray:none;stroke-dashoffset:0"
       d="M 43.656246,3.9687501 44.979163,2.6458335"
       id="path53" />
    <path
       style="fill:none;stroke:#000000;stroke-width:0.105833;stroke-linejoin:round;stroke-dasharray:none;stroke-dashoffset:0"
       d="M 18.520833,13.229167 19.84375,11.90625"
       id="path54" />
    <path
       style="fill:none;stroke:#000000;stroke-width:0.105833;stroke-linejoin:round;stroke-dasharray:none;stroke-dashoffset:0"
       d="M 19.843749,13.229167 21.166666,11.90625"
       id="path55" />
    <path
       style="fill:none;stroke:#000000;stroke-width:0.105833;stroke-linejoin:round;stroke-dasharray:none;stroke-dashoffset:0"
       d="M 21.166666,13.229167 22.489583,11.90625"
       id="path56" />
    <path
       style="fill:none;stroke:#000000;stroke-width:0.105833;stroke-linejoin:round;stroke-dasharray:none;stroke-dashoffset:0"
       d="M 22.489582,13.229167 23.812499,11.90625"
       id="path57" />
    <path
       style="fill:none;stroke:#000000;stroke-width:0.105833;stroke-linejoin:round;stroke-dasharray:none;stroke-dashoffset:0"
       d="M 23.812499,13.229167 25.135416,11.90625"
       id="path58" />
    <path
       style="fill:none;stroke:#000000;stroke-width:0.105833;stroke-linejoin:round;stroke-dasharray:none;stroke-dashoffset:0"
       d="M 25.135415,13.229167 26.458332,11.90625"
       id="path59" />
    <path
       style="fill:none;stroke:#000000;stroke-width:0.105833;stroke-linejoin:round;stroke-dasharray:none;stroke-dashoffset:0"
       d="M 26.458332,13.229167 27.781249,11.90625"
       id="path60" />
    <path
       style="fill:none;stroke:#000000;stroke-width:0.105833;stroke-linejoin:round;stroke-dasharray:none;stroke-dashoffset:0"
       d="M 27.781248,13.229167 29.104165,11.90625"
       id="path61" />
    <path
       style="fill:none;stroke:#000000;stroke-width:0.105833;stroke-linejoin:round;stroke-dasharray:none;stroke-dashoffset:0"
       d="M 29.104165,13.229167 30.427082,11.90625"
       id="path62" />
    <path
       style="fill:none;stroke:#000000;stroke-width:0.105833;stroke-linejoin:round;stroke-dasharray:none;stroke-dashoffset:0"
       d="M 30.427081,13.229167 31.749998,11.90625"
       id="path63" />
    <path
       style="fill:none;stroke:#000000;stroke-width:0.105833;stroke-linejoin:round;stroke-dasharray:none;stroke-dashoffset:0"
       d="M 31.749998,13.229167 33.072915,11.90625"
       id="path64" />
    <path
       style="fill:none;stroke:#000000;stroke-width:0.105833;stroke-linejoin:round;stroke-dasharray:none;stroke-dashoffset:0"
       d="M 33.072914,13.229167 34.395831,11.90625"
       id="path65" />
    <path
       style="fill:none;stroke:#000000;stroke-width:0.105833;stroke-linejoin:round;stroke-dasharray:none;stroke-dashoffset:0"
       d="M 34.395831,13.229167 35.718748,11.90625"
       id="path66" />
    <path
       style="fill:none;stroke:#000000;stroke-width:0.105833;stroke-linejoin:round;stroke-dasharray:none;stroke-dashoffset:0"
       d="M 35.718747,13.229167 37.041664,11.90625"
       id="path67" />
    <path
       style="fill:none;stroke:#000000;stroke-width:0.105833;stroke-linejoin:round;stroke-dasharray:none;stroke-dashoffset:0"
       d="M 37.041664,13.229167 38.364581,11.90625"
       id="path68" />
    <path
       style="fill:none;stroke:#000000;stroke-width:0.105833;stroke-linejoin:round;stroke-dasharray:none;stroke-dashoffset:0"
       d="M 38.36458,13.229167 39.687497,11.90625"
       id="path69" />
    <path
       style="fill:none;stroke:#000000;stroke-width:0.105833;stroke-linejoin:round;stroke-dasharray:none;stroke-dashoffset:0"
       d="M 39.687497,13.229167 41.010414,11.90625"
       id="path70" />
    <path
       style="fill:none;stroke:#000000;stroke-width:0.105833;stroke-linejoin:round;stroke-dasharray:none;stroke-dashoffset:0"
       d="M 41.010413,13.229167 42.33333,11.90625"
       id="path71" />
    <path
       style="fill:none;stroke:#000000;stroke-width:0.105833;stroke-linejoin:round;stroke-dasharray:none;stroke-dashoffset:0"
       d="M 42.33333,13.229167 43.656247,11.90625"
       id="path72" />
    <path
       style="fill:none;stroke:#000000;stroke-width:0.105833;stroke-linejoin:round;stroke-dasharray:none;stroke-dashoffset:0"
       d="M 43.656246,13.229167 44.979163,11.90625"
       id="path73" />
  </g>
</svg>
