<?xml version="1.0" encoding="UTF-8" standalone="no"?>
<!-- Created with Inkscape (http://www.inkscape.org/) -->

<svg
   width="270"
   height="135.00002"
   viewBox="0 0 71.437498 35.718754"
   version="1.1"
   id="svg1"
   inkscape:version="1.3.2 (091e20ef0f, 2023-11-25)"
   sodipodi:docname="figura03_09.svg"
   xmlns:inkscape="http://www.inkscape.org/namespaces/inkscape"
   xmlns:sodipodi="http://sodipodi.sourceforge.net/DTD/sodipodi-0.dtd"
   xmlns="http://www.w3.org/2000/svg"
   xmlns:svg="http://www.w3.org/2000/svg">
  <sodipodi:namedview
     id="namedview1"
     pagecolor="#ffffff"
     bordercolor="#000000"
     borderopacity="0.25"
     inkscape:showpageshadow="false"
     inkscape:pageopacity="0.0"
     inkscape:pagecheckerboard="0"
     inkscape:deskcolor="#d1d1d1"
     inkscape:document-units="px"
     showgrid="true"
     inkscape:zoom="3.1206979"
     inkscape:cx="124.33116"
     inkscape:cy="34.928084"
     inkscape:window-width="1920"
     inkscape:window-height="1046"
     inkscape:window-x="1920"
     inkscape:window-y="18"
     inkscape:window-maximized="1"
     inkscape:current-layer="layer1">
    <inkscape:grid
       id="grid1"
       units="px"
       originx="-3.9687499"
       originy="-2.6458335"
       spacingx="1.3229166"
       spacingy="1.3229167"
       empcolor="#0099e5"
       empopacity="0.30196078"
       color="#0099e5"
       opacity="0.14901961"
       empspacing="4"
       dotted="false"
       gridanglex="30"
       gridanglez="30"
       visible="true" />
  </sodipodi:namedview>
  <defs
     id="defs1" />
  <g
     inkscape:label="Capa 1"
     inkscape:groupmode="layer"
     id="layer1"
     transform="translate(-3.96875,-2.6458335)">
    <path
       style="fill:none;stroke:#0000ff;stroke-width:0.132292;stroke-linejoin:round"
       d="M 5.2916666,31.750002 H 37.041666"
       id="path1"
       sodipodi:nodetypes="cc" />
    <path
       style="fill:none;stroke:#0000ff;stroke-width:0.132292;stroke-linejoin:round"
       d="M 10.583333,37.041669 V 5.2916669"
       id="path2" />
    <path
       style="fill:none;stroke:#0000ff;stroke-width:0.132292;stroke-linejoin:round"
       d="M 5.2916666,10.583334 H 37.041666"
       id="path3" />
    <path
       style="fill:none;stroke:#0000ff;stroke-width:0.0529167;stroke-linejoin:round;stroke-dasharray:0.105833, 0.0529167;stroke-dashoffset:0"
       d="M 21.166666,5.2916669 V 33.072918"
       id="path4"
       sodipodi:nodetypes="cc" />
    <path
       style="fill:none;stroke:#0000ff;stroke-width:0.132292;stroke-linejoin:round"
       d="M 31.75,5.2916669 V 37.041669"
       id="path5" />
    <text
       xml:space="preserve"
       style="font-size:1.26984px;font-family:Futura;-inkscape-font-specification:'Futura, Normal';text-align:center;text-anchor:middle;fill:#000000;stroke:none;stroke-width:0.0595235;stroke-linejoin:round"
       x="21.133652"
       y="34.375519"
       id="text5"><tspan
         sodipodi:role="line"
         id="tspan5"
         style="fill:#000000;stroke:none;stroke-width:0.0595235"
         x="21.133652"
         y="34.375519">Plano medio</tspan></text>
    <path
       style="fill:none;stroke:#000000;stroke-width:0.079375;stroke-linejoin:round;stroke-dasharray:none"
       d="m 10.583333,31.750002 c 0,0 2.645833,-2.645834 5.291667,-10.583334 1.787162,-5.361486 2.645833,-10.583334 5.291666,-10.583334"
       id="path8"
       sodipodi:nodetypes="csc" />
    <path
       style="fill:none;stroke:#000000;stroke-width:0.079375;stroke-linejoin:round;stroke-dasharray:none"
       d="m 10.583333,31.750002 c 0,0 3.340714,-0.984455 5.291667,-2.365238 2.414574,-1.708909 2.645833,-2.926429 5.291666,-2.926429"
       id="path10"
       sodipodi:nodetypes="csc" />
    <path
       style="fill:none;stroke:#000000;stroke-width:0.079375;stroke-linejoin:round;stroke-dasharray:none"
       d="m 10.583333,31.750002 c 0,0 2.973195,-2.311665 5.291667,-8.066749 2.111817,-5.24211 2.645833,-9.924919 5.291666,-9.924919"
       id="path11"
       sodipodi:nodetypes="csc" />
    <path
       style="fill:none;stroke:#000000;stroke-width:0.079375;stroke-linejoin:round;stroke-dasharray:none"
       d="m 10.583333,31.750002 c 0,0 3.378501,-1.899551 5.291667,-5.955469 2.411034,-5.111399 2.645833,-8.861199 5.291666,-8.861199"
       id="path12"
       sodipodi:nodetypes="csc" />
    <path
       style="fill:none;stroke:#000000;stroke-width:0.079375;stroke-linejoin:round;stroke-dasharray:none"
       d="m 10.583333,31.750002 c 0,0 3.191436,-1.378358 5.291667,-4.046842 3.495287,-4.440998 2.645833,-7.594825 5.291666,-7.594825"
       id="path13"
       sodipodi:nodetypes="csc" />
    <path
       style="fill:none;stroke:#000000;stroke-width:0.079375;stroke-linejoin:round;stroke-dasharray:none"
       d="m 10.583333,31.750002 c 0,0 3.643508,-1.48063 5.291667,-2.870883 4.319888,-3.643908 2.645833,-5.595784 5.291666,-5.595784"
       id="path14"
       sodipodi:nodetypes="csc" />
    <path
       style="fill:none;stroke:#000000;stroke-width:0.079375;stroke-linejoin:round;stroke-dasharray:none"
       d="m 31.749999,31.750002 c 0,0 -2.645833,-2.645834 -5.291667,-10.583334 C 24.67117,15.805182 23.812499,10.583334 21.166666,10.583334"
       id="path15"
       sodipodi:nodetypes="csc" />
    <path
       style="fill:none;stroke:#000000;stroke-width:0.079375;stroke-linejoin:round;stroke-dasharray:none"
       d="m 31.749999,31.750002 c 0,0 -3.340714,-0.984455 -5.291667,-2.365238 -2.414574,-1.708909 -2.645833,-2.926429 -5.291666,-2.926429"
       id="path16"
       sodipodi:nodetypes="csc" />
    <path
       style="fill:none;stroke:#000000;stroke-width:0.079375;stroke-linejoin:round;stroke-dasharray:none"
       d="m 31.749999,31.750002 c 0,0 -2.973195,-2.311665 -5.291667,-8.066749 -2.111817,-5.24211 -2.645833,-9.924919 -5.291666,-9.924919"
       id="path17"
       sodipodi:nodetypes="csc" />
    <path
       style="fill:none;stroke:#000000;stroke-width:0.079375;stroke-linejoin:round;stroke-dasharray:none"
       d="m 31.749999,31.750002 c 0,0 -3.378501,-1.899551 -5.291667,-5.955469 -2.411034,-5.111399 -2.645833,-8.861199 -5.291666,-8.861199"
       id="path18"
       sodipodi:nodetypes="csc" />
    <path
       style="fill:none;stroke:#000000;stroke-width:0.079375;stroke-linejoin:round;stroke-dasharray:none"
       d="m 31.749999,31.750002 c 0,0 -3.191436,-1.378358 -5.291667,-4.046842 -3.495287,-4.440998 -2.645833,-7.594825 -5.291666,-7.594825"
       id="path19"
       sodipodi:nodetypes="csc" />
    <path
       style="fill:none;stroke:#000000;stroke-width:0.079375;stroke-linejoin:round;stroke-dasharray:none"
       d="m 31.749999,31.750002 c 0,0 -3.643508,-1.48063 -5.291667,-2.870883 -4.319888,-3.643908 -2.645833,-5.595784 -5.291666,-5.595784"
       id="path20"
       sodipodi:nodetypes="csc" />
    <path
       style="fill:none;stroke:#0000ff;stroke-width:0.132292;stroke-linejoin:round"
       d="M 42.333333,31.750002 H 74.083332"
       id="path21"
       sodipodi:nodetypes="cc" />
    <path
       style="fill:none;stroke:#0000ff;stroke-width:0.132292;stroke-linejoin:round"
       d="M 47.624999,37.041669 V 5.2916669"
       id="path22" />
    <path
       style="fill:none;stroke:#0000ff;stroke-width:0.132292;stroke-linejoin:round"
       d="M 42.333333,10.583334 H 74.083332"
       id="path23" />
    <path
       style="fill:none;stroke:#0000ff;stroke-width:0.0529167;stroke-linejoin:round;stroke-dasharray:0.105833, 0.0529167;stroke-dashoffset:0"
       d="M 58.208332,5.2916669 V 33.072918"
       id="path24"
       sodipodi:nodetypes="cc" />
    <path
       style="fill:none;stroke:#0000ff;stroke-width:0.132292;stroke-linejoin:round"
       d="M 68.791666,5.2916669 V 37.041669"
       id="path25" />
    <text
       xml:space="preserve"
       style="font-size:1.26984px;font-family:Futura;-inkscape-font-specification:'Futura, Normal';text-align:center;text-anchor:middle;fill:#000000;stroke:none;stroke-width:0.0595235;stroke-linejoin:round"
       x="58.175316"
       y="34.375519"
       id="text25"><tspan
         sodipodi:role="line"
         id="tspan25"
         style="fill:#000000;stroke:none;stroke-width:0.0595235"
         x="58.175316"
         y="34.375519">Plano medio</tspan></text>
    <path
       style="fill:none;stroke:#000000;stroke-width:0.079375;stroke-linejoin:round;stroke-dasharray:none"
       d="m 47.624999,10.581715 c 0,0 2.645833,2.645834 5.291667,10.583334 1.787162,5.361486 2.645833,10.583334 5.291666,10.583334"
       id="path26"
       sodipodi:nodetypes="csc" />
    <path
       style="fill:none;stroke:#000000;stroke-width:0.079375;stroke-linejoin:round;stroke-dasharray:none"
       d="m 47.624999,10.581715 c 0,0 3.340714,0.984455 5.291667,2.365238 2.414574,1.708909 2.645833,2.926429 5.291666,2.926429"
       id="path27"
       sodipodi:nodetypes="csc" />
    <path
       style="fill:none;stroke:#000000;stroke-width:0.079375;stroke-linejoin:round;stroke-dasharray:none"
       d="m 47.624999,10.581715 c 0,0 2.973195,2.311665 5.291667,8.066749 2.111817,5.24211 2.645833,9.924919 5.291666,9.924919"
       id="path28"
       sodipodi:nodetypes="csc" />
    <path
       style="fill:none;stroke:#000000;stroke-width:0.079375;stroke-linejoin:round;stroke-dasharray:none"
       d="m 47.624999,10.581715 c 0,0 3.378501,1.899551 5.291667,5.955469 2.411034,5.111399 2.645833,8.861199 5.291666,8.861199"
       id="path29"
       sodipodi:nodetypes="csc" />
    <path
       style="fill:none;stroke:#000000;stroke-width:0.079375;stroke-linejoin:round;stroke-dasharray:none"
       d="m 47.624999,10.581715 c 0,0 3.191436,1.378358 5.291667,4.046842 3.495287,4.440998 2.645833,7.594825 5.291666,7.594825"
       id="path30"
       sodipodi:nodetypes="csc" />
    <path
       style="fill:none;stroke:#000000;stroke-width:0.079375;stroke-linejoin:round;stroke-dasharray:none"
       d="m 47.624999,10.581715 c 0,0 3.643508,1.48063 5.291667,2.870883 4.319888,3.643908 2.645833,5.595784 5.291666,5.595784"
       id="path31"
       sodipodi:nodetypes="csc" />
    <path
       style="fill:none;stroke:#000000;stroke-width:0.079375;stroke-linejoin:round;stroke-dasharray:none"
       d="m 68.791665,10.581715 c 0,0 -2.645833,2.645834 -5.291667,10.583334 -1.787162,5.361486 -2.645833,10.583334 -5.291666,10.583334"
       id="path32"
       sodipodi:nodetypes="csc" />
    <path
       style="fill:none;stroke:#000000;stroke-width:0.079375;stroke-linejoin:round;stroke-dasharray:none"
       d="m 68.791665,10.581715 c 0,0 -3.340714,0.984455 -5.291667,2.365238 -2.414574,1.708909 -2.645833,2.926429 -5.291666,2.926429"
       id="path33"
       sodipodi:nodetypes="csc" />
    <path
       style="fill:none;stroke:#000000;stroke-width:0.079375;stroke-linejoin:round;stroke-dasharray:none"
       d="m 68.791665,10.581715 c 0,0 -2.973195,2.311665 -5.291667,8.066749 -2.111817,5.24211 -2.645833,9.924919 -5.291666,9.924919"
       id="path34"
       sodipodi:nodetypes="csc" />
    <path
       style="fill:none;stroke:#000000;stroke-width:0.079375;stroke-linejoin:round;stroke-dasharray:none"
       d="m 68.791665,10.581715 c 0,0 -3.378501,1.899551 -5.291667,5.955469 -2.411034,5.111399 -2.645833,8.861199 -5.291666,8.861199"
       id="path35"
       sodipodi:nodetypes="csc" />
    <path
       style="fill:none;stroke:#000000;stroke-width:0.079375;stroke-linejoin:round;stroke-dasharray:none"
       d="m 68.791665,10.581715 c 0,0 -3.191436,1.378358 -5.291667,4.046842 -3.495287,4.440998 -2.645833,7.594825 -5.291666,7.594825"
       id="path36"
       sodipodi:nodetypes="csc" />
    <path
       style="fill:none;stroke:#000000;stroke-width:0.079375;stroke-linejoin:round;stroke-dasharray:none"
       d="m 68.791665,10.581715 c 0,0 -3.643508,1.48063 -5.291667,2.870883 -4.319888,3.643908 -2.645833,5.595784 -5.291666,5.595784"
       id="path37"
       sodipodi:nodetypes="csc" />
    <text
       xml:space="preserve"
       style="font-size:1.57163px;font-family:Futura;-inkscape-font-specification:'Futura, Normal';text-align:center;text-anchor:middle;fill:#000000;stroke:none;stroke-width:0.0442019;stroke-linejoin:round;stroke-dasharray:none"
       x="21.125805"
       y="5.2768002"
       id="text37"><tspan
         sodipodi:role="line"
         id="tspan37"
         style="fill:#000000;stroke:none;stroke-width:0.0442019"
         x="21.125805"
         y="5.2768002">Enfriamiento</tspan></text>
    <text
       xml:space="preserve"
       style="font-size:1.57163px;font-family:Futura;-inkscape-font-specification:'Futura, Normal';text-align:center;text-anchor:middle;fill:#000000;stroke:none;stroke-width:0.0442019;stroke-linejoin:round;stroke-dasharray:none"
       x="58.200474"
       y="5.2768002"
       id="text38"><tspan
         sodipodi:role="line"
         id="tspan38"
         style="fill:#000000;stroke:none;stroke-width:0.0442019"
         x="58.200474"
         y="5.2768002">Calentamiento</tspan></text>
    <g
       inkscape:label=""
       transform="matrix(0.57767734,0,0,0.57767734,20.370068,9.3258028)"
       id="g45">
      <g
         fill="#000000"
         fill-opacity="1"
         id="g3"
         transform="matrix(0.352778,0,0,0.352778,-0.857426,-0.666221)">
        <g
           id="use2"
           transform="translate(1.993,5.4510002)">
          <path
             d="M 2.9375,-3.453125 C 2.875,-3.546875 2.84375,-3.5625 2.734375,-3.5625 2.625,-3.5625 2.59375,-3.546875 2.53125,-3.453125 L 0.484375,-0.125 C 0.4375,-0.078125 0.4375,-0.0625 0.4375,-0.0625 0.4375,0 0.484375,0 0.5625,0 h 4.328125 c 0.078125,0 0.125,0 0.125,-0.0625 0,0 0,-0.015625 -0.03125,-0.0625 z M 2.546875,-3.0625 4.15625,-0.453125 H 0.9375 Z m 0,0"
             id="path44" />
        </g>
      </g>
      <g
         fill="#000000"
         fill-opacity="1"
         id="g4"
         transform="matrix(0.352778,0,0,0.352778,-0.857426,-0.666221)">
        <g
           id="use3"
           transform="translate(7.4580002,5.4510002)">
          <path
             d="m 3.015625,-2.359375 c 0,-0.609375 -0.28125,-1.15625 -0.8125,-1.15625 -0.796875,0 -1.671875,1.25 -1.671875,2.421875 0,0.671875 0.328125,1.15625 0.8125,1.15625 0.8125,0 1.671875,-1.296875 1.671875,-2.421875 z m -1.875,0.515625 c 0.3125,-1.234375 0.8125,-1.5 1.046875,-1.5 0.28125,0 0.40625,0.3125 0.40625,0.703125 0,0.15625 -0.015625,0.359375 -0.125,0.796875 z m 1.265625,0.234375 c -0.296875,1.1875 -0.796875,1.5 -1.046875,1.5 -0.375,0 -0.40625,-0.5625 -0.40625,-0.703125 0,-0.203125 0.03125,-0.4375 0.125,-0.796875 z m 0,0"
             id="path45" />
        </g>
      </g>
    </g>
    <g
       inkscape:label=""
       transform="matrix(0.57767734,0,0,0.57767734,20.026233,12.626397)"
       id="g48">
      <g
         fill="#000000"
         fill-opacity="1"
         id="g47"
         transform="matrix(0.352778,0,0,0.352778,-0.862939,-0.666221)">
        <g
           id="g46"
           transform="translate(1.993,5.4510002)">
          <path
             d="M 2.9375,-0.96875 H 2.71875 c 0,0.09375 -0.0625,0.40625 -0.140625,0.453125 -0.03125,0.03125 -0.453125,0.03125 -0.53125,0.03125 H 1.078125 C 1.40625,-0.71875 1.765625,-1 2.0625,-1.203125 c 0.453125,-0.3125 0.875,-0.59375 0.875,-1.125 0,-0.640625 -0.609375,-0.984375 -1.3125,-0.984375 -0.671875,0 -1.171875,0.375 -1.171875,0.875 0,0.25 0.21875,0.296875 0.296875,0.296875 0.125,0 0.28125,-0.09375 0.28125,-0.296875 0,-0.171875 -0.125,-0.28125 -0.28125,-0.28125 0.140625,-0.234375 0.4375,-0.375 0.765625,-0.375 0.484375,0 0.890625,0.28125 0.890625,0.765625 0,0.421875 -0.296875,0.75 -0.671875,1.0625 l -1.21875,1.03125 C 0.46875,-0.1875 0.453125,-0.1875 0.453125,-0.15625 V 0 h 2.3125 z m 0,0"
             id="path46" />
        </g>
        <g
           id="use4"
           transform="translate(5.3832731,5.4510002)">
          <path
             d="M 2.9375,-3.453125 C 2.875,-3.546875 2.84375,-3.5625 2.734375,-3.5625 2.625,-3.5625 2.59375,-3.546875 2.53125,-3.453125 L 0.484375,-0.125 C 0.4375,-0.078125 0.4375,-0.0625 0.4375,-0.0625 0.4375,0 0.484375,0 0.5625,0 h 4.328125 c 0.078125,0 0.125,0 0.125,-0.0625 0,0 0,-0.015625 -0.03125,-0.0625 z M 2.546875,-3.0625 4.15625,-0.453125 H 0.9375 Z m 0,0"
             id="path6" />
        </g>
      </g>
      <g
         fill="#000000"
         fill-opacity="1"
         id="g5"
         transform="matrix(0.352778,0,0,0.352778,-0.862939,-0.666221)">
        <g
           id="use5"
           transform="translate(10.848,5.4510002)">
          <path
             d="m 3.015625,-2.359375 c 0,-0.609375 -0.28125,-1.15625 -0.8125,-1.15625 -0.796875,0 -1.671875,1.25 -1.671875,2.421875 0,0.671875 0.328125,1.15625 0.8125,1.15625 0.8125,0 1.671875,-1.296875 1.671875,-2.421875 z m -1.875,0.515625 c 0.3125,-1.234375 0.8125,-1.5 1.046875,-1.5 0.28125,0 0.40625,0.3125 0.40625,0.703125 0,0.15625 -0.015625,0.359375 -0.125,0.796875 z m 1.265625,0.234375 c -0.296875,1.1875 -0.796875,1.5 -1.046875,1.5 -0.375,0 -0.40625,-0.5625 -0.40625,-0.703125 0,-0.203125 0.03125,-0.4375 0.125,-0.796875 z m 0,0"
             id="path7" />
        </g>
      </g>
    </g>
    <g
       inkscape:label=""
       transform="matrix(0.57767734,0,0,0.57767734,20.021456,15.736144)"
       id="g54">
      <g
         fill="#000000"
         fill-opacity="1"
         id="g51"
         transform="matrix(0.352778,0,0,0.352778,-0.846402,-0.666221)">
        <g
           id="g49"
           transform="translate(1.993,5.4510002)">
          <path
             d="m 1.640625,-1.65625 c 0.46875,0 0.765625,0.296875 0.765625,0.78125 0,0.515625 -0.3125,0.78125 -0.75,0.78125 -0.0625,0 -0.65625,0 -0.90625,-0.265625 0.203125,-0.03125 0.265625,-0.171875 0.265625,-0.296875 0,-0.1875 -0.140625,-0.3125 -0.3125,-0.3125 -0.15625,0 -0.296875,0.109375 -0.296875,0.328125 0,0.515625 0.578125,0.75 1.265625,0.75 0.8125,0 1.3125,-0.5 1.3125,-0.984375 0,-0.40625 -0.359375,-0.75 -0.921875,-0.875 0.59375,-0.203125 0.75,-0.578125 0.75,-0.859375 0,-0.40625 -0.5,-0.703125 -1.125,-0.703125 -0.625,0 -1.109375,0.25 -1.109375,0.703125 0,0.234375 0.1875,0.296875 0.28125,0.296875 0.140625,0 0.28125,-0.109375 0.28125,-0.296875 0,-0.109375 -0.0625,-0.25 -0.234375,-0.28125 C 1.109375,-3.109375 1.5625,-3.125 1.671875,-3.125 c 0.359375,0 0.609375,0.171875 0.609375,0.515625 0,0.296875 -0.1875,0.75 -0.703125,0.78125 -0.140625,0 -0.15625,0 -0.296875,0.015625 -0.046875,0 -0.109375,0 -0.109375,0.078125 0,0.078125 0.046875,0.078125 0.140625,0.078125 z m 0,0"
             id="path48" />
        </g>
        <g
           id="g50"
           transform="translate(5.3832731,5.4510002)">
          <path
             d="M 2.9375,-3.453125 C 2.875,-3.546875 2.84375,-3.5625 2.734375,-3.5625 2.625,-3.5625 2.59375,-3.546875 2.53125,-3.453125 L 0.484375,-0.125 C 0.4375,-0.078125 0.4375,-0.0625 0.4375,-0.0625 0.4375,0 0.484375,0 0.5625,0 h 4.328125 c 0.078125,0 0.125,0 0.125,-0.0625 0,0 0,-0.015625 -0.03125,-0.0625 z M 2.546875,-3.0625 4.15625,-0.453125 H 0.9375 Z m 0,0"
             id="path49" />
        </g>
      </g>
      <g
         fill="#000000"
         fill-opacity="1"
         id="g53"
         transform="matrix(0.352778,0,0,0.352778,-0.846402,-0.666221)">
        <g
           id="g52"
           transform="translate(10.848,5.4510002)">
          <path
             d="m 3.015625,-2.359375 c 0,-0.609375 -0.28125,-1.15625 -0.8125,-1.15625 -0.796875,0 -1.671875,1.25 -1.671875,2.421875 0,0.671875 0.328125,1.15625 0.8125,1.15625 0.8125,0 1.671875,-1.296875 1.671875,-2.421875 z m -1.875,0.515625 c 0.3125,-1.234375 0.8125,-1.5 1.046875,-1.5 0.28125,0 0.40625,0.3125 0.40625,0.703125 0,0.15625 -0.015625,0.359375 -0.125,0.796875 z m 1.265625,0.234375 c -0.296875,1.1875 -0.796875,1.5 -1.046875,1.5 -0.375,0 -0.40625,-0.5625 -0.40625,-0.703125 0,-0.203125 0.03125,-0.4375 0.125,-0.796875 z m 0,0"
             id="path51" />
        </g>
      </g>
    </g>
    <g
       inkscape:label=""
       transform="matrix(0.57767734,0,0,0.57767734,20.011904,18.937577)"
       id="g60">
      <g
         fill="#000000"
         fill-opacity="1"
         id="g57"
         transform="matrix(0.352778,0,0,0.352778,-0.813329,-0.666221)">
        <g
           id="g55"
           transform="translate(1.993,5.4510002)">
          <path
             d="m 3.078125,-0.8125 v -0.21875 h -0.625 v -2.1875 c 0,-0.125 0,-0.15625 -0.140625,-0.15625 -0.09375,0 -0.09375,0 -0.15625,0.078125 L 0.3125,-1.03125 v 0.21875 h 1.65625 v 0.390625 c 0,0.15625 0,0.203125 -0.421875,0.203125 h -0.1875 V 0 c 0.234375,-0.015625 0.5625,-0.015625 0.859375,-0.015625 0.28125,0 0.609375,0 0.84375,0.015625 V -0.21875 H 2.890625 c -0.4375,0 -0.4375,-0.046875 -0.4375,-0.203125 V -0.8125 Z m -1.0625,-2.03125 v 1.8125 h -1.46875 z m 0,0"
             id="path54" />
        </g>
        <g
           id="g56"
           transform="translate(5.3832731,5.4510002)">
          <path
             d="M 2.9375,-3.453125 C 2.875,-3.546875 2.84375,-3.5625 2.734375,-3.5625 2.625,-3.5625 2.59375,-3.546875 2.53125,-3.453125 L 0.484375,-0.125 C 0.4375,-0.078125 0.4375,-0.0625 0.4375,-0.0625 0.4375,0 0.484375,0 0.5625,0 h 4.328125 c 0.078125,0 0.125,0 0.125,-0.0625 0,0 0,-0.015625 -0.03125,-0.0625 z M 2.546875,-3.0625 4.15625,-0.453125 H 0.9375 Z m 0,0"
             id="path55" />
        </g>
      </g>
      <g
         fill="#000000"
         fill-opacity="1"
         id="g59"
         transform="matrix(0.352778,0,0,0.352778,-0.813329,-0.666221)">
        <g
           id="g58"
           transform="translate(10.848,5.4510002)">
          <path
             d="m 3.015625,-2.359375 c 0,-0.609375 -0.28125,-1.15625 -0.8125,-1.15625 -0.796875,0 -1.671875,1.25 -1.671875,2.421875 0,0.671875 0.328125,1.15625 0.8125,1.15625 0.8125,0 1.671875,-1.296875 1.671875,-2.421875 z m -1.875,0.515625 c 0.3125,-1.234375 0.8125,-1.5 1.046875,-1.5 0.28125,0 0.40625,0.3125 0.40625,0.703125 0,0.15625 -0.015625,0.359375 -0.125,0.796875 z m 1.265625,0.234375 c -0.296875,1.1875 -0.796875,1.5 -1.046875,1.5 -0.375,0 -0.40625,-0.5625 -0.40625,-0.703125 0,-0.203125 0.03125,-0.4375 0.125,-0.796875 z m 0,0"
             id="path57" />
        </g>
      </g>
    </g>
    <g
       inkscape:label=""
       transform="matrix(0.57767734,0,0,0.57767734,20.026233,22.025353)"
       id="g66">
      <g
         fill="#000000"
         fill-opacity="1"
         id="g63"
         transform="matrix(0.352778,0,0,0.352778,-0.862939,-0.666221)">
        <g
           id="g61"
           transform="translate(1.993,5.4510002)">
          <path
             d="m 0.984375,-2.75 c 0.25,0.0625 0.484375,0.0625 0.53125,0.0625 0.34375,0 0.59375,-0.09375 0.71875,-0.15625 0.125,-0.0625 0.46875,-0.28125 0.46875,-0.390625 0,-0.078125 -0.0625,-0.078125 -0.078125,-0.078125 -0.015625,0 -0.015625,0 -0.078125,0.015625 -0.1875,0.0625 -0.5,0.140625 -0.828125,0.140625 -0.28125,0 -0.546875,-0.046875 -0.8125,-0.140625 C 0.84375,-3.3125 0.84375,-3.3125 0.828125,-3.3125 0.75,-3.3125 0.75,-3.265625 0.75,-3.1875 v 1.5 c 0,0.09375 0,0.15625 0.109375,0.15625 0.046875,0 0.046875,-0.015625 0.09375,-0.0625 0.1875,-0.21875 0.453125,-0.328125 0.796875,-0.328125 0.28125,0 0.453125,0.15625 0.515625,0.265625 0.109375,0.171875 0.140625,0.390625 0.140625,0.640625 0,0.203125 -0.015625,0.484375 -0.21875,0.671875 -0.21875,0.234375 -0.5,0.25 -0.609375,0.25 -0.328125,0 -0.6875,-0.140625 -0.84375,-0.4375 0.203125,-0.015625 0.28125,-0.15625 0.28125,-0.28125 0,-0.15625 -0.125,-0.28125 -0.28125,-0.28125 -0.109375,0 -0.28125,0.078125 -0.28125,0.296875 0,0.5 0.484375,0.90625 1.125,0.90625 0.75,0 1.359375,-0.5 1.359375,-1.109375 0,-0.5625 -0.484375,-1.09375 -1.171875,-1.09375 -0.3125,0 -0.578125,0.078125 -0.78125,0.25 z m 0,0"
             id="path60" />
        </g>
        <g
           id="g62"
           transform="translate(5.3832731,5.4510002)">
          <path
             d="M 2.9375,-3.453125 C 2.875,-3.546875 2.84375,-3.5625 2.734375,-3.5625 2.625,-3.5625 2.59375,-3.546875 2.53125,-3.453125 L 0.484375,-0.125 C 0.4375,-0.078125 0.4375,-0.0625 0.4375,-0.0625 0.4375,0 0.484375,0 0.5625,0 h 4.328125 c 0.078125,0 0.125,0 0.125,-0.0625 0,0 0,-0.015625 -0.03125,-0.0625 z M 2.546875,-3.0625 4.15625,-0.453125 H 0.9375 Z m 0,0"
             id="path61" />
        </g>
      </g>
      <g
         fill="#000000"
         fill-opacity="1"
         id="g65"
         transform="matrix(0.352778,0,0,0.352778,-0.862939,-0.666221)">
        <g
           id="g64"
           transform="translate(10.848,5.4510002)">
          <path
             d="m 3.015625,-2.359375 c 0,-0.609375 -0.28125,-1.15625 -0.8125,-1.15625 -0.796875,0 -1.671875,1.25 -1.671875,2.421875 0,0.671875 0.328125,1.15625 0.8125,1.15625 0.8125,0 1.671875,-1.296875 1.671875,-2.421875 z m -1.875,0.515625 c 0.3125,-1.234375 0.8125,-1.5 1.046875,-1.5 0.28125,0 0.40625,0.3125 0.40625,0.703125 0,0.15625 -0.015625,0.359375 -0.125,0.796875 z m 1.265625,0.234375 c -0.296875,1.1875 -0.796875,1.5 -1.046875,1.5 -0.375,0 -0.40625,-0.5625 -0.40625,-0.703125 0,-0.203125 0.03125,-0.4375 0.125,-0.796875 z m 0,0"
             id="path63" />
        </g>
      </g>
    </g>
    <g
       inkscape:label=""
       transform="matrix(0.57767734,0,0,0.57767734,20.021456,25.17781)"
       id="g72">
      <g
         fill="#000000"
         fill-opacity="1"
         id="g69"
         transform="matrix(0.352778,0,0,0.352778,-0.846402,-0.666221)">
        <g
           id="g67"
           transform="translate(1.993,5.4510002)">
          <path
             d="m 0.921875,-1.640625 c 0.015625,-0.21875 0.015625,-0.625 0.1875,-0.9375 0.15625,-0.265625 0.46875,-0.546875 0.9375,-0.546875 0.09375,0 0.328125,0 0.46875,0.125 C 2.4375,-2.984375 2.3125,-2.90625 2.3125,-2.734375 c 0,0.15625 0.109375,0.265625 0.265625,0.265625 0.078125,0 0.265625,-0.046875 0.265625,-0.28125 0,-0.265625 -0.203125,-0.5625 -0.796875,-0.5625 -0.859375,0 -1.640625,0.703125 -1.640625,1.734375 0,1.1875 0.578125,1.6875 1.296875,1.6875 0.5,0 0.734375,-0.1875 0.90625,-0.328125 0.3125,-0.265625 0.375,-0.546875 0.375,-0.796875 0,-0.3125 -0.09375,-0.546875 -0.359375,-0.78125 C 2.40625,-2 2.1875,-2.140625 1.75,-2.140625 c -0.296875,0 -0.609375,0.140625 -0.828125,0.5 z m 0.78125,1.546875 C 0.9375,-0.09375 0.9375,-0.921875 0.9375,-1.125 c 0,-0.390625 0.28125,-0.84375 0.796875,-0.84375 0.265625,0 0.421875,0.0625 0.578125,0.265625 0.140625,0.1875 0.15625,0.390625 0.15625,0.671875 0,0.296875 0,0.484375 -0.171875,0.6875 -0.140625,0.15625 -0.3125,0.25 -0.59375,0.25 z m 0,0"
             id="path66" />
        </g>
        <g
           id="g68"
           transform="translate(5.3832731,5.4510002)">
          <path
             d="M 2.9375,-3.453125 C 2.875,-3.546875 2.84375,-3.5625 2.734375,-3.5625 2.625,-3.5625 2.59375,-3.546875 2.53125,-3.453125 L 0.484375,-0.125 C 0.4375,-0.078125 0.4375,-0.0625 0.4375,-0.0625 0.4375,0 0.484375,0 0.5625,0 h 4.328125 c 0.078125,0 0.125,0 0.125,-0.0625 0,0 0,-0.015625 -0.03125,-0.0625 z M 2.546875,-3.0625 4.15625,-0.453125 H 0.9375 Z m 0,0"
             id="path67" />
        </g>
      </g>
      <g
         fill="#000000"
         fill-opacity="1"
         id="g71"
         transform="matrix(0.352778,0,0,0.352778,-0.846402,-0.666221)">
        <g
           id="g70"
           transform="translate(10.848,5.4510002)">
          <path
             d="m 3.015625,-2.359375 c 0,-0.609375 -0.28125,-1.15625 -0.8125,-1.15625 -0.796875,0 -1.671875,1.25 -1.671875,2.421875 0,0.671875 0.328125,1.15625 0.8125,1.15625 0.8125,0 1.671875,-1.296875 1.671875,-2.421875 z m -1.875,0.515625 c 0.3125,-1.234375 0.8125,-1.5 1.046875,-1.5 0.28125,0 0.40625,0.3125 0.40625,0.703125 0,0.15625 -0.015625,0.359375 -0.125,0.796875 z m 1.265625,0.234375 c -0.296875,1.1875 -0.796875,1.5 -1.046875,1.5 -0.375,0 -0.40625,-0.5625 -0.40625,-0.703125 0,-0.203125 0.03125,-0.4375 0.125,-0.796875 z m 0,0"
             id="path69" />
        </g>
      </g>
    </g>
    <g
       inkscape:label=""
       transform="translate(7.7886709,29.589237)"
       id="g77">
      <g
         fill="#000000"
         fill-opacity="1"
         id="g74"
         transform="matrix(0.352778,0,0,0.352778,-0.851914,-0.681214)">
        <g
           id="g73"
           transform="translate(1.993,5.0560002)">
          <path
             d="m 1.5625,-1.921875 h 0.59375 c 0.109375,0 0.109375,0 0.125,-0.03125 C 2.3125,-1.96875 2.328125,-2.03125 2.328125,-2.0625 2.328125,-2.140625 2.25,-2.140625 2.171875,-2.140625 H 1.625 L 1.71875,-2.5625 C 1.75,-2.6875 1.8125,-2.921875 1.8125,-2.953125 1.8125,-3.03125 1.75,-3.125 1.625,-3.125 c -0.078125,0 -0.203125,0.0625 -0.234375,0.1875 -0.03125,0.09375 0.03125,-0.140625 -0.203125,0.796875 H 0.59375 c -0.09375,0 -0.171875,0 -0.171875,0.125 0,0.09375 0.0625,0.09375 0.15625,0.09375 H 1.125 L 0.84375,-0.75 c -0.03125,0.109375 -0.078125,0.265625 -0.078125,0.328125 0,0.28125 0.265625,0.484375 0.625,0.484375 0.59375,0 0.96875,-0.6875 0.96875,-0.78125 0,-0.0625 -0.09375,-0.0625 -0.109375,-0.0625 -0.078125,0 -0.09375,0.015625 -0.109375,0.078125 -0.171875,0.359375 -0.46875,0.59375 -0.734375,0.59375 -0.15625,0 -0.203125,-0.125 -0.203125,-0.265625 0,-0.078125 0,-0.09375 0.015625,-0.140625 z m 0,0"
             id="path72" />
        </g>
      </g>
      <g
         fill="#000000"
         fill-opacity="1"
         id="g76"
         transform="matrix(0.352778,0,0,0.352778,-0.851914,-0.681214)">
        <g
           id="g75"
           transform="translate(4.8000002,6.052)">
          <path
             d="m 3.15625,-1.296875 c 0,-0.5 -0.421875,-0.90625 -1.046875,-0.90625 -0.84375,0 -1.578125,0.671875 -1.578125,1.34375 0,0.515625 0.40625,0.921875 1.046875,0.921875 0.828125,0 1.578125,-0.6875 1.578125,-1.359375 z m -1.578125,1.1875 c -0.234375,0 -0.59375,-0.125 -0.59375,-0.59375 0,-0.140625 0.0625,-0.625 0.34375,-0.96875 0.1875,-0.21875 0.484375,-0.359375 0.765625,-0.359375 0.28125,0 0.59375,0.140625 0.59375,0.578125 0,0.140625 -0.0625,0.609375 -0.296875,0.921875 -0.234375,0.296875 -0.5625,0.421875 -0.8125,0.421875 z m 0,0"
             id="path74" />
        </g>
      </g>
    </g>
    <g
       inkscape:label=""
       transform="translate(43.69126,29.589237)"
       id="g82">
      <g
         fill="#000000"
         fill-opacity="1"
         id="g79"
         transform="matrix(0.352778,0,0,0.352778,-0.851914,-0.681214)">
        <g
           id="g78"
           transform="translate(1.993,5.0560002)">
          <path
             d="m 1.5625,-1.921875 h 0.59375 c 0.109375,0 0.109375,0 0.125,-0.03125 C 2.3125,-1.96875 2.328125,-2.03125 2.328125,-2.0625 2.328125,-2.140625 2.25,-2.140625 2.171875,-2.140625 H 1.625 L 1.71875,-2.5625 C 1.75,-2.6875 1.8125,-2.921875 1.8125,-2.953125 1.8125,-3.03125 1.75,-3.125 1.625,-3.125 c -0.078125,0 -0.203125,0.0625 -0.234375,0.1875 -0.03125,0.09375 0.03125,-0.140625 -0.203125,0.796875 H 0.59375 c -0.09375,0 -0.171875,0 -0.171875,0.125 0,0.09375 0.0625,0.09375 0.15625,0.09375 H 1.125 L 0.84375,-0.75 c -0.03125,0.109375 -0.078125,0.265625 -0.078125,0.328125 0,0.28125 0.265625,0.484375 0.625,0.484375 0.59375,0 0.96875,-0.6875 0.96875,-0.78125 0,-0.0625 -0.09375,-0.0625 -0.109375,-0.0625 -0.078125,0 -0.09375,0.015625 -0.109375,0.078125 -0.171875,0.359375 -0.46875,0.59375 -0.734375,0.59375 -0.15625,0 -0.203125,-0.125 -0.203125,-0.265625 0,-0.078125 0,-0.09375 0.015625,-0.140625 z m 0,0"
             id="path77" />
        </g>
      </g>
      <g
         fill="#000000"
         fill-opacity="1"
         id="g81"
         transform="matrix(0.352778,0,0,0.352778,-0.851914,-0.681214)">
        <g
           id="g80"
           transform="translate(4.8000002,6.6599998)">
          <path
             d="m 1.96875,-3.109375 c 0,-0.125 -0.078125,-0.21875 -0.21875,-0.21875 -0.140625,0 -0.296875,0.140625 -0.296875,0.296875 0,0.140625 0.109375,0.21875 0.21875,0.21875 0.15625,0 0.296875,-0.140625 0.296875,-0.296875 z m 0.234375,2.390625 c 0,-0.0625 -0.078125,-0.0625 -0.09375,-0.0625 -0.09375,0 -0.09375,0.015625 -0.125,0.109375 -0.078125,0.265625 -0.3125,0.5625 -0.5625,0.5625 -0.109375,0 -0.140625,-0.078125 -0.140625,-0.1875 0,-0.109375 0.015625,-0.171875 0.0625,-0.265625 0.03125,-0.09375 0.078125,-0.1875 0.109375,-0.265625 0.015625,-0.046875 0.203125,-0.5 0.28125,-0.6875 0.03125,-0.09375 0.0625,-0.171875 0.0625,-0.25 0,-0.234375 -0.234375,-0.4375 -0.546875,-0.4375 -0.515625,0 -0.796875,0.640625 -0.796875,0.765625 0,0.078125 0.078125,0.078125 0.109375,0.078125 0.078125,0 0.078125,-0.03125 0.109375,-0.09375 0.109375,-0.359375 0.34375,-0.578125 0.5625,-0.578125 0.09375,0 0.15625,0.046875 0.15625,0.1875 0,0.015625 0,0.078125 -0.03125,0.171875 -0.03125,0.09375 -0.265625,0.625 -0.328125,0.796875 -0.046875,0.09375 -0.046875,0.09375 -0.109375,0.265625 -0.03125,0.078125 -0.0625,0.140625 -0.0625,0.21875 0,0.265625 0.25,0.453125 0.546875,0.453125 0.515625,0 0.796875,-0.65625 0.796875,-0.78125 z m 0,0"
             id="path79" />
        </g>
      </g>
    </g>
    <g
       inkscape:label=""
       transform="translate(43.69126,8.4019315)"
       id="g87">
      <g
         fill="#000000"
         fill-opacity="1"
         id="g84"
         transform="matrix(0.352778,0,0,0.352778,-0.851914,-0.681214)">
        <g
           id="g83"
           transform="translate(1.993,5.0560002)">
          <path
             d="m 1.5625,-1.921875 h 0.59375 c 0.109375,0 0.109375,0 0.125,-0.03125 C 2.3125,-1.96875 2.328125,-2.03125 2.328125,-2.0625 2.328125,-2.140625 2.25,-2.140625 2.171875,-2.140625 H 1.625 L 1.71875,-2.5625 C 1.75,-2.6875 1.8125,-2.921875 1.8125,-2.953125 1.8125,-3.03125 1.75,-3.125 1.625,-3.125 c -0.078125,0 -0.203125,0.0625 -0.234375,0.1875 -0.03125,0.09375 0.03125,-0.140625 -0.203125,0.796875 H 0.59375 c -0.09375,0 -0.171875,0 -0.171875,0.125 0,0.09375 0.0625,0.09375 0.15625,0.09375 H 1.125 L 0.84375,-0.75 c -0.03125,0.109375 -0.078125,0.265625 -0.078125,0.328125 0,0.28125 0.265625,0.484375 0.625,0.484375 0.59375,0 0.96875,-0.6875 0.96875,-0.78125 0,-0.0625 -0.09375,-0.0625 -0.109375,-0.0625 -0.078125,0 -0.09375,0.015625 -0.109375,0.078125 -0.171875,0.359375 -0.46875,0.59375 -0.734375,0.59375 -0.15625,0 -0.203125,-0.125 -0.203125,-0.265625 0,-0.078125 0,-0.09375 0.015625,-0.140625 z m 0,0"
             id="path82" />
        </g>
      </g>
      <g
         fill="#000000"
         fill-opacity="1"
         id="g86"
         transform="matrix(0.352778,0,0,0.352778,-0.851914,-0.681214)">
        <g
           id="g85"
           transform="translate(4.8000002,6.052)">
          <path
             d="M 3.4375,-1.375 C 3.3125,-1.5 3.25,-1.578125 3.125,-1.6875 2.984375,-1.828125 2.5,-2.203125 1.828125,-2.203125 c -0.6875,0 -1.203125,0.515625 -1.203125,1.125 0,0.625 0.515625,1.140625 1.1875,1.140625 0.375,0 0.96875,-0.140625 1.53125,-0.84375 0.125,0.140625 0.1875,0.203125 0.3125,0.328125 0.140625,0.140625 0.625,0.515625 1.296875,0.515625 0.6875,0 1.203125,-0.515625 1.203125,-1.140625 0,-0.609375 -0.515625,-1.125 -1.1875,-1.125 C 4.59375,-2.203125 4,-2.0625 3.4375,-1.375 Z m 0.1875,0.203125 c 0.3125,-0.4375 0.828125,-0.8125 1.390625,-0.8125 0.53125,0 0.96875,0.40625 0.96875,0.90625 0,0.46875 -0.421875,0.8125 -0.9375,0.8125 -0.171875,0 -0.4375,-0.015625 -0.875,-0.375 -0.1875,-0.15625 -0.34375,-0.34375 -0.546875,-0.53125 z M 3.15625,-0.96875 c -0.3125,0.421875 -0.8125,0.796875 -1.390625,0.796875 -0.53125,0 -0.96875,-0.390625 -0.96875,-0.90625 0,-0.46875 0.421875,-0.8125 0.9375,-0.8125 0.171875,0 0.4375,0.015625 0.875,0.375 0.203125,0.171875 0.34375,0.34375 0.546875,0.546875 z m 0,0"
             id="path84" />
        </g>
      </g>
    </g>
    <g
       inkscape:label=""
       transform="translate(7.7886709,8.4019315)"
       id="g92">
      <g
         fill="#000000"
         fill-opacity="1"
         id="g89"
         transform="matrix(0.352778,0,0,0.352778,-0.851914,-0.681214)">
        <g
           id="g88"
           transform="translate(1.993,5.0560002)">
          <path
             d="m 1.5625,-1.921875 h 0.59375 c 0.109375,0 0.109375,0 0.125,-0.03125 C 2.3125,-1.96875 2.328125,-2.03125 2.328125,-2.0625 2.328125,-2.140625 2.25,-2.140625 2.171875,-2.140625 H 1.625 L 1.71875,-2.5625 C 1.75,-2.6875 1.8125,-2.921875 1.8125,-2.953125 1.8125,-3.03125 1.75,-3.125 1.625,-3.125 c -0.078125,0 -0.203125,0.0625 -0.234375,0.1875 -0.03125,0.09375 0.03125,-0.140625 -0.203125,0.796875 H 0.59375 c -0.09375,0 -0.171875,0 -0.171875,0.125 0,0.09375 0.0625,0.09375 0.15625,0.09375 H 1.125 L 0.84375,-0.75 c -0.03125,0.109375 -0.078125,0.265625 -0.078125,0.328125 0,0.28125 0.265625,0.484375 0.625,0.484375 0.59375,0 0.96875,-0.6875 0.96875,-0.78125 0,-0.0625 -0.09375,-0.0625 -0.109375,-0.0625 -0.078125,0 -0.09375,0.015625 -0.109375,0.078125 -0.171875,0.359375 -0.46875,0.59375 -0.734375,0.59375 -0.15625,0 -0.203125,-0.125 -0.203125,-0.265625 0,-0.078125 0,-0.09375 0.015625,-0.140625 z m 0,0"
             id="path87" />
        </g>
      </g>
      <g
         fill="#000000"
         fill-opacity="1"
         id="g91"
         transform="matrix(0.352778,0,0,0.352778,-0.851914,-0.681214)">
        <g
           id="g90"
           transform="translate(4.8000002,6.6599998)">
          <path
             d="m 1.96875,-3.109375 c 0,-0.125 -0.078125,-0.21875 -0.21875,-0.21875 -0.140625,0 -0.296875,0.140625 -0.296875,0.296875 0,0.140625 0.109375,0.21875 0.21875,0.21875 0.15625,0 0.296875,-0.140625 0.296875,-0.296875 z m 0.234375,2.390625 c 0,-0.0625 -0.078125,-0.0625 -0.09375,-0.0625 -0.09375,0 -0.09375,0.015625 -0.125,0.109375 -0.078125,0.265625 -0.3125,0.5625 -0.5625,0.5625 -0.109375,0 -0.140625,-0.078125 -0.140625,-0.1875 0,-0.109375 0.015625,-0.171875 0.0625,-0.265625 0.03125,-0.09375 0.078125,-0.1875 0.109375,-0.265625 0.015625,-0.046875 0.203125,-0.5 0.28125,-0.6875 0.03125,-0.09375 0.0625,-0.171875 0.0625,-0.25 0,-0.234375 -0.234375,-0.4375 -0.546875,-0.4375 -0.515625,0 -0.796875,0.640625 -0.796875,0.765625 0,0.078125 0.078125,0.078125 0.109375,0.078125 0.078125,0 0.078125,-0.03125 0.109375,-0.09375 0.109375,-0.359375 0.34375,-0.578125 0.5625,-0.578125 0.09375,0 0.15625,0.046875 0.15625,0.1875 0,0.015625 0,0.078125 -0.03125,0.171875 -0.03125,0.09375 -0.265625,0.625 -0.328125,0.796875 -0.046875,0.09375 -0.046875,0.09375 -0.109375,0.265625 -0.03125,0.078125 -0.0625,0.140625 -0.0625,0.21875 0,0.265625 0.25,0.453125 0.546875,0.453125 0.515625,0 0.796875,-0.65625 0.796875,-0.78125 z m 0,0"
             id="path89" />
        </g>
      </g>
    </g>
    <g
       inkscape:label=""
       transform="matrix(0.57767734,0,0,0.57767734,57.393008,30.416168)"
       id="g97">
      <g
         fill="#000000"
         fill-opacity="1"
         id="g94"
         transform="matrix(0.352778,0,0,0.352778,-0.857426,-0.666221)">
        <g
           id="g93"
           transform="translate(1.993,5.4510002)">
          <path
             d="M 2.9375,-3.453125 C 2.875,-3.546875 2.84375,-3.5625 2.734375,-3.5625 2.625,-3.5625 2.59375,-3.546875 2.53125,-3.453125 L 0.484375,-0.125 C 0.4375,-0.078125 0.4375,-0.0625 0.4375,-0.0625 0.4375,0 0.484375,0 0.5625,0 h 4.328125 c 0.078125,0 0.125,0 0.125,-0.0625 0,0 0,-0.015625 -0.03125,-0.0625 z M 2.546875,-3.0625 4.15625,-0.453125 H 0.9375 Z m 0,0"
             id="path92" />
        </g>
      </g>
      <g
         fill="#000000"
         fill-opacity="1"
         id="g96"
         transform="matrix(0.352778,0,0,0.352778,-0.857426,-0.666221)">
        <g
           id="g95"
           transform="translate(7.4580002,5.4510002)">
          <path
             d="m 3.015625,-2.359375 c 0,-0.609375 -0.28125,-1.15625 -0.8125,-1.15625 -0.796875,0 -1.671875,1.25 -1.671875,2.421875 0,0.671875 0.328125,1.15625 0.8125,1.15625 0.8125,0 1.671875,-1.296875 1.671875,-2.421875 z m -1.875,0.515625 c 0.3125,-1.234375 0.8125,-1.5 1.046875,-1.5 0.28125,0 0.40625,0.3125 0.40625,0.703125 0,0.15625 -0.015625,0.359375 -0.125,0.796875 z m 1.265625,0.234375 c -0.296875,1.1875 -0.796875,1.5 -1.046875,1.5 -0.375,0 -0.40625,-0.5625 -0.40625,-0.703125 0,-0.203125 0.03125,-0.4375 0.125,-0.796875 z m 0,0"
             id="path94" />
        </g>
      </g>
    </g>
    <g
       inkscape:label=""
       transform="matrix(0.57767734,0,0,0.57767734,57.049173,27.170934)"
       id="g103">
      <g
         fill="#000000"
         fill-opacity="1"
         id="g100"
         transform="matrix(0.352778,0,0,0.352778,-0.862939,-0.666221)">
        <g
           id="g98"
           transform="translate(1.993,5.4510002)">
          <path
             d="M 2.9375,-0.96875 H 2.71875 c 0,0.09375 -0.0625,0.40625 -0.140625,0.453125 -0.03125,0.03125 -0.453125,0.03125 -0.53125,0.03125 H 1.078125 C 1.40625,-0.71875 1.765625,-1 2.0625,-1.203125 c 0.453125,-0.3125 0.875,-0.59375 0.875,-1.125 0,-0.640625 -0.609375,-0.984375 -1.3125,-0.984375 -0.671875,0 -1.171875,0.375 -1.171875,0.875 0,0.25 0.21875,0.296875 0.296875,0.296875 0.125,0 0.28125,-0.09375 0.28125,-0.296875 0,-0.171875 -0.125,-0.28125 -0.28125,-0.28125 0.140625,-0.234375 0.4375,-0.375 0.765625,-0.375 0.484375,0 0.890625,0.28125 0.890625,0.765625 0,0.421875 -0.296875,0.75 -0.671875,1.0625 l -1.21875,1.03125 C 0.46875,-0.1875 0.453125,-0.1875 0.453125,-0.15625 V 0 h 2.3125 z m 0,0"
             id="path97" />
        </g>
        <g
           id="g99"
           transform="translate(5.3832731,5.4510002)">
          <path
             d="M 2.9375,-3.453125 C 2.875,-3.546875 2.84375,-3.5625 2.734375,-3.5625 2.625,-3.5625 2.59375,-3.546875 2.53125,-3.453125 L 0.484375,-0.125 C 0.4375,-0.078125 0.4375,-0.0625 0.4375,-0.0625 0.4375,0 0.484375,0 0.5625,0 h 4.328125 c 0.078125,0 0.125,0 0.125,-0.0625 0,0 0,-0.015625 -0.03125,-0.0625 z M 2.546875,-3.0625 4.15625,-0.453125 H 0.9375 Z m 0,0"
             id="path98" />
        </g>
      </g>
      <g
         fill="#000000"
         fill-opacity="1"
         id="g102"
         transform="matrix(0.352778,0,0,0.352778,-0.862939,-0.666221)">
        <g
           id="g101"
           transform="translate(10.848,5.4510002)">
          <path
             d="m 3.015625,-2.359375 c 0,-0.609375 -0.28125,-1.15625 -0.8125,-1.15625 -0.796875,0 -1.671875,1.25 -1.671875,2.421875 0,0.671875 0.328125,1.15625 0.8125,1.15625 0.8125,0 1.671875,-1.296875 1.671875,-2.421875 z m -1.875,0.515625 c 0.3125,-1.234375 0.8125,-1.5 1.046875,-1.5 0.28125,0 0.40625,0.3125 0.40625,0.703125 0,0.15625 -0.015625,0.359375 -0.125,0.796875 z m 1.265625,0.234375 c -0.296875,1.1875 -0.796875,1.5 -1.046875,1.5 -0.375,0 -0.40625,-0.5625 -0.40625,-0.703125 0,-0.203125 0.03125,-0.4375 0.125,-0.796875 z m 0,0"
             id="path100" />
        </g>
      </g>
    </g>
    <g
       inkscape:label=""
       transform="matrix(0.57767734,0,0,0.57767734,57.044396,24.083263)"
       id="g109">
      <g
         fill="#000000"
         fill-opacity="1"
         id="g106"
         transform="matrix(0.352778,0,0,0.352778,-0.846402,-0.666221)">
        <g
           id="g104"
           transform="translate(1.993,5.4510002)">
          <path
             d="m 1.640625,-1.65625 c 0.46875,0 0.765625,0.296875 0.765625,0.78125 0,0.515625 -0.3125,0.78125 -0.75,0.78125 -0.0625,0 -0.65625,0 -0.90625,-0.265625 0.203125,-0.03125 0.265625,-0.171875 0.265625,-0.296875 0,-0.1875 -0.140625,-0.3125 -0.3125,-0.3125 -0.15625,0 -0.296875,0.109375 -0.296875,0.328125 0,0.515625 0.578125,0.75 1.265625,0.75 0.8125,0 1.3125,-0.5 1.3125,-0.984375 0,-0.40625 -0.359375,-0.75 -0.921875,-0.875 0.59375,-0.203125 0.75,-0.578125 0.75,-0.859375 0,-0.40625 -0.5,-0.703125 -1.125,-0.703125 -0.625,0 -1.109375,0.25 -1.109375,0.703125 0,0.234375 0.1875,0.296875 0.28125,0.296875 0.140625,0 0.28125,-0.109375 0.28125,-0.296875 0,-0.109375 -0.0625,-0.25 -0.234375,-0.28125 C 1.109375,-3.109375 1.5625,-3.125 1.671875,-3.125 c 0.359375,0 0.609375,0.171875 0.609375,0.515625 0,0.296875 -0.1875,0.75 -0.703125,0.78125 -0.140625,0 -0.15625,0 -0.296875,0.015625 -0.046875,0 -0.109375,0 -0.109375,0.078125 0,0.078125 0.046875,0.078125 0.140625,0.078125 z m 0,0"
             id="path103" />
        </g>
        <g
           id="g105"
           transform="translate(5.3832731,5.4510002)">
          <path
             d="M 2.9375,-3.453125 C 2.875,-3.546875 2.84375,-3.5625 2.734375,-3.5625 2.625,-3.5625 2.59375,-3.546875 2.53125,-3.453125 L 0.484375,-0.125 C 0.4375,-0.078125 0.4375,-0.0625 0.4375,-0.0625 0.4375,0 0.484375,0 0.5625,0 h 4.328125 c 0.078125,0 0.125,0 0.125,-0.0625 0,0 0,-0.015625 -0.03125,-0.0625 z M 2.546875,-3.0625 4.15625,-0.453125 H 0.9375 Z m 0,0"
             id="path104" />
        </g>
      </g>
      <g
         fill="#000000"
         fill-opacity="1"
         id="g108"
         transform="matrix(0.352778,0,0,0.352778,-0.846402,-0.666221)">
        <g
           id="g107"
           transform="translate(10.848,5.4510002)">
          <path
             d="m 3.015625,-2.359375 c 0,-0.609375 -0.28125,-1.15625 -0.8125,-1.15625 -0.796875,0 -1.671875,1.25 -1.671875,2.421875 0,0.671875 0.328125,1.15625 0.8125,1.15625 0.8125,0 1.671875,-1.296875 1.671875,-2.421875 z m -1.875,0.515625 c 0.3125,-1.234375 0.8125,-1.5 1.046875,-1.5 0.28125,0 0.40625,0.3125 0.40625,0.703125 0,0.15625 -0.015625,0.359375 -0.125,0.796875 z m 1.265625,0.234375 c -0.296875,1.1875 -0.796875,1.5 -1.046875,1.5 -0.375,0 -0.40625,-0.5625 -0.40625,-0.703125 0,-0.203125 0.03125,-0.4375 0.125,-0.796875 z m 0,0"
             id="path106" />
        </g>
      </g>
    </g>
    <g
       inkscape:label=""
       transform="matrix(0.57767734,0,0,0.57767734,57.034844,20.825695)"
       id="g115">
      <g
         fill="#000000"
         fill-opacity="1"
         id="g112"
         transform="matrix(0.352778,0,0,0.352778,-0.813329,-0.666221)">
        <g
           id="g110"
           transform="translate(1.993,5.4510002)">
          <path
             d="m 3.078125,-0.8125 v -0.21875 h -0.625 v -2.1875 c 0,-0.125 0,-0.15625 -0.140625,-0.15625 -0.09375,0 -0.09375,0 -0.15625,0.078125 L 0.3125,-1.03125 v 0.21875 h 1.65625 v 0.390625 c 0,0.15625 0,0.203125 -0.421875,0.203125 h -0.1875 V 0 c 0.234375,-0.015625 0.5625,-0.015625 0.859375,-0.015625 0.28125,0 0.609375,0 0.84375,0.015625 V -0.21875 H 2.890625 c -0.4375,0 -0.4375,-0.046875 -0.4375,-0.203125 V -0.8125 Z m -1.0625,-2.03125 v 1.8125 h -1.46875 z m 0,0"
             id="path109" />
        </g>
        <g
           id="g111"
           transform="translate(5.3832731,5.4510002)">
          <path
             d="M 2.9375,-3.453125 C 2.875,-3.546875 2.84375,-3.5625 2.734375,-3.5625 2.625,-3.5625 2.59375,-3.546875 2.53125,-3.453125 L 0.484375,-0.125 C 0.4375,-0.078125 0.4375,-0.0625 0.4375,-0.0625 0.4375,0 0.484375,0 0.5625,0 h 4.328125 c 0.078125,0 0.125,0 0.125,-0.0625 0,0 0,-0.015625 -0.03125,-0.0625 z M 2.546875,-3.0625 4.15625,-0.453125 H 0.9375 Z m 0,0"
             id="path110" />
        </g>
      </g>
      <g
         fill="#000000"
         fill-opacity="1"
         id="g114"
         transform="matrix(0.352778,0,0,0.352778,-0.813329,-0.666221)">
        <g
           id="g113"
           transform="translate(10.848,5.4510002)">
          <path
             d="m 3.015625,-2.359375 c 0,-0.609375 -0.28125,-1.15625 -0.8125,-1.15625 -0.796875,0 -1.671875,1.25 -1.671875,2.421875 0,0.671875 0.328125,1.15625 0.8125,1.15625 0.8125,0 1.671875,-1.296875 1.671875,-2.421875 z m -1.875,0.515625 c 0.3125,-1.234375 0.8125,-1.5 1.046875,-1.5 0.28125,0 0.40625,0.3125 0.40625,0.703125 0,0.15625 -0.015625,0.359375 -0.125,0.796875 z m 1.265625,0.234375 c -0.296875,1.1875 -0.796875,1.5 -1.046875,1.5 -0.375,0 -0.40625,-0.5625 -0.40625,-0.703125 0,-0.203125 0.03125,-0.4375 0.125,-0.796875 z m 0,0"
             id="path112" />
        </g>
      </g>
    </g>
    <g
       inkscape:label=""
       transform="matrix(0.57767734,0,0,0.57767734,57.049173,17.724885)"
       id="g121">
      <g
         fill="#000000"
         fill-opacity="1"
         id="g118"
         transform="matrix(0.352778,0,0,0.352778,-0.862939,-0.666221)">
        <g
           id="g116"
           transform="translate(1.993,5.4510002)">
          <path
             d="m 0.984375,-2.75 c 0.25,0.0625 0.484375,0.0625 0.53125,0.0625 0.34375,0 0.59375,-0.09375 0.71875,-0.15625 0.125,-0.0625 0.46875,-0.28125 0.46875,-0.390625 0,-0.078125 -0.0625,-0.078125 -0.078125,-0.078125 -0.015625,0 -0.015625,0 -0.078125,0.015625 -0.1875,0.0625 -0.5,0.140625 -0.828125,0.140625 -0.28125,0 -0.546875,-0.046875 -0.8125,-0.140625 C 0.84375,-3.3125 0.84375,-3.3125 0.828125,-3.3125 0.75,-3.3125 0.75,-3.265625 0.75,-3.1875 v 1.5 c 0,0.09375 0,0.15625 0.109375,0.15625 0.046875,0 0.046875,-0.015625 0.09375,-0.0625 0.1875,-0.21875 0.453125,-0.328125 0.796875,-0.328125 0.28125,0 0.453125,0.15625 0.515625,0.265625 0.109375,0.171875 0.140625,0.390625 0.140625,0.640625 0,0.203125 -0.015625,0.484375 -0.21875,0.671875 -0.21875,0.234375 -0.5,0.25 -0.609375,0.25 -0.328125,0 -0.6875,-0.140625 -0.84375,-0.4375 0.203125,-0.015625 0.28125,-0.15625 0.28125,-0.28125 0,-0.15625 -0.125,-0.28125 -0.28125,-0.28125 -0.109375,0 -0.28125,0.078125 -0.28125,0.296875 0,0.5 0.484375,0.90625 1.125,0.90625 0.75,0 1.359375,-0.5 1.359375,-1.109375 0,-0.5625 -0.484375,-1.09375 -1.171875,-1.09375 -0.3125,0 -0.578125,0.078125 -0.78125,0.25 z m 0,0"
             id="path115" />
        </g>
        <g
           id="g117"
           transform="translate(5.3832731,5.4510002)">
          <path
             d="M 2.9375,-3.453125 C 2.875,-3.546875 2.84375,-3.5625 2.734375,-3.5625 2.625,-3.5625 2.59375,-3.546875 2.53125,-3.453125 L 0.484375,-0.125 C 0.4375,-0.078125 0.4375,-0.0625 0.4375,-0.0625 0.4375,0 0.484375,0 0.5625,0 h 4.328125 c 0.078125,0 0.125,0 0.125,-0.0625 0,0 0,-0.015625 -0.03125,-0.0625 z M 2.546875,-3.0625 4.15625,-0.453125 H 0.9375 Z m 0,0"
             id="path116" />
        </g>
      </g>
      <g
         fill="#000000"
         fill-opacity="1"
         id="g120"
         transform="matrix(0.352778,0,0,0.352778,-0.862939,-0.666221)">
        <g
           id="g119"
           transform="translate(10.848,5.4510002)">
          <path
             d="m 3.015625,-2.359375 c 0,-0.609375 -0.28125,-1.15625 -0.8125,-1.15625 -0.796875,0 -1.671875,1.25 -1.671875,2.421875 0,0.671875 0.328125,1.15625 0.8125,1.15625 0.8125,0 1.671875,-1.296875 1.671875,-2.421875 z m -1.875,0.515625 c 0.3125,-1.234375 0.8125,-1.5 1.046875,-1.5 0.28125,0 0.40625,0.3125 0.40625,0.703125 0,0.15625 -0.015625,0.359375 -0.125,0.796875 z m 1.265625,0.234375 c -0.296875,1.1875 -0.796875,1.5 -1.046875,1.5 -0.375,0 -0.40625,-0.5625 -0.40625,-0.703125 0,-0.203125 0.03125,-0.4375 0.125,-0.796875 z m 0,0"
             id="path118" />
        </g>
      </g>
    </g>
    <g
       inkscape:label=""
       transform="matrix(0.57767734,0,0,0.57767734,57.044396,14.675023)"
       id="g127">
      <g
         fill="#000000"
         fill-opacity="1"
         id="g124"
         transform="matrix(0.352778,0,0,0.352778,-0.846402,-0.666221)">
        <g
           id="g122"
           transform="translate(1.993,5.4510002)">
          <path
             d="m 0.921875,-1.640625 c 0.015625,-0.21875 0.015625,-0.625 0.1875,-0.9375 0.15625,-0.265625 0.46875,-0.546875 0.9375,-0.546875 0.09375,0 0.328125,0 0.46875,0.125 C 2.4375,-2.984375 2.3125,-2.90625 2.3125,-2.734375 c 0,0.15625 0.109375,0.265625 0.265625,0.265625 0.078125,0 0.265625,-0.046875 0.265625,-0.28125 0,-0.265625 -0.203125,-0.5625 -0.796875,-0.5625 -0.859375,0 -1.640625,0.703125 -1.640625,1.734375 0,1.1875 0.578125,1.6875 1.296875,1.6875 0.5,0 0.734375,-0.1875 0.90625,-0.328125 0.3125,-0.265625 0.375,-0.546875 0.375,-0.796875 0,-0.3125 -0.09375,-0.546875 -0.359375,-0.78125 C 2.40625,-2 2.1875,-2.140625 1.75,-2.140625 c -0.296875,0 -0.609375,0.140625 -0.828125,0.5 z m 0.78125,1.546875 C 0.9375,-0.09375 0.9375,-0.921875 0.9375,-1.125 c 0,-0.390625 0.28125,-0.84375 0.796875,-0.84375 0.265625,0 0.421875,0.0625 0.578125,0.265625 0.140625,0.1875 0.15625,0.390625 0.15625,0.671875 0,0.296875 0,0.484375 -0.171875,0.6875 -0.140625,0.15625 -0.3125,0.25 -0.59375,0.25 z m 0,0"
             id="path121" />
        </g>
        <g
           id="g123"
           transform="translate(5.3832731,5.4510002)">
          <path
             d="M 2.9375,-3.453125 C 2.875,-3.546875 2.84375,-3.5625 2.734375,-3.5625 2.625,-3.5625 2.59375,-3.546875 2.53125,-3.453125 L 0.484375,-0.125 C 0.4375,-0.078125 0.4375,-0.0625 0.4375,-0.0625 0.4375,0 0.484375,0 0.5625,0 h 4.328125 c 0.078125,0 0.125,0 0.125,-0.0625 0,0 0,-0.015625 -0.03125,-0.0625 z M 2.546875,-3.0625 4.15625,-0.453125 H 0.9375 Z m 0,0"
             id="path122" />
        </g>
      </g>
      <g
         fill="#000000"
         fill-opacity="1"
         id="g126"
         transform="matrix(0.352778,0,0,0.352778,-0.846402,-0.666221)">
        <g
           id="g125"
           transform="translate(10.848,5.4510002)">
          <path
             d="m 3.015625,-2.359375 c 0,-0.609375 -0.28125,-1.15625 -0.8125,-1.15625 -0.796875,0 -1.671875,1.25 -1.671875,2.421875 0,0.671875 0.328125,1.15625 0.8125,1.15625 0.8125,0 1.671875,-1.296875 1.671875,-2.421875 z m -1.875,0.515625 c 0.3125,-1.234375 0.8125,-1.5 1.046875,-1.5 0.28125,0 0.40625,0.3125 0.40625,0.703125 0,0.15625 -0.015625,0.359375 -0.125,0.796875 z m 1.265625,0.234375 c -0.296875,1.1875 -0.796875,1.5 -1.046875,1.5 -0.375,0 -0.40625,-0.5625 -0.40625,-0.703125 0,-0.203125 0.03125,-0.4375 0.125,-0.796875 z m 0,0"
             id="path124" />
        </g>
      </g>
    </g>
  </g>
</svg>
