<?xml version="1.0" encoding="UTF-8" standalone="no"?>
<!-- Created with Inkscape (http://www.inkscape.org/) -->

<svg
   width="225"
   height="110.00002"
   viewBox="0 0 59.531249 29.10417"
   version="1.1"
   id="svg1"
   inkscape:version="1.3.2 (091e20ef0f, 2023-11-25)"
   sodipodi:docname="figura05_03.svg"
   xmlns:inkscape="http://www.inkscape.org/namespaces/inkscape"
   xmlns:sodipodi="http://sodipodi.sourceforge.net/DTD/sodipodi-0.dtd"
   xmlns="http://www.w3.org/2000/svg"
   xmlns:svg="http://www.w3.org/2000/svg">
  <sodipodi:namedview
     id="namedview1"
     pagecolor="#ffffff"
     bordercolor="#000000"
     borderopacity="0.25"
     inkscape:showpageshadow="2"
     inkscape:pageopacity="0.0"
     inkscape:pagecheckerboard="0"
     inkscape:deskcolor="#d1d1d1"
     inkscape:document-units="px"
     showgrid="true"
     inkscape:zoom="2.8284271"
     inkscape:cx="98.287843"
     inkscape:cy="35.708893"
     inkscape:window-width="1920"
     inkscape:window-height="1046"
     inkscape:window-x="1920"
     inkscape:window-y="18"
     inkscape:window-maximized="1"
     inkscape:current-layer="layer1">
    <inkscape:grid
       id="grid1"
       units="px"
       originx="1.3229166"
       originy="10.583334"
       spacingx="1.3229166"
       spacingy="1.3229167"
       empcolor="#0099e5"
       empopacity="0.30196078"
       color="#0099e5"
       opacity="0.14901961"
       empspacing="4"
       dotted="false"
       gridanglex="30"
       gridanglez="30"
       visible="true" />
  </sodipodi:namedview>
  <defs
     id="defs1">
    <marker
       style="overflow:visible"
       id="ArrowWide"
       refX="0"
       refY="0"
       orient="auto-start-reverse"
       inkscape:stockid="Wide arrow"
       markerWidth="1"
       markerHeight="1"
       viewBox="0 0 1 1"
       inkscape:isstock="true"
       inkscape:collect="always"
       preserveAspectRatio="xMidYMid">
      <path
         style="fill:none;stroke:context-stroke;stroke-width:1;stroke-linecap:butt"
         d="M 3,-3 0,0 3,3"
         transform="rotate(180,0.125,0)"
         sodipodi:nodetypes="ccc"
         id="path32" />
    </marker>
  </defs>
  <g
     inkscape:label="Capa 1"
     inkscape:groupmode="layer"
     id="layer1"
     transform="translate(1.3229098,10.5833)">
    <circle
       style="fill:#00ffff;fill-opacity:0.250921;stroke:none;stroke-width:0.105833;stroke-linejoin:round"
       id="circle4"
       cx="7.9375"
       cy="7.937501"
       r="2.6458335" />
    <path
       id="circle3"
       style="fill:#00ffff;fill-opacity:0.250712;stroke:none;stroke-width:0.105833;stroke-linejoin:round;stroke-dasharray:none"
       d="M 7.9375028,1.3229113 A 6.6145835,6.6145835 0 0 0 1.3229199,7.9374943 6.6145835,6.6145835 0 0 0 7.9375028,14.552077 6.6145835,6.6145835 0 0 0 14.552086,7.9374943 6.6145835,6.6145835 0 0 0 7.9375028,1.3229113 Z m 0,2.6458332 A 3.9687502,3.9687502 0 0 1 11.906253,7.9374943 3.9687502,3.9687502 0 0 1 7.9375028,11.906244 3.9687502,3.9687502 0 0 1 3.9687531,7.9374943 3.9687502,3.9687502 0 0 1 7.9375028,3.9687445 Z" />
    <rect
       style="fill:#00ffff;fill-opacity:0.249921;stroke-width:0.105833;stroke-linejoin:round"
       id="rect2"
       width="26.45833"
       height="2.6458344"
       x="21.16667"
       y="11.943667" />
    <rect
       style="fill:#00ffff;fill-opacity:0.249921;stroke-width:0.105833;stroke-linejoin:round"
       id="rect1"
       width="26.45833"
       height="2.6458344"
       x="21.16667"
       y="1.3229122" />
    <rect
       style="fill:#00ffff;fill-opacity:0.249921;stroke-width:0.105833;stroke-linejoin:round"
       id="rect3"
       width="26.45833"
       height="5.2916641"
       x="21.16667"
       y="5.2916665" />
    <path
       id="circle122"
       style="fill:#000000;stroke:none;stroke-width:0.105833;stroke-linejoin:round;stroke-dasharray:none"
       d="M 7.9358997,4.8506821e-8 A 7.9375,7.9375 0 0 0 7.8557997,0.00570005 L 6.3256611,1.5358391 a 6.6145835,6.6145835 0 0 1 0.190169,-0.04134 L 7.9731057,0.03722405 7.9364157,1.4048507e-5 Z m 0.0016,0 A 7.9375,7.9375 0 0 1 9.0971187,0.08527005 7.9375,7.9375 0 0 0 7.9374997,4.8506821e-8 Z M 7.0786377,0.06150005 a 7.9375,7.9375 0 0 0 -0.5214156,0.0739 7.9375,7.9375 0 0 1 0.5214156,-0.0739 z m 2.020031,0.02377 -1.243335,1.24333505 a 6.6145835,6.6145835 0 0 1 0.08217,-0.0057 6.6145835,6.6145835 0 0 1 0.0677,0.0047 l 1.21543,-1.21542905 a 7.9375,7.9375 0 0 0 -0.121957,-0.02687 z m 0.121957,0.02687 a 7.9375,7.9375 0 0 1 0.9616983,0.213423 7.9375,7.9375 0 0 0 -0.9570483,-0.218074 z m 0.9616983,0.213423 -1.1048423,1.10484205 a 6.6145835,6.6145835 0 0 0 -0.02325,-0.0021 6.6145835,6.6145835 0 0 1 0.156063,0.03359 6.6145835,6.6145835 0 0 0 -0.0124,-0.0031 L 10.296536,0.36015405 a 7.9375,7.9375 0 0 0 -0.114205,-0.03462 z m -3.6307859,-0.189136 a 7.9375,7.9375 0 0 0 -0.190169,0.04134 L 3.3966921,3.1424431 a 6.6145835,6.6145835 0 0 0 -0.255799,0.255799 l -2.96312567,2.963126 a 7.9375,7.9375 0 0 0 -0.041341,0.19017 L 2.4995894,4.1883741 a 6.6145835,6.6145835 0 0 0 -0.011886,0.01964 6.6145835,6.6145835 0 0 1 1.7161747,-1.717207 6.6145835,6.6145835 0 0 0 -0.01705,0.01033 z m -0.202572,0.04393 a 7.9375,7.9375 0 0 0 -0.829923,0.20929 7.9375,7.9375 0 0 1 0.829923,-0.20929 z m 3.9516969,0.181385 a 7.9375,7.9375 0 0 1 0.847493,0.320394 l 5.17e-4,-5.17e-4 a 7.9375,7.9375 0 0 0 -0.84801,-0.319877 z m 0.847493,0.320394 -1.024226,1.02422605 a 6.6145835,6.6145835 0 0 0 -0.04599,-0.0124 6.6145835,6.6145835 0 0 1 0.163814,0.0615 6.6145835,6.6145835 0 0 0 -0.0124,-0.0057 l 1.020093,-1.02009305 a 7.9375,7.9375 0 0 0 -0.101286,-0.04754 z m 0.101286,0.04754 A 7.9375,7.9375 0 0 1 12.020971,1.131719 7.9375,7.9375 0 0 0 11.251509,0.72760905 Z M 12.020971,1.131719 11.044287,2.1084031 a 6.6145835,6.6145835 0 0 0 -0.0801,-0.03514 6.6145835,6.6145835 0 0 1 0.205673,0.112138 6.6145835,6.6145835 0 0 0 -0.03307,-0.02067 l 0.97255,-0.97255 a 7.9375,7.9375 0 0 0 -0.08837,-0.06046 z m 0.08837,0.06046 a 7.9375,7.9375 0 0 1 0.507979,0.348816 7.9375,7.9375 0 0 0 -0.505395,-0.3514 z m 0.507979,0.348816 a 7.9375,7.9375 0 0 1 0.187586,0.130741 l -0.945162,0.945162 a 6.6145835,6.6145835 0 0 0 -0.123507,-0.077 6.6145835,6.6145835 0 0 1 0.264067,0.197404 6.6145835,6.6145835 0 0 0 -0.06046,-0.05168 L 12.886557,1.73891 A 7.9375,7.9375 0 0 0 12.617322,1.540989 Z m 0.269235,0.197921 a 7.9375,7.9375 0 0 1 0.622184,0.551387 l 0.0015,-0.0016 A 7.9375,7.9375 0 0 0 12.888055,1.737315 Z m 0.622184,0.551387 -0.93586,0.93586 a 6.6145835,6.6145835 0 0 0 -0.109554,-0.09353 6.6145835,6.6145835 0 0 1 0.278536,0.278536 6.6145835,6.6145835 0 0 0 -0.09457,-0.110588 l 0.93586,-0.93586 a 7.9375,7.9375 0 0 0 -0.07441,-0.07441 z m 0.07441,0.07441 a 7.9375,7.9375 0 0 1 0.548804,0.620634 l 0.0026,-0.0026 a 7.9375,7.9375 0 0 0 -0.549837,-0.6196 z m 0.548804,0.620634 -0.945679,0.945679 a 6.6145835,6.6145835 0 0 0 -0.05116,-0.05994 6.6145835,6.6145835 0 0 1 0.194304,0.259933 6.6145835,6.6145835 0 0 0 -0.0739,-0.118339 L 14.20068,3.067518 a 7.9375,7.9375 0 0 1 0.07597,0.109037 7.9375,7.9375 0 0 0 -0.144694,-0.191203 z m 0.144694,0.191203 a 7.9375,7.9375 0 0 1 0.402559,0.586011 l 0.0031,-0.0031 a 7.9375,7.9375 0 0 0 -0.40566,-0.58291 z m 0.402559,0.586011 -0.972034,0.972033 a 6.6145835,6.6145835 0 0 0 -0.01188,-0.0186 6.6145835,6.6145835 0 0 1 0.09922,0.180867 6.6145835,6.6145835 0 0 0 -0.03101,-0.06976 l 0.976167,-0.976168 a 7.9375,7.9375 0 0 0 -0.06046,-0.08837 z m 0.06046,0.08837 a 7.9375,7.9375 0 0 1 0.0036,0.0057 7.9375,7.9375 0 0 0 -0.0031,-0.0062 z m 0.0036,0.0057 a 7.9375,7.9375 0 0 1 0.395324,0.768945 l 0.0062,-0.0062 A 7.9375,7.9375 0 0 0 14.743264,3.856632 Z m 0.395324,0.768945 -1.015958,1.015959 a 6.6145835,6.6145835 0 0 1 0.05374,0.142627 6.6145835,6.6145835 0 0 0 -0.01033,-0.03772 l 1.022677,-1.022677 a 7.9375,7.9375 0 0 0 -0.05013,-0.09819 z m 0.05013,0.09819 a 7.9375,7.9375 0 0 1 0.0083,0.0155 7.9375,7.9375 0 0 0 -0.0067,-0.01705 z m 0.0083,0.0155 A 7.9375,7.9375 0 0 1 15.316392,5.055009 7.9375,7.9375 0 0 0 15.19702,4.739266 Z m 0.119372,0.315743 a 7.9375,7.9375 0 0 1 0.188103,0.526583 l 0.0078,-0.0078 A 7.9375,7.9375 0 0 0 15.316441,5.0549601 Z m 0.188103,0.526583 -1.089856,1.089856 a 6.6145835,6.6145835 0 0 1 0.02997,0.139526 6.6145835,6.6145835 0 0 0 -0.0015,-0.01705 l 1.101224,-1.101225 a 7.9375,7.9375 0 0 0 -0.03979,-0.111104 z m 0.03979,0.111104 a 7.9375,7.9375 0 0 1 0.01034,0.02842 7.9375,7.9375 0 0 0 -0.0072,-0.03152 z m 0.01034,0.02842 a 7.9375,7.9375 0 0 1 0.0987,0.433566 7.9375,7.9375 0 0 0 -0.0987,-0.433566 z m 0.0987,0.433566 a 7.9375,7.9375 0 0 1 0.107487,0.49506 l 0.0047,-0.0047 A 7.9375,7.9375 0 0 0 15.653374,6.154633 Z m 0.107487,0.49506 -1.21388,1.213879 a 6.6145835,6.6145835 0 0 1 0.0052,0.0739 6.6145835,6.6145835 0 0 1 -0.0052,0.07493 l 1.240235,-1.240234 a 7.9375,7.9375 0 0 0 -0.02635,-0.122473 z m 0.02635,0.122473 a 7.9375,7.9375 0 0 1 10e-4,0.0041 7.9375,7.9375 0 0 0 -5.17e-4,-0.0047 z m 10e-4,0.0041 a 7.9375,7.9375 0 0 1 0.08113,1.087272 l 0.0021,-0.0021 a 7.9375,7.9375 0 0 0 -0.0832,-1.085205 z m 0.08113,1.087272 -1.486731,1.486731 a 6.6145835,6.6145835 0 0 1 -0.04134,0.189653 L 15.86826,8.012932 a 7.9375,7.9375 0 0 1 -0.0057,0.09715 7.9375,7.9375 0 0 0 0.0124,-0.1726 7.9375,7.9375 0 0 0 -0.0057,-0.0739 z M 4.6508301,0.71313405 a 7.9375,7.9375 0 0 0 -0.324011,0.175184 L 0.88775243,4.3273841 a 7.9375,7.9375 0 0 0 -0.174666,0.323494 z m 0.238745,1.37149305 a 6.6145835,6.6145835 0 0 0 -0.08992,0.04909 6.6145835,6.6145835 0 0 1 0.08992,-0.04909 z m 3.0478756,1.884123 a 3.9687502,3.9687502 0 0 0 -0.823206,0.09612 3.9687502,3.9687502 0 0 1 0.738973,-0.08785 l -3.8772816,3.877282 a 3.9687502,3.9687502 0 0 0 -0.0072,0.0832 3.9687502,3.9687502 0 0 0 0.0057,0.06718 l 4.0292116,-4.029211 a 3.9687502,3.9687502 0 0 1 1.011307,0.162264 l -1.159619,1.159619 a 2.6458335,2.6458335 0 0 1 0.08217,-0.0057 2.6458335,2.6458335 0 0 1 0.0708,0.0016 l 1.120862,-1.120862 a 3.9687502,3.9687502 0 0 1 0.814938,0.360184 l -0.971001,0.971001 a 2.6458335,2.6458335 0 0 1 0.102837,0.04599 L 10.041257,4.5842511 A 3.9687502,3.9687502 0 0 0 7.9375097,3.9687851 Z m 2.1037473,0.615466 a 3.9687502,3.9687502 0 0 1 0.602547,0.468188 3.9687502,3.9687502 0 0 0 -0.602547,-0.468188 z M 7.0098587,4.0927731 a 3.9687502,3.9687502 0 0 0 -0.6020306,0.195337 3.9687502,3.9687502 0 0 1 0.6020306,-0.195337 z m -0.6759276,0.22996 a 3.9687502,3.9687502 0 0 0 -2.011247,2.011247 z m -0.303857,0.155029 -1.553911,1.553911 a 3.9687502,3.9687502 0 0 1 1.553911,-1.553911 z m -3.8902017,0.310576 a 6.6145835,6.6145835 0 0 0 -0.059945,0.110071 6.6145835,6.6145835 0 0 1 0.059945,-0.110071 z m 8.5555496,0.315226 -0.9260423,0.926042 a 2.6458335,2.6458335 0 0 1 0.07441,0.07441 l 0.9260423,-0.926042 a 3.9687502,3.9687502 0 0 0 -0.07441,-0.07441 z m 0.125574,0.12609 a 3.9687502,3.9687502 0 0 1 0.466638,0.599964 3.9687502,3.9687502 0 0 0 -0.466638,-0.599964 z m 0.466638,0.599964 -0.964799,0.964799 a 2.6458335,2.6458335 0 0 1 0.04702,0.103869 l 0.970484,-0.970483 a 3.9687502,3.9687502 0 0 1 0.359668,0.813904 l -1.118795,1.118795 a 2.6458335,2.6458335 0 0 1 0.0021,0.077 2.6458335,2.6458335 0 0 1 -0.0052,0.07493 l 1.156519,-1.156518 a 3.9687502,3.9687502 0 0 1 0.162781,1.010791 L 7.8650997,11.899017 a 3.9687502,3.9687502 0 0 1 -1.010791,-0.162781 l 1.158069,-1.158069 a 2.6458335,2.6458335 0 0 1 -0.07493,0.0052 2.6458335,2.6458335 0 0 1 -0.0739,-0.0052 l -1.123445,1.123446 A 3.9687502,3.9687502 0 0 1 5.9261991,11.341945 l 0.9746176,-0.974618 a 2.6458335,2.6458335 0 0 1 -0.167949,-0.08061 2.6458335,2.6458335 0 0 0 0.06098,0.03669 l -0.9642816,0.964282 a 3.9687502,3.9687502 0 0 0 2.1078816,0.618567 3.9687502,3.9687502 0 0 0 0.817521,-0.09457 3.9687502,3.9687502 0 0 1 -0.74104,0.08682 L 11.896896,8.0155391 a 3.9687502,3.9687502 0 0 1 -0.08785,0.748791 3.9687502,3.9687502 0 0 0 0.09715,-0.826823 3.9687502,3.9687502 0 0 0 -0.618567,-2.107881 z M 0.38597443,5.5273111 a 7.9375,7.9375 0 0 0 -0.198438,0.789616 7.9375,7.9375 0 0 1 0.198438,-0.789616 z m 1.39629697,0.03359 a 6.6145835,6.6145835 0 0 0 -0.00982,0.02532 6.6145835,6.6145835 0 0 1 0.00982,-0.02532 z m -0.246496,0.764812 -1.53013997,1.530139 A 7.9375,7.9375 0 0 0 -4.45672e-5,7.9375021 7.9375,7.9375 0 0 0 0.00460543,8.0057121 L 1.4944364,6.5158811 a 6.6145835,6.6145835 0 0 1 0.041342,-0.190169 z m 2.7491857,0.08992 a 3.9687502,3.9687502 0 0 0 -0.187069,0.575675 3.9687502,3.9687502 0 0 1 0.187069,-0.575675 z m -4.15375167,0.158646 a 7.9375,7.9375 0 0 0 -0.068729,0.485242 7.9375,7.9375 0 0 1 0.068729,-0.485242 z m 3.93154267,0.549321 a 3.9687502,3.9687502 0 0 0 -0.08527,0.714168 3.9687502,3.9687502 0 0 1 0.08527,-0.714168 z m -2.6954427,0.191202 a 6.6145835,6.6145835 0 0 0 -0.03979,0.541569 l -1.24023497,1.240235 a 7.9375,7.9375 0 0 0 0.026355,0.122473 L 1.3264854,8.0062331 a 6.6145835,6.6145835 0 0 0 0.00517,0.05374 6.6145835,6.6145835 0 0 1 -0.00879,-0.122474 6.6145835,6.6145835 0 0 1 0.044441,-0.622701 z m 3.9299927,0.540536 -1.161169,1.161169 a 3.9687502,3.9687502 0 0 1 -0.152446,-0.906404 3.9687502,3.9687502 0 0 0 0.60048,1.9311479 l 0.964799,-0.9647989 a 2.6458335,2.6458335 0 0 0 0.03824,0.06304 2.6458335,2.6458335 0 0 1 -0.08113,-0.168982 l -0.975135,0.975135 a 3.9687502,3.9687502 0 0 1 -0.360184,-0.814938 l 1.125512,-1.125512 a 2.6458335,2.6458335 0 0 1 -0.0047,-0.0677 2.6458335,2.6458335 0 0 1 0.0057,-0.08216 z m -5.26789467,0.492476 a 7.9375,7.9375 0 0 0 0.055293,0.738457 7.9375,7.9375 0 0 1 -0.055293,-0.738457 z M 15.815006,8.7762121 a 7.9375,7.9375 0 0 1 -0.0863,0.549837 l 0.0098,-0.0098 a 7.9375,7.9375 0 0 0 0.07648,-0.540019 z m -0.0863,0.549837 -2.343526,2.3435259 a 6.6145835,6.6145835 0 0 1 -0.448551,0.599447 l 2.745052,-2.7450519 a 7.9375,7.9375 0 0 0 0.04702,-0.197921 z m -0.04702,0.197921 A 7.9375,7.9375 0 0 1 15.479631,10.37198 7.9375,7.9375 0 0 0 15.696672,9.5089841 Z m -3.890202,-0.695048 a 3.9687502,3.9687502 0 0 1 -0.206189,0.640788 3.9687502,3.9687502 0 0 0 0.206189,-0.640788 z M 1.4251874,9.0402751 a 6.6145835,6.6145835 0 0 0 0.00362,0.03876 L 0.32499943,10.182843 a 7.9375,7.9375 0 0 0 0.040307,0.108521 L 1.4572294,9.1994411 a 6.6145835,6.6145835 0 0 0 0.013436,0.05013 6.6145835,6.6145835 0 0 1 -0.045475,-0.209289 z M 11.558418,9.5275831 9.5275347,11.558467 A 3.9687502,3.9687502 0 0 0 11.558418,9.5275831 Z m -5.5252439,0.238229 -0.929142,0.9291419 a 3.9687502,3.9687502 0 0 0 0.07441,0.07441 l 0.929142,-0.9291419 a 2.6458335,2.6458335 0 0 1 -0.07441,-0.07441 z m 5.3650469,0.07286 A 3.9687502,3.9687502 0 0 1 9.8370757,11.399817 Z M 0.28210443,9.9921541 a 7.9375,7.9375 0 0 0 0.039791,0.1834519 7.9375,7.9375 0 0 1 -0.039791,-0.1834519 z m 1.40508197,0.06718 a 6.6145835,6.6145835 0 0 0 0.01757,0.06615 l -1.02060897,1.020609 a 7.9375,7.9375 0 0 0 0.042891,0.105937 L 1.7481654,10.230903 a 6.6145835,6.6145835 0 0 0 0.019637,0.04444 6.6145835,6.6145835 0 0 1 -0.080616,-0.216007 z m 2.9207517,0.01602 a 3.9687502,3.9687502 0 0 0 0.432015,0.556039 3.9687502,3.9687502 0 0 1 -0.432015,-0.556039 z m 10.7564489,0.605648 a 7.9375,7.9375 0 0 1 -0.281119,0.61495 l 0.0801,-0.0801 a 7.9375,7.9375 0 0 0 0.201021,-0.534851 z m -0.281119,0.61495 -3.869015,3.869014 a 7.9375,7.9375 0 0 0 0.320911,-0.172082 l 3.42253,-3.42253 a 7.9375,7.9375 0 0 0 0.125574,-0.274402 z m -0.125574,0.274402 a 7.9375,7.9375 0 0 1 -0.04651,0.101285 7.9375,7.9375 0 0 0 0.0801,-0.134875 z M 5.2420081,10.833447 a 3.9687502,3.9687502 0 0 0 0.556555,0.433048 3.9687502,3.9687502 0 0 1 -0.556555,-0.433048 z m -3.1801667,0.109554 a 6.6145835,6.6145835 0 0 0 0.044958,0.102836 l -0.965316,0.965316 a 7.9375,7.9375 0 0 0 0.052194,0.09663 l 0.969449,-0.969449 a 6.6145835,6.6145835 0 0 0 0.039275,0.06305 6.6145835,6.6145835 0 0 1 -0.14056,-0.258383 z m 7.4005803,0.645955 a 3.9687502,3.9687502 0 0 1 -0.613916,0.197404 3.9687502,3.9687502 0 0 0 0.613916,-0.197404 z m -6.9380763,0.126607 a 6.6145835,6.6145835 0 0 0 0.09095,0.145728 l -0.9322427,0.932243 a 7.9375,7.9375 0 0 0 0.063562,0.08527 l 0.9374107,-0.937411 a 6.6145835,6.6145835 0 0 0 0.07338,0.0863 6.6145835,6.6145835 0 0 1 -0.2330597,-0.312126 z m -1.324467,0.403593 a 7.9375,7.9375 0 0 0 0.447518,0.627352 7.9375,7.9375 0 0 1 -0.447518,-0.627352 z m 1.9130607,0.324528 a 6.6145835,6.6145835 0 0 0 0.111621,0.130742 l -0.9234577,0.923457 a 7.9375,7.9375 0 0 0 0.074415,0.07441 l 0.9234567,-0.923457 a 6.6145835,6.6145835 0 0 0 0.131775,0.112654 6.6145835,6.6145835 0 0 1 -0.31781,-0.31781 z m -1.3549557,0.450102 a 7.9375,7.9375 0 0 0 0.521932,0.582393 7.9375,7.9375 0 0 1 -0.521932,-0.582393 z m 10.5109856,0.04289 a 6.6145835,6.6145835 0 0 1 -0.599446,0.448552 l -2.3548953,2.354895 a 7.9375,7.9375 0 0 0 0.192753,-0.04186 l 5.17e-4,-5.17e-4 z M 3.8441611,13.11496 a 6.6145835,6.6145835 0 0 0 0.08527,0.07286 l -0.937411,0.93741 a 7.9375,7.9375 0 0 0 0.0863,0.0646 l 0.93276,-0.93276 a 6.6145835,6.6145835 0 0 0 0.140559,0.08785 6.6145835,6.6145835 0 0 1 -0.307474,-0.22996 z M 2.3961874,13.592967 A 7.9375,7.9375 0 0 0 2.9847821,14.11955 7.9375,7.9375 0 0 1 2.3961874,13.592967 Z m 2.2882317,0.08527 a 6.6145835,6.6145835 0 0 0 0.04858,0.03049 l -0.969966,0.969967 a 7.9375,7.9375 0 0 0 0.09663,0.05219 l 0.965832,-0.965832 a 6.6145835,6.6145835 0 0 0 0.09302,0.04082 6.6145835,6.6145835 0 0 1 -0.234095,-0.127641 z m 6.3355309,0.09353 a 6.6145835,6.6145835 0 0 1 -0.02222,0.01189 6.6145835,6.6145835 0 0 0 0.02222,-0.01189 z m -5.4084549,0.340031 a 6.6145835,6.6145835 0 0 0 0.02842,0.0124 l -1.021127,1.021126 a 7.9375,7.9375 0 0 0 0.104904,0.04341 l 1.021126,-1.021126 a 6.6145835,6.6145835 0 0 0 0.05788,0.0155 6.6145835,6.6145835 0 0 1 -0.191203,-0.07131 z m -2.50424,0.09974 a 7.9375,7.9375 0 0 0 0.648539,0.463021 7.9375,7.9375 0 0 1 -0.648539,-0.463021 z m 6.4326816,0.129708 a 6.6145835,6.6145835 0 0 1 -0.189653,0.04134 l -1.455208,1.455208 0.03669,0.03669 a 7.9375,7.9375 0 0 0 0.0057,5.17e-4 7.9375,7.9375 0 0 0 0.0739,-0.0052 z m -2.8876786,0.06873 a 6.6145835,6.6145835 0 0 0 0.0186,0.0052 l -1.091923,1.091923 a 7.9375,7.9375 0 0 0 0.109555,0.04134 l 1.1038076,-1.103808 a 6.6145835,6.6145835 0 0 0 0.03256,0.0031 6.6145835,6.6145835 0 0 1 -0.1725986,-0.03772 z m 1.2112946,0.136943 -1.2128446,1.212846 a 7.9375,7.9375 0 0 0 0.1224726,0.02635 l 1.239201,-1.239201 a 6.6145835,6.6145835 0 0 1 -0.07493,0.0052 6.6145835,6.6145835 0 0 1 -0.0739,-0.0052 z m 2.4944223,0.93741 A 7.9375,7.9375 0 0 1 9.5140987,15.69672 7.9375,7.9375 0 0 0 10.357975,15.484329 Z m -4.6643149,0.06563 a 7.9375,7.9375 0 0 0 0.59893,0.131775 7.9375,7.9375 0 0 1 -0.59893,-0.131775 z m 3.6194166,0.19017 a 7.9375,7.9375 0 0 1 -0.513147,0.07286 7.9375,7.9375 0 0 0 0.513147,-0.07286 z" />
    <circle
       style="fill:none;stroke:#000000;stroke-width:0.105833;stroke-linejoin:round;stroke-dasharray:none"
       id="path1"
       r="7.9375"
       cy="7.9375005"
       cx="7.9375" />
    <circle
       style="fill:none;stroke:#000000;stroke-width:0.105833;stroke-linejoin:round;stroke-dasharray:none"
       id="path2"
       cx="7.9375"
       cy="7.9375005"
       r="6.6145835" />
    <path
       style="fill:none;stroke:#000000;stroke-width:0.105833;stroke-linejoin:round;stroke-dasharray:none"
       d="M 21.166666,4.8506817e-8 V 15.875001 H 47.624999 V 4.8506817e-8 Z"
       id="path3"
       sodipodi:nodetypes="ccccc" />
    <path
       style="fill:none;stroke:#000000;stroke-width:0.0529167;stroke-linejoin:round;stroke-dasharray:none"
       d="M 21.166666,5.2916663 H 47.624999"
       id="path4" />
    <path
       style="fill:none;stroke:#000000;stroke-width:0.0529167;stroke-linejoin:round;stroke-dasharray:none"
       d="M 21.166666,14.552084 H 47.624999"
       id="path5" />
    <path
       style="fill:none;stroke:#000000;stroke-width:0.132292;stroke-linejoin:round;stroke-dasharray:none;stroke-dashoffset:0;marker-end:url(#ArrowWide)"
       d="M 11.906253,7.9374972 V -6.614587"
       id="path31"
       sodipodi:nodetypes="cc" />
    <path
       style="fill:none;stroke:#000000;stroke-width:0.105833;stroke-linejoin:round;stroke-dasharray:none;stroke-dashoffset:0"
       d="M 21.166666,5.291667 22.489583,3.9687504"
       id="path34" />
    <path
       style="fill:none;stroke:#000000;stroke-width:0.105833;stroke-linejoin:round;stroke-dasharray:none;stroke-dashoffset:0"
       d="M 22.489582,5.291667 23.812499,3.9687504"
       id="path35" />
    <path
       style="fill:none;stroke:#000000;stroke-width:0.105833;stroke-linejoin:round;stroke-dasharray:none;stroke-dashoffset:0"
       d="M 23.812499,5.291667 25.135416,3.9687504"
       id="path36" />
    <path
       style="fill:none;stroke:#000000;stroke-width:0.105833;stroke-linejoin:round;stroke-dasharray:none;stroke-dashoffset:0"
       d="M 25.135415,5.291667 26.458332,3.9687504"
       id="path37" />
    <path
       style="fill:none;stroke:#000000;stroke-width:0.105833;stroke-linejoin:round;stroke-dasharray:none;stroke-dashoffset:0"
       d="M 26.458332,5.2916669 27.781249,3.9687503"
       id="path38" />
    <path
       style="fill:none;stroke:#000000;stroke-width:0.105833;stroke-linejoin:round;stroke-dasharray:none;stroke-dashoffset:0"
       d="M 27.781248,5.2916669 29.104165,3.9687503"
       id="path39" />
    <path
       style="fill:none;stroke:#000000;stroke-width:0.105833;stroke-linejoin:round;stroke-dasharray:none;stroke-dashoffset:0"
       d="M 29.104165,5.2916669 30.427082,3.9687503"
       id="path40" />
    <path
       style="fill:none;stroke:#000000;stroke-width:0.105833;stroke-linejoin:round;stroke-dasharray:none;stroke-dashoffset:0"
       d="M 30.427081,5.2916669 31.749998,3.9687503"
       id="path41" />
    <path
       style="fill:none;stroke:#000000;stroke-width:0.105833;stroke-linejoin:round;stroke-dasharray:none;stroke-dashoffset:0"
       d="M 31.749998,5.291667 33.072915,3.9687504"
       id="path42" />
    <path
       style="fill:none;stroke:#000000;stroke-width:0.105833;stroke-linejoin:round;stroke-dasharray:none;stroke-dashoffset:0"
       d="M 33.072914,5.291667 34.395831,3.9687504"
       id="path43" />
    <path
       style="fill:none;stroke:#000000;stroke-width:0.105833;stroke-linejoin:round;stroke-dasharray:none;stroke-dashoffset:0"
       d="M 34.395831,5.291667 35.718748,3.9687504"
       id="path44" />
    <path
       style="fill:none;stroke:#000000;stroke-width:0.105833;stroke-linejoin:round;stroke-dasharray:none;stroke-dashoffset:0"
       d="M 35.718747,5.291667 37.041664,3.9687504"
       id="path45" />
    <path
       style="fill:none;stroke:#000000;stroke-width:0.105833;stroke-linejoin:round;stroke-dasharray:none;stroke-dashoffset:0"
       d="M 37.041664,5.2916669 38.364581,3.9687503"
       id="path46" />
    <path
       style="fill:none;stroke:#000000;stroke-width:0.105833;stroke-linejoin:round;stroke-dasharray:none;stroke-dashoffset:0"
       d="M 38.36458,5.2916669 39.687497,3.9687503"
       id="path47" />
    <path
       style="fill:none;stroke:#000000;stroke-width:0.105833;stroke-linejoin:round;stroke-dasharray:none;stroke-dashoffset:0"
       d="M 39.687497,5.2916669 41.010414,3.9687503"
       id="path48" />
    <path
       style="fill:none;stroke:#000000;stroke-width:0.105833;stroke-linejoin:round;stroke-dasharray:none;stroke-dashoffset:0"
       d="M 41.010413,5.2916669 42.33333,3.9687503"
       id="path49" />
    <path
       style="fill:none;stroke:#000000;stroke-width:0.105833;stroke-linejoin:round;stroke-dasharray:none;stroke-dashoffset:0"
       d="M 42.33333,5.2916669 43.656247,3.9687503"
       id="path50" />
    <path
       style="fill:none;stroke:#000000;stroke-width:0.105833;stroke-linejoin:round;stroke-dasharray:none;stroke-dashoffset:0"
       d="M 43.656246,5.2916669 44.979163,3.9687503"
       id="path51" />
    <path
       style="fill:none;stroke:#000000;stroke-width:0.105833;stroke-linejoin:round;stroke-dasharray:none;stroke-dashoffset:0"
       d="M 44.979163,5.2916669 46.30208,3.9687503"
       id="path52" />
    <path
       style="fill:none;stroke:#000000;stroke-width:0.105833;stroke-linejoin:round;stroke-dasharray:none;stroke-dashoffset:0"
       d="M 46.302079,5.2916669 47.624996,3.9687503"
       id="path53" />
    <path
       style="fill:none;stroke:#000000;stroke-width:0.105833;stroke-linejoin:round;stroke-dasharray:none;stroke-dashoffset:0"
       d="m 21.166666,15.875001 1.322917,-1.322917"
       id="path54" />
    <path
       style="fill:none;stroke:#000000;stroke-width:0.105833;stroke-linejoin:round;stroke-dasharray:none;stroke-dashoffset:0"
       d="m 22.489582,15.875001 1.322917,-1.322917"
       id="path55" />
    <path
       style="fill:none;stroke:#000000;stroke-width:0.105833;stroke-linejoin:round;stroke-dasharray:none;stroke-dashoffset:0"
       d="m 23.812499,15.875001 1.322917,-1.322917"
       id="path56" />
    <path
       style="fill:none;stroke:#000000;stroke-width:0.105833;stroke-linejoin:round;stroke-dasharray:none;stroke-dashoffset:0"
       d="m 25.135415,15.875001 1.322917,-1.322917"
       id="path57" />
    <path
       style="fill:none;stroke:#000000;stroke-width:0.105833;stroke-linejoin:round;stroke-dasharray:none;stroke-dashoffset:0"
       d="m 26.458332,15.875001 1.322917,-1.322917"
       id="path58" />
    <path
       style="fill:none;stroke:#000000;stroke-width:0.105833;stroke-linejoin:round;stroke-dasharray:none;stroke-dashoffset:0"
       d="m 27.781248,15.875001 1.322917,-1.322917"
       id="path59" />
    <path
       style="fill:none;stroke:#000000;stroke-width:0.105833;stroke-linejoin:round;stroke-dasharray:none;stroke-dashoffset:0"
       d="m 29.104165,15.875001 1.322917,-1.322917"
       id="path60" />
    <path
       style="fill:none;stroke:#000000;stroke-width:0.105833;stroke-linejoin:round;stroke-dasharray:none;stroke-dashoffset:0"
       d="m 30.427081,15.875001 1.322917,-1.322917"
       id="path61" />
    <path
       style="fill:none;stroke:#000000;stroke-width:0.105833;stroke-linejoin:round;stroke-dasharray:none;stroke-dashoffset:0"
       d="m 31.749998,15.875001 1.322917,-1.322917"
       id="path62" />
    <path
       style="fill:none;stroke:#000000;stroke-width:0.105833;stroke-linejoin:round;stroke-dasharray:none;stroke-dashoffset:0"
       d="m 33.072914,15.875001 1.322917,-1.322917"
       id="path63" />
    <path
       style="fill:none;stroke:#000000;stroke-width:0.105833;stroke-linejoin:round;stroke-dasharray:none;stroke-dashoffset:0"
       d="m 34.395831,15.875001 1.322917,-1.322917"
       id="path64" />
    <path
       style="fill:none;stroke:#000000;stroke-width:0.105833;stroke-linejoin:round;stroke-dasharray:none;stroke-dashoffset:0"
       d="m 35.718747,15.875001 1.322917,-1.322917"
       id="path65" />
    <path
       style="fill:none;stroke:#000000;stroke-width:0.105833;stroke-linejoin:round;stroke-dasharray:none;stroke-dashoffset:0"
       d="m 37.041664,15.875001 1.322917,-1.322917"
       id="path66" />
    <path
       style="fill:none;stroke:#000000;stroke-width:0.105833;stroke-linejoin:round;stroke-dasharray:none;stroke-dashoffset:0"
       d="m 38.36458,15.875001 1.322917,-1.322917"
       id="path67" />
    <path
       style="fill:none;stroke:#000000;stroke-width:0.105833;stroke-linejoin:round;stroke-dasharray:none;stroke-dashoffset:0"
       d="m 39.687497,15.875001 1.322917,-1.322917"
       id="path68" />
    <path
       style="fill:none;stroke:#000000;stroke-width:0.105833;stroke-linejoin:round;stroke-dasharray:none;stroke-dashoffset:0"
       d="M 41.010413,15.875001 42.33333,14.552084"
       id="path69" />
    <path
       style="fill:none;stroke:#000000;stroke-width:0.105833;stroke-linejoin:round;stroke-dasharray:none;stroke-dashoffset:0"
       d="m 42.33333,15.875001 1.322917,-1.322917"
       id="path70" />
    <path
       style="fill:none;stroke:#000000;stroke-width:0.105833;stroke-linejoin:round;stroke-dasharray:none;stroke-dashoffset:0"
       d="m 43.656246,15.875001 1.322917,-1.322917"
       id="path71" />
    <path
       style="fill:none;stroke:#000000;stroke-width:0.105833;stroke-linejoin:round;stroke-dasharray:none;stroke-dashoffset:0"
       d="M 44.979163,15.875001 46.30208,14.552084"
       id="path72" />
    <path
       style="fill:none;stroke:#000000;stroke-width:0.105833;stroke-linejoin:round;stroke-dasharray:none;stroke-dashoffset:0"
       d="m 46.302079,15.875001 1.322917,-1.322917"
       id="path73" />
    <circle
       style="fill:none;stroke:#000000;stroke-width:0.105833;stroke-linejoin:round"
       id="path6"
       cx="7.9375"
       cy="7.937501"
       r="2.6458335" />
    <circle
       style="fill:none;stroke:#000000;stroke-width:0.105833;stroke-linejoin:round"
       id="circle6"
       cx="7.9375"
       cy="7.937501"
       r="3.9687502" />
    <path
       style="fill:none;stroke:#000000;stroke-width:0.0529167;stroke-linejoin:round;stroke-dasharray:none"
       d="M 21.166666,10.583334 H 47.624999"
       id="path7" />
    <path
       style="fill:none;stroke:#000000;stroke-width:0.105833;stroke-linejoin:round;stroke-dasharray:none;stroke-dashoffset:0"
       d="m 21.166666,11.906251 1.322917,-1.322917"
       id="path8" />
    <path
       style="fill:none;stroke:#000000;stroke-width:0.105833;stroke-linejoin:round;stroke-dasharray:none;stroke-dashoffset:0"
       d="m 22.489582,11.906251 1.322917,-1.322917"
       id="path9" />
    <path
       style="fill:none;stroke:#000000;stroke-width:0.105833;stroke-linejoin:round;stroke-dasharray:none;stroke-dashoffset:0"
       d="m 23.812499,11.906251 1.322917,-1.322917"
       id="path10" />
    <path
       style="fill:none;stroke:#000000;stroke-width:0.105833;stroke-linejoin:round;stroke-dasharray:none;stroke-dashoffset:0"
       d="m 25.135415,11.906251 1.322917,-1.322917"
       id="path11" />
    <path
       style="fill:none;stroke:#000000;stroke-width:0.105833;stroke-linejoin:round;stroke-dasharray:none;stroke-dashoffset:0"
       d="m 26.458332,11.906251 1.322917,-1.322917"
       id="path12" />
    <path
       style="fill:none;stroke:#000000;stroke-width:0.105833;stroke-linejoin:round;stroke-dasharray:none;stroke-dashoffset:0"
       d="m 27.781248,11.906251 1.322917,-1.322917"
       id="path13" />
    <path
       style="fill:none;stroke:#000000;stroke-width:0.105833;stroke-linejoin:round;stroke-dasharray:none;stroke-dashoffset:0"
       d="m 29.104165,11.906251 1.322917,-1.322917"
       id="path14" />
    <path
       style="fill:none;stroke:#000000;stroke-width:0.105833;stroke-linejoin:round;stroke-dasharray:none;stroke-dashoffset:0"
       d="m 30.427081,11.906251 1.322917,-1.322917"
       id="path15" />
    <path
       style="fill:none;stroke:#000000;stroke-width:0.105833;stroke-linejoin:round;stroke-dasharray:none;stroke-dashoffset:0"
       d="m 31.749998,11.906251 1.322917,-1.322917"
       id="path16" />
    <path
       style="fill:none;stroke:#000000;stroke-width:0.105833;stroke-linejoin:round;stroke-dasharray:none;stroke-dashoffset:0"
       d="m 33.072914,11.906251 1.322917,-1.322917"
       id="path18" />
    <path
       style="fill:none;stroke:#000000;stroke-width:0.105833;stroke-linejoin:round;stroke-dasharray:none;stroke-dashoffset:0"
       d="m 34.395831,11.906251 1.322917,-1.322917"
       id="path21" />
    <path
       style="fill:none;stroke:#000000;stroke-width:0.105833;stroke-linejoin:round;stroke-dasharray:none;stroke-dashoffset:0"
       d="m 35.718747,11.906251 1.322917,-1.322917"
       id="path23" />
    <path
       style="fill:none;stroke:#000000;stroke-width:0.105833;stroke-linejoin:round;stroke-dasharray:none;stroke-dashoffset:0"
       d="m 37.041664,11.906251 1.322917,-1.322917"
       id="path24" />
    <path
       style="fill:none;stroke:#000000;stroke-width:0.105833;stroke-linejoin:round;stroke-dasharray:none;stroke-dashoffset:0"
       d="m 38.36458,11.906251 1.322917,-1.322917"
       id="path25" />
    <path
       style="fill:none;stroke:#000000;stroke-width:0.105833;stroke-linejoin:round;stroke-dasharray:none;stroke-dashoffset:0"
       d="m 39.687497,11.906251 1.322917,-1.322917"
       id="path26" />
    <path
       style="fill:none;stroke:#000000;stroke-width:0.105833;stroke-linejoin:round;stroke-dasharray:none;stroke-dashoffset:0"
       d="M 41.010413,11.906251 42.33333,10.583334"
       id="path27" />
    <path
       style="fill:none;stroke:#000000;stroke-width:0.105833;stroke-linejoin:round;stroke-dasharray:none;stroke-dashoffset:0"
       d="m 42.33333,11.906251 1.322917,-1.322917"
       id="path28" />
    <path
       style="fill:none;stroke:#000000;stroke-width:0.105833;stroke-linejoin:round;stroke-dasharray:none;stroke-dashoffset:0"
       d="m 43.656246,11.906251 1.322917,-1.322917"
       id="path29" />
    <path
       style="fill:none;stroke:#000000;stroke-width:0.105833;stroke-linejoin:round;stroke-dasharray:none;stroke-dashoffset:0"
       d="M 44.979163,11.906251 46.30208,10.583334"
       id="path30" />
    <path
       style="fill:none;stroke:#000000;stroke-width:0.105833;stroke-linejoin:round;stroke-dasharray:none;stroke-dashoffset:0"
       d="m 46.302079,11.906251 1.322917,-1.322917"
       id="path74" />
    <path
       style="fill:none;stroke:#000000;stroke-width:0.0529167;stroke-linejoin:round;stroke-dasharray:none"
       d="M 21.166666,1.3229159 H 47.624999"
       id="path75" />
    <path
       style="fill:none;stroke:#000000;stroke-width:0.105833;stroke-linejoin:round;stroke-dasharray:none;stroke-dashoffset:0"
       d="M 21.166666,1.3229166 22.489583,4.8506817e-8"
       id="path76" />
    <path
       style="fill:none;stroke:#000000;stroke-width:0.105833;stroke-linejoin:round;stroke-dasharray:none;stroke-dashoffset:0"
       d="M 22.489582,1.3229166 23.812499,4.8506817e-8"
       id="path77" />
    <path
       style="fill:none;stroke:#000000;stroke-width:0.105833;stroke-linejoin:round;stroke-dasharray:none;stroke-dashoffset:0"
       d="M 23.812499,1.3229166 25.135416,4.8506817e-8"
       id="path78" />
    <path
       style="fill:none;stroke:#000000;stroke-width:0.105833;stroke-linejoin:round;stroke-dasharray:none;stroke-dashoffset:0"
       d="M 25.135415,1.3229166 26.458332,4.8506817e-8"
       id="path79" />
    <path
       style="fill:none;stroke:#000000;stroke-width:0.105833;stroke-linejoin:round;stroke-dasharray:none;stroke-dashoffset:0"
       d="M 26.458332,1.3229165 27.781249,-5.1493183e-8"
       id="path80" />
    <path
       style="fill:none;stroke:#000000;stroke-width:0.105833;stroke-linejoin:round;stroke-dasharray:none;stroke-dashoffset:0"
       d="M 27.781248,1.3229165 29.104165,-5.1493183e-8"
       id="path81" />
    <path
       style="fill:none;stroke:#000000;stroke-width:0.105833;stroke-linejoin:round;stroke-dasharray:none;stroke-dashoffset:0"
       d="M 29.104165,1.3229165 30.427082,-5.1493183e-8"
       id="path82" />
    <path
       style="fill:none;stroke:#000000;stroke-width:0.105833;stroke-linejoin:round;stroke-dasharray:none;stroke-dashoffset:0"
       d="M 30.427081,1.3229165 31.749998,-5.1493183e-8"
       id="path83" />
    <path
       style="fill:none;stroke:#000000;stroke-width:0.105833;stroke-linejoin:round;stroke-dasharray:none;stroke-dashoffset:0"
       d="M 31.749998,1.3229166 33.072915,4.8506817e-8"
       id="path84" />
    <path
       style="fill:none;stroke:#000000;stroke-width:0.105833;stroke-linejoin:round;stroke-dasharray:none;stroke-dashoffset:0"
       d="M 33.072914,1.3229166 34.395831,4.8506817e-8"
       id="path85" />
    <path
       style="fill:none;stroke:#000000;stroke-width:0.105833;stroke-linejoin:round;stroke-dasharray:none;stroke-dashoffset:0"
       d="M 34.395831,1.3229166 35.718748,4.8506817e-8"
       id="path86" />
    <path
       style="fill:none;stroke:#000000;stroke-width:0.105833;stroke-linejoin:round;stroke-dasharray:none;stroke-dashoffset:0"
       d="M 35.718747,1.3229166 37.041664,4.8506817e-8"
       id="path87" />
    <path
       style="fill:none;stroke:#000000;stroke-width:0.105833;stroke-linejoin:round;stroke-dasharray:none;stroke-dashoffset:0"
       d="M 37.041664,1.3229165 38.364581,-5.1493183e-8"
       id="path88" />
    <path
       style="fill:none;stroke:#000000;stroke-width:0.105833;stroke-linejoin:round;stroke-dasharray:none;stroke-dashoffset:0"
       d="M 38.36458,1.3229165 39.687497,-5.1493183e-8"
       id="path89" />
    <path
       style="fill:none;stroke:#000000;stroke-width:0.105833;stroke-linejoin:round;stroke-dasharray:none;stroke-dashoffset:0"
       d="M 39.687497,1.3229165 41.010414,-5.1493183e-8"
       id="path90" />
    <path
       style="fill:none;stroke:#000000;stroke-width:0.105833;stroke-linejoin:round;stroke-dasharray:none;stroke-dashoffset:0"
       d="M 41.010413,1.3229165 42.33333,-5.1493183e-8"
       id="path91" />
    <path
       style="fill:none;stroke:#000000;stroke-width:0.105833;stroke-linejoin:round;stroke-dasharray:none;stroke-dashoffset:0"
       d="M 42.33333,1.3229165 43.656247,-5.1493183e-8"
       id="path92" />
    <path
       style="fill:none;stroke:#000000;stroke-width:0.105833;stroke-linejoin:round;stroke-dasharray:none;stroke-dashoffset:0"
       d="M 43.656246,1.3229165 44.979163,-5.1493183e-8"
       id="path93" />
    <path
       style="fill:none;stroke:#000000;stroke-width:0.105833;stroke-linejoin:round;stroke-dasharray:none;stroke-dashoffset:0"
       d="M 44.979163,1.3229165 46.30208,-5.1493183e-8"
       id="path94" />
    <path
       style="fill:none;stroke:#000000;stroke-width:0.105833;stroke-linejoin:round;stroke-dasharray:none;stroke-dashoffset:0"
       d="M 46.302079,1.3229165 47.624996,-5.1493183e-8"
       id="path95" />
    <path
       style="fill:none;stroke:#000000;stroke-width:0.0529167;stroke-linejoin:round;stroke-dasharray:none"
       d="M 21.166666,3.9687503 H 47.624999"
       id="path96" />
    <path
       style="fill:none;stroke:#000000;stroke-width:0.0529167;stroke-linejoin:round;stroke-dasharray:none"
       d="M 21.166666,11.90625 H 47.624999"
       id="path97" />
    <path
       style="fill:none;stroke:#000000;stroke-width:0.132292;stroke-linejoin:round;stroke-dasharray:none;stroke-dashoffset:0;marker-end:url(#ArrowWide)"
       d="M 10.583336,7.9374972 V -3.9687535"
       id="path147"
       sodipodi:nodetypes="cc" />
    <g
       inkscape:label=""
       transform="translate(11.549901,-8.8731595)"
       id="g154">
      <g
         fill="#000000"
         fill-opacity="1"
         id="g149"
         transform="matrix(0.352778,0,0,0.352778,-0.851914,-0.681214)">
        <g
           id="g148"
           transform="translate(1.993,5.0560002)">
          <path
             d="m 1.5625,-1.921875 h 0.59375 c 0.109375,0 0.109375,0 0.125,-0.03125 C 2.3125,-1.96875 2.328125,-2.03125 2.328125,-2.0625 2.328125,-2.140625 2.25,-2.140625 2.171875,-2.140625 H 1.625 L 1.71875,-2.5625 C 1.75,-2.6875 1.8125,-2.921875 1.8125,-2.953125 1.8125,-3.03125 1.75,-3.125 1.625,-3.125 c -0.078125,0 -0.203125,0.0625 -0.234375,0.1875 -0.03125,0.09375 0.03125,-0.140625 -0.203125,0.796875 H 0.59375 c -0.09375,0 -0.171875,0 -0.171875,0.125 0,0.09375 0.0625,0.09375 0.15625,0.09375 H 1.125 L 0.84375,-0.75 c -0.03125,0.109375 -0.078125,0.265625 -0.078125,0.328125 0,0.28125 0.265625,0.484375 0.625,0.484375 0.59375,0 0.96875,-0.6875 0.96875,-0.78125 0,-0.0625 -0.09375,-0.0625 -0.109375,-0.0625 -0.078125,0 -0.09375,0.015625 -0.109375,0.078125 -0.171875,0.359375 -0.46875,0.59375 -0.734375,0.59375 -0.15625,0 -0.203125,-0.125 -0.203125,-0.265625 0,-0.078125 0,-0.09375 0.015625,-0.140625 z m 0,0"
             id="path148" />
        </g>
      </g>
      <g
         fill="#000000"
         fill-opacity="1"
         id="g151"
         transform="matrix(0.352778,0,0,0.352778,-0.851914,-0.681214)">
        <g
           id="g150"
           transform="translate(4.8000002,6.052)">
          <path
             d="M 4.015625,-1.625 C 4.140625,-1.90625 4.359375,-1.921875 4.5,-1.921875 v -0.21875 c -0.140625,0 -0.265625,0.015625 -0.421875,0.015625 -0.171875,0 -0.375,-0.015625 -0.546875,-0.015625 v 0.21875 c 0.21875,0 0.296875,0.109375 0.296875,0.203125 0,0.015625 -0.015625,0.0625 -0.03125,0.078125 L 3.25,-0.40625 2.671875,-1.75 c -0.03125,-0.046875 -0.03125,-0.0625 -0.03125,-0.0625 0,-0.109375 0.1875,-0.109375 0.296875,-0.109375 v -0.21875 c -0.203125,0 -0.40625,0.015625 -0.59375,0.015625 -0.1875,0 -0.328125,-0.015625 -0.5,-0.015625 v 0.21875 c 0.09375,0 0.234375,0 0.296875,0.015625 0.0625,0.03125 0.125,0.125 0.125,0.171875 0,0.015625 -0.015625,0.046875 -0.015625,0.0625 L 1.71875,-0.46875 1.15625,-1.75 C 1.140625,-1.765625 1.125,-1.796875 1.125,-1.8125 c 0,-0.109375 0.203125,-0.109375 0.296875,-0.109375 v -0.21875 c -0.203125,0 -0.40625,0.015625 -0.609375,0.015625 -0.171875,0 -0.375,-0.015625 -0.546875,-0.015625 v 0.21875 c 0.25,0 0.34375,0 0.40625,0.140625 L 1.4375,-0.0625 c 0.046875,0.109375 0.09375,0.125 0.15625,0.125 0.09375,0 0.125,-0.03125 0.171875,-0.125 L 2.375,-1.46875 3,-0.0625 c 0.046875,0.09375 0.078125,0.125 0.171875,0.125 0.0625,0 0.125,-0.015625 0.171875,-0.125 z m 0,0"
             id="path149" />
        </g>
      </g>
      <g
         fill="#000000"
         fill-opacity="1"
         id="g153"
         transform="matrix(0.352778,0,0,0.352778,-0.851914,-0.681214)">
        <g
           id="g152"
           transform="translate(9.3992338,6.052)">
          <path
             d="m 2.578125,-1.125 c 0.109375,0 0.140625,0 0.140625,-0.109375 0,-0.34375 -0.171875,-1 -1.109375,-1 -0.75,0 -1.28125,0.546875 -1.28125,1.140625 0,0.625 0.609375,1.15625 1.359375,1.15625 0.796875,0 1.03125,-0.5625 1.03125,-0.65625 0,-0.078125 -0.078125,-0.078125 -0.09375,-0.078125 -0.078125,0 -0.09375,0.015625 -0.125,0.078125 C 2.375,-0.25 2,-0.125 1.71875,-0.125 c -0.40625,0 -0.625,-0.21875 -0.703125,-0.3125 -0.1875,-0.234375 -0.1875,-0.546875 -0.1875,-0.6875 z m -1.75,-0.15625 C 0.890625,-1.9375 1.375,-2.0625 1.609375,-2.0625 c 0.6875,0 0.734375,0.640625 0.734375,0.78125 z m 0,0"
             id="path151" />
        </g>
      </g>
    </g>
    <g
       inkscape:label=""
       transform="translate(7.5811515,-6.4650983)"
       id="g160">
      <g
         fill="#000000"
         fill-opacity="1"
         id="g156"
         transform="matrix(0.352778,0,0,0.352778,-0.851914,-0.681214)">
        <g
           id="g155"
           transform="translate(1.993,5.0560002)">
          <path
             d="m 1.5625,-1.921875 h 0.59375 c 0.109375,0 0.109375,0 0.125,-0.03125 C 2.3125,-1.96875 2.328125,-2.03125 2.328125,-2.0625 2.328125,-2.140625 2.25,-2.140625 2.171875,-2.140625 H 1.625 L 1.71875,-2.5625 C 1.75,-2.6875 1.8125,-2.921875 1.8125,-2.953125 1.8125,-3.03125 1.75,-3.125 1.625,-3.125 c -0.078125,0 -0.203125,0.0625 -0.234375,0.1875 -0.03125,0.09375 0.03125,-0.140625 -0.203125,0.796875 H 0.59375 c -0.09375,0 -0.171875,0 -0.171875,0.125 0,0.09375 0.0625,0.09375 0.15625,0.09375 H 1.125 L 0.84375,-0.75 c -0.03125,0.109375 -0.078125,0.265625 -0.078125,0.328125 0,0.28125 0.265625,0.484375 0.625,0.484375 0.59375,0 0.96875,-0.6875 0.96875,-0.78125 0,-0.0625 -0.09375,-0.0625 -0.109375,-0.0625 -0.078125,0 -0.09375,0.015625 -0.109375,0.078125 -0.171875,0.359375 -0.46875,0.59375 -0.734375,0.59375 -0.15625,0 -0.203125,-0.125 -0.203125,-0.265625 0,-0.078125 0,-0.09375 0.015625,-0.140625 z m 0,0"
             id="path154" />
        </g>
      </g>
      <g
         fill="#000000"
         fill-opacity="1"
         id="g159"
         transform="matrix(0.352778,0,0,0.352778,-0.851914,-0.681214)">
        <g
           id="g157"
           transform="translate(4.8000002,6.7259998)">
          <path
             d="M 4.015625,-1.625 C 4.140625,-1.90625 4.359375,-1.921875 4.5,-1.921875 v -0.21875 c -0.140625,0 -0.265625,0.015625 -0.421875,0.015625 -0.171875,0 -0.375,-0.015625 -0.546875,-0.015625 v 0.21875 c 0.21875,0 0.296875,0.109375 0.296875,0.203125 0,0.015625 -0.015625,0.0625 -0.03125,0.078125 L 3.25,-0.40625 2.671875,-1.75 c -0.03125,-0.046875 -0.03125,-0.0625 -0.03125,-0.0625 0,-0.109375 0.1875,-0.109375 0.296875,-0.109375 v -0.21875 c -0.203125,0 -0.40625,0.015625 -0.59375,0.015625 -0.1875,0 -0.328125,-0.015625 -0.5,-0.015625 v 0.21875 c 0.09375,0 0.234375,0 0.296875,0.015625 0.0625,0.03125 0.125,0.125 0.125,0.171875 0,0.015625 -0.015625,0.046875 -0.015625,0.0625 L 1.71875,-0.46875 1.15625,-1.75 C 1.140625,-1.765625 1.125,-1.796875 1.125,-1.8125 c 0,-0.109375 0.203125,-0.109375 0.296875,-0.109375 v -0.21875 c -0.203125,0 -0.40625,0.015625 -0.609375,0.015625 -0.171875,0 -0.375,-0.015625 -0.546875,-0.015625 v 0.21875 c 0.25,0 0.34375,0 0.40625,0.140625 L 1.4375,-0.0625 c 0.046875,0.109375 0.09375,0.125 0.15625,0.125 0.09375,0 0.125,-0.03125 0.171875,-0.125 L 2.375,-1.46875 3,-0.0625 c 0.046875,0.09375 0.078125,0.125 0.171875,0.125 0.0625,0 0.125,-0.015625 0.171875,-0.125 z m 0,0"
             id="path156" />
        </g>
        <g
           id="g158"
           transform="translate(9.5735798,6.7259998)">
          <path
             d="m 1.265625,-3.078125 c 0,-0.15625 -0.140625,-0.296875 -0.3125,-0.296875 -0.15625,0 -0.296875,0.125 -0.296875,0.296875 0,0.1875 0.140625,0.3125 0.296875,0.3125 0.171875,0 0.3125,-0.140625 0.3125,-0.3125 z m -0.828125,0.9375 v 0.21875 c 0.34375,0 0.390625,0.03125 0.390625,0.265625 v 1.234375 c 0,0.15625 0,0.203125 -0.328125,0.203125 H 0.40625 V 0 c 0.21875,-0.015625 0.421875,-0.015625 0.625,-0.015625 0.1875,0 0.40625,0 0.59375,0.015625 v -0.21875 c -0.328125,0 -0.375,0 -0.375,-0.203125 v -1.78125 z m 0,0"
             id="path157" />
        </g>
      </g>
    </g>
    <g
       inkscape:label=""
       transform="translate(20.742233,-2.6458371)"
       id="g165">
      <g
         fill="#000000"
         fill-opacity="1"
         id="g162"
         transform="matrix(0.352778,0,0,0.352778,-0.851914,-0.681214)">
        <g
           id="g161"
           transform="translate(1.993,5.0560002)">
          <path
             d="m 1.5625,-1.921875 h 0.59375 c 0.109375,0 0.109375,0 0.125,-0.03125 C 2.3125,-1.96875 2.328125,-2.03125 2.328125,-2.0625 2.328125,-2.140625 2.25,-2.140625 2.171875,-2.140625 H 1.625 L 1.71875,-2.5625 C 1.75,-2.6875 1.8125,-2.921875 1.8125,-2.953125 1.8125,-3.03125 1.75,-3.125 1.625,-3.125 c -0.078125,0 -0.203125,0.0625 -0.234375,0.1875 -0.03125,0.09375 0.03125,-0.140625 -0.203125,0.796875 H 0.59375 c -0.09375,0 -0.171875,0 -0.171875,0.125 0,0.09375 0.0625,0.09375 0.15625,0.09375 H 1.125 L 0.84375,-0.75 c -0.03125,0.109375 -0.078125,0.265625 -0.078125,0.328125 0,0.28125 0.265625,0.484375 0.625,0.484375 0.59375,0 0.96875,-0.6875 0.96875,-0.78125 0,-0.0625 -0.09375,-0.0625 -0.109375,-0.0625 -0.078125,0 -0.09375,0.015625 -0.109375,0.078125 -0.171875,0.359375 -0.46875,0.59375 -0.734375,0.59375 -0.15625,0 -0.203125,-0.125 -0.203125,-0.265625 0,-0.078125 0,-0.09375 0.015625,-0.140625 z m 0,0"
             id="path160" />
        </g>
      </g>
      <g
         fill="#000000"
         fill-opacity="1"
         id="g164"
         transform="matrix(0.352778,0,0,0.352778,-0.851914,-0.681214)">
        <g
           id="g163"
           transform="translate(4.8000002,6.7259998)">
          <path
             d="m 1.265625,-3.078125 c 0,-0.15625 -0.140625,-0.296875 -0.3125,-0.296875 -0.15625,0 -0.296875,0.125 -0.296875,0.296875 0,0.1875 0.140625,0.3125 0.296875,0.3125 0.171875,0 0.3125,-0.140625 0.3125,-0.3125 z m -0.828125,0.9375 v 0.21875 c 0.34375,0 0.390625,0.03125 0.390625,0.265625 v 1.234375 c 0,0.15625 0,0.203125 -0.328125,0.203125 H 0.40625 V 0 c 0.21875,-0.015625 0.421875,-0.015625 0.625,-0.015625 0.1875,0 0.40625,0 0.59375,0.015625 v -0.21875 c -0.328125,0 -0.375,0 -0.375,-0.203125 v -1.78125 z m 0,0"
             id="path162" />
        </g>
      </g>
    </g>
    <g
       inkscape:label=""
       transform="translate(47.134419,-2.7064709)"
       id="g170">
      <g
         fill="#000000"
         fill-opacity="1"
         id="g167"
         transform="matrix(0.352778,0,0,0.352778,-0.851914,-0.681214)">
        <g
           id="g166"
           transform="translate(1.993,5.0560002)">
          <path
             d="m 1.5625,-1.921875 h 0.59375 c 0.109375,0 0.109375,0 0.125,-0.03125 C 2.3125,-1.96875 2.328125,-2.03125 2.328125,-2.0625 2.328125,-2.140625 2.25,-2.140625 2.171875,-2.140625 H 1.625 L 1.71875,-2.5625 C 1.75,-2.6875 1.8125,-2.921875 1.8125,-2.953125 1.8125,-3.03125 1.75,-3.125 1.625,-3.125 c -0.078125,0 -0.203125,0.0625 -0.234375,0.1875 -0.03125,0.09375 0.03125,-0.140625 -0.203125,0.796875 H 0.59375 c -0.09375,0 -0.171875,0 -0.171875,0.125 0,0.09375 0.0625,0.09375 0.15625,0.09375 H 1.125 L 0.84375,-0.75 c -0.03125,0.109375 -0.078125,0.265625 -0.078125,0.328125 0,0.28125 0.265625,0.484375 0.625,0.484375 0.59375,0 0.96875,-0.6875 0.96875,-0.78125 0,-0.0625 -0.09375,-0.0625 -0.109375,-0.0625 -0.078125,0 -0.09375,0.015625 -0.109375,0.078125 -0.171875,0.359375 -0.46875,0.59375 -0.734375,0.59375 -0.15625,0 -0.203125,-0.125 -0.203125,-0.265625 0,-0.078125 0,-0.09375 0.015625,-0.140625 z m 0,0"
             id="path165" />
        </g>
      </g>
      <g
         fill="#000000"
         fill-opacity="1"
         id="g169"
         transform="matrix(0.352778,0,0,0.352778,-0.851914,-0.681214)">
        <g
           id="g168"
           transform="translate(4.8000002,6.052)">
          <path
             d="m 3.0625,-1.0625 c 0,-0.625 -0.578125,-1.171875 -1.375,-1.171875 -0.78125,0 -1.359375,0.546875 -1.359375,1.171875 0,0.59375 0.59375,1.125 1.359375,1.125 0.796875,0 1.375,-0.53125 1.375,-1.125 z m -1.375,0.9375 c -0.859375,0 -0.859375,-0.75 -0.859375,-0.984375 0,-0.21875 0,-0.953125 0.859375,-0.953125 0.875,0 0.875,0.734375 0.875,0.953125 0,0.234375 0,0.984375 -0.875,0.984375 z m 0,0"
             id="path167" />
        </g>
      </g>
    </g>
    <path
       style="fill:none;fill-opacity:0.250921;stroke:#000000;stroke-width:0.105833;stroke-linejoin:round"
       d="m 48.947917,1.3229132 h 1.322917"
       id="path19" />
    <path
       style="fill:none;fill-opacity:0.250921;stroke:#000000;stroke-width:0.105833;stroke-linejoin:round"
       d="m 53.578128,3.9687847 h 1.322917"
       id="path20" />
    <path
       style="fill:none;fill-opacity:0.250921;stroke:#000000;stroke-width:0.105833;stroke-linejoin:round"
       d="M 49.609375,1.3229133 V 14.552119"
       id="path22"
       sodipodi:nodetypes="cc" />
    <g
       inkscape:label=""
       transform="translate(54.808483,7.0421407)"
       id="g98">
      <g
         fill="#000000"
         fill-opacity="1"
         id="g3"
         transform="matrix(0.352778,0,0,0.352778,-0.912548,-0.70194)">
        <g
           id="use2"
           transform="translate(1.993,5.3959999)">
          <path
             d="m 1.21875,-0.40625 c -0.03125,0.140625 -0.03125,0.1875 -0.421875,0.1875 -0.125,0 -0.203125,0 -0.203125,0.140625 C 0.59375,0 0.671875,0 0.75,0 H 2.765625 C 3.9375,0 5.125,-0.953125 5.125,-2.046875 5.125,-2.875 4.46875,-3.40625 3.609375,-3.40625 H 1.5625 c -0.09375,0 -0.171875,0 -0.171875,0.140625 0,0.078125 0.0625,0.078125 0.1875,0.078125 0.046875,0 0.21875,0 0.3125,0.03125 0,0.0625 0,0.078125 -0.015625,0.125 z M 2.375,-3.015625 C 2.421875,-3.171875 2.421875,-3.1875 2.625,-3.1875 h 0.796875 c 0.34375,0 0.671875,0.09375 0.890625,0.28125 0.171875,0.171875 0.28125,0.375 0.28125,0.71875 0,0.3125 -0.109375,0.953125 -0.484375,1.375 -0.375,0.40625 -0.921875,0.59375 -1.4375,0.59375 H 1.84375 c -0.03125,0 -0.109375,0 -0.15625,-0.015625 0,-0.046875 0,-0.0625 0.015625,-0.09375 z m 0,0"
             id="path33" />
        </g>
      </g>
      <g
         fill="#000000"
         fill-opacity="1"
         id="g4"
         transform="matrix(0.352778,0,0,0.352778,-0.912548,-0.70194)">
        <g
           id="use3"
           transform="translate(7.5209999,7.066)">
          <path
             d="m 1.265625,-3.078125 c 0,-0.15625 -0.140625,-0.296875 -0.3125,-0.296875 -0.15625,0 -0.296875,0.125 -0.296875,0.296875 0,0.1875 0.140625,0.3125 0.296875,0.3125 0.171875,0 0.3125,-0.140625 0.3125,-0.3125 z m -0.828125,0.9375 v 0.21875 c 0.34375,0 0.390625,0.03125 0.390625,0.265625 v 1.234375 c 0,0.15625 0,0.203125 -0.328125,0.203125 H 0.40625 V 0 c 0.21875,-0.015625 0.421875,-0.015625 0.625,-0.015625 0.1875,0 0.40625,0 0.59375,0.015625 v -0.21875 c -0.328125,0 -0.375,0 -0.375,-0.203125 v -1.78125 z m 0,0"
             id="path98" />
        </g>
      </g>
    </g>
    <g
       inkscape:label=""
       transform="translate(50.529907,7.1499833)"
       id="g103">
      <g
         fill="#000000"
         fill-opacity="1"
         id="g100"
         transform="matrix(0.352778,0,0,0.352778,-0.912548,-0.70194)">
        <g
           id="g99"
           transform="translate(1.993,5.3959999)">
          <path
             d="m 1.21875,-0.40625 c -0.03125,0.140625 -0.03125,0.1875 -0.421875,0.1875 -0.125,0 -0.203125,0 -0.203125,0.140625 C 0.59375,0 0.671875,0 0.75,0 H 2.765625 C 3.9375,0 5.125,-0.953125 5.125,-2.046875 5.125,-2.875 4.46875,-3.40625 3.609375,-3.40625 H 1.5625 c -0.09375,0 -0.171875,0 -0.171875,0.140625 0,0.078125 0.0625,0.078125 0.1875,0.078125 0.046875,0 0.21875,0 0.3125,0.03125 0,0.0625 0,0.078125 -0.015625,0.125 z M 2.375,-3.015625 C 2.421875,-3.171875 2.421875,-3.1875 2.625,-3.1875 h 0.796875 c 0.34375,0 0.671875,0.09375 0.890625,0.28125 0.171875,0.171875 0.28125,0.375 0.28125,0.71875 0,0.3125 -0.109375,0.953125 -0.484375,1.375 -0.375,0.40625 -0.921875,0.59375 -1.4375,0.59375 H 1.84375 c -0.03125,0 -0.109375,0 -0.15625,-0.015625 0,-0.046875 0,-0.0625 0.015625,-0.09375 z m 0,0"
             id="path99" />
        </g>
      </g>
      <g
         fill="#000000"
         fill-opacity="1"
         id="g102"
         transform="matrix(0.352778,0,0,0.352778,-0.912548,-0.70194)">
        <g
           id="g101"
           transform="translate(7.5209999,6.3920002)">
          <path
             d="m 2.578125,-1.125 c 0.109375,0 0.140625,0 0.140625,-0.109375 0,-0.34375 -0.171875,-1 -1.109375,-1 -0.75,0 -1.28125,0.546875 -1.28125,1.140625 0,0.625 0.609375,1.15625 1.359375,1.15625 0.796875,0 1.03125,-0.5625 1.03125,-0.65625 0,-0.078125 -0.078125,-0.078125 -0.09375,-0.078125 -0.078125,0 -0.09375,0.015625 -0.125,0.078125 C 2.375,-0.25 2,-0.125 1.71875,-0.125 c -0.40625,0 -0.625,-0.21875 -0.703125,-0.3125 -0.1875,-0.234375 -0.1875,-0.546875 -0.1875,-0.6875 z m -1.75,-0.15625 C 0.890625,-1.9375 1.375,-2.0625 1.609375,-2.0625 c 0.6875,0 0.734375,0.640625 0.734375,0.78125 z m 0,0"
             id="path100" />
        </g>
      </g>
    </g>
    <path
       style="fill:none;fill-opacity:0.250921;stroke:#000000;stroke-width:0.105833;stroke-linejoin:round"
       d="m 48.94792,14.552119 h 1.322917"
       id="path103" />
    <path
       style="fill:none;fill-opacity:0.250921;stroke:#000000;stroke-width:0.105833;stroke-linejoin:round"
       d="m 53.578128,11.906286 h 1.322917"
       id="path104" />
    <path
       style="fill:none;fill-opacity:0.250921;stroke:#000000;stroke-width:0.105833;stroke-linejoin:round"
       d="M 54.239586,3.9687847 V 11.906286"
       id="path105"
       sodipodi:nodetypes="cc" />
  </g>
</svg>
