<?xml version="1.0" encoding="UTF-8" standalone="no"?>
<!-- Created with Inkscape (http://www.inkscape.org/) -->

<svg
   width="44.863445mm"
   height="41.548847mm"
   viewBox="0 0 169.56263 157.03502"
   version="1.1"
   id="svg1"
   inkscape:version="1.3.2 (091e20ef0f, 2023-11-25)"
   sodipodi:docname="figura02_17.svg"
   xmlns:inkscape="http://www.inkscape.org/namespaces/inkscape"
   xmlns:sodipodi="http://sodipodi.sourceforge.net/DTD/sodipodi-0.dtd"
   xmlns="http://www.w3.org/2000/svg"
   xmlns:svg="http://www.w3.org/2000/svg">
  <sodipodi:namedview
     id="namedview1"
     pagecolor="#ffffff"
     bordercolor="#000000"
     borderopacity="0.25"
     inkscape:showpageshadow="false"
     inkscape:pageopacity="0.0"
     inkscape:pagecheckerboard="0"
     inkscape:deskcolor="#d1d1d1"
     inkscape:document-units="mm"
     borderlayer="false"
     showgrid="true"
     inkscape:zoom="4.4145366"
     inkscape:cx="64.672699"
     inkscape:cy="81.775287"
     inkscape:window-width="1920"
     inkscape:window-height="1046"
     inkscape:window-x="1920"
     inkscape:window-y="18"
     inkscape:window-maximized="1"
     inkscape:current-layer="layer1">
    <inkscape:grid
       id="grid1"
       units="mm"
       originx="-32.076956"
       originy="-183.12223"
       spacingx="3.7795277"
       spacingy="3.7795276"
       empcolor="#0099e5"
       empopacity="0.30196078"
       color="#0099e5"
       opacity="0.14901961"
       empspacing="5"
       dotted="false"
       gridanglex="30"
       gridanglez="30"
       visible="true" />
  </sodipodi:namedview>
  <defs
     id="defs1">
    <marker
       style="overflow:visible"
       id="marker23"
       refX="0"
       refY="0"
       orient="auto-start-reverse"
       inkscape:stockid="Wide arrow"
       markerWidth="1"
       markerHeight="1"
       viewBox="0 0 1 1"
       inkscape:isstock="true"
       inkscape:collect="always"
       preserveAspectRatio="xMidYMid">
      <path
         style="fill:none;stroke:context-stroke;stroke-width:1;stroke-linecap:butt"
         d="M 3,-3 0,0 3,3"
         transform="rotate(180,0.125,0)"
         sodipodi:nodetypes="ccc"
         id="path23" />
    </marker>
    <marker
       style="overflow:visible"
       id="ArrowWide"
       refX="0"
       refY="0"
       orient="auto-start-reverse"
       inkscape:stockid="Wide arrow"
       markerWidth="1"
       markerHeight="1"
       viewBox="0 0 1 1"
       inkscape:isstock="true"
       inkscape:collect="always"
       preserveAspectRatio="xMidYMid"
       markerUnits="strokeWidth">
      <path
         style="fill:none;stroke:context-stroke;stroke-width:1;stroke-linecap:butt"
         d="M 3,-3 0,0 3,3"
         transform="rotate(180,0.125,0)"
         sodipodi:nodetypes="ccc"
         id="path1" />
    </marker>
  </defs>
  <g
     inkscape:label="Capa 1"
     inkscape:groupmode="layer"
     id="layer1"
     transform="translate(-32.076956,-183.12248)">
    <path
       style="fill:none;stroke:#008000;stroke-width:0.234331;stroke-linejoin:round;stroke-dasharray:none"
       d="M 56.692914,309.92152 177.6378,260.78766"
       id="path6"
       sodipodi:nodetypes="cc" />
    <path
       style="fill:none;stroke:#000000;stroke-width:0.990236;stroke-dasharray:none;marker-start:url(#ArrowWide)"
       d="m 56.692914,188.97639 v 151.1811"
       id="path4"
       sodipodi:nodetypes="cc" />
    <path
       style="fill:none;stroke:#000000;stroke-width:0.990236;stroke-dasharray:none;marker-end:url(#marker23)"
       d="M 37.795276,321.25986 H 188.97638"
       id="path5"
       sodipodi:nodetypes="cc" />
    <g
       inkscape:label=""
       transform="translate(38.803983,183.12248)"
       id="g1">
      <g
         fill="#000000"
         fill-opacity="1"
         id="g2"
         transform="matrix(1.33333,0,0,1.33333,-3.40733,-2.64083)">
        <g
           id="use1"
           transform="translate(1.993,9.4650002)">
          <path
             d="m 2.640625,-3.09375 c 1.203125,0.25 1.265625,1.203125 1.265625,1.453125 0,0.65625 -0.484375,1.328125 -1.265625,1.4375 z m -0.3125,-0.09375 v 2.984375 c -0.875,-0.0625 -1.34375,-0.5625 -1.46875,-1.1875 0.03125,0.015625 0.125,0.03125 0.15625,0.03125 0.265625,0 0.453125,-0.203125 0.453125,-0.46875 0,-0.28125 -0.203125,-0.453125 -0.453125,-0.453125 -0.0625,0 -0.453125,0.015625 -0.453125,0.5 0,0.890625 0.53125,1.8125 1.765625,1.890625 V 0.5625 h 0.3125 V 0.09375 C 3.6875,0.015625 4.421875,-0.921875 4.421875,-1.9375 4.421875,-2.765625 3.96875,-3.28125 3.875,-3.375 3.484375,-3.8125 3.125,-3.890625 2.640625,-4.015625 v -2.6875 c 0.84375,0.03125 1.328125,0.46875 1.46875,1.03125 C 4.078125,-5.6875 4.0625,-5.6875 3.953125,-5.6875 3.703125,-5.6875 3.5,-5.515625 3.5,-5.234375 c 0,0.3125 0.25,0.453125 0.453125,0.453125 0.03125,0 0.46875,0 0.46875,-0.5 0,-0.953125 -0.65625,-1.6875 -1.78125,-1.75 v -0.453125 h -0.3125 v 0.46875 c -1.109375,0.09375 -1.765625,1 -1.765625,1.90625 0,0.6875 0.359375,1.15625 0.546875,1.328125 0.375,0.390625 0.71875,0.46875 1.21875,0.59375 z m 0,-0.90625 C 1.109375,-4.359375 1.0625,-5.21875 1.0625,-5.40625 c 0,-0.609375 0.46875,-1.21875 1.265625,-1.296875 z m 0,0"
             id="path2" />
        </g>
      </g>
    </g>
    <g
       inkscape:label=""
       transform="translate(194.45212,325.34001)"
       id="g5">
      <g
         fill="#000000"
         fill-opacity="1"
         id="g4"
         transform="matrix(1.33333,0,0,1.33333,-3.05317,-2.501)">
        <g
           id="g3"
           transform="translate(1.993,6.2820001)">
          <path
             d="m 0.875,-0.59375 c -0.03125,0.15625 -0.09375,0.390625 -0.09375,0.4375 0,0.171875 0.140625,0.265625 0.296875,0.265625 0.125,0 0.296875,-0.078125 0.375,-0.28125 0,-0.015625 0.125,-0.484375 0.1875,-0.734375 l 0.21875,-0.890625 C 1.90625,-2.03125 1.96875,-2.25 2.03125,-2.46875 c 0.03125,-0.171875 0.109375,-0.46875 0.125,-0.5 0.140625,-0.3125 0.671875,-1.21875 1.625,-1.21875 0.453125,0 0.53125,0.375 0.53125,0.703125 0,0.609375 -0.484375,1.890625 -0.640625,2.3125 C 3.578125,-0.9375 3.5625,-0.8125 3.5625,-0.703125 c 0,0.46875 0.359375,0.8125 0.828125,0.8125 0.9375,0 1.296875,-1.453125 1.296875,-1.53125 0,-0.109375 -0.078125,-0.109375 -0.109375,-0.109375 -0.109375,0 -0.109375,0.03125 -0.15625,0.1875 -0.203125,0.671875 -0.53125,1.234375 -1.015625,1.234375 -0.171875,0 -0.234375,-0.09375 -0.234375,-0.328125 0,-0.25 0.078125,-0.484375 0.171875,-0.703125 0.1875,-0.53125 0.609375,-1.625 0.609375,-2.203125 0,-0.65625 -0.421875,-1.0625 -1.140625,-1.0625 -0.90625,0 -1.390625,0.640625 -1.5625,0.875 -0.046875,-0.5625 -0.453125,-0.875 -0.921875,-0.875 -0.453125,0 -0.640625,0.390625 -0.734375,0.5625 C 0.421875,-3.5 0.296875,-2.90625 0.296875,-2.875 c 0,0.109375 0.09375,0.109375 0.109375,0.109375 0.109375,0 0.109375,-0.015625 0.171875,-0.234375 0.171875,-0.703125 0.375,-1.1875 0.734375,-1.1875 0.1875,0 0.296875,0.125 0.296875,0.453125 0,0.21875 -0.03125,0.328125 -0.15625,0.84375 z m 0,0"
             id="path3" />
        </g>
      </g>
    </g>
    <path
       style="fill:none;stroke:#ff0000;stroke-width:0.234331;stroke-linejoin:round;stroke-dasharray:none"
       d="m 60.472442,226.77191 c 0,86.92914 52.913388,86.92914 117.165358,86.92914"
       id="path7"
       sodipodi:nodetypes="cc" />
    <path
       style="fill:none;stroke:#0000ff;stroke-width:0.612283;stroke-linejoin:round;stroke-dasharray:none"
       d="m 60.472442,226.77191 c 0,80.52206 55.925978,58.87172 117.165358,34.01575"
       id="path8"
       sodipodi:nodetypes="cc" />
    <path
       style="fill:none;stroke:#000000;stroke-width:0.234331;stroke-linejoin:round;stroke-dasharray:0.702992, 0.702992;stroke-dashoffset:0"
       d="M 56.822793,283.50469 H 100.64269"
       id="path9" />
    <path
       style="fill:none;stroke:#000000;stroke-width:0.234331;stroke-linejoin:round;stroke-dasharray:0.702992, 0.702992;stroke-dashoffset:0"
       d="m 100.50291,283.59521 v 37.70152"
       id="path10" />
    <g
       inkscape:label=""
       transform="translate(138.95005,300.21455)"
       id="g12">
      <g
         fill="#000000"
         fill-opacity="1"
         id="g9"
         transform="matrix(1.33333,0,0,1.33333,-3.21983,-2.4395)">
        <g
           id="use8"
           transform="translate(1.993,7.4390001)">
          <path
             d="m 6.34375,-5.390625 c 0,-0.03125 0.015625,-0.078125 0.015625,-0.125 0,-0.046875 -0.046875,-0.09375 -0.09375,-0.09375 -0.0625,0 -0.078125,0.015625 -0.140625,0.09375 L 5.5625,-4.90625 C 5.484375,-5 5.0625,-5.609375 4.140625,-5.609375 c -1.859375,0 -3.71875,1.71875 -3.71875,3.546875 0,1.390625 1.046875,2.234375 2.3125,2.234375 1.046875,0 1.9375,-0.640625 2.359375,-1.265625 0.265625,-0.390625 0.375,-0.765625 0.375,-0.8125 0,-0.078125 -0.046875,-0.109375 -0.125,-0.109375 -0.09375,0 -0.109375,0.046875 -0.125,0.125 -0.34375,1.109375 -1.421875,1.796875 -2.375,1.796875 -0.8125,0 -1.671875,-0.484375 -1.671875,-1.703125 0,-0.25 0.09375,-1.578125 0.984375,-2.578125 C 2.75,-5.046875 3.5625,-5.34375 4.1875,-5.34375 c 1.015625,0 1.421875,0.796875 1.421875,1.5625 0,0.109375 -0.03125,0.265625 -0.03125,0.359375 0,0.09375 0.109375,0.09375 0.140625,0.09375 0.09375,0 0.109375,-0.03125 0.140625,-0.171875 z m 0,0"
             id="path16" />
        </g>
      </g>
      <g
         fill="#000000"
         fill-opacity="1"
         id="g10"
         transform="matrix(1.33333,0,0,1.33333,-3.21983,-2.4395)">
        <g
           id="use9"
           transform="translate(8.0279999,8.8439999)">
          <path
             d="M 3.03125,-1.984375 C 3.171875,-2.28125 3.390625,-2.34375 3.609375,-2.34375 v -0.234375 c 0,0 -0.28125,0.015625 -0.484375,0.015625 -0.1875,0 -0.53125,-0.015625 -0.5625,-0.015625 v 0.234375 c 0.25,0.015625 0.25,0.203125 0.25,0.21875 0,0.078125 -0.03125,0.140625 -0.046875,0.1875 L 2.0625,-0.484375 1.28125,-2.09375 C 1.265625,-2.125 1.25,-2.171875 1.25,-2.21875 c 0,-0.125 0.21875,-0.125 0.3125,-0.125 V -2.578125 C 1.375,-2.5625 0.921875,-2.5625 0.859375,-2.5625 c -0.125,0 -0.484375,0 -0.625,-0.015625 v 0.234375 c 0.359375,0 0.421875,0.015625 0.5,0.203125 l 1,2.0625 c 0.0625,0.125 0.109375,0.140625 0.1875,0.140625 0.125,0 0.15625,-0.0625 0.1875,-0.140625 z m 0,0"
             id="path17" />
        </g>
      </g>
      <g
         fill="#000000"
         fill-opacity="1"
         id="g16"
         transform="matrix(1.33333,0,0,1.33333,-3.21983,-2.4395)">
        <g
           id="use10"
           transform="translate(11.486042,8.8439999)">
          <path
             d="m 2.84375,-1.78125 c 0,-0.5625 -0.5625,-0.890625 -1.234375,-0.890625 -0.296875,0 -1,0.03125 -1,0.53125 0,0.171875 0.109375,0.296875 0.296875,0.296875 0.171875,0 0.28125,-0.125 0.28125,-0.28125 0,-0.109375 -0.046875,-0.21875 -0.15625,-0.265625 0.203125,-0.09375 0.5,-0.09375 0.5625,-0.09375 0.421875,0 0.75,0.265625 0.75,0.71875 v 0.15625 c -0.265625,0 -0.75,0.015625 -1.1875,0.171875 -0.390625,0.140625 -0.765625,0.40625 -0.765625,0.8125 0,0.53125 0.625,0.6875 1.09375,0.6875 0.5,0 0.796875,-0.25 0.9375,-0.484375 0.03125,0.3125 0.234375,0.453125 0.4375,0.453125 0.03125,0 0.671875,0 0.671875,-0.5625 V -0.875 H 3.3125 v 0.328125 c 0,0.0625 0,0.328125 -0.234375,0.328125 -0.234375,0 -0.234375,-0.265625 -0.234375,-0.328125 z m -0.5,0.9375 c 0,0.609375 -0.609375,0.71875 -0.8125,0.71875 -0.3125,0 -0.625,-0.203125 -0.625,-0.5 0,-0.34375 0.328125,-0.78125 1.4375,-0.8125 z m 0,0"
             id="path18" />
        </g>
        <g
           id="use11"
           transform="translate(15.138953,8.8439999)">
          <path
             d="m 1.296875,-1.34375 c 0,-0.546875 0.28125,-1.09375 0.8125,-1.109375 -0.046875,0.0625 -0.078125,0.125 -0.078125,0.203125 0,0.171875 0.125,0.28125 0.28125,0.28125 0.171875,0 0.28125,-0.109375 0.28125,-0.28125 0,-0.234375 -0.21875,-0.390625 -0.484375,-0.390625 -0.359375,0 -0.671875,0.21875 -0.859375,0.625 v -0.625 l -0.90625,0.0625 v 0.234375 c 0.421875,0 0.46875,0.046875 0.46875,0.34375 v 1.515625 c 0,0.25 -0.046875,0.25 -0.46875,0.25 V 0 C 0.5,-0.015625 0.9375,-0.03125 1.078125,-0.03125 1.375,-0.03125 1.796875,0 1.875,0 V -0.234375 H 1.75 c -0.453125,0 -0.453125,-0.0625 -0.453125,-0.265625 z m 0,0"
             id="path19" />
        </g>
        <g
           id="use12"
           transform="translate(18.017166,8.8439999)">
          <path
             d="m 1.359375,-3.6875 c 0,-0.171875 -0.15625,-0.359375 -0.359375,-0.359375 -0.1875,0 -0.359375,0.140625 -0.359375,0.359375 0,0.21875 0.171875,0.359375 0.359375,0.359375 0.203125,0 0.359375,-0.171875 0.359375,-0.359375 z M 0.40625,-2.578125 v 0.234375 c 0.390625,0 0.453125,0.046875 0.453125,0.34375 v 1.515625 c 0,0.25 -0.0625,0.25 -0.46875,0.25 V 0 c 0.171875,-0.015625 0.625,-0.03125 0.6875,-0.03125 0.0625,0 0.515625,0.015625 0.671875,0.03125 v -0.234375 c -0.375,0 -0.421875,0 -0.421875,-0.25 v -2.15625 z m 0,0"
             id="path20" />
        </g>
        <g
           id="use13"
           transform="translate(20.120087,8.8439999)">
          <path
             d="m 2.84375,-1.78125 c 0,-0.5625 -0.5625,-0.890625 -1.234375,-0.890625 -0.296875,0 -1,0.03125 -1,0.53125 0,0.171875 0.109375,0.296875 0.296875,0.296875 0.171875,0 0.28125,-0.125 0.28125,-0.28125 0,-0.109375 -0.046875,-0.21875 -0.15625,-0.265625 0.203125,-0.09375 0.5,-0.09375 0.5625,-0.09375 0.421875,0 0.75,0.265625 0.75,0.71875 v 0.15625 c -0.265625,0 -0.75,0.015625 -1.1875,0.171875 -0.390625,0.140625 -0.765625,0.40625 -0.765625,0.8125 0,0.53125 0.625,0.6875 1.09375,0.6875 0.5,0 0.796875,-0.25 0.9375,-0.484375 0.03125,0.3125 0.234375,0.453125 0.4375,0.453125 0.03125,0 0.671875,0 0.671875,-0.5625 V -0.875 H 3.3125 v 0.328125 c 0,0.0625 0,0.328125 -0.234375,0.328125 -0.234375,0 -0.234375,-0.265625 -0.234375,-0.328125 z m -0.5,0.9375 c 0,0.609375 -0.609375,0.71875 -0.8125,0.71875 -0.3125,0 -0.625,-0.203125 -0.625,-0.5 0,-0.34375 0.328125,-0.78125 1.4375,-0.8125 z m 0,0"
             id="path21" />
        </g>
        <g
           id="use14"
           transform="translate(23.772999,8.8439999)">
          <path
             d="m 1.296875,-4.15625 -0.953125,0.0625 v 0.234375 c 0.421875,0 0.46875,0.046875 0.46875,0.34375 V 0 H 1.046875 C 1.15625,-0.203125 1.234375,-0.328125 1.25,-0.359375 1.453125,-0.125 1.765625,0.0625 2.171875,0.0625 3,0.0625 3.71875,-0.53125 3.71875,-1.296875 c 0,-0.71875 -0.65625,-1.34375 -1.46875,-1.34375 -0.328125,0 -0.671875,0.09375 -0.953125,0.359375 z M 1.3125,-1.984375 c 0.1875,-0.296875 0.546875,-0.46875 0.890625,-0.46875 0.328125,0 0.5625,0.15625 0.703125,0.328125 0.1875,0.234375 0.234375,0.515625 0.234375,0.828125 0,1.140625 -0.859375,1.171875 -1,1.171875 -0.203125,0 -0.5,-0.0625 -0.734375,-0.375 C 1.3125,-0.625 1.3125,-0.640625 1.3125,-0.75 Z m 0,0"
             id="path22" />
        </g>
        <g
           id="use15"
           transform="translate(27.813257,8.8439999)">
          <path
             d="m 1.328125,-4.15625 -0.9375,0.0625 v 0.234375 c 0.40625,0 0.46875,0.046875 0.46875,0.34375 v 3.03125 c 0,0.25 -0.0625,0.25 -0.46875,0.25 V 0 C 0.5625,-0.015625 1.046875,-0.03125 1.09375,-0.03125 1.328125,-0.03125 1.5625,-0.015625 1.796875,0 v -0.234375 c -0.40625,0 -0.46875,0 -0.46875,-0.25 z m 0,0"
             id="path12" />
        </g>
        <g
           id="use16"
           transform="translate(29.916178,8.8439999)">
          <path
             d="m 2.8125,-1.359375 c 0.125,0 0.171875,0 0.171875,-0.140625 0,-0.453125 -0.25,-1.171875 -1.25,-1.171875 -0.84375,0 -1.453125,0.640625 -1.453125,1.359375 0,0.75 0.6875,1.375 1.53125,1.375 0.875,0 1.171875,-0.65625 1.171875,-0.78125 0,-0.03125 -0.015625,-0.09375 -0.109375,-0.09375 -0.078125,0 -0.09375,0.03125 -0.109375,0.109375 -0.1875,0.4375 -0.640625,0.546875 -0.90625,0.546875 -0.328125,0 -0.609375,-0.140625 -0.78125,-0.359375 -0.21875,-0.28125 -0.21875,-0.671875 -0.21875,-0.84375 z M 0.875,-1.53125 c 0.0625,-0.796875 0.609375,-0.953125 0.859375,-0.953125 0.765625,0 0.8125,0.78125 0.8125,0.953125 z m 0,0"
             id="path24" />
        </g>
      </g>
    </g>
    <g
       inkscape:label=""
       transform="translate(32.076961,303.55696)"
       id="g25">
      <g
         fill="#000000"
         fill-opacity="1"
         id="g13"
         transform="matrix(1.33333,0,0,1.33333,-3.21983,-2.43817)">
        <g
           id="use4"
           transform="translate(1.993,7.4380002)">
          <path
             d="m 6.34375,-5.390625 c 0,-0.03125 0.015625,-0.078125 0.015625,-0.125 0,-0.046875 -0.046875,-0.09375 -0.09375,-0.09375 -0.0625,0 -0.078125,0.015625 -0.140625,0.09375 L 5.5625,-4.90625 C 5.484375,-5 5.0625,-5.609375 4.140625,-5.609375 c -1.859375,0 -3.71875,1.71875 -3.71875,3.546875 0,1.390625 1.046875,2.234375 2.3125,2.234375 1.046875,0 1.9375,-0.640625 2.359375,-1.265625 0.265625,-0.390625 0.375,-0.765625 0.375,-0.8125 0,-0.078125 -0.046875,-0.109375 -0.125,-0.109375 -0.09375,0 -0.109375,0.046875 -0.125,0.125 -0.34375,1.109375 -1.421875,1.796875 -2.375,1.796875 -0.8125,0 -1.671875,-0.484375 -1.671875,-1.703125 0,-0.25 0.09375,-1.578125 0.984375,-2.578125 C 2.75,-5.046875 3.5625,-5.34375 4.1875,-5.34375 c 1.015625,0 1.421875,0.796875 1.421875,1.5625 0,0.109375 -0.03125,0.265625 -0.03125,0.359375 0,0.09375 0.109375,0.09375 0.140625,0.09375 0.09375,0 0.109375,-0.03125 0.140625,-0.171875 z m 0,0"
             id="path13" />
        </g>
      </g>
      <g
         fill="#000000"
         fill-opacity="1"
         id="g7"
         transform="matrix(1.33333,0,0,1.33333,-3.21983,-2.43817)">
        <g
           id="use5"
           transform="translate(8.0279999,8.8439999)">
          <path
             d="m 2.546875,-2.59375 c -0.0625,0 -0.09375,0 -0.109375,0.015625 -0.015625,0 -0.015625,0 -0.109375,0 h -1.0625 V -3.21875 c 0,-0.59375 0.671875,-0.796875 1.125,-0.796875 0.171875,0 0.40625,0.015625 0.59375,0.140625 -0.0625,0.015625 -0.21875,0.09375 -0.21875,0.296875 0,0.203125 0.171875,0.296875 0.296875,0.296875 0.140625,0 0.3125,-0.078125 0.3125,-0.3125 0,-0.34375 -0.359375,-0.625 -0.96875,-0.625 -0.671875,0 -1.59375,0.28125 -1.59375,1 v 0.640625 H 0.265625 V -2.34375 H 0.8125 v 1.859375 c 0,0.25 -0.046875,0.25 -0.46875,0.25 V 0 C 0.53125,-0.015625 1,-0.03125 1.046875,-0.03125 c 0.25,0 0.484375,0.015625 0.71875,0.03125 v -0.234375 c -0.40625,0 -0.46875,0 -0.46875,-0.25 V -2.34375 h 1.3125 c 0.265625,0 0.3125,0.0625 0.3125,0.328125 v 1.53125 c 0,0.25 -0.0625,0.25 -0.484375,0.25 V 0 c 0.1875,-0.015625 0.65625,-0.03125 0.703125,-0.03125 0.25,0 0.484375,0.015625 0.71875,0.03125 v -0.234375 c -0.40625,0 -0.46875,0 -0.46875,-0.25 V -2.65625 Z m 0,0"
             id="path14" />
        </g>
        <g
           id="use6"
           transform="translate(12.234437,8.8439999)">
          <path
             d="m 1.5625,-3.6875 c 0,-0.1875 -0.15625,-0.359375 -0.359375,-0.359375 -0.1875,0 -0.359375,0.171875 -0.359375,0.359375 C 0.84375,-3.5 1,-3.328125 1.203125,-3.328125 1.40625,-3.328125 1.5625,-3.5 1.5625,-3.6875 Z m -0.984375,1.109375 v 0.234375 c 0.453125,0 0.515625,0.046875 0.515625,0.34375 v 2.265625 c 0,0.28125 -0.078125,0.765625 -0.453125,0.765625 -0.09375,0 -0.234375,-0.015625 -0.3125,-0.046875 0.0625,-0.03125 0.125,-0.078125 0.125,-0.25 C 0.453125,0.5625 0.328125,0.4375 0.171875,0.4375 0,0.4375 -0.125,0.5625 -0.125,0.734375 c 0,0.34375 0.390625,0.484375 0.765625,0.484375 0.5,0 0.921875,-0.375 0.921875,-0.953125 v -2.90625 z m 0,0"
             id="path15" />
        </g>
        <g
           id="use7"
           transform="translate(14.531629,8.8439999)">
          <path
             d="m 3.359375,-1.28125 c 0,-0.734375 -0.671875,-1.390625 -1.53125,-1.390625 -0.875,0 -1.546875,0.65625 -1.546875,1.390625 0,0.734375 0.6875,1.34375 1.546875,1.34375 0.859375,0 1.53125,-0.609375 1.53125,-1.34375 z m -1.53125,1.125 c -0.96875,0 -0.96875,-0.890625 -0.96875,-1.171875 0,-0.1875 0,-0.59375 0.21875,-0.84375 0.203125,-0.21875 0.453125,-0.3125 0.75,-0.3125 0.28125,0 0.546875,0.09375 0.75,0.3125 0.21875,0.25 0.21875,0.65625 0.21875,0.84375 0,0.28125 0,1.171875 -0.96875,1.171875 z m 0,0"
             id="path25" />
        </g>
      </g>
    </g>
    <g
       inkscape:label=""
       transform="translate(65.805364,229.20215)"
       id="g33">
      <g
         fill="#000000"
         fill-opacity="1"
         id="g6"
         transform="matrix(1.33333,0,0,1.33333,-3.21983,-2.4395)">
        <g
           id="g26"
           transform="translate(1.993,7.4390001)">
          <path
             d="m 6.34375,-5.390625 c 0,-0.03125 0.015625,-0.078125 0.015625,-0.125 0,-0.046875 -0.046875,-0.09375 -0.09375,-0.09375 -0.0625,0 -0.078125,0.015625 -0.140625,0.09375 L 5.5625,-4.90625 C 5.484375,-5 5.0625,-5.609375 4.140625,-5.609375 c -1.859375,0 -3.71875,1.71875 -3.71875,3.546875 0,1.390625 1.046875,2.234375 2.3125,2.234375 1.046875,0 1.9375,-0.640625 2.359375,-1.265625 0.265625,-0.390625 0.375,-0.765625 0.375,-0.8125 0,-0.078125 -0.046875,-0.109375 -0.125,-0.109375 -0.09375,0 -0.109375,0.046875 -0.125,0.125 -0.34375,1.109375 -1.421875,1.796875 -2.375,1.796875 -0.8125,0 -1.671875,-0.484375 -1.671875,-1.703125 0,-0.25 0.09375,-1.578125 0.984375,-2.578125 C 2.75,-5.046875 3.5625,-5.34375 4.1875,-5.34375 c 1.015625,0 1.421875,0.796875 1.421875,1.5625 0,0.109375 -0.03125,0.265625 -0.03125,0.359375 0,0.09375 0.109375,0.09375 0.140625,0.09375 0.09375,0 0.109375,-0.03125 0.140625,-0.171875 z m 0,0"
             id="path26" />
        </g>
      </g>
      <g
         fill="#000000"
         fill-opacity="1"
         id="g32"
         transform="matrix(1.33333,0,0,1.33333,-3.21983,-2.4395)">
        <g
           id="g27"
           transform="translate(8.0279999,8.8439999)">
          <path
             d="M 1.296875,-2.34375 H 2.28125 V -2.578125 H 1.296875 V -3.6875 h -0.21875 c 0,0.546875 -0.265625,1.125 -0.859375,1.15625 v 0.1875 H 0.8125 V -0.75 c 0,0.625 0.46875,0.8125 0.875,0.8125 0.40625,0 0.71875,-0.328125 0.71875,-0.8125 V -1.078125 H 2.171875 v 0.3125 c 0,0.421875 -0.21875,0.609375 -0.4375,0.609375 -0.4375,0 -0.4375,-0.484375 -0.4375,-0.59375 z m 0,0"
             id="path11" />
        </g>
        <g
           id="g28"
           transform="translate(10.906214,8.8439999)">
          <path
             d="m 3.359375,-1.28125 c 0,-0.734375 -0.671875,-1.390625 -1.53125,-1.390625 -0.875,0 -1.546875,0.65625 -1.546875,1.390625 0,0.734375 0.6875,1.34375 1.546875,1.34375 0.859375,0 1.53125,-0.609375 1.53125,-1.34375 z m -1.53125,1.125 c -0.96875,0 -0.96875,-0.890625 -0.96875,-1.171875 0,-0.1875 0,-0.59375 0.21875,-0.84375 0.203125,-0.21875 0.453125,-0.3125 0.75,-0.3125 0.28125,0 0.546875,0.09375 0.75,0.3125 0.21875,0.25 0.21875,0.65625 0.21875,0.84375 0,0.28125 0,1.171875 -0.96875,1.171875 z m 0,0"
             id="path27" />
        </g>
        <g
           id="g29"
           transform="translate(14.559126,8.8439999)">
          <path
             d="M 1.296875,-2.34375 H 2.28125 V -2.578125 H 1.296875 V -3.6875 h -0.21875 c 0,0.546875 -0.265625,1.125 -0.859375,1.15625 v 0.1875 H 0.8125 V -0.75 c 0,0.625 0.46875,0.8125 0.875,0.8125 0.40625,0 0.71875,-0.328125 0.71875,-0.8125 V -1.078125 H 2.171875 v 0.3125 c 0,0.421875 -0.21875,0.609375 -0.4375,0.609375 -0.4375,0 -0.4375,-0.484375 -0.4375,-0.59375 z m 0,0"
             id="path28" />
        </g>
        <g
           id="g30"
           transform="translate(17.43734,8.8439999)">
          <path
             d="m 2.84375,-1.78125 c 0,-0.5625 -0.5625,-0.890625 -1.234375,-0.890625 -0.296875,0 -1,0.03125 -1,0.53125 0,0.171875 0.109375,0.296875 0.296875,0.296875 0.171875,0 0.28125,-0.125 0.28125,-0.28125 0,-0.109375 -0.046875,-0.21875 -0.15625,-0.265625 0.203125,-0.09375 0.5,-0.09375 0.5625,-0.09375 0.421875,0 0.75,0.265625 0.75,0.71875 v 0.15625 c -0.265625,0 -0.75,0.015625 -1.1875,0.171875 -0.390625,0.140625 -0.765625,0.40625 -0.765625,0.8125 0,0.53125 0.625,0.6875 1.09375,0.6875 0.5,0 0.796875,-0.25 0.9375,-0.484375 0.03125,0.3125 0.234375,0.453125 0.4375,0.453125 0.03125,0 0.671875,0 0.671875,-0.5625 V -0.875 H 3.3125 v 0.328125 c 0,0.0625 0,0.328125 -0.234375,0.328125 -0.234375,0 -0.234375,-0.265625 -0.234375,-0.328125 z m -0.5,0.9375 c 0,0.609375 -0.609375,0.71875 -0.8125,0.71875 -0.3125,0 -0.625,-0.203125 -0.625,-0.5 0,-0.34375 0.328125,-0.78125 1.4375,-0.8125 z m 0,0"
             id="path29" />
        </g>
        <g
           id="g31"
           transform="translate(21.090252,8.8439999)">
          <path
             d="m 1.328125,-4.15625 -0.9375,0.0625 v 0.234375 c 0.40625,0 0.46875,0.046875 0.46875,0.34375 v 3.03125 c 0,0.25 -0.0625,0.25 -0.46875,0.25 V 0 C 0.5625,-0.015625 1.046875,-0.03125 1.09375,-0.03125 1.328125,-0.03125 1.5625,-0.015625 1.796875,0 v -0.234375 c -0.40625,0 -0.46875,0 -0.46875,-0.25 z m 0,0"
             id="path30" />
        </g>
      </g>
    </g>
  </g>
</svg>
