<?xml version="1.0" encoding="UTF-8" standalone="no"?>
<!-- Created with Inkscape (http://www.inkscape.org/) -->

<svg
   width="200"
   height="100"
   viewBox="0 0 52.916665 26.458333"
   version="1.1"
   id="svg1"
   inkscape:version="1.3.2 (091e20ef0f, 2023-11-25)"
   sodipodi:docname="figura03_10.svg"
   xmlns:inkscape="http://www.inkscape.org/namespaces/inkscape"
   xmlns:sodipodi="http://sodipodi.sourceforge.net/DTD/sodipodi-0.dtd"
   xmlns="http://www.w3.org/2000/svg"
   xmlns:svg="http://www.w3.org/2000/svg">
  <sodipodi:namedview
     id="namedview1"
     pagecolor="#ffffff"
     bordercolor="#000000"
     borderopacity="0.25"
     inkscape:showpageshadow="false"
     inkscape:pageopacity="0.0"
     inkscape:pagecheckerboard="0"
     inkscape:deskcolor="#d1d1d1"
     inkscape:document-units="px"
     showgrid="true"
     inkscape:zoom="6.0007856"
     inkscape:cx="95.987432"
     inkscape:cy="48.660295"
     inkscape:window-width="1920"
     inkscape:window-height="1046"
     inkscape:window-x="1920"
     inkscape:window-y="18"
     inkscape:window-maximized="1"
     inkscape:current-layer="layer1">
    <inkscape:grid
       id="grid1"
       units="px"
       originx="0"
       originy="0"
       spacingx="1.3229166"
       spacingy="1.3229167"
       empcolor="#0099e5"
       empopacity="0.30196078"
       color="#0099e5"
       opacity="0.14901961"
       empspacing="4"
       dotted="false"
       gridanglex="30"
       gridanglez="30"
       visible="true" />
  </sodipodi:namedview>
  <defs
     id="defs1">
    <marker
       style="overflow:visible"
       id="ArrowWide"
       refX="0"
       refY="0"
       orient="auto-start-reverse"
       inkscape:stockid="Wide arrow"
       markerWidth="1"
       markerHeight="1"
       viewBox="0 0 1 1"
       inkscape:isstock="true"
       inkscape:collect="always"
       preserveAspectRatio="xMidYMid">
      <path
         style="fill:none;stroke:context-stroke;stroke-width:1;stroke-linecap:butt"
         d="M 3,-3 0,0 3,3"
         transform="rotate(180,0.125,0)"
         sodipodi:nodetypes="ccc"
         id="path36" />
    </marker>
  </defs>
  <g
     inkscape:label="Capa 1"
     inkscape:groupmode="layer"
     id="layer1">
    <text
       xml:space="preserve"
       style="font-size:2.82223px;font-family:Futura;-inkscape-font-specification:'Futura, Normal';text-align:center;text-anchor:middle;fill:#000000;stroke-width:0.0529167;stroke-linejoin:round;stroke-dasharray:0.105833, 0.0529167"
       x="24.685951"
       y="7.892345"
       id="text1"><tspan
         sodipodi:role="line"
         id="tspan1"
         style="stroke-width:0.0529167"
         x="24.685951"
         y="7.892345">Aire atmosférico</tspan></text>
    <path
       style="fill:none;stroke-width:0.26458333;stroke-linejoin:round;stroke-dasharray:none;stroke:#000000;stroke-dashoffset:0"
       d="M 5.2916666,13.229168 H 47.624999"
       id="path1" />
    <path
       style="fill:none;stroke:#000000;stroke-width:0.21166666;stroke-linejoin:round;stroke-dasharray:none;stroke-dashoffset:0"
       d="M 5.2916666,14.552084 6.6145832,13.229168"
       id="path2" />
    <path
       style="fill:none;stroke:#000000;stroke-width:0.21166666;stroke-linejoin:round;stroke-dasharray:none;stroke-dashoffset:0"
       d="M 5.2916666,15.875001 7.9374999,13.229168"
       id="path3" />
    <path
       style="fill:none;stroke:#000000;stroke-width:0.21166666;stroke-linejoin:round;stroke-dasharray:none;stroke-dashoffset:0"
       d="M 6.6145832,15.875001 9.2604165,13.229168"
       id="path4" />
    <path
       style="fill:none;stroke:#000000;stroke-width:0.21166666;stroke-linejoin:round;stroke-dasharray:none;stroke-dashoffset:0"
       d="M 7.9374998,15.875001 10.583333,13.229168"
       id="path5" />
    <path
       style="fill:none;stroke:#000000;stroke-width:0.21166666;stroke-linejoin:round;stroke-dasharray:none;stroke-dashoffset:0"
       d="M 9.2604164,15.875001 11.90625,13.229168"
       id="path6" />
    <path
       style="fill:none;stroke:#000000;stroke-width:0.21166666;stroke-linejoin:round;stroke-dasharray:none;stroke-dashoffset:0"
       d="m 10.583333,15.875001 2.645833,-2.645833"
       id="path7" />
    <path
       style="fill:none;stroke:#000000;stroke-width:0.21166666;stroke-linejoin:round;stroke-dasharray:none;stroke-dashoffset:0"
       d="m 11.90625,15.875001 2.645833,-2.645833"
       id="path8" />
    <path
       style="fill:none;stroke:#000000;stroke-width:0.21166666;stroke-linejoin:round;stroke-dasharray:none;stroke-dashoffset:0"
       d="M 13.229166,15.875001 15.875,13.229168"
       id="path9" />
    <path
       style="fill:none;stroke:#000000;stroke-width:0.21166666;stroke-linejoin:round;stroke-dasharray:none;stroke-dashoffset:0"
       d="m 14.552083,15.875001 2.645833,-2.645833"
       id="path10" />
    <path
       style="fill:none;stroke:#000000;stroke-width:0.21166666;stroke-linejoin:round;stroke-dasharray:none;stroke-dashoffset:0"
       d="m 15.875,15.875001 2.645833,-2.645833"
       id="path11" />
    <path
       style="fill:none;stroke:#000000;stroke-width:0.21166666;stroke-linejoin:round;stroke-dasharray:none;stroke-dashoffset:0"
       d="M 17.197916,15.875001 19.84375,13.229168"
       id="path12" />
    <path
       style="fill:none;stroke:#000000;stroke-width:0.21166666;stroke-linejoin:round;stroke-dasharray:none;stroke-dashoffset:0"
       d="m 18.520833,15.875001 2.645833,-2.645833"
       id="path13" />
    <path
       style="fill:none;stroke:#000000;stroke-width:0.21166666;stroke-linejoin:round;stroke-dasharray:none;stroke-dashoffset:0"
       d="m 19.84375,15.875001 2.645833,-2.645833"
       id="path14" />
    <path
       style="fill:none;stroke:#000000;stroke-width:0.21166666;stroke-linejoin:round;stroke-dasharray:none;stroke-dashoffset:0"
       d="M 21.166666,15.875001 23.8125,13.229168"
       id="path15" />
    <path
       style="fill:none;stroke:#000000;stroke-width:0.21166666;stroke-linejoin:round;stroke-dasharray:none;stroke-dashoffset:0"
       d="m 22.489583,15.875001 2.645833,-2.645833"
       id="path16" />
    <path
       style="fill:none;stroke:#000000;stroke-width:0.21166666;stroke-linejoin:round;stroke-dasharray:none;stroke-dashoffset:0"
       d="m 23.8125,15.875001 2.645833,-2.645833"
       id="path17" />
    <path
       style="fill:none;stroke:#000000;stroke-width:0.21166666;stroke-linejoin:round;stroke-dasharray:none;stroke-dashoffset:0"
       d="M 25.135416,15.875001 27.78125,13.229168"
       id="path18" />
    <path
       style="fill:none;stroke:#000000;stroke-width:0.21166666;stroke-linejoin:round;stroke-dasharray:none;stroke-dashoffset:0"
       d="m 26.458333,15.875001 2.645833,-2.645833"
       id="path19" />
    <path
       style="fill:none;stroke:#000000;stroke-width:0.21166666;stroke-linejoin:round;stroke-dasharray:none;stroke-dashoffset:0"
       d="m 27.78125,15.875001 2.645833,-2.645833"
       id="path20" />
    <path
       style="fill:none;stroke:#000000;stroke-width:0.21166666;stroke-linejoin:round;stroke-dasharray:none;stroke-dashoffset:0"
       d="M 29.104166,15.875001 31.75,13.229168"
       id="path21" />
    <path
       style="fill:none;stroke:#000000;stroke-width:0.21166666;stroke-linejoin:round;stroke-dasharray:none;stroke-dashoffset:0"
       d="m 30.427083,15.875001 2.645833,-2.645833"
       id="path22" />
    <path
       style="fill:none;stroke:#000000;stroke-width:0.21166666;stroke-linejoin:round;stroke-dasharray:none;stroke-dashoffset:0"
       d="m 31.75,15.875001 2.645833,-2.645833"
       id="path23" />
    <path
       style="fill:none;stroke:#000000;stroke-width:0.21166666;stroke-linejoin:round;stroke-dasharray:none;stroke-dashoffset:0"
       d="M 33.072916,15.875001 35.71875,13.229168"
       id="path24" />
    <path
       style="fill:none;stroke:#000000;stroke-width:0.21166666;stroke-linejoin:round;stroke-dasharray:none;stroke-dashoffset:0"
       d="m 34.395833,15.875001 2.645833,-2.645833"
       id="path25" />
    <path
       style="fill:none;stroke:#000000;stroke-width:0.21166666;stroke-linejoin:round;stroke-dasharray:none;stroke-dashoffset:0"
       d="m 35.71875,15.875001 2.645833,-2.645833"
       id="path26" />
    <path
       style="fill:none;stroke:#000000;stroke-width:0.21166666;stroke-linejoin:round;stroke-dasharray:none;stroke-dashoffset:0"
       d="M 37.041666,15.875001 39.6875,13.229168"
       id="path27" />
    <path
       style="fill:none;stroke:#000000;stroke-width:0.21166666;stroke-linejoin:round;stroke-dasharray:none;stroke-dashoffset:0"
       d="m 38.364583,15.875001 2.645833,-2.645833"
       id="path28" />
    <path
       style="fill:none;stroke:#000000;stroke-width:0.21166666;stroke-linejoin:round;stroke-dasharray:none;stroke-dashoffset:0"
       d="m 39.6875,15.875001 2.645833,-2.645833"
       id="path29" />
    <path
       style="fill:none;stroke:#000000;stroke-width:0.21166666;stroke-linejoin:round;stroke-dasharray:none;stroke-dashoffset:0"
       d="M 41.010416,15.875001 43.65625,13.229168"
       id="path30" />
    <path
       style="fill:none;stroke:#000000;stroke-width:0.21166666;stroke-linejoin:round;stroke-dasharray:none;stroke-dashoffset:0"
       d="m 42.333333,15.875001 2.645833,-2.645833"
       id="path31" />
    <path
       style="fill:none;stroke:#000000;stroke-width:0.21166666;stroke-linejoin:round;stroke-dasharray:none;stroke-dashoffset:0"
       d="m 43.65625,15.875001 2.645833,-2.645833"
       id="path32" />
    <path
       style="fill:none;stroke:#000000;stroke-width:0.21166666;stroke-linejoin:round;stroke-dasharray:none;stroke-dashoffset:0"
       d="m 44.979166,15.875001 2.645833,-2.645833"
       id="path33" />
    <path
       style="fill:none;stroke:#000000;stroke-width:0.21166666;stroke-linejoin:round;stroke-dasharray:none;stroke-dashoffset:0"
       d="m 46.302082,15.875001 1.322916,-1.322916"
       id="path34" />
    <path
       style="fill:none;stroke:#0000ff;stroke-width:0.211667;stroke-linejoin:round;stroke-dasharray:none;stroke-dashoffset:0;marker-end:url(#ArrowWide)"
       d="m 5.2916666,13.229168 v 7.9375"
       id="path35" />
    <g
       inkscape:label=""
       transform="translate(4.701865,22.280122)"
       id="g40">
      <g
         fill="#000000"
         fill-opacity="1"
         id="g39"
         transform="matrix(0.352778,0,0,0.352778,-0.818841,-0.676231)">
        <g
           id="g38"
           transform="translate(1.993,4.9949999)">
          <path
             d="M 3.875,-2.625 C 3.90625,-2.71875 3.90625,-2.734375 3.90625,-2.78125 3.90625,-2.921875 3.796875,-3 3.671875,-3 3.59375,-3 3.46875,-2.96875 3.390625,-2.84375 3.359375,-2.796875 3.3125,-2.578125 3.28125,-2.4375 L 3.125,-1.859375 c -0.03125,0.171875 -0.25,1.046875 -0.28125,1.125 0,0 -0.3125,0.609375 -0.84375,0.609375 -0.484375,0 -0.484375,-0.453125 -0.484375,-0.578125 0,-0.375 0.15625,-0.8125 0.375,-1.359375 C 1.96875,-2.28125 2,-2.359375 2,-2.484375 2,-2.8125 1.71875,-3.078125 1.34375,-3.078125 0.640625,-3.078125 0.328125,-2.125 0.328125,-2 c 0,0.078125 0.09375,0.078125 0.125,0.078125 0.09375,0 0.09375,-0.03125 0.125,-0.109375 C 0.75,-2.609375 1.046875,-2.875 1.328125,-2.875 1.4375,-2.875 1.5,-2.796875 1.5,-2.640625 c 0,0.171875 -0.0625,0.3125 -0.09375,0.40625 C 1.0625,-1.375 1,-1.125 1,-0.8125 1,-0.703125 1,-0.375 1.265625,-0.140625 1.484375,0.03125 1.78125,0.0625 1.96875,0.0625 2.25,0.0625 2.5,-0.03125 2.71875,-0.25 2.640625,0.140625 2.5625,0.4375 2.265625,0.78125 2.078125,1 1.796875,1.21875 1.421875,1.21875 c -0.046875,0 -0.375,0 -0.515625,-0.21875 0.375,-0.046875 0.375,-0.375 0.375,-0.390625 0,-0.21875 -0.203125,-0.265625 -0.265625,-0.265625 -0.171875,0 -0.40625,0.140625 -0.40625,0.46875 0,0.34375 0.328125,0.609375 0.828125,0.609375 C 2.140625,1.421875 3,0.875 3.21875,0 Z m 0,0"
             id="path38" />
        </g>
      </g>
    </g>
    <g
       inkscape:label=""
       transform="translate(23.310893,20.309527)"
       id="g41">
      <g
         fill="#000000"
         fill-opacity="1"
         id="g3"
         transform="matrix(0.352778,0,0,0.352778,-0.807817,-0.678259)">
        <g
           id="use2"
           transform="translate(1.993,6.2820001)">
          <path
             d="m 1.71875,-2.75 h 0.703125 c 0.140625,0 0.21875,0 0.21875,-0.15625 C 2.640625,-3 2.5625,-3 2.4375,-3 H 1.78125 l 0.25,-1.03125 C 2.046875,-4.0625 2.0625,-4.109375 2.0625,-4.125 c 0,-0.140625 -0.109375,-0.234375 -0.25,-0.234375 -0.171875,0 -0.265625,0.125 -0.328125,0.296875 C 1.4375,-3.875 1.53125,-4.21875 1.21875,-3 H 0.515625 c -0.125,0 -0.21875,0 -0.21875,0.15625 C 0.296875,-2.75 0.375,-2.75 0.5,-2.75 H 1.15625 L 0.75,-1.109375 C 0.703125,-0.9375 0.640625,-0.6875 0.640625,-0.59375 c 0,0.40625 0.359375,0.65625 0.75,0.65625 0.78125,0 1.21875,-0.96875 1.21875,-1.0625 0,-0.09375 -0.09375,-0.09375 -0.109375,-0.09375 -0.09375,0 -0.09375,0.015625 -0.15625,0.140625 -0.1875,0.4375 -0.546875,0.828125 -0.921875,0.828125 -0.15625,0 -0.25,-0.09375 -0.25,-0.34375 0,-0.0625 0.03125,-0.21875 0.046875,-0.28125 z m 0,0"
             id="path40" />
        </g>
      </g>
      <g
         fill="#000000"
         fill-opacity="1"
         id="g4"
         transform="matrix(0.352778,0,0,0.352778,-0.807817,-0.678259)">
        <g
           id="use3"
           transform="translate(5.0019999,7.2779999)">
          <path
             d="m 1.96875,-3.109375 c 0,-0.125 -0.078125,-0.21875 -0.21875,-0.21875 -0.140625,0 -0.296875,0.140625 -0.296875,0.296875 0,0.140625 0.109375,0.21875 0.21875,0.21875 0.15625,0 0.296875,-0.140625 0.296875,-0.296875 z m 0.234375,2.390625 c 0,-0.0625 -0.078125,-0.0625 -0.09375,-0.0625 -0.09375,0 -0.09375,0.015625 -0.125,0.109375 -0.078125,0.265625 -0.3125,0.5625 -0.5625,0.5625 -0.109375,0 -0.140625,-0.078125 -0.140625,-0.1875 0,-0.109375 0.015625,-0.171875 0.0625,-0.265625 0.03125,-0.09375 0.078125,-0.1875 0.109375,-0.265625 0.015625,-0.046875 0.203125,-0.5 0.28125,-0.6875 0.03125,-0.09375 0.0625,-0.171875 0.0625,-0.25 0,-0.234375 -0.234375,-0.4375 -0.546875,-0.4375 -0.515625,0 -0.796875,0.640625 -0.796875,0.765625 0,0.078125 0.078125,0.078125 0.109375,0.078125 0.078125,0 0.078125,-0.03125 0.109375,-0.09375 0.109375,-0.359375 0.34375,-0.578125 0.5625,-0.578125 0.09375,0 0.15625,0.046875 0.15625,0.1875 0,0.015625 0,0.078125 -0.03125,0.171875 -0.03125,0.09375 -0.265625,0.625 -0.328125,0.796875 -0.046875,0.09375 -0.046875,0.09375 -0.109375,0.265625 -0.03125,0.078125 -0.0625,0.140625 -0.0625,0.21875 0,0.265625 0.25,0.453125 0.546875,0.453125 0.515625,0 0.796875,-0.65625 0.796875,-0.78125 z m 0,0"
             id="path41" />
        </g>
      </g>
    </g>
    <g
       inkscape:label=""
       transform="translate(23.310893,10.015581)"
       id="g46">
      <g
         fill="#000000"
         fill-opacity="1"
         id="g43"
         transform="matrix(0.352778,0,0,0.352778,-0.807817,-0.678259)">
        <g
           id="g42"
           transform="translate(1.993,6.2820001)">
          <path
             d="m 1.71875,-2.75 h 0.703125 c 0.140625,0 0.21875,0 0.21875,-0.15625 C 2.640625,-3 2.5625,-3 2.4375,-3 H 1.78125 l 0.25,-1.03125 C 2.046875,-4.0625 2.0625,-4.109375 2.0625,-4.125 c 0,-0.140625 -0.109375,-0.234375 -0.25,-0.234375 -0.171875,0 -0.265625,0.125 -0.328125,0.296875 C 1.4375,-3.875 1.53125,-4.21875 1.21875,-3 H 0.515625 c -0.125,0 -0.21875,0 -0.21875,0.15625 C 0.296875,-2.75 0.375,-2.75 0.5,-2.75 H 1.15625 L 0.75,-1.109375 C 0.703125,-0.9375 0.640625,-0.6875 0.640625,-0.59375 c 0,0.40625 0.359375,0.65625 0.75,0.65625 0.78125,0 1.21875,-0.96875 1.21875,-1.0625 0,-0.09375 -0.09375,-0.09375 -0.109375,-0.09375 -0.09375,0 -0.09375,0.015625 -0.15625,0.140625 -0.1875,0.4375 -0.546875,0.828125 -0.921875,0.828125 -0.15625,0 -0.25,-0.09375 -0.25,-0.34375 0,-0.0625 0.03125,-0.21875 0.046875,-0.28125 z m 0,0"
             id="path42" />
        </g>
      </g>
      <g
         fill="#000000"
         fill-opacity="1"
         id="g45"
         transform="matrix(0.352778,0,0,0.352778,-0.807817,-0.678259)">
        <g
           id="g44"
           transform="translate(5.0019999,7.2779999)">
          <path
             d="M 3.4375,-1.375 C 3.3125,-1.5 3.25,-1.578125 3.125,-1.6875 2.984375,-1.828125 2.5,-2.203125 1.828125,-2.203125 c -0.6875,0 -1.203125,0.515625 -1.203125,1.125 0,0.625 0.515625,1.140625 1.1875,1.140625 0.375,0 0.96875,-0.140625 1.53125,-0.84375 0.125,0.140625 0.1875,0.203125 0.3125,0.328125 0.140625,0.140625 0.625,0.515625 1.296875,0.515625 0.6875,0 1.203125,-0.515625 1.203125,-1.140625 0,-0.609375 -0.515625,-1.125 -1.1875,-1.125 C 4.59375,-2.203125 4,-2.0625 3.4375,-1.375 Z m 0.1875,0.203125 c 0.3125,-0.4375 0.828125,-0.8125 1.390625,-0.8125 0.53125,0 0.96875,0.40625 0.96875,0.90625 0,0.46875 -0.421875,0.8125 -0.9375,0.8125 -0.171875,0 -0.4375,-0.015625 -0.875,-0.375 -0.1875,-0.15625 -0.34375,-0.34375 -0.546875,-0.53125 z M 3.15625,-0.96875 c -0.3125,0.421875 -0.8125,0.796875 -1.390625,0.796875 -0.53125,0 -0.96875,-0.390625 -0.96875,-0.90625 0,-0.46875 0.421875,-0.8125 0.9375,-0.8125 0.171875,0 0.4375,0.015625 0.875,0.375 0.203125,0.171875 0.34375,0.34375 0.546875,0.546875 z m 0,0"
             id="path43" />
        </g>
      </g>
    </g>
    <g
       inkscape:label=""
       transform="translate(38.860675,8.7477858)"
       id="g50">
      <g
         fill="#000000"
         fill-opacity="1"
         id="g5"
         transform="matrix(0.352778,0,0,0.352778,-0.807817,-0.678259)">
        <g
           id="use4"
           transform="translate(1.993,6.2820001)">
          <path
             d="m 1.71875,-2.75 h 0.703125 c 0.140625,0 0.21875,0 0.21875,-0.15625 C 2.640625,-3 2.5625,-3 2.4375,-3 H 1.78125 l 0.25,-1.03125 C 2.046875,-4.0625 2.0625,-4.109375 2.0625,-4.125 c 0,-0.140625 -0.109375,-0.234375 -0.25,-0.234375 -0.171875,0 -0.265625,0.125 -0.328125,0.296875 C 1.4375,-3.875 1.53125,-4.21875 1.21875,-3 H 0.515625 c -0.125,0 -0.21875,0 -0.21875,0.15625 C 0.296875,-2.75 0.375,-2.75 0.5,-2.75 H 1.15625 L 0.75,-1.109375 C 0.703125,-0.9375 0.640625,-0.6875 0.640625,-0.59375 c 0,0.40625 0.359375,0.65625 0.75,0.65625 0.78125,0 1.21875,-0.96875 1.21875,-1.0625 0,-0.09375 -0.09375,-0.09375 -0.109375,-0.09375 -0.09375,0 -0.09375,0.015625 -0.15625,0.140625 -0.1875,0.4375 -0.546875,0.828125 -0.921875,0.828125 -0.15625,0 -0.25,-0.09375 -0.25,-0.34375 0,-0.0625 0.03125,-0.21875 0.046875,-0.28125 z m 0,0"
             id="path46" />
        </g>
      </g>
      <g
         fill="#000000"
         fill-opacity="1"
         id="g6"
         transform="matrix(0.352778,0,0,0.352778,-0.807817,-0.678259)">
        <g
           id="use5"
           transform="translate(5.0019999,7.2779999)">
          <path
             d="m 1.96875,-3.109375 c 0,-0.125 -0.078125,-0.21875 -0.21875,-0.21875 -0.140625,0 -0.296875,0.140625 -0.296875,0.296875 0,0.140625 0.109375,0.21875 0.21875,0.21875 0.15625,0 0.296875,-0.140625 0.296875,-0.296875 z m 0.234375,2.390625 c 0,-0.0625 -0.078125,-0.0625 -0.09375,-0.0625 -0.09375,0 -0.09375,0.015625 -0.125,0.109375 -0.078125,0.265625 -0.3125,0.5625 -0.5625,0.5625 -0.109375,0 -0.140625,-0.078125 -0.140625,-0.1875 0,-0.109375 0.015625,-0.171875 0.0625,-0.265625 0.03125,-0.09375 0.078125,-0.1875 0.109375,-0.265625 0.015625,-0.046875 0.203125,-0.5 0.28125,-0.6875 0.03125,-0.09375 0.0625,-0.171875 0.0625,-0.25 0,-0.234375 -0.234375,-0.4375 -0.546875,-0.4375 -0.515625,0 -0.796875,0.640625 -0.796875,0.765625 0,0.078125 0.078125,0.078125 0.109375,0.078125 0.078125,0 0.078125,-0.03125 0.109375,-0.09375 0.109375,-0.359375 0.34375,-0.578125 0.5625,-0.578125 0.09375,0 0.15625,0.046875 0.15625,0.1875 0,0.015625 0,0.078125 -0.03125,0.171875 -0.03125,0.09375 -0.265625,0.625 -0.328125,0.796875 -0.046875,0.09375 -0.046875,0.09375 -0.109375,0.265625 -0.03125,0.078125 -0.0625,0.140625 -0.0625,0.21875 0,0.265625 0.25,0.453125 0.546875,0.453125 0.515625,0 0.796875,-0.65625 0.796875,-0.78125 z m 0,0"
             id="path47" />
        </g>
      </g>
      <g
         fill="#000000"
         fill-opacity="1"
         id="g7"
         transform="matrix(0.352778,0,0,0.352778,-0.807817,-0.678259)">
        <g
           id="use6"
           transform="translate(10.426,6.2820001)">
          <path
             d="m 5.3125,-1.5625 c 0.078125,-0.046875 0.15625,-0.09375 0.15625,-0.171875 0,-0.125 -0.078125,-0.15625 -0.15625,-0.1875 L 1.0625,-3.96875 C 0.96875,-4.015625 0.9375,-4.015625 0.921875,-4.015625 0.828125,-4.015625 0.75,-3.9375 0.75,-3.84375 c 0,0.09375 0.09375,0.140625 0.15625,0.171875 l 4,1.921875 -4,1.921875 C 0.828125,0.21875 0.75,0.265625 0.75,0.359375 c 0,0.09375 0.078125,0.171875 0.171875,0.171875 0.015625,0 0.046875,0 0.125,-0.046875 z m 0,0"
             id="path48" />
        </g>
      </g>
      <g
         fill="#000000"
         fill-opacity="1"
         id="g8"
         transform="matrix(0.352778,0,0,0.352778,-0.807817,-0.678259)">
        <g
           id="use7"
           transform="translate(18.919392,6.2820001)">
          <path
             d="m 1.71875,-2.75 h 0.703125 c 0.140625,0 0.21875,0 0.21875,-0.15625 C 2.640625,-3 2.5625,-3 2.4375,-3 H 1.78125 l 0.25,-1.03125 C 2.046875,-4.0625 2.0625,-4.109375 2.0625,-4.125 c 0,-0.140625 -0.109375,-0.234375 -0.25,-0.234375 -0.171875,0 -0.265625,0.125 -0.328125,0.296875 C 1.4375,-3.875 1.53125,-4.21875 1.21875,-3 H 0.515625 c -0.125,0 -0.21875,0 -0.21875,0.15625 C 0.296875,-2.75 0.375,-2.75 0.5,-2.75 H 1.15625 L 0.75,-1.109375 C 0.703125,-0.9375 0.640625,-0.6875 0.640625,-0.59375 c 0,0.40625 0.359375,0.65625 0.75,0.65625 0.78125,0 1.21875,-0.96875 1.21875,-1.0625 0,-0.09375 -0.09375,-0.09375 -0.109375,-0.09375 -0.09375,0 -0.09375,0.015625 -0.15625,0.140625 -0.1875,0.4375 -0.546875,0.828125 -0.921875,0.828125 -0.15625,0 -0.25,-0.09375 -0.25,-0.34375 0,-0.0625 0.03125,-0.21875 0.046875,-0.28125 z m 0,0"
             id="path49" />
        </g>
      </g>
      <g
         fill="#000000"
         fill-opacity="1"
         id="g9"
         transform="matrix(0.352778,0,0,0.352778,-0.807817,-0.678259)">
        <g
           id="use8"
           transform="translate(21.93,7.2779999)">
          <path
             d="M 3.4375,-1.375 C 3.3125,-1.5 3.25,-1.578125 3.125,-1.6875 2.984375,-1.828125 2.5,-2.203125 1.828125,-2.203125 c -0.6875,0 -1.203125,0.515625 -1.203125,1.125 0,0.625 0.515625,1.140625 1.1875,1.140625 0.375,0 0.96875,-0.140625 1.53125,-0.84375 0.125,0.140625 0.1875,0.203125 0.3125,0.328125 0.140625,0.140625 0.625,0.515625 1.296875,0.515625 0.6875,0 1.203125,-0.515625 1.203125,-1.140625 0,-0.609375 -0.515625,-1.125 -1.1875,-1.125 C 4.59375,-2.203125 4,-2.0625 3.4375,-1.375 Z m 0.1875,0.203125 c 0.3125,-0.4375 0.828125,-0.8125 1.390625,-0.8125 0.53125,0 0.96875,0.40625 0.96875,0.90625 0,0.46875 -0.421875,0.8125 -0.9375,0.8125 -0.171875,0 -0.4375,-0.015625 -0.875,-0.375 -0.1875,-0.15625 -0.34375,-0.34375 -0.546875,-0.53125 z M 3.15625,-0.96875 c -0.3125,0.421875 -0.8125,0.796875 -1.390625,0.796875 -0.53125,0 -0.96875,-0.390625 -0.96875,-0.90625 0,-0.46875 0.421875,-0.8125 0.9375,-0.8125 0.171875,0 0.4375,0.015625 0.875,0.375 0.203125,0.171875 0.34375,0.34375 0.546875,0.546875 z m 0,0"
             id="path50" />
        </g>
      </g>
    </g>
    <path
       style="fill:none;stroke:#000000;stroke-width:0.21166666;stroke-linejoin:round;stroke-dasharray:0.42333332,0.21166666;stroke-dashoffset:0"
       d="m 23.8125,13.229168 v 5.291666"
       id="path51" />
    <circle
       style="fill:#000000;stroke:none;stroke-width:0.211667;stroke-linejoin:round;stroke-dasharray:none;stroke-dashoffset:0"
       id="path52"
       cx="23.8125"
       cy="18.520836"
       r="0.26613855" />
  </g>
</svg>
