<?xml version="1.0" encoding="UTF-8" standalone="no"?>
<!-- Created with Inkscape (http://www.inkscape.org/) -->

<svg
   width="185.00002"
   height="150.00002"
   viewBox="0 0 48.947919 39.687504"
   version="1.1"
   id="svg1"
   inkscape:version="1.3.2 (091e20ef0f, 2023-11-25)"
   sodipodi:docname="figura02_23.svg"
   xmlns:inkscape="http://www.inkscape.org/namespaces/inkscape"
   xmlns:sodipodi="http://sodipodi.sourceforge.net/DTD/sodipodi-0.dtd"
   xmlns="http://www.w3.org/2000/svg"
   xmlns:svg="http://www.w3.org/2000/svg">
  <sodipodi:namedview
     id="namedview1"
     pagecolor="#ffffff"
     bordercolor="#000000"
     borderopacity="0.25"
     inkscape:showpageshadow="false"
     inkscape:pageopacity="0.0"
     inkscape:pagecheckerboard="0"
     inkscape:deskcolor="#d1d1d1"
     inkscape:document-units="px"
     showborder="true"
     borderlayer="false"
     showgrid="true"
     inkscape:zoom="3.0003928"
     inkscape:cx="-4.6660557"
     inkscape:cy="106.6527"
     inkscape:window-width="1920"
     inkscape:window-height="1046"
     inkscape:window-x="1920"
     inkscape:window-y="18"
     inkscape:window-maximized="1"
     inkscape:current-layer="layer1">
    <inkscape:grid
       id="grid1"
       units="px"
       originx="-34.395834"
       originy="-34.395834"
       spacingx="1.3229167"
       spacingy="1.3229167"
       empcolor="#0099e5"
       empopacity="0.30196078"
       color="#0099e5"
       opacity="0.14901961"
       empspacing="4"
       dotted="false"
       gridanglex="30"
       gridanglez="30"
       visible="true" />
  </sodipodi:namedview>
  <defs
     id="defs1">
    <marker
       style="overflow:visible"
       id="marker107"
       refX="0"
       refY="0"
       orient="auto-start-reverse"
       inkscape:stockid="Wide arrow"
       markerWidth="1"
       markerHeight="1"
       viewBox="0 0 1 1"
       inkscape:isstock="true"
       inkscape:collect="always"
       preserveAspectRatio="xMidYMid">
      <path
         style="fill:none;stroke:context-stroke;stroke-width:1;stroke-linecap:butt"
         d="M 3,-3 0,0 3,3"
         transform="rotate(180,0.125,0)"
         sodipodi:nodetypes="ccc"
         id="path107" />
    </marker>
    <marker
       style="overflow:visible"
       id="marker105"
       refX="0"
       refY="0"
       orient="auto-start-reverse"
       inkscape:stockid="Wide arrow"
       markerWidth="1"
       markerHeight="1"
       viewBox="0 0 1 1"
       inkscape:isstock="true"
       inkscape:collect="always"
       preserveAspectRatio="xMidYMid">
      <path
         style="fill:none;stroke:context-stroke;stroke-width:1;stroke-linecap:butt"
         d="M 3,-3 0,0 3,3"
         transform="rotate(180,0.125,0)"
         sodipodi:nodetypes="ccc"
         id="path105" />
    </marker>
    <marker
       style="overflow:visible"
       id="ArrowWide"
       refX="0"
       refY="0"
       orient="auto-start-reverse"
       inkscape:stockid="Wide arrow"
       markerWidth="1"
       markerHeight="1"
       viewBox="0 0 1 1"
       inkscape:isstock="true"
       inkscape:collect="always"
       preserveAspectRatio="xMidYMid">
      <path
         style="fill:none;stroke:context-stroke;stroke-width:1;stroke-linecap:butt"
         d="M 3,-3 0,0 3,3"
         transform="rotate(180,0.125,0)"
         sodipodi:nodetypes="ccc"
         id="path100" />
    </marker>
    <marker
       style="overflow:visible"
       id="ArrowWide-7"
       refX="0"
       refY="0"
       orient="auto-start-reverse"
       inkscape:stockid="Wide arrow"
       markerWidth="1"
       markerHeight="1"
       viewBox="0 0 1 1"
       inkscape:isstock="true"
       inkscape:collect="always"
       preserveAspectRatio="xMidYMid">
      <path
         style="fill:none;stroke:context-stroke;stroke-width:1;stroke-linecap:butt"
         d="M 3,-3 0,0 3,3"
         transform="rotate(180,0.125,0)"
         sodipodi:nodetypes="ccc"
         id="path100-5" />
    </marker>
  </defs>
  <g
     inkscape:label="Capa 1"
     inkscape:groupmode="layer"
     id="layer1"
     transform="translate(-34.395798,-34.395798)">
    <path
       id="path8"
       style="fill:#ffd5d5;stroke:none;stroke-width:0.264583;stroke-linejoin:round;stroke-dasharray:none;stroke-dashoffset:0"
       d="M 68.791671,39.687503 H 52.91667 V 52.91667 H 39.687504 v 15.875 h 29.104167 z" />
    <path
       style="fill:none;stroke:#000000;stroke-width:0.264583;stroke-linejoin:round;stroke-dasharray:2.11667, 0.529167, 0.264583, 0.529167;stroke-dashoffset:0"
       d="m 39.6875,37.041668 3e-6,34.395835"
       id="path3"
       sodipodi:nodetypes="cc" />
    <path
       style="fill:none;stroke:#000000;stroke-width:0.264583;stroke-linejoin:round;stroke-dasharray:2.11667, 0.529167, 0.264583, 0.529167;stroke-dashoffset:0"
       d="M 37.041669,39.687502 H 71.437505"
       id="path4"
       sodipodi:nodetypes="cc" />
    <path
       style="fill:none;stroke:#000000;stroke-width:0.264583;stroke-linejoin:round;stroke-dasharray:none;stroke-dashoffset:0"
       d="M 39.6875,52.916669 H 52.916671 V 39.687502"
       id="path7" />
    <path
       style="fill:none;stroke:#000000;stroke-width:0.264583;stroke-linejoin:round;stroke-dasharray:none;stroke-dashoffset:0"
       d="M 39.687502,68.791671 H 68.791671 V 39.687502"
       id="path10" />
    <path
       style="fill:none;stroke:#000000;stroke-width:0.0529167;stroke-linejoin:round;stroke-dasharray:none;stroke-dashoffset:0"
       d="M 41.010419,52.91667 V 68.791672"
       id="path11" />
    <path
       style="fill:none;stroke:#000000;stroke-width:0.0529167;stroke-linejoin:round;stroke-dasharray:none;stroke-dashoffset:0"
       d="M 42.333336,52.91667 V 68.791672"
       id="path12" />
    <path
       style="fill:none;stroke:#000000;stroke-width:0.0529167;stroke-linejoin:round;stroke-dasharray:none;stroke-dashoffset:0"
       d="M 43.656253,52.91667 V 68.791672"
       id="path13" />
    <path
       style="fill:none;stroke:#000000;stroke-width:0.0529167;stroke-linejoin:round;stroke-dasharray:none;stroke-dashoffset:0"
       d="M 44.97917,52.91667 V 68.791672"
       id="path14" />
    <path
       style="fill:none;stroke:#000000;stroke-width:0.0529167;stroke-linejoin:round;stroke-dasharray:none;stroke-dashoffset:0"
       d="M 46.302087,52.91667 V 68.791672"
       id="path15" />
    <path
       style="fill:none;stroke:#000000;stroke-width:0.0529167;stroke-linejoin:round;stroke-dasharray:none;stroke-dashoffset:0"
       d="M 47.625004,52.91667 V 68.791672"
       id="path16" />
    <path
       style="fill:none;stroke:#000000;stroke-width:0.0529167;stroke-linejoin:round;stroke-dasharray:none;stroke-dashoffset:0"
       d="M 48.947921,52.91667 V 68.791672"
       id="path17" />
    <path
       style="fill:none;stroke:#000000;stroke-width:0.0529167;stroke-linejoin:round;stroke-dasharray:none;stroke-dashoffset:0"
       d="M 50.270838,52.91667 V 68.791672"
       id="path18" />
    <path
       style="fill:none;stroke:#000000;stroke-width:0.0529167;stroke-linejoin:round;stroke-dasharray:none;stroke-dashoffset:0"
       d="M 51.593753,52.91667 V 68.791672"
       id="path19" />
    <path
       style="fill:none;stroke:#000000;stroke-width:0.0529167;stroke-linejoin:round;stroke-dasharray:none;stroke-dashoffset:0"
       d="M 52.91667,52.91667 V 68.791672"
       id="path20" />
    <path
       style="fill:none;stroke:#000000;stroke-width:0.0529167;stroke-linejoin:round;stroke-dasharray:none;stroke-dashoffset:0"
       d="M 54.239587,39.687502 V 52.91667"
       id="path21"
       sodipodi:nodetypes="cc" />
    <path
       style="fill:none;stroke:#000000;stroke-width:0.0529167;stroke-linejoin:round;stroke-dasharray:none;stroke-dashoffset:0"
       d="M 55.562504,39.687502 V 54.239586"
       id="path22"
       sodipodi:nodetypes="cc" />
    <path
       style="fill:none;stroke:#000000;stroke-width:0.0529167;stroke-linejoin:round;stroke-dasharray:none;stroke-dashoffset:0"
       d="M 56.88542,39.687502 V 55.562503"
       id="path23"
       sodipodi:nodetypes="cc" />
    <path
       style="fill:none;stroke:#000000;stroke-width:0.0529167;stroke-linejoin:round;stroke-dasharray:none;stroke-dashoffset:0"
       d="M 58.208337,39.687502 V 56.88542"
       id="path24"
       sodipodi:nodetypes="cc" />
    <path
       style="fill:none;stroke:#000000;stroke-width:0.0529167;stroke-linejoin:round;stroke-dasharray:none;stroke-dashoffset:0"
       d="m 59.531254,39.687502 -10e-7,18.520834"
       id="path25"
       sodipodi:nodetypes="cc" />
    <path
       style="fill:none;stroke:#000000;stroke-width:0.0529167;stroke-linejoin:round;stroke-dasharray:none;stroke-dashoffset:0"
       d="M 60.854171,39.687502 V 59.531253"
       id="path26"
       sodipodi:nodetypes="cc" />
    <path
       style="fill:none;stroke:#000000;stroke-width:0.0529167;stroke-linejoin:round;stroke-dasharray:none;stroke-dashoffset:0"
       d="M 62.177087,39.687502 V 60.857918"
       id="path27"
       sodipodi:nodetypes="cc" />
    <path
       style="fill:none;stroke:#000000;stroke-width:0.0529167;stroke-linejoin:round;stroke-dasharray:none;stroke-dashoffset:0"
       d="M 63.500004,39.687502 V 62.179625"
       id="path28"
       sodipodi:nodetypes="cc" />
    <path
       style="fill:none;stroke:#000000;stroke-width:0.0529167;stroke-linejoin:round;stroke-dasharray:none;stroke-dashoffset:0"
       d="M 64.822921,39.687502 V 63.500004"
       id="path29"
       sodipodi:nodetypes="cc" />
    <path
       style="fill:none;stroke:#000000;stroke-width:0.0529167;stroke-linejoin:round;stroke-dasharray:none;stroke-dashoffset:0"
       d="M 66.145838,39.687502 V 64.82292"
       id="path30"
       sodipodi:nodetypes="cc" />
    <path
       style="fill:none;stroke:#000000;stroke-width:0.0529167;stroke-linejoin:round;stroke-dasharray:none;stroke-dashoffset:0"
       d="M 67.468754,39.687502 V 66.145837"
       id="path31"
       sodipodi:nodetypes="cc" />
    <path
       style="fill:none;stroke:#000000;stroke-width:0.0529167;stroke-linejoin:round;stroke-dasharray:none;stroke-dashoffset:0"
       d="M 52.91667,41.010419 H 68.791672"
       id="path32" />
    <path
       style="fill:none;stroke:#000000;stroke-width:0.0529167;stroke-linejoin:round;stroke-dasharray:none;stroke-dashoffset:0"
       d="M 52.91667,42.333337 H 68.791672"
       id="path33" />
    <path
       style="fill:none;stroke:#000000;stroke-width:0.0529167;stroke-linejoin:round;stroke-dasharray:none;stroke-dashoffset:0"
       d="M 52.91667,43.656254 H 68.791672"
       id="path34" />
    <path
       style="fill:none;stroke:#000000;stroke-width:0.0529167;stroke-linejoin:round;stroke-dasharray:none;stroke-dashoffset:0"
       d="M 52.91667,44.979171 H 68.791672"
       id="path35" />
    <path
       style="fill:none;stroke:#000000;stroke-width:0.0529167;stroke-linejoin:round;stroke-dasharray:none;stroke-dashoffset:0"
       d="M 52.91667,46.302087 H 68.791672"
       id="path36" />
    <path
       style="fill:none;stroke:#000000;stroke-width:0.0529167;stroke-linejoin:round;stroke-dasharray:none;stroke-dashoffset:0"
       d="M 52.91667,47.625005 H 68.791672"
       id="path37" />
    <path
       style="fill:none;stroke:#000000;stroke-width:0.0529167;stroke-linejoin:round;stroke-dasharray:none;stroke-dashoffset:0"
       d="M 52.91667,48.947922 H 68.791672"
       id="path38" />
    <path
       style="fill:none;stroke:#000000;stroke-width:0.0529167;stroke-linejoin:round;stroke-dasharray:none;stroke-dashoffset:0"
       d="M 52.91667,50.270839 H 68.791672"
       id="path39" />
    <path
       style="fill:none;stroke:#000000;stroke-width:0.0529167;stroke-linejoin:round;stroke-dasharray:none;stroke-dashoffset:0"
       d="M 52.91667,51.593753 H 68.791672"
       id="path40" />
    <path
       style="fill:none;stroke:#000000;stroke-width:0.0529167;stroke-linejoin:round;stroke-dasharray:none;stroke-dashoffset:0"
       d="M 52.91667,52.916671 H 68.791672"
       id="path41" />
    <path
       style="fill:none;stroke:#000000;stroke-width:0.0529167;stroke-linejoin:round;stroke-dasharray:none;stroke-dashoffset:0"
       d="M 39.687501,54.239587 H 52.91667"
       id="path42"
       sodipodi:nodetypes="cc" />
    <path
       style="fill:none;stroke:#000000;stroke-width:0.0529167;stroke-linejoin:round;stroke-dasharray:none;stroke-dashoffset:0"
       d="M 39.687501,55.562505 H 54.239587"
       id="path43"
       sodipodi:nodetypes="cc" />
    <path
       style="fill:none;stroke:#000000;stroke-width:0.0529167;stroke-linejoin:round;stroke-dasharray:none;stroke-dashoffset:0"
       d="M 39.687501,56.885421 H 55.562504"
       id="path44"
       sodipodi:nodetypes="cc" />
    <path
       style="fill:none;stroke:#000000;stroke-width:0.0529167;stroke-linejoin:round;stroke-dasharray:none;stroke-dashoffset:0"
       d="M 39.687501,58.208337 H 56.887413"
       id="path45"
       sodipodi:nodetypes="cc" />
    <path
       style="fill:none;stroke:#000000;stroke-width:0.0529167;stroke-linejoin:round;stroke-dasharray:none;stroke-dashoffset:0"
       d="M 39.687501,59.531255 H 58.208337"
       id="path46"
       sodipodi:nodetypes="cc" />
    <path
       style="fill:none;stroke:#000000;stroke-width:0.0529167;stroke-linejoin:round;stroke-dasharray:none;stroke-dashoffset:0"
       d="M 39.687501,60.854172 H 59.531254"
       id="path47"
       sodipodi:nodetypes="cc" />
    <path
       style="fill:none;stroke:#000000;stroke-width:0.0529167;stroke-linejoin:round;stroke-dasharray:none;stroke-dashoffset:0"
       d="m 39.687501,62.177087 h 21.16667"
       id="path48"
       sodipodi:nodetypes="cc" />
    <path
       style="fill:none;stroke:#000000;stroke-width:0.0529167;stroke-linejoin:round;stroke-dasharray:none;stroke-dashoffset:0"
       d="m 39.687501,63.500005 22.489587,-1e-6"
       id="path49"
       sodipodi:nodetypes="cc" />
    <path
       style="fill:none;stroke:#000000;stroke-width:0.0529167;stroke-linejoin:round;stroke-dasharray:none;stroke-dashoffset:0"
       d="M 39.687501,64.822922 H 63.500004"
       id="path50"
       sodipodi:nodetypes="cc" />
    <path
       style="fill:none;stroke:#000000;stroke-width:0.0529167;stroke-linejoin:round;stroke-dasharray:none;stroke-dashoffset:0"
       d="m 39.687501,66.145839 h 25.13542"
       id="path51"
       sodipodi:nodetypes="cc" />
    <path
       style="fill:none;stroke:#000000;stroke-width:0.0529167;stroke-linejoin:round;stroke-dasharray:none;stroke-dashoffset:0"
       d="M 39.687501,67.468755 H 66.145838"
       id="path52"
       sodipodi:nodetypes="cc" />
    <path
       style="fill:none;stroke:#000000;stroke-width:0.0529167;stroke-linejoin:round;stroke-dasharray:none"
       id="path1"
       sodipodi:type="arc"
       sodipodi:cx="52.916672"
       sodipodi:cy="52.916668"
       sodipodi:rx="1.3229167"
       sodipodi:ry="1.3229167"
       sodipodi:start="0"
       sodipodi:end="1.5707963"
       sodipodi:arc-type="arc"
       d="m 54.239588,52.916668 a 1.3229167,1.3229167 0 0 1 -1.322916,1.322917"
       sodipodi:open="true" />
    <path
       style="fill:none;stroke:#000000;stroke-width:0.0529167;stroke-linejoin:round;stroke-dasharray:none"
       id="path59"
       sodipodi:type="arc"
       sodipodi:cx="54.239586"
       sodipodi:cy="54.239586"
       sodipodi:rx="1.3229167"
       sodipodi:ry="1.3229167"
       sodipodi:start="0"
       sodipodi:end="1.5707963"
       sodipodi:arc-type="arc"
       d="m 55.562503,54.239586 a 1.3229167,1.3229167 0 0 1 -1.322917,1.322917"
       sodipodi:open="true" />
    <path
       style="fill:none;stroke:#000000;stroke-width:0.0529167;stroke-linejoin:round;stroke-dasharray:none"
       id="path60"
       sodipodi:type="arc"
       sodipodi:cx="55.562504"
       sodipodi:cy="55.562504"
       sodipodi:rx="1.3229167"
       sodipodi:ry="1.3229167"
       sodipodi:start="0"
       sodipodi:end="1.5707963"
       sodipodi:arc-type="arc"
       d="m 56.885421,55.562504 a 1.3229167,1.3229167 0 0 1 -1.322917,1.322917"
       sodipodi:open="true" />
    <path
       style="fill:none;stroke:#000000;stroke-width:0.0529167;stroke-linejoin:round;stroke-dasharray:none"
       id="path61"
       sodipodi:type="arc"
       sodipodi:cx="56.885422"
       sodipodi:cy="56.885422"
       sodipodi:rx="1.3229167"
       sodipodi:ry="1.3229167"
       sodipodi:start="0"
       sodipodi:end="1.5707963"
       sodipodi:arc-type="arc"
       d="m 58.208338,56.885422 a 1.3229167,1.3229167 0 0 1 -1.322916,1.322916"
       sodipodi:open="true" />
    <path
       style="fill:none;stroke:#000000;stroke-width:0.0529167;stroke-linejoin:round;stroke-dasharray:none"
       id="path62"
       sodipodi:type="arc"
       sodipodi:cx="58.208336"
       sodipodi:cy="58.208336"
       sodipodi:rx="1.3229167"
       sodipodi:ry="1.3229167"
       sodipodi:start="0"
       sodipodi:end="1.5707963"
       sodipodi:arc-type="arc"
       d="m 59.531253,58.208336 a 1.3229167,1.3229167 0 0 1 -1.322917,1.322917"
       sodipodi:open="true" />
    <path
       style="fill:none;stroke:#000000;stroke-width:0.0529167;stroke-linejoin:round;stroke-dasharray:none"
       id="path63"
       sodipodi:type="arc"
       sodipodi:cx="59.531254"
       sodipodi:cy="59.531254"
       sodipodi:rx="1.3229167"
       sodipodi:ry="1.3229167"
       sodipodi:start="0"
       sodipodi:end="1.5707963"
       sodipodi:arc-type="arc"
       d="m 60.854171,59.531254 a 1.3229167,1.3229167 0 0 1 -1.322917,1.322917"
       sodipodi:open="true" />
    <path
       style="fill:none;stroke:#000000;stroke-width:0.0529167;stroke-linejoin:round;stroke-dasharray:none"
       id="path64"
       sodipodi:type="arc"
       sodipodi:cx="60.854176"
       sodipodi:cy="60.854168"
       sodipodi:rx="1.3229167"
       sodipodi:ry="1.3229167"
       sodipodi:start="0"
       sodipodi:end="1.5707963"
       sodipodi:arc-type="arc"
       d="m 62.177092,60.854168 a 1.3229167,1.3229167 0 0 1 -1.322916,1.322917"
       sodipodi:open="true" />
    <path
       style="fill:none;stroke:#000000;stroke-width:0.0529167;stroke-linejoin:round;stroke-dasharray:none"
       id="path65"
       sodipodi:type="arc"
       sodipodi:cx="62.17709"
       sodipodi:cy="62.177086"
       sodipodi:rx="1.3229167"
       sodipodi:ry="1.3229167"
       sodipodi:start="0"
       sodipodi:end="1.5707963"
       sodipodi:arc-type="arc"
       d="M 63.500006,62.177086 A 1.3229167,1.3229167 0 0 1 62.17709,63.500003"
       sodipodi:open="true" />
    <path
       style="fill:none;stroke:#000000;stroke-width:0.0529167;stroke-linejoin:round;stroke-dasharray:none"
       id="path66"
       sodipodi:type="arc"
       sodipodi:cx="63.500004"
       sodipodi:cy="63.500004"
       sodipodi:rx="1.3229167"
       sodipodi:ry="1.3229167"
       sodipodi:start="0"
       sodipodi:end="1.5707963"
       sodipodi:arc-type="arc"
       d="m 64.822921,63.500004 a 1.3229167,1.3229167 0 0 1 -1.322917,1.322917"
       sodipodi:open="true" />
    <path
       style="fill:none;stroke:#000000;stroke-width:0.0529167;stroke-linejoin:round;stroke-dasharray:none"
       id="path67"
       sodipodi:type="arc"
       sodipodi:cx="64.822922"
       sodipodi:cy="64.822922"
       sodipodi:rx="1.3229167"
       sodipodi:ry="1.3229167"
       sodipodi:start="0"
       sodipodi:end="1.5707963"
       sodipodi:arc-type="arc"
       d="m 66.145838,64.822922 a 1.3229167,1.3229167 0 0 1 -1.322916,1.322916"
       sodipodi:open="true" />
    <path
       style="fill:none;stroke:#000000;stroke-width:0.0529167;stroke-linejoin:round;stroke-dasharray:none"
       id="path68"
       sodipodi:type="arc"
       sodipodi:cx="66.145836"
       sodipodi:cy="66.145836"
       sodipodi:rx="1.3229167"
       sodipodi:ry="1.3229167"
       sodipodi:start="0"
       sodipodi:end="1.5707963"
       sodipodi:arc-type="arc"
       d="m 67.468753,66.145836 a 1.3229167,1.3229167 0 0 1 -1.322917,1.322917"
       sodipodi:open="true" />
    <path
       style="fill:none;stroke:#000000;stroke-width:0.0529167;stroke-linejoin:round;stroke-dasharray:none"
       id="path69"
       sodipodi:type="arc"
       sodipodi:cx="67.442299"
       sodipodi:cy="67.442291"
       sodipodi:rx="1.3229167"
       sodipodi:ry="1.3229167"
       sodipodi:start="0"
       sodipodi:end="1.5707963"
       sodipodi:arc-type="arc"
       d="m 68.765216,67.442291 a 1.3229167,1.3229167 0 0 1 -1.322917,1.322917"
       sodipodi:open="true" />
    <path
       style="fill:none;stroke:#000000;stroke-width:0.0529167;stroke-linejoin:round;stroke-dasharray:none;stroke-dashoffset:0"
       d="M 52.91667,52.91667 67.468755,68.791672"
       id="path70"
       sodipodi:nodetypes="cc" />
    <path
       style="fill:none;stroke:#000000;stroke-width:0.0529167;stroke-linejoin:round;stroke-dasharray:none;stroke-dashoffset:0"
       d="M 52.91667,52.91667 68.791671,68.791672"
       id="path71"
       sodipodi:nodetypes="cc" />
    <path
       style="fill:none;stroke:#000000;stroke-width:0.0529167;stroke-linejoin:round;stroke-dasharray:none;stroke-dashoffset:0"
       d="M 52.91667,52.91667 68.791671,67.468754"
       id="path72"
       sodipodi:nodetypes="cc" />
    <path
       style="fill:none;stroke:#000000;stroke-width:0.0529167;stroke-linejoin:round;stroke-dasharray:none;stroke-dashoffset:0"
       d="M 52.91667,52.91667 68.791671,66.145837"
       id="path73"
       sodipodi:nodetypes="cc" />
    <path
       style="fill:none;stroke:#000000;stroke-width:0.0529167;stroke-linejoin:round;stroke-dasharray:none;stroke-dashoffset:0"
       d="M 52.91667,52.91667 68.791671,64.82292"
       id="path74"
       sodipodi:nodetypes="cc" />
    <path
       style="fill:none;stroke:#000000;stroke-width:0.0529167;stroke-linejoin:round;stroke-dasharray:none;stroke-dashoffset:0"
       d="M 52.91667,52.91667 68.791671,63.500004"
       id="path75"
       sodipodi:nodetypes="cc" />
    <path
       style="fill:none;stroke:#000000;stroke-width:0.0529167;stroke-linejoin:round;stroke-dasharray:none;stroke-dashoffset:0"
       d="m 52.91667,52.91667 15.875001,9.260417"
       id="path76"
       sodipodi:nodetypes="cc" />
    <path
       style="fill:none;stroke:#000000;stroke-width:0.0529167;stroke-linejoin:round;stroke-dasharray:none;stroke-dashoffset:0"
       d="m 52.91667,52.91667 15.875001,7.9375"
       id="path77"
       sodipodi:nodetypes="cc" />
    <path
       style="fill:none;stroke:#000000;stroke-width:0.0529167;stroke-linejoin:round;stroke-dasharray:none;stroke-dashoffset:0"
       d="m 52.91667,52.91667 15.875001,6.614583"
       id="path78"
       sodipodi:nodetypes="cc" />
    <path
       style="fill:none;stroke:#000000;stroke-width:0.0529167;stroke-linejoin:round;stroke-dasharray:none;stroke-dashoffset:0"
       d="m 52.91667,52.91667 15.875001,5.291667"
       id="path79"
       sodipodi:nodetypes="cc" />
    <path
       style="fill:none;stroke:#000000;stroke-width:0.0529167;stroke-linejoin:round;stroke-dasharray:none;stroke-dashoffset:0"
       d="m 52.91667,52.91667 15.875001,3.982218"
       id="path80"
       sodipodi:nodetypes="cc" />
    <path
       style="fill:none;stroke:#000000;stroke-width:0.0529167;stroke-linejoin:round;stroke-dasharray:none;stroke-dashoffset:0"
       d="m 52.91667,52.91667 15.875001,2.645833"
       id="path81"
       sodipodi:nodetypes="cc" />
    <path
       style="fill:none;stroke:#000000;stroke-width:0.0529167;stroke-linejoin:round;stroke-dasharray:none;stroke-dashoffset:0"
       d="m 52.91667,52.91667 15.875001,1.322916"
       id="path82"
       sodipodi:nodetypes="cc" />
    <path
       style="fill:none;stroke:#000000;stroke-width:0.0529167;stroke-linejoin:round;stroke-dasharray:none;stroke-dashoffset:0"
       d="M 52.91667,52.91667 66.145838,68.791672"
       id="path83"
       sodipodi:nodetypes="cc" />
    <path
       style="fill:none;stroke:#000000;stroke-width:0.0529167;stroke-linejoin:round;stroke-dasharray:none;stroke-dashoffset:0"
       d="M 52.91667,52.91667 64.822921,68.791672"
       id="path84"
       sodipodi:nodetypes="cc" />
    <path
       style="fill:none;stroke:#000000;stroke-width:0.0529167;stroke-linejoin:round;stroke-dasharray:none;stroke-dashoffset:0"
       d="M 52.91667,52.91667 63.500004,68.791672"
       id="path85"
       sodipodi:nodetypes="cc" />
    <path
       style="fill:none;stroke:#000000;stroke-width:0.0529167;stroke-linejoin:round;stroke-dasharray:none;stroke-dashoffset:0"
       d="m 52.91667,52.91667 9.260418,15.875002"
       id="path86"
       sodipodi:nodetypes="cc" />
    <path
       style="fill:none;stroke:#000000;stroke-width:0.0529167;stroke-linejoin:round;stroke-dasharray:none;stroke-dashoffset:0"
       d="m 52.91667,52.91667 7.937501,15.875002"
       id="path87"
       sodipodi:nodetypes="cc" />
    <path
       style="fill:none;stroke:#000000;stroke-width:0.0529167;stroke-linejoin:round;stroke-dasharray:none;stroke-dashoffset:0"
       d="m 52.91667,52.91667 6.614584,15.875002"
       id="path88"
       sodipodi:nodetypes="cc" />
    <path
       style="fill:none;stroke:#000000;stroke-width:0.0529167;stroke-linejoin:round;stroke-dasharray:none;stroke-dashoffset:0"
       d="m 52.91667,52.91667 5.291667,15.875002"
       id="path89"
       sodipodi:nodetypes="cc" />
    <path
       style="fill:none;stroke:#000000;stroke-width:0.0529167;stroke-linejoin:round;stroke-dasharray:none;stroke-dashoffset:0"
       d="m 52.91667,52.91667 3.96875,15.875002"
       id="path90"
       sodipodi:nodetypes="cc" />
    <path
       style="fill:none;stroke:#000000;stroke-width:0.0529167;stroke-linejoin:round;stroke-dasharray:none;stroke-dashoffset:0"
       d="m 52.91667,52.91667 2.645834,15.875002"
       id="path91"
       sodipodi:nodetypes="cc" />
    <path
       style="fill:none;stroke:#000000;stroke-width:0.0529167;stroke-linejoin:round;stroke-dasharray:none;stroke-dashoffset:0"
       d="m 52.91667,52.91667 1.322917,15.875002"
       id="path92"
       sodipodi:nodetypes="cc" />
    <text
       xml:space="preserve"
       style="font-size:1.41111px;font-family:Futura;-inkscape-font-specification:'Futura, Normal';fill:#000000;stroke:none;stroke-width:0.0529167;stroke-linejoin:round;stroke-dasharray:none"
       x="71.40078"
       y="63.47739"
       id="text92"><tspan
         sodipodi:role="line"
         id="tspan92"
         style="fill:#000000;stroke:none;stroke-width:0.0529167"
         x="71.40078"
         y="63.47739">camino de calor</tspan></text>
    <text
       xml:space="preserve"
       style="font-size:1.41111px;font-family:Futura;-inkscape-font-specification:'Futura, Normal';fill:#000000;stroke:none;stroke-width:0.0529167;stroke-linejoin:round;stroke-dasharray:none"
       x="54.743237"
       y="36.527489"
       id="text93"><tspan
         sodipodi:role="line"
         id="tspan93"
         style="stroke-width:0.0529167"
         x="54.743237"
         y="36.527489">isotermas</tspan></text>
    <text
       xml:space="preserve"
       style="font-size:1.41111px;font-family:Futura;-inkscape-font-specification:'Futura, Normal';fill:#000000;stroke:none;stroke-width:0.0529167;stroke-linejoin:round;stroke-dasharray:none"
       x="41.301083"
       y="72.662308"
       id="text94"><tspan
         sodipodi:role="line"
         id="tspan94"
         style="stroke-width:0.0529167"
         x="41.301083"
         y="72.662308">cuadrados curvilineos</tspan></text>
    <g
       inkscape:label=""
       transform="translate(49.926841,50.08537)"
       id="g94">
      <g
         fill="#000000"
         fill-opacity="1"
         id="g3"
         transform="matrix(0.352778,0,0,0.352778,-0.818841,-0.682845)">
        <g
           id="use2"
           transform="translate(1.993,5.6700001)">
          <path
             d="m 1.609375,-2.34375 h 0.65625 c 0.109375,0 0.203125,0 0.203125,-0.140625 0,-0.09375 -0.078125,-0.09375 -0.1875,-0.09375 H 1.671875 L 1.875,-3.40625 c 0.03125,-0.09375 0.03125,-0.125 0.03125,-0.125 0,-0.15625 -0.109375,-0.203125 -0.21875,-0.203125 -0.0625,0 -0.21875,0.03125 -0.28125,0.234375 L 1.171875,-2.578125 H 0.53125 c -0.125,0 -0.125,0 -0.15625,0.015625 -0.03125,0.03125 -0.046875,0.109375 -0.046875,0.140625 0.015625,0.078125 0.0625,0.078125 0.1875,0.078125 H 1.125 l -0.359375,1.421875 c -0.03125,0.125 -0.078125,0.328125 -0.078125,0.40625 0,0.34375 0.3125,0.578125 0.671875,0.578125 0.6875,0 1.09375,-0.828125 1.09375,-0.921875 0,-0.015625 -0.015625,-0.09375 -0.109375,-0.09375 -0.078125,0 -0.09375,0.03125 -0.125,0.109375 -0.203125,0.453125 -0.546875,0.703125 -0.84375,0.703125 -0.21875,0 -0.21875,-0.21875 -0.21875,-0.296875 0,-0.078125 0,-0.09375 0.03125,-0.203125 z m 0,0"
             id="path94" />
        </g>
      </g>
      <g
         fill="#000000"
         fill-opacity="1"
         id="g4"
         transform="matrix(0.352778,0,0,0.352778,-0.818841,-0.682845)">
        <g
           id="use3"
           transform="translate(4.8429999,6.9299998)">
          <path
             d="m 1.96875,-3.109375 c 0,-0.125 -0.078125,-0.21875 -0.21875,-0.21875 -0.140625,0 -0.296875,0.140625 -0.296875,0.296875 0,0.140625 0.109375,0.21875 0.21875,0.21875 0.15625,0 0.296875,-0.140625 0.296875,-0.296875 z m 0.234375,2.390625 c 0,-0.0625 -0.078125,-0.0625 -0.09375,-0.0625 -0.09375,0 -0.09375,0.015625 -0.125,0.109375 -0.078125,0.265625 -0.3125,0.5625 -0.5625,0.5625 -0.109375,0 -0.140625,-0.078125 -0.140625,-0.1875 0,-0.109375 0.015625,-0.171875 0.0625,-0.265625 0.03125,-0.09375 0.078125,-0.1875 0.109375,-0.265625 0.015625,-0.046875 0.203125,-0.5 0.28125,-0.6875 0.03125,-0.09375 0.0625,-0.171875 0.0625,-0.25 0,-0.234375 -0.234375,-0.4375 -0.546875,-0.4375 -0.515625,0 -0.796875,0.640625 -0.796875,0.765625 0,0.078125 0.078125,0.078125 0.109375,0.078125 0.078125,0 0.078125,-0.03125 0.109375,-0.09375 0.109375,-0.359375 0.34375,-0.578125 0.5625,-0.578125 0.09375,0 0.15625,0.046875 0.15625,0.1875 0,0.015625 0,0.078125 -0.03125,0.171875 -0.03125,0.09375 -0.265625,0.625 -0.328125,0.796875 -0.046875,0.09375 -0.046875,0.09375 -0.109375,0.265625 -0.03125,0.078125 -0.0625,0.140625 -0.0625,0.21875 0,0.265625 0.25,0.453125 0.546875,0.453125 0.515625,0 0.796875,-0.65625 0.796875,-0.78125 z m 0,0"
             id="path5" />
        </g>
      </g>
    </g>
    <g
       inkscape:label=""
       transform="translate(69.704446,68.633192)"
       id="g99">
      <g
         fill="#000000"
         fill-opacity="1"
         id="g96"
         transform="matrix(0.352778,0,0,0.352778,-0.818841,-0.682493)">
        <g
           id="g95"
           transform="translate(1.993,5.6690001)">
          <path
             d="m 1.609375,-2.34375 h 0.65625 c 0.109375,0 0.203125,0 0.203125,-0.140625 0,-0.09375 -0.078125,-0.09375 -0.1875,-0.09375 H 1.671875 L 1.875,-3.40625 c 0.03125,-0.09375 0.03125,-0.125 0.03125,-0.125 0,-0.15625 -0.109375,-0.203125 -0.21875,-0.203125 -0.0625,0 -0.21875,0.03125 -0.28125,0.234375 L 1.171875,-2.578125 H 0.53125 c -0.125,0 -0.125,0 -0.15625,0.015625 -0.03125,0.03125 -0.046875,0.109375 -0.046875,0.140625 0.015625,0.078125 0.0625,0.078125 0.1875,0.078125 H 1.125 l -0.359375,1.421875 c -0.03125,0.125 -0.078125,0.328125 -0.078125,0.40625 0,0.34375 0.3125,0.578125 0.671875,0.578125 0.6875,0 1.09375,-0.828125 1.09375,-0.921875 0,-0.015625 -0.015625,-0.09375 -0.109375,-0.09375 -0.078125,0 -0.09375,0.03125 -0.125,0.109375 -0.203125,0.453125 -0.546875,0.703125 -0.84375,0.703125 -0.21875,0 -0.21875,-0.21875 -0.21875,-0.296875 0,-0.078125 0,-0.09375 0.03125,-0.203125 z m 0,0"
             id="path95" />
        </g>
      </g>
      <g
         fill="#000000"
         fill-opacity="1"
         id="g98"
         transform="matrix(0.352778,0,0,0.352778,-0.818841,-0.682493)">
        <g
           id="g97"
           transform="translate(4.8429999,6.665)">
          <path
             d="m 3.15625,-1.296875 c 0,-0.5 -0.421875,-0.90625 -1.046875,-0.90625 -0.84375,0 -1.578125,0.671875 -1.578125,1.34375 0,0.515625 0.40625,0.921875 1.046875,0.921875 0.828125,0 1.578125,-0.6875 1.578125,-1.359375 z m -1.578125,1.1875 c -0.234375,0 -0.59375,-0.125 -0.59375,-0.59375 0,-0.140625 0.0625,-0.625 0.34375,-0.96875 0.1875,-0.21875 0.484375,-0.359375 0.765625,-0.359375 0.28125,0 0.59375,0.140625 0.59375,0.578125 0,0.140625 -0.0625,0.609375 -0.296875,0.921875 -0.234375,0.296875 -0.5625,0.421875 -0.8125,0.421875 z m 0,0"
             id="path96" />
        </g>
      </g>
    </g>
    <path
       style="fill:none;stroke:#0000ff;stroke-width:0.10583333;stroke-linejoin:round;stroke-dasharray:none;marker-end:url(#ArrowWide)"
       d="m 54.239551,71.019303 1.723248,-2.878664"
       id="path99"
       sodipodi:nodetypes="cc" />
    <path
       style="fill:none;stroke:#0000ff;stroke-width:0.10583333;stroke-linejoin:round;stroke-dasharray:none;marker-end:url(#ArrowWide)"
       d="m 54.239551,71.019303 3.055572,-2.878664"
       id="path101"
       sodipodi:nodetypes="cc" />
    <path
       style="fill:none;stroke:#0000ff;stroke-width:0.10583333;stroke-linejoin:round;stroke-dasharray:none;marker-end:url(#ArrowWide)"
       d="m 54.239551,71.019303 4.387896,-2.878664"
       id="path102"
       sodipodi:nodetypes="cc" />
    <path
       style="fill:none;stroke:#0000ff;stroke-width:0.10583333;stroke-linejoin:round;stroke-dasharray:none;marker-end:url(#ArrowWide-7)"
       d="m 55.562466,37.041631 -1.322879,2.645872"
       id="path102-5"
       sodipodi:nodetypes="cc" />
    <path
       style="fill:none;stroke:#0000ff;stroke-width:0.10583333;stroke-linejoin:round;stroke-dasharray:none;marker-end:url(#marker107)"
       d="m 70.887014,62.678874 -2.095379,-1.82474"
       id="path103"
       sodipodi:nodetypes="cc" />
    <path
       style="fill:none;stroke:#0000ff;stroke-width:0.10583333;stroke-linejoin:round;stroke-dasharray:none;marker-end:url(#marker105)"
       d="M 70.887014,62.678874 68.791636,59.531217"
       id="path104" />
    <path
       style="fill:none;stroke:#0000ff;stroke-width:0.10583333;stroke-linejoin:round;stroke-dasharray:none;marker-end:url(#marker107)"
       d="M 70.887014,62.678874 68.791635,62.177066"
       id="path108"
       sodipodi:nodetypes="cc" />
    <path
       style="fill:none;stroke:#0000ff;stroke-width:0.10583333;stroke-linejoin:round;stroke-dasharray:none;marker-end:url(#ArrowWide-7)"
       d="m 55.562466,37.041631 0,2.645833"
       id="path109"
       sodipodi:nodetypes="cc" />
    <path
       style="fill:none;stroke:#0000ff;stroke-width:0.10583333;stroke-linejoin:round;stroke-dasharray:none;marker-end:url(#ArrowWide-7)"
       d="m 55.562466,37.041631 1.322917,2.645833"
       id="path110"
       sodipodi:nodetypes="cc" />
  </g>
</svg>
