999
dxfrw 0.6.3
  0
SECTION
  2
HEADER
  9
$ACADVER
  1
AC1021
  9
$DWGCODEPAGE
  3
ANSI_1252
  9
$INSBASE
 10
0
 20
0
 30
0
  9
$EXTMIN
 10
-17.84925134594813
 20
-62.125
 30
0
  9
$EXTMAX
 10
105.2
 20
22.55059676434655
 30
0
  9
$LIMMIN
 10
0
 20
0
  9
$LIMMAX
 10
420
 20
297
  9
$ORTHOMODE
 70
    0
  9
$REGENMODE
 70
    1
  9
$FILLMODE
 70
    1
  9
$QTEXTMODE
 70
    0
  9
$MIRRTEXT
 70
    0
  9
$LTSCALE
 40
1
  9
$ATTMODE
 70
    0
  9
$TEXTSIZE
 40
2.5
  9
$TRACEWID
 40
15.68
  9
$TEXTSTYLE
  7
STANDARD
  9
$CLAYER
  8
figura
  9
$CELTYPE
  6
BYLAYER
  9
$CECOLOR
 62
  256
  9
$CELTSCALE
 40
1
  9
$DISPSILH
 70
    0
  9
$DIMSCALE
 40
2.5
  9
$DIMASZ
 40
1.5
  9
$DIMEXO
 40
0.625
  9
$DIMDLI
 40
3.75
  9
$DIMRND
 40
0
  9
$DIMDLE
 40
0
  9
$DIMEXE
 40
1.25
  9
$DIMTP
 40
0
  9
$DIMTM
 40
0
  9
$DIMTXT
 40
1.5
  9
$DIMCEN
 40
2.5
  9
$DIMTSZ
 40
0
  9
$DIMTOL
 70
    0
  9
$DIMLIM
 70
    0
  9
$DIMTIH
 70
    0
  9
$DIMTOH
 70
    0
  9
$DIMSE1
 70
    0
  9
$DIMSE2
 70
    0
  9
$DIMTAD
 70
    1
  9
$DIMZIN
 70
    1
  9
$DIMBLK
  1

  9
$DIMASO
 70
    1
  9
$DIMSHO
 70
    1
  9
$DIMPOST
  1

  9
$DIMAPOST
  1

  9
$DIMALT
 70
    0
  9
$DIMALTD
 70
    3
  9
$DIMALTF
 40
0.03937
  9
$DIMLFAC
 40
1
  9
$DIMTOFL
 70
    1
  9
$DIMTVP
 40
0
  9
$DIMTIX
 70
    0
  9
$DIMSOXD
 70
    0
  9
$DIMSAH
 70
    0
  9
$DIMBLK1
  1

  9
$DIMBLK2
  1

  9
$DIMSTYLE
  2
STANDARD
  9
$DIMCLRD
 70
    0
  9
$DIMCLRE
 70
    0
  9
$DIMCLRT
 70
    0
  9
$DIMTFAC
 40
1
  9
$DIMGAP
 40
0.625
  9
$DIMJUST
 70
    0
  9
$DIMSD1
 70
    0
  9
$DIMSD2
 70
    0
  9
$DIMTOLJ
 70
    0
  9
$DIMTZIN
 70
    8
  9
$DIMALTZ
 70
    0
  9
$DIMALTTZ
 70
    0
  9
$DIMUPT
 70
    0
  9
$DIMDEC
 70
    4
  9
$DIMTDEC
 70
    2
  9
$DIMALTU
 70
    2
  9
$DIMALTTD
 70
    3
  9
$DIMTXSTY
  7
standard
  9
$DIMAUNIT
 70
    0
  9
$DIMADEC
 70
    2
  9
$DIMALTRND
 40
0
  9
$DIMAZIN
 70
    0
  9
$DIMDSEP
 70
    0
  9
$DIMATFIT
 70
    3
  9
$DIMFRAC
 70
    0
  9
$DIMLDRBLK
  1
STANDARD
  9
$DIMLUNIT
 70
    2
  9
$DIMLWD
 70
   -2
  9
$DIMLWE
 70
   -2
  9
$DIMTMOVE
 70
    0
  9
$DIMFXL
 40
1
  9
$DIMFXLON
 70
    0
  9
$DIMJOGANG
 40
0.7854
  9
$DIMTFILL
 70
    0
  9
$DIMTFILLCLR
 70
    0
  9
$DIMARCSYM
 70
    0
  9
$DIMLTYPE
  6

  9
$DIMLTEX1
  6

  9
$DIMLTEX2
  6

  9
$LUNITS
 70
    2
  9
$LUPREC
 70
    3
  9
$SKETCHINC
 40
1
  9
$FILLETRAD
 40
0
  9
$AUNITS
 70
    0
  9
$AUPREC
 70
    2
  9
$MENU
  1
.
  9
$ELEVATION
 40
0
  9
$PELEVATION
 40
0
  9
$THICKNESS
 40
0
  9
$LIMCHECK
 70
    0
  9
$CHAMFERA
 40
0
  9
$CHAMFERB
 40
0
  9
$CHAMFERC
 40
0
  9
$CHAMFERD
 40
0
  9
$SKPOLY
 70
    0
  9
$USRTIMER
 70
    1
  9
$ANGBASE
 50
0
  9
$ANGDIR
 70
    0
  9
$PDMODE
 70
   34
  9
$PDSIZE
 40
0
  9
$PLINEWID
 40
0
  9
$SPLFRAME
 70
    0
  9
$SPLINETYPE
 70
    2
  9
$SPLINESEGS
 70
    8
  9
$HANDSEED
  5
20000
  9
$SURFTAB1
 70
    6
  9
$SURFTAB2
 70
    6
  9
$SURFTYPE
 70
    6
  9
$SURFU
 70
    6
  9
$SURFV
 70
    6
  9
$UCSBASE
  2

  9
$UCSNAME
  2

  9
$UCSORG
 10
0
 20
0
 30
0
  9
$UCSXDIR
 10
1
 20
0
 30
0
  9
$UCSYDIR
 10
0
 20
1
 30
0
  9
$UCSORTHOREF
  2

  9
$UCSORTHOVIEW
 70
    0
  9
$UCSORGTOP
 10
0
 20
0
 30
0
  9
$UCSORGBOTTOM
 10
0
 20
0
 30
0
  9
$UCSORGLEFT
 10
0
 20
0
 30
0
  9
$UCSORGRIGHT
 10
0
 20
0
 30
0
  9
$UCSORGFRONT
 10
0
 20
0
 30
0
  9
$UCSORGBACK
 10
0
 20
0
 30
0
  9
$PUCSBASE
  2

  9
$PUCSNAME
  2

  9
$PUCSORG
 10
0
 20
0
 30
0
  9
$PUCSXDIR
 10
1
 20
0
 30
0
  9
$PUCSYDIR
 10
0
 20
1
 30
0
  9
$PUCSORTHOREF
  2

  9
$PUCSORTHOVIEW
 70
    0
  9
$PUCSORGTOP
 10
0
 20
0
 30
0
  9
$PUCSORGBOTTOM
 10
0
 20
0
 30
0
  9
$PUCSORGLEFT
 10
0
 20
0
 30
0
  9
$PUCSORGRIGHT
 10
0
 20
0
 30
0
  9
$PUCSORGFRONT
 10
0
 20
0
 30
0
  9
$PUCSORGBACK
 10
0
 20
0
 30
0
  9
$USERI1
 70
    0
  9
$USERI2
 70
    0
  9
$USERI3
 70
    0
  9
$USERI4
 70
    0
  9
$USERI5
 70
    0
  9
$USERR1
 40
0
  9
$USERR2
 40
0
  9
$USERR3
 40
0
  9
$USERR4
 40
0
  9
$USERR5
 40
0
  9
$WORLDVIEW
 70
    1
  9
$SHADEDGE
 70
    3
  9
$SHADEDIF
 70
   70
  9
$TILEMODE
 70
    1
  9
$MAXACTVP
 70
   64
  9
$PINSBASE
 10
0
 20
0
 30
0
  9
$PLIMCHECK
 70
    0
  9
$PEXTMIN
 10
0
 20
0
 30
0
  9
$PEXTMAX
 10
0
 20
0
 30
0
  9
$GRIDMODE
 70
    1
  9
$SNAPSTYLE
 70
    0
  9
$GRIDUNIT
 10
0
 20
0
  9
$PLIMMIN
 10
0
 20
0
  9
$PLIMMAX
 10
215.9
 20
279.4
  9
$UNITMODE
 70
    0
  9
$VISRETAIN
 70
    1
  9
$PLINEGEN
 70
    0
  9
$PSLTSCALE
 70
    1
  9
$TREEDEPTH
 70
 3020
  9
$CMLSTYLE
  2
Standard
  9
$CMLJUST
 70
    0
  9
$CMLSCALE
 40
20
  9
$PROXYGRAPHICS
 70
    1
  9
$MEASUREMENT
 70
    1
  9
$CELWEIGHT
370
   -1
  9
$ENDCAPS
280
    0
  9
$JOINSTYLE
280
    0
  9
$LWDISPLAY
290
    0
  9
$INSUNITS
 70
    4
  9
$HYPERLINKBASE
  1

  9
$STYLESHEET
  1

  9
$XEDIT
290
    1
  9
$CEPSNTYPE
380
    0
  9
$PSTYLEMODE
290
    1
  9
$EXTNAMES
290
    1
  9
$PSVPSCALE
 40
0
  9
$OLESTARTUP
290
    0
  9
$SORTENTS
280
  127
  9
$INDEXCTL
280
    0
  9
$HIDETEXT
280
    1
  9
$XCLIPFRAME
290
    0
  9
$HALOGAP
280
    0
  9
$OBSCOLOR
 70
  257
  9
$OBSLTYPE
280
    0
  9
$INTERSECTIONDISPLAY
280
    0
  9
$INTERSECTIONCOLOR
 70
  257
  9
$DIMASSOC
280
    1
  9
$PROJECTNAME
  1

  9
$CAMERADISPLAY
290
    0
  9
$LENSLENGTH
 40
50
  9
$CAMERAHEIGHT
 40
0
  9
$STEPSPERSEC
 40
2
  9
$STEPSIZE
 40
50
  9
$3DDWFPREC
 40
2
  9
$PSOLWIDTH
 40
5
  9
$PSOLHEIGHT
 40
80
  9
$LOFTANG1
 40
1.570796326794897
  9
$LOFTANG2
 40
1.570796326794897
  9
$LOFTMAG1
 40
0
  9
$LOFTMAG2
 40
0
  9
$LOFTPARAM
 70
    7
  9
$LOFTNORMALS
280
    1
  9
$LATITUDE
 40
1
  9
$LONGITUDE
 40
1
  9
$NORTHDIRECTION
 40
0
  9
$TIMEZONE
 70
-8000
  9
$LIGHTGLYPHDISPLAY
280
    1
  9
$TILEMODELIGHTSYNCH
280
    1
  9
$SOLIDHIST
280
    1
  9
$SHOWHIST
280
    1
  9
$DWFFRAME
280
    2
  9
$DGNFRAME
280
    0
  9
$REALWORLDSCALE
290
    1
  9
$INTERFERECOLOR
 62
    1
  9
$CSHADOW
280
    0
  9
$SHADOWPLANELOCATION
 40
0
  0
ENDSEC
  0
SECTION
  2
CLASSES
  0
ENDSEC
  0
SECTION
  2
TABLES
  0
TABLE
  2
VPORT
  5
8
330
0
100
AcDbSymbolTable
 70
    1
  0
VPORT
  5
31
330
2
100
AcDbSymbolTableRecord
100
AcDbViewportTableRecord
  2
*ACTIVE
 70
    0
 10
0
 20
0
 11
1
 21
1
 12
73.46242042919886
 22
22.5599672493216
 13
0
 23
0
 14
10
 24
10
 15
10
 25
10
 16
0
 26
0
 36
1
 17
0
 27
0
 37
0
 40
137.3144576980369
 41
1.441281138790035
 42
50
 43
0
 44
0
 50
0
 51
0
 71
    0
 72
  100
 73
    1
 74
    3
 75
    0
 76
    1
 77
    0
 78
    0
281
    0
 65
    1
110
0
120
0
130
0
111
1
121
0
131
0
112
0
122
1
132
0
 79
    0
146
0
348
10020
 60
    7
 61
    5
292
1
282
    1
141
0
142
0
 63
  250
421
3358443
  0
ENDTAB
  0
TABLE
  2
LTYPE
  5
5
330
0
100
AcDbSymbolTable
 70
    4
  0
LTYPE
  5
14
330
5
100
AcDbSymbolTableRecord
100
AcDbLinetypeTableRecord
  2
ByBlock
 70
    0
  3

 72
   65
 73
    0
 40
0
  0
LTYPE
  5
15
330
5
100
AcDbSymbolTableRecord
100
AcDbLinetypeTableRecord
  2
ByLayer
 70
    0
  3

 72
   65
 73
    0
 40
0
  0
LTYPE
  5
16
330
5
100
AcDbSymbolTableRecord
100
AcDbLinetypeTableRecord
  2
Continuous
 70
    0
  3
Solid line
 72
   65
 73
    0
 40
0
  0
LTYPE
  5
32
330
5
100
AcDbSymbolTableRecord
100
AcDbLinetypeTableRecord
  2
DOT
 70
    0
  3
Dot . . . . . . . . . . . . . . . . . . . . . .
 72
   65
 73
    2
 40
6.35
 49
0
 74
    0
 49
-6.35
 74
    0
  0
LTYPE
  5
33
330
5
100
AcDbSymbolTableRecord
100
AcDbLinetypeTableRecord
  2
DOTTINY
 70
    0
  3
Dot (.15x) .....................................
 72
   65
 73
    2
 40
0.9525
 49
0
 74
    0
 49
-0.9525
 74
    0
  0
LTYPE
  5
34
330
5
100
AcDbSymbolTableRecord
100
AcDbLinetypeTableRecord
  2
DOT2
 70
    0
  3
Dot (.5x) .....................................
 72
   65
 73
    2
 40
3.175
 49
0
 74
    0
 49
-3.175
 74
    0
  0
LTYPE
  5
35
330
5
100
AcDbSymbolTableRecord
100
AcDbLinetypeTableRecord
  2
DOTX2
 70
    0
  3
Dot (2x) .  .  .  .  .  .  .  .  .  .  .  .  .
 72
   65
 73
    2
 40
12.7
 49
0
 74
    0
 49
-12.7
 74
    0
  0
LTYPE
  5
36
330
5
100
AcDbSymbolTableRecord
100
AcDbLinetypeTableRecord
  2
DASHED
 70
    0
  3
Dashed _ _ _ _ _ _ _ _ _ _ _ _ _ _ _ _ _
 72
   65
 73
    2
 40
19.05
 49
12.7
 74
    0
 49
-6.35
 74
    0
  0
LTYPE
  5
37
330
5
100
AcDbSymbolTableRecord
100
AcDbLinetypeTableRecord
  2
DASHEDTINY
 70
    0
  3
Dashed (.15x) _ _ _ _ _ _ _ _ _ _ _ _ _ _ _ _ _
 72
   65
 73
    2
 40
2.8575
 49
1.905
 74
    0
 49
-0.9525
 74
    0
  0
LTYPE
  5
38
330
5
100
AcDbSymbolTableRecord
100
AcDbLinetypeTableRecord
  2
DASHED2
 70
    0
  3
Dashed (.5x) _ _ _ _ _ _ _ _ _ _ _ _ _ _ _ _ _
 72
   65
 73
    2
 40
9.524999999999999
 49
6.35
 74
    0
 49
-3.175
 74
    0
  0
LTYPE
  5
39
330
5
100
AcDbSymbolTableRecord
100
AcDbLinetypeTableRecord
  2
DASHEDX2
 70
    0
  3
Dashed (2x) ____  ____  ____  ____  ____  ___
 72
   65
 73
    2
 40
38.09999999999999
 49
25.4
 74
    0
 49
-12.7
 74
    0
  0
LTYPE
  5
3A
330
5
100
AcDbSymbolTableRecord
100
AcDbLinetypeTableRecord
  2
DASHDOT
 70
    0
  3
Dash dot __ . __ . __ . __ . __ . __ . __ . __
 72
   65
 73
    4
 40
25.4
 49
12.7
 74
    0
 49
-6.35
 74
    0
 49
0
 74
    0
 49
-6.35
 74
    0
  0
LTYPE
  5
3B
330
5
100
AcDbSymbolTableRecord
100
AcDbLinetypeTableRecord
  2
DASHDOTTINY
 70
    0
  3
Dash dot (.15x) _._._._._._._._._._._._._._._.
 72
   65
 73
    4
 40
3.81
 49
1.905
 74
    0
 49
-0.9525
 74
    0
 49
0
 74
    0
 49
-0.9525
 74
    0
  0
LTYPE
  5
3C
330
5
100
AcDbSymbolTableRecord
100
AcDbLinetypeTableRecord
  2
DASHDOT2
 70
    0
  3
Dash dot (.5x) _._._._._._._._._._._._._._._.
 72
   65
 73
    4
 40
12.7
 49
6.35
 74
    0
 49
-3.175
 74
    0
 49
0
 74
    0
 49
-3.175
 74
    0
  0
LTYPE
  5
3D
330
5
100
AcDbSymbolTableRecord
100
AcDbLinetypeTableRecord
  2
DASHDOTX2
 70
    0
  3
Dash dot (2x) ____  .  ____  .  ____  .  ___
 72
   65
 73
    4
 40
50.8
 49
25.4
 74
    0
 49
-12.7
 74
    0
 49
0
 74
    0
 49
-12.7
 74
    0
  0
LTYPE
  5
3E
330
5
100
AcDbSymbolTableRecord
100
AcDbLinetypeTableRecord
  2
DIVIDE
 70
    0
  3
Divide ____ . . ____ . . ____ . . ____ . . ____
 72
   65
 73
    6
 40
31.75
 49
12.7
 74
    0
 49
-6.35
 74
    0
 49
0
 74
    0
 49
-6.35
 74
    0
 49
0
 74
    0
 49
-6.35
 74
    0
  0
LTYPE
  5
3F
330
5
100
AcDbSymbolTableRecord
100
AcDbLinetypeTableRecord
  2
DIVIDETINY
 70
    0
  3
Divide (.15x) __..__..__..__..__..__..__..__.._
 72
   65
 73
    6
 40
4.7625
 49
1.905
 74
    0
 49
-0.9525
 74
    0
 49
0
 74
    0
 49
-0.9525
 74
    0
 49
0
 74
    0
 49
-0.9525
 74
    0
  0
LTYPE
  5
40
330
5
100
AcDbSymbolTableRecord
100
AcDbLinetypeTableRecord
  2
DIVIDE2
 70
    0
  3
Divide (.5x) __..__..__..__..__..__..__..__.._
 72
   65
 73
    6
 40
15.875
 49
6.35
 74
    0
 49
-3.175
 74
    0
 49
0
 74
    0
 49
-3.175
 74
    0
 49
0
 74
    0
 49
-3.175
 74
    0
  0
LTYPE
  5
41
330
5
100
AcDbSymbolTableRecord
100
AcDbLinetypeTableRecord
  2
DIVIDEX2
 70
    0
  3
Divide (2x) ________  .  .  ________  .  .  _
 72
   65
 73
    6
 40
63.5
 49
25.4
 74
    0
 49
-12.7
 74
    0
 49
0
 74
    0
 49
-12.7
 74
    0
 49
0
 74
    0
 49
-12.7
 74
    0
  0
LTYPE
  5
42
330
5
100
AcDbSymbolTableRecord
100
AcDbLinetypeTableRecord
  2
BORDER
 70
    0
  3
Border __ __ . __ __ . __ __ . __ __ . __ __ .
 72
   65
 73
    6
 40
44.45
 49
12.7
 74
    0
 49
-6.35
 74
    0
 49
12.7
 74
    0
 49
-6.35
 74
    0
 49
0
 74
    0
 49
-6.35
 74
    0
  0
LTYPE
  5
43
330
5
100
AcDbSymbolTableRecord
100
AcDbLinetypeTableRecord
  2
BORDERTINY
 70
    0
  3
Border (.15x) __.__.__.__.__.__.__.__.__.__.__.
 72
   65
 73
    6
 40
6.6675
 49
1.905
 74
    0
 49
-0.9525
 74
    0
 49
1.905
 74
    0
 49
-0.9525
 74
    0
 49
0
 74
    0
 49
-0.9525
 74
    0
  0
LTYPE
  5
44
330
5
100
AcDbSymbolTableRecord
100
AcDbLinetypeTableRecord
  2
BORDER2
 70
    0
  3
Border (.5x) __.__.__.__.__.__.__.__.__.__.__.
 72
   65
 73
    6
 40
22.225
 49
6.35
 74
    0
 49
-3.175
 74
    0
 49
6.35
 74
    0
 49
-3.175
 74
    0
 49
0
 74
    0
 49
-3.175
 74
    0
  0
LTYPE
  5
45
330
5
100
AcDbSymbolTableRecord
100
AcDbLinetypeTableRecord
  2
BORDERX2
 70
    0
  3
Border (2x) ____  ____  .  ____  ____  .  ___
 72
   65
 73
    6
 40
88.89999999999999
 49
25.4
 74
    0
 49
-12.7
 74
    0
 49
25.4
 74
    0
 49
-12.7
 74
    0
 49
0
 74
    0
 49
-12.7
 74
    0
  0
LTYPE
  5
46
330
5
100
AcDbSymbolTableRecord
100
AcDbLinetypeTableRecord
  2
CENTER
 70
    0
  3
Center ____ _ ____ _ ____ _ ____ _ ____ _ ____
 72
   65
 73
    4
 40
50.8
 49
31.75
 74
    0
 49
-6.35
 74
    0
 49
6.35
 74
    0
 49
-6.35
 74
    0
  0
LTYPE
  5
47
330
5
100
AcDbSymbolTableRecord
100
AcDbLinetypeTableRecord
  2
CENTERTINY
 70
    0
  3
Center (.15x) ___ _ ___ _ ___ _ ___ _ ___ _ ___
 72
   65
 73
    4
 40
7.619999999999999
 49
4.7625
 74
    0
 49
-0.9525
 74
    0
 49
0.9525
 74
    0
 49
-0.9525
 74
    0
  0
LTYPE
  5
48
330
5
100
AcDbSymbolTableRecord
100
AcDbLinetypeTableRecord
  2
CENTER2
 70
    0
  3
Center (.5x) ___ _ ___ _ ___ _ ___ _ ___ _ ___
 72
   65
 73
    4
 40
28.575
 49
19.05
 74
    0
 49
-3.175
 74
    0
 49
3.175
 74
    0
 49
-3.175
 74
    0
  0
LTYPE
  5
49
330
5
100
AcDbSymbolTableRecord
100
AcDbLinetypeTableRecord
  2
CENTERX2
 70
    0
  3
Center (2x) ________  __  ________  __  _____
 72
   65
 73
    4
 40
101.6
 49
63.5
 74
    0
 49
-12.7
 74
    0
 49
12.7
 74
    0
 49
-12.7
 74
    0
  0
ENDTAB
  0
TABLE
  2
LAYER
  5
2
330
0
100
AcDbSymbolTable
 70
    1
  0
LAYER
  5
10
330
2
100
AcDbSymbolTableRecord
100
AcDbLayerTableRecord
  2
0
 70
    1
 62
    7
  6
CONTINUOUS
370
    0
390
F
  0
LAYER
  5
4A
330
2
100
AcDbSymbolTableRecord
100
AcDbLayerTableRecord
  2
figura
 70
    0
 62
    7
  6
CONTINUOUS
370
    5
390
F
  0
LAYER
  5
4B
330
2
100
AcDbSymbolTableRecord
100
AcDbLayerTableRecord
  2
medidas
 70
    0
 62
    3
  6
CONTINUOUS
370
   13
390
F
  0
LAYER
  5
4C
330
2
100
AcDbSymbolTableRecord
100
AcDbLayerTableRecord
  2
trazos
 70
    1
 62
    5
  6
CONTINUOUS
370
    5
390
F
1001
LibreCad
1070
    1
  0
ENDTAB
  0
TABLE
  2
STYLE
  5
3
330
0
100
AcDbSymbolTable
 70
    3
  0
STYLE
  5
4D
330
2
100
AcDbSymbolTableRecord
100
AcDbTextStyleTableRecord
  2
Standard
 70
    0
 40
0
 41
1
 50
0
 71
    0
 42
1
  3
txt
  4

  0
ENDTAB
  0
TABLE
  2
VIEW
  5
6
330
0
100
AcDbSymbolTable
 70
    0
  0
ENDTAB
  0
TABLE
  2
UCS
  5
7
330
0
100
AcDbSymbolTable
 70
    0
  0
ENDTAB
  0
TABLE
  2
APPID
  5
9
330
0
100
AcDbSymbolTable
 70
    1
  0
APPID
  5
12
330
9
100
AcDbSymbolTableRecord
100
AcDbRegAppTableRecord
  2
ACAD
 70
    0
  0
APPID
  5
4E
330
9
100
AcDbSymbolTableRecord
100
AcDbRegAppTableRecord
  2
LibreCad
 70
    0
  0
ENDTAB
  0
TABLE
  2
DIMSTYLE
  5
A
330
0
100
AcDbSymbolTable
 70
    1
100
AcDbDimStyleTable
 71
    1
  0
DIMSTYLE
105
4F
330
A
100
AcDbSymbolTableRecord
100
AcDbDimStyleTableRecord
  2
Standard
 70
    0
 40
2.5
 41
1.5
 42
0.625
 43
0.38
 44
1.25
 45
0
 46
0
 47
0
 48
0
 49
1
140
1.5
141
0.09
142
0
143
25.4
144
1
145
0
146
1
147
0.625
148
0
 71
    0
 72
    0
 73
    0
 74
    1
 75
    0
 76
    0
 77
    0
 78
    1
 79
    0
170
    0
171
    2
172
    0
173
    0
174
    0
175
    0
176
    0
177
    0
178
    0
179
    2
271
    4
272
    4
273
    2
274
    2
275
    0
276
    0
277
    2
278
    0
279
    0
280
    0
281
    0
282
    0
283
    1
284
    0
285
    0
286
    0
288
    0
289
    3
340
standard
341

371
   -2
372
   -2
  0
ENDTAB
  0
TABLE
  2
BLOCK_RECORD
  5
1
330
0
100
AcDbSymbolTable
 70
    2
  0
BLOCK_RECORD
  5
1F
330
1
100
AcDbSymbolTableRecord
100
AcDbBlockTableRecord
  2
*Model_Space
 70
    0
280
    1
281
    0
  0
BLOCK_RECORD
  5
1E
330
1
100
AcDbSymbolTableRecord
100
AcDbBlockTableRecord
  2
*Paper_Space
 70
    0
280
    1
281
    0
  0
BLOCK_RECORD
  5
50
330
1
100
AcDbSymbolTableRecord
100
AcDbBlockTableRecord
  2
*D2
 70
    0
280
    1
281
    0
  0
BLOCK_RECORD
  5
53
330
1
100
AcDbSymbolTableRecord
100
AcDbBlockTableRecord
  2
*D5
 70
    0
280
    1
281
    0
  0
BLOCK_RECORD
  5
56
330
1
100
AcDbSymbolTableRecord
100
AcDbBlockTableRecord
  2
*D4
 70
    0
280
    1
281
    0
  0
BLOCK_RECORD
  5
59
330
1
100
AcDbSymbolTableRecord
100
AcDbBlockTableRecord
  2
*D3
 70
    0
280
    1
281
    0
  0
BLOCK_RECORD
  5
5C
330
1
100
AcDbSymbolTableRecord
100
AcDbBlockTableRecord
  2
*D1
 70
    0
280
    1
281
    0
  0
ENDTAB
  0
ENDSEC
  0
SECTION
  2
BLOCKS
  0
BLOCK
  5
20
330
1F
100
AcDbEntity
  8
0
100
AcDbBlockBegin
  2
*Model_Space
 70
    0
 10
0
 20
0
 30
0
  3
*Model_Space
  1

  0
ENDBLK
  5
21
330
1F
100
AcDbEntity
  8
0
100
AcDbBlockEnd
  0
BLOCK
  5
1C
330
1B
100
AcDbEntity
  8
0
100
AcDbBlockBegin
  2
*Paper_Space
 70
    0
 10
0
 20
0
 30
0
  3
*Paper_Space
  1

  0
ENDBLK
  5
1D
330
1F
100
AcDbEntity
  8
0
100
AcDbBlockEnd
  0
BLOCK
  5
51
330
50
100
AcDbEntity
  8
0
100
AcDbBlockBegin
  2
*D2
 70
    1
 10
0
 20
0
  3
*D2
  1

  0
LINE
  5
5F
100
AcDbEntity
  8
medidas
  6
ByBlock
 62
    0
370
   -2
100
AcDbLine
 10
32.55
 20
-59
 11
75.55
 21
-59
  0
SOLID
  5
60
100
AcDbEntity
  8
medidas
  6
ByBlock
 62
    0
370
   -2
100
AcDbTrace
 10
32.55
 20
-59
 30
0
 11
36.3
 21
-58.37557301334074
 31
0
 12
36.3
 22
-59.62442698665926
 32
0
 13
36.3
 23
-59.62442698665926
 33
0
  0
SOLID
  5
61
100
AcDbEntity
  8
medidas
  6
ByBlock
 62
    0
370
   -2
100
AcDbTrace
 10
75.55
 20
-59
 30
0
 11
71.8
 21
-59.62442698665926
 31
0
 12
71.8
 22
-58.37557301334074
 32
0
 13
71.8
 23
-58.37557301334074
 33
0
  0
MTEXT
  5
62
100
AcDbEntity
  8
medidas
  6
CONTINUOUS
 62
    0
370
   -2
100
AcDbMText
 10
54.05
 20
-55.5625
 30
0
 40
3.75
 41
17.9166666666669
 71
    5
 72
    1
  1
43.0000
  7
standard
210
0
220
0
230
1
 50
0
 73
    2
 44
1
  0
LINE
  5
63
100
AcDbEntity
  8
medidas
  6
ByBlock
 62
    0
370
   -2
100
AcDbLine
 10
32.55
 20
-42.35536019535979
 11
32.55
 21
-62.125
  0
LINE
  5
64
100
AcDbEntity
  8
medidas
  6
ByBlock
 62
    0
370
   -2
100
AcDbLine
 10
75.55
 20
-42.35536019535979
 11
75.55
 21
-62.125
  0
ENDBLK
  5
52
330
50
100
AcDbEntity
  8
0
100
AcDbBlockEnd
  0
BLOCK
  5
54
330
53
100
AcDbEntity
  8
0
100
AcDbBlockBegin
  2
*D5
 70
    1
 10
0
 20
0
  3
*D5
  1

  0
LINE
  5
65
100
AcDbEntity
  8
medidas
  6
ByBlock
 62
    0
370
   -2
100
AcDbLine
 10
-12.53675134594813
 20
5.571430097679884
 11
-12.53675134594813
 21
-5.571430097679895
  0
SOLID
  5
66
100
AcDbEntity
  8
medidas
  6
ByBlock
 62
    0
370
   -2
100
AcDbTrace
 10
-12.53675134594813
 20
5.571430097679884
 30
0
 11
-11.91232435928887
 21
1.821430097679884
 31
0
 12
-13.16117833260739
 22
1.821430097679884
 32
0
 13
-13.16117833260739
 23
1.821430097679884
 33
0
  0
SOLID
  5
67
100
AcDbEntity
  8
medidas
  6
ByBlock
 62
    0
370
   -2
100
AcDbTrace
 10
-12.53675134594813
 20
-5.571430097679895
 30
0
 11
-13.16117833260739
 21
-1.821430097679895
 31
0
 12
-11.91232435928887
 22
-1.821430097679895
 32
0
 13
-11.91232435928887
 23
-1.821430097679895
 33
0
  0
MTEXT
  5
68
100
AcDbEntity
  8
medidas
  6
CONTINUOUS
 62
    0
370
   -2
100
AcDbMText
 10
-15.97425134594813
 20
14.84226343101322
 30
0
 40
3.75
 41
15.41666666666667
 71
    5
 72
    1
  1
11.1429
  7
standard
210
0
220
0
230
1
 50
90
 73
    2
 44
1
  0
LINE
  5
69
100
AcDbEntity
  8
medidas
  6
ByBlock
 62
    0
370
   -2
100
AcDbLine
 10
-11.2125
 20
5.571430097679884
 11
-15.66175134594813
 21
5.571430097679884
  0
LINE
  5
6A
100
AcDbEntity
  8
medidas
  6
ByBlock
 62
    0
370
   -2
100
AcDbLine
 10
-11.21249999999998
 20
-5.571430097679895
 11
-15.66175134594813
 21
-5.571430097679895
  0
ENDBLK
  5
55
330
53
100
AcDbEntity
  8
0
100
AcDbBlockEnd
  0
BLOCK
  5
57
330
56
100
AcDbEntity
  8
0
100
AcDbBlockBegin
  2
*D4
 70
    1
 10
0
 20
0
  3
*D4
  1

  0
LINE
  5
6B
100
AcDbEntity
  8
medidas
  6
ByBlock
 62
    0
370
   -2
100
AcDbLine
 10
-9.650000000000004
 20
-21.49286019535979
 11
9.649999999999993
 21
-21.49286019535979
  0
SOLID
  5
6C
100
AcDbEntity
  8
medidas
  6
ByBlock
 62
    0
370
   -2
100
AcDbTrace
 10
-9.650000000000004
 20
-21.49286019535979
 30
0
 11
-5.900000000000004
 21
-20.86843320870053
 31
0
 12
-5.900000000000004
 22
-22.11728718201905
 32
0
 13
-5.900000000000004
 23
-22.11728718201905
 33
0
  0
SOLID
  5
6D
100
AcDbEntity
  8
medidas
  6
ByBlock
 62
    0
370
   -2
100
AcDbTrace
 10
9.649999999999993
 20
-21.49286019535979
 30
0
 11
5.899999999999993
 21
-22.11728718201905
 31
0
 12
5.899999999999993
 22
-20.86843320870053
 32
0
 13
5.899999999999993
 23
-20.86843320870053
 33
0
  0
MTEXT
  5
6E
100
AcDbEntity
  8
medidas
  6
CONTINUOUS
 62
    0
370
   -2
100
AcDbMText
 10
-5.1185843495973e-15
 20
-18.05536019535979
 30
0
 40
3.75
 41
16.6666666666669
 71
    5
 72
    1
  1
19.3000
  7
standard
210
0
220
0
230
1
 50
0
 73
    2
 44
1
  0
LINE
  5
6F
100
AcDbEntity
  8
medidas
  6
ByBlock
 62
    0
370
   -2
100
AcDbLine
 10
-9.650000000000004
 20
-12.70536019535978
 11
-9.650000000000004
 21
-24.61786019535979
  0
LINE
  5
70
100
AcDbEntity
  8
medidas
  6
ByBlock
 62
    0
370
   -2
100
AcDbLine
 10
9.649999999999993
 20
-12.70536019535978
 11
9.649999999999993
 21
-24.61786019535979
  0
ENDBLK
  5
58
330
56
100
AcDbEntity
  8
0
100
AcDbBlockEnd
  0
BLOCK
  5
5A
330
59
100
AcDbEntity
  8
0
100
AcDbBlockBegin
  2
*D3
 70
    1
 10
0
 20
0
  3
*D3
  1

  0
LINE
  5
71
100
AcDbEntity
  8
medidas
  6
ByBlock
 62
    0
370
   -2
100
AcDbLine
 10
84
 20
-25.36786019535977
 11
84
 21
-36.9178601953597
  0
SOLID
  5
72
100
AcDbEntity
  8
medidas
  6
ByBlock
 62
    0
370
   -2
100
AcDbTrace
 10
84
 20
-25.36786019535977
 30
0
 11
84.62442698665926
 21
-29.11786019535977
 31
0
 12
83.37557301334074
 22
-29.11786019535977
 32
0
 13
83.37557301334074
 23
-29.11786019535977
 33
0
  0
SOLID
  5
73
100
AcDbEntity
  8
medidas
  6
ByBlock
 62
    0
370
   -2
100
AcDbTrace
 10
84
 20
-36.9178601953597
 30
0
 11
83.37557301334074
 21
-33.1678601953597
 31
0
 12
84.62442698665926
 22
-33.1678601953597
 32
0
 13
84.62442698665926
 23
-33.1678601953597
 33
0
  0
MTEXT
  5
74
100
AcDbEntity
  8
medidas
  6
CONTINUOUS
 62
    0
370
   -2
100
AcDbMText
 10
80.5625
 20
-15.88869352869288
 30
0
 40
3.75
 41
15.8333333333338
 71
    5
 72
    1
  1
11.5500
  7
standard
210
0
220
0
230
1
 50
90
 73
    2
 44
1
  0
LINE
  5
75
100
AcDbEntity
  8
medidas
  6
ByBlock
 62
    0
370
   -2
100
AcDbLine
 10
77.1125
 20
-25.36786019535977
 11
87.125
 21
-25.36786019535977
  0
LINE
  5
76
100
AcDbEntity
  8
medidas
  6
ByBlock
 62
    0
370
   -2
100
AcDbLine
 10
77.1125
 20
-36.9178601953597
 11
87.125
 21
-36.9178601953597
  0
ENDBLK
  5
5B
330
59
100
AcDbEntity
  8
0
100
AcDbBlockEnd
  0
BLOCK
  5
5D
330
5C
100
AcDbEntity
  8
0
100
AcDbBlockBegin
  2
*D1
 70
    1
 10
0
 20
0
  3
*D1
  1

  0
LINE
  5
77
100
AcDbEntity
  8
medidas
  6
ByBlock
 62
    0
370
   -2
100
AcDbLine
 10
19.99999999999999
 20
-50
 11
32.55
 21
-50
  0
SOLID
  5
78
100
AcDbEntity
  8
medidas
  6
ByBlock
 62
    0
370
   -2
100
AcDbTrace
 10
19.99999999999999
 20
-50
 30
0
 11
23.74999999999999
 21
-49.37557301334074
 31
0
 12
23.74999999999999
 22
-50.62442698665926
 32
0
 13
23.74999999999999
 23
-50.62442698665926
 33
0
  0
SOLID
  5
79
100
AcDbEntity
  8
medidas
  6
ByBlock
 62
    0
370
   -2
100
AcDbTrace
 10
32.55
 20
-50
 30
0
 11
28.8
 21
-50.62442698665926
 31
0
 12
28.8
 22
-49.37557301334074
 32
0
 13
28.8
 23
-49.37557301334074
 33
0
  0
MTEXT
  5
7A
100
AcDbEntity
  8
medidas
  6
CONTINUOUS
 62
    0
370
   -2
100
AcDbMText
 10
42.44583333333357
 20
-46.5625
 30
0
 40
3.75
 41
16.66666666666713
 71
    5
 72
    1
  1
12.5500
  7
standard
210
0
220
0
230
1
 50
0
 73
    2
 44
1
  0
LINE
  5
7B
100
AcDbEntity
  8
medidas
  6
ByBlock
 62
    0
370
   -2
100
AcDbLine
 10
19.99999999999999
 20
-42.35536019535979
 11
19.99999999999999
 21
-53.125
  0
LINE
  5
7C
100
AcDbEntity
  8
medidas
  6
ByBlock
 62
    0
370
   -2
100
AcDbLine
 10
32.55
 20
-42.35536019535979
 11
32.55
 21
-53.125
  0
ENDBLK
  5
5E
330
5C
100
AcDbEntity
  8
0
100
AcDbBlockEnd
  0
ENDSEC
  0
SECTION
  2
ENTITIES
  0
CIRCLE
  5
7D
100
AcDbEntity
  8
trazos
  6
ByLayer
 62
  256
370
   -1
100
AcDbCircle
 10
0
 20
0
 40
9.65
  0
LINE
  5
7E
100
AcDbEntity
  8
trazos
  6
ByLayer
 62
  256
370
   -1
100
AcDbLine
 10
-1.772676241765794e-15
 20
-9.65
 11
8.35714514651983
 21
-4.825000000000005
  0
LINE
  5
7F
100
AcDbEntity
  8
trazos
  6
ByLayer
 62
  256
370
   -1
100
AcDbLine
 10
8.35714514651983
 20
-4.825000000000005
 11
8.357145146519837
 21
4.824999999999993
  0
LINE
  5
80
100
AcDbEntity
  8
trazos
  6
ByLayer
 62
  256
370
   -1
100
AcDbLine
 10
8.357145146519837
 20
4.824999999999993
 11
2.95446040294299e-15
 21
9.65
  0
LINE
  5
81
100
AcDbEntity
  8
trazos
  6
ByLayer
 62
  256
370
   -1
100
AcDbLine
 10
2.95446040294299e-15
 20
9.65
 11
-8.357145146519835
 21
4.824999999999998
  0
LINE
  5
82
100
AcDbEntity
  8
trazos
  6
ByLayer
 62
  256
370
   -1
100
AcDbLine
 10
-8.357145146519835
 20
4.824999999999998
 11
-8.357145146519839
 21
-4.824999999999992
  0
LINE
  5
83
100
AcDbEntity
  8
trazos
  6
ByLayer
 62
  256
370
   -1
100
AcDbLine
 10
-8.357145146519839
 20
-4.824999999999992
 11
-1.772676241765794e-15
 21
-9.65
  0
LINE
  5
84
100
AcDbEntity
  8
trazos
  6
ByLayer
 62
  256
370
   -1
100
AcDbLine
 10
9.65
 20
0
 11
4.825000000000001
 21
8.357145146519834
  0
LINE
  5
85
100
AcDbEntity
  8
trazos
  6
ByLayer
 62
  256
370
   -1
100
AcDbLine
 10
4.825000000000001
 20
8.357145146519834
 11
-4.824999999999998
 21
8.357145146519834
  0
LINE
  5
86
100
AcDbEntity
  8
trazos
  6
ByLayer
 62
  256
370
   -1
100
AcDbLine
 10
-4.824999999999998
 20
8.357145146519834
 11
-9.65
 21
1.181784161177196e-15
  0
LINE
  5
87
100
AcDbEntity
  8
trazos
  6
ByLayer
 62
  256
370
   -1
100
AcDbLine
 10
-9.65
 20
1.181784161177196e-15
 11
-4.825000000000005
 21
-8.35714514651983
  0
LINE
  5
88
100
AcDbEntity
  8
trazos
  6
ByLayer
 62
  256
370
   -1
100
AcDbLine
 10
-4.825000000000005
 20
-8.35714514651983
 11
4.824999999999994
 21
-8.357145146519837
  0
LINE
  5
89
100
AcDbEntity
  8
trazos
  6
ByLayer
 62
  256
370
   -1
100
AcDbLine
 10
4.824999999999994
 20
-8.357145146519837
 11
9.65
 21
0
  0
LINE
  5
8A
100
AcDbEntity
  8
trazos
  6
ByLayer
 62
  256
370
   -1
100
AcDbLine
 10
9.649999999999997
 20
-4.825000000000006
 11
9.650000000000004
 21
4.824999999999991
  0
LINE
  5
8B
100
AcDbEntity
  8
trazos
  6
ByLayer
 62
  256
370
   -1
100
AcDbLine
 10
-9.649999999999999
 20
4.824999999999999
 11
-9.650000000000002
 21
-4.824999999999991
  0
LINE
  5
8C
100
AcDbEntity
  8
trazos
  6
ByLayer
 62
  256
370
   -1
100
AcDbLine
 10
-0.6464274267400797
 20
10.76964514651984
 11
-9.003572573259918
 21
5.944645146519832
  0
LINE
  5
8D
100
AcDbEntity
  8
trazos
  6
ByLayer
 62
  256
370
   -1
100
AcDbLine
 10
9.003572573259909
 20
-5.944645146519843
 11
0.64642742674007
 21
-10.76964514651985
  0
LINE
  5
8E
100
AcDbEntity
  8
trazos
  6
ByLayer
 62
  256
370
   -1
100
AcDbLine
 10
-9.003572573259925
 20
-5.944645146519825
 11
-0.6464274267400877
 21
-10.76964514651983
  0
LINE
  5
8F
100
AcDbEntity
  8
figura
  6
ByLayer
 62
  256
370
   -1
100
AcDbLine
 10
9.650000000000006
 20
5.571430097679884
 11
9.649999999999999
 21
-5.571430097679895
  0
LINE
  5
90
100
AcDbEntity
  8
figura
  6
ByLayer
 62
  256
370
   -1
100
AcDbLine
 10
9.649999999999999
 20
-5.571430097679895
 11
0
 21
-11.14286019535978
  0
LINE
  5
91
100
AcDbEntity
  8
figura
  6
ByLayer
 62
  256
370
   -1
100
AcDbLine
 10
0
 20
-11.14286019535978
 11
-9.650000000000002
 21
-5.571430097679884
  0
LINE
  5
92
100
AcDbEntity
  8
figura
  6
ByLayer
 62
  256
370
   -1
100
AcDbLine
 10
-9.650000000000002
 20
-5.571430097679884
 11
-9.649999999999999
 21
5.571430097679889
  0
LINE
  5
93
100
AcDbEntity
  8
figura
  6
ByLayer
 62
  256
370
   -1
100
AcDbLine
 10
-9.649999999999999
 20
5.571430097679889
 11
3.552713678800501e-15
 21
11.14286019535978
  0
LINE
  5
94
100
AcDbEntity
  8
figura
  6
ByLayer
 62
  256
370
   -1
100
AcDbLine
 10
3.552713678800501e-15
 20
11.14286019535978
 11
9.650000000000006
 21
5.571430097679884
  0
CIRCLE
  5
95
100
AcDbEntity
  8
figura
  6
ByLayer
 62
  256
370
   -1
100
AcDbCircle
 10
0
 20
0
 40
9.65
  0
LINE
  5
96
100
AcDbEntity
  8
trazos
  6
ByLayer
 62
  256
370
   -1
100
AcDbLine
 10
3.552713678800501e-15
 20
11.14286019535978
 11
10
 21
11.14286019535978
  0
LINE
  5
97
100
AcDbEntity
  8
trazos
  6
ByLayer
 62
  256
370
   -1
100
AcDbLine
 10
0
 20
-11.14286019535978
 11
10
 21
-11.14286019535978
  0
LINE
  5
98
100
AcDbEntity
  8
trazos
  6
ByLayer
 62
  256
370
   -1
100
AcDbLine
 10
9.649999999999999
 20
-5.571430097679895
 11
19.65
 21
-5.571430097679895
  0
LINE
  5
99
100
AcDbEntity
  8
trazos
  6
ByLayer
 62
  256
370
   -1
100
AcDbLine
 10
9.650000000000006
 20
5.571430097679884
 11
19.65000000000001
 21
5.571430097679884
  0
LINE
  5
9A
100
AcDbEntity
  8
trazos
  6
ByLayer
 62
  256
370
   -1
100
AcDbLine
 10
20
 20
0
 11
20
 21
10
  0
LINE
  5
9B
100
AcDbEntity
  8
trazos
  6
ByLayer
 62
  256
370
   -1
100
AcDbLine
 10
32.55
 20
-3.073863465859858e-15
 11
32.55
 21
9.999999999999996
  0
LINE
  5
9C
100
AcDbEntity
  8
trazos
  6
ByLayer
 62
  256
370
   -1
100
AcDbLine
 10
75.55
 20
-3.469446951953614e-18
 11
75.55
 21
10
  0
LINE
  5
9D
100
AcDbEntity
  8
trazos
  6
ByLayer
 62
  256
370
   -1
100
AcDbLine
 10
0
 20
0
 11
10
 21
0
  0
LINE
  5
9E
100
AcDbEntity
  8
trazos
  6
ByLayer
 62
  256
370
   -1
100
AcDbLine
 10
38.04900000000001
 20
5.774999999999999
 11
48.04900000000001
 21
5.774999999999999
  0
LINE
  5
9F
100
AcDbEntity
  8
trazos
  6
ByLayer
 62
  256
370
   -1
100
AcDbLine
 10
38
 20
0
 11
48
 21
0
  0
LINE
  5
A0
100
AcDbEntity
  8
trazos
  6
ByLayer
 62
  256
370
   -1
100
AcDbLine
 10
37.89
 20
-5.775
 11
47.89
 21
-5.775
  0
LINE
  5
A1
100
AcDbEntity
  8
figura
  6
ByLayer
 62
  256
370
   -1
100
AcDbLine
 10
32.55
 20
11.14286019535978
 11
32.55
 21
-11.14286019535978
  0
LINE
  5
A2
100
AcDbEntity
  8
trazos
  6
ByLayer
 62
  256
370
   -1
100
AcDbLine
 10
36
 20
-3.91886975727153e-15
 11
36
 21
9.999999999999996
  0
LINE
  5
A3
100
AcDbEntity
  8
trazos
  6
ByLayer
 62
  256
370
   -1
100
AcDbLine
 10
22
 20
-4.898587196589413e-16
 11
22
 21
10
  0
LINE
  5
A4
100
AcDbEntity
  8
figura
  6
ByLayer
 62
  256
370
   -1
100
AcDbLine
 10
32.55
 20
-11.14286019535978
 11
22
 21
-11.14286019535978
  0
LINE
  5
A5
100
AcDbEntity
  8
figura
  6
ByLayer
 62
  256
370
   -1
100
AcDbLine
 10
32.55
 20
-5.571430097679895
 11
22
 21
-5.571430097679895
  0
LINE
  5
A6
100
AcDbEntity
  8
figura
  6
ByLayer
 62
  256
370
   -1
100
AcDbLine
 10
32.55
 20
5.571430097679884
 11
22
 21
5.571430097679884
  0
LINE
  5
A7
100
AcDbEntity
  8
figura
  6
ByLayer
 62
  256
370
   -1
100
AcDbLine
 10
32.55
 20
11.14286019535978
 11
22
 21
11.14286019535978
  0
LINE
  5
A8
100
AcDbEntity
  8
figura
  6
ByLayer
 62
  256
370
   -1
100
AcDbLine
 10
20
 20
8.357145146519834
 11
20
 21
-8.357145146519848
  0
ARC
  5
A9
100
AcDbEntity
  8
figura
  6
ByLayer
 62
  256
370
   -1
100
AcDbCircle
 10
22.94005208333334
 20
8.357145146519834
 40
2.940052083333339
100
AcDbArc
 50
108.6471984280832
 51
251.3528015719168
  0
ARC
  5
AA
100
AcDbEntity
  8
figura
  6
ByLayer
 62
  256
370
   -1
100
AcDbCircle
 10
28.76020833333331
 20
-1.332267629550188e-14
 40
8.760208333333312
100
AcDbArc
 50
140.5063367715335
 51
219.4936632284664
  0
ARC
  5
AB
100
AcDbEntity
  8
figura
  6
ByLayer
 62
  256
370
   -1
100
AcDbCircle
 10
22.94005208333335
 20
-8.357145146519827
 40
2.940052083333347
100
AcDbArc
 50
108.6471984280833
 51
251.3528015719167
  0
LINE
  5
AC
100
AcDbEntity
  8
trazos
  6
ByLayer
 62
  256
370
   -1
100
AcDbLine
 10
38.04900000000001
 20
5
 11
48.04900000000001
 21
5
  0
LINE
  5
AD
100
AcDbEntity
  8
trazos
  6
ByLayer
 62
  256
370
   -1
100
AcDbLine
 10
37.89
 20
-5
 11
47.89
 21
-5
  0
ARC
  5
AE
100
AcDbEntity
  8
trazos
  6
ByLayer
 62
  256
370
   -1
100
AcDbCircle
 10
20
 20
-11.14286019535978
 40
10.35000000000001
100
AcDbArc
 50
180
 51
270
  0
ARC
  5
AF
100
AcDbEntity
  8
trazos
  6
ByLayer
 62
  256
370
   -1
100
AcDbCircle
 10
20
 20
-11.14286019535978
 40
20
100
AcDbArc
 50
180
 51
270
  0
ARC
  5
B0
100
AcDbEntity
  8
trazos
  6
ByLayer
 62
  256
370
   -1
100
AcDbCircle
 10
20
 20
-11.14286019535978
 40
29.65000000000001
100
AcDbArc
 50
180
 51
270
  0
LINE
  5
B1
100
AcDbEntity
  8
trazos
  6
ByLayer
 62
  256
370
   -1
100
AcDbLine
 10
-4.825000000000005
 20
-8.35714514651983
 11
-4.825000000000004
 21
1.64285485348017
  0
LINE
  5
B2
100
AcDbEntity
  8
trazos
  6
ByLayer
 62
  256
370
   -1
100
AcDbLine
 10
4.825000000000001
 20
-8.357145146519837
 11
4.825000000000002
 21
1.642854853480163
  0
ARC
  5
B3
100
AcDbEntity
  8
trazos
  6
ByLayer
 62
  256
370
   -1
100
AcDbCircle
 10
20
 20
-11.14286019535978
 40
15.175
100
AcDbArc
 50
180
 51
270
  0
ARC
  5
B4
100
AcDbEntity
  8
trazos
  6
ByLayer
 62
  256
370
   -1
100
AcDbCircle
 10
20
 20
-11.14286019535978
 40
24.825
100
AcDbArc
 50
180
 51
270
  0
LINE
  5
B5
100
AcDbEntity
  8
trazos
  6
ByLayer
 62
  256
370
   -1
100
AcDbLine
 10
20
 20
-21.49286019535979
 11
30
 21
-21.49286019535979
  0
LINE
  5
B6
100
AcDbEntity
  8
trazos
  6
ByLayer
 62
  256
370
   -1
100
AcDbLine
 10
20
 20
-26.31786019535978
 11
30
 21
-26.31786019535978
  0
LINE
  5
B7
100
AcDbEntity
  8
trazos
  6
ByLayer
 62
  256
370
   -1
100
AcDbLine
 10
20
 20
-31.14286019535978
 11
30
 21
-31.14286019535978
  0
LINE
  5
B8
100
AcDbEntity
  8
trazos
  6
ByLayer
 62
  256
370
   -1
100
AcDbLine
 10
20
 20
-40.79286019535979
 11
30
 21
-40.79286019535979
  0
LINE
  5
B9
100
AcDbEntity
  8
trazos
  6
ByLayer
 62
  256
370
   -1
100
AcDbLine
 10
20
 20
-35.96786019535978
 11
30
 21
-35.96786019535978
  0
LINE
  5
BA
100
AcDbEntity
  8
figura
  6
ByLayer
 62
  256
370
   -1
100
AcDbLine
 10
32.55
 20
-21.49286019535979
 11
32.55
 21
-40.79286019535979
  0
LINE
  5
BB
100
AcDbEntity
  8
figura
  6
ByLayer
 62
  256
370
   -1
100
AcDbLine
 10
22
 20
-40.79286019535979
 11
32.55
 21
-40.79286019535979
  0
LINE
  5
BC
100
AcDbEntity
  8
figura
  6
ByLayer
 62
  256
370
   -1
100
AcDbLine
 10
22
 20
-31.14286019535978
 11
32.55
 21
-31.14286019535978
  0
LINE
  5
BD
100
AcDbEntity
  8
figura
  6
ByLayer
 62
  256
370
   -1
100
AcDbLine
 10
32.55
 20
-21.49286019535979
 11
22
 21
-21.49286019535979
  0
ARC
  5
BE
100
AcDbEntity
  8
figura
  6
ByLayer
 62
  256
370
   -1
100
AcDbCircle
 10
26.75062838362299
 20
-26.34668069762481
 40
6.750689432478552
100
AcDbArc
 50
134.027106351105
 51
225.2733758569474
  0
ARC
  5
BF
100
AcDbEntity
  8
figura
  6
ByLayer
 62
  256
370
   -1
100
AcDbCircle
 10
26.82015625
 20
-35.96786019535978
 40
6.820156250000004
100
AcDbArc
 50
134.9712263439293
 51
225.0287736560707
  0
LINE
  5
C0
100
AcDbEntity
  8
figura
  6
ByLayer
 62
  256
370
   -1
100
AcDbLine
 10
19.99999952735142
 20
-26.31786019535978
 11
19.99999983007547
 21
-35.96786019535978
  0
LINE
  5
C1
100
AcDbEntity
  8
trazos
  6
ByLayer
 62
  256
370
   -1
100
AcDbLine
 10
0
 20
0
 11
6.123233995736766e-16
 21
10
  0
CIRCLE
  5
C2
100
AcDbEntity
  8
trazos
  6
ByLayer
 62
  256
370
   -1
100
AcDbCircle
 10
0
 20
0
 40
5.775
  0
CIRCLE
  5
C3
100
AcDbEntity
  8
trazos
  6
ByLayer
 62
  256
370
   -1
100
AcDbCircle
 10
0
 20
0
 40
5
  0
LINE
  5
C4
100
AcDbEntity
  8
trazos
  6
ByLayer
 62
  256
370
   -1
100
AcDbLine
 10
5.775
 20
-1.414467053015193e-15
 11
5.775000000000001
 21
9.999999999999998
  0
LINE
  5
C5
100
AcDbEntity
  8
trazos
  6
ByLayer
 62
  256
370
   -1
100
AcDbLine
 10
5
 20
-1.224646799147353e-15
 11
5.000000000000001
 21
9.999999999999998
  0
LINE
  5
C6
100
AcDbEntity
  8
trazos
  6
ByLayer
 62
  256
370
   -1
100
AcDbLine
 10
-5.774999999999999
 20
0
 11
-5.774999999999999
 21
10
  0
LINE
  5
C7
100
AcDbEntity
  8
trazos
  6
ByLayer
 62
  256
370
   -1
100
AcDbLine
 10
-5
 20
4.440892098500626e-16
 11
-4.999999999999999
 21
10
  0
ARC
  5
C8
100
AcDbEntity
  8
trazos
  6
ByLayer
 62
  256
370
   -1
100
AcDbCircle
 10
20
 20
-11.14286019535978
 40
14.225
100
AcDbArc
 50
180
 51
269.9999982154354
  0
ARC
  5
C9
100
AcDbEntity
  8
trazos
  6
ByLayer
 62
  256
370
   -1
100
AcDbCircle
 10
20
 20
-11.14286019535978
 40
25.775
100
AcDbArc
 50
180
 51
270
  0
ARC
  5
CA
100
AcDbEntity
  8
trazos
  6
ByLayer
 62
  256
370
   -1
100
AcDbCircle
 10
20
 20
-11.14286019535978
 40
15
100
AcDbArc
 50
180
 51
270
  0
ARC
  5
CB
100
AcDbEntity
  8
trazos
  6
ByLayer
 62
  256
370
   -1
100
AcDbCircle
 10
20
 20
-11.14286019535978
 40
25
100
AcDbArc
 50
180
 51
270
  0
LINE
  5
CC
100
AcDbEntity
  8
trazos
  6
ByLayer
 62
  256
370
   -1
100
AcDbLine
 10
19.99999955694062
 20
-25.36786019535977
 11
29.99999955694062
 21
-25.36786019535977
  0
LINE
  5
CD
100
AcDbEntity
  8
trazos
  6
ByLayer
 62
  256
370
   -1
100
AcDbLine
 10
20
 20
-26.14286019535978
 11
30
 21
-26.14286019535978
  0
LINE
  5
CE
100
AcDbEntity
  8
trazos
  6
ByLayer
 62
  256
370
   -1
100
AcDbLine
 10
20
 20
-36.91786019535978
 11
30
 21
-36.91786019535978
  0
LINE
  5
CF
100
AcDbEntity
  8
trazos
  6
ByLayer
 62
  256
370
   -1
100
AcDbLine
 10
20
 20
-36.14286019535978
 11
30
 21
-36.14286019535978
  0
ARC
  5
D0
100
AcDbEntity
  8
figura
  6
ByLayer
 62
  256
370
   -1
100
AcDbCircle
 10
0
 20
0
 40
0
100
AcDbArc
 50
0
 51
0
  0
ARC
  5
D1
100
AcDbEntity
  8
trazos
  6
ByLayer
 62
  256
370
   -1
100
AcDbCircle
 10
0
 20
0
 40
0
100
AcDbArc
 50
0
 51
0
  0
ARC
  5
D2
100
AcDbEntity
  8
trazos
  6
ByLayer
 62
  256
370
   -1
100
AcDbCircle
 10
75.55
 20
-11.14286019535978
 40
20
100
AcDbArc
 50
270
 51
0
  0
LINE
  5
D3
100
AcDbEntity
  8
trazos
  6
ByLayer
 62
  256
370
   -1
100
AcDbLine
 10
95.55
 20
-11.14286019535978
 11
95.55
 21
-1.142860195359781
  0
CIRCLE
  5
D4
100
AcDbEntity
  8
trazos
  6
ByLayer
 62
  256
370
   -1
100
AcDbCircle
 10
95.55
 20
0
 40
11.14286019535978
  0
LINE
  5
D5
100
AcDbEntity
  8
figura
  6
ByLayer
 62
  256
370
   -1
100
AcDbLine
 10
95.55
 20
-11.14286019535978
 11
105.2
 21
-5.571430097679896
  0
LINE
  5
D6
100
AcDbEntity
  8
figura
  6
ByLayer
 62
  256
370
   -1
100
AcDbLine
 10
105.2
 20
-5.571430097679896
 11
105.2
 21
5.571430097679882
  0
LINE
  5
D7
100
AcDbEntity
  8
figura
  6
ByLayer
 62
  256
370
   -1
100
AcDbLine
 10
105.2
 20
5.571430097679882
 11
95.55
 21
11.14286019535978
  0
LINE
  5
D8
100
AcDbEntity
  8
figura
  6
ByLayer
 62
  256
370
   -1
100
AcDbLine
 10
95.55
 20
11.14286019535978
 11
85.89999999999999
 21
5.571430097679888
  0
LINE
  5
D9
100
AcDbEntity
  8
figura
  6
ByLayer
 62
  256
370
   -1
100
AcDbLine
 10
85.89999999999999
 20
5.571430097679888
 11
85.89999999999999
 21
-5.571430097679881
  0
LINE
  5
DA
100
AcDbEntity
  8
figura
  6
ByLayer
 62
  256
370
   -1
100
AcDbLine
 10
85.89999999999999
 20
-5.571430097679881
 11
95.55
 21
-11.14286019535978
  0
CIRCLE
  5
DB
100
AcDbEntity
  8
trazos
  6
ByLayer
 62
  256
370
   -1
100
AcDbCircle
 10
95.55
 20
0
 40
5.774999999999999
  0
CIRCLE
  5
DC
100
AcDbEntity
  8
figura
  6
ByLayer
 62
  256
370
   -1
100
AcDbCircle
 10
95.55
 20
0
 40
5.774999999999764
  0
LINE
  5
DD
100
AcDbEntity
  8
trazos
  6
ByLayer
 62
  256
370
   -1
100
AcDbLine
 10
89.77500000000001
 20
7.072335265075963e-16
 11
89.77500000000001
 21
10
  0
LINE
  5
DE
100
AcDbEntity
  8
trazos
  6
ByLayer
 62
  256
370
   -1
100
AcDbLine
 10
85.89999999999999
 20
0
 11
85.89999999999999
 21
10
  0
LINE
  5
DF
100
AcDbEntity
  8
trazos
  6
ByLayer
 62
  256
370
   -1
100
AcDbLine
 10
101.325
 20
-1.414467053015193e-15
 11
101.325
 21
9.999999999999998
  0
LINE
  5
E0
100
AcDbEntity
  8
trazos
  6
ByLayer
 62
  256
370
   -1
100
AcDbLine
 10
105.2
 20
0
 11
105.2
 21
10
  0
ARC
  5
E1
100
AcDbEntity
  8
trazos
  6
ByLayer
 62
  256
370
   -1
100
AcDbCircle
 10
75.55
 20
-11.14286019535978
 40
10.34999999999999
100
AcDbArc
 50
270
 51
0
  0
ARC
  5
E2
100
AcDbEntity
  8
trazos
  6
ByLayer
 62
  256
370
   -1
100
AcDbCircle
 10
75.55
 20
-11.14286019535978
 40
14.22500000000001
100
AcDbArc
 50
270
 51
0
  0
ARC
  5
E3
100
AcDbEntity
  8
trazos
  6
ByLayer
 62
  256
370
   -1
100
AcDbCircle
 10
75.55
 20
-11.14286019535978
 40
25.77499999999999
100
AcDbArc
 50
270
 51
0
  0
ARC
  5
E4
100
AcDbEntity
  8
trazos
  6
ByLayer
 62
  256
370
   -1
100
AcDbCircle
 10
75.55
 20
-11.14286019535978
 40
29.65000000000001
100
AcDbArc
 50
270
 51
0
  0
CIRCLE
  5
E5
100
AcDbEntity
  8
trazos
  6
ByLayer
 62
  256
370
   -1
100
AcDbCircle
 10
95.55
 20
0
 40
5
  0
LINE
  5
E6
100
AcDbEntity
  8
trazos
  6
ByLayer
 62
  256
370
   -1
100
AcDbLine
 10
90.55
 20
6.123233995736766e-16
 11
90.55
 21
10
  0
LINE
  5
E7
100
AcDbEntity
  8
trazos
  6
ByLayer
 62
  256
370
   -1
100
AcDbLine
 10
100.5499999999998
 20
0
 11
100.5499999999998
 21
10
  0
ARC
  5
E8
100
AcDbEntity
  8
trazos
  6
ByLayer
 62
  256
370
   -1
100
AcDbCircle
 10
75.55
 20
-11.14286019535978
 40
15
100
AcDbArc
 50
270
 51
0
  0
ARC
  5
E9
100
AcDbEntity
  8
trazos
  6
ByLayer
 62
  256
370
   -1
100
AcDbCircle
 10
75.55
 20
-11.14286019535978
 40
24.99999999999983
100
AcDbArc
 50
270
 51
0
  0
DIMENSION
  5
EA
100
AcDbEntity
  8
medidas
  6
ByLayer
 62
  256
370
   -1
100
AcDbDimension
  2
*D1
 10
32.55
 20
-50
 30
0
 11
26.275
 21
-46.5625
 31
0
 70
   32
 71
    5
 72
    0
  3
Standard
 53
0
210
0
220
0
230
1
100
AcDbAlignedDimension
 13
19.99999999999999
 23
-40.79286019535979
 33
0
 14
32.55
 24
-40.79286019535979
 34
0
100
AcDbRotatedDimension
  0
DIMENSION
  5
EB
100
AcDbEntity
  8
medidas
  6
ByLayer
 62
  256
370
   -1
100
AcDbDimension
  2
*D2
 10
75.55
 20
-59
 30
0
 11
54.05
 21
-55.5625
 31
0
 70
   32
 71
    5
 72
    0
  3
Standard
 53
0
210
0
220
0
230
1
100
AcDbAlignedDimension
 13
32.55
 23
-40.79286019535979
 33
0
 14
75.55
 24
-40.79286019535979
 34
0
100
AcDbRotatedDimension
  0
DIMENSION
  5
EC
100
AcDbEntity
  8
medidas
  6
ByLayer
 62
  256
370
   -1
100
AcDbDimension
  2
*D3
 10
84
 20
-36.9178601953597
 30
0
 11
80.5625
 21
-31.14286019535974
 31
0
 70
   32
 71
    5
 72
    0
  3
Standard
 53
0
210
0
220
0
230
1
100
AcDbAlignedDimension
 13
75.55
 23
-25.36786019535977
 33
0
 14
75.55
 24
-36.9178601953597
 34
0
 50
90
100
AcDbRotatedDimension
  0
DIMENSION
  5
ED
100
AcDbEntity
  8
medidas
  6
ByLayer
 62
  256
370
   -1
100
AcDbDimension
  2
*D4
 10
9.649999999999993
 20
-21.49286019535979
 30
0
 11
-5.1185843495973e-15
 21
-18.05536019535979
 31
0
 70
   32
 71
    5
 72
    0
  3
Standard
 53
0
210
0
220
0
230
1
100
AcDbAlignedDimension
 13
-9.650000000000004
 23
-11.14286019535978
 33
0
 14
9.649999999999993
 24
-11.14286019535978
 34
0
100
AcDbRotatedDimension
  0
DIMENSION
  5
EE
100
AcDbEntity
  8
medidas
  6
ByLayer
 62
  256
370
   -1
100
AcDbDimension
  2
*D5
 10
-12.53675134594813
 20
-5.571430097679895
 30
0
 11
-15.97425134594813
 21
-4.908098180993849e-15
 31
0
 70
   32
 71
    5
 72
    0
  3
Standard
 53
0
210
0
220
0
230
1
100
AcDbAlignedDimension
 13
-9.649999999999997
 23
5.571430097679884
 33
0
 14
-9.649999999999984
 24
-5.571430097679895
 34
0
 50
90
100
AcDbRotatedDimension
  0
LINE
  5
EF
100
AcDbEntity
  8
figura
  6
ByLayer
 62
  256
370
   -1
100
AcDbLine
 10
36
 20
5.774999999999999
 11
32.55
 21
5.774999999999999
  0
LINE
  5
F0
100
AcDbEntity
  8
figura
  6
ByLayer
 62
  256
370
   -1
100
AcDbLine
 10
36
 20
-5.775
 11
32.55
 21
-5.775
  0
LINE
  5
F1
100
AcDbEntity
  8
figura
  6
ByLayer
 62
  256
370
   -1
100
AcDbLine
 10
75.55
 20
5
 11
75.55
 21
-5
  0
LINE
  5
F2
100
AcDbEntity
  8
trazos
  6
ByLayer
 62
  256
370
   -1
100
AcDbLine
 10
36.77500000000039
 20
4.999999999999996
 11
36.77500000000039
 21
15
  0
LINE
  5
F3
100
AcDbEntity
  8
figura
  6
ByLayer
 62
  256
370
   -1
100
AcDbLine
 10
36
 20
5.774999999999999
 11
36.77500000000039
 21
5
  0
LINE
  5
F4
100
AcDbEntity
  8
figura
  6
ByLayer
 62
  256
370
   -1
100
AcDbLine
 10
36.77500000000039
 20
5
 11
36.77500066198888
 21
5.774999999999999
  0
LINE
  5
F5
100
AcDbEntity
  8
figura
  6
ByLayer
 62
  256
370
   -1
100
AcDbLine
 10
36.77500066198888
 20
5.774999999999999
 11
37.55000000000079
 21
4.999999999999996
  0
LINE
  5
F6
100
AcDbEntity
  8
trazos
  6
ByLayer
 62
  256
370
   -1
100
AcDbLine
 10
37.55000000000039
 20
4.999999999999996
 11
37.55000000000039
 21
15
  0
LINE
  5
F7
100
AcDbEntity
  8
trazos
  6
ByLayer
 62
  256
370
   -1
100
AcDbLine
 10
38.32500000000039
 20
4.999999999999996
 11
38.32500000000039
 21
15
  0
LINE
  5
F8
100
AcDbEntity
  8
trazos
  6
ByLayer
 62
  256
370
   -1
100
AcDbLine
 10
39.10000000000039
 20
4.999999999999996
 11
39.10000000000039
 21
15
  0
LINE
  5
F9
100
AcDbEntity
  8
trazos
  6
ByLayer
 62
  256
370
   -1
100
AcDbLine
 10
39.87500000000038
 20
4.999999999999996
 11
39.87500000000038
 21
15
  0
LINE
  5
FA
100
AcDbEntity
  8
trazos
  6
ByLayer
 62
  256
370
   -1
100
AcDbLine
 10
40.65000000000038
 20
4.999999999999996
 11
40.65000000000038
 21
15
  0
LINE
  5
FB
100
AcDbEntity
  8
trazos
  6
ByLayer
 62
  256
370
   -1
100
AcDbLine
 10
41.42500000000038
 20
4.999999999999996
 11
41.42500000000038
 21
15
  0
LINE
  5
FC
100
AcDbEntity
  8
trazos
  6
ByLayer
 62
  256
370
   -1
100
AcDbLine
 10
42.20000000000038
 20
4.999999999999996
 11
42.20000000000038
 21
15
  0
LINE
  5
FD
100
AcDbEntity
  8
trazos
  6
ByLayer
 62
  256
370
   -1
100
AcDbLine
 10
42.97500000000038
 20
4.999999999999996
 11
42.97500000000038
 21
15
  0
LINE
  5
FE
100
AcDbEntity
  8
trazos
  6
ByLayer
 62
  256
370
   -1
100
AcDbLine
 10
43.75000000000038
 20
4.999999999999996
 11
43.75000000000038
 21
15
  0
LINE
  5
FF
100
AcDbEntity
  8
trazos
  6
ByLayer
 62
  256
370
   -1
100
AcDbLine
 10
44.52500000000038
 20
4.999999999999996
 11
44.52500000000038
 21
15
  0
LINE
  5
100
100
AcDbEntity
  8
trazos
  6
ByLayer
 62
  256
370
   -1
100
AcDbLine
 10
45.30000000000037
 20
4.999999999999996
 11
45.30000000000037
 21
15
  0
LINE
  5
101
100
AcDbEntity
  8
trazos
  6
ByLayer
 62
  256
370
   -1
100
AcDbLine
 10
46.07500000000037
 20
4.999999999999996
 11
46.07500000000037
 21
15
  0
LINE
  5
102
100
AcDbEntity
  8
trazos
  6
ByLayer
 62
  256
370
   -1
100
AcDbLine
 10
46.85000000000037
 20
4.999999999999996
 11
46.85000000000037
 21
15
  0
LINE
  5
103
100
AcDbEntity
  8
trazos
  6
ByLayer
 62
  256
370
   -1
100
AcDbLine
 10
47.62500000000037
 20
4.999999999999996
 11
47.62500000000037
 21
15
  0
LINE
  5
104
100
AcDbEntity
  8
trazos
  6
ByLayer
 62
  256
370
   -1
100
AcDbLine
 10
48.40000000000037
 20
4.999999999999996
 11
48.40000000000037
 21
15
  0
LINE
  5
105
100
AcDbEntity
  8
trazos
  6
ByLayer
 62
  256
370
   -1
100
AcDbLine
 10
49.17500000000037
 20
4.999999999999996
 11
49.17500000000037
 21
15
  0
LINE
  5
106
100
AcDbEntity
  8
trazos
  6
ByLayer
 62
  256
370
   -1
100
AcDbLine
 10
49.95000000000037
 20
4.999999999999996
 11
49.95000000000037
 21
15
  0
LINE
  5
107
100
AcDbEntity
  8
trazos
  6
ByLayer
 62
  256
370
   -1
100
AcDbLine
 10
50.72500000000036
 20
4.999999999999996
 11
50.72500000000036
 21
15
  0
LINE
  5
108
100
AcDbEntity
  8
trazos
  6
ByLayer
 62
  256
370
   -1
100
AcDbLine
 10
51.50000000000036
 20
4.999999999999996
 11
51.50000000000036
 21
15
  0
LINE
  5
109
100
AcDbEntity
  8
trazos
  6
ByLayer
 62
  256
370
   -1
100
AcDbLine
 10
52.27500000000036
 20
4.999999999999996
 11
52.27500000000036
 21
15
  0
LINE
  5
10A
100
AcDbEntity
  8
trazos
  6
ByLayer
 62
  256
370
   -1
100
AcDbLine
 10
53.05000000000036
 20
4.999999999999996
 11
53.05000000000036
 21
15
  0
LINE
  5
10B
100
AcDbEntity
  8
trazos
  6
ByLayer
 62
  256
370
   -1
100
AcDbLine
 10
53.82500000000036
 20
4.999999999999996
 11
53.82500000000036
 21
15
  0
LINE
  5
10C
100
AcDbEntity
  8
trazos
  6
ByLayer
 62
  256
370
   -1
100
AcDbLine
 10
54.60000000000036
 20
4.999999999999996
 11
54.60000000000036
 21
15
  0
LINE
  5
10D
100
AcDbEntity
  8
trazos
  6
ByLayer
 62
  256
370
   -1
100
AcDbLine
 10
55.37500000000036
 20
4.999999999999996
 11
55.37500000000036
 21
15
  0
LINE
  5
10E
100
AcDbEntity
  8
trazos
  6
ByLayer
 62
  256
370
   -1
100
AcDbLine
 10
56.15000000000035
 20
4.999999999999996
 11
56.15000000000035
 21
15
  0
LINE
  5
10F
100
AcDbEntity
  8
trazos
  6
ByLayer
 62
  256
370
   -1
100
AcDbLine
 10
56.92500000000035
 20
4.999999999999996
 11
56.92500000000035
 21
15
  0
LINE
  5
110
100
AcDbEntity
  8
trazos
  6
ByLayer
 62
  256
370
   -1
100
AcDbLine
 10
57.70000000000035
 20
4.999999999999996
 11
57.70000000000035
 21
15
  0
LINE
  5
111
100
AcDbEntity
  8
trazos
  6
ByLayer
 62
  256
370
   -1
100
AcDbLine
 10
58.47500000000035
 20
4.999999999999996
 11
58.47500000000035
 21
15
  0
LINE
  5
112
100
AcDbEntity
  8
trazos
  6
ByLayer
 62
  256
370
   -1
100
AcDbLine
 10
59.25000000000035
 20
4.999999999999996
 11
59.25000000000035
 21
15
  0
LINE
  5
113
100
AcDbEntity
  8
trazos
  6
ByLayer
 62
  256
370
   -1
100
AcDbLine
 10
60.02500000000035
 20
4.999999999999996
 11
60.02500000000035
 21
15
  0
LINE
  5
114
100
AcDbEntity
  8
trazos
  6
ByLayer
 62
  256
370
   -1
100
AcDbLine
 10
60.80000000000035
 20
4.999999999999996
 11
60.80000000000035
 21
15
  0
LINE
  5
115
100
AcDbEntity
  8
trazos
  6
ByLayer
 62
  256
370
   -1
100
AcDbLine
 10
61.57500000000034
 20
4.999999999999996
 11
61.57500000000034
 21
15
  0
LINE
  5
116
100
AcDbEntity
  8
trazos
  6
ByLayer
 62
  256
370
   -1
100
AcDbLine
 10
62.35000000000034
 20
4.999999999999996
 11
62.35000000000034
 21
15
  0
LINE
  5
117
100
AcDbEntity
  8
trazos
  6
ByLayer
 62
  256
370
   -1
100
AcDbLine
 10
63.12500000000034
 20
4.999999999999996
 11
63.12500000000034
 21
15
  0
LINE
  5
118
100
AcDbEntity
  8
trazos
  6
ByLayer
 62
  256
370
   -1
100
AcDbLine
 10
63.90000000000034
 20
4.999999999999996
 11
63.90000000000034
 21
15
  0
LINE
  5
119
100
AcDbEntity
  8
trazos
  6
ByLayer
 62
  256
370
   -1
100
AcDbLine
 10
64.67500000000034
 20
4.999999999999996
 11
64.67500000000034
 21
15
  0
LINE
  5
11A
100
AcDbEntity
  8
trazos
  6
ByLayer
 62
  256
370
   -1
100
AcDbLine
 10
65.45000000000034
 20
4.999999999999996
 11
65.45000000000034
 21
15
  0
LINE
  5
11B
100
AcDbEntity
  8
trazos
  6
ByLayer
 62
  256
370
   -1
100
AcDbLine
 10
66.22500000000035
 20
4.999999999999996
 11
66.22500000000035
 21
15
  0
LINE
  5
11C
100
AcDbEntity
  8
trazos
  6
ByLayer
 62
  256
370
   -1
100
AcDbLine
 10
67.00000000000036
 20
4.999999999999996
 11
67.00000000000036
 21
15
  0
LINE
  5
11D
100
AcDbEntity
  8
trazos
  6
ByLayer
 62
  256
370
   -1
100
AcDbLine
 10
67.77500000000036
 20
4.999999999999996
 11
67.77500000000036
 21
15
  0
LINE
  5
11E
100
AcDbEntity
  8
trazos
  6
ByLayer
 62
  256
370
   -1
100
AcDbLine
 10
68.55000000000037
 20
4.999999999999996
 11
68.55000000000037
 21
15
  0
LINE
  5
11F
100
AcDbEntity
  8
trazos
  6
ByLayer
 62
  256
370
   -1
100
AcDbLine
 10
69.32500000000036
 20
4.999999999999996
 11
69.32500000000036
 21
15
  0
LINE
  5
120
100
AcDbEntity
  8
trazos
  6
ByLayer
 62
  256
370
   -1
100
AcDbLine
 10
70.10000000000036
 20
4.999999999999996
 11
70.10000000000036
 21
15
  0
LINE
  5
121
100
AcDbEntity
  8
trazos
  6
ByLayer
 62
  256
370
   -1
100
AcDbLine
 10
70.87500000000036
 20
4.999999999999996
 11
70.87500000000036
 21
15
  0
LINE
  5
122
100
AcDbEntity
  8
trazos
  6
ByLayer
 62
  256
370
   -1
100
AcDbLine
 10
71.65000000000036
 20
4.999999999999996
 11
71.65000000000036
 21
14.99999999999999
  0
LINE
  5
123
100
AcDbEntity
  8
trazos
  6
ByLayer
 62
  256
370
   -1
100
AcDbLine
 10
72.42500000000037
 20
4.999999999999996
 11
72.42500000000037
 21
14.99999999999999
  0
LINE
  5
124
100
AcDbEntity
  8
trazos
  6
ByLayer
 62
  256
370
   -1
100
AcDbLine
 10
73.20000000000037
 20
4.999999999999996
 11
73.20000000000037
 21
14.99999999999999
  0
LINE
  5
125
100
AcDbEntity
  8
trazos
  6
ByLayer
 62
  256
370
   -1
100
AcDbLine
 10
73.97500000000036
 20
4.999999999999996
 11
73.97500000000036
 21
14.99999999999999
  0
LINE
  5
126
100
AcDbEntity
  8
trazos
  6
ByLayer
 62
  256
370
   -1
100
AcDbLine
 10
74.75000000000037
 20
4.999999999999995
 11
74.75000000000037
 21
14.99999999999999
  0
LINE
  5
127
100
AcDbEntity
  8
figura
  6
ByLayer
 62
  256
370
   -1
100
AcDbLine
 10
37.55000000000039
 20
5.000000000000399
 11
37.55000000000039
 21
5.774999999999999
  0
LINE
  5
128
100
AcDbEntity
  8
figura
  6
ByLayer
 62
  256
370
   -1
100
AcDbLine
 10
37.55000000000039
 20
5.774999999999999
 11
38.32500000000039
 21
5
  0
LINE
  5
129
100
AcDbEntity
  8
figura
  6
ByLayer
 62
  256
370
   -1
100
AcDbLine
 10
38.32500000000039
 20
5
 11
38.32500000000039
 21
5.774999999999999
  0
LINE
  5
12A
100
AcDbEntity
  8
figura
  6
ByLayer
 62
  256
370
   -1
100
AcDbLine
 10
38.32500000000039
 20
5.774999999999999
 11
39.10000000000039
 21
5
  0
LINE
  5
12B
100
AcDbEntity
  8
figura
  6
ByLayer
 62
  256
370
   -1
100
AcDbLine
 10
39.10000000000039
 20
5
 11
39.10000000000039
 21
5.774999999999999
  0
LINE
  5
12C
100
AcDbEntity
  8
figura
  6
ByLayer
 62
  256
370
   -1
100
AcDbLine
 10
39.10000000000039
 20
5.774999999999999
 11
39.87500000000038
 21
5
  0
LINE
  5
12D
100
AcDbEntity
  8
figura
  6
ByLayer
 62
  256
370
   -1
100
AcDbLine
 10
39.87500000000038
 20
5
 11
39.87500000000038
 21
5.774999999999999
  0
LINE
  5
12E
100
AcDbEntity
  8
figura
  6
ByLayer
 62
  256
370
   -1
100
AcDbLine
 10
39.87500000000038
 20
5.774999999999999
 11
40.65000000000038
 21
5
  0
LINE
  5
12F
100
AcDbEntity
  8
figura
  6
ByLayer
 62
  256
370
   -1
100
AcDbLine
 10
40.65000000000038
 20
5
 11
40.65000000000038
 21
5.774999999999999
  0
LINE
  5
130
100
AcDbEntity
  8
figura
  6
ByLayer
 62
  256
370
   -1
100
AcDbLine
 10
40.65000000000038
 20
5.774999999999999
 11
41.42500000000038
 21
5
  0
LINE
  5
131
100
AcDbEntity
  8
figura
  6
ByLayer
 62
  256
370
   -1
100
AcDbLine
 10
41.42500000000038
 20
5
 11
41.42500000000038
 21
5.774999999999999
  0
LINE
  5
132
100
AcDbEntity
  8
figura
  6
ByLayer
 62
  256
370
   -1
100
AcDbLine
 10
41.42500000000038
 20
5.774999999999999
 11
42.20000000000038
 21
5
  0
LINE
  5
133
100
AcDbEntity
  8
figura
  6
ByLayer
 62
  256
370
   -1
100
AcDbLine
 10
42.20000000000038
 20
5
 11
42.20000000000038
 21
5.774999999999999
  0
LINE
  5
134
100
AcDbEntity
  8
figura
  6
ByLayer
 62
  256
370
   -1
100
AcDbLine
 10
42.20000000000038
 20
5.774999999999999
 11
42.97500000000038
 21
5
  0
LINE
  5
135
100
AcDbEntity
  8
figura
  6
ByLayer
 62
  256
370
   -1
100
AcDbLine
 10
42.97500000000038
 20
5
 11
42.97500000000038
 21
5.774999999999999
  0
LINE
  5
136
100
AcDbEntity
  8
figura
  6
ByLayer
 62
  256
370
   -1
100
AcDbLine
 10
42.97500000000038
 20
5.774999999999999
 11
43.75000000000038
 21
5
  0
LINE
  5
137
100
AcDbEntity
  8
figura
  6
ByLayer
 62
  256
370
   -1
100
AcDbLine
 10
43.75000000000038
 20
5
 11
43.75000000000038
 21
5.774999999999999
  0
LINE
  5
138
100
AcDbEntity
  8
figura
  6
ByLayer
 62
  256
370
   -1
100
AcDbLine
 10
43.75000000000038
 20
5.774999999999999
 11
44.52500000000038
 21
5
  0
LINE
  5
139
100
AcDbEntity
  8
figura
  6
ByLayer
 62
  256
370
   -1
100
AcDbLine
 10
44.52500000000038
 20
5
 11
44.52500000000038
 21
5.774999999999999
  0
LINE
  5
13A
100
AcDbEntity
  8
figura
  6
ByLayer
 62
  256
370
   -1
100
AcDbLine
 10
44.52500000000038
 20
5.774999999999999
 11
45.30000000000037
 21
5
  0
LINE
  5
13B
100
AcDbEntity
  8
figura
  6
ByLayer
 62
  256
370
   -1
100
AcDbLine
 10
45.30000000000037
 20
5
 11
45.30000000000037
 21
5.774999999999999
  0
LINE
  5
13C
100
AcDbEntity
  8
figura
  6
ByLayer
 62
  256
370
   -1
100
AcDbLine
 10
45.30000000000037
 20
5.774999999999999
 11
46.07500000000037
 21
5
  0
LINE
  5
13D
100
AcDbEntity
  8
figura
  6
ByLayer
 62
  256
370
   -1
100
AcDbLine
 10
46.07500000000037
 20
5
 11
46.07500000000037
 21
5.774999999999999
  0
LINE
  5
13E
100
AcDbEntity
  8
figura
  6
ByLayer
 62
  256
370
   -1
100
AcDbLine
 10
46.07500000000037
 20
5.774999999999999
 11
46.85000000000037
 21
5
  0
LINE
  5
13F
100
AcDbEntity
  8
figura
  6
ByLayer
 62
  256
370
   -1
100
AcDbLine
 10
46.85000000000037
 20
5
 11
46.85000000000037
 21
5.774999999999999
  0
LINE
  5
140
100
AcDbEntity
  8
figura
  6
ByLayer
 62
  256
370
   -1
100
AcDbLine
 10
46.85000000000037
 20
5.774999999999999
 11
47.62500000000037
 21
5
  0
LINE
  5
141
100
AcDbEntity
  8
figura
  6
ByLayer
 62
  256
370
   -1
100
AcDbLine
 10
47.62500000000037
 20
5
 11
47.62500000000037
 21
5.774999999999999
  0
LINE
  5
142
100
AcDbEntity
  8
figura
  6
ByLayer
 62
  256
370
   -1
100
AcDbLine
 10
47.62500000000037
 20
5.774999999999999
 11
48.40000000000037
 21
5
  0
LINE
  5
143
100
AcDbEntity
  8
figura
  6
ByLayer
 62
  256
370
   -1
100
AcDbLine
 10
48.40000000000037
 20
5
 11
48.40000000000037
 21
5.774999999999999
  0
LINE
  5
144
100
AcDbEntity
  8
figura
  6
ByLayer
 62
  256
370
   -1
100
AcDbLine
 10
48.40000000000037
 20
5.774999999999999
 11
49.17500000000037
 21
5
  0
LINE
  5
145
100
AcDbEntity
  8
figura
  6
ByLayer
 62
  256
370
   -1
100
AcDbLine
 10
49.17500000000037
 20
5
 11
49.17500000000037
 21
5.774999999999999
  0
LINE
  5
146
100
AcDbEntity
  8
figura
  6
ByLayer
 62
  256
370
   -1
100
AcDbLine
 10
49.17500000000037
 20
5.774999999999999
 11
49.95000000000037
 21
5
  0
LINE
  5
147
100
AcDbEntity
  8
figura
  6
ByLayer
 62
  256
370
   -1
100
AcDbLine
 10
49.95000000000037
 20
5
 11
49.95000000000037
 21
5.774999999999999
  0
LINE
  5
148
100
AcDbEntity
  8
figura
  6
ByLayer
 62
  256
370
   -1
100
AcDbLine
 10
49.95000000000037
 20
5.774999999999999
 11
50.72500000000036
 21
5
  0
LINE
  5
149
100
AcDbEntity
  8
figura
  6
ByLayer
 62
  256
370
   -1
100
AcDbLine
 10
50.72500000000036
 20
5
 11
50.72500000000036
 21
5.774999999999999
  0
LINE
  5
14A
100
AcDbEntity
  8
figura
  6
ByLayer
 62
  256
370
   -1
100
AcDbLine
 10
50.72500000000036
 20
5.774999999999999
 11
51.50000000000036
 21
5
  0
LINE
  5
14B
100
AcDbEntity
  8
figura
  6
ByLayer
 62
  256
370
   -1
100
AcDbLine
 10
51.50000000000036
 20
5
 11
51.50000000000036
 21
5.774999999999999
  0
LINE
  5
14C
100
AcDbEntity
  8
figura
  6
ByLayer
 62
  256
370
   -1
100
AcDbLine
 10
51.50000000000036
 20
5.774999999999999
 11
52.27500000000036
 21
5
  0
LINE
  5
14D
100
AcDbEntity
  8
figura
  6
ByLayer
 62
  256
370
   -1
100
AcDbLine
 10
52.27500000000036
 20
5
 11
52.27500000000036
 21
5.774999999999999
  0
LINE
  5
14E
100
AcDbEntity
  8
figura
  6
ByLayer
 62
  256
370
   -1
100
AcDbLine
 10
52.27500000000036
 20
5.774999999999999
 11
53.05000000000037
 21
5
  0
LINE
  5
14F
100
AcDbEntity
  8
figura
  6
ByLayer
 62
  256
370
   -1
100
AcDbLine
 10
53.05000000000037
 20
5
 11
53.05000000000037
 21
5.774999999999999
  0
LINE
  5
150
100
AcDbEntity
  8
figura
  6
ByLayer
 62
  256
370
   -1
100
AcDbLine
 10
53.05000000000037
 20
5.774999999999999
 11
53.82500000000037
 21
5
  0
LINE
  5
151
100
AcDbEntity
  8
figura
  6
ByLayer
 62
  256
370
   -1
100
AcDbLine
 10
53.82500000000037
 20
5
 11
53.82500000000037
 21
5.774999999999999
  0
LINE
  5
152
100
AcDbEntity
  8
figura
  6
ByLayer
 62
  256
370
   -1
100
AcDbLine
 10
53.82500000000037
 20
5.774999999999999
 11
54.60000000000035
 21
5
  0
LINE
  5
153
100
AcDbEntity
  8
figura
  6
ByLayer
 62
  256
370
   -1
100
AcDbLine
 10
54.60000000000035
 20
5
 11
54.60000000000035
 21
5.774999999999999
  0
LINE
  5
154
100
AcDbEntity
  8
figura
  6
ByLayer
 62
  256
370
   -1
100
AcDbLine
 10
54.60000000000035
 20
5.774999999999999
 11
55.37500000000036
 21
5
  0
LINE
  5
155
100
AcDbEntity
  8
figura
  6
ByLayer
 62
  256
370
   -1
100
AcDbLine
 10
55.37500000000036
 20
5
 11
55.37500000000036
 21
5.774999999999999
  0
LINE
  5
156
100
AcDbEntity
  8
figura
  6
ByLayer
 62
  256
370
   -1
100
AcDbLine
 10
55.37500000000036
 20
5.774999999999999
 11
56.15000000000035
 21
5
  0
LINE
  5
157
100
AcDbEntity
  8
figura
  6
ByLayer
 62
  256
370
   -1
100
AcDbLine
 10
56.15000000000035
 20
5
 11
56.15000000000035
 21
5.774999999999999
  0
LINE
  5
158
100
AcDbEntity
  8
figura
  6
ByLayer
 62
  256
370
   -1
100
AcDbLine
 10
56.15000000000035
 20
5.774999999999999
 11
56.92500000000035
 21
5
  0
LINE
  5
159
100
AcDbEntity
  8
figura
  6
ByLayer
 62
  256
370
   -1
100
AcDbLine
 10
56.92500000000035
 20
5
 11
56.92500000000035
 21
5.774999999999999
  0
LINE
  5
15A
100
AcDbEntity
  8
figura
  6
ByLayer
 62
  256
370
   -1
100
AcDbLine
 10
56.92500000000035
 20
5.774999999999999
 11
57.70000000000035
 21
5
  0
LINE
  5
15B
100
AcDbEntity
  8
figura
  6
ByLayer
 62
  256
370
   -1
100
AcDbLine
 10
57.70000000000035
 20
5
 11
57.70000000000035
 21
5.774999999999999
  0
LINE
  5
15C
100
AcDbEntity
  8
figura
  6
ByLayer
 62
  256
370
   -1
100
AcDbLine
 10
57.70000000000035
 20
5.774999999999999
 11
58.47500000000035
 21
5
  0
LINE
  5
15D
100
AcDbEntity
  8
figura
  6
ByLayer
 62
  256
370
   -1
100
AcDbLine
 10
58.47500000000035
 20
5
 11
58.47500000000035
 21
5.774999999999999
  0
LINE
  5
15E
100
AcDbEntity
  8
figura
  6
ByLayer
 62
  256
370
   -1
100
AcDbLine
 10
58.47500000000035
 20
5.774999999999999
 11
59.25000000000036
 21
5
  0
LINE
  5
15F
100
AcDbEntity
  8
figura
  6
ByLayer
 62
  256
370
   -1
100
AcDbLine
 10
59.25000000000036
 20
5
 11
59.25000000000036
 21
5.774999999999999
  0
LINE
  5
160
100
AcDbEntity
  8
figura
  6
ByLayer
 62
  256
370
   -1
100
AcDbLine
 10
59.25000000000036
 20
5.774999999999999
 11
60.02500000000034
 21
5
  0
LINE
  5
161
100
AcDbEntity
  8
figura
  6
ByLayer
 62
  256
370
   -1
100
AcDbLine
 10
60.02500000000034
 20
5
 11
60.02500000000034
 21
5.774999999999999
  0
LINE
  5
162
100
AcDbEntity
  8
figura
  6
ByLayer
 62
  256
370
   -1
100
AcDbLine
 10
60.02500000000034
 20
5.774999999999999
 11
60.80000000000034
 21
5
  0
LINE
  5
163
100
AcDbEntity
  8
figura
  6
ByLayer
 62
  256
370
   -1
100
AcDbLine
 10
60.80000000000034
 20
5
 11
60.80000000000034
 21
5.774999999999999
  0
LINE
  5
164
100
AcDbEntity
  8
figura
  6
ByLayer
 62
  256
370
   -1
100
AcDbLine
 10
60.80000000000034
 20
5.774999999999999
 11
61.57500000000034
 21
5
  0
LINE
  5
165
100
AcDbEntity
  8
figura
  6
ByLayer
 62
  256
370
   -1
100
AcDbLine
 10
61.57500000000034
 20
5
 11
61.57500000000034
 21
5.774999999999999
  0
LINE
  5
166
100
AcDbEntity
  8
figura
  6
ByLayer
 62
  256
370
   -1
100
AcDbLine
 10
61.57500000000034
 20
5.774999999999999
 11
62.35000000000034
 21
5
  0
LINE
  5
167
100
AcDbEntity
  8
figura
  6
ByLayer
 62
  256
370
   -1
100
AcDbLine
 10
62.35000000000034
 20
5
 11
62.35000000000034
 21
5.774999999999999
  0
LINE
  5
168
100
AcDbEntity
  8
figura
  6
ByLayer
 62
  256
370
   -1
100
AcDbLine
 10
62.35000000000034
 20
5.774999999999999
 11
63.12500000000034
 21
5
  0
LINE
  5
169
100
AcDbEntity
  8
figura
  6
ByLayer
 62
  256
370
   -1
100
AcDbLine
 10
63.12500000000034
 20
5
 11
63.12500000000034
 21
5.774999999999999
  0
LINE
  5
16A
100
AcDbEntity
  8
figura
  6
ByLayer
 62
  256
370
   -1
100
AcDbLine
 10
63.12500000000034
 20
5.774999999999999
 11
63.90000000000034
 21
5
  0
LINE
  5
16B
100
AcDbEntity
  8
figura
  6
ByLayer
 62
  256
370
   -1
100
AcDbLine
 10
63.90000000000034
 20
5
 11
63.90000000000034
 21
5.774999999999999
  0
LINE
  5
16C
100
AcDbEntity
  8
figura
  6
ByLayer
 62
  256
370
   -1
100
AcDbLine
 10
63.90000000000034
 20
5.774999999999999
 11
64.67500000000034
 21
5
  0
LINE
  5
16D
100
AcDbEntity
  8
figura
  6
ByLayer
 62
  256
370
   -1
100
AcDbLine
 10
64.67500000000034
 20
5
 11
64.67500000000034
 21
5.774999999999999
  0
LINE
  5
16E
100
AcDbEntity
  8
figura
  6
ByLayer
 62
  256
370
   -1
100
AcDbLine
 10
64.67500000000034
 20
5.774999999999999
 11
65.45000000000034
 21
5
  0
LINE
  5
16F
100
AcDbEntity
  8
figura
  6
ByLayer
 62
  256
370
   -1
100
AcDbLine
 10
65.45000000000034
 20
5
 11
65.45000000000034
 21
5.774999999999999
  0
LINE
  5
170
100
AcDbEntity
  8
figura
  6
ByLayer
 62
  256
370
   -1
100
AcDbLine
 10
65.45000000000034
 20
5.774999999999999
 11
66.22500000000035
 21
5
  0
LINE
  5
171
100
AcDbEntity
  8
figura
  6
ByLayer
 62
  256
370
   -1
100
AcDbLine
 10
66.22500000000035
 20
5
 11
66.22500000000035
 21
5.774999999999999
  0
LINE
  5
172
100
AcDbEntity
  8
figura
  6
ByLayer
 62
  256
370
   -1
100
AcDbLine
 10
66.22500000000035
 20
5.774999999999999
 11
67.00000000000036
 21
5
  0
LINE
  5
173
100
AcDbEntity
  8
figura
  6
ByLayer
 62
  256
370
   -1
100
AcDbLine
 10
67.00000000000036
 20
5
 11
67.00000000000036
 21
5.774999999999999
  0
LINE
  5
174
100
AcDbEntity
  8
figura
  6
ByLayer
 62
  256
370
   -1
100
AcDbLine
 10
67.00000000000036
 20
5.774999999999999
 11
67.77500000000036
 21
5
  0
LINE
  5
175
100
AcDbEntity
  8
figura
  6
ByLayer
 62
  256
370
   -1
100
AcDbLine
 10
67.77500000000036
 20
5
 11
67.77500000000036
 21
5.774999999999999
  0
LINE
  5
176
100
AcDbEntity
  8
figura
  6
ByLayer
 62
  256
370
   -1
100
AcDbLine
 10
67.77500000000036
 20
5.774999999999999
 11
68.55000000000037
 21
5
  0
LINE
  5
177
100
AcDbEntity
  8
figura
  6
ByLayer
 62
  256
370
   -1
100
AcDbLine
 10
68.55000000000037
 20
5
 11
68.55000000000037
 21
5.774999999999999
  0
LINE
  5
178
100
AcDbEntity
  8
figura
  6
ByLayer
 62
  256
370
   -1
100
AcDbLine
 10
68.55000000000037
 20
5.774999999999999
 11
69.32500000000036
 21
5
  0
LINE
  5
179
100
AcDbEntity
  8
figura
  6
ByLayer
 62
  256
370
   -1
100
AcDbLine
 10
69.32500000000036
 20
5
 11
69.32500000000036
 21
5.774999999999999
  0
LINE
  5
17A
100
AcDbEntity
  8
figura
  6
ByLayer
 62
  256
370
   -1
100
AcDbLine
 10
69.32500000000036
 20
5.774999999999999
 11
70.10000000000036
 21
5
  0
LINE
  5
17B
100
AcDbEntity
  8
figura
  6
ByLayer
 62
  256
370
   -1
100
AcDbLine
 10
70.10000000000036
 20
5
 11
70.10000000000036
 21
5.774999999999999
  0
LINE
  5
17C
100
AcDbEntity
  8
figura
  6
ByLayer
 62
  256
370
   -1
100
AcDbLine
 10
70.10000000000036
 20
5.774999999999999
 11
70.87500000000036
 21
5
  0
LINE
  5
17D
100
AcDbEntity
  8
figura
  6
ByLayer
 62
  256
370
   -1
100
AcDbLine
 10
70.87500000000036
 20
5
 11
70.87500000000036
 21
5.774999999999999
  0
LINE
  5
17E
100
AcDbEntity
  8
figura
  6
ByLayer
 62
  256
370
   -1
100
AcDbLine
 10
70.87500000000036
 20
5.774999999999999
 11
71.65000000000036
 21
5
  0
LINE
  5
17F
100
AcDbEntity
  8
figura
  6
ByLayer
 62
  256
370
   -1
100
AcDbLine
 10
71.65000000000036
 20
5
 11
71.65000000000036
 21
5.774999999999999
  0
LINE
  5
180
100
AcDbEntity
  8
figura
  6
ByLayer
 62
  256
370
   -1
100
AcDbLine
 10
71.65000000000036
 20
5.774999999999999
 11
72.42500000000037
 21
5
  0
LINE
  5
181
100
AcDbEntity
  8
figura
  6
ByLayer
 62
  256
370
   -1
100
AcDbLine
 10
72.42500000000037
 20
5
 11
72.42500000000037
 21
5.774999999999999
  0
LINE
  5
182
100
AcDbEntity
  8
figura
  6
ByLayer
 62
  256
370
   -1
100
AcDbLine
 10
72.42500000000037
 20
5.774999999999999
 11
73.20000000000037
 21
5
  0
LINE
  5
183
100
AcDbEntity
  8
figura
  6
ByLayer
 62
  256
370
   -1
100
AcDbLine
 10
73.20000000000037
 20
5
 11
73.20000000000037
 21
5.774999999999999
  0
LINE
  5
184
100
AcDbEntity
  8
figura
  6
ByLayer
 62
  256
370
   -1
100
AcDbLine
 10
73.20000000000037
 20
5.774999999999999
 11
73.97500000000036
 21
5
  0
LINE
  5
185
100
AcDbEntity
  8
figura
  6
ByLayer
 62
  256
370
   -1
100
AcDbLine
 10
73.97500000000036
 20
5
 11
73.97500000000036
 21
5.774999999999999
  0
LINE
  5
186
100
AcDbEntity
  8
figura
  6
ByLayer
 62
  256
370
   -1
100
AcDbLine
 10
73.97500000000036
 20
5.774999999999999
 11
74.75000000000037
 21
5
  0
LINE
  5
187
100
AcDbEntity
  8
figura
  6
ByLayer
 62
  256
370
   -1
100
AcDbLine
 10
74.75000000000037
 20
5
 11
74.75000000000037
 21
5.774999999999999
  0
LINE
  5
188
100
AcDbEntity
  8
figura
  6
ByLayer
 62
  256
370
   -1
100
AcDbLine
 10
74.75000000000037
 20
5.774999999999999
 11
75.55
 21
5
  0
LINE
  5
189
100
AcDbEntity
  8
figura
  6
ByLayer
 62
  256
370
   -1
100
AcDbLine
 10
36
 20
-5.774999999999999
 11
36.77500000000039
 21
-5
  0
LINE
  5
18A
100
AcDbEntity
  8
figura
  6
ByLayer
 62
  256
370
   -1
100
AcDbLine
 10
36.77500000000039
 20
-5
 11
36.77500000000039
 21
-5.775
  0
LINE
  5
18B
100
AcDbEntity
  8
figura
  6
ByLayer
 62
  256
370
   -1
100
AcDbLine
 10
36.77500000000039
 20
-5.775
 11
37.55000000000039
 21
-5
  0
LINE
  5
18C
100
AcDbEntity
  8
figura
  6
ByLayer
 62
  256
370
   -1
100
AcDbLine
 10
37.55000000000039
 20
-5
 11
37.55000000000039
 21
-5.775
  0
LINE
  5
18D
100
AcDbEntity
  8
figura
  6
ByLayer
 62
  256
370
   -1
100
AcDbLine
 10
37.55000000000039
 20
-5.775
 11
38.32500000000039
 21
-5
  0
LINE
  5
18E
100
AcDbEntity
  8
figura
  6
ByLayer
 62
  256
370
   -1
100
AcDbLine
 10
38.32500000000039
 20
-5
 11
38.32500000000039
 21
-5.775
  0
LINE
  5
18F
100
AcDbEntity
  8
figura
  6
ByLayer
 62
  256
370
   -1
100
AcDbLine
 10
38.32500000000039
 20
-5.775
 11
39.10000000000039
 21
-5
  0
LINE
  5
190
100
AcDbEntity
  8
figura
  6
ByLayer
 62
  256
370
   -1
100
AcDbLine
 10
39.10000000000039
 20
-5
 11
39.10000000000039
 21
-5.775
  0
LINE
  5
191
100
AcDbEntity
  8
figura
  6
ByLayer
 62
  256
370
   -1
100
AcDbLine
 10
39.10000000000039
 20
-5.775
 11
39.87500000000038
 21
-5
  0
LINE
  5
192
100
AcDbEntity
  8
figura
  6
ByLayer
 62
  256
370
   -1
100
AcDbLine
 10
36.77500000000039
 20
5
 11
37.55000000000039
 21
-5
  0
LINE
  5
193
100
AcDbEntity
  8
figura
  6
ByLayer
 62
  256
370
   -1
100
AcDbLine
 10
36
 20
5
 11
36.77500000000039
 21
-5
  0
LINE
  5
194
100
AcDbEntity
  8
figura
  6
ByLayer
 62
  256
370
   -1
100
AcDbLine
 10
37.55000000000039
 20
5.0000000000004
 11
38.32500000000039
 21
-5
  0
LINE
  5
195
100
AcDbEntity
  8
figura
  6
ByLayer
 62
  256
370
   -1
100
AcDbLine
 10
38.32500000000039
 20
5
 11
39.10000000000039
 21
-5
  0
LINE
  5
196
100
AcDbEntity
  8
figura
  6
ByLayer
 62
  256
370
   -1
100
AcDbLine
 10
39.09768301023178
 20
5.059882933292931
 11
39.87268301023177
 21
-4.940117066707069
  0
LINE
  5
197
100
AcDbEntity
  8
figura
  6
ByLayer
 62
  256
370
   -1
100
AcDbLine
 10
39.87500000000038
 20
5
 11
40.65000000000038
 21
-5
  0
LINE
  5
198
100
AcDbEntity
  8
figura
  6
ByLayer
 62
  256
370
   -1
100
AcDbLine
 10
40.65000000000038
 20
5
 11
41.42500000000038
 21
-5
  0
LINE
  5
199
100
AcDbEntity
  8
figura
  6
ByLayer
 62
  256
370
   -1
100
AcDbLine
 10
39.87500000000038
 20
-5
 11
39.87500000000038
 21
-5.775
  0
LINE
  5
19A
100
AcDbEntity
  8
figura
  6
ByLayer
 62
  256
370
   -1
100
AcDbLine
 10
39.87500000000038
 20
-5.775
 11
40.65000000000038
 21
-5.000000000000036
  0
LINE
  5
19B
100
AcDbEntity
  8
figura
  6
ByLayer
 62
  256
370
   -1
100
AcDbLine
 10
40.65000000000038
 20
-5.000000000000036
 11
40.65000000000038
 21
-5.775
  0
LINE
  5
19C
100
AcDbEntity
  8
figura
  6
ByLayer
 62
  256
370
   -1
100
AcDbLine
 10
40.65000000000038
 20
-5.775
 11
41.42500000000038
 21
-5.000000000000083
  0
LINE
  5
19D
100
AcDbEntity
  8
figura
  6
ByLayer
 62
  256
370
   -1
100
AcDbLine
 10
41.42500000000038
 20
-5.000000000000083
 11
41.42500000000038
 21
-5.775
  0
LINE
  5
19E
100
AcDbEntity
  8
figura
  6
ByLayer
 62
  256
370
   -1
100
AcDbLine
 10
41.42500000000038
 20
-5.775
 11
42.20000000000038
 21
-5
  0
LINE
  5
19F
100
AcDbEntity
  8
figura
  6
ByLayer
 62
  256
370
   -1
100
AcDbLine
 10
42.20000000000038
 20
-5
 11
42.20000000000038
 21
-5.775
  0
LINE
  5
1A0
100
AcDbEntity
  8
figura
  6
ByLayer
 62
  256
370
   -1
100
AcDbLine
 10
42.20000000000038
 20
-5.775
 11
42.97500000000038
 21
-5
  0
LINE
  5
1A1
100
AcDbEntity
  8
figura
  6
ByLayer
 62
  256
370
   -1
100
AcDbLine
 10
42.97500000000038
 20
-5
 11
42.97500000000038
 21
-5.775
  0
LINE
  5
1A2
100
AcDbEntity
  8
figura
  6
ByLayer
 62
  256
370
   -1
100
AcDbLine
 10
42.97500000000038
 20
-5.775
 11
43.75000000000038
 21
-5
  0
LINE
  5
1A3
100
AcDbEntity
  8
figura
  6
ByLayer
 62
  256
370
   -1
100
AcDbLine
 10
43.75000000000038
 20
-5
 11
43.75000000000038
 21
-5.775
  0
LINE
  5
1A4
100
AcDbEntity
  8
figura
  6
ByLayer
 62
  256
370
   -1
100
AcDbLine
 10
43.75000000000038
 20
-5.775
 11
44.52500000000038
 21
-5
  0
LINE
  5
1A5
100
AcDbEntity
  8
figura
  6
ByLayer
 62
  256
370
   -1
100
AcDbLine
 10
44.52500000000038
 20
-5
 11
44.52500000000038
 21
-5.775
  0
LINE
  5
1A6
100
AcDbEntity
  8
figura
  6
ByLayer
 62
  256
370
   -1
100
AcDbLine
 10
44.52500000000038
 20
-5.775
 11
45.30000000000037
 21
-5
  0
LINE
  5
1A7
100
AcDbEntity
  8
figura
  6
ByLayer
 62
  256
370
   -1
100
AcDbLine
 10
45.30000000000037
 20
-5
 11
45.30000000000037
 21
-5.775
  0
LINE
  5
1A8
100
AcDbEntity
  8
figura
  6
ByLayer
 62
  256
370
   -1
100
AcDbLine
 10
45.30000000000037
 20
-5.775
 11
46.07500000000037
 21
-5
  0
LINE
  5
1A9
100
AcDbEntity
  8
figura
  6
ByLayer
 62
  256
370
   -1
100
AcDbLine
 10
46.07500000000037
 20
-5
 11
46.07500000000037
 21
-5.775
  0
LINE
  5
1AA
100
AcDbEntity
  8
figura
  6
ByLayer
 62
  256
370
   -1
100
AcDbLine
 10
46.07500000000037
 20
-5.775
 11
46.85000000000037
 21
-5
  0
LINE
  5
1AB
100
AcDbEntity
  8
figura
  6
ByLayer
 62
  256
370
   -1
100
AcDbLine
 10
41.42500000000038
 20
5
 11
42.20000000000038
 21
-5
  0
LINE
  5
1AC
100
AcDbEntity
  8
figura
  6
ByLayer
 62
  256
370
   -1
100
AcDbLine
 10
42.20000000000038
 20
5
 11
42.97500000000038
 21
-5
  0
LINE
  5
1AD
100
AcDbEntity
  8
figura
  6
ByLayer
 62
  256
370
   -1
100
AcDbLine
 10
42.97500000000038
 20
5
 11
43.75000000000038
 21
-5
  0
LINE
  5
1AE
100
AcDbEntity
  8
figura
  6
ByLayer
 62
  256
370
   -1
100
AcDbLine
 10
43.75000000000038
 20
5
 11
44.52500000000038
 21
-5
  0
LINE
  5
1AF
100
AcDbEntity
  8
figura
  6
ByLayer
 62
  256
370
   -1
100
AcDbLine
 10
44.52500000000038
 20
5
 11
45.30000000000038
 21
-5
  0
LINE
  5
1B0
100
AcDbEntity
  8
figura
  6
ByLayer
 62
  256
370
   -1
100
AcDbLine
 10
45.30000000000037
 20
5
 11
46.07500000000038
 21
-5
  0
LINE
  5
1B1
100
AcDbEntity
  8
figura
  6
ByLayer
 62
  256
370
   -1
100
AcDbLine
 10
46.07500000000037
 20
5
 11
46.85000000000037
 21
-5
  0
LINE
  5
1B2
100
AcDbEntity
  8
figura
  6
ByLayer
 62
  256
370
   -1
100
AcDbLine
 10
46.85000000000037
 20
-5
 11
46.85000000000037
 21
-5.775
  0
LINE
  5
1B3
100
AcDbEntity
  8
figura
  6
ByLayer
 62
  256
370
   -1
100
AcDbLine
 10
46.85000000000037
 20
-5.775
 11
47.62500000000037
 21
-5
  0
LINE
  5
1B4
100
AcDbEntity
  8
figura
  6
ByLayer
 62
  256
370
   -1
100
AcDbLine
 10
47.62500000000037
 20
-5
 11
47.62500000000037
 21
-5.775
  0
LINE
  5
1B5
100
AcDbEntity
  8
figura
  6
ByLayer
 62
  256
370
   -1
100
AcDbLine
 10
47.62500000000037
 20
-5.775
 11
48.40000000000037
 21
-5
  0
LINE
  5
1B6
100
AcDbEntity
  8
figura
  6
ByLayer
 62
  256
370
   -1
100
AcDbLine
 10
48.40000000000037
 20
-5
 11
48.40000000000037
 21
-5.775
  0
LINE
  5
1B7
100
AcDbEntity
  8
figura
  6
ByLayer
 62
  256
370
   -1
100
AcDbLine
 10
48.40000000000037
 20
-5.775
 11
49.17500000000037
 21
-5
  0
LINE
  5
1B8
100
AcDbEntity
  8
figura
  6
ByLayer
 62
  256
370
   -1
100
AcDbLine
 10
49.17500000000037
 20
-5
 11
49.17500000000037
 21
-5.775
  0
LINE
  5
1B9
100
AcDbEntity
  8
figura
  6
ByLayer
 62
  256
370
   -1
100
AcDbLine
 10
49.17500000000037
 20
-5.775
 11
49.95000000000037
 21
-5
  0
LINE
  5
1BA
100
AcDbEntity
  8
figura
  6
ByLayer
 62
  256
370
   -1
100
AcDbLine
 10
49.95000000000037
 20
-5
 11
49.95000000000037
 21
-5.775
  0
LINE
  5
1BB
100
AcDbEntity
  8
figura
  6
ByLayer
 62
  256
370
   -1
100
AcDbLine
 10
49.95000000000037
 20
-5.775
 11
50.72500000000036
 21
-5
  0
LINE
  5
1BC
100
AcDbEntity
  8
figura
  6
ByLayer
 62
  256
370
   -1
100
AcDbLine
 10
50.72500000000036
 20
-5
 11
50.72500000000036
 21
-5.775
  0
LINE
  5
1BD
100
AcDbEntity
  8
figura
  6
ByLayer
 62
  256
370
   -1
100
AcDbLine
 10
50.72500000000036
 20
-5.775
 11
51.50000000000036
 21
-5
  0
LINE
  5
1BE
100
AcDbEntity
  8
figura
  6
ByLayer
 62
  256
370
   -1
100
AcDbLine
 10
46.85000000000037
 20
5
 11
47.62500000000037
 21
-5
  0
LINE
  5
1BF
100
AcDbEntity
  8
figura
  6
ByLayer
 62
  256
370
   -1
100
AcDbLine
 10
47.62500000000037
 20
5
 11
48.40000000000037
 21
-5
  0
LINE
  5
1C0
100
AcDbEntity
  8
figura
  6
ByLayer
 62
  256
370
   -1
100
AcDbLine
 10
48.40000000000037
 20
5
 11
49.17500000000037
 21
-5
  0
LINE
  5
1C1
100
AcDbEntity
  8
figura
  6
ByLayer
 62
  256
370
   -1
100
AcDbLine
 10
51.50000000000036
 20
-5
 11
51.50000000000036
 21
-5.775
  0
LINE
  5
1C2
100
AcDbEntity
  8
figura
  6
ByLayer
 62
  256
370
   -1
100
AcDbLine
 10
51.50000000000036
 20
-5.775
 11
52.27500000000036
 21
-5
  0
LINE
  5
1C3
100
AcDbEntity
  8
figura
  6
ByLayer
 62
  256
370
   -1
100
AcDbLine
 10
52.27500000000036
 20
-5
 11
52.27500000000036
 21
-5.775
  0
LINE
  5
1C4
100
AcDbEntity
  8
figura
  6
ByLayer
 62
  256
370
   -1
100
AcDbLine
 10
52.27500000000036
 20
-5.775
 11
53.05000000000037
 21
-5
  0
LINE
  5
1C5
100
AcDbEntity
  8
figura
  6
ByLayer
 62
  256
370
   -1
100
AcDbLine
 10
53.05000000000037
 20
-5
 11
53.05000000000037
 21
-5.775
  0
LINE
  5
1C6
100
AcDbEntity
  8
figura
  6
ByLayer
 62
  256
370
   -1
100
AcDbLine
 10
53.05000000000037
 20
-5.775
 11
53.82500000000037
 21
-5
  0
LINE
  5
1C7
100
AcDbEntity
  8
figura
  6
ByLayer
 62
  256
370
   -1
100
AcDbLine
 10
53.82500000000037
 20
-5
 11
53.82500000000037
 21
-5.775
  0
LINE
  5
1C8
100
AcDbEntity
  8
figura
  6
ByLayer
 62
  256
370
   -1
100
AcDbLine
 10
53.82500000000037
 20
-5.775
 11
54.60000000000035
 21
-5
  0
LINE
  5
1C9
100
AcDbEntity
  8
figura
  6
ByLayer
 62
  256
370
   -1
100
AcDbLine
 10
54.60000000000035
 20
-5
 11
54.60000000000035
 21
-5.775
  0
LINE
  5
1CA
100
AcDbEntity
  8
figura
  6
ByLayer
 62
  256
370
   -1
100
AcDbLine
 10
54.60000000000035
 20
-5.775
 11
55.37500000000036
 21
-5
  0
LINE
  5
1CB
100
AcDbEntity
  8
figura
  6
ByLayer
 62
  256
370
   -1
100
AcDbLine
 10
55.37500000000036
 20
-5
 11
55.37500000000036
 21
-5.775
  0
LINE
  5
1CC
100
AcDbEntity
  8
figura
  6
ByLayer
 62
  256
370
   -1
100
AcDbLine
 10
55.37500000000036
 20
-5.775
 11
56.15000000000035
 21
-5
  0
LINE
  5
1CD
100
AcDbEntity
  8
figura
  6
ByLayer
 62
  256
370
   -1
100
AcDbLine
 10
56.15000000000035
 20
-5
 11
56.15000000000035
 21
-5.775
  0
LINE
  5
1CE
100
AcDbEntity
  8
figura
  6
ByLayer
 62
  256
370
   -1
100
AcDbLine
 10
56.15000000000035
 20
-5.775
 11
56.92500000000035
 21
-5
  0
LINE
  5
1CF
100
AcDbEntity
  8
figura
  6
ByLayer
 62
  256
370
   -1
100
AcDbLine
 10
56.92500000000035
 20
-5
 11
56.92500000000035
 21
-5.775
  0
LINE
  5
1D0
100
AcDbEntity
  8
figura
  6
ByLayer
 62
  256
370
   -1
100
AcDbLine
 10
56.92500000000035
 20
-5.775
 11
57.70000000000035
 21
-5
  0
LINE
  5
1D1
100
AcDbEntity
  8
figura
  6
ByLayer
 62
  256
370
   -1
100
AcDbLine
 10
57.70000000000035
 20
-5
 11
57.70000000000035
 21
-5.775
  0
LINE
  5
1D2
100
AcDbEntity
  8
figura
  6
ByLayer
 62
  256
370
   -1
100
AcDbLine
 10
57.70000000000035
 20
-5.775
 11
58.47500000000035
 21
-5
  0
LINE
  5
1D3
100
AcDbEntity
  8
figura
  6
ByLayer
 62
  256
370
   -1
100
AcDbLine
 10
58.47500000000036
 20
-5
 11
58.47500000000035
 21
-5.775
  0
LINE
  5
1D4
100
AcDbEntity
  8
figura
  6
ByLayer
 62
  256
370
   -1
100
AcDbLine
 10
58.47500000000035
 20
-5.775
 11
59.25000000000036
 21
-5
  0
LINE
  5
1D5
100
AcDbEntity
  8
figura
  6
ByLayer
 62
  256
370
   -1
100
AcDbLine
 10
59.25000000000036
 20
-5
 11
59.25000000000036
 21
-5.775
  0
LINE
  5
1D6
100
AcDbEntity
  8
figura
  6
ByLayer
 62
  256
370
   -1
100
AcDbLine
 10
59.25000000000036
 20
-5.775
 11
60.02500000000034
 21
-5
  0
LINE
  5
1D7
100
AcDbEntity
  8
figura
  6
ByLayer
 62
  256
370
   -1
100
AcDbLine
 10
60.02500000000034
 20
-5
 11
60.02500000000034
 21
-5.775
  0
LINE
  5
1D8
100
AcDbEntity
  8
figura
  6
ByLayer
 62
  256
370
   -1
100
AcDbLine
 10
60.02500000000034
 20
-5.775
 11
60.80000000000034
 21
-5
  0
LINE
  5
1D9
100
AcDbEntity
  8
figura
  6
ByLayer
 62
  256
370
   -1
100
AcDbLine
 10
60.80000000000034
 20
-5
 11
60.80000000000034
 21
-5.775
  0
LINE
  5
1DA
100
AcDbEntity
  8
figura
  6
ByLayer
 62
  256
370
   -1
100
AcDbLine
 10
60.80000000000034
 20
-5.775
 11
61.57500000000034
 21
-5
  0
LINE
  5
1DB
100
AcDbEntity
  8
figura
  6
ByLayer
 62
  256
370
   -1
100
AcDbLine
 10
61.57500000000034
 20
-5
 11
61.57500000000034
 21
-5.775
  0
LINE
  5
1DC
100
AcDbEntity
  8
figura
  6
ByLayer
 62
  256
370
   -1
100
AcDbLine
 10
61.57500000000034
 20
-5.775
 11
62.35000000000034
 21
-5
  0
LINE
  5
1DD
100
AcDbEntity
  8
figura
  6
ByLayer
 62
  256
370
   -1
100
AcDbLine
 10
62.35000000000034
 20
-5
 11
62.35000000000034
 21
-5.775
  0
LINE
  5
1DE
100
AcDbEntity
  8
figura
  6
ByLayer
 62
  256
370
   -1
100
AcDbLine
 10
62.35000000000034
 20
-5.775
 11
63.12500000000034
 21
-5
  0
LINE
  5
1DF
100
AcDbEntity
  8
figura
  6
ByLayer
 62
  256
370
   -1
100
AcDbLine
 10
63.12500000000034
 20
-5
 11
63.12500000000034
 21
-5.775
  0
LINE
  5
1E0
100
AcDbEntity
  8
figura
  6
ByLayer
 62
  256
370
   -1
100
AcDbLine
 10
63.12500000000034
 20
-5.775
 11
63.90000000000034
 21
-5
  0
LINE
  5
1E1
100
AcDbEntity
  8
figura
  6
ByLayer
 62
  256
370
   -1
100
AcDbLine
 10
63.90000000000034
 20
-5
 11
63.90000000000034
 21
-5.775
  0
LINE
  5
1E2
100
AcDbEntity
  8
figura
  6
ByLayer
 62
  256
370
   -1
100
AcDbLine
 10
63.90000000000034
 20
-5.775
 11
64.67500000000034
 21
-5
  0
LINE
  5
1E3
100
AcDbEntity
  8
figura
  6
ByLayer
 62
  256
370
   -1
100
AcDbLine
 10
64.67500000000034
 20
-5
 11
64.67500000000034
 21
-5.775
  0
LINE
  5
1E4
100
AcDbEntity
  8
figura
  6
ByLayer
 62
  256
370
   -1
100
AcDbLine
 10
64.67500000000034
 20
-5.775
 11
65.45000000000034
 21
-5
  0
LINE
  5
1E5
100
AcDbEntity
  8
figura
  6
ByLayer
 62
  256
370
   -1
100
AcDbLine
 10
65.45000000000034
 20
-5
 11
65.45000000000034
 21
-5.775
  0
LINE
  5
1E6
100
AcDbEntity
  8
figura
  6
ByLayer
 62
  256
370
   -1
100
AcDbLine
 10
65.45000000000034
 20
-5.775
 11
66.22500000000035
 21
-5
  0
LINE
  5
1E7
100
AcDbEntity
  8
figura
  6
ByLayer
 62
  256
370
   -1
100
AcDbLine
 10
66.22500000000035
 20
-5
 11
66.22500000000035
 21
-5.775
  0
LINE
  5
1E8
100
AcDbEntity
  8
figura
  6
ByLayer
 62
  256
370
   -1
100
AcDbLine
 10
66.22500000000035
 20
-5.775
 11
67.00000000000036
 21
-5
  0
LINE
  5
1E9
100
AcDbEntity
  8
figura
  6
ByLayer
 62
  256
370
   -1
100
AcDbLine
 10
67.00000000000036
 20
-5
 11
67.00000000000036
 21
-5.775
  0
LINE
  5
1EA
100
AcDbEntity
  8
figura
  6
ByLayer
 62
  256
370
   -1
100
AcDbLine
 10
67.00000000000036
 20
-5.775
 11
67.77500000000036
 21
-5
  0
LINE
  5
1EB
100
AcDbEntity
  8
figura
  6
ByLayer
 62
  256
370
   -1
100
AcDbLine
 10
67.77500000000036
 20
-5
 11
67.77500000000036
 21
-5.775
  0
LINE
  5
1EC
100
AcDbEntity
  8
figura
  6
ByLayer
 62
  256
370
   -1
100
AcDbLine
 10
67.77500000000036
 20
-5.775
 11
68.55000000000037
 21
-5
  0
LINE
  5
1ED
100
AcDbEntity
  8
figura
  6
ByLayer
 62
  256
370
   -1
100
AcDbLine
 10
68.55000000000037
 20
-5
 11
68.55000000000037
 21
-5.775
  0
LINE
  5
1EE
100
AcDbEntity
  8
figura
  6
ByLayer
 62
  256
370
   -1
100
AcDbLine
 10
68.55000000000037
 20
-5.775
 11
69.32500000000036
 21
-5
  0
LINE
  5
1EF
100
AcDbEntity
  8
figura
  6
ByLayer
 62
  256
370
   -1
100
AcDbLine
 10
69.32500000000036
 20
-5
 11
69.32500000000036
 21
-5.775
  0
LINE
  5
1F0
100
AcDbEntity
  8
figura
  6
ByLayer
 62
  256
370
   -1
100
AcDbLine
 10
69.32500000000036
 20
-5.775
 11
70.10000000000036
 21
-5
  0
LINE
  5
1F1
100
AcDbEntity
  8
figura
  6
ByLayer
 62
  256
370
   -1
100
AcDbLine
 10
70.10000000000036
 20
-5
 11
70.10000000000036
 21
-5.775
  0
LINE
  5
1F2
100
AcDbEntity
  8
figura
  6
ByLayer
 62
  256
370
   -1
100
AcDbLine
 10
70.10000000000036
 20
-5.775
 11
70.87500000000036
 21
-5
  0
LINE
  5
1F3
100
AcDbEntity
  8
figura
  6
ByLayer
 62
  256
370
   -1
100
AcDbLine
 10
70.87500000000036
 20
-5
 11
70.87500000000036
 21
-5.775
  0
LINE
  5
1F4
100
AcDbEntity
  8
figura
  6
ByLayer
 62
  256
370
   -1
100
AcDbLine
 10
70.87500000000036
 20
-5.775
 11
71.65000000000036
 21
-5
  0
LINE
  5
1F5
100
AcDbEntity
  8
figura
  6
ByLayer
 62
  256
370
   -1
100
AcDbLine
 10
71.65000000000036
 20
-5
 11
71.65000000000036
 21
-5.775
  0
LINE
  5
1F6
100
AcDbEntity
  8
figura
  6
ByLayer
 62
  256
370
   -1
100
AcDbLine
 10
71.65000000000036
 20
-5.775
 11
72.42500000000037
 21
-5
  0
LINE
  5
1F7
100
AcDbEntity
  8
figura
  6
ByLayer
 62
  256
370
   -1
100
AcDbLine
 10
72.42500000000037
 20
-5
 11
72.42500000000037
 21
-5.775
  0
LINE
  5
1F8
100
AcDbEntity
  8
figura
  6
ByLayer
 62
  256
370
   -1
100
AcDbLine
 10
72.42500000000037
 20
-5.775
 11
73.20000000000037
 21
-5
  0
LINE
  5
1F9
100
AcDbEntity
  8
figura
  6
ByLayer
 62
  256
370
   -1
100
AcDbLine
 10
73.20000000000037
 20
-5
 11
73.20000000000037
 21
-5.775
  0
LINE
  5
1FA
100
AcDbEntity
  8
figura
  6
ByLayer
 62
  256
370
   -1
100
AcDbLine
 10
73.20000000000037
 20
-5.775
 11
73.97500000000036
 21
-5
  0
LINE
  5
1FB
100
AcDbEntity
  8
figura
  6
ByLayer
 62
  256
370
   -1
100
AcDbLine
 10
73.97500000000036
 20
-5
 11
73.97500000000036
 21
-5.775
  0
LINE
  5
1FC
100
AcDbEntity
  8
figura
  6
ByLayer
 62
  256
370
   -1
100
AcDbLine
 10
73.97500000000036
 20
-5.775
 11
74.75000000000037
 21
-5
  0
LINE
  5
1FD
100
AcDbEntity
  8
figura
  6
ByLayer
 62
  256
370
   -1
100
AcDbLine
 10
74.75000000000037
 20
-5
 11
74.75000000000037
 21
-5.775
  0
LINE
  5
1FE
100
AcDbEntity
  8
figura
  6
ByLayer
 62
  256
370
   -1
100
AcDbLine
 10
74.75000000000037
 20
-5.775
 11
75.55
 21
-5
  0
LINE
  5
1FF
100
AcDbEntity
  8
figura
  6
ByLayer
 62
  256
370
   -1
100
AcDbLine
 10
49.17500000000037
 20
5
 11
49.95000000000037
 21
-5
  0
LINE
  5
200
100
AcDbEntity
  8
figura
  6
ByLayer
 62
  256
370
   -1
100
AcDbLine
 10
49.95000000000037
 20
5
 11
50.72500000000036
 21
-5
  0
LINE
  5
201
100
AcDbEntity
  8
figura
  6
ByLayer
 62
  256
370
   -1
100
AcDbLine
 10
50.72500000000036
 20
5
 11
51.50000000000036
 21
-5
  0
LINE
  5
202
100
AcDbEntity
  8
figura
  6
ByLayer
 62
  256
370
   -1
100
AcDbLine
 10
51.50000000000036
 20
5
 11
52.27500000000036
 21
-5
  0
LINE
  5
203
100
AcDbEntity
  8
figura
  6
ByLayer
 62
  256
370
   -1
100
AcDbLine
 10
52.27500000000037
 20
5
 11
53.05000000000037
 21
-5
  0
LINE
  5
204
100
AcDbEntity
  8
figura
  6
ByLayer
 62
  256
370
   -1
100
AcDbLine
 10
53.05000000000037
 20
5
 11
53.82500000000037
 21
-5
  0
LINE
  5
205
100
AcDbEntity
  8
figura
  6
ByLayer
 62
  256
370
   -1
100
AcDbLine
 10
73.97500000000036
 20
5
 11
74.75000000000037
 21
-5
  0
LINE
  5
206
100
AcDbEntity
  8
figura
  6
ByLayer
 62
  256
370
   -1
100
AcDbLine
 10
74.75000000000037
 20
5
 11
75.55
 21
-5
  0
LINE
  5
207
100
AcDbEntity
  8
figura
  6
ByLayer
 62
  256
370
   -1
100
AcDbLine
 10
73.20000000000037
 20
5
 11
73.97500000000036
 21
-5
  0
LINE
  5
208
100
AcDbEntity
  8
figura
  6
ByLayer
 62
  256
370
   -1
100
AcDbLine
 10
53.82500000000037
 20
5
 11
54.60000000000035
 21
-5
  0
LINE
  5
209
100
AcDbEntity
  8
figura
  6
ByLayer
 62
  256
370
   -1
100
AcDbLine
 10
72.42500000000037
 20
5
 11
73.20000000000037
 21
-5.000000000000009
  0
LINE
  5
20A
100
AcDbEntity
  8
figura
  6
ByLayer
 62
  256
370
   -1
100
AcDbLine
 10
71.65000000000036
 20
5
 11
72.42500000000037
 21
-5
  0
LINE
  5
20B
100
AcDbEntity
  8
figura
  6
ByLayer
 62
  256
370
   -1
100
AcDbLine
 10
70.87500000000036
 20
5
 11
71.65000000000036
 21
-5
  0
LINE
  5
20C
100
AcDbEntity
  8
figura
  6
ByLayer
 62
  256
370
   -1
100
AcDbLine
 10
70.10000000000036
 20
5
 11
70.87500000000036
 21
-5
  0
LINE
  5
20D
100
AcDbEntity
  8
figura
  6
ByLayer
 62
  256
370
   -1
100
AcDbLine
 10
69.32500000000036
 20
5
 11
70.10000000000036
 21
-4.999999999999991
  0
LINE
  5
20E
100
AcDbEntity
  8
figura
  6
ByLayer
 62
  256
370
   -1
100
AcDbLine
 10
54.60000000000036
 20
5
 11
55.37500000000036
 21
-5
  0
LINE
  5
20F
100
AcDbEntity
  8
figura
  6
ByLayer
 62
  256
370
   -1
100
AcDbLine
 10
55.37500000000036
 20
5
 11
56.15000000000035
 21
-5
  0
LINE
  5
210
100
AcDbEntity
  8
figura
  6
ByLayer
 62
  256
370
   -1
100
AcDbLine
 10
56.15000000000035
 20
5
 11
56.92500000000035
 21
-5
  0
LINE
  5
211
100
AcDbEntity
  8
figura
  6
ByLayer
 62
  256
370
   -1
100
AcDbLine
 10
56.92500000000035
 20
5
 11
57.70000000000035
 21
-5
  0
LINE
  5
212
100
AcDbEntity
  8
figura
  6
ByLayer
 62
  256
370
   -1
100
AcDbLine
 10
57.70000000000036
 20
5
 11
58.47500000000036
 21
-4.999999999999991
  0
LINE
  5
213
100
AcDbEntity
  8
figura
  6
ByLayer
 62
  256
370
   -1
100
AcDbLine
 10
58.47500000000035
 20
5
 11
59.25000000000035
 21
-5
  0
LINE
  5
214
100
AcDbEntity
  8
figura
  6
ByLayer
 62
  256
370
   -1
100
AcDbLine
 10
59.25000000000036
 20
5
 11
60.02500000000034
 21
-5.000000000000009
  0
LINE
  5
215
100
AcDbEntity
  8
figura
  6
ByLayer
 62
  256
370
   -1
100
AcDbLine
 10
60.02500000000035
 20
5
 11
60.80000000000034
 21
-5
  0
LINE
  5
216
100
AcDbEntity
  8
figura
  6
ByLayer
 62
  256
370
   -1
100
AcDbLine
 10
60.80000000000034
 20
5
 11
61.57500000000034
 21
-5
  0
LINE
  5
217
100
AcDbEntity
  8
figura
  6
ByLayer
 62
  256
370
   -1
100
AcDbLine
 10
61.57500000000034
 20
5
 11
62.35000000000035
 21
-5
  0
LINE
  5
218
100
AcDbEntity
  8
figura
  6
ByLayer
 62
  256
370
   -1
100
AcDbLine
 10
62.35000000000034
 20
4.999999999999991
 11
63.12500000000034
 21
-5
  0
LINE
  5
219
100
AcDbEntity
  8
figura
  6
ByLayer
 62
  256
370
   -1
100
AcDbLine
 10
63.12500000000035
 20
5
 11
63.90000000000033
 21
-5.000000000000009
  0
LINE
  5
21A
100
AcDbEntity
  8
figura
  6
ByLayer
 62
  256
370
   -1
100
AcDbLine
 10
63.90000000000034
 20
4.999999999999991
 11
64.67500000000034
 21
-5
  0
LINE
  5
21B
100
AcDbEntity
  8
figura
  6
ByLayer
 62
  256
370
   -1
100
AcDbLine
 10
64.67500000000034
 20
5
 11
65.45000000000034
 21
-5
  0
LINE
  5
21C
100
AcDbEntity
  8
figura
  6
ByLayer
 62
  256
370
   -1
100
AcDbLine
 10
65.45000000000034
 20
5
 11
66.22500000000035
 21
-4.999999999999991
  0
LINE
  5
21D
100
AcDbEntity
  8
figura
  6
ByLayer
 62
  256
370
   -1
100
AcDbLine
 10
68.55000000000037
 20
5
 11
69.32500000000036
 21
-5
  0
LINE
  5
21E
100
AcDbEntity
  8
figura
  6
ByLayer
 62
  256
370
   -1
100
AcDbLine
 10
67.77500000000036
 20
5
 11
68.55000000000037
 21
-5
  0
LINE
  5
21F
100
AcDbEntity
  8
figura
  6
ByLayer
 62
  256
370
   -1
100
AcDbLine
 10
67.00000000000036
 20
5
 11
67.77500000000036
 21
-4.999999999999991
  0
LINE
  5
220
100
AcDbEntity
  8
figura
  6
ByLayer
 62
  256
370
   -1
100
AcDbLine
 10
66.22500000000035
 20
5
 11
67.00000000000036
 21
-5
  0
LINE
  5
221
100
AcDbEntity
  8
figura
  6
ByLayer
 62
  256
370
   -1
100
AcDbLine
 10
36
 20
-25.36786019535977
 11
32.55
 21
-25.36786019535977
  0
LINE
  5
222
100
AcDbEntity
  8
figura
  6
ByLayer
 62
  256
370
   -1
100
AcDbLine
 10
36
 20
-36.91786019535977
 11
32.55
 21
-36.91786019535977
  0
LINE
  5
223
100
AcDbEntity
  8
figura
  6
ByLayer
 62
  256
370
   -1
100
AcDbLine
 10
75.55
 20
-26.14286019535977
 11
75.55
 21
-36.14286019535977
  0
LINE
  5
224
100
AcDbEntity
  8
figura
  6
ByLayer
 62
  256
370
   -1
100
AcDbLine
 10
36
 20
-25.36786019535977
 11
36.77500000000039
 21
-26.14286019535977
  0
LINE
  5
225
100
AcDbEntity
  8
figura
  6
ByLayer
 62
  256
370
   -1
100
AcDbLine
 10
36.77500000000039
 20
-26.14286019535977
 11
36.77500066198888
 21
-25.36786019535977
  0
LINE
  5
226
100
AcDbEntity
  8
figura
  6
ByLayer
 62
  256
370
   -1
100
AcDbLine
 10
36.77500066198888
 20
-25.36786019535977
 11
37.55000000000079
 21
-26.14286019535977
  0
LINE
  5
227
100
AcDbEntity
  8
figura
  6
ByLayer
 62
  256
370
   -1
100
AcDbLine
 10
37.55000000000039
 20
-26.14286019535937
 11
37.55000000000039
 21
-25.36786019535977
  0
LINE
  5
228
100
AcDbEntity
  8
figura
  6
ByLayer
 62
  256
370
   -1
100
AcDbLine
 10
37.55000000000039
 20
-25.36786019535977
 11
38.32500000000039
 21
-26.14286019535977
  0
LINE
  5
229
100
AcDbEntity
  8
figura
  6
ByLayer
 62
  256
370
   -1
100
AcDbLine
 10
38.32500000000039
 20
-26.14286019535977
 11
38.32500000000039
 21
-25.36786019535977
  0
LINE
  5
22A
100
AcDbEntity
  8
figura
  6
ByLayer
 62
  256
370
   -1
100
AcDbLine
 10
38.32500000000039
 20
-25.36786019535977
 11
39.10000000000039
 21
-26.14286019535977
  0
LINE
  5
22B
100
AcDbEntity
  8
figura
  6
ByLayer
 62
  256
370
   -1
100
AcDbLine
 10
39.10000000000039
 20
-26.14286019535977
 11
39.10000000000039
 21
-25.36786019535977
  0
LINE
  5
22C
100
AcDbEntity
  8
figura
  6
ByLayer
 62
  256
370
   -1
100
AcDbLine
 10
39.10000000000039
 20
-25.36786019535977
 11
39.87500000000038
 21
-26.14286019535977
  0
LINE
  5
22D
100
AcDbEntity
  8
figura
  6
ByLayer
 62
  256
370
   -1
100
AcDbLine
 10
39.87500000000038
 20
-26.14286019535977
 11
39.87500000000038
 21
-25.36786019535977
  0
LINE
  5
22E
100
AcDbEntity
  8
figura
  6
ByLayer
 62
  256
370
   -1
100
AcDbLine
 10
39.87500000000038
 20
-25.36786019535977
 11
40.65000000000038
 21
-26.14286019535977
  0
LINE
  5
22F
100
AcDbEntity
  8
figura
  6
ByLayer
 62
  256
370
   -1
100
AcDbLine
 10
40.65000000000038
 20
-26.14286019535977
 11
40.65000000000038
 21
-25.36786019535977
  0
LINE
  5
230
100
AcDbEntity
  8
figura
  6
ByLayer
 62
  256
370
   -1
100
AcDbLine
 10
40.65000000000038
 20
-25.36786019535977
 11
41.42500000000038
 21
-26.14286019535977
  0
LINE
  5
231
100
AcDbEntity
  8
figura
  6
ByLayer
 62
  256
370
   -1
100
AcDbLine
 10
41.42500000000038
 20
-26.14286019535977
 11
41.42500000000038
 21
-25.36786019535977
  0
LINE
  5
232
100
AcDbEntity
  8
figura
  6
ByLayer
 62
  256
370
   -1
100
AcDbLine
 10
41.42500000000038
 20
-25.36786019535977
 11
42.20000000000038
 21
-26.14286019535977
  0
LINE
  5
233
100
AcDbEntity
  8
figura
  6
ByLayer
 62
  256
370
   -1
100
AcDbLine
 10
42.20000000000038
 20
-26.14286019535977
 11
42.20000000000038
 21
-25.36786019535977
  0
LINE
  5
234
100
AcDbEntity
  8
figura
  6
ByLayer
 62
  256
370
   -1
100
AcDbLine
 10
42.20000000000038
 20
-25.36786019535977
 11
42.97500000000038
 21
-26.14286019535977
  0
LINE
  5
235
100
AcDbEntity
  8
figura
  6
ByLayer
 62
  256
370
   -1
100
AcDbLine
 10
42.97500000000038
 20
-26.14286019535977
 11
42.97500000000038
 21
-25.36786019535977
  0
LINE
  5
236
100
AcDbEntity
  8
figura
  6
ByLayer
 62
  256
370
   -1
100
AcDbLine
 10
42.97500000000038
 20
-25.36786019535977
 11
43.75000000000038
 21
-26.14286019535977
  0
LINE
  5
237
100
AcDbEntity
  8
figura
  6
ByLayer
 62
  256
370
   -1
100
AcDbLine
 10
43.75000000000038
 20
-26.14286019535977
 11
43.75000000000038
 21
-25.36786019535977
  0
LINE
  5
238
100
AcDbEntity
  8
figura
  6
ByLayer
 62
  256
370
   -1
100
AcDbLine
 10
43.75000000000038
 20
-25.36786019535977
 11
44.52500000000038
 21
-26.14286019535977
  0
LINE
  5
239
100
AcDbEntity
  8
figura
  6
ByLayer
 62
  256
370
   -1
100
AcDbLine
 10
44.52500000000038
 20
-26.14286019535977
 11
44.52500000000038
 21
-25.36786019535977
  0
LINE
  5
23A
100
AcDbEntity
  8
figura
  6
ByLayer
 62
  256
370
   -1
100
AcDbLine
 10
44.52500000000038
 20
-25.36786019535977
 11
45.30000000000037
 21
-26.14286019535977
  0
LINE
  5
23B
100
AcDbEntity
  8
figura
  6
ByLayer
 62
  256
370
   -1
100
AcDbLine
 10
45.30000000000037
 20
-26.14286019535977
 11
45.30000000000037
 21
-25.36786019535977
  0
LINE
  5
23C
100
AcDbEntity
  8
figura
  6
ByLayer
 62
  256
370
   -1
100
AcDbLine
 10
45.30000000000037
 20
-25.36786019535977
 11
46.07500000000037
 21
-26.14286019535977
  0
LINE
  5
23D
100
AcDbEntity
  8
figura
  6
ByLayer
 62
  256
370
   -1
100
AcDbLine
 10
46.07500000000037
 20
-26.14286019535977
 11
46.07500000000037
 21
-25.36786019535977
  0
LINE
  5
23E
100
AcDbEntity
  8
figura
  6
ByLayer
 62
  256
370
   -1
100
AcDbLine
 10
46.07500000000037
 20
-25.36786019535977
 11
46.85000000000037
 21
-26.14286019535977
  0
LINE
  5
23F
100
AcDbEntity
  8
figura
  6
ByLayer
 62
  256
370
   -1
100
AcDbLine
 10
46.85000000000037
 20
-26.14286019535977
 11
46.85000000000037
 21
-25.36786019535977
  0
LINE
  5
240
100
AcDbEntity
  8
figura
  6
ByLayer
 62
  256
370
   -1
100
AcDbLine
 10
46.85000000000037
 20
-25.36786019535977
 11
47.62500000000037
 21
-26.14286019535977
  0
LINE
  5
241
100
AcDbEntity
  8
figura
  6
ByLayer
 62
  256
370
   -1
100
AcDbLine
 10
47.62500000000037
 20
-26.14286019535977
 11
47.62500000000037
 21
-25.36786019535977
  0
LINE
  5
242
100
AcDbEntity
  8
figura
  6
ByLayer
 62
  256
370
   -1
100
AcDbLine
 10
47.62500000000037
 20
-25.36786019535977
 11
48.40000000000037
 21
-26.14286019535977
  0
LINE
  5
243
100
AcDbEntity
  8
figura
  6
ByLayer
 62
  256
370
   -1
100
AcDbLine
 10
48.40000000000037
 20
-26.14286019535977
 11
48.40000000000037
 21
-25.36786019535977
  0
LINE
  5
244
100
AcDbEntity
  8
figura
  6
ByLayer
 62
  256
370
   -1
100
AcDbLine
 10
48.40000000000037
 20
-25.36786019535977
 11
49.17500000000037
 21
-26.14286019535977
  0
LINE
  5
245
100
AcDbEntity
  8
figura
  6
ByLayer
 62
  256
370
   -1
100
AcDbLine
 10
49.17500000000037
 20
-26.14286019535977
 11
49.17500000000037
 21
-25.36786019535977
  0
LINE
  5
246
100
AcDbEntity
  8
figura
  6
ByLayer
 62
  256
370
   -1
100
AcDbLine
 10
49.17500000000037
 20
-25.36786019535977
 11
49.95000000000037
 21
-26.14286019535977
  0
LINE
  5
247
100
AcDbEntity
  8
figura
  6
ByLayer
 62
  256
370
   -1
100
AcDbLine
 10
49.95000000000037
 20
-26.14286019535977
 11
49.95000000000037
 21
-25.36786019535977
  0
LINE
  5
248
100
AcDbEntity
  8
figura
  6
ByLayer
 62
  256
370
   -1
100
AcDbLine
 10
49.95000000000037
 20
-25.36786019535977
 11
50.72500000000036
 21
-26.14286019535977
  0
LINE
  5
249
100
AcDbEntity
  8
figura
  6
ByLayer
 62
  256
370
   -1
100
AcDbLine
 10
50.72500000000036
 20
-26.14286019535977
 11
50.72500000000036
 21
-25.36786019535977
  0
LINE
  5
24A
100
AcDbEntity
  8
figura
  6
ByLayer
 62
  256
370
   -1
100
AcDbLine
 10
50.72500000000036
 20
-25.36786019535977
 11
51.50000000000036
 21
-26.14286019535977
  0
LINE
  5
24B
100
AcDbEntity
  8
figura
  6
ByLayer
 62
  256
370
   -1
100
AcDbLine
 10
51.50000000000036
 20
-26.14286019535977
 11
51.50000000000036
 21
-25.36786019535977
  0
LINE
  5
24C
100
AcDbEntity
  8
figura
  6
ByLayer
 62
  256
370
   -1
100
AcDbLine
 10
51.50000000000036
 20
-25.36786019535977
 11
52.27500000000036
 21
-26.14286019535977
  0
LINE
  5
24D
100
AcDbEntity
  8
figura
  6
ByLayer
 62
  256
370
   -1
100
AcDbLine
 10
52.27500000000036
 20
-26.14286019535977
 11
52.27500000000036
 21
-25.36786019535977
  0
LINE
  5
24E
100
AcDbEntity
  8
figura
  6
ByLayer
 62
  256
370
   -1
100
AcDbLine
 10
52.27500000000036
 20
-25.36786019535977
 11
53.05000000000037
 21
-26.14286019535977
  0
LINE
  5
24F
100
AcDbEntity
  8
figura
  6
ByLayer
 62
  256
370
   -1
100
AcDbLine
 10
53.05000000000037
 20
-26.14286019535977
 11
53.05000000000037
 21
-25.36786019535977
  0
LINE
  5
250
100
AcDbEntity
  8
figura
  6
ByLayer
 62
  256
370
   -1
100
AcDbLine
 10
53.05000000000037
 20
-25.36786019535977
 11
53.82500000000037
 21
-26.14286019535977
  0
LINE
  5
251
100
AcDbEntity
  8
figura
  6
ByLayer
 62
  256
370
   -1
100
AcDbLine
 10
53.82500000000037
 20
-26.14286019535977
 11
53.82500000000037
 21
-25.36786019535977
  0
LINE
  5
252
100
AcDbEntity
  8
figura
  6
ByLayer
 62
  256
370
   -1
100
AcDbLine
 10
53.82500000000037
 20
-25.36786019535977
 11
54.60000000000035
 21
-26.14286019535977
  0
LINE
  5
253
100
AcDbEntity
  8
figura
  6
ByLayer
 62
  256
370
   -1
100
AcDbLine
 10
54.60000000000035
 20
-26.14286019535977
 11
54.60000000000035
 21
-25.36786019535977
  0
LINE
  5
254
100
AcDbEntity
  8
figura
  6
ByLayer
 62
  256
370
   -1
100
AcDbLine
 10
54.60000000000035
 20
-25.36786019535977
 11
55.37500000000036
 21
-26.14286019535977
  0
LINE
  5
255
100
AcDbEntity
  8
figura
  6
ByLayer
 62
  256
370
   -1
100
AcDbLine
 10
55.37500000000036
 20
-26.14286019535977
 11
55.37500000000036
 21
-25.36786019535977
  0
LINE
  5
256
100
AcDbEntity
  8
figura
  6
ByLayer
 62
  256
370
   -1
100
AcDbLine
 10
55.37500000000036
 20
-25.36786019535977
 11
56.15000000000035
 21
-26.14286019535977
  0
LINE
  5
257
100
AcDbEntity
  8
figura
  6
ByLayer
 62
  256
370
   -1
100
AcDbLine
 10
56.15000000000035
 20
-26.14286019535977
 11
56.15000000000035
 21
-25.36786019535977
  0
LINE
  5
258
100
AcDbEntity
  8
figura
  6
ByLayer
 62
  256
370
   -1
100
AcDbLine
 10
56.15000000000035
 20
-25.36786019535977
 11
56.92500000000035
 21
-26.14286019535977
  0
LINE
  5
259
100
AcDbEntity
  8
figura
  6
ByLayer
 62
  256
370
   -1
100
AcDbLine
 10
56.92500000000035
 20
-26.14286019535977
 11
56.92500000000035
 21
-25.36786019535977
  0
LINE
  5
25A
100
AcDbEntity
  8
figura
  6
ByLayer
 62
  256
370
   -1
100
AcDbLine
 10
56.92500000000035
 20
-25.36786019535977
 11
57.70000000000035
 21
-26.14286019535977
  0
LINE
  5
25B
100
AcDbEntity
  8
figura
  6
ByLayer
 62
  256
370
   -1
100
AcDbLine
 10
57.70000000000035
 20
-26.14286019535977
 11
57.70000000000035
 21
-25.36786019535977
  0
LINE
  5
25C
100
AcDbEntity
  8
figura
  6
ByLayer
 62
  256
370
   -1
100
AcDbLine
 10
57.70000000000035
 20
-25.36786019535977
 11
58.47500000000035
 21
-26.14286019535977
  0
LINE
  5
25D
100
AcDbEntity
  8
figura
  6
ByLayer
 62
  256
370
   -1
100
AcDbLine
 10
58.47500000000035
 20
-26.14286019535977
 11
58.47500000000035
 21
-25.36786019535977
  0
LINE
  5
25E
100
AcDbEntity
  8
figura
  6
ByLayer
 62
  256
370
   -1
100
AcDbLine
 10
58.47500000000035
 20
-25.36786019535977
 11
59.25000000000036
 21
-26.14286019535977
  0
LINE
  5
25F
100
AcDbEntity
  8
figura
  6
ByLayer
 62
  256
370
   -1
100
AcDbLine
 10
59.25000000000036
 20
-26.14286019535977
 11
59.25000000000036
 21
-25.36786019535977
  0
LINE
  5
260
100
AcDbEntity
  8
figura
  6
ByLayer
 62
  256
370
   -1
100
AcDbLine
 10
59.25000000000036
 20
-25.36786019535977
 11
60.02500000000034
 21
-26.14286019535977
  0
LINE
  5
261
100
AcDbEntity
  8
figura
  6
ByLayer
 62
  256
370
   -1
100
AcDbLine
 10
60.02500000000034
 20
-26.14286019535977
 11
60.02500000000034
 21
-25.36786019535977
  0
LINE
  5
262
100
AcDbEntity
  8
figura
  6
ByLayer
 62
  256
370
   -1
100
AcDbLine
 10
60.02500000000034
 20
-25.36786019535977
 11
60.80000000000034
 21
-26.14286019535977
  0
LINE
  5
263
100
AcDbEntity
  8
figura
  6
ByLayer
 62
  256
370
   -1
100
AcDbLine
 10
60.80000000000034
 20
-26.14286019535977
 11
60.80000000000034
 21
-25.36786019535977
  0
LINE
  5
264
100
AcDbEntity
  8
figura
  6
ByLayer
 62
  256
370
   -1
100
AcDbLine
 10
60.80000000000034
 20
-25.36786019535977
 11
61.57500000000034
 21
-26.14286019535977
  0
LINE
  5
265
100
AcDbEntity
  8
figura
  6
ByLayer
 62
  256
370
   -1
100
AcDbLine
 10
61.57500000000034
 20
-26.14286019535977
 11
61.57500000000034
 21
-25.36786019535977
  0
LINE
  5
266
100
AcDbEntity
  8
figura
  6
ByLayer
 62
  256
370
   -1
100
AcDbLine
 10
61.57500000000034
 20
-25.36786019535977
 11
62.35000000000034
 21
-26.14286019535977
  0
LINE
  5
267
100
AcDbEntity
  8
figura
  6
ByLayer
 62
  256
370
   -1
100
AcDbLine
 10
62.35000000000034
 20
-26.14286019535977
 11
62.35000000000034
 21
-25.36786019535977
  0
LINE
  5
268
100
AcDbEntity
  8
figura
  6
ByLayer
 62
  256
370
   -1
100
AcDbLine
 10
62.35000000000034
 20
-25.36786019535977
 11
63.12500000000034
 21
-26.14286019535977
  0
LINE
  5
269
100
AcDbEntity
  8
figura
  6
ByLayer
 62
  256
370
   -1
100
AcDbLine
 10
63.12500000000034
 20
-26.14286019535977
 11
63.12500000000034
 21
-25.36786019535977
  0
LINE
  5
26A
100
AcDbEntity
  8
figura
  6
ByLayer
 62
  256
370
   -1
100
AcDbLine
 10
63.12500000000034
 20
-25.36786019535977
 11
63.90000000000034
 21
-26.14286019535977
  0
LINE
  5
26B
100
AcDbEntity
  8
figura
  6
ByLayer
 62
  256
370
   -1
100
AcDbLine
 10
63.90000000000034
 20
-26.14286019535977
 11
63.90000000000034
 21
-25.36786019535977
  0
LINE
  5
26C
100
AcDbEntity
  8
figura
  6
ByLayer
 62
  256
370
   -1
100
AcDbLine
 10
63.90000000000034
 20
-25.36786019535977
 11
64.67500000000034
 21
-26.14286019535977
  0
LINE
  5
26D
100
AcDbEntity
  8
figura
  6
ByLayer
 62
  256
370
   -1
100
AcDbLine
 10
64.67500000000034
 20
-26.14286019535977
 11
64.67500000000034
 21
-25.36786019535977
  0
LINE
  5
26E
100
AcDbEntity
  8
figura
  6
ByLayer
 62
  256
370
   -1
100
AcDbLine
 10
64.67500000000034
 20
-25.36786019535977
 11
65.45000000000034
 21
-26.14286019535977
  0
LINE
  5
26F
100
AcDbEntity
  8
figura
  6
ByLayer
 62
  256
370
   -1
100
AcDbLine
 10
65.45000000000034
 20
-26.14286019535977
 11
65.45000000000034
 21
-25.36786019535977
  0
LINE
  5
270
100
AcDbEntity
  8
figura
  6
ByLayer
 62
  256
370
   -1
100
AcDbLine
 10
65.45000000000034
 20
-25.36786019535977
 11
66.22500000000035
 21
-26.14286019535977
  0
LINE
  5
271
100
AcDbEntity
  8
figura
  6
ByLayer
 62
  256
370
   -1
100
AcDbLine
 10
66.22500000000035
 20
-26.14286019535977
 11
66.22500000000035
 21
-25.36786019535977
  0
LINE
  5
272
100
AcDbEntity
  8
figura
  6
ByLayer
 62
  256
370
   -1
100
AcDbLine
 10
66.22500000000035
 20
-25.36786019535977
 11
67.00000000000036
 21
-26.14286019535977
  0
LINE
  5
273
100
AcDbEntity
  8
figura
  6
ByLayer
 62
  256
370
   -1
100
AcDbLine
 10
67.00000000000036
 20
-26.14286019535977
 11
67.00000000000036
 21
-25.36786019535977
  0
LINE
  5
274
100
AcDbEntity
  8
figura
  6
ByLayer
 62
  256
370
   -1
100
AcDbLine
 10
67.00000000000036
 20
-25.36786019535977
 11
67.77500000000036
 21
-26.14286019535977
  0
LINE
  5
275
100
AcDbEntity
  8
figura
  6
ByLayer
 62
  256
370
   -1
100
AcDbLine
 10
67.77500000000036
 20
-26.14286019535977
 11
67.77500000000036
 21
-25.36786019535977
  0
LINE
  5
276
100
AcDbEntity
  8
figura
  6
ByLayer
 62
  256
370
   -1
100
AcDbLine
 10
67.77500000000036
 20
-25.36786019535977
 11
68.55000000000037
 21
-26.14286019535977
  0
LINE
  5
277
100
AcDbEntity
  8
figura
  6
ByLayer
 62
  256
370
   -1
100
AcDbLine
 10
68.55000000000037
 20
-26.14286019535977
 11
68.55000000000037
 21
-25.36786019535977
  0
LINE
  5
278
100
AcDbEntity
  8
figura
  6
ByLayer
 62
  256
370
   -1
100
AcDbLine
 10
68.55000000000037
 20
-25.36786019535977
 11
69.32500000000036
 21
-26.14286019535977
  0
LINE
  5
279
100
AcDbEntity
  8
figura
  6
ByLayer
 62
  256
370
   -1
100
AcDbLine
 10
69.32500000000036
 20
-26.14286019535977
 11
69.32500000000036
 21
-25.36786019535977
  0
LINE
  5
27A
100
AcDbEntity
  8
figura
  6
ByLayer
 62
  256
370
   -1
100
AcDbLine
 10
69.32500000000036
 20
-25.36786019535977
 11
70.10000000000036
 21
-26.14286019535977
  0
LINE
  5
27B
100
AcDbEntity
  8
figura
  6
ByLayer
 62
  256
370
   -1
100
AcDbLine
 10
70.10000000000036
 20
-26.14286019535977
 11
70.10000000000036
 21
-25.36786019535977
  0
LINE
  5
27C
100
AcDbEntity
  8
figura
  6
ByLayer
 62
  256
370
   -1
100
AcDbLine
 10
70.10000000000036
 20
-25.36786019535977
 11
70.87500000000036
 21
-26.14286019535977
  0
LINE
  5
27D
100
AcDbEntity
  8
figura
  6
ByLayer
 62
  256
370
   -1
100
AcDbLine
 10
70.87500000000036
 20
-26.14286019535977
 11
70.87500000000036
 21
-25.36786019535977
  0
LINE
  5
27E
100
AcDbEntity
  8
figura
  6
ByLayer
 62
  256
370
   -1
100
AcDbLine
 10
70.87500000000036
 20
-25.36786019535977
 11
71.65000000000036
 21
-26.14286019535977
  0
LINE
  5
27F
100
AcDbEntity
  8
figura
  6
ByLayer
 62
  256
370
   -1
100
AcDbLine
 10
71.65000000000036
 20
-26.14286019535977
 11
71.65000000000036
 21
-25.36786019535977
  0
LINE
  5
280
100
AcDbEntity
  8
figura
  6
ByLayer
 62
  256
370
   -1
100
AcDbLine
 10
71.65000000000036
 20
-25.36786019535977
 11
72.42500000000037
 21
-26.14286019535977
  0
LINE
  5
281
100
AcDbEntity
  8
figura
  6
ByLayer
 62
  256
370
   -1
100
AcDbLine
 10
72.42500000000037
 20
-26.14286019535977
 11
72.42500000000037
 21
-25.36786019535977
  0
LINE
  5
282
100
AcDbEntity
  8
figura
  6
ByLayer
 62
  256
370
   -1
100
AcDbLine
 10
72.42500000000037
 20
-25.36786019535977
 11
73.20000000000037
 21
-26.14286019535977
  0
LINE
  5
283
100
AcDbEntity
  8
figura
  6
ByLayer
 62
  256
370
   -1
100
AcDbLine
 10
73.20000000000037
 20
-26.14286019535977
 11
73.20000000000037
 21
-25.36786019535977
  0
LINE
  5
284
100
AcDbEntity
  8
figura
  6
ByLayer
 62
  256
370
   -1
100
AcDbLine
 10
73.20000000000037
 20
-25.36786019535977
 11
73.97500000000036
 21
-26.14286019535977
  0
LINE
  5
285
100
AcDbEntity
  8
figura
  6
ByLayer
 62
  256
370
   -1
100
AcDbLine
 10
73.97500000000036
 20
-26.14286019535977
 11
73.97500000000036
 21
-25.36786019535977
  0
LINE
  5
286
100
AcDbEntity
  8
figura
  6
ByLayer
 62
  256
370
   -1
100
AcDbLine
 10
73.97500000000036
 20
-25.36786019535977
 11
74.75000000000037
 21
-26.14286019535977
  0
LINE
  5
287
100
AcDbEntity
  8
figura
  6
ByLayer
 62
  256
370
   -1
100
AcDbLine
 10
74.75000000000037
 20
-26.14286019535977
 11
74.75000000000037
 21
-25.36786019535977
  0
LINE
  5
288
100
AcDbEntity
  8
figura
  6
ByLayer
 62
  256
370
   -1
100
AcDbLine
 10
74.75000000000037
 20
-25.36786019535977
 11
75.55
 21
-26.14286019535977
  0
LINE
  5
289
100
AcDbEntity
  8
figura
  6
ByLayer
 62
  256
370
   -1
100
AcDbLine
 10
36
 20
-36.91786019535976
 11
36.77500000000039
 21
-36.14286019535977
  0
LINE
  5
28A
100
AcDbEntity
  8
figura
  6
ByLayer
 62
  256
370
   -1
100
AcDbLine
 10
36.77500000000039
 20
-36.14286019535977
 11
36.77500000000039
 21
-36.91786019535977
  0
LINE
  5
28B
100
AcDbEntity
  8
figura
  6
ByLayer
 62
  256
370
   -1
100
AcDbLine
 10
36.77500000000039
 20
-36.91786019535977
 11
37.55000000000039
 21
-36.14286019535977
  0
LINE
  5
28C
100
AcDbEntity
  8
figura
  6
ByLayer
 62
  256
370
   -1
100
AcDbLine
 10
37.55000000000039
 20
-36.14286019535977
 11
37.55000000000039
 21
-36.91786019535977
  0
LINE
  5
28D
100
AcDbEntity
  8
figura
  6
ByLayer
 62
  256
370
   -1
100
AcDbLine
 10
37.55000000000039
 20
-36.91786019535977
 11
38.32500000000039
 21
-36.14286019535977
  0
LINE
  5
28E
100
AcDbEntity
  8
figura
  6
ByLayer
 62
  256
370
   -1
100
AcDbLine
 10
38.32500000000039
 20
-36.14286019535977
 11
38.32500000000039
 21
-36.91786019535977
  0
LINE
  5
28F
100
AcDbEntity
  8
figura
  6
ByLayer
 62
  256
370
   -1
100
AcDbLine
 10
38.32500000000039
 20
-36.91786019535977
 11
39.10000000000039
 21
-36.14286019535977
  0
LINE
  5
290
100
AcDbEntity
  8
figura
  6
ByLayer
 62
  256
370
   -1
100
AcDbLine
 10
39.10000000000039
 20
-36.14286019535977
 11
39.10000000000039
 21
-36.91786019535977
  0
LINE
  5
291
100
AcDbEntity
  8
figura
  6
ByLayer
 62
  256
370
   -1
100
AcDbLine
 10
39.10000000000039
 20
-36.91786019535977
 11
39.87500000000038
 21
-36.14286019535977
  0
LINE
  5
292
100
AcDbEntity
  8
figura
  6
ByLayer
 62
  256
370
   -1
100
AcDbLine
 10
36.77500000000039
 20
-26.14286019535977
 11
37.55000000000039
 21
-36.14286019535977
  0
LINE
  5
293
100
AcDbEntity
  8
figura
  6
ByLayer
 62
  256
370
   -1
100
AcDbLine
 10
36
 20
-26.14286019535977
 11
36.77500000000039
 21
-36.14286019535977
  0
LINE
  5
294
100
AcDbEntity
  8
figura
  6
ByLayer
 62
  256
370
   -1
100
AcDbLine
 10
37.55000000000039
 20
-26.14286019535937
 11
38.32500000000039
 21
-36.14286019535977
  0
LINE
  5
295
100
AcDbEntity
  8
figura
  6
ByLayer
 62
  256
370
   -1
100
AcDbLine
 10
38.32500000000039
 20
-26.14286019535977
 11
39.10000000000039
 21
-36.14286019535977
  0
LINE
  5
296
100
AcDbEntity
  8
figura
  6
ByLayer
 62
  256
370
   -1
100
AcDbLine
 10
39.09768301023178
 20
-26.08297726206684
 11
39.87268301023177
 21
-36.08297726206684
  0
LINE
  5
297
100
AcDbEntity
  8
figura
  6
ByLayer
 62
  256
370
   -1
100
AcDbLine
 10
39.87500000000038
 20
-26.14286019535977
 11
40.65000000000038
 21
-36.14286019535977
  0
LINE
  5
298
100
AcDbEntity
  8
figura
  6
ByLayer
 62
  256
370
   -1
100
AcDbLine
 10
40.65000000000038
 20
-26.14286019535977
 11
41.42500000000038
 21
-36.14286019535977
  0
LINE
  5
299
100
AcDbEntity
  8
figura
  6
ByLayer
 62
  256
370
   -1
100
AcDbLine
 10
39.87500000000038
 20
-36.14286019535977
 11
39.87500000000038
 21
-36.91786019535977
  0
LINE
  5
29A
100
AcDbEntity
  8
figura
  6
ByLayer
 62
  256
370
   -1
100
AcDbLine
 10
39.87500000000038
 20
-36.91786019535977
 11
40.65000000000038
 21
-36.1428601953598
  0
LINE
  5
29B
100
AcDbEntity
  8
figura
  6
ByLayer
 62
  256
370
   -1
100
AcDbLine
 10
40.65000000000038
 20
-36.1428601953598
 11
40.65000000000038
 21
-36.91786019535977
  0
LINE
  5
29C
100
AcDbEntity
  8
figura
  6
ByLayer
 62
  256
370
   -1
100
AcDbLine
 10
40.65000000000038
 20
-36.91786019535977
 11
41.42500000000038
 21
-36.14286019535985
  0
LINE
  5
29D
100
AcDbEntity
  8
figura
  6
ByLayer
 62
  256
370
   -1
100
AcDbLine
 10
41.42500000000038
 20
-36.14286019535985
 11
41.42500000000038
 21
-36.91786019535977
  0
LINE
  5
29E
100
AcDbEntity
  8
figura
  6
ByLayer
 62
  256
370
   -1
100
AcDbLine
 10
41.42500000000038
 20
-36.91786019535977
 11
42.20000000000038
 21
-36.14286019535977
  0
LINE
  5
29F
100
AcDbEntity
  8
figura
  6
ByLayer
 62
  256
370
   -1
100
AcDbLine
 10
42.20000000000038
 20
-36.14286019535977
 11
42.20000000000038
 21
-36.91786019535977
  0
LINE
  5
2A0
100
AcDbEntity
  8
figura
  6
ByLayer
 62
  256
370
   -1
100
AcDbLine
 10
42.20000000000038
 20
-36.91786019535977
 11
42.97500000000038
 21
-36.14286019535977
  0
LINE
  5
2A1
100
AcDbEntity
  8
figura
  6
ByLayer
 62
  256
370
   -1
100
AcDbLine
 10
42.97500000000038
 20
-36.14286019535977
 11
42.97500000000038
 21
-36.91786019535977
  0
LINE
  5
2A2
100
AcDbEntity
  8
figura
  6
ByLayer
 62
  256
370
   -1
100
AcDbLine
 10
42.97500000000038
 20
-36.91786019535977
 11
43.75000000000038
 21
-36.14286019535977
  0
LINE
  5
2A3
100
AcDbEntity
  8
figura
  6
ByLayer
 62
  256
370
   -1
100
AcDbLine
 10
43.75000000000038
 20
-36.14286019535977
 11
43.75000000000038
 21
-36.91786019535977
  0
LINE
  5
2A4
100
AcDbEntity
  8
figura
  6
ByLayer
 62
  256
370
   -1
100
AcDbLine
 10
43.75000000000038
 20
-36.91786019535977
 11
44.52500000000038
 21
-36.14286019535977
  0
LINE
  5
2A5
100
AcDbEntity
  8
figura
  6
ByLayer
 62
  256
370
   -1
100
AcDbLine
 10
44.52500000000038
 20
-36.14286019535977
 11
44.52500000000038
 21
-36.91786019535977
  0
LINE
  5
2A6
100
AcDbEntity
  8
figura
  6
ByLayer
 62
  256
370
   -1
100
AcDbLine
 10
44.52500000000038
 20
-36.91786019535977
 11
45.30000000000037
 21
-36.14286019535977
  0
LINE
  5
2A7
100
AcDbEntity
  8
figura
  6
ByLayer
 62
  256
370
   -1
100
AcDbLine
 10
45.30000000000037
 20
-36.14286019535977
 11
45.30000000000037
 21
-36.91786019535977
  0
LINE
  5
2A8
100
AcDbEntity
  8
figura
  6
ByLayer
 62
  256
370
   -1
100
AcDbLine
 10
45.30000000000037
 20
-36.91786019535977
 11
46.07500000000037
 21
-36.14286019535977
  0
LINE
  5
2A9
100
AcDbEntity
  8
figura
  6
ByLayer
 62
  256
370
   -1
100
AcDbLine
 10
46.07500000000037
 20
-36.14286019535977
 11
46.07500000000037
 21
-36.91786019535977
  0
LINE
  5
2AA
100
AcDbEntity
  8
figura
  6
ByLayer
 62
  256
370
   -1
100
AcDbLine
 10
46.07500000000037
 20
-36.91786019535977
 11
46.85000000000037
 21
-36.14286019535977
  0
LINE
  5
2AB
100
AcDbEntity
  8
figura
  6
ByLayer
 62
  256
370
   -1
100
AcDbLine
 10
41.42500000000038
 20
-26.14286019535977
 11
42.20000000000038
 21
-36.14286019535977
  0
LINE
  5
2AC
100
AcDbEntity
  8
figura
  6
ByLayer
 62
  256
370
   -1
100
AcDbLine
 10
42.20000000000038
 20
-26.14286019535977
 11
42.97500000000038
 21
-36.14286019535977
  0
LINE
  5
2AD
100
AcDbEntity
  8
figura
  6
ByLayer
 62
  256
370
   -1
100
AcDbLine
 10
42.97500000000038
 20
-26.14286019535977
 11
43.75000000000038
 21
-36.14286019535977
  0
LINE
  5
2AE
100
AcDbEntity
  8
figura
  6
ByLayer
 62
  256
370
   -1
100
AcDbLine
 10
43.75000000000038
 20
-26.14286019535977
 11
44.52500000000038
 21
-36.14286019535977
  0
LINE
  5
2AF
100
AcDbEntity
  8
figura
  6
ByLayer
 62
  256
370
   -1
100
AcDbLine
 10
44.52500000000038
 20
-26.14286019535977
 11
45.30000000000038
 21
-36.14286019535977
  0
LINE
  5
2B0
100
AcDbEntity
  8
figura
  6
ByLayer
 62
  256
370
   -1
100
AcDbLine
 10
45.30000000000037
 20
-26.14286019535977
 11
46.07500000000038
 21
-36.14286019535977
  0
LINE
  5
2B1
100
AcDbEntity
  8
figura
  6
ByLayer
 62
  256
370
   -1
100
AcDbLine
 10
46.07500000000037
 20
-26.14286019535977
 11
46.85000000000037
 21
-36.14286019535977
  0
LINE
  5
2B2
100
AcDbEntity
  8
figura
  6
ByLayer
 62
  256
370
   -1
100
AcDbLine
 10
46.85000000000037
 20
-36.14286019535977
 11
46.85000000000037
 21
-36.91786019535977
  0
LINE
  5
2B3
100
AcDbEntity
  8
figura
  6
ByLayer
 62
  256
370
   -1
100
AcDbLine
 10
46.85000000000037
 20
-36.91786019535977
 11
47.62500000000037
 21
-36.14286019535977
  0
LINE
  5
2B4
100
AcDbEntity
  8
figura
  6
ByLayer
 62
  256
370
   -1
100
AcDbLine
 10
47.62500000000037
 20
-36.14286019535977
 11
47.62500000000037
 21
-36.91786019535977
  0
LINE
  5
2B5
100
AcDbEntity
  8
figura
  6
ByLayer
 62
  256
370
   -1
100
AcDbLine
 10
47.62500000000037
 20
-36.91786019535977
 11
48.40000000000037
 21
-36.14286019535977
  0
LINE
  5
2B6
100
AcDbEntity
  8
figura
  6
ByLayer
 62
  256
370
   -1
100
AcDbLine
 10
48.40000000000037
 20
-36.14286019535977
 11
48.40000000000037
 21
-36.91786019535977
  0
LINE
  5
2B7
100
AcDbEntity
  8
figura
  6
ByLayer
 62
  256
370
   -1
100
AcDbLine
 10
48.40000000000037
 20
-36.91786019535977
 11
49.17500000000037
 21
-36.14286019535977
  0
LINE
  5
2B8
100
AcDbEntity
  8
figura
  6
ByLayer
 62
  256
370
   -1
100
AcDbLine
 10
49.17500000000037
 20
-36.14286019535977
 11
49.17500000000037
 21
-36.91786019535977
  0
LINE
  5
2B9
100
AcDbEntity
  8
figura
  6
ByLayer
 62
  256
370
   -1
100
AcDbLine
 10
49.17500000000037
 20
-36.91786019535977
 11
49.95000000000037
 21
-36.14286019535977
  0
LINE
  5
2BA
100
AcDbEntity
  8
figura
  6
ByLayer
 62
  256
370
   -1
100
AcDbLine
 10
49.95000000000037
 20
-36.14286019535977
 11
49.95000000000037
 21
-36.91786019535977
  0
LINE
  5
2BB
100
AcDbEntity
  8
figura
  6
ByLayer
 62
  256
370
   -1
100
AcDbLine
 10
49.95000000000037
 20
-36.91786019535977
 11
50.72500000000036
 21
-36.14286019535977
  0
LINE
  5
2BC
100
AcDbEntity
  8
figura
  6
ByLayer
 62
  256
370
   -1
100
AcDbLine
 10
50.72500000000036
 20
-36.14286019535977
 11
50.72500000000036
 21
-36.91786019535977
  0
LINE
  5
2BD
100
AcDbEntity
  8
figura
  6
ByLayer
 62
  256
370
   -1
100
AcDbLine
 10
50.72500000000036
 20
-36.91786019535977
 11
51.50000000000036
 21
-36.14286019535977
  0
LINE
  5
2BE
100
AcDbEntity
  8
figura
  6
ByLayer
 62
  256
370
   -1
100
AcDbLine
 10
46.85000000000037
 20
-26.14286019535977
 11
47.62500000000037
 21
-36.14286019535977
  0
LINE
  5
2BF
100
AcDbEntity
  8
figura
  6
ByLayer
 62
  256
370
   -1
100
AcDbLine
 10
47.62500000000037
 20
-26.14286019535977
 11
48.40000000000037
 21
-36.14286019535977
  0
LINE
  5
2C0
100
AcDbEntity
  8
figura
  6
ByLayer
 62
  256
370
   -1
100
AcDbLine
 10
48.40000000000037
 20
-26.14286019535977
 11
49.17500000000037
 21
-36.14286019535977
  0
LINE
  5
2C1
100
AcDbEntity
  8
figura
  6
ByLayer
 62
  256
370
   -1
100
AcDbLine
 10
51.50000000000036
 20
-36.14286019535977
 11
51.50000000000036
 21
-36.91786019535977
  0
LINE
  5
2C2
100
AcDbEntity
  8
figura
  6
ByLayer
 62
  256
370
   -1
100
AcDbLine
 10
51.50000000000036
 20
-36.91786019535977
 11
52.27500000000036
 21
-36.14286019535977
  0
LINE
  5
2C3
100
AcDbEntity
  8
figura
  6
ByLayer
 62
  256
370
   -1
100
AcDbLine
 10
52.27500000000036
 20
-36.14286019535977
 11
52.27500000000036
 21
-36.91786019535977
  0
LINE
  5
2C4
100
AcDbEntity
  8
figura
  6
ByLayer
 62
  256
370
   -1
100
AcDbLine
 10
52.27500000000036
 20
-36.91786019535977
 11
53.05000000000037
 21
-36.14286019535977
  0
LINE
  5
2C5
100
AcDbEntity
  8
figura
  6
ByLayer
 62
  256
370
   -1
100
AcDbLine
 10
53.05000000000037
 20
-36.14286019535977
 11
53.05000000000037
 21
-36.91786019535977
  0
LINE
  5
2C6
100
AcDbEntity
  8
figura
  6
ByLayer
 62
  256
370
   -1
100
AcDbLine
 10
53.05000000000037
 20
-36.91786019535977
 11
53.82500000000037
 21
-36.14286019535977
  0
LINE
  5
2C7
100
AcDbEntity
  8
figura
  6
ByLayer
 62
  256
370
   -1
100
AcDbLine
 10
53.82500000000037
 20
-36.14286019535977
 11
53.82500000000037
 21
-36.91786019535977
  0
LINE
  5
2C8
100
AcDbEntity
  8
figura
  6
ByLayer
 62
  256
370
   -1
100
AcDbLine
 10
53.82500000000037
 20
-36.91786019535977
 11
54.60000000000035
 21
-36.14286019535977
  0
LINE
  5
2C9
100
AcDbEntity
  8
figura
  6
ByLayer
 62
  256
370
   -1
100
AcDbLine
 10
54.60000000000035
 20
-36.14286019535977
 11
54.60000000000035
 21
-36.91786019535977
  0
LINE
  5
2CA
100
AcDbEntity
  8
figura
  6
ByLayer
 62
  256
370
   -1
100
AcDbLine
 10
54.60000000000035
 20
-36.91786019535977
 11
55.37500000000036
 21
-36.14286019535977
  0
LINE
  5
2CB
100
AcDbEntity
  8
figura
  6
ByLayer
 62
  256
370
   -1
100
AcDbLine
 10
55.37500000000036
 20
-36.14286019535977
 11
55.37500000000036
 21
-36.91786019535977
  0
LINE
  5
2CC
100
AcDbEntity
  8
figura
  6
ByLayer
 62
  256
370
   -1
100
AcDbLine
 10
55.37500000000036
 20
-36.91786019535977
 11
56.15000000000035
 21
-36.14286019535977
  0
LINE
  5
2CD
100
AcDbEntity
  8
figura
  6
ByLayer
 62
  256
370
   -1
100
AcDbLine
 10
56.15000000000035
 20
-36.14286019535977
 11
56.15000000000035
 21
-36.91786019535977
  0
LINE
  5
2CE
100
AcDbEntity
  8
figura
  6
ByLayer
 62
  256
370
   -1
100
AcDbLine
 10
56.15000000000035
 20
-36.91786019535977
 11
56.92500000000035
 21
-36.14286019535977
  0
LINE
  5
2CF
100
AcDbEntity
  8
figura
  6
ByLayer
 62
  256
370
   -1
100
AcDbLine
 10
56.92500000000035
 20
-36.14286019535977
 11
56.92500000000035
 21
-36.91786019535977
  0
LINE
  5
2D0
100
AcDbEntity
  8
figura
  6
ByLayer
 62
  256
370
   -1
100
AcDbLine
 10
56.92500000000035
 20
-36.91786019535977
 11
57.70000000000035
 21
-36.14286019535977
  0
LINE
  5
2D1
100
AcDbEntity
  8
figura
  6
ByLayer
 62
  256
370
   -1
100
AcDbLine
 10
57.70000000000035
 20
-36.14286019535977
 11
57.70000000000035
 21
-36.91786019535977
  0
LINE
  5
2D2
100
AcDbEntity
  8
figura
  6
ByLayer
 62
  256
370
   -1
100
AcDbLine
 10
57.70000000000035
 20
-36.91786019535977
 11
58.47500000000035
 21
-36.14286019535977
  0
LINE
  5
2D3
100
AcDbEntity
  8
figura
  6
ByLayer
 62
  256
370
   -1
100
AcDbLine
 10
58.47500000000036
 20
-36.14286019535977
 11
58.47500000000035
 21
-36.91786019535977
  0
LINE
  5
2D4
100
AcDbEntity
  8
figura
  6
ByLayer
 62
  256
370
   -1
100
AcDbLine
 10
58.47500000000035
 20
-36.91786019535977
 11
59.25000000000036
 21
-36.14286019535977
  0
LINE
  5
2D5
100
AcDbEntity
  8
figura
  6
ByLayer
 62
  256
370
   -1
100
AcDbLine
 10
59.25000000000036
 20
-36.14286019535977
 11
59.25000000000036
 21
-36.91786019535977
  0
LINE
  5
2D6
100
AcDbEntity
  8
figura
  6
ByLayer
 62
  256
370
   -1
100
AcDbLine
 10
59.25000000000036
 20
-36.91786019535977
 11
60.02500000000034
 21
-36.14286019535977
  0
LINE
  5
2D7
100
AcDbEntity
  8
figura
  6
ByLayer
 62
  256
370
   -1
100
AcDbLine
 10
60.02500000000034
 20
-36.14286019535977
 11
60.02500000000034
 21
-36.91786019535977
  0
LINE
  5
2D8
100
AcDbEntity
  8
figura
  6
ByLayer
 62
  256
370
   -1
100
AcDbLine
 10
60.02500000000034
 20
-36.91786019535977
 11
60.80000000000034
 21
-36.14286019535977
  0
LINE
  5
2D9
100
AcDbEntity
  8
figura
  6
ByLayer
 62
  256
370
   -1
100
AcDbLine
 10
60.80000000000034
 20
-36.14286019535977
 11
60.80000000000034
 21
-36.91786019535977
  0
LINE
  5
2DA
100
AcDbEntity
  8
figura
  6
ByLayer
 62
  256
370
   -1
100
AcDbLine
 10
60.80000000000034
 20
-36.91786019535977
 11
61.57500000000034
 21
-36.14286019535977
  0
LINE
  5
2DB
100
AcDbEntity
  8
figura
  6
ByLayer
 62
  256
370
   -1
100
AcDbLine
 10
61.57500000000034
 20
-36.14286019535977
 11
61.57500000000034
 21
-36.91786019535977
  0
LINE
  5
2DC
100
AcDbEntity
  8
figura
  6
ByLayer
 62
  256
370
   -1
100
AcDbLine
 10
61.57500000000034
 20
-36.91786019535977
 11
62.35000000000034
 21
-36.14286019535977
  0
LINE
  5
2DD
100
AcDbEntity
  8
figura
  6
ByLayer
 62
  256
370
   -1
100
AcDbLine
 10
62.35000000000034
 20
-36.14286019535977
 11
62.35000000000034
 21
-36.91786019535977
  0
LINE
  5
2DE
100
AcDbEntity
  8
figura
  6
ByLayer
 62
  256
370
   -1
100
AcDbLine
 10
62.35000000000034
 20
-36.91786019535977
 11
63.12500000000034
 21
-36.14286019535977
  0
LINE
  5
2DF
100
AcDbEntity
  8
figura
  6
ByLayer
 62
  256
370
   -1
100
AcDbLine
 10
63.12500000000034
 20
-36.14286019535977
 11
63.12500000000034
 21
-36.91786019535977
  0
LINE
  5
2E0
100
AcDbEntity
  8
figura
  6
ByLayer
 62
  256
370
   -1
100
AcDbLine
 10
63.12500000000034
 20
-36.91786019535977
 11
63.90000000000034
 21
-36.14286019535977
  0
LINE
  5
2E1
100
AcDbEntity
  8
figura
  6
ByLayer
 62
  256
370
   -1
100
AcDbLine
 10
63.90000000000034
 20
-36.14286019535977
 11
63.90000000000034
 21
-36.91786019535977
  0
LINE
  5
2E2
100
AcDbEntity
  8
figura
  6
ByLayer
 62
  256
370
   -1
100
AcDbLine
 10
63.90000000000034
 20
-36.91786019535977
 11
64.67500000000034
 21
-36.14286019535977
  0
LINE
  5
2E3
100
AcDbEntity
  8
figura
  6
ByLayer
 62
  256
370
   -1
100
AcDbLine
 10
64.67500000000034
 20
-36.14286019535977
 11
64.67500000000034
 21
-36.91786019535977
  0
LINE
  5
2E4
100
AcDbEntity
  8
figura
  6
ByLayer
 62
  256
370
   -1
100
AcDbLine
 10
64.67500000000034
 20
-36.91786019535977
 11
65.45000000000034
 21
-36.14286019535977
  0
LINE
  5
2E5
100
AcDbEntity
  8
figura
  6
ByLayer
 62
  256
370
   -1
100
AcDbLine
 10
65.45000000000034
 20
-36.14286019535977
 11
65.45000000000034
 21
-36.91786019535977
  0
LINE
  5
2E6
100
AcDbEntity
  8
figura
  6
ByLayer
 62
  256
370
   -1
100
AcDbLine
 10
65.45000000000034
 20
-36.91786019535977
 11
66.22500000000035
 21
-36.14286019535977
  0
LINE
  5
2E7
100
AcDbEntity
  8
figura
  6
ByLayer
 62
  256
370
   -1
100
AcDbLine
 10
66.22500000000035
 20
-36.14286019535977
 11
66.22500000000035
 21
-36.91786019535977
  0
LINE
  5
2E8
100
AcDbEntity
  8
figura
  6
ByLayer
 62
  256
370
   -1
100
AcDbLine
 10
66.22500000000035
 20
-36.91786019535977
 11
67.00000000000036
 21
-36.14286019535977
  0
LINE
  5
2E9
100
AcDbEntity
  8
figura
  6
ByLayer
 62
  256
370
   -1
100
AcDbLine
 10
67.00000000000036
 20
-36.14286019535977
 11
67.00000000000036
 21
-36.91786019535977
  0
LINE
  5
2EA
100
AcDbEntity
  8
figura
  6
ByLayer
 62
  256
370
   -1
100
AcDbLine
 10
67.00000000000036
 20
-36.91786019535977
 11
67.77500000000036
 21
-36.14286019535977
  0
LINE
  5
2EB
100
AcDbEntity
  8
figura
  6
ByLayer
 62
  256
370
   -1
100
AcDbLine
 10
67.77500000000036
 20
-36.14286019535977
 11
67.77500000000036
 21
-36.91786019535977
  0
LINE
  5
2EC
100
AcDbEntity
  8
figura
  6
ByLayer
 62
  256
370
   -1
100
AcDbLine
 10
67.77500000000036
 20
-36.91786019535977
 11
68.55000000000037
 21
-36.14286019535977
  0
LINE
  5
2ED
100
AcDbEntity
  8
figura
  6
ByLayer
 62
  256
370
   -1
100
AcDbLine
 10
68.55000000000037
 20
-36.14286019535977
 11
68.55000000000037
 21
-36.91786019535977
  0
LINE
  5
2EE
100
AcDbEntity
  8
figura
  6
ByLayer
 62
  256
370
   -1
100
AcDbLine
 10
68.55000000000037
 20
-36.91786019535977
 11
69.32500000000036
 21
-36.14286019535977
  0
LINE
  5
2EF
100
AcDbEntity
  8
figura
  6
ByLayer
 62
  256
370
   -1
100
AcDbLine
 10
69.32500000000036
 20
-36.14286019535977
 11
69.32500000000036
 21
-36.91786019535977
  0
LINE
  5
2F0
100
AcDbEntity
  8
figura
  6
ByLayer
 62
  256
370
   -1
100
AcDbLine
 10
69.32500000000036
 20
-36.91786019535977
 11
70.10000000000036
 21
-36.14286019535977
  0
LINE
  5
2F1
100
AcDbEntity
  8
figura
  6
ByLayer
 62
  256
370
   -1
100
AcDbLine
 10
70.10000000000036
 20
-36.14286019535977
 11
70.10000000000036
 21
-36.91786019535977
  0
LINE
  5
2F2
100
AcDbEntity
  8
figura
  6
ByLayer
 62
  256
370
   -1
100
AcDbLine
 10
70.10000000000036
 20
-36.91786019535977
 11
70.87500000000036
 21
-36.14286019535977
  0
LINE
  5
2F3
100
AcDbEntity
  8
figura
  6
ByLayer
 62
  256
370
   -1
100
AcDbLine
 10
70.87500000000036
 20
-36.14286019535977
 11
70.87500000000036
 21
-36.91786019535977
  0
LINE
  5
2F4
100
AcDbEntity
  8
figura
  6
ByLayer
 62
  256
370
   -1
100
AcDbLine
 10
70.87500000000036
 20
-36.91786019535977
 11
71.65000000000036
 21
-36.14286019535977
  0
LINE
  5
2F5
100
AcDbEntity
  8
figura
  6
ByLayer
 62
  256
370
   -1
100
AcDbLine
 10
71.65000000000036
 20
-36.14286019535977
 11
71.65000000000036
 21
-36.91786019535977
  0
LINE
  5
2F6
100
AcDbEntity
  8
figura
  6
ByLayer
 62
  256
370
   -1
100
AcDbLine
 10
71.65000000000036
 20
-36.91786019535977
 11
72.42500000000037
 21
-36.14286019535977
  0
LINE
  5
2F7
100
AcDbEntity
  8
figura
  6
ByLayer
 62
  256
370
   -1
100
AcDbLine
 10
72.42500000000037
 20
-36.14286019535977
 11
72.42500000000037
 21
-36.91786019535977
  0
LINE
  5
2F8
100
AcDbEntity
  8
figura
  6
ByLayer
 62
  256
370
   -1
100
AcDbLine
 10
72.42500000000037
 20
-36.91786019535977
 11
73.20000000000037
 21
-36.14286019535977
  0
LINE
  5
2F9
100
AcDbEntity
  8
figura
  6
ByLayer
 62
  256
370
   -1
100
AcDbLine
 10
73.20000000000037
 20
-36.14286019535977
 11
73.20000000000037
 21
-36.91786019535977
  0
LINE
  5
2FA
100
AcDbEntity
  8
figura
  6
ByLayer
 62
  256
370
   -1
100
AcDbLine
 10
73.20000000000037
 20
-36.91786019535977
 11
73.97500000000036
 21
-36.14286019535977
  0
LINE
  5
2FB
100
AcDbEntity
  8
figura
  6
ByLayer
 62
  256
370
   -1
100
AcDbLine
 10
73.97500000000036
 20
-36.14286019535977
 11
73.97500000000036
 21
-36.91786019535977
  0
LINE
  5
2FC
100
AcDbEntity
  8
figura
  6
ByLayer
 62
  256
370
   -1
100
AcDbLine
 10
73.97500000000036
 20
-36.91786019535977
 11
74.75000000000037
 21
-36.14286019535977
  0
LINE
  5
2FD
100
AcDbEntity
  8
figura
  6
ByLayer
 62
  256
370
   -1
100
AcDbLine
 10
74.75000000000037
 20
-36.14286019535977
 11
74.75000000000037
 21
-36.91786019535977
  0
LINE
  5
2FE
100
AcDbEntity
  8
figura
  6
ByLayer
 62
  256
370
   -1
100
AcDbLine
 10
74.75000000000037
 20
-36.91786019535977
 11
75.55
 21
-36.14286019535977
  0
LINE
  5
2FF
100
AcDbEntity
  8
figura
  6
ByLayer
 62
  256
370
   -1
100
AcDbLine
 10
49.17500000000037
 20
-26.14286019535977
 11
49.95000000000037
 21
-36.14286019535977
  0
LINE
  5
300
100
AcDbEntity
  8
figura
  6
ByLayer
 62
  256
370
   -1
100
AcDbLine
 10
49.95000000000037
 20
-26.14286019535977
 11
50.72500000000036
 21
-36.14286019535977
  0
LINE
  5
301
100
AcDbEntity
  8
figura
  6
ByLayer
 62
  256
370
   -1
100
AcDbLine
 10
50.72500000000036
 20
-26.14286019535977
 11
51.50000000000036
 21
-36.14286019535977
  0
LINE
  5
302
100
AcDbEntity
  8
figura
  6
ByLayer
 62
  256
370
   -1
100
AcDbLine
 10
51.50000000000036
 20
-26.14286019535977
 11
52.27500000000036
 21
-36.14286019535977
  0
LINE
  5
303
100
AcDbEntity
  8
figura
  6
ByLayer
 62
  256
370
   -1
100
AcDbLine
 10
52.27500000000037
 20
-26.14286019535977
 11
53.05000000000037
 21
-36.14286019535977
  0
LINE
  5
304
100
AcDbEntity
  8
figura
  6
ByLayer
 62
  256
370
   -1
100
AcDbLine
 10
53.05000000000037
 20
-26.14286019535977
 11
53.82500000000037
 21
-36.14286019535977
  0
LINE
  5
305
100
AcDbEntity
  8
figura
  6
ByLayer
 62
  256
370
   -1
100
AcDbLine
 10
73.97500000000036
 20
-26.14286019535977
 11
74.75000000000037
 21
-36.14286019535977
  0
LINE
  5
306
100
AcDbEntity
  8
figura
  6
ByLayer
 62
  256
370
   -1
100
AcDbLine
 10
74.75000000000037
 20
-26.14286019535977
 11
75.55
 21
-36.14286019535977
  0
LINE
  5
307
100
AcDbEntity
  8
figura
  6
ByLayer
 62
  256
370
   -1
100
AcDbLine
 10
73.20000000000037
 20
-26.14286019535977
 11
73.97500000000036
 21
-36.14286019535977
  0
LINE
  5
308
100
AcDbEntity
  8
figura
  6
ByLayer
 62
  256
370
   -1
100
AcDbLine
 10
53.82500000000037
 20
-26.14286019535977
 11
54.60000000000035
 21
-36.14286019535977
  0
LINE
  5
309
100
AcDbEntity
  8
figura
  6
ByLayer
 62
  256
370
   -1
100
AcDbLine
 10
72.42500000000037
 20
-26.14286019535977
 11
73.20000000000037
 21
-36.14286019535978
  0
LINE
  5
30A
100
AcDbEntity
  8
figura
  6
ByLayer
 62
  256
370
   -1
100
AcDbLine
 10
71.65000000000036
 20
-26.14286019535977
 11
72.42500000000037
 21
-36.14286019535977
  0
LINE
  5
30B
100
AcDbEntity
  8
figura
  6
ByLayer
 62
  256
370
   -1
100
AcDbLine
 10
70.87500000000036
 20
-26.14286019535977
 11
71.65000000000036
 21
-36.14286019535977
  0
LINE
  5
30C
100
AcDbEntity
  8
figura
  6
ByLayer
 62
  256
370
   -1
100
AcDbLine
 10
70.10000000000036
 20
-26.14286019535977
 11
70.87500000000036
 21
-36.14286019535977
  0
LINE
  5
30D
100
AcDbEntity
  8
figura
  6
ByLayer
 62
  256
370
   -1
100
AcDbLine
 10
69.32500000000036
 20
-26.14286019535977
 11
70.10000000000036
 21
-36.14286019535976
  0
LINE
  5
30E
100
AcDbEntity
  8
figura
  6
ByLayer
 62
  256
370
   -1
100
AcDbLine
 10
54.60000000000036
 20
-26.14286019535977
 11
55.37500000000036
 21
-36.14286019535977
  0
LINE
  5
30F
100
AcDbEntity
  8
figura
  6
ByLayer
 62
  256
370
   -1
100
AcDbLine
 10
55.37500000000036
 20
-26.14286019535977
 11
56.15000000000035
 21
-36.14286019535977
  0
LINE
  5
310
100
AcDbEntity
  8
figura
  6
ByLayer
 62
  256
370
   -1
100
AcDbLine
 10
56.15000000000035
 20
-26.14286019535977
 11
56.92500000000035
 21
-36.14286019535977
  0
LINE
  5
311
100
AcDbEntity
  8
figura
  6
ByLayer
 62
  256
370
   -1
100
AcDbLine
 10
56.92500000000035
 20
-26.14286019535977
 11
57.70000000000035
 21
-36.14286019535977
  0
LINE
  5
312
100
AcDbEntity
  8
figura
  6
ByLayer
 62
  256
370
   -1
100
AcDbLine
 10
57.70000000000036
 20
-26.14286019535977
 11
58.47500000000036
 21
-36.14286019535976
  0
LINE
  5
313
100
AcDbEntity
  8
figura
  6
ByLayer
 62
  256
370
   -1
100
AcDbLine
 10
58.47500000000035
 20
-26.14286019535977
 11
59.25000000000035
 21
-36.14286019535977
  0
LINE
  5
314
100
AcDbEntity
  8
figura
  6
ByLayer
 62
  256
370
   -1
100
AcDbLine
 10
59.25000000000036
 20
-26.14286019535977
 11
60.02500000000034
 21
-36.14286019535978
  0
LINE
  5
315
100
AcDbEntity
  8
figura
  6
ByLayer
 62
  256
370
   -1
100
AcDbLine
 10
60.02500000000035
 20
-26.14286019535977
 11
60.80000000000034
 21
-36.14286019535977
  0
LINE
  5
316
100
AcDbEntity
  8
figura
  6
ByLayer
 62
  256
370
   -1
100
AcDbLine
 10
60.80000000000034
 20
-26.14286019535977
 11
61.57500000000034
 21
-36.14286019535977
  0
LINE
  5
317
100
AcDbEntity
  8
figura
  6
ByLayer
 62
  256
370
   -1
100
AcDbLine
 10
61.57500000000034
 20
-26.14286019535977
 11
62.35000000000035
 21
-36.14286019535977
  0
LINE
  5
318
100
AcDbEntity
  8
figura
  6
ByLayer
 62
  256
370
   -1
100
AcDbLine
 10
62.35000000000034
 20
-26.14286019535978
 11
63.12500000000034
 21
-36.14286019535977
  0
LINE
  5
319
100
AcDbEntity
  8
figura
  6
ByLayer
 62
  256
370
   -1
100
AcDbLine
 10
63.12500000000035
 20
-26.14286019535977
 11
63.90000000000033
 21
-36.14286019535978
  0
LINE
  5
31A
100
AcDbEntity
  8
figura
  6
ByLayer
 62
  256
370
   -1
100
AcDbLine
 10
63.90000000000034
 20
-26.14286019535978
 11
64.67500000000034
 21
-36.14286019535977
  0
LINE
  5
31B
100
AcDbEntity
  8
figura
  6
ByLayer
 62
  256
370
   -1
100
AcDbLine
 10
64.67500000000034
 20
-26.14286019535977
 11
65.45000000000034
 21
-36.14286019535977
  0
LINE
  5
31C
100
AcDbEntity
  8
figura
  6
ByLayer
 62
  256
370
   -1
100
AcDbLine
 10
65.45000000000034
 20
-26.14286019535977
 11
66.22500000000035
 21
-36.14286019535976
  0
LINE
  5
31D
100
AcDbEntity
  8
figura
  6
ByLayer
 62
  256
370
   -1
100
AcDbLine
 10
68.55000000000037
 20
-26.14286019535977
 11
69.32500000000036
 21
-36.14286019535977
  0
LINE
  5
31E
100
AcDbEntity
  8
figura
  6
ByLayer
 62
  256
370
   -1
100
AcDbLine
 10
67.77500000000036
 20
-26.14286019535977
 11
68.55000000000037
 21
-36.14286019535977
  0
LINE
  5
31F
100
AcDbEntity
  8
figura
  6
ByLayer
 62
  256
370
   -1
100
AcDbLine
 10
67.00000000000036
 20
-26.14286019535977
 11
67.77500000000036
 21
-36.14286019535976
  0
LINE
  5
320
100
AcDbEntity
  8
figura
  6
ByLayer
 62
  256
370
   -1
100
AcDbLine
 10
66.22500000000035
 20
-26.14286019535977
 11
67.00000000000036
 21
-36.14286019535977
  0
ENDSEC
  0
SECTION
  2
OBJECTS
  0
DICTIONARY
  5
C
330
0
100
AcDbDictionary
281
    1
  3
ACAD_GROUP
350
D
  0
DICTIONARY
  5
D
330
C
100
AcDbDictionary
281
    1
  0
ENDSEC
  0
EOF
