999
dxfrw 0.6.3
  0
SECTION
  2
HEADER
  9
$ACADVER
  1
AC1021
  9
$DWGCODEPAGE
  3
ANSI_1252
  9
$INSBASE
 10
0
 20
0
 30
0
  9
$EXTMIN
 10
-166.6517324809322
 20
-73.20205899231679
 30
0
  9
$EXTMAX
 10
92.3
 20
46.15
 30
0
  9
$LIMMIN
 10
0
 20
0
  9
$LIMMAX
 10
420
 20
297
  9
$ORTHOMODE
 70
    0
  9
$REGENMODE
 70
    1
  9
$FILLMODE
 70
    1
  9
$QTEXTMODE
 70
    0
  9
$MIRRTEXT
 70
    0
  9
$LTSCALE
 40
1
  9
$ATTMODE
 70
    0
  9
$TEXTSIZE
 40
2.5
  9
$TRACEWID
 40
15.68
  9
$TEXTSTYLE
  7
STANDARD
  9
$CLAYER
  8
medidas
  9
$CELTYPE
  6
BYLAYER
  9
$CECOLOR
 62
  256
  9
$CELTSCALE
 40
1
  9
$DISPSILH
 70
    0
  9
$DIMSCALE
 40
1
  9
$DIMASZ
 40
2.5
  9
$DIMEXO
 40
0.625
  9
$DIMDLI
 40
3.75
  9
$DIMRND
 40
0
  9
$DIMDLE
 40
0
  9
$DIMEXE
 40
1.25
  9
$DIMTP
 40
0
  9
$DIMTM
 40
0
  9
$DIMTXT
 40
2.5
  9
$DIMCEN
 40
2.5
  9
$DIMTSZ
 40
0
  9
$DIMTOL
 70
    0
  9
$DIMLIM
 70
    0
  9
$DIMTIH
 70
    0
  9
$DIMTOH
 70
    0
  9
$DIMSE1
 70
    0
  9
$DIMSE2
 70
    0
  9
$DIMTAD
 70
    1
  9
$DIMZIN
 70
    8
  9
$DIMBLK
  1

  9
$DIMASO
 70
    1
  9
$DIMSHO
 70
    1
  9
$DIMPOST
  1

  9
$DIMAPOST
  1

  9
$DIMALT
 70
    0
  9
$DIMALTD
 70
    3
  9
$DIMALTF
 40
0.03937
  9
$DIMLFAC
 40
1
  9
$DIMTOFL
 70
    1
  9
$DIMTVP
 40
0
  9
$DIMTIX
 70
    0
  9
$DIMSOXD
 70
    0
  9
$DIMSAH
 70
    0
  9
$DIMBLK1
  1

  9
$DIMBLK2
  1

  9
$DIMSTYLE
  2
STANDARD
  9
$DIMCLRD
 70
    0
  9
$DIMCLRE
 70
    0
  9
$DIMCLRT
 70
    0
  9
$DIMTFAC
 40
1
  9
$DIMGAP
 40
0.625
  9
$DIMJUST
 70
    0
  9
$DIMSD1
 70
    0
  9
$DIMSD2
 70
    0
  9
$DIMTOLJ
 70
    0
  9
$DIMTZIN
 70
    8
  9
$DIMALTZ
 70
    0
  9
$DIMALTTZ
 70
    0
  9
$DIMUPT
 70
    0
  9
$DIMDEC
 70
    2
  9
$DIMTDEC
 70
    2
  9
$DIMALTU
 70
    2
  9
$DIMALTTD
 70
    3
  9
$DIMTXSTY
  7
STANDARD
  9
$DIMAUNIT
 70
    0
  9
$DIMADEC
 70
    0
  9
$DIMALTRND
 40
0
  9
$DIMAZIN
 70
    0
  9
$DIMDSEP
 70
   44
  9
$DIMATFIT
 70
    3
  9
$DIMFRAC
 70
    0
  9
$DIMLDRBLK
  1
STANDARD
  9
$DIMLUNIT
 70
    2
  9
$DIMLWD
 70
   -2
  9
$DIMLWE
 70
   -2
  9
$DIMTMOVE
 70
    0
  9
$DIMFXL
 40
1
  9
$DIMFXLON
 70
    0
  9
$DIMJOGANG
 40
0.7854
  9
$DIMTFILL
 70
    0
  9
$DIMTFILLCLR
 70
    0
  9
$DIMARCSYM
 70
    0
  9
$DIMLTYPE
  6

  9
$DIMLTEX1
  6

  9
$DIMLTEX2
  6

  9
$LUNITS
 70
    2
  9
$LUPREC
 70
    4
  9
$SKETCHINC
 40
1
  9
$FILLETRAD
 40
0
  9
$AUNITS
 70
    0
  9
$AUPREC
 70
    2
  9
$MENU
  1
.
  9
$ELEVATION
 40
0
  9
$PELEVATION
 40
0
  9
$THICKNESS
 40
0
  9
$LIMCHECK
 70
    0
  9
$CHAMFERA
 40
0
  9
$CHAMFERB
 40
0
  9
$CHAMFERC
 40
0
  9
$CHAMFERD
 40
0
  9
$SKPOLY
 70
    0
  9
$USRTIMER
 70
    1
  9
$ANGBASE
 50
0
  9
$ANGDIR
 70
    0
  9
$PDMODE
 70
   34
  9
$PDSIZE
 40
0
  9
$PLINEWID
 40
0
  9
$SPLFRAME
 70
    0
  9
$SPLINETYPE
 70
    2
  9
$SPLINESEGS
 70
    8
  9
$HANDSEED
  5
20000
  9
$SURFTAB1
 70
    6
  9
$SURFTAB2
 70
    6
  9
$SURFTYPE
 70
    6
  9
$SURFU
 70
    6
  9
$SURFV
 70
    6
  9
$UCSBASE
  2

  9
$UCSNAME
  2

  9
$UCSORG
 10
0
 20
0
 30
0
  9
$UCSXDIR
 10
1
 20
0
 30
0
  9
$UCSYDIR
 10
0
 20
1
 30
0
  9
$UCSORTHOREF
  2

  9
$UCSORTHOVIEW
 70
    0
  9
$UCSORGTOP
 10
0
 20
0
 30
0
  9
$UCSORGBOTTOM
 10
0
 20
0
 30
0
  9
$UCSORGLEFT
 10
0
 20
0
 30
0
  9
$UCSORGRIGHT
 10
0
 20
0
 30
0
  9
$UCSORGFRONT
 10
0
 20
0
 30
0
  9
$UCSORGBACK
 10
0
 20
0
 30
0
  9
$PUCSBASE
  2

  9
$PUCSNAME
  2

  9
$PUCSORG
 10
0
 20
0
 30
0
  9
$PUCSXDIR
 10
1
 20
0
 30
0
  9
$PUCSYDIR
 10
0
 20
1
 30
0
  9
$PUCSORTHOREF
  2

  9
$PUCSORTHOVIEW
 70
    0
  9
$PUCSORGTOP
 10
0
 20
0
 30
0
  9
$PUCSORGBOTTOM
 10
0
 20
0
 30
0
  9
$PUCSORGLEFT
 10
0
 20
0
 30
0
  9
$PUCSORGRIGHT
 10
0
 20
0
 30
0
  9
$PUCSORGFRONT
 10
0
 20
0
 30
0
  9
$PUCSORGBACK
 10
0
 20
0
 30
0
  9
$USERI1
 70
    0
  9
$USERI2
 70
    0
  9
$USERI3
 70
    0
  9
$USERI4
 70
    0
  9
$USERI5
 70
    0
  9
$USERR1
 40
0
  9
$USERR2
 40
0
  9
$USERR3
 40
0
  9
$USERR4
 40
0
  9
$USERR5
 40
0
  9
$WORLDVIEW
 70
    1
  9
$SHADEDGE
 70
    3
  9
$SHADEDIF
 70
   70
  9
$TILEMODE
 70
    1
  9
$MAXACTVP
 70
   64
  9
$PINSBASE
 10
0
 20
0
 30
0
  9
$PLIMCHECK
 70
    0
  9
$PEXTMIN
 10
0
 20
0
 30
0
  9
$PEXTMAX
 10
0
 20
0
 30
0
  9
$GRIDMODE
 70
    1
  9
$SNAPSTYLE
 70
    0
  9
$PLIMMIN
 10
0
 20
0
  9
$PLIMMAX
 10
215.9
 20
279.4
  9
$UNITMODE
 70
    0
  9
$VISRETAIN
 70
    1
  9
$PLINEGEN
 70
    0
  9
$PSLTSCALE
 70
    1
  9
$TREEDEPTH
 70
 3020
  9
$CMLSTYLE
  2
Standard
  9
$CMLJUST
 70
    0
  9
$CMLSCALE
 40
20
  9
$PROXYGRAPHICS
 70
    1
  9
$MEASUREMENT
 70
    1
  9
$CELWEIGHT
370
   -1
  9
$ENDCAPS
280
    0
  9
$JOINSTYLE
280
    0
  9
$LWDISPLAY
290
    0
  9
$INSUNITS
 70
    0
  9
$HYPERLINKBASE
  1

  9
$STYLESHEET
  1

  9
$XEDIT
290
    1
  9
$CEPSNTYPE
380
    0
  9
$PSTYLEMODE
290
    1
  9
$EXTNAMES
290
    1
  9
$PSVPSCALE
 40
1
  9
$OLESTARTUP
290
    0
  9
$SORTENTS
280
  127
  9
$INDEXCTL
280
    0
  9
$HIDETEXT
280
    1
  9
$XCLIPFRAME
290
    0
  9
$HALOGAP
280
    0
  9
$OBSCOLOR
 70
  257
  9
$OBSLTYPE
280
    0
  9
$INTERSECTIONDISPLAY
280
    0
  9
$INTERSECTIONCOLOR
 70
  257
  9
$DIMASSOC
280
    1
  9
$PROJECTNAME
  1

  9
$CAMERADISPLAY
290
    0
  9
$LENSLENGTH
 40
50
  9
$CAMERAHEIGHT
 40
0
  9
$STEPSPERSEC
 40
2
  9
$STEPSIZE
 40
50
  9
$3DDWFPREC
 40
2
  9
$PSOLWIDTH
 40
5
  9
$PSOLHEIGHT
 40
80
  9
$LOFTANG1
 40
1.570796326794897
  9
$LOFTANG2
 40
1.570796326794897
  9
$LOFTMAG1
 40
0
  9
$LOFTMAG2
 40
0
  9
$LOFTPARAM
 70
    7
  9
$LOFTNORMALS
280
    1
  9
$LATITUDE
 40
1
  9
$LONGITUDE
 40
1
  9
$NORTHDIRECTION
 40
0
  9
$TIMEZONE
 70
-8000
  9
$LIGHTGLYPHDISPLAY
280
    1
  9
$TILEMODELIGHTSYNCH
280
    1
  9
$SOLIDHIST
280
    1
  9
$SHOWHIST
280
    1
  9
$DWFFRAME
280
    2
  9
$DGNFRAME
280
    0
  9
$REALWORLDSCALE
290
    1
  9
$INTERFERECOLOR
 62
    1
  9
$CSHADOW
280
    0
  9
$SHADOWPLANELOCATION
 40
0
  0
ENDSEC
  0
SECTION
  2
CLASSES
  0
ENDSEC
  0
SECTION
  2
TABLES
  0
TABLE
  2
VPORT
  5
8
330
0
100
AcDbSymbolTable
 70
    1
  0
VPORT
  5
31
330
2
100
AcDbSymbolTableRecord
100
AcDbViewportTableRecord
  2
*ACTIVE
 70
    0
 10
0
 20
0
 11
1
 21
1
 12
62.6477961957959
 22
41.82974954649741
 13
0
 23
0
 14
10
 24
10
 15
10
 25
10
 16
0
 26
0
 36
1
 17
0
 27
0
 37
0
 40
163.2522169800802
 41
1.760379596678529
 42
50
 43
0
 44
0
 50
0
 51
0
 71
    0
 72
  100
 73
    1
 74
    3
 75
    0
 76
    1
 77
    0
 78
    0
281
    0
 65
    1
110
0
120
0
130
0
111
1
121
0
131
0
112
0
122
1
132
0
 79
    0
146
0
348
10020
 60
    7
 61
    5
292
1
282
    1
141
0
142
0
 63
  250
421
3358443
  0
ENDTAB
  0
TABLE
  2
LTYPE
  5
5
330
0
100
AcDbSymbolTable
 70
    4
  0
LTYPE
  5
14
330
5
100
AcDbSymbolTableRecord
100
AcDbLinetypeTableRecord
  2
ByBlock
 70
    0
  3

 72
   65
 73
    0
 40
0
  0
LTYPE
  5
15
330
5
100
AcDbSymbolTableRecord
100
AcDbLinetypeTableRecord
  2
ByLayer
 70
    0
  3

 72
   65
 73
    0
 40
0
  0
LTYPE
  5
16
330
5
100
AcDbSymbolTableRecord
100
AcDbLinetypeTableRecord
  2
Continuous
 70
    0
  3
Solid line
 72
   65
 73
    0
 40
0
  0
LTYPE
  5
32
330
5
100
AcDbSymbolTableRecord
100
AcDbLinetypeTableRecord
  2
DOT
 70
    0
  3
Dot . . . . . . . . . . . . . . . . . . . . . .
 72
   65
 73
    2
 40
6.35
 49
0
 74
    0
 49
-6.35
 74
    0
  0
LTYPE
  5
33
330
5
100
AcDbSymbolTableRecord
100
AcDbLinetypeTableRecord
  2
DOTTINY
 70
    0
  3
Dot (.15x) .....................................
 72
   65
 73
    2
 40
0.9525
 49
0
 74
    0
 49
-0.9525
 74
    0
  0
LTYPE
  5
34
330
5
100
AcDbSymbolTableRecord
100
AcDbLinetypeTableRecord
  2
DOT2
 70
    0
  3
Dot (.5x) .....................................
 72
   65
 73
    2
 40
3.175
 49
0
 74
    0
 49
-3.175
 74
    0
  0
LTYPE
  5
35
330
5
100
AcDbSymbolTableRecord
100
AcDbLinetypeTableRecord
  2
DOTX2
 70
    0
  3
Dot (2x) .  .  .  .  .  .  .  .  .  .  .  .  .
 72
   65
 73
    2
 40
12.7
 49
0
 74
    0
 49
-12.7
 74
    0
  0
LTYPE
  5
36
330
5
100
AcDbSymbolTableRecord
100
AcDbLinetypeTableRecord
  2
DASHED
 70
    0
  3
Dashed _ _ _ _ _ _ _ _ _ _ _ _ _ _ _ _ _
 72
   65
 73
    2
 40
19.05
 49
12.7
 74
    0
 49
-6.35
 74
    0
  0
LTYPE
  5
37
330
5
100
AcDbSymbolTableRecord
100
AcDbLinetypeTableRecord
  2
DASHEDTINY
 70
    0
  3
Dashed (.15x) _ _ _ _ _ _ _ _ _ _ _ _ _ _ _ _ _
 72
   65
 73
    2
 40
2.8575
 49
1.905
 74
    0
 49
-0.9525
 74
    0
  0
LTYPE
  5
38
330
5
100
AcDbSymbolTableRecord
100
AcDbLinetypeTableRecord
  2
DASHED2
 70
    0
  3
Dashed (.5x) _ _ _ _ _ _ _ _ _ _ _ _ _ _ _ _ _
 72
   65
 73
    2
 40
9.524999999999999
 49
6.35
 74
    0
 49
-3.175
 74
    0
  0
LTYPE
  5
39
330
5
100
AcDbSymbolTableRecord
100
AcDbLinetypeTableRecord
  2
DASHEDX2
 70
    0
  3
Dashed (2x) ____  ____  ____  ____  ____  ___
 72
   65
 73
    2
 40
38.09999999999999
 49
25.4
 74
    0
 49
-12.7
 74
    0
  0
LTYPE
  5
3A
330
5
100
AcDbSymbolTableRecord
100
AcDbLinetypeTableRecord
  2
DASHDOT
 70
    0
  3
Dash dot __ . __ . __ . __ . __ . __ . __ . __
 72
   65
 73
    4
 40
25.4
 49
12.7
 74
    0
 49
-6.35
 74
    0
 49
0
 74
    0
 49
-6.35
 74
    0
  0
LTYPE
  5
3B
330
5
100
AcDbSymbolTableRecord
100
AcDbLinetypeTableRecord
  2
DASHDOTTINY
 70
    0
  3
Dash dot (.15x) _._._._._._._._._._._._._._._.
 72
   65
 73
    4
 40
3.81
 49
1.905
 74
    0
 49
-0.9525
 74
    0
 49
0
 74
    0
 49
-0.9525
 74
    0
  0
LTYPE
  5
3C
330
5
100
AcDbSymbolTableRecord
100
AcDbLinetypeTableRecord
  2
DASHDOT2
 70
    0
  3
Dash dot (.5x) _._._._._._._._._._._._._._._.
 72
   65
 73
    4
 40
12.7
 49
6.35
 74
    0
 49
-3.175
 74
    0
 49
0
 74
    0
 49
-3.175
 74
    0
  0
LTYPE
  5
3D
330
5
100
AcDbSymbolTableRecord
100
AcDbLinetypeTableRecord
  2
DASHDOTX2
 70
    0
  3
Dash dot (2x) ____  .  ____  .  ____  .  ___
 72
   65
 73
    4
 40
50.8
 49
25.4
 74
    0
 49
-12.7
 74
    0
 49
0
 74
    0
 49
-12.7
 74
    0
  0
LTYPE
  5
3E
330
5
100
AcDbSymbolTableRecord
100
AcDbLinetypeTableRecord
  2
DIVIDE
 70
    0
  3
Divide ____ . . ____ . . ____ . . ____ . . ____
 72
   65
 73
    6
 40
31.75
 49
12.7
 74
    0
 49
-6.35
 74
    0
 49
0
 74
    0
 49
-6.35
 74
    0
 49
0
 74
    0
 49
-6.35
 74
    0
  0
LTYPE
  5
3F
330
5
100
AcDbSymbolTableRecord
100
AcDbLinetypeTableRecord
  2
DIVIDETINY
 70
    0
  3
Divide (.15x) __..__..__..__..__..__..__..__.._
 72
   65
 73
    6
 40
4.7625
 49
1.905
 74
    0
 49
-0.9525
 74
    0
 49
0
 74
    0
 49
-0.9525
 74
    0
 49
0
 74
    0
 49
-0.9525
 74
    0
  0
LTYPE
  5
40
330
5
100
AcDbSymbolTableRecord
100
AcDbLinetypeTableRecord
  2
DIVIDE2
 70
    0
  3
Divide (.5x) __..__..__..__..__..__..__..__.._
 72
   65
 73
    6
 40
15.875
 49
6.35
 74
    0
 49
-3.175
 74
    0
 49
0
 74
    0
 49
-3.175
 74
    0
 49
0
 74
    0
 49
-3.175
 74
    0
  0
LTYPE
  5
41
330
5
100
AcDbSymbolTableRecord
100
AcDbLinetypeTableRecord
  2
DIVIDEX2
 70
    0
  3
Divide (2x) ________  .  .  ________  .  .  _
 72
   65
 73
    6
 40
63.5
 49
25.4
 74
    0
 49
-12.7
 74
    0
 49
0
 74
    0
 49
-12.7
 74
    0
 49
0
 74
    0
 49
-12.7
 74
    0
  0
LTYPE
  5
42
330
5
100
AcDbSymbolTableRecord
100
AcDbLinetypeTableRecord
  2
BORDER
 70
    0
  3
Border __ __ . __ __ . __ __ . __ __ . __ __ .
 72
   65
 73
    6
 40
44.45
 49
12.7
 74
    0
 49
-6.35
 74
    0
 49
12.7
 74
    0
 49
-6.35
 74
    0
 49
0
 74
    0
 49
-6.35
 74
    0
  0
LTYPE
  5
43
330
5
100
AcDbSymbolTableRecord
100
AcDbLinetypeTableRecord
  2
BORDERTINY
 70
    0
  3
Border (.15x) __.__.__.__.__.__.__.__.__.__.__.
 72
   65
 73
    6
 40
6.6675
 49
1.905
 74
    0
 49
-0.9525
 74
    0
 49
1.905
 74
    0
 49
-0.9525
 74
    0
 49
0
 74
    0
 49
-0.9525
 74
    0
  0
LTYPE
  5
44
330
5
100
AcDbSymbolTableRecord
100
AcDbLinetypeTableRecord
  2
BORDER2
 70
    0
  3
Border (.5x) __.__.__.__.__.__.__.__.__.__.__.
 72
   65
 73
    6
 40
22.225
 49
6.35
 74
    0
 49
-3.175
 74
    0
 49
6.35
 74
    0
 49
-3.175
 74
    0
 49
0
 74
    0
 49
-3.175
 74
    0
  0
LTYPE
  5
45
330
5
100
AcDbSymbolTableRecord
100
AcDbLinetypeTableRecord
  2
BORDERX2
 70
    0
  3
Border (2x) ____  ____  .  ____  ____  .  ___
 72
   65
 73
    6
 40
88.89999999999999
 49
25.4
 74
    0
 49
-12.7
 74
    0
 49
25.4
 74
    0
 49
-12.7
 74
    0
 49
0
 74
    0
 49
-12.7
 74
    0
  0
LTYPE
  5
46
330
5
100
AcDbSymbolTableRecord
100
AcDbLinetypeTableRecord
  2
CENTER
 70
    0
  3
Center ____ _ ____ _ ____ _ ____ _ ____ _ ____
 72
   65
 73
    4
 40
50.8
 49
31.75
 74
    0
 49
-6.35
 74
    0
 49
6.35
 74
    0
 49
-6.35
 74
    0
  0
LTYPE
  5
47
330
5
100
AcDbSymbolTableRecord
100
AcDbLinetypeTableRecord
  2
CENTERTINY
 70
    0
  3
Center (.15x) ___ _ ___ _ ___ _ ___ _ ___ _ ___
 72
   65
 73
    4
 40
7.619999999999999
 49
4.7625
 74
    0
 49
-0.9525
 74
    0
 49
0.9525
 74
    0
 49
-0.9525
 74
    0
  0
LTYPE
  5
48
330
5
100
AcDbSymbolTableRecord
100
AcDbLinetypeTableRecord
  2
CENTER2
 70
    0
  3
Center (.5x) ___ _ ___ _ ___ _ ___ _ ___ _ ___
 72
   65
 73
    4
 40
28.575
 49
19.05
 74
    0
 49
-3.175
 74
    0
 49
3.175
 74
    0
 49
-3.175
 74
    0
  0
LTYPE
  5
49
330
5
100
AcDbSymbolTableRecord
100
AcDbLinetypeTableRecord
  2
CENTERX2
 70
    0
  3
Center (2x) ________  __  ________  __  _____
 72
   65
 73
    4
 40
101.6
 49
63.5
 74
    0
 49
-12.7
 74
    0
 49
12.7
 74
    0
 49
-12.7
 74
    0
  0
ENDTAB
  0
TABLE
  2
LAYER
  5
2
330
0
100
AcDbSymbolTable
 70
    1
  0
LAYER
  5
10
330
2
100
AcDbSymbolTableRecord
100
AcDbLayerTableRecord
  2
0
 70
    0
 62
    7
  6
CONTINUOUS
370
    0
390
F
  0
LAYER
  5
4A
330
2
100
AcDbSymbolTableRecord
100
AcDbLayerTableRecord
  2
figura
 70
    0
 62
    7
  6
CONTINUOUS
370
    5
390
F
  0
LAYER
  5
4B
330
2
100
AcDbSymbolTableRecord
100
AcDbLayerTableRecord
  2
figura interior
 70
    0
 62
    2
  6
DOTTINY
370
    5
390
F
  0
LAYER
  5
4C
330
2
100
AcDbSymbolTableRecord
100
AcDbLayerTableRecord
  2
medidas
 70
    0
 62
    3
  6
CONTINUOUS
370
    9
390
F
  0
LAYER
  5
4D
330
2
100
AcDbSymbolTableRecord
100
AcDbLayerTableRecord
  2
trazos
 70
    0
 62
    5
  6
CONTINUOUS
370
    0
390
F
1001
LibreCad
1070
    1
  0
ENDTAB
  0
TABLE
  2
STYLE
  5
3
330
0
100
AcDbSymbolTable
 70
    3
  0
STYLE
  5
4E
330
2
100
AcDbSymbolTableRecord
100
AcDbTextStyleTableRecord
  2
Standard
 70
    0
 40
0
 41
1
 50
0
 71
    0
 42
1
  3
txt
  4

  0
ENDTAB
  0
TABLE
  2
VIEW
  5
6
330
0
100
AcDbSymbolTable
 70
    0
  0
ENDTAB
  0
TABLE
  2
UCS
  5
7
330
0
100
AcDbSymbolTable
 70
    0
  0
ENDTAB
  0
TABLE
  2
APPID
  5
9
330
0
100
AcDbSymbolTable
 70
    1
  0
APPID
  5
12
330
9
100
AcDbSymbolTableRecord
100
AcDbRegAppTableRecord
  2
ACAD
 70
    0
  0
APPID
  5
4F
330
9
100
AcDbSymbolTableRecord
100
AcDbRegAppTableRecord
  2
LibreCad
 70
    0
  0
ENDTAB
  0
TABLE
  2
DIMSTYLE
  5
A
330
0
100
AcDbSymbolTable
 70
    1
100
AcDbDimStyleTable
 71
    1
  0
DIMSTYLE
105
50
330
A
100
AcDbSymbolTableRecord
100
AcDbDimStyleTableRecord
  2
Standard
 70
    0
 40
1
 41
2.5
 42
0.625
 43
0.38
 44
1.25
 45
0
 46
0
 47
0
 48
0
 49
1
140
2.5
141
0.09
142
0
143
25.4
144
1
145
0
146
1
147
0.625
148
0
 71
    0
 72
    0
 73
    0
 74
    1
 75
    0
 76
    0
 77
    0
 78
    8
 79
    0
170
    0
171
    2
172
    0
173
    0
174
    0
175
    0
176
    0
177
    0
178
    0
179
    0
271
    2
272
    4
273
    2
274
    2
275
    0
276
    0
277
    2
278
   44
279
    0
280
    0
281
    0
282
    0
283
    1
284
    0
285
    0
286
    0
288
    0
289
    3
340
STANDARD
341

371
   -2
372
   -2
  0
ENDTAB
  0
TABLE
  2
BLOCK_RECORD
  5
1
330
0
100
AcDbSymbolTable
 70
    2
  0
BLOCK_RECORD
  5
1F
330
1
100
AcDbSymbolTableRecord
100
AcDbBlockTableRecord
  2
*Model_Space
 70
    0
280
    1
281
    0
  0
BLOCK_RECORD
  5
1E
330
1
100
AcDbSymbolTableRecord
100
AcDbBlockTableRecord
  2
*Paper_Space
 70
    0
280
    1
281
    0
  0
BLOCK_RECORD
  5
51
330
1
100
AcDbSymbolTableRecord
100
AcDbBlockTableRecord
  2
*D14
 70
    0
280
    1
281
    0
  0
BLOCK_RECORD
  5
54
330
1
100
AcDbSymbolTableRecord
100
AcDbBlockTableRecord
  2
*D5
 70
    0
280
    1
281
    0
  0
BLOCK_RECORD
  5
57
330
1
100
AcDbSymbolTableRecord
100
AcDbBlockTableRecord
  2
*D7
 70
    0
280
    1
281
    0
  0
BLOCK_RECORD
  5
5A
330
1
100
AcDbSymbolTableRecord
100
AcDbBlockTableRecord
  2
*D8
 70
    0
280
    1
281
    0
  0
BLOCK_RECORD
  5
5D
330
1
100
AcDbSymbolTableRecord
100
AcDbBlockTableRecord
  2
*D13
 70
    0
280
    1
281
    0
  0
BLOCK_RECORD
  5
60
330
1
100
AcDbSymbolTableRecord
100
AcDbBlockTableRecord
  2
*D4
 70
    0
280
    1
281
    0
  0
BLOCK_RECORD
  5
63
330
1
100
AcDbSymbolTableRecord
100
AcDbBlockTableRecord
  2
*D2
 70
    0
280
    1
281
    0
  0
BLOCK_RECORD
  5
66
330
1
100
AcDbSymbolTableRecord
100
AcDbBlockTableRecord
  2
*D3
 70
    0
280
    1
281
    0
  0
BLOCK_RECORD
  5
69
330
1
100
AcDbSymbolTableRecord
100
AcDbBlockTableRecord
  2
*D6
 70
    0
280
    1
281
    0
  0
BLOCK_RECORD
  5
6C
330
1
100
AcDbSymbolTableRecord
100
AcDbBlockTableRecord
  2
*D15
 70
    0
280
    1
281
    0
  0
BLOCK_RECORD
  5
6F
330
1
100
AcDbSymbolTableRecord
100
AcDbBlockTableRecord
  2
*D1
 70
    0
280
    1
281
    0
  0
BLOCK_RECORD
  5
72
330
1
100
AcDbSymbolTableRecord
100
AcDbBlockTableRecord
  2
*D9
 70
    0
280
    1
281
    0
  0
BLOCK_RECORD
  5
75
330
1
100
AcDbSymbolTableRecord
100
AcDbBlockTableRecord
  2
*D10
 70
    0
280
    1
281
    0
  0
BLOCK_RECORD
  5
78
330
1
100
AcDbSymbolTableRecord
100
AcDbBlockTableRecord
  2
*D12
 70
    0
280
    1
281
    0
  0
BLOCK_RECORD
  5
7B
330
1
100
AcDbSymbolTableRecord
100
AcDbBlockTableRecord
  2
*D11
 70
    0
280
    1
281
    0
  0
ENDTAB
  0
ENDSEC
  0
SECTION
  2
BLOCKS
  0
BLOCK
  5
20
330
1F
100
AcDbEntity
  8
0
100
AcDbBlockBegin
  2
*Model_Space
 70
    0
 10
0
 20
0
 30
0
  3
*Model_Space
  1

  0
ENDBLK
  5
21
330
1F
100
AcDbEntity
  8
0
100
AcDbBlockEnd
  0
BLOCK
  5
1C
330
1B
100
AcDbEntity
  8
0
100
AcDbBlockBegin
  2
*Paper_Space
 70
    0
 10
0
 20
0
 30
0
  3
*Paper_Space
  1

  0
ENDBLK
  5
1D
330
1F
100
AcDbEntity
  8
0
100
AcDbBlockEnd
  0
BLOCK
  5
52
330
51
100
AcDbEntity
  8
0
100
AcDbBlockBegin
  2
*D14
 70
    1
 10
0
 20
0
  3
*D14
  1

  0
LINE
  5
7E
100
AcDbEntity
  8
medidas
  6
ByBlock
 62
    0
370
   -2
100
AcDbLine
 10
-74.5
 20
-49.96255239799155
 11
-41.7
 21
-49.96255239799155
  0
SOLID
  5
7F
100
AcDbEntity
  8
medidas
  6
ByBlock
 62
    0
370
   -2
100
AcDbTrace
 10
-74.5
 20
-49.96255239799155
 30
0
 11
-72
 21
-49.54626774021871
 31
0
 12
-72
 22
-50.37883705576439
 32
0
 13
-72
 23
-50.37883705576439
 33
0
  0
SOLID
  5
80
100
AcDbEntity
  8
medidas
  6
ByBlock
 62
    0
370
   -2
100
AcDbTrace
 10
-41.7
 20
-49.96255239799155
 30
0
 11
-44.2
 21
-50.37883705576439
 31
0
 12
-44.2
 22
-49.54626774021871
 32
0
 13
-44.2
 23
-49.54626774021871
 33
0
  0
MTEXT
  5
81
100
AcDbEntity
  8
medidas
  6
CONTINUOUS
 62
    0
370
   -2
100
AcDbMText
 10
-58.1
 20
-48.08755239799155
 30
0
 40
2.5
 41
5.972222222222378
 71
    5
 72
    1
  1
32,8
  7
STANDARD
210
0
220
0
230
1
 50
0
 73
    2
 44
1
  0
LINE
  5
82
100
AcDbEntity
  8
medidas
  6
ByBlock
 62
    0
370
   -2
100
AcDbLine
 10
-74.5
 20
-0.625
 11
-74.5
 21
-51.21255239799155
  0
LINE
  5
83
100
AcDbEntity
  8
medidas
  6
ByBlock
 62
    0
370
   -2
100
AcDbLine
 10
-41.7
 20
-0.625
 11
-41.7
 21
-51.21255239799155
  0
ENDBLK
  5
53
330
51
100
AcDbEntity
  8
0
100
AcDbBlockEnd
  0
BLOCK
  5
55
330
54
100
AcDbEntity
  8
0
100
AcDbBlockBegin
  2
*D5
 70
    1
 10
0
 20
0
  3
*D5
  1

  0
LINE
  5
84
100
AcDbEntity
  8
medidas
  6
ByBlock
 62
    0
370
   -2
100
AcDbLine
 10
-74.5
 20
-43.82942470841749
 11
-65.8
 21
-43.82942470841749
  0
SOLID
  5
85
100
AcDbEntity
  8
medidas
  6
ByBlock
 62
    0
370
   -2
100
AcDbTrace
 10
-74.5
 20
-43.82942470841749
 30
0
 11
-72
 21
-43.41314005064465
 31
0
 12
-72
 22
-44.24570936619033
 32
0
 13
-72
 23
-44.24570936619033
 33
0
  0
SOLID
  5
86
100
AcDbEntity
  8
medidas
  6
ByBlock
 62
    0
370
   -2
100
AcDbTrace
 10
-65.8
 20
-43.82942470841749
 30
0
 11
-68.3
 21
-44.24570936619033
 31
0
 12
-68.3
 22
-43.41314005064465
 32
0
 13
-68.3
 23
-43.41314005064465
 33
0
  0
MTEXT
  5
87
100
AcDbEntity
  8
medidas
  6
CONTINUOUS
 62
    0
370
   -2
100
AcDbMText
 10
-70.15000000000001
 20
-41.95442470841749
 30
0
 40
2.5
 41
4.027777777777778
 71
    5
 72
    1
  1
8,7
  7
STANDARD
210
0
220
0
230
1
 50
0
 73
    2
 44
1
  0
LINE
  5
88
100
AcDbEntity
  8
medidas
  6
ByBlock
 62
    0
370
   -2
100
AcDbLine
 10
-74.5
 20
-0.625
 11
-74.5
 21
-45.07942470841749
  0
LINE
  5
89
100
AcDbEntity
  8
medidas
  6
ByBlock
 62
    0
370
   -2
100
AcDbLine
 10
-65.8
 20
-0.625
 11
-65.8
 21
-45.07942470841749
  0
ENDBLK
  5
56
330
54
100
AcDbEntity
  8
0
100
AcDbBlockEnd
  0
BLOCK
  5
58
330
57
100
AcDbEntity
  8
0
100
AcDbBlockBegin
  2
*D7
 70
    1
 10
0
 20
0
  3
*D7
  1

  0
LINE
  5
8A
100
AcDbEntity
  8
medidas
  6
ByBlock
 62
    0
370
   -2
100
AcDbLine
 10
-20.1
 20
-56.84362248873261
 11
-5
 21
-56.84362248873261
  0
SOLID
  5
8B
100
AcDbEntity
  8
medidas
  6
ByBlock
 62
    0
370
   -2
100
AcDbTrace
 10
-15.1
 20
-56.84362248873261
 30
0
 11
-17.6
 21
-57.25990714650545
 31
0
 12
-17.6
 22
-56.42733783095977
 32
0
 13
-17.6
 23
-56.42733783095977
 33
0
  0
SOLID
  5
8C
100
AcDbEntity
  8
medidas
  6
ByBlock
 62
    0
370
   -2
100
AcDbTrace
 10
-10
 20
-56.84362248873261
 30
0
 11
-7.5
 21
-56.42733783095977
 31
0
 12
-7.5
 22
-57.25990714650545
 32
0
 13
-7.5
 23
-57.25990714650545
 33
0
  0
MTEXT
  5
8D
100
AcDbEntity
  8
medidas
  6
CONTINUOUS
 62
    0
370
   -2
100
AcDbMText
 10
-12.55
 20
-54.96862248873261
 30
0
 40
2.5
 41
3.472222222222377
 71
    5
 72
    1
  1
5,1
  7
STANDARD
210
0
220
0
230
1
 50
0
 73
    2
 44
1
  0
LINE
  5
8E
100
AcDbEntity
  8
medidas
  6
ByBlock
 62
    0
370
   -2
100
AcDbLine
 10
-15.1
 20
-0.625
 11
-15.1
 21
-58.09362248873261
  0
LINE
  5
8F
100
AcDbEntity
  8
medidas
  6
ByBlock
 62
    0
370
   -2
100
AcDbLine
 10
-10
 20
-0.625
 11
-10
 21
-58.09362248873261
  0
ENDBLK
  5
59
330
57
100
AcDbEntity
  8
0
100
AcDbBlockEnd
  0
BLOCK
  5
5B
330
5A
100
AcDbEntity
  8
0
100
AcDbBlockBegin
  2
*D8
 70
    1
 10
0
 20
0
  3
*D8
  1

  0
LINE
  5
90
100
AcDbEntity
  8
medidas
  6
ByBlock
 62
    0
370
   -2
100
AcDbLine
 10
-15
 20
-63.80934647753752
 11
-0.2999999999999989
 21
-63.80934647753752
  0
SOLID
  5
91
100
AcDbEntity
  8
medidas
  6
ByBlock
 62
    0
370
   -2
100
AcDbTrace
 10
-10
 20
-63.80934647753752
 30
0
 11
-12.5
 21
-64.22563113531035
 31
0
 12
-12.5
 22
-63.39306181976468
 32
0
 13
-12.5
 23
-63.39306181976468
 33
0
  0
SOLID
  5
92
100
AcDbEntity
  8
medidas
  6
ByBlock
 62
    0
370
   -2
100
AcDbTrace
 10
-5.299999999999999
 20
-63.80934647753752
 30
0
 11
-2.799999999999999
 21
-63.39306181976468
 31
0
 12
-2.799999999999999
 22
-64.22563113531035
 32
0
 13
-2.799999999999999
 23
-64.22563113531035
 33
0
  0
MTEXT
  5
93
100
AcDbEntity
  8
medidas
  6
CONTINUOUS
 62
    0
370
   -2
100
AcDbMText
 10
-7.649999999999999
 20
-61.93434647753752
 30
0
 40
2.5
 41
4.305555555555555
 71
    5
 72
    1
  1
4,7
  7
STANDARD
210
0
220
0
230
1
 50
0
 73
    2
 44
1
  0
LINE
  5
94
100
AcDbEntity
  8
medidas
  6
ByBlock
 62
    0
370
   -2
100
AcDbLine
 10
-10
 20
-0.625
 11
-10
 21
-65.05934647753752
  0
LINE
  5
95
100
AcDbEntity
  8
medidas
  6
ByBlock
 62
    0
370
   -2
100
AcDbLine
 10
-5.299999999999999
 20
-0.625
 11
-5.299999999999999
 21
-65.05934647753752
  0
ENDBLK
  5
5C
330
5A
100
AcDbEntity
  8
0
100
AcDbBlockEnd
  0
BLOCK
  5
5E
330
5D
100
AcDbEntity
  8
0
100
AcDbBlockBegin
  2
*D13
 70
    1
 10
0
 20
0
  3
*D13
  1

  0
LINE
  5
96
100
AcDbEntity
  8
medidas
  6
ByBlock
 62
    0
370
   -2
100
AcDbLine
 10
20.65000000000001
 20
-64.00988885099014
 11
91.65000000000001
 21
-64.00988885099014
  0
SOLID
  5
97
100
AcDbEntity
  8
medidas
  6
ByBlock
 62
    0
370
   -2
100
AcDbTrace
 10
20.65000000000001
 20
-64.00988885099014
 30
0
 11
23.15000000000001
 21
-63.5936041932173
 31
0
 12
23.15000000000001
 22
-64.42617350876297
 32
0
 13
23.15000000000001
 23
-64.42617350876297
 33
0
  0
SOLID
  5
98
100
AcDbEntity
  8
medidas
  6
ByBlock
 62
    0
370
   -2
100
AcDbTrace
 10
91.65000000000001
 20
-64.00988885099014
 30
0
 11
89.15000000000001
 21
-64.42617350876297
 31
0
 12
89.15000000000001
 22
-63.5936041932173
 32
0
 13
89.15000000000001
 23
-63.5936041932173
 33
0
  0
MTEXT
  5
99
100
AcDbEntity
  8
medidas
  6
CONTINUOUS
 62
    0
370
   -2
100
AcDbMText
 10
56.15000000000001
 20
-62.13488885099014
 30
0
 40
2.5
 41
2.5
 71
    5
 72
    1
  1
71
  7
STANDARD
210
0
220
0
230
1
 50
0
 73
    2
 44
1
  0
LINE
  5
9A
100
AcDbEntity
  8
medidas
  6
ByBlock
 62
    0
370
   -2
100
AcDbLine
 10
20.65
 20
-0.6250000000000018
 11
20.65000000000001
 21
-65.25988885099014
  0
LINE
  5
9B
100
AcDbEntity
  8
medidas
  6
ByBlock
 62
    0
370
   -2
100
AcDbLine
 10
91.65000000000001
 20
-0.6250000000000071
 11
91.65000000000001
 21
-65.25988885099014
  0
ENDBLK
  5
5F
330
5D
100
AcDbEntity
  8
0
100
AcDbBlockEnd
  0
BLOCK
  5
61
330
60
100
AcDbEntity
  8
0
100
AcDbBlockBegin
  2
*D4
 70
    1
 10
0
 20
0
  3
*D4
  1

  0
LINE
  5
9C
100
AcDbEntity
  8
medidas
  6
ByBlock
 62
    0
370
   -2
100
AcDbLine
 10
-166.6517324809322
 20
-64.20327220099276
 11
-94.5
 21
-64.20327220099276
  0
SOLID
  5
9D
100
AcDbEntity
  8
medidas
  6
ByBlock
 62
    0
370
   -2
100
AcDbTrace
 10
-166.6517324809322
 20
-64.20327220099276
 30
0
 11
-164.1517324809322
 21
-63.78698754321992
 31
0
 12
-164.1517324809322
 22
-64.61955685876559
 32
0
 13
-164.1517324809322
 23
-64.61955685876559
 33
0
  0
SOLID
  5
9E
100
AcDbEntity
  8
medidas
  6
ByBlock
 62
    0
370
   -2
100
AcDbTrace
 10
-94.5
 20
-64.20327220099276
 30
0
 11
-97
 21
-64.61955685876559
 31
0
 12
-97
 22
-63.78698754321992
 32
0
 13
-97
 23
-63.78698754321992
 33
0
  0
MTEXT
  5
9F
100
AcDbEntity
  8
medidas
  6
CONTINUOUS
 62
    0
370
   -2
100
AcDbMText
 10
-130.5758662404661
 20
-62.32827220099276
 30
0
 40
2.5
 41
7.361111111111267
 71
    5
 72
    1
  1
72,15
  7
STANDARD
210
0
220
0
230
1
 50
0
 73
    2
 44
1
  0
LINE
  5
A0
100
AcDbEntity
  8
medidas
  6
ByBlock
 62
    0
370
   -2
100
AcDbLine
 10
-166.6517324809322
 20
-0.625
 11
-166.6517324809322
 21
-65.45327220099276
  0
LINE
  5
A1
100
AcDbEntity
  8
medidas
  6
ByBlock
 62
    0
370
   -2
100
AcDbLine
 10
-94.5
 20
-0.625
 11
-94.5
 21
-65.45327220099276
  0
ENDBLK
  5
62
330
60
100
AcDbEntity
  8
0
100
AcDbBlockEnd
  0
BLOCK
  5
64
330
63
100
AcDbEntity
  8
0
100
AcDbBlockBegin
  2
*D2
 70
    1
 10
0
 20
0
  3
*D2
  1

  0
LINE
  5
A2
100
AcDbEntity
  8
medidas
  6
ByBlock
 62
    0
370
   -2
100
AcDbLine
 10
-149.8516968369547
 20
-49.99999999999999
 11
-111.2259779764946
 21
-49.99999999999999
  0
SOLID
  5
A3
100
AcDbEntity
  8
medidas
  6
ByBlock
 62
    0
370
   -2
100
AcDbTrace
 10
-149.8516968369547
 20
-49.99999999999999
 30
0
 11
-147.3516968369547
 21
-49.58371534222715
 31
0
 12
-147.3516968369547
 22
-50.41628465777283
 32
0
 13
-147.3516968369547
 23
-50.41628465777283
 33
0
  0
SOLID
  5
A4
100
AcDbEntity
  8
medidas
  6
ByBlock
 62
    0
370
   -2
100
AcDbTrace
 10
-111.2259779764946
 20
-49.99999999999999
 30
0
 11
-113.7259779764946
 21
-50.41628465777283
 31
0
 12
-113.7259779764946
 22
-49.58371534222715
 32
0
 13
-113.7259779764946
 23
-49.58371534222715
 33
0
  0
MTEXT
  5
A5
100
AcDbEntity
  8
medidas
  6
CONTINUOUS
 62
    0
370
   -2
100
AcDbMText
 10
-130.5388374067246
 20
-48.12499999999999
 30
0
 40
2.5
 41
7.916666666667132
 71
    5
 72
    1
  1
38,63
  7
STANDARD
210
0
220
0
230
1
 50
0
 73
    2
 44
1
  0
LINE
  5
A6
100
AcDbEntity
  8
medidas
  6
ByBlock
 62
    0
370
   -2
100
AcDbLine
 10
-149.8516968369547
 20
-0.625
 11
-149.8516968369547
 21
-51.24999999999999
  0
LINE
  5
A7
100
AcDbEntity
  8
medidas
  6
ByBlock
 62
    0
370
   -2
100
AcDbLine
 10
-111.2259779764946
 20
-0.6250000000000071
 11
-111.2259779764946
 21
-51.24999999999999
  0
ENDBLK
  5
65
330
63
100
AcDbEntity
  8
0
100
AcDbBlockEnd
  0
BLOCK
  5
67
330
66
100
AcDbEntity
  8
0
100
AcDbBlockBegin
  2
*D3
 70
    1
 10
0
 20
0
  3
*D3
  1

  0
LINE
  5
A8
100
AcDbEntity
  8
medidas
  6
ByBlock
 62
    0
370
   -2
100
AcDbLine
 10
-158.0017074148176
 20
-56.85470490087913
 11
-103.0759673986317
 21
-56.85470490087913
  0
SOLID
  5
A9
100
AcDbEntity
  8
medidas
  6
ByBlock
 62
    0
370
   -2
100
AcDbTrace
 10
-158.0017074148176
 20
-56.85470490087913
 30
0
 11
-155.5017074148176
 21
-56.43842024310629
 31
0
 12
-155.5017074148176
 22
-57.27098955865197
 32
0
 13
-155.5017074148176
 23
-57.27098955865197
 33
0
  0
SOLID
  5
AA
100
AcDbEntity
  8
medidas
  6
ByBlock
 62
    0
370
   -2
100
AcDbTrace
 10
-103.0759673986317
 20
-56.85470490087913
 30
0
 11
-105.5759673986317
 21
-57.27098955865197
 31
0
 12
-105.5759673986317
 22
-56.43842024310629
 32
0
 13
-105.5759673986317
 23
-56.43842024310629
 33
0
  0
MTEXT
  5
AB
100
AcDbEntity
  8
medidas
  6
CONTINUOUS
 62
    0
370
   -2
100
AcDbMText
 10
-130.5388374067246
 20
-54.97970490087913
 30
0
 40
2.5
 41
8.194444444444756
 71
    5
 72
    1
  1
54,93
  7
STANDARD
210
0
220
0
230
1
 50
0
 73
    2
 44
1
  0
LINE
  5
AC
100
AcDbEntity
  8
medidas
  6
ByBlock
 62
    0
370
   -2
100
AcDbLine
 10
-158.0017074148176
 20
-0.625
 11
-158.0017074148176
 21
-58.10470490087913
  0
LINE
  5
AD
100
AcDbEntity
  8
medidas
  6
ByBlock
 62
    0
370
   -2
100
AcDbLine
 10
-103.0759673986317
 20
-0.6250000000000071
 11
-103.0759673986317
 21
-58.10470490087913
  0
ENDBLK
  5
68
330
66
100
AcDbEntity
  8
0
100
AcDbBlockEnd
  0
BLOCK
  5
6A
330
69
100
AcDbEntity
  8
0
100
AcDbBlockBegin
  2
*D6
 70
    1
 10
0
 20
0
  3
*D6
  1

  0
LINE
  5
AE
100
AcDbEntity
  8
medidas
  6
ByBlock
 62
    0
370
   -2
100
AcDbLine
 10
-31.7
 20
-50
 11
-15.1
 21
-50
  0
SOLID
  5
AF
100
AcDbEntity
  8
medidas
  6
ByBlock
 62
    0
370
   -2
100
AcDbTrace
 10
-31.7
 20
-50
 30
0
 11
-29.2
 21
-49.58371534222716
 31
0
 12
-29.2
 22
-50.41628465777284
 32
0
 13
-29.2
 23
-50.41628465777284
 33
0
  0
SOLID
  5
B0
100
AcDbEntity
  8
medidas
  6
ByBlock
 62
    0
370
   -2
100
AcDbTrace
 10
-15.1
 20
-50
 30
0
 11
-17.6
 21
-50.41628465777284
 31
0
 12
-17.6
 22
-49.58371534222716
 32
0
 13
-17.6
 23
-49.58371534222716
 33
0
  0
MTEXT
  5
B1
100
AcDbEntity
  8
medidas
  6
CONTINUOUS
 62
    0
370
   -2
100
AcDbMText
 10
-23.4
 20
-48.125
 30
0
 40
2.5
 41
5.416666666666977
 71
    5
 72
    1
  1
16,6
  7
STANDARD
210
0
220
0
230
1
 50
0
 73
    2
 44
1
  0
LINE
  5
B2
100
AcDbEntity
  8
medidas
  6
ByBlock
 62
    0
370
   -2
100
AcDbLine
 10
-31.7
 20
-0.625
 11
-31.7
 21
-51.25
  0
LINE
  5
B3
100
AcDbEntity
  8
medidas
  6
ByBlock
 62
    0
370
   -2
100
AcDbLine
 10
-15.1
 20
-0.625
 11
-15.1
 21
-51.25
  0
ENDBLK
  5
6B
330
69
100
AcDbEntity
  8
0
100
AcDbBlockEnd
  0
BLOCK
  5
6D
330
6C
100
AcDbEntity
  8
0
100
AcDbBlockBegin
  2
*D15
 70
    1
 10
0
 20
0
  3
*D15
  1

  0
LINE
  5
B4
100
AcDbEntity
  8
medidas
  6
ByBlock
 62
    0
370
   -2
100
AcDbLine
 10
-74.5
 20
-56.6940340084994
 11
-31.7
 21
-56.6940340084994
  0
SOLID
  5
B5
100
AcDbEntity
  8
medidas
  6
ByBlock
 62
    0
370
   -2
100
AcDbTrace
 10
-74.5
 20
-56.6940340084994
 30
0
 11
-72
 21
-56.27774935072656
 31
0
 12
-72
 22
-57.11031866627224
 32
0
 13
-72
 23
-57.11031866627224
 33
0
  0
SOLID
  5
B6
100
AcDbEntity
  8
medidas
  6
ByBlock
 62
    0
370
   -2
100
AcDbTrace
 10
-31.7
 20
-56.6940340084994
 30
0
 11
-34.2
 21
-57.11031866627224
 31
0
 12
-34.2
 22
-56.27774935072656
 32
0
 13
-34.2
 23
-56.27774935072656
 33
0
  0
MTEXT
  5
B7
100
AcDbEntity
  8
medidas
  6
CONTINUOUS
 62
    0
370
   -2
100
AcDbMText
 10
-53.1
 20
-54.8190340084994
 30
0
 40
2.5
 41
6.25
 71
    5
 72
    1
  1
42,8
  7
STANDARD
210
0
220
0
230
1
 50
0
 73
    2
 44
1
  0
LINE
  5
B8
100
AcDbEntity
  8
medidas
  6
ByBlock
 62
    0
370
   -2
100
AcDbLine
 10
-74.5
 20
-0.625
 11
-74.5
 21
-57.9440340084994
  0
LINE
  5
B9
100
AcDbEntity
  8
medidas
  6
ByBlock
 62
    0
370
   -2
100
AcDbLine
 10
-31.7
 20
-0.625
 11
-31.7
 21
-57.9440340084994
  0
ENDBLK
  5
6E
330
6C
100
AcDbEntity
  8
0
100
AcDbBlockEnd
  0
BLOCK
  5
70
330
6F
100
AcDbEntity
  8
0
100
AcDbBlockBegin
  2
*D1
 70
    1
 10
0
 20
0
  3
*D1
  1

  0
LINE
  5
BA
100
AcDbEntity
  8
medidas
  6
ByBlock
 62
    0
370
   -2
100
AcDbLine
 10
-137.5759641779614
 20
-43.89802045067878
 11
-123.5757683029707
 21
-43.89802045067878
  0
SOLID
  5
BB
100
AcDbEntity
  8
medidas
  6
ByBlock
 62
    0
370
   -2
100
AcDbTrace
 10
-137.5759641779614
 20
-43.89802045067878
 30
0
 11
-135.0759641779614
 21
-43.48173579290594
 31
0
 12
-135.0759641779614
 22
-44.31430510845162
 32
0
 13
-135.0759641779614
 23
-44.31430510845162
 33
0
  0
SOLID
  5
BC
100
AcDbEntity
  8
medidas
  6
ByBlock
 62
    0
370
   -2
100
AcDbTrace
 10
-123.5757683029707
 20
-43.89802045067878
 30
0
 11
-126.0757683029707
 21
-44.31430510845162
 31
0
 12
-126.0757683029707
 22
-43.48173579290594
 32
0
 13
-126.0757683029707
 23
-43.48173579290594
 33
0
  0
MTEXT
  5
BD
100
AcDbEntity
  8
medidas
  6
CONTINUOUS
 62
    0
370
   -2
100
AcDbMText
 10
-130.5758662404661
 20
-42.02302045067878
 30
0
 40
2.5
 41
2.777777777777778
 71
    5
 72
    1
  1
14
  7
STANDARD
210
0
220
0
230
1
 50
0
 73
    2
 44
1
  0
LINE
  5
BE
100
AcDbEntity
  8
medidas
  6
ByBlock
 62
    0
370
   -2
100
AcDbLine
 10
-137.5759641779614
 20
-0.625
 11
-137.5759641779614
 21
-45.14802045067878
  0
LINE
  5
BF
100
AcDbEntity
  8
medidas
  6
ByBlock
 62
    0
370
   -2
100
AcDbLine
 10
-123.5757683029707
 20
-0.625
 11
-123.5757683029707
 21
-45.14802045067878
  0
ENDBLK
  5
71
330
6F
100
AcDbEntity
  8
0
100
AcDbBlockEnd
  0
BLOCK
  5
73
330
72
100
AcDbEntity
  8
0
100
AcDbBlockBegin
  2
*D9
 70
    1
 10
0
 20
0
  3
*D9
  1

  0
LINE
  5
C0
100
AcDbEntity
  8
medidas
  6
ByBlock
 62
    0
370
   -2
100
AcDbLine
 10
-10.3
 20
-70.35270491632502
 11
5
 21
-70.35270491632502
  0
SOLID
  5
C1
100
AcDbEntity
  8
medidas
  6
ByBlock
 62
    0
370
   -2
100
AcDbTrace
 10
-5.299999999999999
 20
-70.35270491632502
 30
0
 11
-7.799999999999999
 21
-70.76898957409786
 31
0
 12
-7.799999999999999
 22
-69.93642025855219
 32
0
 13
-7.799999999999999
 23
-69.93642025855219
 33
0
  0
SOLID
  5
C2
100
AcDbEntity
  8
medidas
  6
ByBlock
 62
    0
370
   -2
100
AcDbTrace
 10
0
 20
-70.35270491632502
 30
0
 11
2.5
 21
-69.93642025855219
 31
0
 12
2.5
 22
-70.76898957409786
 32
0
 13
2.5
 23
-70.76898957409786
 33
0
  0
MTEXT
  5
C3
100
AcDbEntity
  8
medidas
  6
CONTINUOUS
 62
    0
370
   -2
100
AcDbMText
 10
-2.649999999999999
 20
-68.47770491632502
 30
0
 40
2.5
 41
4.027777777778088
 71
    5
 72
    1
  1
5,3
  7
STANDARD
210
0
220
0
230
1
 50
0
 73
    2
 44
1
  0
LINE
  5
C4
100
AcDbEntity
  8
medidas
  6
ByBlock
 62
    0
370
   -2
100
AcDbLine
 10
-5.299999999999999
 20
-0.625
 11
-5.299999999999999
 21
-71.60270491632502
  0
LINE
  5
C5
100
AcDbEntity
  8
medidas
  6
ByBlock
 62
    0
370
   -2
100
AcDbLine
 10
-1.148106374200643e-16
 20
-0.625
 11
-2.296212748401287e-16
 21
-71.60270491632502
  0
ENDBLK
  5
74
330
72
100
AcDbEntity
  8
0
100
AcDbBlockEnd
  0
BLOCK
  5
76
330
75
100
AcDbEntity
  8
0
100
AcDbBlockBegin
  2
*D10
 70
    1
 10
0
 20
0
  3
*D10
  1

  0
LINE
  5
C6
100
AcDbEntity
  8
medidas
  6
ByBlock
 62
    0
370
   -2
100
AcDbLine
 10
43.65000000000001
 20
-44.09140380068203
 11
68.64999999999998
 21
-44.09140380068203
  0
SOLID
  5
C7
100
AcDbEntity
  8
medidas
  6
ByBlock
 62
    0
370
   -2
100
AcDbTrace
 10
43.65000000000001
 20
-44.09140380068203
 30
0
 11
46.15000000000001
 21
-43.67511914290919
 31
0
 12
46.15000000000001
 22
-44.50768845845487
 32
0
 13
46.15000000000001
 23
-44.50768845845487
 33
0
  0
SOLID
  5
C8
100
AcDbEntity
  8
medidas
  6
ByBlock
 62
    0
370
   -2
100
AcDbTrace
 10
68.64999999999998
 20
-44.09140380068203
 30
0
 11
66.14999999999998
 21
-44.50768845845487
 31
0
 12
66.14999999999998
 22
-43.67511914290919
 32
0
 13
66.14999999999998
 23
-43.67511914290919
 33
0
  0
MTEXT
  5
C9
100
AcDbEntity
  8
medidas
  6
CONTINUOUS
 62
    0
370
   -2
100
AcDbMText
 10
56.14999999999999
 20
-42.21640380068203
 30
0
 40
2.5
 41
3.055555555555711
 71
    5
 72
    1
  1
25
  7
STANDARD
210
0
220
0
230
1
 50
0
 73
    2
 44
1
  0
LINE
  5
CA
100
AcDbEntity
  8
medidas
  6
ByBlock
 62
    0
370
   -2
100
AcDbLine
 10
43.65000000000001
 20
-0.625
 11
43.65000000000001
 21
-45.34140380068203
  0
LINE
  5
CB
100
AcDbEntity
  8
medidas
  6
ByBlock
 62
    0
370
   -2
100
AcDbLine
 10
68.64999999999998
 20
-0.625
 11
68.64999999999998
 21
-45.34140380068203
  0
ENDBLK
  5
77
330
75
100
AcDbEntity
  8
0
100
AcDbBlockEnd
  0
BLOCK
  5
79
330
78
100
AcDbEntity
  8
0
100
AcDbBlockBegin
  2
*D12
 70
    1
 10
0
 20
0
  3
*D12
  1

  0
LINE
  5
CC
100
AcDbEntity
  8
medidas
  6
ByBlock
 62
    0
370
   -2
100
AcDbLine
 10
32.95
 20
-56.85470490087945
 11
79.34999999999999
 21
-56.85470490087945
  0
SOLID
  5
CD
100
AcDbEntity
  8
medidas
  6
ByBlock
 62
    0
370
   -2
100
AcDbTrace
 10
32.95
 20
-56.85470490087945
 30
0
 11
35.45
 21
-56.43842024310661
 31
0
 12
35.45
 22
-57.27098955865229
 32
0
 13
35.45
 23
-57.27098955865229
 33
0
  0
SOLID
  5
CE
100
AcDbEntity
  8
medidas
  6
ByBlock
 62
    0
370
   -2
100
AcDbTrace
 10
79.34999999999999
 20
-56.85470490087945
 30
0
 11
76.84999999999999
 21
-57.27098955865229
 31
0
 12
76.84999999999999
 22
-56.43842024310661
 32
0
 13
76.84999999999999
 23
-56.43842024310661
 33
0
  0
MTEXT
  5
CF
100
AcDbEntity
  8
medidas
  6
CONTINUOUS
 62
    0
370
   -2
100
AcDbMText
 10
56.15
 20
-54.97970490087945
 30
0
 40
2.5
 41
6.527777777777933
 71
    5
 72
    1
  1
46,4
  7
STANDARD
210
0
220
0
230
1
 50
0
 73
    2
 44
1
  0
LINE
  5
D0
100
AcDbEntity
  8
medidas
  6
ByBlock
 62
    0
370
   -2
100
AcDbLine
 10
32.95
 20
-0.625
 11
32.95
 21
-58.10470490087945
  0
LINE
  5
D1
100
AcDbEntity
  8
medidas
  6
ByBlock
 62
    0
370
   -2
100
AcDbLine
 10
79.34999999999999
 20
-0.625
 11
79.34999999999999
 21
-58.10470490087945
  0
ENDBLK
  5
7A
330
78
100
AcDbEntity
  8
0
100
AcDbBlockEnd
  0
BLOCK
  5
7C
330
7B
100
AcDbEntity
  8
0
100
AcDbBlockBegin
  2
*D11
 70
    1
 10
0
 20
0
  3
*D11
  1

  0
LINE
  5
D2
100
AcDbEntity
  8
medidas
  6
ByBlock
 62
    0
370
   -2
100
AcDbLine
 10
40.45000000000002
 20
-49.69952095076879
 11
71.84999999999997
 21
-49.69952095076879
  0
SOLID
  5
D3
100
AcDbEntity
  8
medidas
  6
ByBlock
 62
    0
370
   -2
100
AcDbTrace
 10
40.45000000000002
 20
-49.69952095076879
 30
0
 11
42.95000000000002
 21
-49.28323629299595
 31
0
 12
42.95000000000002
 22
-50.11580560854163
 32
0
 13
42.95000000000002
 23
-50.11580560854163
 33
0
  0
SOLID
  5
D4
100
AcDbEntity
  8
medidas
  6
ByBlock
 62
    0
370
   -2
100
AcDbTrace
 10
71.84999999999997
 20
-49.69952095076879
 30
0
 11
69.34999999999997
 21
-50.11580560854163
 31
0
 12
69.34999999999997
 22
-49.28323629299595
 32
0
 13
69.34999999999997
 23
-49.28323629299595
 33
0
  0
MTEXT
  5
D5
100
AcDbEntity
  8
medidas
  6
CONTINUOUS
 62
    0
370
   -2
100
AcDbMText
 10
56.14999999999999
 20
-47.82452095076879
 30
0
 40
2.5
 41
5.694444444444599
 71
    5
 72
    1
  1
31,4
  7
STANDARD
210
0
220
0
230
1
 50
0
 73
    2
 44
1
  0
LINE
  5
D6
100
AcDbEntity
  8
medidas
  6
ByBlock
 62
    0
370
   -2
100
AcDbLine
 10
40.45000000000002
 20
-0.625
 11
40.45000000000002
 21
-50.94952095076879
  0
LINE
  5
D7
100
AcDbEntity
  8
medidas
  6
ByBlock
 62
    0
370
   -2
100
AcDbLine
 10
71.84999999999997
 20
-0.625
 11
71.84999999999997
 21
-50.94952095076879
  0
ENDBLK
  5
7D
330
7B
100
AcDbEntity
  8
0
100
AcDbBlockEnd
  0
ENDSEC
  0
SECTION
  2
ENTITIES
  0
LINE
  5
D8
100
AcDbEntity
  8
trazos
  6
ByLayer
 62
  256
370
   -1
100
AcDbLine
 10
0
 20
0
 11
10
 21
0
  0
LINE
  5
D9
100
AcDbEntity
  8
trazos
  6
ByLayer
 62
  256
370
   -1
100
AcDbLine
 10
0
 20
0
 11
6.123233995736766e-16
 21
10
  0
LINE
  5
DA
100
AcDbEntity
  8
trazos
  6
ByLayer
 62
  256
370
   -1
100
AcDbLine
 10
-15.1
 20
1.849216666712503e-15
 11
-15.1
 21
10
  0
LINE
  5
DB
100
AcDbEntity
  8
trazos
  6
ByLayer
 62
  256
370
   -1
100
AcDbLine
 10
-5.3
 20
6.490628035480972e-16
 11
-5.299999999999999
 21
10
  0
LINE
  5
DC
100
AcDbEntity
  8
trazos
  6
ByLayer
 62
  256
370
   -1
100
AcDbLine
 10
2.213549089458841e-15
 20
36.15
 11
10
 21
36.15
  0
LINE
  5
DD
100
AcDbEntity
  8
trazos
  6
ByLayer
 62
  256
370
   -1
100
AcDbLine
 10
-6.640647268376522e-15
 20
-36.15
 11
9.999999999999993
 21
-36.15
  0
LINE
  5
DE
100
AcDbEntity
  8
trazos
  6
ByLayer
 62
  256
370
   -1
100
AcDbLine
 10
-31.7
 20
3.882130353297109e-15
 11
-31.7
 21
10
  0
LINE
  5
DF
100
AcDbEntity
  8
trazos
  6
ByLayer
 62
  256
370
   -1
100
AcDbLine
 10
7.654042494670958e-16
 20
12.5
 11
10
 21
12.5
  0
LINE
  5
E0
100
AcDbEntity
  8
trazos
  6
ByLayer
 62
  256
370
   -1
100
AcDbLine
 10
-2.296212748401287e-15
 20
-12.5
 11
9.999999999999998
 21
-12.5
  0
LINE
  5
E1
100
AcDbEntity
  8
figura
  6
ByLayer
 62
  256
370
   -1
100
AcDbLine
 10
-15.1
 20
12.5
 11
-31.7
 21
12.5
  0
LINE
  5
E2
100
AcDbEntity
  8
figura
  6
ByLayer
 62
  256
370
   -1
100
AcDbLine
 10
-15.1
 20
-12.5
 11
-31.7
 21
-12.5
  0
LINE
  5
E3
100
AcDbEntity
  8
trazos
  6
ByLayer
 62
  256
370
   -1
100
AcDbLine
 10
-4.261770861032789e-15
 20
-23.2
 11
9.999999999999996
 21
-23.2
  0
LINE
  5
E4
100
AcDbEntity
  8
trazos
  6
ByLayer
 62
  256
370
   -1
100
AcDbLine
 10
1.42059028701093e-15
 20
23.2
 11
10
 21
23.2
  0
LINE
  5
E5
100
AcDbEntity
  8
figura
  6
ByLayer
 62
  256
370
   -1
100
AcDbLine
 10
-31.7
 20
12.5
 11
-31.7
 21
23.2
  0
LINE
  5
E6
100
AcDbEntity
  8
figura
  6
ByLayer
 62
  256
370
   -1
100
AcDbLine
 10
-31.7
 20
-12.5
 11
-31.7
 21
-23.2
  0
LINE
  5
E7
100
AcDbEntity
  8
trazos
  6
ByLayer
 62
  256
370
   -1
100
AcDbLine
 10
-74.5
 20
9.123618653647781e-15
 11
-74.5
 21
10.00000000000001
  0
LINE
  5
E8
100
AcDbEntity
  8
figura
  6
ByLayer
 62
  256
370
   -1
100
AcDbLine
 10
-31.7
 20
12.5
 11
-31.7
 21
-12.5
  0
LINE
  5
E9
100
AcDbEntity
  8
trazos
  6
ByLayer
 62
  256
370
   -1
100
AcDbLine
 10
1.184845778175064e-15
 20
19.35
 11
10
 21
19.35
  0
LINE
  5
EA
100
AcDbEntity
  8
trazos
  6
ByLayer
 62
  256
370
   -1
100
AcDbLine
 10
-3.554537334525193e-15
 20
-19.35
 11
9.999999999999996
 21
-19.35
  0
LINE
  5
EB
100
AcDbEntity
  8
figura
  6
ByLayer
 62
  256
370
   -1
100
AcDbLine
 10
-74.5
 20
19.35
 11
-74.5
 21
-19.35
  0
LINE
  5
EC
100
AcDbEntity
  8
trazos
  6
ByLayer
 62
  256
370
   -1
100
AcDbLine
 10
-41.7
 20
5.106777152444462e-15
 11
-41.7
 21
10.00000000000001
  0
LINE
  5
ED
100
AcDbEntity
  8
trazos
  6
ByLayer
 62
  256
370
   -1
100
AcDbLine
 10
1.683889348827611e-15
 20
27.5
 11
10
 21
27.5
  0
LINE
  5
EE
100
AcDbEntity
  8
trazos
  6
ByLayer
 62
  256
370
   -1
100
AcDbLine
 10
-5.051668046482832e-15
 20
-27.5
 11
9.999999999999995
 21
-27.5
  0
ELLIPSE
  5
EF
100
AcDbEntity
  8
figura
  6
ByLayer
 62
  256
370
   -1
100
AcDbEllipse
 10
-41.7
 20
19.35
 30
0
 11
-32.8
 21
0
 31
0
 40
0.2484756097560975
 41
4.71238898038469
 42
4.440892098500626e-16
  0
ELLIPSE
  5
F0
100
AcDbEntity
  8
figura
  6
ByLayer
 62
  256
370
   -1
100
AcDbEllipse
 10
-41.7
 20
23.2
 30
0
 11
10
 21
0
 31
0
 40
0.4300000000000004
 41
0
 42
1.570796326794896
  0
ELLIPSE
  5
F1
100
AcDbEntity
  8
figura
  6
ByLayer
 62
  256
370
   -1
100
AcDbEllipse
 10
-41.7
 20
-19.35
 30
0
 11
-32.8
 21
0
 31
0
 40
0.2484756097560975
 41
4.440892098500626e-16
 42
1.570796326794897
  0
ELLIPSE
  5
F2
100
AcDbEntity
  8
figura
  6
ByLayer
 62
  256
370
   -1
100
AcDbEllipse
 10
-41.7
 20
-23.2
 30
0
 11
10
 21
0
 31
0
 40
0.43
 41
4.71238898038469
 42
0
  0
LINE
  5
F3
100
AcDbEntity
  8
trazos
  6
ByLayer
 62
  256
370
   -1
100
AcDbLine
 10
2.173748068486552e-15
 20
35.5
 11
10
 21
35.5
  0
LINE
  5
F4
100
AcDbEntity
  8
trazos
  6
ByLayer
 62
  256
370
   -1
100
AcDbLine
 10
-6.521244205459655e-15
 20
-35.5
 11
9.999999999999993
 21
-35.5
  0
LINE
  5
F5
100
AcDbEntity
  8
figura
  6
ByLayer
 62
  256
370
   -1
100
AcDbLine
 10
-5.300000000000002
 20
-36.15
 11
-2.173748068486552e-15
 21
-35.5
  0
LINE
  5
F6
100
AcDbEntity
  8
figura
  6
ByLayer
 62
  256
370
   -1
100
AcDbLine
 10
-2.173748068486552e-15
 20
-35.5
 11
2.173748068486552e-15
 21
35.5
  0
LINE
  5
F7
100
AcDbEntity
  8
figura
  6
ByLayer
 62
  256
370
   -1
100
AcDbLine
 10
2.173748068486552e-15
 20
35.5
 11
-5.299999999999995
 21
36.15
  0
LINE
  5
F8
100
AcDbEntity
  8
figura
  6
ByLayer
 62
  256
370
   -1
100
AcDbLine
 10
-5.299999999999995
 20
36.15
 11
-9.799999999999999
 21
19.35
  0
LINE
  5
F9
100
AcDbEntity
  8
figura
  6
ByLayer
 62
  256
370
   -1
100
AcDbLine
 10
-5.300000000000002
 20
-36.15
 11
-9.800000000000002
 21
-19.35
  0
LINE
  5
FA
100
AcDbEntity
  8
trazos
  6
ByLayer
 62
  256
370
   -1
100
AcDbLine
 10
9.613477373306721e-16
 20
15.7
 11
10
 21
15.7
  0
LINE
  5
FB
100
AcDbEntity
  8
trazos
  6
ByLayer
 62
  256
370
   -1
100
AcDbLine
 10
-2.884043211992017e-15
 20
-15.7
 11
9.999999999999996
 21
-15.7
  0
LINE
  5
FC
100
AcDbEntity
  8
figura
  6
ByLayer
 62
  256
370
   -1
100
AcDbLine
 10
-9.799999999999999
 20
19.35
 11
-15.1
 21
15.7
  0
LINE
  5
FD
100
AcDbEntity
  8
figura
  6
ByLayer
 62
  256
370
   -1
100
AcDbLine
 10
-15.1
 20
15.7
 11
-15.1
 21
-15.7
  0
LINE
  5
FE
100
AcDbEntity
  8
figura
  6
ByLayer
 62
  256
370
   -1
100
AcDbLine
 10
-15.1
 20
-15.7
 11
-9.800000000000004
 21
-19.35
  0
LINE
  5
FF
100
AcDbEntity
  8
trazos
  6
ByLayer
 62
  256
370
   -1
100
AcDbLine
 10
-65.8
 20
19.35
 11
-65.8
 21
-19.35
  0
LINE
  5
100
100
AcDbEntity
  8
trazos
  6
ByLayer
 62
  256
370
   -1
100
AcDbLine
 10
-1.285879139104721e-15
 20
-7
 11
9.999999999999998
 21
-7
  0
LINE
  5
101
100
AcDbEntity
  8
trazos
  6
ByLayer
 62
  256
370
   -1
100
AcDbLine
 10
4.286263797015736e-16
 20
7
 11
10
 21
7
  0
LINE
  5
102
100
AcDbEntity
  8
figura interior
  6
ByLayer
 62
  256
370
   -1
100
AcDbLine
 10
-65.8
 20
7
 11
-65.8
 21
-7
  0
ELLIPSE
  5
103
100
AcDbEntity
  8
figura interior
  6
ByLayer
 62
  256
370
   -1
100
AcDbEllipse
 10
-74.5
 20
0
 30
0
 11
0
 21
19.35
 31
0
 40
0.4816119223203801
 41
5.082076612673669
 42
0
  0
ELLIPSE
  5
104
100
AcDbEntity
  8
figura interior
  6
ByLayer
 62
  256
370
   -1
100
AcDbEllipse
 10
-74.5
 20
9.123618653647781e-15
 30
0
 11
0
 21
-19.35000112740108
 31
0
 40
0.4824080138572492
 41
4.440892098500626e-16
 42
1.200551906247863
  0
LINE
  5
105
100
AcDbEntity
  8
trazos
  6
ByLayer
 62
  256
370
   -1
100
AcDbLine
 10
-94.5
 20
1.157291225194249e-14
 11
-94.5
 21
10.00000000000001
  0
ARC
  5
106
100
AcDbEntity
  8
trazos
  6
ByLayer
 62
  256
370
   -1
100
AcDbCircle
 10
-94.5
 20
-36.15
 40
72.15173248093215
100
AcDbArc
 50
90
 51
180
  0
LINE
  5
107
100
AcDbEntity
  8
trazos
  6
ByLayer
 62
  256
370
   -1
100
AcDbLine
 10
-166.6517324809322
 20
-36.14999999999999
 11
-166.6517324809322
 21
-26.14999999999999
  0
LINE
  5
108
100
AcDbEntity
  8
trazos
  6
ByLayer
 62
  256
370
   -1
100
AcDbLine
 10
-166.6517324809322
 20
36.15
 11
-94.5
 21
-36.15
  0
LINE
  5
109
100
AcDbEntity
  8
trazos
  6
ByLayer
 62
  256
370
   -1
100
AcDbLine
 10
-94.5
 20
36.00173248093216
 11
-166.6517324809322
 21
-36.15
  0
CIRCLE
  5
10A
100
AcDbEntity
  8
figura
  6
ByLayer
 62
  256
370
   -1
100
AcDbCircle
 10
-130.5388374067246
 20
-0.03710492579248906
 40
36.03885650799499
  0
LINE
  5
10B
100
AcDbEntity
  8
trazos
  6
ByLayer
 62
  256
370
   -1
100
AcDbLine
 10
-130.5388374067246
 20
-0.03710492579248906
 11
-130.5388374067246
 21
9.962895074207511
  0
CIRCLE
  5
10C
100
AcDbEntity
  8
figura
  6
ByLayer
 62
  256
370
   -1
100
AcDbCircle
 10
-130.5388374067246
 20
-0.03710492579248906
 40
27.46289507420751
  0
CIRCLE
  5
10D
100
AcDbEntity
  8
figura
  6
ByLayer
 62
  256
370
   -1
100
AcDbCircle
 10
-130.5388374067246
 20
-0.03710492579248906
 40
19.31289507420751
  0
CIRCLE
  5
10E
100
AcDbEntity
  8
figura
  6
ByLayer
 62
  256
370
   -1
100
AcDbCircle
 10
-130.5758662404661
 20
0
 40
7.000097937495464
  0
DIMENSION
  5
10F
100
AcDbEntity
  8
medidas
  6
ByLayer
 62
  256
370
   -1
100
AcDbDimension
  2
*D1
 10
-123.5757683029707
 20
-43.89802045067878
 30
0
 11
-130.5758662404661
 21
-42.02302045067878
 31
0
 70
   32
 71
    5
  3
Standard
 53
0
210
0
220
0
230
1
100
AcDbAlignedDimension
 13
-137.5759641779614
 23
0
 33
0
 14
-123.5757683029707
 24
0
 34
0
100
AcDbRotatedDimension
  0
DIMENSION
  5
110
100
AcDbEntity
  8
medidas
  6
ByLayer
 62
  256
370
   -1
100
AcDbDimension
  2
*D2
 10
-111.2259779764946
 20
-49.99999999999999
 30
0
 11
-130.5388374067246
 21
-48.12499999999999
 31
0
 70
   32
 71
    5
  3
Standard
 53
0
210
0
220
0
230
1
100
AcDbAlignedDimension
 13
-149.8516968369547
 23
0
 33
0
 14
-111.2259779764946
 24
-7.105427357601002e-15
 34
0
100
AcDbRotatedDimension
  0
DIMENSION
  5
111
100
AcDbEntity
  8
medidas
  6
ByLayer
 62
  256
370
   -1
100
AcDbDimension
  2
*D3
 10
-103.0759673986317
 20
-56.85470490087913
 30
0
 11
-130.5388374067246
 21
-54.97970490087913
 31
0
 70
   32
 71
    5
  3
Standard
 53
0
210
0
220
0
230
1
100
AcDbAlignedDimension
 13
-158.0017074148176
 23
0
 33
0
 14
-103.0759673986317
 24
-7.105427357601002e-15
 34
0
100
AcDbRotatedDimension
  0
DIMENSION
  5
112
100
AcDbEntity
  8
medidas
  6
ByLayer
 62
  256
370
   -1
100
AcDbDimension
  2
*D4
 10
-94.5
 20
-64.20327220099276
 30
0
 11
-130.5758662404661
 21
-62.32827220099276
 31
0
 70
   32
 71
    5
  3
Standard
 53
0
210
0
220
0
230
1
100
AcDbAlignedDimension
 13
-166.6517324809322
 23
0
 33
0
 14
-94.5
 24
0
 34
0
100
AcDbRotatedDimension
  0
DIMENSION
  5
113
100
AcDbEntity
  8
medidas
  6
ByLayer
 62
  256
370
   -1
100
AcDbDimension
  2
*D5
 10
-65.8
 20
-43.82942470841749
 30
0
 11
-70.15000000000001
 21
-41.95442470841749
 31
0
 70
   32
 71
    5
  3
Standard
 53
0
210
0
220
0
230
1
100
AcDbAlignedDimension
 13
-74.5
 23
0
 33
0
 14
-65.8
 24
0
 34
0
100
AcDbRotatedDimension
  0
DIMENSION
  5
114
100
AcDbEntity
  8
medidas
  6
ByLayer
 62
  256
370
   -1
100
AcDbDimension
  2
*D6
 10
-15.1
 20
-50
 30
0
 11
-23.4
 21
-48.125
 31
0
 70
   32
 71
    5
  3
Standard
 53
0
210
0
220
0
230
1
100
AcDbAlignedDimension
 13
-31.7
 23
0
 33
0
 14
-15.1
 24
0
 34
0
100
AcDbRotatedDimension
  0
DIMENSION
  5
115
100
AcDbEntity
  8
medidas
  6
ByLayer
 62
  256
370
   -1
100
AcDbDimension
  2
*D7
 10
-10
 20
-56.84362248873261
 30
0
 11
-12.55
 21
-54.96862248873261
 31
0
 70
   32
 71
    5
  3
Standard
 53
0
210
0
220
0
230
1
100
AcDbAlignedDimension
 13
-15.1
 23
0
 33
0
 14
-10
 24
0
 34
0
100
AcDbRotatedDimension
  0
LINE
  5
116
100
AcDbEntity
  8
trazos
  6
ByLayer
 62
  256
370
   -1
100
AcDbLine
 10
20
 20
-0.6250000000000049
 11
20
 21
-73.20205899231679
  0
ARC
  5
117
100
AcDbEntity
  8
trazos
  6
ByLayer
 62
  256
370
   -1
100
AcDbCircle
 10
20
 20
-36.15
 40
72.3
100
AcDbArc
 50
0
 51
90
  0
LINE
  5
118
100
AcDbEntity
  8
trazos
  6
ByLayer
 62
  256
370
   -1
100
AcDbLine
 10
92.3
 20
-36.15000000000001
 11
92.3
 21
-26.15000000000001
  0
LINE
  5
119
100
AcDbEntity
  8
trazos
  6
ByLayer
 62
  256
370
   -1
100
AcDbLine
 10
20
 20
36.15
 11
20
 21
46.15
  0
LINE
  5
11A
100
AcDbEntity
  8
trazos
  6
ByLayer
 62
  256
370
   -1
100
AcDbLine
 10
20
 20
36.14999999999999
 11
92.3
 21
-36.15000000000001
  0
LINE
  5
11B
100
AcDbEntity
  8
trazos
  6
ByLayer
 62
  256
370
   -1
100
AcDbLine
 10
20
 20
-36.15
 11
92.3
 21
36.15
  0
LINE
  5
11C
100
AcDbEntity
  8
trazos
  6
ByLayer
 62
  256
370
   -1
100
AcDbLine
 10
56.15
 20
0
 11
56.15
 21
10
  0
CIRCLE
  5
11D
100
AcDbEntity
  8
figura
  6
ByLayer
 62
  256
370
   -1
100
AcDbCircle
 10
56.15
 20
0
 40
36.15
  0
CIRCLE
  5
11E
100
AcDbEntity
  8
figura
  6
ByLayer
 62
  256
370
   -1
100
AcDbCircle
 10
56.15
 20
0
 40
35.5
  0
DIMENSION
  5
11F
100
AcDbEntity
  8
medidas
  6
ByLayer
 62
  256
370
   -1
100
AcDbDimension
  2
*D8
 10
-5.300000000000002
 20
-63.80934647753752
 30
0
 11
-7.649999999999999
 21
-61.93434647753752
 31
0
 70
   32
 71
    5
  3
Standard
 53
0
210
0
220
0
230
1
100
AcDbAlignedDimension
 13
-10
 23
0
 33
0
 14
-5.299999999999999
 24
0
 34
0
100
AcDbRotatedDimension
  0
DIMENSION
  5
120
100
AcDbEntity
  8
medidas
  6
ByLayer
 62
  256
370
   -1
100
AcDbDimension
  2
*D9
 10
-4.307860744356785e-15
 20
-70.35270491632502
 30
0
 11
-2.649999999999999
 21
-68.47770491632502
 31
0
 70
   32
 71
    5
  3
Standard
 53
0
210
0
220
0
230
1
100
AcDbAlignedDimension
 13
-5.299999999999999
 23
0
 33
0
 14
0
 24
0
 34
0
100
AcDbRotatedDimension
  0
CIRCLE
  5
121
100
AcDbEntity
  8
figura interior
  6
ByLayer
 62
  256
370
   -1
100
AcDbCircle
 10
56.15
 20
0
 40
23.2
  0
CIRCLE
  5
122
100
AcDbEntity
  8
figura interior
  6
ByLayer
 62
  256
370
   -1
100
AcDbCircle
 10
56.15
 20
0
 40
12.5
  0
CIRCLE
  5
123
100
AcDbEntity
  8
figura interior
  6
ByLayer
 62
  256
370
   -1
100
AcDbCircle
 10
56.15
 20
0
 40
15.7
  0
DIMENSION
  5
124
100
AcDbEntity
  8
medidas
  6
ByLayer
 62
  256
370
   -1
100
AcDbDimension
  2
*D10
 10
68.64999999999998
 20
-44.09140380068203
 30
0
 11
56.14999999999999
 21
-42.21640380068203
 31
0
 70
   32
 71
    5
  3
Standard
 53
0
210
0
220
0
230
1
100
AcDbAlignedDimension
 13
43.65000000000001
 23
0
 33
0
 14
68.64999999999998
 24
0
 34
0
100
AcDbRotatedDimension
  0
DIMENSION
  5
125
100
AcDbEntity
  8
medidas
  6
ByLayer
 62
  256
370
   -1
100
AcDbDimension
  2
*D11
 10
71.84999999999997
 20
-49.69952095076879
 30
0
 11
56.14999999999999
 21
-47.82452095076879
 31
0
 70
   32
 71
    5
  3
Standard
 53
0
210
0
220
0
230
1
100
AcDbAlignedDimension
 13
40.45000000000002
 23
0
 33
0
 14
71.84999999999997
 24
0
 34
0
100
AcDbRotatedDimension
  0
DIMENSION
  5
126
100
AcDbEntity
  8
medidas
  6
ByLayer
 62
  256
370
   -1
100
AcDbDimension
  2
*D12
 10
79.34999999999999
 20
-56.85470490087945
 30
0
 11
56.15
 21
-54.97970490087945
 31
0
 70
   32
 71
    5
  3
Standard
 53
0
210
0
220
0
230
1
100
AcDbAlignedDimension
 13
32.95
 23
0
 33
0
 14
79.34999999999999
 24
0
 34
0
100
AcDbRotatedDimension
  0
DIMENSION
  5
127
100
AcDbEntity
  8
medidas
  6
ByLayer
 62
  256
370
   -1
100
AcDbDimension
  2
*D13
 10
91.65000000000001
 20
-64.00988885099014
 30
0
 11
56.15000000000001
 21
-62.13488885099014
 31
0
 70
   32
 71
    5
  3
Standard
 53
0
210
0
220
0
230
1
100
AcDbAlignedDimension
 13
20.65
 23
-1.77635683940025e-15
 33
0
 14
91.65000000000001
 24
-7.105427357601002e-15
 34
0
100
AcDbRotatedDimension
  0
LINE
  5
128
100
AcDbEntity
  8
figura
  6
ByLayer
 62
  256
370
   -1
100
AcDbLine
 10
-9.799999999999994
 20
19.35
 11
-9.800000000000004
 21
-19.35
  0
LINE
  5
129
100
AcDbEntity
  8
figura
  6
ByLayer
 62
  256
370
   -1
100
AcDbLine
 10
-5.299999999999995
 20
35.5
 11
-5.300000000000002
 21
-35.5
  0
DIMENSION
  5
12A
100
AcDbEntity
  8
medidas
  6
ByLayer
 62
  256
370
   -1
100
AcDbDimension
  2
*D14
 10
-41.7
 20
-49.96255239799155
 30
0
 11
-58.1
 21
-48.08755239799155
 31
0
 70
   32
 71
    5
  3
Standard
 53
0
210
0
220
0
230
1
100
AcDbAlignedDimension
 13
-74.5
 23
0
 33
0
 14
-41.7
 24
0
 34
0
100
AcDbRotatedDimension
  0
DIMENSION
  5
12B
100
AcDbEntity
  8
medidas
  6
ByLayer
 62
  256
370
   -1
100
AcDbDimension
  2
*D15
 10
-31.7
 20
-56.6940340084994
 30
0
 11
-53.1
 21
-54.8190340084994
 31
0
 70
   32
 71
    5
  3
Standard
 53
0
210
0
220
0
230
1
100
AcDbAlignedDimension
 13
-74.5
 23
0
 33
0
 14
-31.7
 24
0
 34
0
100
AcDbRotatedDimension
  0
ENDSEC
  0
SECTION
  2
OBJECTS
  0
DICTIONARY
  5
C
330
0
100
AcDbDictionary
281
    1
  3
ACAD_GROUP
350
D
  0
DICTIONARY
  5
D
330
C
100
AcDbDictionary
281
    1
  0
ENDSEC
  0
EOF
