<?xml version="1.0" encoding="UTF-8" standalone="no"?>
<!-- Created with Inkscape (http://www.inkscape.org/) -->

<svg
   width="128"
   height="104"
   viewBox="0 0 33.866666 27.516666"
   version="1.1"
   id="svg1"
   inkscape:version="1.3.2 (091e20ef0f, 2023-11-25)"
   sodipodi:docname="figura1.svg"
   xmlns:inkscape="http://www.inkscape.org/namespaces/inkscape"
   xmlns:sodipodi="http://sodipodi.sourceforge.net/DTD/sodipodi-0.dtd"
   xmlns="http://www.w3.org/2000/svg"
   xmlns:svg="http://www.w3.org/2000/svg">
  <sodipodi:namedview
     id="namedview1"
     pagecolor="#ffffff"
     bordercolor="#000000"
     borderopacity="0.25"
     inkscape:showpageshadow="2"
     inkscape:pageopacity="0.0"
     inkscape:pagecheckerboard="0"
     inkscape:deskcolor="#d1d1d1"
     inkscape:document-units="px"
     showgrid="true"
     inkscape:zoom="4.3339059"
     inkscape:cx="76.143786"
     inkscape:cy="60.222812"
     inkscape:window-width="1920"
     inkscape:window-height="1046"
     inkscape:window-x="1920"
     inkscape:window-y="18"
     inkscape:window-maximized="1"
     inkscape:current-layer="layer1">
    <inkscape:grid
       id="grid1"
       units="px"
       originx="-3.1749999"
       originy="-3.1749999"
       spacingx="1.0583333"
       spacingy="1.0583333"
       empcolor="#0099e5"
       empopacity="0.30196078"
       color="#0099e5"
       opacity="0.14901961"
       empspacing="4"
       dotted="false"
       gridanglex="30"
       gridanglez="30"
       visible="true" />
  </sodipodi:namedview>
  <defs
     id="defs1">
    <marker
       style="overflow:visible"
       id="marker13"
       refX="0"
       refY="0"
       orient="auto-start-reverse"
       inkscape:stockid="Wide arrow"
       markerWidth="1"
       markerHeight="1"
       viewBox="0 0 1 1"
       inkscape:isstock="true"
       inkscape:collect="always"
       preserveAspectRatio="xMidYMid">
      <path
         style="fill:none;stroke:context-stroke;stroke-width:1;stroke-linecap:butt"
         d="M 3,-3 0,0 3,3"
         transform="rotate(180,0.125,0)"
         sodipodi:nodetypes="ccc"
         id="path13" />
    </marker>
    <marker
       style="overflow:visible"
       id="marker5"
       refX="0"
       refY="0"
       orient="auto-start-reverse"
       inkscape:stockid="Wide arrow"
       markerWidth="1"
       markerHeight="1"
       viewBox="0 0 1 1"
       inkscape:isstock="true"
       inkscape:collect="always"
       preserveAspectRatio="xMidYMid">
      <path
         style="fill:none;stroke:context-stroke;stroke-width:1;stroke-linecap:butt"
         d="M 3,-3 0,0 3,3"
         transform="rotate(180,0.125,0)"
         sodipodi:nodetypes="ccc"
         id="path5" />
    </marker>
    <marker
       style="overflow:visible"
       id="ArrowWide"
       refX="0"
       refY="0"
       orient="auto-start-reverse"
       inkscape:stockid="Wide arrow"
       markerWidth="1"
       markerHeight="1"
       viewBox="0 0 1 1"
       inkscape:isstock="true"
       inkscape:collect="always"
       preserveAspectRatio="xMidYMid">
      <path
         style="fill:none;stroke:context-stroke;stroke-width:1;stroke-linecap:butt"
         d="M 3,-3 0,0 3,3"
         transform="rotate(180,0.125,0)"
         sodipodi:nodetypes="ccc"
         id="path2" />
    </marker>
  </defs>
  <g
     inkscape:label="Capa 1"
     inkscape:groupmode="layer"
     id="layer1"
     transform="translate(-3.175,-3.175)">
    <path
       style="fill:none;stroke:#ff0000;stroke-width:0.132292;stroke-linejoin:round;stroke-dasharray:none;stroke-opacity:0.984314;marker-start:url(#ArrowWide)"
       d="M 16.933332,4.2333331 V 29.633332"
       id="path1"
       sodipodi:nodetypes="cc" />
    <path
       style="fill:none;stroke:#ff0000;stroke-width:0.132292;stroke-linejoin:round;stroke-dasharray:none;stroke-opacity:0.984314;marker-start:url(#ArrowWide)"
       d="M 29.633332,16.933332 H 4.2333331"
       id="path3"
       sodipodi:nodetypes="cc" />
    <path
       style="fill:none;stroke:#000000;stroke-width:0.211667;stroke-linejoin:round;stroke-dasharray:none;stroke-opacity:0.984314;marker-start:url(#marker5)"
       d="m 23.283332,16.933332 h -6.35"
       id="path4"
       sodipodi:nodetypes="cc" />
    <path
       style="fill:none;stroke:#000000;stroke-width:0.211667;stroke-linejoin:round;stroke-dasharray:none;stroke-opacity:0.984314;marker-start:url(#marker5)"
       d="m 13.758332,22.432594 3.175,-5.499262"
       id="path6"
       sodipodi:nodetypes="cc" />
    <path
       style="fill:none;stroke:#000000;stroke-width:0.211667;stroke-linejoin:round;stroke-dasharray:none;stroke-opacity:0.984314;marker-start:url(#marker5)"
       d="m 13.758332,11.43407 3.175,5.499262"
       id="path7"
       sodipodi:nodetypes="cc" />
    <path
       style="fill:none;stroke:#000000;stroke-width:0.105833;stroke-linejoin:round;stroke-dasharray:0.105833, 0.105833;stroke-dashoffset:0;stroke-opacity:0.984314"
       d="m 20.108332,11.43407 -3.175,5.499262"
       id="path8"
       sodipodi:nodetypes="cc" />
    <path
       style="fill:none;stroke:#000000;stroke-width:0.105833;stroke-linejoin:round;stroke-dasharray:0.105833, 0.105833;stroke-dashoffset:0;stroke-opacity:0.984314"
       d="m 16.933332,16.933332 h -6.35"
       id="path9"
       sodipodi:nodetypes="cc" />
    <path
       style="fill:none;stroke:#000000;stroke-width:0.105833;stroke-linejoin:round;stroke-dasharray:0.105833, 0.105833;stroke-dashoffset:0;stroke-opacity:0.984314"
       d="m 26.458332,11.43407 h -6.35"
       id="path9-9"
       sodipodi:nodetypes="cc" />
    <path
       style="fill:none;stroke:#000000;stroke-width:0.105833;stroke-linejoin:round;stroke-dasharray:0.105833, 0.105833;stroke-dashoffset:0;stroke-opacity:0.984314"
       d="m 16.933332,16.933332 3.175,5.499262"
       id="path10"
       sodipodi:nodetypes="cc" />
    <path
       style="fill:none;stroke:#000000;stroke-width:0.105833;stroke-linejoin:round;stroke-dasharray:0.105833, 0.105833;stroke-dashoffset:0;stroke-opacity:0.984314"
       d="m 26.458332,11.43407 -3.175,5.499262"
       id="path11"
       sodipodi:nodetypes="cc" />
    <path
       style="fill:none;stroke:#0000ff;stroke-width:0.211667;stroke-linejoin:round;stroke-dasharray:none;stroke-dashoffset:0;stroke-opacity:0.984314;marker-start:url(#marker13)"
       d="m 26.458332,11.43407 -9.525,5.499262"
       id="path12"
       sodipodi:nodetypes="cc" />
    <path
       style="fill:none;stroke:#000000;stroke-width:0.105833;stroke-linejoin:round;stroke-dasharray:0.105833, 0.105833;stroke-dashoffset:0;stroke-opacity:0.984314"
       d="m 13.758332,22.432594 3.175,5.499262"
       id="path14"
       sodipodi:nodetypes="cc" />
    <path
       style="fill:none;stroke:#000000;stroke-width:0.105833;stroke-linejoin:round;stroke-dasharray:0.105833, 0.105833;stroke-dashoffset:0;stroke-opacity:0.984314"
       d="m 20.108332,22.432594 -3.175,5.499262"
       id="path15"
       sodipodi:nodetypes="cc" />
    <path
       style="fill:none;stroke:#0000ff;stroke-width:0.211667;stroke-linejoin:round;stroke-dasharray:none;stroke-dashoffset:0;stroke-opacity:0.984314;marker-start:url(#marker13)"
       d="m 16.933333,27.931855 -1e-6,-10.998523"
       id="path16"
       sodipodi:nodetypes="cc" />
    <path
       style="fill:none;stroke:#000000;stroke-width:0.105833;stroke-linejoin:round;stroke-dasharray:0.105833, 0.105833;stroke-dashoffset:0;stroke-opacity:0.984314"
       d="m 13.758332,11.43407 h -6.35"
       id="path17"
       sodipodi:nodetypes="cc" />
    <path
       style="fill:none;stroke:#000000;stroke-width:0.105833;stroke-linejoin:round;stroke-dasharray:0.105833, 0.105833;stroke-dashoffset:0;stroke-opacity:0.984314"
       d="m 7.408332,11.43407 3.175,5.499262"
       id="path18"
       sodipodi:nodetypes="cc" />
    <path
       style="fill:none;stroke:#0000ff;stroke-width:0.211667;stroke-linejoin:round;stroke-dasharray:none;stroke-dashoffset:0;stroke-opacity:0.984314;marker-start:url(#marker13)"
       d="m 7.408332,11.43407 9.525,5.499262"
       id="path19"
       sodipodi:nodetypes="cc" />
    <g
       inkscape:label=""
       transform="matrix(0.6766229,0,0,0.6766229,23.566776,17.658349)"
       id="g26">
      <g
         fill="#000000"
         fill-opacity="1"
         id="g4"
         transform="matrix(0.352778,0,0,0.352778,-0.901524,-0.699647)">
        <g
           id="use3"
           transform="translate(1.993,6.0770001)">
          <path
             d="M 4.5625,-3.359375 C 4.578125,-3.390625 4.640625,-3.453125 4.6875,-3.5 4.9375,-3.8125 5.140625,-3.84375 5.375,-3.84375 5.453125,-3.859375 5.484375,-3.9375 5.484375,-4 5.46875,-4.015625 5.46875,-4.09375 5.390625,-4.09375 c -0.15625,0 -0.34375,0.03125 -0.515625,0.03125 -0.140625,0 -0.5,-0.03125 -0.640625,-0.03125 -0.09375,0 -0.125,0.078125 -0.125,0.15625 0,0.078125 0.078125,0.09375 0.125,0.09375 0.03125,0 0.234375,0.015625 0.234375,0.15625 0,0.078125 -0.0625,0.1875 -0.109375,0.234375 L 2.34375,-0.5625 1.734375,-3.609375 C 1.71875,-3.671875 1.71875,-3.6875 1.71875,-3.703125 c 0,-0.078125 0.125,-0.140625 0.40625,-0.140625 0.078125,0 0.15625,0 0.15625,-0.15625 0,-0.015625 0,-0.09375 -0.09375,-0.09375 -0.125,0 -0.265625,0.03125 -0.40625,0.03125 -0.125,0 -0.25,0 -0.390625,0 0,0 -0.34375,0 -0.34375,0 -0.109375,0 -0.234375,-0.03125 -0.34375,-0.03125 -0.0625,0 -0.140625,0.03125 -0.140625,0.15625 0,0.09375 0.09375,0.09375 0.171875,0.09375 0.34375,0 0.359375,0.046875 0.390625,0.171875 L 1.84375,-0.03125 C 1.859375,0.078125 1.875,0.125 2,0.125 2.125,0.125 2.15625,0.078125 2.21875,0 Z m 0,0"
             id="path24" />
        </g>
      </g>
      <g
         fill="#000000"
         fill-opacity="1"
         id="g5"
         transform="matrix(0.352778,0,0,0.352778,-0.901524,-0.699647)">
        <g
           id="use4"
           transform="translate(6.3540001,7.073)">
          <path
             d="m 2.875,-1.609375 c 0.03125,-0.109375 0.078125,-0.296875 0.078125,-0.3125 0,-0.09375 -0.0625,-0.1875 -0.1875,-0.1875 -0.078125,0 -0.203125,0.0625 -0.25,0.203125 -0.09375,-0.125 -0.28125,-0.296875 -0.59375,-0.296875 -0.703125,0 -1.40625,0.6875 -1.40625,1.390625 0,0.515625 0.375,0.875 0.875,0.875 0.40625,0 0.734375,-0.296875 0.796875,-0.359375 0.078125,0.25 0.359375,0.359375 0.578125,0.359375 0.203125,0 0.34375,-0.125 0.4375,-0.28125 0.140625,-0.203125 0.203125,-0.46875 0.203125,-0.5 0,-0.0625 -0.078125,-0.0625 -0.109375,-0.0625 -0.078125,0 -0.09375,0.03125 -0.109375,0.109375 -0.09375,0.359375 -0.21875,0.5625 -0.390625,0.5625 -0.140625,0 -0.203125,-0.109375 -0.203125,-0.265625 0,-0.078125 0.046875,-0.265625 0.078125,-0.40625 z M 2.21875,-0.65625 c -0.03125,0.0625 -0.03125,0.078125 -0.109375,0.171875 -0.1875,0.21875 -0.453125,0.375 -0.703125,0.375 -0.171875,0 -0.4375,-0.09375 -0.4375,-0.515625 0,-0.234375 0.125,-0.75 0.296875,-1.015625 0.1875,-0.265625 0.453125,-0.390625 0.65625,-0.390625 0.21875,0 0.4375,0.125 0.515625,0.4375 z m 0,0"
             id="path25" />
        </g>
        <g
           id="use5"
           transform="translate(10.211519,7.073)">
          <path
             d="m 0.96875,-0.484375 c -0.03125,0.125 -0.078125,0.34375 -0.078125,0.359375 0,0.109375 0.09375,0.1875 0.1875,0.1875 0.0625,0 0.171875,-0.046875 0.234375,-0.171875 0,-0.03125 0.0625,-0.265625 0.09375,-0.390625 0.171875,-0.671875 0.171875,-0.6875 0.171875,-0.703125 0.078125,-0.125 0.4375,-0.828125 1.03125,-0.828125 0.25,0 0.359375,0.125 0.359375,0.359375 0,0.28125 -0.21875,0.796875 -0.328125,1.078125 -0.03125,0.0625 -0.046875,0.125 -0.046875,0.203125 0,0.265625 0.25,0.453125 0.546875,0.453125 0.53125,0 0.796875,-0.65625 0.796875,-0.78125 0,-0.0625 -0.078125,-0.0625 -0.09375,-0.0625 -0.09375,0 -0.09375,0.015625 -0.125,0.109375 C 3.625,-0.375 3.390625,-0.109375 3.15625,-0.109375 3.046875,-0.109375 3,-0.1875 3,-0.296875 3,-0.40625 3.03125,-0.453125 3.078125,-0.5625 c 0.078125,-0.203125 0.3125,-0.765625 0.3125,-1.046875 0,-0.375 -0.265625,-0.59375 -0.75,-0.59375 -0.453125,0 -0.765625,0.28125 -0.9375,0.5 -0.015625,-0.421875 -0.421875,-0.5 -0.609375,-0.5 -0.5,0 -0.640625,0.765625 -0.640625,0.765625 0,0.078125 0.078125,0.078125 0.109375,0.078125 0.078125,0 0.09375,-0.03125 0.109375,-0.09375 C 0.75,-1.75 0.859375,-2.03125 1.078125,-2.03125 c 0.15625,0 0.203125,0.15625 0.203125,0.265625 0,0.0625 -0.0625,0.25 -0.078125,0.390625 -0.046875,0.125 -0.09375,0.328125 -0.109375,0.4375 z m 0,0"
             id="path26" />
        </g>
      </g>
    </g>
    <g
       inkscape:label=""
       transform="matrix(0.6766229,0,0,0.6766229,10.9473,22.754905)"
       id="g32">
      <g
         fill="#000000"
         fill-opacity="1"
         id="g28"
         transform="matrix(0.352778,0,0,0.352778,-0.901524,-0.699647)">
        <g
           id="g27"
           transform="translate(1.993,6.0770001)">
          <path
             d="M 4.5625,-3.359375 C 4.578125,-3.390625 4.640625,-3.453125 4.6875,-3.5 4.9375,-3.8125 5.140625,-3.84375 5.375,-3.84375 5.453125,-3.859375 5.484375,-3.9375 5.484375,-4 5.46875,-4.015625 5.46875,-4.09375 5.390625,-4.09375 c -0.15625,0 -0.34375,0.03125 -0.515625,0.03125 -0.140625,0 -0.5,-0.03125 -0.640625,-0.03125 -0.09375,0 -0.125,0.078125 -0.125,0.15625 0,0.078125 0.078125,0.09375 0.125,0.09375 0.03125,0 0.234375,0.015625 0.234375,0.15625 0,0.078125 -0.0625,0.1875 -0.109375,0.234375 L 2.34375,-0.5625 1.734375,-3.609375 C 1.71875,-3.671875 1.71875,-3.6875 1.71875,-3.703125 c 0,-0.078125 0.125,-0.140625 0.40625,-0.140625 0.078125,0 0.15625,0 0.15625,-0.15625 0,-0.015625 0,-0.09375 -0.09375,-0.09375 -0.125,0 -0.265625,0.03125 -0.40625,0.03125 -0.125,0 -0.25,0 -0.390625,0 0,0 -0.34375,0 -0.34375,0 -0.109375,0 -0.234375,-0.03125 -0.34375,-0.03125 -0.0625,0 -0.140625,0.03125 -0.140625,0.15625 0,0.09375 0.09375,0.09375 0.171875,0.09375 0.34375,0 0.359375,0.046875 0.390625,0.171875 L 1.84375,-0.03125 C 1.859375,0.078125 1.875,0.125 2,0.125 2.125,0.125 2.15625,0.078125 2.21875,0 Z m 0,0"
             id="path27" />
        </g>
      </g>
      <g
         fill="#000000"
         fill-opacity="1"
         id="g31"
         transform="matrix(0.352778,0,0,0.352778,-0.901524,-0.699647)">
        <g
           id="g29"
           transform="translate(6.3540001,7.4770002)">
          <path
             d="M 1.5625,-3.265625 C 1.59375,-3.34375 1.59375,-3.34375 1.59375,-3.375 c 0,-0.078125 -0.078125,-0.078125 -0.15625,-0.078125 L 0.828125,-3.40625 c -0.09375,0 -0.09375,0 -0.125,0.03125 -0.015625,0.015625 -0.03125,0.078125 -0.03125,0.109375 0,0.078125 0.078125,0.078125 0.140625,0.078125 0.015625,0 0.09375,0 0.171875,0.015625 0.09375,0.015625 0.109375,0.03125 0.109375,0.0625 0,0.03125 -0.0625,0.234375 -0.09375,0.34375 L 0.59375,-1.09375 C 0.5625,-1 0.546875,-0.921875 0.546875,-0.8125 c 0,0.515625 0.375,0.875 0.859375,0.875 0.71875,0 1.40625,-0.703125 1.40625,-1.390625 0,-0.5 -0.359375,-0.875 -0.875,-0.875 -0.21875,0 -0.453125,0.078125 -0.703125,0.265625 z m -0.15625,3.15625 c -0.203125,0 -0.453125,-0.140625 -0.453125,-0.53125 0,-0.171875 0.03125,-0.328125 0.078125,-0.5 0.015625,-0.0625 0.09375,-0.375 0.109375,-0.40625 C 1.15625,-1.59375 1.5,-2.03125 1.921875,-2.03125 c 0.21875,0 0.4375,0.125 0.4375,0.5 0,0.1875 -0.09375,0.65625 -0.25,0.953125 -0.171875,0.28125 -0.453125,0.46875 -0.703125,0.46875 z m 0,0"
             id="path28" />
        </g>
        <g
           id="g30"
           transform="translate(9.5086575,7.4770002)">
          <path
             d="m 0.96875,-0.484375 c -0.03125,0.125 -0.078125,0.34375 -0.078125,0.359375 0,0.109375 0.09375,0.1875 0.1875,0.1875 0.0625,0 0.171875,-0.046875 0.234375,-0.171875 0,-0.03125 0.0625,-0.265625 0.09375,-0.390625 0.171875,-0.671875 0.171875,-0.6875 0.171875,-0.703125 0.078125,-0.125 0.4375,-0.828125 1.03125,-0.828125 0.25,0 0.359375,0.125 0.359375,0.359375 0,0.28125 -0.21875,0.796875 -0.328125,1.078125 -0.03125,0.0625 -0.046875,0.125 -0.046875,0.203125 0,0.265625 0.25,0.453125 0.546875,0.453125 0.53125,0 0.796875,-0.65625 0.796875,-0.78125 0,-0.0625 -0.078125,-0.0625 -0.09375,-0.0625 -0.09375,0 -0.09375,0.015625 -0.125,0.109375 C 3.625,-0.375 3.390625,-0.109375 3.15625,-0.109375 3.046875,-0.109375 3,-0.1875 3,-0.296875 3,-0.40625 3.03125,-0.453125 3.078125,-0.5625 c 0.078125,-0.203125 0.3125,-0.765625 0.3125,-1.046875 0,-0.375 -0.265625,-0.59375 -0.75,-0.59375 -0.453125,0 -0.765625,0.28125 -0.9375,0.5 -0.015625,-0.421875 -0.421875,-0.5 -0.609375,-0.5 -0.5,0 -0.640625,0.765625 -0.640625,0.765625 0,0.078125 0.078125,0.078125 0.109375,0.078125 0.078125,0 0.09375,-0.03125 0.109375,-0.09375 C 0.75,-1.75 0.859375,-2.03125 1.078125,-2.03125 c 0.15625,0 0.203125,0.15625 0.203125,0.265625 0,0.0625 -0.0625,0.25 -0.078125,0.390625 -0.046875,0.125 -0.09375,0.328125 -0.109375,0.4375 z m 0,0"
             id="path29" />
        </g>
      </g>
    </g>
    <g
       inkscape:label=""
       transform="matrix(0.6766229,0,0,0.6766229,11.909476,9.5756322)"
       id="g38">
      <g
         fill="#000000"
         fill-opacity="1"
         id="g34"
         transform="matrix(0.352778,0,0,0.352778,-0.901524,-0.699647)">
        <g
           id="g33"
           transform="translate(1.993,6.0770001)">
          <path
             d="M 4.5625,-3.359375 C 4.578125,-3.390625 4.640625,-3.453125 4.6875,-3.5 4.9375,-3.8125 5.140625,-3.84375 5.375,-3.84375 5.453125,-3.859375 5.484375,-3.9375 5.484375,-4 5.46875,-4.015625 5.46875,-4.09375 5.390625,-4.09375 c -0.15625,0 -0.34375,0.03125 -0.515625,0.03125 -0.140625,0 -0.5,-0.03125 -0.640625,-0.03125 -0.09375,0 -0.125,0.078125 -0.125,0.15625 0,0.078125 0.078125,0.09375 0.125,0.09375 0.03125,0 0.234375,0.015625 0.234375,0.15625 0,0.078125 -0.0625,0.1875 -0.109375,0.234375 L 2.34375,-0.5625 1.734375,-3.609375 C 1.71875,-3.671875 1.71875,-3.6875 1.71875,-3.703125 c 0,-0.078125 0.125,-0.140625 0.40625,-0.140625 0.078125,0 0.15625,0 0.15625,-0.15625 0,-0.015625 0,-0.09375 -0.09375,-0.09375 -0.125,0 -0.265625,0.03125 -0.40625,0.03125 -0.125,0 -0.25,0 -0.390625,0 0,0 -0.34375,0 -0.34375,0 -0.109375,0 -0.234375,-0.03125 -0.34375,-0.03125 -0.0625,0 -0.140625,0.03125 -0.140625,0.15625 0,0.09375 0.09375,0.09375 0.171875,0.09375 0.34375,0 0.359375,0.046875 0.390625,0.171875 L 1.84375,-0.03125 C 1.859375,0.078125 1.875,0.125 2,0.125 2.125,0.125 2.15625,0.078125 2.21875,0 Z m 0,0"
             id="path32" />
        </g>
      </g>
      <g
         fill="#000000"
         fill-opacity="1"
         id="g37"
         transform="matrix(0.352778,0,0,0.352778,-0.901524,-0.699647)">
        <g
           id="g35"
           transform="translate(6.3540001,7.073)">
          <path
             d="m 2.5625,-1.921875 c -0.078125,0.015625 -0.21875,0.125 -0.21875,0.296875 0,0.125 0.09375,0.203125 0.21875,0.203125 0.109375,0 0.296875,-0.09375 0.296875,-0.34375 0,-0.375 -0.484375,-0.4375 -0.75,-0.4375 -0.84375,0 -1.578125,0.6875 -1.578125,1.34375 0,0.4375 0.328125,0.921875 1.078125,0.921875 0.09375,0 0.484375,0 0.828125,-0.140625 0.328125,-0.125 0.53125,-0.359375 0.53125,-0.40625 0,-0.046875 -0.0625,-0.125 -0.109375,-0.125 -0.015625,0 -0.03125,0.015625 -0.109375,0.09375 -0.21875,0.25 -0.640625,0.40625 -1.140625,0.40625 -0.421875,0 -0.625,-0.234375 -0.625,-0.578125 0,-0.515625 0.34375,-1.34375 1.125,-1.34375 0.046875,0 0.296875,0 0.453125,0.109375 z m 0,0"
             id="path34" />
        </g>
        <g
           id="g36"
           transform="translate(9.5888557,7.073)">
          <path
             d="m 0.96875,-0.484375 c -0.03125,0.125 -0.078125,0.34375 -0.078125,0.359375 0,0.109375 0.09375,0.1875 0.1875,0.1875 0.0625,0 0.171875,-0.046875 0.234375,-0.171875 0,-0.03125 0.0625,-0.265625 0.09375,-0.390625 0.171875,-0.671875 0.171875,-0.6875 0.171875,-0.703125 0.078125,-0.125 0.4375,-0.828125 1.03125,-0.828125 0.25,0 0.359375,0.125 0.359375,0.359375 0,0.28125 -0.21875,0.796875 -0.328125,1.078125 -0.03125,0.0625 -0.046875,0.125 -0.046875,0.203125 0,0.265625 0.25,0.453125 0.546875,0.453125 0.53125,0 0.796875,-0.65625 0.796875,-0.78125 0,-0.0625 -0.078125,-0.0625 -0.09375,-0.0625 -0.09375,0 -0.09375,0.015625 -0.125,0.109375 C 3.625,-0.375 3.390625,-0.109375 3.15625,-0.109375 3.046875,-0.109375 3,-0.1875 3,-0.296875 3,-0.40625 3.03125,-0.453125 3.078125,-0.5625 c 0.078125,-0.203125 0.3125,-0.765625 0.3125,-1.046875 0,-0.375 -0.265625,-0.59375 -0.75,-0.59375 -0.453125,0 -0.765625,0.28125 -0.9375,0.5 -0.015625,-0.421875 -0.421875,-0.5 -0.609375,-0.5 -0.5,0 -0.640625,0.765625 -0.640625,0.765625 0,0.078125 0.078125,0.078125 0.109375,0.078125 0.078125,0 0.09375,-0.03125 0.109375,-0.09375 C 0.75,-1.75 0.859375,-2.03125 1.078125,-2.03125 c 0.15625,0 0.203125,0.15625 0.203125,0.265625 0,0.0625 -0.0625,0.25 -0.078125,0.390625 -0.046875,0.125 -0.09375,0.328125 -0.109375,0.4375 z m 0,0"
             id="path35" />
        </g>
      </g>
    </g>
    <g
       inkscape:label=""
       transform="matrix(0.6766229,0,0,0.6766229,18.017334,9.6124738)"
       id="g44">
      <g
         fill="#000000"
         fill-opacity="1"
         id="g40"
         transform="matrix(0.352778,0,0,0.352778,-0.901524,-0.699647)">
        <g
           id="g39"
           transform="translate(1.993,6.0770001)">
          <path
             d="M 4.5625,-3.359375 C 4.578125,-3.390625 4.640625,-3.453125 4.6875,-3.5 4.9375,-3.8125 5.140625,-3.84375 5.375,-3.84375 5.453125,-3.859375 5.484375,-3.9375 5.484375,-4 5.46875,-4.015625 5.46875,-4.09375 5.390625,-4.09375 c -0.15625,0 -0.34375,0.03125 -0.515625,0.03125 -0.140625,0 -0.5,-0.03125 -0.640625,-0.03125 -0.09375,0 -0.125,0.078125 -0.125,0.15625 0,0.078125 0.078125,0.09375 0.125,0.09375 0.03125,0 0.234375,0.015625 0.234375,0.15625 0,0.078125 -0.0625,0.1875 -0.109375,0.234375 L 2.34375,-0.5625 1.734375,-3.609375 C 1.71875,-3.671875 1.71875,-3.6875 1.71875,-3.703125 c 0,-0.078125 0.125,-0.140625 0.40625,-0.140625 0.078125,0 0.15625,0 0.15625,-0.15625 0,-0.015625 0,-0.09375 -0.09375,-0.09375 -0.125,0 -0.265625,0.03125 -0.40625,0.03125 -0.125,0 -0.25,0 -0.390625,0 0,0 -0.34375,0 -0.34375,0 -0.109375,0 -0.234375,-0.03125 -0.34375,-0.03125 -0.0625,0 -0.140625,0.03125 -0.140625,0.15625 0,0.09375 0.09375,0.09375 0.171875,0.09375 0.34375,0 0.359375,0.046875 0.390625,0.171875 L 1.84375,-0.03125 C 1.859375,0.078125 1.875,0.125 2,0.125 2.125,0.125 2.15625,0.078125 2.21875,0 Z m 0,0"
             id="path38" />
        </g>
      </g>
      <g
         fill="#000000"
         fill-opacity="1"
         id="g43"
         transform="matrix(0.352778,0,0,0.352778,-0.901524,-0.699647)">
        <g
           id="g41"
           transform="translate(6.3540001,7.4770002)">
          <path
             d="m 0.96875,-0.484375 c -0.03125,0.125 -0.078125,0.34375 -0.078125,0.359375 0,0.109375 0.09375,0.1875 0.1875,0.1875 0.0625,0 0.171875,-0.046875 0.234375,-0.171875 0,-0.03125 0.0625,-0.265625 0.09375,-0.390625 0.171875,-0.671875 0.171875,-0.6875 0.171875,-0.703125 0.078125,-0.125 0.4375,-0.828125 1.03125,-0.828125 0.25,0 0.359375,0.125 0.359375,0.359375 0,0.28125 -0.21875,0.796875 -0.328125,1.078125 -0.03125,0.0625 -0.046875,0.125 -0.046875,0.203125 0,0.265625 0.25,0.453125 0.546875,0.453125 0.53125,0 0.796875,-0.65625 0.796875,-0.78125 0,-0.0625 -0.078125,-0.0625 -0.09375,-0.0625 -0.09375,0 -0.09375,0.015625 -0.125,0.109375 C 3.625,-0.375 3.390625,-0.109375 3.15625,-0.109375 3.046875,-0.109375 3,-0.1875 3,-0.296875 3,-0.40625 3.03125,-0.453125 3.078125,-0.5625 c 0.078125,-0.203125 0.3125,-0.765625 0.3125,-1.046875 0,-0.375 -0.265625,-0.59375 -0.75,-0.59375 -0.453125,0 -0.765625,0.28125 -0.9375,0.5 -0.015625,-0.421875 -0.421875,-0.5 -0.609375,-0.5 -0.5,0 -0.640625,0.765625 -0.640625,0.765625 0,0.078125 0.078125,0.078125 0.109375,0.078125 0.078125,0 0.09375,-0.03125 0.109375,-0.09375 C 0.75,-1.75 0.859375,-2.03125 1.078125,-2.03125 c 0.15625,0 0.203125,0.15625 0.203125,0.265625 0,0.0625 -0.0625,0.25 -0.078125,0.390625 -0.046875,0.125 -0.09375,0.328125 -0.109375,0.4375 z m 0,0"
             id="path40" />
        </g>
        <g
           id="g42"
           transform="translate(10.741529,7.4770002)">
          <path
             d="M 1.5625,-3.265625 C 1.59375,-3.34375 1.59375,-3.34375 1.59375,-3.375 c 0,-0.078125 -0.078125,-0.078125 -0.15625,-0.078125 L 0.828125,-3.40625 c -0.09375,0 -0.09375,0 -0.125,0.03125 -0.015625,0.015625 -0.03125,0.078125 -0.03125,0.109375 0,0.078125 0.078125,0.078125 0.140625,0.078125 0.015625,0 0.09375,0 0.171875,0.015625 0.09375,0.015625 0.109375,0.03125 0.109375,0.0625 0,0.03125 -0.0625,0.234375 -0.09375,0.34375 L 0.59375,-1.09375 C 0.5625,-1 0.546875,-0.921875 0.546875,-0.8125 c 0,0.515625 0.375,0.875 0.859375,0.875 0.71875,0 1.40625,-0.703125 1.40625,-1.390625 0,-0.5 -0.359375,-0.875 -0.875,-0.875 -0.21875,0 -0.453125,0.078125 -0.703125,0.265625 z m -0.15625,3.15625 c -0.203125,0 -0.453125,-0.140625 -0.453125,-0.53125 0,-0.171875 0.03125,-0.328125 0.078125,-0.5 0.015625,-0.0625 0.09375,-0.375 0.109375,-0.40625 C 1.15625,-1.59375 1.5,-2.03125 1.921875,-2.03125 c 0.21875,0 0.4375,0.125 0.4375,0.5 0,0.1875 -0.09375,0.65625 -0.25,0.953125 -0.171875,0.28125 -0.453125,0.46875 -0.703125,0.46875 z m 0,0"
             id="path41" />
        </g>
      </g>
    </g>
    <g
       inkscape:label=""
       transform="matrix(0.6766229,0,0,0.6766229,23.353039,9.4653251)"
       id="g50">
      <g
         fill="#000000"
         fill-opacity="1"
         id="g7"
         transform="matrix(0.352778,0,0,0.352778,-0.901524,-0.699647)">
        <g
           id="use6"
           transform="translate(1.993,6.0770001)">
          <path
             d="M 4.5625,-3.359375 C 4.578125,-3.390625 4.640625,-3.453125 4.6875,-3.5 4.9375,-3.8125 5.140625,-3.84375 5.375,-3.84375 5.453125,-3.859375 5.484375,-3.9375 5.484375,-4 5.46875,-4.015625 5.46875,-4.09375 5.390625,-4.09375 c -0.15625,0 -0.34375,0.03125 -0.515625,0.03125 -0.140625,0 -0.5,-0.03125 -0.640625,-0.03125 -0.09375,0 -0.125,0.078125 -0.125,0.15625 0,0.078125 0.078125,0.09375 0.125,0.09375 0.03125,0 0.234375,0.015625 0.234375,0.15625 0,0.078125 -0.0625,0.1875 -0.109375,0.234375 L 2.34375,-0.5625 1.734375,-3.609375 C 1.71875,-3.671875 1.71875,-3.6875 1.71875,-3.703125 c 0,-0.078125 0.125,-0.140625 0.40625,-0.140625 0.078125,0 0.15625,0 0.15625,-0.15625 0,-0.015625 0,-0.09375 -0.09375,-0.09375 -0.125,0 -0.265625,0.03125 -0.40625,0.03125 -0.125,0 -0.25,0 -0.390625,0 0,0 -0.34375,0 -0.34375,0 -0.109375,0 -0.234375,-0.03125 -0.34375,-0.03125 -0.0625,0 -0.140625,0.03125 -0.140625,0.15625 0,0.09375 0.09375,0.09375 0.171875,0.09375 0.34375,0 0.359375,0.046875 0.390625,0.171875 L 1.84375,-0.03125 C 1.859375,0.078125 1.875,0.125 2,0.125 2.125,0.125 2.15625,0.078125 2.21875,0 Z m 0,0"
             id="path44" />
        </g>
      </g>
      <g
         fill="#000000"
         fill-opacity="1"
         id="g8"
         transform="matrix(0.352778,0,0,0.352778,-0.901524,-0.699647)">
        <g
           id="use7"
           transform="translate(6.3540001,7.4770002)">
          <path
             d="m 2.875,-1.609375 c 0.03125,-0.109375 0.078125,-0.296875 0.078125,-0.3125 0,-0.09375 -0.0625,-0.1875 -0.1875,-0.1875 -0.078125,0 -0.203125,0.0625 -0.25,0.203125 -0.09375,-0.125 -0.28125,-0.296875 -0.59375,-0.296875 -0.703125,0 -1.40625,0.6875 -1.40625,1.390625 0,0.515625 0.375,0.875 0.875,0.875 0.40625,0 0.734375,-0.296875 0.796875,-0.359375 0.078125,0.25 0.359375,0.359375 0.578125,0.359375 0.203125,0 0.34375,-0.125 0.4375,-0.28125 0.140625,-0.203125 0.203125,-0.46875 0.203125,-0.5 0,-0.0625 -0.078125,-0.0625 -0.109375,-0.0625 -0.078125,0 -0.09375,0.03125 -0.109375,0.109375 -0.09375,0.359375 -0.21875,0.5625 -0.390625,0.5625 -0.140625,0 -0.203125,-0.109375 -0.203125,-0.265625 0,-0.078125 0.046875,-0.265625 0.078125,-0.40625 z M 2.21875,-0.65625 c -0.03125,0.0625 -0.03125,0.078125 -0.109375,0.171875 -0.1875,0.21875 -0.453125,0.375 -0.703125,0.375 -0.171875,0 -0.4375,-0.09375 -0.4375,-0.515625 0,-0.234375 0.125,-0.75 0.296875,-1.015625 0.1875,-0.265625 0.453125,-0.390625 0.65625,-0.390625 0.21875,0 0.4375,0.125 0.515625,0.4375 z m 0,0"
             id="path45" />
        </g>
        <g
           id="use8"
           transform="translate(10.211519,7.4770002)">
          <path
             d="M 1.5625,-3.265625 C 1.59375,-3.34375 1.59375,-3.34375 1.59375,-3.375 c 0,-0.078125 -0.078125,-0.078125 -0.15625,-0.078125 L 0.828125,-3.40625 c -0.09375,0 -0.09375,0 -0.125,0.03125 -0.015625,0.015625 -0.03125,0.078125 -0.03125,0.109375 0,0.078125 0.078125,0.078125 0.140625,0.078125 0.015625,0 0.09375,0 0.171875,0.015625 0.09375,0.015625 0.109375,0.03125 0.109375,0.0625 0,0.03125 -0.0625,0.234375 -0.09375,0.34375 L 0.59375,-1.09375 C 0.5625,-1 0.546875,-0.921875 0.546875,-0.8125 c 0,0.515625 0.375,0.875 0.859375,0.875 0.71875,0 1.40625,-0.703125 1.40625,-1.390625 0,-0.5 -0.359375,-0.875 -0.875,-0.875 -0.21875,0 -0.453125,0.078125 -0.703125,0.265625 z m -0.15625,3.15625 c -0.203125,0 -0.453125,-0.140625 -0.453125,-0.53125 0,-0.171875 0.03125,-0.328125 0.078125,-0.5 0.015625,-0.0625 0.09375,-0.375 0.109375,-0.40625 C 1.15625,-1.59375 1.5,-2.03125 1.921875,-2.03125 c 0.21875,0 0.4375,0.125 0.4375,0.5 0,0.1875 -0.09375,0.65625 -0.25,0.953125 -0.171875,0.28125 -0.453125,0.46875 -0.703125,0.46875 z m 0,0"
             id="path46" />
        </g>
      </g>
      <g
         fill="#000000"
         fill-opacity="1"
         id="g9"
         transform="matrix(0.352778,0,0,0.352778,-0.901524,-0.699647)">
        <g
           id="use9"
           transform="translate(15.986,6.0770001)">
          <path
             d="m 4.890625,-2.03125 c 0.09375,0 0.21875,0 0.21875,-0.15625 0,-0.15625 -0.15625,-0.15625 -0.25,-0.15625 H 0.71875 c -0.078125,0 -0.25,0 -0.25,0.15625 0,0.15625 0.140625,0.15625 0.21875,0.15625 z m -0.03125,1.375 c 0.09375,0 0.25,0 0.25,-0.15625 0,-0.15625 -0.125,-0.15625 -0.21875,-0.15625 H 0.6875 c -0.078125,0 -0.21875,0 -0.21875,0.15625 0,0.15625 0.171875,0.15625 0.25,0.15625 z m 0,0"
             id="path47" />
        </g>
      </g>
      <g
         fill="#000000"
         fill-opacity="1"
         id="g10"
         transform="matrix(0.352778,0,0,0.352778,-0.901524,-0.699647)">
        <g
           id="use10"
           transform="translate(23.698,6.0770001)">
          <path
             d="M 4.5625,-3.359375 C 4.578125,-3.390625 4.640625,-3.453125 4.6875,-3.5 4.9375,-3.8125 5.140625,-3.84375 5.375,-3.84375 5.453125,-3.859375 5.484375,-3.9375 5.484375,-4 5.46875,-4.015625 5.46875,-4.09375 5.390625,-4.09375 c -0.15625,0 -0.34375,0.03125 -0.515625,0.03125 -0.140625,0 -0.5,-0.03125 -0.640625,-0.03125 -0.09375,0 -0.125,0.078125 -0.125,0.15625 0,0.078125 0.078125,0.09375 0.125,0.09375 0.03125,0 0.234375,0.015625 0.234375,0.15625 0,0.078125 -0.0625,0.1875 -0.109375,0.234375 L 2.34375,-0.5625 1.734375,-3.609375 C 1.71875,-3.671875 1.71875,-3.6875 1.71875,-3.703125 c 0,-0.078125 0.125,-0.140625 0.40625,-0.140625 0.078125,0 0.15625,0 0.15625,-0.15625 0,-0.015625 0,-0.09375 -0.09375,-0.09375 -0.125,0 -0.265625,0.03125 -0.40625,0.03125 -0.125,0 -0.25,0 -0.390625,0 0,0 -0.34375,0 -0.34375,0 -0.109375,0 -0.234375,-0.03125 -0.34375,-0.03125 -0.0625,0 -0.140625,0.03125 -0.140625,0.15625 0,0.09375 0.09375,0.09375 0.171875,0.09375 0.34375,0 0.359375,0.046875 0.390625,0.171875 L 1.84375,-0.03125 C 1.859375,0.078125 1.875,0.125 2,0.125 2.125,0.125 2.15625,0.078125 2.21875,0 Z m 0,0"
             id="path20" />
        </g>
      </g>
      <g
         fill="#000000"
         fill-opacity="1"
         id="g12"
         transform="matrix(0.352778,0,0,0.352778,-0.901524,-0.699647)">
        <g
           id="use11"
           transform="translate(28.059,7.073)">
          <path
             d="m 2.875,-1.609375 c 0.03125,-0.109375 0.078125,-0.296875 0.078125,-0.3125 0,-0.09375 -0.0625,-0.1875 -0.1875,-0.1875 -0.078125,0 -0.203125,0.0625 -0.25,0.203125 -0.09375,-0.125 -0.28125,-0.296875 -0.59375,-0.296875 -0.703125,0 -1.40625,0.6875 -1.40625,1.390625 0,0.515625 0.375,0.875 0.875,0.875 0.40625,0 0.734375,-0.296875 0.796875,-0.359375 0.078125,0.25 0.359375,0.359375 0.578125,0.359375 0.203125,0 0.34375,-0.125 0.4375,-0.28125 0.140625,-0.203125 0.203125,-0.46875 0.203125,-0.5 0,-0.0625 -0.078125,-0.0625 -0.109375,-0.0625 -0.078125,0 -0.09375,0.03125 -0.109375,0.109375 -0.09375,0.359375 -0.21875,0.5625 -0.390625,0.5625 -0.140625,0 -0.203125,-0.109375 -0.203125,-0.265625 0,-0.078125 0.046875,-0.265625 0.078125,-0.40625 z M 2.21875,-0.65625 c -0.03125,0.0625 -0.03125,0.078125 -0.109375,0.171875 -0.1875,0.21875 -0.453125,0.375 -0.703125,0.375 -0.171875,0 -0.4375,-0.09375 -0.4375,-0.515625 0,-0.234375 0.125,-0.75 0.296875,-1.015625 0.1875,-0.265625 0.453125,-0.390625 0.65625,-0.390625 0.21875,0 0.4375,0.125 0.515625,0.4375 z m 0,0"
             id="path21" />
        </g>
        <g
           id="use12"
           transform="translate(31.916519,7.073)">
          <path
             d="m 0.96875,-0.484375 c -0.03125,0.125 -0.078125,0.34375 -0.078125,0.359375 0,0.109375 0.09375,0.1875 0.1875,0.1875 0.0625,0 0.171875,-0.046875 0.234375,-0.171875 0,-0.03125 0.0625,-0.265625 0.09375,-0.390625 0.171875,-0.671875 0.171875,-0.6875 0.171875,-0.703125 0.078125,-0.125 0.4375,-0.828125 1.03125,-0.828125 0.25,0 0.359375,0.125 0.359375,0.359375 0,0.28125 -0.21875,0.796875 -0.328125,1.078125 -0.03125,0.0625 -0.046875,0.125 -0.046875,0.203125 0,0.265625 0.25,0.453125 0.546875,0.453125 0.53125,0 0.796875,-0.65625 0.796875,-0.78125 0,-0.0625 -0.078125,-0.0625 -0.09375,-0.0625 -0.09375,0 -0.09375,0.015625 -0.125,0.109375 C 3.625,-0.375 3.390625,-0.109375 3.15625,-0.109375 3.046875,-0.109375 3,-0.1875 3,-0.296875 3,-0.40625 3.03125,-0.453125 3.078125,-0.5625 c 0.078125,-0.203125 0.3125,-0.765625 0.3125,-1.046875 0,-0.375 -0.265625,-0.59375 -0.75,-0.59375 -0.453125,0 -0.765625,0.28125 -0.9375,0.5 -0.015625,-0.421875 -0.421875,-0.5 -0.609375,-0.5 -0.5,0 -0.640625,0.765625 -0.640625,0.765625 0,0.078125 0.078125,0.078125 0.109375,0.078125 0.078125,0 0.09375,-0.03125 0.109375,-0.09375 C 0.75,-1.75 0.859375,-2.03125 1.078125,-2.03125 c 0.15625,0 0.203125,0.15625 0.203125,0.265625 0,0.0625 -0.0625,0.25 -0.078125,0.390625 -0.046875,0.125 -0.09375,0.328125 -0.109375,0.4375 z m 0,0"
             id="path22" />
        </g>
      </g>
      <g
         fill="#000000"
         fill-opacity="1"
         id="g13"
         transform="matrix(0.352778,0,0,0.352778,-0.901524,-0.699647)">
        <g
           id="use13"
           transform="translate(38.5,6.0770001)">
          <path
             d="m 2.953125,-1.34375 h 1.9375 c 0.078125,0 0.21875,0 0.21875,-0.15625 0,-0.15625 -0.140625,-0.15625 -0.21875,-0.15625 h -1.9375 v -1.9375 c 0,-0.078125 0,-0.234375 -0.15625,-0.234375 -0.15625,0 -0.15625,0.15625 -0.15625,0.234375 v 1.9375 h -1.9375 c -0.078125,0 -0.234375,0 -0.234375,0.15625 0,0.15625 0.15625,0.15625 0.234375,0.15625 h 1.9375 v 1.9375 c 0,0.09375 0,0.234375 0.15625,0.234375 0.15625,0 0.15625,-0.140625 0.15625,-0.234375 z m 0,0"
             id="path23" />
        </g>
      </g>
      <g
         fill="#000000"
         fill-opacity="1"
         id="g14"
         transform="matrix(0.352778,0,0,0.352778,-0.901524,-0.699647)">
        <g
           id="use14"
           transform="translate(45.786999,6.0770001)">
          <path
             d="M 4.5625,-3.359375 C 4.578125,-3.390625 4.640625,-3.453125 4.6875,-3.5 4.9375,-3.8125 5.140625,-3.84375 5.375,-3.84375 5.453125,-3.859375 5.484375,-3.9375 5.484375,-4 5.46875,-4.015625 5.46875,-4.09375 5.390625,-4.09375 c -0.15625,0 -0.34375,0.03125 -0.515625,0.03125 -0.140625,0 -0.5,-0.03125 -0.640625,-0.03125 -0.09375,0 -0.125,0.078125 -0.125,0.15625 0,0.078125 0.078125,0.09375 0.125,0.09375 0.03125,0 0.234375,0.015625 0.234375,0.15625 0,0.078125 -0.0625,0.1875 -0.109375,0.234375 L 2.34375,-0.5625 1.734375,-3.609375 C 1.71875,-3.671875 1.71875,-3.6875 1.71875,-3.703125 c 0,-0.078125 0.125,-0.140625 0.40625,-0.140625 0.078125,0 0.15625,0 0.15625,-0.15625 0,-0.015625 0,-0.09375 -0.09375,-0.09375 -0.125,0 -0.265625,0.03125 -0.40625,0.03125 -0.125,0 -0.25,0 -0.390625,0 0,0 -0.34375,0 -0.34375,0 -0.109375,0 -0.234375,-0.03125 -0.34375,-0.03125 -0.0625,0 -0.140625,0.03125 -0.140625,0.15625 0,0.09375 0.09375,0.09375 0.171875,0.09375 0.34375,0 0.359375,0.046875 0.390625,0.171875 L 1.84375,-0.03125 C 1.859375,0.078125 1.875,0.125 2,0.125 2.125,0.125 2.15625,0.078125 2.21875,0 Z m 0,0"
             id="path48" />
        </g>
      </g>
      <g
         fill="#000000"
         fill-opacity="1"
         id="g16"
         transform="matrix(0.352778,0,0,0.352778,-0.901524,-0.699647)">
        <g
           id="use15"
           transform="translate(50.148998,7.4770002)">
          <path
             d="m 0.96875,-0.484375 c -0.03125,0.125 -0.078125,0.34375 -0.078125,0.359375 0,0.109375 0.09375,0.1875 0.1875,0.1875 0.0625,0 0.171875,-0.046875 0.234375,-0.171875 0,-0.03125 0.0625,-0.265625 0.09375,-0.390625 0.171875,-0.671875 0.171875,-0.6875 0.171875,-0.703125 0.078125,-0.125 0.4375,-0.828125 1.03125,-0.828125 0.25,0 0.359375,0.125 0.359375,0.359375 0,0.28125 -0.21875,0.796875 -0.328125,1.078125 -0.03125,0.0625 -0.046875,0.125 -0.046875,0.203125 0,0.265625 0.25,0.453125 0.546875,0.453125 0.53125,0 0.796875,-0.65625 0.796875,-0.78125 0,-0.0625 -0.078125,-0.0625 -0.09375,-0.0625 -0.09375,0 -0.09375,0.015625 -0.125,0.109375 C 3.625,-0.375 3.390625,-0.109375 3.15625,-0.109375 3.046875,-0.109375 3,-0.1875 3,-0.296875 3,-0.40625 3.03125,-0.453125 3.078125,-0.5625 c 0.078125,-0.203125 0.3125,-0.765625 0.3125,-1.046875 0,-0.375 -0.265625,-0.59375 -0.75,-0.59375 -0.453125,0 -0.765625,0.28125 -0.9375,0.5 -0.015625,-0.421875 -0.421875,-0.5 -0.609375,-0.5 -0.5,0 -0.640625,0.765625 -0.640625,0.765625 0,0.078125 0.078125,0.078125 0.109375,0.078125 0.078125,0 0.09375,-0.03125 0.109375,-0.09375 C 0.75,-1.75 0.859375,-2.03125 1.078125,-2.03125 c 0.15625,0 0.203125,0.15625 0.203125,0.265625 0,0.0625 -0.0625,0.25 -0.078125,0.390625 -0.046875,0.125 -0.09375,0.328125 -0.109375,0.4375 z m 0,0"
             id="path49" />
        </g>
        <g
           id="use16"
           transform="translate(54.53653,7.4770002)">
          <path
             d="M 1.5625,-3.265625 C 1.59375,-3.34375 1.59375,-3.34375 1.59375,-3.375 c 0,-0.078125 -0.078125,-0.078125 -0.15625,-0.078125 L 0.828125,-3.40625 c -0.09375,0 -0.09375,0 -0.125,0.03125 -0.015625,0.015625 -0.03125,0.078125 -0.03125,0.109375 0,0.078125 0.078125,0.078125 0.140625,0.078125 0.015625,0 0.09375,0 0.171875,0.015625 0.09375,0.015625 0.109375,0.03125 0.109375,0.0625 0,0.03125 -0.0625,0.234375 -0.09375,0.34375 L 0.59375,-1.09375 C 0.5625,-1 0.546875,-0.921875 0.546875,-0.8125 c 0,0.515625 0.375,0.875 0.859375,0.875 0.71875,0 1.40625,-0.703125 1.40625,-1.390625 0,-0.5 -0.359375,-0.875 -0.875,-0.875 -0.21875,0 -0.453125,0.078125 -0.703125,0.265625 z m -0.15625,3.15625 c -0.203125,0 -0.453125,-0.140625 -0.453125,-0.53125 0,-0.171875 0.03125,-0.328125 0.078125,-0.5 0.015625,-0.0625 0.09375,-0.375 0.109375,-0.40625 C 1.15625,-1.59375 1.5,-2.03125 1.921875,-2.03125 c 0.21875,0 0.4375,0.125 0.4375,0.5 0,0.1875 -0.09375,0.65625 -0.25,0.953125 -0.171875,0.28125 -0.453125,0.46875 -0.703125,0.46875 z m 0,0"
             id="path50" />
        </g>
      </g>
    </g>
    <g
       inkscape:label=""
       transform="matrix(0.49441911,0,0,0.49441911,19.513999,15.651682)"
       id="g56">
      <g
         fill="#000000"
         fill-opacity="1"
         id="g53"
         transform="matrix(0.352778,0,0,0.352778,-0.835378,-0.7041)">
        <g
           id="g51"
           transform="translate(1.993,6.9569998)">
          <path
             d="m 1.765625,-1.984375 c 0.5,0 0.84375,0.34375 0.84375,0.953125 0,0.65625 -0.390625,0.9375 -0.828125,0.9375 C 1.609375,-0.09375 1,-0.125 0.734375,-0.46875 0.96875,-0.5 1.0625,-0.65625 1.0625,-0.8125 c 0,-0.203125 -0.140625,-0.34375 -0.34375,-0.34375 -0.15625,0 -0.34375,0.109375 -0.34375,0.359375 0,0.59375 0.65625,0.921875 1.421875,0.921875 0.890625,0 1.46875,-0.5625 1.46875,-1.15625 0,-0.4375 -0.328125,-0.90625 -1.046875,-1.078125 0.484375,-0.15625 0.859375,-0.546875 0.859375,-1.03125 0,-0.484375 -0.5625,-0.84375 -1.28125,-0.84375 -0.703125,0 -1.234375,0.328125 -1.234375,0.8125 0,0.265625 0.203125,0.328125 0.328125,0.328125 0.15625,0 0.3125,-0.09375 0.3125,-0.3125 0,-0.1875 -0.125,-0.296875 -0.296875,-0.3125 0.28125,-0.3125 0.828125,-0.3125 0.890625,-0.3125 0.296875,0 0.6875,0.140625 0.6875,0.640625 0,0.328125 -0.1875,0.90625 -0.796875,0.9375 -0.109375,0 -0.265625,0.015625 -0.3125,0.015625 -0.0625,0.015625 -0.125,0.015625 -0.125,0.109375 0,0.09375 0.0625,0.09375 0.15625,0.09375 z m 0,0"
             id="path51" />
        </g>
        <g
           id="g52"
           transform="translate(5.6459112,6.9569998)">
          <path
             d="m 3.296875,-1.90625 c 0,-0.4375 0,-2.078125 -1.46875,-2.078125 -1.46875,0 -1.46875,1.640625 -1.46875,2.078125 0,0.421875 0,2.03125 1.46875,2.03125 1.46875,0 1.46875,-1.609375 1.46875,-2.03125 z m -1.46875,1.84375 c -0.25,0 -0.65625,-0.125 -0.8125,-0.625 -0.09375,-0.34375 -0.09375,-0.921875 -0.09375,-1.296875 0,-0.40625 0,-0.859375 0.09375,-1.1875 0.140625,-0.53125 0.59375,-0.609375 0.8125,-0.609375 0.265625,0 0.671875,0.125 0.796875,0.578125 0.09375,0.3125 0.09375,0.75 0.09375,1.21875 0,0.375 0,0.984375 -0.09375,1.3125 C 2.453125,-0.140625 2.015625,-0.0625 1.828125,-0.0625 Z m 0,0"
             id="path52" />
        </g>
      </g>
      <g
         fill="#000000"
         fill-opacity="1"
         id="g55"
         transform="matrix(0.352778,0,0,0.352778,-0.835378,-0.7041)">
        <g
           id="g54"
           transform="translate(9.2980003,4.4489999)">
          <path
             d="m 3.046875,-1.25 c 0,-0.65625 -0.546875,-1.203125 -1.21875,-1.203125 -0.65625,0 -1.203125,0.546875 -1.203125,1.203125 0,0.671875 0.546875,1.21875 1.203125,1.21875 0.671875,0 1.21875,-0.546875 1.21875,-1.21875 z m -1.21875,0.9375 c -0.5,0 -0.921875,-0.421875 -0.921875,-0.9375 0,-0.515625 0.421875,-0.921875 0.921875,-0.921875 0.515625,0 0.9375,0.40625 0.9375,0.921875 0,0.515625 -0.421875,0.9375 -0.9375,0.9375 z m 0,0"
             id="path53" />
        </g>
      </g>
    </g>
  </g>
</svg>
