<?xml version="1.0" encoding="UTF-8" standalone="no"?>
<!-- Created with Inkscape (http://www.inkscape.org/) -->

<svg
   inkscape:version="1.2 (dc2aedaf03, 2022-05-15)"
   sodipodi:docname="base.svg"
   id="svg5"
   version="1.1"
   viewBox="0 0 29.897918 33.998962"
   height="128.50002"
   width="113.00001"
   xmlns:inkscape="http://www.inkscape.org/namespaces/inkscape"
   xmlns:sodipodi="http://sodipodi.sourceforge.net/DTD/sodipodi-0.dtd"
   xmlns:xlink="http://www.w3.org/1999/xlink"
   xmlns="http://www.w3.org/2000/svg"
   xmlns:svg="http://www.w3.org/2000/svg">
  <sodipodi:namedview
     id="namedview7"
     pagecolor="#ffffff"
     bordercolor="#666666"
     borderopacity="1.0"
     inkscape:showpageshadow="false"
     inkscape:pageopacity="0.0"
     inkscape:pagecheckerboard="false"
     inkscape:deskcolor="#d1d1d1"
     inkscape:document-units="px"
     showgrid="true"
     showborder="false"
     borderlayer="false"
     shape-rendering="auto"
     inkscape:zoom="2"
     inkscape:cx="1367"
     inkscape:cy="88.250001"
     inkscape:window-width="1920"
     inkscape:window-height="1050"
     inkscape:window-x="1920"
     inkscape:window-y="18"
     inkscape:window-maximized="0"
     inkscape:current-layer="layer1"
     showguides="true"
     inkscape:lockguides="false">
    <inkscape:grid
       type="xygrid"
       id="grid9"
       spacingx="1.0583333"
       spacingy="1.0583333"
       empspacing="4"
       dotted="false"
       snapvisiblegridlinesonly="false"
       originx="0"
       originy="0" />
    <sodipodi:guide
       position="-349.11771,42.33334"
       orientation="0,1920"
       id="guide280"
       inkscape:locked="false" />
    <sodipodi:guide
       position="158.88229,42.33334"
       orientation="1080,0"
       id="guide282"
       inkscape:locked="false" />
    <sodipodi:guide
       position="158.88229,-243.41666"
       orientation="0,-1920"
       id="guide284"
       inkscape:locked="false" />
    <sodipodi:guide
       position="-349.11771,-243.41666"
       orientation="-1080,0"
       id="guide286"
       inkscape:locked="false" />
    <sodipodi:guide
       position="-349.11771,42.33334"
       orientation="0,1920"
       id="guide288"
       inkscape:locked="false" />
    <sodipodi:guide
       position="158.88229,42.33334"
       orientation="1080,0"
       id="guide290"
       inkscape:locked="false" />
    <sodipodi:guide
       position="158.88229,-243.41666"
       orientation="0,-1920"
       id="guide292"
       inkscape:locked="false" />
    <sodipodi:guide
       position="-349.11771,-243.41666"
       orientation="-1080,0"
       id="guide294"
       inkscape:locked="false" />
    <sodipodi:guide
       position="-349.11771,42.33334"
       orientation="0,1920"
       id="guide296"
       inkscape:locked="false" />
    <sodipodi:guide
       position="158.88229,42.33334"
       orientation="1080,0"
       id="guide298"
       inkscape:locked="false" />
    <sodipodi:guide
       position="158.88229,-243.41666"
       orientation="0,-1920"
       id="guide300"
       inkscape:locked="false" />
    <sodipodi:guide
       position="-349.11771,-243.41666"
       orientation="-1080,0"
       id="guide302"
       inkscape:locked="false" />
    <sodipodi:guide
       position="-349.11771,42.33334"
       orientation="0,1920"
       id="guide304"
       inkscape:locked="false" />
    <sodipodi:guide
       position="158.88229,42.33334"
       orientation="1080,0"
       id="guide306"
       inkscape:locked="false" />
    <sodipodi:guide
       position="158.88229,-243.41666"
       orientation="0,-1920"
       id="guide308"
       inkscape:locked="false" />
    <sodipodi:guide
       position="-349.11771,-243.41666"
       orientation="-1080,0"
       id="guide310"
       inkscape:locked="false" />
    <sodipodi:guide
       position="-349.11771,42.33334"
       orientation="0,1920"
       id="guide157"
       inkscape:locked="false" />
    <sodipodi:guide
       position="158.88229,42.33334"
       orientation="1080,0"
       id="guide159"
       inkscape:locked="false" />
    <sodipodi:guide
       position="158.88229,-243.41666"
       orientation="0,-1920"
       id="guide161"
       inkscape:locked="false" />
    <sodipodi:guide
       position="-349.11771,-243.41666"
       orientation="-1080,0"
       id="guide163"
       inkscape:locked="false" />
    <sodipodi:guide
       position="158.88229,42.33334"
       orientation="1080,0"
       id="guide167"
       inkscape:locked="false" />
    <sodipodi:guide
       position="158.88229,-243.41666"
       orientation="0,-1920"
       id="guide169"
       inkscape:locked="false" />
    <sodipodi:guide
       position="-315.25104,42.33334"
       orientation="1,0"
       id="guide1350"
       inkscape:locked="false" />
    <sodipodi:guide
       position="-264.45104,42.33334"
       orientation="1,0"
       id="guide3109"
       inkscape:locked="false" />
    <sodipodi:guide
       position="-349.11771,-8.4666598"
       orientation="0,-1"
       id="guide7523"
       inkscape:locked="false" />
    <sodipodi:guide
       position="-213.65105,42.33334"
       orientation="1,0"
       id="guide12549"
       inkscape:locked="false" />
    <sodipodi:guide
       position="-162.85105,42.33334"
       orientation="1,0"
       id="guide15016"
       inkscape:locked="false" />
    <sodipodi:guide
       position="-112.05105,42.33334"
       orientation="1,0"
       id="guide21711"
       inkscape:locked="false" />
    <sodipodi:guide
       position="-61.251059,42.33334"
       orientation="1,0"
       id="guide26719"
       inkscape:locked="false" />
    <sodipodi:guide
       position="-10.45106,42.33334"
       orientation="1,0"
       id="guide32627"
       inkscape:locked="false" />
    <sodipodi:guide
       position="40.34894,42.33334"
       orientation="1,0"
       id="guide49129"
       inkscape:locked="false" />
  </sodipodi:namedview>
  <defs
     id="defs2">
    <linearGradient
       inkscape:collect="always"
       id="linearGradient41556">
      <stop
         style="stop-color:#ffaaaa;stop-opacity:1;"
         offset="0"
         id="stop41552" />
      <stop
         style="stop-color:#ffaaaa;stop-opacity:0;"
         offset="1"
         id="stop41554" />
    </linearGradient>
    <linearGradient
       inkscape:collect="always"
       id="linearGradient38026">
      <stop
         style="stop-color:#aaccff;stop-opacity:1;"
         offset="0"
         id="stop38022" />
      <stop
         style="stop-color:#aaccff;stop-opacity:0;"
         offset="1"
         id="stop38024" />
    </linearGradient>
    <linearGradient
       inkscape:collect="always"
       xlink:href="#linearGradient38026"
       id="linearGradient86396"
       gradientUnits="userSpaceOnUse"
       gradientTransform="translate(103.71669)"
       x1="262.46664"
       y1="33.866665"
       x2="262.46664"
       y2="42.333332" />
    <linearGradient
       inkscape:collect="always"
       xlink:href="#linearGradient41556"
       id="linearGradient86398"
       gradientUnits="userSpaceOnUse"
       gradientTransform="translate(103.71663)"
       x1="262.46664"
       y1="16.933332"
       x2="262.46664"
       y2="8.4666662" />
    <linearGradient
       inkscape:collect="always"
       xlink:href="#linearGradient38026"
       id="linearGradient88268"
       gradientUnits="userSpaceOnUse"
       gradientTransform="translate(120.65001)"
       x1="262.46664"
       y1="33.866665"
       x2="262.46664"
       y2="42.333332" />
    <linearGradient
       inkscape:collect="always"
       xlink:href="#linearGradient41556"
       id="linearGradient89204"
       gradientUnits="userSpaceOnUse"
       gradientTransform="translate(120.64996)"
       x1="262.46664"
       y1="16.933332"
       x2="262.46664"
       y2="8.4666662" />
  </defs>
  <g
     inkscape:label="Capa 1"
     inkscape:groupmode="layer"
     id="layer1"
     transform="translate(-349.11771,-8.3343753)">
    <rect
       style="fill:url(#linearGradient89204);fill-opacity:1;stroke:none;stroke-width:0.105833;stroke-linejoin:round"
       id="rect89202"
       width="12.699985"
       height="8.4666653"
       x="366.18332"
       y="8.4666672" />
    <rect
       style="fill:url(#linearGradient88268);fill-opacity:1;stroke:none;stroke-width:0.105833;stroke-linejoin:round"
       id="rect88266"
       width="12.699985"
       height="8.4666672"
       x="366.18332"
       y="33.866665" />
    <rect
       style="fill:url(#linearGradient86398);fill-opacity:1;stroke:none;stroke-width:0.105833;stroke-linejoin:round"
       id="rect86392"
       width="12.699985"
       height="8.4666653"
       x="349.25"
       y="8.4666672" />
    <rect
       style="fill:url(#linearGradient86396);fill-opacity:1;stroke:none;stroke-width:0.105833;stroke-linejoin:round"
       id="rect86394"
       width="12.699985"
       height="8.4666672"
       x="349.25"
       y="33.866665" />
    <path
       style="fill:#ffff00;fill-opacity:1;stroke:#d4aa00;stroke-width:0.264583;stroke-linejoin:round;stroke-dasharray:none;stroke-opacity:1"
       d="m 359.83332,24.209375 h 6.35 v -1.058334 l 2.11667,2.116667 -2.11667,2.116667 v -1.058334 h -6.35 z"
       id="path45705"
       sodipodi:nodetypes="cccccccc" />
    <path
       style="fill:#ffff00;fill-opacity:1;stroke:#d4aa00;stroke-width:0.264583;stroke-linejoin:round;stroke-dasharray:none;stroke-opacity:1"
       d="m 356.65833,16.801043 v 3.175 h 1.05833 l -2.11667,2.11667 -2.11666,-2.11667 h 1.05833 v -3.175 z"
       id="path45713"
       sodipodi:nodetypes="cccccccc" />
    <path
       style="fill:#ffff00;fill-opacity:1;stroke:#d4aa00;stroke-width:0.264583;stroke-linejoin:round;stroke-dasharray:none;stroke-opacity:1"
       d="m 371.47498,22.092707 v -3.175 h -1.05833 l 2.11667,-2.11667 2.11666,2.11667 h -1.05833 v 3.175 z"
       id="path45715"
       sodipodi:nodetypes="cccccccc" />
    <path
       style="fill:#ffff00;fill-opacity:1;stroke:#d4aa00;stroke-width:0.264583;stroke-linejoin:round;stroke-dasharray:none;stroke-opacity:1"
       d="m 354.54165,28.44271 v 3.174999 h -1.05833 l 2.11667,2.11667 2.11666,-2.11667 h -1.05833 V 28.44271 Z"
       id="path45717"
       sodipodi:nodetypes="cccccccc" />
    <path
       style="fill:#ffff00;fill-opacity:1;stroke:#d4aa00;stroke-width:0.264583;stroke-linejoin:round;stroke-dasharray:none;stroke-opacity:1"
       d="m 371.47499,33.866666 v -3.175 h -1.05833 l 2.11667,-2.11667 2.11666,2.11667 h -1.05833 v 3.175 z"
       id="path45719"
       sodipodi:nodetypes="cccccccc" />
    <rect
       style="fill:#e6e6e6;fill-opacity:1;stroke:#000000;stroke-width:0.264583;stroke-linejoin:round;stroke-dasharray:none"
       id="rect45707"
       width="8.4666662"
       height="6.3499999"
       x="368.29999"
       y="22.092707" />
    <rect
       style="fill:#e6e6e6;fill-opacity:1;stroke:#000000;stroke-width:0.264583;stroke-linejoin:round;stroke-dasharray:none"
       id="rect45703"
       width="8.4666662"
       height="6.3499999"
       x="351.36664"
       y="22.092707" />
    <g
       inkscape:label=""
       transform="translate(353.38805,23.802531)"
       id="g45659"
       inkscape:export-filename="f8.svg"
       inkscape:export-xdpi="96"
       inkscape:export-ydpi="96">
      <g
         id="g45657"
         transform="matrix(0.352778,0,0,0.352778,-0.148828,0.00158747)">
        <g
           style="fill:#000000;fill-opacity:1"
           id="g45649">
          <g
             id="g45647"
             transform="translate(0,6.8080001)">
            <path
               style="stroke:none"
               d="M 9.234375,-6.046875 C 9.328125,-6.40625 9.34375,-6.5 10.09375,-6.5 c 0.21875,0 0.3125,0 0.3125,-0.203125 0,-0.109375 -0.09375,-0.109375 -0.265625,-0.109375 h -1.3125 c -0.265625,0 -0.28125,0 -0.390625,0.1875 L 4.796875,-0.9375 4.015625,-6.578125 C 3.984375,-6.8125 3.96875,-6.8125 3.703125,-6.8125 H 2.34375 c -0.1875,0 -0.296875,0 -0.296875,0.1875 0,0.125 0.09375,0.125 0.28125,0.125 0.140625,0 0.3125,0.015625 0.4375,0.015625 0.15625,0.03125 0.21875,0.046875 0.21875,0.171875 0,0.03125 -0.015625,0.0625 -0.046875,0.1875 l -1.265625,5.0625 c -0.09375,0.40625 -0.265625,0.71875 -1.078125,0.75 -0.046875,0 -0.171875,0.015625 -0.171875,0.1875 0,0.09375 0.0625,0.125 0.140625,0.125 0.3125,0 0.65625,-0.03125 1,-0.03125 C 1.890625,-0.03125 2.25,0 2.578125,0 c 0.046875,0 0.1875,0 0.1875,-0.203125 0,-0.109375 -0.109375,-0.109375 -0.1875,-0.109375 -0.5625,0 -0.671875,-0.203125 -0.671875,-0.4375 0,-0.0625 0,-0.125 0.03125,-0.234375 L 3.296875,-6.40625 H 3.3125 l 0.859375,6.171875 C 4.1875,-0.109375 4.203125,0 4.3125,0 4.421875,0 4.484375,-0.109375 4.53125,-0.171875 l 4.03125,-6.3125 h 0.015625 l -1.4375,5.703125 c -0.09375,0.390625 -0.109375,0.46875 -0.90625,0.46875 -0.15625,0 -0.265625,0 -0.265625,0.1875 C 5.96875,0 6.078125,0 6.109375,0 6.390625,0 7.0625,-0.03125 7.34375,-0.03125 7.75,-0.03125 8.1875,0 8.59375,0 8.65625,0 8.78125,0 8.78125,-0.203125 8.78125,-0.3125 8.6875,-0.3125 8.5,-0.3125 c -0.359375,0 -0.640625,0 -0.640625,-0.171875 0,-0.046875 0,-0.0625 0.046875,-0.25 z m 0,0"
               id="path45645" />
          </g>
        </g>
        <g
           style="fill:#000000;fill-opacity:1"
           id="g45655">
          <g
             id="g45653"
             transform="translate(9.665,8.302)">
            <path
               style="stroke:none"
               d="m 2.328125,-4.4375 c 0,-0.1875 0,-0.1875 -0.203125,-0.1875 -0.453125,0.4375 -1.078125,0.4375 -1.359375,0.4375 v 0.25 c 0.15625,0 0.625,0 1,-0.1875 v 3.546875 c 0,0.234375 0,0.328125 -0.6875,0.328125 H 0.8125 V 0 c 0.125,0 0.984375,-0.03125 1.234375,-0.03125 0.21875,0 1.09375,0.03125 1.25,0.03125 V -0.25 H 3.03125 c -0.703125,0 -0.703125,-0.09375 -0.703125,-0.328125 z m 0,0"
               id="path45651" />
          </g>
        </g>
      </g>
    </g>
    <path
       style="fill:none;stroke:#000000;stroke-width:0.264583;stroke-linejoin:round;stroke-dasharray:none"
       d="m 349.24999,8.3343755 v 8.4666655 h 12.7 V 8.3343755"
       id="path45709"
       sodipodi:nodetypes="cccc" />
    <path
       style="fill:none;stroke:#000000;stroke-width:0.264583;stroke-linejoin:round;stroke-dasharray:none"
       d="m 366.18332,8.3343755 v 8.4666655 h 12.7 V 8.3343755"
       id="path45711"
       sodipodi:nodetypes="cccc" />
    <path
       style="fill:none;stroke:#000000;stroke-width:0.264583;stroke-linejoin:round;stroke-dasharray:none"
       d="m 349.24999,42.333332 v -8.466667 h 12.7 v 8.466666"
       id="path45747"
       sodipodi:nodetypes="cccc" />
    <path
       style="fill:none;stroke:#000000;stroke-width:0.264583;stroke-linejoin:round;stroke-dasharray:none"
       d="m 366.18332,42.333332 v -8.466667 h 12.7 v 8.466666"
       id="path45773"
       sodipodi:nodetypes="cccc" />
    <g
       inkscape:label=""
       transform="translate(351.47444,11.393619)"
       id="g48868">
      <g
         id="g48866"
         transform="matrix(0.352778,0,0,0.352778,-0.198437,0.00158747)">
        <g
           style="fill:#000000;fill-opacity:1"
           id="g48858">
          <g
             id="g48848"
             transform="translate(0,6.8080001)">
            <path
               style="stroke:none"
               d="m 4.75,-6.078125 c 0.078125,-0.109375 0.078125,-0.125 0.078125,-0.34375 H 2.40625 c -1.203125,0 -1.234375,-0.125 -1.265625,-0.3125 h -0.25 L 0.5625,-4.6875 h 0.25 c 0.03125,-0.15625 0.109375,-0.78125 0.25,-0.90625 0.0625,-0.0625 0.84375,-0.0625 0.96875,-0.0625 h 2.0625 C 3.984375,-5.5 3.203125,-4.40625 2.984375,-4.078125 2.078125,-2.734375 1.75,-1.34375 1.75,-0.328125 c 0,0.09375 0,0.546875 0.46875,0.546875 0.453125,0 0.453125,-0.453125 0.453125,-0.546875 V -0.84375 c 0,-0.546875 0.03125,-1.09375 0.109375,-1.625 0.046875,-0.234375 0.171875,-1.09375 0.625,-1.703125 z m 0,0"
               id="path48846" />
          </g>
          <g
             id="g48852"
             transform="translate(4.9812999,6.8080001)">
            <path
               style="stroke:none"
               d="m 4.46875,-2 c 0,-1.1875 -0.8125,-2.1875 -1.890625,-2.1875 -0.46875,0 -0.90625,0.15625 -1.265625,0.515625 V -5.625 c 0.203125,0.0625 0.53125,0.125 0.84375,0.125 1.234375,0 1.9375,-0.90625 1.9375,-1.03125 0,-0.0625 -0.03125,-0.109375 -0.109375,-0.109375 0,0 -0.03125,0 -0.078125,0.03125 C 3.703125,-6.515625 3.21875,-6.3125 2.546875,-6.3125 2.15625,-6.3125 1.6875,-6.390625 1.21875,-6.59375 1.140625,-6.625 1.125,-6.625 1.109375,-6.625 1,-6.625 1,-6.546875 1,-6.390625 V -3.4375 c 0,0.171875 0,0.25 0.140625,0.25 0.078125,0 0.09375,-0.015625 0.140625,-0.078125 C 1.390625,-3.421875 1.75,-3.96875 2.5625,-3.96875 c 0.515625,0 0.765625,0.453125 0.84375,0.640625 0.15625,0.375 0.1875,0.75 0.1875,1.25 0,0.359375 0,0.953125 -0.25,1.375 C 3.109375,-0.3125 2.734375,-0.0625 2.28125,-0.0625 c -0.71875,0 -1.296875,-0.53125 -1.46875,-1.109375 0.03125,0 0.0625,0.015625 0.171875,0.015625 0.328125,0 0.5,-0.25 0.5,-0.484375 0,-0.25 -0.171875,-0.5 -0.5,-0.5 C 0.84375,-2.140625 0.5,-2.0625 0.5,-1.609375 0.5,-0.75 1.1875,0.21875 2.296875,0.21875 3.453125,0.21875 4.46875,-0.734375 4.46875,-2 Z m 0,0"
               id="path48850" />
          </g>
          <g
             id="g48856"
             transform="translate(9.9625998,6.8080001)">
            <path
               style="stroke:none"
               d="m 4.578125,-3.1875 c 0,-0.796875 -0.046875,-1.59375 -0.390625,-2.328125 -0.453125,-0.96875 -1.28125,-1.125 -1.6875,-1.125 -0.609375,0 -1.328125,0.265625 -1.75,1.1875 -0.3125,0.6875 -0.359375,1.46875 -0.359375,2.265625 0,0.75 0.03125,1.640625 0.453125,2.40625 0.421875,0.796875 1.15625,1 1.640625,1 0.53125,0 1.296875,-0.203125 1.734375,-1.15625 0.3125,-0.6875 0.359375,-1.46875 0.359375,-2.25 z M 2.484375,0 C 2.09375,0 1.5,-0.25 1.328125,-1.203125 1.21875,-1.796875 1.21875,-2.71875 1.21875,-3.3125 c 0,-0.640625 0,-1.296875 0.078125,-1.828125 0.1875,-1.1875 0.9375,-1.28125 1.1875,-1.28125 0.328125,0 0.984375,0.1875 1.171875,1.171875 0.109375,0.5625 0.109375,1.3125 0.109375,1.9375 0,0.75 0,1.421875 -0.109375,2.0625 C 3.5,-0.296875 2.9375,0 2.484375,0 Z m 0,0"
               id="path48854" />
          </g>
        </g>
        <g
           style="fill:#000000;fill-opacity:1"
           id="g48864">
          <g
             id="g48862"
             transform="translate(16.607655,6.8080001)">
            <path
               style="stroke:none"
               d="M 3.984375,-4.171875 5.78125,-5.90625 C 5.859375,-5.984375 6.390625,-6.484375 7.203125,-6.5 V -6.8125 C 6.9375,-6.78125 6.625,-6.78125 6.34375,-6.78125 c -0.359375,0 -0.921875,0 -1.265625,-0.03125 V -6.5 c 0.40625,0.015625 0.46875,0.234375 0.46875,0.328125 0,0.15625 -0.109375,0.265625 -0.1875,0.328125 L 2.25,-2.859375 V -6.03125 C 2.25,-6.390625 2.265625,-6.5 3.03125,-6.5 h 0.234375 v -0.3125 c -0.34375,0.03125 -1.078125,0.03125 -1.46875,0.03125 -0.375,0 -1.125,0 -1.46875,-0.03125 V -6.5 H 0.5625 c 0.765625,0 0.796875,0.109375 0.796875,0.46875 v 5.25 c 0,0.359375 -0.03125,0.46875 -0.796875,0.46875 H 0.328125 V 0 c 0.34375,-0.03125 1.09375,-0.03125 1.46875,-0.03125 0.375,0 1.125,0 1.46875,0.03125 V -0.3125 H 3.03125 C 2.265625,-0.3125 2.25,-0.421875 2.25,-0.78125 V -2.515625 L 3.40625,-3.625 5.203125,-0.953125 c 0.0625,0.09375 0.15625,0.21875 0.15625,0.34375 0,0.296875 -0.390625,0.296875 -0.59375,0.296875 V 0 C 5.109375,-0.03125 5.8125,-0.03125 6.1875,-0.03125 c 0.359375,0 0.734375,0.015625 1.15625,0.03125 v -0.3125 c -0.546875,0 -0.75,-0.03125 -1.046875,-0.46875 z m 0,0"
               id="path48860" />
          </g>
        </g>
      </g>
    </g>
    <g
       inkscape:label=""
       transform="translate(368.88771,11.355034)"
       id="g50411">
      <g
         id="g50409"
         transform="matrix(0.352778,0,0,0.352778,-0.176389,0.0604131)">
        <g
           style="fill:#000000;fill-opacity:1"
           id="g50395">
          <g
             id="g50389"
             transform="translate(0,6.8600001)">
            <path
               style="stroke:none"
               d="m 1.265625,-0.765625 1.0625,-1.03125 c 1.546875,-1.375 2.140625,-1.90625 2.140625,-2.90625 0,-1.140625 -0.890625,-1.9375 -2.109375,-1.9375 -1.125,0 -1.859375,0.921875 -1.859375,1.8125 0,0.546875 0.5,0.546875 0.53125,0.546875 0.171875,0 0.515625,-0.109375 0.515625,-0.53125 0,-0.25 -0.1875,-0.515625 -0.53125,-0.515625 -0.078125,0 -0.09375,0 -0.125,0.015625 0.21875,-0.65625 0.765625,-1.015625 1.34375,-1.015625 0.90625,0 1.328125,0.8125 1.328125,1.625 C 3.5625,-3.90625 3.078125,-3.125 2.515625,-2.5 l -1.90625,2.125 C 0.5,-0.265625 0.5,-0.234375 0.5,0 H 4.203125 L 4.46875,-1.734375 H 4.234375 C 4.171875,-1.4375 4.109375,-1 4,-0.84375 3.9375,-0.765625 3.28125,-0.765625 3.0625,-0.765625 Z m 0,0"
               id="path50387" />
          </g>
          <g
             id="g50393"
             transform="translate(4.9812999,6.8600001)">
            <path
               style="stroke:none"
               d="m 4.75,-6.078125 c 0.078125,-0.109375 0.078125,-0.125 0.078125,-0.34375 H 2.40625 c -1.203125,0 -1.234375,-0.125 -1.265625,-0.3125 h -0.25 L 0.5625,-4.6875 h 0.25 c 0.03125,-0.15625 0.109375,-0.78125 0.25,-0.90625 0.0625,-0.0625 0.84375,-0.0625 0.96875,-0.0625 h 2.0625 C 3.984375,-5.5 3.203125,-4.40625 2.984375,-4.078125 2.078125,-2.734375 1.75,-1.34375 1.75,-0.328125 c 0,0.09375 0,0.546875 0.46875,0.546875 0.453125,0 0.453125,-0.453125 0.453125,-0.546875 V -0.84375 c 0,-0.546875 0.03125,-1.09375 0.109375,-1.625 0.046875,-0.234375 0.171875,-1.09375 0.625,-1.703125 z m 0,0"
               id="path50391" />
          </g>
        </g>
        <g
           style="fill:#000000;fill-opacity:1"
           id="g50401">
          <g
             id="g50399"
             transform="translate(9.9630003,3.244)">
            <path
               style="stroke:none"
               d="m 3.53125,-1.734375 c 0,-0.84375 -0.671875,-1.5 -1.5,-1.5 -0.828125,0 -1.5,0.671875 -1.5,1.484375 0,0.84375 0.6875,1.5 1.5,1.5 0.84375,0 1.5,-0.671875 1.5,-1.484375 z m -1.5,1.140625 C 1.375,-0.59375 0.875,-1.125 0.875,-1.734375 c 0,-0.65625 0.515625,-1.171875 1.15625,-1.171875 0.65625,0 1.15625,0.53125 1.15625,1.15625 0,0.65625 -0.515625,1.15625 -1.15625,1.15625 z m 0,0"
               id="path50397" />
          </g>
        </g>
        <g
           style="fill:#000000;fill-opacity:1"
           id="g50407">
          <g
             id="g50405"
             transform="translate(14.543,6.8600001)">
            <path
               style="stroke:none"
               d="m 0.5625,-3.40625 c 0,2.0625 1.609375,3.625 3.46875,3.625 1.625,0 2.59375,-1.390625 2.59375,-2.546875 C 6.625,-2.421875 6.625,-2.5 6.5,-2.5 6.390625,-2.5 6.390625,-2.4375 6.375,-2.328125 6.296875,-0.90625 5.234375,-0.09375 4.140625,-0.09375 c -0.609375,0 -2.5625,-0.328125 -2.5625,-3.3125 0,-2.96875 1.953125,-3.3125 2.5625,-3.3125 1.078125,0 1.96875,0.90625 2.171875,2.359375 C 6.328125,-4.21875 6.328125,-4.1875 6.46875,-4.1875 6.625,-4.1875 6.625,-4.21875 6.625,-4.421875 V -6.78125 c 0,-0.171875 0,-0.25 -0.109375,-0.25 -0.03125,0 -0.078125,0 -0.15625,0.125 l -0.5,0.734375 C 5.5,-6.53125 4.984375,-7.03125 4.03125,-7.03125 c -1.875,0 -3.46875,1.59375 -3.46875,3.625 z m 0,0"
               id="path50403" />
          </g>
        </g>
      </g>
    </g>
    <g
       inkscape:label=""
       transform="translate(351.95438,36.755033)"
       id="g50477">
      <g
         id="g50475"
         transform="matrix(0.352778,0,0,0.352778,-0.176389,0.0604131)">
        <g
           style="fill:#000000;fill-opacity:1"
           id="g50461">
          <g
             id="g50455"
             transform="translate(0,6.8600001)">
            <path
               style="stroke:none"
               d="m 1.265625,-0.765625 1.0625,-1.03125 c 1.546875,-1.375 2.140625,-1.90625 2.140625,-2.90625 0,-1.140625 -0.890625,-1.9375 -2.109375,-1.9375 -1.125,0 -1.859375,0.921875 -1.859375,1.8125 0,0.546875 0.5,0.546875 0.53125,0.546875 0.171875,0 0.515625,-0.109375 0.515625,-0.53125 0,-0.25 -0.1875,-0.515625 -0.53125,-0.515625 -0.078125,0 -0.09375,0 -0.125,0.015625 0.21875,-0.65625 0.765625,-1.015625 1.34375,-1.015625 0.90625,0 1.328125,0.8125 1.328125,1.625 C 3.5625,-3.90625 3.078125,-3.125 2.515625,-2.5 l -1.90625,2.125 C 0.5,-0.265625 0.5,-0.234375 0.5,0 H 4.203125 L 4.46875,-1.734375 H 4.234375 C 4.171875,-1.4375 4.109375,-1 4,-0.84375 3.9375,-0.765625 3.28125,-0.765625 3.0625,-0.765625 Z m 0,0"
               id="path50453" />
          </g>
          <g
             id="g50459"
             transform="translate(4.9812999,6.8600001)">
            <path
               style="stroke:none"
               d="m 4.75,-6.078125 c 0.078125,-0.109375 0.078125,-0.125 0.078125,-0.34375 H 2.40625 c -1.203125,0 -1.234375,-0.125 -1.265625,-0.3125 h -0.25 L 0.5625,-4.6875 h 0.25 c 0.03125,-0.15625 0.109375,-0.78125 0.25,-0.90625 0.0625,-0.0625 0.84375,-0.0625 0.96875,-0.0625 h 2.0625 C 3.984375,-5.5 3.203125,-4.40625 2.984375,-4.078125 2.078125,-2.734375 1.75,-1.34375 1.75,-0.328125 c 0,0.09375 0,0.546875 0.46875,0.546875 0.453125,0 0.453125,-0.453125 0.453125,-0.546875 V -0.84375 c 0,-0.546875 0.03125,-1.09375 0.109375,-1.625 0.046875,-0.234375 0.171875,-1.09375 0.625,-1.703125 z m 0,0"
               id="path50457" />
          </g>
        </g>
        <g
           style="fill:#000000;fill-opacity:1"
           id="g50467">
          <g
             id="g50465"
             transform="translate(9.9630003,3.244)">
            <path
               style="stroke:none"
               d="m 3.53125,-1.734375 c 0,-0.84375 -0.671875,-1.5 -1.5,-1.5 -0.828125,0 -1.5,0.671875 -1.5,1.484375 0,0.84375 0.6875,1.5 1.5,1.5 0.84375,0 1.5,-0.671875 1.5,-1.484375 z m -1.5,1.140625 C 1.375,-0.59375 0.875,-1.125 0.875,-1.734375 c 0,-0.65625 0.515625,-1.171875 1.15625,-1.171875 0.65625,0 1.15625,0.53125 1.15625,1.15625 0,0.65625 -0.515625,1.15625 -1.15625,1.15625 z m 0,0"
               id="path50463" />
          </g>
        </g>
        <g
           style="fill:#000000;fill-opacity:1"
           id="g50473">
          <g
             id="g50471"
             transform="translate(14.543,6.8600001)">
            <path
               style="stroke:none"
               d="m 0.5625,-3.40625 c 0,2.0625 1.609375,3.625 3.46875,3.625 1.625,0 2.59375,-1.390625 2.59375,-2.546875 C 6.625,-2.421875 6.625,-2.5 6.5,-2.5 6.390625,-2.5 6.390625,-2.4375 6.375,-2.328125 6.296875,-0.90625 5.234375,-0.09375 4.140625,-0.09375 c -0.609375,0 -2.5625,-0.328125 -2.5625,-3.3125 0,-2.96875 1.953125,-3.3125 2.5625,-3.3125 1.078125,0 1.96875,0.90625 2.171875,2.359375 C 6.328125,-4.21875 6.328125,-4.1875 6.46875,-4.1875 6.625,-4.1875 6.625,-4.21875 6.625,-4.421875 V -6.78125 c 0,-0.171875 0,-0.25 -0.109375,-0.25 -0.03125,0 -0.078125,0 -0.15625,0.125 l -0.5,0.734375 C 5.5,-6.53125 4.984375,-7.03125 4.03125,-7.03125 c -1.875,0 -3.46875,1.59375 -3.46875,3.625 z m 0,0"
               id="path50469" />
          </g>
        </g>
      </g>
    </g>
    <g
       inkscape:label=""
       transform="translate(367.57893,36.755033)"
       id="g52703">
      <g
         id="g52701"
         transform="matrix(0.352778,0,0,0.352778,-0.292144,0.0604131)">
        <g
           style="fill:#000000;fill-opacity:1"
           id="g52683">
          <g
             id="g52681"
             transform="translate(0,6.8600001)">
            <path
               style="stroke:none"
               d="m 6.5625,-2.296875 c 0.171875,0 0.359375,0 0.359375,-0.203125 0,-0.1875 -0.1875,-0.1875 -0.359375,-0.1875 H 1.171875 c -0.171875,0 -0.34375,0 -0.34375,0.1875 0,0.203125 0.171875,0.203125 0.34375,0.203125 z m 0,0"
               id="path52679" />
          </g>
        </g>
        <g
           style="fill:#000000;fill-opacity:1"
           id="g52693">
          <g
             id="g52687"
             transform="translate(7.7490001,6.8600001)">
            <path
               style="stroke:none"
               d="m 2.9375,-6.375 c 0,-0.25 0,-0.265625 -0.234375,-0.265625 C 2.078125,-6 1.203125,-6 0.890625,-6 v 0.3125 c 0.203125,0 0.78125,0 1.296875,-0.265625 v 5.171875 c 0,0.359375 -0.03125,0.46875 -0.921875,0.46875 h -0.3125 V 0 c 0.34375,-0.03125 1.203125,-0.03125 1.609375,-0.03125 0.390625,0 1.265625,0 1.609375,0.03125 v -0.3125 h -0.3125 c -0.90625,0 -0.921875,-0.109375 -0.921875,-0.46875 z m 0,0"
               id="path52685" />
          </g>
          <g
             id="g52691"
             transform="translate(12.7303,6.8600001)">
            <path
               style="stroke:none"
               d="m 4.46875,-2 c 0,-1.1875 -0.8125,-2.1875 -1.890625,-2.1875 -0.46875,0 -0.90625,0.15625 -1.265625,0.515625 V -5.625 c 0.203125,0.0625 0.53125,0.125 0.84375,0.125 1.234375,0 1.9375,-0.90625 1.9375,-1.03125 0,-0.0625 -0.03125,-0.109375 -0.109375,-0.109375 0,0 -0.03125,0 -0.078125,0.03125 C 3.703125,-6.515625 3.21875,-6.3125 2.546875,-6.3125 2.15625,-6.3125 1.6875,-6.390625 1.21875,-6.59375 1.140625,-6.625 1.125,-6.625 1.109375,-6.625 1,-6.625 1,-6.546875 1,-6.390625 V -3.4375 c 0,0.171875 0,0.25 0.140625,0.25 0.078125,0 0.09375,-0.015625 0.140625,-0.078125 C 1.390625,-3.421875 1.75,-3.96875 2.5625,-3.96875 c 0.515625,0 0.765625,0.453125 0.84375,0.640625 0.15625,0.375 0.1875,0.75 0.1875,1.25 0,0.359375 0,0.953125 -0.25,1.375 C 3.109375,-0.3125 2.734375,-0.0625 2.28125,-0.0625 c -0.71875,0 -1.296875,-0.53125 -1.46875,-1.109375 0.03125,0 0.0625,0.015625 0.171875,0.015625 0.328125,0 0.5,-0.25 0.5,-0.484375 0,-0.25 -0.171875,-0.5 -0.5,-0.5 C 0.84375,-2.140625 0.5,-2.0625 0.5,-1.609375 0.5,-0.75 1.1875,0.21875 2.296875,0.21875 3.453125,0.21875 4.46875,-0.734375 4.46875,-2 Z m 0,0"
               id="path52689" />
          </g>
        </g>
        <g
           style="fill:#000000;fill-opacity:1"
           id="g42">
          <g
             id="use40"
             transform="translate(17.711,3.244)">
            <path
               style="stroke:none"
               d="m 3.53125,-1.734375 c 0,-0.84375 -0.671875,-1.5 -1.5,-1.5 -0.828125,0 -1.5,0.671875 -1.5,1.484375 0,0.84375 0.6875,1.5 1.5,1.5 0.84375,0 1.5,-0.671875 1.5,-1.484375 z m -1.5,1.140625 C 1.375,-0.59375 0.875,-1.125 0.875,-1.734375 c 0,-0.65625 0.515625,-1.171875 1.15625,-1.171875 0.65625,0 1.15625,0.53125 1.15625,1.15625 0,0.65625 -0.515625,1.15625 -1.15625,1.15625 z m 0,0"
               id="path65" />
          </g>
        </g>
        <g
           style="fill:#000000;fill-opacity:1"
           id="g46">
          <g
             id="use44"
             transform="translate(22.291,6.8600001)">
            <path
               style="stroke:none"
               d="m 0.5625,-3.40625 c 0,2.0625 1.609375,3.625 3.46875,3.625 1.625,0 2.59375,-1.390625 2.59375,-2.546875 C 6.625,-2.421875 6.625,-2.5 6.5,-2.5 6.390625,-2.5 6.390625,-2.4375 6.375,-2.328125 6.296875,-0.90625 5.234375,-0.09375 4.140625,-0.09375 c -0.609375,0 -2.5625,-0.328125 -2.5625,-3.3125 0,-2.96875 1.953125,-3.3125 2.5625,-3.3125 1.078125,0 1.96875,0.90625 2.171875,2.359375 C 6.328125,-4.21875 6.328125,-4.1875 6.46875,-4.1875 6.625,-4.1875 6.625,-4.21875 6.625,-4.421875 V -6.78125 c 0,-0.171875 0,-0.25 -0.109375,-0.25 -0.03125,0 -0.078125,0 -0.15625,0.125 l -0.5,0.734375 C 5.5,-6.53125 4.984375,-7.03125 4.03125,-7.03125 c -1.875,0 -3.46875,1.59375 -3.46875,3.625 z m 0,0"
               id="path69" />
          </g>
        </g>
      </g>
    </g>
    <g
       inkscape:label=""
       transform="translate(370.68906,23.802531)"
       id="g55010">
      <g
         id="g55008"
         transform="matrix(0.352778,0,0,0.352778,-0.143316,0.00158747)">
        <g
           style="fill:#000000;fill-opacity:1"
           id="g55000">
          <g
             id="g54998"
             transform="translate(0,6.8080001)">
            <path
               style="stroke:none"
               d="m 3.734375,-6.125 c 0.0625,-0.234375 0.09375,-0.328125 0.28125,-0.359375 C 4.109375,-6.5 4.421875,-6.5 4.625,-6.5 c 0.703125,0 1.8125,0 1.8125,0.984375 0,0.34375 -0.15625,1.03125 -0.546875,1.421875 -0.265625,0.25 -0.78125,0.578125 -1.6875,0.578125 H 3.09375 Z m 1.4375,2.734375 c 1.015625,-0.21875 2.1875,-0.921875 2.1875,-1.921875 0,-0.859375 -0.890625,-1.5 -2.203125,-1.5 H 2.328125 c -0.203125,0 -0.296875,0 -0.296875,0.203125 C 2.03125,-6.5 2.125,-6.5 2.3125,-6.5 c 0.015625,0 0.203125,0 0.375,0.015625 0.1875,0.03125 0.265625,0.03125 0.265625,0.171875 0,0.03125 0,0.0625 -0.03125,0.1875 l -1.34375,5.34375 C 1.484375,-0.390625 1.46875,-0.3125 0.671875,-0.3125 0.5,-0.3125 0.40625,-0.3125 0.40625,-0.109375 0.40625,0 0.53125,0 0.546875,0 c 0.28125,0 0.984375,-0.03125 1.25,-0.03125 0.28125,0 1,0.03125 1.28125,0.03125 0.078125,0 0.1875,0 0.1875,-0.203125 0,-0.109375 -0.078125,-0.109375 -0.28125,-0.109375 -0.359375,0 -0.640625,0 -0.640625,-0.171875 0,-0.0625 0.015625,-0.109375 0.03125,-0.171875 l 0.65625,-2.640625 h 1.1875 c 0.90625,0 1.078125,0.5625 1.078125,0.90625 0,0.140625 -0.078125,0.453125 -0.140625,0.6875 C 5.09375,-1.421875 5,-1.0625 5,-0.859375 5,0.21875 6.203125,0.21875 6.328125,0.21875 c 0.84375,0 1.203125,-1 1.203125,-1.140625 0,-0.125 -0.109375,-0.125 -0.125,-0.125 -0.09375,0 -0.109375,0.0625 -0.125,0.140625 C 7.03125,-0.171875 6.59375,0 6.375,0 6.046875,0 5.96875,-0.21875 5.96875,-0.609375 c 0,-0.3125 0.0625,-0.8125 0.109375,-1.140625 0.015625,-0.140625 0.03125,-0.328125 0.03125,-0.46875 0,-0.765625 -0.671875,-1.078125 -0.9375,-1.171875 z m 0,0"
               id="path54996" />
          </g>
        </g>
        <g
           style="fill:#000000;fill-opacity:1"
           id="g55006">
          <g
             id="g55004"
             transform="translate(7.5650001,8.302)">
            <path
               style="stroke:none"
               d="m 2.328125,-4.4375 c 0,-0.1875 0,-0.1875 -0.203125,-0.1875 -0.453125,0.4375 -1.078125,0.4375 -1.359375,0.4375 v 0.25 c 0.15625,0 0.625,0 1,-0.1875 v 3.546875 c 0,0.234375 0,0.328125 -0.6875,0.328125 H 0.8125 V 0 c 0.125,0 0.984375,-0.03125 1.234375,-0.03125 0.21875,0 1.09375,0.03125 1.25,0.03125 V -0.25 H 3.03125 c -0.703125,0 -0.703125,-0.09375 -0.703125,-0.328125 z m 0,0"
               id="path55002" />
          </g>
        </g>
      </g>
    </g>
  </g>
</svg>
