<?xml version="1.0" encoding="UTF-8" standalone="no"?>
<!-- Created with Inkscape (http://www.inkscape.org/) -->

<svg
   inkscape:version="1.2 (dc2aedaf03, 2022-05-15)"
   sodipodi:docname="base.svg"
   id="svg5"
   version="1.1"
   viewBox="0 0 72.242827 45.985137"
   height="173.80209"
   width="273.04376"
   xmlns:inkscape="http://www.inkscape.org/namespaces/inkscape"
   xmlns:sodipodi="http://sodipodi.sourceforge.net/DTD/sodipodi-0.dtd"
   xmlns="http://www.w3.org/2000/svg"
   xmlns:svg="http://www.w3.org/2000/svg">
  <sodipodi:namedview
     id="namedview7"
     pagecolor="#ffffff"
     bordercolor="#666666"
     borderopacity="1.0"
     inkscape:showpageshadow="false"
     inkscape:pageopacity="0.0"
     inkscape:pagecheckerboard="false"
     inkscape:deskcolor="#d1d1d1"
     inkscape:document-units="px"
     showgrid="false"
     showborder="false"
     borderlayer="false"
     shape-rendering="auto"
     inkscape:zoom="1.4142136"
     inkscape:cx="731.8555"
     inkscape:cy="905.45021"
     inkscape:window-width="1920"
     inkscape:window-height="1050"
     inkscape:window-x="0"
     inkscape:window-y="18"
     inkscape:window-maximized="0"
     inkscape:current-layer="layer1"
     showguides="true"
     inkscape:lockguides="false">
    <inkscape:grid
       type="xygrid"
       id="grid9"
       spacingx="1.0583333"
       spacingy="1.0583333"
       empspacing="4"
       dotted="false"
       snapvisiblegridlinesonly="false"
       originx="0"
       originy="0" />
    <sodipodi:guide
       position="-173.42279,271.06564"
       orientation="0,1920"
       id="guide280"
       inkscape:locked="false" />
    <sodipodi:guide
       position="334.57721,271.06564"
       orientation="1080,0"
       id="guide282"
       inkscape:locked="false" />
    <sodipodi:guide
       position="334.57721,-14.684357"
       orientation="0,-1920"
       id="guide284"
       inkscape:locked="false" />
    <sodipodi:guide
       position="-173.42279,-14.684357"
       orientation="-1080,0"
       id="guide286"
       inkscape:locked="false" />
    <sodipodi:guide
       position="-173.42279,271.06564"
       orientation="0,1920"
       id="guide288"
       inkscape:locked="false" />
    <sodipodi:guide
       position="334.57721,271.06564"
       orientation="1080,0"
       id="guide290"
       inkscape:locked="false" />
    <sodipodi:guide
       position="334.57721,-14.684357"
       orientation="0,-1920"
       id="guide292"
       inkscape:locked="false" />
    <sodipodi:guide
       position="-173.42279,-14.684357"
       orientation="-1080,0"
       id="guide294"
       inkscape:locked="false" />
    <sodipodi:guide
       position="-173.42279,271.06564"
       orientation="0,1920"
       id="guide296"
       inkscape:locked="false" />
    <sodipodi:guide
       position="334.57721,271.06564"
       orientation="1080,0"
       id="guide298"
       inkscape:locked="false" />
    <sodipodi:guide
       position="334.57721,-14.684357"
       orientation="0,-1920"
       id="guide300"
       inkscape:locked="false" />
    <sodipodi:guide
       position="-173.42279,-14.684357"
       orientation="-1080,0"
       id="guide302"
       inkscape:locked="false" />
    <sodipodi:guide
       position="-173.42279,271.06564"
       orientation="0,1920"
       id="guide304"
       inkscape:locked="false" />
    <sodipodi:guide
       position="334.57721,271.06564"
       orientation="1080,0"
       id="guide306"
       inkscape:locked="false" />
    <sodipodi:guide
       position="334.57721,-14.684357"
       orientation="0,-1920"
       id="guide308"
       inkscape:locked="false" />
    <sodipodi:guide
       position="-173.42279,-14.684357"
       orientation="-1080,0"
       id="guide310"
       inkscape:locked="false" />
    <sodipodi:guide
       position="-173.42279,271.06564"
       orientation="0,1920"
       id="guide157"
       inkscape:locked="false" />
    <sodipodi:guide
       position="334.57721,271.06564"
       orientation="1080,0"
       id="guide159"
       inkscape:locked="false" />
    <sodipodi:guide
       position="334.57721,-14.684357"
       orientation="0,-1920"
       id="guide161"
       inkscape:locked="false" />
    <sodipodi:guide
       position="-173.42279,-14.684357"
       orientation="-1080,0"
       id="guide163"
       inkscape:locked="false" />
    <sodipodi:guide
       position="334.57721,271.06564"
       orientation="1080,0"
       id="guide167"
       inkscape:locked="false" />
    <sodipodi:guide
       position="334.57721,-14.684357"
       orientation="0,-1920"
       id="guide169"
       inkscape:locked="false" />
    <sodipodi:guide
       position="-88.756128,271.06564"
       orientation="1,0"
       id="guide3109"
       inkscape:locked="false" />
    <sodipodi:guide
       position="-173.42279,220.26564"
       orientation="0,-1"
       id="guide7523"
       inkscape:locked="false" />
    <sodipodi:guide
       position="-4.0894622,169.46564"
       orientation="1,0"
       id="guide12549"
       inkscape:locked="false" />
    <sodipodi:guide
       position="80.577197,168.40731"
       orientation="1,0"
       id="guide21711"
       inkscape:locked="false" />
    <sodipodi:guide
       position="165.24386,271.06564"
       orientation="1,0"
       id="guide32627"
       inkscape:locked="false" />
    <sodipodi:guide
       position="249.91053,169.46564"
       orientation="1,0"
       id="guide49129"
       inkscape:locked="false" />
    <sodipodi:guide
       position="-173.42279,169.46564"
       orientation="0,-1"
       id="guide103157"
       inkscape:locked="false" />
    <sodipodi:guide
       position="-173.42279,110.19898"
       orientation="0,-1"
       id="guide200474"
       inkscape:locked="false" />
    <sodipodi:guide
       position="-173.42279,50.932314"
       orientation="0,-1"
       id="guide418319"
       inkscape:locked="false" />
    <sodipodi:guide
       position="249.91053,-8.3343577"
       orientation="0,-1"
       id="guide88349"
       inkscape:locked="false" />
  </sodipodi:namedview>
  <defs
     id="defs2">
    <marker
       style="overflow:visible"
       id="marker191091-1"
       refX="4"
       refY="0"
       orient="auto-start-reverse"
       inkscape:stockid="TriangleStart"
       markerWidth="4"
       markerHeight="4"
       viewBox="0 0 5.3244081 6.1553851"
       inkscape:isstock="true"
       inkscape:collect="always"
       preserveAspectRatio="xMidYMid">
      <path
         transform="scale(0.5)"
         style="fill:context-stroke;fill-rule:evenodd;stroke:context-stroke;stroke-width:1pt"
         d="M 5.77,0 -2.88,5 V -5 Z"
         id="path191089-1" />
    </marker>
    <marker
       style="overflow:visible"
       id="TriangleStart-5"
       refX="4"
       refY="0"
       orient="auto-start-reverse"
       inkscape:stockid="TriangleStart"
       markerWidth="4"
       markerHeight="4"
       viewBox="0 0 5.3244081 6.1553851"
       inkscape:isstock="true"
       inkscape:collect="always"
       preserveAspectRatio="xMidYMid">
      <path
         transform="scale(0.5)"
         style="fill:context-stroke;fill-rule:evenodd;stroke:context-stroke;stroke-width:1pt"
         d="M 5.77,0 -2.88,5 V -5 Z"
         id="path135-9" />
    </marker>
    <marker
       style="overflow:visible"
       id="TriangleStart-5-4"
       refX="4"
       refY="0"
       orient="auto-start-reverse"
       inkscape:stockid="TriangleStart"
       markerWidth="4"
       markerHeight="4"
       viewBox="0 0 5.3244081 6.1553851"
       inkscape:isstock="true"
       inkscape:collect="always"
       preserveAspectRatio="xMidYMid">
      <path
         transform="scale(0.5)"
         style="fill:context-stroke;fill-rule:evenodd;stroke:context-stroke;stroke-width:1pt"
         d="M 5.77,0 -2.88,5 V -5 Z"
         id="path135-9-5" />
    </marker>
  </defs>
  <g
     inkscape:label="Capa 1"
     inkscape:groupmode="layer"
     id="layer1"
     transform="translate(-173.42279,-225.0805)">
    <g
       inkscape:label=""
       transform="translate(178.39983,265.84563)"
       id="g3172"
       inkscape:export-filename="g16.png"
       inkscape:export-xdpi="96"
       inkscape:export-ydpi="96">
      <g
         id="g3170"
         transform="matrix(0.352778,0,0,0.352778,-0.0937066,0.0737747)">
        <g
           style="fill:#000000;fill-opacity:1"
           id="g3168">
          <g
             id="g3162"
             transform="translate(0,4.494)">
            <path
               style="stroke:none"
               d="m 3.6875,-1.140625 v -0.25 H 2.90625 V -4.5 c 0,-0.140625 0,-0.203125 -0.140625,-0.203125 -0.09375,0 -0.125,0 -0.1875,0.109375 l -2.3125,3.203125 v 0.25 h 2.0625 v 0.5625 c 0,0.25 0,0.328125 -0.578125,0.328125 H 1.5625 V 0 C 1.921875,-0.015625 2.359375,-0.03125 2.609375,-0.03125 2.875,-0.03125 3.3125,-0.015625 3.671875,0 v -0.25 h -0.1875 C 2.90625,-0.25 2.90625,-0.328125 2.90625,-0.578125 v -0.5625 z M 2.375,-3.9375 v 2.546875 H 0.53125 Z m 0,0"
               id="path3160" />
          </g>
          <g
             id="g3166"
             transform="translate(3.9715791,4.494)">
            <path
               style="stroke:none"
               d="M 3.59375,-2.21875 C 3.59375,-2.984375 3.5,-3.546875 3.1875,-4.03125 2.96875,-4.34375 2.53125,-4.625 1.984375,-4.625 c -1.625,0 -1.625,1.90625 -1.625,2.40625 0,0.5 0,2.359375 1.625,2.359375 1.609375,0 1.609375,-1.859375 1.609375,-2.359375 z M 1.984375,-0.0625 c -0.328125,0 -0.75,-0.1875 -0.890625,-0.75 C 1,-1.21875 1,-1.796875 1,-2.3125 1,-2.828125 1,-3.359375 1.09375,-3.734375 1.25,-4.28125 1.6875,-4.4375 1.984375,-4.4375 c 0.375,0 0.734375,0.234375 0.859375,0.640625 0.109375,0.375 0.125,0.875 0.125,1.484375 0,0.515625 0,1.03125 -0.09375,1.46875 -0.140625,0.640625 -0.609375,0.78125 -0.890625,0.78125 z m 0,0"
               id="path3164" />
          </g>
        </g>
      </g>
    </g>
    <rect
       style="fill:#ffffff;fill-opacity:1;stroke:#000000;stroke-width:0.105833;stroke-linecap:round;stroke-linejoin:round;stroke-dasharray:none;stroke-dashoffset:0;stroke-opacity:1;paint-order:stroke markers fill"
       id="rect3174"
       width="63.5"
       height="42.333332"
       x="182.03334"
       y="228.60004"
       inkscape:export-filename="g11.svg"
       inkscape:export-xdpi="96"
       inkscape:export-ydpi="96" />
    <path
       style="fill:none;stroke:#999999;stroke-width:0.15875;stroke-linecap:round;stroke-linejoin:round;stroke-miterlimit:4;stroke-dasharray:0.15875, 0.47625;stroke-dashoffset:0;stroke-opacity:1;paint-order:stroke markers fill"
       d="m 182.03333,262.46668 h 63.5"
       id="path3176"
       sodipodi:nodetypes="cc" />
    <path
       style="fill:none;stroke:#b3b3b3;stroke-width:0.15875;stroke-linecap:round;stroke-linejoin:round;stroke-miterlimit:4;stroke-dasharray:0.15875, 0.47625;stroke-dashoffset:0;stroke-opacity:1"
       d="m 183.09167,267.75834 4.33458,-17.99167 h 20.89381 l 14.98827,-20.10833"
       id="path3178"
       sodipodi:nodetypes="cccc" />
    <path
       style="fill:none;stroke:#999999;stroke-width:0.15875;stroke-linecap:round;stroke-linejoin:round;stroke-miterlimit:4;stroke-dasharray:0.15875, 0.47625;stroke-dashoffset:0;stroke-opacity:1;paint-order:stroke markers fill"
       d="m 182.03333,258.23334 h 63.5"
       id="path3180"
       sodipodi:nodetypes="cc" />
    <path
       style="fill:none;stroke:#b3b3b3;stroke-width:0.15875;stroke-linecap:round;stroke-linejoin:round;stroke-miterlimit:4;stroke-dasharray:0.15875, 0.47625;stroke-dashoffset:0;stroke-opacity:1"
       d="m 184.15,267.75834 2.24121,-5.29167 h 43.15288 L 244.475,239.18334"
       id="path3182"
       sodipodi:nodetypes="cccc" />
    <path
       style="fill:none;stroke:#999999;stroke-width:0.15875;stroke-linecap:round;stroke-linejoin:round;stroke-miterlimit:4;stroke-dasharray:0.15875, 0.47625;stroke-dashoffset:0;stroke-opacity:1;paint-order:stroke markers fill"
       d="m 182.03333,266.70002 h 63.5"
       id="path3184"
       sodipodi:nodetypes="cc" />
    <path
       style="fill:none;stroke:#999999;stroke-width:0.15875;stroke-linecap:round;stroke-linejoin:round;stroke-miterlimit:4;stroke-dasharray:0.15875, 0.47625;stroke-dashoffset:0;stroke-opacity:1;paint-order:stroke markers fill"
       d="m 182.03333,237.06667 h 63.5"
       id="path3186"
       sodipodi:nodetypes="cc" />
    <g
       inkscape:label=""
       transform="translate(179.15323,225.08049)"
       id="g3218">
      <g
         id="g3216"
         transform="matrix(0.352778,0,0,0.352778,-0.071658,-0.0029105)">
        <g
           style="fill:#000000;fill-opacity:1"
           id="g3192">
          <g
             id="g3190"
             transform="translate(0,5.9770002)">
            <path
               style="stroke:none"
               d="M 3.609375,-4.828125 C 3.671875,-5.109375 3.6875,-5.125 4.015625,-5.125 h 0.59375 c 0.828125,0 0.921875,0.265625 0.921875,0.65625 0,0.203125 -0.046875,0.546875 -0.046875,0.59375 -0.015625,0.078125 -0.03125,0.15625 -0.03125,0.171875 0,0.09375 0.078125,0.125 0.125,0.125 0.09375,0 0.125,-0.046875 0.140625,-0.203125 l 0.21875,-1.5 c 0,-0.109375 -0.09375,-0.109375 -0.234375,-0.109375 H 1 c -0.1875,0 -0.21875,0 -0.265625,0.171875 L 0.25,-3.84375 c -0.015625,0.046875 -0.046875,0.109375 -0.046875,0.15625 0,0.0625 0.0625,0.109375 0.125,0.109375 0.09375,0 0.109375,-0.046875 0.15625,-0.171875 C 0.9375,-5.03125 1.15625,-5.125 2.375,-5.125 h 0.3125 c 0.234375,0 0.25,0.015625 0.25,0.078125 0,0.015625 -0.03125,0.171875 -0.046875,0.203125 l -1.046875,4.1875 c -0.078125,0.3125 -0.09375,0.390625 -0.921875,0.390625 -0.265625,0 -0.34375,0 -0.34375,0.15625 0,0 0,0.109375 0.140625,0.109375 0.21875,0 0.765625,-0.03125 0.984375,-0.03125 H 2.375 c 0.21875,0 0.78125,0.03125 1,0.03125 0.0625,0 0.1875,0 0.1875,-0.15625 0,-0.109375 -0.09375,-0.109375 -0.296875,-0.109375 -0.203125,0 -0.265625,0 -0.46875,-0.015625 -0.25,-0.015625 -0.28125,-0.046875 -0.28125,-0.15625 0,-0.03125 0,-0.0625 0.03125,-0.140625 z m 0,0"
               id="path3188" />
          </g>
        </g>
        <g
           style="fill:#000000;fill-opacity:1"
           id="g3198">
          <g
             id="g3196"
             transform="translate(6.1059999,5.9770002)">
            <path
               style="stroke:none"
               d="M 2.15625,1.984375 V 1.625 H 1.359375 V -5.609375 H 2.15625 V -5.96875 H 0.984375 v 7.953125 z m 0,0"
               id="path3194" />
          </g>
        </g>
        <g
           style="fill:#000000;fill-opacity:1"
           id="g3204">
          <g
             id="g3202"
             transform="translate(8.4589996,3.165)">
            <path
               style="stroke:none"
               d="m 3.265625,-1.5 c 0,-0.75 -0.609375,-1.359375 -1.359375,-1.359375 -0.734375,0 -1.34375,0.609375 -1.34375,1.359375 0,0.765625 0.609375,1.359375 1.34375,1.359375 0.75,0 1.359375,-0.59375 1.359375,-1.359375 z M 1.90625,-0.453125 C 1.328125,-0.453125 0.875,-0.90625 0.875,-1.5 c 0,-0.578125 0.453125,-1.046875 1.03125,-1.046875 0.578125,0 1.046875,0.46875 1.046875,1.046875 0,0.59375 -0.46875,1.046875 -1.046875,1.046875 z m 0,0"
               id="path3200" />
          </g>
        </g>
        <g
           style="fill:#000000;fill-opacity:1"
           id="g3214">
          <g
             id="g3208"
             transform="translate(12.776,5.9770002)">
            <path
               style="stroke:none"
               d="m 5.640625,-5.40625 c 0,-0.125 0,-0.203125 -0.109375,-0.203125 -0.0625,0 -0.0625,0 -0.140625,0.109375 l -0.40625,0.59375 c -0.28125,-0.3125 -0.8125,-0.703125 -1.578125,-0.703125 -1.59375,0 -2.9375,1.28125 -2.9375,2.890625 0,1.609375 1.328125,2.890625 2.953125,2.890625 1.328125,0 2.21875,-1.0625 2.21875,-2.03125 0,-0.078125 0,-0.15625 -0.140625,-0.15625 -0.078125,0 -0.109375,0.046875 -0.109375,0.125 -0.0625,1.21875 -1.0625,1.796875 -1.90625,1.796875 -0.671875,0 -2.1875,-0.421875 -2.1875,-2.625 0,-2.15625 1.4375,-2.625 2.1875,-2.625 0.75,0 1.671875,0.53125 1.890625,1.90625 0,0.0625 0.015625,0.109375 0.125,0.109375 0.140625,0 0.140625,-0.046875 0.140625,-0.203125 z m 0,0"
               id="path3206" />
          </g>
          <g
             id="g3212"
             transform="translate(18.892256,5.9770002)">
            <path
               style="stroke:none"
               d="M 1.359375,-5.96875 H 0.1875 v 0.359375 H 0.984375 V 1.625 H 0.1875 v 0.359375 h 1.171875 z m 0,0"
               id="path3210" />
          </g>
        </g>
      </g>
    </g>
    <path
       style="fill:none;stroke:#ff6600;stroke-width:0.264583;stroke-linecap:butt;stroke-linejoin:miter;stroke-miterlimit:4;stroke-dasharray:none;stroke-opacity:1"
       d="m 186.26665,266.7 c 0.28754,-9.05744 0.32257,-27.55654 7.40834,-25.4 7.54787,2.15655 32.71409,22.9662 47.625,25.4"
       id="path3220"
       sodipodi:nodetypes="ccc" />
    <path
       style="fill:none;stroke:#999999;stroke-width:0.15875;stroke-linecap:round;stroke-linejoin:round;stroke-miterlimit:4;stroke-dasharray:0.15875, 0.47625;stroke-dashoffset:0;stroke-opacity:1;paint-order:stroke markers fill"
       d="m 182.03333,249.76667 h 63.5"
       id="path3222"
       sodipodi:nodetypes="cc" />
    <path
       style="fill:none;fill-opacity:1;stroke:#0000ff;stroke-width:0.396875;stroke-linecap:round;stroke-linejoin:round;stroke-dasharray:none;stroke-dashoffset:0;stroke-opacity:1;marker-end:url(#marker191091-1);paint-order:stroke markers fill"
       d="m 184.36654,262.46668 3.05971,-12.7 h 20.89381 l 9.46628,-12.7"
       id="path3224"
       sodipodi:nodetypes="cccc" />
    <path
       style="fill:none;fill-opacity:1;stroke:#0000ff;stroke-width:0.396875;stroke-linecap:round;stroke-linejoin:round;stroke-dasharray:none;stroke-dashoffset:0;stroke-opacity:1;marker-end:url(#TriangleStart-5);paint-order:stroke markers fill"
       d="m 217.78634,237.06667 2.32755,25.40001"
       id="path3226"
       sodipodi:nodetypes="cc" />
    <path
       style="fill:none;fill-opacity:1;stroke:#0000ff;stroke-width:0.396875;stroke-linecap:round;stroke-linejoin:round;stroke-dasharray:none;stroke-dashoffset:0;stroke-opacity:1;marker-end:url(#TriangleStart-5-4);paint-order:stroke markers fill"
       d="m 186.39121,262.46667 -2.02467,10e-6"
       id="path3228"
       sodipodi:nodetypes="cc" />
    <path
       style="fill:none;stroke:#000000;stroke-width:0.264583;stroke-linecap:round;stroke-linejoin:round;stroke-miterlimit:4;stroke-dasharray:none;stroke-opacity:1"
       d="m 182.03333,228.6 v 42.33333 h 63.5"
       id="path3230"
       sodipodi:nodetypes="ccc" />
    <path
       style="fill:none;fill-opacity:1;stroke:#0000ff;stroke-width:0.396875;stroke-linecap:round;stroke-linejoin:round;stroke-dasharray:none;stroke-dashoffset:0;stroke-opacity:1;marker-end:url(#TriangleStart-5);paint-order:stroke markers fill"
       d="M 220.11389,262.46668 H 186.39121"
       id="path3232"
       sodipodi:nodetypes="cc" />
    <g
       inkscape:label=""
       transform="translate(176.99874,235.8981)"
       id="g3250">
      <g
         id="g3248"
         transform="matrix(0.352778,0,0,0.352778,-0.0937066,0.0737747)">
        <g
           style="fill:#000000;fill-opacity:1"
           id="g3246">
          <g
             id="g3236"
             transform="translate(0,4.494)">
            <path
               style="stroke:none"
               d="m 3.6875,-1.140625 v -0.25 H 2.90625 V -4.5 c 0,-0.140625 0,-0.203125 -0.140625,-0.203125 -0.09375,0 -0.125,0 -0.1875,0.109375 l -2.3125,3.203125 v 0.25 h 2.0625 v 0.5625 c 0,0.25 0,0.328125 -0.578125,0.328125 H 1.5625 V 0 C 1.921875,-0.015625 2.359375,-0.03125 2.609375,-0.03125 2.875,-0.03125 3.3125,-0.015625 3.671875,0 v -0.25 h -0.1875 C 2.90625,-0.25 2.90625,-0.328125 2.90625,-0.578125 v -0.5625 z M 2.375,-3.9375 v 2.546875 H 0.53125 Z m 0,0"
               id="path3234" />
          </g>
          <g
             id="g3240"
             transform="translate(3.9715791,4.494)">
            <path
               style="stroke:none"
               d="M 3.59375,-2.21875 C 3.59375,-2.984375 3.5,-3.546875 3.1875,-4.03125 2.96875,-4.34375 2.53125,-4.625 1.984375,-4.625 c -1.625,0 -1.625,1.90625 -1.625,2.40625 0,0.5 0,2.359375 1.625,2.359375 1.609375,0 1.609375,-1.859375 1.609375,-2.359375 z M 1.984375,-0.0625 c -0.328125,0 -0.75,-0.1875 -0.890625,-0.75 C 1,-1.21875 1,-1.796875 1,-2.3125 1,-2.828125 1,-3.359375 1.09375,-3.734375 1.25,-4.28125 1.6875,-4.4375 1.984375,-4.4375 c 0.375,0 0.734375,0.234375 0.859375,0.640625 0.109375,0.375 0.125,0.875 0.125,1.484375 0,0.515625 0,1.03125 -0.09375,1.46875 -0.140625,0.640625 -0.609375,0.78125 -0.890625,0.78125 z m 0,0"
               id="path3238" />
          </g>
          <g
             id="g3244"
             transform="translate(7.9431581,4.494)">
            <path
               style="stroke:none"
               d="M 3.59375,-2.21875 C 3.59375,-2.984375 3.5,-3.546875 3.1875,-4.03125 2.96875,-4.34375 2.53125,-4.625 1.984375,-4.625 c -1.625,0 -1.625,1.90625 -1.625,2.40625 0,0.5 0,2.359375 1.625,2.359375 1.609375,0 1.609375,-1.859375 1.609375,-2.359375 z M 1.984375,-0.0625 c -0.328125,0 -0.75,-0.1875 -0.890625,-0.75 C 1,-1.21875 1,-1.796875 1,-2.3125 1,-2.828125 1,-3.359375 1.09375,-3.734375 1.25,-4.28125 1.6875,-4.4375 1.984375,-4.4375 c 0.375,0 0.734375,0.234375 0.859375,0.640625 0.109375,0.375 0.125,0.875 0.125,1.484375 0,0.515625 0,1.03125 -0.09375,1.46875 -0.140625,0.640625 -0.609375,0.78125 -0.890625,0.78125 z m 0,0"
               id="path3242" />
          </g>
        </g>
      </g>
    </g>
    <circle
       style="fill:#ffffff;fill-opacity:1;stroke:#0000ff;stroke-width:0.529167;stroke-linecap:round;stroke-linejoin:round;stroke-dasharray:none;stroke-dashoffset:0;stroke-opacity:1;paint-order:stroke markers fill"
       id="circle3252"
       cx="220.11389"
       cy="262.46671"
       r="0.46229276" />
    <circle
       style="fill:#ffffff;fill-opacity:1;stroke:#0000ff;stroke-width:0.529167;stroke-linecap:round;stroke-linejoin:round;stroke-dasharray:none;stroke-dashoffset:0;stroke-opacity:1;paint-order:stroke markers fill"
       id="circle3254"
       cx="184.35979"
       cy="262.46671"
       r="0.46229276" />
    <circle
       style="fill:#ffffff;fill-opacity:1;stroke:#0000ff;stroke-width:0.529167;stroke-linecap:round;stroke-linejoin:round;stroke-dasharray:none;stroke-dashoffset:0;stroke-opacity:1;paint-order:stroke markers fill"
       id="circle3256"
       cx="186.39122"
       cy="262.46671"
       r="0.46229276" />
    <circle
       style="fill:#ffffff;fill-opacity:1;stroke:#0000ff;stroke-width:0.529167;stroke-linecap:round;stroke-linejoin:round;stroke-dasharray:none;stroke-dashoffset:0;stroke-opacity:1;paint-order:stroke markers fill"
       id="circle3258"
       cx="217.78635"
       cy="237.06668"
       r="0.46229276" />
    <g
       inkscape:label=""
       transform="translate(173.42279,248.91229)"
       id="g3292">
      <g
         id="g3290"
         transform="matrix(0.352778,0,0,0.352778,-0.15434,0.0737747)">
        <g
           style="fill:#000000;fill-opacity:1"
           id="g3272">
          <g
             id="g3262"
             transform="translate(0,4.494)">
            <path
               style="stroke:none"
               d="M 3.515625,-1.265625 H 3.28125 c -0.015625,0.15625 -0.09375,0.5625 -0.1875,0.625 C 3.046875,-0.59375 2.515625,-0.59375 2.40625,-0.59375 H 1.125 c 0.734375,-0.640625 0.984375,-0.84375 1.390625,-1.171875 0.515625,-0.40625 1,-0.84375 1,-1.5 0,-0.84375 -0.734375,-1.359375 -1.625,-1.359375 -0.859375,0 -1.453125,0.609375 -1.453125,1.25 0,0.34375 0.296875,0.390625 0.375,0.390625 0.15625,0 0.359375,-0.125 0.359375,-0.375 0,-0.125 -0.046875,-0.375 -0.40625,-0.375 C 0.984375,-4.21875 1.453125,-4.375 1.78125,-4.375 c 0.703125,0 1.0625,0.546875 1.0625,1.109375 0,0.609375 -0.4375,1.078125 -0.65625,1.328125 L 0.515625,-0.265625 C 0.4375,-0.203125 0.4375,-0.1875 0.4375,0 h 2.875 z m 0,0"
               id="path3260" />
          </g>
          <g
             id="g3266"
             transform="translate(3.9715791,4.494)">
            <path
               style="stroke:none"
               d="m 1.078125,-3.890625 c 0.359375,0.09375 0.5625,0.09375 0.671875,0.09375 0.921875,0 1.46875,-0.625 1.46875,-0.734375 0,-0.078125 -0.046875,-0.09375 -0.078125,-0.09375 -0.015625,0 -0.03125,0 -0.0625,0.015625 -0.171875,0.0625 -0.53125,0.203125 -1.046875,0.203125 -0.203125,0 -0.5625,-0.015625 -1.015625,-0.1875 C 0.9375,-4.625 0.921875,-4.625 0.921875,-4.625 c -0.09375,0 -0.09375,0.078125 -0.09375,0.1875 v 2.046875 c 0,0.125 0,0.203125 0.109375,0.203125 0.0625,0 0.078125,0 0.140625,-0.09375 0.296875,-0.375 0.734375,-0.4375 0.96875,-0.4375 0.421875,0 0.609375,0.328125 0.640625,0.390625 0.125,0.234375 0.171875,0.5 0.171875,0.90625 0,0.203125 0,0.609375 -0.21875,0.921875 -0.171875,0.25 -0.46875,0.421875 -0.8125,0.421875 -0.453125,0 -0.921875,-0.25 -1.09375,-0.71875 0.265625,0.015625 0.40625,-0.15625 0.40625,-0.34375 0,-0.296875 -0.265625,-0.34375 -0.359375,-0.34375 0,0 -0.34375,0 -0.34375,0.375 0,0.625 0.578125,1.25 1.40625,1.25 0.890625,0 1.671875,-0.65625 1.671875,-1.546875 0,-0.78125 -0.59375,-1.5 -1.453125,-1.5 -0.3125,0 -0.671875,0.0625 -0.984375,0.328125 z m 0,0"
               id="path3264" />
          </g>
          <g
             id="g3270"
             transform="translate(7.9431581,4.494)">
            <path
               style="stroke:none"
               d="M 3.59375,-2.21875 C 3.59375,-2.984375 3.5,-3.546875 3.1875,-4.03125 2.96875,-4.34375 2.53125,-4.625 1.984375,-4.625 c -1.625,0 -1.625,1.90625 -1.625,2.40625 0,0.5 0,2.359375 1.625,2.359375 1.609375,0 1.609375,-1.859375 1.609375,-2.359375 z M 1.984375,-0.0625 c -0.328125,0 -0.75,-0.1875 -0.890625,-0.75 C 1,-1.21875 1,-1.796875 1,-2.3125 1,-2.828125 1,-3.359375 1.09375,-3.734375 1.25,-4.28125 1.6875,-4.4375 1.984375,-4.4375 c 0.375,0 0.734375,0.234375 0.859375,0.640625 0.109375,0.375 0.125,0.875 0.125,1.484375 0,0.515625 0,1.03125 -0.09375,1.46875 -0.140625,0.640625 -0.609375,0.78125 -0.890625,0.78125 z m 0,0"
               id="path3268" />
          </g>
        </g>
        <g
           style="fill:#000000;fill-opacity:1"
           id="g3278">
          <g
             id="g3276"
             transform="translate(11.914,4.494)">
            <path
               style="stroke:none"
               d="m 1.578125,-0.390625 c 0,-0.25 -0.203125,-0.40625 -0.390625,-0.40625 -0.234375,0 -0.40625,0.1875 -0.40625,0.390625 0,0.25 0.203125,0.40625 0.390625,0.40625 0.234375,0 0.40625,-0.1875 0.40625,-0.390625 z m 0,0"
               id="path3274" />
          </g>
        </g>
        <g
           style="fill:#000000;fill-opacity:1"
           id="g3288">
          <g
             id="g3282"
             transform="translate(14.28,4.494)">
            <path
               style="stroke:none"
               d="m 3.6875,-1.140625 v -0.25 H 2.90625 V -4.5 c 0,-0.140625 0,-0.203125 -0.140625,-0.203125 -0.09375,0 -0.125,0 -0.1875,0.109375 l -2.3125,3.203125 v 0.25 h 2.0625 v 0.5625 c 0,0.25 0,0.328125 -0.578125,0.328125 H 1.5625 V 0 C 1.921875,-0.015625 2.359375,-0.03125 2.609375,-0.03125 2.875,-0.03125 3.3125,-0.015625 3.671875,0 v -0.25 h -0.1875 C 2.90625,-0.25 2.90625,-0.328125 2.90625,-0.578125 v -0.5625 z M 2.375,-3.9375 v 2.546875 H 0.53125 Z m 0,0"
               id="path3280" />
          </g>
          <g
             id="g3286"
             transform="translate(18.251579,4.494)">
            <path
               style="stroke:none"
               d="M 3.59375,-2.21875 C 3.59375,-2.984375 3.5,-3.546875 3.1875,-4.03125 2.96875,-4.34375 2.53125,-4.625 1.984375,-4.625 c -1.625,0 -1.625,1.90625 -1.625,2.40625 0,0.5 0,2.359375 1.625,2.359375 1.609375,0 1.609375,-1.859375 1.609375,-2.359375 z M 1.984375,-0.0625 c -0.328125,0 -0.75,-0.1875 -0.890625,-0.75 C 1,-1.21875 1,-1.796875 1,-2.3125 1,-2.828125 1,-3.359375 1.09375,-3.734375 1.25,-4.28125 1.6875,-4.4375 1.984375,-4.4375 c 0.375,0 0.734375,0.234375 0.859375,0.640625 0.109375,0.375 0.125,0.875 0.125,1.484375 0,0.515625 0,1.03125 -0.09375,1.46875 -0.140625,0.640625 -0.609375,0.78125 -0.890625,0.78125 z m 0,0"
               id="path3284" />
          </g>
        </g>
      </g>
    </g>
    <g
       inkscape:label=""
       transform="rotate(-57.357845,344.24552,-91.392062)"
       id="g3379">
      <g
         id="g3377"
         transform="matrix(0.352778,0,0,0.352778,-0.270095,-0.00396876)">
        <g
           style="fill:#000000;fill-opacity:1"
           id="g3351">
          <g
             id="g3340"
             transform="translate(0,5.23)">
            <path
               style="stroke:none"
               d="m 2.328125,-4.4375 c 0,-0.1875 0,-0.1875 -0.203125,-0.1875 -0.453125,0.4375 -1.078125,0.4375 -1.359375,0.4375 v 0.25 c 0.15625,0 0.625,0 1,-0.1875 v 3.546875 c 0,0.234375 0,0.328125 -0.6875,0.328125 H 0.8125 V 0 c 0.125,0 0.984375,-0.03125 1.234375,-0.03125 0.21875,0 1.09375,0.03125 1.25,0.03125 V -0.25 H 3.03125 c -0.703125,0 -0.703125,-0.09375 -0.703125,-0.328125 z m 0,0"
               id="path3338" />
          </g>
          <g
             id="g3344"
             transform="translate(3.9715791,5.23)">
            <path
               style="stroke:none"
               d="M 3.59375,-2.21875 C 3.59375,-2.984375 3.5,-3.546875 3.1875,-4.03125 2.96875,-4.34375 2.53125,-4.625 1.984375,-4.625 c -1.625,0 -1.625,1.90625 -1.625,2.40625 0,0.5 0,2.359375 1.625,2.359375 1.609375,0 1.609375,-1.859375 1.609375,-2.359375 z M 1.984375,-0.0625 c -0.328125,0 -0.75,-0.1875 -0.890625,-0.75 C 1,-1.21875 1,-1.796875 1,-2.3125 1,-2.828125 1,-3.359375 1.09375,-3.734375 1.25,-4.28125 1.6875,-4.4375 1.984375,-4.4375 c 0.375,0 0.734375,0.234375 0.859375,0.640625 0.109375,0.375 0.125,0.875 0.125,1.484375 0,0.515625 0,1.03125 -0.09375,1.46875 -0.140625,0.640625 -0.609375,0.78125 -0.890625,0.78125 z m 0,0"
               id="path3342" />
          </g>
          <g
             id="g3349"
             transform="translate(7.9431581,5.23)">
            <path
               style="stroke:none"
               d="M 2.015625,1.734375 V 1.40625 h -0.71875 v -6.296875 h 0.71875 V -5.21875 h -1.0625 v 6.953125 z m 0,0"
               id="path3346" />
          </g>
        </g>
        <g
           style="fill:#000000;fill-opacity:1"
           id="g3357">
          <g
             id="g3355"
             transform="translate(10.198,5.23)">
            <path
               style="stroke:none"
               d="m 2.1875,-4.625 c 0,-0.015625 0.015625,-0.109375 0.015625,-0.109375 0,-0.046875 -0.015625,-0.109375 -0.109375,-0.109375 -0.140625,0 -0.71875,0.0625 -0.890625,0.078125 -0.046875,0 -0.15625,0.015625 -0.15625,0.15625 0,0.09375 0.109375,0.09375 0.1875,0.09375 0.328125,0 0.328125,0.0625 0.328125,0.109375 0,0.046875 -0.015625,0.09375 -0.015625,0.15625 L 0.5625,-0.3125 c -0.046875,0.125 -0.046875,0.140625 -0.046875,0.15625 0,0.109375 0.09375,0.21875 0.25,0.21875 0.1875,0 0.265625,-0.125 0.3125,-0.28125 0.015625,-0.03125 0.3125,-1.265625 0.34375,-1.359375 0.5,0.046875 0.890625,0.21875 0.890625,0.578125 0,0.03125 0,0.0625 -0.015625,0.140625 -0.03125,0.09375 -0.03125,0.140625 -0.03125,0.21875 0,0.484375 0.40625,0.703125 0.75,0.703125 0.671875,0 0.875,-1.046875 0.875,-1.0625 0,-0.09375 -0.078125,-0.09375 -0.109375,-0.09375 -0.09375,0 -0.109375,0.046875 -0.140625,0.171875 C 3.5625,-0.625 3.375,-0.125 3.03125,-0.125 c -0.1875,0 -0.25,-0.171875 -0.25,-0.359375 0,-0.125 0,-0.140625 0.046875,-0.3125 0.015625,-0.03125 0.03125,-0.140625 0.03125,-0.21875 0,-0.625 -0.828125,-0.71875 -1.125,-0.734375 C 1.9375,-1.875 2.1875,-2.109375 2.3125,-2.21875 2.671875,-2.546875 3.015625,-2.875 3.40625,-2.875 c 0.078125,0 0.171875,0.015625 0.234375,0.09375 C 3.34375,-2.734375 3.28125,-2.5 3.28125,-2.390625 c 0,0.140625 0.109375,0.25 0.265625,0.25 0.203125,0 0.40625,-0.15625 0.40625,-0.4375 0,-0.234375 -0.171875,-0.5 -0.53125,-0.5 -0.40625,0 -0.765625,0.296875 -1.125,0.625 C 2,-2.1875 1.78125,-1.96875 1.484375,-1.84375 Z m 0,0"
               id="path3353" />
          </g>
        </g>
        <g
           style="fill:#000000;fill-opacity:1"
           id="g3363">
          <g
             id="g3361"
             transform="translate(14.60056,5.23)">
            <path
               style="stroke:none"
               d="m 2.375,-2.15625 h 1.265625 c 1.171875,0 2.171875,-0.75 2.171875,-1.515625 0,-0.59375 -0.578125,-1.09375 -1.53125,-1.09375 h -2.4375 c -0.140625,0 -0.21875,0 -0.21875,0.15625 0,0.09375 0.078125,0.09375 0.234375,0.09375 0.109375,0 0.140625,0 0.265625,0.015625 0.140625,0.015625 0.140625,0.03125 0.140625,0.109375 0,0 0,0.046875 -0.015625,0.140625 L 1.328125,-0.578125 C 1.25,-0.296875 1.25,-0.25 0.703125,-0.25 0.578125,-0.25 0.5,-0.25 0.5,-0.09375 0.5,-0.09375 0.5,0 0.609375,0 0.8125,0 1.3125,-0.03125 1.515625,-0.03125 1.625,-0.03125 1.875,-0.03125 2,-0.015625 2.125,-0.015625 2.3125,0 2.4375,0 2.484375,0 2.578125,0 2.578125,-0.15625 2.578125,-0.25 2.5,-0.25 2.359375,-0.25 c 0,0 -0.140625,0 -0.265625,-0.015625 C 1.9375,-0.28125 1.9375,-0.296875 1.9375,-0.375 c 0,0 0,-0.046875 0.03125,-0.140625 z m 0.5,-2.109375 c 0.0625,-0.21875 0.0625,-0.25 0.359375,-0.25 h 0.8125 c 0.65625,0 1.046875,0.203125 1.046875,0.703125 0,0.203125 -0.078125,0.765625 -0.421875,1.078125 -0.25,0.21875 -0.65625,0.34375 -1.15625,0.34375 H 2.40625 Z m 0,0"
               id="path3359" />
          </g>
        </g>
        <g
           style="fill:#000000;fill-opacity:1"
           id="g3369">
          <g
             id="g3367"
             transform="translate(20.746571,5.23)">
            <path
               style="stroke:none"
               d="m 2.9375,-2.65625 c -0.140625,-0.234375 -0.375,-0.421875 -0.71875,-0.421875 -0.890625,0 -1.796875,0.984375 -1.796875,1.984375 0,0.6875 0.453125,1.15625 1.0625,1.15625 0.375,0 0.703125,-0.203125 0.984375,-0.484375 C 2.59375,0 3,0.0625 3.1875,0.0625 c 0.25,0 0.421875,-0.140625 0.546875,-0.359375 0.15625,-0.28125 0.25,-0.671875 0.25,-0.703125 0,-0.09375 -0.09375,-0.09375 -0.109375,-0.09375 -0.109375,0 -0.109375,0.03125 -0.15625,0.21875 C 3.625,-0.53125 3.5,-0.125 3.203125,-0.125 3.03125,-0.125 2.96875,-0.28125 2.96875,-0.46875 c 0,-0.109375 0.0625,-0.375 0.109375,-0.546875 0.046875,-0.1875 0.125,-0.46875 0.15625,-0.625 L 3.375,-2.171875 C 3.421875,-2.359375 3.5,-2.6875 3.5,-2.71875 3.5,-2.875 3.375,-2.9375 3.265625,-2.9375 c -0.125,0 -0.28125,0.078125 -0.328125,0.28125 z M 2.5,-0.875 C 2.453125,-0.671875 2.296875,-0.53125 2.140625,-0.40625 2.078125,-0.34375 1.796875,-0.125 1.5,-0.125 c -0.265625,0 -0.515625,-0.1875 -0.515625,-0.671875 0,-0.375 0.203125,-1.140625 0.375,-1.421875 0.3125,-0.5625 0.671875,-0.65625 0.859375,-0.65625 0.484375,0 0.625,0.53125 0.625,0.609375 0,0.015625 -0.015625,0.078125 -0.015625,0.09375 z m 0,0"
               id="path3365" />
          </g>
        </g>
        <g
           style="fill:#000000;fill-opacity:1"
           id="g3375">
          <g
             id="g3373"
             transform="translate(25.068001,5.23)">
            <path
               style="stroke:none"
               d="M 1.296875,-5.21875 H 0.21875 v 0.328125 H 0.953125 V 1.40625 H 0.21875 v 0.328125 h 1.078125 z m 0,0"
               id="path3371" />
          </g>
        </g>
      </g>
    </g>
    <g
       inkscape:label=""
       transform="translate(174.86777,261.6123)"
       id="g3409">
      <g
         id="g3407"
         transform="matrix(0.352778,0,0,0.352778,-0.0937066,0.0737747)">
        <g
           style="fill:#000000;fill-opacity:1"
           id="g3389">
          <g
             id="g3383"
             transform="translate(0,4.494)">
            <path
               style="stroke:none"
               d="m 3.6875,-1.140625 v -0.25 H 2.90625 V -4.5 c 0,-0.140625 0,-0.203125 -0.140625,-0.203125 -0.09375,0 -0.125,0 -0.1875,0.109375 l -2.3125,3.203125 v 0.25 h 2.0625 v 0.5625 c 0,0.25 0,0.328125 -0.578125,0.328125 H 1.5625 V 0 C 1.921875,-0.015625 2.359375,-0.03125 2.609375,-0.03125 2.875,-0.03125 3.3125,-0.015625 3.671875,0 v -0.25 h -0.1875 C 2.90625,-0.25 2.90625,-0.328125 2.90625,-0.578125 v -0.5625 z M 2.375,-3.9375 v 2.546875 H 0.53125 Z m 0,0"
               id="path3381" />
          </g>
          <g
             id="g3387"
             transform="translate(3.9715791,4.494)">
            <path
               style="stroke:none"
               d="m 1.078125,-3.890625 c 0.359375,0.09375 0.5625,0.09375 0.671875,0.09375 0.921875,0 1.46875,-0.625 1.46875,-0.734375 0,-0.078125 -0.046875,-0.09375 -0.078125,-0.09375 -0.015625,0 -0.03125,0 -0.0625,0.015625 -0.171875,0.0625 -0.53125,0.203125 -1.046875,0.203125 -0.203125,0 -0.5625,-0.015625 -1.015625,-0.1875 C 0.9375,-4.625 0.921875,-4.625 0.921875,-4.625 c -0.09375,0 -0.09375,0.078125 -0.09375,0.1875 v 2.046875 c 0,0.125 0,0.203125 0.109375,0.203125 0.0625,0 0.078125,0 0.140625,-0.09375 0.296875,-0.375 0.734375,-0.4375 0.96875,-0.4375 0.421875,0 0.609375,0.328125 0.640625,0.390625 0.125,0.234375 0.171875,0.5 0.171875,0.90625 0,0.203125 0,0.609375 -0.21875,0.921875 -0.171875,0.25 -0.46875,0.421875 -0.8125,0.421875 -0.453125,0 -0.921875,-0.25 -1.09375,-0.71875 0.265625,0.015625 0.40625,-0.15625 0.40625,-0.34375 0,-0.296875 -0.265625,-0.34375 -0.359375,-0.34375 0,0 -0.34375,0 -0.34375,0.375 0,0.625 0.578125,1.25 1.40625,1.25 0.890625,0 1.671875,-0.65625 1.671875,-1.546875 0,-0.78125 -0.59375,-1.5 -1.453125,-1.5 -0.3125,0 -0.671875,0.0625 -0.984375,0.328125 z m 0,0"
               id="path3385" />
          </g>
        </g>
        <g
           style="fill:#000000;fill-opacity:1"
           id="g3395">
          <g
             id="g3393"
             transform="translate(7.9419999,4.494)">
            <path
               style="stroke:none"
               d="m 1.578125,-0.390625 c 0,-0.25 -0.203125,-0.40625 -0.390625,-0.40625 -0.234375,0 -0.40625,0.1875 -0.40625,0.390625 0,0.25 0.203125,0.40625 0.390625,0.40625 0.234375,0 0.40625,-0.1875 0.40625,-0.390625 z m 0,0"
               id="path3391" />
          </g>
        </g>
        <g
           style="fill:#000000;fill-opacity:1"
           id="g3405">
          <g
             id="g3399"
             transform="translate(10.309,4.494)">
            <path
               style="stroke:none"
               d="m 2.46875,-2.515625 c 0.546875,-0.265625 0.890625,-0.59375 0.890625,-1.078125 0,-0.671875 -0.703125,-1.03125 -1.375,-1.03125 -0.765625,0 -1.390625,0.5 -1.390625,1.15625 0,0.328125 0.15625,0.5625 0.28125,0.703125 0.125,0.15625 0.171875,0.1875 0.578125,0.421875 C 1.0625,-2.171875 0.375,-1.796875 0.375,-1.0625 c 0,0.765625 0.796875,1.203125 1.59375,1.203125 0.890625,0 1.609375,-0.5625 1.609375,-1.3125 0,-0.46875 -0.265625,-0.859375 -0.671875,-1.09375 -0.09375,-0.0625 -0.328125,-0.1875 -0.4375,-0.25 z m -1.125,-0.65625 c -0.1875,-0.109375 -0.375,-0.296875 -0.375,-0.5625 0,-0.4375 0.5,-0.6875 1,-0.6875 0.546875,0 1.03125,0.34375 1.03125,0.828125 0,0.625 -0.734375,0.9375 -0.734375,0.9375 -0.015625,0 -0.03125,0 -0.078125,-0.03125 z m 0.328125,0.96875 0.96875,0.546875 c 0.171875,0.109375 0.515625,0.3125 0.515625,0.71875 0,0.53125 -0.578125,0.859375 -1.171875,0.859375 -0.640625,0 -1.1875,-0.421875 -1.1875,-0.984375 0,-0.515625 0.375,-0.921875 0.875,-1.140625 z m 0,0"
               id="path3397" />
          </g>
          <g
             id="g3403"
             transform="translate(14.280579,4.494)">
            <path
               style="stroke:none"
               d="m 2.328125,-4.4375 c 0,-0.1875 0,-0.1875 -0.203125,-0.1875 -0.453125,0.4375 -1.078125,0.4375 -1.359375,0.4375 v 0.25 c 0.15625,0 0.625,0 1,-0.1875 v 3.546875 c 0,0.234375 0,0.328125 -0.6875,0.328125 H 0.8125 V 0 c 0.125,0 0.984375,-0.03125 1.234375,-0.03125 0.21875,0 1.09375,0.03125 1.25,0.03125 V -0.25 H 3.03125 c -0.703125,0 -0.703125,-0.09375 -0.703125,-0.328125 z m 0,0"
               id="path3401" />
          </g>
        </g>
      </g>
    </g>
    <g
       id="g3415"
       transform="translate(22.271048,196.53558)">
      <path
         id="path3411"
         style="fill:#ffffff;fill-opacity:1;stroke:#008000;stroke-width:0.123026;stroke-linecap:round;stroke-linejoin:round;stroke-dasharray:none;stroke-dashoffset:0;stroke-opacity:1;paint-order:stroke markers fill"
         d="m 159.71285,61.967727 c -0.87675,0 -1.5875,0.710748 -1.5875,1.5875 0,0.876752 0.71075,1.5875 1.5875,1.5875 0.87675,0 1.5875,-0.710748 1.5875,-1.5875 0,-0.876752 -0.71075,-1.5875 -1.5875,-1.5875 z"
         sodipodi:nodetypes="sssss" />
      <path
         id="path3413"
         style="fill:#00ff00;fill-opacity:1;stroke:none;stroke-width:0.123026;stroke-linecap:round;stroke-linejoin:round;stroke-dasharray:none;stroke-dashoffset:0;stroke-opacity:1;paint-order:stroke markers fill"
         d="m 159.71285,61.967727 a 1.5875,1.5875 0 0 0 -1.5875,1.5875 1.5875,1.5875 0 0 0 1.5875,1.5875 1.5875,1.5875 0 0 0 1.5875,-1.5875 1.5875,1.5875 0 0 0 -1.5875,-1.5875 z m 0.0687,0.70952 h 0.37001 v 1.08365 c 0.11006,0 0.17208,0.05077 0.17208,0.14108 0,0.09031 -0.0592,0.13877 -0.17208,0.14159 v 0.10697 c 0.11006,0 0.17208,0.05077 0.17208,0.14108 0,0.11289 -0.0875,0.14107 -0.18914,0.14107 h -0.37258 c -0.15805,0 -0.18604,-0.08181 -0.18604,-0.14107 0,-0.11571 0.0816,-0.14108 0.18604,-0.14108 h 0.10748 v -0.10697 h -0.76791 v -0.23461 z m 0.0879,0.401 -0.42323,0.68265 h 0.42323 z" />
    </g>
    <g
       id="g3421"
       transform="translate(32.394802,201.28736)">
      <path
         id="path3417"
         style="fill:#ffffff;fill-opacity:1;stroke:#008000;stroke-width:0.123026;stroke-linecap:round;stroke-linejoin:round;stroke-dasharray:none;stroke-dashoffset:0;stroke-opacity:1;paint-order:stroke markers fill"
         d="m 156.3723,61.967727 c -0.87675,0 -1.5875,0.710748 -1.5875,1.5875 0,0.876752 0.71075,1.5875 1.5875,1.5875 0.87675,0 1.5875,-0.710748 1.5875,-1.5875 0,-0.876752 -0.71075,-1.5875 -1.5875,-1.5875 z"
         sodipodi:nodetypes="sssss" />
      <path
         id="path3419"
         style="fill:#00ff00;fill-opacity:1;stroke:none;stroke-width:0.123026;stroke-linecap:round;stroke-linejoin:round;stroke-dasharray:none;stroke-dashoffset:0;stroke-opacity:1;paint-order:stroke markers fill"
         d="m 156.3723,61.967727 a 1.5875,1.5875 0 0 0 -1.5875,1.5875 1.5875,1.5875 0 0 0 1.5875,1.5875 1.5875,1.5875 0 0 0 1.5875,-1.5875 1.5875,1.5875 0 0 0 -1.5875,-1.5875 z m -0.0181,0.66611 c 0.009,-2.9e-4 0.0185,0 0.0279,0 0.34996,0 0.58136,0.21999 0.58136,0.49092 0,0.15523 -0.0734,0.25942 -0.25683,0.36949 0.21449,0.10442 0.31936,0.24571 0.31936,0.42633 0,0.24271 -0.14726,0.55604 -0.72864,0.55604 -0.34713,0 -0.57826,-0.09585 -0.57826,-0.23978 0,-0.07902 0.0621,-0.14108 0.14108,-0.14108 0.0931,0 0.0733,0.09871 0.42892,0.09871 0.26811,0 0.45423,-0.06815 0.45423,-0.27699 0,-0.16087 -0.14928,-0.27941 -0.4315,-0.29352 -0.0931,-0.0057 -0.14676,-0.05351 -0.14676,-0.12971 0,-0.08184 0.0621,-0.14108 0.14676,-0.14108 h 0.11266 c 0.13829,0 0.25683,-0.10419 0.25683,-0.22272 0,-0.13265 -0.12101,-0.21446 -0.31574,-0.21446 -0.32738,0 -0.27958,0.17208 -0.42633,0.17208 -0.0762,0 -0.1385,-0.06487 -0.1385,-0.14107 0,-0.15858 0.26253,-0.30423 0.55346,-0.31316 z" />
    </g>
    <g
       id="g3427"
       transform="translate(69.458033,201.28736)">
      <path
         id="path3423"
         style="fill:#ffffff;fill-opacity:1;stroke:#008000;stroke-width:0.123026;stroke-linecap:round;stroke-linejoin:round;stroke-dasharray:none;stroke-dashoffset:0;stroke-opacity:1;paint-order:stroke markers fill"
         d="m 153.03174,61.967727 c -0.87675,0 -1.5875,0.710748 -1.5875,1.5875 0,0.876752 0.71075,1.5875 1.5875,1.5875 0.87675,0 1.5875,-0.710748 1.5875,-1.5875 0,-0.876752 -0.71075,-1.5875 -1.5875,-1.5875 z"
         sodipodi:nodetypes="sssss" />
      <path
         id="path3425"
         style="fill:#00ff00;fill-opacity:1;stroke:none;stroke-width:0.123026;stroke-linecap:round;stroke-linejoin:round;stroke-dasharray:none;stroke-dashoffset:0;stroke-opacity:1;paint-order:stroke markers fill"
         d="m 153.03174,61.967727 a 1.5875,1.5875 0 0 0 -1.5875,1.5875 1.5875,1.5875 0 0 0 1.5875,1.5875 1.5875,1.5875 0 0 0 1.5875,-1.5875 1.5875,1.5875 0 0 0 -1.5875,-1.5875 z m 0.0253,0.68729 c 0.34431,0 0.60151,0.23399 0.60151,0.54726 0,0.23142 -0.051,0.29367 -0.83561,0.971 h 0.56741 c 0.008,-0.1016 0.0536,-0.15245 0.14108,-0.15245 0.11571,0 0.14107,0.08162 0.14107,0.18604 v 0.24856 h -1.28157 v -0.29662 c 0.45155,-0.37253 0.98495,-0.78163 0.98495,-0.9679 0,-0.14393 -0.14108,-0.25373 -0.32453,-0.25373 -0.381,0 -0.26213,0.32711 -0.4625,0.32711 -0.0762,0 -0.14108,-0.06201 -0.14108,-0.13539 0,-0.19756 0.24238,-0.47388 0.60927,-0.47388 z" />
    </g>
    <g
       id="g3433"
       transform="translate(65.719269,171.13557)">
      <path
         id="path3429"
         style="fill:#ffffff;fill-opacity:1;stroke:#008000;stroke-width:0.123026;stroke-linecap:round;stroke-linejoin:round;stroke-dasharray:none;stroke-dashoffset:0;stroke-opacity:1;paint-order:stroke markers fill"
         d="m 149.69118,61.967727 c -0.87675,0 -1.5875,0.710748 -1.5875,1.5875 0,0.876752 0.71075,1.5875 1.5875,1.5875 0.87675,0 1.5875,-0.710748 1.5875,-1.5875 0,-0.876752 -0.71075,-1.5875 -1.5875,-1.5875 z"
         sodipodi:nodetypes="sssss" />
      <path
         id="path3431"
         style="fill:#00ff00;fill-opacity:1;stroke:none;stroke-width:0.123026;stroke-linecap:round;stroke-linejoin:round;stroke-dasharray:none;stroke-dashoffset:0;stroke-opacity:1;paint-order:stroke markers fill"
         d="m 149.69118,61.967727 a 1.5875,1.5875 0 0 0 -1.5875,1.5875 1.5875,1.5875 0 0 0 1.5875,1.5875 1.5875,1.5875 0 0 0 1.5875,-1.5875 1.5875,1.5875 0 0 0 -1.5875,-1.5875 z m -0.1385,0.68729 h 0.27957 v 1.51826 h 0.28526 c 0.0988,0 0.18603,0.02254 0.18603,0.14108 0,0.10724 -0.076,0.14107 -0.18603,0.14107 h -0.85266 c -0.15805,0 -0.18604,-0.08181 -0.18604,-0.14107 0,-0.11572 0.076,-0.14108 0.18604,-0.14108 h 0.28525 v -1.2082 l -0.23151,0.16382 c -0.031,0.02822 -0.0565,0.03669 -0.11575,0.03669 -0.0593,0 -0.11834,-0.0421 -0.11834,-0.11266 0,-0.05926 0.0224,-0.09333 0.0873,-0.13849 z" />
    </g>
    <g
       inkscape:label=""
       transform="translate(221.6584,232.23789)"
       id="g11966">
      <g
         id="g11964"
         transform="matrix(0.352778,0,0,0.352778,-0.0937066,-0.00396876)">
        <g
           style="fill:#000000;fill-opacity:1"
           id="g11938">
          <g
             id="g11920"
             transform="translate(0,5.23)">
            <path
               style="stroke:none"
               d="m 3.6875,-1.140625 v -0.25 H 2.90625 V -4.5 c 0,-0.140625 0,-0.203125 -0.140625,-0.203125 -0.09375,0 -0.125,0 -0.1875,0.109375 l -2.3125,3.203125 v 0.25 h 2.0625 v 0.5625 c 0,0.25 0,0.328125 -0.578125,0.328125 H 1.5625 V 0 C 1.921875,-0.015625 2.359375,-0.03125 2.609375,-0.03125 2.875,-0.03125 3.3125,-0.015625 3.671875,0 v -0.25 h -0.1875 C 2.90625,-0.25 2.90625,-0.328125 2.90625,-0.578125 v -0.5625 z M 2.375,-3.9375 v 2.546875 H 0.53125 Z m 0,0"
               id="path11918" />
          </g>
          <g
             id="g11924"
             transform="translate(3.9715791,5.23)">
            <path
               style="stroke:none"
               d="M 3.59375,-2.21875 C 3.59375,-2.984375 3.5,-3.546875 3.1875,-4.03125 2.96875,-4.34375 2.53125,-4.625 1.984375,-4.625 c -1.625,0 -1.625,1.90625 -1.625,2.40625 0,0.5 0,2.359375 1.625,2.359375 1.609375,0 1.609375,-1.859375 1.609375,-2.359375 z M 1.984375,-0.0625 c -0.328125,0 -0.75,-0.1875 -0.890625,-0.75 C 1,-1.21875 1,-1.796875 1,-2.3125 1,-2.828125 1,-3.359375 1.09375,-3.734375 1.25,-4.28125 1.6875,-4.4375 1.984375,-4.4375 c 0.375,0 0.734375,0.234375 0.859375,0.640625 0.109375,0.375 0.125,0.875 0.125,1.484375 0,0.515625 0,1.03125 -0.09375,1.46875 -0.140625,0.640625 -0.609375,0.78125 -0.890625,0.78125 z m 0,0"
               id="path11922" />
          </g>
          <g
             id="g11928"
             transform="translate(7.9431581,5.23)">
            <path
               style="stroke:none"
               d="M 3.59375,-2.21875 C 3.59375,-2.984375 3.5,-3.546875 3.1875,-4.03125 2.96875,-4.34375 2.53125,-4.625 1.984375,-4.625 c -1.625,0 -1.625,1.90625 -1.625,2.40625 0,0.5 0,2.359375 1.625,2.359375 1.609375,0 1.609375,-1.859375 1.609375,-2.359375 z M 1.984375,-0.0625 c -0.328125,0 -0.75,-0.1875 -0.890625,-0.75 C 1,-1.21875 1,-1.796875 1,-2.3125 1,-2.828125 1,-3.359375 1.09375,-3.734375 1.25,-4.28125 1.6875,-4.4375 1.984375,-4.4375 c 0.375,0 0.734375,0.234375 0.859375,0.640625 0.109375,0.375 0.125,0.875 0.125,1.484375 0,0.515625 0,1.03125 -0.09375,1.46875 -0.140625,0.640625 -0.609375,0.78125 -0.890625,0.78125 z m 0,0"
               id="path11926" />
          </g>
          <g
             id="g11932"
             transform="translate(11.914737,5.23)">
            <path
               style="stroke:none"
               d="M 3.59375,-2.21875 C 3.59375,-2.984375 3.5,-3.546875 3.1875,-4.03125 2.96875,-4.34375 2.53125,-4.625 1.984375,-4.625 c -1.625,0 -1.625,1.90625 -1.625,2.40625 0,0.5 0,2.359375 1.625,2.359375 1.609375,0 1.609375,-1.859375 1.609375,-2.359375 z M 1.984375,-0.0625 c -0.328125,0 -0.75,-0.1875 -0.890625,-0.75 C 1,-1.21875 1,-1.796875 1,-2.3125 1,-2.828125 1,-3.359375 1.09375,-3.734375 1.25,-4.28125 1.6875,-4.4375 1.984375,-4.4375 c 0.375,0 0.734375,0.234375 0.859375,0.640625 0.109375,0.375 0.125,0.875 0.125,1.484375 0,0.515625 0,1.03125 -0.09375,1.46875 -0.140625,0.640625 -0.609375,0.78125 -0.890625,0.78125 z m 0,0"
               id="path11930" />
          </g>
          <g
             id="g11936"
             transform="translate(15.886316,5.23)">
            <path
               style="stroke:none"
               d="M 2.015625,1.734375 V 1.40625 h -0.71875 v -6.296875 h 0.71875 V -5.21875 h -1.0625 v 6.953125 z m 0,0"
               id="path11934" />
          </g>
        </g>
        <g
           style="fill:#000000;fill-opacity:1"
           id="g11944">
          <g
             id="g11942"
             transform="translate(18.139999,5.23)">
            <path
               style="stroke:none"
               d="m 2.1875,-4.625 c 0,-0.015625 0.015625,-0.109375 0.015625,-0.109375 0,-0.046875 -0.015625,-0.109375 -0.109375,-0.109375 -0.140625,0 -0.71875,0.0625 -0.890625,0.078125 -0.046875,0 -0.15625,0.015625 -0.15625,0.15625 0,0.09375 0.109375,0.09375 0.1875,0.09375 0.328125,0 0.328125,0.0625 0.328125,0.109375 0,0.046875 -0.015625,0.09375 -0.015625,0.15625 L 0.5625,-0.3125 c -0.046875,0.125 -0.046875,0.140625 -0.046875,0.15625 0,0.109375 0.09375,0.21875 0.25,0.21875 0.1875,0 0.265625,-0.125 0.3125,-0.28125 0.015625,-0.03125 0.3125,-1.265625 0.34375,-1.359375 0.5,0.046875 0.890625,0.21875 0.890625,0.578125 0,0.03125 0,0.0625 -0.015625,0.140625 -0.03125,0.09375 -0.03125,0.140625 -0.03125,0.21875 0,0.484375 0.40625,0.703125 0.75,0.703125 0.671875,0 0.875,-1.046875 0.875,-1.0625 0,-0.09375 -0.078125,-0.09375 -0.109375,-0.09375 -0.09375,0 -0.109375,0.046875 -0.140625,0.171875 C 3.5625,-0.625 3.375,-0.125 3.03125,-0.125 c -0.1875,0 -0.25,-0.171875 -0.25,-0.359375 0,-0.125 0,-0.140625 0.046875,-0.3125 0.015625,-0.03125 0.03125,-0.140625 0.03125,-0.21875 0,-0.625 -0.828125,-0.71875 -1.125,-0.734375 C 1.9375,-1.875 2.1875,-2.109375 2.3125,-2.21875 2.671875,-2.546875 3.015625,-2.875 3.40625,-2.875 c 0.078125,0 0.171875,0.015625 0.234375,0.09375 C 3.34375,-2.734375 3.28125,-2.5 3.28125,-2.390625 c 0,0.140625 0.109375,0.25 0.265625,0.25 0.203125,0 0.40625,-0.15625 0.40625,-0.4375 0,-0.234375 -0.171875,-0.5 -0.53125,-0.5 -0.40625,0 -0.765625,0.296875 -1.125,0.625 C 2,-2.1875 1.78125,-1.96875 1.484375,-1.84375 Z m 0,0"
               id="path11940" />
          </g>
        </g>
        <g
           style="fill:#000000;fill-opacity:1"
           id="g11950">
          <g
             id="g11948"
             transform="translate(22.542561,5.23)">
            <path
               style="stroke:none"
               d="m 2.375,-2.15625 h 1.265625 c 1.171875,0 2.171875,-0.75 2.171875,-1.515625 0,-0.59375 -0.578125,-1.09375 -1.53125,-1.09375 h -2.4375 c -0.140625,0 -0.21875,0 -0.21875,0.15625 0,0.09375 0.078125,0.09375 0.234375,0.09375 0.109375,0 0.140625,0 0.265625,0.015625 0.140625,0.015625 0.140625,0.03125 0.140625,0.109375 0,0 0,0.046875 -0.015625,0.140625 L 1.328125,-0.578125 C 1.25,-0.296875 1.25,-0.25 0.703125,-0.25 0.578125,-0.25 0.5,-0.25 0.5,-0.09375 0.5,-0.09375 0.5,0 0.609375,0 0.8125,0 1.3125,-0.03125 1.515625,-0.03125 1.625,-0.03125 1.875,-0.03125 2,-0.015625 2.125,-0.015625 2.3125,0 2.4375,0 2.484375,0 2.578125,0 2.578125,-0.15625 2.578125,-0.25 2.5,-0.25 2.359375,-0.25 c 0,0 -0.140625,0 -0.265625,-0.015625 C 1.9375,-0.28125 1.9375,-0.296875 1.9375,-0.375 c 0,0 0,-0.046875 0.03125,-0.140625 z m 0.5,-2.109375 c 0.0625,-0.21875 0.0625,-0.25 0.359375,-0.25 h 0.8125 c 0.65625,0 1.046875,0.203125 1.046875,0.703125 0,0.203125 -0.078125,0.765625 -0.421875,1.078125 -0.25,0.21875 -0.65625,0.34375 -1.15625,0.34375 H 2.40625 Z m 0,0"
               id="path11946" />
          </g>
        </g>
        <g
           style="fill:#000000;fill-opacity:1"
           id="g11956">
          <g
             id="g11954"
             transform="translate(28.68857,5.23)">
            <path
               style="stroke:none"
               d="m 2.9375,-2.65625 c -0.140625,-0.234375 -0.375,-0.421875 -0.71875,-0.421875 -0.890625,0 -1.796875,0.984375 -1.796875,1.984375 0,0.6875 0.453125,1.15625 1.0625,1.15625 0.375,0 0.703125,-0.203125 0.984375,-0.484375 C 2.59375,0 3,0.0625 3.1875,0.0625 c 0.25,0 0.421875,-0.140625 0.546875,-0.359375 0.15625,-0.28125 0.25,-0.671875 0.25,-0.703125 0,-0.09375 -0.09375,-0.09375 -0.109375,-0.09375 -0.109375,0 -0.109375,0.03125 -0.15625,0.21875 C 3.625,-0.53125 3.5,-0.125 3.203125,-0.125 3.03125,-0.125 2.96875,-0.28125 2.96875,-0.46875 c 0,-0.109375 0.0625,-0.375 0.109375,-0.546875 0.046875,-0.1875 0.125,-0.46875 0.15625,-0.625 L 3.375,-2.171875 C 3.421875,-2.359375 3.5,-2.6875 3.5,-2.71875 3.5,-2.875 3.375,-2.9375 3.265625,-2.9375 c -0.125,0 -0.28125,0.078125 -0.328125,0.28125 z M 2.5,-0.875 C 2.453125,-0.671875 2.296875,-0.53125 2.140625,-0.40625 2.078125,-0.34375 1.796875,-0.125 1.5,-0.125 c -0.265625,0 -0.515625,-0.1875 -0.515625,-0.671875 0,-0.375 0.203125,-1.140625 0.375,-1.421875 0.3125,-0.5625 0.671875,-0.65625 0.859375,-0.65625 0.484375,0 0.625,0.53125 0.625,0.609375 0,0.015625 -0.015625,0.078125 -0.015625,0.09375 z m 0,0"
               id="path11952" />
          </g>
        </g>
        <g
           style="fill:#000000;fill-opacity:1"
           id="g11962">
          <g
             id="g11960"
             transform="translate(33.009998,5.23)">
            <path
               style="stroke:none"
               d="M 1.296875,-5.21875 H 0.21875 v 0.328125 H 0.953125 V 1.40625 H 0.21875 v 0.328125 h 1.078125 z m 0,0"
               id="path11958" />
          </g>
        </g>
      </g>
    </g>
  </g>
</svg>
