<?xml version="1.0" encoding="UTF-8" standalone="no"?>
<!-- Created with Inkscape (http://www.inkscape.org/) -->

<svg
   inkscape:version="1.2 (dc2aedaf03, 2022-05-15)"
   sodipodi:docname="base.svg"
   id="svg5"
   version="1.1"
   viewBox="0 0 63.013259 44.745589"
   height="169.11719"
   width="238.16035"
   xmlns:inkscape="http://www.inkscape.org/namespaces/inkscape"
   xmlns:sodipodi="http://sodipodi.sourceforge.net/DTD/sodipodi-0.dtd"
   xmlns="http://www.w3.org/2000/svg"
   xmlns:svg="http://www.w3.org/2000/svg">
  <sodipodi:namedview
     id="namedview7"
     pagecolor="#ffffff"
     bordercolor="#666666"
     borderopacity="1.0"
     inkscape:showpageshadow="false"
     inkscape:pageopacity="0.0"
     inkscape:pagecheckerboard="false"
     inkscape:deskcolor="#d1d1d1"
     inkscape:document-units="px"
     showgrid="true"
     showborder="false"
     borderlayer="false"
     shape-rendering="auto"
     inkscape:zoom="2"
     inkscape:cx="359"
     inkscape:cy="254.75"
     inkscape:window-width="1920"
     inkscape:window-height="1050"
     inkscape:window-x="1920"
     inkscape:window-y="18"
     inkscape:window-maximized="0"
     inkscape:current-layer="layer1"
     showguides="true"
     inkscape:lockguides="false">
    <inkscape:grid
       type="xygrid"
       id="grid9"
       spacingx="1.0583333"
       spacingy="1.0583333"
       empspacing="4"
       dotted="false"
       snapvisiblegridlinesonly="false"
       originx="0"
       originy="0" />
    <sodipodi:guide
       position="-77.726807,99.631134"
       orientation="0,1920"
       id="guide280"
       inkscape:locked="false" />
    <sodipodi:guide
       position="430.27319,99.631134"
       orientation="1080,0"
       id="guide282"
       inkscape:locked="false" />
    <sodipodi:guide
       position="430.27319,-186.11886"
       orientation="0,-1920"
       id="guide284"
       inkscape:locked="false" />
    <sodipodi:guide
       position="-77.726807,-186.11886"
       orientation="-1080,0"
       id="guide286"
       inkscape:locked="false" />
    <sodipodi:guide
       position="-77.726807,99.631134"
       orientation="0,1920"
       id="guide288"
       inkscape:locked="false" />
    <sodipodi:guide
       position="430.27319,99.631134"
       orientation="1080,0"
       id="guide290"
       inkscape:locked="false" />
    <sodipodi:guide
       position="430.27319,-186.11886"
       orientation="0,-1920"
       id="guide292"
       inkscape:locked="false" />
    <sodipodi:guide
       position="-77.726807,-186.11886"
       orientation="-1080,0"
       id="guide294"
       inkscape:locked="false" />
    <sodipodi:guide
       position="-77.726807,99.631134"
       orientation="0,1920"
       id="guide296"
       inkscape:locked="false" />
    <sodipodi:guide
       position="430.27319,99.631134"
       orientation="1080,0"
       id="guide298"
       inkscape:locked="false" />
    <sodipodi:guide
       position="430.27319,-186.11886"
       orientation="0,-1920"
       id="guide300"
       inkscape:locked="false" />
    <sodipodi:guide
       position="-77.726807,-186.11886"
       orientation="-1080,0"
       id="guide302"
       inkscape:locked="false" />
    <sodipodi:guide
       position="-77.726807,99.631134"
       orientation="0,1920"
       id="guide304"
       inkscape:locked="false" />
    <sodipodi:guide
       position="430.27319,99.631134"
       orientation="1080,0"
       id="guide306"
       inkscape:locked="false" />
    <sodipodi:guide
       position="430.27319,-186.11886"
       orientation="0,-1920"
       id="guide308"
       inkscape:locked="false" />
    <sodipodi:guide
       position="-77.726807,-186.11886"
       orientation="-1080,0"
       id="guide310"
       inkscape:locked="false" />
    <sodipodi:guide
       position="-77.726807,99.631134"
       orientation="0,1920"
       id="guide157"
       inkscape:locked="false" />
    <sodipodi:guide
       position="430.27319,99.631134"
       orientation="1080,0"
       id="guide159"
       inkscape:locked="false" />
    <sodipodi:guide
       position="430.27319,-186.11886"
       orientation="0,-1920"
       id="guide161"
       inkscape:locked="false" />
    <sodipodi:guide
       position="-77.726807,-186.11886"
       orientation="-1080,0"
       id="guide163"
       inkscape:locked="false" />
    <sodipodi:guide
       position="430.27319,99.631134"
       orientation="1080,0"
       id="guide167"
       inkscape:locked="false" />
    <sodipodi:guide
       position="430.27319,-186.11886"
       orientation="0,-1920"
       id="guide169"
       inkscape:locked="false" />
    <sodipodi:guide
       position="-43.860141,99.631134"
       orientation="1,0"
       id="guide1350"
       inkscape:locked="false" />
    <sodipodi:guide
       position="6.9398566,99.631134"
       orientation="1,0"
       id="guide3109"
       inkscape:locked="false" />
    <sodipodi:guide
       position="-77.726807,48.831135"
       orientation="0,-1"
       id="guide7523"
       inkscape:locked="false" />
    <sodipodi:guide
       position="57.739852,99.631134"
       orientation="1,0"
       id="guide12549"
       inkscape:locked="false" />
    <sodipodi:guide
       position="108.53985,99.631134"
       orientation="1,0"
       id="guide15016"
       inkscape:locked="false" />
    <sodipodi:guide
       position="159.33985,99.631134"
       orientation="1,0"
       id="guide21711"
       inkscape:locked="false" />
    <sodipodi:guide
       position="210.13984,99.631134"
       orientation="1,0"
       id="guide26719"
       inkscape:locked="false" />
    <sodipodi:guide
       position="260.93984,99.631134"
       orientation="1,0"
       id="guide32627"
       inkscape:locked="false" />
    <sodipodi:guide
       position="311.73984,99.631134"
       orientation="1,0"
       id="guide49129"
       inkscape:locked="false" />
    <sodipodi:guide
       position="-5.7601434,48.831135"
       orientation="1,0"
       id="guide101459"
       inkscape:locked="false" />
    <sodipodi:guide
       position="66.206522,48.831135"
       orientation="1,0"
       id="guide101461"
       inkscape:locked="false" />
    <sodipodi:guide
       position="-77.726807,-1.9688651"
       orientation="0,-1"
       id="guide103157"
       inkscape:locked="false" />
  </sodipodi:namedview>
  <defs
     id="defs2" />
  <g
     inkscape:label="Capa 1"
     inkscape:groupmode="layer"
     id="layer1"
     transform="translate(-77.726807,-54.885543)">
    <path
       style="fill:#808080;fill-opacity:1;stroke:none;stroke-width:0.105833;stroke-linejoin:round;stroke-opacity:1"
       d="m 125.94166,73.024996 9.525,-4.233333 V 83.60833 l -9.525,-4.233334 z"
       id="path119035" />
    <rect
       style="fill:#ffd5d5;fill-opacity:1;stroke:#000000;stroke-width:0.132292;stroke-linejoin:round;stroke-dasharray:none"
       id="rect74133"
       width="19.04998"
       height="19.050003"
       x="78.316673"
       y="-78.316666"
       transform="scale(1,-1)"
       rx="1.0583338"
       ry="1.0583338"
       inkscape:export-filename="rankine.svg"
       inkscape:export-xdpi="96"
       inkscape:export-ydpi="96" />
    <text
       xml:space="preserve"
       style="font-style:normal;font-variant:normal;font-weight:300;font-stretch:normal;font-size:3.175px;font-family:Roboto;-inkscape-font-specification:'Roboto, Light';font-variant-ligatures:normal;font-variant-caps:normal;font-variant-numeric:normal;font-variant-east-asian:normal;fill:#000000;stroke:none;stroke-width:0.264583;stroke-dasharray:none"
       x="102.77261"
       y="99.600121"
       id="text9419-5"><tspan
         sodipodi:role="line"
         id="tspan9417-4"
         style="font-style:normal;font-variant:normal;font-weight:300;font-stretch:normal;font-size:3.175px;font-family:Roboto;-inkscape-font-specification:'Roboto, Light';font-variant-ligatures:normal;font-variant-caps:normal;font-variant-numeric:normal;font-variant-east-asian:normal;fill:#000000;stroke:none;stroke-width:0.264583"
         x="102.77261"
         y="99.600121">Condensador</tspan></text>
    <rect
       style="fill:#d5e5ff;fill-opacity:1;stroke:#000000;stroke-width:0.132292;stroke-linejoin:round;stroke-dasharray:none"
       id="rect74137"
       width="21.166666"
       height="12.7"
       x="101.60033"
       y="-95.25"
       transform="scale(1,-1)"
       rx="1.0583338"
       ry="1.0583338" />
    <path
       id="path74139"
       style="color:#000000;fill:#333333;fill-opacity:1;stroke-linejoin:round"
       d="m 105.83366,83.211961 c -0.27437,0 -0.54853,0.07081 -0.79375,0.21239 -0.45174,0.260812 -0.74372,0.727244 -0.78704,1.241785 h -0.006 v 3.176033 c 0,0.29852 -0.23116,0.529167 -0.52968,0.529167 H 101.6 v 1.058846 h 2.11719 c 0.87049,0 1.58595,-0.717532 1.58595,-1.588013 v -3.042708 c 0,-0.189902 0.10115,-0.364454 0.26561,-0.459404 0.16446,-0.09495 0.36523,-0.09495 0.52969,0 0.16448,0.09495 0.26355,0.269502 0.26355,0.459404 v 8.333851 c 0,0.56631 0.30434,1.09196 0.79478,1.37511 0.49044,0.28316 1.09758,0.28316 1.58802,0 0.49044,-0.28315 0.79271,-0.8088 0.79271,-1.37511 v -8.333851 c 0,-0.189902 0.0991,-0.364454 0.26355,-0.459404 0.16446,-0.09495 0.36523,-0.09495 0.52969,0 0.16446,0.09495 0.26561,0.269502 0.26561,0.459404 v 8.333851 c 0,0.56631 0.30228,1.09196 0.79272,1.37511 0.49044,0.28316 1.09758,0.28316 1.58802,0 0.49044,-0.28315 0.79271,-0.8088 0.79271,-1.37511 v -8.333851 c 0,-0.189902 0.10168,-0.364454 0.26614,-0.459404 0.16446,-0.09495 0.3647,-0.09495 0.52916,0 0.16447,0.09495 0.26355,0.269502 0.26355,0.459404 v 8.333851 c 0,0.56631 0.30436,1.09196 0.79479,1.37511 0.49044,0.28316 1.09551,0.28316 1.58595,0 0.49044,-0.28315 0.7953,-0.8088 0.7953,-1.37511 v -8.351938 c 0.006,-0.182952 0.10423,-0.349334 0.26355,-0.441317 0.16446,-0.09495 0.3647,-0.09495 0.52916,0 0.16446,0.09495 0.26562,0.269502 0.26562,0.459404 v 3.042708 c 0,0.870481 0.71754,1.588013 1.58802,1.588013 h 2.11511 v -1.058846 h -2.11511 c -0.29852,0 -0.52917,-0.230647 -0.52917,-0.529167 v -3.176033 h -0.006 c -0.0436,-0.514541 -0.33736,-0.980973 -0.7891,-1.241785 -0.49044,-0.283155 -1.09758,-0.283155 -1.58802,0 -0.45174,0.260816 -0.74372,0.727236 -0.78703,1.241785 h -0.006 v 8.467176 c 0,0.18991 -0.0991,0.36394 -0.26355,0.45889 -0.16446,0.095 -0.36471,0.095 -0.52917,0 -0.16446,-0.0949 -0.26562,-0.26898 -0.26562,-0.45889 v -8.467176 h -0.006 c -0.0433,-0.514541 -0.33529,-0.980973 -0.78703,-1.241785 -0.49044,-0.283155 -1.09758,-0.283155 -1.58802,0 -0.45174,0.260816 -0.74372,0.727236 -0.78703,1.241785 h -0.006 v 8.467176 c 0,0.18991 -0.10116,0.36394 -0.26562,0.45889 -0.16446,0.095 -0.36471,0.095 -0.52917,0 -0.16446,-0.0949 -0.26406,-0.26898 -0.26406,-0.45889 v -8.467176 h -0.006 c -0.0436,-0.514549 -0.33735,-0.980969 -0.7891,-1.241785 -0.49044,-0.283155 -1.09757,-0.283155 -1.58801,0 -0.45175,0.260816 -0.74372,0.727236 -0.78704,1.241785 h -0.006 v 8.467176 c 0,0.18991 -0.0991,0.36394 -0.26355,0.45889 -0.16446,0.095 -0.36522,0.095 -0.52968,0 -0.16446,-0.0949 -0.26562,-0.26898 -0.26562,-0.45889 v -8.467176 h -0.006 c -0.0433,-0.514549 -0.33528,-0.980969 -0.78703,-1.241785 -0.24522,-0.141577 -0.5199,-0.21239 -0.79426,-0.21239 z" />
    <path
       style="fill:none;stroke:#333333;stroke-width:1.05833;stroke-linejoin:round;stroke-dasharray:none;stroke-opacity:1"
       d="M 82.48387,76.200001 V 88.899999 H 101.6"
       id="path74143"
       sodipodi:nodetypes="ccc" />
    <path
       style="fill:none;stroke:#333333;stroke-width:1.05833;stroke-linejoin:round;stroke-dasharray:none;stroke-opacity:1"
       d="m 95.18386,63.5 h 31.75001 v 9.05463"
       id="path74147"
       sodipodi:nodetypes="ccc" />
    <path
       style="fill:none;fill-opacity:1;stroke:#333333;stroke-width:1.05833;stroke-linejoin:round;stroke-dasharray:none;stroke-opacity:1"
       d="m 133.28386,82.667594 v 6.232405 h -10.51771"
       id="path74149"
       sodipodi:nodetypes="ccc" />
    <path
       style="fill:#333333;fill-opacity:1;stroke:#ffffff;stroke-width:0.132292;stroke-linejoin:round;stroke-dasharray:none;stroke-opacity:1"
       d="m 126.93387,67.769898 -1.05834,-2.116667 h 2.11667 l -1.05833,2.116667"
       id="path74167" />
    <path
       style="fill:#333333;fill-opacity:1;stroke:#ffffff;stroke-width:0.132292;stroke-linejoin:round;stroke-dasharray:none;stroke-opacity:1"
       d="m 121.67875,63.499994 -2.11667,1.05834 v -2.11667 l 2.11667,1.05833"
       id="path74169" />
    <path
       style="fill:#333333;fill-opacity:1;stroke:#ffffff;stroke-width:0.132292;stroke-linejoin:round;stroke-dasharray:none;stroke-opacity:1"
       d="m 92.074994,88.899999 2.11667,1.058333 v -2.116667 l -2.11667,1.058334"
       id="path74173" />
    <path
       style="fill:#333333;fill-opacity:1;stroke:#ffffff;stroke-width:0.132292;stroke-linejoin:round;stroke-dasharray:none;stroke-opacity:1"
       d="m 126.99999,88.899999 2.11667,1.058333 v -2.116667 l -2.11667,1.058334"
       id="path74175" />
    <path
       style="fill:#333333;fill-opacity:1;stroke:#ffffff;stroke-width:0.132292;stroke-linejoin:round;stroke-dasharray:none;stroke-opacity:1"
       d="m 133.28386,86.819897 -1.05834,-2.116667 h 2.11667 l -1.05833,2.116667"
       id="path74177" />
    <path
       style="fill:#333333;fill-opacity:1;stroke:#ffffff;stroke-width:0.132292;stroke-linejoin:round;stroke-dasharray:none;stroke-opacity:1"
       d="m 82.48387,82.53172 -1.05834,2.116667 H 83.5422 L 82.48387,82.53172"
       id="path74179" />
    <circle
       style="fill:#cccccc;fill-opacity:1;stroke:#333333;stroke-width:0.132292;stroke-linejoin:round;stroke-dasharray:none;stroke-opacity:1"
       id="path74990"
       cx="82.483879"
       cy="88.900002"
       r="2.1166666" />
    <path
       style="fill:none;fill-opacity:1;stroke:#333333;stroke-width:1.05833;stroke-linejoin:round;stroke-dasharray:none;stroke-opacity:1"
       d="m 125.87553,73.025003 9.525,-4.233334 v 14.816667 l -9.525,-4.233334 z"
       id="path79879"
       sodipodi:nodetypes="ccccc" />
    <path
       style="fill:none;fill-opacity:1;stroke:#333333;stroke-width:1.05833;stroke-linecap:butt;stroke-linejoin:round;stroke-dasharray:none;stroke-opacity:1"
       d="m 135.40053,76.200002 h 4.23334"
       id="path79881" />
    <circle
       style="fill:#ffffff;fill-opacity:1;stroke:#333333;stroke-width:0.132292;stroke-linejoin:round;stroke-dasharray:none;stroke-opacity:1"
       id="circle82676"
       cx="82.550011"
       cy="74.083336"
       r="2.1166666" />
    <circle
       style="fill:#ffffff;fill-opacity:1;stroke:#333333;stroke-width:0.132292;stroke-linejoin:round;stroke-dasharray:none;stroke-opacity:1"
       id="circle82678"
       cx="93.133354"
       cy="63.5"
       r="2.1166666" />
    <g
       id="path83603"
       transform="translate(-296.39946,-10.583328)">
      <path
         style="color:#000000;fill:#ffffff;stroke-width:1.05833;stroke-linejoin:round"
         d="m 381,84.666663 h 23.28333"
         id="path83752" />
    </g>
    <g
       id="path83605"
       transform="translate(-313.26665,-10.583328)">
      <path
         style="color:#000000;fill:#ffffff;stroke-width:1.05833;stroke-linejoin:round;-inkscape-stroke:none"
         d="M 406.39999,82.549996 V 76.199998"
         id="path83743" />
    </g>
    <path
       id="path83749"
       style="color:#000000;fill:#ffffff;stroke:#000000;stroke-width:0.105833;stroke-linejoin:round;stroke-dasharray:none"
       d="m 92.6047,65.616669 v 6.352067 c 0,0.883019 -0.705,1.585433 -1.58802,1.585433 h -6.41735 v 1.05885 h 6.41735 c 1.45499,0 2.64635,-1.189302 2.64635,-2.644283 v -6.352067 z"
       sodipodi:nodetypes="cssccsscc" />
    <path
       id="path87025"
       style="color:#000000;fill:#ffffff;stroke:#000000;stroke-width:0.105833;stroke-linejoin:round;stroke-dasharray:none"
       d="m 83.01251,71.966674 v -6.352067 c 0,-0.883019 0.705,-1.585433 1.58802,-1.585433 h 6.41735 v -1.05885 h -6.41735 c -1.45499,0 -2.64635,1.189302 -2.64635,2.644283 v 6.352067 z"
       sodipodi:nodetypes="cssccsscc" />
    <path
       style="fill:#333333;fill-opacity:1;stroke:#ffffff;stroke-width:0.132292;stroke-linejoin:round;stroke-dasharray:none;stroke-opacity:1"
       d="m 103.66881,63.499994 -2.11667,1.05834 v -2.11667 l 2.11667,1.05833"
       id="path87826" />
    <path
       style="fill:#333333;fill-opacity:1;stroke:#ffffff;stroke-width:0.132292;stroke-linejoin:round;stroke-dasharray:none;stroke-opacity:1"
       d="m 140.71048,76.199998 -2.11667,1.05834 v -2.11667 l 2.11667,1.05833"
       id="path88626" />
    <path
       style="fill:#333333;fill-opacity:1;stroke:#ffffff;stroke-width:0.132292;stroke-linejoin:round;stroke-dasharray:none;stroke-opacity:1"
       d="m 113.19381,63.499994 -2.11667,1.05834 v -2.11667 l 2.11667,1.05833"
       id="path89427" />
    <text
       xml:space="preserve"
       style="font-style:normal;font-variant:normal;font-weight:300;font-stretch:normal;font-size:3.175px;font-family:Roboto;-inkscape-font-specification:'Roboto, Light';font-variant-ligatures:normal;font-variant-caps:normal;font-variant-numeric:normal;font-variant-east-asian:normal;fill:#000000;stroke:none;stroke-width:0.264583;stroke-dasharray:none"
       x="82.459045"
       y="57.266792"
       id="text90310"><tspan
         sodipodi:role="line"
         id="tspan90308"
         style="font-style:normal;font-variant:normal;font-weight:300;font-stretch:normal;font-size:3.175px;font-family:Roboto;-inkscape-font-specification:'Roboto, Light';font-variant-ligatures:normal;font-variant-caps:normal;font-variant-numeric:normal;font-variant-east-asian:normal;fill:#000000;stroke:none;stroke-width:0.264583"
         x="82.459045"
         y="57.266792">Caldero</tspan></text>
    <text
       xml:space="preserve"
       style="font-style:normal;font-variant:normal;font-weight:300;font-stretch:normal;font-size:3.175px;font-family:Roboto;-inkscape-font-specification:'Roboto, Light';font-variant-ligatures:normal;font-variant-caps:normal;font-variant-numeric:normal;font-variant-east-asian:normal;fill:#000000;stroke:none;stroke-width:0.264583;stroke-dasharray:none"
       x="77.440002"
       y="95.366791"
       id="text90314"><tspan
         sodipodi:role="line"
         id="tspan90312"
         style="font-style:normal;font-variant:normal;font-weight:300;font-stretch:normal;font-size:3.175px;font-family:Roboto;-inkscape-font-specification:'Roboto, Light';font-variant-ligatures:normal;font-variant-caps:normal;font-variant-numeric:normal;font-variant-east-asian:normal;fill:#000000;stroke:none;stroke-width:0.264583"
         x="77.440002"
         y="95.366791">Bomba</tspan></text>
    <text
       xml:space="preserve"
       style="font-style:normal;font-variant:normal;font-weight:300;font-stretch:normal;font-size:3.175px;font-family:Roboto;-inkscape-font-specification:'Roboto, Light';font-variant-ligatures:normal;font-variant-caps:normal;font-variant-numeric:normal;font-variant-east-asian:normal;fill:#000000;stroke:none;stroke-width:0.264583;stroke-dasharray:none"
       x="113.35225"
       y="76.316788"
       id="text90318"><tspan
         sodipodi:role="line"
         id="tspan90316"
         style="font-style:normal;font-variant:normal;font-weight:300;font-stretch:normal;font-size:3.175px;font-family:Roboto;-inkscape-font-specification:'Roboto, Light';font-variant-ligatures:normal;font-variant-caps:normal;font-variant-numeric:normal;font-variant-east-asian:normal;fill:#000000;stroke:none;stroke-width:0.264583"
         x="113.35225"
         y="76.316788">Turbina</tspan></text>
  </g>
</svg>
