<?xml version="1.0" encoding="UTF-8" standalone="no"?>
<svg
   xmlns:dc="http://purl.org/dc/elements/1.1/"
   xmlns:cc="http://creativecommons.org/ns#"
   xmlns:rdf="http://www.w3.org/1999/02/22-rdf-syntax-ns#"
   xmlns:svg="http://www.w3.org/2000/svg"
   xmlns="http://www.w3.org/2000/svg"
   xmlns:xlink="http://www.w3.org/1999/xlink"
   xmlns:sodipodi="http://sodipodi.sourceforge.net/DTD/sodipodi-0.dtd"
   xmlns:inkscape="http://www.inkscape.org/namespaces/inkscape"
   width="538.93573"
   height="368.18338"
   viewBox="0 0 142.59341 97.415188"
   version="1.1"
   id="svg8"
   sodipodi:docname="a2.svg"
   inkscape:version="1.0.2 (e86c870879, 2021-01-15)">
  <defs
     id="defs2">
    <g
       id="g9013">
      <symbol
         overflow="visible"
         id="symbol9314">
        <path
           style="stroke:none"
           d=""
           id="path1796" />
      </symbol>
      <symbol
         overflow="visible"
         id="symbol888">
        <path
           style="stroke:none"
           d="m 3.734375,-6.125 c 0.0625,-0.234375 0.09375,-0.328125 0.28125,-0.359375 C 4.109375,-6.5 4.421875,-6.5 4.625,-6.5 c 0.703125,0 1.8125,0 1.8125,0.984375 0,0.34375 -0.15625,1.03125 -0.546875,1.421875 -0.265625,0.25 -0.78125,0.578125 -1.6875,0.578125 H 3.09375 Z m 1.4375,2.734375 c 1.015625,-0.21875 2.1875,-0.921875 2.1875,-1.921875 0,-0.859375 -0.890625,-1.5 -2.203125,-1.5 H 2.328125 c -0.203125,0 -0.296875,0 -0.296875,0.203125 C 2.03125,-6.5 2.125,-6.5 2.3125,-6.5 c 0.015625,0 0.203125,0 0.375,0.015625 0.1875,0.03125 0.265625,0.03125 0.265625,0.171875 0,0.03125 0,0.0625 -0.03125,0.1875 l -1.34375,5.34375 C 1.484375,-0.390625 1.46875,-0.3125 0.671875,-0.3125 0.5,-0.3125 0.40625,-0.3125 0.40625,-0.109375 0.40625,0 0.53125,0 0.546875,0 c 0.28125,0 0.984375,-0.03125 1.25,-0.03125 0.28125,0 1,0.03125 1.28125,0.03125 0.078125,0 0.1875,0 0.1875,-0.203125 0,-0.109375 -0.078125,-0.109375 -0.28125,-0.109375 -0.359375,0 -0.640625,0 -0.640625,-0.171875 0,-0.0625 0.015625,-0.109375 0.03125,-0.171875 l 0.65625,-2.640625 h 1.1875 c 0.90625,0 1.078125,0.5625 1.078125,0.90625 0,0.140625 -0.078125,0.453125 -0.140625,0.6875 C 5.09375,-1.421875 5,-1.0625 5,-0.859375 5,0.21875 6.203125,0.21875 6.328125,0.21875 c 0.84375,0 1.203125,-1 1.203125,-1.140625 0,-0.125 -0.109375,-0.125 -0.125,-0.125 -0.09375,0 -0.109375,0.0625 -0.125,0.140625 C 7.03125,-0.171875 6.59375,0 6.375,0 6.046875,0 5.96875,-0.21875 5.96875,-0.609375 c 0,-0.3125 0.0625,-0.8125 0.109375,-1.140625 0.015625,-0.140625 0.03125,-0.328125 0.03125,-0.46875 0,-0.765625 -0.671875,-1.078125 -0.9375,-1.171875 z m 0,0"
           id="path7218" />
      </symbol>
    </g>
    <g
       id="g9919">
      <symbol
         overflow="visible"
         id="symbol5555">
        <path
           style="stroke:none"
           d=""
           id="path2312" />
      </symbol>
      <symbol
         overflow="visible"
         id="symbol6564">
        <path
           style="stroke:none"
           d="M 3.734375,-6.03125 C 3.8125,-6.390625 3.84375,-6.5 4.78125,-6.5 c 0.296875,0 0.375,0 0.375,-0.1875 0,-0.125 -0.109375,-0.125 -0.15625,-0.125 -0.328125,0 -1.140625,0.03125 -1.46875,0.03125 -0.296875,0 -1.03125,-0.03125 -1.328125,-0.03125 -0.0625,0 -0.1875,0 -0.1875,0.203125 0,0.109375 0.09375,0.109375 0.28125,0.109375 0.015625,0 0.203125,0 0.375,0.015625 0.171875,0.03125 0.265625,0.03125 0.265625,0.171875 0,0.03125 0,0.0625 -0.03125,0.1875 L 1.5625,-0.78125 c -0.09375,0.390625 -0.109375,0.46875 -0.90625,0.46875 -0.171875,0 -0.265625,0 -0.265625,0.203125 C 0.390625,0 0.484375,0 0.65625,0 h 4.625 C 5.515625,0 5.515625,0 5.578125,-0.171875 L 6.375,-2.328125 c 0.03125,-0.109375 0.03125,-0.125 0.03125,-0.140625 0,-0.03125 -0.03125,-0.109375 -0.109375,-0.109375 -0.09375,0 -0.109375,0.0625 -0.171875,0.21875 -0.34375,0.90625 -0.78125,2.046875 -2.5,2.046875 H 2.6875 c -0.140625,0 -0.171875,0 -0.21875,0 -0.109375,-0.015625 -0.140625,-0.03125 -0.140625,-0.109375 0,-0.03125 0,-0.046875 0.046875,-0.21875 z m 0,0"
           id="path8568" />
      </symbol>
    </g>
    <g
       id="g5943">
      <symbol
         overflow="visible"
         id="symbol2980">
        <path
           style="stroke:none"
           d=""
           id="path6051" />
      </symbol>
      <symbol
         overflow="visible"
         id="symbol2079">
        <path
           style="stroke:none"
           d="m 5.140625,-6.8125 c 0,0 0,-0.109375 -0.125,-0.109375 -0.15625,0 -1.09375,0.09375 -1.265625,0.109375 -0.078125,0.015625 -0.140625,0.0625 -0.140625,0.1875 0,0.125 0.09375,0.125 0.234375,0.125 0.484375,0 0.5,0.0625 0.5,0.171875 L 4.3125,-6.125 3.71875,-3.765625 C 3.53125,-4.140625 3.25,-4.40625 2.796875,-4.40625 c -1.15625,0 -2.390625,1.46875 -2.390625,2.921875 0,0.9375 0.546875,1.59375 1.3125,1.59375 0.203125,0 0.703125,-0.046875 1.296875,-0.75 0.078125,0.421875 0.4375,0.75 0.90625,0.75 0.359375,0 0.578125,-0.234375 0.75,-0.546875 0.15625,-0.359375 0.296875,-0.96875 0.296875,-0.984375 0,-0.109375 -0.09375,-0.109375 -0.125,-0.109375 -0.09375,0 -0.109375,0.046875 -0.140625,0.1875 -0.171875,0.640625 -0.34375,1.234375 -0.75,1.234375 -0.28125,0 -0.296875,-0.265625 -0.296875,-0.453125 0,-0.25 0.015625,-0.3125 0.046875,-0.484375 z m -2.0625,5.625 C 3.015625,-1 3.015625,-0.984375 2.875,-0.8125 2.4375,-0.265625 2.03125,-0.109375 1.75,-0.109375 c -0.5,0 -0.640625,-0.546875 -0.640625,-0.9375 0,-0.5 0.3125,-1.71875 0.546875,-2.1875 0.3125,-0.578125 0.75,-0.953125 1.15625,-0.953125 0.640625,0 0.78125,0.8125 0.78125,0.875 0,0.0625 -0.015625,0.125 -0.03125,0.171875 z m 0,0"
           id="path4376" />
      </symbol>
      <symbol
         overflow="visible"
         id="symbol6987">
        <path
           style="stroke:none"
           d="M 3.328125,-3.015625 C 3.390625,-3.265625 3.625,-4.1875 4.3125,-4.1875 c 0.046875,0 0.296875,0 0.5,0.125 C 4.53125,-4 4.34375,-3.765625 4.34375,-3.515625 c 0,0.15625 0.109375,0.34375 0.375,0.34375 0.21875,0 0.53125,-0.171875 0.53125,-0.578125 0,-0.515625 -0.578125,-0.65625 -0.921875,-0.65625 -0.578125,0 -0.921875,0.53125 -1.046875,0.75 -0.25,-0.65625 -0.78125,-0.75 -1.078125,-0.75 -1.03125,0 -1.609375,1.28125 -1.609375,1.53125 0,0.109375 0.109375,0.109375 0.125,0.109375 0.078125,0 0.109375,-0.03125 0.125,-0.109375 0.34375,-1.0625 1,-1.3125 1.34375,-1.3125 0.1875,0 0.53125,0.09375 0.53125,0.671875 0,0.3125 -0.171875,0.96875 -0.53125,2.375 -0.15625,0.609375 -0.515625,1.03125 -0.953125,1.03125 -0.0625,0 -0.28125,0 -0.5,-0.125 0.25,-0.0625 0.46875,-0.265625 0.46875,-0.546875 0,-0.265625 -0.21875,-0.34375 -0.359375,-0.34375 -0.3125,0 -0.546875,0.25 -0.546875,0.578125 0,0.453125 0.484375,0.65625 0.921875,0.65625 0.671875,0 1.03125,-0.703125 1.046875,-0.75 0.125,0.359375 0.484375,0.75 1.078125,0.75 1.03125,0 1.59375,-1.28125 1.59375,-1.53125 0,-0.109375 -0.078125,-0.109375 -0.109375,-0.109375 -0.09375,0 -0.109375,0.046875 -0.140625,0.109375 -0.328125,1.078125 -1,1.3125 -1.3125,1.3125 -0.390625,0 -0.546875,-0.3125 -0.546875,-0.65625 0,-0.21875 0.046875,-0.4375 0.15625,-0.875 z m 0,0"
           id="path1043" />
      </symbol>
    </g>
    <g
       id="g1074">
      <symbol
         overflow="visible"
         id="symbol7973">
        <path
           style="stroke:none"
           d=""
           id="path7729" />
      </symbol>
      <symbol
         overflow="visible"
         id="symbol384">
        <path
           style="stroke:none"
           d="m 5.140625,-6.8125 c 0,0 0,-0.109375 -0.125,-0.109375 -0.15625,0 -1.09375,0.09375 -1.265625,0.109375 -0.078125,0.015625 -0.140625,0.0625 -0.140625,0.1875 0,0.125 0.09375,0.125 0.234375,0.125 0.484375,0 0.5,0.0625 0.5,0.171875 L 4.3125,-6.125 3.71875,-3.765625 C 3.53125,-4.140625 3.25,-4.40625 2.796875,-4.40625 c -1.15625,0 -2.390625,1.46875 -2.390625,2.921875 0,0.9375 0.546875,1.59375 1.3125,1.59375 0.203125,0 0.703125,-0.046875 1.296875,-0.75 0.078125,0.421875 0.4375,0.75 0.90625,0.75 0.359375,0 0.578125,-0.234375 0.75,-0.546875 0.15625,-0.359375 0.296875,-0.96875 0.296875,-0.984375 0,-0.109375 -0.09375,-0.109375 -0.125,-0.109375 -0.09375,0 -0.109375,0.046875 -0.140625,0.1875 -0.171875,0.640625 -0.34375,1.234375 -0.75,1.234375 -0.28125,0 -0.296875,-0.265625 -0.296875,-0.453125 0,-0.25 0.015625,-0.3125 0.046875,-0.484375 z m -2.0625,5.625 C 3.015625,-1 3.015625,-0.984375 2.875,-0.8125 2.4375,-0.265625 2.03125,-0.109375 1.75,-0.109375 c -0.5,0 -0.640625,-0.546875 -0.640625,-0.9375 0,-0.5 0.3125,-1.71875 0.546875,-2.1875 0.3125,-0.578125 0.75,-0.953125 1.15625,-0.953125 0.640625,0 0.78125,0.8125 0.78125,0.875 0,0.0625 -0.015625,0.125 -0.03125,0.171875 z m 0,0"
           id="path4544" />
      </symbol>
      <symbol
         overflow="visible"
         id="symbol5091">
        <path
           style="stroke:none"
           d="M 3.890625,-3.734375 C 3.625,-3.71875 3.421875,-3.5 3.421875,-3.28125 c 0,0.140625 0.09375,0.296875 0.3125,0.296875 0.21875,0 0.453125,-0.171875 0.453125,-0.5625 C 4.1875,-4 3.765625,-4.40625 3,-4.40625 c -1.3125,0 -1.6875,1.015625 -1.6875,1.453125 0,0.78125 0.734375,0.921875 1.03125,0.984375 0.515625,0.109375 1.03125,0.21875 1.03125,0.765625 0,0.25 -0.21875,1.09375 -1.421875,1.09375 -0.140625,0 -0.90625,0 -1.140625,-0.53125 0.390625,0.046875 0.640625,-0.25 0.640625,-0.53125 0,-0.21875 -0.171875,-0.34375 -0.375,-0.34375 -0.265625,0 -0.5625,0.203125 -0.5625,0.65625 0,0.5625 0.578125,0.96875 1.421875,0.96875 1.625,0 2.015625,-1.203125 2.015625,-1.65625 0,-0.359375 -0.1875,-0.609375 -0.3125,-0.71875 -0.265625,-0.28125 -0.5625,-0.34375 -1,-0.421875 -0.359375,-0.078125 -0.75,-0.15625 -0.75,-0.609375 C 1.890625,-3.578125 2.125,-4.1875 3,-4.1875 c 0.25,0 0.75,0.078125 0.890625,0.453125 z m 0,0"
           id="path6868" />
      </symbol>
    </g>
    <g
       id="g5965">
      <symbol
         overflow="visible"
         id="symbol5018">
        <path
           style="stroke:none"
           d=""
           id="path3994" />
      </symbol>
      <symbol
         overflow="visible"
         id="symbol2735">
        <path
           style="stroke:none"
           d="M 4.359375,-0.0625 C 5.90625,-0.640625 7.375,-2.421875 7.375,-4.34375 c 0,-1.609375 -1.0625,-2.6875 -2.546875,-2.6875 -2.140625,0 -4.34375,2.265625 -4.34375,4.59375 0,1.65625 1.125,2.65625 2.5625,2.65625 0.25,0 0.578125,-0.046875 0.96875,-0.15625 -0.03125,0.625 -0.03125,0.640625 -0.03125,0.78125 0,0.3125 0,1.09375 0.828125,1.09375 1.171875,0 1.65625,-1.828125 1.65625,-1.9375 0,-0.0625 -0.0625,-0.09375 -0.109375,-0.09375 -0.078125,0 -0.09375,0.046875 -0.125,0.109375 C 6,0.71875 5.421875,0.96875 5.078125,0.96875 c -0.46875,0 -0.609375,-0.265625 -0.71875,-1.03125 z m -1.875,-0.078125 c -0.78125,-0.3125 -1.125,-1.078125 -1.125,-1.984375 0,-0.6875 0.265625,-2.109375 1.015625,-3.171875 C 3.109375,-6.3125 4.046875,-6.78125 4.78125,-6.78125 5.765625,-6.78125 6.5,-6 6.5,-4.671875 c 0,1 -0.515625,3.34375 -2.1875,4.265625 -0.046875,-0.34375 -0.140625,-1.0625 -0.875,-1.0625 -0.53125,0 -1.015625,0.484375 -1.015625,1.015625 0,0.1875 0.0625,0.296875 0.0625,0.3125 z M 3.09375,-0.03125 c -0.140625,0 -0.453125,0 -0.453125,-0.421875 0,-0.40625 0.375,-0.796875 0.796875,-0.796875 0.421875,0 0.609375,0.234375 0.609375,0.84375 0,0.140625 -0.015625,0.15625 -0.109375,0.203125 C 3.671875,-0.09375 3.375,-0.03125 3.09375,-0.03125 Z m 0,0"
           id="path5701" />
      </symbol>
    </g>
    <g
       id="g9776">
      <symbol
         overflow="visible"
         id="symbol7510">
        <path
           style="stroke:none"
           d=""
           id="path1650" />
      </symbol>
      <symbol
         overflow="visible"
         id="symbol1408">
        <path
           style="stroke:none"
           d="M 3.328125,-3.015625 C 3.390625,-3.265625 3.625,-4.1875 4.3125,-4.1875 c 0.046875,0 0.296875,0 0.5,0.125 C 4.53125,-4 4.34375,-3.765625 4.34375,-3.515625 c 0,0.15625 0.109375,0.34375 0.375,0.34375 0.21875,0 0.53125,-0.171875 0.53125,-0.578125 0,-0.515625 -0.578125,-0.65625 -0.921875,-0.65625 -0.578125,0 -0.921875,0.53125 -1.046875,0.75 -0.25,-0.65625 -0.78125,-0.75 -1.078125,-0.75 -1.03125,0 -1.609375,1.28125 -1.609375,1.53125 0,0.109375 0.109375,0.109375 0.125,0.109375 0.078125,0 0.109375,-0.03125 0.125,-0.109375 0.34375,-1.0625 1,-1.3125 1.34375,-1.3125 0.1875,0 0.53125,0.09375 0.53125,0.671875 0,0.3125 -0.171875,0.96875 -0.53125,2.375 -0.15625,0.609375 -0.515625,1.03125 -0.953125,1.03125 -0.0625,0 -0.28125,0 -0.5,-0.125 0.25,-0.0625 0.46875,-0.265625 0.46875,-0.546875 0,-0.265625 -0.21875,-0.34375 -0.359375,-0.34375 -0.3125,0 -0.546875,0.25 -0.546875,0.578125 0,0.453125 0.484375,0.65625 0.921875,0.65625 0.671875,0 1.03125,-0.703125 1.046875,-0.75 0.125,0.359375 0.484375,0.75 1.078125,0.75 1.03125,0 1.59375,-1.28125 1.59375,-1.53125 0,-0.109375 -0.078125,-0.109375 -0.109375,-0.109375 -0.09375,0 -0.109375,0.046875 -0.140625,0.109375 -0.328125,1.078125 -1,1.3125 -1.3125,1.3125 -0.390625,0 -0.546875,-0.3125 -0.546875,-0.65625 0,-0.21875 0.046875,-0.4375 0.15625,-0.875 z m 0,0"
           id="path235" />
      </symbol>
    </g>
    <g
       id="g9160">
      <symbol
         overflow="visible"
         id="symbol2487">
        <path
           style="stroke:none;"
           d=""
           id="path6155" />
      </symbol>
      <symbol
         overflow="visible"
         id="symbol3368">
        <path
           style="stroke:none;"
           d="M 5.140625 -6.8125 C 5.140625 -6.8125 5.140625 -6.921875 5.015625 -6.921875 C 4.859375 -6.921875 3.921875 -6.828125 3.75 -6.8125 C 3.671875 -6.796875 3.609375 -6.75 3.609375 -6.625 C 3.609375 -6.5 3.703125 -6.5 3.84375 -6.5 C 4.328125 -6.5 4.34375 -6.4375 4.34375 -6.328125 L 4.3125 -6.125 L 3.71875 -3.765625 C 3.53125 -4.140625 3.25 -4.40625 2.796875 -4.40625 C 1.640625 -4.40625 0.40625 -2.9375 0.40625 -1.484375 C 0.40625 -0.546875 0.953125 0.109375 1.71875 0.109375 C 1.921875 0.109375 2.421875 0.0625 3.015625 -0.640625 C 3.09375 -0.21875 3.453125 0.109375 3.921875 0.109375 C 4.28125 0.109375 4.5 -0.125 4.671875 -0.4375 C 4.828125 -0.796875 4.96875 -1.40625 4.96875 -1.421875 C 4.96875 -1.53125 4.875 -1.53125 4.84375 -1.53125 C 4.75 -1.53125 4.734375 -1.484375 4.703125 -1.34375 C 4.53125 -0.703125 4.359375 -0.109375 3.953125 -0.109375 C 3.671875 -0.109375 3.65625 -0.375 3.65625 -0.5625 C 3.65625 -0.8125 3.671875 -0.875 3.703125 -1.046875 Z M 3.078125 -1.1875 C 3.015625 -1 3.015625 -0.984375 2.875 -0.8125 C 2.4375 -0.265625 2.03125 -0.109375 1.75 -0.109375 C 1.25 -0.109375 1.109375 -0.65625 1.109375 -1.046875 C 1.109375 -1.546875 1.421875 -2.765625 1.65625 -3.234375 C 1.96875 -3.8125 2.40625 -4.1875 2.8125 -4.1875 C 3.453125 -4.1875 3.59375 -3.375 3.59375 -3.3125 C 3.59375 -3.25 3.578125 -3.1875 3.5625 -3.140625 Z M 3.078125 -1.1875 "
           id="path3672" />
      </symbol>
    </g>
  </defs>
  <sodipodi:namedview
     id="base"
     pagecolor="#ffffff"
     bordercolor="#666666"
     borderopacity="1.0"
     inkscape:pageopacity="0.0"
     inkscape:pageshadow="2"
     inkscape:zoom="1.4142136"
     inkscape:cx="385.41695"
     inkscape:cy="166.25321"
     inkscape:document-units="px"
     inkscape:current-layer="layer1"
     inkscape:document-rotation="0"
     showgrid="true"
     units="px"
     borderlayer="true"
     inkscape:showpageshadow="false"
     inkscape:window-width="1920"
     inkscape:window-height="1050"
     inkscape:window-x="1920"
     inkscape:window-y="18"
     inkscape:window-maximized="1"
     showguides="true"
     inkscape:guide-bbox="true">
    <inkscape:grid
       type="axonomgrid"
       id="grid833"
       originx="-43.271227"
       originy="-102.60982" />
    <sodipodi:guide
       position="85.044872,43.920842"
       orientation="1,0"
       id="guide861" />
    <sodipodi:guide
       position="85.044872,43.920842"
       orientation="-0.5,-0.8660254"
       id="guide863" />
    <sodipodi:guide
       position="85.044872,43.920842"
       orientation="0.5,-0.8660254"
       id="guide865" />
    <sodipodi:guide
       position="91.918942,54.504172"
       orientation="0,-1"
       id="guide895" />
    <sodipodi:guide
       position="91.154892,54.504172"
       orientation="1,0"
       id="guide897" />
    <sodipodi:guide
       position="80.462152,33.337512"
       orientation="0,-1"
       id="guide899" />
    <sodipodi:guide
       position="78.934232,33.337512"
       orientation="1,0"
       id="guide901" />
    <sodipodi:guide
       position="72.817692,22.769201"
       orientation="-0.5,-0.8660254"
       id="guide931" />
    <sodipodi:guide
       position="97.263932,65.096562"
       orientation="-0.5,-0.8660254"
       id="guide933" />
    <sodipodi:guide
       position="58.694242,56.488552"
       orientation="-0.5,-0.8660254"
       id="guide1043" />
    <sodipodi:guide
       position="66.713992,33.337512"
       orientation="-0.5,-0.8660254"
       id="guide1779" />
  </sodipodi:namedview>
  <metadata
     id="metadata5">
    <rdf:RDF>
      <cc:Work
         rdf:about="">
        <dc:format>image/svg+xml</dc:format>
        <dc:type
           rdf:resource="http://purl.org/dc/dcmitype/StillImage" />
        <dc:title />
      </cc:Work>
    </rdf:RDF>
  </metadata>
  <g
     inkscape:label="Capa 1"
     inkscape:groupmode="layer"
     id="layer1"
     transform="translate(-43.271228,-102.60982)">
    <path
       style="fill:none;fill-opacity:0.988235;stroke:#800000;stroke-width:0.529167;stroke-linecap:round;stroke-linejoin:round;stroke-miterlimit:4;stroke-dasharray:none;paint-order:markers fill stroke"
       id="path957"
       sodipodi:type="arc"
       sodipodi:cx="97.382759"
       sodipodi:cy="138.24478"
       sodipodi:rx="36.661743"
       sodipodi:ry="36.661743"
       sodipodi:start="0"
       sodipodi:end="1.0471976"
       sodipodi:open="true"
       sodipodi:arc-type="arc"
       d="m 134.0445,138.24478 a 36.661743,36.661743 0 0 1 -18.33087,31.75" />
    <path
       style="fill:#ff0000;fill-opacity:0.988235;stroke:none;stroke-width:0.499999;stroke-linecap:round;stroke-linejoin:round;stroke-miterlimit:4;stroke-dasharray:2, 0.999999, 0.499999, 0.999999;stroke-dashoffset:0;paint-order:markers fill stroke"
       d="m 419.33726,645.78543 c -1.06627,-2.55196 -0.77729,-3.13204 2.03732,-4.08963 7.97928,-2.71472 20.8748,-11.32187 32,-21.35849 8.71713,-7.86418 17.93443,-18.88239 23.85047,-28.51045 3.41906,-4.32685 4.99209,-8.47283 6.85761,-12.29912 7.0922,-14.51195 10.97115,-27.03232 13.33587,-43.04517 1.11417,-7.54466 1.43795,-22.17313 0.59457,-26.86315 l -0.68915,-3.83244 1.46281,-0.29256 c 3.26042,-0.65209 3.70679,-0.44715 4.5358,2.08244 2.54408,7.76281 3.07968,18.63257 1.53364,31.125 -1.99327,16.10617 -5.85503,29.10569 -13.10959,44.12968 -5.90635,13.66847 -15.36132,25.82609 -26.09853,36.75767 -14.55654,14.61049 -31.45568,25.44122 -42.91877,27.50683 l -2.64527,0.47667 z"
       id="path1061"
       transform="scale(0.26458333)"
       sodipodi:nodetypes="sssccsscsssccscs" />
    <path
       style="fill:none;fill-opacity:0.988235;stroke:#800000;stroke-width:0.529167;stroke-linecap:round;stroke-linejoin:round;stroke-miterlimit:4;stroke-dasharray:none;paint-order:markers fill stroke"
       id="path943"
       sodipodi:type="arc"
       sodipodi:cx="95.091393"
       sodipodi:cy="136.92188"
       sodipodi:rx="36.661743"
       sodipodi:ry="36.661743"
       sodipodi:start="0"
       sodipodi:end="1.0471976"
       sodipodi:open="true"
       sodipodi:arc-type="arc"
       d="m 131.75314,136.92187 a 36.661743,36.661743 0 0 1 -18.33088,31.75001" />
    <path
       style="fill:none;fill-opacity:0.988235;stroke:#0000ff;stroke-width:1.05833;stroke-linecap:round;stroke-linejoin:round;stroke-miterlimit:4;stroke-dasharray:4.23333, 2.11667, 1.05833, 2.11667;stroke-dashoffset:0;paint-order:markers fill stroke"
       d="m 115.02622,148.43126 52.24298,30.16249"
       id="path1047"
       sodipodi:nodetypes="cc" />
    <path
       style="fill:none;fill-opacity:0.988235;stroke:#000000;stroke-width:1.05833;stroke-linecap:round;stroke-linejoin:round;stroke-miterlimit:4;stroke-dasharray:none;paint-order:markers fill stroke"
       id="path891"
       sodipodi:type="arc"
       sodipodi:cx="146.64697"
       sodipodi:cy="166.6875"
       sodipodi:rx="36.661743"
       sodipodi:ry="36.661743"
       sodipodi:start="3.1415927"
       sodipodi:end="4.1887902"
       sodipodi:open="true"
       sodipodi:arc-type="arc"
       d="m 109.98523,166.6875 a 36.661743,36.661743 0 0 1 18.33087,-31.75" />
    <path
       style="fill:none;fill-opacity:0.988235;stroke:#000000;stroke-width:1.05833;stroke-linecap:round;stroke-linejoin:round;stroke-miterlimit:4;stroke-dasharray:none;paint-order:markers fill stroke"
       id="path893"
       sodipodi:type="arc"
       sodipodi:cx="109.98523"
       sodipodi:cy="145.52083"
       sodipodi:rx="36.661743"
       sodipodi:ry="36.661743"
       sodipodi:start="0"
       sodipodi:end="1.0471976"
       sodipodi:open="true"
       sodipodi:arc-type="arc"
       d="m 146.64697,145.52083 a 36.661743,36.661743 0 0 1 -18.33087,31.75" />
    <g
       style="fill:#000000;fill-opacity:1"
       id="g3382"
       transform="translate(80.936067,116.66146)">
      <use
         xlink:href="#symbol888"
         x="91.925003"
         y="81.962997"
         id="use8567"
         width="100%"
         height="100%" />
    </g>
    <path
       style="fill:none;fill-opacity:0.988235;stroke:#000000;stroke-width:1.05833;stroke-linecap:round;stroke-linejoin:round;stroke-miterlimit:4;stroke-dasharray:none;paint-order:markers fill stroke"
       id="path919"
       sodipodi:type="arc"
       sodipodi:cx="98.528435"
       sodipodi:cy="138.90625"
       sodipodi:rx="36.661743"
       sodipodi:ry="36.661743"
       sodipodi:start="3.1415927"
       sodipodi:end="4.1887902"
       sodipodi:open="true"
       sodipodi:arc-type="arc"
       d="m 61.866692,138.90625 a 36.661743,36.661743 0 0 1 18.330871,-31.75" />
    <path
       style="fill:none;fill-opacity:0.988235;stroke:#000000;stroke-width:0.529167;stroke-linecap:round;stroke-linejoin:round;stroke-miterlimit:4;stroke-dasharray:0.529167, 1.05833;stroke-dashoffset:0;paint-order:markers fill stroke"
       id="path921"
       sodipodi:type="arc"
       sodipodi:cx="61.866692"
       sodipodi:cy="117.73958"
       sodipodi:rx="36.661743"
       sodipodi:ry="36.661743"
       sodipodi:start="0"
       sodipodi:end="1.0471976"
       sodipodi:open="true"
       sodipodi:arc-type="arc"
       d="m 98.528435,117.73958 a 36.661743,36.661743 0 0 1 -18.330873,31.75" />
    <path
       style="fill:none;fill-opacity:0.988235;stroke:#000000;stroke-width:0.529167;stroke-linecap:round;stroke-linejoin:round;stroke-miterlimit:4;stroke-dasharray:0.529167, 1.05833;stroke-dashoffset:0;paint-order:markers fill stroke"
       id="path923"
       sodipodi:type="arc"
       sodipodi:cx="86.307579"
       sodipodi:cy="117.73958"
       sodipodi:rx="12.220659"
       sodipodi:ry="12.220659"
       sodipodi:start="5.2359878"
       sodipodi:end="0"
       sodipodi:arc-type="arc"
       sodipodi:open="true"
       d="m 92.417909,107.15618 a 12.220659,12.220659 0 0 1 6.110329,10.5834" />
    <path
       style="fill:none;fill-opacity:0.988235;stroke:#000000;stroke-width:0.529167;stroke-linecap:round;stroke-linejoin:round;stroke-miterlimit:4;stroke-dasharray:0.529167, 1.05833;stroke-dashoffset:0;paint-order:markers fill stroke"
       id="path925"
       sodipodi:type="arc"
       sodipodi:cx="74.086922"
       sodipodi:cy="138.90625"
       sodipodi:rx="12.220659"
       sodipodi:ry="12.220659"
       sodipodi:start="1.0471976"
       sodipodi:end="2.0943951"
       sodipodi:open="true"
       sodipodi:arc-type="arc"
       d="m 80.197251,149.48965 a 12.220659,12.220659 0 0 1 -12.220659,0" />
    <path
       style="fill:none;fill-opacity:0.988235;stroke:#800000;stroke-width:0.529167;stroke-linecap:round;stroke-linejoin:round;stroke-miterlimit:4;stroke-dasharray:none;paint-order:markers fill stroke"
       id="path941"
       sodipodi:type="arc"
       sodipodi:cx="131.75314"
       sodipodi:cy="158.08855"
       sodipodi:rx="36.661743"
       sodipodi:ry="36.661743"
       sodipodi:start="3.1415927"
       sodipodi:end="4.1887902"
       sodipodi:open="true"
       sodipodi:arc-type="arc"
       d="m 95.0914,158.08855 a 36.661743,36.661743 0 0 1 18.33087,-31.75" />
    <path
       style="fill:none;fill-opacity:0.988235;stroke:#800000;stroke-width:0.529167;stroke-linecap:round;stroke-linejoin:round;stroke-miterlimit:4;stroke-dasharray:0.529167, 1.05833;stroke-dashoffset:0;paint-order:markers fill stroke"
       id="path945"
       sodipodi:type="arc"
       sodipodi:cx="119.53228"
       sodipodi:cy="136.92188"
       sodipodi:rx="12.220659"
       sodipodi:ry="12.220659"
       sodipodi:start="5.2359878"
       sodipodi:end="6.0175288"
       sodipodi:arc-type="arc"
       sodipodi:open="true"
       d="m 125.64261,126.33847 a 12.220659,12.220659 0 0 1 5.68163,7.37496" />
    <path
       style="fill:none;fill-opacity:0.988235;stroke:#800000;stroke-width:0.529167;stroke-linecap:round;stroke-linejoin:round;stroke-miterlimit:4;stroke-dasharray:0.529167, 1.05833;stroke-dashoffset:0;paint-order:markers fill stroke"
       id="path947"
       sodipodi:type="arc"
       sodipodi:cx="107.31162"
       sodipodi:cy="158.08855"
       sodipodi:rx="12.220659"
       sodipodi:ry="12.220659"
       sodipodi:start="1.3146615"
       sodipodi:end="2.0943951"
       sodipodi:open="true"
       sodipodi:arc-type="arc"
       d="m 110.40765,169.91052 a 12.220659,12.220659 0 0 1 -9.20636,-1.23857" />
    <path
       style="fill:none;fill-opacity:0.988235;stroke:#800000;stroke-width:0.529167;stroke-linecap:round;stroke-linejoin:round;stroke-miterlimit:4;stroke-dasharray:none;paint-order:markers fill stroke"
       id="path955"
       sodipodi:type="arc"
       sodipodi:cx="134.04449"
       sodipodi:cy="159.41145"
       sodipodi:rx="36.661743"
       sodipodi:ry="36.661743"
       sodipodi:start="3.1415927"
       sodipodi:end="4.1887902"
       sodipodi:open="true"
       sodipodi:arc-type="arc"
       d="m 97.382751,159.41145 a 36.661743,36.661743 0 0 1 18.330869,-31.75" />
    <path
       style="fill:none;fill-opacity:0.988235;stroke:#800000;stroke-width:0.529167;stroke-linecap:round;stroke-linejoin:round;stroke-miterlimit:4;stroke-dasharray:0.529167, 1.05833;stroke-dashoffset:0;paint-order:markers fill stroke"
       id="path959"
       sodipodi:type="arc"
       sodipodi:cx="121.82365"
       sodipodi:cy="138.24478"
       sodipodi:rx="12.220659"
       sodipodi:ry="12.220659"
       sodipodi:start="5.2359878"
       sodipodi:end="5.8750972"
       sodipodi:arc-type="arc"
       sodipodi:open="true"
       d="m 127.93398,127.66138 a 12.220659,12.220659 0 0 1 5.10678,5.73357" />
    <path
       style="fill:none;fill-opacity:0.988235;stroke:#800000;stroke-width:0.529167;stroke-linecap:round;stroke-linejoin:round;stroke-miterlimit:4;stroke-dasharray:0.529167, 1.05833;stroke-dashoffset:0;paint-order:markers fill stroke"
       id="path961"
       sodipodi:type="arc"
       sodipodi:cx="109.60299"
       sodipodi:cy="159.41145"
       sodipodi:rx="12.220659"
       sodipodi:ry="12.220659"
       sodipodi:start="1.4564533"
       sodipodi:end="2.0943951"
       sodipodi:open="true"
       sodipodi:arc-type="arc"
       d="m 110.99729,171.55231 a 12.220659,12.220659 0 0 1 -7.50463,-1.55746" />
    <path
       style="fill:none;fill-opacity:0.988235;stroke:#800000;stroke-width:0.529167;stroke-linecap:round;stroke-linejoin:round;stroke-miterlimit:4;stroke-dasharray:none;paint-order:markers fill stroke"
       d="m 100.05431,139.78721 2.23817,1.29221"
       id="path929-3"
       sodipodi:nodetypes="cc" />
    <path
       style="fill:none;fill-opacity:0.988235;stroke:#800000;stroke-width:0.529167;stroke-linecap:round;stroke-linejoin:round;stroke-miterlimit:4;stroke-dasharray:none;paint-order:markers fill stroke"
       d="m 98.941787,141.79073 2.236293,1.29112"
       id="path929-6"
       sodipodi:nodetypes="cc" />
    <path
       style="fill:none;fill-opacity:0.988235;stroke:#000000;stroke-width:1.05833;stroke-linecap:round;stroke-linejoin:round;stroke-miterlimit:4;stroke-dasharray:none;paint-order:markers fill stroke"
       id="path1023"
       sodipodi:type="arc"
       sodipodi:cx="86.307579"
       sodipodi:cy="117.73958"
       sodipodi:rx="12.220659"
       sodipodi:ry="12.220659"
       sodipodi:start="4.1887902"
       sodipodi:end="5.2359878"
       sodipodi:arc-type="arc"
       sodipodi:open="true"
       d="m 80.197249,107.15618 a 12.220659,12.220659 0 0 1 12.22066,0" />
    <path
       style="fill:none;fill-opacity:0.988235;stroke:#000000;stroke-width:1.05833;stroke-linecap:round;stroke-linejoin:round;stroke-miterlimit:4;stroke-dasharray:none;paint-order:markers fill stroke"
       id="path1025"
       sodipodi:type="arc"
       sodipodi:cx="74.086922"
       sodipodi:cy="138.90625"
       sodipodi:rx="12.220659"
       sodipodi:ry="12.220659"
       sodipodi:start="2.0943951"
       sodipodi:end="3.1415927"
       sodipodi:open="true"
       sodipodi:arc-type="arc"
       d="m 67.976592,149.48965 a 12.220659,12.220659 0 0 1 -6.11033,-10.5834" />
    <path
       style="fill:none;fill-opacity:0.988235;stroke:#800000;stroke-width:0.529167;stroke-linecap:round;stroke-linejoin:round;stroke-miterlimit:4;stroke-dasharray:none;paint-order:markers fill stroke"
       id="path1027"
       sodipodi:type="arc"
       sodipodi:cx="107.31162"
       sodipodi:cy="158.08855"
       sodipodi:rx="12.220659"
       sodipodi:ry="12.220659"
       sodipodi:start="2.0943951"
       sodipodi:end="3.1415927"
       sodipodi:open="true"
       sodipodi:arc-type="arc"
       d="m 101.20129,168.67195 a 12.220659,12.220659 0 0 1 -6.110327,-10.5834" />
    <path
       style="fill:none;fill-opacity:0.988235;stroke:#800000;stroke-width:0.529167;stroke-linecap:round;stroke-linejoin:round;stroke-miterlimit:4;stroke-dasharray:none;paint-order:markers fill stroke"
       id="path1029"
       sodipodi:type="arc"
       sodipodi:cx="109.60299"
       sodipodi:cy="159.41145"
       sodipodi:rx="12.220659"
       sodipodi:ry="12.220659"
       sodipodi:start="2.0943951"
       sodipodi:end="3.1415927"
       sodipodi:open="true"
       sodipodi:arc-type="arc"
       d="m 103.49266,169.99485 a 12.220659,12.220659 0 0 1 -6.11033,-10.5834" />
    <path
       style="fill:none;fill-opacity:0.988235;stroke:#800000;stroke-width:0.529167;stroke-linecap:round;stroke-linejoin:round;stroke-miterlimit:4;stroke-dasharray:none;paint-order:markers fill stroke"
       id="path1031"
       sodipodi:type="arc"
       sodipodi:cx="119.53228"
       sodipodi:cy="136.92188"
       sodipodi:rx="12.220659"
       sodipodi:ry="12.220659"
       sodipodi:start="4.1887902"
       sodipodi:end="5.2359878"
       sodipodi:arc-type="arc"
       sodipodi:open="true"
       d="m 113.42195,126.33847 a 12.220659,12.220659 0 0 1 12.22066,0" />
    <path
       style="fill:none;fill-opacity:0.988235;stroke:#800000;stroke-width:0.529167;stroke-linecap:round;stroke-linejoin:round;stroke-miterlimit:4;stroke-dasharray:none;paint-order:markers fill stroke"
       id="path1033"
       sodipodi:type="arc"
       sodipodi:cx="121.82365"
       sodipodi:cy="138.24478"
       sodipodi:rx="12.220659"
       sodipodi:ry="12.220659"
       sodipodi:start="4.1887902"
       sodipodi:end="5.2359878"
       sodipodi:arc-type="arc"
       sodipodi:open="true"
       d="m 115.71332,127.66138 a 12.220659,12.220659 0 0 1 12.22066,0" />
    <path
       style="fill:none;fill-opacity:0.988235;stroke:#800000;stroke-width:0.529167;stroke-linecap:round;stroke-linejoin:round;stroke-miterlimit:4;stroke-dasharray:none;stroke-dashoffset:0;paint-order:markers fill stroke"
       id="path1035"
       sodipodi:type="arc"
       sodipodi:cx="119.53228"
       sodipodi:cy="136.92188"
       sodipodi:rx="12.220659"
       sodipodi:ry="12.220659"
       sodipodi:start="6.0164573"
       sodipodi:end="0"
       sodipodi:arc-type="arc"
       sodipodi:open="true"
       d="m 131.3208,133.7008 a 12.220659,12.220659 0 0 1 0.43214,3.22107" />
    <path
       style="fill:none;fill-opacity:0.988235;stroke:#800000;stroke-width:0.529167;stroke-linecap:round;stroke-linejoin:round;stroke-miterlimit:4;stroke-dasharray:none;stroke-dashoffset:0;paint-order:markers fill stroke"
       id="path1037"
       sodipodi:type="arc"
       sodipodi:cx="121.82365"
       sodipodi:cy="138.24478"
       sodipodi:rx="12.220659"
       sodipodi:ry="12.220659"
       sodipodi:start="5.873943"
       sodipodi:end="0"
       sodipodi:arc-type="arc"
       sodipodi:open="true"
       d="m 133.03516,133.38201 a 12.220659,12.220659 0 0 1 1.00915,4.86277" />
    <path
       style="fill:none;fill-opacity:0.988235;stroke:#800000;stroke-width:0.529167;stroke-linecap:round;stroke-linejoin:round;stroke-miterlimit:4;stroke-dasharray:none;stroke-dashoffset:0;paint-order:markers fill stroke"
       id="path1039"
       sodipodi:type="arc"
       sodipodi:cx="107.31162"
       sodipodi:cy="158.08855"
       sodipodi:rx="12.220659"
       sodipodi:ry="12.220659"
       sodipodi:start="1.0471976"
       sodipodi:end="1.3145758"
       sodipodi:open="true"
       sodipodi:arc-type="arc"
       d="m 113.42195,168.67195 a 12.220659,12.220659 0 0 1 -3.01329,1.23831" />
    <path
       style="fill:none;fill-opacity:0.988235;stroke:#800000;stroke-width:0.529167;stroke-linecap:round;stroke-linejoin:round;stroke-miterlimit:4;stroke-dasharray:none;stroke-dashoffset:0;paint-order:markers fill stroke"
       id="path1041"
       sodipodi:type="arc"
       sodipodi:cx="109.60299"
       sodipodi:cy="159.41145"
       sodipodi:rx="12.220659"
       sodipodi:ry="12.220659"
       sodipodi:start="1.0471976"
       sodipodi:end="1.4544265"
       sodipodi:open="true"
       sodipodi:arc-type="arc"
       d="m 115.71332,169.99485 a 12.220659,12.220659 0 0 1 -4.69142,1.55461" />
    <path
       style="fill:none;fill-opacity:0.988235;stroke:#0000ff;stroke-width:1.05833;stroke-linecap:round;stroke-linejoin:round;stroke-miterlimit:4;stroke-dasharray:4.23333, 2.11667, 1.05833, 2.11667;stroke-dashoffset:0;paint-order:markers fill stroke"
       d="M 56.138291,114.43229 66.907679,120.65"
       id="path1049" />
    <path
       style="fill:#800000;fill-opacity:0.988235;stroke:none;stroke-width:0.25;stroke-linecap:round;stroke-linejoin:round;stroke-miterlimit:4;stroke-dasharray:0.999999, 0.499999, 0.25, 0.499999;stroke-dashoffset:0;paint-order:markers fill stroke"
       d="m 378.48193,537.77044 -3.78392,-2.18649 1.50688,-2.85651 c 0.82878,-1.57108 1.65445,-3.01134 1.83482,-3.20058 0.27609,-0.28967 0.89469,-0.0172 3.91245,1.72358 1.97147,1.13721 3.62049,2.09679 3.66448,2.13239 0.044,0.0356 -0.69194,1.52934 -1.6354,3.31942 l -1.71538,3.25468 z"
       id="path1055"
       transform="scale(0.26458333)" />
    <path
       style="fill:#ff0000;fill-opacity:0.988235;stroke:none;stroke-width:0.499999;stroke-linecap:round;stroke-linejoin:round;stroke-miterlimit:4;stroke-dasharray:2, 0.999999, 0.499999, 0.999999;stroke-dashoffset:0;paint-order:markers fill stroke"
       d="m 382.8378,530.1125 c -1.90477,-1.10294 -3.54578,-2.08535 -3.64668,-2.18313 -0.35916,-0.34802 7.32194,-11.56397 11.45562,-16.72751 11.27276,-14.08128 28.20363,-28.08892 41.72784,-34.52322 7.53204,-3.58346 10.56009,-4.22592 19.75,-4.1903 6.95613,0.027 8.20418,0.169 12.18385,1.38664 2.43861,0.74613 5.02611,1.68473 5.75,2.08579 1.26334,0.69992 1.22586,0.71437 -0.93385,0.36013 -1.2375,-0.20297 -5.5125,-0.35651 -9.5,-0.3412 -5.92519,0.0228 -7.98093,0.23249 -11.25,1.14774 -10.14658,2.84078 -24.92419,12.33265 -37.30704,23.96284 -7.98454,7.49921 -16.36634,17.64848 -22.04667,26.69563 l -2.71984,4.33194 z"
       id="path1057"
       transform="scale(0.26458333)" />
    <path
       style="fill:#ff0000;fill-opacity:0.988235;stroke:none;stroke-width:0.499999;stroke-linecap:round;stroke-linejoin:round;stroke-miterlimit:4;stroke-dasharray:2, 0.999999, 0.499999, 0.999999;stroke-dashoffset:0;paint-order:markers fill stroke"
       d="m 376.07385,631.83592 c -8.24497,-7.19233 -13.32198,-16.19906 -15.19918,-26.9637 -2.05398,-11.77843 0.45465,-32.44892 6.03185,-49.70094 2.00032,-6.18761 6.54368,-17.30263 7.25137,-17.74001 0.5975,-0.36928 6.96669,3.33948 6.96669,4.05667 0,0.3152 -0.7625,2.23602 -1.69444,4.2685 -6.50209,14.18043 -10.64855,31.16311 -11.77853,48.24144 -0.63613,9.61426 -0.0919,16.36047 1.80525,22.37764 1.93712,6.14399 5.30042,12.39484 8.57988,15.94612 2.14274,2.32034 0.90186,2.01329 -1.96289,-0.48572 z"
       id="path1059"
       transform="scale(0.26458333)" />
    <path
       style="fill:none;fill-opacity:0.988235;stroke:#000000;stroke-width:0.529167;stroke-linecap:round;stroke-linejoin:round;stroke-miterlimit:4;stroke-dasharray:none;stroke-dashoffset:0;paint-order:markers fill stroke"
       d="m 49.264216,146.18229 48.118537,27.78125"
       id="path1067"
       sodipodi:nodetypes="cc" />
    <path
       style="fill:none;fill-opacity:0.988235;stroke:#000000;stroke-width:1.05833;stroke-linecap:round;stroke-linejoin:round;stroke-miterlimit:4;stroke-dasharray:none;paint-order:markers fill stroke"
       d="m 92.416622,107.14719 48.118538,27.78125"
       id="path935" />
    <path
       style="fill:none;fill-opacity:0.988235;stroke:#000000;stroke-width:1.05833;stroke-linecap:round;stroke-linejoin:round;stroke-miterlimit:4;stroke-dasharray:none;paint-order:markers fill stroke"
       d="m 67.970386,149.47456 48.118534,27.78125"
       id="path929" />
    <path
       style="fill:none;fill-opacity:0.988235;stroke:#000000;stroke-width:1.05833;stroke-linecap:round;stroke-linejoin:round;stroke-miterlimit:4;stroke-dasharray:none;paint-order:markers fill stroke"
       id="path905"
       sodipodi:type="arc"
       sodipodi:cx="122.20546"
       sodipodi:cy="166.6875"
       sodipodi:rx="12.220659"
       sodipodi:ry="12.220659"
       sodipodi:start="1.0471976"
       sodipodi:end="3.1415927"
       sodipodi:open="true"
       sodipodi:arc-type="arc"
       d="m 128.31579,177.2709 a 12.220659,12.220659 0 0 1 -12.22066,0 12.220659,12.220659 0 0 1 -6.11033,-10.5834" />
    <path
       style="fill:none;fill-opacity:0.988235;stroke:#000000;stroke-width:1.05833;stroke-linecap:round;stroke-linejoin:round;stroke-miterlimit:4;stroke-dasharray:none;paint-order:markers fill stroke"
       id="path903"
       sodipodi:type="arc"
       sodipodi:cx="134.42612"
       sodipodi:cy="145.52083"
       sodipodi:rx="12.220659"
       sodipodi:ry="12.220659"
       sodipodi:start="4.1887902"
       sodipodi:end="0"
       sodipodi:arc-type="arc"
       sodipodi:open="true"
       d="m 128.31579,134.93743 a 12.220659,12.220659 0 0 1 12.22066,0 12.220659,12.220659 0 0 1 6.11033,10.5834" />
    <path
       style="fill:none;fill-opacity:0.988235;stroke:#000000;stroke-width:0.529167;stroke-linecap:round;stroke-linejoin:round;stroke-miterlimit:4;stroke-dasharray:1.5875, 1.5875;stroke-dashoffset:0;paint-order:markers fill stroke"
       d="m 109.98523,166.6875 -9.16544,5.29167"
       id="path1069" />
    <path
       style="fill:none;fill-opacity:0.988235;stroke:#000000;stroke-width:0.529167;stroke-linecap:round;stroke-linejoin:round;stroke-miterlimit:4;stroke-dasharray:none;stroke-dashoffset:0;paint-order:markers fill stroke"
       d="m 100.81979,171.97917 -9.165439,5.29167"
       id="path1091" />
    <path
       style="fill:none;fill-opacity:0.988235;stroke:#000000;stroke-width:0.529167;stroke-linecap:round;stroke-linejoin:round;stroke-miterlimit:4;stroke-dasharray:1.5875, 1.5875;stroke-dashoffset:0;paint-order:markers fill stroke"
       d="m 61.86669,138.90625 -9.16544,5.29167"
       id="path1069-5" />
    <path
       style="fill:none;fill-opacity:0.988235;stroke:#000000;stroke-width:0.529167;stroke-linecap:round;stroke-linejoin:round;stroke-miterlimit:4;stroke-dasharray:none;stroke-dashoffset:0;paint-order:markers fill stroke"
       d="m 52.70125,144.19792 -9.165439,5.29167"
       id="path1091-3" />
    <g
       inkscape:label=""
       transform="translate(-29.288589,86.994792)"
       id="g1188">
      <g
         id="g5565">
        <g
           style="fill:#000000;fill-opacity:1"
           id="g8144">
          <use
             xlink:href="#symbol6564"
             x="91.925003"
             y="81.962997"
             id="use7567"
             width="100%"
             height="100%" />
        </g>
      </g>
    </g>
    <g
       inkscape:label=""
       transform="translate(11.500319,27.678073)"
       id="g1548">
      <g
         id="g8603">
        <g
           style="fill:#000000;fill-opacity:1"
           id="g8007">
          <use
             xlink:href="#symbol2735"
             x="91.925003"
             y="81.962997"
             id="use8491"
             width="100%"
             height="100%" />
        </g>
      </g>
    </g>
    <path
       style="fill:none;fill-opacity:0.988235;stroke:#000000;stroke-width:0.529167;stroke-linecap:round;stroke-linejoin:round;stroke-miterlimit:4;stroke-dasharray:1.5875, 1.5875;stroke-dashoffset:0;paint-order:markers fill stroke"
       d="m 167.2692,178.59375 -27.49631,15.875"
       id="path1069-56"
       sodipodi:nodetypes="cc" />
    <path
       style="fill:none;fill-opacity:0.988235;stroke:#000000;stroke-width:0.529167;stroke-linecap:round;stroke-linejoin:round;stroke-miterlimit:4;stroke-dasharray:none;stroke-dashoffset:0;paint-order:markers fill stroke"
       d="m 139.77289,194.46875 -9.16544,5.29167"
       id="path1091-2" />
    <path
       style="fill:none;fill-opacity:0.988235;stroke:#000000;stroke-width:0.529167;stroke-linecap:round;stroke-linejoin:round;stroke-miterlimit:4;stroke-dasharray:none;stroke-dashoffset:0;paint-order:markers fill stroke"
       d="m 97.382752,173.96354 38.953098,22.48959"
       id="path1067-9"
       sodipodi:nodetypes="cc" />
    <path
       style="fill:none;fill-opacity:0.988235;stroke:#000000;stroke-width:0.529167;stroke-linecap:round;stroke-linejoin:round;stroke-miterlimit:4;stroke-dasharray:none;stroke-dashoffset:0;paint-order:markers fill stroke"
       d="m 185.60006,189.17709 -9.16543,-5.29167"
       id="path1091-2-1"
       sodipodi:nodetypes="cc" />
    <path
       style="fill:none;fill-opacity:0.988235;stroke:#000000;stroke-width:0.529167;stroke-linecap:round;stroke-linejoin:round;stroke-miterlimit:4;stroke-dasharray:none;stroke-dashoffset:0;paint-order:markers fill stroke"
       d="m 167.2692,199.76042 -9.16543,-5.29167"
       id="path1775"
       sodipodi:nodetypes="cc" />
    <path
       style="fill:none;fill-opacity:0.988235;stroke:#000000;stroke-width:0.529167;stroke-linecap:round;stroke-linejoin:round;stroke-miterlimit:4;stroke-dasharray:1.5875, 1.5875;stroke-dashoffset:0;paint-order:markers fill stroke"
       d="m 176.43463,183.88542 -9.16543,-5.29167"
       id="path1777"
       sodipodi:nodetypes="cc" />
    <path
       style="fill:none;fill-opacity:0.988235;stroke:#000000;stroke-width:0.529167;stroke-linecap:round;stroke-linejoin:round;stroke-miterlimit:4;stroke-dasharray:1.5875, 1.5875;stroke-dashoffset:0;paint-order:markers fill stroke"
       d="m 158.10376,194.46875 -9.16543,-5.29167"
       id="path1781"
       sodipodi:nodetypes="cc" />
    <path
       style="fill:none;fill-opacity:0.988235;stroke:#000000;stroke-width:0.529167;stroke-linecap:round;stroke-linejoin:round;stroke-miterlimit:4;stroke-dasharray:none;stroke-dashoffset:0;paint-order:markers fill stroke"
       d="M 179.87167,185.86979 161.5408,196.45313"
       id="path1783"
       sodipodi:nodetypes="cc" />
    <circle
       style="fill:#ffffff;fill-opacity:0.988235;stroke:#000000;stroke-width:1.05833;stroke-linecap:round;stroke-linejoin:round;stroke-miterlimit:4;stroke-dasharray:none;stroke-dashoffset:0;paint-order:markers fill stroke"
       id="path1709"
       cx="167.2692"
       cy="178.59375"
       r="1.2640671" />
    <g
       inkscape:label=""
       transform="translate(15.950356,111.5625)"
       id="g1061">
      <g
         id="g4014">
        <g
           style="fill:#000000;fill-opacity:1"
           id="g2892">
          <use
             xlink:href="#symbol3368"
             x="91.925003"
             y="81.962997"
             id="use8593"
             width="100%"
             height="100%" />
        </g>
      </g>
    </g>
  </g>
</svg>
