<?xml version="1.0" encoding="UTF-8" standalone="no"?>
<!-- Created with Inkscape (http://www.inkscape.org/) -->

<svg
   width="128.00003"
   height="127.99999"
   viewBox="0 0 33.866676 33.866666"
   version="1.1"
   id="svg5"
   sodipodi:docname="f13.svg"
   inkscape:version="1.2.1 (9c6d41e410, 2022-07-14)"
   xmlns:inkscape="http://www.inkscape.org/namespaces/inkscape"
   xmlns:sodipodi="http://sodipodi.sourceforge.net/DTD/sodipodi-0.dtd"
   xmlns="http://www.w3.org/2000/svg"
   xmlns:svg="http://www.w3.org/2000/svg">
  <sodipodi:namedview
     id="namedview7"
     pagecolor="#ffffff"
     bordercolor="#000000"
     borderopacity="0.25"
     inkscape:showpageshadow="false"
     inkscape:pageopacity="0.0"
     inkscape:pagecheckerboard="0"
     inkscape:deskcolor="#d1d1d1"
     inkscape:document-units="px"
     showgrid="true"
     inkscape:zoom="2.647615"
     inkscape:cx="-60.998295"
     inkscape:cy="86.681787"
     inkscape:window-width="1920"
     inkscape:window-height="1050"
     inkscape:window-x="0"
     inkscape:window-y="18"
     inkscape:window-maximized="1"
     inkscape:current-layer="layer1"
     showguides="true">
    <inkscape:grid
       type="xygrid"
       id="grid132"
       spacingx="1.0583333"
       spacingy="1.0583333"
       empspacing="4"
       originx="0"
       originy="0" />
    <sodipodi:guide
       position="-127,33.866666"
       orientation="0,-1"
       id="guide43929"
       inkscape:locked="false" />
    <sodipodi:guide
       position="-127,-4.2313893e-06"
       orientation="0,-1"
       id="guide43931"
       inkscape:locked="false" />
    <sodipodi:guide
       position="-127,-33.866664"
       orientation="0,-1"
       id="guide43980"
       inkscape:locked="false" />
    <sodipodi:guide
       position="-127,-67.733335"
       orientation="0,-1"
       id="guide50670"
       inkscape:locked="false" />
    <sodipodi:guide
       position="-127,-101.6"
       orientation="0,-1"
       id="guide53390"
       inkscape:locked="false" />
    <sodipodi:guide
       position="-127,-135.46667"
       orientation="0,-1"
       id="guide56092"
       inkscape:locked="false" />
    <sodipodi:guide
       position="-127,-169.33334"
       orientation="0,-1"
       id="guide60236"
       inkscape:locked="false" />
    <sodipodi:guide
       position="-67.733331,33.866666"
       orientation="1,0"
       id="guide64322"
       inkscape:locked="false" />
    <sodipodi:guide
       position="-33.866664,33.866666"
       orientation="1,0"
       id="guide77000"
       inkscape:locked="false" />
    <sodipodi:guide
       position="1.1864815e-05,33.866666"
       orientation="1,0"
       id="guide91126"
       inkscape:locked="false" />
    <sodipodi:guide
       position="-16.933338,16.933336"
       orientation="0,-1"
       id="guide94039"
       inkscape:locked="false" />
    <sodipodi:guide
       position="16.933332,-41.275004"
       orientation="1,0"
       id="guide94041"
       inkscape:locked="false" />
    <sodipodi:guide
       position="33.866672,33.866666"
       orientation="1,0"
       id="guide98266"
       inkscape:locked="false" />
    <sodipodi:guide
       position="-16.933338,-16.933334"
       orientation="1,0"
       id="guide108765"
       inkscape:locked="false" />
    <sodipodi:guide
       position="-16.933338,-16.933334"
       orientation="0,-1"
       id="guide108767"
       inkscape:locked="false" />
    <sodipodi:guide
       position="-127,-203.20001"
       orientation="0,-1"
       id="guide305044"
       inkscape:locked="false" />
  </sodipodi:namedview>
  <defs
     id="defs2">
    <marker
       style="overflow:visible"
       id="Arrow2-3"
       refX="0"
       refY="0"
       orient="auto-start-reverse"
       inkscape:stockid="Arrow2"
       markerWidth="7.6999998"
       markerHeight="5.5999999"
       viewBox="0 0 7.7 5.6"
       inkscape:isstock="true"
       inkscape:collect="always"
       preserveAspectRatio="xMidYMid">
      <path
         transform="scale(0.7)"
         d="M -2,-4 9,0 -2,4 c 2,-2.33 2,-5.66 0,-8 z"
         style="fill:context-stroke;fill-rule:evenodd;stroke:none"
         id="arrow2L-6" />
    </marker>
    <marker
       style="overflow:visible"
       id="Arrow2-35-7"
       refX="0"
       refY="0"
       orient="auto-start-reverse"
       inkscape:stockid="Arrow2"
       markerWidth="7.6999998"
       markerHeight="5.5999999"
       viewBox="0 0 7.7 5.6"
       inkscape:isstock="true"
       inkscape:collect="always"
       preserveAspectRatio="xMidYMid">
      <path
         transform="scale(0.7)"
         d="M -2,-4 9,0 -2,4 c 2,-2.33 2,-5.66 0,-8 z"
         style="fill:context-stroke;fill-rule:evenodd;stroke:none"
         id="arrow2L-62-0" />
    </marker>
    <clipPath
       id="clipPath6678">
      <path
         d="M 0,0 H 7 V 4.964844 H 0 Z m 0,0"
         id="path15347" />
    </clipPath>
    <clipPath
       id="clipPath80790">
      <path
         d="M 8,4 H 9 V 4.964844 H 8 Z m 0,0"
         id="path86546" />
    </clipPath>
    <clipPath
       id="clipPath82276">
      <path
         d="m 10,0 h 7 v 4.964844 h -7 z m 0,0"
         id="path62465" />
    </clipPath>
  </defs>
  <g
     inkscape:label="Capa 1"
     inkscape:groupmode="layer"
     id="layer1"
     transform="translate(-127)">
    <rect
       style="fill:#ffffff;stroke:none;stroke-width:0.0264583;stroke-linecap:round;stroke-linejoin:round;paint-order:stroke markers fill"
       id="rect12056"
       width="33.866665"
       height="33.866665"
       x="126.99999"
       y="0"
       inkscape:export-filename="f11.svg"
       inkscape:export-xdpi="96"
       inkscape:export-ydpi="96" />
    <path
       style="fill:none;stroke:#808080;stroke-width:0.264583;stroke-linecap:round;stroke-linejoin:round;marker-end:url(#Arrow2-3);paint-order:stroke markers fill"
       d="M 143.93333,29.633332 V 4.2333332"
       id="path95448"
       sodipodi:nodetypes="cc" />
    <path
       style="fill:none;stroke:#808080;stroke-width:0.264583;stroke-linecap:round;stroke-linejoin:round;marker-end:url(#Arrow2-3);paint-order:stroke markers fill"
       d="m 131.23333,16.933333 h 25.4"
       id="path95450"
       sodipodi:nodetypes="cc" />
    <path
       style="fill:none;stroke:#000000;stroke-width:0.264583;stroke-linecap:round;stroke-linejoin:round;marker-end:url(#Arrow2-35-7);paint-order:stroke markers fill"
       d="M 146.81754,29.159973 140.98291,4.4391875"
       id="path41800-1-3"
       sodipodi:nodetypes="cc" />
    <path
       style="fill:none;stroke:#000000;stroke-width:0.264583;stroke-linecap:round;stroke-linejoin:round;marker-end:url(#Arrow2-35-7);paint-order:stroke markers fill"
       d="m 131.57326,19.85853 24.86242,-5.868064"
       id="path42587-2-6"
       sodipodi:nodetypes="cc" />
    <rect
       style="fill:none;stroke:#ff0000;stroke-width:0.264583;stroke-linecap:round;stroke-linejoin:round;paint-order:stroke markers fill"
       id="rect41744-9-9"
       width="8.4666662"
       height="8.4666662"
       x="131.95981"
       y="45.172344"
       transform="rotate(-13.28)" />
    <g
       inkscape:label=""
       transform="translate(145.71445,5.5206226)"
       id="g260376">
      <g
         id="g260374"
         transform="matrix(0.352778,0,0,0.352778,-0.253559,-0.00101427)">
        <g
           clip-path="url(#clipPath6678)"
           clip-rule="nonzero"
           id="g260346">
          <g
             style="fill:#000000;fill-opacity:1"
             id="g260344">
            <g
               id="g260338"
               transform="translate(0,4.9640002)">
              <path
                 style="stroke:none"
                 d="m 2.140625,-3.796875 c 0,-0.1875 -0.015625,-0.1875 -0.203125,-0.1875 -0.390625,0.390625 -1,0.390625 -1.21875,0.390625 v 0.234375 c 0.15625,0 0.5625,0 0.921875,-0.171875 v 3.015625 c 0,0.203125 0,0.28125 -0.625,0.28125 h -0.25 V 0 c 0.328125,-0.03125 0.796875,-0.03125 1.125,-0.03125 0.328125,0 0.796875,0 1.125,0.03125 v -0.234375 h -0.25 c -0.625,0 -0.625,-0.078125 -0.625,-0.28125 z m 0,0"
                 id="path260336" />
            </g>
            <g
               id="g260342"
               transform="translate(3.6529109,4.9640002)">
              <path
                 style="stroke:none"
                 d="m 1.765625,-1.984375 c 0.5,0 0.84375,0.34375 0.84375,0.953125 0,0.65625 -0.390625,0.9375 -0.828125,0.9375 C 1.609375,-0.09375 1,-0.125 0.734375,-0.46875 0.96875,-0.5 1.0625,-0.65625 1.0625,-0.8125 c 0,-0.203125 -0.140625,-0.34375 -0.34375,-0.34375 -0.15625,0 -0.34375,0.109375 -0.34375,0.359375 0,0.59375 0.65625,0.921875 1.421875,0.921875 0.890625,0 1.46875,-0.5625 1.46875,-1.15625 0,-0.4375 -0.328125,-0.90625 -1.046875,-1.078125 0.484375,-0.15625 0.859375,-0.546875 0.859375,-1.03125 0,-0.484375 -0.5625,-0.84375 -1.28125,-0.84375 -0.703125,0 -1.234375,0.328125 -1.234375,0.8125 0,0.265625 0.203125,0.328125 0.328125,0.328125 0.15625,0 0.3125,-0.09375 0.3125,-0.3125 0,-0.1875 -0.125,-0.296875 -0.296875,-0.3125 0.28125,-0.3125 0.828125,-0.3125 0.890625,-0.3125 0.296875,0 0.6875,0.140625 0.6875,0.640625 0,0.328125 -0.1875,0.90625 -0.796875,0.9375 -0.109375,0 -0.265625,0.015625 -0.3125,0.015625 -0.0625,0.015625 -0.125,0.015625 -0.125,0.109375 0,0.09375 0.0625,0.09375 0.15625,0.09375 z m 0,0"
                 id="path260340" />
            </g>
          </g>
        </g>
        <g
           clip-path="url(#clipPath80790)"
           clip-rule="nonzero"
           id="g260354">
          <g
             style="fill:#000000;fill-opacity:1"
             id="g260352">
            <g
               id="g260350"
               transform="translate(7.3060002,4.9640002)">
              <path
                 style="stroke:none"
                 d="m 1.5,-0.359375 c 0,-0.21875 -0.171875,-0.359375 -0.359375,-0.359375 -0.21875,0 -0.375,0.171875 -0.375,0.359375 C 0.765625,-0.15625 0.9375,0 1.140625,0 1.328125,0 1.5,-0.171875 1.5,-0.359375 Z m 0,0"
                 id="path260348" />
            </g>
          </g>
        </g>
        <g
           clip-path="url(#clipPath82276)"
           clip-rule="nonzero"
           id="g260366">
          <g
             style="fill:#000000;fill-opacity:1"
             id="g260364">
            <g
               id="g260358"
               transform="translate(9.5749998,4.9640002)">
              <path
                 style="stroke:none"
                 d="M 3.21875,-1.125 H 3 C 2.984375,-1.03125 2.921875,-0.640625 2.84375,-0.578125 2.796875,-0.53125 2.3125,-0.53125 2.21875,-0.53125 H 1.109375 L 1.875,-1.15625 C 2.078125,-1.328125 2.609375,-1.703125 2.796875,-1.890625 2.96875,-2.0625 3.21875,-2.375 3.21875,-2.796875 c 0,-0.75 -0.671875,-1.1875 -1.484375,-1.1875 -0.765625,0 -1.296875,0.515625 -1.296875,1.078125 0,0.296875 0.25,0.34375 0.3125,0.34375 0.15625,0 0.328125,-0.109375 0.328125,-0.328125 C 1.078125,-3.015625 1,-3.21875 0.734375,-3.21875 0.875,-3.515625 1.234375,-3.75 1.65625,-3.75 c 0.625,0 0.953125,0.46875 0.953125,0.953125 0,0.421875 -0.28125,0.859375 -0.6875,1.25 L 0.5,-0.25 C 0.4375,-0.1875 0.4375,-0.1875 0.4375,0 h 2.59375 z m 0,0"
                 id="path260356" />
            </g>
            <g
               id="g260362"
               transform="translate(13.227911,4.9640002)">
              <path
                 style="stroke:none"
                 d="m 2.296875,-2.15625 c 0.453125,-0.203125 0.78125,-0.5 0.78125,-0.921875 0,-0.59375 -0.625,-0.90625 -1.25,-0.90625 -0.671875,0 -1.265625,0.40625 -1.265625,1.015625 0,0.375 0.25,0.65625 0.5,0.8125 C 1.125,-2.125 1.265625,-2.046875 1.328125,-2.015625 0.9375,-1.859375 0.375,-1.53125 0.375,-0.921875 0.375,-0.21875 1.125,0.125 1.8125,0.125 c 0.796875,0 1.453125,-0.484375 1.453125,-1.140625 0,-0.421875 -0.25,-0.65625 -0.328125,-0.75 C 2.8125,-1.875 2.515625,-2.046875 2.296875,-2.15625 Z M 1.21875,-2.75 c -0.015625,-0.015625 -0.3125,-0.171875 -0.3125,-0.453125 0,-0.390625 0.46875,-0.578125 0.90625,-0.578125 0.46875,0 0.9375,0.25 0.9375,0.703125 0,0.46875 -0.5,0.703125 -0.671875,0.796875 z m 0.34375,0.859375 c 0.078125,0.046875 0.71875,0.40625 0.875,0.484375 0.125,0.078125 0.453125,0.25 0.453125,0.59375 0,0.484375 -0.546875,0.71875 -1.0625,0.71875 -0.546875,0 -1.0625,-0.3125 -1.0625,-0.828125 0,-0.515625 0.46875,-0.84375 0.796875,-0.96875 z m 0,0"
                 id="path260360" />
            </g>
          </g>
        </g>
        <g
           style="fill:#000000;fill-opacity:1"
           id="g260372">
          <g
             id="g260370"
             transform="translate(16.881001,2.4560001)">
            <path
               style="stroke:none"
               d="m 3.046875,-1.25 c 0,-0.65625 -0.546875,-1.203125 -1.21875,-1.203125 -0.65625,0 -1.203125,0.546875 -1.203125,1.203125 0,0.671875 0.546875,1.21875 1.203125,1.21875 0.671875,0 1.21875,-0.546875 1.21875,-1.21875 z m -1.21875,0.9375 c -0.5,0 -0.921875,-0.421875 -0.921875,-0.9375 0,-0.515625 0.421875,-0.921875 0.921875,-0.921875 0.515625,0 0.9375,0.40625 0.9375,0.921875 0,0.515625 -0.421875,0.9375 -0.9375,0.9375 z m 0,0"
               id="path260368" />
          </g>
        </g>
      </g>
    </g>
    <path
       style="fill:none;stroke:#0000ff;stroke-width:0.132292;stroke-linecap:round;stroke-linejoin:round;stroke-dasharray:none;stroke-dashoffset:0;paint-order:stroke markers fill"
       id="path307120"
       sodipodi:type="arc"
       sodipodi:cx="143.93333"
       sodipodi:cy="16.933331"
       sodipodi:rx="10.583339"
       sodipodi:ry="10.583339"
       sodipodi:start="4.4825052"
       sodipodi:end="4.8197839"
       sodipodi:open="true"
       sodipodi:arc-type="arc"
       d="m 141.52177,6.6284089 a 10.583339,10.583339 0 0 1 3.54598,-0.2174434" />
  </g>
</svg>
