<?xml version="1.0" encoding="UTF-8" standalone="no"?>
<!-- Created with Inkscape (http://www.inkscape.org/) -->

<svg
   width="224"
   height="128.00002"
   viewBox="0 0 59.266664 33.86667"
   version="1.1"
   id="svg5"
   sodipodi:docname="f60.svg"
   inkscape:version="1.2.1 (9c6d41e410, 2022-07-14)"
   xmlns:inkscape="http://www.inkscape.org/namespaces/inkscape"
   xmlns:sodipodi="http://sodipodi.sourceforge.net/DTD/sodipodi-0.dtd"
   xmlns="http://www.w3.org/2000/svg"
   xmlns:svg="http://www.w3.org/2000/svg">
  <sodipodi:namedview
     id="namedview7"
     pagecolor="#ffffff"
     bordercolor="#000000"
     borderopacity="0.25"
     inkscape:showpageshadow="false"
     inkscape:pageopacity="0.0"
     inkscape:pagecheckerboard="0"
     inkscape:deskcolor="#d1d1d1"
     inkscape:document-units="px"
     showgrid="true"
     inkscape:zoom="1.8721466"
     inkscape:cx="190.95727"
     inkscape:cy="26.440237"
     inkscape:window-width="1920"
     inkscape:window-height="1050"
     inkscape:window-x="1920"
     inkscape:window-y="18"
     inkscape:window-maximized="1"
     inkscape:current-layer="layer1"
     showguides="true">
    <inkscape:grid
       type="xygrid"
       id="grid132"
       spacingx="1.0583333"
       spacingy="1.0583333"
       empspacing="4"
       originx="7.2191139e-13"
       originy="1.8799776e-13" />
    <sodipodi:guide
       position="-7.51991e-13,203.2"
       orientation="0,-1"
       id="guide43929"
       inkscape:locked="false" />
    <sodipodi:guide
       position="-7.51991e-13,169.33333"
       orientation="0,-1"
       id="guide43931"
       inkscape:locked="false" />
    <sodipodi:guide
       position="-7.51991e-13,135.46667"
       orientation="0,-1"
       id="guide43980"
       inkscape:locked="false" />
    <sodipodi:guide
       position="-7.51991e-13,101.6"
       orientation="0,-1"
       id="guide50670"
       inkscape:locked="false" />
    <sodipodi:guide
       position="-7.51991e-13,67.733339"
       orientation="0,-1"
       id="guide53390"
       inkscape:locked="false" />
    <sodipodi:guide
       position="-7.51991e-13,33.866669"
       orientation="0,-1"
       id="guide56092"
       inkscape:locked="false" />
    <sodipodi:guide
       position="-7.51991e-13,5.1065981e-06"
       orientation="0,-1"
       id="guide60236"
       inkscape:locked="false" />
    <sodipodi:guide
       position="59.266664,203.2"
       orientation="1,0"
       id="guide64322"
       inkscape:locked="false" />
    <sodipodi:guide
       position="93.133328,203.2"
       orientation="1,0"
       id="guide77000"
       inkscape:locked="false" />
    <sodipodi:guide
       position="127,203.2"
       orientation="1,0"
       id="guide91126"
       inkscape:locked="false" />
    <sodipodi:guide
       position="110.06666,186.26667"
       orientation="0,-1"
       id="guide94039"
       inkscape:locked="false" />
    <sodipodi:guide
       position="143.93332,128.05833"
       orientation="1,0"
       id="guide94041"
       inkscape:locked="false" />
    <sodipodi:guide
       position="160.86666,203.2"
       orientation="1,0"
       id="guide98266"
       inkscape:locked="false" />
    <sodipodi:guide
       position="110.06666,152.4"
       orientation="1,0"
       id="guide108765"
       inkscape:locked="false" />
    <sodipodi:guide
       position="110.06666,152.4"
       orientation="0,-1"
       id="guide108767"
       inkscape:locked="false" />
    <sodipodi:guide
       position="-7.51991e-13,-33.866659"
       orientation="0,-1"
       id="guide305044"
       inkscape:locked="false" />
    <sodipodi:guide
       position="-7.5199102e-13,-67.733329"
       orientation="0,-1"
       id="guide74580"
       inkscape:locked="false" />
    <sodipodi:guide
       position="-7.5199102e-13,-67.733329"
       orientation="1,0"
       id="guide76758"
       inkscape:locked="false" />
  </sodipodi:namedview>
  <defs
     id="defs2">
    <marker
       style="overflow:visible"
       id="Arrow2"
       refX="0"
       refY="0"
       orient="auto-start-reverse"
       inkscape:stockid="Arrow2"
       markerWidth="7.6999998"
       markerHeight="5.5999999"
       viewBox="0 0 7.7 5.6"
       inkscape:isstock="true"
       inkscape:collect="always"
       preserveAspectRatio="xMidYMid">
      <path
         transform="scale(0.7)"
         d="M -2,-4 9,0 -2,4 c 2,-2.33 2,-5.66 0,-8 z"
         style="fill:context-stroke;fill-rule:evenodd;stroke:none"
         id="arrow2L" />
    </marker>
    <clipPath
       id="clipPath7677">
      <path
         d="m 4,5 h 8 V 8.824219 H 4 Z m 0,0"
         id="path356" />
    </clipPath>
    <clipPath
       id="clipPath5673">
      <path
         d="M 24,0 H 43 V 8.824219 H 24 Z m 0,0"
         id="path119" />
    </clipPath>
    <clipPath
       id="clipPath6197">
      <path
         d="m 47,3 h 5 v 5.824219 h -5 z m 0,0"
         id="path2894" />
    </clipPath>
    <clipPath
       id="clipPath5892">
      <path
         d="M 52,0 H 68 V 8.824219 H 52 Z m 0,0"
         id="path8688" />
    </clipPath>
    <clipPath
       id="clipPath1522">
      <path
         d="m 71,0 h 2 v 8.824219 h -2 z m 0,0"
         id="path4101" />
    </clipPath>
  </defs>
  <g
     inkscape:label="Capa 1"
     inkscape:groupmode="layer"
     id="layer1"
     transform="translate(0,-169.33333)">
    <rect
       style="fill:#ffffff;stroke:none;stroke-width:0.0264583;stroke-linecap:round;stroke-linejoin:round;paint-order:stroke markers fill"
       id="rect35012"
       width="59.266666"
       height="33.866669"
       x="1.4739025e-12"
       y="169.33333"
       inkscape:export-filename="f01.svg"
       inkscape:export-xdpi="96"
       inkscape:export-ydpi="96" />
    <g
       inkscape:label=""
       transform="translate(24.899121,192.36328)"
       id="g5630">
      <g
         id="g5628"
         transform="matrix(0.352778,0,0,0.352778,-0.0826823,0.0463462)">
        <g
           style="fill:#000000;fill-opacity:1"
           id="g5539">
          <g
             id="g5537"
             transform="translate(0,6.665)">
            <path
               style="stroke:none"
               d="m 2.5,-2.90625 h 1.421875 c 0.140625,0 0.21875,0 0.296875,-0.0625 0.09375,-0.09375 0.125,-0.1875 0.125,-0.25 0,-0.21875 -0.203125,-0.21875 -0.328125,-0.21875 h -2.40625 c -0.171875,0 -0.484375,0 -0.875,0.390625 -0.28125,0.28125 -0.5,0.640625 -0.5,0.703125 0,0.078125 0.046875,0.09375 0.109375,0.09375 C 0.4375,-2.25 0.453125,-2.265625 0.5,-2.328125 0.890625,-2.90625 1.359375,-2.90625 1.53125,-2.90625 h 0.6875 l -0.6875,2.203125 C 1.484375,-0.515625 1.375,-0.1875 1.375,-0.15625 c 0,0.1875 0.171875,0.25 0.265625,0.25 0.296875,0 0.34375,-0.28125 0.375,-0.390625 z m 0,0"
               id="path5535" />
          </g>
        </g>
        <g
           clip-path="url(#clipPath7677)"
           clip-rule="nonzero"
           id="g5551">
          <g
             style="fill:#000000;fill-opacity:1"
             id="g5549">
            <g
               id="g5543"
               transform="translate(3.7579999,7.6620002)">
              <path
                 style="stroke:none"
                 d="m 3.375,-2.359375 c -0.21875,0.0625 -0.265625,0.234375 -0.265625,0.328125 0,0.1875 0.15625,0.234375 0.234375,0.234375 0.1875,0 0.359375,-0.140625 0.359375,-0.375 0,-0.328125 -0.359375,-0.46875 -0.65625,-0.46875 -0.40625,0 -0.640625,0.3125 -0.703125,0.421875 -0.078125,-0.15625 -0.3125,-0.421875 -0.765625,-0.421875 -0.6875,0 -1.09375,0.71875 -1.09375,0.921875 0,0.03125 0.03125,0.078125 0.109375,0.078125 0.09375,0 0.109375,-0.03125 0.125,-0.078125 0.15625,-0.484375 0.5625,-0.71875 0.84375,-0.71875 0.296875,0 0.390625,0.1875 0.390625,0.390625 0,0.0625 0,0.125 -0.046875,0.3125 -0.140625,0.546875 -0.265625,1.09375 -0.296875,1.171875 -0.09375,0.21875 -0.3125,0.421875 -0.5625,0.421875 -0.03125,0 -0.203125,0 -0.34375,-0.09375 C 0.9375,-0.3125 0.96875,-0.5 0.96875,-0.546875 c 0,-0.15625 -0.125,-0.234375 -0.25,-0.234375 -0.15625,0 -0.34375,0.125 -0.34375,0.375 0,0.34375 0.375,0.46875 0.65625,0.46875 0.34375,0 0.59375,-0.234375 0.703125,-0.421875 0.125,0.25 0.40625,0.421875 0.75,0.421875 0.703125,0 1.09375,-0.734375 1.09375,-0.921875 0,-0.015625 0,-0.09375 -0.109375,-0.09375 -0.078125,0 -0.09375,0.046875 -0.109375,0.109375 C 3.1875,-0.328125 2.765625,-0.140625 2.5,-0.140625 c -0.21875,0 -0.375,-0.125 -0.375,-0.375 0,-0.125 0.015625,-0.25 0.078125,-0.453125 L 2.390625,-1.75 c 0.0625,-0.234375 0.09375,-0.34375 0.21875,-0.484375 C 2.6875,-2.328125 2.84375,-2.4375 3.03125,-2.4375 c 0.03125,0 0.203125,0 0.34375,0.078125 z m 0,0"
                 id="path5541" />
            </g>
            <g
               id="g5547"
               transform="translate(7.9297671,7.6620002)">
              <path
                 style="stroke:none"
                 d="m 3.5625,-2.296875 c 0.015625,-0.046875 0.015625,-0.0625 0.015625,-0.078125 0,-0.078125 -0.046875,-0.203125 -0.203125,-0.203125 -0.109375,0 -0.203125,0.0625 -0.25,0.15625 -0.03125,0.03125 -0.0625,0.21875 -0.09375,0.328125 l -0.3125,1.25 c -0.046875,0.171875 -0.0625,0.265625 -0.3125,0.484375 -0.0625,0.0625 -0.25,0.21875 -0.515625,0.21875 -0.4375,0 -0.4375,-0.390625 -0.4375,-0.5 0,-0.25 0.078125,-0.53125 0.34375,-1.1875 0.046875,-0.140625 0.0625,-0.1875 0.0625,-0.296875 0,-0.328125 -0.296875,-0.515625 -0.59375,-0.515625 -0.609375,0 -0.90625,0.796875 -0.90625,0.921875 0,0.03125 0.03125,0.078125 0.109375,0.078125 0.09375,0 0.109375,-0.03125 0.125,-0.078125 C 0.765625,-2.296875 1.078125,-2.4375 1.25,-2.4375 c 0.109375,0 0.15625,0.078125 0.15625,0.21875 0,0.125 -0.078125,0.328125 -0.140625,0.484375 -0.21875,0.53125 -0.28125,0.796875 -0.28125,1.015625 0,0.5625 0.421875,0.78125 0.890625,0.78125 0.078125,0 0.359375,0 0.6875,-0.28125 -0.078125,0.328125 -0.140625,0.5625 -0.421875,0.875 -0.109375,0.125 -0.375,0.359375 -0.734375,0.359375 -0.0625,0 -0.3125,0 -0.453125,-0.15625 C 1.21875,0.8125 1.25,0.578125 1.25,0.53125 1.25,0.359375 1.125,0.296875 1,0.296875 c -0.140625,0 -0.34375,0.125 -0.34375,0.390625 0,0.296875 0.28125,0.53125 0.75,0.53125 C 2.046875,1.21875 2.8125,0.75 2.984375,0 Z m 0,0"
                 id="path5545" />
            </g>
          </g>
        </g>
        <g
           style="fill:#000000;fill-opacity:1"
           id="g5557">
          <g
             id="g5555"
             transform="translate(14.779,6.665)">
            <path
               style="stroke:none"
               d="m 5.828125,-2.65625 c 0.109375,0 0.28125,0 0.28125,-0.1875 0,-0.171875 -0.203125,-0.171875 -0.3125,-0.171875 H 0.78125 c -0.125,0 -0.3125,0 -0.3125,0.171875 0,0.1875 0.15625,0.1875 0.28125,0.1875 z m -0.03125,1.6875 c 0.109375,0 0.3125,0 0.3125,-0.171875 0,-0.1875 -0.171875,-0.1875 -0.28125,-0.1875 H 0.75 c -0.125,0 -0.28125,0 -0.28125,0.1875 0,0.171875 0.1875,0.171875 0.3125,0.171875 z m 0,0"
               id="path5553" />
          </g>
        </g>
        <g
           clip-path="url(#clipPath5673)"
           clip-rule="nonzero"
           id="g5582">
          <g
             style="fill:#000000;fill-opacity:1"
             id="g5580">
            <g
               id="g5561"
               transform="translate(23.716669,6.665)">
              <path
                 style="stroke:none"
                 d="m 1.109375,-4.484375 c 0.109375,0.03125 0.421875,0.125 0.765625,0.125 1,0 1.59375,-0.703125 1.59375,-0.828125 0,-0.09375 -0.046875,-0.109375 -0.09375,-0.109375 -0.015625,0 -0.03125,0 -0.09375,0.03125 -0.3125,0.125 -0.6875,0.21875 -1.109375,0.21875 -0.46875,0 -0.859375,-0.109375 -1.109375,-0.21875 -0.078125,-0.03125 -0.09375,-0.03125 -0.109375,-0.03125 -0.09375,0 -0.09375,0.078125 -0.09375,0.234375 v 2.328125 c 0,0.140625 0,0.234375 0.125,0.234375 0.0625,0 0.078125,-0.03125 0.125,-0.09375 C 1.203125,-2.703125 1.5,-3.109375 2.1875,-3.109375 c 0.4375,0 0.65625,0.359375 0.734375,0.515625 0.125,0.28125 0.140625,0.65625 0.140625,0.953125 0,0.296875 0,0.734375 -0.21875,1.078125 -0.15625,0.25 -0.484375,0.484375 -0.90625,0.484375 -0.515625,0 -1.015625,-0.3125 -1.203125,-0.84375 C 0.75,-0.90625 0.8125,-0.90625 0.8125,-0.90625 c 0.21875,0 0.40625,-0.140625 0.40625,-0.390625 0,-0.296875 -0.234375,-0.40625 -0.390625,-0.40625 -0.15625,0 -0.40625,0.078125 -0.40625,0.421875 0,0.71875 0.625,1.453125 1.53125,1.453125 1,0 1.84375,-0.78125 1.84375,-1.765625 0,-0.921875 -0.671875,-1.75 -1.609375,-1.75 -0.390625,0 -0.765625,0.125 -1.078125,0.40625 z m 0,0"
                 id="path5559" />
            </g>
            <g
               id="g5565"
               transform="translate(27.951183,6.665)">
              <path
                 style="stroke:none"
                 d="m 3.890625,-2.546875 c 0,-0.84375 -0.078125,-1.359375 -0.34375,-1.875 -0.34375,-0.703125 -1,-0.875 -1.4375,-0.875 -1,0 -1.375,0.75 -1.484375,0.96875 -0.28125,0.578125 -0.296875,1.375 -0.296875,1.78125 0,0.53125 0.015625,1.328125 0.40625,1.96875 0.359375,0.59375 0.953125,0.75 1.375,0.75 0.390625,0 1.0625,-0.125 1.46875,-0.90625 0.296875,-0.578125 0.3125,-1.296875 0.3125,-1.8125 z M 2.109375,-0.0625 C 1.84375,-0.0625 1.296875,-0.1875 1.125,-1.015625 1.03125,-1.46875 1.03125,-2.21875 1.03125,-2.640625 1.03125,-3.1875 1.03125,-3.75 1.125,-4.1875 1.296875,-5 1.90625,-5.078125 2.109375,-5.078125 c 0.265625,0 0.828125,0.140625 0.984375,0.859375 0.09375,0.4375 0.09375,1.046875 0.09375,1.578125 0,0.46875 0,1.1875 -0.09375,1.640625 -0.171875,0.828125 -0.71875,0.9375 -0.984375,0.9375 z m 0,0"
                 id="path5563" />
            </g>
            <g
               id="g5569"
               transform="translate(32.185699,6.665)">
              <path
                 style="stroke:none"
                 d="m 3.890625,-2.546875 c 0,-0.84375 -0.078125,-1.359375 -0.34375,-1.875 -0.34375,-0.703125 -1,-0.875 -1.4375,-0.875 -1,0 -1.375,0.75 -1.484375,0.96875 -0.28125,0.578125 -0.296875,1.375 -0.296875,1.78125 0,0.53125 0.015625,1.328125 0.40625,1.96875 0.359375,0.59375 0.953125,0.75 1.375,0.75 0.390625,0 1.0625,-0.125 1.46875,-0.90625 0.296875,-0.578125 0.3125,-1.296875 0.3125,-1.8125 z M 2.109375,-0.0625 C 1.84375,-0.0625 1.296875,-0.1875 1.125,-1.015625 1.03125,-1.46875 1.03125,-2.21875 1.03125,-2.640625 1.03125,-3.1875 1.03125,-3.75 1.125,-4.1875 1.296875,-5 1.90625,-5.078125 2.109375,-5.078125 c 0.265625,0 0.828125,0.140625 0.984375,0.859375 0.09375,0.4375 0.09375,1.046875 0.09375,1.578125 0,0.46875 0,1.1875 -0.09375,1.640625 -0.171875,0.828125 -0.71875,0.9375 -0.984375,0.9375 z m 0,0"
                 id="path5567" />
            </g>
            <g
               id="g5573"
               transform="translate(36.420212,6.665)">
              <path
                 style="stroke:none"
                 d="m 3.890625,-2.546875 c 0,-0.84375 -0.078125,-1.359375 -0.34375,-1.875 -0.34375,-0.703125 -1,-0.875 -1.4375,-0.875 -1,0 -1.375,0.75 -1.484375,0.96875 -0.28125,0.578125 -0.296875,1.375 -0.296875,1.78125 0,0.53125 0.015625,1.328125 0.40625,1.96875 0.359375,0.59375 0.953125,0.75 1.375,0.75 0.390625,0 1.0625,-0.125 1.46875,-0.90625 0.296875,-0.578125 0.3125,-1.296875 0.3125,-1.8125 z M 2.109375,-0.0625 C 1.84375,-0.0625 1.296875,-0.1875 1.125,-1.015625 1.03125,-1.46875 1.03125,-2.21875 1.03125,-2.640625 1.03125,-3.1875 1.03125,-3.75 1.125,-4.1875 1.296875,-5 1.90625,-5.078125 2.109375,-5.078125 c 0.265625,0 0.828125,0.140625 0.984375,0.859375 0.09375,0.4375 0.09375,1.046875 0.09375,1.578125 0,0.46875 0,1.1875 -0.09375,1.640625 -0.171875,0.828125 -0.71875,0.9375 -0.984375,0.9375 z m 0,0"
                 id="path5571" />
            </g>
            <g
               id="g5578"
               transform="translate(40.654728,6.665)">
              <path
                 style="stroke:none"
                 d="M 2.15625,1.984375 V 1.625 H 1.359375 V -5.609375 H 2.15625 V -5.96875 H 0.984375 v 7.953125 z m 0,0"
                 id="path5576" />
            </g>
          </g>
        </g>
        <g
           style="fill:#000000;fill-opacity:1"
           id="g5588">
          <g
             id="g5586"
             transform="translate(43.007,6.665)">
            <path
               style="stroke:none"
               d="m 2.328125,-5.296875 c 0,-0.015625 0.03125,-0.109375 0.03125,-0.125 0,-0.03125 -0.03125,-0.109375 -0.125,-0.109375 -0.03125,0 -0.28125,0.03125 -0.46875,0.046875 l -0.4375,0.03125 C 1.140625,-5.4375 1.0625,-5.4375 1.0625,-5.296875 c 0,0.125 0.109375,0.125 0.21875,0.125 0.375,0 0.375,0.046875 0.375,0.109375 0,0.03125 0,0.046875 -0.03125,0.1875 l -1.140625,4.53125 c -0.03125,0.125 -0.03125,0.171875 -0.03125,0.171875 0,0.140625 0.109375,0.25 0.265625,0.25 0.265625,0 0.328125,-0.25 0.359375,-0.359375 0.078125,-0.34375 0.296875,-1.1875 0.375,-1.515625 0.4375,0.046875 0.984375,0.1875 0.984375,0.65625 0,0.03125 0,0.078125 -0.015625,0.15625 -0.03125,0.09375 -0.046875,0.21875 -0.046875,0.25 0,0.46875 0.34375,0.8125 0.8125,0.8125 0.328125,0 0.546875,-0.25 0.640625,-0.390625 C 4.03125,-0.609375 4.15625,-1.09375 4.15625,-1.140625 4.15625,-1.21875 4.09375,-1.25 4.03125,-1.25 c -0.09375,0 -0.109375,0.0625 -0.140625,0.203125 -0.109375,0.375 -0.3125,0.90625 -0.6875,0.90625 -0.203125,0 -0.25,-0.171875 -0.25,-0.390625 0,-0.109375 0,-0.203125 0.046875,-0.390625 0,-0.03125 0.03125,-0.15625 0.03125,-0.234375 0,-0.65625 -0.8125,-0.796875 -1.21875,-0.859375 C 2.109375,-2.1875 2.375,-2.46875 2.46875,-2.5625 2.90625,-3 3.265625,-3.296875 3.65625,-3.296875 c 0.09375,0 0.1875,0.03125 0.25,0.109375 C 3.484375,-3.125 3.484375,-2.75 3.484375,-2.75 c 0,0.171875 0.140625,0.296875 0.3125,0.296875 0.21875,0 0.453125,-0.171875 0.453125,-0.5 0,-0.28125 -0.1875,-0.5625 -0.59375,-0.5625 -0.453125,0 -0.875,0.359375 -1.328125,0.8125 -0.46875,0.453125 -0.65625,0.53125 -0.796875,0.59375 z m 0,0"
               id="path5584" />
          </g>
        </g>
        <g
           clip-path="url(#clipPath6197)"
           clip-rule="nonzero"
           id="g5596">
          <g
             style="fill:#000000;fill-opacity:1"
             id="g5594">
            <g
               id="g5592"
               transform="translate(47.631252,6.665)">
              <path
                 style="stroke:none"
                 d="m 3.953125,-2.9375 c 0.03125,-0.125 0.03125,-0.171875 0.03125,-0.171875 0,-0.1875 -0.15625,-0.25 -0.25,-0.25 -0.1875,0 -0.328125,0.140625 -0.359375,0.3125 -0.0625,-0.125 -0.3125,-0.46875 -0.78125,-0.46875 -0.953125,0 -1.984375,1.0625 -1.984375,2.21875 C 0.609375,-0.4375 1.171875,0 1.765625,0 2.125,0 2.453125,-0.203125 2.71875,-0.4375 L 2.546875,0.28125 C 2.453125,0.625 2.40625,0.859375 2.09375,1.109375 1.75,1.40625 1.453125,1.40625 1.25,1.40625 c -0.203125,0 -0.390625,-0.015625 -0.578125,-0.046875 0.171875,-0.09375 0.25,-0.265625 0.25,-0.40625 0,-0.1875 -0.140625,-0.296875 -0.3125,-0.296875 -0.1875,0 -0.4375,0.171875 -0.4375,0.484375 0,0.453125 0.609375,0.484375 1.09375,0.484375 1.140625,0 1.703125,-0.609375 1.8125,-1.09375 z M 2.875,-1.046875 c -0.046875,0.21875 -0.234375,0.375 -0.390625,0.53125 -0.078125,0.046875 -0.375,0.296875 -0.703125,0.296875 -0.328125,0 -0.546875,-0.265625 -0.546875,-0.75 0,-0.328125 0.1875,-1.203125 0.40625,-1.609375 0.25,-0.453125 0.625,-0.71875 0.953125,-0.71875 0.53125,0 0.671875,0.59375 0.671875,0.671875 L 3.25,-2.515625 Z m 0,0"
                 id="path5590" />
            </g>
          </g>
        </g>
        <g
           clip-path="url(#clipPath5892)"
           clip-rule="nonzero"
           id="g5612">
          <g
             style="fill:#000000;fill-opacity:1"
             id="g5610">
            <g
               id="g5600"
               transform="translate(51.947857,6.665)">
              <path
                 style="stroke:none"
                 d="M 3.703125,-5.640625 C 3.75,-5.75 3.75,-5.765625 3.75,-5.796875 c 0,-0.09375 -0.078125,-0.171875 -0.1875,-0.171875 -0.125,0 -0.15625,0.09375 -0.1875,0.171875 L 0.515625,1.65625 C 0.46875,1.765625 0.46875,1.78125 0.46875,1.8125 c 0,0.09375 0.078125,0.171875 0.1875,0.171875 0.125,0 0.15625,-0.09375 0.1875,-0.171875 z m 0,0"
                 id="path5598" />
            </g>
            <g
               id="g5604"
               transform="translate(56.182373,6.665)">
              <path
                 style="stroke:none"
                 d="m 3.265625,-3.046875 c -0.328125,0.03125 -0.4375,0.28125 -0.4375,0.4375 0,0.234375 0.203125,0.296875 0.3125,0.296875 0.03125,0 0.4375,-0.03125 0.4375,-0.515625 0,-0.484375 -0.515625,-0.6875 -1,-0.6875 -1.125,0 -2.234375,1.09375 -2.234375,2.21875 0,0.75 0.53125,1.375 1.40625,1.375 1.265625,0 1.921875,-0.796875 1.921875,-0.90625 0,-0.078125 -0.078125,-0.125 -0.125,-0.125 -0.046875,0 -0.078125,0.015625 -0.109375,0.0625 -0.625,0.75 -1.53125,0.75 -1.671875,0.75 C 1.34375,-0.140625 1,-0.40625 1,-1.015625 c 0,-0.34375 0.15625,-1.1875 0.53125,-1.6875 0.34375,-0.4375 0.75,-0.59375 1.0625,-0.59375 0.09375,0 0.453125,0.015625 0.671875,0.25 z m 0,0"
                 id="path5602" />
            </g>
            <g
               id="g5608"
               transform="translate(59.850212,6.665)">
              <path
                 style="stroke:none"
                 d="M 1.59375,-1.3125 C 1.625,-1.421875 1.703125,-1.734375 1.71875,-1.84375 1.75,-1.921875 1.796875,-2.125 1.8125,-2.203125 c 0.015625,-0.03125 0.28125,-0.546875 0.625,-0.8125 0.265625,-0.21875 0.53125,-0.28125 0.765625,-0.28125 0.28125,0 0.453125,0.1875 0.453125,0.546875 0,0.1875 -0.046875,0.375 -0.140625,0.734375 -0.0625,0.203125 -0.1875,0.734375 -0.234375,0.953125 l -0.125,0.484375 c -0.046875,0.125 -0.09375,0.375 -0.09375,0.40625 0,0.1875 0.15625,0.25 0.25,0.25 0.140625,0 0.265625,-0.09375 0.328125,-0.1875 C 3.65625,-0.15625 3.71875,-0.4375 3.765625,-0.59375 L 3.9375,-1.3125 C 3.96875,-1.421875 4.046875,-1.734375 4.078125,-1.84375 4.1875,-2.28125 4.1875,-2.28125 4.359375,-2.546875 4.625,-2.9375 5,-3.296875 5.53125,-3.296875 5.828125,-3.296875 6,-3.125 6,-2.75 6,-2.3125 5.65625,-1.390625 5.5,-1.015625 5.421875,-0.8125 5.40625,-0.75 5.40625,-0.59375 c 0,0.453125 0.375,0.671875 0.71875,0.671875 0.78125,0 1.109375,-1.109375 1.109375,-1.21875 C 7.234375,-1.21875 7.15625,-1.25 7.109375,-1.25 7.015625,-1.25 7,-1.1875 6.96875,-1.109375 c -0.1875,0.65625 -0.515625,0.96875 -0.828125,0.96875 -0.125,0 -0.1875,-0.078125 -0.1875,-0.265625 0,-0.1875 0.0625,-0.359375 0.140625,-0.5625 0.125,-0.296875 0.46875,-1.21875 0.46875,-1.65625 0,-0.609375 -0.40625,-0.890625 -0.984375,-0.890625 -0.546875,0 -1,0.28125 -1.359375,0.78125 -0.0625,-0.640625 -0.578125,-0.78125 -0.984375,-0.78125 -0.375,0 -0.859375,0.125 -1.296875,0.703125 C 1.875,-3.296875 1.5,-3.515625 1.125,-3.515625 c -0.28125,0 -0.484375,0.171875 -0.609375,0.4375 -0.203125,0.375 -0.28125,0.765625 -0.28125,0.78125 0,0.078125 0.0625,0.109375 0.125,0.109375 0.109375,0 0.109375,-0.03125 0.171875,-0.25 0.09375,-0.390625 0.234375,-0.859375 0.5625,-0.859375 0.21875,0 0.265625,0.203125 0.265625,0.375 0,0.15625 -0.046875,0.296875 -0.109375,0.5625 -0.015625,0.0625 -0.140625,0.53125 -0.171875,0.640625 L 0.78125,-0.515625 c -0.03125,0.125 -0.078125,0.3125 -0.078125,0.34375 0,0.1875 0.15625,0.25 0.265625,0.25 0.140625,0 0.265625,-0.09375 0.3125,-0.1875 C 1.3125,-0.15625 1.375,-0.4375 1.40625,-0.59375 Z m 0,0"
                 id="path5606" />
            </g>
          </g>
        </g>
        <g
           style="fill:#000000;fill-opacity:1"
           id="g5618">
          <g
             id="g5616"
             transform="translate(67.336998,3.8529999)">
            <path
               style="stroke:none"
               d="M 3.21875,-1.125 H 3 C 2.984375,-1.03125 2.921875,-0.640625 2.84375,-0.578125 2.796875,-0.53125 2.3125,-0.53125 2.21875,-0.53125 H 1.109375 L 1.875,-1.15625 C 2.078125,-1.328125 2.609375,-1.703125 2.796875,-1.890625 2.96875,-2.0625 3.21875,-2.375 3.21875,-2.796875 c 0,-0.75 -0.671875,-1.1875 -1.484375,-1.1875 -0.765625,0 -1.296875,0.515625 -1.296875,1.078125 0,0.296875 0.25,0.34375 0.3125,0.34375 0.15625,0 0.328125,-0.109375 0.328125,-0.328125 C 1.078125,-3.015625 1,-3.21875 0.734375,-3.21875 0.875,-3.515625 1.234375,-3.75 1.65625,-3.75 c 0.625,0 0.953125,0.46875 0.953125,0.953125 0,0.421875 -0.28125,0.859375 -0.6875,1.25 L 0.5,-0.25 C 0.4375,-0.1875 0.4375,-0.1875 0.4375,0 h 2.59375 z m 0,0"
               id="path5614" />
          </g>
        </g>
        <g
           clip-path="url(#clipPath1522)"
           clip-rule="nonzero"
           id="g5626">
          <g
             style="fill:#000000;fill-opacity:1"
             id="g5624">
            <g
               id="g5622"
               transform="translate(71.487999,6.665)">
              <path
                 style="stroke:none"
                 d="M 1.359375,-5.96875 H 0.1875 v 0.359375 H 0.984375 V 1.625 H 0.1875 v 0.359375 h 1.171875 z m 0,0"
                 id="path5620" />
            </g>
          </g>
        </g>
      </g>
    </g>
    <g
       id="g58873"
       transform="translate(-2.0926516e-7,169.33333)">
      <rect
         style="fill:none;stroke:#ff0000;stroke-width:0.264583;stroke-linecap:round;stroke-linejoin:round;paint-order:stroke markers fill"
         id="rect58855"
         width="8.4666662"
         height="8.4666662"
         x="12.7"
         y="12.7" />
      <path
         style="fill:none;stroke:#000000;stroke-width:0.264583;stroke-linecap:round;stroke-linejoin:round;marker-end:url(#Arrow2);paint-order:stroke markers fill"
         d="M 10.583334,22.224999 V 13.758333"
         id="path58865" />
      <path
         style="fill:none;stroke:#000000;stroke-width:0.264583;stroke-linecap:round;stroke-linejoin:round;marker-end:url(#Arrow2);paint-order:stroke markers fill"
         d="m 23.283334,11.641667 v 8.466666"
         id="path58867" />
      <path
         style="fill:none;stroke:#000000;stroke-width:0.264583;stroke-linecap:round;stroke-linejoin:round;marker-end:url(#Arrow2);paint-order:stroke markers fill"
         d="M 22.225,10.583333 H 13.758334"
         id="path58869" />
      <path
         style="fill:none;stroke:#000000;stroke-width:0.264583;stroke-linecap:round;stroke-linejoin:round;marker-end:url(#Arrow2);paint-order:stroke markers fill"
         d="m 11.641668,23.283333 h 8.466666"
         id="path58871" />
    </g>
  </g>
</svg>
