<?xml version="1.0" encoding="UTF-8" standalone="no"?>
<!-- Created with Inkscape (http://www.inkscape.org/) -->

<svg
   width="128.00002"
   height="128.00002"
   viewBox="0 0 33.866669 33.86667"
   version="1.1"
   id="svg5"
   sodipodi:docname="f91.svg"
   inkscape:version="1.2.1 (9c6d41e410, 2022-07-14)"
   xmlns:inkscape="http://www.inkscape.org/namespaces/inkscape"
   xmlns:sodipodi="http://sodipodi.sourceforge.net/DTD/sodipodi-0.dtd"
   xmlns="http://www.w3.org/2000/svg"
   xmlns:svg="http://www.w3.org/2000/svg">
  <sodipodi:namedview
     id="namedview7"
     pagecolor="#ffffff"
     bordercolor="#000000"
     borderopacity="0.25"
     inkscape:showpageshadow="false"
     inkscape:pageopacity="0.0"
     inkscape:pagecheckerboard="0"
     inkscape:deskcolor="#d1d1d1"
     inkscape:document-units="px"
     showgrid="false"
     inkscape:zoom="1.4142136"
     inkscape:cx="-30.052038"
     inkscape:cy="0.35355339"
     inkscape:window-width="1920"
     inkscape:window-height="1050"
     inkscape:window-x="0"
     inkscape:window-y="18"
     inkscape:window-maximized="1"
     inkscape:current-layer="layer1"
     showguides="true">
    <inkscape:grid
       type="xygrid"
       id="grid132"
       spacingx="1.0583333"
       spacingy="1.0583333"
       empspacing="4"
       originx="1.4438228e-12"
       originy="3.7599552e-13" />
    <sodipodi:guide
       position="-59.266663,304.79999"
       orientation="0,-1"
       id="guide43929"
       inkscape:locked="false" />
    <sodipodi:guide
       position="-59.266663,270.93332"
       orientation="0,-1"
       id="guide43931"
       inkscape:locked="false" />
    <sodipodi:guide
       position="-59.266663,237.06666"
       orientation="0,-1"
       id="guide43980"
       inkscape:locked="false" />
    <sodipodi:guide
       position="-59.266663,203.19999"
       orientation="0,-1"
       id="guide50670"
       inkscape:locked="false" />
    <sodipodi:guide
       position="-59.266663,169.33333"
       orientation="0,-1"
       id="guide53390"
       inkscape:locked="false" />
    <sodipodi:guide
       position="-59.266663,135.46666"
       orientation="0,-1"
       id="guide56092"
       inkscape:locked="false" />
    <sodipodi:guide
       position="-59.266663,101.6"
       orientation="0,-1"
       id="guide60236"
       inkscape:locked="false" />
    <sodipodi:guide
       position="1.1464958e-06,304.79999"
       orientation="1,0"
       id="guide64322"
       inkscape:locked="false" />
    <sodipodi:guide
       position="33.866664,304.79999"
       orientation="1,0"
       id="guide77000"
       inkscape:locked="false" />
    <sodipodi:guide
       position="67.733337,304.79999"
       orientation="1,0"
       id="guide91126"
       inkscape:locked="false" />
    <sodipodi:guide
       position="50.799997,287.86666"
       orientation="0,-1"
       id="guide94039"
       inkscape:locked="false" />
    <sodipodi:guide
       position="84.666657,229.65832"
       orientation="1,0"
       id="guide94041"
       inkscape:locked="false" />
    <sodipodi:guide
       position="101.6,304.79999"
       orientation="1,0"
       id="guide98266"
       inkscape:locked="false" />
    <sodipodi:guide
       position="50.799997,110.06666"
       orientation="1,0"
       id="guide108765"
       inkscape:locked="false" />
    <sodipodi:guide
       position="50.799997,253.99999"
       orientation="0,-1"
       id="guide108767"
       inkscape:locked="false" />
    <sodipodi:guide
       position="-59.266663,67.733335"
       orientation="0,-1"
       id="guide305044"
       inkscape:locked="false" />
    <sodipodi:guide
       position="-59.266663,33.866665"
       orientation="0,-1"
       id="guide74580"
       inkscape:locked="false" />
    <sodipodi:guide
       position="-59.266663,33.866665"
       orientation="1,0"
       id="guide76758"
       inkscape:locked="false" />
    <sodipodi:guide
       position="-59.266663,-1.3255672e-06"
       orientation="0,-1"
       id="guide22879"
       inkscape:locked="false" />
  </sodipodi:namedview>
  <defs
     id="defs2">
    <marker
       style="overflow:visible"
       id="Arrow2-3-3"
       refX="0"
       refY="0"
       orient="auto-start-reverse"
       inkscape:stockid="Arrow2"
       markerWidth="7.6999998"
       markerHeight="5.5999999"
       viewBox="0 0 7.7 5.6"
       inkscape:isstock="true"
       inkscape:collect="always"
       preserveAspectRatio="xMidYMid">
      <path
         transform="scale(0.7)"
         d="M -2,-4 9,0 -2,4 c 2,-2.33 2,-5.66 0,-8 z"
         style="fill:context-stroke;fill-rule:evenodd;stroke:none"
         id="arrow2L-6-6" />
    </marker>
    <clipPath
       id="clipPath9178-7">
      <path
         d="M 0,0 H 5 V 3.433594 H 0 Z m 0,0"
         id="path32828-5" />
    </clipPath>
    <clipPath
       id="clipPath1266">
      <path
         d="m 13,0 h 7 v 8.328125 h -7 z m 0,0"
         id="path31868" />
    </clipPath>
    <clipPath
       id="clipPath87393">
      <path
         d="m 19,0 h 4.992188 V 1 H 19 Z m 0,0"
         id="path74579" />
    </clipPath>
    <clipPath
       id="clipPath34462">
      <path
         d="m 20,2 h 3.992188 V 8 H 20 Z m 0,0"
         id="path18302" />
    </clipPath>
    <clipPath
       id="clipPath4104">
      <path
         d="m 19,0 h 8 v 8.328125 h -8 z m 0,0"
         id="path49912" />
    </clipPath>
    <clipPath
       id="clipPath60227">
      <path
         d="m 26,0 h 4.578125 V 1 H 26 Z m 0,0"
         id="path81818" />
    </clipPath>
    <clipPath
       id="clipPath80661">
      <path
         d="m 26,2 h 4.578125 V 8 H 26 Z m 0,0"
         id="path29405" />
    </clipPath>
  </defs>
  <g
     inkscape:label="Capa 1"
     inkscape:groupmode="layer"
     id="layer1"
     transform="translate(-59.266663,-270.93332)">
    <rect
       style="fill:#ffffff;stroke:none;stroke-width:0.0264583;stroke-linecap:round;stroke-linejoin:round;paint-order:stroke markers fill"
       id="rect18000"
       width="33.866665"
       height="33.866665"
       x="59.266663"
       y="270.93332"
       inkscape:export-filename="f81.svg"
       inkscape:export-xdpi="96"
       inkscape:export-ydpi="96" />
    <path
       style="fill:none;stroke:#000000;stroke-width:0.264583;stroke-linecap:round;stroke-linejoin:round;marker-end:url(#Arrow2-3-3);paint-order:stroke markers fill"
       d="m 76.199998,300.27563 v -25.4"
       id="path18002"
       sodipodi:nodetypes="cc" />
    <path
       style="fill:none;stroke:#000000;stroke-width:0.264583;stroke-linecap:round;stroke-linejoin:round;marker-end:url(#Arrow2-3-3);paint-order:stroke markers fill"
       d="m 63.79104,287.86667 h 25.4"
       id="path18004"
       sodipodi:nodetypes="cc" />
    <path
       style="fill:none;stroke:#000000;stroke-width:0.132292;stroke-linecap:round;stroke-linejoin:round;stroke-dasharray:none;paint-order:stroke markers fill"
       d="m 78.316664,286.80834 v 2.11667"
       id="path18006" />
    <path
       style="fill:none;stroke:#000000;stroke-width:0.132292;stroke-linecap:round;stroke-linejoin:round;stroke-dasharray:none;paint-order:stroke markers fill"
       d="m 80.433331,286.80834 v 2.11667"
       id="path18008" />
    <path
       style="fill:none;stroke:#000000;stroke-width:0.132292;stroke-linecap:round;stroke-linejoin:round;stroke-dasharray:none;paint-order:stroke markers fill"
       d="m 82.549997,286.80834 v 2.11667"
       id="path18010" />
    <path
       style="fill:none;stroke:#000000;stroke-width:0.132292;stroke-linecap:round;stroke-linejoin:round;stroke-dasharray:none;paint-order:stroke markers fill"
       d="m 84.666664,286.80834 v 2.11667"
       id="path18012" />
    <g
       inkscape:label=""
       transform="translate(90.300083,289.79593)"
       id="g18024">
      <g
         id="g18022"
         transform="matrix(0.352778,0,0,0.352778,-0.115755,0.00194031)">
        <g
           clip-path="url(#clipPath9178-7)"
           clip-rule="nonzero"
           id="g18020">
          <g
             style="fill:#000000;fill-opacity:1"
             id="g18018">
            <g
               id="g18016"
               transform="translate(0,3.4319999)">
              <path
                 style="stroke:none"
                 d="m 4.375,-2.90625 c 0.140625,0 0.203125,0 0.296875,-0.0625 0.078125,-0.078125 0.125,-0.1875 0.125,-0.25 0,-0.21875 -0.203125,-0.21875 -0.34375,-0.21875 H 2.5 c -1.234375,0 -2.171875,1.265625 -2.171875,2.21875 0,0.78125 0.5625,1.296875 1.296875,1.296875 1,0 2.09375,-0.96875 2.09375,-2.15625 C 3.71875,-2.5 3.5625,-2.75 3.484375,-2.90625 Z m -2.734375,2.765625 c -0.40625,0 -0.75,-0.265625 -0.75,-0.84375 0,-0.34375 0.1875,-1.921875 1.46875,-1.921875 0.78125,0 0.78125,0.59375 0.78125,0.75 0,0.828125 -0.5625,2.015625 -1.5,2.015625 z m 0,0"
                 id="path18014" />
            </g>
          </g>
        </g>
      </g>
    </g>
    <g
       inkscape:label=""
       transform="translate(73.024998,274.10834)"
       id="g18034">
      <g
         id="g18032"
         transform="matrix(0.352778,0,0,0.352778,-0.0826823,0.00194031)">
        <g
           style="fill:#000000;fill-opacity:1"
           id="g18030">
          <g
             id="g18028"
             transform="translate(0,3.4319999)">
            <path
               style="stroke:none"
               d="m 2.5,-2.90625 h 1.421875 c 0.140625,0 0.21875,0 0.296875,-0.0625 0.09375,-0.09375 0.125,-0.1875 0.125,-0.25 0,-0.21875 -0.203125,-0.21875 -0.328125,-0.21875 h -2.40625 c -0.171875,0 -0.484375,0 -0.875,0.390625 -0.28125,0.28125 -0.5,0.640625 -0.5,0.703125 0,0.078125 0.046875,0.09375 0.109375,0.09375 C 0.4375,-2.25 0.453125,-2.265625 0.5,-2.328125 0.890625,-2.90625 1.359375,-2.90625 1.53125,-2.90625 h 0.6875 l -0.6875,2.203125 C 1.484375,-0.515625 1.375,-0.1875 1.375,-0.15625 c 0,0.1875 0.171875,0.25 0.265625,0.25 0.296875,0 0.34375,-0.28125 0.375,-0.390625 z m 0,0"
               id="path18026" />
          </g>
        </g>
      </g>
    </g>
    <path
       style="fill:none;stroke:#000000;stroke-width:0.132292;stroke-linecap:round;stroke-linejoin:round;stroke-dasharray:none;paint-order:stroke markers fill"
       d="m 75.141665,283.63332 h 2.116667"
       id="path18036" />
    <path
       style="fill:none;stroke:#000000;stroke-width:0.132292;stroke-linecap:round;stroke-linejoin:round;stroke-dasharray:none;paint-order:stroke markers fill"
       d="m 75.141665,281.51665 h 2.116667"
       id="path18038" />
    <path
       style="fill:none;stroke:#000000;stroke-width:0.132292;stroke-linecap:round;stroke-linejoin:round;stroke-dasharray:none;paint-order:stroke markers fill"
       d="m 75.141665,285.74998 h 2.116667"
       id="path18040" />
    <path
       style="fill:none;stroke:#000000;stroke-width:0.132292;stroke-linecap:round;stroke-linejoin:round;stroke-dasharray:none;paint-order:stroke markers fill"
       d="m 86.783331,286.80834 v 2.11667"
       id="path18058" />
    <path
       style="fill:none;stroke:#000000;stroke-width:0.132292;stroke-linecap:round;stroke-linejoin:round;stroke-dasharray:0.132292, 0.396876;stroke-dashoffset:0;paint-order:stroke markers fill"
       d="m 87.775517,286.19647 1e-6,1.67018"
       id="path18060"
       sodipodi:nodetypes="cc" />
    <path
       style="fill:none;stroke:#000000;stroke-width:0.132292;stroke-linecap:round;stroke-linejoin:round;stroke-dasharray:0.132292, 0.396876;stroke-dashoffset:0;paint-order:stroke markers fill"
       d="M 87.775518,286.19647 H 76.199999"
       id="path18062"
       sodipodi:nodetypes="cc" />
    <path
       style="fill:none;stroke:#000000;stroke-width:0.132292;stroke-linecap:round;stroke-linejoin:round;stroke-dasharray:none;paint-order:stroke markers fill"
       d="m 75.141665,292.09999 h 2.116667"
       id="path18064" />
    <path
       style="fill:none;stroke:#000000;stroke-width:0.132292;stroke-linecap:round;stroke-linejoin:round;stroke-dasharray:none;paint-order:stroke markers fill"
       d="m 75.141665,289.98332 h 2.116667"
       id="path18066" />
    <path
       style="fill:none;stroke:#000000;stroke-width:0.132292;stroke-linecap:round;stroke-linejoin:round;stroke-dasharray:none;paint-order:stroke markers fill"
       d="m 75.141665,294.21665 h 2.116667"
       id="path18068" />
    <path
       style="fill:none;stroke:#0000ff;stroke-width:0.132292;stroke-linecap:round;stroke-linejoin:round;stroke-dasharray:none;stroke-dashoffset:0;paint-order:stroke markers fill"
       d="m 76.199999,289.53685 11.575518,-3.34038"
       id="path18078"
       sodipodi:nodetypes="cc" />
    <circle
       style="fill:none;stroke:#0000ff;stroke-width:0.132292;stroke-linejoin:round;stroke-dasharray:none;stroke-dashoffset:0;paint-order:stroke markers fill"
       id="path32484"
       cx="81.987724"
       cy="287.86664"
       r="6.0275044" />
    <g
       inkscape:label=""
       transform="translate(65.998045,283.69947)"
       id="g39087">
      <g
         id="g39085"
         transform="matrix(0.352778,0,0,0.352778,-0.148828,-0.126515)">
        <g
           style="fill:#000000;fill-opacity:1"
           id="g39">
          <g
             id="use33"
             transform="translate(0,7.316)">
            <path
               style="stroke:none"
               d="m 1.109375,-4.484375 c 0.109375,0.03125 0.421875,0.125 0.765625,0.125 1,0 1.59375,-0.703125 1.59375,-0.828125 0,-0.09375 -0.046875,-0.109375 -0.09375,-0.109375 -0.015625,0 -0.03125,0 -0.09375,0.03125 -0.3125,0.125 -0.6875,0.21875 -1.109375,0.21875 -0.46875,0 -0.859375,-0.109375 -1.109375,-0.21875 -0.078125,-0.03125 -0.09375,-0.03125 -0.109375,-0.03125 -0.09375,0 -0.09375,0.078125 -0.09375,0.234375 v 2.328125 c 0,0.140625 0,0.234375 0.125,0.234375 0.0625,0 0.078125,-0.03125 0.125,-0.09375 C 1.203125,-2.703125 1.5,-3.109375 2.1875,-3.109375 c 0.4375,0 0.65625,0.359375 0.734375,0.515625 0.125,0.28125 0.140625,0.65625 0.140625,0.953125 0,0.296875 0,0.734375 -0.21875,1.078125 -0.15625,0.25 -0.484375,0.484375 -0.90625,0.484375 -0.515625,0 -1.015625,-0.3125 -1.203125,-0.84375 C 0.75,-0.90625 0.8125,-0.90625 0.8125,-0.90625 c 0.21875,0 0.40625,-0.140625 0.40625,-0.390625 0,-0.296875 -0.234375,-0.40625 -0.390625,-0.40625 -0.15625,0 -0.40625,0.078125 -0.40625,0.421875 0,0.71875 0.625,1.453125 1.53125,1.453125 1,0 1.84375,-0.78125 1.84375,-1.765625 0,-0.921875 -0.671875,-1.75 -1.609375,-1.75 -0.390625,0 -0.765625,0.125 -1.078125,0.40625 z m 0,0"
               id="path62" />
          </g>
          <g
             id="use35"
             transform="translate(4.2345142,7.316)">
            <path
               style="stroke:none"
               d="m 3.890625,-2.546875 c 0,-0.84375 -0.078125,-1.359375 -0.34375,-1.875 -0.34375,-0.703125 -1,-0.875 -1.4375,-0.875 -1,0 -1.375,0.75 -1.484375,0.96875 -0.28125,0.578125 -0.296875,1.375 -0.296875,1.78125 0,0.53125 0.015625,1.328125 0.40625,1.96875 0.359375,0.59375 0.953125,0.75 1.375,0.75 0.390625,0 1.0625,-0.125 1.46875,-0.90625 0.296875,-0.578125 0.3125,-1.296875 0.3125,-1.8125 z M 2.109375,-0.0625 C 1.84375,-0.0625 1.296875,-0.1875 1.125,-1.015625 1.03125,-1.46875 1.03125,-2.21875 1.03125,-2.640625 1.03125,-3.1875 1.03125,-3.75 1.125,-4.1875 1.296875,-5 1.90625,-5.078125 2.109375,-5.078125 c 0.265625,0 0.828125,0.140625 0.984375,0.859375 0.09375,0.4375 0.09375,1.046875 0.09375,1.578125 0,0.46875 0,1.1875 -0.09375,1.640625 -0.171875,0.828125 -0.71875,0.9375 -0.984375,0.9375 z m 0,0"
               id="path39059" />
          </g>
          <g
             id="use37"
             transform="translate(8.4690285,7.316)">
            <path
               style="stroke:none"
               d="m 3.890625,-2.546875 c 0,-0.84375 -0.078125,-1.359375 -0.34375,-1.875 -0.34375,-0.703125 -1,-0.875 -1.4375,-0.875 -1,0 -1.375,0.75 -1.484375,0.96875 -0.28125,0.578125 -0.296875,1.375 -0.296875,1.78125 0,0.53125 0.015625,1.328125 0.40625,1.96875 0.359375,0.59375 0.953125,0.75 1.375,0.75 0.390625,0 1.0625,-0.125 1.46875,-0.90625 0.296875,-0.578125 0.3125,-1.296875 0.3125,-1.8125 z M 2.109375,-0.0625 C 1.84375,-0.0625 1.296875,-0.1875 1.125,-1.015625 1.03125,-1.46875 1.03125,-2.21875 1.03125,-2.640625 1.03125,-3.1875 1.03125,-3.75 1.125,-4.1875 1.296875,-5 1.90625,-5.078125 2.109375,-5.078125 c 0.265625,0 0.828125,0.140625 0.984375,0.859375 0.09375,0.4375 0.09375,1.046875 0.09375,1.578125 0,0.46875 0,1.1875 -0.09375,1.640625 -0.171875,0.828125 -0.71875,0.9375 -0.984375,0.9375 z m 0,0"
               id="path39062" />
          </g>
        </g>
        <g
           clip-path="url(#clipPath1266)"
           clip-rule="nonzero"
           id="g39072">
          <g
             style="fill:#000000;fill-opacity:1"
             id="g39070">
            <g
               id="g39068"
               transform="translate(12.703,0.71799999)">
              <path
                 style="stroke:none"
                 d="m 3.28125,6.734375 -1.5,-3.09375 c -0.046875,-0.09375 -0.078125,-0.125 -0.140625,-0.125 -0.03125,0 -0.046875,0 -0.125,0.0625 l -0.8125,0.5625 C 0.59375,4.21875 0.59375,4.25 0.59375,4.28125 c 0,0.046875 0.03125,0.109375 0.109375,0.109375 0.03125,0 0.046875,0 0.140625,-0.078125 C 0.953125,4.25 1.109375,4.125 1.25,4.03125 l 1.671875,3.4375 c 0.0625,0.140625 0.09375,0.140625 0.171875,0.140625 0.140625,0 0.171875,-0.046875 0.234375,-0.171875 l 3.84375,-7.46875 c 0.0625,-0.109375 0.0625,-0.125 0.0625,-0.15625 0,-0.09375 -0.078125,-0.171875 -0.1875,-0.171875 -0.09375,0 -0.125,0.0625 -0.1875,0.15625 z m 0,0"
                 id="path39066" />
            </g>
          </g>
        </g>
        <g
           clip-path="url(#clipPath87393)"
           clip-rule="nonzero"
           id="g39075">
          <path
             style="fill:none;stroke:#000000;stroke-width:0.359;stroke-linecap:butt;stroke-linejoin:miter;stroke-miterlimit:10;stroke-opacity:1"
             d="M 0.00171875,-0.0010625 H 4.232188"
             transform="matrix(1,0,0,-1,19.76,0.538)"
             id="path47" />
        </g>
        <g
           clip-path="url(#clipPath34462)"
           clip-rule="nonzero"
           id="g39083">
          <g
             style="fill:#000000;fill-opacity:1"
             id="g39081">
            <g
               id="g39079"
               transform="translate(19.76,7.316)">
              <path
                 style="stroke:none"
                 d="m 2.015625,-2.65625 c 0.625,0 1.03125,0.453125 1.03125,1.296875 0,1 -0.5625,1.28125 -0.984375,1.28125 -0.4375,0 -1.046875,-0.15625 -1.328125,-0.578125 0.296875,0 0.5,-0.1875 0.5,-0.4375 0,-0.265625 -0.1875,-0.4375 -0.453125,-0.4375 -0.203125,0 -0.4375,0.125 -0.4375,0.453125 0,0.75 0.8125,1.25 1.734375,1.25 C 3.125,0.171875 3.875,-0.5625 3.875,-1.359375 3.875,-2.03125 3.34375,-2.625 2.53125,-2.8125 c 0.625,-0.21875 1.109375,-0.75 1.109375,-1.390625 0,-0.640625 -0.71875,-1.09375 -1.546875,-1.09375 -0.859375,0 -1.5,0.453125 -1.5,1.0625 0,0.296875 0.1875,0.421875 0.40625,0.421875 0.25,0 0.40625,-0.171875 0.40625,-0.40625 0,-0.296875 -0.265625,-0.40625 -0.4375,-0.40625 0.34375,-0.4375 0.953125,-0.46875 1.09375,-0.46875 0.203125,0 0.8125,0.0625 0.8125,0.890625 0,0.546875 -0.234375,0.890625 -0.34375,1.015625 -0.234375,0.25 -0.421875,0.265625 -0.90625,0.296875 -0.15625,0 -0.21875,0.015625 -0.21875,0.125 0,0.109375 0.078125,0.109375 0.21875,0.109375 z m 0,0"
                 id="path39077" />
            </g>
          </g>
        </g>
      </g>
    </g>
    <g
       inkscape:label=""
       transform="translate(63.77389,289.22264)"
       id="g43654">
      <g
         id="g43652"
         transform="matrix(0.352778,0,0,0.352778,-0.248047,-0.126515)">
        <g
           style="fill:#000000;fill-opacity:1"
           id="g43618">
          <g
             id="use36"
             transform="translate(0,7.316)">
            <path
               style="stroke:none"
               d="m 5.5625,-1.8125 c 0.140625,0 0.3125,0 0.3125,-0.171875 0,-0.1875 -0.171875,-0.1875 -0.3125,-0.1875 H 1 c -0.125,0 -0.296875,0 -0.296875,0.1875 C 0.703125,-1.8125 0.875,-1.8125 1,-1.8125 Z m 0,0"
               id="path69" />
          </g>
        </g>
        <g
           style="fill:#000000;fill-opacity:1"
           id="g43631">
          <g
             id="use40"
             transform="translate(6.5869999,7.316)">
            <path
               style="stroke:none"
               d="m 1.109375,-4.484375 c 0.109375,0.03125 0.421875,0.125 0.765625,0.125 1,0 1.59375,-0.703125 1.59375,-0.828125 0,-0.09375 -0.046875,-0.109375 -0.09375,-0.109375 -0.015625,0 -0.03125,0 -0.09375,0.03125 -0.3125,0.125 -0.6875,0.21875 -1.109375,0.21875 -0.46875,0 -0.859375,-0.109375 -1.109375,-0.21875 -0.078125,-0.03125 -0.09375,-0.03125 -0.109375,-0.03125 -0.09375,0 -0.09375,0.078125 -0.09375,0.234375 v 2.328125 c 0,0.140625 0,0.234375 0.125,0.234375 0.0625,0 0.078125,-0.03125 0.125,-0.09375 C 1.203125,-2.703125 1.5,-3.109375 2.1875,-3.109375 c 0.4375,0 0.65625,0.359375 0.734375,0.515625 0.125,0.28125 0.140625,0.65625 0.140625,0.953125 0,0.296875 0,0.734375 -0.21875,1.078125 -0.15625,0.25 -0.484375,0.484375 -0.90625,0.484375 -0.515625,0 -1.015625,-0.3125 -1.203125,-0.84375 C 0.75,-0.90625 0.8125,-0.90625 0.8125,-0.90625 c 0.21875,0 0.40625,-0.140625 0.40625,-0.390625 0,-0.296875 -0.234375,-0.40625 -0.390625,-0.40625 -0.15625,0 -0.40625,0.078125 -0.40625,0.421875 0,0.71875 0.625,1.453125 1.53125,1.453125 1,0 1.84375,-0.78125 1.84375,-1.765625 0,-0.921875 -0.671875,-1.75 -1.609375,-1.75 -0.390625,0 -0.765625,0.125 -1.078125,0.40625 z m 0,0"
               id="path43620" />
          </g>
          <g
             id="g43625"
             transform="translate(10.821514,7.316)">
            <path
               style="stroke:none"
               d="m 3.890625,-2.546875 c 0,-0.84375 -0.078125,-1.359375 -0.34375,-1.875 -0.34375,-0.703125 -1,-0.875 -1.4375,-0.875 -1,0 -1.375,0.75 -1.484375,0.96875 -0.28125,0.578125 -0.296875,1.375 -0.296875,1.78125 0,0.53125 0.015625,1.328125 0.40625,1.96875 0.359375,0.59375 0.953125,0.75 1.375,0.75 0.390625,0 1.0625,-0.125 1.46875,-0.90625 0.296875,-0.578125 0.3125,-1.296875 0.3125,-1.8125 z M 2.109375,-0.0625 C 1.84375,-0.0625 1.296875,-0.1875 1.125,-1.015625 1.03125,-1.46875 1.03125,-2.21875 1.03125,-2.640625 1.03125,-3.1875 1.03125,-3.75 1.125,-4.1875 1.296875,-5 1.90625,-5.078125 2.109375,-5.078125 c 0.265625,0 0.828125,0.140625 0.984375,0.859375 0.09375,0.4375 0.09375,1.046875 0.09375,1.578125 0,0.46875 0,1.1875 -0.09375,1.640625 -0.171875,0.828125 -0.71875,0.9375 -0.984375,0.9375 z m 0,0"
               id="path43623" />
          </g>
          <g
             id="g43629"
             transform="translate(15.056028,7.316)">
            <path
               style="stroke:none"
               d="m 3.890625,-2.546875 c 0,-0.84375 -0.078125,-1.359375 -0.34375,-1.875 -0.34375,-0.703125 -1,-0.875 -1.4375,-0.875 -1,0 -1.375,0.75 -1.484375,0.96875 -0.28125,0.578125 -0.296875,1.375 -0.296875,1.78125 0,0.53125 0.015625,1.328125 0.40625,1.96875 0.359375,0.59375 0.953125,0.75 1.375,0.75 0.390625,0 1.0625,-0.125 1.46875,-0.90625 0.296875,-0.578125 0.3125,-1.296875 0.3125,-1.8125 z M 2.109375,-0.0625 C 1.84375,-0.0625 1.296875,-0.1875 1.125,-1.015625 1.03125,-1.46875 1.03125,-2.21875 1.03125,-2.640625 1.03125,-3.1875 1.03125,-3.75 1.125,-4.1875 1.296875,-5 1.90625,-5.078125 2.109375,-5.078125 c 0.265625,0 0.828125,0.140625 0.984375,0.859375 0.09375,0.4375 0.09375,1.046875 0.09375,1.578125 0,0.46875 0,1.1875 -0.09375,1.640625 -0.171875,0.828125 -0.71875,0.9375 -0.984375,0.9375 z m 0,0"
               id="path43627" />
          </g>
        </g>
        <g
           clip-path="url(#clipPath4104)"
           clip-rule="nonzero"
           id="g43639">
          <g
             style="fill:#000000;fill-opacity:1"
             id="g43637">
            <g
               id="g43635"
               transform="translate(19.289,0.71799999)">
              <path
                 style="stroke:none"
                 d="m 3.28125,6.734375 -1.5,-3.09375 c -0.046875,-0.09375 -0.078125,-0.125 -0.140625,-0.125 -0.03125,0 -0.046875,0 -0.125,0.0625 l -0.8125,0.5625 C 0.59375,4.21875 0.59375,4.25 0.59375,4.28125 c 0,0.046875 0.03125,0.109375 0.109375,0.109375 0.03125,0 0.046875,0 0.140625,-0.078125 C 0.953125,4.25 1.109375,4.125 1.25,4.03125 l 1.671875,3.4375 c 0.0625,0.140625 0.09375,0.140625 0.171875,0.140625 0.140625,0 0.171875,-0.046875 0.234375,-0.171875 l 3.84375,-7.46875 c 0.0625,-0.109375 0.0625,-0.125 0.0625,-0.15625 0,-0.09375 -0.078125,-0.171875 -0.1875,-0.171875 -0.09375,0 -0.125,0.0625 -0.1875,0.15625 z m 0,0"
                 id="path43633" />
            </g>
          </g>
        </g>
        <g
           clip-path="url(#clipPath60227)"
           clip-rule="nonzero"
           id="g43642">
          <path
             style="fill:none;stroke:#000000;stroke-width:0.359;stroke-linecap:butt;stroke-linejoin:miter;stroke-miterlimit:10;stroke-opacity:1"
             d="M 0.00165625,-0.0010625 H 4.232125"
             transform="matrix(1,0,0,-1,26.346,0.538)"
             id="path54" />
        </g>
        <g
           clip-path="url(#clipPath80661)"
           clip-rule="nonzero"
           id="g43650">
          <g
             style="fill:#000000;fill-opacity:1"
             id="g43648">
            <g
               id="g43646"
               transform="translate(26.346001,7.316)">
              <path
                 style="stroke:none"
                 d="m 2.015625,-2.65625 c 0.625,0 1.03125,0.453125 1.03125,1.296875 0,1 -0.5625,1.28125 -0.984375,1.28125 -0.4375,0 -1.046875,-0.15625 -1.328125,-0.578125 0.296875,0 0.5,-0.1875 0.5,-0.4375 0,-0.265625 -0.1875,-0.4375 -0.453125,-0.4375 -0.203125,0 -0.4375,0.125 -0.4375,0.453125 0,0.75 0.8125,1.25 1.734375,1.25 C 3.125,0.171875 3.875,-0.5625 3.875,-1.359375 3.875,-2.03125 3.34375,-2.625 2.53125,-2.8125 c 0.625,-0.21875 1.109375,-0.75 1.109375,-1.390625 0,-0.640625 -0.71875,-1.09375 -1.546875,-1.09375 -0.859375,0 -1.5,0.453125 -1.5,1.0625 0,0.296875 0.1875,0.421875 0.40625,0.421875 0.25,0 0.40625,-0.171875 0.40625,-0.40625 0,-0.296875 -0.265625,-0.40625 -0.4375,-0.40625 0.34375,-0.4375 0.953125,-0.46875 1.09375,-0.46875 0.203125,0 0.8125,0.0625 0.8125,0.890625 0,0.546875 -0.234375,0.890625 -0.34375,1.015625 -0.234375,0.25 -0.421875,0.265625 -0.90625,0.296875 -0.15625,0 -0.21875,0.015625 -0.21875,0.125 0,0.109375 0.078125,0.109375 0.21875,0.109375 z m 0,0"
                 id="path43644" />
            </g>
          </g>
        </g>
      </g>
    </g>
    <g
       inkscape:label=""
       transform="translate(85.857768,279.84373)"
       id="g48256">
      <g
         id="g48254"
         transform="matrix(0.352778,0,0,0.352778,-0.148828,0.0567531)">
        <g
           style="fill:#000000;fill-opacity:1"
           id="g48252">
          <g
             id="g48238"
             transform="translate(0,5.1360002)">
            <path
               style="stroke:none"
               d="m 1.109375,-4.484375 c 0.109375,0.03125 0.421875,0.125 0.765625,0.125 1,0 1.59375,-0.703125 1.59375,-0.828125 0,-0.09375 -0.046875,-0.109375 -0.09375,-0.109375 -0.015625,0 -0.03125,0 -0.09375,0.03125 -0.3125,0.125 -0.6875,0.21875 -1.109375,0.21875 -0.46875,0 -0.859375,-0.109375 -1.109375,-0.21875 -0.078125,-0.03125 -0.09375,-0.03125 -0.109375,-0.03125 -0.09375,0 -0.09375,0.078125 -0.09375,0.234375 v 2.328125 c 0,0.140625 0,0.234375 0.125,0.234375 0.0625,0 0.078125,-0.03125 0.125,-0.09375 C 1.203125,-2.703125 1.5,-3.109375 2.1875,-3.109375 c 0.4375,0 0.65625,0.359375 0.734375,0.515625 0.125,0.28125 0.140625,0.65625 0.140625,0.953125 0,0.296875 0,0.734375 -0.21875,1.078125 -0.15625,0.25 -0.484375,0.484375 -0.90625,0.484375 -0.515625,0 -1.015625,-0.3125 -1.203125,-0.84375 C 0.75,-0.90625 0.8125,-0.90625 0.8125,-0.90625 c 0.21875,0 0.40625,-0.140625 0.40625,-0.390625 0,-0.296875 -0.234375,-0.40625 -0.390625,-0.40625 -0.15625,0 -0.40625,0.078125 -0.40625,0.421875 0,0.71875 0.625,1.453125 1.53125,1.453125 1,0 1.84375,-0.78125 1.84375,-1.765625 0,-0.921875 -0.671875,-1.75 -1.609375,-1.75 -0.390625,0 -0.765625,0.125 -1.078125,0.40625 z m 0,0"
               id="path48236" />
          </g>
          <g
             id="g48242"
             transform="translate(4.2345142,5.1360002)">
            <path
               style="stroke:none"
               d="m 1.109375,-4.484375 c 0.109375,0.03125 0.421875,0.125 0.765625,0.125 1,0 1.59375,-0.703125 1.59375,-0.828125 0,-0.09375 -0.046875,-0.109375 -0.09375,-0.109375 -0.015625,0 -0.03125,0 -0.09375,0.03125 -0.3125,0.125 -0.6875,0.21875 -1.109375,0.21875 -0.46875,0 -0.859375,-0.109375 -1.109375,-0.21875 -0.078125,-0.03125 -0.09375,-0.03125 -0.109375,-0.03125 -0.09375,0 -0.09375,0.078125 -0.09375,0.234375 v 2.328125 c 0,0.140625 0,0.234375 0.125,0.234375 0.0625,0 0.078125,-0.03125 0.125,-0.09375 C 1.203125,-2.703125 1.5,-3.109375 2.1875,-3.109375 c 0.4375,0 0.65625,0.359375 0.734375,0.515625 0.125,0.28125 0.140625,0.65625 0.140625,0.953125 0,0.296875 0,0.734375 -0.21875,1.078125 -0.15625,0.25 -0.484375,0.484375 -0.90625,0.484375 -0.515625,0 -1.015625,-0.3125 -1.203125,-0.84375 C 0.75,-0.90625 0.8125,-0.90625 0.8125,-0.90625 c 0.21875,0 0.40625,-0.140625 0.40625,-0.390625 0,-0.296875 -0.234375,-0.40625 -0.390625,-0.40625 -0.15625,0 -0.40625,0.078125 -0.40625,0.421875 0,0.71875 0.625,1.453125 1.53125,1.453125 1,0 1.84375,-0.78125 1.84375,-1.765625 0,-0.921875 -0.671875,-1.75 -1.609375,-1.75 -0.390625,0 -0.765625,0.125 -1.078125,0.40625 z m 0,0"
               id="path48240" />
          </g>
          <g
             id="g48246"
             transform="translate(8.4690285,5.1360002)">
            <path
               style="stroke:none"
               d="m 3.890625,-2.546875 c 0,-0.84375 -0.078125,-1.359375 -0.34375,-1.875 -0.34375,-0.703125 -1,-0.875 -1.4375,-0.875 -1,0 -1.375,0.75 -1.484375,0.96875 -0.28125,0.578125 -0.296875,1.375 -0.296875,1.78125 0,0.53125 0.015625,1.328125 0.40625,1.96875 0.359375,0.59375 0.953125,0.75 1.375,0.75 0.390625,0 1.0625,-0.125 1.46875,-0.90625 0.296875,-0.578125 0.3125,-1.296875 0.3125,-1.8125 z M 2.109375,-0.0625 C 1.84375,-0.0625 1.296875,-0.1875 1.125,-1.015625 1.03125,-1.46875 1.03125,-2.21875 1.03125,-2.640625 1.03125,-3.1875 1.03125,-3.75 1.125,-4.1875 1.296875,-5 1.90625,-5.078125 2.109375,-5.078125 c 0.265625,0 0.828125,0.140625 0.984375,0.859375 0.09375,0.4375 0.09375,1.046875 0.09375,1.578125 0,0.46875 0,1.1875 -0.09375,1.640625 -0.171875,0.828125 -0.71875,0.9375 -0.984375,0.9375 z m 0,0"
               id="path48244" />
          </g>
          <g
             id="g48250"
             transform="translate(12.703542,5.1360002)">
            <path
               style="stroke:none"
               d="m 3.890625,-2.546875 c 0,-0.84375 -0.078125,-1.359375 -0.34375,-1.875 -0.34375,-0.703125 -1,-0.875 -1.4375,-0.875 -1,0 -1.375,0.75 -1.484375,0.96875 -0.28125,0.578125 -0.296875,1.375 -0.296875,1.78125 0,0.53125 0.015625,1.328125 0.40625,1.96875 0.359375,0.59375 0.953125,0.75 1.375,0.75 0.390625,0 1.0625,-0.125 1.46875,-0.90625 0.296875,-0.578125 0.3125,-1.296875 0.3125,-1.8125 z M 2.109375,-0.0625 C 1.84375,-0.0625 1.296875,-0.1875 1.125,-1.015625 1.03125,-1.46875 1.03125,-2.21875 1.03125,-2.640625 1.03125,-3.1875 1.03125,-3.75 1.125,-4.1875 1.296875,-5 1.90625,-5.078125 2.109375,-5.078125 c 0.265625,0 0.828125,0.140625 0.984375,0.859375 0.09375,0.4375 0.09375,1.046875 0.09375,1.578125 0,0.46875 0,1.1875 -0.09375,1.640625 -0.171875,0.828125 -0.71875,0.9375 -0.984375,0.9375 z m 0,0"
               id="path48248" />
          </g>
        </g>
      </g>
    </g>
  </g>
</svg>
