<?xml version="1.0" encoding="UTF-8" standalone="no"?>
<svg
   xmlns:dc="http://purl.org/dc/elements/1.1/"
   xmlns:cc="http://creativecommons.org/ns#"
   xmlns:rdf="http://www.w3.org/1999/02/22-rdf-syntax-ns#"
   xmlns:svg="http://www.w3.org/2000/svg"
   xmlns="http://www.w3.org/2000/svg"
   xmlns:xlink="http://www.w3.org/1999/xlink"
   xmlns:sodipodi="http://sodipodi.sourceforge.net/DTD/sodipodi-0.dtd"
   xmlns:inkscape="http://www.inkscape.org/namespaces/inkscape"
   width="1024"
   height="1024"
   viewBox="0 0 270.93333 270.93334"
   version="1.1"
   id="svg8"
   sodipodi:docname="a4.svg"
   inkscape:version="1.0.2 (e86c870879, 2021-01-15)">
  <defs
     id="defs2">
    <g
       id="g4528">
      <symbol
         overflow="visible"
         id="symbol5932">
        <path
           style="stroke:none;"
           d=""
           id="path5132" />
      </symbol>
      <symbol
         overflow="visible"
         id="symbol1707">
        <path
           style="stroke:none;"
           d="M 3.5625 -2.90625 C 3.96875 -1.859375 4.453125 -0.34375 4.609375 -0.109375 C 4.765625 0.109375 4.859375 0.109375 5.140625 0.109375 L 5.359375 0.109375 C 5.453125 0.09375 5.46875 0.046875 5.46875 0.015625 C 5.46875 -0.015625 5.4375 -0.046875 5.40625 -0.078125 C 5.3125 -0.1875 5.25 -0.34375 5.1875 -0.53125 L 3.15625 -6.203125 C 2.9375 -6.78125 2.40625 -6.921875 1.9375 -6.921875 C 1.890625 -6.921875 1.75 -6.921875 1.75 -6.8125 C 1.75 -6.734375 1.828125 -6.703125 1.84375 -6.703125 C 2.171875 -6.65625 2.25 -6.59375 2.5 -5.90625 L 3.453125 -3.203125 L 0.703125 -0.46875 C 0.59375 -0.34375 0.53125 -0.296875 0.53125 -0.15625 C 0.53125 0.015625 0.671875 0.125 0.828125 0.125 C 0.984375 0.125 1.078125 0.015625 1.15625 -0.078125 Z M 3.5625 -2.90625 "
           id="path8201" />
      </symbol>
    </g>
    <g
       id="g3298">
      <symbol
         overflow="visible"
         id="symbol9873">
        <path
           style="stroke:none;"
           d=""
           id="path5017" />
      </symbol>
      <symbol
         overflow="visible"
         id="symbol189">
        <path
           style="stroke:none;"
           d="M 5.15625 -3.71875 C 5.296875 -3.71875 5.65625 -3.71875 5.65625 -4.0625 C 5.65625 -4.296875 5.4375 -4.296875 5.265625 -4.296875 L 2.984375 -4.296875 C 1.484375 -4.296875 0.375 -2.65625 0.375 -1.46875 C 0.375 -0.59375 0.96875 0.109375 1.875 0.109375 C 3.046875 0.109375 4.375 -1.09375 4.375 -2.625 C 4.375 -2.796875 4.375 -3.28125 4.0625 -3.71875 Z M 1.890625 -0.109375 C 1.390625 -0.109375 1 -0.46875 1 -1.1875 C 1 -1.484375 1.109375 -2.296875 1.46875 -2.890625 C 1.890625 -3.578125 2.484375 -3.71875 2.828125 -3.71875 C 3.65625 -3.71875 3.734375 -3.0625 3.734375 -2.75 C 3.734375 -2.28125 3.53125 -1.46875 3.203125 -0.953125 C 2.8125 -0.375 2.265625 -0.109375 1.890625 -0.109375 Z M 1.890625 -0.109375 "
           id="path7379" />
      </symbol>
    </g>
    <g
       id="g8033">
      <symbol
         overflow="visible"
         id="symbol2134">
        <path
           style="stroke:none;"
           d=""
           id="path2277" />
      </symbol>
      <symbol
         overflow="visible"
         id="symbol1342">
        <path
           style="stroke:none;"
           d="M 4.359375 -0.0625 C 5.90625 -0.640625 7.375 -2.421875 7.375 -4.34375 C 7.375 -5.953125 6.3125 -7.03125 4.828125 -7.03125 C 2.6875 -7.03125 0.484375 -4.765625 0.484375 -2.4375 C 0.484375 -0.78125 1.609375 0.21875 3.046875 0.21875 C 3.296875 0.21875 3.625 0.171875 4.015625 0.0625 C 3.984375 0.6875 3.984375 0.703125 3.984375 0.84375 C 3.984375 1.15625 3.984375 1.9375 4.8125 1.9375 C 5.984375 1.9375 6.46875 0.109375 6.46875 0 C 6.46875 -0.0625 6.40625 -0.09375 6.359375 -0.09375 C 6.28125 -0.09375 6.265625 -0.046875 6.234375 0.015625 C 6 0.71875 5.421875 0.96875 5.078125 0.96875 C 4.609375 0.96875 4.46875 0.703125 4.359375 -0.0625 Z M 2.484375 -0.140625 C 1.703125 -0.453125 1.359375 -1.21875 1.359375 -2.125 C 1.359375 -2.8125 1.625 -4.234375 2.375 -5.296875 C 3.109375 -6.3125 4.046875 -6.78125 4.78125 -6.78125 C 5.765625 -6.78125 6.5 -6 6.5 -4.671875 C 6.5 -3.671875 5.984375 -1.328125 4.3125 -0.40625 C 4.265625 -0.75 4.171875 -1.46875 3.4375 -1.46875 C 2.90625 -1.46875 2.421875 -0.984375 2.421875 -0.453125 C 2.421875 -0.265625 2.484375 -0.15625 2.484375 -0.140625 Z M 3.09375 -0.03125 C 2.953125 -0.03125 2.640625 -0.03125 2.640625 -0.453125 C 2.640625 -0.859375 3.015625 -1.25 3.4375 -1.25 C 3.859375 -1.25 4.046875 -1.015625 4.046875 -0.40625 C 4.046875 -0.265625 4.03125 -0.25 3.9375 -0.203125 C 3.671875 -0.09375 3.375 -0.03125 3.09375 -0.03125 Z M 3.09375 -0.03125 "
           id="path8481" />
      </symbol>
    </g>
  </defs>
  <sodipodi:namedview
     id="base"
     pagecolor="#ffffff"
     bordercolor="#666666"
     borderopacity="1.0"
     inkscape:pageopacity="0.0"
     inkscape:pageshadow="2"
     inkscape:zoom="7.9195959"
     inkscape:cx="536.53323"
     inkscape:cy="525.91998"
     inkscape:document-units="px"
     inkscape:current-layer="layer1"
     inkscape:document-rotation="0"
     showgrid="true"
     units="px"
     borderlayer="true"
     inkscape:showpageshadow="false"
     showguides="true"
     inkscape:guide-bbox="true"
     inkscape:window-width="1920"
     inkscape:window-height="1050"
     inkscape:window-x="1920"
     inkscape:window-y="18"
     inkscape:window-maximized="0">
    <inkscape:grid
       type="axonomgrid"
       id="grid10" />
    <sodipodi:guide
       position="132.89881,125.4125"
       orientation="1,0"
       id="guide12" />
    <sodipodi:guide
       position="132.89881,125.41251"
       orientation="-0.5,-0.8660254"
       id="guide14" />
    <sodipodi:guide
       position="132.89881,125.4125"
       orientation="0.5,-0.8660254"
       id="guide16" />
  </sodipodi:namedview>
  <metadata
     id="metadata5">
    <rdf:RDF>
      <cc:Work
         rdf:about="">
        <dc:format>image/svg+xml</dc:format>
        <dc:type
           rdf:resource="http://purl.org/dc/dcmitype/StillImage" />
        <dc:title></dc:title>
      </cc:Work>
    </rdf:RDF>
  </metadata>
  <g
     inkscape:label="Capa 1"
     inkscape:groupmode="layer"
     id="layer1">
    <path
       style="fill:none;fill-opacity:0.504672;stroke:#000000;stroke-width:0.529167;stroke-linejoin:bevel;stroke-miterlimit:10;stroke-dasharray:1.05833, 1.05833;stroke-dashoffset:0;paint-order:markers fill stroke"
       d="M 132.89881,145.78541 V 133.61459"
       id="path24-7"
       sodipodi:nodetypes="cc" />
    <path
       style="fill:none;fill-opacity:0.504672;stroke:#000000;stroke-width:1.05833;stroke-linejoin:bevel;stroke-miterlimit:10;stroke-dasharray:none;stroke-dashoffset:0;paint-order:markers fill stroke"
       d="M 164.97784,115.09375 185.60007,103.1875"
       id="path851-3" />
    <path
       style="fill:none;fill-opacity:0.504672;stroke:#000000;stroke-width:1.05833334;stroke-linejoin:bevel;stroke-miterlimit:10;paint-order:markers fill stroke;stroke-dasharray:none"
       d="M 197.05686,145.52083 132.89881,108.47917 68.740765,145.52083 132.89881,182.5625 Z"
       id="path22"
       sodipodi:nodetypes="cccc" />
    <path
       style="fill:none;fill-opacity:0.504672;stroke:#000000;stroke-width:0.52916667;stroke-linejoin:bevel;stroke-miterlimit:10;paint-order:markers fill stroke;stroke-dasharray:1.05833334,1.05833334;stroke-dashoffset:0"
       d="M 100.81979,164.04166 V 152.13541"
       id="path24" />
    <path
       style="fill:none;fill-opacity:0.504672;stroke:#000000;stroke-width:1.05833;stroke-linejoin:bevel;stroke-miterlimit:10;stroke-dasharray:none;stroke-dashoffset:0;paint-order:markers fill stroke"
       d="m 100.81979,152.13542 64.15805,-37.04167"
       id="path849"
       sodipodi:nodetypes="cc" />
    <path
       style="fill:none;fill-opacity:0.504672;stroke:#000000;stroke-width:1.05833;stroke-linejoin:bevel;stroke-miterlimit:10;stroke-dasharray:none;stroke-dashoffset:0;paint-order:markers fill stroke"
       d="M 80.197559,164.04166 100.81979,152.13541"
       id="path851" />
    <path
       style="fill:none;fill-opacity:0.504672;stroke:#000000;stroke-width:0.529167;stroke-linejoin:bevel;stroke-miterlimit:10;stroke-dasharray:1.05833, 1.05833;stroke-dashoffset:0;paint-order:markers fill stroke"
       d="M 164.97784,127.26458 V 115.35833"
       id="path24-6" />
    <g
       inkscape:label=""
       transform="translate(9.818991,62.472151)"
       id="g914">
      <g
         id="g4913">
        <g
           style="fill:#000000;fill-opacity:1"
           id="g4673">
          <use
             xlink:href="#symbol1707"
             x="91.925003"
             y="81.962997"
             id="use8554"
             width="100%"
             height="100%" />
        </g>
      </g>
    </g>
    <g
       inkscape:label=""
       transform="translate(39.353835,95.359376)"
       id="g961">
      <g
         id="g1534">
        <g
           style="fill:#000000;fill-opacity:1"
           id="g291">
          <use
             xlink:href="#symbol189"
             x="91.925003"
             y="81.962997"
             id="use4601"
             width="100%"
             height="100%" />
        </g>
      </g>
    </g>
    <circle
       style="fill:#ff0000;fill-opacity:0.987646;stroke:#800000;stroke-width:0.529167;stroke-linejoin:bevel;stroke-miterlimit:10;stroke-dasharray:none;stroke-dashoffset:0;paint-order:markers fill stroke"
       id="path978"
       cx="132.8988"
       cy="140.9054"
       r="1.7292014" />
    <g
       inkscape:label=""
       transform="translate(44.509559,62.544748)"
       id="g1041">
      <g
         id="g7925">
        <g
           style="fill:#000000;fill-opacity:1"
           id="g6716">
          <use
             xlink:href="#symbol1342"
             x="91.925003"
             y="81.962997"
             id="use1094"
             width="100%"
             height="100%" />
        </g>
      </g>
    </g>
  </g>
</svg>
