<?xml version="1.0" encoding="UTF-8" standalone="no"?>
<svg
   xmlns:dc="http://purl.org/dc/elements/1.1/"
   xmlns:cc="http://creativecommons.org/ns#"
   xmlns:rdf="http://www.w3.org/1999/02/22-rdf-syntax-ns#"
   xmlns:svg="http://www.w3.org/2000/svg"
   xmlns="http://www.w3.org/2000/svg"
   xmlns:xlink="http://www.w3.org/1999/xlink"
   xmlns:sodipodi="http://sodipodi.sourceforge.net/DTD/sodipodi-0.dtd"
   xmlns:inkscape="http://www.inkscape.org/namespaces/inkscape"
   width="137.06906"
   height="113.51105"
   viewBox="0 0 36.266189 30.033132"
   version="1.1"
   id="svg8"
   sodipodi:docname="a5.svg"
   inkscape:version="1.0.2 (e86c870879, 2021-01-15)">
  <defs
     id="defs2">
    <g
       id="g4528">
      <symbol
         overflow="visible"
         id="symbol5932">
        <path
           style="stroke:none"
           d=""
           id="path5132" />
      </symbol>
      <symbol
         overflow="visible"
         id="symbol1707">
        <path
           style="stroke:none"
           d="m 3.5625,-2.90625 c 0.40625,1.046875 0.890625,2.5625 1.046875,2.796875 0.15625,0.21875 0.25,0.21875 0.53125,0.21875 h 0.21875 c 0.09375,-0.015625 0.109375,-0.0625 0.109375,-0.09375 0,-0.03125 -0.03125,-0.0625 -0.0625,-0.09375 C 5.3125,-0.1875 5.25,-0.34375 5.1875,-0.53125 L 3.15625,-6.203125 c -0.21875,-0.578125 -0.75,-0.71875 -1.21875,-0.71875 -0.046875,0 -0.1875,0 -0.1875,0.109375 0,0.078125 0.078125,0.109375 0.09375,0.109375 C 2.171875,-6.65625 2.25,-6.59375 2.5,-5.90625 l 0.953125,2.703125 -2.75,2.734375 c -0.109375,0.125 -0.171875,0.171875 -0.171875,0.3125 0,0.171875 0.140625,0.28125 0.296875,0.28125 0.15625,0 0.25,-0.109375 0.328125,-0.203125 z m 0,0"
           id="path8201" />
      </symbol>
    </g>
    <g
       id="g3298">
      <symbol
         overflow="visible"
         id="symbol9873">
        <path
           style="stroke:none"
           d=""
           id="path5017" />
      </symbol>
      <symbol
         overflow="visible"
         id="symbol189">
        <path
           style="stroke:none"
           d="m 5.15625,-3.71875 c 0.140625,0 0.5,0 0.5,-0.34375 0,-0.234375 -0.21875,-0.234375 -0.390625,-0.234375 h -2.28125 c -1.5,0 -2.609375,1.640625 -2.609375,2.828125 0,0.875 0.59375,1.578125 1.5,1.578125 1.171875,0 2.5,-1.203125 2.5,-2.734375 0,-0.171875 0,-0.65625 -0.3125,-1.09375 z M 1.890625,-0.109375 C 1.390625,-0.109375 1,-0.46875 1,-1.1875 c 0,-0.296875 0.109375,-1.109375 0.46875,-1.703125 0.421875,-0.6875 1.015625,-0.828125 1.359375,-0.828125 0.828125,0 0.90625,0.65625 0.90625,0.96875 0,0.46875 -0.203125,1.28125 -0.53125,1.796875 -0.390625,0.578125 -0.9375,0.84375 -1.3125,0.84375 z m 0,0"
           id="path7379" />
      </symbol>
    </g>
    <g
       id="g8033">
      <symbol
         overflow="visible"
         id="symbol2134">
        <path
           style="stroke:none"
           d=""
           id="path2277" />
      </symbol>
      <symbol
         overflow="visible"
         id="symbol1342">
        <path
           style="stroke:none"
           d="M 4.359375,-0.0625 C 5.90625,-0.640625 7.375,-2.421875 7.375,-4.34375 c 0,-1.609375 -1.0625,-2.6875 -2.546875,-2.6875 -2.140625,0 -4.34375,2.265625 -4.34375,4.59375 0,1.65625 1.125,2.65625 2.5625,2.65625 0.25,0 0.578125,-0.046875 0.96875,-0.15625 -0.03125,0.625 -0.03125,0.640625 -0.03125,0.78125 0,0.3125 0,1.09375 0.828125,1.09375 1.171875,0 1.65625,-1.828125 1.65625,-1.9375 0,-0.0625 -0.0625,-0.09375 -0.109375,-0.09375 -0.078125,0 -0.09375,0.046875 -0.125,0.109375 C 6,0.71875 5.421875,0.96875 5.078125,0.96875 c -0.46875,0 -0.609375,-0.265625 -0.71875,-1.03125 z m -1.875,-0.078125 c -0.78125,-0.3125 -1.125,-1.078125 -1.125,-1.984375 0,-0.6875 0.265625,-2.109375 1.015625,-3.171875 C 3.109375,-6.3125 4.046875,-6.78125 4.78125,-6.78125 5.765625,-6.78125 6.5,-6 6.5,-4.671875 c 0,1 -0.515625,3.34375 -2.1875,4.265625 -0.046875,-0.34375 -0.140625,-1.0625 -0.875,-1.0625 -0.53125,0 -1.015625,0.484375 -1.015625,1.015625 0,0.1875 0.0625,0.296875 0.0625,0.3125 z M 3.09375,-0.03125 c -0.140625,0 -0.453125,0 -0.453125,-0.421875 0,-0.40625 0.375,-0.796875 0.796875,-0.796875 0.421875,0 0.609375,0.234375 0.609375,0.84375 0,0.140625 -0.015625,0.15625 -0.109375,0.203125 C 3.671875,-0.09375 3.375,-0.03125 3.09375,-0.03125 Z m 0,0"
           id="path8481" />
      </symbol>
    </g>
    <g
       id="g6526">
      <symbol
         overflow="visible"
         id="symbol6935">
        <path
           style="stroke:none"
           d=""
           id="path7433" />
      </symbol>
      <symbol
         overflow="visible"
         id="symbol2673">
        <path
           style="stroke:none"
           d="m 3.734375,-6.125 c 0.0625,-0.234375 0.09375,-0.328125 0.28125,-0.359375 C 4.109375,-6.5 4.421875,-6.5 4.625,-6.5 c 0.703125,0 1.8125,0 1.8125,0.984375 0,0.34375 -0.15625,1.03125 -0.546875,1.421875 -0.265625,0.25 -0.78125,0.578125 -1.6875,0.578125 H 3.09375 Z m 1.4375,2.734375 c 1.015625,-0.21875 2.1875,-0.921875 2.1875,-1.921875 0,-0.859375 -0.890625,-1.5 -2.203125,-1.5 H 2.328125 c -0.203125,0 -0.296875,0 -0.296875,0.203125 C 2.03125,-6.5 2.125,-6.5 2.3125,-6.5 c 0.015625,0 0.203125,0 0.375,0.015625 0.1875,0.03125 0.265625,0.03125 0.265625,0.171875 0,0.03125 0,0.0625 -0.03125,0.1875 l -1.34375,5.34375 C 1.484375,-0.390625 1.46875,-0.3125 0.671875,-0.3125 0.5,-0.3125 0.40625,-0.3125 0.40625,-0.109375 0.40625,0 0.53125,0 0.546875,0 c 0.28125,0 0.984375,-0.03125 1.25,-0.03125 0.28125,0 1,0.03125 1.28125,0.03125 0.078125,0 0.1875,0 0.1875,-0.203125 0,-0.109375 -0.078125,-0.109375 -0.28125,-0.109375 -0.359375,0 -0.640625,0 -0.640625,-0.171875 0,-0.0625 0.015625,-0.109375 0.03125,-0.171875 l 0.65625,-2.640625 h 1.1875 c 0.90625,0 1.078125,0.5625 1.078125,0.90625 0,0.140625 -0.078125,0.453125 -0.140625,0.6875 C 5.09375,-1.421875 5,-1.0625 5,-0.859375 5,0.21875 6.203125,0.21875 6.328125,0.21875 c 0.84375,0 1.203125,-1 1.203125,-1.140625 0,-0.125 -0.109375,-0.125 -0.125,-0.125 -0.09375,0 -0.109375,0.0625 -0.125,0.140625 C 7.03125,-0.171875 6.59375,0 6.375,0 6.046875,0 5.96875,-0.21875 5.96875,-0.609375 c 0,-0.3125 0.0625,-0.8125 0.109375,-1.140625 0.015625,-0.140625 0.03125,-0.328125 0.03125,-0.46875 0,-0.765625 -0.671875,-1.078125 -0.9375,-1.171875 z m 0,0"
           id="path4760" />
      </symbol>
    </g>
  </defs>
  <sodipodi:namedview
     id="base"
     pagecolor="#ffffff"
     bordercolor="#666666"
     borderopacity="1.0"
     inkscape:pageopacity="0.0"
     inkscape:pageshadow="2"
     inkscape:zoom="4"
     inkscape:cx="119.99601"
     inkscape:cy="43.326534"
     inkscape:document-units="px"
     inkscape:current-layer="layer1"
     inkscape:document-rotation="0"
     showgrid="true"
     units="px"
     borderlayer="true"
     inkscape:showpageshadow="false"
     showguides="true"
     inkscape:guide-bbox="true"
     inkscape:window-width="1920"
     inkscape:window-height="1050"
     inkscape:window-x="1920"
     inkscape:window-y="18"
     inkscape:window-maximized="1">
    <inkscape:grid
       type="axonomgrid"
       id="grid10"
       originx="-115.64747"
       originy="-131.19323" />
    <sodipodi:guide
       position="17.251336,15.705528"
       orientation="1,0"
       id="guide12" />
    <sodipodi:guide
       position="17.251336,15.705538"
       orientation="-0.5,-0.8660254"
       id="guide14" />
    <sodipodi:guide
       position="17.251336,15.705528"
       orientation="0.5,-0.8660254"
       id="guide16" />
    <sodipodi:guide
       position="17.251336,15.705538"
       orientation="0,-1"
       id="guide893" />
    <sodipodi:guide
       position="11.139916,15.705538"
       orientation="1,0"
       id="guide895" />
    <sodipodi:guide
       position="23.357736,15.705538"
       orientation="1,0"
       id="guide897" />
    <sodipodi:guide
       position="8.0858957,20.997188"
       orientation="0,-1"
       id="guide943" />
    <sodipodi:guide
       position="26.416776,10.413858"
       orientation="0,-1"
       id="guide945" />
    <sodipodi:guide
       position="20.304266,10.413858"
       orientation="1,0"
       id="guide947" />
    <sodipodi:guide
       position="14.195406,20.997188"
       orientation="1,0"
       id="guide949" />
    <sodipodi:guide
       position="29.466986,15.705538"
       orientation="1,0"
       id="guide1009" />
  </sodipodi:namedview>
  <metadata
     id="metadata5">
    <rdf:RDF>
      <cc:Work
         rdf:about="">
        <dc:format>image/svg+xml</dc:format>
        <dc:type
           rdf:resource="http://purl.org/dc/dcmitype/StillImage" />
        <dc:title />
      </cc:Work>
    </rdf:RDF>
  </metadata>
  <g
     inkscape:label="Capa 1"
     inkscape:groupmode="layer"
     id="layer1"
     transform="translate(-115.64747,-131.19323)">
    <g
       inkscape:label=""
       transform="matrix(0.46953325,0,0,0.46953325,76.177499,96.010285)"
       id="g1041">
      <g
         id="g7925">
        <g
           style="fill:#000000;fill-opacity:1"
           id="g6716">
          <use
             xlink:href="#symbol1342"
             x="91.925003"
             y="81.962997"
             id="use1094"
             width="100%"
             height="100%" />
        </g>
      </g>
    </g>
    <path
       style="fill:none;fill-opacity:0.987646;stroke:#800000;stroke-width:0.132292;stroke-linejoin:bevel;stroke-miterlimit:10;stroke-dasharray:0.132292, 0.396876;stroke-dashoffset:0;paint-order:markers fill stroke"
       id="path883"
       sodipodi:type="arc"
       sodipodi:cx="132.89879"
       sodipodi:cy="156.1042"
       sodipodi:rx="18.330866"
       sodipodi:ry="18.330866"
       sodipodi:start="4.1887902"
       sodipodi:end="5.2359878"
       sodipodi:arc-type="arc"
       d="m 123.73336,140.22921 a 18.330866,18.330866 0 0 1 18.33086,0"
       sodipodi:open="true" />
    <path
       style="fill:none;fill-opacity:0.987646;stroke:#800000;stroke-width:0.3175;stroke-linejoin:bevel;stroke-miterlimit:10;stroke-dasharray:none;paint-order:markers fill stroke"
       id="path885"
       sodipodi:type="arc"
       sodipodi:cx="132.89879"
       sodipodi:cy="134.93752"
       sodipodi:rx="18.330866"
       sodipodi:ry="18.330866"
       sodipodi:start="1.0471976"
       sodipodi:end="2.0943951"
       sodipodi:open="true"
       sodipodi:arc-type="arc"
       d="m 142.06422,150.81251 a 18.330866,18.330866 0 0 1 -18.33086,0" />
    <path
       style="fill:none;fill-opacity:0.987646;stroke:#800000;stroke-width:0.132292;stroke-linejoin:bevel;stroke-miterlimit:10;stroke-dasharray:0.132292, 0.396876;stroke-dashoffset:0;paint-order:markers fill stroke"
       id="path899"
       sodipodi:type="arc"
       sodipodi:cx="126.78738"
       sodipodi:cy="145.52083"
       sodipodi:rx="6.1114197"
       sodipodi:ry="6.1114197"
       sodipodi:start="2.0943951"
       sodipodi:end="4.1887902"
       sodipodi:arc-type="arc"
       d="m 123.73167,150.81347 a 6.1114197,6.1114197 0 0 1 -3.05571,-5.29264 6.1114197,6.1114197 0 0 1 3.05571,-5.29265"
       sodipodi:open="true" />
    <path
       style="fill:none;fill-opacity:0.987646;stroke:#800000;stroke-width:0.132292;stroke-linejoin:bevel;stroke-miterlimit:10;stroke-dasharray:0.132292, 0.396876;stroke-dashoffset:0;paint-order:markers fill stroke"
       id="path901"
       sodipodi:type="arc"
       sodipodi:cx="139.00519"
       sodipodi:cy="145.52083"
       sodipodi:rx="6.1064"
       sodipodi:ry="6.1064"
       sodipodi:start="5.2359878"
       sodipodi:end="0"
       sodipodi:open="true"
       sodipodi:arc-type="arc"
       d="m 142.05839,140.23253 a 6.1064,6.1064 0 0 1 3.0532,5.2883" />
    <path
       style="fill:none;fill-opacity:0.987646;stroke:#800000;stroke-width:0.3175;stroke-linejoin:bevel;stroke-miterlimit:10;stroke-dasharray:none;paint-order:markers fill stroke"
       id="path939"
       sodipodi:type="arc"
       sodipodi:cx="123.73338"
       sodipodi:cy="150.81252"
       sodipodi:rx="18.330872"
       sodipodi:ry="18.330872"
       sodipodi:start="5.2359878"
       sodipodi:end="0"
       sodipodi:open="true"
       sodipodi:arc-type="arc"
       d="m 132.89882,134.93752 a 18.330872,18.330872 0 0 1 9.16543,15.875" />
    <path
       style="fill:none;fill-opacity:0.987646;stroke:#800000;stroke-width:0.132292;stroke-linejoin:bevel;stroke-miterlimit:10;stroke-dasharray:0.132292, 0.396876;stroke-dashoffset:0;paint-order:markers fill stroke"
       id="path941"
       sodipodi:type="arc"
       sodipodi:cx="142.06422"
       sodipodi:cy="140.22919"
       sodipodi:rx="18.330872"
       sodipodi:ry="18.330872"
       sodipodi:start="2.0943951"
       sodipodi:end="3.1415927"
       sodipodi:open="true"
       sodipodi:arc-type="arc"
       d="m 132.89879,156.10419 a 18.330872,18.330872 0 0 1 -9.16544,-15.875" />
    <path
       style="fill:none;fill-opacity:0.987646;stroke:#800000;stroke-width:0.132292;stroke-linejoin:bevel;stroke-miterlimit:10;stroke-dasharray:0.132292, 0.396876;stroke-dashoffset:0;paint-order:markers fill stroke"
       id="path951"
       sodipodi:type="arc"
       sodipodi:cx="129.84286"
       sodipodi:cy="140.22919"
       sodipodi:rx="6.1088595"
       sodipodi:ry="6.1088595"
       sodipodi:start="3.1415927"
       sodipodi:end="4.1887902"
       sodipodi:open="true"
       sodipodi:arc-type="arc"
       d="m 123.73401,140.22919 a 6.1088595,6.1088595 0 0 1 3.05443,-5.29043" />
    <path
       style="fill:none;fill-opacity:0.987646;stroke:#800000;stroke-width:0.132292;stroke-linejoin:bevel;stroke-miterlimit:10;stroke-dasharray:0.132292, 0.396876;stroke-dashoffset:0;paint-order:markers fill stroke"
       id="path953"
       sodipodi:type="arc"
       sodipodi:cx="135.95174"
       sodipodi:cy="150.81252"
       sodipodi:rx="6.1088595"
       sodipodi:ry="6.1088595"
       sodipodi:start="1.0471976"
       sodipodi:end="2.0943951"
       sodipodi:open="true"
       sodipodi:arc-type="arc"
       d="m 139.00617,156.10294 a 6.1088595,6.1088595 0 0 1 -6.10886,0" />
    <path
       style="fill:none;fill-opacity:0.987646;stroke:#800000;stroke-width:0.3175;stroke-linejoin:bevel;stroke-miterlimit:10;stroke-dasharray:none;paint-order:markers fill stroke"
       id="path991"
       sodipodi:type="arc"
       sodipodi:cx="142.06424"
       sodipodi:cy="150.8125"
       sodipodi:rx="18.330872"
       sodipodi:ry="18.330872"
       sodipodi:start="3.1415927"
       sodipodi:end="4.1887902"
       sodipodi:open="true"
       sodipodi:arc-type="arc"
       d="m 123.73337,150.8125 a 18.330872,18.330872 0 0 1 9.16543,-15.875" />
    <path
       style="fill:none;fill-opacity:0.987646;stroke:#800000;stroke-width:0.132292;stroke-linejoin:bevel;stroke-miterlimit:10;stroke-dasharray:0.132292, 0.396876;stroke-dashoffset:0;paint-order:markers fill stroke"
       id="path993"
       sodipodi:type="arc"
       sodipodi:cx="123.73339"
       sodipodi:cy="140.22917"
       sodipodi:rx="18.330858"
       sodipodi:ry="18.330858"
       sodipodi:start="0"
       sodipodi:end="1.0471976"
       sodipodi:open="true"
       sodipodi:arc-type="arc"
       d="m 142.06425,140.22917 a 18.330858,18.330858 0 0 1 -9.16543,15.87499" />
    <path
       style="fill:none;fill-opacity:0.987646;stroke:#800000;stroke-width:0.132292;stroke-linejoin:bevel;stroke-miterlimit:10;stroke-dasharray:0.132292, 0.396876;stroke-dashoffset:0;paint-order:markers fill stroke"
       id="path1001"
       sodipodi:type="arc"
       sodipodi:cx="129.84288"
       sodipodi:cy="150.8125"
       sodipodi:rx="6.1088595"
       sodipodi:ry="6.1088595"
       sodipodi:start="1.0471976"
       sodipodi:end="2.0943951"
       sodipodi:open="true"
       sodipodi:arc-type="arc"
       d="m 132.89731,156.10293 a 6.1088595,6.1088595 0 0 1 -6.10886,0" />
    <path
       style="fill:none;fill-opacity:0.987646;stroke:#800000;stroke-width:0.132292;stroke-linejoin:bevel;stroke-miterlimit:10;stroke-dasharray:0.132292, 0.396876;stroke-dashoffset:0;paint-order:markers fill stroke"
       id="path1003"
       sodipodi:type="arc"
       sodipodi:cx="135.95175"
       sodipodi:cy="140.22917"
       sodipodi:rx="6.1088595"
       sodipodi:ry="6.1088595"
       sodipodi:start="5.2359878"
       sodipodi:end="0"
       sodipodi:arc-type="arc"
       d="m 139.00618,134.93874 a 6.1088595,6.1088595 0 0 1 3.05443,5.29043"
       sodipodi:open="true" />
    <path
       style="fill:none;fill-opacity:0.987646;stroke:#800000;stroke-width:0.3175;stroke-linejoin:bevel;stroke-miterlimit:10;stroke-dasharray:none;paint-order:markers fill stroke"
       id="path1013"
       sodipodi:type="arc"
       sodipodi:cx="126.78738"
       sodipodi:cy="145.52083"
       sodipodi:rx="6.1114197"
       sodipodi:ry="6.1114197"
       sodipodi:start="2.0943951"
       sodipodi:end="3.1415927"
       sodipodi:arc-type="arc"
       d="m 123.73167,150.81347 a 6.1114197,6.1114197 0 0 1 -3.05571,-5.29264"
       sodipodi:open="true" />
    <path
       style="fill:none;fill-opacity:0.987646;stroke:#800000;stroke-width:0.3175;stroke-linejoin:bevel;stroke-miterlimit:10;stroke-dasharray:none;paint-order:markers fill stroke"
       id="path1015"
       sodipodi:type="arc"
       sodipodi:cx="139.00519"
       sodipodi:cy="145.52083"
       sodipodi:rx="6.1064"
       sodipodi:ry="6.1064"
       sodipodi:start="0"
       sodipodi:end="1.0471976"
       sodipodi:open="true"
       sodipodi:arc-type="arc"
       d="m 145.11159,145.52083 a 6.1064,6.1064 0 0 1 -3.0532,5.2883" />
    <path
       style="fill:none;fill-opacity:0.987646;stroke:#800000;stroke-width:0.3175;stroke-linejoin:bevel;stroke-miterlimit:10;stroke-dasharray:none;paint-order:markers fill stroke"
       id="path1017"
       sodipodi:type="arc"
       sodipodi:cx="129.84288"
       sodipodi:cy="150.8125"
       sodipodi:rx="6.1088595"
       sodipodi:ry="6.1088595"
       sodipodi:start="2.0943951"
       sodipodi:end="3.1415927"
       sodipodi:open="true"
       sodipodi:arc-type="arc"
       d="m 126.78845,156.10293 a 6.1088595,6.1088595 0 0 1 -3.05443,-5.29043" />
    <path
       style="fill:none;fill-opacity:0.987646;stroke:#800000;stroke-width:0.3175;stroke-linejoin:bevel;stroke-miterlimit:10;stroke-dasharray:none;paint-order:markers fill stroke"
       id="path1019"
       sodipodi:type="arc"
       sodipodi:cx="135.95175"
       sodipodi:cy="140.22917"
       sodipodi:rx="6.1088595"
       sodipodi:ry="6.1088595"
       sodipodi:start="4.1887902"
       sodipodi:end="5.2359878"
       sodipodi:arc-type="arc"
       d="m 132.89732,134.93874 a 6.1088595,6.1088595 0 0 1 6.10886,0"
       sodipodi:open="true" />
    <path
       style="fill:none;fill-opacity:0.987646;stroke:#800000;stroke-width:0.3175;stroke-linejoin:bevel;stroke-miterlimit:10;stroke-dasharray:none;paint-order:markers fill stroke"
       id="path1021"
       sodipodi:type="arc"
       sodipodi:cx="129.84286"
       sodipodi:cy="140.22919"
       sodipodi:rx="6.1088595"
       sodipodi:ry="6.1088595"
       sodipodi:start="4.1887902"
       sodipodi:end="5.2359878"
       sodipodi:open="true"
       sodipodi:arc-type="arc"
       d="m 126.78844,134.93876 a 6.1088595,6.1088595 0 0 1 6.10885,0" />
    <path
       style="fill:none;fill-opacity:0.987646;stroke:#800000;stroke-width:0.3175;stroke-linejoin:bevel;stroke-miterlimit:10;stroke-dasharray:none;paint-order:markers fill stroke"
       id="path1023"
       sodipodi:type="arc"
       sodipodi:cx="135.95174"
       sodipodi:cy="150.81252"
       sodipodi:rx="6.1088595"
       sodipodi:ry="6.1088595"
       sodipodi:start="0"
       sodipodi:end="1.0471976"
       sodipodi:open="true"
       sodipodi:arc-type="arc"
       d="m 142.0606,150.81252 a 6.1088595,6.1088595 0 0 1 -3.05443,5.29042" />
    <circle
       style="fill:none;fill-opacity:0.987646;stroke:#800000;stroke-width:0.396875;stroke-linejoin:bevel;stroke-miterlimit:10;stroke-dasharray:none;paint-order:markers fill stroke"
       id="path1011"
       cx="132.89882"
       cy="145.52081"
       r="12.215632" />
    <path
       style="fill:none;fill-opacity:0.987646;stroke:#000000;stroke-width:0.264583;stroke-linejoin:bevel;stroke-miterlimit:10;stroke-dasharray:none;stroke-dashoffset:0;paint-order:markers fill stroke"
       d="m 120.29634,152.79688 -4.58272,2.64583"
       id="path1025" />
    <path
       style="fill:none;fill-opacity:0.987646;stroke:#000000;stroke-width:0.264583;stroke-linejoin:bevel;stroke-miterlimit:10;stroke-dasharray:none;stroke-dashoffset:0;paint-order:markers fill stroke"
       d="m 129.46178,158.08855 -4.58272,2.64583"
       id="path1027"
       sodipodi:nodetypes="cc" />
    <path
       style="fill:none;fill-opacity:0.987646;stroke:#000000;stroke-width:0.264583;stroke-linejoin:bevel;stroke-miterlimit:10;stroke-dasharray:none;stroke-dashoffset:0;paint-order:markers fill stroke"
       d="m 118.00498,154.11979 9.16543,5.29167"
       id="path1029" />
    <g
       inkscape:label=""
       transform="matrix(0.5041306,0,0,0.5041306,70.837007,119.79603)"
       id="g1106">
      <g
         id="g4799">
        <g
           style="fill:#000000;fill-opacity:1"
           id="g9291">
          <use
             xlink:href="#symbol2673"
             x="91.925003"
             y="81.962997"
             id="use2692"
             width="100%"
             height="100%" />
        </g>
      </g>
    </g>
    <path
       style="fill:none;fill-opacity:0.987646;stroke:#000000;stroke-width:0.264583;stroke-linejoin:bevel;stroke-miterlimit:10;stroke-dasharray:none;stroke-dashoffset:0;paint-order:markers fill stroke"
       d="m 132.89881,145.52083 4.58272,2.64584"
       id="path1131"
       sodipodi:nodetypes="cc" />
    <path
       style="fill:none;fill-opacity:0.987646;stroke:#000000;stroke-width:0.264583;stroke-linejoin:bevel;stroke-miterlimit:10;stroke-dasharray:0.264583, 0.529166;stroke-dashoffset:0;paint-order:markers fill stroke"
       d="m 137.48153,148.16667 13.74816,7.9375"
       id="path1139"
       sodipodi:nodetypes="cc" />
    <circle
       style="fill:#808080;fill-opacity:0.987646;stroke:#000000;stroke-width:0.264583;stroke-linejoin:bevel;stroke-miterlimit:10;stroke-dasharray:none;stroke-dashoffset:0;paint-order:markers fill stroke"
       id="path1135"
       cx="151.22969"
       cy="156.10417"
       r="0.55168205" />
    <circle
       style="fill:#808080;fill-opacity:0.987646;stroke:#000000;stroke-width:0.264583;stroke-linejoin:bevel;stroke-miterlimit:10;stroke-dasharray:none;stroke-dashoffset:0;paint-order:markers fill stroke"
       id="path1137"
       cx="137.48152"
       cy="148.16667"
       r="0.62599713" />
  </g>
</svg>
