<?xml version="1.0" encoding="UTF-8" standalone="no"?>
<svg
   xmlns:dc="http://purl.org/dc/elements/1.1/"
   xmlns:cc="http://creativecommons.org/ns#"
   xmlns:rdf="http://www.w3.org/1999/02/22-rdf-syntax-ns#"
   xmlns:svg="http://www.w3.org/2000/svg"
   xmlns="http://www.w3.org/2000/svg"
   xmlns:xlink="http://www.w3.org/1999/xlink"
   xmlns:sodipodi="http://sodipodi.sourceforge.net/DTD/sodipodi-0.dtd"
   xmlns:inkscape="http://www.inkscape.org/namespaces/inkscape"
   width="291.57071"
   height="291.57068"
   viewBox="0 0 77.144749 77.144744"
   version="1.1"
   id="svg8"
   sodipodi:docname="a6.svg"
   inkscape:version="1.0.2 (e86c870879, 2021-01-15)">
  <defs
     id="defs2">
    <marker
       style="overflow:visible;"
       id="Arrow1Mend"
       refX="0.0"
       refY="0.0"
       orient="auto"
       inkscape:stockid="Arrow1Mend"
       inkscape:isstock="true">
      <path
         transform="scale(0.4) rotate(180) translate(10,0)"
         style="fill-rule:evenodd;stroke:#000000;stroke-width:1pt;stroke-opacity:1;fill:#000000;fill-opacity:1"
         d="M 0.0,0.0 L 5.0,-5.0 L -12.5,0.0 L 5.0,5.0 L 0.0,0.0 z "
         id="path894" />
    </marker>
    <marker
       style="overflow:visible;"
       id="marker2126"
       refX="0.0"
       refY="0.0"
       orient="auto"
       inkscape:stockid="Arrow1Send"
       inkscape:isstock="true">
      <path
         transform="scale(0.2) rotate(180) translate(6,0)"
         style="fill-rule:evenodd;stroke:#000000;stroke-width:1pt;stroke-opacity:1;fill:#000000;fill-opacity:1"
         d="M 0.0,0.0 L 5.0,-5.0 L -12.5,0.0 L 5.0,5.0 L 0.0,0.0 z "
         id="path2124" />
    </marker>
    <marker
       style="overflow:visible;"
       id="Arrow1Send"
       refX="0.0"
       refY="0.0"
       orient="auto"
       inkscape:stockid="Arrow1Send"
       inkscape:isstock="true"
       inkscape:collect="always">
      <path
         transform="scale(0.2) rotate(180) translate(6,0)"
         style="fill-rule:evenodd;stroke:#000000;stroke-width:1pt;stroke-opacity:1;fill:#000000;fill-opacity:1"
         d="M 0.0,0.0 L 5.0,-5.0 L -12.5,0.0 L 5.0,5.0 L 0.0,0.0 z "
         id="path900" />
    </marker>
    <marker
       style="overflow:visible"
       id="marker1808"
       refX="0"
       refY="0"
       orient="auto"
       inkscape:stockid="Arrow1Send"
       inkscape:isstock="true">
      <path
         transform="matrix(-0.2,0,0,-0.2,-1.2,0)"
         style="fill:#000000;fill-opacity:1;fill-rule:evenodd;stroke:#000000;stroke-width:1pt;stroke-opacity:1"
         d="M 0,0 5,-5 -12.5,0 5,5 Z"
         id="path1806" />
    </marker>
    <marker
       style="overflow:visible"
       id="marker1369"
       refX="0"
       refY="0"
       orient="auto"
       inkscape:stockid="Arrow1Send"
       inkscape:isstock="true"
       inkscape:collect="always">
      <path
         transform="matrix(-0.2,0,0,-0.2,-1.2,0)"
         style="fill:#000000;fill-opacity:1;fill-rule:evenodd;stroke:#000000;stroke-width:1pt;stroke-opacity:1"
         d="M 0,0 5,-5 -12.5,0 5,5 Z"
         id="path1367" />
    </marker>
    <marker
       style="overflow:visible"
       id="marker1359"
       refX="0"
       refY="0"
       orient="auto"
       inkscape:stockid="Arrow1Send"
       inkscape:isstock="true">
      <path
         transform="matrix(-0.2,0,0,-0.2,-1.2,0)"
         style="fill:#000000;fill-opacity:1;fill-rule:evenodd;stroke:#000000;stroke-width:1pt;stroke-opacity:1"
         d="M 0,0 5,-5 -12.5,0 5,5 Z"
         id="path1357" />
    </marker>
    <marker
       style="overflow:visible"
       id="marker1269"
       refX="0"
       refY="0"
       orient="auto"
       inkscape:stockid="Arrow1Sstart"
       inkscape:isstock="true">
      <path
         transform="matrix(0.2,0,0,0.2,1.2,0)"
         style="fill:#000000;fill-opacity:1;fill-rule:evenodd;stroke:#000000;stroke-width:1pt;stroke-opacity:1"
         d="M 0,0 5,-5 -12.5,0 5,5 Z"
         id="path1267" />
    </marker>
    <marker
       style="overflow:visible"
       id="marker1259"
       refX="0"
       refY="0"
       orient="auto"
       inkscape:stockid="Arrow1Sstart"
       inkscape:isstock="true">
      <path
         transform="matrix(0.2,0,0,0.2,1.2,0)"
         style="fill:#000000;fill-opacity:1;fill-rule:evenodd;stroke:#000000;stroke-width:1pt;stroke-opacity:1"
         d="M 0,0 5,-5 -12.5,0 5,5 Z"
         id="path1257" />
    </marker>
    <marker
       style="overflow:visible"
       id="marker1249"
       refX="0"
       refY="0"
       orient="auto"
       inkscape:stockid="Arrow1Sstart"
       inkscape:isstock="true">
      <path
         transform="matrix(0.2,0,0,0.2,1.2,0)"
         style="fill:#000000;fill-opacity:1;fill-rule:evenodd;stroke:#000000;stroke-width:1pt;stroke-opacity:1"
         d="M 0,0 5,-5 -12.5,0 5,5 Z"
         id="path1247" />
    </marker>
    <marker
       style="overflow:visible"
       id="marker1169"
       refX="0"
       refY="0"
       orient="auto"
       inkscape:stockid="Arrow1Sstart"
       inkscape:isstock="true">
      <path
         transform="matrix(0.2,0,0,0.2,1.2,0)"
         style="fill:#000000;fill-opacity:1;fill-rule:evenodd;stroke:#000000;stroke-width:1pt;stroke-opacity:1"
         d="M 0,0 5,-5 -12.5,0 5,5 Z"
         id="path1167" />
    </marker>
    <g
       id="g3622">
      <symbol
         overflow="visible"
         id="symbol9303">
        <path
           style="stroke:none"
           d=""
           id="path9861" />
      </symbol>
      <symbol
         overflow="visible"
         id="symbol7037">
        <path
           style="stroke:none"
           d="M 4.359375,-0.0625 C 5.90625,-0.640625 7.375,-2.421875 7.375,-4.34375 c 0,-1.609375 -1.0625,-2.6875 -2.546875,-2.6875 -2.140625,0 -4.34375,2.265625 -4.34375,4.59375 0,1.65625 1.125,2.65625 2.5625,2.65625 0.25,0 0.578125,-0.046875 0.96875,-0.15625 -0.03125,0.625 -0.03125,0.640625 -0.03125,0.78125 0,0.3125 0,1.09375 0.828125,1.09375 1.171875,0 1.65625,-1.828125 1.65625,-1.9375 0,-0.0625 -0.0625,-0.09375 -0.109375,-0.09375 -0.078125,0 -0.09375,0.046875 -0.125,0.109375 C 6,0.71875 5.421875,0.96875 5.078125,0.96875 c -0.46875,0 -0.609375,-0.265625 -0.71875,-1.03125 z m -1.875,-0.078125 c -0.78125,-0.3125 -1.125,-1.078125 -1.125,-1.984375 0,-0.6875 0.265625,-2.109375 1.015625,-3.171875 C 3.109375,-6.3125 4.046875,-6.78125 4.78125,-6.78125 5.765625,-6.78125 6.5,-6 6.5,-4.671875 c 0,1 -0.515625,3.34375 -2.1875,4.265625 -0.046875,-0.34375 -0.140625,-1.0625 -0.875,-1.0625 -0.53125,0 -1.015625,0.484375 -1.015625,1.015625 0,0.1875 0.0625,0.296875 0.0625,0.3125 z M 3.09375,-0.03125 c -0.140625,0 -0.453125,0 -0.453125,-0.421875 0,-0.40625 0.375,-0.796875 0.796875,-0.796875 0.421875,0 0.609375,0.234375 0.609375,0.84375 0,0.140625 -0.015625,0.15625 -0.109375,0.203125 C 3.671875,-0.09375 3.375,-0.03125 3.09375,-0.03125 Z m 0,0"
           id="path3497" />
      </symbol>
      <symbol
         overflow="visible"
         id="symbol4702">
        <path
           style="stroke:none"
           d=""
           id="path8959" />
      </symbol>
      <symbol
         overflow="visible"
         id="symbol478">
        <path
           style="stroke:none"
           d="m 2.328125,-4.4375 c 0,-0.1875 0,-0.1875 -0.203125,-0.1875 -0.453125,0.4375 -1.078125,0.4375 -1.359375,0.4375 v 0.25 c 0.15625,0 0.625,0 1,-0.1875 v 3.546875 c 0,0.234375 0,0.328125 -0.6875,0.328125 H 0.8125 V 0 c 0.125,0 0.984375,-0.03125 1.234375,-0.03125 0.21875,0 1.09375,0.03125 1.25,0.03125 V -0.25 H 3.03125 c -0.703125,0 -0.703125,-0.09375 -0.703125,-0.328125 z m 0,0"
           id="path2038" />
      </symbol>
    </g>
    <g
       id="g7882">
      <symbol
         overflow="visible"
         id="symbol5137">
        <path
           style="stroke:none"
           d=""
           id="path1291" />
      </symbol>
      <symbol
         overflow="visible"
         id="symbol4818">
        <path
           style="stroke:none"
           d="M 4.359375,-0.0625 C 5.90625,-0.640625 7.375,-2.421875 7.375,-4.34375 c 0,-1.609375 -1.0625,-2.6875 -2.546875,-2.6875 -2.140625,0 -4.34375,2.265625 -4.34375,4.59375 0,1.65625 1.125,2.65625 2.5625,2.65625 0.25,0 0.578125,-0.046875 0.96875,-0.15625 -0.03125,0.625 -0.03125,0.640625 -0.03125,0.78125 0,0.3125 0,1.09375 0.828125,1.09375 1.171875,0 1.65625,-1.828125 1.65625,-1.9375 0,-0.0625 -0.0625,-0.09375 -0.109375,-0.09375 -0.078125,0 -0.09375,0.046875 -0.125,0.109375 C 6,0.71875 5.421875,0.96875 5.078125,0.96875 c -0.46875,0 -0.609375,-0.265625 -0.71875,-1.03125 z m -1.875,-0.078125 c -0.78125,-0.3125 -1.125,-1.078125 -1.125,-1.984375 0,-0.6875 0.265625,-2.109375 1.015625,-3.171875 C 3.109375,-6.3125 4.046875,-6.78125 4.78125,-6.78125 5.765625,-6.78125 6.5,-6 6.5,-4.671875 c 0,1 -0.515625,3.34375 -2.1875,4.265625 -0.046875,-0.34375 -0.140625,-1.0625 -0.875,-1.0625 -0.53125,0 -1.015625,0.484375 -1.015625,1.015625 0,0.1875 0.0625,0.296875 0.0625,0.3125 z M 3.09375,-0.03125 c -0.140625,0 -0.453125,0 -0.453125,-0.421875 0,-0.40625 0.375,-0.796875 0.796875,-0.796875 0.421875,0 0.609375,0.234375 0.609375,0.84375 0,0.140625 -0.015625,0.15625 -0.109375,0.203125 C 3.671875,-0.09375 3.375,-0.03125 3.09375,-0.03125 Z m 0,0"
           id="path182" />
      </symbol>
      <symbol
         overflow="visible"
         id="symbol5647">
        <path
           style="stroke:none"
           d=""
           id="path1244" />
      </symbol>
      <symbol
         overflow="visible"
         id="symbol958">
        <path
           style="stroke:none"
           d="M 3.515625,-1.265625 H 3.28125 c -0.015625,0.15625 -0.09375,0.5625 -0.1875,0.625 C 3.046875,-0.59375 2.515625,-0.59375 2.40625,-0.59375 H 1.125 c 0.734375,-0.640625 0.984375,-0.84375 1.390625,-1.171875 0.515625,-0.40625 1,-0.84375 1,-1.5 0,-0.84375 -0.734375,-1.359375 -1.625,-1.359375 -0.859375,0 -1.453125,0.609375 -1.453125,1.25 0,0.34375 0.296875,0.390625 0.375,0.390625 0.15625,0 0.359375,-0.125 0.359375,-0.375 0,-0.125 -0.046875,-0.375 -0.40625,-0.375 C 0.984375,-4.21875 1.453125,-4.375 1.78125,-4.375 c 0.703125,0 1.0625,0.546875 1.0625,1.109375 0,0.609375 -0.4375,1.078125 -0.65625,1.328125 L 0.515625,-0.265625 C 0.4375,-0.203125 0.4375,-0.1875 0.4375,0 h 2.875 z m 0,0"
           id="path4745" />
      </symbol>
    </g>
  </defs>
  <sodipodi:namedview
     id="base"
     pagecolor="#ffffff"
     bordercolor="#666666"
     borderopacity="1.0"
     inkscape:pageopacity="0.0"
     inkscape:pageshadow="2"
     inkscape:zoom="3.959798"
     inkscape:cx="212.65043"
     inkscape:cy="154.74803"
     inkscape:document-units="px"
     inkscape:current-layer="layer1"
     inkscape:document-rotation="0"
     showgrid="true"
     units="px"
     showguides="true"
     inkscape:guide-bbox="true"
     inkscape:window-width="1920"
     inkscape:window-height="1050"
     inkscape:window-x="1920"
     inkscape:window-y="18"
     inkscape:window-maximized="0">
    <inkscape:grid
       type="xygrid"
       id="grid10"
       originx="-33.866665"
       originy="-142.98859" />
    <sodipodi:guide
       position="16.933333,59.266664"
       orientation="0,-1"
       id="guide1493" />
    <sodipodi:guide
       position="59.266666,16.933329"
       orientation="1,0"
       id="guide1495" />
  </sodipodi:namedview>
  <metadata
     id="metadata5">
    <rdf:RDF>
      <cc:Work
         rdf:about="">
        <dc:format>image/svg+xml</dc:format>
        <dc:type
           rdf:resource="http://purl.org/dc/dcmitype/StillImage" />
        <dc:title></dc:title>
      </cc:Work>
    </rdf:RDF>
  </metadata>
  <g
     inkscape:label="Capa 1"
     inkscape:groupmode="layer"
     id="layer1"
     transform="translate(-33.866666,-142.98859)">
    <path
       style="fill:none;fill-opacity:0.987646;stroke:#000000;stroke-width:0.529167;stroke-linejoin:bevel;stroke-miterlimit:10;stroke-dasharray:none;stroke-dashoffset:0;marker-end:url(#marker1369);paint-order:markers fill stroke"
       d="m 50.799999,220.13333 10e-7,-76.2"
       id="path837"
       sodipodi:nodetypes="cc" />
    <path
       style="fill:none;fill-opacity:0.987646;stroke:#000000;stroke-width:0.529167;stroke-linejoin:bevel;stroke-miterlimit:10;stroke-dasharray:none;stroke-dashoffset:0;marker-end:url(#marker1359);paint-order:markers fill stroke"
       d="M 33.866666,203.2 H 110.06667"
       id="path839"
       sodipodi:nodetypes="cc" />
    <circle
       style="fill:#ff0000;fill-opacity:0.987646;stroke:#800000;stroke-width:0.529167;stroke-linejoin:bevel;stroke-miterlimit:10;stroke-dasharray:none;stroke-dashoffset:0;paint-order:markers fill stroke"
       id="path841"
       cx="50.799999"
       cy="203.2"
       r="2.1166666" />
    <path
       style="fill:none;fill-opacity:0.987646;stroke:#000000;stroke-width:0.529167;stroke-linejoin:bevel;stroke-miterlimit:10;stroke-dasharray:none;stroke-dashoffset:0;paint-order:markers fill stroke"
       d="m 59.266666,201.08333 v 4.23333"
       id="path843" />
    <path
       style="fill:none;fill-opacity:0.987646;stroke:#000000;stroke-width:0.529167;stroke-linejoin:bevel;stroke-miterlimit:10;stroke-dasharray:none;stroke-dashoffset:0;paint-order:markers fill stroke"
       d="m 67.733334,201.08333 v 4.23333"
       id="path845" />
    <path
       style="fill:none;fill-opacity:0.987646;stroke:#000000;stroke-width:0.529167;stroke-linejoin:bevel;stroke-miterlimit:10;stroke-dasharray:none;stroke-dashoffset:0;paint-order:markers fill stroke"
       d="m 76.2,201.08333 v 4.23333"
       id="path847" />
    <path
       style="fill:none;fill-opacity:0.987646;stroke:#000000;stroke-width:0.529167;stroke-linejoin:bevel;stroke-miterlimit:10;stroke-dasharray:none;stroke-dashoffset:0;paint-order:markers fill stroke"
       d="m 52.916667,177.8 h -4.23333"
       id="path843-3" />
    <path
       style="fill:none;fill-opacity:0.987646;stroke:#000000;stroke-width:0.529167;stroke-linejoin:bevel;stroke-miterlimit:10;stroke-dasharray:none;stroke-dashoffset:0;paint-order:markers fill stroke"
       d="m 52.916667,186.26667 h -4.23333"
       id="path845-6" />
    <path
       style="fill:none;fill-opacity:0.987646;stroke:#000000;stroke-width:0.529167;stroke-linejoin:bevel;stroke-miterlimit:10;stroke-dasharray:none;stroke-dashoffset:0;paint-order:markers fill stroke"
       d="m 52.916667,194.73333 h -4.23333"
       id="path847-7" />
    <path
       style="fill:none;fill-opacity:0.987646;stroke:#000000;stroke-width:0.529167;stroke-linejoin:bevel;stroke-miterlimit:10;stroke-dasharray:none;stroke-dashoffset:0;paint-order:markers fill stroke"
       d="m 52.916667,160.86666 h -4.23333"
       id="path877" />
    <path
       style="fill:none;fill-opacity:0.987646;stroke:#000000;stroke-width:0.529167;stroke-linejoin:bevel;stroke-miterlimit:10;stroke-dasharray:none;stroke-dashoffset:0;paint-order:markers fill stroke"
       d="m 52.916667,169.33333 h -4.23333"
       id="path879" />
    <path
       style="fill:none;fill-opacity:0.987646;stroke:#000000;stroke-width:0.529167;stroke-linejoin:bevel;stroke-miterlimit:10;stroke-dasharray:none;stroke-dashoffset:0;paint-order:markers fill stroke"
       d="m 84.666668,201.08333 v 4.23333"
       id="path881" />
    <path
       style="fill:none;fill-opacity:0.987646;stroke:#000000;stroke-width:0.529167;stroke-linejoin:bevel;stroke-miterlimit:10;stroke-dasharray:none;stroke-dashoffset:0;paint-order:markers fill stroke"
       d="m 93.133334,201.08333 v 4.23333"
       id="path883" />
    <g
       inkscape:label=""
       transform="matrix(0.76754838,0,0,0.76754838,-31.595148,148.87803)"
       id="g1567">
      <g
         id="g1395"
         transform="translate(0.12311152)">
        <g
           style="fill:#000000;fill-opacity:1"
           id="g5095">
          <use
             xlink:href="#symbol7037"
             x="91.925003"
             y="81.962997"
             id="use380"
             width="100%"
             height="100%" />
        </g>
        <g
           style="fill:#000000;fill-opacity:1"
           id="g5962">
          <use
             xlink:href="#symbol478"
             x="99.801003"
             y="83.457001"
             id="use7704"
             width="100%"
             height="100%" />
        </g>
      </g>
    </g>
    <g
       inkscape:label=""
       transform="matrix(0.76754838,0,0,0.76754838,6.427497,148.87803)"
       id="g1652">
      <g
         id="g1799">
        <g
           style="fill:#000000;fill-opacity:1"
           id="g1601">
          <use
             xlink:href="#symbol4818"
             x="91.925003"
             y="81.962997"
             id="use1420"
             width="100%"
             height="100%" />
        </g>
        <g
           style="fill:#000000;fill-opacity:1"
           id="g8584">
          <use
             xlink:href="#symbol958"
             x="99.801003"
             y="83.457001"
             id="use9970"
             width="100%"
             height="100%" />
        </g>
      </g>
    </g>
    <path
       style="fill:none;fill-opacity:0.987646;stroke:#000000;stroke-width:0.529167;stroke-linejoin:bevel;stroke-miterlimit:10;stroke-dasharray:0.529167, 1.05833;stroke-dashoffset:0;marker-end:url(#Arrow1Send);paint-order:markers fill stroke"
       d="m 84.666668,182.03333 8.466667,-21.16666"
       id="path1499"
       sodipodi:nodetypes="cc" />
    <path
       style="fill:none;fill-opacity:0.987646;stroke:#000000;stroke-width:0.529167;stroke-linejoin:bevel;stroke-miterlimit:10;stroke-dasharray:0.529167, 1.05832999999999999;stroke-dashoffset:0;marker-end:url(#Arrow1Mend);paint-order:markers fill stroke"
       d="m 76.200001,203.19999 8.466667,-21.16666"
       id="path2122"
       sodipodi:nodetypes="cc" />
    <circle
       style="fill:#0000ff;fill-opacity:0.987646;stroke:#000080;stroke-width:0.529167;stroke-linejoin:bevel;stroke-miterlimit:10;stroke-dasharray:none;stroke-dashoffset:0;paint-order:markers fill stroke"
       id="path1497"
       cx="93.133331"
       cy="160.86667"
       r="2.1166646" />
    <circle
       style="fill:#0000ff;fill-opacity:0.987646;stroke:#000080;stroke-width:0.529167;stroke-linejoin:bevel;stroke-miterlimit:10;stroke-dasharray:none;stroke-dashoffset:0;paint-order:markers fill stroke"
       id="path1491"
       cx="76.199997"
       cy="203.2"
       r="2.1166666" />
  </g>
</svg>
