<?xml version="1.0" encoding="UTF-8" standalone="no"?>
<svg
   xmlns:dc="http://purl.org/dc/elements/1.1/"
   xmlns:cc="http://creativecommons.org/ns#"
   xmlns:rdf="http://www.w3.org/1999/02/22-rdf-syntax-ns#"
   xmlns:svg="http://www.w3.org/2000/svg"
   xmlns="http://www.w3.org/2000/svg"
   xmlns:xlink="http://www.w3.org/1999/xlink"
   xmlns:sodipodi="http://sodipodi.sourceforge.net/DTD/sodipodi-0.dtd"
   xmlns:inkscape="http://www.inkscape.org/namespaces/inkscape"
   width="230.74681"
   height="178.17598"
   viewBox="0 0 61.05176 47.142396"
   version="1.1"
   id="svg8"
   sodipodi:docname="a8.svg"
   inkscape:version="1.0.2 (e86c870879, 2021-01-15)">
  <defs
     id="defs2">
    <g
       id="g4528">
      <symbol
         overflow="visible"
         id="symbol5932">
        <path
           style="stroke:none"
           d=""
           id="path5132" />
      </symbol>
      <symbol
         overflow="visible"
         id="symbol1707">
        <path
           style="stroke:none"
           d="m 3.5625,-2.90625 c 0.40625,1.046875 0.890625,2.5625 1.046875,2.796875 0.15625,0.21875 0.25,0.21875 0.53125,0.21875 h 0.21875 c 0.09375,-0.015625 0.109375,-0.0625 0.109375,-0.09375 0,-0.03125 -0.03125,-0.0625 -0.0625,-0.09375 C 5.3125,-0.1875 5.25,-0.34375 5.1875,-0.53125 L 3.15625,-6.203125 c -0.21875,-0.578125 -0.75,-0.71875 -1.21875,-0.71875 -0.046875,0 -0.1875,0 -0.1875,0.109375 0,0.078125 0.078125,0.109375 0.09375,0.109375 C 2.171875,-6.65625 2.25,-6.59375 2.5,-5.90625 l 0.953125,2.703125 -2.75,2.734375 c -0.109375,0.125 -0.171875,0.171875 -0.171875,0.3125 0,0.171875 0.140625,0.28125 0.296875,0.28125 0.15625,0 0.25,-0.109375 0.328125,-0.203125 z m 0,0"
           id="path8201" />
      </symbol>
    </g>
    <g
       id="g3298">
      <symbol
         overflow="visible"
         id="symbol9873">
        <path
           style="stroke:none"
           d=""
           id="path5017" />
      </symbol>
      <symbol
         overflow="visible"
         id="symbol189">
        <path
           style="stroke:none"
           d="m 5.15625,-3.71875 c 0.140625,0 0.5,0 0.5,-0.34375 0,-0.234375 -0.21875,-0.234375 -0.390625,-0.234375 h -2.28125 c -1.5,0 -2.609375,1.640625 -2.609375,2.828125 0,0.875 0.59375,1.578125 1.5,1.578125 1.171875,0 2.5,-1.203125 2.5,-2.734375 0,-0.171875 0,-0.65625 -0.3125,-1.09375 z M 1.890625,-0.109375 C 1.390625,-0.109375 1,-0.46875 1,-1.1875 c 0,-0.296875 0.109375,-1.109375 0.46875,-1.703125 0.421875,-0.6875 1.015625,-0.828125 1.359375,-0.828125 0.828125,0 0.90625,0.65625 0.90625,0.96875 0,0.46875 -0.203125,1.28125 -0.53125,1.796875 -0.390625,0.578125 -0.9375,0.84375 -1.3125,0.84375 z m 0,0"
           id="path7379" />
      </symbol>
    </g>
    <g
       id="g8033">
      <symbol
         overflow="visible"
         id="symbol2134">
        <path
           style="stroke:none"
           d=""
           id="path2277" />
      </symbol>
      <symbol
         overflow="visible"
         id="symbol1342">
        <path
           style="stroke:none"
           d="M 4.359375,-0.0625 C 5.90625,-0.640625 7.375,-2.421875 7.375,-4.34375 c 0,-1.609375 -1.0625,-2.6875 -2.546875,-2.6875 -2.140625,0 -4.34375,2.265625 -4.34375,4.59375 0,1.65625 1.125,2.65625 2.5625,2.65625 0.25,0 0.578125,-0.046875 0.96875,-0.15625 -0.03125,0.625 -0.03125,0.640625 -0.03125,0.78125 0,0.3125 0,1.09375 0.828125,1.09375 1.171875,0 1.65625,-1.828125 1.65625,-1.9375 0,-0.0625 -0.0625,-0.09375 -0.109375,-0.09375 -0.078125,0 -0.09375,0.046875 -0.125,0.109375 C 6,0.71875 5.421875,0.96875 5.078125,0.96875 c -0.46875,0 -0.609375,-0.265625 -0.71875,-1.03125 z m -1.875,-0.078125 c -0.78125,-0.3125 -1.125,-1.078125 -1.125,-1.984375 0,-0.6875 0.265625,-2.109375 1.015625,-3.171875 C 3.109375,-6.3125 4.046875,-6.78125 4.78125,-6.78125 5.765625,-6.78125 6.5,-6 6.5,-4.671875 c 0,1 -0.515625,3.34375 -2.1875,4.265625 -0.046875,-0.34375 -0.140625,-1.0625 -0.875,-1.0625 -0.53125,0 -1.015625,0.484375 -1.015625,1.015625 0,0.1875 0.0625,0.296875 0.0625,0.3125 z M 3.09375,-0.03125 c -0.140625,0 -0.453125,0 -0.453125,-0.421875 0,-0.40625 0.375,-0.796875 0.796875,-0.796875 0.421875,0 0.609375,0.234375 0.609375,0.84375 0,0.140625 -0.015625,0.15625 -0.109375,0.203125 C 3.671875,-0.09375 3.375,-0.03125 3.09375,-0.03125 Z m 0,0"
           id="path8481" />
      </symbol>
    </g>
    <g
       id="g6526">
      <symbol
         overflow="visible"
         id="symbol6935">
        <path
           style="stroke:none"
           d=""
           id="path7433" />
      </symbol>
      <symbol
         overflow="visible"
         id="symbol2673">
        <path
           style="stroke:none"
           d="m 3.734375,-6.125 c 0.0625,-0.234375 0.09375,-0.328125 0.28125,-0.359375 C 4.109375,-6.5 4.421875,-6.5 4.625,-6.5 c 0.703125,0 1.8125,0 1.8125,0.984375 0,0.34375 -0.15625,1.03125 -0.546875,1.421875 -0.265625,0.25 -0.78125,0.578125 -1.6875,0.578125 H 3.09375 Z m 1.4375,2.734375 c 1.015625,-0.21875 2.1875,-0.921875 2.1875,-1.921875 0,-0.859375 -0.890625,-1.5 -2.203125,-1.5 H 2.328125 c -0.203125,0 -0.296875,0 -0.296875,0.203125 C 2.03125,-6.5 2.125,-6.5 2.3125,-6.5 c 0.015625,0 0.203125,0 0.375,0.015625 0.1875,0.03125 0.265625,0.03125 0.265625,0.171875 0,0.03125 0,0.0625 -0.03125,0.1875 l -1.34375,5.34375 C 1.484375,-0.390625 1.46875,-0.3125 0.671875,-0.3125 0.5,-0.3125 0.40625,-0.3125 0.40625,-0.109375 0.40625,0 0.53125,0 0.546875,0 c 0.28125,0 0.984375,-0.03125 1.25,-0.03125 0.28125,0 1,0.03125 1.28125,0.03125 0.078125,0 0.1875,0 0.1875,-0.203125 0,-0.109375 -0.078125,-0.109375 -0.28125,-0.109375 -0.359375,0 -0.640625,0 -0.640625,-0.171875 0,-0.0625 0.015625,-0.109375 0.03125,-0.171875 l 0.65625,-2.640625 h 1.1875 c 0.90625,0 1.078125,0.5625 1.078125,0.90625 0,0.140625 -0.078125,0.453125 -0.140625,0.6875 C 5.09375,-1.421875 5,-1.0625 5,-0.859375 5,0.21875 6.203125,0.21875 6.328125,0.21875 c 0.84375,0 1.203125,-1 1.203125,-1.140625 0,-0.125 -0.109375,-0.125 -0.125,-0.125 -0.09375,0 -0.109375,0.0625 -0.125,0.140625 C 7.03125,-0.171875 6.59375,0 6.375,0 6.046875,0 5.96875,-0.21875 5.96875,-0.609375 c 0,-0.3125 0.0625,-0.8125 0.109375,-1.140625 0.015625,-0.140625 0.03125,-0.328125 0.03125,-0.46875 0,-0.765625 -0.671875,-1.078125 -0.9375,-1.171875 z m 0,0"
           id="path4760" />
      </symbol>
    </g>
    <g
       id="g6147">
      <symbol
         overflow="visible"
         id="symbol2369">
        <path
           style="stroke:none"
           d=""
           id="path2097" />
      </symbol>
      <symbol
         overflow="visible"
         id="symbol8370">
        <path
           style="stroke:none"
           d="m 3.5625,-2.90625 c 0.40625,1.046875 0.890625,2.5625 1.046875,2.796875 0.15625,0.21875 0.25,0.21875 0.53125,0.21875 h 0.21875 c 0.09375,-0.015625 0.109375,-0.0625 0.109375,-0.09375 0,-0.03125 -0.03125,-0.0625 -0.0625,-0.09375 C 5.3125,-0.1875 5.25,-0.34375 5.1875,-0.53125 L 3.15625,-6.203125 c -0.21875,-0.578125 -0.75,-0.71875 -1.21875,-0.71875 -0.046875,0 -0.1875,0 -0.1875,0.109375 0,0.078125 0.078125,0.109375 0.09375,0.109375 C 2.171875,-6.65625 2.25,-6.59375 2.5,-5.90625 l 0.953125,2.703125 -2.75,2.734375 c -0.109375,0.125 -0.171875,0.171875 -0.171875,0.3125 0,0.171875 0.140625,0.28125 0.296875,0.28125 0.15625,0 0.25,-0.109375 0.328125,-0.203125 z m 0,0"
           id="path5914" />
      </symbol>
    </g>
    <g
       id="g5222">
      <symbol
         overflow="visible"
         id="symbol8879">
        <path
           style="stroke:none"
           d=""
           id="path8976" />
      </symbol>
      <symbol
         overflow="visible"
         id="symbol9768">
        <path
           style="stroke:none"
           d="m 3.734375,-6.125 c 0.0625,-0.234375 0.09375,-0.328125 0.28125,-0.359375 C 4.109375,-6.5 4.421875,-6.5 4.625,-6.5 c 0.703125,0 1.8125,0 1.8125,0.984375 0,0.34375 -0.15625,1.03125 -0.546875,1.421875 -0.265625,0.25 -0.78125,0.578125 -1.6875,0.578125 H 3.09375 Z m 1.4375,2.734375 c 1.015625,-0.21875 2.1875,-0.921875 2.1875,-1.921875 0,-0.859375 -0.890625,-1.5 -2.203125,-1.5 H 2.328125 c -0.203125,0 -0.296875,0 -0.296875,0.203125 C 2.03125,-6.5 2.125,-6.5 2.3125,-6.5 c 0.015625,0 0.203125,0 0.375,0.015625 0.1875,0.03125 0.265625,0.03125 0.265625,0.171875 0,0.03125 0,0.0625 -0.03125,0.1875 l -1.34375,5.34375 C 1.484375,-0.390625 1.46875,-0.3125 0.671875,-0.3125 0.5,-0.3125 0.40625,-0.3125 0.40625,-0.109375 0.40625,0 0.53125,0 0.546875,0 c 0.28125,0 0.984375,-0.03125 1.25,-0.03125 0.28125,0 1,0.03125 1.28125,0.03125 0.078125,0 0.1875,0 0.1875,-0.203125 0,-0.109375 -0.078125,-0.109375 -0.28125,-0.109375 -0.359375,0 -0.640625,0 -0.640625,-0.171875 0,-0.0625 0.015625,-0.109375 0.03125,-0.171875 l 0.65625,-2.640625 h 1.1875 c 0.90625,0 1.078125,0.5625 1.078125,0.90625 0,0.140625 -0.078125,0.453125 -0.140625,0.6875 C 5.09375,-1.421875 5,-1.0625 5,-0.859375 5,0.21875 6.203125,0.21875 6.328125,0.21875 c 0.84375,0 1.203125,-1 1.203125,-1.140625 0,-0.125 -0.109375,-0.125 -0.125,-0.125 -0.09375,0 -0.109375,0.0625 -0.125,0.140625 C 7.03125,-0.171875 6.59375,0 6.375,0 6.046875,0 5.96875,-0.21875 5.96875,-0.609375 c 0,-0.3125 0.0625,-0.8125 0.109375,-1.140625 0.015625,-0.140625 0.03125,-0.328125 0.03125,-0.46875 0,-0.765625 -0.671875,-1.078125 -0.9375,-1.171875 z m 0,0"
           id="path6910" />
      </symbol>
    </g>
    <g
       id="g3415">
      <symbol
         overflow="visible"
         id="symbol4355">
        <path
           style="stroke:none"
           d=""
           id="path2299" />
      </symbol>
      <symbol
         overflow="visible"
         id="symbol3335">
        <path
           style="stroke:none"
           d="M 6.265625,-5.671875 C 6.75,-6.453125 7.171875,-6.484375 7.53125,-6.5 c 0.125,-0.015625 0.140625,-0.171875 0.140625,-0.1875 0,-0.078125 -0.0625,-0.125 -0.140625,-0.125 -0.25,0 -0.546875,0.03125 -0.8125,0.03125 -0.328125,0 -0.671875,-0.03125 -0.984375,-0.03125 -0.0625,0 -0.1875,0 -0.1875,0.1875 0,0.109375 0.078125,0.125 0.15625,0.125 0.265625,0.015625 0.453125,0.125 0.453125,0.328125 0,0.15625 -0.140625,0.375 -0.140625,0.375 l -3.0625,4.875 -0.6875,-5.28125 C 2.265625,-6.375 2.5,-6.5 2.953125,-6.5 c 0.140625,0 0.25,0 0.25,-0.203125 0,-0.078125 -0.078125,-0.109375 -0.125,-0.109375 -0.40625,0 -0.828125,0.03125 -1.25,0.03125 -0.171875,0 -0.359375,0 -0.546875,0 -0.171875,0 -0.359375,-0.03125 -0.53125,-0.03125 -0.078125,0 -0.1875,0 -0.1875,0.1875 0,0.125 0.078125,0.125 0.25,0.125 0.546875,0 0.5625,0.09375 0.59375,0.34375 L 2.1875,-0.015625 C 2.21875,0.1875 2.265625,0.21875 2.390625,0.21875 c 0.15625,0 0.203125,-0.046875 0.28125,-0.171875 z m 0,0"
           id="path5522" />
      </symbol>
      <symbol
         overflow="visible"
         id="symbol4599">
        <path
           style="stroke:none"
           d=""
           id="path8998" />
      </symbol>
      <symbol
         overflow="visible"
         id="symbol4051">
        <path
           style="stroke:none"
           d="m 2.9375,-2.65625 c -0.140625,-0.234375 -0.375,-0.421875 -0.71875,-0.421875 -0.890625,0 -1.796875,0.984375 -1.796875,1.984375 0,0.6875 0.453125,1.15625 1.0625,1.15625 0.375,0 0.703125,-0.203125 0.984375,-0.484375 C 2.59375,0 3,0.0625 3.1875,0.0625 c 0.25,0 0.421875,-0.140625 0.546875,-0.359375 0.15625,-0.28125 0.25,-0.671875 0.25,-0.703125 0,-0.09375 -0.09375,-0.09375 -0.109375,-0.09375 -0.109375,0 -0.109375,0.03125 -0.15625,0.21875 C 3.625,-0.53125 3.5,-0.125 3.203125,-0.125 3.03125,-0.125 2.96875,-0.28125 2.96875,-0.46875 c 0,-0.109375 0.0625,-0.375 0.109375,-0.546875 0.046875,-0.1875 0.125,-0.46875 0.15625,-0.625 L 3.375,-2.171875 C 3.421875,-2.359375 3.5,-2.6875 3.5,-2.71875 3.5,-2.875 3.375,-2.9375 3.265625,-2.9375 c -0.125,0 -0.28125,0.078125 -0.328125,0.28125 z M 2.5,-0.875 C 2.453125,-0.671875 2.296875,-0.53125 2.140625,-0.40625 2.078125,-0.34375 1.796875,-0.125 1.5,-0.125 c -0.265625,0 -0.515625,-0.1875 -0.515625,-0.671875 0,-0.375 0.203125,-1.140625 0.375,-1.421875 0.3125,-0.5625 0.671875,-0.65625 0.859375,-0.65625 0.484375,0 0.625,0.53125 0.625,0.609375 0,0.015625 -0.015625,0.078125 -0.015625,0.09375 z m 0,0"
           id="path1004" />
      </symbol>
    </g>
    <g
       id="g8854">
      <symbol
         overflow="visible"
         id="symbol3456">
        <path
           style="stroke:none"
           d=""
           id="path4975" />
      </symbol>
      <symbol
         overflow="visible"
         id="symbol3058">
        <path
           style="stroke:none"
           d="M 6.265625,-5.671875 C 6.75,-6.453125 7.171875,-6.484375 7.53125,-6.5 c 0.125,-0.015625 0.140625,-0.171875 0.140625,-0.1875 0,-0.078125 -0.0625,-0.125 -0.140625,-0.125 -0.25,0 -0.546875,0.03125 -0.8125,0.03125 -0.328125,0 -0.671875,-0.03125 -0.984375,-0.03125 -0.0625,0 -0.1875,0 -0.1875,0.1875 0,0.109375 0.078125,0.125 0.15625,0.125 0.265625,0.015625 0.453125,0.125 0.453125,0.328125 0,0.15625 -0.140625,0.375 -0.140625,0.375 l -3.0625,4.875 -0.6875,-5.28125 C 2.265625,-6.375 2.5,-6.5 2.953125,-6.5 c 0.140625,0 0.25,0 0.25,-0.203125 0,-0.078125 -0.078125,-0.109375 -0.125,-0.109375 -0.40625,0 -0.828125,0.03125 -1.25,0.03125 -0.171875,0 -0.359375,0 -0.546875,0 -0.171875,0 -0.359375,-0.03125 -0.53125,-0.03125 -0.078125,0 -0.1875,0 -0.1875,0.1875 0,0.125 0.078125,0.125 0.25,0.125 0.546875,0 0.5625,0.09375 0.59375,0.34375 L 2.1875,-0.015625 C 2.21875,0.1875 2.265625,0.21875 2.390625,0.21875 c 0.15625,0 0.203125,-0.046875 0.28125,-0.171875 z m 0,0"
           id="path8228" />
      </symbol>
      <symbol
         overflow="visible"
         id="symbol6227">
        <path
           style="stroke:none"
           d=""
           id="path7388" />
      </symbol>
      <symbol
         overflow="visible"
         id="symbol7616">
        <path
           style="stroke:none"
           d="m 1.84375,-4.625 c 0,-0.015625 0.03125,-0.109375 0.03125,-0.109375 0,-0.046875 -0.03125,-0.109375 -0.125,-0.109375 -0.140625,0 -0.71875,0.0625 -0.890625,0.078125 -0.046875,0 -0.15625,0.015625 -0.15625,0.15625 0,0.09375 0.109375,0.09375 0.1875,0.09375 0.328125,0 0.328125,0.0625 0.328125,0.109375 0,0.046875 -0.0625,0.328125 -0.109375,0.484375 l -0.15625,0.640625 c -0.0625,0.25 -0.4375,1.765625 -0.453125,1.859375 -0.046875,0.171875 -0.046875,0.265625 -0.046875,0.34375 0,0.703125 0.453125,1.140625 1.03125,1.140625 0.875,0 1.796875,-0.9375 1.796875,-1.96875 0,-0.8125 -0.5625,-1.171875 -1.046875,-1.171875 -0.359375,0 -0.671875,0.203125 -0.875,0.390625 z m -0.359375,4.5 c -0.328125,0 -0.53125,-0.296875 -0.53125,-0.71875 0,-0.25 0.0625,-0.484375 0.265625,-1.28125 C 1.25,-2.25 1.25,-2.265625 1.390625,-2.421875 1.65625,-2.71875 1.96875,-2.875 2.21875,-2.875 c 0.265625,0 0.5,0.203125 0.5,0.671875 0,0.28125 -0.140625,1 -0.359375,1.40625 C 2.1875,-0.453125 1.84375,-0.125 1.484375,-0.125 Z m 0,0"
           id="path4484" />
      </symbol>
    </g>
  </defs>
  <sodipodi:namedview
     id="base"
     pagecolor="#ffffff"
     bordercolor="#666666"
     borderopacity="1.0"
     inkscape:pageopacity="0.0"
     inkscape:pageshadow="2"
     inkscape:zoom="2.8284271"
     inkscape:cx="150.54328"
     inkscape:cy="61.552878"
     inkscape:document-units="px"
     inkscape:current-layer="layer1"
     inkscape:document-rotation="0"
     showgrid="true"
     units="px"
     borderlayer="true"
     inkscape:showpageshadow="false"
     showguides="true"
     inkscape:guide-bbox="true"
     inkscape:window-width="1920"
     inkscape:window-height="1050"
     inkscape:window-x="1920"
     inkscape:window-y="18"
     inkscape:window-maximized="1">
    <inkscape:grid
       type="axonomgrid"
       id="grid10"
       originx="-101.89931"
       originy="-121.94966" />
    <sodipodi:guide
       position="30.999492,23.571216"
       orientation="1,0"
       id="guide12" />
    <sodipodi:guide
       position="30.999492,23.571226"
       orientation="-0.5,-0.8660254"
       id="guide14" />
    <sodipodi:guide
       position="30.999492,23.571216"
       orientation="0.5,-0.8660254"
       id="guide16" />
    <sodipodi:guide
       position="30.999492,23.571226"
       orientation="0,-1"
       id="guide893" />
    <sodipodi:guide
       position="24.888072,23.571226"
       orientation="1,0"
       id="guide895" />
    <sodipodi:guide
       position="37.105892,23.571226"
       orientation="1,0"
       id="guide897" />
    <sodipodi:guide
       position="21.834051,28.862876"
       orientation="0,-1"
       id="guide943" />
    <sodipodi:guide
       position="40.164932,18.279546"
       orientation="0,-1"
       id="guide945" />
    <sodipodi:guide
       position="34.052422,18.279546"
       orientation="1,0"
       id="guide947" />
    <sodipodi:guide
       position="27.943562,28.862876"
       orientation="1,0"
       id="guide949" />
    <sodipodi:guide
       position="43.215142,43.853087"
       orientation="1,0"
       id="guide1009" />
    <sodipodi:guide
       position="45.511359,46.059541"
       orientation="0,-1"
       id="guide1018" />
    <sodipodi:guide
       position="45.511359,46.059541"
       orientation="1,0"
       id="guide1020" />
    <sodipodi:guide
       position="57.72909,24.895357"
       orientation="0,-1"
       id="guide1022" />
    <sodipodi:guide
       position="57.729089,24.895357"
       orientation="1,0"
       id="guide1024" />
    <sodipodi:guide
       position="40.16495,18.279546"
       orientation="1,0"
       id="guide1059" />
  </sodipodi:namedview>
  <metadata
     id="metadata5">
    <rdf:RDF>
      <cc:Work
         rdf:about="">
        <dc:format>image/svg+xml</dc:format>
        <dc:type
           rdf:resource="http://purl.org/dc/dcmitype/StillImage" />
        <dc:title></dc:title>
      </cc:Work>
    </rdf:RDF>
  </metadata>
  <g
     inkscape:label="Capa 1"
     inkscape:groupmode="layer"
     id="layer1"
     transform="translate(-101.89931,-121.94965)">
    <path
       style="fill:none;fill-opacity:0.987646;stroke:#800000;stroke-width:0.264583;stroke-linejoin:bevel;stroke-miterlimit:10;stroke-dasharray:0.264583, 0.264583;stroke-dashoffset:0;paint-order:markers fill stroke"
       id="path941"
       sodipodi:type="arc"
       sodipodi:cx="162.68646"
       sodipodi:cy="128.32294"
       sodipodi:rx="18.330872"
       sodipodi:ry="18.330872"
       sodipodi:start="2.0943951"
       sodipodi:end="3.1415927"
       sodipodi:open="true"
       sodipodi:arc-type="arc"
       d="m 153.52103,144.19794 a 18.330872,18.330872 0 0 1 -9.16544,-15.875" />
    <path
       style="fill:none;fill-opacity:0.987646;stroke:#800000;stroke-width:0.264583;stroke-linejoin:bevel;stroke-miterlimit:10;stroke-dasharray:0.264583, 0.264583;stroke-dashoffset:0;paint-order:markers fill stroke"
       id="path1016"
       sodipodi:type="arc"
       sodipodi:cx="150.4687"
       sodipodi:cy="128.32294"
       sodipodi:rx="6.1088595"
       sodipodi:ry="6.1088595"
       sodipodi:start="3.1415927"
       sodipodi:end="4.1887902"
       sodipodi:open="true"
       sodipodi:arc-type="arc"
       d="m 144.35984,128.32294 a 6.1088595,6.1088595 0 0 1 3.05443,-5.29043" />
    <path
       style="fill:none;fill-opacity:0.987646;stroke:#800000;stroke-width:0.264583;stroke-linejoin:bevel;stroke-miterlimit:10;stroke-dasharray:0.264583, 0.264583;stroke-dashoffset:0;paint-order:markers fill stroke"
       id="path1026"
       sodipodi:type="arc"
       sodipodi:cx="156.57758"
       sodipodi:cy="138.90627"
       sodipodi:rx="6.1088595"
       sodipodi:ry="6.1088595"
       sodipodi:start="1.0471976"
       sodipodi:end="2.0943951"
       sodipodi:open="true"
       sodipodi:arc-type="arc"
       d="m 159.63201,144.19669 a 6.1088595,6.1088595 0 0 1 -6.10886,0" />
    <path
       style="fill:none;fill-opacity:0.987646;stroke:#000000;stroke-width:0.264583;stroke-linejoin:bevel;stroke-miterlimit:10;stroke-dasharray:0.264583, 0.529166;stroke-dashoffset:0;paint-order:markers fill stroke"
       d="m 132.89882,145.52082 9.16544,5.29168"
       id="path1139"
       sodipodi:nodetypes="cc" />
    <path
       style="fill:none;fill-opacity:0.987646;stroke:#800000;stroke-width:0.529167;stroke-linejoin:bevel;stroke-miterlimit:10;stroke-dasharray:none;paint-order:markers fill stroke"
       id="path939"
       sodipodi:type="arc"
       sodipodi:cx="144.35562"
       sodipodi:cy="138.90627"
       sodipodi:rx="18.330872"
       sodipodi:ry="18.330872"
       sodipodi:start="5.2359878"
       sodipodi:end="0"
       sodipodi:open="true"
       sodipodi:arc-type="arc"
       d="m 153.52106,123.03127 a 18.330872,18.330872 0 0 1 9.16543,15.875" />
    <path
       style="fill:none;fill-opacity:0.987646;stroke:#800000;stroke-width:0.529167;stroke-linejoin:bevel;stroke-miterlimit:10;stroke-dasharray:none;paint-order:markers fill stroke"
       id="path1021"
       sodipodi:type="arc"
       sodipodi:cx="150.4651"
       sodipodi:cy="128.32294"
       sodipodi:rx="6.1088595"
       sodipodi:ry="6.1088595"
       sodipodi:start="4.1887902"
       sodipodi:end="5.2359878"
       sodipodi:open="true"
       sodipodi:arc-type="arc"
       d="m 147.41067,123.03251 a 6.1088595,6.1088595 0 0 1 6.10886,0" />
    <path
       style="fill:none;fill-opacity:0.987646;stroke:#800000;stroke-width:0.529167;stroke-linejoin:bevel;stroke-miterlimit:10;stroke-dasharray:none;paint-order:markers fill stroke"
       id="path1023"
       sodipodi:type="arc"
       sodipodi:cx="156.57397"
       sodipodi:cy="138.90627"
       sodipodi:rx="6.1088595"
       sodipodi:ry="6.1088595"
       sodipodi:start="0"
       sodipodi:end="1.0471976"
       sodipodi:open="true"
       sodipodi:arc-type="arc"
       d="m 162.68283,138.90627 a 6.1088595,6.1088595 0 0 1 -3.05443,5.29042" />
    <path
       style="fill:none;fill-opacity:0.987646;stroke:#800000;stroke-width:0.529167;stroke-linejoin:bevel;stroke-miterlimit:10;stroke-dasharray:none;paint-order:markers fill stroke"
       id="path928"
       sodipodi:type="arc"
       sodipodi:cx="103.11115"
       sodipodi:cy="162.71877"
       sodipodi:rx="18.330872"
       sodipodi:ry="18.330872"
       sodipodi:start="5.2359878"
       sodipodi:end="0"
       sodipodi:open="true"
       sodipodi:arc-type="arc"
       d="m 112.27659,146.84377 a 18.330872,18.330872 0 0 1 9.16543,15.875" />
    <path
       style="fill:none;fill-opacity:0.987646;stroke:#800000;stroke-width:0.529167;stroke-linejoin:bevel;stroke-miterlimit:10;stroke-dasharray:none;stroke-dashoffset:0;paint-order:markers fill stroke"
       id="path930"
       sodipodi:type="arc"
       sodipodi:cx="121.44199"
       sodipodi:cy="152.13544"
       sodipodi:rx="18.330872"
       sodipodi:ry="18.330872"
       sodipodi:start="2.0943951"
       sodipodi:end="3.1415927"
       sodipodi:open="true"
       sodipodi:arc-type="arc"
       d="m 112.27656,168.01044 a 18.330872,18.330872 0 0 1 -9.16544,-15.875" />
    <path
       style="fill:none;fill-opacity:0.987646;stroke:#800000;stroke-width:0.529167;stroke-linejoin:bevel;stroke-miterlimit:10;stroke-dasharray:none;paint-order:markers fill stroke"
       id="path932"
       sodipodi:type="arc"
       sodipodi:cx="109.22063"
       sodipodi:cy="152.13544"
       sodipodi:rx="6.1088595"
       sodipodi:ry="6.1088595"
       sodipodi:start="3.1415927"
       sodipodi:end="5.2359878"
       sodipodi:open="true"
       sodipodi:arc-type="arc"
       d="m 103.11177,152.13544 a 6.1088595,6.1088595 0 0 1 3.05443,-5.29043 6.1088595,6.1088595 0 0 1 6.10886,0" />
    <path
       style="fill:none;fill-opacity:0.987646;stroke:#800000;stroke-width:0.529167;stroke-linejoin:bevel;stroke-miterlimit:10;stroke-dasharray:none;paint-order:markers fill stroke"
       id="path934"
       sodipodi:type="arc"
       sodipodi:cx="115.32951"
       sodipodi:cy="162.71877"
       sodipodi:rx="6.1088595"
       sodipodi:ry="6.1088595"
       sodipodi:start="0"
       sodipodi:end="2.0943951"
       sodipodi:open="true"
       sodipodi:arc-type="arc"
       d="m 121.43837,162.71877 a 6.1088595,6.1088595 0 0 1 -3.05443,5.29042 6.1088595,6.1088595 0 0 1 -6.10886,0" />
    <path
       style="fill:none;fill-opacity:0.987646;stroke:#800000;stroke-width:0.529167;stroke-linejoin:bevel;stroke-miterlimit:10;stroke-dasharray:none;paint-order:markers fill stroke"
       d="m 106.16622,146.84502 41.24445,-23.81251"
       id="path966" />
    <path
       style="fill:none;fill-opacity:0.987646;stroke:#800000;stroke-width:0.529167;stroke-linejoin:bevel;stroke-miterlimit:10;stroke-dasharray:none;paint-order:markers fill stroke"
       d="M 118.38395,168.0092 159.6284,144.19669"
       id="path970" />
    <path
       style="fill:none;fill-opacity:0.987646;stroke:#800000;stroke-width:0.264583;stroke-linejoin:bevel;stroke-miterlimit:10;stroke-dasharray:none;paint-order:markers fill stroke"
       id="path996"
       sodipodi:type="arc"
       sodipodi:cx="137.48154"
       sodipodi:cy="142.875"
       sodipodi:rx="18.330872"
       sodipodi:ry="18.330872"
       sodipodi:start="5.2359878"
       sodipodi:end="0"
       sodipodi:open="true"
       sodipodi:arc-type="arc"
       d="m 146.64697,127 a 18.330872,18.330872 0 0 1 9.16544,15.875" />
    <path
       style="fill:none;fill-opacity:0.987646;stroke:#800000;stroke-width:0.26458299;stroke-linejoin:bevel;stroke-miterlimit:10;stroke-dasharray:0.26458299,0.26458299;stroke-dashoffset:0;paint-order:markers fill stroke"
       id="path998"
       sodipodi:type="arc"
       sodipodi:cx="155.81238"
       sodipodi:cy="132.29167"
       sodipodi:rx="18.330872"
       sodipodi:ry="18.330872"
       sodipodi:start="2.0943951"
       sodipodi:end="3.1415927"
       sodipodi:open="true"
       sodipodi:arc-type="arc"
       d="m 146.64694,148.16667 a 18.330872,18.330872 0 0 1 -9.16543,-15.875" />
    <path
       style="fill:none;fill-opacity:0.987646;stroke:#800000;stroke-width:0.264583;stroke-linejoin:bevel;stroke-miterlimit:10;stroke-dasharray:none;paint-order:markers fill stroke"
       id="path1000"
       sodipodi:type="arc"
       sodipodi:cx="143.591"
       sodipodi:cy="132.29167"
       sodipodi:rx="6.1088595"
       sodipodi:ry="6.1088595"
       sodipodi:start="4.1887902"
       sodipodi:end="5.2359878"
       sodipodi:open="true"
       sodipodi:arc-type="arc"
       d="m 140.53657,127.00124 a 6.1088595,6.1088595 0 0 1 6.10886,0" />
    <path
       style="fill:none;fill-opacity:0.987646;stroke:#800000;stroke-width:0.264583;stroke-linejoin:bevel;stroke-miterlimit:10;stroke-dasharray:none;paint-order:markers fill stroke"
       id="path1002"
       sodipodi:type="arc"
       sodipodi:cx="149.69989"
       sodipodi:cy="142.875"
       sodipodi:rx="6.1088595"
       sodipodi:ry="6.1088595"
       sodipodi:start="0"
       sodipodi:end="1.0471976"
       sodipodi:open="true"
       sodipodi:arc-type="arc"
       d="m 155.80875,142.875 a 6.1088595,6.1088595 0 0 1 -3.05443,5.29043" />
    <path
       style="fill:none;fill-opacity:0.987646;stroke:#800000;stroke-width:0.26458299;stroke-linejoin:bevel;stroke-miterlimit:10;stroke-dasharray:0.26458299,0.26458299;stroke-dashoffset:0;paint-order:markers fill stroke"
       id="path1038"
       sodipodi:type="arc"
       sodipodi:cx="143.591"
       sodipodi:cy="132.29167"
       sodipodi:rx="6.1088595"
       sodipodi:ry="6.1088595"
       sodipodi:start="3.1415927"
       sodipodi:end="4.1887902"
       sodipodi:open="true"
       sodipodi:arc-type="arc"
       d="m 137.48214,132.29167 a 6.1088595,6.1088595 0 0 1 3.05443,-5.29043" />
    <path
       style="fill:none;fill-opacity:0.987646;stroke:#800000;stroke-width:0.264583;stroke-linejoin:bevel;stroke-miterlimit:10;stroke-dasharray:none;paint-order:markers fill stroke"
       id="path1006"
       sodipodi:type="arc"
       sodipodi:cx="135.94902"
       sodipodi:cy="143.7598"
       sodipodi:rx="18.330872"
       sodipodi:ry="18.330872"
       sodipodi:start="5.2359878"
       sodipodi:end="0"
       sodipodi:open="true"
       sodipodi:arc-type="arc"
       d="m 145.11446,127.8848 a 18.330872,18.330872 0 0 1 9.16543,15.875" />
    <path
       style="fill:none;fill-opacity:0.987646;stroke:#800000;stroke-width:0.26458299;stroke-linejoin:bevel;stroke-miterlimit:10;stroke-dasharray:0.26458299,0.26458299;stroke-dashoffset:0;paint-order:markers fill stroke"
       id="path1008"
       sodipodi:type="arc"
       sodipodi:cx="154.27986"
       sodipodi:cy="133.17647"
       sodipodi:rx="18.330872"
       sodipodi:ry="18.330872"
       sodipodi:start="2.0943951"
       sodipodi:end="3.1415927"
       sodipodi:open="true"
       sodipodi:arc-type="arc"
       d="m 145.11443,149.05147 a 18.330872,18.330872 0 0 1 -9.16544,-15.875" />
    <path
       style="fill:none;fill-opacity:0.987646;stroke:#800000;stroke-width:0.264583;stroke-linejoin:bevel;stroke-miterlimit:10;stroke-dasharray:none;paint-order:markers fill stroke"
       id="path1010"
       sodipodi:type="arc"
       sodipodi:cx="142.05849"
       sodipodi:cy="133.17647"
       sodipodi:rx="6.1088595"
       sodipodi:ry="6.1088595"
       sodipodi:start="4.1887902"
       sodipodi:end="5.2359878"
       sodipodi:open="true"
       sodipodi:arc-type="arc"
       d="m 139.00406,127.88604 a 6.1088595,6.1088595 0 0 1 6.10886,0" />
    <path
       style="fill:none;fill-opacity:0.987646;stroke:#800000;stroke-width:0.264583;stroke-linejoin:bevel;stroke-miterlimit:10;stroke-dasharray:none;paint-order:markers fill stroke"
       id="path1012"
       sodipodi:type="arc"
       sodipodi:cx="148.16737"
       sodipodi:cy="143.7598"
       sodipodi:rx="6.1088595"
       sodipodi:ry="6.1088595"
       sodipodi:start="0"
       sodipodi:end="1.0471976"
       sodipodi:open="true"
       sodipodi:arc-type="arc"
       d="m 154.27623,143.7598 a 6.1088595,6.1088595 0 0 1 -3.05443,5.29042" />
    <path
       style="fill:none;fill-opacity:0.987646;stroke:#800000;stroke-width:0.26458299;stroke-linejoin:bevel;stroke-miterlimit:10;stroke-dasharray:0.26458299,0.26458299;stroke-dashoffset:0;paint-order:markers fill stroke"
       id="path1032"
       sodipodi:type="arc"
       sodipodi:cx="142.05849"
       sodipodi:cy="133.17647"
       sodipodi:rx="6.1088595"
       sodipodi:ry="6.1088595"
       sodipodi:start="3.1415927"
       sodipodi:end="4.1887902"
       sodipodi:open="true"
       sodipodi:arc-type="arc"
       d="m 135.94963,133.17647 a 6.1088595,6.1088595 0 0 1 3.05443,-5.29043" />
    <path
       style="fill:none;fill-opacity:0.987646;stroke:#800000;stroke-width:0.26458299;stroke-linejoin:bevel;stroke-miterlimit:10;stroke-dasharray:0.26458299,0.26458299;stroke-dashoffset:0;paint-order:markers fill stroke"
       id="path1034"
       sodipodi:type="arc"
       sodipodi:cx="148.16737"
       sodipodi:cy="143.7598"
       sodipodi:rx="6.1088595"
       sodipodi:ry="6.1088595"
       sodipodi:start="1.0471976"
       sodipodi:end="2.0943951"
       sodipodi:open="true"
       sodipodi:arc-type="arc"
       d="m 151.2218,149.05022 a 6.1088595,6.1088595 0 0 1 -6.10886,0" />
    <path
       style="fill:none;fill-opacity:0.987646;stroke:#800000;stroke-width:0.26458299;stroke-linejoin:bevel;stroke-miterlimit:10;stroke-dasharray:0.26458299,0.26458299;stroke-dashoffset:0;paint-order:markers fill stroke"
       id="path1057"
       sodipodi:type="arc"
       sodipodi:cx="149.69989"
       sodipodi:cy="142.875"
       sodipodi:rx="6.1088595"
       sodipodi:ry="6.1088595"
       sodipodi:start="1.0471976"
       sodipodi:end="2.0943951"
       sodipodi:open="true"
       sodipodi:arc-type="arc"
       d="m 152.75432,148.16543 a 6.1088595,6.1088595 0 0 1 -6.10886,0" />
    <path
       style="fill:none;fill-opacity:0.987646;stroke:#000000;stroke-width:0.264583;stroke-linejoin:bevel;stroke-miterlimit:10;stroke-dasharray:none;stroke-dashoffset:0;paint-order:markers fill stroke"
       d="m 142.06426,150.8125 9.21303,5.31915"
       id="path1139-6"
       sodipodi:nodetypes="cc" />
    <circle
       style="fill:#808080;fill-opacity:0.987646;stroke:#000000;stroke-width:0.264583;stroke-linejoin:bevel;stroke-miterlimit:10;stroke-dasharray:none;stroke-dashoffset:0;paint-order:markers fill stroke"
       id="path1135"
       cx="151.22969"
       cy="156.10417"
       r="0.55168205" />
    <circle
       style="fill:#808080;fill-opacity:0.987646;stroke:#000000;stroke-width:0.264583;stroke-linejoin:bevel;stroke-miterlimit:10;stroke-dasharray:none;stroke-dashoffset:0;paint-order:markers fill stroke"
       id="circle1081"
       cx="142.06458"
       cy="150.81172"
       r="0.55168205" />
    <g
       inkscape:label=""
       transform="matrix(0.43398367,0,0,0.43398367,112.70837,95.105401)"
       id="g1159">
      <g
         id="g7354">
        <g
           style="fill:#000000;fill-opacity:1"
           id="g5550">
          <use
             xlink:href="#symbol8370"
             x="91.925003"
             y="81.962997"
             id="use2551"
             width="100%"
             height="100%" />
        </g>
      </g>
    </g>
    <g
       inkscape:label=""
       transform="matrix(0.43398367,0,0,0.43398367,64.320554,132.66888)"
       id="g1274">
      <g
         id="g6445">
        <g
           style="fill:#000000;fill-opacity:1"
           id="g4544">
          <use
             xlink:href="#symbol9768"
             x="91.925003"
             y="81.962997"
             id="use4533"
             width="100%"
             height="100%" />
        </g>
      </g>
    </g>
    <g
       inkscape:label=""
       transform="matrix(0.43398367,0,0,0.43398367,94.046021,117.31306)"
       id="g1404">
      <g
         id="g3439">
        <g
           style="fill:#000000;fill-opacity:1"
           id="g1192">
          <use
             xlink:href="#symbol3335"
             x="91.925003"
             y="81.962997"
             id="use3280"
             width="100%"
             height="100%" />
        </g>
        <g
           style="fill:#000000;fill-opacity:1"
           id="g1936">
          <use
             xlink:href="#symbol4051"
             x="97.737"
             y="83.457001"
             id="use8907"
             width="100%"
             height="100%" />
        </g>
      </g>
    </g>
    <g
       inkscape:label=""
       transform="matrix(0.43398367,0,0,0.43398367,108.73128,125.78794)"
       id="g1555">
      <g
         id="g6889">
        <g
           style="fill:#000000;fill-opacity:1"
           id="g8113">
          <use
             xlink:href="#symbol3058"
             x="91.925003"
             y="81.962997"
             id="use5743"
             width="100%"
             height="100%" />
        </g>
        <g
           style="fill:#000000;fill-opacity:1"
           id="g5730">
          <use
             xlink:href="#symbol7616"
             x="97.737"
             y="83.457001"
             id="use4894"
             width="100%"
             height="100%" />
        </g>
      </g>
    </g>
    <path
       style="fill:none;fill-opacity:0.987646;stroke:#000000;stroke-width:0.264583;stroke-linejoin:bevel;stroke-miterlimit:10;stroke-dasharray:none;stroke-dashoffset:0;paint-order:markers fill stroke"
       d="m 106.54818,160.73437 -4.58272,2.64582"
       id="path1591"
       sodipodi:nodetypes="cc" />
    <path
       style="fill:none;fill-opacity:0.987646;stroke:#000000;stroke-width:0.264583;stroke-linejoin:bevel;stroke-miterlimit:10;stroke-dasharray:none;stroke-dashoffset:0;paint-order:markers fill stroke"
       d="m 115.71362,166.02604 -4.58271,2.64584"
       id="path1593"
       sodipodi:nodetypes="cc" />
    <path
       style="fill:none;stroke:#000000;stroke-width:0.264583px;stroke-linecap:butt;stroke-linejoin:miter;stroke-opacity:1"
       d="m 104.25683,162.05729 9.16544,5.29167"
       id="path1595"
       sodipodi:nodetypes="cc" />
    <path
       style="fill:none;fill-opacity:0.987646;stroke:#000000;stroke-width:0.264583;stroke-linejoin:bevel;stroke-miterlimit:10;stroke-dasharray:0.264583, 0.264583;stroke-dashoffset:0;paint-order:markers fill stroke"
       d="m 112.27659,157.42708 -5.7284,3.30729"
       id="path1597"
       sodipodi:nodetypes="cc" />
    <path
       style="fill:none;fill-opacity:0.987646;stroke:#000000;stroke-width:0.264583;stroke-linejoin:bevel;stroke-miterlimit:10;stroke-dasharray:0.264583, 0.264583;stroke-dashoffset:0;paint-order:markers fill stroke"
       d="m 121.44202,162.71875 -5.7284,3.30729"
       id="path1599"
       sodipodi:nodetypes="cc" />
    <path
       style="fill:#ffaaaa;fill-opacity:0.988235;stroke:none;stroke-width:0.353553;stroke-linejoin:bevel;stroke-miterlimit:10;stroke-dasharray:none;stroke-dashoffset:0;paint-order:markers fill stroke"
       d="m 193.90914,96.636448 c 0,-0.05395 0.30747,-0.551133 0.68326,-1.104854 1.53955,-2.268462 2.87455,-5.492857 3.49086,-8.431388 0.27535,-1.312881 0.33314,-2.348063 0.33056,-5.922019 -0.003,-4.506192 -0.15281,-6.282345 -0.89314,-10.606602 -3.35013,-19.568038 -14.96221,-36.882682 -31.77146,-47.374073 -5.19723,-3.243816 -8.72113,-4.332761 -14.02184,-4.332983 -2.28515,-9.6e-5 -2.9558,-0.04858 -2.74004,-0.198075 0.84022,-0.58219 2.2295,-1.160171 3.64444,-1.516189 1.37173,-0.345147 2.05387,-0.40079 4.94974,-0.40375 3.12037,-0.0032 3.49447,0.03194 5.27079,0.49499 2.61545,0.681787 4.5414,1.521922 7.26735,3.170149 16.9229,10.232326 28.79707,27.71737 32.08302,47.243116 0.90103,5.354071 1.16692,11.773262 0.62586,15.109551 -0.7032,4.336076 -2.96229,8.805626 -6.0183,11.90706 -1.20926,1.227233 -2.9011,2.373204 -2.9011,1.965067 z"
       id="path1631"
       transform="matrix(0.26458334,0,0,0.26458334,101.89931,121.94965)" />
    <path
       style="fill:#ffaaaa;fill-opacity:0.988235;stroke:none;stroke-width:0.176776;stroke-linejoin:bevel;stroke-miterlimit:10;stroke-dasharray:none;stroke-dashoffset:0;paint-order:markers fill stroke"
       d="m 171.98883,104.76095 c -4.27446,-0.75918 -6.75365,-1.76302 -10.87177,-4.40206 -16.89997,-10.830117 -28.23453,-28.323995 -31.09691,-47.995304 -0.73959,-5.082682 -0.90859,-11.131825 -0.38692,-13.848558 0.83858,-4.367044 2.81813,-8.262519 5.91368,-11.637305 0.83541,-0.910761 2.77092,-2.233653 2.97275,-2.031825 0.0455,0.04547 -0.18886,0.46832 -0.52072,0.939673 -1.48744,2.112657 -2.6981,4.850726 -3.44497,7.791258 -0.46977,1.849564 -0.48365,2.045014 -0.48057,6.765941 0.003,5.003762 0.0909,6.059946 0.89208,10.751614 2.00695,11.752498 7.28837,23.251023 14.91403,32.470288 5.24042,6.335562 12.01614,12.075316 18.83895,15.958589 4.07612,2.319969 8.37061,3.371449 12.96502,3.174429 l 2.18164,-0.0936 -1.03259,0.62208 c -1.73992,1.04822 -3.86064,1.49521 -7.39656,1.55901 -1.65286,0.0298 -3.20408,0.0189 -3.44714,-0.0243 z"
       id="path1633"
       transform="matrix(0.26458334,0,0,0.26458334,101.89931,121.94965)" />
  </g>
</svg>
