<?xml version="1.0" encoding="UTF-8" standalone="no"?>
<svg
   xmlns:dc="http://purl.org/dc/elements/1.1/"
   xmlns:cc="http://creativecommons.org/ns#"
   xmlns:rdf="http://www.w3.org/1999/02/22-rdf-syntax-ns#"
   xmlns:svg="http://www.w3.org/2000/svg"
   xmlns="http://www.w3.org/2000/svg"
   xmlns:xlink="http://www.w3.org/1999/xlink"
   xmlns:sodipodi="http://sodipodi.sourceforge.net/DTD/sodipodi-0.dtd"
   xmlns:inkscape="http://www.inkscape.org/namespaces/inkscape"
   width="339.28937"
   height="230.13676"
   viewBox="0 0 89.770312 60.890355"
   version="1.1"
   id="svg8"
   sodipodi:docname="a9.svg"
   inkscape:version="1.0.2 (e86c870879, 2021-01-15)">
  <defs
     id="defs2">
    <g
       id="g4528">
      <symbol
         overflow="visible"
         id="symbol5932">
        <path
           style="stroke:none"
           d=""
           id="path5132" />
      </symbol>
      <symbol
         overflow="visible"
         id="symbol1707">
        <path
           style="stroke:none"
           d="m 3.5625,-2.90625 c 0.40625,1.046875 0.890625,2.5625 1.046875,2.796875 0.15625,0.21875 0.25,0.21875 0.53125,0.21875 h 0.21875 c 0.09375,-0.015625 0.109375,-0.0625 0.109375,-0.09375 0,-0.03125 -0.03125,-0.0625 -0.0625,-0.09375 C 5.3125,-0.1875 5.25,-0.34375 5.1875,-0.53125 L 3.15625,-6.203125 c -0.21875,-0.578125 -0.75,-0.71875 -1.21875,-0.71875 -0.046875,0 -0.1875,0 -0.1875,0.109375 0,0.078125 0.078125,0.109375 0.09375,0.109375 C 2.171875,-6.65625 2.25,-6.59375 2.5,-5.90625 l 0.953125,2.703125 -2.75,2.734375 c -0.109375,0.125 -0.171875,0.171875 -0.171875,0.3125 0,0.171875 0.140625,0.28125 0.296875,0.28125 0.15625,0 0.25,-0.109375 0.328125,-0.203125 z m 0,0"
           id="path8201" />
      </symbol>
    </g>
    <g
       id="g3298">
      <symbol
         overflow="visible"
         id="symbol9873">
        <path
           style="stroke:none"
           d=""
           id="path5017" />
      </symbol>
      <symbol
         overflow="visible"
         id="symbol189">
        <path
           style="stroke:none"
           d="m 5.15625,-3.71875 c 0.140625,0 0.5,0 0.5,-0.34375 0,-0.234375 -0.21875,-0.234375 -0.390625,-0.234375 h -2.28125 c -1.5,0 -2.609375,1.640625 -2.609375,2.828125 0,0.875 0.59375,1.578125 1.5,1.578125 1.171875,0 2.5,-1.203125 2.5,-2.734375 0,-0.171875 0,-0.65625 -0.3125,-1.09375 z M 1.890625,-0.109375 C 1.390625,-0.109375 1,-0.46875 1,-1.1875 c 0,-0.296875 0.109375,-1.109375 0.46875,-1.703125 0.421875,-0.6875 1.015625,-0.828125 1.359375,-0.828125 0.828125,0 0.90625,0.65625 0.90625,0.96875 0,0.46875 -0.203125,1.28125 -0.53125,1.796875 -0.390625,0.578125 -0.9375,0.84375 -1.3125,0.84375 z m 0,0"
           id="path7379" />
      </symbol>
    </g>
    <g
       id="g8033">
      <symbol
         overflow="visible"
         id="symbol2134">
        <path
           style="stroke:none"
           d=""
           id="path2277" />
      </symbol>
      <symbol
         overflow="visible"
         id="symbol1342">
        <path
           style="stroke:none"
           d="M 4.359375,-0.0625 C 5.90625,-0.640625 7.375,-2.421875 7.375,-4.34375 c 0,-1.609375 -1.0625,-2.6875 -2.546875,-2.6875 -2.140625,0 -4.34375,2.265625 -4.34375,4.59375 0,1.65625 1.125,2.65625 2.5625,2.65625 0.25,0 0.578125,-0.046875 0.96875,-0.15625 -0.03125,0.625 -0.03125,0.640625 -0.03125,0.78125 0,0.3125 0,1.09375 0.828125,1.09375 1.171875,0 1.65625,-1.828125 1.65625,-1.9375 0,-0.0625 -0.0625,-0.09375 -0.109375,-0.09375 -0.078125,0 -0.09375,0.046875 -0.125,0.109375 C 6,0.71875 5.421875,0.96875 5.078125,0.96875 c -0.46875,0 -0.609375,-0.265625 -0.71875,-1.03125 z m -1.875,-0.078125 c -0.78125,-0.3125 -1.125,-1.078125 -1.125,-1.984375 0,-0.6875 0.265625,-2.109375 1.015625,-3.171875 C 3.109375,-6.3125 4.046875,-6.78125 4.78125,-6.78125 5.765625,-6.78125 6.5,-6 6.5,-4.671875 c 0,1 -0.515625,3.34375 -2.1875,4.265625 -0.046875,-0.34375 -0.140625,-1.0625 -0.875,-1.0625 -0.53125,0 -1.015625,0.484375 -1.015625,1.015625 0,0.1875 0.0625,0.296875 0.0625,0.3125 z M 3.09375,-0.03125 c -0.140625,0 -0.453125,0 -0.453125,-0.421875 0,-0.40625 0.375,-0.796875 0.796875,-0.796875 0.421875,0 0.609375,0.234375 0.609375,0.84375 0,0.140625 -0.015625,0.15625 -0.109375,0.203125 C 3.671875,-0.09375 3.375,-0.03125 3.09375,-0.03125 Z m 0,0"
           id="path8481" />
      </symbol>
    </g>
    <g
       id="g6526">
      <symbol
         overflow="visible"
         id="symbol6935">
        <path
           style="stroke:none"
           d=""
           id="path7433" />
      </symbol>
      <symbol
         overflow="visible"
         id="symbol2673">
        <path
           style="stroke:none"
           d="m 3.734375,-6.125 c 0.0625,-0.234375 0.09375,-0.328125 0.28125,-0.359375 C 4.109375,-6.5 4.421875,-6.5 4.625,-6.5 c 0.703125,0 1.8125,0 1.8125,0.984375 0,0.34375 -0.15625,1.03125 -0.546875,1.421875 -0.265625,0.25 -0.78125,0.578125 -1.6875,0.578125 H 3.09375 Z m 1.4375,2.734375 c 1.015625,-0.21875 2.1875,-0.921875 2.1875,-1.921875 0,-0.859375 -0.890625,-1.5 -2.203125,-1.5 H 2.328125 c -0.203125,0 -0.296875,0 -0.296875,0.203125 C 2.03125,-6.5 2.125,-6.5 2.3125,-6.5 c 0.015625,0 0.203125,0 0.375,0.015625 0.1875,0.03125 0.265625,0.03125 0.265625,0.171875 0,0.03125 0,0.0625 -0.03125,0.1875 l -1.34375,5.34375 C 1.484375,-0.390625 1.46875,-0.3125 0.671875,-0.3125 0.5,-0.3125 0.40625,-0.3125 0.40625,-0.109375 0.40625,0 0.53125,0 0.546875,0 c 0.28125,0 0.984375,-0.03125 1.25,-0.03125 0.28125,0 1,0.03125 1.28125,0.03125 0.078125,0 0.1875,0 0.1875,-0.203125 0,-0.109375 -0.078125,-0.109375 -0.28125,-0.109375 -0.359375,0 -0.640625,0 -0.640625,-0.171875 0,-0.0625 0.015625,-0.109375 0.03125,-0.171875 l 0.65625,-2.640625 h 1.1875 c 0.90625,0 1.078125,0.5625 1.078125,0.90625 0,0.140625 -0.078125,0.453125 -0.140625,0.6875 C 5.09375,-1.421875 5,-1.0625 5,-0.859375 5,0.21875 6.203125,0.21875 6.328125,0.21875 c 0.84375,0 1.203125,-1 1.203125,-1.140625 0,-0.125 -0.109375,-0.125 -0.125,-0.125 -0.09375,0 -0.109375,0.0625 -0.125,0.140625 C 7.03125,-0.171875 6.59375,0 6.375,0 6.046875,0 5.96875,-0.21875 5.96875,-0.609375 c 0,-0.3125 0.0625,-0.8125 0.109375,-1.140625 0.015625,-0.140625 0.03125,-0.328125 0.03125,-0.46875 0,-0.765625 -0.671875,-1.078125 -0.9375,-1.171875 z m 0,0"
           id="path4760" />
      </symbol>
    </g>
    <g
       id="g6147">
      <symbol
         overflow="visible"
         id="symbol2369">
        <path
           style="stroke:none"
           d=""
           id="path2097" />
      </symbol>
      <symbol
         overflow="visible"
         id="symbol8370">
        <path
           style="stroke:none"
           d="m 3.5625,-2.90625 c 0.40625,1.046875 0.890625,2.5625 1.046875,2.796875 0.15625,0.21875 0.25,0.21875 0.53125,0.21875 h 0.21875 c 0.09375,-0.015625 0.109375,-0.0625 0.109375,-0.09375 0,-0.03125 -0.03125,-0.0625 -0.0625,-0.09375 C 5.3125,-0.1875 5.25,-0.34375 5.1875,-0.53125 L 3.15625,-6.203125 c -0.21875,-0.578125 -0.75,-0.71875 -1.21875,-0.71875 -0.046875,0 -0.1875,0 -0.1875,0.109375 0,0.078125 0.078125,0.109375 0.09375,0.109375 C 2.171875,-6.65625 2.25,-6.59375 2.5,-5.90625 l 0.953125,2.703125 -2.75,2.734375 c -0.109375,0.125 -0.171875,0.171875 -0.171875,0.3125 0,0.171875 0.140625,0.28125 0.296875,0.28125 0.15625,0 0.25,-0.109375 0.328125,-0.203125 z m 0,0"
           id="path5914" />
      </symbol>
    </g>
    <g
       id="g5222">
      <symbol
         overflow="visible"
         id="symbol8879">
        <path
           style="stroke:none"
           d=""
           id="path8976" />
      </symbol>
      <symbol
         overflow="visible"
         id="symbol9768">
        <path
           style="stroke:none"
           d="m 3.734375,-6.125 c 0.0625,-0.234375 0.09375,-0.328125 0.28125,-0.359375 C 4.109375,-6.5 4.421875,-6.5 4.625,-6.5 c 0.703125,0 1.8125,0 1.8125,0.984375 0,0.34375 -0.15625,1.03125 -0.546875,1.421875 -0.265625,0.25 -0.78125,0.578125 -1.6875,0.578125 H 3.09375 Z m 1.4375,2.734375 c 1.015625,-0.21875 2.1875,-0.921875 2.1875,-1.921875 0,-0.859375 -0.890625,-1.5 -2.203125,-1.5 H 2.328125 c -0.203125,0 -0.296875,0 -0.296875,0.203125 C 2.03125,-6.5 2.125,-6.5 2.3125,-6.5 c 0.015625,0 0.203125,0 0.375,0.015625 0.1875,0.03125 0.265625,0.03125 0.265625,0.171875 0,0.03125 0,0.0625 -0.03125,0.1875 l -1.34375,5.34375 C 1.484375,-0.390625 1.46875,-0.3125 0.671875,-0.3125 0.5,-0.3125 0.40625,-0.3125 0.40625,-0.109375 0.40625,0 0.53125,0 0.546875,0 c 0.28125,0 0.984375,-0.03125 1.25,-0.03125 0.28125,0 1,0.03125 1.28125,0.03125 0.078125,0 0.1875,0 0.1875,-0.203125 0,-0.109375 -0.078125,-0.109375 -0.28125,-0.109375 -0.359375,0 -0.640625,0 -0.640625,-0.171875 0,-0.0625 0.015625,-0.109375 0.03125,-0.171875 l 0.65625,-2.640625 h 1.1875 c 0.90625,0 1.078125,0.5625 1.078125,0.90625 0,0.140625 -0.078125,0.453125 -0.140625,0.6875 C 5.09375,-1.421875 5,-1.0625 5,-0.859375 5,0.21875 6.203125,0.21875 6.328125,0.21875 c 0.84375,0 1.203125,-1 1.203125,-1.140625 0,-0.125 -0.109375,-0.125 -0.125,-0.125 -0.09375,0 -0.109375,0.0625 -0.125,0.140625 C 7.03125,-0.171875 6.59375,0 6.375,0 6.046875,0 5.96875,-0.21875 5.96875,-0.609375 c 0,-0.3125 0.0625,-0.8125 0.109375,-1.140625 0.015625,-0.140625 0.03125,-0.328125 0.03125,-0.46875 0,-0.765625 -0.671875,-1.078125 -0.9375,-1.171875 z m 0,0"
           id="path6910" />
      </symbol>
    </g>
    <g
       id="g3415">
      <symbol
         overflow="visible"
         id="symbol4355">
        <path
           style="stroke:none"
           d=""
           id="path2299" />
      </symbol>
      <symbol
         overflow="visible"
         id="symbol3335">
        <path
           style="stroke:none"
           d="M 6.265625,-5.671875 C 6.75,-6.453125 7.171875,-6.484375 7.53125,-6.5 c 0.125,-0.015625 0.140625,-0.171875 0.140625,-0.1875 0,-0.078125 -0.0625,-0.125 -0.140625,-0.125 -0.25,0 -0.546875,0.03125 -0.8125,0.03125 -0.328125,0 -0.671875,-0.03125 -0.984375,-0.03125 -0.0625,0 -0.1875,0 -0.1875,0.1875 0,0.109375 0.078125,0.125 0.15625,0.125 0.265625,0.015625 0.453125,0.125 0.453125,0.328125 0,0.15625 -0.140625,0.375 -0.140625,0.375 l -3.0625,4.875 -0.6875,-5.28125 C 2.265625,-6.375 2.5,-6.5 2.953125,-6.5 c 0.140625,0 0.25,0 0.25,-0.203125 0,-0.078125 -0.078125,-0.109375 -0.125,-0.109375 -0.40625,0 -0.828125,0.03125 -1.25,0.03125 -0.171875,0 -0.359375,0 -0.546875,0 -0.171875,0 -0.359375,-0.03125 -0.53125,-0.03125 -0.078125,0 -0.1875,0 -0.1875,0.1875 0,0.125 0.078125,0.125 0.25,0.125 0.546875,0 0.5625,0.09375 0.59375,0.34375 L 2.1875,-0.015625 C 2.21875,0.1875 2.265625,0.21875 2.390625,0.21875 c 0.15625,0 0.203125,-0.046875 0.28125,-0.171875 z m 0,0"
           id="path5522" />
      </symbol>
      <symbol
         overflow="visible"
         id="symbol4599">
        <path
           style="stroke:none"
           d=""
           id="path8998" />
      </symbol>
      <symbol
         overflow="visible"
         id="symbol4051">
        <path
           style="stroke:none"
           d="m 2.9375,-2.65625 c -0.140625,-0.234375 -0.375,-0.421875 -0.71875,-0.421875 -0.890625,0 -1.796875,0.984375 -1.796875,1.984375 0,0.6875 0.453125,1.15625 1.0625,1.15625 0.375,0 0.703125,-0.203125 0.984375,-0.484375 C 2.59375,0 3,0.0625 3.1875,0.0625 c 0.25,0 0.421875,-0.140625 0.546875,-0.359375 0.15625,-0.28125 0.25,-0.671875 0.25,-0.703125 0,-0.09375 -0.09375,-0.09375 -0.109375,-0.09375 -0.109375,0 -0.109375,0.03125 -0.15625,0.21875 C 3.625,-0.53125 3.5,-0.125 3.203125,-0.125 3.03125,-0.125 2.96875,-0.28125 2.96875,-0.46875 c 0,-0.109375 0.0625,-0.375 0.109375,-0.546875 0.046875,-0.1875 0.125,-0.46875 0.15625,-0.625 L 3.375,-2.171875 C 3.421875,-2.359375 3.5,-2.6875 3.5,-2.71875 3.5,-2.875 3.375,-2.9375 3.265625,-2.9375 c -0.125,0 -0.28125,0.078125 -0.328125,0.28125 z M 2.5,-0.875 C 2.453125,-0.671875 2.296875,-0.53125 2.140625,-0.40625 2.078125,-0.34375 1.796875,-0.125 1.5,-0.125 c -0.265625,0 -0.515625,-0.1875 -0.515625,-0.671875 0,-0.375 0.203125,-1.140625 0.375,-1.421875 0.3125,-0.5625 0.671875,-0.65625 0.859375,-0.65625 0.484375,0 0.625,0.53125 0.625,0.609375 0,0.015625 -0.015625,0.078125 -0.015625,0.09375 z m 0,0"
           id="path1004" />
      </symbol>
    </g>
    <g
       id="g8854">
      <symbol
         overflow="visible"
         id="symbol3456">
        <path
           style="stroke:none"
           d=""
           id="path4975" />
      </symbol>
      <symbol
         overflow="visible"
         id="symbol3058">
        <path
           style="stroke:none"
           d="M 6.265625,-5.671875 C 6.75,-6.453125 7.171875,-6.484375 7.53125,-6.5 c 0.125,-0.015625 0.140625,-0.171875 0.140625,-0.1875 0,-0.078125 -0.0625,-0.125 -0.140625,-0.125 -0.25,0 -0.546875,0.03125 -0.8125,0.03125 -0.328125,0 -0.671875,-0.03125 -0.984375,-0.03125 -0.0625,0 -0.1875,0 -0.1875,0.1875 0,0.109375 0.078125,0.125 0.15625,0.125 0.265625,0.015625 0.453125,0.125 0.453125,0.328125 0,0.15625 -0.140625,0.375 -0.140625,0.375 l -3.0625,4.875 -0.6875,-5.28125 C 2.265625,-6.375 2.5,-6.5 2.953125,-6.5 c 0.140625,0 0.25,0 0.25,-0.203125 0,-0.078125 -0.078125,-0.109375 -0.125,-0.109375 -0.40625,0 -0.828125,0.03125 -1.25,0.03125 -0.171875,0 -0.359375,0 -0.546875,0 -0.171875,0 -0.359375,-0.03125 -0.53125,-0.03125 -0.078125,0 -0.1875,0 -0.1875,0.1875 0,0.125 0.078125,0.125 0.25,0.125 0.546875,0 0.5625,0.09375 0.59375,0.34375 L 2.1875,-0.015625 C 2.21875,0.1875 2.265625,0.21875 2.390625,0.21875 c 0.15625,0 0.203125,-0.046875 0.28125,-0.171875 z m 0,0"
           id="path8228" />
      </symbol>
      <symbol
         overflow="visible"
         id="symbol6227">
        <path
           style="stroke:none"
           d=""
           id="path7388" />
      </symbol>
      <symbol
         overflow="visible"
         id="symbol7616">
        <path
           style="stroke:none"
           d="m 1.84375,-4.625 c 0,-0.015625 0.03125,-0.109375 0.03125,-0.109375 0,-0.046875 -0.03125,-0.109375 -0.125,-0.109375 -0.140625,0 -0.71875,0.0625 -0.890625,0.078125 -0.046875,0 -0.15625,0.015625 -0.15625,0.15625 0,0.09375 0.109375,0.09375 0.1875,0.09375 0.328125,0 0.328125,0.0625 0.328125,0.109375 0,0.046875 -0.0625,0.328125 -0.109375,0.484375 l -0.15625,0.640625 c -0.0625,0.25 -0.4375,1.765625 -0.453125,1.859375 -0.046875,0.171875 -0.046875,0.265625 -0.046875,0.34375 0,0.703125 0.453125,1.140625 1.03125,1.140625 0.875,0 1.796875,-0.9375 1.796875,-1.96875 0,-0.8125 -0.5625,-1.171875 -1.046875,-1.171875 -0.359375,0 -0.671875,0.203125 -0.875,0.390625 z m -0.359375,4.5 c -0.328125,0 -0.53125,-0.296875 -0.53125,-0.71875 0,-0.25 0.0625,-0.484375 0.265625,-1.28125 C 1.25,-2.25 1.25,-2.265625 1.390625,-2.421875 1.65625,-2.71875 1.96875,-2.875 2.21875,-2.875 c 0.265625,0 0.5,0.203125 0.5,0.671875 0,0.28125 -0.140625,1 -0.359375,1.40625 C 2.1875,-0.453125 1.84375,-0.125 1.484375,-0.125 Z m 0,0"
           id="path4484" />
      </symbol>
    </g>
    <g
       id="g450">
      <symbol
         overflow="visible"
         id="symbol7039">
        <path
           style="stroke:none"
           d=""
           id="path7818" />
      </symbol>
      <symbol
         overflow="visible"
         id="symbol6454">
        <path
           style="stroke:none"
           d="m 3.734375,-6.125 c 0.0625,-0.234375 0.09375,-0.328125 0.28125,-0.359375 C 4.109375,-6.5 4.421875,-6.5 4.625,-6.5 c 0.703125,0 1.8125,0 1.8125,0.984375 0,0.34375 -0.15625,1.03125 -0.546875,1.421875 -0.265625,0.25 -0.78125,0.578125 -1.6875,0.578125 H 3.09375 Z m 1.4375,2.734375 c 1.015625,-0.21875 2.1875,-0.921875 2.1875,-1.921875 0,-0.859375 -0.890625,-1.5 -2.203125,-1.5 H 2.328125 c -0.203125,0 -0.296875,0 -0.296875,0.203125 C 2.03125,-6.5 2.125,-6.5 2.3125,-6.5 c 0.015625,0 0.203125,0 0.375,0.015625 0.1875,0.03125 0.265625,0.03125 0.265625,0.171875 0,0.03125 0,0.0625 -0.03125,0.1875 l -1.34375,5.34375 C 1.484375,-0.390625 1.46875,-0.3125 0.671875,-0.3125 0.5,-0.3125 0.40625,-0.3125 0.40625,-0.109375 0.40625,0 0.53125,0 0.546875,0 c 0.28125,0 0.984375,-0.03125 1.25,-0.03125 0.28125,0 1,0.03125 1.28125,0.03125 0.078125,0 0.1875,0 0.1875,-0.203125 0,-0.109375 -0.078125,-0.109375 -0.28125,-0.109375 -0.359375,0 -0.640625,0 -0.640625,-0.171875 0,-0.0625 0.015625,-0.109375 0.03125,-0.171875 l 0.65625,-2.640625 h 1.1875 c 0.90625,0 1.078125,0.5625 1.078125,0.90625 0,0.140625 -0.078125,0.453125 -0.140625,0.6875 C 5.09375,-1.421875 5,-1.0625 5,-0.859375 5,0.21875 6.203125,0.21875 6.328125,0.21875 c 0.84375,0 1.203125,-1 1.203125,-1.140625 0,-0.125 -0.109375,-0.125 -0.125,-0.125 -0.09375,0 -0.109375,0.0625 -0.125,0.140625 C 7.03125,-0.171875 6.59375,0 6.375,0 6.046875,0 5.96875,-0.21875 5.96875,-0.609375 c 0,-0.3125 0.0625,-0.8125 0.109375,-1.140625 0.015625,-0.140625 0.03125,-0.328125 0.03125,-0.46875 0,-0.765625 -0.671875,-1.078125 -0.9375,-1.171875 z m 0,0"
           id="path2721" />
      </symbol>
    </g>
    <g
       id="g3743">
      <symbol
         overflow="visible"
         id="symbol7134">
        <path
           style="stroke:none"
           d=""
           id="path5091" />
      </symbol>
      <symbol
         overflow="visible"
         id="symbol7815">
        <path
           style="stroke:none"
           d="m 3.734375,-6.125 c 0.0625,-0.234375 0.09375,-0.328125 0.28125,-0.359375 C 4.109375,-6.5 4.421875,-6.5 4.625,-6.5 c 0.703125,0 1.8125,0 1.8125,0.984375 0,0.34375 -0.15625,1.03125 -0.546875,1.421875 -0.265625,0.25 -0.78125,0.578125 -1.6875,0.578125 H 3.09375 Z m 1.4375,2.734375 c 1.015625,-0.21875 2.1875,-0.921875 2.1875,-1.921875 0,-0.859375 -0.890625,-1.5 -2.203125,-1.5 H 2.328125 c -0.203125,0 -0.296875,0 -0.296875,0.203125 C 2.03125,-6.5 2.125,-6.5 2.3125,-6.5 c 0.015625,0 0.203125,0 0.375,0.015625 0.1875,0.03125 0.265625,0.03125 0.265625,0.171875 0,0.03125 0,0.0625 -0.03125,0.1875 l -1.34375,5.34375 C 1.484375,-0.390625 1.46875,-0.3125 0.671875,-0.3125 0.5,-0.3125 0.40625,-0.3125 0.40625,-0.109375 0.40625,0 0.53125,0 0.546875,0 c 0.28125,0 0.984375,-0.03125 1.25,-0.03125 0.28125,0 1,0.03125 1.28125,0.03125 0.078125,0 0.1875,0 0.1875,-0.203125 0,-0.109375 -0.078125,-0.109375 -0.28125,-0.109375 -0.359375,0 -0.640625,0 -0.640625,-0.171875 0,-0.0625 0.015625,-0.109375 0.03125,-0.171875 l 0.65625,-2.640625 h 1.1875 c 0.90625,0 1.078125,0.5625 1.078125,0.90625 0,0.140625 -0.078125,0.453125 -0.140625,0.6875 C 5.09375,-1.421875 5,-1.0625 5,-0.859375 5,0.21875 6.203125,0.21875 6.328125,0.21875 c 0.84375,0 1.203125,-1 1.203125,-1.140625 0,-0.125 -0.109375,-0.125 -0.125,-0.125 -0.09375,0 -0.109375,0.0625 -0.125,0.140625 C 7.03125,-0.171875 6.59375,0 6.375,0 6.046875,0 5.96875,-0.21875 5.96875,-0.609375 c 0,-0.3125 0.0625,-0.8125 0.109375,-1.140625 0.015625,-0.140625 0.03125,-0.328125 0.03125,-0.46875 0,-0.765625 -0.671875,-1.078125 -0.9375,-1.171875 z m 0,0"
           id="path9364" />
      </symbol>
    </g>
    <g
       id="g7885">
      <symbol
         overflow="visible"
         id="symbol1874">
        <path
           style="stroke:none"
           d=""
           id="path1924" />
      </symbol>
      <symbol
         overflow="visible"
         id="symbol8475">
        <path
           style="stroke:none"
           d="M 3.734375,-6.03125 C 3.8125,-6.390625 3.84375,-6.5 4.78125,-6.5 c 0.296875,0 0.375,0 0.375,-0.1875 0,-0.125 -0.109375,-0.125 -0.15625,-0.125 -0.328125,0 -1.140625,0.03125 -1.46875,0.03125 -0.296875,0 -1.03125,-0.03125 -1.328125,-0.03125 -0.0625,0 -0.1875,0 -0.1875,0.203125 0,0.109375 0.09375,0.109375 0.28125,0.109375 0.015625,0 0.203125,0 0.375,0.015625 0.171875,0.03125 0.265625,0.03125 0.265625,0.171875 0,0.03125 0,0.0625 -0.03125,0.1875 L 1.5625,-0.78125 c -0.09375,0.390625 -0.109375,0.46875 -0.90625,0.46875 -0.171875,0 -0.265625,0 -0.265625,0.203125 C 0.390625,0 0.484375,0 0.65625,0 h 4.625 C 5.515625,0 5.515625,0 5.578125,-0.171875 L 6.375,-2.328125 c 0.03125,-0.109375 0.03125,-0.125 0.03125,-0.140625 0,-0.03125 -0.03125,-0.109375 -0.109375,-0.109375 -0.09375,0 -0.109375,0.0625 -0.171875,0.21875 -0.34375,0.90625 -0.78125,2.046875 -2.5,2.046875 H 2.6875 c -0.140625,0 -0.171875,0 -0.21875,0 -0.109375,-0.015625 -0.140625,-0.03125 -0.140625,-0.109375 0,-0.03125 0,-0.046875 0.046875,-0.21875 z m 0,0"
           id="path8072" />
      </symbol>
    </g>
  </defs>
  <sodipodi:namedview
     id="base"
     pagecolor="#ffffff"
     bordercolor="#666666"
     borderopacity="1.0"
     inkscape:pageopacity="0.0"
     inkscape:pageshadow="2"
     inkscape:zoom="2"
     inkscape:cx="194.85424"
     inkscape:cy="152.00855"
     inkscape:document-units="px"
     inkscape:current-layer="layer1"
     inkscape:document-rotation="0"
     showgrid="true"
     units="px"
     borderlayer="false"
     inkscape:showpageshadow="false"
     showguides="false"
     inkscape:guide-bbox="true"
     inkscape:window-width="1920"
     inkscape:window-height="1050"
     inkscape:window-x="1920"
     inkscape:window-y="18"
     inkscape:window-maximized="1"
     showborder="true">
    <inkscape:grid
       type="axonomgrid"
       id="grid10"
       originx="-92.458858"
       originy="-116.14598" />
    <sodipodi:guide
       position="40.439941,31.515485"
       orientation="1,0"
       id="guide12" />
    <sodipodi:guide
       position="40.439941,31.515495"
       orientation="-0.5,-0.8660254"
       id="guide14" />
    <sodipodi:guide
       position="40.439941,31.515485"
       orientation="0.5,-0.8660254"
       id="guide16" />
    <sodipodi:guide
       position="40.439941,31.515495"
       orientation="0,-1"
       id="guide893" />
    <sodipodi:guide
       position="37.385549,36.808243"
       orientation="0,-1"
       id="guide1126" />
    <sodipodi:guide
       position="37.385549,36.808243"
       orientation="1,0"
       id="guide1128" />
    <sodipodi:guide
       position="43.494184,26.224343"
       orientation="0,-1"
       id="guide1134" />
    <sodipodi:guide
       position="43.494184,26.224343"
       orientation="1,0"
       id="guide1136" />
    <sodipodi:guide
       position="36.086373,40.114448"
       orientation="0,-1"
       id="guide1166" />
    <sodipodi:guide
       position="35.476017,40.114448"
       orientation="1,0"
       id="guide1168" />
    <sodipodi:guide
       position="45.404145,22.917051"
       orientation="0,-1"
       id="guide1170" />
    <sodipodi:guide
       position="45.404145,22.917051"
       orientation="1,0"
       id="guide1172" />
    <sodipodi:guide
       position="-6.149875,-9.4885506"
       orientation="0.5,-0.8660254"
       id="guide1246" />
    <sodipodi:guide
       position="-3.0973769,-14.78328"
       orientation="0.5,-0.8660254"
       id="guide1248" />
    <sodipodi:guide
       position="-2.3268339,-16.103583"
       orientation="0.5,-0.8660254"
       id="guide1250" />
    <sodipodi:guide
       position="34.257386,42.052311"
       orientation="0.5,-0.8660254"
       id="guide1254" />
    <sodipodi:guide
       position="-21.42588,16.966711"
       orientation="0.5,-0.8660254"
       id="guide1256" />
    <sodipodi:guide
       position="-22.184427,18.292812"
       orientation="0.5,-0.8660254"
       id="guide1258" />
    <sodipodi:guide
       position="45.022673,23.577989"
       orientation="0,-1"
       id="guide1294" />
    <sodipodi:guide
       position="45.022673,23.577989"
       orientation="1,0"
       id="guide1296" />
    <sodipodi:guide
       position="35.857237,39.45299"
       orientation="0,-1"
       id="guide1302" />
    <sodipodi:guide
       position="35.857239,39.452991"
       orientation="1,0"
       id="guide1304" />
    <sodipodi:guide
       position="7.2152517,46.729031"
       orientation="0.8660254,0.5"
       id="guide1378"
       inkscape:label=""
       inkscape:locked="false"
       inkscape:color="rgb(0,0,255)" />
    <sodipodi:guide
       position="73.664661,16.301947"
       orientation="0.8660254,0.5"
       id="guide1380" />
  </sodipodi:namedview>
  <metadata
     id="metadata5">
    <rdf:RDF>
      <cc:Work
         rdf:about="">
        <dc:format>image/svg+xml</dc:format>
        <dc:type
           rdf:resource="http://purl.org/dc/dcmitype/StillImage" />
        <dc:title></dc:title>
      </cc:Work>
    </rdf:RDF>
  </metadata>
  <g
     inkscape:label="Capa 1"
     inkscape:groupmode="layer"
     id="layer1"
     transform="translate(-92.458861,-116.14596)">
    <path
       style="fill:none;fill-rule:evenodd;stroke:#800000;stroke-width:0.529167;stroke-miterlimit:4;stroke-dasharray:none"
       id="path1120"
       sodipodi:type="arc"
       sodipodi:cx="105.40253"
       sodipodi:cy="161.39583"
       sodipodi:rx="18.330868"
       sodipodi:ry="18.330868"
       sodipodi:start="5.2359878"
       sodipodi:end="0"
       sodipodi:open="true"
       sodipodi:arc-type="arc"
       d="m 114.56796,145.52083 a 18.330868,18.330868 0 0 1 9.16543,15.875" />
    <path
       style="fill:none;fill-rule:evenodd;stroke:#800000;stroke-width:0.529167;stroke-miterlimit:4;stroke-dasharray:none"
       id="path1122"
       sodipodi:type="arc"
       sodipodi:cx="123.7334"
       sodipodi:cy="150.8125"
       sodipodi:rx="18.330868"
       sodipodi:ry="18.330868"
       sodipodi:start="2.0943951"
       sodipodi:end="3.1415927"
       sodipodi:arc-type="arc"
       d="m 114.56796,166.6875 a 18.330868,18.330868 0 0 1 -9.16543,-15.875"
       sodipodi:open="true" />
    <path
       style="fill:none;fill-opacity:0.988235;stroke:#800000;stroke-width:0.529167;stroke-linejoin:bevel;stroke-miterlimit:4;stroke-dasharray:none;stroke-dashoffset:0;paint-order:markers fill stroke"
       id="path1140"
       sodipodi:type="arc"
       sodipodi:cx="117.62219"
       sodipodi:cy="161.39531"
       sodipodi:rx="6.1086349"
       sodipodi:ry="6.1086349"
       sodipodi:start="0"
       sodipodi:end="2.0943951"
       sodipodi:arc-type="arc"
       d="m 123.73083,161.39531 a 6.1086349,6.1086349 0 0 1 -3.05432,5.29023 6.1086349,6.1086349 0 0 1 -6.10864,0"
       sodipodi:open="true" />
    <path
       style="fill:none;fill-opacity:0.988235;stroke:#800000;stroke-width:0.529167;stroke-linejoin:bevel;stroke-miterlimit:4;stroke-dasharray:none;stroke-dashoffset:0;paint-order:markers fill stroke"
       id="path1148"
       sodipodi:type="arc"
       sodipodi:cx="100.81982"
       sodipodi:cy="164.04167"
       sodipodi:rx="27.496307"
       sodipodi:ry="27.496307"
       sodipodi:start="5.2359878"
       sodipodi:end="0"
       sodipodi:open="true"
       sodipodi:arc-type="arc"
       d="m 114.56797,140.22917 a 27.496307,27.496307 0 0 1 13.74815,23.8125" />
    <path
       style="fill:none;fill-opacity:0.988235;stroke:#800000;stroke-width:0.529167;stroke-linejoin:bevel;stroke-miterlimit:4;stroke-dasharray:none;stroke-dashoffset:0;paint-order:markers fill stroke"
       id="path1150"
       sodipodi:type="arc"
       sodipodi:cx="128.31612"
       sodipodi:cy="148.16666"
       sodipodi:rx="27.496307"
       sodipodi:ry="27.496307"
       sodipodi:start="2.0943951"
       sodipodi:end="3.1415927"
       sodipodi:open="true"
       sodipodi:arc-type="arc"
       d="m 114.56796,171.97916 a 27.496307,27.496307 0 0 1 -13.74815,-23.8125" />
    <path
       style="fill:none;fill-opacity:0.988235;stroke:#800000;stroke-width:0.529167;stroke-linejoin:bevel;stroke-miterlimit:4;stroke-dasharray:none;stroke-dashoffset:0;paint-order:markers fill stroke"
       id="path1164"
       sodipodi:type="arc"
       sodipodi:cx="129.46179"
       sodipodi:cy="147.5052"
       sodipodi:rx="29.787668"
       sodipodi:ry="29.787668"
       sodipodi:start="2.0943951"
       sodipodi:end="3.1415927"
       sodipodi:open="true"
       sodipodi:arc-type="arc"
       d="M 114.56796,173.30208 A 29.787668,29.787668 0 0 1 99.674124,147.5052" />
    <path
       style="fill:none;fill-opacity:0.988235;stroke:#800000;stroke-width:0.529167;stroke-linejoin:bevel;stroke-miterlimit:4;stroke-dasharray:none;stroke-dashoffset:0;paint-order:markers fill stroke"
       id="path1264"
       sodipodi:type="arc"
       sodipodi:cx="111.51355"
       sodipodi:cy="150.81142"
       sodipodi:rx="6.1086349"
       sodipodi:ry="6.1086349"
       sodipodi:start="3.1415927"
       sodipodi:end="5.2359878"
       sodipodi:open="true"
       sodipodi:arc-type="arc"
       d="m 105.40491,150.81142 a 6.1086349,6.1086349 0 0 1 3.05432,-5.29024 6.1086349,6.1086349 0 0 1 6.10864,0" />
    <path
       style="fill:none;fill-opacity:0.988235;stroke:#800000;stroke-width:0.529167;stroke-linejoin:bevel;stroke-miterlimit:4;stroke-dasharray:none;stroke-dashoffset:0;paint-order:markers fill stroke"
       d="m 108.3854,145.56735 7.71428,-4.45384"
       id="path1268"
       sodipodi:nodetypes="cc" />
    <path
       style="fill:none;fill-opacity:0.988235;stroke:#800000;stroke-width:0.529167;stroke-linejoin:bevel;stroke-miterlimit:4;stroke-dasharray:none;stroke-dashoffset:0;paint-order:markers fill stroke"
       d="m 120.74392,166.64388 7.5722,-4.37182"
       id="path1270"
       sodipodi:nodetypes="cc" />
    <path
       style="fill:none;fill-opacity:0.988235;stroke:#800000;stroke-width:0.529167;stroke-linejoin:bevel;stroke-miterlimit:4;stroke-dasharray:none;stroke-dashoffset:0;paint-order:markers fill stroke"
       id="path1274"
       d="m 99.675899,147.5052 a 9.9281282,9.9281282 0 0 1 4.964061,-8.59801 9.9281282,9.9281282 0 0 1 9.92813,0"
       sodipodi:type="arc"
       sodipodi:arc-type="arc"
       sodipodi:open="true"
       sodipodi:start="3.1415927"
       sodipodi:end="5.2359878"
       sodipodi:ry="9.9281282"
       sodipodi:rx="9.9281282"
       sodipodi:cy="147.5052"
       sodipodi:cx="109.60403" />
    <path
       style="fill:none;fill-opacity:0.988235;stroke:#800000;stroke-width:0.529167;stroke-linejoin:bevel;stroke-miterlimit:4;stroke-dasharray:none;stroke-dashoffset:0;paint-order:markers fill stroke"
       id="path1278"
       sodipodi:type="arc"
       sodipodi:cx="99.674126"
       sodipodi:cy="164.70261"
       sodipodi:rx="29.787668"
       sodipodi:ry="29.787668"
       sodipodi:start="5.2359878"
       sodipodi:end="0"
       sodipodi:open="true"
       sodipodi:arc-type="arc"
       d="m 114.56796,138.90573 a 29.787668,29.787668 0 0 1 14.89383,25.79688" />
    <path
       style="fill:none;fill-opacity:0.988235;stroke:#800000;stroke-width:0.529167;stroke-linejoin:bevel;stroke-miterlimit:4;stroke-dasharray:none;stroke-dashoffset:0;paint-order:markers fill stroke"
       id="path1286"
       sodipodi:type="arc"
       sodipodi:cx="119.53215"
       sodipodi:cy="164.70261"
       sodipodi:rx="9.9281282"
       sodipodi:ry="9.9281282"
       sodipodi:start="0"
       sodipodi:end="2.0943951"
       sodipodi:open="true"
       sodipodi:arc-type="arc"
       d="m 129.46028,164.70261 a 9.9281282,9.9281282 0 0 1 -4.96407,8.59801 9.9281282,9.9281282 0 0 1 -9.92812,0" />
    <path
       style="fill:none;fill-opacity:0.988235;stroke:#800000;stroke-width:0.529167;stroke-linejoin:bevel;stroke-miterlimit:4;stroke-dasharray:none;stroke-dashoffset:0;paint-order:markers fill stroke"
       id="path1300"
       sodipodi:type="arc"
       sodipodi:cx="119.15068"
       sodipodi:cy="164.04167"
       sodipodi:rx="9.1654358"
       sodipodi:ry="9.1654358"
       sodipodi:start="0"
       sodipodi:end="2.0943951"
       sodipodi:open="true"
       sodipodi:arc-type="arc"
       d="m 128.31612,164.04167 a 9.1654358,9.1654358 0 0 1 -4.58272,7.9375 9.1654358,9.1654358 0 0 1 -9.16544,0" />
    <path
       style="fill:none;fill-opacity:0.988235;stroke:#800000;stroke-width:0.529167;stroke-linejoin:bevel;stroke-miterlimit:4;stroke-dasharray:none;stroke-dashoffset:0;paint-order:markers fill stroke"
       id="path1306"
       sodipodi:type="arc"
       sodipodi:cx="109.98524"
       sodipodi:cy="148.16667"
       sodipodi:rx="9.1654339"
       sodipodi:ry="9.1654339"
       sodipodi:start="3.1415927"
       sodipodi:end="5.2359878"
       sodipodi:arc-type="arc"
       d="m 100.8198,148.16667 a 9.1654339,9.1654339 0 0 1 4.58272,-7.9375 9.1654339,9.1654339 0 0 1 9.16543,0"
       sodipodi:open="true" />
    <path
       style="fill:none;fill-rule:evenodd;stroke:#800000;stroke-width:0.264583;stroke-miterlimit:4;stroke-dasharray:0.264583, 0.264583;stroke-dashoffset:0"
       id="path1334"
       sodipodi:type="arc"
       sodipodi:cx="142.06424"
       sodipodi:cy="140.22916"
       sodipodi:rx="18.330868"
       sodipodi:ry="18.330868"
       sodipodi:start="5.2359878"
       sodipodi:end="0"
       sodipodi:open="true"
       sodipodi:arc-type="arc"
       d="m 151.22967,124.35416 a 18.330868,18.330868 0 0 1 9.16544,15.875" />
    <path
       style="fill:none;fill-rule:evenodd;stroke:#800000;stroke-width:0.264583;stroke-miterlimit:4;stroke-dasharray:0.264583, 0.264583;stroke-dashoffset:0"
       id="path1336"
       sodipodi:type="arc"
       sodipodi:cx="160.39511"
       sodipodi:cy="129.64583"
       sodipodi:rx="18.330868"
       sodipodi:ry="18.330868"
       sodipodi:start="2.0943951"
       sodipodi:end="3.1415927"
       sodipodi:arc-type="arc"
       d="m 151.22968,145.52083 a 18.330868,18.330868 0 0 1 -9.16544,-15.875"
       sodipodi:open="true" />
    <path
       style="fill:none;fill-opacity:0.988235;stroke:#800000;stroke-width:0.264583;stroke-linejoin:bevel;stroke-miterlimit:4;stroke-dasharray:0.264583, 0.264583;stroke-dashoffset:0;paint-order:markers fill stroke"
       id="path1338"
       sodipodi:type="arc"
       sodipodi:cx="154.28391"
       sodipodi:cy="140.22864"
       sodipodi:rx="6.1086349"
       sodipodi:ry="6.1086349"
       sodipodi:start="0"
       sodipodi:end="2.0943951"
       sodipodi:arc-type="arc"
       d="m 160.39254,140.22864 a 6.1086349,6.1086349 0 0 1 -3.05432,5.29023 6.1086349,6.1086349 0 0 1 -6.10863,0"
       sodipodi:open="true" />
    <path
       style="fill:none;fill-opacity:0.988235;stroke:#800000;stroke-width:0.264583;stroke-linejoin:bevel;stroke-miterlimit:4;stroke-dasharray:0.264583, 0.264583;stroke-dashoffset:0;paint-order:markers fill stroke"
       id="path1340"
       sodipodi:type="arc"
       sodipodi:cx="137.48154"
       sodipodi:cy="142.875"
       sodipodi:rx="27.496307"
       sodipodi:ry="27.496307"
       sodipodi:start="5.2359878"
       sodipodi:end="0"
       sodipodi:open="true"
       sodipodi:arc-type="arc"
       d="m 151.22969,119.0625 a 27.496307,27.496307 0 0 1 13.74815,23.8125" />
    <path
       style="fill:none;fill-opacity:0.988235;stroke:#800000;stroke-width:0.264583;stroke-linejoin:bevel;stroke-miterlimit:4;stroke-dasharray:0.264583, 0.264583;stroke-dashoffset:0;paint-order:markers fill stroke"
       id="path1342"
       sodipodi:type="arc"
       sodipodi:cx="164.97783"
       sodipodi:cy="126.99998"
       sodipodi:rx="27.496307"
       sodipodi:ry="27.496307"
       sodipodi:start="2.0943951"
       sodipodi:end="3.1415927"
       sodipodi:open="true"
       sodipodi:arc-type="arc"
       d="m 151.22968,150.81248 a 27.496307,27.496307 0 0 1 -13.74816,-23.8125" />
    <path
       style="fill:none;fill-opacity:0.988235;stroke:#800000;stroke-width:0.264583;stroke-linejoin:bevel;stroke-miterlimit:4;stroke-dasharray:0.264583, 0.264583;stroke-dashoffset:0;paint-order:markers fill stroke"
       id="path1344"
       sodipodi:type="arc"
       sodipodi:cx="166.1235"
       sodipodi:cy="126.33852"
       sodipodi:rx="29.787668"
       sodipodi:ry="29.787668"
       sodipodi:start="2.0943951"
       sodipodi:end="3.1415927"
       sodipodi:open="true"
       sodipodi:arc-type="arc"
       d="M 151.22967,152.13539 A 29.787668,29.787668 0 0 1 136.33584,126.33852" />
    <path
       style="fill:none;fill-opacity:0.988235;stroke:#800000;stroke-width:0.264583;stroke-linejoin:bevel;stroke-miterlimit:4;stroke-dasharray:0.264583, 0.264583;stroke-dashoffset:0;paint-order:markers fill stroke"
       id="path1348"
       sodipodi:type="arc"
       sodipodi:cx="148.17526"
       sodipodi:cy="129.64474"
       sodipodi:rx="6.1086349"
       sodipodi:ry="6.1086349"
       sodipodi:start="3.1415927"
       sodipodi:end="5.2359878"
       sodipodi:open="true"
       sodipodi:arc-type="arc"
       d="m 142.06663,129.64474 a 6.1086349,6.1086349 0 0 1 3.05432,-5.29023 6.1086349,6.1086349 0 0 1 6.10863,0" />
    <path
       style="fill:none;fill-opacity:0.988235;stroke:#800000;stroke-width:0.529167;stroke-linejoin:bevel;stroke-miterlimit:4;stroke-dasharray:none;stroke-dashoffset:0;paint-order:markers fill stroke"
       id="path1356"
       d="m 141.30168,117.7405 a 9.9281282,9.9281282 0 0 1 9.92813,1e-5"
       sodipodi:type="arc"
       sodipodi:arc-type="arc"
       sodipodi:open="true"
       sodipodi:start="4.1887902"
       sodipodi:end="5.2359878"
       sodipodi:ry="9.9281282"
       sodipodi:rx="9.9281282"
       sodipodi:cy="126.33852"
       sodipodi:cx="146.26575" />
    <path
       style="fill:none;fill-opacity:0.988235;stroke:#800000;stroke-width:0.529167;stroke-linejoin:bevel;stroke-miterlimit:4;stroke-dasharray:none;stroke-dashoffset:0;paint-order:markers fill stroke"
       id="path1358"
       sodipodi:type="arc"
       sodipodi:cx="136.33585"
       sodipodi:cy="143.53593"
       sodipodi:rx="29.787668"
       sodipodi:ry="29.787668"
       sodipodi:start="5.2359878"
       sodipodi:end="0"
       sodipodi:open="true"
       sodipodi:arc-type="arc"
       d="m 151.22968,117.73906 a 29.787668,29.787668 0 0 1 14.89383,25.79687" />
    <path
       style="fill:none;fill-opacity:0.988235;stroke:#800000;stroke-width:0.529167;stroke-linejoin:bevel;stroke-miterlimit:4;stroke-dasharray:none;stroke-dashoffset:0;paint-order:markers fill stroke"
       id="path1362"
       sodipodi:type="arc"
       sodipodi:cx="156.19386"
       sodipodi:cy="143.53593"
       sodipodi:rx="9.9281282"
       sodipodi:ry="9.9281282"
       sodipodi:start="0"
       sodipodi:end="1.0471976"
       sodipodi:open="true"
       sodipodi:arc-type="arc"
       d="m 166.12199,143.53593 a 9.9281282,9.9281282 0 0 1 -4.96406,8.59802" />
    <path
       style="fill:none;fill-opacity:0.988235;stroke:#800000;stroke-width:0.264583;stroke-linejoin:bevel;stroke-miterlimit:4;stroke-dasharray:0.264583, 0.264583;stroke-dashoffset:0;paint-order:markers fill stroke"
       id="path1366"
       sodipodi:type="arc"
       sodipodi:cx="155.81239"
       sodipodi:cy="142.875"
       sodipodi:rx="9.1654358"
       sodipodi:ry="9.1654358"
       sodipodi:start="0"
       sodipodi:end="2.0943951"
       sodipodi:open="true"
       sodipodi:arc-type="arc"
       d="m 164.97783,142.875 a 9.1654358,9.1654358 0 0 1 -4.58272,7.9375 9.1654358,9.1654358 0 0 1 -9.16543,0" />
    <path
       style="fill:none;fill-opacity:0.988235;stroke:#800000;stroke-width:0.264583;stroke-linejoin:bevel;stroke-miterlimit:4;stroke-dasharray:0.264583, 0.264583;stroke-dashoffset:0;paint-order:markers fill stroke"
       id="path1368"
       sodipodi:type="arc"
       sodipodi:cx="146.64696"
       sodipodi:cy="126.99999"
       sodipodi:rx="9.1654339"
       sodipodi:ry="9.1654339"
       sodipodi:start="3.1415927"
       sodipodi:end="5.2359878"
       sodipodi:arc-type="arc"
       d="m 137.48152,126.99999 a 9.1654339,9.1654339 0 0 1 4.58272,-7.9375 9.1654339,9.1654339 0 0 1 9.16543,0"
       sodipodi:open="true" />
    <path
       style="fill:none;fill-opacity:0.988235;stroke:#800000;stroke-width:0.529167;stroke-linejoin:bevel;stroke-miterlimit:4;stroke-dasharray:none;stroke-dashoffset:0;paint-order:markers fill stroke"
       d="m 104.63744,138.90401 36.66174,-21.16666"
       id="path1382" />
    <path
       style="fill:none;fill-opacity:0.988235;stroke:#800000;stroke-width:0.529167;stroke-linejoin:bevel;stroke-miterlimit:4;stroke-dasharray:none;stroke-dashoffset:0;paint-order:markers fill stroke"
       d="m 124.49591,173.2999 36.66174,-21.16667"
       id="path1384" />
    <path
       style="fill:none;fill-opacity:0.988235;stroke:#800000;stroke-width:0.264583;stroke-linejoin:bevel;stroke-miterlimit:4;stroke-dasharray:0.264583, 0.264583;stroke-dashoffset:0;paint-order:markers fill stroke"
       id="path1386"
       sodipodi:type="arc"
       sodipodi:cx="156.19386"
       sodipodi:cy="143.53593"
       sodipodi:rx="9.9281282"
       sodipodi:ry="9.9281282"
       sodipodi:start="1.0471976"
       sodipodi:end="2.0943951"
       sodipodi:open="true"
       sodipodi:arc-type="arc"
       d="m 161.15793,152.13395 a 9.9281282,9.9281282 0 0 1 -9.92813,0" />
    <path
       style="fill:none;fill-opacity:0.988235;stroke:#800000;stroke-width:0.264583;stroke-linejoin:bevel;stroke-miterlimit:4;stroke-dasharray:0.264583, 0.264583;stroke-dashoffset:0;paint-order:markers fill stroke"
       id="path1388"
       d="m 136.33762,126.33852 a 9.9281282,9.9281282 0 0 1 4.96406,-8.59802"
       sodipodi:type="arc"
       sodipodi:arc-type="arc"
       sodipodi:open="true"
       sodipodi:start="3.1415927"
       sodipodi:end="4.1887902"
       sodipodi:ry="9.9281282"
       sodipodi:rx="9.9281282"
       sodipodi:cy="126.33852"
       sodipodi:cx="146.26575" />
    <path
       style="fill:none;fill-opacity:0.988235;stroke:#800000;stroke-width:0.264583;stroke-linejoin:bevel;stroke-miterlimit:4;stroke-dasharray:0.264583, 0.264583;stroke-dashoffset:0;paint-order:markers fill stroke"
       d="m 105.40188,140.22807 36.66115,-21.16769"
       id="path1390" />
    <path
       style="fill:none;fill-opacity:0.988235;stroke:#800000;stroke-width:0.264583;stroke-linejoin:bevel;stroke-miterlimit:4;stroke-dasharray:0.264583, 0.264583;stroke-dashoffset:0;paint-order:markers fill stroke"
       d="m 123.73157,171.97602 36.6572,-21.16405"
       id="path1392" />
    <path
       style="fill:none;fill-opacity:0.988235;stroke:#800000;stroke-width:0.264583;stroke-linejoin:bevel;stroke-miterlimit:4;stroke-dasharray:0.264583, 0.264583;stroke-dashoffset:0;paint-order:markers fill stroke"
       d="m 116.04545,141.14479 29.07602,-16.78705"
       id="path1394"
       sodipodi:nodetypes="cc" />
    <path
       style="fill:none;fill-opacity:0.988235;stroke:#800000;stroke-width:0.264583;stroke-linejoin:bevel;stroke-miterlimit:4;stroke-dasharray:0.264583, 0.264583;stroke-dashoffset:0;paint-order:markers fill stroke"
       d="m 128.2536,162.30813 29.07647,-16.78731"
       id="path1396"
       sodipodi:nodetypes="cc" />
    <path
       style="fill:none;fill-opacity:0.988235;stroke:#000000;stroke-width:0.264583;stroke-linejoin:bevel;stroke-miterlimit:4;stroke-dasharray:none;stroke-dashoffset:0;paint-order:markers fill stroke"
       d="m 101.96548,163.3802 -9.165443,5.29167"
       id="path1398" />
    <path
       style="fill:none;fill-opacity:0.988235;stroke:#000000;stroke-width:0.264583;stroke-linejoin:bevel;stroke-miterlimit:4;stroke-dasharray:none;stroke-dashoffset:0;paint-order:markers fill stroke"
       d="m 111.13091,168.67187 -9.16544,5.29167"
       id="path1400" />
    <path
       style="fill:none;fill-opacity:0.988235;stroke:#000000;stroke-width:0.264583;stroke-linejoin:bevel;stroke-miterlimit:4;stroke-dasharray:none;stroke-dashoffset:0;paint-order:markers fill stroke"
       d="m 97.382757,166.02604 9.165433,5.29166"
       id="path1402" />
    <path
       style="fill:none;fill-opacity:0.988235;stroke:#000000;stroke-width:0.264583;stroke-linejoin:bevel;stroke-miterlimit:4;stroke-dasharray:0.264583, 0.264583;stroke-dashoffset:0;paint-order:markers fill stroke"
       d="m 114.56795,156.10416 -12.60247,7.27604"
       id="path1404"
       sodipodi:nodetypes="cc" />
    <path
       style="fill:none;fill-opacity:0.988235;stroke:#000000;stroke-width:0.264583;stroke-linejoin:bevel;stroke-miterlimit:4;stroke-dasharray:0.264583, 0.264583;stroke-dashoffset:0;paint-order:markers fill stroke"
       d="m 123.73338,161.39583 -12.60247,7.27604"
       id="path1406"
       sodipodi:nodetypes="cc" />
    <path
       style="fill:none;fill-opacity:0.988235;stroke:#000000;stroke-width:0.264583;stroke-linejoin:bevel;stroke-miterlimit:4;stroke-dasharray:0.264583, 0.264583;stroke-dashoffset:0;paint-order:markers fill stroke"
       d="m 129.46178,164.70312 6.87408,3.96875"
       id="path1408" />
    <path
       style="fill:none;fill-opacity:0.988235;stroke:#000000;stroke-width:0.264583;stroke-linejoin:bevel;stroke-miterlimit:4;stroke-dasharray:0.264583, 0.264583;stroke-dashoffset:0;paint-order:markers fill stroke"
       d="m 166.12352,143.53645 6.87408,3.96875"
       id="path1410" />
    <path
       style="fill:none;fill-opacity:0.988235;stroke:#000000;stroke-width:0.264583;stroke-linejoin:bevel;stroke-miterlimit:4;stroke-dasharray:none;stroke-dashoffset:0;paint-order:markers fill stroke"
       d="m 136.33586,168.67187 9.16543,5.29166"
       id="path1412" />
    <path
       style="fill:none;fill-opacity:0.988235;stroke:#000000;stroke-width:0.264583;stroke-linejoin:bevel;stroke-miterlimit:4;stroke-dasharray:none;stroke-dashoffset:0;paint-order:markers fill stroke"
       d="m 172.9976,147.5052 9.16543,5.29166"
       id="path1414" />
    <path
       style="fill:none;fill-opacity:0.988235;stroke:#000000;stroke-width:0.264583;stroke-linejoin:bevel;stroke-miterlimit:4;stroke-dasharray:none;stroke-dashoffset:0;paint-order:markers fill stroke"
       d="m 140.91857,171.3177 36.66175,-21.16667"
       id="path1416" />
    <g
       inkscape:label=""
       transform="matrix(0.68490329,0,0,0.68490329,29.220882,120.74977)"
       id="g1555">
      <g
         id="g3146">
        <g
           style="fill:#000000;fill-opacity:1"
           id="g7674">
          <use
             xlink:href="#symbol7815"
             x="91.925003"
             y="81.962997"
             id="use1038"
             width="100%"
             height="100%" />
        </g>
      </g>
    </g>
    <g
       inkscape:label=""
       transform="matrix(0.68490329,0,0,0.68490329,97.84342,110.82429)"
       id="g1739">
      <g
         id="g1016">
        <g
           style="fill:#000000;fill-opacity:1"
           id="g8315">
          <use
             xlink:href="#symbol8475"
             x="91.925003"
             y="81.962997"
             id="use5684"
             width="100%"
             height="100%" />
        </g>
      </g>
    </g>
  </g>
</svg>
