<?xml version="1.0" encoding="UTF-8" standalone="no"?>
<!-- Created with Inkscape (http://www.inkscape.org/) -->

<svg
   width="304.00003"
   height="143.99986"
   viewBox="0 0 80.433332 38.099959"
   version="1.1"
   id="svg5"
   sodipodi:docname="base.svg"
   inkscape:version="1.2.1 (9c6d41e410, 2022-07-14)"
   xmlns:inkscape="http://www.inkscape.org/namespaces/inkscape"
   xmlns:sodipodi="http://sodipodi.sourceforge.net/DTD/sodipodi-0.dtd"
   xmlns="http://www.w3.org/2000/svg"
   xmlns:svg="http://www.w3.org/2000/svg">
  <sodipodi:namedview
     id="namedview7"
     pagecolor="#ffffff"
     bordercolor="#000000"
     borderopacity="0.25"
     inkscape:showpageshadow="false"
     inkscape:pageopacity="0.0"
     inkscape:pagecheckerboard="false"
     inkscape:deskcolor="#d1d1d1"
     inkscape:document-units="px"
     showgrid="true"
     inkscape:zoom="1.4142136"
     inkscape:cx="238.29498"
     inkscape:cy="813.52635"
     inkscape:window-width="1920"
     inkscape:window-height="1050"
     inkscape:window-x="1920"
     inkscape:window-y="18"
     inkscape:window-maximized="1"
     inkscape:current-layer="layer1"
     showguides="true">
    <inkscape:grid
       type="xygrid"
       id="grid1223"
       spacingx="1.0583333"
       spacingy="1.0583333"
       empspacing="4"
       originx="5.0517578e-06"
       originy="6.2171665e-07" />
    <sodipodi:guide
       position="5.0517558e-06,237.06666"
       orientation="0,-1"
       id="guide1694"
       inkscape:locked="false" />
    <sodipodi:guide
       position="5.0517558e-06,237.06666"
       orientation="1,0"
       id="guide1696"
       inkscape:locked="false" />
    <sodipodi:guide
       position="50.800004,237.06667"
       orientation="1,0"
       id="guide21735"
       inkscape:locked="false" />
    <sodipodi:guide
       position="5.0517558e-06,194.73332"
       orientation="0,-1"
       id="guide21941"
       inkscape:locked="false" />
    <sodipodi:guide
       position="101.6,237.06667"
       orientation="1,0"
       id="guide24413"
       inkscape:locked="false" />
    <sodipodi:guide
       position="5.0517558e-06,152.39999"
       orientation="0,-1"
       id="guide35496"
       inkscape:locked="false" />
    <sodipodi:guide
       position="152.40001,237.06665"
       orientation="1,0"
       id="guide50631"
       inkscape:locked="false" />
    <sodipodi:guide
       position="5.0517558e-06,114.29999"
       orientation="0,-1"
       id="guide53352"
       inkscape:locked="false" />
    <sodipodi:guide
       position="5.0517558e-06,76.199998"
       orientation="0,-1"
       id="guide159195"
       inkscape:locked="false" />
    <sodipodi:guide
       position="67.733337,76.199998"
       orientation="1,0"
       id="guide500405"
       inkscape:locked="false" />
    <sodipodi:guide
       position="5.0517558e-06,38.099998"
       orientation="0,-1"
       id="guide503869"
       inkscape:locked="false" />
    <sodipodi:guide
       position="203.2,33.866658"
       orientation="1,0"
       id="guide645019"
       inkscape:locked="false" />
    <sodipodi:guide
       position="59.266671,-4.2333399"
       orientation="1,0"
       id="guide686712"
       inkscape:locked="false" />
    <sodipodi:guide
       position="5.0517558e-06,-2.9352217e-06"
       orientation="0,-1"
       id="guide686714"
       inkscape:locked="false" />
    <sodipodi:guide
       position="118.53334,-4.2333389"
       orientation="1,0"
       id="guide765939"
       inkscape:locked="false" />
    <sodipodi:guide
       position="177.8,-4.2333389"
       orientation="1,0"
       id="guide816936"
       inkscape:locked="false" />
    <sodipodi:guide
       position="254,76.199998"
       orientation="1,0"
       id="guide839718"
       inkscape:locked="false" />
    <sodipodi:guide
       position="5.0517558e-06,-42.333337"
       orientation="0,-1"
       id="guide264220"
       inkscape:locked="false" />
    <sodipodi:guide
       position="5.0517558e-06,-80.433337"
       orientation="0,-1"
       id="guide268749"
       inkscape:locked="false" />
    <sodipodi:guide
       position="80.433336,38.099958"
       orientation="1,0"
       id="guide195271"
       inkscape:locked="false" />
    <sodipodi:guide
       position="122.76667,38.099998"
       orientation="1,0"
       id="guide236368"
       inkscape:locked="false" />
  </sodipodi:namedview>
  <defs
     id="defs2">
    <marker
       style="overflow:visible"
       id="Arrow2-4-0-4-0-1-2-0-9"
       refX="0"
       refY="0"
       orient="auto-start-reverse"
       inkscape:stockid="Arrow2"
       markerWidth="3.3000002"
       markerHeight="2.4000001"
       viewBox="0 0 7.7 5.6"
       inkscape:isstock="true"
       inkscape:collect="always"
       preserveAspectRatio="xMidYMid">
      <path
         transform="scale(0.7)"
         d="M -2,-4 9,0 -2,4 c 2,-2.33 2,-5.66 0,-8 z"
         style="fill:context-stroke;fill-rule:evenodd;stroke:none"
         id="arrow2L-4-2-7-6-5-6-6-0" />
    </marker>
    <clipPath
       id="clipPath958">
      <path
         d="M 0,0 H 28 V 6.972656 H 0 Z m 0,0"
         id="path14273" />
    </clipPath>
    <clipPath
       id="clipPath3587">
      <path
         d="M 0,0 H 28 V 6.972656 H 0 Z m 0,0"
         id="path21558" />
    </clipPath>
    <clipPath
       id="clipPath5029">
      <path
         d="M 0,0 H 28 V 6.972656 H 0 Z m 0,0"
         id="path15445" />
    </clipPath>
    <clipPath
       id="clipPath3762">
      <path
         d="M 0,0 H 28 V 6.972656 H 0 Z m 0,0"
         id="path70326" />
    </clipPath>
  </defs>
  <g
     inkscape:label="Capa 1"
     inkscape:groupmode="layer"
     id="layer1"
     transform="translate(5.0517579e-6,-198.96663)">
    <rect
       style="fill:#ffffff;stroke:none;stroke-width:0.264583;stroke-linejoin:round;stroke-dasharray:none;stroke-dashoffset:0;paint-order:stroke markers fill"
       id="rect196943"
       width="80.433334"
       height="38.09996"
       x="-5.0517579e-06"
       y="198.96663"
       inkscape:export-filename="f02.svg"
       inkscape:export-xdpi="96"
       inkscape:export-ydpi="96" />
    <path
       style="fill:none;stroke:#008000;stroke-width:0.396875;stroke-linejoin:round;stroke-dasharray:none;marker-end:url(#Arrow2-4-0-4-0-1-2-0-9);paint-order:stroke markers fill"
       d="M 21.166666,213.78329 H 16.933333"
       id="path175285"
       sodipodi:nodetypes="cc" />
    <path
       style="fill:none;stroke:#008000;stroke-width:0.396875;stroke-linejoin:round;stroke-dasharray:none;marker-end:url(#Arrow2-4-0-4-0-1-2-0-9);paint-order:stroke markers fill"
       d="M 21.166666,222.51393 H 16.933333"
       id="path175287"
       sodipodi:nodetypes="cc" />
    <path
       style="fill:none;stroke:#008000;stroke-width:0.396875;stroke-linejoin:round;stroke-dasharray:none;marker-end:url(#Arrow2-4-0-4-0-1-2-0-9);paint-order:stroke markers fill"
       d="m 59.266665,226.87885 h 4.233333"
       id="path173704"
       sodipodi:nodetypes="cc" />
    <path
       style="fill:none;stroke:#008000;stroke-width:0.396875;stroke-linejoin:round;stroke-dasharray:none;marker-end:url(#Arrow2-4-0-4-0-1-2-0-9);paint-order:stroke markers fill"
       d="m 59.266665,218.14902 h 4.233333"
       id="path172143"
       sodipodi:nodetypes="cc" />
    <path
       style="fill:none;stroke:#008000;stroke-width:0.396875;stroke-linejoin:round;stroke-dasharray:none;marker-end:url(#Arrow2-4-0-4-0-1-2-0-9);paint-order:stroke markers fill"
       d="m 59.266665,209.41835 h 4.233333"
       id="path232077-5-8-1-1-9"
       sodipodi:nodetypes="cc" />
    <g
       id="g154791"
       transform="translate(14.816666,1.9850633)">
      <path
         style="fill:#999999;stroke:#000000;stroke-width:0.264583;stroke-linecap:round;stroke-linejoin:round;stroke-dasharray:none;stroke-dashoffset:0;paint-order:stroke markers fill"
         d="m 44.450001,207.4333 c 0,0 1.058332,-0.55944 1.058331,-1.05834 -1e-6,-0.4989 -1.058333,-1.05833 -1.058333,-1.05833 h -2.116667 v 2.11666 z"
         id="path144014"
         sodipodi:nodetypes="cac" />
      <rect
         style="fill:#b3b3b3;stroke:#000000;stroke-width:0.264583;stroke-linejoin:round;stroke-dasharray:none;stroke-dashoffset:0;paint-order:stroke markers fill"
         id="rect139269"
         width="4.2333336"
         height="4.2333393"
         x="19.049999"
         y="205.31662" />
      <path
         style="fill:#b3b3b3;stroke:#000000;stroke-width:0.264583;stroke-linecap:round;stroke-linejoin:round;stroke-dasharray:none;stroke-dashoffset:0;paint-order:stroke markers fill"
         d="m 27.516666,209.54996 v -4.23334 h 16.933331 c 0,0 -1.058333,0.55944 -1.058332,1.05834 10e-7,0.4989 1.058333,1.05833 1.058333,1.05833 0,0 1.058331,0.55943 1.058332,1.05833 10e-7,0.4989 -1.058332,1.05834 -1.058332,1.05834 z"
         id="path144012"
         sodipodi:nodetypes="cccacacc" />
    </g>
    <g
       id="g154799"
       transform="rotate(180,32.808332,210.60829)">
      <path
         style="fill:#999999;stroke:#000000;stroke-width:0.264583;stroke-linecap:round;stroke-linejoin:round;stroke-dasharray:none;stroke-dashoffset:0;paint-order:stroke markers fill"
         d="m 44.450001,207.4333 c 0,0 1.058332,-0.55944 1.058331,-1.05834 -1e-6,-0.4989 -1.058333,-1.05833 -1.058333,-1.05833 h -2.116667 v 2.11666 z"
         id="path154793"
         sodipodi:nodetypes="cac" />
      <rect
         style="fill:#b3b3b3;stroke:#000000;stroke-width:0.264583;stroke-linejoin:round;stroke-dasharray:none;stroke-dashoffset:0;paint-order:stroke markers fill"
         id="rect154795"
         width="4.2333336"
         height="4.2333393"
         x="19.049999"
         y="205.31662" />
      <path
         style="fill:#b3b3b3;stroke:#000000;stroke-width:0.264583;stroke-linecap:round;stroke-linejoin:round;stroke-dasharray:none;stroke-dashoffset:0;paint-order:stroke markers fill"
         d="m 27.516666,209.54996 v -4.23334 h 16.933331 c 0,0 -1.058333,0.55944 -1.058332,1.05834 10e-7,0.4989 1.058333,1.05833 1.058333,1.05833 0,0 1.058331,0.55943 1.058332,1.05833 10e-7,0.4989 -1.058332,1.05834 -1.058332,1.05834 z"
         id="path154797"
         sodipodi:nodetypes="cccacacc" />
    </g>
    <g
       id="g156344"
       transform="translate(14.816666,10.71573)">
      <path
         style="fill:#999999;stroke:#000000;stroke-width:0.264583;stroke-linecap:round;stroke-linejoin:round;stroke-dasharray:none;stroke-dashoffset:0;paint-order:stroke markers fill"
         d="m 44.450001,207.4333 c 0,0 1.058332,-0.55944 1.058331,-1.05834 -1e-6,-0.4989 -1.058333,-1.05833 -1.058333,-1.05833 h -2.116667 v 2.11666 z"
         id="path156338"
         sodipodi:nodetypes="cac" />
      <rect
         style="fill:#b3b3b3;stroke:#000000;stroke-width:0.264583;stroke-linejoin:round;stroke-dasharray:none;stroke-dashoffset:0;paint-order:stroke markers fill"
         id="rect156340"
         width="4.2333336"
         height="4.2333393"
         x="19.049999"
         y="205.31662" />
      <path
         style="fill:#b3b3b3;stroke:#000000;stroke-width:0.264583;stroke-linecap:round;stroke-linejoin:round;stroke-dasharray:none;stroke-dashoffset:0;paint-order:stroke markers fill"
         d="m 27.516666,209.54996 v -4.23334 h 16.933331 c 0,0 -1.058333,0.55944 -1.058332,1.05834 10e-7,0.4989 1.058333,1.05833 1.058333,1.05833 0,0 1.058331,0.55943 1.058332,1.05833 10e-7,0.4989 -1.058332,1.05834 -1.058332,1.05834 z"
         id="path156342"
         sodipodi:nodetypes="cccacacc" />
    </g>
    <g
       id="g156352"
       transform="rotate(180,32.808332,214.97361)">
      <path
         style="fill:#999999;stroke:#000000;stroke-width:0.264583;stroke-linecap:round;stroke-linejoin:round;stroke-dasharray:none;stroke-dashoffset:0;paint-order:stroke markers fill"
         d="m 44.450001,207.4333 c 0,0 1.058332,-0.55944 1.058331,-1.05834 -1e-6,-0.4989 -1.058333,-1.05833 -1.058333,-1.05833 h -2.116667 v 2.11666 z"
         id="path156346"
         sodipodi:nodetypes="cac" />
      <rect
         style="fill:#b3b3b3;stroke:#000000;stroke-width:0.264583;stroke-linejoin:round;stroke-dasharray:none;stroke-dashoffset:0;paint-order:stroke markers fill"
         id="rect156348"
         width="4.2333336"
         height="4.2333393"
         x="19.049999"
         y="205.31662" />
      <path
         style="fill:#b3b3b3;stroke:#000000;stroke-width:0.264583;stroke-linecap:round;stroke-linejoin:round;stroke-dasharray:none;stroke-dashoffset:0;paint-order:stroke markers fill"
         d="m 27.516666,209.54996 v -4.23334 h 16.933331 c 0,0 -1.058333,0.55944 -1.058332,1.05834 10e-7,0.4989 1.058333,1.05833 1.058333,1.05833 0,0 1.058331,0.55943 1.058332,1.05833 10e-7,0.4989 -1.058332,1.05834 -1.058332,1.05834 z"
         id="path156350"
         sodipodi:nodetypes="cccacacc" />
    </g>
    <g
       id="g157905"
       transform="translate(14.816666,19.445557)">
      <path
         style="fill:#999999;stroke:#000000;stroke-width:0.264583;stroke-linecap:round;stroke-linejoin:round;stroke-dasharray:none;stroke-dashoffset:0;paint-order:stroke markers fill"
         d="m 44.450001,207.4333 c 0,0 1.058332,-0.55944 1.058331,-1.05834 -1e-6,-0.4989 -1.058333,-1.05833 -1.058333,-1.05833 h -2.116667 v 2.11666 z"
         id="path157899"
         sodipodi:nodetypes="cac" />
      <rect
         style="fill:#b3b3b3;stroke:#000000;stroke-width:0.264583;stroke-linejoin:round;stroke-dasharray:none;stroke-dashoffset:0;paint-order:stroke markers fill"
         id="rect157901"
         width="4.2333336"
         height="4.2333393"
         x="19.049999"
         y="205.31662" />
      <path
         style="fill:#b3b3b3;stroke:#000000;stroke-width:0.264583;stroke-linecap:round;stroke-linejoin:round;stroke-dasharray:none;stroke-dashoffset:0;paint-order:stroke markers fill"
         d="m 27.516666,209.54996 v -4.23334 h 16.933331 c 0,0 -1.058333,0.55944 -1.058332,1.05834 10e-7,0.4989 1.058333,1.05833 1.058333,1.05833 0,0 1.058331,0.55943 1.058332,1.05833 10e-7,0.4989 -1.058332,1.05834 -1.058332,1.05834 z"
         id="path157903"
         sodipodi:nodetypes="cccacacc" />
    </g>
    <g
       id="g167298"
       transform="translate(14.816666,2.2486452)">
      <path
         style="fill:#999999;stroke:#000000;stroke-width:0.264583;stroke-linecap:round;stroke-linejoin:round;stroke-dasharray:none;stroke-dashoffset:0;paint-order:stroke markers fill"
         d="m 25.399989,229.65829 c 0,0 0.559436,1.05833 1.05834,1.05833 0.498902,0 1.05833,-1.05833 1.05833,-1.05833 v -2.11667 h -2.11666 z"
         id="path162616"
         sodipodi:nodetypes="cacccc" />
      <path
         style="fill:#999999;stroke:#000000;stroke-width:0.264583;stroke-linecap:round;stroke-linejoin:round;stroke-dasharray:none;stroke-dashoffset:0;paint-order:stroke markers fill"
         d="m 25.400009,202.14162 c 0,0 -0.55944,-1.05833 -1.05834,-1.05833 -0.4989,0 -1.05833,1.05833 -1.05833,1.05833 v 2.11667 h 2.11666 z"
         id="path154793-9"
         sodipodi:nodetypes="cac" />
      <path
         style="fill:#b3b3b3;stroke:#000000;stroke-width:0.264583;stroke-linecap:round;stroke-linejoin:round;stroke-dasharray:none;stroke-dashoffset:0;paint-order:stroke markers fill"
         d="m 23.283329,202.14162 c 0,0 0.55944,1.05834 1.05834,1.05833 0.4989,0 1.05833,-1.05833 1.05833,-1.05833 0,0 0.55943,-1.05833 1.05833,-1.05833 0.4989,0 1.05834,1.05833 1.05834,1.05833 v 27.51667 c 0,0 -0.559436,-1.05833 -1.05834,-1.05833 -0.498902,0 -1.05833,1.05833 -1.05833,1.05833 0,0 -0.559428,1.05833 -1.05833,1.05833 -0.498904,0 -1.05834,-1.05833 -1.05834,-1.05833 z"
         id="path154797-4"
         sodipodi:nodetypes="cacaccacacc" />
    </g>
    <path
       style="fill:none;stroke:#ffcc00;stroke-width:0.264583;stroke-linejoin:round;stroke-dasharray:2.11667, 0.529167, 0.264583, 0.529167;stroke-dashoffset:0;paint-order:stroke markers fill"
       d="m 40.216665,201.08329 v 33.86667"
       id="path170429"
       sodipodi:nodetypes="cc" />
    <g
       inkscape:label=""
       transform="translate(65.786541,208.1919)"
       id="g179992">
      <g
         id="g179990"
         transform="matrix(0.352778,0,0,0.352778,-0.15434,-0.00432151)">
        <g
           clip-path="url(#clipPath958)"
           clip-rule="nonzero"
           id="g48">
          <g
             style="fill:#000000;fill-opacity:1"
             id="g46">
            <g
               id="use30"
               transform="translate(0,5.2309999)">
              <path
                 style="stroke:none"
                 d="m 1.078125,-3.890625 c 0.359375,0.09375 0.5625,0.09375 0.671875,0.09375 0.921875,0 1.46875,-0.625 1.46875,-0.734375 0,-0.078125 -0.046875,-0.09375 -0.078125,-0.09375 -0.015625,0 -0.03125,0 -0.0625,0.015625 -0.171875,0.0625 -0.53125,0.203125 -1.046875,0.203125 -0.203125,0 -0.5625,-0.015625 -1.015625,-0.1875 C 0.9375,-4.625 0.921875,-4.625 0.921875,-4.625 c -0.09375,0 -0.09375,0.078125 -0.09375,0.1875 v 2.046875 c 0,0.125 0,0.203125 0.109375,0.203125 0.0625,0 0.078125,0 0.140625,-0.09375 0.296875,-0.375 0.734375,-0.4375 0.96875,-0.4375 0.421875,0 0.609375,0.328125 0.640625,0.390625 0.125,0.234375 0.171875,0.5 0.171875,0.90625 0,0.203125 0,0.609375 -0.21875,0.921875 -0.171875,0.25 -0.46875,0.421875 -0.8125,0.421875 -0.453125,0 -0.921875,-0.25 -1.09375,-0.71875 0.265625,0.015625 0.40625,-0.15625 0.40625,-0.34375 0,-0.296875 -0.265625,-0.34375 -0.359375,-0.34375 0,0 -0.34375,0 -0.34375,0.375 0,0.625 0.578125,1.25 1.40625,1.25 0.890625,0 1.671875,-0.65625 1.671875,-1.546875 0,-0.78125 -0.59375,-1.5 -1.453125,-1.5 -0.3125,0 -0.671875,0.0625 -0.984375,0.328125 z m 0,0"
                 id="path55" />
            </g>
            <g
               id="use32"
               transform="translate(3.9715791,5.2309999)">
              <path
                 style="stroke:none"
                 d="M 3.59375,-2.21875 C 3.59375,-2.984375 3.5,-3.546875 3.1875,-4.03125 2.96875,-4.34375 2.53125,-4.625 1.984375,-4.625 c -1.625,0 -1.625,1.90625 -1.625,2.40625 0,0.5 0,2.359375 1.625,2.359375 1.609375,0 1.609375,-1.859375 1.609375,-2.359375 z M 1.984375,-0.0625 c -0.328125,0 -0.75,-0.1875 -0.890625,-0.75 C 1,-1.21875 1,-1.796875 1,-2.3125 1,-2.828125 1,-3.359375 1.09375,-3.734375 1.25,-4.28125 1.6875,-4.4375 1.984375,-4.4375 c 0.375,0 0.734375,0.234375 0.859375,0.640625 0.109375,0.375 0.125,0.875 0.125,1.484375 0,0.515625 0,1.03125 -0.09375,1.46875 -0.140625,0.640625 -0.609375,0.78125 -0.890625,0.78125 z m 0,0"
                 id="path59" />
            </g>
            <g
               id="use34"
               transform="translate(7.9431581,5.2309999)">
              <path
                 style="stroke:none"
                 d="M 3.59375,-2.21875 C 3.59375,-2.984375 3.5,-3.546875 3.1875,-4.03125 2.96875,-4.34375 2.53125,-4.625 1.984375,-4.625 c -1.625,0 -1.625,1.90625 -1.625,2.40625 0,0.5 0,2.359375 1.625,2.359375 1.609375,0 1.609375,-1.859375 1.609375,-2.359375 z M 1.984375,-0.0625 c -0.328125,0 -0.75,-0.1875 -0.890625,-0.75 C 1,-1.21875 1,-1.796875 1,-2.3125 1,-2.828125 1,-3.359375 1.09375,-3.734375 1.25,-4.28125 1.6875,-4.4375 1.984375,-4.4375 c 0.375,0 0.734375,0.234375 0.859375,0.640625 0.109375,0.375 0.125,0.875 0.125,1.484375 0,0.515625 0,1.03125 -0.09375,1.46875 -0.140625,0.640625 -0.609375,0.78125 -0.890625,0.78125 z m 0,0"
                 id="path63" />
            </g>
            <g
               id="use36"
               transform="translate(11.914737,5.2309999)">
              <path
                 style="stroke:none"
                 d="M 3.59375,-2.21875 C 3.59375,-2.984375 3.5,-3.546875 3.1875,-4.03125 2.96875,-4.34375 2.53125,-4.625 1.984375,-4.625 c -1.625,0 -1.625,1.90625 -1.625,2.40625 0,0.5 0,2.359375 1.625,2.359375 1.609375,0 1.609375,-1.859375 1.609375,-2.359375 z M 1.984375,-0.0625 c -0.328125,0 -0.75,-0.1875 -0.890625,-0.75 C 1,-1.21875 1,-1.796875 1,-2.3125 1,-2.828125 1,-3.359375 1.09375,-3.734375 1.25,-4.28125 1.6875,-4.4375 1.984375,-4.4375 c 0.375,0 0.734375,0.234375 0.859375,0.640625 0.109375,0.375 0.125,0.875 0.125,1.484375 0,0.515625 0,1.03125 -0.09375,1.46875 -0.140625,0.640625 -0.609375,0.78125 -0.890625,0.78125 z m 0,0"
                 id="path67" />
            </g>
            <g
               id="use38"
               transform="translate(15.886316,5.2309999)">
              <path
                 style="stroke:none"
                 d="M 2.015625,1.734375 V 1.40625 h -0.71875 v -6.296875 h 0.71875 V -5.21875 h -1.0625 v 6.953125 z m 0,0"
                 id="path71" />
            </g>
            <g
               id="use40"
               transform="translate(18.141644,5.2309999)">
              <path
                 style="stroke:none"
                 d="M 2.25,-1.890625 C 3.109375,-2.546875 3.34375,-2.734375 3.8125,-2.75 V -3 C 3.671875,-2.984375 3.484375,-2.96875 3.34375,-2.96875 3.0625,-2.96875 2.78125,-2.984375 2.515625,-3 v 0.25 c 0.078125,0.015625 0.125,0.0625 0.125,0.125 0,0.109375 -0.140625,0.234375 -0.21875,0.296875 l -1.03125,0.796875 v -3.3125 L 0.34375,-4.765625 v 0.25 c 0.46875,0 0.515625,0.0625 0.515625,0.390625 v 3.578125 C 0.859375,-0.25 0.796875,-0.25 0.34375,-0.25 V 0 c 0.25,-0.015625 0.515625,-0.03125 0.765625,-0.03125 C 1.375,-0.03125 1.625,-0.015625 1.890625,0 v -0.25 c -0.453125,0 -0.53125,0 -0.53125,-0.296875 V -1.21875 L 1.875,-1.609375 2.625,-0.65625 c 0.078125,0.078125 0.15625,0.1875 0.15625,0.28125 0,0.109375 -0.125,0.125 -0.1875,0.125 V 0 C 2.6875,0 3.171875,-0.03125 3.375,-0.03125 c 0.203125,0 0.40625,0.015625 0.609375,0.03125 v -0.25 c -0.25,0 -0.40625,-0.015625 -0.609375,-0.265625 z m 0,0"
                 id="path75" />
            </g>
            <g
               id="use42"
               transform="translate(22.327318,5.2309999)">
              <path
                 style="stroke:none"
                 d="m 1,-1.234375 c 0.109375,0.0625 0.359375,0.203125 0.765625,0.203125 C 2.484375,-1.03125 3,-1.5 3,-2.046875 3,-2.328125 2.875,-2.53125 2.703125,-2.71875 c 0.328125,-0.21875 0.59375,-0.234375 0.71875,-0.234375 -0.03125,0.03125 -0.0625,0.0625 -0.0625,0.171875 0,0.140625 0.09375,0.21875 0.21875,0.21875 0.09375,0 0.21875,-0.0625 0.21875,-0.21875 0,-0.171875 -0.125,-0.359375 -0.40625,-0.359375 -0.109375,0 -0.484375,0.015625 -0.8125,0.3125 -0.203125,-0.140625 -0.5,-0.25 -0.8125,-0.25 -0.71875,0 -1.234375,0.484375 -1.234375,1.03125 0,0.265625 0.140625,0.515625 0.328125,0.703125 -0.046875,0.0625 -0.203125,0.296875 -0.203125,0.5625 0,0.09375 0.015625,0.421875 0.296875,0.625 -0.3125,0.09375 -0.6875,0.328125 -0.6875,0.6875 0,0.515625 0.765625,0.890625 1.71875,0.890625 0.875,0 1.703125,-0.34375 1.703125,-0.90625 0,-0.203125 -0.078125,-0.578125 -0.46875,-0.78125 -0.40625,-0.21875 -0.828125,-0.21875 -1.5,-0.21875 -0.15625,0 -0.40625,0 -0.453125,-0.015625 C 1.03125,-0.546875 0.90625,-0.75 0.90625,-0.953125 0.90625,-1.125 0.96875,-1.1875 1,-1.234375 Z m 0.765625,0 c -0.671875,0 -0.671875,-0.671875 -0.671875,-0.8125 0,-0.109375 0,-0.390625 0.125,-0.578125 0.109375,-0.109375 0.296875,-0.234375 0.546875,-0.234375 0.6875,0 0.6875,0.671875 0.6875,0.8125 0,0.109375 0,0.390625 -0.140625,0.5625 -0.109375,0.125 -0.296875,0.25 -0.546875,0.25 z m 0,1.21875 c 0.625,0 1.5,0 1.5,0.546875 0,0.375 -0.5625,0.6875 -1.28125,0.6875 -0.734375,0 -1.28125,-0.328125 -1.28125,-0.6875 0,-0.25 0.21875,-0.546875 0.65625,-0.546875 z m 0,0"
                 id="path79" />
            </g>
            <g
               id="use44"
               transform="translate(26.298897,5.2309999)">
              <path
                 style="stroke:none"
                 d="M 1.296875,-5.21875 H 0.21875 v 0.328125 H 0.953125 V 1.40625 H 0.21875 v 0.328125 h 1.078125 z m 0,0"
                 id="path83" />
            </g>
          </g>
        </g>
      </g>
    </g>
    <g
       inkscape:label=""
       transform="translate(65.786542,216.92257)"
       id="g183303">
      <g
         id="g183301"
         transform="matrix(0.352778,0,0,0.352778,-0.0937066,-0.00432151)">
        <g
           clip-path="url(#clipPath3587)"
           clip-rule="nonzero"
           id="g183299">
          <g
             style="fill:#000000;fill-opacity:1"
             id="g183297">
            <g
               id="g183267"
               transform="translate(0,5.2309999)">
              <path
                 style="stroke:none"
                 d="m 3.6875,-1.140625 v -0.25 H 2.90625 V -4.5 c 0,-0.140625 0,-0.203125 -0.140625,-0.203125 -0.09375,0 -0.125,0 -0.1875,0.109375 l -2.3125,3.203125 v 0.25 h 2.0625 v 0.5625 c 0,0.25 0,0.328125 -0.578125,0.328125 H 1.5625 V 0 C 1.921875,-0.015625 2.359375,-0.03125 2.609375,-0.03125 2.875,-0.03125 3.3125,-0.015625 3.671875,0 v -0.25 h -0.1875 C 2.90625,-0.25 2.90625,-0.328125 2.90625,-0.578125 v -0.5625 z M 2.375,-3.9375 v 2.546875 H 0.53125 Z m 0,0"
                 id="path183265" />
            </g>
            <g
               id="g183271"
               transform="translate(3.9715791,5.2309999)">
              <path
                 style="stroke:none"
                 d="M 3.59375,-2.21875 C 3.59375,-2.984375 3.5,-3.546875 3.1875,-4.03125 2.96875,-4.34375 2.53125,-4.625 1.984375,-4.625 c -1.625,0 -1.625,1.90625 -1.625,2.40625 0,0.5 0,2.359375 1.625,2.359375 1.609375,0 1.609375,-1.859375 1.609375,-2.359375 z M 1.984375,-0.0625 c -0.328125,0 -0.75,-0.1875 -0.890625,-0.75 C 1,-1.21875 1,-1.796875 1,-2.3125 1,-2.828125 1,-3.359375 1.09375,-3.734375 1.25,-4.28125 1.6875,-4.4375 1.984375,-4.4375 c 0.375,0 0.734375,0.234375 0.859375,0.640625 0.109375,0.375 0.125,0.875 0.125,1.484375 0,0.515625 0,1.03125 -0.09375,1.46875 -0.140625,0.640625 -0.609375,0.78125 -0.890625,0.78125 z m 0,0"
                 id="path183269" />
            </g>
            <g
               id="g183275"
               transform="translate(7.9431581,5.2309999)">
              <path
                 style="stroke:none"
                 d="M 3.59375,-2.21875 C 3.59375,-2.984375 3.5,-3.546875 3.1875,-4.03125 2.96875,-4.34375 2.53125,-4.625 1.984375,-4.625 c -1.625,0 -1.625,1.90625 -1.625,2.40625 0,0.5 0,2.359375 1.625,2.359375 1.609375,0 1.609375,-1.859375 1.609375,-2.359375 z M 1.984375,-0.0625 c -0.328125,0 -0.75,-0.1875 -0.890625,-0.75 C 1,-1.21875 1,-1.796875 1,-2.3125 1,-2.828125 1,-3.359375 1.09375,-3.734375 1.25,-4.28125 1.6875,-4.4375 1.984375,-4.4375 c 0.375,0 0.734375,0.234375 0.859375,0.640625 0.109375,0.375 0.125,0.875 0.125,1.484375 0,0.515625 0,1.03125 -0.09375,1.46875 -0.140625,0.640625 -0.609375,0.78125 -0.890625,0.78125 z m 0,0"
                 id="path183273" />
            </g>
            <g
               id="g183279"
               transform="translate(11.914737,5.2309999)">
              <path
                 style="stroke:none"
                 d="M 3.59375,-2.21875 C 3.59375,-2.984375 3.5,-3.546875 3.1875,-4.03125 2.96875,-4.34375 2.53125,-4.625 1.984375,-4.625 c -1.625,0 -1.625,1.90625 -1.625,2.40625 0,0.5 0,2.359375 1.625,2.359375 1.609375,0 1.609375,-1.859375 1.609375,-2.359375 z M 1.984375,-0.0625 c -0.328125,0 -0.75,-0.1875 -0.890625,-0.75 C 1,-1.21875 1,-1.796875 1,-2.3125 1,-2.828125 1,-3.359375 1.09375,-3.734375 1.25,-4.28125 1.6875,-4.4375 1.984375,-4.4375 c 0.375,0 0.734375,0.234375 0.859375,0.640625 0.109375,0.375 0.125,0.875 0.125,1.484375 0,0.515625 0,1.03125 -0.09375,1.46875 -0.140625,0.640625 -0.609375,0.78125 -0.890625,0.78125 z m 0,0"
                 id="path183277" />
            </g>
            <g
               id="g183283"
               transform="translate(15.886316,5.2309999)">
              <path
                 style="stroke:none"
                 d="M 2.015625,1.734375 V 1.40625 h -0.71875 v -6.296875 h 0.71875 V -5.21875 h -1.0625 v 6.953125 z m 0,0"
                 id="path183281" />
            </g>
            <g
               id="g183287"
               transform="translate(18.141644,5.2309999)">
              <path
                 style="stroke:none"
                 d="M 2.25,-1.890625 C 3.109375,-2.546875 3.34375,-2.734375 3.8125,-2.75 V -3 C 3.671875,-2.984375 3.484375,-2.96875 3.34375,-2.96875 3.0625,-2.96875 2.78125,-2.984375 2.515625,-3 v 0.25 c 0.078125,0.015625 0.125,0.0625 0.125,0.125 0,0.109375 -0.140625,0.234375 -0.21875,0.296875 l -1.03125,0.796875 v -3.3125 L 0.34375,-4.765625 v 0.25 c 0.46875,0 0.515625,0.0625 0.515625,0.390625 v 3.578125 C 0.859375,-0.25 0.796875,-0.25 0.34375,-0.25 V 0 c 0.25,-0.015625 0.515625,-0.03125 0.765625,-0.03125 C 1.375,-0.03125 1.625,-0.015625 1.890625,0 v -0.25 c -0.453125,0 -0.53125,0 -0.53125,-0.296875 V -1.21875 L 1.875,-1.609375 2.625,-0.65625 c 0.078125,0.078125 0.15625,0.1875 0.15625,0.28125 0,0.109375 -0.125,0.125 -0.1875,0.125 V 0 C 2.6875,0 3.171875,-0.03125 3.375,-0.03125 c 0.203125,0 0.40625,0.015625 0.609375,0.03125 v -0.25 c -0.25,0 -0.40625,-0.015625 -0.609375,-0.265625 z m 0,0"
                 id="path183285" />
            </g>
            <g
               id="g183291"
               transform="translate(22.327318,5.2309999)">
              <path
                 style="stroke:none"
                 d="m 1,-1.234375 c 0.109375,0.0625 0.359375,0.203125 0.765625,0.203125 C 2.484375,-1.03125 3,-1.5 3,-2.046875 3,-2.328125 2.875,-2.53125 2.703125,-2.71875 c 0.328125,-0.21875 0.59375,-0.234375 0.71875,-0.234375 -0.03125,0.03125 -0.0625,0.0625 -0.0625,0.171875 0,0.140625 0.09375,0.21875 0.21875,0.21875 0.09375,0 0.21875,-0.0625 0.21875,-0.21875 0,-0.171875 -0.125,-0.359375 -0.40625,-0.359375 -0.109375,0 -0.484375,0.015625 -0.8125,0.3125 -0.203125,-0.140625 -0.5,-0.25 -0.8125,-0.25 -0.71875,0 -1.234375,0.484375 -1.234375,1.03125 0,0.265625 0.140625,0.515625 0.328125,0.703125 -0.046875,0.0625 -0.203125,0.296875 -0.203125,0.5625 0,0.09375 0.015625,0.421875 0.296875,0.625 -0.3125,0.09375 -0.6875,0.328125 -0.6875,0.6875 0,0.515625 0.765625,0.890625 1.71875,0.890625 0.875,0 1.703125,-0.34375 1.703125,-0.90625 0,-0.203125 -0.078125,-0.578125 -0.46875,-0.78125 -0.40625,-0.21875 -0.828125,-0.21875 -1.5,-0.21875 -0.15625,0 -0.40625,0 -0.453125,-0.015625 C 1.03125,-0.546875 0.90625,-0.75 0.90625,-0.953125 0.90625,-1.125 0.96875,-1.1875 1,-1.234375 Z m 0.765625,0 c -0.671875,0 -0.671875,-0.671875 -0.671875,-0.8125 0,-0.109375 0,-0.390625 0.125,-0.578125 0.109375,-0.109375 0.296875,-0.234375 0.546875,-0.234375 0.6875,0 0.6875,0.671875 0.6875,0.8125 0,0.109375 0,0.390625 -0.140625,0.5625 -0.109375,0.125 -0.296875,0.25 -0.546875,0.25 z m 0,1.21875 c 0.625,0 1.5,0 1.5,0.546875 0,0.375 -0.5625,0.6875 -1.28125,0.6875 -0.734375,0 -1.28125,-0.328125 -1.28125,-0.6875 0,-0.25 0.21875,-0.546875 0.65625,-0.546875 z m 0,0"
                 id="path183289" />
            </g>
            <g
               id="g183295"
               transform="translate(26.298897,5.2309999)">
              <path
                 style="stroke:none"
                 d="M 1.296875,-5.21875 H 0.21875 v 0.328125 H 0.953125 V 1.40625 H 0.21875 v 0.328125 h 1.078125 z m 0,0"
                 id="path183293" />
            </g>
          </g>
        </g>
      </g>
    </g>
    <g
       inkscape:label=""
       transform="translate(65.786542,225.6524)"
       id="g186658">
      <g
         id="g186656"
         transform="matrix(0.352778,0,0,0.352778,-0.132292,-0.00432151)">
        <g
           clip-path="url(#clipPath5029)"
           clip-rule="nonzero"
           id="g186654">
          <g
             style="fill:#000000;fill-opacity:1"
             id="g186652">
            <g
               id="g186622"
               transform="translate(0,5.2309999)">
              <path
                 style="stroke:none"
                 d="m 1.90625,-2.328125 c 0.546875,0 0.9375,0.375 0.9375,1.125 0,0.859375 -0.515625,1.125 -0.90625,1.125 -0.28125,0 -0.90625,-0.078125 -1.1875,-0.5 0.328125,0 0.40625,-0.234375 0.40625,-0.390625 0,-0.21875 -0.171875,-0.375 -0.390625,-0.375 -0.1875,0 -0.390625,0.125 -0.390625,0.40625 0,0.65625 0.71875,1.078125 1.5625,1.078125 0.96875,0 1.640625,-0.65625 1.640625,-1.34375 0,-0.546875 -0.4375,-1.09375 -1.203125,-1.25 0.71875,-0.265625 0.984375,-0.78125 0.984375,-1.21875 0,-0.546875 -0.625,-0.953125 -1.40625,-0.953125 -0.765625,0 -1.359375,0.375 -1.359375,0.9375 0,0.234375 0.15625,0.359375 0.359375,0.359375 0.21875,0 0.359375,-0.15625 0.359375,-0.34375 0,-0.203125 -0.140625,-0.359375 -0.359375,-0.375 0.25,-0.296875 0.71875,-0.375 0.984375,-0.375 0.3125,0 0.75,0.15625 0.75,0.75 0,0.296875 -0.09375,0.625 -0.28125,0.828125 -0.21875,0.265625 -0.421875,0.28125 -0.765625,0.3125 -0.171875,0.015625 -0.1875,0.015625 -0.21875,0.015625 -0.015625,0 -0.078125,0.015625 -0.078125,0.09375 0,0.09375 0.0625,0.09375 0.1875,0.09375 z m 0,0"
                 id="path186620" />
            </g>
            <g
               id="g186626"
               transform="translate(3.9715791,5.2309999)">
              <path
                 style="stroke:none"
                 d="M 3.59375,-2.21875 C 3.59375,-2.984375 3.5,-3.546875 3.1875,-4.03125 2.96875,-4.34375 2.53125,-4.625 1.984375,-4.625 c -1.625,0 -1.625,1.90625 -1.625,2.40625 0,0.5 0,2.359375 1.625,2.359375 1.609375,0 1.609375,-1.859375 1.609375,-2.359375 z M 1.984375,-0.0625 c -0.328125,0 -0.75,-0.1875 -0.890625,-0.75 C 1,-1.21875 1,-1.796875 1,-2.3125 1,-2.828125 1,-3.359375 1.09375,-3.734375 1.25,-4.28125 1.6875,-4.4375 1.984375,-4.4375 c 0.375,0 0.734375,0.234375 0.859375,0.640625 0.109375,0.375 0.125,0.875 0.125,1.484375 0,0.515625 0,1.03125 -0.09375,1.46875 -0.140625,0.640625 -0.609375,0.78125 -0.890625,0.78125 z m 0,0"
                 id="path186624" />
            </g>
            <g
               id="g186630"
               transform="translate(7.9431581,5.2309999)">
              <path
                 style="stroke:none"
                 d="M 3.59375,-2.21875 C 3.59375,-2.984375 3.5,-3.546875 3.1875,-4.03125 2.96875,-4.34375 2.53125,-4.625 1.984375,-4.625 c -1.625,0 -1.625,1.90625 -1.625,2.40625 0,0.5 0,2.359375 1.625,2.359375 1.609375,0 1.609375,-1.859375 1.609375,-2.359375 z M 1.984375,-0.0625 c -0.328125,0 -0.75,-0.1875 -0.890625,-0.75 C 1,-1.21875 1,-1.796875 1,-2.3125 1,-2.828125 1,-3.359375 1.09375,-3.734375 1.25,-4.28125 1.6875,-4.4375 1.984375,-4.4375 c 0.375,0 0.734375,0.234375 0.859375,0.640625 0.109375,0.375 0.125,0.875 0.125,1.484375 0,0.515625 0,1.03125 -0.09375,1.46875 -0.140625,0.640625 -0.609375,0.78125 -0.890625,0.78125 z m 0,0"
                 id="path186628" />
            </g>
            <g
               id="g186634"
               transform="translate(11.914737,5.2309999)">
              <path
                 style="stroke:none"
                 d="M 3.59375,-2.21875 C 3.59375,-2.984375 3.5,-3.546875 3.1875,-4.03125 2.96875,-4.34375 2.53125,-4.625 1.984375,-4.625 c -1.625,0 -1.625,1.90625 -1.625,2.40625 0,0.5 0,2.359375 1.625,2.359375 1.609375,0 1.609375,-1.859375 1.609375,-2.359375 z M 1.984375,-0.0625 c -0.328125,0 -0.75,-0.1875 -0.890625,-0.75 C 1,-1.21875 1,-1.796875 1,-2.3125 1,-2.828125 1,-3.359375 1.09375,-3.734375 1.25,-4.28125 1.6875,-4.4375 1.984375,-4.4375 c 0.375,0 0.734375,0.234375 0.859375,0.640625 0.109375,0.375 0.125,0.875 0.125,1.484375 0,0.515625 0,1.03125 -0.09375,1.46875 -0.140625,0.640625 -0.609375,0.78125 -0.890625,0.78125 z m 0,0"
                 id="path186632" />
            </g>
            <g
               id="g186638"
               transform="translate(15.886316,5.2309999)">
              <path
                 style="stroke:none"
                 d="M 2.015625,1.734375 V 1.40625 h -0.71875 v -6.296875 h 0.71875 V -5.21875 h -1.0625 v 6.953125 z m 0,0"
                 id="path186636" />
            </g>
            <g
               id="g186642"
               transform="translate(18.141644,5.2309999)">
              <path
                 style="stroke:none"
                 d="M 2.25,-1.890625 C 3.109375,-2.546875 3.34375,-2.734375 3.8125,-2.75 V -3 C 3.671875,-2.984375 3.484375,-2.96875 3.34375,-2.96875 3.0625,-2.96875 2.78125,-2.984375 2.515625,-3 v 0.25 c 0.078125,0.015625 0.125,0.0625 0.125,0.125 0,0.109375 -0.140625,0.234375 -0.21875,0.296875 l -1.03125,0.796875 v -3.3125 L 0.34375,-4.765625 v 0.25 c 0.46875,0 0.515625,0.0625 0.515625,0.390625 v 3.578125 C 0.859375,-0.25 0.796875,-0.25 0.34375,-0.25 V 0 c 0.25,-0.015625 0.515625,-0.03125 0.765625,-0.03125 C 1.375,-0.03125 1.625,-0.015625 1.890625,0 v -0.25 c -0.453125,0 -0.53125,0 -0.53125,-0.296875 V -1.21875 L 1.875,-1.609375 2.625,-0.65625 c 0.078125,0.078125 0.15625,0.1875 0.15625,0.28125 0,0.109375 -0.125,0.125 -0.1875,0.125 V 0 C 2.6875,0 3.171875,-0.03125 3.375,-0.03125 c 0.203125,0 0.40625,0.015625 0.609375,0.03125 v -0.25 c -0.25,0 -0.40625,-0.015625 -0.609375,-0.265625 z m 0,0"
                 id="path186640" />
            </g>
            <g
               id="g186646"
               transform="translate(22.327318,5.2309999)">
              <path
                 style="stroke:none"
                 d="m 1,-1.234375 c 0.109375,0.0625 0.359375,0.203125 0.765625,0.203125 C 2.484375,-1.03125 3,-1.5 3,-2.046875 3,-2.328125 2.875,-2.53125 2.703125,-2.71875 c 0.328125,-0.21875 0.59375,-0.234375 0.71875,-0.234375 -0.03125,0.03125 -0.0625,0.0625 -0.0625,0.171875 0,0.140625 0.09375,0.21875 0.21875,0.21875 0.09375,0 0.21875,-0.0625 0.21875,-0.21875 0,-0.171875 -0.125,-0.359375 -0.40625,-0.359375 -0.109375,0 -0.484375,0.015625 -0.8125,0.3125 -0.203125,-0.140625 -0.5,-0.25 -0.8125,-0.25 -0.71875,0 -1.234375,0.484375 -1.234375,1.03125 0,0.265625 0.140625,0.515625 0.328125,0.703125 -0.046875,0.0625 -0.203125,0.296875 -0.203125,0.5625 0,0.09375 0.015625,0.421875 0.296875,0.625 -0.3125,0.09375 -0.6875,0.328125 -0.6875,0.6875 0,0.515625 0.765625,0.890625 1.71875,0.890625 0.875,0 1.703125,-0.34375 1.703125,-0.90625 0,-0.203125 -0.078125,-0.578125 -0.46875,-0.78125 -0.40625,-0.21875 -0.828125,-0.21875 -1.5,-0.21875 -0.15625,0 -0.40625,0 -0.453125,-0.015625 C 1.03125,-0.546875 0.90625,-0.75 0.90625,-0.953125 0.90625,-1.125 0.96875,-1.1875 1,-1.234375 Z m 0.765625,0 c -0.671875,0 -0.671875,-0.671875 -0.671875,-0.8125 0,-0.109375 0,-0.390625 0.125,-0.578125 0.109375,-0.109375 0.296875,-0.234375 0.546875,-0.234375 0.6875,0 0.6875,0.671875 0.6875,0.8125 0,0.109375 0,0.390625 -0.140625,0.5625 -0.109375,0.125 -0.296875,0.25 -0.546875,0.25 z m 0,1.21875 c 0.625,0 1.5,0 1.5,0.546875 0,0.375 -0.5625,0.6875 -1.28125,0.6875 -0.734375,0 -1.28125,-0.328125 -1.28125,-0.6875 0,-0.25 0.21875,-0.546875 0.65625,-0.546875 z m 0,0"
                 id="path186644" />
            </g>
            <g
               id="g186650"
               transform="translate(26.298897,5.2309999)">
              <path
                 style="stroke:none"
                 d="M 1.296875,-5.21875 H 0.21875 v 0.328125 H 0.953125 V 1.40625 H 0.21875 v 0.328125 h 1.078125 z m 0,0"
                 id="path186648" />
            </g>
          </g>
        </g>
      </g>
    </g>
    <g
       inkscape:label=""
       transform="translate(4.6188202,212.55684)"
       id="g190057">
      <g
         id="g190055"
         transform="matrix(0.352778,0,0,0.352778,-0.170877,-0.00432151)">
        <g
           clip-path="url(#clipPath3762)"
           clip-rule="nonzero"
           id="g190053">
          <g
             style="fill:#000000;fill-opacity:1"
             id="g190051">
            <g
               id="g190021"
               transform="translate(0,5.2309999)">
              <path
                 style="stroke:none"
                 d="m 3.734375,-4.203125 c 0.0625,-0.09375 0.0625,-0.109375 0.0625,-0.28125 H 1.96875 C 1.6875,-4.484375 1.609375,-4.5 1.359375,-4.515625 1,-4.546875 0.984375,-4.59375 0.96875,-4.703125 H 0.734375 l -0.25,1.484375 H 0.71875 c 0.015625,-0.109375 0.09375,-0.5625 0.203125,-0.640625 0.046875,-0.03125 0.625,-0.03125 0.71875,-0.03125 H 3.15625 c -0.21875,0.28125 -0.578125,0.71875 -0.71875,0.921875 -0.90625,1.1875 -1,2.296875 -1,2.703125 0,0.078125 0,0.40625 0.328125,0.40625 0.34375,0 0.34375,-0.3125 0.34375,-0.40625 v -0.28125 c 0,-1.34375 0.28125,-1.96875 0.578125,-2.34375 z m 0,0"
                 id="path190019" />
            </g>
            <g
               id="g190025"
               transform="translate(3.9715791,5.2309999)">
              <path
                 style="stroke:none"
                 d="M 3.59375,-2.21875 C 3.59375,-2.984375 3.5,-3.546875 3.1875,-4.03125 2.96875,-4.34375 2.53125,-4.625 1.984375,-4.625 c -1.625,0 -1.625,1.90625 -1.625,2.40625 0,0.5 0,2.359375 1.625,2.359375 1.609375,0 1.609375,-1.859375 1.609375,-2.359375 z M 1.984375,-0.0625 c -0.328125,0 -0.75,-0.1875 -0.890625,-0.75 C 1,-1.21875 1,-1.796875 1,-2.3125 1,-2.828125 1,-3.359375 1.09375,-3.734375 1.25,-4.28125 1.6875,-4.4375 1.984375,-4.4375 c 0.375,0 0.734375,0.234375 0.859375,0.640625 0.109375,0.375 0.125,0.875 0.125,1.484375 0,0.515625 0,1.03125 -0.09375,1.46875 -0.140625,0.640625 -0.609375,0.78125 -0.890625,0.78125 z m 0,0"
                 id="path190023" />
            </g>
            <g
               id="g190029"
               transform="translate(7.9431581,5.2309999)">
              <path
                 style="stroke:none"
                 d="M 3.59375,-2.21875 C 3.59375,-2.984375 3.5,-3.546875 3.1875,-4.03125 2.96875,-4.34375 2.53125,-4.625 1.984375,-4.625 c -1.625,0 -1.625,1.90625 -1.625,2.40625 0,0.5 0,2.359375 1.625,2.359375 1.609375,0 1.609375,-1.859375 1.609375,-2.359375 z M 1.984375,-0.0625 c -0.328125,0 -0.75,-0.1875 -0.890625,-0.75 C 1,-1.21875 1,-1.796875 1,-2.3125 1,-2.828125 1,-3.359375 1.09375,-3.734375 1.25,-4.28125 1.6875,-4.4375 1.984375,-4.4375 c 0.375,0 0.734375,0.234375 0.859375,0.640625 0.109375,0.375 0.125,0.875 0.125,1.484375 0,0.515625 0,1.03125 -0.09375,1.46875 -0.140625,0.640625 -0.609375,0.78125 -0.890625,0.78125 z m 0,0"
                 id="path190027" />
            </g>
            <g
               id="g190033"
               transform="translate(11.914737,5.2309999)">
              <path
                 style="stroke:none"
                 d="M 3.59375,-2.21875 C 3.59375,-2.984375 3.5,-3.546875 3.1875,-4.03125 2.96875,-4.34375 2.53125,-4.625 1.984375,-4.625 c -1.625,0 -1.625,1.90625 -1.625,2.40625 0,0.5 0,2.359375 1.625,2.359375 1.609375,0 1.609375,-1.859375 1.609375,-2.359375 z M 1.984375,-0.0625 c -0.328125,0 -0.75,-0.1875 -0.890625,-0.75 C 1,-1.21875 1,-1.796875 1,-2.3125 1,-2.828125 1,-3.359375 1.09375,-3.734375 1.25,-4.28125 1.6875,-4.4375 1.984375,-4.4375 c 0.375,0 0.734375,0.234375 0.859375,0.640625 0.109375,0.375 0.125,0.875 0.125,1.484375 0,0.515625 0,1.03125 -0.09375,1.46875 -0.140625,0.640625 -0.609375,0.78125 -0.890625,0.78125 z m 0,0"
                 id="path190031" />
            </g>
            <g
               id="g190037"
               transform="translate(15.886316,5.2309999)">
              <path
                 style="stroke:none"
                 d="M 2.015625,1.734375 V 1.40625 h -0.71875 v -6.296875 h 0.71875 V -5.21875 h -1.0625 v 6.953125 z m 0,0"
                 id="path190035" />
            </g>
            <g
               id="g190041"
               transform="translate(18.141644,5.2309999)">
              <path
                 style="stroke:none"
                 d="M 2.25,-1.890625 C 3.109375,-2.546875 3.34375,-2.734375 3.8125,-2.75 V -3 C 3.671875,-2.984375 3.484375,-2.96875 3.34375,-2.96875 3.0625,-2.96875 2.78125,-2.984375 2.515625,-3 v 0.25 c 0.078125,0.015625 0.125,0.0625 0.125,0.125 0,0.109375 -0.140625,0.234375 -0.21875,0.296875 l -1.03125,0.796875 v -3.3125 L 0.34375,-4.765625 v 0.25 c 0.46875,0 0.515625,0.0625 0.515625,0.390625 v 3.578125 C 0.859375,-0.25 0.796875,-0.25 0.34375,-0.25 V 0 c 0.25,-0.015625 0.515625,-0.03125 0.765625,-0.03125 C 1.375,-0.03125 1.625,-0.015625 1.890625,0 v -0.25 c -0.453125,0 -0.53125,0 -0.53125,-0.296875 V -1.21875 L 1.875,-1.609375 2.625,-0.65625 c 0.078125,0.078125 0.15625,0.1875 0.15625,0.28125 0,0.109375 -0.125,0.125 -0.1875,0.125 V 0 C 2.6875,0 3.171875,-0.03125 3.375,-0.03125 c 0.203125,0 0.40625,0.015625 0.609375,0.03125 v -0.25 c -0.25,0 -0.40625,-0.015625 -0.609375,-0.265625 z m 0,0"
                 id="path190039" />
            </g>
            <g
               id="g190045"
               transform="translate(22.327318,5.2309999)">
              <path
                 style="stroke:none"
                 d="m 1,-1.234375 c 0.109375,0.0625 0.359375,0.203125 0.765625,0.203125 C 2.484375,-1.03125 3,-1.5 3,-2.046875 3,-2.328125 2.875,-2.53125 2.703125,-2.71875 c 0.328125,-0.21875 0.59375,-0.234375 0.71875,-0.234375 -0.03125,0.03125 -0.0625,0.0625 -0.0625,0.171875 0,0.140625 0.09375,0.21875 0.21875,0.21875 0.09375,0 0.21875,-0.0625 0.21875,-0.21875 0,-0.171875 -0.125,-0.359375 -0.40625,-0.359375 -0.109375,0 -0.484375,0.015625 -0.8125,0.3125 -0.203125,-0.140625 -0.5,-0.25 -0.8125,-0.25 -0.71875,0 -1.234375,0.484375 -1.234375,1.03125 0,0.265625 0.140625,0.515625 0.328125,0.703125 -0.046875,0.0625 -0.203125,0.296875 -0.203125,0.5625 0,0.09375 0.015625,0.421875 0.296875,0.625 -0.3125,0.09375 -0.6875,0.328125 -0.6875,0.6875 0,0.515625 0.765625,0.890625 1.71875,0.890625 0.875,0 1.703125,-0.34375 1.703125,-0.90625 0,-0.203125 -0.078125,-0.578125 -0.46875,-0.78125 -0.40625,-0.21875 -0.828125,-0.21875 -1.5,-0.21875 -0.15625,0 -0.40625,0 -0.453125,-0.015625 C 1.03125,-0.546875 0.90625,-0.75 0.90625,-0.953125 0.90625,-1.125 0.96875,-1.1875 1,-1.234375 Z m 0.765625,0 c -0.671875,0 -0.671875,-0.671875 -0.671875,-0.8125 0,-0.109375 0,-0.390625 0.125,-0.578125 0.109375,-0.109375 0.296875,-0.234375 0.546875,-0.234375 0.6875,0 0.6875,0.671875 0.6875,0.8125 0,0.109375 0,0.390625 -0.140625,0.5625 -0.109375,0.125 -0.296875,0.25 -0.546875,0.25 z m 0,1.21875 c 0.625,0 1.5,0 1.5,0.546875 0,0.375 -0.5625,0.6875 -1.28125,0.6875 -0.734375,0 -1.28125,-0.328125 -1.28125,-0.6875 0,-0.25 0.21875,-0.546875 0.65625,-0.546875 z m 0,0"
                 id="path190043" />
            </g>
            <g
               id="g190049"
               transform="translate(26.298897,5.2309999)">
              <path
                 style="stroke:none"
                 d="M 1.296875,-5.21875 H 0.21875 v 0.328125 H 0.953125 V 1.40625 H 0.21875 v 0.328125 h 1.078125 z m 0,0"
                 id="path190047" />
            </g>
          </g>
        </g>
      </g>
    </g>
    <g
       inkscape:label=""
       transform="translate(4.6022832,221.28748)"
       id="g190202">
      <g
         id="g190200"
         transform="matrix(0.352778,0,0,0.352778,-0.15434,-0.00432151)">
        <g
           clip-path="url(#clipPath958)"
           clip-rule="nonzero"
           id="g190198">
          <g
             style="fill:#000000;fill-opacity:1"
             id="g190196">
            <g
               id="g190166"
               transform="translate(0,5.2309999)">
              <path
                 style="stroke:none"
                 d="m 1.078125,-3.890625 c 0.359375,0.09375 0.5625,0.09375 0.671875,0.09375 0.921875,0 1.46875,-0.625 1.46875,-0.734375 0,-0.078125 -0.046875,-0.09375 -0.078125,-0.09375 -0.015625,0 -0.03125,0 -0.0625,0.015625 -0.171875,0.0625 -0.53125,0.203125 -1.046875,0.203125 -0.203125,0 -0.5625,-0.015625 -1.015625,-0.1875 C 0.9375,-4.625 0.921875,-4.625 0.921875,-4.625 c -0.09375,0 -0.09375,0.078125 -0.09375,0.1875 v 2.046875 c 0,0.125 0,0.203125 0.109375,0.203125 0.0625,0 0.078125,0 0.140625,-0.09375 0.296875,-0.375 0.734375,-0.4375 0.96875,-0.4375 0.421875,0 0.609375,0.328125 0.640625,0.390625 0.125,0.234375 0.171875,0.5 0.171875,0.90625 0,0.203125 0,0.609375 -0.21875,0.921875 -0.171875,0.25 -0.46875,0.421875 -0.8125,0.421875 -0.453125,0 -0.921875,-0.25 -1.09375,-0.71875 0.265625,0.015625 0.40625,-0.15625 0.40625,-0.34375 0,-0.296875 -0.265625,-0.34375 -0.359375,-0.34375 0,0 -0.34375,0 -0.34375,0.375 0,0.625 0.578125,1.25 1.40625,1.25 0.890625,0 1.671875,-0.65625 1.671875,-1.546875 0,-0.78125 -0.59375,-1.5 -1.453125,-1.5 -0.3125,0 -0.671875,0.0625 -0.984375,0.328125 z m 0,0"
                 id="path190164" />
            </g>
            <g
               id="g190170"
               transform="translate(3.9715791,5.2309999)">
              <path
                 style="stroke:none"
                 d="M 3.59375,-2.21875 C 3.59375,-2.984375 3.5,-3.546875 3.1875,-4.03125 2.96875,-4.34375 2.53125,-4.625 1.984375,-4.625 c -1.625,0 -1.625,1.90625 -1.625,2.40625 0,0.5 0,2.359375 1.625,2.359375 1.609375,0 1.609375,-1.859375 1.609375,-2.359375 z M 1.984375,-0.0625 c -0.328125,0 -0.75,-0.1875 -0.890625,-0.75 C 1,-1.21875 1,-1.796875 1,-2.3125 1,-2.828125 1,-3.359375 1.09375,-3.734375 1.25,-4.28125 1.6875,-4.4375 1.984375,-4.4375 c 0.375,0 0.734375,0.234375 0.859375,0.640625 0.109375,0.375 0.125,0.875 0.125,1.484375 0,0.515625 0,1.03125 -0.09375,1.46875 -0.140625,0.640625 -0.609375,0.78125 -0.890625,0.78125 z m 0,0"
                 id="path190168" />
            </g>
            <g
               id="g190174"
               transform="translate(7.9431581,5.2309999)">
              <path
                 style="stroke:none"
                 d="M 3.59375,-2.21875 C 3.59375,-2.984375 3.5,-3.546875 3.1875,-4.03125 2.96875,-4.34375 2.53125,-4.625 1.984375,-4.625 c -1.625,0 -1.625,1.90625 -1.625,2.40625 0,0.5 0,2.359375 1.625,2.359375 1.609375,0 1.609375,-1.859375 1.609375,-2.359375 z M 1.984375,-0.0625 c -0.328125,0 -0.75,-0.1875 -0.890625,-0.75 C 1,-1.21875 1,-1.796875 1,-2.3125 1,-2.828125 1,-3.359375 1.09375,-3.734375 1.25,-4.28125 1.6875,-4.4375 1.984375,-4.4375 c 0.375,0 0.734375,0.234375 0.859375,0.640625 0.109375,0.375 0.125,0.875 0.125,1.484375 0,0.515625 0,1.03125 -0.09375,1.46875 -0.140625,0.640625 -0.609375,0.78125 -0.890625,0.78125 z m 0,0"
                 id="path190172" />
            </g>
            <g
               id="g190178"
               transform="translate(11.914737,5.2309999)">
              <path
                 style="stroke:none"
                 d="M 3.59375,-2.21875 C 3.59375,-2.984375 3.5,-3.546875 3.1875,-4.03125 2.96875,-4.34375 2.53125,-4.625 1.984375,-4.625 c -1.625,0 -1.625,1.90625 -1.625,2.40625 0,0.5 0,2.359375 1.625,2.359375 1.609375,0 1.609375,-1.859375 1.609375,-2.359375 z M 1.984375,-0.0625 c -0.328125,0 -0.75,-0.1875 -0.890625,-0.75 C 1,-1.21875 1,-1.796875 1,-2.3125 1,-2.828125 1,-3.359375 1.09375,-3.734375 1.25,-4.28125 1.6875,-4.4375 1.984375,-4.4375 c 0.375,0 0.734375,0.234375 0.859375,0.640625 0.109375,0.375 0.125,0.875 0.125,1.484375 0,0.515625 0,1.03125 -0.09375,1.46875 -0.140625,0.640625 -0.609375,0.78125 -0.890625,0.78125 z m 0,0"
                 id="path190176" />
            </g>
            <g
               id="g190182"
               transform="translate(15.886316,5.2309999)">
              <path
                 style="stroke:none"
                 d="M 2.015625,1.734375 V 1.40625 h -0.71875 v -6.296875 h 0.71875 V -5.21875 h -1.0625 v 6.953125 z m 0,0"
                 id="path190180" />
            </g>
            <g
               id="g190186"
               transform="translate(18.141644,5.2309999)">
              <path
                 style="stroke:none"
                 d="M 2.25,-1.890625 C 3.109375,-2.546875 3.34375,-2.734375 3.8125,-2.75 V -3 C 3.671875,-2.984375 3.484375,-2.96875 3.34375,-2.96875 3.0625,-2.96875 2.78125,-2.984375 2.515625,-3 v 0.25 c 0.078125,0.015625 0.125,0.0625 0.125,0.125 0,0.109375 -0.140625,0.234375 -0.21875,0.296875 l -1.03125,0.796875 v -3.3125 L 0.34375,-4.765625 v 0.25 c 0.46875,0 0.515625,0.0625 0.515625,0.390625 v 3.578125 C 0.859375,-0.25 0.796875,-0.25 0.34375,-0.25 V 0 c 0.25,-0.015625 0.515625,-0.03125 0.765625,-0.03125 C 1.375,-0.03125 1.625,-0.015625 1.890625,0 v -0.25 c -0.453125,0 -0.53125,0 -0.53125,-0.296875 V -1.21875 L 1.875,-1.609375 2.625,-0.65625 c 0.078125,0.078125 0.15625,0.1875 0.15625,0.28125 0,0.109375 -0.125,0.125 -0.1875,0.125 V 0 C 2.6875,0 3.171875,-0.03125 3.375,-0.03125 c 0.203125,0 0.40625,0.015625 0.609375,0.03125 v -0.25 c -0.25,0 -0.40625,-0.015625 -0.609375,-0.265625 z m 0,0"
                 id="path190184" />
            </g>
            <g
               id="g190190"
               transform="translate(22.327318,5.2309999)">
              <path
                 style="stroke:none"
                 d="m 1,-1.234375 c 0.109375,0.0625 0.359375,0.203125 0.765625,0.203125 C 2.484375,-1.03125 3,-1.5 3,-2.046875 3,-2.328125 2.875,-2.53125 2.703125,-2.71875 c 0.328125,-0.21875 0.59375,-0.234375 0.71875,-0.234375 -0.03125,0.03125 -0.0625,0.0625 -0.0625,0.171875 0,0.140625 0.09375,0.21875 0.21875,0.21875 0.09375,0 0.21875,-0.0625 0.21875,-0.21875 0,-0.171875 -0.125,-0.359375 -0.40625,-0.359375 -0.109375,0 -0.484375,0.015625 -0.8125,0.3125 -0.203125,-0.140625 -0.5,-0.25 -0.8125,-0.25 -0.71875,0 -1.234375,0.484375 -1.234375,1.03125 0,0.265625 0.140625,0.515625 0.328125,0.703125 -0.046875,0.0625 -0.203125,0.296875 -0.203125,0.5625 0,0.09375 0.015625,0.421875 0.296875,0.625 -0.3125,0.09375 -0.6875,0.328125 -0.6875,0.6875 0,0.515625 0.765625,0.890625 1.71875,0.890625 0.875,0 1.703125,-0.34375 1.703125,-0.90625 0,-0.203125 -0.078125,-0.578125 -0.46875,-0.78125 -0.40625,-0.21875 -0.828125,-0.21875 -1.5,-0.21875 -0.15625,0 -0.40625,0 -0.453125,-0.015625 C 1.03125,-0.546875 0.90625,-0.75 0.90625,-0.953125 0.90625,-1.125 0.96875,-1.1875 1,-1.234375 Z m 0.765625,0 c -0.671875,0 -0.671875,-0.671875 -0.671875,-0.8125 0,-0.109375 0,-0.390625 0.125,-0.578125 0.109375,-0.109375 0.296875,-0.234375 0.546875,-0.234375 0.6875,0 0.6875,0.671875 0.6875,0.8125 0,0.109375 0,0.390625 -0.140625,0.5625 -0.109375,0.125 -0.296875,0.25 -0.546875,0.25 z m 0,1.21875 c 0.625,0 1.5,0 1.5,0.546875 0,0.375 -0.5625,0.6875 -1.28125,0.6875 -0.734375,0 -1.28125,-0.328125 -1.28125,-0.6875 0,-0.25 0.21875,-0.546875 0.65625,-0.546875 z m 0,0"
                 id="path190188" />
            </g>
            <g
               id="g190194"
               transform="translate(26.298897,5.2309999)">
              <path
                 style="stroke:none"
                 d="M 1.296875,-5.21875 H 0.21875 v 0.328125 H 0.953125 V 1.40625 H 0.21875 v 0.328125 h 1.078125 z m 0,0"
                 id="path190192" />
            </g>
          </g>
        </g>
      </g>
    </g>
  </g>
</svg>
