<?xml version="1.0" encoding="UTF-8" standalone="no"?>
<!-- Created with Inkscape (http://www.inkscape.org/) -->

<svg
   width="192.00003"
   height="192.00009"
   viewBox="0 0 50.800003 50.800019"
   version="1.1"
   id="svg5"
   sodipodi:docname="f04.svg"
   inkscape:version="1.2.1 (9c6d41e410, 2022-07-14)"
   xmlns:inkscape="http://www.inkscape.org/namespaces/inkscape"
   xmlns:sodipodi="http://sodipodi.sourceforge.net/DTD/sodipodi-0.dtd"
   xmlns="http://www.w3.org/2000/svg"
   xmlns:svg="http://www.w3.org/2000/svg">
  <sodipodi:namedview
     id="namedview7"
     pagecolor="#ffffff"
     bordercolor="#000000"
     borderopacity="0.25"
     inkscape:showpageshadow="false"
     inkscape:pageopacity="0.0"
     inkscape:pagecheckerboard="false"
     inkscape:deskcolor="#d1d1d1"
     inkscape:document-units="px"
     showgrid="true"
     inkscape:zoom="1"
     inkscape:cx="277"
     inkscape:cy="333.5"
     inkscape:window-width="1920"
     inkscape:window-height="1050"
     inkscape:window-x="0"
     inkscape:window-y="18"
     inkscape:window-maximized="1"
     inkscape:current-layer="layer1"
     showguides="true">
    <inkscape:grid
       type="xygrid"
       id="grid1223"
       spacingx="1.0583333"
       spacingy="1.0583333"
       empspacing="4"
       originx="5.0517557e-06"
       originy="-122.76667" />
    <sodipodi:guide
       position="-1.1011686e-06,287.86672"
       orientation="0,-1"
       id="guide1694"
       inkscape:locked="false" />
    <sodipodi:guide
       position="-1.1011686e-06,287.86672"
       orientation="1,0"
       id="guide1696"
       inkscape:locked="false" />
    <sodipodi:guide
       position="50.799999,287.86673"
       orientation="1,0"
       id="guide21735"
       inkscape:locked="false" />
    <sodipodi:guide
       position="-1.1011686e-06,245.53338"
       orientation="0,-1"
       id="guide21941"
       inkscape:locked="false" />
    <sodipodi:guide
       position="101.59999,287.86673"
       orientation="1,0"
       id="guide24413"
       inkscape:locked="false" />
    <sodipodi:guide
       position="-1.1011686e-06,203.20005"
       orientation="0,-1"
       id="guide35496"
       inkscape:locked="false" />
    <sodipodi:guide
       position="152.4,287.86671"
       orientation="1,0"
       id="guide50631"
       inkscape:locked="false" />
    <sodipodi:guide
       position="-1.1011686e-06,165.10004"
       orientation="0,-1"
       id="guide53352"
       inkscape:locked="false" />
    <sodipodi:guide
       position="-1.1011686e-06,127.00005"
       orientation="0,-1"
       id="guide159195"
       inkscape:locked="false" />
    <sodipodi:guide
       position="67.733332,127.00005"
       orientation="1,0"
       id="guide500405"
       inkscape:locked="false" />
    <sodipodi:guide
       position="-1.1011686e-06,88.90005"
       orientation="0,-1"
       id="guide503869"
       inkscape:locked="false" />
    <sodipodi:guide
       position="203.19999,84.66671"
       orientation="1,0"
       id="guide645019"
       inkscape:locked="false" />
    <sodipodi:guide
       position="59.266666,46.566711"
       orientation="1,0"
       id="guide686712"
       inkscape:locked="false" />
    <sodipodi:guide
       position="-1.1011686e-06,50.800048"
       orientation="0,-1"
       id="guide686714"
       inkscape:locked="false" />
    <sodipodi:guide
       position="118.53333,46.566712"
       orientation="1,0"
       id="guide765939"
       inkscape:locked="false" />
    <sodipodi:guide
       position="177.79999,46.566712"
       orientation="1,0"
       id="guide816936"
       inkscape:locked="false" />
    <sodipodi:guide
       position="254,127.00005"
       orientation="1,0"
       id="guide839718"
       inkscape:locked="false" />
    <sodipodi:guide
       position="-1.1011686e-06,-29.633287"
       orientation="0,-1"
       id="guide268749"
       inkscape:locked="false" />
    <sodipodi:guide
       position="80.433332,88.90001"
       orientation="1,0"
       id="guide195271"
       inkscape:locked="false" />
    <sodipodi:guide
       position="122.76666,88.90005"
       orientation="1,0"
       id="guide236368"
       inkscape:locked="false" />
    <sodipodi:guide
       position="-1.1011686e-06,1.1442237e-05"
       orientation="0,-1"
       id="guide314999"
       inkscape:locked="false" />
  </sodipodi:namedview>
  <defs
     id="defs2">
    <clipPath
       id="clipPath6976">
      <path
         d="M 0,0 H 6 V 6.972656 H 0 Z m 0,0"
         id="path92138" />
    </clipPath>
    <clipPath
       id="clipPath10009">
      <path
         d="m 13,0 h 2 v 6.972656 h -2 z m 0,0"
         id="path77794" />
    </clipPath>
    <clipPath
       id="clipPath2057">
      <path
         d="M 0,0 H 6 V 5.976562 H 0 Z m 0,0"
         id="path56710" />
    </clipPath>
    <clipPath
       id="clipPath6722">
      <path
         d="m 12,0 h 2 v 5.976562 h -2 z m 0,0"
         id="path90816" />
    </clipPath>
    <clipPath
       id="clipPath7776">
      <path
         d="M 0,0 H 5.523438 V 4.085938 H 0 Z m 0,0"
         id="path63579" />
    </clipPath>
    <clipPath
       id="clipPath3097">
      <path
         d="M 0,0 H 5.824219 V 4.085938 H 0 Z m 0,0"
         id="path17162" />
    </clipPath>
    <clipPath
       id="clipPath8988">
      <path
         d="M 0,0 H 5.695312 V 4.085938 H 0 Z m 0,0"
         id="path56113" />
    </clipPath>
    <marker
       style="overflow:visible"
       id="Arrow2-4-0-4-0-1-2-0-9-0"
       refX="0"
       refY="0"
       orient="auto-start-reverse"
       inkscape:stockid="Arrow2"
       markerWidth="3.3000002"
       markerHeight="2.4000001"
       viewBox="0 0 7.7 5.6"
       inkscape:isstock="true"
       inkscape:collect="always"
       preserveAspectRatio="xMidYMid">
      <path
         transform="scale(0.7)"
         d="M -2,-4 9,0 -2,4 c 2,-2.33 2,-5.66 0,-8 z"
         style="fill:context-stroke;fill-rule:evenodd;stroke:none"
         id="arrow2L-4-2-7-6-5-6-6-0-8" />
    </marker>
    <clipPath
       id="clipPath9532">
      <path
         d="M 5,2 H 8 V 5.976562 H 5 Z m 0,0"
         id="path51779" />
    </clipPath>
    <clipPath
       id="clipPath21641">
      <path
         d="M 19,0 H 44 V 5.976562 H 19 Z m 0,0"
         id="path3203" />
    </clipPath>
    <clipPath
       id="clipPath3996">
      <path
         d="M 5,2 H 8 V 5.976562 H 5 Z m 0,0"
         id="path79166" />
    </clipPath>
    <clipPath
       id="clipPath43195">
      <path
         d="M 18,0 H 41 V 5.976562 H 18 Z m 0,0"
         id="path91952" />
    </clipPath>
  </defs>
  <g
     inkscape:label="Capa 1"
     inkscape:groupmode="layer"
     id="layer1"
     transform="translate(-1.1011666e-6,-237.06662)">
    <rect
       style="fill:#ffffff;stroke:none;stroke-width:0.264583;stroke-linejoin:round;stroke-dasharray:none;stroke-dashoffset:0;paint-order:stroke markers fill"
       id="rect761585"
       width="50.799999"
       height="50.800003"
       x="1.1011664e-06"
       y="237.06662"
       inkscape:export-filename="g08.svg"
       inkscape:export-xdpi="96"
       inkscape:export-ydpi="96" />
    <path
       style="fill:#b3b3b3;stroke:#000000;stroke-width:0.264583;stroke-linecap:round;stroke-linejoin:round;stroke-dasharray:none;stroke-dashoffset:0;paint-order:stroke markers fill"
       d="m 22.224999,245.53329 9.525,25.4 -0.624831,-0.47812 -8.900169,-23.86355 z"
       id="path257475"
       sodipodi:nodetypes="ccccc" />
    <path
       style="fill:none;stroke:#0000ff;stroke-width:0.396875;stroke-linejoin:round;stroke-dasharray:none;paint-order:stroke markers fill"
       d="m 38.100001,245.53329 h 4.233331"
       id="path146585-8-1" />
    <path
       style="fill:none;stroke:#0000ff;stroke-width:0.396875;stroke-linejoin:round;stroke-dasharray:none;paint-order:stroke markers fill"
       d="m 40.21666,245.53329 v 10.58333"
       id="path146587-0-2"
       sodipodi:nodetypes="cc" />
    <path
       style="fill:none;stroke:#0000ff;stroke-width:0.396875;stroke-linejoin:round;stroke-dasharray:none;paint-order:stroke markers fill"
       d="m 38.099997,270.93329 h 4.23334"
       id="path146589-5-9" />
    <path
       style="fill:none;stroke:#0000ff;stroke-width:0.396875;stroke-linejoin:round;stroke-dasharray:none;paint-order:stroke markers fill"
       d="m 40.216669,260.34996 v 10.58333"
       id="path146591-6-3"
       sodipodi:nodetypes="cc" />
    <path
       style="fill:none;stroke:#0000ff;stroke-width:0.132292;stroke-linejoin:round;stroke-dasharray:0.264583, 0.132292;stroke-dashoffset:0;paint-order:stroke markers fill"
       d="M 23.283333,245.53329 H 38.099999"
       id="path161446-5-9"
       sodipodi:nodetypes="cc" />
    <g
       id="g252230">
      <path
         style="fill:none;stroke:#000000;stroke-width:0.264583;stroke-linejoin:round;stroke-dasharray:none;paint-order:stroke markers fill"
         d="m 8.466666,275.19003 1.05833,-1.05834"
         id="path24355-9-9-1-1-2"
         sodipodi:nodetypes="cc" />
      <path
         style="fill:none;stroke:#000000;stroke-width:0.264583;stroke-linejoin:round;stroke-dasharray:none;paint-order:stroke markers fill"
         d="m 8.466666,276.24836 c 2.11666,-2.11667 2.11666,-2.11667 2.11666,-2.11667"
         id="path24357-3-4-2-2-1" />
      <path
         style="fill:none;stroke:#000000;stroke-width:0.264583;stroke-linejoin:round;stroke-dasharray:none;paint-order:stroke markers fill"
         d="m 9.524996,276.24836 c 2.11667,-2.11667 2.11667,-2.11667 2.11667,-2.11667"
         id="path24359-6-7-8-8-7" />
      <path
         style="fill:none;stroke:#000000;stroke-width:0.264583;stroke-linejoin:round;stroke-dasharray:none;paint-order:stroke markers fill"
         d="m 10.583326,276.24836 c 2.11667,-2.11667 2.11667,-2.11667 2.11667,-2.11667"
         id="path24361-0-8-9-8-2" />
      <path
         style="fill:none;stroke:#000000;stroke-width:0.264583;stroke-linejoin:round;stroke-dasharray:none;paint-order:stroke markers fill"
         d="m 11.641666,276.24836 c 2.11666,-2.11667 2.11666,-2.11667 2.11666,-2.11667"
         id="path24363-6-4-3-9-4" />
      <path
         style="fill:none;stroke:#000000;stroke-width:0.264583;stroke-linejoin:round;stroke-dasharray:none;paint-order:stroke markers fill"
         d="m 12.699996,276.24836 c 2.11667,-2.11667 2.11667,-2.11667 2.11667,-2.11667"
         id="path24365-2-5-6-2-1" />
      <path
         style="fill:none;stroke:#000000;stroke-width:0.264583;stroke-linejoin:round;stroke-dasharray:none;paint-order:stroke markers fill"
         d="m 13.758336,276.24836 c 2.11666,-2.11667 2.11666,-2.11667 2.11666,-2.11667"
         id="path24367-6-0-8-8-6" />
      <path
         style="fill:none;stroke:#000000;stroke-width:0.264583;stroke-linejoin:round;stroke-dasharray:none;paint-order:stroke markers fill"
         d="m 14.816666,276.24836 c 2.11666,-2.11667 2.11666,-2.11667 2.11666,-2.11667"
         id="path24369-1-3-0-8-5" />
      <path
         style="fill:none;stroke:#000000;stroke-width:0.264583;stroke-linejoin:round;stroke-dasharray:none;paint-order:stroke markers fill"
         d="m 15.874996,276.24836 1.05833,-1.05833"
         id="path24371-8-6-2-8-7"
         sodipodi:nodetypes="cc" />
      <path
         sodipodi:type="star"
         style="fill:#000000;stroke:none;stroke-width:0.264583;stroke-linejoin:round;stroke-dasharray:none;paint-order:stroke markers fill"
         id="path41646-1-6-2"
         inkscape:flatsided="true"
         sodipodi:sides="3"
         sodipodi:cx="160.86665"
         sodipodi:cy="29.633333"
         sodipodi:r1="2.0182958"
         sodipodi:r2="1.9079375"
         sodipodi:arg1="0.52359878"
         sodipodi:arg2="1.5707963"
         inkscape:rounded="0"
         inkscape:randomized="0"
         d="m 162.61455,30.642481 -3.49579,0 1.74789,-3.027444 z"
         inkscape:transform-center-x="-1.1400001e-06"
         inkscape:transform-center-y="-0.95396856"
         transform="translate(-148.16665,243.41662)" />
      <path
         style="fill:none;stroke:#000000;stroke-width:0.264583;stroke-linejoin:round;paint-order:stroke markers fill"
         d="m 8.4666792,274.0591 c 0,0 8.4666658,0 8.4666658,0"
         id="path9759-2-9" />
    </g>
    <g
       id="g252163"
       transform="translate(-19.050004)">
      <path
         style="fill:none;stroke:#000000;stroke-width:0.264583;stroke-linejoin:round;stroke-dasharray:none;paint-order:stroke markers fill"
         d="m 46.531339,276.24614 1.05833,-1.05834"
         id="path212378-2"
         sodipodi:nodetypes="cc" />
      <path
         style="fill:none;stroke:#000000;stroke-width:0.264583;stroke-linejoin:round;stroke-dasharray:none;paint-order:stroke markers fill"
         d="m 46.531339,277.30447 c 2.11666,-2.11667 2.11666,-2.11667 2.11666,-2.11667"
         id="path212380-7" />
      <path
         style="fill:none;stroke:#000000;stroke-width:0.264583;stroke-linejoin:round;stroke-dasharray:none;paint-order:stroke markers fill"
         d="m 47.589669,277.30447 c 2.11667,-2.11667 2.11667,-2.11667 2.11667,-2.11667"
         id="path212382-3" />
      <path
         style="fill:none;stroke:#000000;stroke-width:0.264583;stroke-linejoin:round;stroke-dasharray:none;paint-order:stroke markers fill"
         d="m 48.647999,277.30447 c 2.11667,-2.11667 2.11667,-2.11667 2.11667,-2.11667"
         id="path212384-6" />
      <path
         style="fill:none;stroke:#000000;stroke-width:0.264583;stroke-linejoin:round;stroke-dasharray:none;paint-order:stroke markers fill"
         d="m 49.706339,277.30447 c 2.11666,-2.11667 2.11666,-2.11667 2.11666,-2.11667"
         id="path212386-4" />
      <path
         style="fill:none;stroke:#000000;stroke-width:0.264583;stroke-linejoin:round;stroke-dasharray:none;paint-order:stroke markers fill"
         d="m 50.764669,277.30447 c 2.11667,-2.11667 2.11667,-2.11667 2.11667,-2.11667"
         id="path212388-7" />
      <path
         style="fill:none;stroke:#000000;stroke-width:0.264583;stroke-linejoin:round;stroke-dasharray:none;paint-order:stroke markers fill"
         d="m 51.823009,277.30447 c 2.11666,-2.11667 2.11666,-2.11667 2.11666,-2.11667"
         id="path212390-9" />
      <path
         style="fill:none;stroke:#000000;stroke-width:0.264583;stroke-linejoin:round;stroke-dasharray:none;paint-order:stroke markers fill"
         d="m 52.881339,277.30447 c 2.11666,-2.11667 2.11666,-2.11667 2.11666,-2.11667"
         id="path212392-7" />
      <path
         style="fill:none;stroke:#000000;stroke-width:0.264583;stroke-linejoin:round;stroke-dasharray:none;paint-order:stroke markers fill"
         d="m 53.939669,277.30447 1.05833,-1.05833"
         id="path212394-2"
         sodipodi:nodetypes="cc" />
      <path
         sodipodi:type="star"
         style="fill:#000000;stroke:none;stroke-width:0.264583;stroke-linejoin:round;stroke-dasharray:none;paint-order:stroke markers fill"
         id="path176176-3"
         inkscape:flatsided="true"
         sodipodi:sides="3"
         sodipodi:cx="160.86665"
         sodipodi:cy="29.633333"
         sodipodi:r1="2.0182958"
         sodipodi:r2="1.9079375"
         sodipodi:arg1="0.52359878"
         sodipodi:arg2="1.5707963"
         inkscape:rounded="0"
         inkscape:randomized="0"
         d="m 162.61455,30.642481 -3.49579,0 1.74789,-3.027444 z"
         inkscape:transform-center-x="-1.1400001e-06"
         inkscape:transform-center-y="-0.95396856"
         transform="translate(-110.06665,243.41662)" />
      <path
         style="fill:none;stroke:#000000;stroke-width:0.264583;stroke-linejoin:round;paint-order:stroke markers fill"
         d="m 46.566682,275.11744 c 0,0 8.466666,0 8.466666,0"
         id="path176178-1" />
      <circle
         style="fill:none;stroke:#000000;stroke-width:0.264583;stroke-linejoin:round;stroke-dasharray:none;paint-order:stroke markers fill"
         id="path176279-94"
         cx="50.800014"
         cy="274.52249"
         r="0.3325184" />
      <circle
         style="fill:none;stroke:#000000;stroke-width:0.264583;stroke-linejoin:round;stroke-dasharray:none;paint-order:stroke markers fill"
         id="circle176281-7"
         cx="52.083088"
         cy="274.52249"
         r="0.3325184" />
      <circle
         style="fill:none;stroke:#000000;stroke-width:0.264583;stroke-linejoin:round;stroke-dasharray:none;paint-order:stroke markers fill"
         id="circle176283-8"
         cx="49.516941"
         cy="274.52249"
         r="0.3325184" />
    </g>
    <path
       style="fill:none;stroke:#008000;stroke-width:0.396875;stroke-linejoin:round;stroke-dasharray:none;marker-end:url(#Arrow2-4-0-4-0-1-2-0-9-0);paint-order:stroke markers fill"
       d="m 16.875245,245.46714 h 4.233333"
       id="path232077-5-8-1-1-9-8"
       sodipodi:nodetypes="cc" />
    <path
       style="fill:#b3b3b3;stroke:#000000;stroke-width:0.264583;stroke-linecap:round;stroke-linejoin:round;stroke-dasharray:none;stroke-dashoffset:0;paint-order:stroke markers fill"
       d="m 12.699999,270.93329 0.792876,-0.4065 h 17.546057 l 0.711067,0.40649 z"
       id="path255726"
       sodipodi:nodetypes="ccccc" />
    <path
       style="fill:#b3b3b3;stroke:#000000;stroke-width:0.264583;stroke-linecap:round;stroke-linejoin:round;stroke-dasharray:none;stroke-dashoffset:0;paint-order:stroke markers fill"
       d="m 12.699999,270.93329 9.525,-25.4 v 1.05833 l -8.822043,23.81197 z"
       id="path257473"
       sodipodi:nodetypes="ccccc" />
    <g
       inkscape:label=""
       transform="translate(37.689497,257.00684)"
       id="g274743"
       style="fill:#0000ff">
      <g
         id="g274741"
         transform="matrix(0.352778,0,0,0.352778,-0.0937066,-0.00432151)"
         style="fill:#0000ff">
        <g
           clip-path="url(#clipPath6976)"
           clip-rule="nonzero"
           id="g36"
           style="fill:#0000ff">
          <g
             style="fill:#0000ff;fill-opacity:1"
             id="g34">
            <g
               id="g274724"
               transform="translate(0,5.2309999)"
               style="fill:#0000ff">
              <path
                 style="fill:#0000ff;stroke:none"
                 d="m 3.6875,-1.140625 v -0.25 H 2.90625 V -4.5 c 0,-0.140625 0,-0.203125 -0.140625,-0.203125 -0.09375,0 -0.125,0 -0.1875,0.109375 l -2.3125,3.203125 v 0.25 h 2.0625 v 0.5625 c 0,0.25 0,0.328125 -0.578125,0.328125 H 1.5625 V 0 C 1.921875,-0.015625 2.359375,-0.03125 2.609375,-0.03125 2.875,-0.03125 3.3125,-0.015625 3.671875,0 v -0.25 h -0.1875 C 2.90625,-0.25 2.90625,-0.328125 2.90625,-0.578125 v -0.5625 z M 2.375,-3.9375 v 2.546875 H 0.53125 Z m 0,0"
                 id="path53" />
            </g>
            <g
               id="g274727"
               transform="translate(3.9715791,5.2309999)"
               style="fill:#0000ff">
              <path
                 style="fill:#0000ff;stroke:none"
                 d="M 2.015625,1.734375 V 1.40625 h -0.71875 v -6.296875 h 0.71875 V -5.21875 h -1.0625 v 6.953125 z m 0,0"
                 id="path57" />
            </g>
          </g>
        </g>
        <g
           style="fill:#0000ff;fill-opacity:1"
           id="g40">
          <g
             id="g274732"
             transform="translate(6.2270002,5.2309999)"
             style="fill:#0000ff">
            <path
               style="fill:#0000ff;stroke:none"
               d="m 3.03125,-0.5625 c -0.046875,0.140625 -0.109375,0.375 -0.109375,0.40625 0,0.15625 0.125,0.21875 0.234375,0.21875 0.140625,0 0.25,-0.078125 0.28125,-0.140625 0.03125,-0.0625 0.09375,-0.296875 0.125,-0.4375 0.03125,-0.125 0.109375,-0.453125 0.15625,-0.625 0.03125,-0.15625 0.078125,-0.3125 0.109375,-0.46875 0.078125,-0.296875 0.078125,-0.3125 0.21875,-0.53125 C 4.265625,-2.484375 4.625,-2.875 5.15625,-2.875 c 0.390625,0 0.421875,0.3125 0.421875,0.484375 0,0.421875 -0.296875,1.1875 -0.421875,1.484375 -0.0625,0.203125 -0.09375,0.265625 -0.09375,0.375 0,0.375 0.296875,0.59375 0.65625,0.59375 0.703125,0 1,-0.953125 1,-1.0625 0,-0.09375 -0.078125,-0.09375 -0.109375,-0.09375 -0.09375,0 -0.09375,0.046875 -0.125,0.125 C 6.328125,-0.40625 6.015625,-0.125 5.75,-0.125 c -0.15625,0 -0.1875,-0.09375 -0.1875,-0.25 0,-0.15625 0.046875,-0.25 0.171875,-0.5625 0.078125,-0.21875 0.359375,-0.953125 0.359375,-1.34375 0,-0.109375 0,-0.40625 -0.25,-0.609375 -0.125,-0.078125 -0.328125,-0.1875 -0.65625,-0.1875 -0.625,0 -1,0.421875 -1.234375,0.703125 C 3.90625,-2.96875 3.40625,-3.078125 3.046875,-3.078125 2.46875,-3.078125 2.078125,-2.71875 1.875,-2.4375 1.828125,-2.921875 1.421875,-3.078125 1.125,-3.078125 c -0.296875,0 -0.453125,0.21875 -0.546875,0.375 -0.15625,0.265625 -0.25,0.65625 -0.25,0.703125 0,0.078125 0.09375,0.078125 0.125,0.078125 0.09375,0 0.09375,-0.015625 0.140625,-0.203125 0.109375,-0.40625 0.25,-0.75 0.515625,-0.75 0.1875,0 0.234375,0.15625 0.234375,0.34375 0,0.125 -0.0625,0.390625 -0.125,0.578125 -0.046875,0.1875 -0.109375,0.46875 -0.140625,0.625 L 0.84375,-0.4375 c -0.015625,0.09375 -0.0625,0.265625 -0.0625,0.28125 0,0.15625 0.125,0.21875 0.234375,0.21875 0.125,0 0.234375,-0.078125 0.28125,-0.140625 0.03125,-0.0625 0.078125,-0.296875 0.125,-0.4375 0.03125,-0.125 0.109375,-0.453125 0.140625,-0.625 0.046875,-0.15625 0.09375,-0.3125 0.125,-0.46875 0.078125,-0.28125 0.09375,-0.34375 0.296875,-0.625 C 2.171875,-2.515625 2.5,-2.875 3.03125,-2.875 c 0.390625,0 0.40625,0.359375 0.40625,0.484375 0,0.171875 -0.015625,0.265625 -0.125,0.65625 z m 0,0"
               id="path61" />
          </g>
        </g>
        <g
           clip-path="url(#clipPath10009)"
           clip-rule="nonzero"
           id="g274739"
           style="fill:#0000ff">
          <g
             style="fill:#0000ff;fill-opacity:1"
             id="g44">
            <g
               id="g274736"
               transform="translate(13.296,5.2309999)"
               style="fill:#0000ff">
              <path
                 style="fill:#0000ff;stroke:none"
                 d="M 1.296875,-5.21875 H 0.21875 v 0.328125 H 0.953125 V 1.40625 H 0.21875 v 0.328125 h 1.078125 z m 0,0"
                 id="path65" />
            </g>
          </g>
        </g>
      </g>
    </g>
    <path
       style="fill:none;stroke:#0000ff;stroke-width:0.132292;stroke-linejoin:round;stroke-dasharray:0.264583, 0.132292;stroke-dashoffset:0;paint-order:stroke markers fill"
       d="m 32.808332,270.86714 h 5.291667"
       id="path276498"
       sodipodi:nodetypes="cc" />
    <path
       style="fill:none;stroke:#0000ff;stroke-width:0.396875;stroke-linejoin:round;stroke-dasharray:none;paint-order:stroke markers fill"
       d="m 31.749999,279.39997 v 4.23333"
       id="path278154" />
    <path
       style="fill:none;stroke:#0000ff;stroke-width:0.396875;stroke-linejoin:round;stroke-dasharray:none;paint-order:stroke markers fill"
       d="m 31.749999,281.51663 h -6.35"
       id="path278156"
       sodipodi:nodetypes="cc" />
    <path
       style="fill:none;stroke:#0000ff;stroke-width:0.396875;stroke-linejoin:round;stroke-dasharray:none;paint-order:stroke markers fill"
       d="m 12.699996,279.39996 v 4.23334"
       id="path278158" />
    <path
       style="fill:none;stroke:#0000ff;stroke-width:0.396875;stroke-linejoin:round;stroke-dasharray:none;paint-order:stroke markers fill"
       d="M 19.049999,281.51663 H 12.699996"
       id="path278160"
       sodipodi:nodetypes="cc" />
    <path
       style="fill:none;stroke:#0000ff;stroke-width:0.132292;stroke-linejoin:round;stroke-dasharray:0.264583, 0.132292;stroke-dashoffset:0;paint-order:stroke markers fill"
       d="m 31.749999,277.28329 v 2.11667"
       id="path278162"
       sodipodi:nodetypes="cc" />
    <path
       style="fill:none;stroke:#0000ff;stroke-width:0.132292;stroke-linejoin:round;stroke-dasharray:0.264583, 0.132292;stroke-dashoffset:0;paint-order:stroke markers fill"
       d="m 12.7,276.22496 0.06615,3.175"
       id="path278194"
       sodipodi:nodetypes="cc" />
    <g
       inkscape:label=""
       transform="translate(19.910399,280.4623)"
       id="g286695"
       style="fill:#0000ff">
      <g
         id="g286693"
         transform="matrix(0.352778,0,0,0.352778,-0.132292,1.32219e-4)"
         style="fill:#0000ff">
        <g
           clip-path="url(#clipPath2057)"
           clip-rule="nonzero"
           id="g286677"
           style="fill:#0000ff">
          <g
             style="fill:#0000ff;fill-opacity:1"
             id="g286675">
            <g
               id="g286669"
               transform="translate(0,4.4840002)"
               style="fill:#0000ff">
              <path
                 style="fill:#0000ff;stroke:none"
                 d="m 1.765625,-1.984375 c 0.5,0 0.84375,0.34375 0.84375,0.953125 0,0.65625 -0.390625,0.9375 -0.828125,0.9375 C 1.609375,-0.09375 1,-0.125 0.734375,-0.46875 0.96875,-0.5 1.0625,-0.65625 1.0625,-0.8125 c 0,-0.203125 -0.140625,-0.34375 -0.34375,-0.34375 -0.15625,0 -0.34375,0.109375 -0.34375,0.359375 0,0.59375 0.65625,0.921875 1.421875,0.921875 0.890625,0 1.46875,-0.5625 1.46875,-1.15625 0,-0.4375 -0.328125,-0.90625 -1.046875,-1.078125 0.484375,-0.15625 0.859375,-0.546875 0.859375,-1.03125 0,-0.484375 -0.5625,-0.84375 -1.28125,-0.84375 -0.703125,0 -1.234375,0.328125 -1.234375,0.8125 0,0.265625 0.203125,0.328125 0.328125,0.328125 0.15625,0 0.3125,-0.09375 0.3125,-0.3125 0,-0.1875 -0.125,-0.296875 -0.296875,-0.3125 0.28125,-0.3125 0.828125,-0.3125 0.890625,-0.3125 0.296875,0 0.6875,0.140625 0.6875,0.640625 0,0.328125 -0.1875,0.90625 -0.796875,0.9375 -0.109375,0 -0.265625,0.015625 -0.3125,0.015625 -0.0625,0.015625 -0.125,0.015625 -0.125,0.109375 0,0.09375 0.0625,0.09375 0.15625,0.09375 z m 0,0"
                 id="path286667" />
            </g>
            <g
               id="g286673"
               transform="translate(3.6529109,4.4840002)"
               style="fill:#0000ff">
              <path
                 style="fill:#0000ff;stroke:none"
                 d="m 1.859375,-4.171875 v -0.3125 H 0.890625 V 1.5 h 0.96875 V 1.1875 h -0.65625 v -5.359375 z m 0,0"
                 id="path286671" />
            </g>
          </g>
        </g>
        <g
           style="fill:#0000ff;fill-opacity:1"
           id="g286683">
          <g
             id="g286681"
             transform="translate(5.756,4.4840002)"
             style="fill:#0000ff">
            <path
               style="fill:#0000ff;stroke:none"
               d="M 2.828125,-0.515625 C 2.796875,-0.390625 2.75,-0.171875 2.75,-0.140625 2.75,0 2.84375,0.0625 2.953125,0.0625 c 0.109375,0 0.21875,-0.078125 0.265625,-0.171875 0,-0.03125 0.0625,-0.234375 0.09375,-0.359375 L 3.4375,-1 C 3.484375,-1.15625 3.5,-1.265625 3.546875,-1.40625 3.59375,-1.609375 3.8125,-1.921875 4.03125,-2.140625 c 0.109375,-0.125 0.375,-0.296875 0.703125,-0.296875 0.375,0 0.375,0.296875 0.375,0.421875 0,0.34375 -0.25,0.984375 -0.359375,1.25 -0.046875,0.109375 -0.078125,0.203125 -0.078125,0.3125 0,0.296875 0.265625,0.515625 0.59375,0.515625 0.609375,0 0.90625,-0.796875 0.90625,-0.921875 0,-0.015625 0,-0.09375 -0.109375,-0.09375 -0.078125,0 -0.09375,0.03125 -0.125,0.15625 -0.109375,0.34375 -0.359375,0.65625 -0.640625,0.65625 -0.078125,0 -0.171875,-0.03125 -0.171875,-0.21875 0,-0.109375 0.046875,-0.21875 0.09375,-0.34375 C 5.296875,-0.875 5.578125,-1.59375 5.578125,-1.9375 c 0,-0.5 -0.359375,-0.703125 -0.828125,-0.703125 -0.328125,0 -0.71875,0.125 -1.109375,0.625 -0.03125,-0.4375 -0.390625,-0.625 -0.828125,-0.625 -0.296875,0 -0.671875,0.09375 -1.0625,0.5625 -0.03125,-0.453125 -0.453125,-0.5625 -0.671875,-0.5625 -0.234375,0 -0.390625,0.140625 -0.484375,0.328125 -0.15625,0.25 -0.234375,0.578125 -0.234375,0.59375 0,0.0625 0.0625,0.078125 0.109375,0.078125 0.09375,0 0.109375,-0.03125 0.140625,-0.125 C 0.71875,-2.25 0.875,-2.4375 1.0625,-2.4375 c 0.203125,0 0.21875,0.203125 0.21875,0.296875 0,0.09375 -0.0625,0.34375 -0.109375,0.5 C 1.125,-1.46875 1.078125,-1.234375 1.046875,-1.09375 1,-0.953125 0.96875,-0.796875 0.921875,-0.640625 0.875,-0.46875 0.8125,-0.171875 0.8125,-0.140625 0.8125,0 0.90625,0.0625 1.015625,0.0625 c 0.109375,0 0.21875,-0.078125 0.265625,-0.171875 0,-0.03125 0.0625,-0.234375 0.09375,-0.359375 L 1.5,-1 c 0.046875,-0.15625 0.0625,-0.265625 0.109375,-0.40625 0.046875,-0.203125 0.25,-0.515625 0.484375,-0.734375 0.109375,-0.125 0.375,-0.296875 0.6875,-0.296875 0.390625,0 0.390625,0.296875 0.390625,0.421875 0,0.140625 -0.0625,0.375 -0.109375,0.5625 z m 0,0"
               id="path286679" />
          </g>
        </g>
        <g
           clip-path="url(#clipPath6722)"
           clip-rule="nonzero"
           id="g286691"
           style="fill:#0000ff">
          <g
             style="fill:#0000ff;fill-opacity:1"
             id="g286689">
            <g
               id="g286687"
               transform="translate(12.294,4.4840002)"
               style="fill:#0000ff">
              <path
                 style="fill:#0000ff;stroke:none"
                 d="m 1.203125,-4.484375 h -0.96875 v 0.3125 h 0.65625 V 1.1875 H 0.234375 V 1.5 h 0.96875 z m 0,0"
                 id="path286685" />
            </g>
          </g>
        </g>
      </g>
    </g>
    <g
       inkscape:label=""
       transform="translate(8.9958306,268.88968)"
       id="g293521"
       style="fill:#ff0000">
      <g
         id="g293519"
         transform="matrix(0.352778,0,0,0.352778,-0.15434,0.0637205)"
         style="fill:#ff0000">
        <g
           clip-path="url(#clipPath7776)"
           clip-rule="nonzero"
           id="g293517"
           style="fill:#ff0000">
          <g
             style="fill:#ff0000;fill-opacity:1"
             id="g293515">
            <g
               id="g293513"
               transform="translate(0,4.085)"
               style="fill:#ff0000">
              <path
                 style="fill:#ff0000;stroke:none"
                 d="m 1.359375,-0.734375 c -0.234375,0.34375 -0.4375,0.46875 -0.765625,0.5 -0.09375,0 -0.15625,0 -0.15625,0.140625 C 0.4375,-0.03125 0.484375,0 0.515625,0 0.6875,0 0.890625,-0.03125 1.0625,-0.03125 1.203125,-0.03125 1.5625,0 1.703125,0 c 0.0625,0 0.125,-0.03125 0.125,-0.15625 0,-0.078125 -0.078125,-0.078125 -0.09375,-0.078125 C 1.578125,-0.25 1.453125,-0.28125 1.453125,-0.40625 c 0,-0.078125 0.0625,-0.1875 0.078125,-0.21875 l 0.5,-0.734375 h 1.796875 l 0.15625,0.96875 c 0,0.15625 -0.34375,0.15625 -0.40625,0.15625 -0.078125,0 -0.171875,0 -0.171875,0.140625 C 3.40625,-0.0625 3.4375,0 3.5,0 c 0.1875,0 0.625,-0.03125 0.796875,-0.03125 0.125,0 0.234375,0.015625 0.359375,0.015625 C 4.78125,-0.015625 4.90625,0 5.015625,0 5.0625,0 5.15625,0 5.15625,-0.15625 c 0,-0.078125 -0.078125,-0.078125 -0.171875,-0.078125 -0.375,0 -0.375,-0.046875 -0.40625,-0.203125 L 3.984375,-4.109375 C 3.96875,-4.21875 3.96875,-4.265625 3.828125,-4.265625 c -0.125,0 -0.15625,0.046875 -0.21875,0.125 z M 2.1875,-1.59375 3.484375,-3.546875 3.78125,-1.59375 Z m 0,0"
                 id="path293511" />
            </g>
          </g>
        </g>
      </g>
    </g>
    <g
       inkscape:label=""
       transform="translate(32.654535,267.83545)"
       id="g296996"
       style="fill:#ff0000">
      <g
         id="g296994"
         transform="matrix(0.352778,0,0,0.352778,-0.181901,0.00308679)"
         style="fill:#ff0000">
        <g
           clip-path="url(#clipPath3097)"
           clip-rule="nonzero"
           id="g296992"
           style="fill:#ff0000">
          <g
             style="fill:#ff0000;fill-opacity:1"
             id="g296990">
            <g
               id="g296988"
               transform="translate(0,4.085)"
               style="fill:#ff0000">
              <path
                 style="fill:#ff0000;stroke:none"
                 d="m 1.25,-0.5 c -0.046875,0.21875 -0.0625,0.265625 -0.515625,0.265625 -0.125,0 -0.140625,0 -0.15625,0.015625 -0.03125,0.015625 -0.0625,0.09375 -0.0625,0.140625 C 0.53125,0 0.59375,0 0.71875,0 H 3.140625 C 4.1875,0 5,-0.671875 5,-1.28125 5,-1.640625 4.671875,-2.046875 3.921875,-2.140625 c 0.6875,-0.109375 1.375,-0.546875 1.375,-1.09375 0,-0.421875 -0.46875,-0.859375 -1.3125,-0.859375 H 1.6875 c -0.109375,0 -0.203125,0 -0.203125,0.15625 0,0.09375 0.09375,0.09375 0.203125,0.09375 0.109375,0 0.25,0 0.375,0.03125 0,0.0625 0,0.109375 -0.015625,0.203125 z M 2.234375,-2.21875 2.59375,-3.640625 C 2.640625,-3.84375 2.640625,-3.84375 2.890625,-3.84375 h 1 c 0.609375,0 0.796875,0.375 0.796875,0.625 0,0.484375 -0.625,1 -1.359375,1 z m -0.28125,1.984375 c -0.109375,0 -0.125,0 -0.203125,-0.015625 l 0.4375,-1.78125 h 1.296875 c 0.765625,0 0.890625,0.484375 0.890625,0.734375 0,0.5625 -0.640625,1.0625 -1.390625,1.0625 z m 0,0"
                 id="path296986" />
            </g>
          </g>
        </g>
      </g>
    </g>
    <g
       inkscape:label=""
       transform="translate(19.527693,243.11627)"
       id="g300487"
       style="fill:#ff0000">
      <g
         id="g300485"
         transform="matrix(0.352778,0,0,0.352778,-0.181901,0.047184)"
         style="fill:#ff0000">
        <g
           clip-path="url(#clipPath8988)"
           clip-rule="nonzero"
           id="g300483"
           style="fill:#ff0000">
          <g
             style="fill:#ff0000;fill-opacity:1"
             id="g300481">
            <g
               id="g300479"
               transform="translate(0,4.085)"
               style="fill:#ff0000">
              <path
                 style="fill:#ff0000;stroke:none"
                 d="M 5.3125,-4.046875 C 5.328125,-4.09375 5.34375,-4.125 5.34375,-4.125 c 0,-0.015625 -0.015625,-0.09375 -0.09375,-0.09375 -0.046875,0 -0.0625,0.015625 -0.109375,0.078125 L 4.6875,-3.671875 C 4.359375,-4.078125 3.921875,-4.21875 3.5,-4.21875 c -1.53125,0 -2.984375,1.28125 -2.984375,2.625 0,1.03125 0.828125,1.71875 1.9375,1.71875 0.625,0 1.171875,-0.25 1.53125,-0.53125 0.59375,-0.46875 0.6875,-1 0.6875,-1.03125 0,-0.0625 -0.0625,-0.09375 -0.109375,-0.09375 -0.078125,0 -0.09375,0.03125 -0.109375,0.09375 -0.296875,0.921875 -1.234375,1.328125 -1.890625,1.328125 -0.453125,0 -1.421875,-0.1875 -1.421875,-1.328125 0,-0.234375 0.046875,-1.0625 0.703125,-1.78125 0.328125,-0.359375 0.96875,-0.75 1.703125,-0.75 0.78125,0 1.1875,0.546875 1.1875,1.171875 0,0.109375 -0.03125,0.21875 -0.03125,0.21875 0,0.09375 0.09375,0.09375 0.125,0.09375 0.078125,0 0.109375,0 0.140625,-0.125 z m 0,0"
                 id="path300477" />
            </g>
          </g>
        </g>
      </g>
    </g>
    <path
       style="fill:none;stroke:#008000;stroke-width:0.396875;stroke-linejoin:round;stroke-dasharray:none;marker-end:url(#Arrow2-4-0-4-0-1-2-0-9-0);paint-order:stroke markers fill"
       d="m 22.208445,240.16224 v 4.23334"
       id="path302451"
       sodipodi:nodetypes="cc" />
    <g
       inkscape:label=""
       transform="translate(23.762358,240.14639)"
       id="g305910"
       style="fill:#0000ff">
      <g
         id="g305908"
         transform="matrix(0.352778,0,0,0.352778,-0.176389,1.32219e-4)"
         style="fill:#0000ff">
        <g
           style="fill:#0000ff;fill-opacity:1"
           id="g305871">
          <g
             id="g305869"
             transform="translate(0,4.4840002)"
             style="fill:#0000ff">
            <path
               style="fill:#0000ff;stroke:none"
               d="m 2.171875,-1.921875 h 0.6875 c 0.484375,0 0.5625,0.078125 0.5625,0.28125 0,0.078125 -0.03125,0.265625 -0.0625,0.34375 0,0 0.015625,0.078125 0.125,0.078125 0.078125,0 0.09375,-0.03125 0.109375,-0.125 l 0.359375,-1.421875 c 0,-0.015625 -0.015625,-0.09375 -0.109375,-0.09375 -0.09375,0 -0.109375,0.046875 -0.125,0.125 -0.125,0.46875 -0.265625,0.578125 -0.828125,0.578125 H 2.25 L 2.609375,-3.625 c 0.046875,-0.1875 0.046875,-0.203125 0.3125,-0.203125 h 0.96875 c 0.796875,0 1,0.15625 1,0.703125 0,0.140625 -0.015625,0.34375 -0.015625,0.359375 0,0.109375 0.078125,0.109375 0.109375,0.109375 0.09375,0 0.109375,-0.046875 0.109375,-0.15625 L 5.203125,-3.875 C 5.21875,-4.0625 5.171875,-4.0625 5.03125,-4.0625 h -3.375 c -0.109375,0 -0.203125,0 -0.203125,0.15625 0,0.078125 0.09375,0.078125 0.203125,0.078125 0.109375,0 0.265625,0 0.390625,0.046875 0,0.0625 0,0.09375 -0.03125,0.1875 L 1.234375,-0.5 c -0.046875,0.21875 -0.0625,0.265625 -0.515625,0.265625 -0.125,0 -0.140625,0 -0.15625,0.015625 C 0.53125,-0.203125 0.5,-0.125 0.5,-0.078125 0.515625,-0.0625 0.515625,0 0.609375,0 c 0.125,0 0.265625,-0.015625 0.40625,-0.015625 0.140625,0 0.28125,-0.015625 0.421875,-0.015625 0.15625,0 0.328125,0.015625 0.5,0.015625 C 2.078125,-0.015625 2.25,0 2.390625,0 2.421875,0 2.53125,0 2.53125,-0.15625 c 0,-0.078125 -0.078125,-0.078125 -0.21875,-0.078125 -0.015625,0 -0.171875,0 -0.3125,-0.015625 -0.1875,-0.015625 -0.203125,-0.03125 -0.203125,-0.09375 0,-0.015625 0,-0.046875 0.015625,-0.125 z m 0,0"
               id="path305867" />
          </g>
        </g>
        <g
           clip-path="url(#clipPath9532)"
           clip-rule="nonzero"
           id="g305878"
           style="fill:#0000ff">
          <g
             style="fill:#0000ff;fill-opacity:1"
             id="g305876">
            <g
               id="g305874"
               transform="translate(4.6329999,5.6350002)"
               style="fill:#0000ff">
              <path
                 style="fill:#0000ff;stroke:none"
                 d="M 1.984375,-3.171875 C 1.984375,-3.3125 1.96875,-3.3125 1.796875,-3.3125 1.453125,-3 0.890625,-3 0.796875,-3 H 0.71875 v 0.21875 h 0.078125 c 0.109375,0 0.4375,-0.015625 0.734375,-0.140625 v 2.5 c 0,0.140625 0,0.203125 -0.53125,0.203125 H 0.75 V 0 c 0.265625,-0.015625 0.71875,-0.015625 1,-0.015625 0.296875,0 0.734375,0 1.015625,0.015625 v -0.21875 h -0.25 c -0.53125,0 -0.53125,-0.0625 -0.53125,-0.203125 z m 0,0"
                 id="path91" />
            </g>
          </g>
        </g>
        <g
           style="fill:#0000ff;fill-opacity:1"
           id="g60">
          <g
             id="g305881"
             transform="translate(10.643,4.4840002)"
             style="fill:#0000ff">
            <path
               style="fill:#0000ff;stroke:none"
               d="m 4.890625,-2.03125 c 0.09375,0 0.21875,0 0.21875,-0.15625 0,-0.15625 -0.15625,-0.15625 -0.25,-0.15625 H 0.71875 c -0.078125,0 -0.25,0 -0.25,0.15625 0,0.15625 0.140625,0.15625 0.21875,0.15625 z m -0.03125,1.375 c 0.09375,0 0.25,0 0.25,-0.15625 0,-0.15625 -0.125,-0.15625 -0.21875,-0.15625 H 0.6875 c -0.078125,0 -0.21875,0 -0.21875,0.15625 0,0.15625 0.171875,0.15625 0.25,0.15625 z m 0,0"
               id="path95" />
          </g>
        </g>
        <g
           clip-path="url(#clipPath21641)"
           clip-rule="nonzero"
           id="g305906"
           style="fill:#0000ff">
          <g
             style="fill:#0000ff;fill-opacity:1"
             id="g78">
            <g
               id="use62"
               transform="translate(18.355301,4.4840002)"
               style="fill:#0000ff">
              <path
                 style="fill:#0000ff;stroke:none"
                 d="m 2.140625,-3.796875 c 0,-0.1875 -0.015625,-0.1875 -0.203125,-0.1875 -0.390625,0.390625 -1,0.390625 -1.21875,0.390625 v 0.234375 c 0.15625,0 0.5625,0 0.921875,-0.171875 v 3.015625 c 0,0.203125 0,0.28125 -0.625,0.28125 h -0.25 V 0 c 0.328125,-0.03125 0.796875,-0.03125 1.125,-0.03125 0.328125,0 0.796875,0 1.125,0.03125 v -0.234375 h -0.25 c -0.625,0 -0.625,-0.078125 -0.625,-0.28125 z m 0,0"
                 id="path99" />
            </g>
            <g
               id="g305887"
               transform="translate(22.008211,4.4840002)"
               style="fill:#0000ff">
              <path
                 style="fill:#0000ff;stroke:none"
                 d="m 3.296875,-1.90625 c 0,-0.4375 0,-2.078125 -1.46875,-2.078125 -1.46875,0 -1.46875,1.640625 -1.46875,2.078125 0,0.421875 0,2.03125 1.46875,2.03125 1.46875,0 1.46875,-1.609375 1.46875,-2.03125 z m -1.46875,1.84375 c -0.25,0 -0.65625,-0.125 -0.8125,-0.625 -0.09375,-0.34375 -0.09375,-0.921875 -0.09375,-1.296875 0,-0.40625 0,-0.859375 0.09375,-1.1875 0.140625,-0.53125 0.59375,-0.609375 0.8125,-0.609375 0.265625,0 0.671875,0.125 0.796875,0.578125 0.09375,0.3125 0.09375,0.75 0.09375,1.21875 0,0.375 0,0.984375 -0.09375,1.3125 C 2.453125,-0.140625 2.015625,-0.0625 1.828125,-0.0625 Z m 0,0"
                 id="path103" />
            </g>
            <g
               id="use66"
               transform="translate(25.661121,4.4840002)"
               style="fill:#0000ff">
              <path
                 style="fill:#0000ff;stroke:none"
                 d="m 3.296875,-1.90625 c 0,-0.4375 0,-2.078125 -1.46875,-2.078125 -1.46875,0 -1.46875,1.640625 -1.46875,2.078125 0,0.421875 0,2.03125 1.46875,2.03125 1.46875,0 1.46875,-1.609375 1.46875,-2.03125 z m -1.46875,1.84375 c -0.25,0 -0.65625,-0.125 -0.8125,-0.625 -0.09375,-0.34375 -0.09375,-0.921875 -0.09375,-1.296875 0,-0.40625 0,-0.859375 0.09375,-1.1875 0.140625,-0.53125 0.59375,-0.609375 0.8125,-0.609375 0.265625,0 0.671875,0.125 0.796875,0.578125 0.09375,0.3125 0.09375,0.75 0.09375,1.21875 0,0.375 0,0.984375 -0.09375,1.3125 C 2.453125,-0.140625 2.015625,-0.0625 1.828125,-0.0625 Z m 0,0"
                 id="path107" />
            </g>
            <g
               id="g305892"
               transform="translate(29.314034,4.4840002)"
               style="fill:#0000ff">
              <path
                 style="fill:#0000ff;stroke:none"
                 d="m 3.296875,-1.90625 c 0,-0.4375 0,-2.078125 -1.46875,-2.078125 -1.46875,0 -1.46875,1.640625 -1.46875,2.078125 0,0.421875 0,2.03125 1.46875,2.03125 1.46875,0 1.46875,-1.609375 1.46875,-2.03125 z m -1.46875,1.84375 c -0.25,0 -0.65625,-0.125 -0.8125,-0.625 -0.09375,-0.34375 -0.09375,-0.921875 -0.09375,-1.296875 0,-0.40625 0,-0.859375 0.09375,-1.1875 0.140625,-0.53125 0.59375,-0.609375 0.8125,-0.609375 0.265625,0 0.671875,0.125 0.796875,0.578125 0.09375,0.3125 0.09375,0.75 0.09375,1.21875 0,0.375 0,0.984375 -0.09375,1.3125 C 2.453125,-0.140625 2.015625,-0.0625 1.828125,-0.0625 Z m 0,0"
                 id="path111" />
            </g>
            <g
               id="g305895"
               transform="translate(32.966946,4.4840002)"
               style="fill:#0000ff">
              <path
                 style="fill:#0000ff;stroke:none"
                 d="m 1.859375,-4.171875 v -0.3125 H 0.890625 V 1.5 h 0.96875 V 1.1875 h -0.65625 v -5.359375 z m 0,0"
                 id="path115" />
            </g>
            <g
               id="g305898"
               transform="translate(35.069866,4.4840002)"
               style="fill:#0000ff">
              <path
                 style="fill:#0000ff;stroke:none"
                 d="m 2.078125,-1.609375 c 0.65625,-0.5 0.96875,-0.71875 1.40625,-0.734375 v -0.234375 c -0.078125,0 -0.25,0.015625 -0.4375,0.015625 -0.265625,0 -0.6875,-0.015625 -0.75,-0.015625 V -2.34375 C 2.40625,-2.328125 2.40625,-2.265625 2.40625,-2.25 c 0,0.03125 0,0.125 -0.1875,0.25 L 1.296875,-1.328125 V -4.15625 l -0.953125,0.0625 v 0.234375 c 0.421875,0 0.46875,0.046875 0.46875,0.34375 v 3.03125 c 0,0.25 -0.046875,0.25 -0.46875,0.25 V 0 C 0.515625,-0.015625 0.921875,-0.03125 1.046875,-0.03125 1.140625,-0.03125 1.5625,-0.015625 1.75,0 v -0.234375 c -0.421875,0 -0.46875,0 -0.46875,-0.25 V -1.03125 l 0.453125,-0.328125 c 0.03125,0.03125 0.1875,0.203125 0.671875,0.765625 0.0625,0.078125 0.140625,0.171875 0.140625,0.265625 0,0.078125 -0.09375,0.09375 -0.15625,0.09375 V 0 C 2.515625,-0.015625 2.9375,-0.03125 3.09375,-0.03125 3.328125,-0.03125 3.59375,0 3.640625,0 v -0.234375 c -0.3125,0 -0.390625,-0.046875 -0.609375,-0.28125 z m 0,0"
                 id="path119" />
            </g>
            <g
               id="use74"
               transform="translate(38.916451,4.4840002)"
               style="fill:#0000ff">
              <path
                 style="fill:#0000ff;stroke:none"
                 d="M 0.953125,-1.046875 C 1.09375,-0.96875 1.328125,-0.875 1.625,-0.875 2.296875,-0.875 2.75,-1.296875 2.75,-1.75 2.75,-2.09375 2.5,-2.3125 2.5,-2.328125 2.765625,-2.5 3.015625,-2.515625 3.109375,-2.515625 3.09375,-2.484375 3.0625,-2.46875 3.0625,-2.375 c 0,0.09375 0.078125,0.1875 0.203125,0.1875 0.140625,0 0.203125,-0.09375 0.203125,-0.203125 0,-0.125 -0.109375,-0.3125 -0.375,-0.3125 -0.25,0 -0.53125,0.09375 -0.734375,0.28125 -0.203125,-0.140625 -0.46875,-0.21875 -0.71875,-0.21875 -0.65625,0 -1.125,0.421875 -1.125,0.890625 0,0.1875 0.078125,0.390625 0.28125,0.59375 -0.125,0.171875 -0.171875,0.34375 -0.171875,0.484375 0,0.328125 0.21875,0.5 0.25,0.53125 -0.234375,0.0625 -0.59375,0.265625 -0.59375,0.59375 0,0.46875 0.71875,0.78125 1.546875,0.78125 C 2.59375,1.234375 3.375,0.953125 3.375,0.4375 3.375,0.296875 3.328125,-0.09375 2.84375,-0.28125 2.5,-0.4375 2.171875,-0.4375 1.609375,-0.4375 c -0.15625,0 -0.375,0 -0.4375,0 C 1.015625,-0.46875 0.875,-0.609375 0.875,-0.828125 c 0,-0.125 0.0625,-0.203125 0.078125,-0.21875 z m 0.6875,-0.03125 c -0.5,0 -0.625,-0.359375 -0.625,-0.671875 0,-0.109375 0,-0.6875 0.609375,-0.6875 0.53125,0 0.625,0.421875 0.625,0.671875 0,0.125 0,0.6875 -0.609375,0.6875 z M 1.96875,0 C 2.15625,0 2.984375,0 2.984375,0.453125 2.984375,0.75 2.5,1.03125 1.828125,1.03125 1.171875,1.03125 0.671875,0.765625 0.671875,0.453125 0.671875,0.296875 0.796875,0 1.296875,0 Z m 0,0"
                 id="path123" />
            </g>
            <g
               id="g305903"
               transform="translate(42.569363,4.4840002)"
               style="fill:#0000ff">
              <path
                 style="fill:#0000ff;stroke:none"
                 d="m 1.203125,-4.484375 h -0.96875 v 0.3125 h 0.65625 V 1.1875 H 0.234375 V 1.5 h 0.96875 z m 0,0"
                 id="path127" />
            </g>
          </g>
        </g>
      </g>
    </g>
    <g
       inkscape:label=""
       transform="translate(5.1547752,246.29636)"
       id="g309560"
       style="fill:#0000ff">
      <g
         id="g309558"
         transform="matrix(0.352778,0,0,0.352778,-0.176389,1.32219e-4)"
         style="fill:#0000ff">
        <g
           style="fill:#0000ff;fill-opacity:1"
           id="g309520">
          <g
             id="g309518"
             transform="translate(0,4.4840002)"
             style="fill:#0000ff">
            <path
               style="fill:#0000ff;stroke:none"
               d="m 2.171875,-1.921875 h 0.6875 c 0.484375,0 0.5625,0.078125 0.5625,0.28125 0,0.078125 -0.03125,0.265625 -0.0625,0.34375 0,0 0.015625,0.078125 0.125,0.078125 0.078125,0 0.09375,-0.03125 0.109375,-0.125 l 0.359375,-1.421875 c 0,-0.015625 -0.015625,-0.09375 -0.109375,-0.09375 -0.09375,0 -0.109375,0.046875 -0.125,0.125 -0.125,0.46875 -0.265625,0.578125 -0.828125,0.578125 H 2.25 L 2.609375,-3.625 c 0.046875,-0.1875 0.046875,-0.203125 0.3125,-0.203125 h 0.96875 c 0.796875,0 1,0.15625 1,0.703125 0,0.140625 -0.015625,0.34375 -0.015625,0.359375 0,0.109375 0.078125,0.109375 0.109375,0.109375 0.09375,0 0.109375,-0.046875 0.109375,-0.15625 L 5.203125,-3.875 C 5.21875,-4.0625 5.171875,-4.0625 5.03125,-4.0625 h -3.375 c -0.109375,0 -0.203125,0 -0.203125,0.15625 0,0.078125 0.09375,0.078125 0.203125,0.078125 0.109375,0 0.265625,0 0.390625,0.046875 0,0.0625 0,0.09375 -0.03125,0.1875 L 1.234375,-0.5 c -0.046875,0.21875 -0.0625,0.265625 -0.515625,0.265625 -0.125,0 -0.140625,0 -0.15625,0.015625 C 0.53125,-0.203125 0.5,-0.125 0.5,-0.078125 0.515625,-0.0625 0.515625,0 0.609375,0 c 0.125,0 0.265625,-0.015625 0.40625,-0.015625 0.140625,0 0.28125,-0.015625 0.421875,-0.015625 0.15625,0 0.328125,0.015625 0.5,0.015625 C 2.078125,-0.015625 2.25,0 2.390625,0 2.421875,0 2.53125,0 2.53125,-0.15625 c 0,-0.078125 -0.078125,-0.078125 -0.21875,-0.078125 -0.015625,0 -0.171875,0 -0.3125,-0.015625 -0.1875,-0.015625 -0.203125,-0.03125 -0.203125,-0.09375 0,-0.015625 0,-0.046875 0.015625,-0.125 z m 0,0"
               id="path85" />
          </g>
        </g>
        <g
           clip-path="url(#clipPath3996)"
           clip-rule="nonzero"
           id="g309527"
           style="fill:#0000ff">
          <g
             style="fill:#0000ff;fill-opacity:1"
             id="g309525">
            <g
               id="g309523"
               transform="translate(4.6329999,5.6350002)"
               style="fill:#0000ff">
              <path
                 style="fill:#0000ff;stroke:none"
                 d="M 2.9375,-0.96875 H 2.71875 c 0,0.09375 -0.0625,0.40625 -0.140625,0.453125 -0.03125,0.03125 -0.453125,0.03125 -0.53125,0.03125 H 1.078125 C 1.40625,-0.71875 1.765625,-1 2.0625,-1.203125 c 0.453125,-0.3125 0.875,-0.59375 0.875,-1.125 0,-0.640625 -0.609375,-0.984375 -1.3125,-0.984375 -0.671875,0 -1.171875,0.375 -1.171875,0.875 0,0.25 0.21875,0.296875 0.296875,0.296875 0.125,0 0.28125,-0.09375 0.28125,-0.296875 0,-0.171875 -0.125,-0.28125 -0.28125,-0.28125 0.140625,-0.234375 0.4375,-0.375 0.765625,-0.375 0.484375,0 0.890625,0.28125 0.890625,0.765625 0,0.421875 -0.296875,0.75 -0.671875,1.0625 l -1.21875,1.03125 C 0.46875,-0.1875 0.453125,-0.1875 0.453125,-0.15625 V 0 h 2.3125 z m 0,0"
                 id="path89" />
            </g>
          </g>
        </g>
        <g
           style="fill:#0000ff;fill-opacity:1"
           id="g309532">
          <g
             id="g309530"
             transform="translate(10.643,4.4840002)"
             style="fill:#0000ff">
            <path
               style="fill:#0000ff;stroke:none"
               d="m 4.890625,-2.03125 c 0.09375,0 0.21875,0 0.21875,-0.15625 0,-0.15625 -0.15625,-0.15625 -0.25,-0.15625 H 0.71875 c -0.078125,0 -0.25,0 -0.25,0.15625 0,0.15625 0.140625,0.15625 0.21875,0.15625 z m -0.03125,1.375 c 0.09375,0 0.25,0 0.25,-0.15625 0,-0.15625 -0.125,-0.15625 -0.21875,-0.15625 H 0.6875 c -0.078125,0 -0.21875,0 -0.21875,0.15625 0,0.15625 0.171875,0.15625 0.25,0.15625 z m 0,0"
               id="path93" />
          </g>
        </g>
        <g
           clip-path="url(#clipPath43195)"
           clip-rule="nonzero"
           id="g309556"
           style="fill:#0000ff">
          <g
             style="fill:#0000ff;fill-opacity:1"
             id="g76">
            <g
               id="g309535"
               transform="translate(18.355301,4.4840002)"
               style="fill:#0000ff">
              <path
                 style="fill:#0000ff;stroke:none"
                 d="M 1.015625,-3.328125 C 1.21875,-3.265625 1.421875,-3.25 1.625,-3.25 c 0.140625,0 0.46875,0 0.84375,-0.203125 0.109375,-0.0625 0.46875,-0.3125 0.46875,-0.4375 0,-0.078125 -0.046875,-0.09375 -0.078125,-0.09375 -0.015625,0 -0.015625,0 -0.09375,0.03125 C 2.5625,-3.875 2.25,-3.78125 1.859375,-3.78125 1.5625,-3.78125 1.25,-3.84375 0.96875,-3.9375 0.921875,-3.96875 0.890625,-3.984375 0.875,-3.984375 c -0.09375,0 -0.09375,0.078125 -0.09375,0.171875 v 1.796875 c 0,0.09375 0,0.171875 0.109375,0.171875 C 0.953125,-1.84375 0.96875,-1.875 1,-1.921875 1.15625,-2.109375 1.421875,-2.3125 1.890625,-2.3125 2.625,-2.3125 2.625,-1.421875 2.625,-1.234375 2.625,-1 2.609375,-0.65625 2.40625,-0.40625 c -0.1875,0.21875 -0.46875,0.3125 -0.71875,0.3125 -0.40625,0 -0.828125,-0.21875 -0.96875,-0.578125 0.296875,0 0.328125,-0.234375 0.328125,-0.296875 0,-0.171875 -0.125,-0.3125 -0.3125,-0.3125 C 0.6875,-1.28125 0.4375,-1.25 0.4375,-0.953125 0.4375,-0.40625 0.953125,0.125 1.703125,0.125 2.53125,0.125 3.21875,-0.453125 3.21875,-1.203125 3.21875,-1.890625 2.671875,-2.5 1.890625,-2.5 c -0.375,0 -0.6875,0.125 -0.875,0.28125 z m 0,0"
                 id="path97" />
            </g>
            <g
               id="g309538"
               transform="translate(22.008211,4.4840002)"
               style="fill:#0000ff">
              <path
                 style="fill:#0000ff;stroke:none"
                 d="m 3.296875,-1.90625 c 0,-0.4375 0,-2.078125 -1.46875,-2.078125 -1.46875,0 -1.46875,1.640625 -1.46875,2.078125 0,0.421875 0,2.03125 1.46875,2.03125 1.46875,0 1.46875,-1.609375 1.46875,-2.03125 z m -1.46875,1.84375 c -0.25,0 -0.65625,-0.125 -0.8125,-0.625 -0.09375,-0.34375 -0.09375,-0.921875 -0.09375,-1.296875 0,-0.40625 0,-0.859375 0.09375,-1.1875 0.140625,-0.53125 0.59375,-0.609375 0.8125,-0.609375 0.265625,0 0.671875,0.125 0.796875,0.578125 0.09375,0.3125 0.09375,0.75 0.09375,1.21875 0,0.375 0,0.984375 -0.09375,1.3125 C 2.453125,-0.140625 2.015625,-0.0625 1.828125,-0.0625 Z m 0,0"
                 id="path101" />
            </g>
            <g
               id="g309541"
               transform="translate(25.661121,4.4840002)"
               style="fill:#0000ff">
              <path
                 style="fill:#0000ff;stroke:none"
                 d="m 3.296875,-1.90625 c 0,-0.4375 0,-2.078125 -1.46875,-2.078125 -1.46875,0 -1.46875,1.640625 -1.46875,2.078125 0,0.421875 0,2.03125 1.46875,2.03125 1.46875,0 1.46875,-1.609375 1.46875,-2.03125 z m -1.46875,1.84375 c -0.25,0 -0.65625,-0.125 -0.8125,-0.625 -0.09375,-0.34375 -0.09375,-0.921875 -0.09375,-1.296875 0,-0.40625 0,-0.859375 0.09375,-1.1875 0.140625,-0.53125 0.59375,-0.609375 0.8125,-0.609375 0.265625,0 0.671875,0.125 0.796875,0.578125 0.09375,0.3125 0.09375,0.75 0.09375,1.21875 0,0.375 0,0.984375 -0.09375,1.3125 C 2.453125,-0.140625 2.015625,-0.0625 1.828125,-0.0625 Z m 0,0"
                 id="path105" />
            </g>
            <g
               id="g309544"
               transform="translate(29.314034,4.4840002)"
               style="fill:#0000ff">
              <path
                 style="fill:#0000ff;stroke:none"
                 d="m 1.859375,-4.171875 v -0.3125 H 0.890625 V 1.5 h 0.96875 V 1.1875 h -0.65625 v -5.359375 z m 0,0"
                 id="path109" />
            </g>
            <g
               id="g309547"
               transform="translate(31.416952,4.4840002)"
               style="fill:#0000ff">
              <path
                 style="fill:#0000ff;stroke:none"
                 d="m 2.078125,-1.609375 c 0.65625,-0.5 0.96875,-0.71875 1.40625,-0.734375 v -0.234375 c -0.078125,0 -0.25,0.015625 -0.4375,0.015625 -0.265625,0 -0.6875,-0.015625 -0.75,-0.015625 V -2.34375 C 2.40625,-2.328125 2.40625,-2.265625 2.40625,-2.25 c 0,0.03125 0,0.125 -0.1875,0.25 L 1.296875,-1.328125 V -4.15625 l -0.953125,0.0625 v 0.234375 c 0.421875,0 0.46875,0.046875 0.46875,0.34375 v 3.03125 c 0,0.25 -0.046875,0.25 -0.46875,0.25 V 0 C 0.515625,-0.015625 0.921875,-0.03125 1.046875,-0.03125 1.140625,-0.03125 1.5625,-0.015625 1.75,0 v -0.234375 c -0.421875,0 -0.46875,0 -0.46875,-0.25 V -1.03125 l 0.453125,-0.328125 c 0.03125,0.03125 0.1875,0.203125 0.671875,0.765625 0.0625,0.078125 0.140625,0.171875 0.140625,0.265625 0,0.078125 -0.09375,0.09375 -0.15625,0.09375 V 0 C 2.515625,-0.015625 2.9375,-0.03125 3.09375,-0.03125 3.328125,-0.03125 3.59375,0 3.640625,0 v -0.234375 c -0.3125,0 -0.390625,-0.046875 -0.609375,-0.28125 z m 0,0"
                 id="path113" />
            </g>
            <g
               id="g309550"
               transform="translate(35.263538,4.4840002)"
               style="fill:#0000ff">
              <path
                 style="fill:#0000ff;stroke:none"
                 d="M 0.953125,-1.046875 C 1.09375,-0.96875 1.328125,-0.875 1.625,-0.875 2.296875,-0.875 2.75,-1.296875 2.75,-1.75 2.75,-2.09375 2.5,-2.3125 2.5,-2.328125 2.765625,-2.5 3.015625,-2.515625 3.109375,-2.515625 3.09375,-2.484375 3.0625,-2.46875 3.0625,-2.375 c 0,0.09375 0.078125,0.1875 0.203125,0.1875 0.140625,0 0.203125,-0.09375 0.203125,-0.203125 0,-0.125 -0.109375,-0.3125 -0.375,-0.3125 -0.25,0 -0.53125,0.09375 -0.734375,0.28125 -0.203125,-0.140625 -0.46875,-0.21875 -0.71875,-0.21875 -0.65625,0 -1.125,0.421875 -1.125,0.890625 0,0.1875 0.078125,0.390625 0.28125,0.59375 -0.125,0.171875 -0.171875,0.34375 -0.171875,0.484375 0,0.328125 0.21875,0.5 0.25,0.53125 -0.234375,0.0625 -0.59375,0.265625 -0.59375,0.59375 0,0.46875 0.71875,0.78125 1.546875,0.78125 C 2.59375,1.234375 3.375,0.953125 3.375,0.4375 3.375,0.296875 3.328125,-0.09375 2.84375,-0.28125 2.5,-0.4375 2.171875,-0.4375 1.609375,-0.4375 c -0.15625,0 -0.375,0 -0.4375,0 C 1.015625,-0.46875 0.875,-0.609375 0.875,-0.828125 c 0,-0.125 0.0625,-0.203125 0.078125,-0.21875 z m 0.6875,-0.03125 c -0.5,0 -0.625,-0.359375 -0.625,-0.671875 0,-0.109375 0,-0.6875 0.609375,-0.6875 0.53125,0 0.625,0.421875 0.625,0.671875 0,0.125 0,0.6875 -0.609375,0.6875 z M 1.96875,0 C 2.15625,0 2.984375,0 2.984375,0.453125 2.984375,0.75 2.5,1.03125 1.828125,1.03125 1.171875,1.03125 0.671875,0.765625 0.671875,0.453125 0.671875,0.296875 0.796875,0 1.296875,0 Z m 0,0"
                 id="path117" />
            </g>
            <g
               id="g309553"
               transform="translate(38.916451,4.4840002)"
               style="fill:#0000ff">
              <path
                 style="fill:#0000ff;stroke:none"
                 d="m 1.203125,-4.484375 h -0.96875 v 0.3125 h 0.65625 V 1.1875 H 0.234375 V 1.5 h 0.96875 z m 0,0"
                 id="path121" />
            </g>
          </g>
        </g>
      </g>
    </g>
  </g>
</svg>
