<?xml version="1.0" encoding="UTF-8" standalone="no"?>
<!-- Created with Inkscape (http://www.inkscape.org/) -->

<svg
   width="191.99998"
   height="143.99995"
   viewBox="0 0 50.799995 38.099989"
   version="1.1"
   id="svg5"
   sodipodi:docname="h01.svg"
   inkscape:version="1.2.1 (9c6d41e410, 2022-07-14)"
   xmlns:inkscape="http://www.inkscape.org/namespaces/inkscape"
   xmlns:sodipodi="http://sodipodi.sourceforge.net/DTD/sodipodi-0.dtd"
   xmlns="http://www.w3.org/2000/svg"
   xmlns:svg="http://www.w3.org/2000/svg">
  <sodipodi:namedview
     id="namedview7"
     pagecolor="#ffffff"
     bordercolor="#000000"
     borderopacity="0.25"
     inkscape:showpageshadow="false"
     inkscape:pageopacity="0.0"
     inkscape:pagecheckerboard="false"
     inkscape:deskcolor="#d1d1d1"
     inkscape:document-units="px"
     showgrid="true"
     inkscape:zoom="1.4142136"
     inkscape:cx="-111.72287"
     inkscape:cy="102.88404"
     inkscape:window-width="1920"
     inkscape:window-height="1050"
     inkscape:window-x="0"
     inkscape:window-y="18"
     inkscape:window-maximized="1"
     inkscape:current-layer="layer1"
     showguides="true">
    <inkscape:grid
       type="xygrid"
       id="grid1223"
       spacingx="1.0583333"
       spacingy="1.0583333"
       empspacing="4"
       originx="5.0517578e-06"
       originy="6.2171665e-07" />
    <sodipodi:guide
       position="-101.6,160.86666"
       orientation="0,-1"
       id="guide1694"
       inkscape:locked="false" />
    <sodipodi:guide
       position="-101.6,160.86666"
       orientation="1,0"
       id="guide1696"
       inkscape:locked="false" />
    <sodipodi:guide
       position="-50.799997,160.86667"
       orientation="1,0"
       id="guide21735"
       inkscape:locked="false" />
    <sodipodi:guide
       position="-101.6,118.53332"
       orientation="0,-1"
       id="guide21941"
       inkscape:locked="false" />
    <sodipodi:guide
       position="-1.0368998e-06,160.86667"
       orientation="1,0"
       id="guide24413"
       inkscape:locked="false" />
    <sodipodi:guide
       position="-101.6,76.199991"
       orientation="0,-1"
       id="guide35496"
       inkscape:locked="false" />
    <sodipodi:guide
       position="50.800009,160.86665"
       orientation="1,0"
       id="guide50631"
       inkscape:locked="false" />
    <sodipodi:guide
       position="-101.6,38.099991"
       orientation="0,-1"
       id="guide53352"
       inkscape:locked="false" />
    <sodipodi:guide
       position="-101.6,8.9573198e-07"
       orientation="0,-1"
       id="guide159195"
       inkscape:locked="false" />
    <sodipodi:guide
       position="-33.866664,8.9573198e-07"
       orientation="1,0"
       id="guide500405"
       inkscape:locked="false" />
    <sodipodi:guide
       position="-101.6,-38.099999"
       orientation="0,-1"
       id="guide503869"
       inkscape:locked="false" />
    <sodipodi:guide
       position="33.866669,-42.333339"
       orientation="1,0"
       id="guide515144"
       inkscape:locked="false" />
    <sodipodi:guide
       position="101.6,-42.333339"
       orientation="1,0"
       id="guide645019"
       inkscape:locked="false" />
    <sodipodi:guide
       position="-42.33333,-80.433337"
       orientation="1,0"
       id="guide686712"
       inkscape:locked="false" />
    <sodipodi:guide
       position="-101.6,-76.2"
       orientation="0,-1"
       id="guide686714"
       inkscape:locked="false" />
    <sodipodi:guide
       position="16.933339,-80.433336"
       orientation="1,0"
       id="guide765939"
       inkscape:locked="false" />
    <sodipodi:guide
       position="76.199999,-80.433336"
       orientation="1,0"
       id="guide816936"
       inkscape:locked="false" />
    <sodipodi:guide
       position="152.4,8.9573198e-07"
       orientation="1,0"
       id="guide839718"
       inkscape:locked="false" />
    <sodipodi:guide
       position="-101.6,-118.53333"
       orientation="0,-1"
       id="guide264220"
       inkscape:locked="false" />
    <sodipodi:guide
       position="-101.6,-156.63333"
       orientation="0,-1"
       id="guide268749"
       inkscape:locked="false" />
  </sodipodi:namedview>
  <defs
     id="defs2">
    <marker
       style="overflow:visible"
       id="Arrow2-4"
       refX="0"
       refY="0"
       orient="auto-start-reverse"
       inkscape:stockid="Arrow2"
       markerWidth="3.3000002"
       markerHeight="2.4000001"
       viewBox="0 0 7.7 5.6"
       inkscape:isstock="true"
       inkscape:collect="always"
       preserveAspectRatio="xMidYMid">
      <path
         transform="scale(0.7)"
         d="M -2,-4 9,0 -2,4 c 2,-2.33 2,-5.66 0,-8 z"
         style="fill:context-stroke;fill-rule:evenodd;stroke:none"
         id="arrow2L-4" />
    </marker>
    <clipPath
       id="clipPath7433">
      <path
         d="m 6,3 h 5 V 6.441406 H 6 Z m 0,0"
         id="path11204" />
    </clipPath>
    <clipPath
       id="clipPath3571">
      <path
         d="m 6,3 h 4 V 7.605469 H 6 Z m 0,0"
         id="path79087" />
    </clipPath>
    <marker
       style="overflow:visible"
       id="Arrow2-0"
       refX="0"
       refY="0"
       orient="auto-start-reverse"
       inkscape:stockid="Arrow2"
       markerWidth="4"
       markerHeight="2.4000001"
       viewBox="0 0 7.7 5.6"
       inkscape:isstock="true"
       inkscape:collect="always"
       preserveAspectRatio="xMidYMid">
      <path
         transform="scale(0.7)"
         d="M -2,-4 9,0 -2,4 c 2,-2.33 2,-5.66 0,-8 z"
         style="fill:context-stroke;fill-rule:evenodd;stroke:none"
         id="arrow2L-2" />
    </marker>
    <marker
       style="overflow:visible"
       id="Arrow2-0-3"
       refX="0"
       refY="0"
       orient="auto-start-reverse"
       inkscape:stockid="Arrow2"
       markerWidth="4"
       markerHeight="2.4000001"
       viewBox="0 0 7.7 5.6"
       inkscape:isstock="true"
       inkscape:collect="always"
       preserveAspectRatio="xMidYMid">
      <path
         transform="scale(0.7)"
         d="M -2,-4 9,0 -2,4 c 2,-2.33 2,-5.66 0,-8 z"
         style="fill:context-stroke;fill-rule:evenodd;stroke:none"
         id="arrow2L-2-8" />
    </marker>
    <clipPath
       id="clipPath1547-3">
      <path
         d="M 0,0 H 9 V 10.910156 H 0 Z m 0,0"
         id="path5093-6" />
    </clipPath>
    <clipPath
       id="clipPath6104-7">
      <path
         d="m 18,0 h 2 v 10.910156 h -2 z m 0,0"
         id="path1337-5" />
    </clipPath>
    <clipPath
       id="clipPath3850-3">
      <path
         d="M 0,0 H 9 V 10.910156 H 0 Z m 0,0"
         id="path7450-5" />
    </clipPath>
    <clipPath
       id="clipPath852-6">
      <path
         d="m 18,0 h 2 v 10.910156 h -2 z m 0,0"
         id="path3371-2" />
    </clipPath>
    <clipPath
       id="clipPath1547-3-9">
      <path
         d="M 0,0 H 9 V 10.910156 H 0 Z m 0,0"
         id="path5093-6-1" />
    </clipPath>
    <clipPath
       id="clipPath6104-7-2">
      <path
         d="m 18,0 h 2 v 10.910156 h -2 z m 0,0"
         id="path1337-5-7" />
    </clipPath>
    <clipPath
       id="clipPath1990">
      <path
         d="M 0,0 H 29.972656 V 5.976562 H 0 Z m 0,0"
         id="path71533" />
    </clipPath>
    <clipPath
       id="clipPath352">
      <path
         d="m 6,3 h 4 V 7.605469 H 6 Z m 0,0"
         id="path9412" />
    </clipPath>
  </defs>
  <g
     inkscape:label="Capa 1"
     inkscape:groupmode="layer"
     id="layer1"
     transform="translate(-101.6,-122.76664)">
    <rect
       style="fill:#ffffff;stroke:none;stroke-width:0.264583;stroke-linejoin:round;stroke-dasharray:none;stroke-dashoffset:0;paint-order:stroke markers fill"
       id="rect179435"
       width="50.799999"
       height="38.099998"
       x="101.6"
       y="122.76664"
       inkscape:export-filename="g04.svg"
       inkscape:export-xdpi="96"
       inkscape:export-ydpi="96" />
    <path
       style="fill:none;stroke:#0000ff;stroke-width:0.132292;stroke-linejoin:round;stroke-dasharray:0.264583, 0.132292;stroke-dashoffset:0;paint-order:stroke markers fill"
       d="m 139.69998,126.99997 h 6.35"
       id="path179437"
       sodipodi:nodetypes="cc" />
    <g
       id="g179459"
       transform="translate(101.59998)">
      <path
         style="fill:none;stroke:#000000;stroke-width:0.264583;stroke-linejoin:round;stroke-dasharray:none;paint-order:stroke markers fill"
         d="m 42.333319,125.94162 -1.05833,1.05834"
         id="path179439"
         sodipodi:nodetypes="cc" />
      <path
         style="fill:none;stroke:#000000;stroke-width:0.264583;stroke-linejoin:round;stroke-dasharray:none;paint-order:stroke markers fill"
         d="m 42.333319,124.88329 c -2.11666,2.11667 -2.11666,2.11667 -2.11666,2.11667"
         id="path179441" />
      <path
         style="fill:none;stroke:#000000;stroke-width:0.264583;stroke-linejoin:round;stroke-dasharray:none;paint-order:stroke markers fill"
         d="m 41.274989,124.88329 c -2.11667,2.11667 -2.11667,2.11667 -2.11667,2.11667"
         id="path179443" />
      <path
         style="fill:none;stroke:#000000;stroke-width:0.264583;stroke-linejoin:round;stroke-dasharray:none;paint-order:stroke markers fill"
         d="m 40.216659,124.88329 c -2.11667,2.11667 -2.11667,2.11667 -2.11667,2.11667"
         id="path179445" />
      <path
         style="fill:none;stroke:#000000;stroke-width:0.264583;stroke-linejoin:round;stroke-dasharray:none;paint-order:stroke markers fill"
         d="m 39.158319,124.88329 c -2.11666,2.11667 -2.11666,2.11667 -2.11666,2.11667"
         id="path179447" />
      <path
         style="fill:none;stroke:#000000;stroke-width:0.264583;stroke-linejoin:round;stroke-dasharray:none;paint-order:stroke markers fill"
         d="m 38.099989,124.88329 c -2.11667,2.11667 -2.11667,2.11667 -2.11667,2.11667"
         id="path179449" />
      <path
         style="fill:none;stroke:#000000;stroke-width:0.264583;stroke-linejoin:round;stroke-dasharray:none;paint-order:stroke markers fill"
         d="m 37.041649,124.88329 c -2.11666,2.11667 -2.11666,2.11667 -2.11666,2.11667"
         id="path179451" />
      <path
         style="fill:none;stroke:#000000;stroke-width:0.264583;stroke-linejoin:round;stroke-dasharray:none;paint-order:stroke markers fill"
         d="m 35.983319,124.88329 c -2.11666,2.11667 -2.11666,2.11667 -2.11666,2.11667"
         id="path179453" />
      <path
         style="fill:none;stroke:#000000;stroke-width:0.264583;stroke-linejoin:round;stroke-dasharray:none;paint-order:stroke markers fill"
         d="m 34.924989,124.88329 -1.05833,1.05833"
         id="path179455"
         sodipodi:nodetypes="cc" />
      <path
         style="fill:none;stroke:#000000;stroke-width:0.264583;stroke-linejoin:round;paint-order:stroke markers fill"
         d="m 42.333332,126.99996 c 0,0 -8.466666,0 -8.466666,0"
         id="path179457" />
    </g>
    <path
       style="fill:none;stroke:#0000ff;stroke-width:0.132292;stroke-linejoin:round;stroke-dasharray:0.264583, 0.132292;stroke-dashoffset:0;paint-order:stroke markers fill"
       d="M 105.83331,146.04998 V 135.46664"
       id="path179461"
       sodipodi:nodetypes="cc" />
    <path
       style="fill:none;stroke:#0000ff;stroke-width:0.132292;stroke-linejoin:round;stroke-dasharray:0.264583, 0.132292;stroke-dashoffset:0;paint-order:stroke markers fill"
       d="m 139.69998,146.04997 h 6.35"
       id="path179463"
       sodipodi:nodetypes="cc" />
    <rect
       style="fill:#cccccc;stroke:#000000;stroke-width:0.132292;stroke-linejoin:round;stroke-dasharray:none;paint-order:stroke markers fill"
       id="rect179465"
       width="33.866665"
       height="4.2333374"
       x="105.83333"
       y="143.93329" />
    <path
       id="path179479"
       style="fill:#000000;stroke:none;stroke-width:0.396875;stroke-linejoin:round;stroke-dasharray:none;stroke-dashoffset:0;paint-order:stroke markers fill"
       d="m 105.83331,143.93331 v 4.23333 h 2.11667 a 2.116663,2.116663 0 0 0 2.11666,-2.11666 2.116663,2.116663 0 0 0 -2.11666,-2.11667 z m 2.11667,1.60094 a 0.51550913,0.51550913 0 0 1 0.51573,0.51573 0.51550913,0.51550913 0 0 1 -0.51573,0.51573 0.51550913,0.51550913 0 0 1 -0.51574,-0.51573 0.51550913,0.51550913 0 0 1 0.51574,-0.51573 z" />
    <path
       style="fill:none;stroke:#000000;stroke-width:0.264583;stroke-linejoin:round;stroke-dasharray:none;paint-order:stroke markers fill"
       d="m 105.83331,142.87497 -1.05833,-1.05833"
       id="path179493"
       sodipodi:nodetypes="cc" />
    <path
       style="fill:none;stroke:#000000;stroke-width:0.264583;stroke-linejoin:round;stroke-dasharray:none;paint-order:stroke markers fill"
       d="m 104.77498,150.2833 -1.05834,-1.05834"
       id="path179495"
       sodipodi:nodetypes="cc" />
    <path
       style="fill:none;stroke:#000000;stroke-width:0.264583;stroke-linejoin:round;stroke-dasharray:none;paint-order:stroke markers fill"
       d="m 105.83331,150.28329 c -2.11667,-2.11666 -2.11667,-2.11666 -2.11667,-2.11666"
       id="path179497" />
    <path
       style="fill:none;stroke:#000000;stroke-width:0.264583;stroke-linejoin:round;stroke-dasharray:none;paint-order:stroke markers fill"
       d="m 105.83331,149.22496 c -2.11667,-2.11667 -2.11667,-2.11667 -2.11667,-2.11667"
       id="path179499" />
    <path
       style="fill:none;stroke:#000000;stroke-width:0.264583;stroke-linejoin:round;stroke-dasharray:none;paint-order:stroke markers fill"
       d="m 105.83331,148.16663 c -2.11667,-2.11667 -2.11667,-2.11667 -2.11667,-2.11667"
       id="path179501" />
    <path
       style="fill:none;stroke:#000000;stroke-width:0.264583;stroke-linejoin:round;stroke-dasharray:none;paint-order:stroke markers fill"
       d="m 105.83331,147.10829 c -2.11667,-2.11666 -2.11667,-2.11666 -2.11667,-2.11666"
       id="path179503" />
    <path
       style="fill:none;stroke:#000000;stroke-width:0.264583;stroke-linejoin:round;stroke-dasharray:none;paint-order:stroke markers fill"
       d="m 105.83331,146.04996 c -2.11667,-2.11667 -2.11667,-2.11667 -2.11667,-2.11667"
       id="path179505" />
    <path
       style="fill:none;stroke:#000000;stroke-width:0.264583;stroke-linejoin:round;stroke-dasharray:none;paint-order:stroke markers fill"
       d="m 105.83331,144.99162 c -2.11667,-2.11666 -2.11667,-2.11666 -2.11667,-2.11666"
       id="path179507" />
    <path
       style="fill:none;stroke:#000000;stroke-width:0.264583;stroke-linejoin:round;stroke-dasharray:none;paint-order:stroke markers fill"
       d="m 105.83331,141.81664 v 8.46666"
       id="path179509" />
    <path
       style="fill:none;stroke:#000000;stroke-width:0.264583;stroke-linejoin:round;stroke-dasharray:none;paint-order:stroke markers fill"
       d="m 105.83331,143.9333 c -2.11667,-2.11666 -2.11667,-2.11666 -2.11667,-2.11666"
       id="path179511" />
    <path
       style="fill:#cccccc;stroke:#000000;stroke-width:0.396875;stroke-linejoin:round;stroke-dasharray:none;stroke-dashoffset:0;paint-order:stroke markers fill"
       id="path179513"
       sodipodi:type="arc"
       sodipodi:cx="105.83333"
       sodipodi:cy="146.04991"
       sodipodi:rx="0.19304819"
       sodipodi:ry="0.19304819"
       sodipodi:start="4.712389"
       sodipodi:end="1.5707963"
       sodipodi:arc-type="arc"
       d="m 105.83333,145.85686 a 0.19304819,0.19304819 0 0 1 0.19305,0.19305 0.19304819,0.19304819 0 0 1 -0.19305,0.19305"
       sodipodi:open="true" />
    <circle
       style="fill:#ff0000;stroke:none;stroke-width:0.396875;stroke-linejoin:round;stroke-dasharray:none;stroke-dashoffset:0;paint-order:stroke markers fill"
       id="circle179515"
       cy="146.04996"
       cx="105.83333"
       r="0.78441644" />
    <circle
       style="fill:#ff0000;stroke:none;stroke-width:0.396875;stroke-linejoin:round;stroke-dasharray:none;stroke-dashoffset:0;paint-order:stroke markers fill"
       id="circle179517"
       cy="146.04996"
       cx="131.23332"
       r="0.78441644" />
    <circle
       style="fill:#ff0000;stroke:none;stroke-width:0.396875;stroke-linejoin:round;stroke-dasharray:none;stroke-dashoffset:0;paint-order:stroke markers fill"
       id="circle179519"
       cy="146.04996"
       cx="139.69998"
       r="0.78441644" />
    <circle
       style="fill:#ff0000;stroke:none;stroke-width:0.396875;stroke-linejoin:round;stroke-dasharray:none;stroke-dashoffset:0;paint-order:stroke markers fill"
       id="circle179521"
       cy="126.99998"
       cx="139.69998"
       r="0.78441644" />
    <path
       style="fill:none;stroke:#ff0000;stroke-width:0.396875;stroke-linejoin:round;stroke-dasharray:none;marker-end:url(#Arrow2-4);paint-order:stroke markers fill"
       d="m 131.23331,146.04997 v 8.46667"
       id="path179523"
       sodipodi:nodetypes="cc" />
    <path
       style="fill:none;stroke:#ff0000;stroke-width:0.396875;stroke-linejoin:round;stroke-dasharray:none;marker-end:url(#Arrow2-4);paint-order:stroke markers fill"
       d="m 105.83331,146.04997 v -4.23333"
       id="path179525"
       sodipodi:nodetypes="cc" />
    <path
       style="fill:none;stroke:#ff0000;stroke-width:0.396875;stroke-linejoin:round;stroke-dasharray:none;marker-end:url(#Arrow2-4);paint-order:stroke markers fill"
       d="m 105.83331,146.04997 h 4.23333"
       id="path179527"
       sodipodi:nodetypes="cc" />
    <path
       style="fill:none;stroke:#000000;stroke-width:0.264583;stroke-linejoin:round;stroke-dasharray:none;paint-order:stroke markers fill"
       d="m 139.69998,126.99997 v 19.05"
       id="path179529"
       sodipodi:nodetypes="cc" />
    <path
       style="fill:none;stroke:#ff0000;stroke-width:0.396875;stroke-linejoin:round;stroke-dasharray:none;marker-end:url(#Arrow2-0);paint-order:stroke markers fill"
       d="M 139.69998,146.04996 V 140.7583"
       id="path179531"
       sodipodi:nodetypes="cc" />
    <g
       inkscape:label=""
       transform="matrix(0.56806002,0,0,0.56806002,146.9076,135.43373)"
       id="g179585"
       style="fill:#0000ff">
      <g
         id="g179583"
         transform="matrix(0.352778,0,0,0.352778,-0.159852,-0.00357193)"
         style="fill:#0000ff">
        <g
           clip-path="url(#clipPath1547-3-9)"
           clip-rule="nonzero"
           id="g179567"
           style="fill:#0000ff">
          <g
             style="fill:#0000ff;fill-opacity:1"
             id="g179565">
            <g
               id="g179559"
               transform="translate(0,8.1820002)"
               style="fill:#0000ff">
              <path
                 style="fill:#0000ff;stroke:none"
                 d="M 3.15625,-3.84375 C 4.0625,-4.140625 4.6875,-4.890625 4.6875,-5.765625 c 0,-0.890625 -0.953125,-1.5 -2,-1.5 -1.109375,0 -1.9375,0.65625 -1.9375,1.484375 0,0.359375 0.25,0.5625 0.5625,0.5625 0.328125,0 0.546875,-0.234375 0.546875,-0.546875 0,-0.546875 -0.5,-0.546875 -0.671875,-0.546875 C 1.53125,-6.84375 2.25,-6.984375 2.640625,-6.984375 3.09375,-6.984375 3.6875,-6.75 3.6875,-5.765625 3.6875,-5.640625 3.671875,-5 3.375,-4.53125 3.046875,-4 2.6875,-3.96875 2.40625,-3.953125 c -0.078125,0 -0.34375,0.03125 -0.421875,0.03125 -0.09375,0 -0.15625,0.015625 -0.15625,0.125 0,0.125 0.0625,0.125 0.25,0.125 H 2.5625 c 0.890625,0 1.296875,0.734375 1.296875,1.8125 0,1.484375 -0.75,1.796875 -1.234375,1.796875 -0.46875,0 -1.28125,-0.1875 -1.671875,-0.828125 0.390625,0.046875 0.71875,-0.1875 0.71875,-0.609375 0,-0.390625 -0.28125,-0.609375 -0.609375,-0.609375 -0.25,0 -0.609375,0.15625 -0.609375,0.640625 0,0.984375 1.015625,1.703125 2.203125,1.703125 1.328125,0 2.328125,-0.984375 2.328125,-2.09375 0,-0.90625 -0.6875,-1.75 -1.828125,-1.984375 z m 0,0"
                 id="path179557" />
            </g>
            <g
               id="g179563"
               transform="translate(5.4545498,8.1820002)"
               style="fill:#0000ff">
              <path
                 style="fill:#0000ff;stroke:none"
                 d="M 2.78125,2.71875 V 2.296875 H 1.71875 V -7.75 h 1.0625 v -0.421875 h -1.5 V 2.71875 Z m 0,0"
                 id="path179561" />
            </g>
          </g>
        </g>
        <g
           style="fill:#0000ff;fill-opacity:1"
           id="g179573">
          <g
             id="g179571"
             transform="translate(8.4849997,8.1820002)"
             style="fill:#0000ff">
            <path
               style="fill:#0000ff;stroke:none"
               d="m 0.953125,-0.640625 c -0.03125,0.15625 -0.09375,0.40625 -0.09375,0.46875 0,0.1875 0.15625,0.296875 0.3125,0.296875 C 1.3125,0.125 1.5,0.03125 1.578125,-0.1875 1.59375,-0.203125 1.71875,-0.71875 1.78125,-1 l 0.25,-0.96875 c 0.0625,-0.25 0.125,-0.484375 0.1875,-0.734375 0.03125,-0.1875 0.125,-0.5 0.140625,-0.546875 0.15625,-0.34375 0.734375,-1.328125 1.78125,-1.328125 0.484375,0 0.578125,0.40625 0.578125,0.765625 0,0.265625 -0.078125,0.578125 -0.15625,0.90625 L 4.25,-1.640625 4.03125,-0.8125 c -0.046875,0.21875 -0.140625,0.578125 -0.140625,0.640625 0,0.1875 0.15625,0.296875 0.3125,0.296875 0.34375,0 0.40625,-0.28125 0.5,-0.625 0.15625,-0.609375 0.546875,-2.203125 0.65625,-2.625 0.03125,-0.140625 0.609375,-1.453125 1.796875,-1.453125 0.46875,0 0.59375,0.375 0.59375,0.765625 0,0.609375 -0.46875,1.859375 -0.6875,2.4375 -0.09375,0.265625 -0.140625,0.375 -0.140625,0.59375 0,0.515625 0.390625,0.90625 0.890625,0.90625 1.03125,0 1.4375,-1.59375 1.4375,-1.6875 0,-0.109375 -0.09375,-0.109375 -0.125,-0.109375 -0.109375,0 -0.109375,0.03125 -0.171875,0.203125 C 8.796875,-0.890625 8.4375,-0.125 7.84375,-0.125 c -0.1875,0 -0.265625,-0.109375 -0.265625,-0.359375 0,-0.265625 0.09375,-0.53125 0.203125,-0.765625 0.203125,-0.578125 0.65625,-1.78125 0.65625,-2.40625 0,-0.703125 -0.4375,-1.171875 -1.25,-1.171875 -0.8125,0 -1.375,0.484375 -1.78125,1.0625 C 5.40625,-3.90625 5.359375,-4.28125 5.0625,-4.53125 4.78125,-4.765625 4.4375,-4.828125 4.171875,-4.828125 3.1875,-4.828125 2.65625,-4.125 2.46875,-3.875 c -0.0625,-0.625 -0.515625,-0.953125 -1,-0.953125 -0.515625,0 -0.71875,0.4375 -0.8125,0.625 -0.203125,0.390625 -0.34375,1.03125 -0.34375,1.0625 0,0.109375 0.109375,0.109375 0.140625,0.109375 0.109375,0 0.109375,-0.015625 0.171875,-0.25 0.1875,-0.78125 0.40625,-1.296875 0.796875,-1.296875 0.1875,0 0.34375,0.078125 0.34375,0.5 0,0.234375 -0.03125,0.34375 -0.171875,0.921875 z m 0,0"
               id="path179569" />
          </g>
        </g>
        <g
           clip-path="url(#clipPath6104-7-2)"
           clip-rule="nonzero"
           id="g179581"
           style="fill:#0000ff">
          <g
             style="fill:#0000ff;fill-opacity:1"
             id="g179579">
            <g
               id="g179577"
               transform="translate(18.063,8.1820002)"
               style="fill:#0000ff">
              <path
                 style="fill:#0000ff;stroke:none"
                 d="m 1.734375,-8.171875 h -1.5 V -7.75 h 1.0625 V 2.296875 h -1.0625 V 2.71875 h 1.5 z m 0,0"
                 id="path179575" />
            </g>
          </g>
        </g>
      </g>
    </g>
    <path
       style="fill:none;stroke:#0000ff;stroke-width:0.396875;stroke-linejoin:round;stroke-dasharray:none;paint-order:stroke markers fill"
       d="m 146.04998,126.99997 h 4.23333"
       id="path179587" />
    <path
       style="fill:none;stroke:#0000ff;stroke-width:0.396875;stroke-linejoin:round;stroke-dasharray:none;paint-order:stroke markers fill"
       d="m 148.16664,126.99998 v 7.40833"
       id="path179589"
       sodipodi:nodetypes="cc" />
    <path
       style="fill:none;stroke:#0000ff;stroke-width:0.396875;stroke-linejoin:round;stroke-dasharray:none;paint-order:stroke markers fill"
       d="m 146.04998,146.04999 h 4.23334"
       id="path179591" />
    <path
       style="fill:none;stroke:#0000ff;stroke-width:0.396875;stroke-linejoin:round;stroke-dasharray:none;paint-order:stroke markers fill"
       d="m 148.16665,138.64164 v 7.40835"
       id="path179593"
       sodipodi:nodetypes="cc" />
    <g
       inkscape:label=""
       transform="matrix(0.56806002,0,0,0.56806002,116.59503,132.25873)"
       id="g179623"
       style="fill:#0000ff">
      <g
         id="g179621"
         transform="matrix(0.352778,0,0,0.352778,-0.159852,-0.00357193)"
         style="fill:#0000ff">
        <g
           clip-path="url(#clipPath1547-3)"
           clip-rule="nonzero"
           id="g179605"
           style="fill:#0000ff">
          <g
             style="fill:#0000ff;fill-opacity:1"
             id="g179603">
            <g
               id="g179597"
               transform="translate(0,8.1820002)"
               style="fill:#0000ff">
              <path
                 style="fill:#0000ff;stroke:none"
                 d="M 3.15625,-3.84375 C 4.0625,-4.140625 4.6875,-4.890625 4.6875,-5.765625 c 0,-0.890625 -0.953125,-1.5 -2,-1.5 -1.109375,0 -1.9375,0.65625 -1.9375,1.484375 0,0.359375 0.25,0.5625 0.5625,0.5625 0.328125,0 0.546875,-0.234375 0.546875,-0.546875 0,-0.546875 -0.5,-0.546875 -0.671875,-0.546875 C 1.53125,-6.84375 2.25,-6.984375 2.640625,-6.984375 3.09375,-6.984375 3.6875,-6.75 3.6875,-5.765625 3.6875,-5.640625 3.671875,-5 3.375,-4.53125 3.046875,-4 2.6875,-3.96875 2.40625,-3.953125 c -0.078125,0 -0.34375,0.03125 -0.421875,0.03125 -0.09375,0 -0.15625,0.015625 -0.15625,0.125 0,0.125 0.0625,0.125 0.25,0.125 H 2.5625 c 0.890625,0 1.296875,0.734375 1.296875,1.8125 0,1.484375 -0.75,1.796875 -1.234375,1.796875 -0.46875,0 -1.28125,-0.1875 -1.671875,-0.828125 0.390625,0.046875 0.71875,-0.1875 0.71875,-0.609375 0,-0.390625 -0.28125,-0.609375 -0.609375,-0.609375 -0.25,0 -0.609375,0.15625 -0.609375,0.640625 0,0.984375 1.015625,1.703125 2.203125,1.703125 1.328125,0 2.328125,-0.984375 2.328125,-2.09375 0,-0.90625 -0.6875,-1.75 -1.828125,-1.984375 z m 0,0"
                 id="path179595" />
            </g>
            <g
               id="g179601"
               transform="translate(5.4545498,8.1820002)"
               style="fill:#0000ff">
              <path
                 style="fill:#0000ff;stroke:none"
                 d="M 2.78125,2.71875 V 2.296875 H 1.71875 V -7.75 h 1.0625 v -0.421875 h -1.5 V 2.71875 Z m 0,0"
                 id="path179599" />
            </g>
          </g>
        </g>
        <g
           style="fill:#0000ff;fill-opacity:1"
           id="g179611">
          <g
             id="g179609"
             transform="translate(8.4849997,8.1820002)"
             style="fill:#0000ff">
            <path
               style="fill:#0000ff;stroke:none"
               d="m 0.953125,-0.640625 c -0.03125,0.15625 -0.09375,0.40625 -0.09375,0.46875 0,0.1875 0.15625,0.296875 0.3125,0.296875 C 1.3125,0.125 1.5,0.03125 1.578125,-0.1875 1.59375,-0.203125 1.71875,-0.71875 1.78125,-1 l 0.25,-0.96875 c 0.0625,-0.25 0.125,-0.484375 0.1875,-0.734375 0.03125,-0.1875 0.125,-0.5 0.140625,-0.546875 0.15625,-0.34375 0.734375,-1.328125 1.78125,-1.328125 0.484375,0 0.578125,0.40625 0.578125,0.765625 0,0.265625 -0.078125,0.578125 -0.15625,0.90625 L 4.25,-1.640625 4.03125,-0.8125 c -0.046875,0.21875 -0.140625,0.578125 -0.140625,0.640625 0,0.1875 0.15625,0.296875 0.3125,0.296875 0.34375,0 0.40625,-0.28125 0.5,-0.625 0.15625,-0.609375 0.546875,-2.203125 0.65625,-2.625 0.03125,-0.140625 0.609375,-1.453125 1.796875,-1.453125 0.46875,0 0.59375,0.375 0.59375,0.765625 0,0.609375 -0.46875,1.859375 -0.6875,2.4375 -0.09375,0.265625 -0.140625,0.375 -0.140625,0.59375 0,0.515625 0.390625,0.90625 0.890625,0.90625 1.03125,0 1.4375,-1.59375 1.4375,-1.6875 0,-0.109375 -0.09375,-0.109375 -0.125,-0.109375 -0.109375,0 -0.109375,0.03125 -0.171875,0.203125 C 8.796875,-0.890625 8.4375,-0.125 7.84375,-0.125 c -0.1875,0 -0.265625,-0.109375 -0.265625,-0.359375 0,-0.265625 0.09375,-0.53125 0.203125,-0.765625 0.203125,-0.578125 0.65625,-1.78125 0.65625,-2.40625 0,-0.703125 -0.4375,-1.171875 -1.25,-1.171875 -0.8125,0 -1.375,0.484375 -1.78125,1.0625 C 5.40625,-3.90625 5.359375,-4.28125 5.0625,-4.53125 4.78125,-4.765625 4.4375,-4.828125 4.171875,-4.828125 3.1875,-4.828125 2.65625,-4.125 2.46875,-3.875 c -0.0625,-0.625 -0.515625,-0.953125 -1,-0.953125 -0.515625,0 -0.71875,0.4375 -0.8125,0.625 -0.203125,0.390625 -0.34375,1.03125 -0.34375,1.0625 0,0.109375 0.109375,0.109375 0.140625,0.109375 0.109375,0 0.109375,-0.015625 0.171875,-0.25 0.1875,-0.78125 0.40625,-1.296875 0.796875,-1.296875 0.1875,0 0.34375,0.078125 0.34375,0.5 0,0.234375 -0.03125,0.34375 -0.171875,0.921875 z m 0,0"
               id="path179607" />
          </g>
        </g>
        <g
           clip-path="url(#clipPath6104-7)"
           clip-rule="nonzero"
           id="g179619"
           style="fill:#0000ff">
          <g
             style="fill:#0000ff;fill-opacity:1"
             id="g179617">
            <g
               id="g179615"
               transform="translate(18.063,8.1820002)"
               style="fill:#0000ff">
              <path
                 style="fill:#0000ff;stroke:none"
                 d="m 1.734375,-8.171875 h -1.5 V -7.75 h 1.0625 V 2.296875 h -1.0625 V 2.71875 h 1.5 z m 0,0"
                 id="path179613" />
            </g>
          </g>
        </g>
      </g>
    </g>
    <g
       inkscape:label=""
       transform="matrix(0.56806002,0,0,0.56806002,133.6131,132.25873)"
       id="g179653"
       style="fill:#0000ff">
      <g
         id="g179651"
         transform="matrix(0.352778,0,0,0.352778,-0.341753,-0.00357193)"
         style="fill:#0000ff">
        <g
           clip-path="url(#clipPath3850-3)"
           clip-rule="nonzero"
           id="g179635"
           style="fill:#0000ff">
          <g
             style="fill:#0000ff;fill-opacity:1"
             id="g179633">
            <g
               id="g179627"
               transform="translate(0,8.1820002)"
               style="fill:#0000ff">
              <path
                 style="fill:#0000ff;stroke:none"
                 d="m 3.203125,-6.984375 c 0,-0.25 0,-0.28125 -0.25,-0.28125 C 2.28125,-6.5625 1.3125,-6.5625 0.96875,-6.5625 v 0.328125 c 0.21875,0 0.859375,0 1.4375,-0.28125 v 5.65625 c 0,0.390625 -0.046875,0.515625 -1.015625,0.515625 H 1.03125 V 0 c 0.390625,-0.03125 1.328125,-0.03125 1.765625,-0.03125 0.4375,0 1.390625,0 1.765625,0.03125 V -0.34375 H 4.21875 c -0.984375,0 -1.015625,-0.109375 -1.015625,-0.515625 z m 0,0"
                 id="path179625" />
            </g>
            <g
               id="g179631"
               transform="translate(5.4545498,8.1820002)"
               style="fill:#0000ff">
              <path
                 style="fill:#0000ff;stroke:none"
                 d="M 2.78125,2.71875 V 2.296875 H 1.71875 V -7.75 h 1.0625 v -0.421875 h -1.5 V 2.71875 Z m 0,0"
                 id="path179629" />
            </g>
          </g>
        </g>
        <g
           style="fill:#0000ff;fill-opacity:1"
           id="g179641">
          <g
             id="g179639"
             transform="translate(8.4849997,8.1820002)"
             style="fill:#0000ff">
            <path
               style="fill:#0000ff;stroke:none"
               d="m 0.953125,-0.640625 c -0.03125,0.15625 -0.09375,0.40625 -0.09375,0.46875 0,0.1875 0.15625,0.296875 0.3125,0.296875 C 1.3125,0.125 1.5,0.03125 1.578125,-0.1875 1.59375,-0.203125 1.71875,-0.71875 1.78125,-1 l 0.25,-0.96875 c 0.0625,-0.25 0.125,-0.484375 0.1875,-0.734375 0.03125,-0.1875 0.125,-0.5 0.140625,-0.546875 0.15625,-0.34375 0.734375,-1.328125 1.78125,-1.328125 0.484375,0 0.578125,0.40625 0.578125,0.765625 0,0.265625 -0.078125,0.578125 -0.15625,0.90625 L 4.25,-1.640625 4.03125,-0.8125 c -0.046875,0.21875 -0.140625,0.578125 -0.140625,0.640625 0,0.1875 0.15625,0.296875 0.3125,0.296875 0.34375,0 0.40625,-0.28125 0.5,-0.625 0.15625,-0.609375 0.546875,-2.203125 0.65625,-2.625 0.03125,-0.140625 0.609375,-1.453125 1.796875,-1.453125 0.46875,0 0.59375,0.375 0.59375,0.765625 0,0.609375 -0.46875,1.859375 -0.6875,2.4375 -0.09375,0.265625 -0.140625,0.375 -0.140625,0.59375 0,0.515625 0.390625,0.90625 0.890625,0.90625 1.03125,0 1.4375,-1.59375 1.4375,-1.6875 0,-0.109375 -0.09375,-0.109375 -0.125,-0.109375 -0.109375,0 -0.109375,0.03125 -0.171875,0.203125 C 8.796875,-0.890625 8.4375,-0.125 7.84375,-0.125 c -0.1875,0 -0.265625,-0.109375 -0.265625,-0.359375 0,-0.265625 0.09375,-0.53125 0.203125,-0.765625 0.203125,-0.578125 0.65625,-1.78125 0.65625,-2.40625 0,-0.703125 -0.4375,-1.171875 -1.25,-1.171875 -0.8125,0 -1.375,0.484375 -1.78125,1.0625 C 5.40625,-3.90625 5.359375,-4.28125 5.0625,-4.53125 4.78125,-4.765625 4.4375,-4.828125 4.171875,-4.828125 3.1875,-4.828125 2.65625,-4.125 2.46875,-3.875 c -0.0625,-0.625 -0.515625,-0.953125 -1,-0.953125 -0.515625,0 -0.71875,0.4375 -0.8125,0.625 -0.203125,0.390625 -0.34375,1.03125 -0.34375,1.0625 0,0.109375 0.109375,0.109375 0.140625,0.109375 0.109375,0 0.109375,-0.015625 0.171875,-0.25 0.1875,-0.78125 0.40625,-1.296875 0.796875,-1.296875 0.1875,0 0.34375,0.078125 0.34375,0.5 0,0.234375 -0.03125,0.34375 -0.171875,0.921875 z m 0,0"
               id="path179637" />
          </g>
        </g>
        <g
           clip-path="url(#clipPath852-6)"
           clip-rule="nonzero"
           id="g179649"
           style="fill:#0000ff">
          <g
             style="fill:#0000ff;fill-opacity:1"
             id="g179647">
            <g
               id="g179645"
               transform="translate(18.063,8.1820002)"
               style="fill:#0000ff">
              <path
                 style="fill:#0000ff;stroke:none"
                 d="m 1.734375,-8.171875 h -1.5 V -7.75 h 1.0625 V 2.296875 h -1.0625 V 2.71875 h 1.5 z m 0,0"
                 id="path179643" />
            </g>
          </g>
        </g>
      </g>
    </g>
    <path
       style="fill:none;stroke:#0000ff;stroke-width:0.396875;stroke-linejoin:round;stroke-dasharray:none;paint-order:stroke markers fill"
       d="M 105.83331,135.46664 V 131.2333"
       id="path179655" />
    <path
       style="fill:none;stroke:#0000ff;stroke-width:0.396875;stroke-linejoin:round;stroke-dasharray:none;paint-order:stroke markers fill"
       d="m 105.83332,133.34997 h 9.52499"
       id="path179657"
       sodipodi:nodetypes="cc" />
    <path
       style="fill:none;stroke:#0000ff;stroke-width:0.396875;stroke-linejoin:round;stroke-dasharray:none;paint-order:stroke markers fill"
       d="m 139.69998,131.2333 v 4.23334"
       id="path179659" />
    <path
       style="fill:none;stroke:#0000ff;stroke-width:0.396875;stroke-linejoin:round;stroke-dasharray:none;paint-order:stroke markers fill"
       d="m 138.64165,133.34997 h 1.05833"
       id="path179661"
       sodipodi:nodetypes="cc" />
    <path
       style="fill:none;stroke:#0000ff;stroke-width:0.396875;stroke-linejoin:round;stroke-dasharray:none;paint-order:stroke markers fill"
       d="m 121.70831,133.34996 10.58333,1e-5"
       id="path179663"
       sodipodi:nodetypes="cc" />
    <path
       style="fill:none;stroke:#0000ff;stroke-width:0.396875;stroke-linejoin:round;stroke-dasharray:none;paint-order:stroke markers fill"
       d="m 131.23331,131.2333 v 4.23334"
       id="path179665" />
    <path
       style="fill:none;stroke:#0000ff;stroke-width:0.132292;stroke-linejoin:round;stroke-dasharray:0.264583, 0.132292;stroke-dashoffset:0;paint-order:stroke markers fill"
       d="m 131.23331,143.9333 v -8.46666"
       id="path179667"
       sodipodi:nodetypes="cc" />
    <path
       style="fill:none;stroke:#ff0000;stroke-width:0.396875;stroke-linejoin:round;stroke-dasharray:none;marker-end:url(#Arrow2-0-3);paint-order:stroke markers fill"
       d="m 139.69998,126.99997 v 5.29167"
       id="path179669"
       sodipodi:nodetypes="cc" />
    <g
       inkscape:label=""
       transform="translate(126.23245,156.18687)"
       id="g179713"
       style="fill:#0000ff">
      <g
         id="g179711"
         transform="matrix(0.352778,0,0,0.352778,-0.253559,1.32219e-4)"
         style="fill:#0000ff">
        <g
           clip-path="url(#clipPath1990)"
           clip-rule="nonzero"
           id="g179709"
           style="fill:#0000ff">
          <g
             style="fill:#0000ff;fill-opacity:1"
             id="g179707">
            <g
               id="g179673"
               transform="translate(0,4.4840002)"
               style="fill:#0000ff">
              <path
                 style="fill:#0000ff;stroke:none"
                 d="m 2.140625,-3.796875 c 0,-0.1875 -0.015625,-0.1875 -0.203125,-0.1875 -0.390625,0.390625 -1,0.390625 -1.21875,0.390625 v 0.234375 c 0.15625,0 0.5625,0 0.921875,-0.171875 v 3.015625 c 0,0.203125 0,0.28125 -0.625,0.28125 h -0.25 V 0 c 0.328125,-0.03125 0.796875,-0.03125 1.125,-0.03125 0.328125,0 0.796875,0 1.125,0.03125 v -0.234375 h -0.25 c -0.625,0 -0.625,-0.078125 -0.625,-0.28125 z m 0,0"
                 id="path179671" />
            </g>
            <g
               id="g179677"
               transform="translate(3.6529109,4.4840002)"
               style="fill:#0000ff">
              <path
                 style="fill:#0000ff;stroke:none"
                 d="M 1.015625,-3.328125 C 1.21875,-3.265625 1.421875,-3.25 1.625,-3.25 c 0.140625,0 0.46875,0 0.84375,-0.203125 0.109375,-0.0625 0.46875,-0.3125 0.46875,-0.4375 0,-0.078125 -0.046875,-0.09375 -0.078125,-0.09375 -0.015625,0 -0.015625,0 -0.09375,0.03125 C 2.5625,-3.875 2.25,-3.78125 1.859375,-3.78125 1.5625,-3.78125 1.25,-3.84375 0.96875,-3.9375 0.921875,-3.96875 0.890625,-3.984375 0.875,-3.984375 c -0.09375,0 -0.09375,0.078125 -0.09375,0.171875 v 1.796875 c 0,0.09375 0,0.171875 0.109375,0.171875 C 0.953125,-1.84375 0.96875,-1.875 1,-1.921875 1.15625,-2.109375 1.421875,-2.3125 1.890625,-2.3125 2.625,-2.3125 2.625,-1.421875 2.625,-1.234375 2.625,-1 2.609375,-0.65625 2.40625,-0.40625 c -0.1875,0.21875 -0.46875,0.3125 -0.71875,0.3125 -0.40625,0 -0.828125,-0.21875 -0.96875,-0.578125 0.296875,0 0.328125,-0.234375 0.328125,-0.296875 0,-0.171875 -0.125,-0.3125 -0.3125,-0.3125 C 0.6875,-1.28125 0.4375,-1.25 0.4375,-0.953125 0.4375,-0.40625 0.953125,0.125 1.703125,0.125 2.53125,0.125 3.21875,-0.453125 3.21875,-1.203125 3.21875,-1.890625 2.671875,-2.5 1.890625,-2.5 c -0.375,0 -0.6875,0.125 -0.875,0.28125 z m 0,0"
                 id="path179675" />
            </g>
            <g
               id="g179681"
               transform="translate(7.3058228,4.4840002)"
               style="fill:#0000ff">
              <path
                 style="fill:#0000ff;stroke:none"
                 d="m 3.296875,-1.90625 c 0,-0.4375 0,-2.078125 -1.46875,-2.078125 -1.46875,0 -1.46875,1.640625 -1.46875,2.078125 0,0.421875 0,2.03125 1.46875,2.03125 1.46875,0 1.46875,-1.609375 1.46875,-2.03125 z m -1.46875,1.84375 c -0.25,0 -0.65625,-0.125 -0.8125,-0.625 -0.09375,-0.34375 -0.09375,-0.921875 -0.09375,-1.296875 0,-0.40625 0,-0.859375 0.09375,-1.1875 0.140625,-0.53125 0.59375,-0.609375 0.8125,-0.609375 0.265625,0 0.671875,0.125 0.796875,0.578125 0.09375,0.3125 0.09375,0.75 0.09375,1.21875 0,0.375 0,0.984375 -0.09375,1.3125 C 2.453125,-0.140625 2.015625,-0.0625 1.828125,-0.0625 Z m 0,0"
                 id="path179679" />
            </g>
            <g
               id="g179685"
               transform="translate(10.958734,4.4840002)"
               style="fill:#0000ff">
              <path
                 style="fill:#0000ff;stroke:none"
                 d="m 3.296875,-1.90625 c 0,-0.4375 0,-2.078125 -1.46875,-2.078125 -1.46875,0 -1.46875,1.640625 -1.46875,2.078125 0,0.421875 0,2.03125 1.46875,2.03125 1.46875,0 1.46875,-1.609375 1.46875,-2.03125 z m -1.46875,1.84375 c -0.25,0 -0.65625,-0.125 -0.8125,-0.625 -0.09375,-0.34375 -0.09375,-0.921875 -0.09375,-1.296875 0,-0.40625 0,-0.859375 0.09375,-1.1875 0.140625,-0.53125 0.59375,-0.609375 0.8125,-0.609375 0.265625,0 0.671875,0.125 0.796875,0.578125 0.09375,0.3125 0.09375,0.75 0.09375,1.21875 0,0.375 0,0.984375 -0.09375,1.3125 C 2.453125,-0.140625 2.015625,-0.0625 1.828125,-0.0625 Z m 0,0"
                 id="path179683" />
            </g>
            <g
               id="g179689"
               transform="translate(14.611645,4.4840002)"
               style="fill:#0000ff">
              <path
                 style="fill:#0000ff;stroke:none"
                 d="m 3.296875,-1.90625 c 0,-0.4375 0,-2.078125 -1.46875,-2.078125 -1.46875,0 -1.46875,1.640625 -1.46875,2.078125 0,0.421875 0,2.03125 1.46875,2.03125 1.46875,0 1.46875,-1.609375 1.46875,-2.03125 z m -1.46875,1.84375 c -0.25,0 -0.65625,-0.125 -0.8125,-0.625 -0.09375,-0.34375 -0.09375,-0.921875 -0.09375,-1.296875 0,-0.40625 0,-0.859375 0.09375,-1.1875 0.140625,-0.53125 0.59375,-0.609375 0.8125,-0.609375 0.265625,0 0.671875,0.125 0.796875,0.578125 0.09375,0.3125 0.09375,0.75 0.09375,1.21875 0,0.375 0,0.984375 -0.09375,1.3125 C 2.453125,-0.140625 2.015625,-0.0625 1.828125,-0.0625 Z m 0,0"
                 id="path179687" />
            </g>
            <g
               id="g179693"
               transform="translate(18.264557,4.4840002)"
               style="fill:#0000ff">
              <path
                 style="fill:#0000ff;stroke:none"
                 d="m 1.859375,-4.171875 v -0.3125 H 0.890625 V 1.5 h 0.96875 V 1.1875 h -0.65625 v -5.359375 z m 0,0"
                 id="path179691" />
            </g>
            <g
               id="g179697"
               transform="translate(20.367476,4.4840002)"
               style="fill:#0000ff">
              <path
                 style="fill:#0000ff;stroke:none"
                 d="m 2.078125,-1.609375 c 0.65625,-0.5 0.96875,-0.71875 1.40625,-0.734375 v -0.234375 c -0.078125,0 -0.25,0.015625 -0.4375,0.015625 -0.265625,0 -0.6875,-0.015625 -0.75,-0.015625 V -2.34375 C 2.40625,-2.328125 2.40625,-2.265625 2.40625,-2.25 c 0,0.03125 0,0.125 -0.1875,0.25 L 1.296875,-1.328125 V -4.15625 l -0.953125,0.0625 v 0.234375 c 0.421875,0 0.46875,0.046875 0.46875,0.34375 v 3.03125 c 0,0.25 -0.046875,0.25 -0.46875,0.25 V 0 C 0.515625,-0.015625 0.921875,-0.03125 1.046875,-0.03125 1.140625,-0.03125 1.5625,-0.015625 1.75,0 v -0.234375 c -0.421875,0 -0.46875,0 -0.46875,-0.25 V -1.03125 l 0.453125,-0.328125 c 0.03125,0.03125 0.1875,0.203125 0.671875,0.765625 0.0625,0.078125 0.140625,0.171875 0.140625,0.265625 0,0.078125 -0.09375,0.09375 -0.15625,0.09375 V 0 C 2.515625,-0.015625 2.9375,-0.03125 3.09375,-0.03125 3.328125,-0.03125 3.59375,0 3.640625,0 v -0.234375 c -0.3125,0 -0.390625,-0.046875 -0.609375,-0.28125 z m 0,0"
                 id="path179695" />
            </g>
            <g
               id="g179701"
               transform="translate(24.214062,4.4840002)"
               style="fill:#0000ff">
              <path
                 style="fill:#0000ff;stroke:none"
                 d="M 0.953125,-1.046875 C 1.09375,-0.96875 1.328125,-0.875 1.625,-0.875 2.296875,-0.875 2.75,-1.296875 2.75,-1.75 2.75,-2.09375 2.5,-2.3125 2.5,-2.328125 2.765625,-2.5 3.015625,-2.515625 3.109375,-2.515625 3.09375,-2.484375 3.0625,-2.46875 3.0625,-2.375 c 0,0.09375 0.078125,0.1875 0.203125,0.1875 0.140625,0 0.203125,-0.09375 0.203125,-0.203125 0,-0.125 -0.109375,-0.3125 -0.375,-0.3125 -0.25,0 -0.53125,0.09375 -0.734375,0.28125 -0.203125,-0.140625 -0.46875,-0.21875 -0.71875,-0.21875 -0.65625,0 -1.125,0.421875 -1.125,0.890625 0,0.1875 0.078125,0.390625 0.28125,0.59375 -0.125,0.171875 -0.171875,0.34375 -0.171875,0.484375 0,0.328125 0.21875,0.5 0.25,0.53125 -0.234375,0.0625 -0.59375,0.265625 -0.59375,0.59375 0,0.46875 0.71875,0.78125 1.546875,0.78125 C 2.59375,1.234375 3.375,0.953125 3.375,0.4375 3.375,0.296875 3.328125,-0.09375 2.84375,-0.28125 2.5,-0.4375 2.171875,-0.4375 1.609375,-0.4375 c -0.15625,0 -0.375,0 -0.4375,0 C 1.015625,-0.46875 0.875,-0.609375 0.875,-0.828125 c 0,-0.125 0.0625,-0.203125 0.078125,-0.21875 z m 0.6875,-0.03125 c -0.5,0 -0.625,-0.359375 -0.625,-0.671875 0,-0.109375 0,-0.6875 0.609375,-0.6875 0.53125,0 0.625,0.421875 0.625,0.671875 0,0.125 0,0.6875 -0.609375,0.6875 z M 1.96875,0 C 2.15625,0 2.984375,0 2.984375,0.453125 2.984375,0.75 2.5,1.03125 1.828125,1.03125 1.171875,1.03125 0.671875,0.765625 0.671875,0.453125 0.671875,0.296875 0.796875,0 1.296875,0 Z m 0,0"
                 id="path179699" />
            </g>
            <g
               id="g179705"
               transform="translate(27.866974,4.4840002)"
               style="fill:#0000ff">
              <path
                 style="fill:#0000ff;stroke:none"
                 d="m 1.203125,-4.484375 h -0.96875 v 0.3125 h 0.65625 V 1.1875 H 0.234375 V 1.5 h 0.96875 z m 0,0"
                 id="path179703" />
            </g>
          </g>
        </g>
      </g>
    </g>
    <g
       inkscape:label=""
       transform="translate(111.98485,144.87136)"
       id="g177150"
       style="fill:#ff0000">
      <g
         id="g177148"
         transform="matrix(0.352778,0,0,0.352778,-0.110243,0.084843)"
         style="fill:#ff0000">
        <g
           style="fill:#ff0000;fill-opacity:1"
           id="g177138">
          <g
             id="g177136"
             transform="translate(0,5.447)"
             style="fill:#ff0000">
            <path
               style="fill:#ff0000;stroke:none"
               d="M 1.46875,-0.953125 C 1.109375,-0.359375 0.78125,-0.28125 0.5,-0.265625 0.421875,-0.25 0.3125,-0.25 0.3125,-0.109375 0.3125,-0.09375 0.328125,0 0.4375,0 0.5,0 0.546875,-0.03125 1.109375,-0.03125 1.65625,-0.03125 1.828125,0 1.875,0 c 0.03125,0 0.15625,0 0.15625,-0.15625 0,-0.09375 -0.109375,-0.109375 -0.140625,-0.109375 -0.171875,0 -0.34375,-0.0625 -0.34375,-0.25 0,-0.109375 0.078125,-0.21875 0.21875,-0.453125 L 2.3125,-1.84375 H 4.5 L 4.65625,-0.5 c 0,0.125 -0.140625,0.234375 -0.515625,0.234375 -0.109375,0 -0.21875,0 -0.21875,0.15625 0,0 0,0.109375 0.140625,0.109375 0.078125,0 0.375,-0.015625 0.453125,-0.03125 h 0.5 C 5.734375,-0.03125 5.859375,0 5.921875,0 5.953125,0 6.09375,0 6.09375,-0.15625 c 0,-0.109375 -0.109375,-0.109375 -0.234375,-0.109375 -0.4375,0 -0.453125,-0.0625 -0.46875,-0.265625 L 4.75,-5.453125 C 4.734375,-5.640625 4.71875,-5.6875 4.59375,-5.6875 c -0.140625,0 -0.1875,0.078125 -0.25,0.15625 z M 2.484375,-2.109375 4.125,-4.71875 4.46875,-2.109375 Z m 0,0"
               id="path177134" />
          </g>
        </g>
        <g
           clip-path="url(#clipPath7433)"
           clip-rule="nonzero"
           id="g177146"
           style="fill:#ff0000">
          <g
             style="fill:#ff0000;fill-opacity:1"
             id="g177144">
            <g
               id="g177142"
               transform="translate(6.3429999,6.4429998)"
               style="fill:#ff0000">
              <path
                 style="fill:#ff0000;stroke:none"
                 d="m 3.375,-2.359375 c -0.21875,0.0625 -0.265625,0.234375 -0.265625,0.328125 0,0.1875 0.15625,0.234375 0.234375,0.234375 0.1875,0 0.359375,-0.140625 0.359375,-0.375 0,-0.328125 -0.359375,-0.46875 -0.65625,-0.46875 -0.40625,0 -0.640625,0.3125 -0.703125,0.421875 -0.078125,-0.15625 -0.3125,-0.421875 -0.765625,-0.421875 -0.6875,0 -1.09375,0.71875 -1.09375,0.921875 0,0.03125 0.03125,0.078125 0.109375,0.078125 0.09375,0 0.109375,-0.03125 0.125,-0.078125 0.15625,-0.484375 0.5625,-0.71875 0.84375,-0.71875 0.296875,0 0.390625,0.1875 0.390625,0.390625 0,0.0625 0,0.125 -0.046875,0.3125 -0.140625,0.546875 -0.265625,1.09375 -0.296875,1.171875 -0.09375,0.21875 -0.3125,0.421875 -0.5625,0.421875 -0.03125,0 -0.203125,0 -0.34375,-0.09375 C 0.9375,-0.3125 0.96875,-0.5 0.96875,-0.546875 c 0,-0.15625 -0.125,-0.234375 -0.25,-0.234375 -0.15625,0 -0.34375,0.125 -0.34375,0.375 0,0.34375 0.375,0.46875 0.65625,0.46875 0.34375,0 0.59375,-0.234375 0.703125,-0.421875 0.125,0.25 0.40625,0.421875 0.75,0.421875 0.703125,0 1.09375,-0.734375 1.09375,-0.921875 0,-0.015625 0,-0.09375 -0.109375,-0.09375 -0.078125,0 -0.09375,0.046875 -0.109375,0.109375 C 3.1875,-0.328125 2.765625,-0.140625 2.5,-0.140625 c -0.21875,0 -0.375,-0.125 -0.375,-0.375 0,-0.125 0.015625,-0.25 0.078125,-0.453125 L 2.390625,-1.75 c 0.0625,-0.234375 0.09375,-0.34375 0.21875,-0.484375 C 2.6875,-2.328125 2.84375,-2.4375 3.03125,-2.4375 c 0.03125,0 0.203125,0 0.34375,0.078125 z m 0,0"
                 id="path177140" />
            </g>
          </g>
        </g>
      </g>
    </g>
    <g
       inkscape:label=""
       transform="translate(106.7909,138.99562)"
       id="g177168"
       style="fill:#ff0000">
      <g
         id="g177166"
         transform="matrix(0.352778,0,0,0.352778,-0.110243,0.0851958)"
         style="fill:#ff0000">
        <g
           style="fill:#ff0000;fill-opacity:1"
           id="g177156">
          <g
             id="g177154"
             transform="translate(0,5.4460001)"
             style="fill:#ff0000">
            <path
               style="fill:#ff0000;stroke:none"
               d="M 1.46875,-0.953125 C 1.109375,-0.359375 0.78125,-0.28125 0.5,-0.265625 0.421875,-0.25 0.3125,-0.25 0.3125,-0.109375 0.3125,-0.09375 0.328125,0 0.4375,0 0.5,0 0.546875,-0.03125 1.109375,-0.03125 1.65625,-0.03125 1.828125,0 1.875,0 c 0.03125,0 0.15625,0 0.15625,-0.15625 0,-0.09375 -0.109375,-0.109375 -0.140625,-0.109375 -0.171875,0 -0.34375,-0.0625 -0.34375,-0.25 0,-0.109375 0.078125,-0.21875 0.21875,-0.453125 L 2.3125,-1.84375 H 4.5 L 4.65625,-0.5 c 0,0.125 -0.140625,0.234375 -0.515625,0.234375 -0.109375,0 -0.21875,0 -0.21875,0.15625 0,0 0,0.109375 0.140625,0.109375 0.078125,0 0.375,-0.015625 0.453125,-0.03125 h 0.5 C 5.734375,-0.03125 5.859375,0 5.921875,0 5.953125,0 6.09375,0 6.09375,-0.15625 c 0,-0.109375 -0.109375,-0.109375 -0.234375,-0.109375 -0.4375,0 -0.453125,-0.0625 -0.46875,-0.265625 L 4.75,-5.453125 C 4.734375,-5.640625 4.71875,-5.6875 4.59375,-5.6875 c -0.140625,0 -0.1875,0.078125 -0.25,0.15625 z M 2.484375,-2.109375 4.125,-4.71875 4.46875,-2.109375 Z m 0,0"
               id="path177152" />
          </g>
        </g>
        <g
           clip-path="url(#clipPath3571)"
           clip-rule="nonzero"
           id="g177164"
           style="fill:#ff0000">
          <g
             style="fill:#ff0000;fill-opacity:1"
             id="g177162">
            <g
               id="g177160"
               transform="translate(6.3429999,6.4429998)"
               style="fill:#ff0000">
              <path
                 style="fill:#ff0000;stroke:none"
                 d="m 3.5625,-2.296875 c 0.015625,-0.046875 0.015625,-0.0625 0.015625,-0.078125 0,-0.078125 -0.046875,-0.203125 -0.203125,-0.203125 -0.109375,0 -0.203125,0.0625 -0.25,0.15625 -0.03125,0.03125 -0.0625,0.21875 -0.09375,0.328125 l -0.3125,1.25 c -0.046875,0.171875 -0.0625,0.265625 -0.3125,0.484375 -0.0625,0.0625 -0.25,0.21875 -0.515625,0.21875 -0.4375,0 -0.4375,-0.390625 -0.4375,-0.5 0,-0.25 0.078125,-0.53125 0.34375,-1.1875 0.046875,-0.140625 0.0625,-0.1875 0.0625,-0.296875 0,-0.328125 -0.296875,-0.515625 -0.59375,-0.515625 -0.609375,0 -0.90625,0.796875 -0.90625,0.921875 0,0.03125 0.03125,0.078125 0.109375,0.078125 0.09375,0 0.109375,-0.03125 0.125,-0.078125 C 0.765625,-2.296875 1.078125,-2.4375 1.25,-2.4375 c 0.109375,0 0.15625,0.078125 0.15625,0.21875 0,0.125 -0.078125,0.328125 -0.140625,0.484375 -0.21875,0.53125 -0.28125,0.796875 -0.28125,1.015625 0,0.5625 0.421875,0.78125 0.890625,0.78125 0.078125,0 0.359375,0 0.6875,-0.28125 -0.078125,0.328125 -0.140625,0.5625 -0.421875,0.875 -0.109375,0.125 -0.375,0.359375 -0.734375,0.359375 -0.0625,0 -0.3125,0 -0.453125,-0.15625 C 1.21875,0.8125 1.25,0.578125 1.25,0.53125 1.25,0.359375 1.125,0.296875 1,0.296875 c -0.140625,0 -0.34375,0.125 -0.34375,0.390625 0,0.296875 0.28125,0.53125 0.75,0.53125 C 2.046875,1.21875 2.8125,0.75 2.984375,0 Z m 0,0"
                 id="path177158" />
            </g>
          </g>
        </g>
      </g>
    </g>
    <g
       inkscape:label=""
       transform="translate(141.16001,140.4463)"
       id="g207526"
       style="fill:#ff0000">
      <g
         id="g207524"
         transform="matrix(0.352778,0,0,0.352778,-0.148828,0.057635)"
         style="fill:#ff0000">
        <g
           style="fill:#ff0000;fill-opacity:1"
           id="g207514">
          <g
             id="g207512"
             transform="translate(0,5.4460001)"
             style="fill:#ff0000">
            <path
               style="fill:#ff0000;stroke:none"
               d="m 6.34375,-5.390625 c 0,-0.03125 0.015625,-0.078125 0.015625,-0.125 0,-0.046875 -0.046875,-0.09375 -0.09375,-0.09375 -0.0625,0 -0.078125,0.015625 -0.140625,0.09375 L 5.5625,-4.90625 C 5.484375,-5 5.0625,-5.609375 4.140625,-5.609375 c -1.859375,0 -3.71875,1.71875 -3.71875,3.546875 0,1.390625 1.046875,2.234375 2.3125,2.234375 1.046875,0 1.9375,-0.640625 2.359375,-1.265625 0.265625,-0.390625 0.375,-0.765625 0.375,-0.8125 0,-0.078125 -0.046875,-0.109375 -0.125,-0.109375 -0.09375,0 -0.109375,0.046875 -0.125,0.125 -0.34375,1.109375 -1.421875,1.796875 -2.375,1.796875 -0.8125,0 -1.671875,-0.484375 -1.671875,-1.703125 0,-0.25 0.09375,-1.578125 0.984375,-2.578125 C 2.75,-5.046875 3.5625,-5.34375 4.1875,-5.34375 c 1.015625,0 1.421875,0.796875 1.421875,1.5625 0,0.109375 -0.03125,0.265625 -0.03125,0.359375 0,0.09375 0.109375,0.09375 0.140625,0.09375 0.09375,0 0.109375,-0.03125 0.140625,-0.171875 z m 0,0"
               id="path207510" />
          </g>
        </g>
        <g
           clip-path="url(#clipPath352)"
           clip-rule="nonzero"
           id="g207522"
           style="fill:#ff0000">
          <g
             style="fill:#ff0000;fill-opacity:1"
             id="g207520">
            <g
               id="g207518"
               transform="translate(6.0359998,6.4429998)"
               style="fill:#ff0000">
              <path
                 style="fill:#ff0000;stroke:none"
                 d="m 3.5625,-2.296875 c 0.015625,-0.046875 0.015625,-0.0625 0.015625,-0.078125 0,-0.078125 -0.046875,-0.203125 -0.203125,-0.203125 -0.109375,0 -0.203125,0.0625 -0.25,0.15625 -0.03125,0.03125 -0.0625,0.21875 -0.09375,0.328125 l -0.3125,1.25 c -0.046875,0.171875 -0.0625,0.265625 -0.3125,0.484375 -0.0625,0.0625 -0.25,0.21875 -0.515625,0.21875 -0.4375,0 -0.4375,-0.390625 -0.4375,-0.5 0,-0.25 0.078125,-0.53125 0.34375,-1.1875 0.046875,-0.140625 0.0625,-0.1875 0.0625,-0.296875 0,-0.328125 -0.296875,-0.515625 -0.59375,-0.515625 -0.609375,0 -0.90625,0.796875 -0.90625,0.921875 0,0.03125 0.03125,0.078125 0.109375,0.078125 0.09375,0 0.109375,-0.03125 0.125,-0.078125 C 0.765625,-2.296875 1.078125,-2.4375 1.25,-2.4375 c 0.109375,0 0.15625,0.078125 0.15625,0.21875 0,0.125 -0.078125,0.328125 -0.140625,0.484375 -0.21875,0.53125 -0.28125,0.796875 -0.28125,1.015625 0,0.5625 0.421875,0.78125 0.890625,0.78125 0.078125,0 0.359375,0 0.6875,-0.28125 -0.078125,0.328125 -0.140625,0.5625 -0.421875,0.875 -0.109375,0.125 -0.375,0.359375 -0.734375,0.359375 -0.0625,0 -0.3125,0 -0.453125,-0.15625 C 1.21875,0.8125 1.25,0.578125 1.25,0.53125 1.25,0.359375 1.125,0.296875 1,0.296875 c -0.140625,0 -0.34375,0.125 -0.34375,0.390625 0,0.296875 0.28125,0.53125 0.75,0.53125 C 2.046875,1.21875 2.8125,0.75 2.984375,0 Z m 0,0"
                 id="path207516" />
            </g>
          </g>
        </g>
      </g>
    </g>
  </g>
</svg>
