<?xml version="1.0" encoding="UTF-8" standalone="no"?>
<!-- Created with Inkscape (http://www.inkscape.org/) -->

<svg
   width="192"
   height="192.00009"
   viewBox="0 0 50.799995 50.800019"
   version="1.1"
   id="svg5"
   sodipodi:docname="base.svg"
   inkscape:version="1.2.1 (9c6d41e410, 2022-07-14)"
   xmlns:inkscape="http://www.inkscape.org/namespaces/inkscape"
   xmlns:sodipodi="http://sodipodi.sourceforge.net/DTD/sodipodi-0.dtd"
   xmlns="http://www.w3.org/2000/svg"
   xmlns:svg="http://www.w3.org/2000/svg">
  <sodipodi:namedview
     id="namedview7"
     pagecolor="#ffffff"
     bordercolor="#000000"
     borderopacity="0.25"
     inkscape:showpageshadow="false"
     inkscape:pageopacity="0.0"
     inkscape:pagecheckerboard="false"
     inkscape:deskcolor="#d1d1d1"
     inkscape:document-units="px"
     showgrid="true"
     inkscape:zoom="1.4142136"
     inkscape:cx="219.91021"
     inkscape:cy="428.15315"
     inkscape:window-width="1920"
     inkscape:window-height="1050"
     inkscape:window-x="1920"
     inkscape:window-y="18"
     inkscape:window-maximized="1"
     inkscape:current-layer="layer1"
     showguides="true">
    <inkscape:grid
       type="xygrid"
       id="grid1223"
       spacingx="1.0583333"
       spacingy="1.0583333"
       empspacing="4"
       originx="5.0517557e-06"
       originy="-122.76667" />
    <sodipodi:guide
       position="-101.60001,287.86672"
       orientation="0,-1"
       id="guide1694"
       inkscape:locked="false" />
    <sodipodi:guide
       position="-101.60001,287.86672"
       orientation="1,0"
       id="guide1696"
       inkscape:locked="false" />
    <sodipodi:guide
       position="-50.800009,287.86673"
       orientation="1,0"
       id="guide21735"
       inkscape:locked="false" />
    <sodipodi:guide
       position="-101.60001,245.53338"
       orientation="0,-1"
       id="guide21941"
       inkscape:locked="false" />
    <sodipodi:guide
       position="-1.4146984e-05,287.86673"
       orientation="1,0"
       id="guide24413"
       inkscape:locked="false" />
    <sodipodi:guide
       position="-101.60001,203.20005"
       orientation="0,-1"
       id="guide35496"
       inkscape:locked="false" />
    <sodipodi:guide
       position="50.799996,287.86671"
       orientation="1,0"
       id="guide50631"
       inkscape:locked="false" />
    <sodipodi:guide
       position="-101.60001,165.10004"
       orientation="0,-1"
       id="guide53352"
       inkscape:locked="false" />
    <sodipodi:guide
       position="-101.60001,127.00005"
       orientation="0,-1"
       id="guide159195"
       inkscape:locked="false" />
    <sodipodi:guide
       position="-33.866676,127.00005"
       orientation="1,0"
       id="guide500405"
       inkscape:locked="false" />
    <sodipodi:guide
       position="-101.60001,88.90005"
       orientation="0,-1"
       id="guide503869"
       inkscape:locked="false" />
    <sodipodi:guide
       position="101.59999,84.66671"
       orientation="1,0"
       id="guide645019"
       inkscape:locked="false" />
    <sodipodi:guide
       position="-42.333342,46.566711"
       orientation="1,0"
       id="guide686712"
       inkscape:locked="false" />
    <sodipodi:guide
       position="-101.60001,50.800048"
       orientation="0,-1"
       id="guide686714"
       inkscape:locked="false" />
    <sodipodi:guide
       position="16.933326,46.566712"
       orientation="1,0"
       id="guide765939"
       inkscape:locked="false" />
    <sodipodi:guide
       position="76.199986,46.566712"
       orientation="1,0"
       id="guide816936"
       inkscape:locked="false" />
    <sodipodi:guide
       position="152.4,127.00005"
       orientation="1,0"
       id="guide839718"
       inkscape:locked="false" />
    <sodipodi:guide
       position="-101.60001,-29.633287"
       orientation="0,-1"
       id="guide268749"
       inkscape:locked="false" />
    <sodipodi:guide
       position="-21.166676,88.90001"
       orientation="1,0"
       id="guide195271"
       inkscape:locked="false" />
    <sodipodi:guide
       position="21.166656,88.90005"
       orientation="1,0"
       id="guide236368"
       inkscape:locked="false" />
    <sodipodi:guide
       position="-101.60001,1.1442237e-05"
       orientation="0,-1"
       id="guide314999"
       inkscape:locked="false" />
  </sodipodi:namedview>
  <defs
     id="defs2">
    <clipPath
       id="clipPath6976">
      <path
         d="M 0,0 H 6 V 6.972656 H 0 Z m 0,0"
         id="path92138" />
    </clipPath>
    <clipPath
       id="clipPath10009">
      <path
         d="m 13,0 h 2 v 6.972656 h -2 z m 0,0"
         id="path77794" />
    </clipPath>
    <clipPath
       id="clipPath2057">
      <path
         d="M 0,0 H 6 V 5.976562 H 0 Z m 0,0"
         id="path56710" />
    </clipPath>
    <clipPath
       id="clipPath6722">
      <path
         d="m 12,0 h 2 v 5.976562 h -2 z m 0,0"
         id="path90816" />
    </clipPath>
    <clipPath
       id="clipPath21641">
      <path
         d="M 19,0 H 44 V 5.976562 H 19 Z m 0,0"
         id="path3203" />
    </clipPath>
    <clipPath
       id="clipPath43195">
      <path
         d="M 18,0 H 41 V 5.976562 H 18 Z m 0,0"
         id="path91952" />
    </clipPath>
    <marker
       style="overflow:visible"
       id="Arrow2-4-0-4-5-8-5"
       refX="0"
       refY="0"
       orient="auto-start-reverse"
       inkscape:stockid="Arrow2"
       markerWidth="3.3000002"
       markerHeight="2.4000001"
       viewBox="0 0 7.7 5.6"
       inkscape:isstock="true"
       inkscape:collect="always"
       preserveAspectRatio="xMidYMid">
      <path
         transform="scale(0.7)"
         d="M -2,-4 9,0 -2,4 c 2,-2.33 2,-5.66 0,-8 z"
         style="fill:context-stroke;fill-rule:evenodd;stroke:none"
         id="arrow2L-4-2-7-2-8-0" />
    </marker>
    <marker
       style="overflow:visible"
       id="Arrow2-4-0-4-0-1-8"
       refX="0"
       refY="0"
       orient="auto-start-reverse"
       inkscape:stockid="Arrow2"
       markerWidth="3.3000002"
       markerHeight="2.4000001"
       viewBox="0 0 7.7 5.6"
       inkscape:isstock="true"
       inkscape:collect="always"
       preserveAspectRatio="xMidYMid">
      <path
         transform="scale(0.7)"
         d="M -2,-4 9,0 -2,4 c 2,-2.33 2,-5.66 0,-8 z"
         style="fill:context-stroke;fill-rule:evenodd;stroke:none"
         id="arrow2L-4-2-7-6-5-5" />
    </marker>
    <marker
       style="overflow:visible"
       id="Arrow2-4-0-4-5-8-5-1"
       refX="0"
       refY="0"
       orient="auto-start-reverse"
       inkscape:stockid="Arrow2"
       markerWidth="3.3000002"
       markerHeight="2.4000001"
       viewBox="0 0 7.7 5.6"
       inkscape:isstock="true"
       inkscape:collect="always"
       preserveAspectRatio="xMidYMid">
      <path
         transform="scale(0.7)"
         d="M -2,-4 9,0 -2,4 c 2,-2.33 2,-5.66 0,-8 z"
         style="fill:context-stroke;fill-rule:evenodd;stroke:none"
         id="arrow2L-4-2-7-2-8-0-5" />
    </marker>
    <clipPath
       id="clipPath8378">
      <path
         d="M 5,2 H 9 V 5.082031 H 5 Z m 0,0"
         id="path27637" />
    </clipPath>
    <clipPath
       id="clipPath2847">
      <path
         d="M 5,2 H 9 V 6.050781 H 5 Z m 0,0"
         id="path39066" />
    </clipPath>
    <clipPath
       id="clipPath3499">
      <path
         d="M 5,2 H 9 V 6.050781 H 5 Z m 0,0"
         id="path70535" />
    </clipPath>
  </defs>
  <g
     inkscape:label="Capa 1"
     inkscape:groupmode="layer"
     id="layer1"
     transform="translate(-101.60001,-237.06662)">
    <rect
       style="fill:#ffffff;stroke:none;stroke-width:0.264583;stroke-linejoin:round;stroke-dasharray:none;stroke-dashoffset:0;paint-order:stroke markers fill"
       id="rect333054"
       width="50.799999"
       height="50.800003"
       x="101.6"
       y="237.06662"
       inkscape:export-filename="g08.svg"
       inkscape:export-xdpi="96"
       inkscape:export-ydpi="96" />
    <path
       style="fill:#b3b3b3;stroke:#000000;stroke-width:0.264583;stroke-linecap:round;stroke-linejoin:round;stroke-dasharray:none;stroke-dashoffset:0;paint-order:stroke markers fill"
       d="m 123.825,245.53329 9.525,25.4 -0.62483,-0.47812 -8.90017,-23.86355 z"
       id="path333056"
       sodipodi:nodetypes="ccccc" />
    <path
       style="fill:none;stroke:#0000ff;stroke-width:0.396875;stroke-linejoin:round;stroke-dasharray:none;paint-order:stroke markers fill"
       d="m 139.7,245.53329 h 4.23333"
       id="path333058" />
    <path
       style="fill:none;stroke:#0000ff;stroke-width:0.396875;stroke-linejoin:round;stroke-dasharray:none;paint-order:stroke markers fill"
       d="m 141.81666,245.53329 v 10.58333"
       id="path333060"
       sodipodi:nodetypes="cc" />
    <path
       style="fill:none;stroke:#0000ff;stroke-width:0.396875;stroke-linejoin:round;stroke-dasharray:none;paint-order:stroke markers fill"
       d="m 139.69999,270.93329 h 4.23334"
       id="path333062" />
    <path
       style="fill:none;stroke:#0000ff;stroke-width:0.396875;stroke-linejoin:round;stroke-dasharray:none;paint-order:stroke markers fill"
       d="m 141.81667,260.34996 v 10.58333"
       id="path333064"
       sodipodi:nodetypes="cc" />
    <path
       style="fill:none;stroke:#0000ff;stroke-width:0.132292;stroke-linejoin:round;stroke-dasharray:0.264583, 0.132292;stroke-dashoffset:0;paint-order:stroke markers fill"
       d="M 124.88333,245.53329 H 139.7"
       id="path333066"
       sodipodi:nodetypes="cc" />
    <g
       id="g333090"
       transform="translate(101.6)">
      <path
         style="fill:none;stroke:#000000;stroke-width:0.264583;stroke-linejoin:round;stroke-dasharray:none;paint-order:stroke markers fill"
         d="m 8.466666,275.19003 1.05833,-1.05834"
         id="path333068"
         sodipodi:nodetypes="cc" />
      <path
         style="fill:none;stroke:#000000;stroke-width:0.264583;stroke-linejoin:round;stroke-dasharray:none;paint-order:stroke markers fill"
         d="m 8.466666,276.24836 c 2.11666,-2.11667 2.11666,-2.11667 2.11666,-2.11667"
         id="path333070" />
      <path
         style="fill:none;stroke:#000000;stroke-width:0.264583;stroke-linejoin:round;stroke-dasharray:none;paint-order:stroke markers fill"
         d="m 9.524996,276.24836 c 2.11667,-2.11667 2.11667,-2.11667 2.11667,-2.11667"
         id="path333072" />
      <path
         style="fill:none;stroke:#000000;stroke-width:0.264583;stroke-linejoin:round;stroke-dasharray:none;paint-order:stroke markers fill"
         d="m 10.583326,276.24836 c 2.11667,-2.11667 2.11667,-2.11667 2.11667,-2.11667"
         id="path333074" />
      <path
         style="fill:none;stroke:#000000;stroke-width:0.264583;stroke-linejoin:round;stroke-dasharray:none;paint-order:stroke markers fill"
         d="m 11.641666,276.24836 c 2.11666,-2.11667 2.11666,-2.11667 2.11666,-2.11667"
         id="path333076" />
      <path
         style="fill:none;stroke:#000000;stroke-width:0.264583;stroke-linejoin:round;stroke-dasharray:none;paint-order:stroke markers fill"
         d="m 12.699996,276.24836 c 2.11667,-2.11667 2.11667,-2.11667 2.11667,-2.11667"
         id="path333078" />
      <path
         style="fill:none;stroke:#000000;stroke-width:0.264583;stroke-linejoin:round;stroke-dasharray:none;paint-order:stroke markers fill"
         d="m 13.758336,276.24836 c 2.11666,-2.11667 2.11666,-2.11667 2.11666,-2.11667"
         id="path333080" />
      <path
         style="fill:none;stroke:#000000;stroke-width:0.264583;stroke-linejoin:round;stroke-dasharray:none;paint-order:stroke markers fill"
         d="m 14.816666,276.24836 c 2.11666,-2.11667 2.11666,-2.11667 2.11666,-2.11667"
         id="path333082" />
      <path
         style="fill:none;stroke:#000000;stroke-width:0.264583;stroke-linejoin:round;stroke-dasharray:none;paint-order:stroke markers fill"
         d="m 15.874996,276.24836 1.05833,-1.05833"
         id="path333084"
         sodipodi:nodetypes="cc" />
      <path
         sodipodi:type="star"
         style="fill:#000000;stroke:none;stroke-width:0.264583;stroke-linejoin:round;stroke-dasharray:none;paint-order:stroke markers fill"
         id="path333086"
         inkscape:flatsided="true"
         sodipodi:sides="3"
         sodipodi:cx="160.86665"
         sodipodi:cy="29.633333"
         sodipodi:r1="2.0182958"
         sodipodi:r2="1.9079375"
         sodipodi:arg1="0.52359878"
         sodipodi:arg2="1.5707963"
         inkscape:rounded="0"
         inkscape:randomized="0"
         d="m 162.61455,30.642481 -3.49579,0 1.74789,-3.027444 z"
         inkscape:transform-center-x="-1.1400001e-06"
         inkscape:transform-center-y="-0.95396856"
         transform="translate(-148.16665,243.41662)" />
      <path
         style="fill:none;stroke:#000000;stroke-width:0.264583;stroke-linejoin:round;paint-order:stroke markers fill"
         d="m 8.4666792,274.0591 c 0,0 8.4666658,0 8.4666658,0"
         id="path333088" />
    </g>
    <g
       id="g333120"
       transform="translate(82.549993)">
      <path
         style="fill:none;stroke:#000000;stroke-width:0.264583;stroke-linejoin:round;stroke-dasharray:none;paint-order:stroke markers fill"
         d="m 46.531339,276.24614 1.05833,-1.05834"
         id="path333092"
         sodipodi:nodetypes="cc" />
      <path
         style="fill:none;stroke:#000000;stroke-width:0.264583;stroke-linejoin:round;stroke-dasharray:none;paint-order:stroke markers fill"
         d="m 46.531339,277.30447 c 2.11666,-2.11667 2.11666,-2.11667 2.11666,-2.11667"
         id="path333094" />
      <path
         style="fill:none;stroke:#000000;stroke-width:0.264583;stroke-linejoin:round;stroke-dasharray:none;paint-order:stroke markers fill"
         d="m 47.589669,277.30447 c 2.11667,-2.11667 2.11667,-2.11667 2.11667,-2.11667"
         id="path333096" />
      <path
         style="fill:none;stroke:#000000;stroke-width:0.264583;stroke-linejoin:round;stroke-dasharray:none;paint-order:stroke markers fill"
         d="m 48.647999,277.30447 c 2.11667,-2.11667 2.11667,-2.11667 2.11667,-2.11667"
         id="path333098" />
      <path
         style="fill:none;stroke:#000000;stroke-width:0.264583;stroke-linejoin:round;stroke-dasharray:none;paint-order:stroke markers fill"
         d="m 49.706339,277.30447 c 2.11666,-2.11667 2.11666,-2.11667 2.11666,-2.11667"
         id="path333100" />
      <path
         style="fill:none;stroke:#000000;stroke-width:0.264583;stroke-linejoin:round;stroke-dasharray:none;paint-order:stroke markers fill"
         d="m 50.764669,277.30447 c 2.11667,-2.11667 2.11667,-2.11667 2.11667,-2.11667"
         id="path333102" />
      <path
         style="fill:none;stroke:#000000;stroke-width:0.264583;stroke-linejoin:round;stroke-dasharray:none;paint-order:stroke markers fill"
         d="m 51.823009,277.30447 c 2.11666,-2.11667 2.11666,-2.11667 2.11666,-2.11667"
         id="path333104" />
      <path
         style="fill:none;stroke:#000000;stroke-width:0.264583;stroke-linejoin:round;stroke-dasharray:none;paint-order:stroke markers fill"
         d="m 52.881339,277.30447 c 2.11666,-2.11667 2.11666,-2.11667 2.11666,-2.11667"
         id="path333106" />
      <path
         style="fill:none;stroke:#000000;stroke-width:0.264583;stroke-linejoin:round;stroke-dasharray:none;paint-order:stroke markers fill"
         d="m 53.939669,277.30447 1.05833,-1.05833"
         id="path333108"
         sodipodi:nodetypes="cc" />
      <path
         sodipodi:type="star"
         style="fill:#000000;stroke:none;stroke-width:0.264583;stroke-linejoin:round;stroke-dasharray:none;paint-order:stroke markers fill"
         id="path333110"
         inkscape:flatsided="true"
         sodipodi:sides="3"
         sodipodi:cx="160.86665"
         sodipodi:cy="29.633333"
         sodipodi:r1="2.0182958"
         sodipodi:r2="1.9079375"
         sodipodi:arg1="0.52359878"
         sodipodi:arg2="1.5707963"
         inkscape:rounded="0"
         inkscape:randomized="0"
         d="m 162.61455,30.642481 -3.49579,0 1.74789,-3.027444 z"
         inkscape:transform-center-x="-1.1400001e-06"
         inkscape:transform-center-y="-0.95396856"
         transform="translate(-110.06665,243.41662)" />
      <path
         style="fill:none;stroke:#000000;stroke-width:0.264583;stroke-linejoin:round;paint-order:stroke markers fill"
         d="m 46.566682,275.11744 c 0,0 8.466666,0 8.466666,0"
         id="path333112" />
      <circle
         style="fill:none;stroke:#000000;stroke-width:0.264583;stroke-linejoin:round;stroke-dasharray:none;paint-order:stroke markers fill"
         id="circle333114"
         cx="50.800014"
         cy="274.52249"
         r="0.3325184" />
      <circle
         style="fill:none;stroke:#000000;stroke-width:0.264583;stroke-linejoin:round;stroke-dasharray:none;paint-order:stroke markers fill"
         id="circle333116"
         cx="52.083088"
         cy="274.52249"
         r="0.3325184" />
      <circle
         style="fill:none;stroke:#000000;stroke-width:0.264583;stroke-linejoin:round;stroke-dasharray:none;paint-order:stroke markers fill"
         id="circle333118"
         cx="49.516941"
         cy="274.52249"
         r="0.3325184" />
    </g>
    <path
       style="fill:#b3b3b3;stroke:#000000;stroke-width:0.264583;stroke-linecap:round;stroke-linejoin:round;stroke-dasharray:none;stroke-dashoffset:0;paint-order:stroke markers fill"
       d="m 114.3,270.93329 0.79287,-0.4065 h 17.54606 l 0.71107,0.40649 z"
       id="path333122"
       sodipodi:nodetypes="ccccc" />
    <path
       style="fill:#b3b3b3;stroke:#000000;stroke-width:0.264583;stroke-linecap:round;stroke-linejoin:round;stroke-dasharray:none;stroke-dashoffset:0;paint-order:stroke markers fill"
       d="m 114.3,270.93329 9.525,-25.4 v 1.05833 l -8.82205,23.81197 z"
       id="path333124"
       sodipodi:nodetypes="ccccc" />
    <g
       inkscape:label=""
       transform="translate(139.28949,257.00684)"
       id="g333154"
       style="fill:#0000ff">
      <g
         id="g333152"
         transform="matrix(0.352778,0,0,0.352778,-0.0937066,-0.00432151)"
         style="fill:#0000ff">
        <g
           clip-path="url(#clipPath6976)"
           clip-rule="nonzero"
           id="g333136"
           style="fill:#0000ff">
          <g
             style="fill:#0000ff;fill-opacity:1"
             id="g333134">
            <g
               id="g333128"
               transform="translate(0,5.2309999)"
               style="fill:#0000ff">
              <path
                 style="fill:#0000ff;stroke:none"
                 d="m 3.6875,-1.140625 v -0.25 H 2.90625 V -4.5 c 0,-0.140625 0,-0.203125 -0.140625,-0.203125 -0.09375,0 -0.125,0 -0.1875,0.109375 l -2.3125,3.203125 v 0.25 h 2.0625 v 0.5625 c 0,0.25 0,0.328125 -0.578125,0.328125 H 1.5625 V 0 C 1.921875,-0.015625 2.359375,-0.03125 2.609375,-0.03125 2.875,-0.03125 3.3125,-0.015625 3.671875,0 v -0.25 h -0.1875 C 2.90625,-0.25 2.90625,-0.328125 2.90625,-0.578125 v -0.5625 z M 2.375,-3.9375 v 2.546875 H 0.53125 Z m 0,0"
                 id="path333126" />
            </g>
            <g
               id="g333132"
               transform="translate(3.9715791,5.2309999)"
               style="fill:#0000ff">
              <path
                 style="fill:#0000ff;stroke:none"
                 d="M 2.015625,1.734375 V 1.40625 h -0.71875 v -6.296875 h 0.71875 V -5.21875 h -1.0625 v 6.953125 z m 0,0"
                 id="path333130" />
            </g>
          </g>
        </g>
        <g
           style="fill:#0000ff;fill-opacity:1"
           id="g333142">
          <g
             id="g333140"
             transform="translate(6.2270002,5.2309999)"
             style="fill:#0000ff">
            <path
               style="fill:#0000ff;stroke:none"
               d="m 3.03125,-0.5625 c -0.046875,0.140625 -0.109375,0.375 -0.109375,0.40625 0,0.15625 0.125,0.21875 0.234375,0.21875 0.140625,0 0.25,-0.078125 0.28125,-0.140625 0.03125,-0.0625 0.09375,-0.296875 0.125,-0.4375 0.03125,-0.125 0.109375,-0.453125 0.15625,-0.625 0.03125,-0.15625 0.078125,-0.3125 0.109375,-0.46875 0.078125,-0.296875 0.078125,-0.3125 0.21875,-0.53125 C 4.265625,-2.484375 4.625,-2.875 5.15625,-2.875 c 0.390625,0 0.421875,0.3125 0.421875,0.484375 0,0.421875 -0.296875,1.1875 -0.421875,1.484375 -0.0625,0.203125 -0.09375,0.265625 -0.09375,0.375 0,0.375 0.296875,0.59375 0.65625,0.59375 0.703125,0 1,-0.953125 1,-1.0625 0,-0.09375 -0.078125,-0.09375 -0.109375,-0.09375 -0.09375,0 -0.09375,0.046875 -0.125,0.125 C 6.328125,-0.40625 6.015625,-0.125 5.75,-0.125 c -0.15625,0 -0.1875,-0.09375 -0.1875,-0.25 0,-0.15625 0.046875,-0.25 0.171875,-0.5625 0.078125,-0.21875 0.359375,-0.953125 0.359375,-1.34375 0,-0.109375 0,-0.40625 -0.25,-0.609375 -0.125,-0.078125 -0.328125,-0.1875 -0.65625,-0.1875 -0.625,0 -1,0.421875 -1.234375,0.703125 C 3.90625,-2.96875 3.40625,-3.078125 3.046875,-3.078125 2.46875,-3.078125 2.078125,-2.71875 1.875,-2.4375 1.828125,-2.921875 1.421875,-3.078125 1.125,-3.078125 c -0.296875,0 -0.453125,0.21875 -0.546875,0.375 -0.15625,0.265625 -0.25,0.65625 -0.25,0.703125 0,0.078125 0.09375,0.078125 0.125,0.078125 0.09375,0 0.09375,-0.015625 0.140625,-0.203125 0.109375,-0.40625 0.25,-0.75 0.515625,-0.75 0.1875,0 0.234375,0.15625 0.234375,0.34375 0,0.125 -0.0625,0.390625 -0.125,0.578125 -0.046875,0.1875 -0.109375,0.46875 -0.140625,0.625 L 0.84375,-0.4375 c -0.015625,0.09375 -0.0625,0.265625 -0.0625,0.28125 0,0.15625 0.125,0.21875 0.234375,0.21875 0.125,0 0.234375,-0.078125 0.28125,-0.140625 0.03125,-0.0625 0.078125,-0.296875 0.125,-0.4375 0.03125,-0.125 0.109375,-0.453125 0.140625,-0.625 0.046875,-0.15625 0.09375,-0.3125 0.125,-0.46875 0.078125,-0.28125 0.09375,-0.34375 0.296875,-0.625 C 2.171875,-2.515625 2.5,-2.875 3.03125,-2.875 c 0.390625,0 0.40625,0.359375 0.40625,0.484375 0,0.171875 -0.015625,0.265625 -0.125,0.65625 z m 0,0"
               id="path333138" />
          </g>
        </g>
        <g
           clip-path="url(#clipPath10009)"
           clip-rule="nonzero"
           id="g333150"
           style="fill:#0000ff">
          <g
             style="fill:#0000ff;fill-opacity:1"
             id="g333148">
            <g
               id="g333146"
               transform="translate(13.296,5.2309999)"
               style="fill:#0000ff">
              <path
                 style="fill:#0000ff;stroke:none"
                 d="M 1.296875,-5.21875 H 0.21875 v 0.328125 H 0.953125 V 1.40625 H 0.21875 v 0.328125 h 1.078125 z m 0,0"
                 id="path333144" />
            </g>
          </g>
        </g>
      </g>
    </g>
    <path
       style="fill:none;stroke:#0000ff;stroke-width:0.132292;stroke-linejoin:round;stroke-dasharray:0.264583, 0.132292;stroke-dashoffset:0;paint-order:stroke markers fill"
       d="M 134.40833,270.86714 H 139.7"
       id="path333156"
       sodipodi:nodetypes="cc" />
    <path
       style="fill:none;stroke:#0000ff;stroke-width:0.396875;stroke-linejoin:round;stroke-dasharray:none;paint-order:stroke markers fill"
       d="m 133.35,279.39997 v 4.23333"
       id="path333158" />
    <path
       style="fill:none;stroke:#0000ff;stroke-width:0.396875;stroke-linejoin:round;stroke-dasharray:none;paint-order:stroke markers fill"
       d="M 133.35,281.51663 H 127"
       id="path333160"
       sodipodi:nodetypes="cc" />
    <path
       style="fill:none;stroke:#0000ff;stroke-width:0.396875;stroke-linejoin:round;stroke-dasharray:none;paint-order:stroke markers fill"
       d="m 114.29999,279.39996 v 4.23334"
       id="path333162" />
    <path
       style="fill:none;stroke:#0000ff;stroke-width:0.396875;stroke-linejoin:round;stroke-dasharray:none;paint-order:stroke markers fill"
       d="m 120.65,281.51663 h -6.35001"
       id="path333164"
       sodipodi:nodetypes="cc" />
    <path
       style="fill:none;stroke:#0000ff;stroke-width:0.132292;stroke-linejoin:round;stroke-dasharray:0.264583, 0.132292;stroke-dashoffset:0;paint-order:stroke markers fill"
       d="m 133.35,277.28329 v 2.11667"
       id="path333166"
       sodipodi:nodetypes="cc" />
    <path
       style="fill:none;stroke:#0000ff;stroke-width:0.132292;stroke-linejoin:round;stroke-dasharray:0.264583, 0.132292;stroke-dashoffset:0;paint-order:stroke markers fill"
       d="m 114.3,276.22496 0.0662,3.175"
       id="path333168"
       sodipodi:nodetypes="cc" />
    <g
       inkscape:label=""
       transform="translate(121.5104,280.4623)"
       id="g333198"
       style="fill:#0000ff">
      <g
         id="g333196"
         transform="matrix(0.352778,0,0,0.352778,-0.132292,1.32219e-4)"
         style="fill:#0000ff">
        <g
           clip-path="url(#clipPath2057)"
           clip-rule="nonzero"
           id="g333180"
           style="fill:#0000ff">
          <g
             style="fill:#0000ff;fill-opacity:1"
             id="g333178">
            <g
               id="g333172"
               transform="translate(0,4.4840002)"
               style="fill:#0000ff">
              <path
                 style="fill:#0000ff;stroke:none"
                 d="m 1.765625,-1.984375 c 0.5,0 0.84375,0.34375 0.84375,0.953125 0,0.65625 -0.390625,0.9375 -0.828125,0.9375 C 1.609375,-0.09375 1,-0.125 0.734375,-0.46875 0.96875,-0.5 1.0625,-0.65625 1.0625,-0.8125 c 0,-0.203125 -0.140625,-0.34375 -0.34375,-0.34375 -0.15625,0 -0.34375,0.109375 -0.34375,0.359375 0,0.59375 0.65625,0.921875 1.421875,0.921875 0.890625,0 1.46875,-0.5625 1.46875,-1.15625 0,-0.4375 -0.328125,-0.90625 -1.046875,-1.078125 0.484375,-0.15625 0.859375,-0.546875 0.859375,-1.03125 0,-0.484375 -0.5625,-0.84375 -1.28125,-0.84375 -0.703125,0 -1.234375,0.328125 -1.234375,0.8125 0,0.265625 0.203125,0.328125 0.328125,0.328125 0.15625,0 0.3125,-0.09375 0.3125,-0.3125 0,-0.1875 -0.125,-0.296875 -0.296875,-0.3125 0.28125,-0.3125 0.828125,-0.3125 0.890625,-0.3125 0.296875,0 0.6875,0.140625 0.6875,0.640625 0,0.328125 -0.1875,0.90625 -0.796875,0.9375 -0.109375,0 -0.265625,0.015625 -0.3125,0.015625 -0.0625,0.015625 -0.125,0.015625 -0.125,0.109375 0,0.09375 0.0625,0.09375 0.15625,0.09375 z m 0,0"
                 id="path333170" />
            </g>
            <g
               id="g333176"
               transform="translate(3.6529109,4.4840002)"
               style="fill:#0000ff">
              <path
                 style="fill:#0000ff;stroke:none"
                 d="m 1.859375,-4.171875 v -0.3125 H 0.890625 V 1.5 h 0.96875 V 1.1875 h -0.65625 v -5.359375 z m 0,0"
                 id="path333174" />
            </g>
          </g>
        </g>
        <g
           style="fill:#0000ff;fill-opacity:1"
           id="g333186">
          <g
             id="g333184"
             transform="translate(5.756,4.4840002)"
             style="fill:#0000ff">
            <path
               style="fill:#0000ff;stroke:none"
               d="M 2.828125,-0.515625 C 2.796875,-0.390625 2.75,-0.171875 2.75,-0.140625 2.75,0 2.84375,0.0625 2.953125,0.0625 c 0.109375,0 0.21875,-0.078125 0.265625,-0.171875 0,-0.03125 0.0625,-0.234375 0.09375,-0.359375 L 3.4375,-1 C 3.484375,-1.15625 3.5,-1.265625 3.546875,-1.40625 3.59375,-1.609375 3.8125,-1.921875 4.03125,-2.140625 c 0.109375,-0.125 0.375,-0.296875 0.703125,-0.296875 0.375,0 0.375,0.296875 0.375,0.421875 0,0.34375 -0.25,0.984375 -0.359375,1.25 -0.046875,0.109375 -0.078125,0.203125 -0.078125,0.3125 0,0.296875 0.265625,0.515625 0.59375,0.515625 0.609375,0 0.90625,-0.796875 0.90625,-0.921875 0,-0.015625 0,-0.09375 -0.109375,-0.09375 -0.078125,0 -0.09375,0.03125 -0.125,0.15625 -0.109375,0.34375 -0.359375,0.65625 -0.640625,0.65625 -0.078125,0 -0.171875,-0.03125 -0.171875,-0.21875 0,-0.109375 0.046875,-0.21875 0.09375,-0.34375 C 5.296875,-0.875 5.578125,-1.59375 5.578125,-1.9375 c 0,-0.5 -0.359375,-0.703125 -0.828125,-0.703125 -0.328125,0 -0.71875,0.125 -1.109375,0.625 -0.03125,-0.4375 -0.390625,-0.625 -0.828125,-0.625 -0.296875,0 -0.671875,0.09375 -1.0625,0.5625 -0.03125,-0.453125 -0.453125,-0.5625 -0.671875,-0.5625 -0.234375,0 -0.390625,0.140625 -0.484375,0.328125 -0.15625,0.25 -0.234375,0.578125 -0.234375,0.59375 0,0.0625 0.0625,0.078125 0.109375,0.078125 0.09375,0 0.109375,-0.03125 0.140625,-0.125 C 0.71875,-2.25 0.875,-2.4375 1.0625,-2.4375 c 0.203125,0 0.21875,0.203125 0.21875,0.296875 0,0.09375 -0.0625,0.34375 -0.109375,0.5 C 1.125,-1.46875 1.078125,-1.234375 1.046875,-1.09375 1,-0.953125 0.96875,-0.796875 0.921875,-0.640625 0.875,-0.46875 0.8125,-0.171875 0.8125,-0.140625 0.8125,0 0.90625,0.0625 1.015625,0.0625 c 0.109375,0 0.21875,-0.078125 0.265625,-0.171875 0,-0.03125 0.0625,-0.234375 0.09375,-0.359375 L 1.5,-1 c 0.046875,-0.15625 0.0625,-0.265625 0.109375,-0.40625 0.046875,-0.203125 0.25,-0.515625 0.484375,-0.734375 0.109375,-0.125 0.375,-0.296875 0.6875,-0.296875 0.390625,0 0.390625,0.296875 0.390625,0.421875 0,0.140625 -0.0625,0.375 -0.109375,0.5625 z m 0,0"
               id="path333182" />
          </g>
        </g>
        <g
           clip-path="url(#clipPath6722)"
           clip-rule="nonzero"
           id="g333194"
           style="fill:#0000ff">
          <g
             style="fill:#0000ff;fill-opacity:1"
             id="g333192">
            <g
               id="g333190"
               transform="translate(12.294,4.4840002)"
               style="fill:#0000ff">
              <path
                 style="fill:#0000ff;stroke:none"
                 d="m 1.203125,-4.484375 h -0.96875 v 0.3125 h 0.65625 V 1.1875 H 0.234375 V 1.5 h 0.96875 z m 0,0"
                 id="path333188" />
            </g>
          </g>
        </g>
      </g>
    </g>
    <g
       inkscape:label=""
       transform="translate(113.81986,238.18406)"
       id="g333274"
       style="fill:#0000ff">
      <g
         id="g333272"
         transform="matrix(0.352778,0,0,0.352778,-8.3894613,10.681456)"
         style="fill:#0000ff">
        <g
           clip-path="url(#clipPath21641)"
           clip-rule="nonzero"
           id="g333270"
           style="fill:#0000ff">
          <g
             style="fill:#0000ff;fill-opacity:1"
             id="g333268">
            <g
               id="g333238"
               transform="translate(18.355301,4.4840002)"
               style="fill:#0000ff">
              <path
                 style="fill:#0000ff;stroke:none"
                 d="m 2.140625,-3.796875 c 0,-0.1875 -0.015625,-0.1875 -0.203125,-0.1875 -0.390625,0.390625 -1,0.390625 -1.21875,0.390625 v 0.234375 c 0.15625,0 0.5625,0 0.921875,-0.171875 v 3.015625 c 0,0.203125 0,0.28125 -0.625,0.28125 h -0.25 V 0 c 0.328125,-0.03125 0.796875,-0.03125 1.125,-0.03125 0.328125,0 0.796875,0 1.125,0.03125 v -0.234375 h -0.25 c -0.625,0 -0.625,-0.078125 -0.625,-0.28125 z m 0,0"
                 id="path333236" />
            </g>
            <g
               id="g333242"
               transform="translate(22.008211,4.4840002)"
               style="fill:#0000ff">
              <path
                 style="fill:#0000ff;stroke:none"
                 d="m 3.296875,-1.90625 c 0,-0.4375 0,-2.078125 -1.46875,-2.078125 -1.46875,0 -1.46875,1.640625 -1.46875,2.078125 0,0.421875 0,2.03125 1.46875,2.03125 1.46875,0 1.46875,-1.609375 1.46875,-2.03125 z m -1.46875,1.84375 c -0.25,0 -0.65625,-0.125 -0.8125,-0.625 -0.09375,-0.34375 -0.09375,-0.921875 -0.09375,-1.296875 0,-0.40625 0,-0.859375 0.09375,-1.1875 0.140625,-0.53125 0.59375,-0.609375 0.8125,-0.609375 0.265625,0 0.671875,0.125 0.796875,0.578125 0.09375,0.3125 0.09375,0.75 0.09375,1.21875 0,0.375 0,0.984375 -0.09375,1.3125 C 2.453125,-0.140625 2.015625,-0.0625 1.828125,-0.0625 Z m 0,0"
                 id="path333240" />
            </g>
            <g
               id="g333246"
               transform="translate(25.661121,4.4840002)"
               style="fill:#0000ff">
              <path
                 style="fill:#0000ff;stroke:none"
                 d="m 3.296875,-1.90625 c 0,-0.4375 0,-2.078125 -1.46875,-2.078125 -1.46875,0 -1.46875,1.640625 -1.46875,2.078125 0,0.421875 0,2.03125 1.46875,2.03125 1.46875,0 1.46875,-1.609375 1.46875,-2.03125 z m -1.46875,1.84375 c -0.25,0 -0.65625,-0.125 -0.8125,-0.625 -0.09375,-0.34375 -0.09375,-0.921875 -0.09375,-1.296875 0,-0.40625 0,-0.859375 0.09375,-1.1875 0.140625,-0.53125 0.59375,-0.609375 0.8125,-0.609375 0.265625,0 0.671875,0.125 0.796875,0.578125 0.09375,0.3125 0.09375,0.75 0.09375,1.21875 0,0.375 0,0.984375 -0.09375,1.3125 C 2.453125,-0.140625 2.015625,-0.0625 1.828125,-0.0625 Z m 0,0"
                 id="path333244" />
            </g>
            <g
               id="g333250"
               transform="translate(29.314034,4.4840002)"
               style="fill:#0000ff">
              <path
                 style="fill:#0000ff;stroke:none"
                 d="m 3.296875,-1.90625 c 0,-0.4375 0,-2.078125 -1.46875,-2.078125 -1.46875,0 -1.46875,1.640625 -1.46875,2.078125 0,0.421875 0,2.03125 1.46875,2.03125 1.46875,0 1.46875,-1.609375 1.46875,-2.03125 z m -1.46875,1.84375 c -0.25,0 -0.65625,-0.125 -0.8125,-0.625 -0.09375,-0.34375 -0.09375,-0.921875 -0.09375,-1.296875 0,-0.40625 0,-0.859375 0.09375,-1.1875 0.140625,-0.53125 0.59375,-0.609375 0.8125,-0.609375 0.265625,0 0.671875,0.125 0.796875,0.578125 0.09375,0.3125 0.09375,0.75 0.09375,1.21875 0,0.375 0,0.984375 -0.09375,1.3125 C 2.453125,-0.140625 2.015625,-0.0625 1.828125,-0.0625 Z m 0,0"
                 id="path333248" />
            </g>
            <g
               id="g333254"
               transform="translate(32.966946,4.4840002)"
               style="fill:#0000ff">
              <path
                 style="fill:#0000ff;stroke:none"
                 d="m 1.859375,-4.171875 v -0.3125 H 0.890625 V 1.5 h 0.96875 V 1.1875 h -0.65625 v -5.359375 z m 0,0"
                 id="path333252" />
            </g>
            <g
               id="g333258"
               transform="translate(35.069866,4.4840002)"
               style="fill:#0000ff">
              <path
                 style="fill:#0000ff;stroke:none"
                 d="m 2.078125,-1.609375 c 0.65625,-0.5 0.96875,-0.71875 1.40625,-0.734375 v -0.234375 c -0.078125,0 -0.25,0.015625 -0.4375,0.015625 -0.265625,0 -0.6875,-0.015625 -0.75,-0.015625 V -2.34375 C 2.40625,-2.328125 2.40625,-2.265625 2.40625,-2.25 c 0,0.03125 0,0.125 -0.1875,0.25 L 1.296875,-1.328125 V -4.15625 l -0.953125,0.0625 v 0.234375 c 0.421875,0 0.46875,0.046875 0.46875,0.34375 v 3.03125 c 0,0.25 -0.046875,0.25 -0.46875,0.25 V 0 C 0.515625,-0.015625 0.921875,-0.03125 1.046875,-0.03125 1.140625,-0.03125 1.5625,-0.015625 1.75,0 v -0.234375 c -0.421875,0 -0.46875,0 -0.46875,-0.25 V -1.03125 l 0.453125,-0.328125 c 0.03125,0.03125 0.1875,0.203125 0.671875,0.765625 0.0625,0.078125 0.140625,0.171875 0.140625,0.265625 0,0.078125 -0.09375,0.09375 -0.15625,0.09375 V 0 C 2.515625,-0.015625 2.9375,-0.03125 3.09375,-0.03125 3.328125,-0.03125 3.59375,0 3.640625,0 v -0.234375 c -0.3125,0 -0.390625,-0.046875 -0.609375,-0.28125 z m 0,0"
                 id="path333256" />
            </g>
            <g
               id="g333262"
               transform="translate(38.916451,4.4840002)"
               style="fill:#0000ff">
              <path
                 style="fill:#0000ff;stroke:none"
                 d="M 0.953125,-1.046875 C 1.09375,-0.96875 1.328125,-0.875 1.625,-0.875 2.296875,-0.875 2.75,-1.296875 2.75,-1.75 2.75,-2.09375 2.5,-2.3125 2.5,-2.328125 2.765625,-2.5 3.015625,-2.515625 3.109375,-2.515625 3.09375,-2.484375 3.0625,-2.46875 3.0625,-2.375 c 0,0.09375 0.078125,0.1875 0.203125,0.1875 0.140625,0 0.203125,-0.09375 0.203125,-0.203125 0,-0.125 -0.109375,-0.3125 -0.375,-0.3125 -0.25,0 -0.53125,0.09375 -0.734375,0.28125 -0.203125,-0.140625 -0.46875,-0.21875 -0.71875,-0.21875 -0.65625,0 -1.125,0.421875 -1.125,0.890625 0,0.1875 0.078125,0.390625 0.28125,0.59375 -0.125,0.171875 -0.171875,0.34375 -0.171875,0.484375 0,0.328125 0.21875,0.5 0.25,0.53125 -0.234375,0.0625 -0.59375,0.265625 -0.59375,0.59375 0,0.46875 0.71875,0.78125 1.546875,0.78125 C 2.59375,1.234375 3.375,0.953125 3.375,0.4375 3.375,0.296875 3.328125,-0.09375 2.84375,-0.28125 2.5,-0.4375 2.171875,-0.4375 1.609375,-0.4375 c -0.15625,0 -0.375,0 -0.4375,0 C 1.015625,-0.46875 0.875,-0.609375 0.875,-0.828125 c 0,-0.125 0.0625,-0.203125 0.078125,-0.21875 z m 0.6875,-0.03125 c -0.5,0 -0.625,-0.359375 -0.625,-0.671875 0,-0.109375 0,-0.6875 0.609375,-0.6875 0.53125,0 0.625,0.421875 0.625,0.671875 0,0.125 0,0.6875 -0.609375,0.6875 z M 1.96875,0 C 2.15625,0 2.984375,0 2.984375,0.453125 2.984375,0.75 2.5,1.03125 1.828125,1.03125 1.171875,1.03125 0.671875,0.765625 0.671875,0.453125 0.671875,0.296875 0.796875,0 1.296875,0 Z m 0,0"
                 id="path333260" />
            </g>
            <g
               id="g333266"
               transform="translate(42.569363,4.4840002)"
               style="fill:#0000ff">
              <path
                 style="fill:#0000ff;stroke:none"
                 d="m 1.203125,-4.484375 h -0.96875 v 0.3125 h 0.65625 V 1.1875 H 0.234375 V 1.5 h 0.96875 z m 0,0"
                 id="path333264" />
            </g>
          </g>
        </g>
      </g>
    </g>
    <g
       inkscape:label=""
       transform="translate(120.34393,242.50712)"
       id="g333310"
       style="fill:#0000ff">
      <g
         id="g333308"
         transform="matrix(0.352778,0,0,0.352778,-0.176389,1.32219e-4)"
         style="fill:#0000ff">
        <g
           clip-path="url(#clipPath43195)"
           clip-rule="nonzero"
           id="g333306"
           style="fill:#0000ff">
          <g
             style="fill:#0000ff;fill-opacity:1"
             id="g333304">
            <g
               id="g333278"
               transform="translate(18.355301,4.4840002)"
               style="fill:#0000ff">
              <path
                 style="fill:#0000ff;stroke:none"
                 d="M 1.015625,-3.328125 C 1.21875,-3.265625 1.421875,-3.25 1.625,-3.25 c 0.140625,0 0.46875,0 0.84375,-0.203125 0.109375,-0.0625 0.46875,-0.3125 0.46875,-0.4375 0,-0.078125 -0.046875,-0.09375 -0.078125,-0.09375 -0.015625,0 -0.015625,0 -0.09375,0.03125 C 2.5625,-3.875 2.25,-3.78125 1.859375,-3.78125 1.5625,-3.78125 1.25,-3.84375 0.96875,-3.9375 0.921875,-3.96875 0.890625,-3.984375 0.875,-3.984375 c -0.09375,0 -0.09375,0.078125 -0.09375,0.171875 v 1.796875 c 0,0.09375 0,0.171875 0.109375,0.171875 C 0.953125,-1.84375 0.96875,-1.875 1,-1.921875 1.15625,-2.109375 1.421875,-2.3125 1.890625,-2.3125 2.625,-2.3125 2.625,-1.421875 2.625,-1.234375 2.625,-1 2.609375,-0.65625 2.40625,-0.40625 c -0.1875,0.21875 -0.46875,0.3125 -0.71875,0.3125 -0.40625,0 -0.828125,-0.21875 -0.96875,-0.578125 0.296875,0 0.328125,-0.234375 0.328125,-0.296875 0,-0.171875 -0.125,-0.3125 -0.3125,-0.3125 C 0.6875,-1.28125 0.4375,-1.25 0.4375,-0.953125 0.4375,-0.40625 0.953125,0.125 1.703125,0.125 2.53125,0.125 3.21875,-0.453125 3.21875,-1.203125 3.21875,-1.890625 2.671875,-2.5 1.890625,-2.5 c -0.375,0 -0.6875,0.125 -0.875,0.28125 z m 0,0"
                 id="path333276" />
            </g>
            <g
               id="g333282"
               transform="translate(22.008211,4.4840002)"
               style="fill:#0000ff">
              <path
                 style="fill:#0000ff;stroke:none"
                 d="m 3.296875,-1.90625 c 0,-0.4375 0,-2.078125 -1.46875,-2.078125 -1.46875,0 -1.46875,1.640625 -1.46875,2.078125 0,0.421875 0,2.03125 1.46875,2.03125 1.46875,0 1.46875,-1.609375 1.46875,-2.03125 z m -1.46875,1.84375 c -0.25,0 -0.65625,-0.125 -0.8125,-0.625 -0.09375,-0.34375 -0.09375,-0.921875 -0.09375,-1.296875 0,-0.40625 0,-0.859375 0.09375,-1.1875 0.140625,-0.53125 0.59375,-0.609375 0.8125,-0.609375 0.265625,0 0.671875,0.125 0.796875,0.578125 0.09375,0.3125 0.09375,0.75 0.09375,1.21875 0,0.375 0,0.984375 -0.09375,1.3125 C 2.453125,-0.140625 2.015625,-0.0625 1.828125,-0.0625 Z m 0,0"
                 id="path333280" />
            </g>
            <g
               id="g333286"
               transform="translate(25.661121,4.4840002)"
               style="fill:#0000ff">
              <path
                 style="fill:#0000ff;stroke:none"
                 d="m 3.296875,-1.90625 c 0,-0.4375 0,-2.078125 -1.46875,-2.078125 -1.46875,0 -1.46875,1.640625 -1.46875,2.078125 0,0.421875 0,2.03125 1.46875,2.03125 1.46875,0 1.46875,-1.609375 1.46875,-2.03125 z m -1.46875,1.84375 c -0.25,0 -0.65625,-0.125 -0.8125,-0.625 -0.09375,-0.34375 -0.09375,-0.921875 -0.09375,-1.296875 0,-0.40625 0,-0.859375 0.09375,-1.1875 0.140625,-0.53125 0.59375,-0.609375 0.8125,-0.609375 0.265625,0 0.671875,0.125 0.796875,0.578125 0.09375,0.3125 0.09375,0.75 0.09375,1.21875 0,0.375 0,0.984375 -0.09375,1.3125 C 2.453125,-0.140625 2.015625,-0.0625 1.828125,-0.0625 Z m 0,0"
                 id="path333284" />
            </g>
            <g
               id="g333290"
               transform="translate(29.314034,4.4840002)"
               style="fill:#0000ff">
              <path
                 style="fill:#0000ff;stroke:none"
                 d="m 1.859375,-4.171875 v -0.3125 H 0.890625 V 1.5 h 0.96875 V 1.1875 h -0.65625 v -5.359375 z m 0,0"
                 id="path333288" />
            </g>
            <g
               id="g333294"
               transform="translate(31.416952,4.4840002)"
               style="fill:#0000ff">
              <path
                 style="fill:#0000ff;stroke:none"
                 d="m 2.078125,-1.609375 c 0.65625,-0.5 0.96875,-0.71875 1.40625,-0.734375 v -0.234375 c -0.078125,0 -0.25,0.015625 -0.4375,0.015625 -0.265625,0 -0.6875,-0.015625 -0.75,-0.015625 V -2.34375 C 2.40625,-2.328125 2.40625,-2.265625 2.40625,-2.25 c 0,0.03125 0,0.125 -0.1875,0.25 L 1.296875,-1.328125 V -4.15625 l -0.953125,0.0625 v 0.234375 c 0.421875,0 0.46875,0.046875 0.46875,0.34375 v 3.03125 c 0,0.25 -0.046875,0.25 -0.46875,0.25 V 0 C 0.515625,-0.015625 0.921875,-0.03125 1.046875,-0.03125 1.140625,-0.03125 1.5625,-0.015625 1.75,0 v -0.234375 c -0.421875,0 -0.46875,0 -0.46875,-0.25 V -1.03125 l 0.453125,-0.328125 c 0.03125,0.03125 0.1875,0.203125 0.671875,0.765625 0.0625,0.078125 0.140625,0.171875 0.140625,0.265625 0,0.078125 -0.09375,0.09375 -0.15625,0.09375 V 0 C 2.515625,-0.015625 2.9375,-0.03125 3.09375,-0.03125 3.328125,-0.03125 3.59375,0 3.640625,0 v -0.234375 c -0.3125,0 -0.390625,-0.046875 -0.609375,-0.28125 z m 0,0"
                 id="path333292" />
            </g>
            <g
               id="g333298"
               transform="translate(35.263538,4.4840002)"
               style="fill:#0000ff">
              <path
                 style="fill:#0000ff;stroke:none"
                 d="M 0.953125,-1.046875 C 1.09375,-0.96875 1.328125,-0.875 1.625,-0.875 2.296875,-0.875 2.75,-1.296875 2.75,-1.75 2.75,-2.09375 2.5,-2.3125 2.5,-2.328125 2.765625,-2.5 3.015625,-2.515625 3.109375,-2.515625 3.09375,-2.484375 3.0625,-2.46875 3.0625,-2.375 c 0,0.09375 0.078125,0.1875 0.203125,0.1875 0.140625,0 0.203125,-0.09375 0.203125,-0.203125 0,-0.125 -0.109375,-0.3125 -0.375,-0.3125 -0.25,0 -0.53125,0.09375 -0.734375,0.28125 -0.203125,-0.140625 -0.46875,-0.21875 -0.71875,-0.21875 -0.65625,0 -1.125,0.421875 -1.125,0.890625 0,0.1875 0.078125,0.390625 0.28125,0.59375 -0.125,0.171875 -0.171875,0.34375 -0.171875,0.484375 0,0.328125 0.21875,0.5 0.25,0.53125 -0.234375,0.0625 -0.59375,0.265625 -0.59375,0.59375 0,0.46875 0.71875,0.78125 1.546875,0.78125 C 2.59375,1.234375 3.375,0.953125 3.375,0.4375 3.375,0.296875 3.328125,-0.09375 2.84375,-0.28125 2.5,-0.4375 2.171875,-0.4375 1.609375,-0.4375 c -0.15625,0 -0.375,0 -0.4375,0 C 1.015625,-0.46875 0.875,-0.609375 0.875,-0.828125 c 0,-0.125 0.0625,-0.203125 0.078125,-0.21875 z m 0.6875,-0.03125 c -0.5,0 -0.625,-0.359375 -0.625,-0.671875 0,-0.109375 0,-0.6875 0.609375,-0.6875 0.53125,0 0.625,0.421875 0.625,0.671875 0,0.125 0,0.6875 -0.609375,0.6875 z M 1.96875,0 C 2.15625,0 2.984375,0 2.984375,0.453125 2.984375,0.75 2.5,1.03125 1.828125,1.03125 1.171875,1.03125 0.671875,0.765625 0.671875,0.453125 0.671875,0.296875 0.796875,0 1.296875,0 Z m 0,0"
                 id="path333296" />
            </g>
            <g
               id="g333302"
               transform="translate(38.916451,4.4840002)"
               style="fill:#0000ff">
              <path
                 style="fill:#0000ff;stroke:none"
                 d="m 1.203125,-4.484375 h -0.96875 v 0.3125 h 0.65625 V 1.1875 H 0.234375 V 1.5 h 0.96875 z m 0,0"
                 id="path333300" />
            </g>
          </g>
        </g>
      </g>
    </g>
    <circle
       style="fill:#ff0000;stroke:none;stroke-width:0.396875;stroke-linejoin:round;stroke-dasharray:none;stroke-dashoffset:0;paint-order:stroke markers fill"
       id="circle333312"
       cy="270.93329"
       cx="114.3"
       r="0.78441644" />
    <path
       style="fill:none;stroke:#ff0000;stroke-width:0.396875;stroke-linejoin:round;stroke-dasharray:none;marker-end:url(#Arrow2-4-0-4-5-8-5);paint-order:stroke markers fill"
       d="m 114.3,270.93328 v -3.175"
       id="path333314"
       sodipodi:nodetypes="cc" />
    <path
       style="fill:none;stroke:#ff0000;stroke-width:0.396875;stroke-linejoin:round;stroke-dasharray:none;marker-end:url(#Arrow2-4-0-4-5-8-5);paint-order:stroke markers fill"
       d="m 114.3,270.93328 h -3.18824"
       id="path333316"
       sodipodi:nodetypes="cc" />
    <circle
       style="fill:#ff0000;stroke:none;stroke-width:0.396875;stroke-linejoin:round;stroke-dasharray:none;stroke-dashoffset:0;paint-order:stroke markers fill"
       id="circle333318"
       cy="-245.53328"
       cx="-123.825"
       r="0.78441644"
       transform="scale(-1)" />
    <path
       style="fill:none;stroke:#ff0000;stroke-width:0.396875;stroke-linejoin:round;stroke-dasharray:none;marker-end:url(#Arrow2-4-0-4-5-8-5-1);paint-order:stroke markers fill"
       d="m 123.825,245.53329 v 3.175"
       id="path333320"
       sodipodi:nodetypes="cc" />
    <path
       style="fill:none;stroke:#ff0000;stroke-width:0.396875;stroke-linejoin:round;stroke-dasharray:none;marker-end:url(#Arrow2-4-0-4-5-8-5-1);paint-order:stroke markers fill"
       d="m 123.825,245.53329 h 3.18824"
       id="path333322"
       sodipodi:nodetypes="cc" />
    <circle
       style="fill:#ff0000;stroke:none;stroke-width:0.396875;stroke-linejoin:round;stroke-dasharray:none;stroke-dashoffset:0;paint-order:stroke markers fill"
       id="circle333324"
       cy="270.93329"
       cx="133.35001"
       r="0.78441644" />
    <path
       style="fill:none;stroke:#ff0000;stroke-width:0.396875;stroke-linejoin:round;stroke-dasharray:none;marker-end:url(#Arrow2-4-0-4-0-1-8);paint-order:stroke markers fill"
       d="m 133.35,270.93329 v -4.23333"
       id="path333326"
       sodipodi:nodetypes="cc" />
    <g
       inkscape:label=""
       transform="translate(106.82276,270.33522)"
       id="g340428"
       style="fill:#ff0000">
      <g
         id="g340426"
         transform="matrix(0.352778,0,0,0.352778,-0.15434,0.0637205)"
         style="fill:#ff0000">
        <g
           style="fill:#ff0000;fill-opacity:1"
           id="g23">
          <g
             id="use21"
             transform="translate(0,4.085)"
             style="fill:#ff0000">
            <path
               style="fill:#ff0000;stroke:none"
               d="m 1.359375,-0.734375 c -0.234375,0.34375 -0.4375,0.46875 -0.765625,0.5 -0.09375,0 -0.15625,0 -0.15625,0.140625 C 0.4375,-0.03125 0.484375,0 0.515625,0 0.6875,0 0.890625,-0.03125 1.0625,-0.03125 1.203125,-0.03125 1.5625,0 1.703125,0 c 0.0625,0 0.125,-0.03125 0.125,-0.15625 0,-0.078125 -0.078125,-0.078125 -0.09375,-0.078125 C 1.578125,-0.25 1.453125,-0.28125 1.453125,-0.40625 c 0,-0.078125 0.0625,-0.1875 0.078125,-0.21875 l 0.5,-0.734375 h 1.796875 l 0.15625,0.96875 c 0,0.15625 -0.34375,0.15625 -0.40625,0.15625 -0.078125,0 -0.171875,0 -0.171875,0.140625 C 3.40625,-0.0625 3.4375,0 3.5,0 c 0.1875,0 0.625,-0.03125 0.796875,-0.03125 0.125,0 0.234375,0.015625 0.359375,0.015625 C 4.78125,-0.015625 4.90625,0 5.015625,0 5.0625,0 5.15625,0 5.15625,-0.15625 c 0,-0.078125 -0.078125,-0.078125 -0.171875,-0.078125 -0.375,0 -0.375,-0.046875 -0.40625,-0.203125 L 3.984375,-4.109375 C 3.96875,-4.21875 3.96875,-4.265625 3.828125,-4.265625 c -0.125,0 -0.15625,0.046875 -0.21875,0.125 z M 2.1875,-1.59375 3.484375,-3.546875 3.78125,-1.59375 Z m 0,0"
               id="path36" />
          </g>
        </g>
        <g
           clip-path="url(#clipPath8378)"
           clip-rule="nonzero"
           id="g29"
           style="fill:#ff0000">
          <g
             style="fill:#ff0000;fill-opacity:1"
             id="g27">
            <g
               id="use25"
               transform="translate(5.5240002,5.0809999)"
               style="fill:#ff0000">
              <path
                 style="fill:#ff0000;stroke:none"
                 d="m 3.09375,-1.953125 c -0.234375,0.0625 -0.234375,0.28125 -0.234375,0.296875 0,0.078125 0.0625,0.203125 0.234375,0.203125 0.140625,0 0.3125,-0.125 0.3125,-0.34375 0,-0.296875 -0.328125,-0.40625 -0.59375,-0.40625 -0.328125,0 -0.546875,0.203125 -0.640625,0.34375 -0.15625,-0.28125 -0.484375,-0.34375 -0.65625,-0.34375 -0.625,0 -0.984375,0.59375 -0.984375,0.765625 0,0.078125 0.078125,0.078125 0.109375,0.078125 0.046875,0 0.078125,0 0.109375,-0.0625 0.140625,-0.484375 0.546875,-0.609375 0.734375,-0.609375 0.171875,0 0.359375,0.0625 0.359375,0.328125 0,0.125 -0.09375,0.46875 -0.265625,1.140625 -0.0625,0.28125 -0.296875,0.453125 -0.515625,0.453125 -0.03125,0 -0.171875,0 -0.296875,-0.078125 0.21875,-0.09375 0.21875,-0.28125 0.21875,-0.296875 0,-0.140625 -0.109375,-0.203125 -0.21875,-0.203125 -0.125,0 -0.296875,0.09375 -0.296875,0.328125 0,0.3125 0.328125,0.421875 0.59375,0.421875 0.265625,0 0.5,-0.171875 0.609375,-0.34375 C 1.875,0.015625 2.1875,0.0625 2.34375,0.0625 c 0.625,0 0.984375,-0.59375 0.984375,-0.78125 0,-0.0625 -0.078125,-0.0625 -0.109375,-0.0625 -0.078125,0 -0.09375,0.03125 -0.109375,0.0625 C 2.96875,-0.265625 2.59375,-0.109375 2.375,-0.109375 c -0.15625,0 -0.359375,-0.0625 -0.359375,-0.34375 0,-0.0625 0,-0.09375 0.03125,-0.265625 0.09375,-0.34375 0.21875,-0.890625 0.265625,-0.984375 0.0625,-0.125 0.234375,-0.328125 0.484375,-0.328125 0.015625,0 0.1875,0 0.296875,0.078125 z m 0,0"
                 id="path40" />
            </g>
          </g>
        </g>
      </g>
    </g>
    <g
       inkscape:label=""
       transform="translate(110.93207,264.27461)"
       id="g343951"
       style="fill:#ff0000">
      <g
         id="g343949"
         transform="matrix(0.352778,0,0,0.352778,-0.15434,0.0637205)"
         style="fill:#ff0000">
        <g
           style="fill:#ff0000;fill-opacity:1"
           id="g343939">
          <g
             id="g343937"
             transform="translate(0,4.085)"
             style="fill:#ff0000">
            <path
               style="fill:#ff0000;stroke:none"
               d="m 1.359375,-0.734375 c -0.234375,0.34375 -0.4375,0.46875 -0.765625,0.5 -0.09375,0 -0.15625,0 -0.15625,0.140625 C 0.4375,-0.03125 0.484375,0 0.515625,0 0.6875,0 0.890625,-0.03125 1.0625,-0.03125 1.203125,-0.03125 1.5625,0 1.703125,0 c 0.0625,0 0.125,-0.03125 0.125,-0.15625 0,-0.078125 -0.078125,-0.078125 -0.09375,-0.078125 C 1.578125,-0.25 1.453125,-0.28125 1.453125,-0.40625 c 0,-0.078125 0.0625,-0.1875 0.078125,-0.21875 l 0.5,-0.734375 h 1.796875 l 0.15625,0.96875 c 0,0.15625 -0.34375,0.15625 -0.40625,0.15625 -0.078125,0 -0.171875,0 -0.171875,0.140625 C 3.40625,-0.0625 3.4375,0 3.5,0 c 0.1875,0 0.625,-0.03125 0.796875,-0.03125 0.125,0 0.234375,0.015625 0.359375,0.015625 C 4.78125,-0.015625 4.90625,0 5.015625,0 5.0625,0 5.15625,0 5.15625,-0.15625 c 0,-0.078125 -0.078125,-0.078125 -0.171875,-0.078125 -0.375,0 -0.375,-0.046875 -0.40625,-0.203125 L 3.984375,-4.109375 C 3.96875,-4.21875 3.96875,-4.265625 3.828125,-4.265625 c -0.125,0 -0.15625,0.046875 -0.21875,0.125 z M 2.1875,-1.59375 3.484375,-3.546875 3.78125,-1.59375 Z m 0,0"
               id="path343935" />
          </g>
        </g>
        <g
           clip-path="url(#clipPath2847)"
           clip-rule="nonzero"
           id="g343947"
           style="fill:#ff0000">
          <g
             style="fill:#ff0000;fill-opacity:1"
             id="g343945">
            <g
               id="g343943"
               transform="translate(5.5240002,5.0809999)"
               style="fill:#ff0000">
              <path
                 style="fill:#ff0000;stroke:none"
                 d="M 3.296875,-1.859375 C 3.3125,-1.9375 3.3125,-1.96875 3.3125,-1.96875 c 0,-0.109375 -0.078125,-0.171875 -0.171875,-0.171875 -0.203125,0 -0.25,0.171875 -0.28125,0.296875 L 2.75,-1.421875 l -0.140625,0.625 c -0.03125,0.0625 -0.046875,0.15625 -0.0625,0.1875 0,0.03125 -0.265625,0.5 -0.6875,0.5 -0.234375,0 -0.40625,-0.109375 -0.40625,-0.4375 0,-0.265625 0.140625,-0.640625 0.28125,-1 0.03125,-0.046875 0.0625,-0.140625 0.0625,-0.21875 0,-0.25 -0.234375,-0.4375 -0.546875,-0.4375 -0.515625,0 -0.796875,0.640625 -0.796875,0.765625 0,0.078125 0.078125,0.078125 0.109375,0.078125 0.078125,0 0.078125,-0.03125 0.109375,-0.09375 0.109375,-0.34375 0.34375,-0.578125 0.5625,-0.578125 0.09375,0 0.15625,0.046875 0.15625,0.1875 0,0.09375 -0.03125,0.171875 -0.0625,0.265625 -0.25,0.59375 -0.296875,0.765625 -0.296875,0.96875 0,0.546875 0.46875,0.671875 0.796875,0.671875 0.28125,0 0.5,-0.140625 0.625,-0.25 -0.078125,0.28125 -0.125,0.5 -0.359375,0.734375 -0.125,0.109375 -0.359375,0.3125 -0.65625,0.3125 -0.09375,0 -0.28125,-0.015625 -0.390625,-0.125 0.21875,-0.0625 0.25,-0.25 0.25,-0.296875 0,-0.140625 -0.125,-0.203125 -0.21875,-0.203125 -0.15625,0 -0.328125,0.109375 -0.328125,0.34375 0,0.25 0.265625,0.4375 0.6875,0.4375 C 2,1.015625 2.671875,0.640625 2.828125,0 Z m 0,0"
                 id="path343941" />
            </g>
          </g>
        </g>
      </g>
    </g>
    <g
       inkscape:label=""
       transform="translate(134.26501,263.89427)"
       id="g347496"
       style="fill:#ff0000">
      <g
         id="g347494"
         transform="matrix(0.352778,0,0,0.352778,-0.181901,0.00308679)"
         style="fill:#ff0000">
        <g
           style="fill:#ff0000;fill-opacity:1"
           id="g347484">
          <g
             id="g347482"
             transform="translate(0,4.085)"
             style="fill:#ff0000">
            <path
               style="fill:#ff0000;stroke:none"
               d="m 1.25,-0.5 c -0.046875,0.21875 -0.0625,0.265625 -0.515625,0.265625 -0.125,0 -0.140625,0 -0.15625,0.015625 -0.03125,0.015625 -0.0625,0.09375 -0.0625,0.140625 C 0.53125,0 0.59375,0 0.71875,0 H 3.140625 C 4.1875,0 5,-0.671875 5,-1.28125 5,-1.640625 4.671875,-2.046875 3.921875,-2.140625 c 0.6875,-0.109375 1.375,-0.546875 1.375,-1.09375 0,-0.421875 -0.46875,-0.859375 -1.3125,-0.859375 H 1.6875 c -0.109375,0 -0.203125,0 -0.203125,0.15625 0,0.09375 0.09375,0.09375 0.203125,0.09375 0.109375,0 0.25,0 0.375,0.03125 0,0.0625 0,0.109375 -0.015625,0.203125 z M 2.234375,-2.21875 2.59375,-3.640625 C 2.640625,-3.84375 2.640625,-3.84375 2.890625,-3.84375 h 1 c 0.609375,0 0.796875,0.375 0.796875,0.625 0,0.484375 -0.625,1 -1.359375,1 z m -0.28125,1.984375 c -0.109375,0 -0.125,0 -0.203125,-0.015625 l 0.4375,-1.78125 h 1.296875 c 0.765625,0 0.890625,0.484375 0.890625,0.734375 0,0.5625 -0.640625,1.0625 -1.390625,1.0625 z m 0,0"
               id="path347480" />
          </g>
        </g>
        <g
           clip-path="url(#clipPath3499)"
           clip-rule="nonzero"
           id="g347492"
           style="fill:#ff0000">
          <g
             style="fill:#ff0000;fill-opacity:1"
             id="g347490">
            <g
               id="g347488"
               transform="translate(5.539,5.0809999)"
               style="fill:#ff0000">
              <path
                 style="fill:#ff0000;stroke:none"
                 d="M 3.296875,-1.859375 C 3.3125,-1.9375 3.3125,-1.96875 3.3125,-1.96875 c 0,-0.109375 -0.078125,-0.171875 -0.171875,-0.171875 -0.203125,0 -0.25,0.171875 -0.28125,0.296875 L 2.75,-1.421875 l -0.140625,0.625 c -0.03125,0.0625 -0.046875,0.15625 -0.0625,0.1875 0,0.03125 -0.265625,0.5 -0.6875,0.5 -0.234375,0 -0.40625,-0.109375 -0.40625,-0.4375 0,-0.265625 0.140625,-0.640625 0.28125,-1 0.03125,-0.046875 0.0625,-0.140625 0.0625,-0.21875 0,-0.25 -0.234375,-0.4375 -0.546875,-0.4375 -0.515625,0 -0.796875,0.640625 -0.796875,0.765625 0,0.078125 0.078125,0.078125 0.109375,0.078125 0.078125,0 0.078125,-0.03125 0.109375,-0.09375 0.109375,-0.34375 0.34375,-0.578125 0.5625,-0.578125 0.09375,0 0.15625,0.046875 0.15625,0.1875 0,0.09375 -0.03125,0.171875 -0.0625,0.265625 -0.25,0.59375 -0.296875,0.765625 -0.296875,0.96875 0,0.546875 0.46875,0.671875 0.796875,0.671875 0.28125,0 0.5,-0.140625 0.625,-0.25 -0.078125,0.28125 -0.125,0.5 -0.359375,0.734375 -0.125,0.109375 -0.359375,0.3125 -0.65625,0.3125 -0.09375,0 -0.28125,-0.015625 -0.390625,-0.125 0.21875,-0.0625 0.25,-0.25 0.25,-0.296875 0,-0.140625 -0.125,-0.203125 -0.21875,-0.203125 -0.15625,0 -0.328125,0.109375 -0.328125,0.34375 0,0.25 0.265625,0.4375 0.6875,0.4375 C 2,1.015625 2.671875,0.640625 2.828125,0 Z m 0,0"
                 id="path347486" />
            </g>
          </g>
        </g>
      </g>
    </g>
  </g>
</svg>
