<?xml version="1.0" encoding="UTF-8" standalone="no"?>
<!-- Created with Inkscape (http://www.inkscape.org/) -->

<svg
   width="95.999985"
   height="95.999931"
   viewBox="0 0 25.399993 25.399979"
   version="1.1"
   id="svg5"
   sodipodi:docname="x0403.svg"
   inkscape:version="1.2.1 (9c6d41e410, 2022-07-14)"
   xmlns:inkscape="http://www.inkscape.org/namespaces/inkscape"
   xmlns:sodipodi="http://sodipodi.sourceforge.net/DTD/sodipodi-0.dtd"
   xmlns="http://www.w3.org/2000/svg"
   xmlns:svg="http://www.w3.org/2000/svg">
  <sodipodi:namedview
     id="namedview7"
     pagecolor="#ffffff"
     bordercolor="#000000"
     borderopacity="0.25"
     inkscape:showpageshadow="false"
     inkscape:pageopacity="0.0"
     inkscape:pagecheckerboard="false"
     inkscape:deskcolor="#d1d1d1"
     inkscape:document-units="px"
     showgrid="true"
     inkscape:zoom="2"
     inkscape:cx="-70.500001"
     inkscape:cy="185.75"
     inkscape:window-width="1920"
     inkscape:window-height="1050"
     inkscape:window-x="0"
     inkscape:window-y="18"
     inkscape:window-maximized="1"
     inkscape:current-layer="layer1"
     showguides="true">
    <inkscape:grid
       type="xygrid"
       id="grid1223"
       spacingx="1.0583333"
       spacingy="1.0583333"
       empspacing="4"
       originx="5.0517557e-06"
       originy="-122.76667" />
    <sodipodi:guide
       position="-50.799998,313.26669"
       orientation="0,-1"
       id="guide1694"
       inkscape:locked="false" />
    <sodipodi:guide
       position="-50.799998,313.26669"
       orientation="1,0"
       id="guide1696"
       inkscape:locked="false" />
    <sodipodi:guide
       position="1.7412052e-06,313.2667"
       orientation="1,0"
       id="guide21735"
       inkscape:locked="false" />
    <sodipodi:guide
       position="-50.799998,270.93335"
       orientation="0,-1"
       id="guide21941"
       inkscape:locked="false" />
    <sodipodi:guide
       position="50.799996,313.2667"
       orientation="1,0"
       id="guide24413"
       inkscape:locked="false" />
    <sodipodi:guide
       position="-50.799998,228.60002"
       orientation="0,-1"
       id="guide35496"
       inkscape:locked="false" />
    <sodipodi:guide
       position="101.60001,313.26668"
       orientation="1,0"
       id="guide50631"
       inkscape:locked="false" />
    <sodipodi:guide
       position="-50.799998,190.50001"
       orientation="0,-1"
       id="guide53352"
       inkscape:locked="false" />
    <sodipodi:guide
       position="-50.799998,152.40002"
       orientation="0,-1"
       id="guide159195"
       inkscape:locked="false" />
    <sodipodi:guide
       position="16.933335,152.40002"
       orientation="1,0"
       id="guide500405"
       inkscape:locked="false" />
    <sodipodi:guide
       position="-50.799998,114.30003"
       orientation="0,-1"
       id="guide503869"
       inkscape:locked="false" />
    <sodipodi:guide
       position="152.39999,110.06669"
       orientation="1,0"
       id="guide645019"
       inkscape:locked="false" />
    <sodipodi:guide
       position="8.4666686,71.966688"
       orientation="1,0"
       id="guide686712"
       inkscape:locked="false" />
    <sodipodi:guide
       position="-50.799998,76.200025"
       orientation="0,-1"
       id="guide686714"
       inkscape:locked="false" />
    <sodipodi:guide
       position="67.733336,71.966689"
       orientation="1,0"
       id="guide765939"
       inkscape:locked="false" />
    <sodipodi:guide
       position="127,71.966689"
       orientation="1,0"
       id="guide816936"
       inkscape:locked="false" />
    <sodipodi:guide
       position="203.2,152.40002"
       orientation="1,0"
       id="guide839718"
       inkscape:locked="false" />
    <sodipodi:guide
       position="29.633334,114.29999"
       orientation="1,0"
       id="guide195271"
       inkscape:locked="false" />
    <sodipodi:guide
       position="71.966666,114.30003"
       orientation="1,0"
       id="guide236368"
       inkscape:locked="false" />
    <sodipodi:guide
       position="-50.799998,25.399989"
       orientation="0,-1"
       id="guide314999"
       inkscape:locked="false" />
    <sodipodi:guide
       position="-25.399999,-2.6519403e-06"
       orientation="1,0"
       id="guide431293"
       inkscape:locked="false" />
    <sodipodi:guide
       position="-50.799998,-2.6519403e-06"
       orientation="0,-1"
       id="guide431295"
       inkscape:locked="false" />
  </sodipodi:namedview>
  <defs
     id="defs2">
    <marker
       style="overflow:visible"
       id="Arrow2-3"
       refX="0"
       refY="0"
       orient="auto-start-reverse"
       inkscape:stockid="Arrow2"
       markerWidth="3.9283752"
       markerHeight="2.8570001"
       viewBox="0 0 7.7 5.6"
       inkscape:isstock="true"
       inkscape:collect="always"
       preserveAspectRatio="xMidYMid">
      <path
         transform="scale(0.7)"
         d="M -2,-4 9,0 -2,4 c 2,-2.33 2,-5.66 0,-8 z"
         style="fill:context-stroke;fill-rule:evenodd;stroke:none"
         id="arrow2L-6" />
    </marker>
    <marker
       style="overflow:visible"
       id="marker382226-8"
       refX="0"
       refY="0"
       orient="auto-start-reverse"
       inkscape:stockid="Arrow2"
       markerWidth="5.7140002"
       markerHeight="2.8570001"
       viewBox="0 0 7.7 5.6"
       inkscape:isstock="true"
       inkscape:collect="always"
       preserveAspectRatio="xMidYMid">
      <path
         transform="scale(0.7)"
         d="M -2,-4 9,0 -2,4 c 2,-2.33 2,-5.66 0,-8 z"
         style="fill:context-stroke;fill-rule:evenodd;stroke:none"
         id="path382224-1" />
    </marker>
    <clipPath
       id="clipPath5351">
      <path
         d="M 0,0 H 10.960938 V 3.851562 H 0 Z m 0,0"
         id="path21387" />
    </clipPath>
    <clipPath
       id="clipPath1979">
      <path
         d="m 4,2 h 7.960938 V 5.082031 H 4 Z m 0,0"
         id="path82589" />
    </clipPath>
    <clipPath
       id="clipPath3277">
      <path
         d="m 4,2 h 7 V 5.484375 H 4 Z m 0,0"
         id="path49083" />
    </clipPath>
    <clipPath
       id="clipPath7417">
      <path
         d="M 0,0 H 14.613281 V 3.851562 H 0 Z m 0,0"
         id="path38538" />
    </clipPath>
  </defs>
  <g
     inkscape:label="Capa 1"
     inkscape:groupmode="layer"
     id="layer1"
     transform="translate(-50.799998,-287.86701)">
    <rect
       style="fill:#ffffff;stroke:none;stroke-width:0.264583;stroke-linecap:round;stroke-linejoin:round;stroke-dasharray:none;stroke-dashoffset:0;paint-order:stroke markers fill"
       id="rect435064"
       width="25.4"
       height="25.399982"
       x="50.799999"
       y="287.867" />
    <path
       style="fill:none;stroke:#999999;stroke-width:0.264583;stroke-linecap:round;stroke-linejoin:round;stroke-dasharray:none;stroke-dashoffset:0;paint-order:stroke markers fill"
       d="M 55.033332,300.56699 H 71.966665"
       id="path376832" />
    <path
       style="fill:none;stroke:#999999;stroke-width:0.264583;stroke-linecap:round;stroke-linejoin:round;stroke-dasharray:none;stroke-dashoffset:0;paint-order:stroke markers fill"
       d="m 63.367708,292.10032 v 16.93334"
       id="path376834" />
    <path
       style="fill:none;stroke:#0000ff;stroke-width:0.264583;stroke-linecap:round;stroke-linejoin:round;stroke-dasharray:none;stroke-dashoffset:0;marker-end:url(#marker382226-8);paint-order:stroke markers fill"
       d="m 63.367708,300.56699 v 10.5837"
       id="path384477-0"
       sodipodi:nodetypes="cc" />
    <path
       style="fill:none;stroke:#0000ff;stroke-width:0.264583;stroke-linecap:round;stroke-linejoin:round;stroke-dasharray:none;stroke-dashoffset:0;marker-end:url(#marker382226-8);paint-order:stroke markers fill"
       d="m 63.367708,300.56699 h 4.233334"
       id="path384479-3"
       sodipodi:nodetypes="cc" />
    <path
       style="fill:none;stroke:#0000ff;stroke-width:0.264583;stroke-linecap:round;stroke-linejoin:round;stroke-dasharray:none;stroke-dashoffset:0;marker-start:url(#Arrow2-3);marker-end:url(#Arrow2-3);paint-order:stroke markers fill"
       d="m 60.192708,309.03365 3.175,-8.46666 3.174999,8.46666"
       id="path376830" />
    <g
       inkscape:label=""
       transform="translate(66.875199,304.33987)"
       id="g415652">
      <g
         id="g415650"
         transform="matrix(0.352778,0,0,0.352778,-0.121267,-0.0134497)">
        <g
           style="fill:#000000;fill-opacity:1"
           id="g415636">
          <g
             id="g415634"
             transform="translate(0,4.085)">
            <path
               style="stroke:none"
               d="m 3.109375,-3.609375 c 0.046875,-0.1875 0.0625,-0.203125 0.3125,-0.203125 H 3.96875 c 0.640625,0 0.734375,0.1875 0.734375,0.546875 0,0.078125 -0.015625,0.234375 -0.046875,0.421875 0,0.015625 -0.015625,0.078125 -0.015625,0.109375 0,0.046875 0.046875,0.09375 0.109375,0.09375 0.109375,0 0.109375,-0.0625 0.125,-0.15625 L 5.03125,-3.9375 c 0,-0.109375 -0.0625,-0.109375 -0.171875,-0.109375 H 0.96875 c -0.15625,0 -0.171875,0 -0.21875,0.125 l -0.390625,1.09375 c -0.015625,0.0625 -0.015625,0.09375 -0.015625,0.09375 0,0.015625 0,0.09375 0.109375,0.09375 0.078125,0 0.078125,-0.015625 0.140625,-0.171875 0.265625,-0.734375 0.453125,-1 1.21875,-1 h 0.546875 c 0.125,0 0.125,0 0.203125,0.03125 L 1.75,-0.515625 c -0.03125,0.171875 -0.0625,0.21875 -0.234375,0.25 C 1.34375,-0.234375 1,-0.234375 1,-0.234375 c -0.15625,0 -0.171875,0 -0.203125,0.015625 C 0.765625,-0.203125 0.75,-0.109375 0.75,-0.078125 0.75,-0.078125 0.765625,0 0.859375,0 c 0.15625,0 0.34375,-0.015625 0.5,-0.015625 0.25,0 0.40625,-0.015625 0.5625,-0.015625 0.171875,0 0.359375,0.015625 0.53125,0.015625 C 2.640625,-0.015625 2.828125,0 3,0 3.046875,0 3.09375,0 3.109375,-0.046875 3.125,-0.0625 3.140625,-0.125 3.140625,-0.15625 3.125,-0.234375 3.09375,-0.234375 2.90625,-0.234375 2.765625,-0.234375 2.640625,-0.25 2.515625,-0.25 2.375,-0.265625 2.296875,-0.265625 2.296875,-0.359375 Z m 0,0"
               id="path415632" />
          </g>
        </g>
        <g
           clip-path="url(#clipPath3277)"
           clip-rule="nonzero"
           id="g415648">
          <g
             style="fill:#000000;fill-opacity:1"
             id="g415646">
            <g
               id="g415640"
               transform="translate(4.3699999,5.4850001)">
              <path
                 style="stroke:none"
                 d="M 1.5625,-3.265625 C 1.59375,-3.34375 1.59375,-3.34375 1.59375,-3.375 c 0,-0.078125 -0.078125,-0.078125 -0.15625,-0.078125 L 0.828125,-3.40625 c -0.09375,0 -0.09375,0 -0.125,0.03125 -0.015625,0.015625 -0.03125,0.078125 -0.03125,0.109375 0,0.078125 0.078125,0.078125 0.140625,0.078125 0.015625,0 0.09375,0 0.171875,0.015625 0.09375,0.015625 0.109375,0.03125 0.109375,0.0625 0,0.03125 -0.0625,0.234375 -0.09375,0.34375 L 0.59375,-1.09375 C 0.5625,-1 0.546875,-0.921875 0.546875,-0.8125 c 0,0.515625 0.375,0.875 0.859375,0.875 0.71875,0 1.40625,-0.703125 1.40625,-1.390625 0,-0.5 -0.359375,-0.875 -0.875,-0.875 -0.21875,0 -0.453125,0.078125 -0.703125,0.265625 z m -0.15625,3.15625 c -0.203125,0 -0.453125,-0.140625 -0.453125,-0.53125 0,-0.171875 0.03125,-0.328125 0.078125,-0.5 0.015625,-0.0625 0.09375,-0.375 0.109375,-0.40625 C 1.15625,-1.59375 1.5,-2.03125 1.921875,-2.03125 c 0.21875,0 0.4375,0.125 0.4375,0.5 0,0.1875 -0.09375,0.65625 -0.25,0.953125 -0.171875,0.28125 -0.453125,0.46875 -0.703125,0.46875 z m 0,0"
                 id="path415638" />
            </g>
            <g
               id="g415644"
               transform="translate(7.5246568,5.4850001)">
              <path
                 style="stroke:none"
                 d="m 2.5625,-1.921875 c -0.078125,0.015625 -0.21875,0.125 -0.21875,0.296875 0,0.125 0.09375,0.203125 0.21875,0.203125 0.109375,0 0.296875,-0.09375 0.296875,-0.34375 0,-0.375 -0.484375,-0.4375 -0.75,-0.4375 -0.84375,0 -1.578125,0.6875 -1.578125,1.34375 0,0.4375 0.328125,0.921875 1.078125,0.921875 0.09375,0 0.484375,0 0.828125,-0.140625 0.328125,-0.125 0.53125,-0.359375 0.53125,-0.40625 0,-0.046875 -0.0625,-0.125 -0.109375,-0.125 -0.015625,0 -0.03125,0.015625 -0.109375,0.09375 -0.21875,0.25 -0.640625,0.40625 -1.140625,0.40625 -0.421875,0 -0.625,-0.234375 -0.625,-0.578125 0,-0.515625 0.34375,-1.34375 1.125,-1.34375 0.046875,0 0.296875,0 0.453125,0.109375 z m 0,0"
                 id="path415642" />
            </g>
          </g>
        </g>
      </g>
    </g>
    <g
       inkscape:label=""
       transform="translate(56.231063,303.24216)"
       id="g415764">
      <g
         id="g415762"
         transform="matrix(0.352778,0,0,0.352778,-0.121267,-0.0134497)">
        <g
           style="fill:#000000;fill-opacity:1"
           id="g415748">
          <g
             id="g415746"
             transform="translate(0,4.085)">
            <path
               style="stroke:none"
               d="m 3.109375,-3.609375 c 0.046875,-0.1875 0.0625,-0.203125 0.3125,-0.203125 H 3.96875 c 0.640625,0 0.734375,0.1875 0.734375,0.546875 0,0.078125 -0.015625,0.234375 -0.046875,0.421875 0,0.015625 -0.015625,0.078125 -0.015625,0.109375 0,0.046875 0.046875,0.09375 0.109375,0.09375 0.109375,0 0.109375,-0.0625 0.125,-0.15625 L 5.03125,-3.9375 c 0,-0.109375 -0.0625,-0.109375 -0.171875,-0.109375 H 0.96875 c -0.15625,0 -0.171875,0 -0.21875,0.125 l -0.390625,1.09375 c -0.015625,0.0625 -0.015625,0.09375 -0.015625,0.09375 0,0.015625 0,0.09375 0.109375,0.09375 0.078125,0 0.078125,-0.015625 0.140625,-0.171875 0.265625,-0.734375 0.453125,-1 1.21875,-1 h 0.546875 c 0.125,0 0.125,0 0.203125,0.03125 L 1.75,-0.515625 c -0.03125,0.171875 -0.0625,0.21875 -0.234375,0.25 C 1.34375,-0.234375 1,-0.234375 1,-0.234375 c -0.15625,0 -0.171875,0 -0.203125,0.015625 C 0.765625,-0.203125 0.75,-0.109375 0.75,-0.078125 0.75,-0.078125 0.765625,0 0.859375,0 c 0.15625,0 0.34375,-0.015625 0.5,-0.015625 0.25,0 0.40625,-0.015625 0.5625,-0.015625 0.171875,0 0.359375,0.015625 0.53125,0.015625 C 2.640625,-0.015625 2.828125,0 3,0 3.046875,0 3.09375,0 3.109375,-0.046875 3.125,-0.0625 3.140625,-0.125 3.140625,-0.15625 3.125,-0.234375 3.09375,-0.234375 2.90625,-0.234375 2.765625,-0.234375 2.640625,-0.25 2.515625,-0.25 2.375,-0.265625 2.296875,-0.265625 2.296875,-0.359375 Z m 0,0"
               id="path415744" />
          </g>
        </g>
        <g
           clip-path="url(#clipPath1979)"
           clip-rule="nonzero"
           id="g415760">
          <g
             style="fill:#000000;fill-opacity:1"
             id="g415758">
            <g
               id="g415752"
               transform="translate(4.3699999,5.0809999)">
              <path
                 style="stroke:none"
                 d="m 2.5625,-1.921875 c -0.078125,0.015625 -0.21875,0.125 -0.21875,0.296875 0,0.125 0.09375,0.203125 0.21875,0.203125 0.109375,0 0.296875,-0.09375 0.296875,-0.34375 0,-0.375 -0.484375,-0.4375 -0.75,-0.4375 -0.84375,0 -1.578125,0.6875 -1.578125,1.34375 0,0.4375 0.328125,0.921875 1.078125,0.921875 0.09375,0 0.484375,0 0.828125,-0.140625 0.328125,-0.125 0.53125,-0.359375 0.53125,-0.40625 0,-0.046875 -0.0625,-0.125 -0.109375,-0.125 -0.015625,0 -0.03125,0.015625 -0.109375,0.09375 -0.21875,0.25 -0.640625,0.40625 -1.140625,0.40625 -0.421875,0 -0.625,-0.234375 -0.625,-0.578125 0,-0.515625 0.34375,-1.34375 1.125,-1.34375 0.046875,0 0.296875,0 0.453125,0.109375 z m 0,0"
                 id="path415750" />
            </g>
            <g
               id="g415756"
               transform="translate(7.604856,5.0809999)">
              <path
                 style="stroke:none"
                 d="m 2.875,-1.609375 c 0.03125,-0.109375 0.078125,-0.296875 0.078125,-0.3125 0,-0.09375 -0.0625,-0.1875 -0.1875,-0.1875 -0.078125,0 -0.203125,0.0625 -0.25,0.203125 -0.09375,-0.125 -0.28125,-0.296875 -0.59375,-0.296875 -0.703125,0 -1.40625,0.6875 -1.40625,1.390625 0,0.515625 0.375,0.875 0.875,0.875 0.40625,0 0.734375,-0.296875 0.796875,-0.359375 0.078125,0.25 0.359375,0.359375 0.578125,0.359375 0.203125,0 0.34375,-0.125 0.4375,-0.28125 0.140625,-0.203125 0.203125,-0.46875 0.203125,-0.5 0,-0.0625 -0.078125,-0.0625 -0.109375,-0.0625 -0.078125,0 -0.09375,0.03125 -0.109375,0.109375 -0.09375,0.359375 -0.21875,0.5625 -0.390625,0.5625 -0.140625,0 -0.203125,-0.109375 -0.203125,-0.265625 0,-0.078125 0.046875,-0.265625 0.078125,-0.40625 z M 2.21875,-0.65625 c -0.03125,0.0625 -0.03125,0.078125 -0.109375,0.171875 -0.1875,0.21875 -0.453125,0.375 -0.703125,0.375 -0.171875,0 -0.4375,-0.09375 -0.4375,-0.515625 0,-0.234375 0.125,-0.75 0.296875,-1.015625 0.1875,-0.265625 0.453125,-0.390625 0.65625,-0.390625 0.21875,0 0.4375,0.125 0.515625,0.4375 z m 0,0"
                 id="path415754" />
            </g>
          </g>
        </g>
      </g>
    </g>
    <g
       inkscape:label=""
       transform="translate(64.218934,297.74513)"
       id="g423508">
      <g
         id="g423506"
         transform="matrix(0.352778,0,0,0.352778,-0.15434,0.046699)">
        <g
           clip-path="url(#clipPath5351)"
           clip-rule="nonzero"
           id="g423504">
          <g
             style="fill:#000000;fill-opacity:1"
             id="g423502">
            <g
               id="g423492"
               transform="translate(0,3.852)">
              <path
                 style="stroke:none"
                 d="M 1.015625,-3.328125 C 1.21875,-3.265625 1.421875,-3.25 1.625,-3.25 c 0.140625,0 0.46875,0 0.84375,-0.203125 0.109375,-0.0625 0.46875,-0.3125 0.46875,-0.4375 0,-0.078125 -0.046875,-0.09375 -0.078125,-0.09375 -0.015625,0 -0.015625,0 -0.09375,0.03125 C 2.5625,-3.875 2.25,-3.78125 1.859375,-3.78125 1.5625,-3.78125 1.25,-3.84375 0.96875,-3.9375 0.921875,-3.96875 0.890625,-3.984375 0.875,-3.984375 c -0.09375,0 -0.09375,0.078125 -0.09375,0.171875 v 1.796875 c 0,0.09375 0,0.171875 0.109375,0.171875 C 0.953125,-1.84375 0.96875,-1.875 1,-1.921875 1.15625,-2.109375 1.421875,-2.3125 1.890625,-2.3125 2.625,-2.3125 2.625,-1.421875 2.625,-1.234375 2.625,-1 2.609375,-0.65625 2.40625,-0.40625 c -0.1875,0.21875 -0.46875,0.3125 -0.71875,0.3125 -0.40625,0 -0.828125,-0.21875 -0.96875,-0.578125 0.296875,0 0.328125,-0.234375 0.328125,-0.296875 0,-0.171875 -0.125,-0.3125 -0.3125,-0.3125 C 0.6875,-1.28125 0.4375,-1.25 0.4375,-0.953125 0.4375,-0.40625 0.953125,0.125 1.703125,0.125 2.53125,0.125 3.21875,-0.453125 3.21875,-1.203125 3.21875,-1.890625 2.671875,-2.5 1.890625,-2.5 c -0.375,0 -0.6875,0.125 -0.875,0.28125 z m 0,0"
                 id="path423490" />
            </g>
            <g
               id="g423496"
               transform="translate(3.6529109,3.852)">
              <path
                 style="stroke:none"
                 d="m 3.296875,-1.90625 c 0,-0.4375 0,-2.078125 -1.46875,-2.078125 -1.46875,0 -1.46875,1.640625 -1.46875,2.078125 0,0.421875 0,2.03125 1.46875,2.03125 1.46875,0 1.46875,-1.609375 1.46875,-2.03125 z m -1.46875,1.84375 c -0.25,0 -0.65625,-0.125 -0.8125,-0.625 -0.09375,-0.34375 -0.09375,-0.921875 -0.09375,-1.296875 0,-0.40625 0,-0.859375 0.09375,-1.1875 0.140625,-0.53125 0.59375,-0.609375 0.8125,-0.609375 0.265625,0 0.671875,0.125 0.796875,0.578125 0.09375,0.3125 0.09375,0.75 0.09375,1.21875 0,0.375 0,0.984375 -0.09375,1.3125 C 2.453125,-0.140625 2.015625,-0.0625 1.828125,-0.0625 Z m 0,0"
                 id="path423494" />
            </g>
            <g
               id="g423500"
               transform="translate(7.3058228,3.852)">
              <path
                 style="stroke:none"
                 d="m 3.296875,-1.90625 c 0,-0.4375 0,-2.078125 -1.46875,-2.078125 -1.46875,0 -1.46875,1.640625 -1.46875,2.078125 0,0.421875 0,2.03125 1.46875,2.03125 1.46875,0 1.46875,-1.609375 1.46875,-2.03125 z m -1.46875,1.84375 c -0.25,0 -0.65625,-0.125 -0.8125,-0.625 -0.09375,-0.34375 -0.09375,-0.921875 -0.09375,-1.296875 0,-0.40625 0,-0.859375 0.09375,-1.1875 0.140625,-0.53125 0.59375,-0.609375 0.8125,-0.609375 0.265625,0 0.671875,0.125 0.796875,0.578125 0.09375,0.3125 0.09375,0.75 0.09375,1.21875 0,0.375 0,0.984375 -0.09375,1.3125 C 2.453125,-0.140625 2.015625,-0.0625 1.828125,-0.0625 Z m 0,0"
                 id="path423498" />
            </g>
          </g>
        </g>
      </g>
    </g>
    <g
       inkscape:label=""
       transform="translate(64.862678,310.42584)"
       id="g427346">
      <g
         id="g427344"
         transform="matrix(0.352778,0,0,0.352778,-0.253559,0.046699)">
        <g
           clip-path="url(#clipPath7417)"
           clip-rule="nonzero"
           id="g427342">
          <g
             style="fill:#000000;fill-opacity:1"
             id="g427340">
            <g
               id="g427326"
               transform="translate(0,3.852)">
              <path
                 style="stroke:none"
                 d="m 2.140625,-3.796875 c 0,-0.1875 -0.015625,-0.1875 -0.203125,-0.1875 -0.390625,0.390625 -1,0.390625 -1.21875,0.390625 v 0.234375 c 0.15625,0 0.5625,0 0.921875,-0.171875 v 3.015625 c 0,0.203125 0,0.28125 -0.625,0.28125 h -0.25 V 0 c 0.328125,-0.03125 0.796875,-0.03125 1.125,-0.03125 0.328125,0 0.796875,0 1.125,0.03125 v -0.234375 h -0.25 c -0.625,0 -0.625,-0.078125 -0.625,-0.28125 z m 0,0"
                 id="path427324" />
            </g>
            <g
               id="g427330"
               transform="translate(3.6529109,3.852)">
              <path
                 style="stroke:none"
                 d="m 3.296875,-1.90625 c 0,-0.4375 0,-2.078125 -1.46875,-2.078125 -1.46875,0 -1.46875,1.640625 -1.46875,2.078125 0,0.421875 0,2.03125 1.46875,2.03125 1.46875,0 1.46875,-1.609375 1.46875,-2.03125 z m -1.46875,1.84375 c -0.25,0 -0.65625,-0.125 -0.8125,-0.625 -0.09375,-0.34375 -0.09375,-0.921875 -0.09375,-1.296875 0,-0.40625 0,-0.859375 0.09375,-1.1875 0.140625,-0.53125 0.59375,-0.609375 0.8125,-0.609375 0.265625,0 0.671875,0.125 0.796875,0.578125 0.09375,0.3125 0.09375,0.75 0.09375,1.21875 0,0.375 0,0.984375 -0.09375,1.3125 C 2.453125,-0.140625 2.015625,-0.0625 1.828125,-0.0625 Z m 0,0"
                 id="path427328" />
            </g>
            <g
               id="g427334"
               transform="translate(7.3058228,3.852)">
              <path
                 style="stroke:none"
                 d="m 3.296875,-1.90625 c 0,-0.4375 0,-2.078125 -1.46875,-2.078125 -1.46875,0 -1.46875,1.640625 -1.46875,2.078125 0,0.421875 0,2.03125 1.46875,2.03125 1.46875,0 1.46875,-1.609375 1.46875,-2.03125 z m -1.46875,1.84375 c -0.25,0 -0.65625,-0.125 -0.8125,-0.625 -0.09375,-0.34375 -0.09375,-0.921875 -0.09375,-1.296875 0,-0.40625 0,-0.859375 0.09375,-1.1875 0.140625,-0.53125 0.59375,-0.609375 0.8125,-0.609375 0.265625,0 0.671875,0.125 0.796875,0.578125 0.09375,0.3125 0.09375,0.75 0.09375,1.21875 0,0.375 0,0.984375 -0.09375,1.3125 C 2.453125,-0.140625 2.015625,-0.0625 1.828125,-0.0625 Z m 0,0"
                 id="path427332" />
            </g>
            <g
               id="g427338"
               transform="translate(10.958734,3.852)">
              <path
                 style="stroke:none"
                 d="m 3.296875,-1.90625 c 0,-0.4375 0,-2.078125 -1.46875,-2.078125 -1.46875,0 -1.46875,1.640625 -1.46875,2.078125 0,0.421875 0,2.03125 1.46875,2.03125 1.46875,0 1.46875,-1.609375 1.46875,-2.03125 z m -1.46875,1.84375 c -0.25,0 -0.65625,-0.125 -0.8125,-0.625 -0.09375,-0.34375 -0.09375,-0.921875 -0.09375,-1.296875 0,-0.40625 0,-0.859375 0.09375,-1.1875 0.140625,-0.53125 0.59375,-0.609375 0.8125,-0.609375 0.265625,0 0.671875,0.125 0.796875,0.578125 0.09375,0.3125 0.09375,0.75 0.09375,1.21875 0,0.375 0,0.984375 -0.09375,1.3125 C 2.453125,-0.140625 2.015625,-0.0625 1.828125,-0.0625 Z m 0,0"
                 id="path427336" />
            </g>
          </g>
        </g>
      </g>
    </g>
  </g>
</svg>
