<?xml version="1.0" encoding="UTF-8" standalone="no"?>
<!-- Created with Inkscape (http://www.inkscape.org/) -->

<svg
   width="8.5in"
   height="11in"
   viewBox="0 0 215.9 279.4"
   version="1.1"
   id="svg1"
   inkscape:version="1.3.2 (091e20ef0f, 2023-11-25)"
   sodipodi:docname="practica4.1.svg"
   xmlns:inkscape="http://www.inkscape.org/namespaces/inkscape"
   xmlns:sodipodi="http://sodipodi.sourceforge.net/DTD/sodipodi-0.dtd"
   xmlns="http://www.w3.org/2000/svg"
   xmlns:svg="http://www.w3.org/2000/svg">
  <sodipodi:namedview
     id="namedview1"
     pagecolor="#ffffff"
     bordercolor="#000000"
     borderopacity="0.25"
     inkscape:showpageshadow="2"
     inkscape:pageopacity="0.0"
     inkscape:pagecheckerboard="0"
     inkscape:deskcolor="#d1d1d1"
     inkscape:document-units="mm"
     inkscape:zoom="0.7928996"
     inkscape:cx="404.84319"
     inkscape:cy="385.92528"
     inkscape:window-width="1920"
     inkscape:window-height="1046"
     inkscape:window-x="1920"
     inkscape:window-y="18"
     inkscape:window-maximized="1"
     inkscape:current-layer="layer1" />
  <defs
     id="defs1" />
  <g
     inkscape:label="Capa 1"
     inkscape:groupmode="layer"
     id="layer1">
    <path
       id="path1"
       d="m 73.356887,25.651445 h 4.612414 l 1.168481,-2.70594 2.275456,5.41188 2.336955,-5.41188 2.275459,5.41188 2.336956,-5.41188 2.275458,5.41188 1.16848,-2.70594 h 4.612402"
       style="fill:none;stroke:#000080;stroke-width:0.353617;stroke-linecap:square;stroke-linejoin:bevel;stroke-miterlimit:10;stroke-dasharray:none;stroke-opacity:1" />
    <path
       id="path2"
       d="m 75.521814,37.152095 v -4.57636 h 2.029942 c 0.408391,0 0.714685,0.045 0.924886,0.1322 0.216195,0.0811 0.384369,0.22517 0.504483,0.43242 0.126126,0.21035 0.192196,0.4384 0.192196,0.68464 0,0.33032 -0.105091,0.6066 -0.312299,0.82881 -0.21021,0.21616 -0.534511,0.35734 -0.972933,0.42039 0.159161,0.0721 0.279273,0.15021 0.360347,0.22837 0.174153,0.16212 0.342326,0.36033 0.504483,0.60059 l 0.792757,1.24917 h -0.756725 l -0.600575,-0.9489 c -0.177175,-0.27921 -0.32431,-0.49247 -0.444425,-0.63661 -0.114097,-0.14411 -0.216195,-0.24319 -0.312299,-0.30028 -0.0901,-0.054 -0.177175,-0.0962 -0.264251,-0.12 -0.07209,-0.0145 -0.186182,-0.0232 -0.336324,-0.0232 h -0.708676 v 2.02993 z m 0.600576,-2.55843 h 1.309252 c 0.270265,0 0.483462,-0.0262 0.636609,-0.084 0.159161,-0.054 0.279272,-0.14411 0.360346,-0.26411 0.07807,-0.1261 0.120112,-0.2673 0.120112,-0.42042 0,-0.21616 -0.08109,-0.39035 -0.240223,-0.5285 -0.153147,-0.14411 -0.396377,-0.21617 -0.732702,-0.21617 h -1.453388 z m 6.005747,2.55843 h -0.564542 v -3.57941 c -0.129119,0.129 -0.30629,0.25829 -0.528506,0.38436 -0.216195,0.129 -0.414396,0.22517 -0.588561,0.28822 v -0.54053 c 0.312299,-0.14411 0.582556,-0.31829 0.816782,-0.5285 0.240223,-0.21617 0.408388,-0.42039 0.504481,-0.61259 h 0.360346 z m -6.606323,7.318 v -4.57636 h 2.029942 c 0.408391,0 0.714685,0.045 0.924886,0.1322 0.216195,0.0811 0.384369,0.22517 0.504483,0.43242 0.126126,0.21036 0.192196,0.43841 0.192196,0.68464 0,0.33032 -0.105091,0.6066 -0.312299,0.82881 -0.21021,0.21617 -0.534511,0.35735 -0.972933,0.42039 0.159161,0.0721 0.279273,0.15022 0.360347,0.22837 0.174153,0.16213 0.342326,0.36034 0.504483,0.60059 l 0.792757,1.24917 h -0.756725 l -0.600575,-0.94889 c -0.177175,-0.27921 -0.32431,-0.49248 -0.444425,-0.63661 -0.114097,-0.14412 -0.216195,-0.24319 -0.312299,-0.30028 -0.0901,-0.054 -0.177175,-0.0962 -0.264251,-0.12 -0.07209,-0.0145 -0.186182,-0.0232 -0.336324,-0.0232 h -0.708676 v 2.02992 z m 0.600576,-2.55843 h 1.309252 c 0.270265,0 0.483462,-0.0262 0.636609,-0.084 0.159161,-0.054 0.279272,-0.14411 0.360346,-0.2641 0.07807,-0.1261 0.120112,-0.2673 0.120112,-0.42042 0,-0.21617 -0.08109,-0.39038 -0.240223,-0.52851 -0.153147,-0.14411 -0.396377,-0.21616 -0.732702,-0.21616 h -1.453388 z m 7.0027,-0.1322 h -3.014883 v -0.5285 h 3.014883 z m 0,1.39334 h -3.014883 v -0.5285 h 3.014883 z m 0.642614,0.0962 0.588565,-0.0479 c 0.04806,0.28823 0.147132,0.50448 0.300288,0.64862 0.159161,0.14411 0.351336,0.21617 0.57655,0.21617 0.270266,0 0.498478,-0.0991 0.684657,-0.30028 0.192196,-0.20716 0.288279,-0.48048 0.288279,-0.81679 0,-0.31832 -0.09309,-0.57054 -0.276251,-0.75672 -0.177175,-0.18305 -0.408391,-0.27631 -0.696668,-0.27631 -0.186182,0 -0.348332,0.0421 -0.492469,0.11999 -0.14414,0.0811 -0.261259,0.18915 -0.348336,0.32431 l -0.528505,-0.072 0.444428,-2.35424 h 2.282182 v 0.5405 h -1.825747 l -0.252251,1.22518 c 0.270264,-0.18305 0.558533,-0.27631 0.864827,-0.27631 0.399381,0 0.735702,0.1412 1.008963,0.42039 0.279273,0.2734 0.420402,0.62458 0.420402,1.057 0,0.4174 -0.126126,0.77474 -0.372355,1.06904 -0.28828,0.36934 -0.690662,0.55253 -1.20115,0.55253 -0.417399,0 -0.756725,-0.11419 -1.020976,-0.34834 -0.258236,-0.23127 -0.40539,-0.54053 -0.444428,-0.92489 z m 3.564413,-1.057 c 0,-0.53452 0.05404,-0.96694 0.168168,-1.29723 0.111105,-0.33634 0.276251,-0.59158 0.492472,-0.76875 0.22221,-0.17404 0.498478,-0.2644 0.828794,-0.2644 0.246237,0 0.462444,0.0479 0.64862,0.14411 0.183189,0.0962 0.336321,0.24028 0.456439,0.43242 0.120111,0.18624 0.21021,0.4144 0.276251,0.68464 0.07206,0.26411 0.108112,0.62159 0.108112,1.06903 0,0.53751 -0.05703,0.97293 -0.168168,1.30926 -0.10509,0.33032 -0.270266,0.58255 -0.492469,0.75673 -0.216195,0.17723 -0.492473,0.2644 -0.828794,0.2644 -0.441423,0 -0.786751,-0.15632 -1.032989,-0.46845 -0.306293,-0.38436 -0.456436,-1.00297 -0.456436,-1.86179 z m 0.576551,0 c 0,0.75373 0.08708,1.25519 0.264251,1.50142 0.174153,0.24929 0.390374,0.37237 0.64862,0.37237 0.255245,0 0.471451,-0.12319 0.648619,-0.37237 0.174154,-0.24609 0.264252,-0.74769 0.264252,-1.50142 0,-0.75071 -0.0901,-1.25219 -0.264252,-1.50143 -0.177173,-0.24638 -0.393375,-0.37236 -0.648619,-0.37236 -0.258237,0 -0.465446,0.11419 -0.624599,0.33631 -0.192196,0.2734 -0.288279,0.78677 -0.288279,1.53748 z m 2.990863,0 c 0,-0.53452 0.05404,-0.96694 0.168168,-1.29723 0.111104,-0.33634 0.27628,-0.59158 0.492473,-0.76875 0.222209,-0.17404 0.498477,-0.2644 0.828793,-0.2644 0.246238,0 0.462444,0.0479 0.64862,0.14411 0.183189,0.0962 0.336322,0.24028 0.456439,0.43242 0.120112,0.18624 0.21021,0.4144 0.276251,0.68464 0.07206,0.26411 0.108112,0.62159 0.108112,1.06903 0,0.53751 -0.05706,0.97293 -0.168168,1.30926 -0.10509,0.33032 -0.270266,0.58255 -0.492472,0.75673 -0.216195,0.17723 -0.492472,0.2644 -0.828794,0.2644 -0.441423,0 -0.786751,-0.15632 -1.032989,-0.46845 -0.306293,-0.38436 -0.456435,-1.00297 -0.456435,-1.86179 z m 0.576551,0 c 0,0.75373 0.08708,1.25519 0.264251,1.50142 0.174153,0.24929 0.390375,0.37237 0.64862,0.37237 0.255245,0 0.471452,-0.12319 0.648621,-0.37237 0.174153,-0.24609 0.264251,-0.74769 0.264251,-1.50142 0,-0.75071 -0.0901,-1.25219 -0.264251,-1.50143 -0.177175,-0.24638 -0.393376,-0.37236 -0.648621,-0.37236 -0.258237,0 -0.465446,0.11419 -0.624597,0.33631 -0.192197,0.2734 -0.28828,0.78677 -0.28828,1.53748 z m 4.942721,0.036 c 0,-0.75972 0.204254,-1.35729 0.612587,-1.78971 0.408391,-0.43242 0.930909,-0.64861 1.573509,-0.64861 0.423412,0 0.804783,0.10518 1.141089,0.31228 0.336332,0.20135 0.591582,0.48047 0.768752,0.84081 0.18305,0.36036 0.27631,0.76875 0.27631,1.22517 0,0.46546 -0.0962,0.88285 -0.28822,1.2492 -0.18624,0.36034 -0.45043,0.63662 -0.792753,0.82878 -0.345314,0.18624 -0.714685,0.27631 -1.105062,0.27631 -0.432419,0 -0.822768,-0.0991 -1.165118,-0.3003 -0.336306,-0.20716 -0.594573,-0.49245 -0.768726,-0.85281 -0.168227,-0.36034 -0.252194,-0.73872 -0.252194,-1.14109 z m 0.624616,0 c 0,0.55253 0.147016,0.99096 0.444418,1.30925 0.294294,0.31231 0.666629,0.46845 1.117062,0.46845 0.44744,0 0.819804,-0.15922 1.117061,-0.48045 0.29429,-0.31832 0.44445,-0.77174 0.44445,-1.35731 0,-0.37535 -0.066,-0.69966 -0.192053,-0.97292 -0.119995,-0.27921 -0.306293,-0.49547 -0.552531,-0.64861 -0.240281,-0.15022 -0.513481,-0.22837 -0.816782,-0.22837 -0.426405,0 -0.792754,0.15021 -1.105062,0.44441 -0.306293,0.28823 -0.456418,0.77774 -0.456418,1.4654 z m 4.588381,2.22212 v -4.57636 h 0.56453 v 1.64557 c 0.26411,-0.3033 0.59159,-0.45645 0.98496,-0.45645 0.24608,0 0.45943,0.0479 0.63661,0.14411 0.18304,0.0962 0.3153,0.23418 0.39636,0.40839 0.0782,0.16823 0.11999,0.41441 0.11999,0.7327 v 2.10201 h -0.56453 v -2.10201 c 0,-0.27921 -0.0601,-0.48344 -0.18014,-0.61259 -0.11999,-0.12609 -0.29429,-0.19205 -0.51649,-0.19205 -0.16823,0 -0.33033,0.045 -0.48045,0.1322 -0.14411,0.0901 -0.24929,0.21036 -0.31231,0.36036 -0.057,0.14412 -0.084,0.34532 -0.084,0.60056 v 1.81373 z m 3.56741,0 v -3.31516 h 0.50447 v 0.46845 c 0.10198,-0.15922 0.24028,-0.28822 0.40839,-0.38436 0.17433,-0.10198 0.37536,-0.15632 0.60059,-0.15632 0.24028,0 0.43541,0.054 0.58856,0.15632 0.15922,0.0962 0.27021,0.23708 0.33634,0.42039 0.2641,-0.38436 0.60657,-0.57656 1.03297,-0.57656 0.3273,0 0.57955,0.093 0.75673,0.27631 0.17404,0.17723 0.2644,0.45642 0.2644,0.84081 v 2.27015 h -0.56453 v -2.08998 c 0,-0.22227 -0.0203,-0.38437 -0.0602,-0.48048 -0.0331,-0.10198 -0.0962,-0.18304 -0.19205,-0.24028 -0.0962,-0.0631 -0.21035,-0.0962 -0.3363,-0.0962 -0.23418,0 -0.42644,0.0811 -0.57656,0.24028 -0.15312,0.15312 -0.22837,0.40238 -0.22837,0.7447 v 1.92184 h -0.56453 v -2.15004 c 0,-0.24638 -0.0479,-0.43541 -0.14411,-0.56456 -0.0901,-0.12609 -0.23709,-0.19205 -0.44445,-0.19205 -0.16213,0 -0.30929,0.045 -0.44442,0.1322 -0.129,0.0811 -0.22517,0.20106 -0.28822,0.36037 -0.057,0.16212 -0.084,0.39337 -0.084,0.69664 v 1.71765 z m 0,0"
       style="fill:#000000;fill-opacity:1;fill-rule:nonzero;stroke:none;stroke-width:1.02498"
       aria-label="R1&#10;R&#10;=&#10;500 O&#10;h&#10;m" />
    <path
       id="path3"
       d="m 15.301966,52.526465 v 15.37473"
       style="fill:none;stroke:#000080;stroke-width:0.353617;stroke-linecap:square;stroke-linejoin:bevel;stroke-miterlimit:10;stroke-dasharray:none;stroke-opacity:1" />
    <path
       id="path4"
       d="m 30.676679,52.526465 v 15.37473"
       style="fill:none;stroke:#000080;stroke-width:0.353617;stroke-linecap:square;stroke-linejoin:bevel;stroke-miterlimit:10;stroke-dasharray:none;stroke-opacity:1" />
    <path
       id="path5"
       d="M 15.301966,52.526465 H 30.676679"
       style="fill:none;stroke:#000080;stroke-width:0.353617;stroke-linecap:square;stroke-linejoin:bevel;stroke-miterlimit:10;stroke-dasharray:none;stroke-opacity:1" />
    <path
       id="path6"
       d="M 15.301966,67.901165 H 30.676679"
       style="fill:none;stroke:#000080;stroke-width:0.353617;stroke-linecap:square;stroke-linejoin:bevel;stroke-miterlimit:10;stroke-dasharray:none;stroke-opacity:1" />
    <path
       id="path7"
       d="m 16.839438,54.063915 v 12.29977"
       style="fill:none;stroke:#000080;stroke-width:0.353617;stroke-linecap:square;stroke-linejoin:bevel;stroke-miterlimit:10;stroke-dasharray:none;stroke-opacity:1" />
    <path
       id="path8"
       d="m 23.788809,54.063915 v 12.29977"
       style="fill:none;stroke:#000080;stroke-width:0.353617;stroke-linecap:square;stroke-linejoin:bevel;stroke-miterlimit:10;stroke-dasharray:none;stroke-opacity:1" />
    <path
       id="path9"
       d="m 16.839438,54.063915 h 6.94937"
       style="fill:none;stroke:#000080;stroke-width:0.353617;stroke-linecap:square;stroke-linejoin:bevel;stroke-miterlimit:10;stroke-dasharray:none;stroke-opacity:1" />
    <path
       id="path10"
       d="m 16.839438,66.363705 h 6.94937"
       style="fill:none;stroke:#000080;stroke-width:0.353617;stroke-linecap:square;stroke-linejoin:bevel;stroke-miterlimit:10;stroke-dasharray:none;stroke-opacity:1" />
    <path
       id="path11"
       d="m 18.007914,56.031905 5.780894,3.44392"
       style="fill:none;stroke:#000080;stroke-width:0.353617;stroke-linecap:square;stroke-linejoin:bevel;stroke-miterlimit:10;stroke-dasharray:none;stroke-opacity:1" />
    <path
       id="path12"
       d="m 27.232744,56.400895 h 2.275459"
       style="fill:none;stroke:#ff0000;stroke-width:0.353617;stroke-linecap:square;stroke-linejoin:bevel;stroke-miterlimit:10;stroke-dasharray:none;stroke-opacity:1" />
    <path
       id="path13"
       d="m 28.401222,55.232405 v 2.33695"
       style="fill:none;stroke:#ff0000;stroke-width:0.353617;stroke-linecap:square;stroke-linejoin:bevel;stroke-miterlimit:10;stroke-dasharray:none;stroke-opacity:1" />
    <path
       id="path14"
       d="m 28.401222,62.919755 v 2.33695"
       style="fill:none;stroke:#000000;stroke-width:0.353617;stroke-linecap:square;stroke-linejoin:bevel;stroke-miterlimit:10;stroke-dasharray:none;stroke-opacity:1" />
    <path
       id="path15"
       d="m 30.676679,56.400895 h 4.24342"
       style="fill:none;stroke:#000080;stroke-width:0.353617;stroke-linecap:square;stroke-linejoin:bevel;stroke-miterlimit:10;stroke-dasharray:none;stroke-opacity:1" />
    <path
       id="path16"
       d="m 30.676679,64.088245 h 4.24342"
       style="fill:none;stroke:#000080;stroke-width:0.353617;stroke-linecap:square;stroke-linejoin:bevel;stroke-miterlimit:10;stroke-dasharray:none;stroke-opacity:1" />
    <path
       id="path17"
       d="m 20.160377,55.232405 c -1.106979,1.29148 -1.783467,2.95195 -1.783467,4.79691 0,1.84497 0.676487,3.50544 1.783467,4.79691"
       style="fill:none;stroke:#000080;stroke-width:0.353617;stroke-linecap:square;stroke-linejoin:bevel;stroke-miterlimit:10;stroke-dasharray:none;stroke-opacity:1" />
    <path
       id="path18"
       d="m 15.917772,76.696975 v -4.57639 h 1.729653 c 0.303292,0 0.534511,0.0174 0.696668,0.0479 0.222209,0.0331 0.411392,0.10518 0.564539,0.21616 0.150154,0.10518 0.270266,0.2522 0.360347,0.44442 0.09608,0.18624 0.144139,0.39038 0.144139,0.61259 0,0.39337 -0.126125,0.72671 -0.372354,0.99695 -0.249231,0.26411 -0.696668,0.39639 -1.345288,0.39639 H 16.51835 v 1.86179 z m 0.600575,-2.40232 h 1.189137 c 0.390374,0 0.666637,-0.0721 0.828793,-0.21617 0.168168,-0.14411 0.252252,-0.34834 0.252252,-0.61259 0,-0.19234 -0.04806,-0.35435 -0.14414,-0.49247 -0.09608,-0.13511 -0.225231,-0.22837 -0.384368,-0.27631 -0.105091,-0.0232 -0.294283,-0.036 -0.56454,-0.036 h -1.177125 z m 3.693534,2.40232 v -3.31519 h 0.504483 v 0.50447 c 0.126126,-0.23127 0.243217,-0.38436 0.348333,-0.45641 0.111105,-0.0782 0.231216,-0.12 0.360345,-0.12 0.192196,0 0.384367,0.0601 0.576553,0.18014 l -0.192196,0.51647 c -0.138126,-0.0781 -0.273259,-0.11999 -0.408391,-0.11999 -0.120112,0 -0.234209,0.0421 -0.336322,0.11999 -0.09608,0.0721 -0.165146,0.17433 -0.204195,0.30031 -0.06607,0.20106 -0.09608,0.42039 -0.09608,0.66062 v 1.72967 z m 4.110932,0 h -0.564538 v -3.57944 c -0.129118,0.129 -0.306293,0.25829 -0.528505,0.38436 -0.216196,0.129 -0.414397,0.22517 -0.588565,0.28822 v -0.5405 c 0.312299,-0.14411 0.582559,-0.31832 0.816783,-0.52853 0.240223,-0.21617 0.408391,-0.42039 0.504483,-0.61259 h 0.360343 z m 0,0"
       style="fill:#000000;fill-opacity:1;fill-rule:nonzero;stroke:none;stroke-width:1.02498"
       aria-label="Pr&#10;1" />
    <path
       id="path19"
       d="m 45.313407,58.676335 h 9.962816"
       style="fill:none;stroke:#000080;stroke-width:0.353617;stroke-linecap:square;stroke-linejoin:bevel;stroke-miterlimit:10;stroke-dasharray:none;stroke-opacity:1" />
    <path
       id="path20"
       d="m 47.957859,61.751295 h 4.612415"
       style="fill:none;stroke:#000080;stroke-width:0.322869;stroke-linecap:square;stroke-linejoin:bevel;stroke-miterlimit:10;stroke-dasharray:none;stroke-opacity:1" />
    <path
       id="path21"
       d="m 50.294815,48.713515 v 9.96282"
       style="fill:none;stroke:#000080;stroke-width:0.353617;stroke-linecap:square;stroke-linejoin:bevel;stroke-miterlimit:10;stroke-dasharray:none;stroke-opacity:1" />
    <path
       id="path22"
       d="m 50.294815,61.751295 v 10.02432"
       style="fill:none;stroke:#000080;stroke-width:0.353617;stroke-linecap:square;stroke-linejoin:bevel;stroke-miterlimit:10;stroke-dasharray:none;stroke-opacity:1" />
    <path
       id="path23"
       d="m 52.201281,56.031905 h 2.336956"
       style="fill:none;stroke:#ff0000;stroke-width:0.368993;stroke-linecap:square;stroke-linejoin:bevel;stroke-miterlimit:10;stroke-dasharray:none;stroke-opacity:1" />
    <path
       id="path24"
       d="m 53.369757,54.863415 v 2.27547"
       style="fill:none;stroke:#ff0000;stroke-width:0.368993;stroke-linecap:square;stroke-linejoin:bevel;stroke-miterlimit:10;stroke-dasharray:none;stroke-opacity:1" />
    <path
       id="path25"
       d="m 52.201281,64.457235 h 2.336956"
       style="fill:none;stroke:#000000;stroke-width:0.368993;stroke-linecap:square;stroke-linejoin:bevel;stroke-miterlimit:10;stroke-dasharray:none;stroke-opacity:1" />
    <path
       id="path26"
       d="m 59.108106,55.971115 -1.777701,-4.57638 h 0.660631 l 1.189141,3.32718 c 0.09608,0.26411 0.174152,0.51348 0.240223,0.74473 0.07209,-0.24609 0.150154,-0.4955 0.240223,-0.74473 l 1.237184,-3.32718 h 0.624598 l -1.789713,4.57638 z m 4.942731,0 h -0.56454 v -3.57943 c -0.129119,0.129 -0.306293,0.25829 -0.528506,0.38436 -0.216195,0.12929 -0.414396,0.22517 -0.588564,0.28822 v -0.5405 c 0.312299,-0.14411 0.582559,-0.31832 0.816782,-0.5285 0.240223,-0.21617 0.408391,-0.42042 0.504484,-0.61259 h 0.360344 z m -3.249111,2.74162 h 0.600576 v 2.64252 c 0,0.46545 -0.05404,0.83482 -0.156139,1.10506 -0.105091,0.2641 -0.29428,0.48047 -0.564539,0.64864 -0.264252,0.16823 -0.621594,0.2522 -1.069023,0.2522 -0.426408,0 -0.774743,-0.0721 -1.045,-0.21617 -0.273259,-0.14411 -0.46845,-0.35435 -0.588565,-0.63661 -0.114097,-0.27922 -0.168168,-0.66364 -0.168168,-1.15312 v -2.64252 h 0.600573 v 2.64252 c 0,0.4024 0.03603,0.69667 0.108112,0.88886 0.07807,0.18624 0.207188,0.33033 0.384369,0.43242 0.183189,0.0962 0.402386,0.14411 0.660631,0.14411 0.447429,0 0.762733,-0.0991 0.948908,-0.3003 0.192197,-0.19816 0.28828,-0.58856 0.28828,-1.16512 z m 4.612415,1.88582 h -3.014886 v -0.52853 h 3.014886 z m 0,1.39331 h -3.014886 v -0.5285 h 3.014886 z m 2.756637,1.29726 h -0.564539 v -3.57944 c -0.129118,0.12901 -0.306292,0.2583 -0.528506,0.38437 -0.216195,0.129 -0.414396,0.22517 -0.588563,0.28822 v -0.54051 c 0.312298,-0.14411 0.582559,-0.31832 0.816782,-0.5285 0.240224,-0.21616 0.408392,-0.42042 0.504484,-0.61258 h 0.360343 z m 4.405219,-0.54053 v 0.54053 h -3.026898 c 0,-0.1351 0.02411,-0.26411 0.07205,-0.38436 0.07206,-0.20716 0.192195,-0.41142 0.360346,-0.61259 0.174154,-0.19815 0.423404,-0.43242 0.74471,-0.69667 0.495476,-0.40839 0.828793,-0.72671 0.996955,-0.96092 0.174154,-0.24028 0.264252,-0.46845 0.264252,-0.68467 0,-0.21617 -0.08109,-0.39939 -0.240223,-0.55253 -0.162154,-0.15922 -0.36635,-0.24029 -0.612588,-0.24029 -0.273257,0 -0.492469,0.084 -0.660632,0.2522 -0.162153,0.16212 -0.240223,0.38436 -0.240223,0.67264 l -0.576553,-0.0601 c 0.03905,-0.43242 0.186182,-0.75972 0.444425,-0.98495 0.255244,-0.22227 0.603579,-0.33631 1.045,-0.33631 0.432413,0 0.774743,0.12 1.032989,0.36033 0.255244,0.24029 0.384369,0.54051 0.384369,0.90087 0,0.18624 -0.03603,0.36635 -0.108112,0.5405 -0.07206,0.17724 -0.198182,0.36635 -0.372358,0.56456 -0.177175,0.19205 -0.465446,0.46244 -0.864827,0.80476 -0.336321,0.28212 -0.552528,0.47446 -0.64862,0.57656 -0.09608,0.0962 -0.177175,0.19815 -0.240223,0.30027 z m 0.609582,-1.71765 c 0,-0.53449 0.05407,-0.96691 0.168167,-1.29723 0.111105,-0.33633 0.276252,-0.59158 0.49247,-0.76873 0.22221,-0.17403 0.498477,-0.2641 0.828794,-0.2641 0.246238,0 0.462444,0.0479 0.648623,0.14411 0.183188,0.0962 0.33632,0.24028 0.456435,0.43242 0.120113,0.18624 0.210211,0.4144 0.276251,0.68467 0.07206,0.26411 0.108113,0.62159 0.108113,1.069 0,0.53754 -0.05703,0.97296 -0.168168,1.30926 -0.10509,0.33032 -0.270266,0.58258 -0.492472,0.75673 -0.216195,0.17723 -0.492473,0.26411 -0.828794,0.26411 -0.44142,0 -0.786751,-0.15603 -1.032986,-0.46845 -0.306293,-0.38436 -0.456438,-1.00297 -0.456438,-1.86179 z m 0.576554,0 c 0,0.75373 0.08708,1.25522 0.264251,1.50145 0.174153,0.24929 0.390374,0.37237 0.64862,0.37237 0.255245,0 0.471451,-0.12319 0.648623,-0.37237 0.174153,-0.24638 0.264252,-0.74772 0.264252,-1.50145 0,-0.75071 -0.0901,-1.25219 -0.264252,-1.50142 -0.177174,-0.2461 -0.393378,-0.37237 -0.648623,-0.37237 -0.258237,0 -0.465446,0.11419 -0.624599,0.33634 -0.192196,0.27311 -0.288279,0.78674 -0.288279,1.53745 z m 6.435159,2.25818 -1.777703,-4.57639 h 0.660633 l 1.189137,3.32719 c 0.09608,0.2641 0.174153,0.51348 0.240223,0.7447 0.07205,-0.2461 0.150154,-0.49547 0.240223,-0.7447 l 1.237182,-3.32719 h 0.624598 l -1.789713,4.57639 z m 0,0"
       style="fill:#000000;fill-opacity:1;fill-rule:nonzero;stroke:none;stroke-width:1.02498"
       aria-label="V1&#10;U&#10;=&#10;120 V" />
    <path
       id="path27"
       d="m 23.551075,120.37676 1.129082,-0.16823 c 0.04806,0.21617 0.14414,0.38137 0.288279,0.49248 0.14414,0.11418 0.348333,0.16822 0.612587,0.16822 0.28828,0 0.507485,-0.0511 0.660631,-0.15631 0.09608,-0.0721 0.14414,-0.17113 0.14414,-0.30028 0,-0.0782 -0.03001,-0.14702 -0.08408,-0.20425 -0.05706,-0.0541 -0.180168,-0.10809 -0.372358,-0.15603 -0.906869,-0.19815 -1.477414,-0.37837 -1.717642,-0.54053 -0.336325,-0.23127 -0.504485,-0.55253 -0.504485,-0.96092 0,-0.36635 0.14414,-0.67564 0.432415,-0.92489 0.288278,-0.2461 0.738707,-0.37234 1.357299,-0.37234 0.57655,0 1.002958,0.0962 1.285229,0.28822 0.28828,0.18624 0.483463,0.46244 0.588565,0.82878 l -1.057012,0.20426 c -0.04806,-0.16823 -0.138125,-0.2943 -0.264251,-0.38437 -0.129119,-0.0872 -0.309295,-0.13219 -0.540518,-0.13219 -0.297283,0 -0.510489,0.0421 -0.636609,0.11999 -0.08109,0.066 -0.120112,0.14121 -0.120112,0.22808 0,0.0811 0.03603,0.15021 0.108113,0.20425 0.102097,0.0811 0.450431,0.18915 1.045,0.32431 0.600575,0.1383 1.020978,0.30031 1.261207,0.49248 0.231216,0.20134 0.348332,0.48047 0.348332,0.84081 0,0.38436 -0.165146,0.71767 -0.492472,0.99695 -0.321306,0.28212 -0.801767,0.42042 -1.441377,0.42042 -0.576554,0 -1.032989,-0.11419 -1.369311,-0.34834 -0.336324,-0.24028 -0.558536,-0.55854 -0.660634,-0.96092 z m 4.936725,-3.60347 v -1.03297 h 1.11707 v 1.03297 z m 0,4.81661 v -4.24005 h 1.11707 v 4.24005 z m 2.183091,-4.24005 h 1.032989 v 0.57656 c 0.36635,-0.44744 0.807773,-0.67264 1.321262,-0.67264 0.270266,0 0.507486,0.057 0.70868,0.16822 0.198181,0.11419 0.363347,0.28241 0.492472,0.50451 0.183189,-0.22227 0.384366,-0.39038 0.600573,-0.50451 0.216194,-0.11098 0.447428,-0.16822 0.696668,-0.16822 0.303289,0 0.564539,0.0659 0.780746,0.19205 0.216195,0.11999 0.378363,0.30629 0.492472,0.55253 0.07205,0.18624 0.108112,0.47745 0.108112,0.87684 v 2.7146 h -1.11707 v -2.42632 c 0,-0.41441 -0.04204,-0.68767 -0.120112,-0.81678 -0.10509,-0.15922 -0.264251,-0.24029 -0.480458,-0.24029 -0.153147,0 -0.300288,0.0479 -0.444424,0.14411 -0.138126,0.0962 -0.237231,0.24029 -0.300288,0.43242 -0.05706,0.18624 -0.08408,0.47444 -0.08408,0.86481 v 2.04196 h -1.129081 v -2.33024 c 0,-0.40839 -0.02092,-0.67264 -0.06006,-0.79275 -0.04204,-0.12 -0.105091,-0.20716 -0.192167,-0.2644 -0.08109,-0.063 -0.192196,-0.0962 -0.336324,-0.0962 -0.168168,0 -0.324311,0.0479 -0.468447,0.14411 -0.138126,0.0962 -0.237231,0.23418 -0.300288,0.40839 -0.05706,0.17724 -0.08408,0.46546 -0.08408,0.86484 v 2.06596 h -1.117071 z m 10.134698,4.24005 v -0.63661 c -0.153146,0.22517 -0.357342,0.4054 -0.612586,0.54053 -0.24923,0.1261 -0.513493,0.19205 -0.79276,0.19205 -0.282266,0 -0.537513,-0.0601 -0.768735,-0.18014 -0.225231,-0.1261 -0.390374,-0.30327 -0.492472,-0.5285 -0.09608,-0.23128 -0.14414,-0.54652 -0.14414,-0.94889 v -2.67858 h 1.11707 v 1.94588 c 0,0.60055 0.01801,0.96993 0.06006,1.10506 0.04803,0.129 0.123104,0.23418 0.228224,0.31228 0.111104,0.0811 0.252251,0.11999 0.420402,0.11999 0.192196,0 0.363348,-0.0511 0.516494,-0.15602 0.150155,-0.10198 0.255245,-0.23127 0.312302,-0.38436 0.05404,-0.15922 0.08408,-0.54353 0.08408,-1.15312 v -1.78971 h 1.117069 v 4.24006 z m 2.20411,0 v -5.84958 h 1.117067 v 5.84958 z m 3.107974,-2.94282 -1.020978,-0.19205 c 0.111105,-0.40839 0.306293,-0.70867 0.588565,-0.90087 0.279272,-0.19815 0.696664,-0.30028 1.249195,-0.30028 0.495474,0 0.867829,0.0601 1.117069,0.18014 0.246237,0.11419 0.420402,0.2612 0.516494,0.44442 0.102098,0.18624 0.156139,0.52252 0.156139,1.00898 l -0.01191,1.30926 c 0,0.37835 0.01511,0.6546 0.04803,0.82878 0.03004,0.17723 0.09911,0.36635 0.204196,0.56453 h -1.11707 c -0.02412,-0.0721 -0.06006,-0.18304 -0.108112,-0.33631 -0.01801,-0.0631 -0.03004,-0.10808 -0.03603,-0.1322 -0.192196,0.19206 -0.39638,0.33634 -0.612584,0.43242 -0.216224,0.0872 -0.450433,0.1322 -0.696668,0.1322 -0.441423,0 -0.789755,-0.11418 -1.045,-0.34833 -0.24923,-0.24028 -0.372358,-0.54053 -0.372358,-0.90087 0,-0.24028 0.05404,-0.45043 0.168168,-0.63661 0.120112,-0.19205 0.279273,-0.33634 0.480458,-0.43242 0.207189,-0.10199 0.507488,-0.19205 0.900864,-0.26411 0.519499,-0.10198 0.882846,-0.19525 1.093048,-0.27631 v -0.11999 c 0,-0.21617 -0.05706,-0.36638 -0.168168,-0.45645 -0.105091,-0.0962 -0.306294,-0.14411 -0.600576,-0.14411 -0.201203,0 -0.357342,0.0421 -0.468447,0.11999 -0.114097,0.0811 -0.201203,0.22227 -0.264251,0.42039 z m 1.501436,0.90087 c -0.14414,0.0479 -0.372355,0.10808 -0.684654,0.18014 -0.312299,0.0659 -0.516494,0.129 -0.612586,0.19205 -0.14414,0.10517 -0.216196,0.23708 -0.216196,0.39639 0,0.16212 0.05404,0.29728 0.168168,0.40839 0.120112,0.11418 0.270266,0.16822 0.456436,0.16822 0.198181,0 0.390375,-0.063 0.576553,-0.19205 0.135133,-0.10198 0.22221,-0.22837 0.264252,-0.37236 0.03004,-0.0962 0.04803,-0.27921 0.04803,-0.55253 z m 5.900648,-0.9489 -1.105059,0.20426 c -0.04204,-0.22227 -0.129118,-0.39038 -0.264251,-0.50448 -0.129119,-0.11128 -0.297287,-0.16822 -0.504484,-0.16822 -0.282265,0 -0.504483,0.10198 -0.672642,0.30028 -0.168168,0.19205 -0.252252,0.51348 -0.252252,0.96092 0,0.50447 0.08408,0.86181 0.252252,1.06903 0.174153,0.21007 0.402382,0.31228 0.684653,0.31228 0.216196,0 0.390375,-0.0601 0.528506,-0.18014 0.135133,-0.11999 0.231216,-0.3273 0.28828,-0.62458 l 1.093045,0.18013 c -0.114098,0.50448 -0.33332,0.88884 -0.660632,1.15309 -0.321309,0.2583 -0.753722,0.3844 -1.29724,0.3844 -0.624598,0 -1.123076,-0.19525 -1.489425,-0.58859 -0.369357,-0.39035 -0.552531,-0.93088 -0.552531,-1.62154 0,-0.70268 0.183189,-1.2492 0.552531,-1.63356 0.375356,-0.39038 0.879839,-0.58856 1.513447,-0.58856 0.510489,0 0.918877,0.11418 1.225174,0.3363 0.303289,0.21617 0.522497,0.55254 0.660628,1.00898 z m 0.840805,-1.82576 v -1.03297 h 1.117067 v 1.03297 z m 0,4.81661 v -4.24005 h 1.117067 v 4.24005 z m 2.002915,-2.18609 c 0,-0.36635 0.0901,-0.72369 0.276251,-1.06901 0.183189,-0.35136 0.444424,-0.6186 0.780746,-0.80478 0.336324,-0.18304 0.711683,-0.27631 1.129081,-0.27631 0.639613,0 1.165115,0.21006 1.573506,0.62459 0.414397,0.41739 0.624598,0.9429 0.624598,1.57351 0,0.64861 -0.21021,1.18612 -0.624598,1.60953 -0.417398,0.4174 -0.936897,0.62462 -1.561495,0.62462 -0.393376,0 -0.76573,-0.0901 -1.117067,-0.26411 -0.354341,-0.17433 -0.621597,-0.43242 -0.804771,-0.76875 -0.186182,-0.34233 -0.276251,-0.75972 -0.276251,-1.24921 z m 1.153103,0.0601 c 0,0.42643 0.09911,0.75074 0.300288,0.97295 0.198182,0.22517 0.444425,0.33631 0.732703,0.33631 0.294282,0 0.54352,-0.11099 0.744712,-0.33631 0.19818,-0.22227 0.300288,-0.54652 0.300288,-0.97295 0,-0.41438 -0.102098,-0.73569 -0.300288,-0.96089 -0.201203,-0.22227 -0.45043,-0.33634 -0.744712,-0.33634 -0.288281,0 -0.534512,0.11419 -0.732703,0.33634 -0.201203,0.22517 -0.300288,0.54651 -0.300288,0.96089 z m 0.46845,-2.63051 0.552528,-1.20115 h 1.261207 l -1.105059,1.20115 z m 7.489168,4.75655 h -1.11707 v -2.16207 c 0,-0.45642 -0.02412,-0.75071 -0.07206,-0.88884 -0.04806,-0.1351 -0.129117,-0.24028 -0.240223,-0.3123 -0.10509,-0.0782 -0.234238,-0.12 -0.384366,-0.12 -0.192196,0 -0.369353,0.057 -0.528506,0.16823 -0.153146,0.10518 -0.258237,0.24638 -0.312299,0.42039 -0.05706,0.17723 -0.08408,0.50148 -0.08408,0.97292 v 1.92184 h -1.129088 v -4.24005 h 1.045001 v 0.62459 c 0.366352,-0.48045 0.831797,-0.72067 1.393332,-0.72067 0.246238,0 0.474456,0.045 0.684657,0.1322 0.207188,0.0901 0.363348,0.20425 0.468447,0.34833 0.102098,0.13801 0.174153,0.2943 0.216224,0.46845 0.03905,0.17723 0.06006,0.42943 0.06006,0.75673 z m 7.305992,0 h -1.045001 v -0.62459 c -0.177175,0.24028 -0.38437,0.42039 -0.624599,0.54051 -0.234209,0.11999 -0.465445,0.18013 -0.696664,0.18013 -0.489468,0 -0.909874,-0.19524 -1.261206,-0.58858 -0.345332,-0.39035 -0.516496,-0.93989 -0.516496,-1.64557 0,-0.7207 0.168168,-1.26422 0.50448,-1.63356 0.336325,-0.37536 0.762733,-0.56453 1.285234,-0.56453 0.471451,0 0.879841,0.19815 1.22517,0.58856 v -2.10202 h 1.129082 z m -3.002873,-2.21009 c 0,0.4504 0.06305,0.77773 0.192196,0.98492 0.18319,0.28822 0.435418,0.43242 0.756727,0.43242 0.255244,0 0.474453,-0.10809 0.66063,-0.32431 0.183161,-0.22227 0.276252,-0.55253 0.276252,-0.98495 0,-0.48646 -0.0901,-0.84081 -0.264252,-1.05701 -0.177175,-0.21616 -0.402386,-0.3243 -0.672642,-0.3243 -0.273258,0 -0.501482,0.10808 -0.684656,0.3243 -0.177176,0.21036 -0.264252,0.52551 -0.264255,0.94893 z m 7.801466,-0.78076 -1.105059,0.20425 c -0.04204,-0.22226 -0.129119,-0.39037 -0.264252,-0.50447 -0.129118,-0.11128 -0.297286,-0.16823 -0.504483,-0.16823 -0.282265,0 -0.504483,0.10199 -0.672643,0.30028 -0.168167,0.19205 -0.252251,0.51348 -0.252251,0.96092 0,0.50448 0.08408,0.86182 0.252251,1.06904 0.174154,0.21006 0.402383,0.31228 0.684654,0.31228 0.216195,0 0.390375,-0.0602 0.528506,-0.18014 0.135133,-0.12 0.231216,-0.3273 0.288279,-0.62459 l 1.093045,0.18014 c -0.114097,0.50448 -0.333317,0.88884 -0.660631,1.15309 -0.321309,0.2583 -0.753722,0.38439 -1.297241,0.38439 -0.624597,0 -1.123075,-0.19524 -1.489424,-0.58859 -0.369357,-0.39034 -0.552531,-0.93088 -0.552531,-1.62153 0,-0.70269 0.183189,-1.2492 0.552531,-1.63357 0.375359,-0.39037 0.879839,-0.58855 1.513447,-0.58855 0.510489,0 0.91888,0.11418 1.225173,0.3363 0.303289,0.21617 0.522497,0.55253 0.660629,1.00898 z m 0,0"
       style="fill:#000080;fill-opacity:1;fill-rule:nonzero;stroke:none;stroke-width:1.02498"
       aria-label="simulación dc" />
    <path
       id="path28"
       d="m 21.08286,125.34111 v -13.22224 h 59.100401 v 13.22224 z"
       style="fill:none;stroke:#000080;stroke-width:0.122998;stroke-linecap:square;stroke-linejoin:bevel;stroke-miterlimit:10;stroke-dasharray:none;stroke-opacity:1" />
    <path
       id="path29"
       d="M 21.08286,112.11887 Z"
       style="fill:none;stroke:#000080;stroke-width:0.122998;stroke-linecap:square;stroke-linejoin:bevel;stroke-miterlimit:10;stroke-dasharray:none;stroke-opacity:1" />
    <path
       id="path30"
       d="m 22.989322,127.24758 -1.906465,-1.90647"
       style="fill:none;stroke:#000080;stroke-width:0.122998;stroke-linecap:square;stroke-linejoin:bevel;stroke-miterlimit:10;stroke-dasharray:none;stroke-opacity:1" />
    <path
       id="path31"
       d="M 82.028227,127.24758 H 22.989325"
       style="fill:none;stroke:#000080;stroke-width:0.122998;stroke-linecap:square;stroke-linejoin:bevel;stroke-miterlimit:10;stroke-dasharray:none;stroke-opacity:1" />
    <path
       id="path32"
       d="m 82.028227,127.24758 -1.844966,-1.90647"
       style="fill:none;stroke:#000080;stroke-width:0.122998;stroke-linecap:square;stroke-linejoin:bevel;stroke-miterlimit:10;stroke-dasharray:none;stroke-opacity:1" />
    <path
       id="path33"
       d="m 82.028227,127.24758 v -13.22224 l -1.844966,-1.90647"
       style="fill:none;stroke:#000080;stroke-width:0.122998;stroke-linecap:square;stroke-linejoin:bevel;stroke-miterlimit:10;stroke-dasharray:none;stroke-opacity:1" />
    <path
       id="path34"
       d="m 23.974481,134.75151 v -4.57639 h 1.573507 c 0.360344,0 0.630603,0.0232 0.816779,0.0721 0.264251,0.057 0.486467,0.16503 0.672646,0.32431 0.240223,0.20134 0.420402,0.46243 0.540517,0.78075 0.120111,0.32132 0.180167,0.68464 0.180167,1.09303 0,0.34535 -0.04204,0.65463 -0.120111,0.9249 -0.08109,0.2644 -0.186182,0.48646 -0.312299,0.66064 -0.129119,0.17723 -0.270266,0.31829 -0.420403,0.42039 -0.153146,0.0962 -0.336321,0.17404 -0.552528,0.22837 -0.21021,0.0479 -0.453434,0.0721 -0.732701,0.0721 z m 0.600573,-0.5405 h 0.984944 c 0.294279,0 0.528506,-0.0262 0.696665,-0.084 0.174153,-0.054 0.315303,-0.1351 0.420402,-0.24028 0.14414,-0.14411 0.255245,-0.33634 0.336325,-0.57656 0.07807,-0.24028 0.120111,-0.53152 0.120111,-0.87684 0,-0.48047 -0.08109,-0.84682 -0.240223,-1.10506 -0.153147,-0.25539 -0.342327,-0.4264 -0.564539,-0.5165 -0.168168,-0.0631 -0.432414,-0.0962 -0.79276,-0.0962 H 24.57506 Z m 7.522198,-1.06904 0.600576,0.15603 c -0.129119,0.49849 -0.357342,0.87684 -0.684654,1.14112 -0.330317,0.25829 -0.7327,0.38436 -1.213162,0.38436 -0.489467,0 -0.88885,-0.0991 -1.201148,-0.30031 -0.306294,-0.19815 -0.54052,-0.48646 -0.708679,-0.86481 -0.162154,-0.38436 -0.240224,-0.79275 -0.240224,-1.22517 0,-0.48048 0.0901,-0.89485 0.276251,-1.2492 0.183189,-0.35133 0.444425,-0.6186 0.780749,-0.80479 0.336321,-0.18304 0.702671,-0.27631 1.105056,-0.27631 0.456439,0 0.840805,0.11709 1.153104,0.34834 0.312299,0.23418 0.53151,0.56154 0.660631,0.98495 l -0.600573,0.1322 c -0.10509,-0.3273 -0.261258,-0.56755 -0.468449,-0.7207 -0.201203,-0.15021 -0.453435,-0.22808 -0.756724,-0.22808 -0.354338,0 -0.64862,0.084 -0.888849,0.25219 -0.234238,0.16823 -0.39638,0.3964 -0.492473,0.68468 -0.09608,0.28212 -0.144139,0.57054 -0.144139,0.86481 0,0.39339 0.05404,0.73871 0.168168,1.033 0.120112,0.28822 0.300287,0.50448 0.540516,0.64862 0.240225,0.13801 0.495477,0.20425 0.768738,0.20425 0.342327,0 0.630604,-0.0962 0.864827,-0.28822 0.231216,-0.19205 0.390375,-0.48347 0.480458,-0.87684 z m 3.354212,1.60954 h -0.564539 v -3.57941 c -0.129119,0.12901 -0.306294,0.2583 -0.528506,0.38437 -0.216224,0.129 -0.414397,0.22517 -0.588564,0.28822 v -0.54053 c 0.312299,-0.14411 0.582556,-0.3183 0.816782,-0.52851 0.240223,-0.21616 0.408391,-0.42039 0.504483,-0.61258 h 0.360344 z m 0,0"
       style="fill:#000000;fill-opacity:1;fill-rule:nonzero;stroke:none;stroke-width:1.02498"
       aria-label="DC&#10;1" />
    <path
       id="path35"
       d="m 119.48102,71.775585 v -4.61241 l -2.70594,-1.16849 5.41188,-2.27544 -5.41188,-2.33697 5.41188,-2.27544 -5.41188,-2.33698 5.41188,-2.27544 -2.70594,-1.16848 v -4.61242"
       style="fill:none;stroke:#000080;stroke-width:0.353617;stroke-linecap:square;stroke-linejoin:bevel;stroke-miterlimit:10;stroke-dasharray:none;stroke-opacity:1" />
    <path
       id="path36"
       d="m 125.88903,55.971115 v -4.57638 h 2.02993 c 0.40839,0 0.71468,0.045 0.92489,0.1322 0.21617,0.0811 0.38437,0.22517 0.50448,0.43239 0.1261,0.21035 0.19234,0.43843 0.19234,0.68467 0,0.33032 -0.10518,0.60657 -0.31231,0.82878 -0.21035,0.21616 -0.53452,0.35734 -0.97292,0.42042 0.15922,0.0721 0.27921,0.15021 0.36034,0.22808 0.17432,0.16212 0.34232,0.36036 0.50447,0.60058 l 0.79278,1.24921 h -0.75672 l -0.60059,-0.94893 c -0.17723,-0.27921 -0.32431,-0.49247 -0.44442,-0.63661 -0.11418,-0.14411 -0.21617,-0.24319 -0.31231,-0.30028 -0.0901,-0.054 -0.17723,-0.0962 -0.26439,-0.12 -0.0721,-0.0145 -0.18624,-0.0232 -0.33631,-0.0232 h -0.7087 v 2.02996 z m 0.60056,-2.55846 h 1.30926 c 0.27021,0 0.48347,-0.0261 0.63661,-0.084 0.15922,-0.054 0.27922,-0.14411 0.36034,-0.26411 0.0782,-0.1261 0.11999,-0.2673 0.11999,-0.42039 0,-0.21617 -0.0811,-0.39038 -0.24028,-0.5285 -0.15312,-0.14411 -0.39636,-0.21617 -0.7327,-0.21617 h -1.45339 z m 3.89474,1.34529 0.56453,-0.0721 c 0.0631,0.32132 0.17113,0.55254 0.32431,0.69668 0.15921,0.138 0.35135,0.20425 0.57655,0.20425 0.2644,0 0.48347,-0.0901 0.66065,-0.27631 0.18304,-0.18304 0.27631,-0.40839 0.27631,-0.67264 0,-0.26411 -0.084,-0.47446 -0.2522,-0.63662 -0.16822,-0.16822 -0.38137,-0.25219 -0.63661,-0.25219 -0.11419,0 -0.24609,0.0203 -0.39639,0.0601 l 0.0601,-0.49247 c 0.0299,0 0.0601,0 0.084,0 0.24028,0 0.45644,-0.0601 0.64861,-0.18014 0.19205,-0.1261 0.28822,-0.31832 0.28822,-0.57656 0,-0.20716 -0.0721,-0.37835 -0.21616,-0.5165 -0.13801,-0.13511 -0.31231,-0.20426 -0.52851,-0.20426 -0.22517,0 -0.40839,0.0691 -0.55253,0.20426 -0.14411,0.13801 -0.23708,0.34534 -0.27631,0.62461 l -0.56453,-0.10808 c 0.0721,-0.37536 0.22837,-0.66364 0.46845,-0.86484 0.24028,-0.20716 0.54352,-0.31228 0.91287,-0.31228 0.24609,0 0.47446,0.054 0.68467,0.15602 0.20716,0.10518 0.36635,0.2522 0.48044,0.44442 0.11099,0.18624 0.16823,0.38137 0.16823,0.58856 0,0.19205 -0.054,0.37236 -0.15602,0.54053 -0.10518,0.16213 -0.2612,0.28822 -0.46845,0.38437 0.26411,0.066 0.47144,0.19815 0.62459,0.39639 0.15021,0.19205 0.22836,0.4384 0.22836,0.7327 0,0.39337 -0.15021,0.72967 -0.44441,1.00895 -0.28823,0.28212 -0.65765,0.42041 -1.10507,0.42041 -0.4024,0 -0.73269,-0.11999 -0.99695,-0.36036 -0.26439,-0.24028 -0.41739,-0.55253 -0.45644,-0.93689 z m -4.4953,8.53118 v -4.57639 h 2.02993 c 0.40839,0 0.71468,0.045 0.92489,0.1322 0.21617,0.0811 0.38437,0.22517 0.50448,0.43242 0.1261,0.21036 0.19234,0.43843 0.19234,0.68467 0,0.33032 -0.10518,0.60657 -0.31231,0.82878 -0.21035,0.21617 -0.53452,0.35735 -0.97292,0.42042 0.15922,0.0721 0.27921,0.15022 0.36034,0.22808 0.17432,0.16213 0.34232,0.36037 0.50447,0.60059 l 0.79278,1.2492 h -0.75672 l -0.60059,-0.94892 c -0.17723,-0.27922 -0.32431,-0.49248 -0.44442,-0.63662 -0.11418,-0.14411 -0.21617,-0.24318 -0.31231,-0.30028 -0.0901,-0.054 -0.17723,-0.0962 -0.26439,-0.11999 -0.0721,-0.0145 -0.18624,-0.0232 -0.33631,-0.0232 h -0.7087 v 2.02995 z m 0.60056,-2.55846 h 1.30926 c 0.27021,0 0.48347,-0.0262 0.63661,-0.084 0.15922,-0.054 0.27922,-0.14411 0.36034,-0.2641 0.0782,-0.1261 0.11999,-0.26731 0.11999,-0.42039 0,-0.21617 -0.0811,-0.39038 -0.24028,-0.52851 -0.15312,-0.14411 -0.39636,-0.21616 -0.7327,-0.21616 h -1.45339 z m 7.0057,-0.1322 h -3.01488 v -0.52853 h 3.01488 z m 0,1.39331 h -3.01488 v -0.5285 h 3.01488 z m 2.75365,1.29726 h -0.56453 v -3.57943 c -0.12901,0.129 -0.3063,0.25829 -0.52851,0.38436 -0.21616,0.129 -0.4144,0.22517 -0.58858,0.28822 v -0.5405 c 0.3123,-0.14411 0.58257,-0.31832 0.81678,-0.52851 0.24028,-0.21616 0.40839,-0.42041 0.5045,-0.61258 h 0.36034 z m 3.39023,0 v -4.57638 h 0.56456 v 2.60648 l 1.33326,-1.34528 h 0.72069 l -1.2612,1.22517 1.39334,2.09001 h -0.69667 l -1.09306,-1.69362 -0.39636,0.38437 v 1.30925 z m 3.21309,-2.22212 c 0,-0.75975 0.20425,-1.35731 0.61258,-1.78973 0.4084,-0.43242 0.93088,-0.64862 1.57351,-0.64862 0.42342,0 0.80476,0.10518 1.14109,0.31231 0.33631,0.20106 0.59155,0.48045 0.76873,0.84081 0.18304,0.36033 0.27631,0.76873 0.27631,1.22517 0,0.46543 -0.0962,0.88283 -0.28822,1.24918 -0.18624,0.36036 -0.45044,0.63661 -0.79276,0.82881 -0.34534,0.18624 -0.71468,0.27631 -1.10506,0.27631 -0.43242,0 -0.8228,-0.0991 -1.16512,-0.30028 -0.33633,-0.20716 -0.59457,-0.49248 -0.76872,-0.85281 -0.16823,-0.36037 -0.2522,-0.73872 -0.2522,-1.14109 z m 0.62458,0 c 0,0.55253 0.14702,0.99093 0.44445,1.30923 0.29427,0.31231 0.66663,0.46844 1.11706,0.46844 0.44741,0 0.81978,-0.15921 1.11706,-0.48044 0.2943,-0.31829 0.44442,-0.77175 0.44442,-1.35729 0,-0.37538 -0.0659,-0.69969 -0.19205,-0.97295 -0.11999,-0.27921 -0.30629,-0.49546 -0.55253,-0.64861 -0.24028,-0.15021 -0.51348,-0.22837 -0.81678,-0.22837 -0.42641,0 -0.79275,0.15021 -1.10506,0.44442 -0.3063,0.28822 -0.45645,0.77776 -0.45645,1.46542 z m 4.58842,2.22212 v -4.57638 h 0.56453 v 1.64556 c 0.2644,-0.30327 0.59155,-0.45642 0.98495,-0.45642 0.24609,0 0.45944,0.0479 0.63659,0.14411 0.18333,0.0962 0.3153,0.23418 0.39639,0.40839 0.0782,0.16823 0.11999,0.41438 0.11999,0.7327 v 2.10201 h -0.56453 v -2.10201 c 0,-0.27921 -0.0601,-0.48347 -0.18014,-0.61258 -0.12028,-0.1261 -0.29429,-0.19206 -0.5165,-0.19206 -0.16823,0 -0.33032,0.045 -0.48048,0.1322 -0.14411,0.0901 -0.24928,0.21007 -0.31227,0.36034 -0.057,0.14411 -0.084,0.34534 -0.084,0.60058 v 1.81374 z m 3.56741,0 v -3.31518 h 0.50447 v 0.46844 c 0.10198,-0.15922 0.24028,-0.28822 0.40839,-0.38436 0.17404,-0.10198 0.37536,-0.15602 0.60059,-0.15602 0.24028,0 0.43541,0.054 0.58856,0.15602 0.15922,0.0962 0.27021,0.23709 0.33631,0.42039 0.26439,-0.38436 0.6066,-0.57653 1.033,-0.57653 0.3273,0 0.57955,0.093 0.75673,0.27631 0.17404,0.17723 0.2644,0.45645 0.2644,0.84081 v 2.27018 h -0.56456 v -2.09001 c 0,-0.22227 -0.0203,-0.38436 -0.0602,-0.48045 -0.0331,-0.10198 -0.0962,-0.18333 -0.19205,-0.24028 -0.0962,-0.0631 -0.21035,-0.0962 -0.33633,-0.0962 -0.23418,0 -0.42641,0.0811 -0.57653,0.24028 -0.15312,0.15312 -0.22837,0.40241 -0.22837,0.74473 v 1.92184 h -0.56456 v -2.15007 c 0,-0.24609 -0.0479,-0.43541 -0.14411,-0.56453 -0.0901,-0.12609 -0.23738,-0.19205 -0.44442,-0.19205 -0.16213,0 -0.30929,0.045 -0.44442,0.1322 -0.129,0.0811 -0.22517,0.20106 -0.28822,0.36034 -0.057,0.16212 -0.084,0.39337 -0.084,0.69667 v 1.71765 z m 0,0"
       style="fill:#000000;fill-opacity:1;fill-rule:nonzero;stroke:none;stroke-width:1.02498"
       aria-label="R3&#10;R&#10;=&#10;1 k&#10;O&#10;hm" />
    <path
       id="path37"
       d="m 142.54309,25.651445 h 4.61241 l 1.16849,-2.70594 2.27544,5.41188 2.33697,-5.41188 2.27544,5.41188 2.33698,-5.41188 2.27544,5.41188 1.16849,-2.70594 h 4.61241"
       style="fill:none;stroke:#000080;stroke-width:0.353617;stroke-linecap:square;stroke-linejoin:bevel;stroke-miterlimit:10;stroke-dasharray:none;stroke-opacity:1" />
    <path
       id="path38"
       d="m 144.70803,37.152095 v -4.57636 h 2.02996 c 0.40839,0 0.71468,0.045 0.92486,0.1322 0.21617,0.0811 0.38437,0.22517 0.50451,0.43242 0.12609,0.21035 0.19205,0.4384 0.19205,0.68464 0,0.33032 -0.10518,0.6066 -0.31231,0.82881 -0.21006,0.21616 -0.53449,0.35734 -0.97292,0.42039 0.15922,0.0721 0.27921,0.15021 0.36033,0.22837 0.17433,0.16212 0.34235,0.36033 0.50451,0.60059 l 0.79275,1.24917 h -0.75673 l -0.60047,-0.94913 c -0.17723,-0.27921 -0.3243,-0.49247 -0.44442,-0.63661 -0.11418,-0.14411 -0.21616,-0.24319 -0.31227,-0.30028 -0.0901,-0.054 -0.17724,-0.0962 -0.2644,-0.12 -0.0721,-0.0145 -0.18624,-0.0232 -0.33631,-0.0232 h -0.70867 v 2.02993 z m 0.60059,-2.55843 h 1.30926 c 0.2702,0 0.48344,-0.0262 0.63658,-0.084 0.15922,-0.054 0.27922,-0.14411 0.36037,-0.26411 0.0781,-0.1261 0.11999,-0.2673 0.11999,-0.42042 0,-0.21616 -0.0811,-0.39035 -0.24028,-0.5285 -0.15312,-0.14411 -0.39639,-0.21617 -0.73273,-0.21617 h -1.45337 z m 6.84654,2.01792 v 0.54051 h -3.02688 c 0,-0.13511 0.0232,-0.2644 0.0721,-0.38437 0.0721,-0.20716 0.19206,-0.41138 0.36034,-0.61258 0.17433,-0.19816 0.42341,-0.43242 0.74473,-0.69668 0.49546,-0.40839 0.82878,-0.72668 0.99695,-0.96092 0.17403,-0.24028 0.26439,-0.46844 0.26439,-0.68464 0,-0.21617 -0.0811,-0.39938 -0.24028,-0.55253 -0.16212,-0.15922 -0.36635,-0.24028 -0.61259,-0.24028 -0.27311,0 -0.49247,0.084 -0.66064,0.25219 -0.16212,0.16213 -0.24028,0.38437 -0.24028,0.67264 l -0.57656,-0.0601 c 0.0389,-0.43239 0.18624,-0.75972 0.44442,-0.98492 0.25539,-0.22227 0.60358,-0.33634 1.04501,-0.33634 0.43242,0 0.77474,0.12 1.033,0.36037 0.25539,0.24028 0.38437,0.5405 0.38437,0.90084 0,0.18624 -0.036,0.36635 -0.10809,0.54053 -0.072,0.17723 -0.19815,0.36635 -0.37236,0.56453 -0.17723,0.19205 -0.46543,0.46246 -0.86481,0.80478 -0.33634,0.28212 -0.55253,0.47446 -0.64864,0.57656 -0.0962,0.0962 -0.17724,0.19815 -0.24029,0.30028 z m -7.44713,7.85851 v -4.57636 h 2.02996 c 0.40839,0 0.71468,0.045 0.92486,0.1322 0.21617,0.0811 0.38437,0.22517 0.50451,0.43242 0.12609,0.21036 0.19205,0.43841 0.19205,0.68464 0,0.33032 -0.10518,0.6066 -0.31231,0.82881 -0.21006,0.21617 -0.53449,0.35735 -0.97292,0.42039 0.15922,0.0721 0.27921,0.15022 0.36033,0.22837 0.17433,0.16213 0.34235,0.36034 0.50451,0.60059 l 0.79275,1.24917 h -0.75673 l -0.60058,-0.94889 c -0.17724,-0.27921 -0.32431,-0.49248 -0.44442,-0.63661 -0.11419,-0.14412 -0.21617,-0.24319 -0.31228,-0.30028 -0.0901,-0.054 -0.17723,-0.0962 -0.2644,-0.12 -0.0721,-0.0145 -0.18624,-0.0232 -0.3363,-0.0232 h -0.70867 v 2.02992 z m 0.60059,-2.55843 h 1.30926 c 0.2702,0 0.48344,-0.0262 0.63658,-0.084 0.15922,-0.054 0.27922,-0.14411 0.36037,-0.2641 0.0781,-0.1261 0.11999,-0.2673 0.11999,-0.42042 0,-0.21617 -0.0811,-0.39038 -0.24028,-0.52851 -0.15312,-0.14411 -0.39639,-0.21616 -0.73273,-0.21616 h -1.45337 z m 7.0027,-0.1322 h -3.0149 v -0.5285 h 3.0149 z m 0,1.39334 h -3.0149 v -0.5285 h 3.0149 z m 3.59743,0.75673 v 0.5405 h -3.02688 c 0,-0.1351 0.0232,-0.26439 0.0721,-0.38436 0.0721,-0.20716 0.19206,-0.41138 0.36034,-0.61259 0.17433,-0.19815 0.42341,-0.43242 0.74473,-0.69667 0.49546,-0.40839 0.82878,-0.72668 0.99695,-0.96092 0.17432,-0.24028 0.26439,-0.46845 0.26439,-0.68464 0,-0.21617 -0.0811,-0.39939 -0.24028,-0.55253 -0.16212,-0.15922 -0.36635,-0.24028 -0.61259,-0.24028 -0.27311,0 -0.49247,0.084 -0.66064,0.25219 -0.16212,0.16212 -0.24028,0.38439 -0.24028,0.67264 l -0.57656,-0.0601 c 0.0389,-0.43239 0.18624,-0.75972 0.44445,-0.98492 0.2551,-0.22227 0.60355,-0.33634 1.04498,-0.33634 0.43242,0 0.77474,0.12 1.033,0.36034 0.25539,0.24028 0.38437,0.54053 0.38437,0.90086 0,0.18624 -0.036,0.36635 -0.10809,0.54053 -0.072,0.17724 -0.19815,0.36635 -0.37236,0.56454 -0.17723,0.19205 -0.46543,0.46246 -0.86481,0.80478 -0.33634,0.28212 -0.55253,0.47446 -0.64861,0.57656 -0.0962,0.0962 -0.17724,0.19815 -0.24029,0.30028 z m 0.60959,-0.66064 0.58856,-0.0479 c 0.0479,0.28822 0.14701,0.50447 0.30028,0.64861 0.15922,0.14411 0.35135,0.21617 0.57656,0.21617 0.2702,0 0.49849,-0.0991 0.68467,-0.30028 0.19205,-0.20716 0.28822,-0.48048 0.28822,-0.81678 0,-0.31833 -0.093,-0.57055 -0.27631,-0.75673 -0.17723,-0.18304 -0.40839,-0.27631 -0.69667,-0.27631 -0.18624,0 -0.34834,0.0421 -0.49248,0.12 -0.14411,0.0811 -0.2612,0.18914 -0.34833,0.3243 l -0.5285,-0.072 0.44442,-2.35424 h 2.2822 v 0.54051 h -1.82576 l -0.25219,1.22517 c 0.27021,-0.18304 0.55854,-0.27631 0.86484,-0.27631 0.39938,0 0.73569,0.14121 1.00898,0.42039 0.27921,0.27341 0.42039,0.62459 0.42039,1.05701 0,0.4174 -0.1261,0.77474 -0.37237,1.06903 -0.28822,0.36934 -0.69065,0.55253 -1.20114,0.55253 -0.4174,0 -0.75673,-0.11418 -1.02098,-0.34833 -0.2583,-0.23128 -0.4054,-0.54053 -0.44442,-0.9249 z m 3.56741,-1.05701 c 0,-0.53451 0.054,-0.96693 0.16822,-1.29723 0.11099,-0.33633 0.27631,-0.59158 0.49248,-0.76875 0.22227,-0.17404 0.49846,-0.2644 0.82878,-0.2644 0.24609,0 0.46243,0.0479 0.64862,0.14411 0.18304,0.0962 0.33633,0.24028 0.45644,0.43242 0.12,0.18624 0.21036,0.41441 0.27631,0.68464 0.0721,0.26411 0.10809,0.6216 0.10809,1.06904 0,0.53751 -0.057,0.97292 -0.16823,1.30926 -0.10518,0.33032 -0.27021,0.58254 -0.49245,0.75672 -0.21616,0.17723 -0.49247,0.2644 -0.82881,0.2644 -0.44142,0 -0.78674,-0.15632 -1.03298,-0.46845 -0.30629,-0.38436 -0.45644,-1.00296 -0.45644,-1.86179 z m 0.57656,0 c 0,0.75374 0.0872,1.25519 0.2641,1.50143 0.17404,0.24928 0.39038,0.37236 0.64862,0.37236 0.25539,0 0.47147,-0.12319 0.64861,-0.37236 0.17433,-0.2461 0.26411,-0.74769 0.26411,-1.50143 0,-0.75071 -0.0901,-1.25219 -0.26411,-1.50142 -0.17723,-0.24639 -0.39337,-0.37237 -0.64861,-0.37237 -0.2583,0 -0.46546,0.11419 -0.62459,0.33631 -0.19234,0.2734 -0.28822,0.78677 -0.28822,1.53748 z m 4.94273,0.036 c 0,-0.75972 0.20426,-1.35728 0.61259,-1.7897 0.40839,-0.43242 0.93088,-0.64862 1.57351,-0.64862 0.42338,0 0.80475,0.10518 1.14109,0.31228 0.33631,0.20135 0.59155,0.48048 0.76872,0.84081 0.18305,0.36036 0.27631,0.76876 0.27631,1.22517 0,0.46546 -0.0962,0.88286 -0.28822,1.24921 -0.18624,0.36033 -0.45043,0.63661 -0.79278,0.82878 -0.34531,0.18624 -0.71469,0.27631 -1.10503,0.27631 -0.43242,0 -0.8228,-0.0991 -1.16512,-0.30031 -0.33634,-0.20716 -0.59457,-0.49245 -0.76876,-0.85281 -0.16822,-0.36034 -0.25219,-0.73871 -0.25219,-1.14109 z m 0.62459,0 c 0,0.55253 0.14702,0.99096 0.44442,1.30926 0.29429,0.3123 0.66666,0.46844 1.11709,0.46844 0.44741,0 0.81977,-0.15921 1.11706,-0.48044 0.29427,-0.31832 0.44442,-0.77175 0.44442,-1.35732 0,-0.37535 -0.0659,-0.69966 -0.19205,-0.97292 -0.12,-0.27921 -0.30629,-0.49547 -0.5525,-0.64861 -0.24028,-0.15021 -0.51351,-0.22837 -0.81679,-0.22837 -0.42643,0 -0.79278,0.15021 -1.10506,0.44442 -0.30629,0.28822 -0.45644,0.77773 -0.45644,1.46539 z m 4.58839,2.22212 v -4.57635 h 0.56456 v 1.64556 c 0.2641,-0.3033 0.59155,-0.45645 0.98492,-0.45645 0.24609,0 0.45944,0.0479 0.63661,0.14411 0.18334,0.0962 0.3153,0.23418 0.39639,0.40839 0.0782,0.16823 0.12,0.41441 0.12,0.7327 v 2.10201 h -0.56456 v -2.10201 c 0,-0.27921 -0.0601,-0.48344 -0.18014,-0.61258 -0.11999,-0.1261 -0.29426,-0.19206 -0.51647,-0.19206 -0.16823,0 -0.33032,0.045 -0.48048,0.1322 -0.14411,0.0901 -0.24929,0.21036 -0.31231,0.36037 -0.0569,0.14411 -0.084,0.34531 -0.084,0.60056 v 1.81373 z m 3.5674,0 v -3.31515 h 0.50451 v 0.46844 c 0.10198,-0.15922 0.24028,-0.28822 0.40839,-0.38436 0.17404,-0.10198 0.37536,-0.15631 0.60056,-0.15631 0.24028,0 0.43541,0.054 0.58856,0.15631 0.15922,0.0962 0.2702,0.23709 0.33633,0.42039 0.2644,-0.38436 0.60657,-0.57656 1.03298,-0.57656 0.32733,0 0.57955,0.093 0.75673,0.27631 0.17432,0.17723 0.2641,0.45642 0.2641,0.84081 v 2.27015 h -0.56453 v -2.08998 c 0,-0.22227 -0.0203,-0.38436 -0.0601,-0.48048 -0.0331,-0.10198 -0.0962,-0.18304 -0.19205,-0.24028 -0.0962,-0.0631 -0.21007,-0.0962 -0.33631,-0.0962 -0.23418,0 -0.4264,0.0811 -0.57656,0.24028 -0.15312,0.15312 -0.22837,0.40238 -0.22837,0.7447 v 1.92184 h -0.56453 v -2.15003 c 0,-0.24639 -0.0479,-0.43542 -0.14411,-0.56456 -0.0901,-0.1261 -0.23708,-0.19205 -0.44442,-0.19205 -0.16212,0 -0.30931,0.045 -0.44445,0.13219 -0.129,0.0811 -0.22517,0.20106 -0.28822,0.36037 -0.0569,0.16212 -0.084,0.39337 -0.084,0.69664 v 1.71765 z m 0,0"
       style="fill:#000000;fill-opacity:1;fill-rule:nonzero;stroke:none;stroke-width:1.02498"
       aria-label="R2&#10;R&#10;=&#10;250 O&#10;h&#10;m" />
    <path
       id="path39"
       d="m 200.59803,52.526465 v 15.37473"
       style="fill:none;stroke:#000080;stroke-width:0.353617;stroke-linecap:square;stroke-linejoin:bevel;stroke-miterlimit:10;stroke-dasharray:none;stroke-opacity:1" />
    <path
       id="path40"
       d="m 185.22331,52.526465 v 15.37473"
       style="fill:none;stroke:#000080;stroke-width:0.353617;stroke-linecap:square;stroke-linejoin:bevel;stroke-miterlimit:10;stroke-dasharray:none;stroke-opacity:1" />
    <path
       id="path41"
       d="M 200.59803,52.526465 H 185.22331"
       style="fill:none;stroke:#000080;stroke-width:0.353617;stroke-linecap:square;stroke-linejoin:bevel;stroke-miterlimit:10;stroke-dasharray:none;stroke-opacity:1" />
    <path
       id="path42"
       d="M 200.59803,67.901165 H 185.22331"
       style="fill:none;stroke:#000080;stroke-width:0.353617;stroke-linecap:square;stroke-linejoin:bevel;stroke-miterlimit:10;stroke-dasharray:none;stroke-opacity:1" />
    <path
       id="path43"
       d="m 199.06055,54.063915 v 12.29977"
       style="fill:none;stroke:#000080;stroke-width:0.353617;stroke-linecap:square;stroke-linejoin:bevel;stroke-miterlimit:10;stroke-dasharray:none;stroke-opacity:1" />
    <path
       id="path44"
       d="m 192.11119,54.063915 v 12.29977"
       style="fill:none;stroke:#000080;stroke-width:0.353617;stroke-linecap:square;stroke-linejoin:bevel;stroke-miterlimit:10;stroke-dasharray:none;stroke-opacity:1" />
    <path
       id="path45"
       d="m 199.06055,54.063915 h -6.94936"
       style="fill:none;stroke:#000080;stroke-width:0.353617;stroke-linecap:square;stroke-linejoin:bevel;stroke-miterlimit:10;stroke-dasharray:none;stroke-opacity:1" />
    <path
       id="path46"
       d="m 199.06055,66.363705 h -6.94936"
       style="fill:none;stroke:#000080;stroke-width:0.353617;stroke-linecap:square;stroke-linejoin:bevel;stroke-miterlimit:10;stroke-dasharray:none;stroke-opacity:1" />
    <path
       id="path47"
       d="m 197.89206,56.031905 -5.7809,3.44392"
       style="fill:none;stroke:#000080;stroke-width:0.353617;stroke-linecap:square;stroke-linejoin:bevel;stroke-miterlimit:10;stroke-dasharray:none;stroke-opacity:1" />
    <path
       id="path48"
       d="m 188.66723,56.400895 h -2.33695"
       style="fill:none;stroke:#ff0000;stroke-width:0.353617;stroke-linecap:square;stroke-linejoin:bevel;stroke-miterlimit:10;stroke-dasharray:none;stroke-opacity:1" />
    <path
       id="path49"
       d="m 187.49877,55.232405 v 2.33695"
       style="fill:none;stroke:#ff0000;stroke-width:0.353617;stroke-linecap:square;stroke-linejoin:bevel;stroke-miterlimit:10;stroke-dasharray:none;stroke-opacity:1" />
    <path
       id="path50"
       d="m 187.49877,62.919755 v 2.33695"
       style="fill:none;stroke:#000000;stroke-width:0.353617;stroke-linecap:square;stroke-linejoin:bevel;stroke-miterlimit:10;stroke-dasharray:none;stroke-opacity:1" />
    <path
       id="path51"
       d="m 185.22331,56.400895 h -4.24343"
       style="fill:none;stroke:#000080;stroke-width:0.353617;stroke-linecap:square;stroke-linejoin:bevel;stroke-miterlimit:10;stroke-dasharray:none;stroke-opacity:1" />
    <path
       id="path52"
       d="m 185.22331,64.088245 h -4.24343"
       style="fill:none;stroke:#000080;stroke-width:0.353617;stroke-linecap:square;stroke-linejoin:bevel;stroke-miterlimit:10;stroke-dasharray:none;stroke-opacity:1" />
    <path
       id="path53"
       d="m 195.73961,64.826225 c 1.10698,-1.29147 1.78346,-2.95194 1.78346,-4.79691 0,-1.84496 -0.67648,-3.50543 -1.78346,-4.79691"
       style="fill:none;stroke:#000080;stroke-width:0.353617;stroke-linecap:square;stroke-linejoin:bevel;stroke-miterlimit:10;stroke-dasharray:none;stroke-opacity:1" />
    <path
       id="path54"
       d="m 183.1328,76.696975 v -4.57639 h 1.72965 c 0.3033,0 0.53451,0.0174 0.69667,0.0479 0.22227,0.0331 0.41138,0.10518 0.56453,0.21616 0.15021,0.10518 0.27021,0.2522 0.36033,0.44442 0.0962,0.18624 0.14411,0.39038 0.14411,0.61259 0,0.39337 -0.12609,0.72671 -0.37233,0.99695 -0.24929,0.26411 -0.69667,0.39639 -1.34529,0.39639 h -1.17714 v 1.86179 z m 0.60056,-2.40232 h 1.18914 c 0.39038,0 0.66663,-0.0721 0.82879,-0.21617 0.16822,-0.14411 0.25219,-0.34834 0.25219,-0.61259 0,-0.19234 -0.0479,-0.35435 -0.14411,-0.49247 -0.0962,-0.13511 -0.22517,-0.22837 -0.38436,-0.27631 -0.10518,-0.0232 -0.2943,-0.036 -0.56454,-0.036 h -1.17714 z m 3.69353,2.40232 v -3.31519 h 0.50451 v 0.50447 c 0.12609,-0.23127 0.24318,-0.38436 0.3483,-0.45641 0.11128,-0.0782 0.23128,-0.12 0.36037,-0.12 0.19205,0 0.38436,0.0601 0.57655,0.18014 l -0.19205,0.51647 c -0.13801,-0.0781 -0.2734,-0.11999 -0.40839,-0.11999 -0.11999,0 -0.23418,0.0421 -0.33633,0.11999 -0.0962,0.0721 -0.16503,0.17433 -0.20426,0.30031 -0.066,0.20106 -0.0962,0.42039 -0.0962,0.66062 v 1.72967 z m 4.95174,-0.54054 v 0.54054 h -3.0269 c 0,-0.13511 0.0232,-0.26411 0.072,-0.3844 0.0721,-0.20716 0.19205,-0.41138 0.36034,-0.61258 0.17433,-0.19816 0.42341,-0.43239 0.74473,-0.69665 0.49546,-0.40839 0.82878,-0.72671 0.99695,-0.96092 0.17403,-0.24028 0.2641,-0.46844 0.2641,-0.68467 0,-0.21616 -0.0811,-0.39938 -0.24028,-0.55253 -0.16212,-0.15922 -0.36635,-0.24028 -0.61259,-0.24028 -0.2734,0 -0.49247,0.084 -0.66064,0.25219 -0.16212,0.16213 -0.24028,0.38437 -0.24028,0.67265 l -0.57656,-0.0601 c 0.0389,-0.43242 0.18624,-0.75975 0.44442,-0.98495 0.25539,-0.22227 0.60358,-0.33633 1.04501,-0.33633 0.43241,0 0.77474,0.11999 1.033,0.36036 0.25539,0.24028 0.38436,0.5405 0.38436,0.90087 0,0.18624 -0.036,0.36635 -0.10808,0.5405 -0.0721,0.17723 -0.19815,0.36635 -0.37236,0.56453 -0.17723,0.19234 -0.46543,0.46246 -0.86481,0.80478 -0.33634,0.28212 -0.55253,0.47446 -0.64864,0.57656 -0.0962,0.0962 -0.17724,0.19815 -0.24029,0.30028 z m 0,0"
       style="fill:#000000;fill-opacity:1;fill-rule:nonzero;stroke:none;stroke-width:1.02498"
       aria-label="Pr&#10;2" />
    <path
       id="path55"
       d="m 50.294815,25.651445 v 7.68735"
       style="fill:none;stroke:#000080;stroke-width:0.353617;stroke-linecap:square;stroke-linejoin:bevel;stroke-miterlimit:10;stroke-dasharray:none;stroke-opacity:1" />
    <path
       id="path56"
       d="M 50.294815,25.651445 H 73.356887"
       style="fill:none;stroke:#000080;stroke-width:0.353617;stroke-linecap:square;stroke-linejoin:bevel;stroke-miterlimit:10;stroke-dasharray:none;stroke-opacity:1" />
    <path
       id="path57"
       d="m 96.418948,25.651445 h 23.062072 23.06207"
       style="fill:none;stroke:#000080;stroke-width:0.353617;stroke-linecap:square;stroke-linejoin:bevel;stroke-miterlimit:10;stroke-dasharray:none;stroke-opacity:1" />
    <path
       id="path58"
       d="m 119.48102,25.651445 v 23.06207"
       style="fill:none;stroke:#000080;stroke-width:0.353617;stroke-linecap:square;stroke-linejoin:bevel;stroke-miterlimit:10;stroke-dasharray:none;stroke-opacity:1" />
    <path
       id="path59"
       d="m 34.920099,33.338825 v 23.06207"
       style="fill:none;stroke:#000080;stroke-width:0.353617;stroke-linecap:square;stroke-linejoin:bevel;stroke-miterlimit:10;stroke-dasharray:none;stroke-opacity:1" />
    <path
       id="path60"
       d="m 50.294815,33.338825 v 15.37472"
       style="fill:none;stroke:#000080;stroke-width:0.353617;stroke-linecap:square;stroke-linejoin:bevel;stroke-miterlimit:10;stroke-dasharray:none;stroke-opacity:1" />
    <path
       id="path61"
       d="M 34.920099,33.338825 H 50.294812"
       style="fill:none;stroke:#000080;stroke-width:0.353617;stroke-linecap:square;stroke-linejoin:bevel;stroke-miterlimit:10;stroke-dasharray:none;stroke-opacity:1" />
    <path
       id="path62"
       d="m 50.294815,71.775585 v 15.37473"
       style="fill:none;stroke:#000080;stroke-width:0.353617;stroke-linecap:square;stroke-linejoin:bevel;stroke-miterlimit:10;stroke-dasharray:none;stroke-opacity:1" />
    <path
       id="path63"
       d="m 50.294815,94.837665 h 69.186205 61.49886"
       style="fill:none;stroke:#000080;stroke-width:0.353617;stroke-linecap:square;stroke-linejoin:bevel;stroke-miterlimit:10;stroke-dasharray:none;stroke-opacity:1" />
    <path
       id="path64"
       d="m 119.48102,71.775585 v 23.06208"
       style="fill:none;stroke:#000080;stroke-width:0.353617;stroke-linecap:square;stroke-linejoin:bevel;stroke-miterlimit:10;stroke-dasharray:none;stroke-opacity:1" />
    <path
       id="path65"
       d="m 34.920099,64.088245 v 23.06207"
       style="fill:none;stroke:#000080;stroke-width:0.353617;stroke-linecap:square;stroke-linejoin:bevel;stroke-miterlimit:10;stroke-dasharray:none;stroke-opacity:1" />
    <path
       id="path66"
       d="m 50.294815,87.150315 v 7.68735"
       style="fill:none;stroke:#000080;stroke-width:0.353617;stroke-linecap:square;stroke-linejoin:bevel;stroke-miterlimit:10;stroke-dasharray:none;stroke-opacity:1" />
    <path
       id="path67"
       d="M 34.920099,87.150315 H 50.294812"
       style="fill:none;stroke:#000080;stroke-width:0.353617;stroke-linecap:square;stroke-linejoin:bevel;stroke-miterlimit:10;stroke-dasharray:none;stroke-opacity:1" />
    <path
       id="path68"
       d="m 165.60516,25.651445 h 15.37472"
       style="fill:none;stroke:#000080;stroke-width:0.353617;stroke-linecap:square;stroke-linejoin:bevel;stroke-miterlimit:10;stroke-dasharray:none;stroke-opacity:1" />
    <path
       id="path69"
       d="m 180.97988,64.088245 v 30.74942"
       style="fill:none;stroke:#000080;stroke-width:0.353617;stroke-linecap:square;stroke-linejoin:bevel;stroke-miterlimit:10;stroke-dasharray:none;stroke-opacity:1" />
    <path
       id="path70"
       d="m 180.97988,25.651445 v 30.74942"
       style="fill:none;stroke:#000080;stroke-width:0.353617;stroke-linecap:square;stroke-linejoin:bevel;stroke-miterlimit:10;stroke-dasharray:none;stroke-opacity:1" />
    <path
       id="path71"
       d="m 72.557399,24.85198 v 1.537452 H 74.09487 V 24.85198 Z"
       style="fill:#000080;fill-opacity:1;fill-rule:nonzero;stroke:none;stroke-width:1.02498" />
    <path
       id="path72"
       d="m 95.619483,24.85198 v 1.537452 h 1.537452 V 24.85198 Z"
       style="fill:#000080;fill-opacity:1;fill-rule:nonzero;stroke:none;stroke-width:1.02498" />
    <path
       id="path73"
       d="m 34.120613,55.601395 v 1.53749 h 1.537473 v -1.53749 z"
       style="fill:#000080;fill-opacity:1;fill-rule:nonzero;stroke:none;stroke-width:1.02498" />
    <path
       id="path74"
       d="m 34.120613,63.288745 v 1.53748 h 1.537473 v -1.53748 z"
       style="fill:#000080;fill-opacity:1;fill-rule:nonzero;stroke:none;stroke-width:1.02498" />
    <path
       id="path75"
       d="m 49.495329,47.914055 v 1.53745 h 1.537469 v -1.53745 z"
       style="fill:#000080;fill-opacity:1;fill-rule:nonzero;stroke:none;stroke-width:1.02498" />
    <path
       id="path76"
       d="m 49.495329,70.976125 v 1.53745 h 1.537469 v -1.53745 z"
       style="fill:#000080;fill-opacity:1;fill-rule:nonzero;stroke:none;stroke-width:1.02498" />
    <path
       id="path77"
       d="m 118.68155,70.976125 v 1.53745 h 1.53745 v -1.53745 z"
       style="fill:#000080;fill-opacity:1;fill-rule:nonzero;stroke:none;stroke-width:1.02498" />
    <path
       id="path78"
       d="m 118.68155,47.914055 v 1.53745 h 1.53745 v -1.53745 z"
       style="fill:#000080;fill-opacity:1;fill-rule:nonzero;stroke:none;stroke-width:1.02498" />
    <path
       id="path79"
       d="m 141.74359,24.85198 v 1.537452 h 1.53748 V 24.85198 Z"
       style="fill:#000080;fill-opacity:1;fill-rule:nonzero;stroke:none;stroke-width:1.02498" />
    <path
       id="path80"
       d="m 164.80566,24.85198 v 1.537452 h 1.53749 V 24.85198 Z"
       style="fill:#000080;fill-opacity:1;fill-rule:nonzero;stroke:none;stroke-width:1.02498" />
    <path
       id="path81"
       d="m 180.18039,55.601395 v 1.53749 h 1.53748 v -1.53749 z"
       style="fill:#000080;fill-opacity:1;fill-rule:nonzero;stroke:none;stroke-width:1.02498" />
    <path
       id="path82"
       d="m 180.18039,63.288745 v 1.53748 h 1.53748 v -1.53748 z"
       style="fill:#000080;fill-opacity:1;fill-rule:nonzero;stroke:none;stroke-width:1.02498" />
    <path
       id="path83"
       d="m 51.463294,33.338825 c 0,0.615 -0.553489,1.16849 -1.168479,1.16849 -0.676487,0 -1.168476,-0.55349 -1.168476,-1.16849 0,-0.67648 0.491989,-1.16849 1.168476,-1.16849 0.61499,0 1.168479,0.49201 1.168479,1.16849"
       style="fill:#000080;fill-opacity:1;fill-rule:evenodd;stroke:none;stroke-width:1.02498" />
    <path
       id="path84"
       d="m 51.463294,33.338825 c 0,0.615 -0.553489,1.16849 -1.168479,1.16849 -0.676487,0 -1.168476,-0.55349 -1.168476,-1.16849 0,-0.67648 0.491989,-1.16849 1.168476,-1.16849 0.61499,0 1.168479,0.49201 1.168479,1.16849 z"
       style="fill:none;stroke:#000080;stroke-width:0.061499;stroke-linecap:square;stroke-linejoin:bevel;stroke-miterlimit:10;stroke-dasharray:none;stroke-opacity:1" />
    <path
       id="path85"
       d="m 120.6495,25.651445 c 0,0.614999 -0.55349,1.168488 -1.16848,1.168488 -0.67648,0 -1.16846,-0.553489 -1.16846,-1.168488 0,-0.676477 0.49198,-1.168488 1.16846,-1.168488 0.61499,0 1.16848,0.492011 1.16848,1.168488"
       style="fill:#000080;fill-opacity:1;fill-rule:evenodd;stroke:none;stroke-width:1.02498" />
    <path
       id="path86"
       d="m 120.6495,25.651445 c 0,0.614999 -0.55349,1.168488 -1.16848,1.168488 -0.67648,0 -1.16846,-0.553489 -1.16846,-1.168488 0,-0.676477 0.49198,-1.168488 1.16846,-1.168488 0.61499,0 1.16848,0.492011 1.16848,1.168488 z"
       style="fill:none;stroke:#000080;stroke-width:0.061499;stroke-linecap:square;stroke-linejoin:bevel;stroke-miterlimit:10;stroke-dasharray:none;stroke-opacity:1" />
    <path
       id="path87"
       d="m 51.463294,87.150315 c 0,0.615 -0.553489,1.16849 -1.168479,1.16849 -0.676487,0 -1.168476,-0.55349 -1.168476,-1.16849 0,-0.67648 0.491989,-1.16849 1.168476,-1.16849 0.61499,0 1.168479,0.49201 1.168479,1.16849"
       style="fill:#000080;fill-opacity:1;fill-rule:evenodd;stroke:none;stroke-width:1.02498" />
    <path
       id="path88"
       d="m 51.463294,87.150315 c 0,0.615 -0.553489,1.16849 -1.168479,1.16849 -0.676487,0 -1.168476,-0.55349 -1.168476,-1.16849 0,-0.67648 0.491989,-1.16849 1.168476,-1.16849 0.61499,0 1.168479,0.49201 1.168479,1.16849 z"
       style="fill:none;stroke:#000080;stroke-width:0.061499;stroke-linecap:square;stroke-linejoin:bevel;stroke-miterlimit:10;stroke-dasharray:none;stroke-opacity:1" />
    <path
       id="path89"
       d="m 120.6495,94.837665 c 0,0.61499 -0.55349,1.16848 -1.16848,1.16848 -0.67648,0 -1.16846,-0.55349 -1.16846,-1.16848 0,-0.67648 0.49198,-1.16849 1.16846,-1.16849 0.61499,0 1.16848,0.49201 1.16848,1.16849"
       style="fill:#000080;fill-opacity:1;fill-rule:evenodd;stroke:none;stroke-width:1.02498" />
    <path
       id="path90"
       d="m 120.6495,94.837665 c 0,0.61499 -0.55349,1.16848 -1.16848,1.16848 -0.67648,0 -1.16846,-0.55349 -1.16846,-1.16848 0,-0.67648 0.49198,-1.16849 1.16846,-1.16849 0.61499,0 1.16848,0.49201 1.16848,1.16849 z"
       style="fill:none;stroke:#000080;stroke-width:0.061499;stroke-linecap:square;stroke-linejoin:bevel;stroke-miterlimit:10;stroke-dasharray:none;stroke-opacity:1" />
    <path
       id="path91"
       d="m 111.79367,111.38088 h 71.46168"
       style="fill:none;stroke:#000000;stroke-width:0.368993;stroke-linecap:square;stroke-linejoin:bevel;stroke-miterlimit:10;stroke-dasharray:none;stroke-opacity:1" />
    <path
       id="path92"
       d="m 111.79367,111.38088 v 18.81865"
       style="fill:none;stroke:#000000;stroke-width:0.368993;stroke-linecap:square;stroke-linejoin:bevel;stroke-miterlimit:10;stroke-dasharray:none;stroke-opacity:1" />
    <path
       id="path93"
       d="m 183.25535,111.38088 v 18.81865"
       style="fill:none;stroke:#000000;stroke-width:0.368993;stroke-linecap:square;stroke-linejoin:bevel;stroke-miterlimit:10;stroke-dasharray:none;stroke-opacity:1" />
    <path
       id="path94"
       d="m 111.79367,130.19953 h 71.46168"
       style="fill:none;stroke:#000000;stroke-width:0.368993;stroke-linecap:square;stroke-linejoin:bevel;stroke-miterlimit:10;stroke-dasharray:none;stroke-opacity:1" />
    <path
       id="path95"
       d="m 111.79367,120.17521 h 71.46168"
       style="fill:none;stroke:#000000;stroke-width:0.430493;stroke-linecap:square;stroke-linejoin:bevel;stroke-miterlimit:10;stroke-dasharray:none;stroke-opacity:1" />
    <path
       id="path96"
       d="m 137.56168,111.38088 v 18.81865"
       style="fill:none;stroke:#000000;stroke-width:0.353617;stroke-linecap:square;stroke-linejoin:bevel;stroke-miterlimit:10;stroke-dasharray:none;stroke-opacity:1" />
    <path
       id="path97"
       d="m 159.0863,111.38088 v 18.81865"
       style="fill:none;stroke:#000000;stroke-width:0.368993;stroke-linecap:square;stroke-linejoin:bevel;stroke-miterlimit:10;stroke-dasharray:none;stroke-opacity:1" />
    <path
       id="path98"
       d="m 113.75139,117.83933 v -3.31515 h 0.50448 v 0.46844 c 0.24609,-0.36036 0.60059,-0.54053 1.05703,-0.54053 0.19816,0 0.38437,0.036 0.55251,0.10809 0.16822,0.072 0.2913,0.16822 0.37236,0.28822 0.0782,0.11418 0.13801,0.24929 0.18014,0.40839 0.0145,0.10518 0.0232,0.28531 0.0232,0.5405 v 2.04196 h -0.56453 v -2.01793 c 0,-0.22227 -0.0203,-0.39038 -0.0601,-0.50448 -0.0421,-0.11999 -0.11709,-0.21035 -0.22837,-0.2763 -0.11419,-0.0721 -0.24609,-0.10809 -0.39639,-0.10809 -0.24028,0 -0.45041,0.0782 -0.62459,0.22808 -0.16823,0.15312 -0.25219,0.44143 -0.25219,0.86484 v 1.81373 z m 5.74151,0 v -0.49247 c -0.2583,0.37838 -0.6096,0.56456 -1.05701,0.56456 -0.19234,0 -0.37236,-0.036 -0.54053,-0.10808 -0.16822,-0.0721 -0.29728,-0.16213 -0.38436,-0.27631 -0.0811,-0.12 -0.13801,-0.2583 -0.16823,-0.42042 -0.0232,-0.11099 -0.036,-0.28822 -0.036,-0.52851 v -2.05395 h 0.56453 v 1.83776 c 0,0.29729 0.0116,0.49244 0.036,0.58856 0.0299,0.15312 0.10198,0.2734 0.21617,0.36033 0.11999,0.0811 0.26411,0.12 0.43242,0.12 0.16822,0 0.32431,-0.0421 0.46845,-0.1322 0.15021,-0.0872 0.25539,-0.20425 0.31227,-0.34834 0.063,-0.15021 0.0962,-0.36635 0.0962,-0.64861 v -1.7777 h 0.56454 v 3.31515 z m 1.39331,0 v -3.31515 h 0.5045 v 0.46844 c 0.10199,-0.15921 0.24029,-0.28822 0.4084,-0.38436 0.17403,-0.10198 0.37535,-0.15631 0.60055,-0.15631 0.24029,0 0.43542,0.054 0.58856,0.15631 0.15922,0.0962 0.27021,0.23709 0.33634,0.42039 0.2641,-0.38436 0.60657,-0.57656 1.03298,-0.57656 0.32732,0 0.57955,0.093 0.75672,0.27631 0.17433,0.17724 0.2644,0.45642 0.2644,0.84078 v 2.27018 h -0.56453 v -2.08998 c 0,-0.22227 -0.0203,-0.38439 -0.0601,-0.48048 -0.0331,-0.10198 -0.0962,-0.18304 -0.19205,-0.24028 -0.0962,-0.0631 -0.21007,-0.0962 -0.33631,-0.0962 -0.23418,0 -0.42641,0.0811 -0.57656,0.24028 -0.15312,0.15312 -0.22808,0.40238 -0.22808,0.7447 v 1.92185 h -0.56453 v -2.15004 c 0,-0.2461 -0.0479,-0.43544 -0.14411,-0.56456 -0.0901,-0.1261 -0.23709,-0.19205 -0.44442,-0.19205 -0.16212,0 -0.30931,0.045 -0.44442,0.1322 -0.129,0.0811 -0.22517,0.20134 -0.28822,0.36036 -0.057,0.16212 -0.084,0.39337 -0.084,0.69664 v 1.71765 z m 5.85563,0 h -0.5165 v -4.57638 h 0.56453 v 1.63356 c 0.23127,-0.29426 0.53152,-0.44442 0.90087,-0.44442 0.20715,0 0.39938,0.0421 0.57655,0.12 0.18305,0.0811 0.33033,0.19815 0.44442,0.34833 0.12,0.15312 0.21036,0.33332 0.27631,0.54054 0.0721,0.21006 0.10809,0.43241 0.10809,0.67264 0,0.57054 -0.14121,1.00895 -0.4204,1.32125 -0.28212,0.3063 -0.6186,0.45645 -1.00897,0.45645 -0.39337,0 -0.70266,-0.16212 -0.92487,-0.49247 z m 0,-1.68159 c 0,0.40238 0.0511,0.69066 0.15603,0.86481 0.17403,0.28822 0.4144,0.43242 0.72069,0.43242 0.2461,0 0.45944,-0.10198 0.63659,-0.31231 0.17433,-0.21616 0.2644,-0.53448 0.2644,-0.96092 0,-0.43239 -0.0901,-0.75071 -0.2644,-0.96089 -0.16823,-0.20716 -0.37233,-0.31231 -0.61259,-0.31231 -0.24929,0 -0.46243,0.10808 -0.63658,0.32431 -0.17724,0.21616 -0.26411,0.52551 -0.26411,0.92489 z m 5.32109,0.61259 0.57656,0.072 c -0.0901,0.33634 -0.2583,0.60059 -0.50451,0.79276 -0.24929,0.18624 -0.56453,0.27631 -0.94889,0.27631 -0.48948,0 -0.87684,-0.14731 -1.16512,-0.44445 -0.28212,-0.29427 -0.42042,-0.71468 -0.42042,-1.2612 0,-0.55253 0.14411,-0.97894 0.43242,-1.28523 0.28822,-0.31228 0.66064,-0.46845 1.11709,-0.46845 0.44741,0 0.81077,0.15312 1.09303,0.45645 0.27922,0.29729 0.42039,0.7207 0.42039,1.2732 0,0.0331 0,0.0811 0,0.14411 h -2.47434 c 0.0145,0.36037 0.11418,0.64263 0.30028,0.84081 0.19205,0.19234 0.42341,0.28822 0.69667,0.28822 0.20716,0 0.38436,-0.0511 0.5285,-0.15602 0.14411,-0.11099 0.2583,-0.28822 0.34834,-0.5285 z m -1.84979,-0.90087 h 1.84979 c -0.0232,-0.27921 -0.093,-0.49247 -0.20426,-0.63661 -0.18624,-0.21617 -0.4174,-0.32431 -0.69667,-0.32431 -0.25829,0 -0.47446,0.0901 -0.64861,0.2644 -0.17724,0.16822 -0.27631,0.40237 -0.30031,0.69667 z m 3.14702,1.96987 v -3.31515 h 0.5045 v 0.50447 c 0.1261,-0.23127 0.24319,-0.38436 0.34831,-0.45645 0.11098,-0.0782 0.23127,-0.11999 0.36036,-0.11999 0.19205,0 0.38436,0.0601 0.57656,0.18014 l -0.19205,0.5165 c -0.13801,-0.0782 -0.27341,-0.11999 -0.40839,-0.11999 -0.12,0 -0.23418,0.0421 -0.33634,0.11999 -0.0962,0.0721 -0.16503,0.17404 -0.20425,0.30028 -0.066,0.20106 -0.0962,0.42042 -0.0962,0.66064 v 1.72965 z m -16.11341,8.48612 h -0.56456 v -3.57941 c -0.129,0.129 -0.3063,0.2583 -0.5285,0.38437 -0.21617,0.129 -0.41438,0.22517 -0.58856,0.28822 v -0.54053 c 0.3123,-0.14412 0.58257,-0.3183 0.81678,-0.52851 0.24028,-0.21616 0.40839,-0.42039 0.50447,-0.61258 h 0.36037 z m 23.94492,-8.48612 v -4.57638 h 1.72965 c 0.30327,0 0.53452,0.0174 0.69667,0.0479 0.22227,0.0331 0.41138,0.10518 0.56453,0.21616 0.15021,0.10518 0.27021,0.2522 0.36034,0.44445 0.0962,0.18624 0.14411,0.39038 0.14411,0.61259 0,0.39337 -0.1261,0.72668 -0.37237,0.99695 -0.24928,0.2641 -0.69664,0.39636 -1.34528,0.39636 h -1.17712 v 1.86179 z m 0.60056,-2.40229 h 1.18915 c 0.39037,0 0.66662,-0.072 0.82878,-0.21616 0.16822,-0.14411 0.25219,-0.34834 0.25219,-0.61259 0,-0.19234 -0.0479,-0.35435 -0.14411,-0.49247 -0.0962,-0.13511 -0.22517,-0.22808 -0.38436,-0.27631 -0.10518,-0.0232 -0.2943,-0.036 -0.56456,-0.036 h -1.17712 z m 3.75359,2.40229 v -3.31515 h 0.50447 v 0.50447 c 0.1261,-0.23127 0.24319,-0.38436 0.34834,-0.45645 0.11099,-0.0782 0.23127,-0.11999 0.36036,-0.11999 0.19205,0 0.38437,0.0601 0.57653,0.18014 l -0.19205,0.5165 c -0.13801,-0.0782 -0.27311,-0.11999 -0.40839,-0.11999 -0.11999,0 -0.23418,0.0421 -0.33633,0.11999 -0.0962,0.0721 -0.16503,0.17404 -0.20426,0.30028 -0.0659,0.20106 -0.0962,0.42042 -0.0962,0.66064 v 1.72965 z m 4.11093,0 h -0.56453 v -3.5794 c -0.129,0.129 -0.30629,0.25829 -0.5285,0.38436 -0.21617,0.129 -0.41441,0.22517 -0.58856,0.28822 v -0.54053 c 0.31228,-0.14411 0.58255,-0.31829 0.81678,-0.5285 0.24028,-0.21617 0.40839,-0.42039 0.50448,-0.61259 h 0.36033 z m 1.76269,0 v -0.63661 h 0.64864 v 0.63661 z m 3.07194,0 -1.77771,-4.57638 h 0.66065 l 1.18914,3.32718 c 0.0962,0.26411 0.17404,0.51351 0.24028,0.74473 0.0721,-0.24609 0.15021,-0.49547 0.24028,-0.74473 l 1.23721,-3.32718 h 0.62458 l -1.7897,4.57638 z m -11.47697,8.48612 h -0.56456 v -3.57941 c -0.129,0.129 -0.30629,0.2583 -0.5285,0.38437 -0.21617,0.129 -0.41438,0.22517 -0.58856,0.28822 v -0.54053 c 0.31231,-0.14412 0.58257,-0.3183 0.81678,-0.52851 0.24028,-0.21616 0.40839,-0.42039 0.50448,-0.61258 h 0.36036 z m 4.40822,-0.5405 v 0.5405 h -3.02691 c 0,-0.1351 0.0232,-0.26411 0.0721,-0.38436 0.072,-0.20716 0.19205,-0.41139 0.36036,-0.61259 0.17404,-0.19815 0.42342,-0.43242 0.7447,-0.69667 0.49547,-0.40839 0.82881,-0.72668 0.99695,-0.96092 0.17433,-0.24028 0.2644,-0.46845 0.2644,-0.68464 0,-0.21617 -0.0811,-0.39939 -0.24028,-0.55254 -0.16213,-0.15921 -0.36635,-0.24028 -0.61259,-0.24028 -0.27311,0 -0.49248,0.084 -0.66061,0.2522 -0.16213,0.16212 -0.24029,0.38439 -0.24029,0.67267 l -0.57653,-0.0601 c 0.0389,-0.43239 0.18624,-0.75972 0.44442,-0.98493 0.25539,-0.22226 0.60358,-0.33633 1.04501,-0.33633 0.43239,0 0.77474,0.11999 1.03298,0.36036 0.25539,0.24028 0.38436,0.54051 0.38436,0.90084 0,0.18624 -0.036,0.36635 -0.10808,0.54053 -0.0721,0.17723 -0.19816,0.36635 -0.37237,0.56453 -0.17723,0.19234 -0.46545,0.46246 -0.86484,0.80478 -0.3363,0.28212 -0.55253,0.47447 -0.64861,0.57656 -0.0962,0.0962 -0.17723,0.19816 -0.24028,0.30028 z m 0.60956,-1.71765 c 0,-0.53452 0.054,-0.96694 0.16823,-1.29723 0.11099,-0.33634 0.27631,-0.59158 0.49248,-0.76875 0.22226,-0.17404 0.49849,-0.26411 0.82878,-0.26411 0.24609,0 0.46246,0.0479 0.64864,0.14411 0.18305,0.0962 0.33631,0.24028 0.45642,0.43242 0.12,0.18624 0.21035,0.4144 0.27631,0.68464 0.072,0.26411 0.10808,0.6216 0.10808,1.06904 0,0.53751 -0.057,0.97292 -0.16822,1.30925 -0.10518,0.33032 -0.27021,0.58255 -0.49248,0.75673 -0.21617,0.17723 -0.49247,0.26411 -0.82881,0.26411 -0.44143,0 -0.78674,-0.15603 -1.03298,-0.46845 -0.30629,-0.38436 -0.45645,-1.00297 -0.45645,-1.86179 z m 0.57656,0 c 0,0.75373 0.0872,1.25522 0.26411,1.50142 0.17433,0.24929 0.39038,0.37237 0.64861,0.37237 0.25539,0 0.47147,-0.12319 0.64865,-0.37237 0.17403,-0.24609 0.26439,-0.74769 0.26439,-1.50142 0,-0.75071 -0.0901,-1.25219 -0.26439,-1.50143 -0.17723,-0.24609 -0.3934,-0.37236 -0.64865,-0.37236 -0.25829,0 -0.46542,0.11419 -0.62458,0.33631 -0.19234,0.27311 -0.28822,0.78677 -0.28822,1.53748 z m 14.10751,-6.22797 v -4.57638 h 1.72965 c 0.3033,0 0.53452,0.0174 0.69667,0.0479 0.22227,0.0331 0.41139,0.10518 0.56453,0.21616 0.15021,0.10518 0.27021,0.2522 0.36037,0.44445 0.0962,0.18624 0.14411,0.39038 0.14411,0.61259 0,0.39337 -0.1261,0.72668 -0.37237,0.99695 -0.24928,0.2641 -0.69667,0.39636 -1.34528,0.39636 h -1.17712 v 1.86179 z m 0.60056,-2.40229 h 1.18915 c 0.39037,0 0.66663,-0.072 0.82881,-0.21616 0.16822,-0.14411 0.25219,-0.34834 0.25219,-0.61259 0,-0.19234 -0.0479,-0.35435 -0.14411,-0.49247 -0.0962,-0.13511 -0.22517,-0.22808 -0.38436,-0.27631 -0.10518,-0.0232 -0.2943,-0.036 -0.56453,-0.036 h -1.17715 z m 3.75359,2.40229 v -3.31515 h 0.5045 v 0.50447 c 0.1261,-0.23127 0.24319,-0.38436 0.34834,-0.45645 0.11099,-0.0782 0.23127,-0.11999 0.36034,-0.11999 0.19234,0 0.38436,0.0601 0.57655,0.18014 l -0.19205,0.5165 c -0.13801,-0.0782 -0.2734,-0.11999 -0.40839,-0.11999 -0.11999,0 -0.23418,0.0421 -0.3363,0.11999 -0.0962,0.0721 -0.16533,0.17404 -0.20426,0.30028 -0.066,0.20106 -0.0962,0.42042 -0.0962,0.66064 v 1.72965 z m 4.95174,-0.5405 v 0.5405 h -3.02687 c 0,-0.1351 0.0232,-0.2641 0.072,-0.38436 0.0721,-0.20716 0.19234,-0.41138 0.36034,-0.61259 0.17432,-0.19815 0.42341,-0.43241 0.74472,-0.69667 0.49547,-0.40839 0.82879,-0.72668 0.99695,-0.96092 0.17404,-0.24028 0.26411,-0.46845 0.26411,-0.68464 0,-0.21617 -0.0811,-0.39938 -0.24028,-0.55253 -0.16213,-0.15922 -0.36635,-0.24028 -0.61259,-0.24028 -0.2734,0 -0.49247,0.084 -0.66064,0.25219 -0.16213,0.16213 -0.24028,0.38436 -0.24028,0.67264 l -0.57656,-0.0601 c 0.0389,-0.43242 0.18624,-0.75972 0.44442,-0.98492 0.25539,-0.22227 0.60358,-0.33634 1.045,-0.33634 0.43242,0 0.77474,0.12 1.03301,0.36034 0.25539,0.24028 0.38436,0.54053 0.38436,0.90086 0,0.18624 -0.036,0.36635 -0.10808,0.54054 -0.0721,0.17723 -0.19815,0.36635 -0.37236,0.56453 -0.17724,0.19234 -0.46543,0.46243 -0.86481,0.80478 -0.33634,0.28212 -0.55253,0.47443 -0.64862,0.57653 -0.0962,0.0962 -0.17723,0.19815 -0.24028,0.30031 z m 0.92191,0.5405 v -0.63661 h 0.64861 v 0.63661 z m 3.07194,0 -1.77771,-4.57638 h 0.66062 l 1.18914,3.32718 c 0.0962,0.26411 0.17433,0.51351 0.24028,0.74473 0.0721,-0.24609 0.15022,-0.49547 0.24028,-0.74473 l 1.23718,-3.32718 h 0.62458 l -1.7897,4.57638 z m -12.7262,5.99975 c -0.23418,-0.0782 -0.40537,-0.19816 -0.51647,-0.36034 -0.11419,-0.15922 -0.16823,-0.34833 -0.16823,-0.56453 0,-0.33634 0.12,-0.61561 0.36033,-0.84081 0.24029,-0.22227 0.55553,-0.33634 0.94893,-0.33634 0.39938,0 0.72067,0.11709 0.96089,0.34834 0.24609,0.23418 0.37236,0.51348 0.37236,0.84081 0,0.21617 -0.0569,0.4054 -0.16822,0.56453 -0.11419,0.15312 -0.28241,0.27021 -0.50451,0.34834 0.27922,0.0962 0.49248,0.24928 0.63662,0.45644 0.14411,0.20106 0.21617,0.44143 0.21617,0.7207 0,0.39337 -0.14121,0.72067 -0.4204,0.98492 -0.27311,0.26411 -0.63359,0.39639 -1.08103,0.39639 -0.45043,0 -0.81379,-0.13219 -1.09303,-0.39639 -0.27341,-0.26439 -0.40839,-0.59457 -0.40839,-0.99695 0,-0.29426 0.072,-0.54352 0.21616,-0.74469 0.15021,-0.19816 0.36635,-0.33933 0.64862,-0.42042 z m -0.10808,-0.9489 c 0,0.21617 0.0659,0.39636 0.20425,0.5405 0.1351,0.13801 0.31533,0.20426 0.54053,0.20426 0.21617,0 0.39038,-0.066 0.52851,-0.20426 0.14411,-0.1351 0.21616,-0.30327 0.21616,-0.50447 0,-0.20716 -0.072,-0.37838 -0.21616,-0.5165 -0.14412,-0.14411 -0.32132,-0.21617 -0.52851,-0.21617 -0.21616,0 -0.39639,0.0692 -0.54053,0.20425 -0.13801,0.13801 -0.20425,0.30028 -0.20425,0.49248 z m -0.18014,2.11401 c 0,0.16213 0.036,0.31833 0.10808,0.46845 0.0782,0.15312 0.19205,0.27021 0.33634,0.34834 0.15021,0.0811 0.3153,0.11999 0.49244,0.11999 0.2644,0 0.48347,-0.084 0.66065,-0.25219 0.17432,-0.17433 0.2641,-0.39639 0.2641,-0.66065 0,-0.2702 -0.093,-0.49546 -0.27631,-0.67264 -0.17723,-0.17433 -0.4024,-0.2641 -0.67264,-0.2641 -0.2644,0 -0.48649,0.0901 -0.66064,0.2641 -0.16823,0.16823 -0.2522,0.38436 -0.2522,0.64862 z m 2.99088,-0.93689 c 0,-0.53452 0.054,-0.96694 0.16822,-1.29723 0.11099,-0.33634 0.27631,-0.59158 0.49245,-0.76875 0.22227,-0.17404 0.49849,-0.26411 0.82881,-0.26411 0.24609,0 0.46243,0.0479 0.64861,0.14411 0.18334,0.0962 0.33634,0.24028 0.45645,0.43242 0.12,0.18624 0.21007,0.4144 0.27631,0.68464 0.0721,0.26411 0.10808,0.6216 0.10808,1.06904 0,0.53751 -0.0569,0.97292 -0.16822,1.30925 -0.10518,0.33032 -0.27021,0.58255 -0.49248,0.75673 -0.21616,0.17723 -0.49247,0.26411 -0.82878,0.26411 -0.44143,0 -0.78677,-0.15603 -1.03301,-0.46845 -0.30629,-0.38436 -0.45641,-1.00297 -0.45641,-1.86179 z m 0.57656,0 c 0,0.75373 0.0872,1.25522 0.2641,1.50142 0.17404,0.24929 0.39035,0.37237 0.64862,0.37237 0.25539,0 0.47144,-0.12319 0.64861,-0.37237 0.17404,-0.24609 0.26411,-0.74769 0.26411,-1.50142 0,-0.75071 -0.0901,-1.25219 -0.26411,-1.50143 -0.17723,-0.24609 -0.39337,-0.37236 -0.64861,-0.37236 -0.2583,0 -0.46546,0.11419 -0.62462,0.33631 -0.19205,0.27311 -0.28822,0.78677 -0.28822,1.53748 z m 0,0"
       style="fill:#000000;fill-opacity:1;fill-rule:nonzero;stroke:none;stroke-width:1.02498"
       aria-label="number&#10;1&#10;Pr&#10;1&#10;.&#10;V&#10;120&#10;Pr&#10;2&#10;.&#10;V&#10;80" />
  </g>
</svg>
