<?xml version="1.0" encoding="UTF-8" standalone="no"?>
<svg
   width="716pt"
   height="726pt"
   viewBox="0 0 716 726"
   version="1.1"
   id="svg52"
   sodipodi:docname="grafica.svg"
   inkscape:version="1.3.2 (091e20ef0f, 2023-11-25)"
   xmlns:inkscape="http://www.inkscape.org/namespaces/inkscape"
   xmlns:sodipodi="http://sodipodi.sourceforge.net/DTD/sodipodi-0.dtd"
   xmlns:xlink="http://www.w3.org/1999/xlink"
   xmlns="http://www.w3.org/2000/svg"
   xmlns:svg="http://www.w3.org/2000/svg">
  <sodipodi:namedview
     id="namedview52"
     pagecolor="#ffffff"
     bordercolor="#000000"
     borderopacity="0.25"
     inkscape:showpageshadow="2"
     inkscape:pageopacity="0.0"
     inkscape:pagecheckerboard="0"
     inkscape:deskcolor="#d1d1d1"
     inkscape:document-units="pt"
     inkscape:zoom="0.86983471"
     inkscape:cx="503.54394"
     inkscape:cy="474.80285"
     inkscape:window-width="1920"
     inkscape:window-height="1046"
     inkscape:window-x="1920"
     inkscape:window-y="18"
     inkscape:window-maximized="1"
     inkscape:current-layer="g52" />
  <title
     id="title1">Figure 1</title>
  <desc
     id="desc1">
Creator: GL2PS 1.4.2, (C) 1999-2020 C. Geuzaine
For: Octave
CreationDate: Tue May  7 03:41:58 2024
</desc>
  <defs
     id="defs1"><defs
   id="defs40">
  <path
     d="M6.744707-1.613948H6.495641C6.445828-1.354919 6.405978-1.125778 6.316314-.886675C6.266501-.727273 6.236613-.647572 5.65878-.647572H4.861768C4.991283-1.205479 5.300125-1.683686 5.748443-2.34122C6.216687-3.048568 6.625156-3.73599 6.625156-4.523039C6.625156-5.907846 5.280199-7.023661 3.596513-7.023661C1.882939-7.023661 .557908-5.88792 .557908-4.523039C.557908-3.73599 .966376-3.048568 1.43462-2.34122C1.872976-1.683686 2.191781-1.205479 2.321295-.647572H1.524284C.946451-.647572 .916563-.727273 .86675-.876712C.787049-1.105853 .737235-1.364882 .687422-1.613948H.438356L.767123 0H2.361146C2.580324 0 2.610212 0 2.610212-.209215C2.610212-.9066 2.30137-1.783313 2.072229-2.420922C1.863014-2.998755 1.58406-3.785803 1.58406-4.533001C1.58406-6.127024 2.67995-6.804483 3.58655-6.804483C4.542964-6.804483 5.599004-6.087173 5.599004-4.533001C5.599004-3.785803 5.330012-3.028643 5.041096-2.211706C4.891656-1.793275 4.572852-.896638 4.572852-.209215C4.572852 0 4.60274 0 4.83188 0H6.41594L6.744707-1.613948Z"
     id="0-g2-10" />
  <path
     d="M2.540473 2.49066V2.092154H1.574097V-7.073474H2.540473V-7.47198H1.175592V2.49066H2.540473Z"
     id="0-g2-91" />
  <path
     d="M1.58406-7.47198H.219178V-7.073474H1.185554V2.092154H.219178V2.49066H1.58406V-7.47198Z"
     id="0-g2-93" />
  <path
     d="M2.873225-4.191283C2.93599-4.442341 2.956912-4.51208 3.598506-4.51208C3.814695-4.51208 3.884433-4.51208 3.884433-4.665504C3.884433-4.672478 3.87746-4.763138 3.765878-4.763138C3.605479-4.763138 3.417186-4.749191 3.249813-4.742217C3.075467-4.735243 2.866252-4.735243 2.691905-4.735243C2.545455-4.735243 2.357161-4.742217 2.21071-4.742217S1.896887-4.763138 1.75741-4.763138C1.715567-4.763138 1.610959-4.763138 1.610959-4.609714C1.610959-4.51208 1.694645-4.51208 1.834122-4.51208C1.841096-4.51208 1.973599-4.51208 2.099128-4.498132C2.245579-4.484184 2.259527-4.470237 2.259527-4.400498C2.259527-4.38655 2.259527-4.351681 2.231631-4.247073L1.30411-.54396C1.241345-.306849 1.227397-.251059 .690411-.251059C.571856-.251059 .481196-.251059 .481196-.104608C.481196 0 .564882 0 .690411 0H4.198257C4.372603 0 4.379577-.006974 4.435367-.139477C4.505106-.327771 5.028144-1.680697 5.028144-1.736488C5.028144-1.75741 5.014197-1.834122 4.909589-1.834122C4.825903-1.834122 4.811955-1.799253 4.770112-1.687671C4.505106-1.025156 4.198257-.251059 2.922042-.251059H2.133998C1.917808-.251059 1.910834-.258032 1.910834-.320797C1.910834-.327771 1.910834-.36264 1.93873-.467248L2.873225-4.191283Z"
     id="0-g1-76" />
  <path
     d="M3.73599-6.117061C3.795766-6.356164 3.825654-6.455791 4.014944-6.485679C4.104608-6.495641 4.423412-6.495641 4.622665-6.495641C5.330012-6.495641 6.435866-6.495641 6.435866-5.50934C6.435866-5.17061 6.276463-4.483188 5.88792-4.094645C5.628892-3.835616 5.100872-3.516812 4.204234-3.516812H3.088418L3.73599-6.117061ZM5.17061-3.387298C6.176837-3.606476 7.362391-4.303861 7.362391-5.310087C7.362391-6.166874 6.465753-6.804483 5.160648-6.804483H2.321295C2.122042-6.804483 2.032379-6.804483 2.032379-6.60523C2.032379-6.495641 2.122042-6.495641 2.311333-6.495641C2.331258-6.495641 2.520548-6.495641 2.689913-6.475716C2.86924-6.455791 2.958904-6.445828 2.958904-6.316314C2.958904-6.276463 2.948941-6.246575 2.919054-6.127024L1.58406-.777086C1.484433-.388543 1.464508-.308842 .67746-.308842C.498132-.308842 .408468-.308842 .408468-.109589C.408468 0 .52802 0 .547945 0C.826899 0 1.524284-.029888 1.803238-.029888S2.789539 0 3.068493 0C3.148194 0 3.267746 0 3.267746-.199253C3.267746-.308842 3.178082-.308842 2.988792-.308842C2.620174-.308842 2.34122-.308842 2.34122-.488169C2.34122-.547945 2.361146-.597758 2.371108-.657534L3.028643-3.297634H4.214197C5.120797-3.297634 5.300125-2.739726 5.300125-2.391034C5.300125-2.241594 5.220423-1.932752 5.160648-1.703611C5.090909-1.424658 5.001245-1.05604 5.001245-.856787C5.001245 .219178 6.196762 .219178 6.326276 .219178C7.173101 .219178 7.521793-.787049 7.521793-.926526C7.521793-1.046077 7.412204-1.046077 7.402242-1.046077C7.312578-1.046077 7.292653-.976339 7.272727-.9066C7.023661-.169365 6.595268 0 6.366127 0C6.03736 0 5.967621-.219178 5.967621-.607721C5.967621-.916563 6.027397-1.424658 6.067248-1.743462C6.087173-1.882939 6.107098-2.072229 6.107098-2.211706C6.107098-2.978829 5.439601-3.287671 5.17061-3.387298Z"
     id="0-g0-82" />
</defs>
<defs
   id="defs44">
  <path
     d="M2.540473 2.49066V2.092154H1.574097V-7.073474H2.540473V-7.47198H1.175592V2.49066H2.540473Z"
     id="1-g2-91" />
  <path
     d="M1.58406-7.47198H.219178V-7.073474H1.185554V2.092154H.219178V2.49066H1.58406V-7.47198Z"
     id="1-g2-93" />
  <path
     d="M2.873225-4.191283C2.93599-4.442341 2.956912-4.51208 3.598506-4.51208C3.814695-4.51208 3.884433-4.51208 3.884433-4.665504C3.884433-4.672478 3.87746-4.763138 3.765878-4.763138C3.605479-4.763138 3.417186-4.749191 3.249813-4.742217C3.075467-4.735243 2.866252-4.735243 2.691905-4.735243C2.545455-4.735243 2.357161-4.742217 2.21071-4.742217S1.896887-4.763138 1.75741-4.763138C1.715567-4.763138 1.610959-4.763138 1.610959-4.609714C1.610959-4.51208 1.694645-4.51208 1.834122-4.51208C1.841096-4.51208 1.973599-4.51208 2.099128-4.498132C2.245579-4.484184 2.259527-4.470237 2.259527-4.400498C2.259527-4.38655 2.259527-4.351681 2.231631-4.247073L1.30411-.54396C1.241345-.306849 1.227397-.251059 .690411-.251059C.571856-.251059 .481196-.251059 .481196-.104608C.481196 0 .564882 0 .690411 0H4.198257C4.372603 0 4.379577-.006974 4.435367-.139477C4.505106-.327771 5.028144-1.680697 5.028144-1.736488C5.028144-1.75741 5.014197-1.834122 4.909589-1.834122C4.825903-1.834122 4.811955-1.799253 4.770112-1.687671C4.505106-1.025156 4.198257-.251059 2.922042-.251059H2.133998C1.917808-.251059 1.910834-.258032 1.910834-.320797C1.910834-.327771 1.910834-.36264 1.93873-.467248L2.873225-4.191283Z"
     id="1-g1-76" />
  <path
     d="M3.01868-3.148194H4.712329C6.127024-3.148194 7.511831-4.184309 7.511831-5.300125C7.511831-6.067248 6.854296-6.804483 5.549191-6.804483H2.321295C2.132005-6.804483 2.022416-6.804483 2.022416-6.615193C2.022416-6.495641 2.11208-6.495641 2.311333-6.495641C2.440847-6.495641 2.620174-6.485679 2.739726-6.475716C2.899128-6.455791 2.958904-6.425903 2.958904-6.316314C2.958904-6.276463 2.948941-6.246575 2.919054-6.127024L1.58406-.777086C1.484433-.388543 1.464508-.308842 .67746-.308842C.508095-.308842 .398506-.308842 .398506-.119552C.398506 0 .518057 0 .547945 0C.826899 0 1.534247-.029888 1.8132-.029888C2.022416-.029888 2.241594-.019925 2.450809-.019925C2.669988-.019925 2.889166 0 3.098381 0C3.16812 0 3.297634 0 3.297634-.199253C3.297634-.308842 3.20797-.308842 3.01868-.308842C2.650062-.308842 2.371108-.308842 2.371108-.488169C2.371108-.547945 2.391034-.597758 2.400996-.657534L3.01868-3.148194ZM3.73599-6.117061C3.825654-6.465753 3.845579-6.495641 4.273973-6.495641H5.230386C6.057285-6.495641 6.585305-6.22665 6.585305-5.539228C6.585305-5.150685 6.386052-4.293898 5.997509-3.935243C5.499377-3.486924 4.901619-3.407223 4.463263-3.407223H3.058531L3.73599-6.117061Z"
     id="1-g0-80" />
  <path
     d="M9.135741-5.648817C9.384807-6.087173 9.62391-6.445828 10.251557-6.495641C10.34122-6.505604 10.440847-6.505604 10.440847-6.694894C10.440847-6.734745 10.400996-6.804483 10.321295-6.804483C10.082192-6.804483 9.803238-6.774595 9.554172-6.774595C9.215442-6.774595 8.846824-6.804483 8.518057-6.804483C8.458281-6.804483 8.328767-6.804483 8.328767-6.615193C8.328767-6.505604 8.418431-6.495641 8.478207-6.495641C8.71731-6.485679 9.066002-6.405978 9.066002-6.107098C9.066002-5.997509 9.016189-5.917808 8.936488-5.778331L6.246575-1.085928L5.877958-6.027397C5.867995-6.22665 5.84807-6.485679 6.575342-6.495641C6.744707-6.495641 6.844334-6.495641 6.844334-6.694894C6.844334-6.794521 6.734745-6.804483 6.694894-6.804483C6.296389-6.804483 5.877958-6.774595 5.479452-6.774595C5.250311-6.774595 4.662516-6.804483 4.433375-6.804483C4.373599-6.804483 4.244085-6.804483 4.244085-6.60523C4.244085-6.495641 4.343711-6.495641 4.483188-6.495641C4.921544-6.495641 4.991283-6.435866 5.011208-6.246575L5.070984-5.479452L2.550436-1.085928L2.171856-6.136986C2.171856-6.256538 2.171856-6.485679 2.929016-6.495641C3.028643-6.495641 3.138232-6.495641 3.138232-6.694894C3.138232-6.804483 3.01868-6.804483 2.998755-6.804483C2.600249-6.804483 2.181818-6.774595 1.77335-6.774595C1.424658-6.774595 1.066002-6.804483 .727273-6.804483C.67746-6.804483 .547945-6.804483 .547945-6.615193C.547945-6.495641 .637609-6.495641 .797011-6.495641C1.295143-6.495641 1.305106-6.405978 1.325031-6.127024L1.77335-.039851C1.783313 .139477 1.793275 .219178 1.932752 .219178C2.052304 .219178 2.082192 .159402 2.171856 .009963L5.100872-5.070984L5.469489-.039851C5.489415 .169365 5.50934 .219178 5.628892 .219178C5.758406 .219178 5.818182 .119552 5.867995 .029888L9.135741-5.648817Z"
     id="1-g0-87" />
</defs>
<clipPath
   clipPathUnits="userSpaceOnUse"
   id="clipPath53">
  <g
     id="g54">
    <polygon
       points="0,0 0,726 716,726 716,0 "
       id="polygon53" />
  </g>
</clipPath>
<clipPath
   clipPathUnits="userSpaceOnUse"
   id="clipPath54">
  <g
     id="g55">
    <polygon
       points="0,0 0,726 716,726 716,0 "
       id="polygon54" />
  </g>
</clipPath>
<clipPath
   clipPathUnits="userSpaceOnUse"
   id="clipPath57">
  <g
     id="g58">
    <polygon
       points="0,0 0,726 716,726 716,0 "
       id="polygon57" />
  </g>
</clipPath>
<clipPath
   clipPathUnits="userSpaceOnUse"
   id="clipPath58">
  <g
     id="g59">
    <polygon
       points="0,0 0,726 716,726 716,0 "
       id="polygon58" />
  </g>
</clipPath>
<clipPath
   clipPathUnits="userSpaceOnUse"
   id="clipPath59">
  <g
     id="g60">
    <polygon
       points="0,0 0,726 716,726 716,0 "
       id="polygon59" />
  </g>
</clipPath>
<clipPath
   clipPathUnits="userSpaceOnUse"
   id="clipPath60">
  <g
     id="g61">
    <polygon
       points="0,0 0,726 716,726 716,0 "
       id="polygon60" />
  </g>
</clipPath>
<clipPath
   clipPathUnits="userSpaceOnUse"
   id="clipPath61">
  <g
     id="g62">
    <polygon
       points="0,0 0,726 716,726 716,0 "
       id="polygon61" />
  </g>
</clipPath>
<clipPath
   clipPathUnits="userSpaceOnUse"
   id="clipPath62">
  <g
     id="g63">
    <polygon
       points="0,0 0,726 716,726 716,0 "
       id="polygon62" />
  </g>
</clipPath>
<clipPath
   clipPathUnits="userSpaceOnUse"
   id="clipPath63">
  <g
     id="g64">
    <polygon
       points="0,0 0,726 716,726 716,0 "
       id="polygon63" />
  </g>
</clipPath>
<clipPath
   clipPathUnits="userSpaceOnUse"
   id="clipPath64">
  <g
     id="g65">
    <polygon
       points="0,0 0,726 716,726 716,0 "
       id="polygon64" />
  </g>
</clipPath>
<clipPath
   clipPathUnits="userSpaceOnUse"
   id="clipPath65">
  <g
     id="g66">
    <polygon
       points="0,0 0,726 716,726 716,0 "
       id="polygon65" />
  </g>
</clipPath>
<clipPath
   clipPathUnits="userSpaceOnUse"
   id="clipPath66">
  <g
     id="g67">
    <polygon
       points="0,0 0,726 716,726 716,0 "
       id="polygon66" />
  </g>
</clipPath>
<clipPath
   clipPathUnits="userSpaceOnUse"
   id="clipPath67">
  <g
     id="g68">
    <polygon
       points="0,0 0,726 716,726 716,0 "
       id="polygon67" />
  </g>
</clipPath>
<clipPath
   clipPathUnits="userSpaceOnUse"
   id="clipPath68">
  <g
     id="g69">
    <polygon
       points="0,0 0,726 716,726 716,0 "
       id="polygon68" />
  </g>
</clipPath>
<clipPath
   clipPathUnits="userSpaceOnUse"
   id="clipPath69">
  <g
     id="g70">
    <polygon
       points="0,0 0,726 716,726 716,0 "
       id="polygon69" />
  </g>
</clipPath>
<clipPath
   clipPathUnits="userSpaceOnUse"
   id="clipPath70">
  <g
     id="g71">
    <polygon
       points="0,0 0,726 716,726 716,0 "
       id="polygon70" />
  </g>
</clipPath>
<clipPath
   clipPathUnits="userSpaceOnUse"
   id="clipPath71">
  <g
     id="g72">
    <polygon
       points="0,0 0,726 716,726 716,0 "
       id="polygon71" />
  </g>
</clipPath>
<clipPath
   clipPathUnits="userSpaceOnUse"
   id="clipPath72">
  <g
     id="g73">
    <polygon
       points="0,0 0,726 716,726 716,0 "
       id="polygon72" />
  </g>
</clipPath>
<clipPath
   clipPathUnits="userSpaceOnUse"
   id="clipPath73">
  <g
     id="g74">
    <polygon
       points="0,0 0,726 716,726 716,0 "
       id="polygon73" />
  </g>
</clipPath>
<clipPath
   clipPathUnits="userSpaceOnUse"
   id="clipPath74">
  <g
     id="g75">
    <polygon
       points="0,0 0,726 716,726 716,0 "
       id="polygon74" />
  </g>
</clipPath>
<clipPath
   clipPathUnits="userSpaceOnUse"
   id="clipPath75">
  <g
     id="g76">
    <polygon
       points="0,0 0,726 716,726 716,0 "
       id="polygon75" />
  </g>
</clipPath>
<clipPath
   clipPathUnits="userSpaceOnUse"
   id="clipPath76">
  <g
     id="g77">
    <polygon
       points="0,0 0,726 716,726 716,0 "
       id="polygon76" />
  </g>
</clipPath>
<clipPath
   clipPathUnits="userSpaceOnUse"
   id="clipPath77">
  <g
     id="g78">
    <polygon
       points="0,0 0,726 716,726 716,0 "
       id="polygon77" />
  </g>
</clipPath>
<clipPath
   clipPathUnits="userSpaceOnUse"
   id="clipPath78">
  <g
     id="g79">
    <polygon
       points="0,0 0,726 716,726 716,0 "
       id="polygon78" />
  </g>
</clipPath>
<clipPath
   clipPathUnits="userSpaceOnUse"
   id="clipPath79">
  <g
     id="g80">
    <polygon
       points="0,0 0,726 716,726 716,0 "
       id="polygon79" />
  </g>
</clipPath>
<clipPath
   clipPathUnits="userSpaceOnUse"
   id="clipPath80">
  <g
     id="g81">
    <polygon
       points="0,0 0,726 716,726 716,0 "
       id="polygon80" />
  </g>
</clipPath>
<clipPath
   clipPathUnits="userSpaceOnUse"
   id="clipPath81">
  <g
     id="g82">
    <polygon
       points="0,0 0,726 716,726 716,0 "
       id="polygon81" />
  </g>
</clipPath>
<clipPath
   clipPathUnits="userSpaceOnUse"
   id="clipPath82">
  <g
     id="g83">
    <polygon
       points="0,0 0,726 716,726 716,0 "
       id="polygon82" />
  </g>
</clipPath>
<clipPath
   clipPathUnits="userSpaceOnUse"
   id="clipPath83">
  <g
     id="g84">
    <polygon
       points="0,0 0,726 716,726 716,0 "
       id="polygon83" />
  </g>
</clipPath>
<clipPath
   clipPathUnits="userSpaceOnUse"
   id="clipPath84">
  <g
     id="g85">
    <polygon
       points="0,0 0,726 716,726 716,0 "
       id="polygon84" />
  </g>
</clipPath>
<clipPath
   clipPathUnits="userSpaceOnUse"
   id="clipPath85">
  <g
     id="g86">
    <polygon
       points="0,0 0,726 716,726 716,0 "
       id="polygon85" />
  </g>
</clipPath>

    
   
    
   
    
   <clipPath
   clipPathUnits="userSpaceOnUse"
   id="clipPath87">
  <g
     id="g89"
     transform="matrix(0,0.90909089,-0.90909089,0,261.41962,-126.67451)">
    <g
       id="g88">
      <polygon
         points="716,0 0,0 0,726 716,726 "
         id="polygon87" />
    </g>
  </g>
</clipPath>
<clipPath
   clipPathUnits="userSpaceOnUse"
   id="clipPath89">
  <g
     id="g91"
     transform="matrix(0,0.90909089,-0.90909089,0,261.41962,-126.67451)">
    <g
       id="g90">
      <polygon
         points="716,0 0,0 0,726 716,726 "
         id="polygon89" />
    </g>
  </g>
</clipPath>
<clipPath
   clipPathUnits="userSpaceOnUse"
   id="clipPath91">
  <g
     id="g93"
     transform="matrix(0,0.90909089,-0.90909089,0,261.41962,-126.67451)">
    <g
       id="g92">
      <polygon
         points="716,0 0,0 0,726 716,726 "
         id="polygon91" />
    </g>
  </g>
</clipPath>
<clipPath
   clipPathUnits="userSpaceOnUse"
   id="clipPath93">
  <g
     id="g95"
     transform="matrix(0,0.90909089,-0.90909089,0,261.41962,-126.67451)">
    <g
       id="g94">
      <polygon
         points="716,0 0,0 0,726 716,726 "
         id="polygon93" />
    </g>
  </g>
</clipPath>
<clipPath
   clipPathUnits="userSpaceOnUse"
   id="clipPath95">
  <g
     id="g97"
     transform="matrix(0,0.90909089,-0.90909089,0,261.41962,-126.67451)">
    <g
       id="g96">
      <polygon
         points="716,0 0,0 0,726 716,726 "
         id="polygon95" />
    </g>
  </g>
</clipPath>

    
   
    
   
    
   
    
   
    
   
    
   
    
   
    
   
    
   <clipPath
   clipPathUnits="userSpaceOnUse"
   id="clipPath98">
  <g
     id="g100"
     transform="matrix(0.90909089,0,0,0.90909089,-395.44257,-678.82427)">
    <g
       id="g99">
      <polygon
         points="716,0 0,0 0,726 716,726 "
         id="polygon98" />
    </g>
  </g>
</clipPath>
<clipPath
   clipPathUnits="userSpaceOnUse"
   id="clipPath100">
  <g
     id="g102"
     transform="matrix(0.90909089,0,0,0.90909089,-395.44257,-678.82427)">
    <g
       id="g101">
      <polygon
         points="716,0 0,0 0,726 716,726 "
         id="polygon100" />
    </g>
  </g>
</clipPath>
<clipPath
   clipPathUnits="userSpaceOnUse"
   id="clipPath102">
  <g
     id="g104"
     transform="matrix(0.90909089,0,0,0.90909089,-395.44257,-678.82427)">
    <g
       id="g103">
      <polygon
         points="716,0 0,0 0,726 716,726 "
         id="polygon102" />
    </g>
  </g>
</clipPath>
<clipPath
   clipPathUnits="userSpaceOnUse"
   id="clipPath104">
  <g
     id="g106"
     transform="matrix(0.90909089,0,0,0.90909089,-395.44257,-678.82427)">
    <g
       id="g105">
      <polygon
         points="716,0 0,0 0,726 716,726 "
         id="polygon104" />
    </g>
  </g>
</clipPath>
<clipPath
   clipPathUnits="userSpaceOnUse"
   id="clipPath106">
  <g
     id="g108"
     transform="matrix(0.90909089,0,0,0.90909089,-395.44257,-678.82427)">
    <g
       id="g107">
      <polygon
         points="716,0 0,0 0,726 716,726 "
         id="polygon106" />
    </g>
  </g>
</clipPath>

    
   
    
   </defs>
  <polygon
     fill="#ffffff"
     points="0,0 716,0 716,726 0,726"
     id="polygon1" />
  <g
     id="g52">
    <polygon
       fill="#ffffff"
       points="0,726 716,726 716,0 0,0"
       shape-rendering="crispEdges"
       id="polygon2" />
    <polyline
       stroke-linecap="butt"
       stroke-dasharray="16, 0"
       stroke-linejoin="miter"
       stroke-width="0.5"
       fill="none"
       stroke="#262626"
       points="93.1445,647.001 93.1445,54.5225"
       stroke-opacity="0.15"
       id="polyline4"
       clip-path="url(#clipPath84)" />
    <polyline
       stroke-linecap="butt"
       stroke-dasharray="16, 0"
       stroke-linejoin="miter"
       stroke-width="0.5"
       fill="none"
       stroke="#262626"
       points="204.201,647.001 204.201,54.5225"
       stroke-opacity="0.15"
       id="polyline5"
       clip-path="url(#clipPath83)"
       style="stroke:#262626;stroke-opacity:0.49688458" />
    <polyline
       stroke-linecap="butt"
       stroke-dasharray="16, 0"
       stroke-linejoin="miter"
       stroke-width="0.5"
       fill="none"
       stroke="#262626"
       points="315.258,647.001 315.258,54.5225"
       stroke-opacity="0.15"
       id="polyline6"
       clip-path="url(#clipPath82)"
       style="stroke:#262626;stroke-opacity:0.49688458" />
    <polyline
       stroke-linecap="butt"
       stroke-dasharray="16, 0"
       stroke-linejoin="miter"
       stroke-width="0.5"
       fill="none"
       stroke="#262626"
       points="426.315,647.001 426.315,54.5225"
       stroke-opacity="0.15"
       id="polyline7"
       clip-path="url(#clipPath81)"
       style="stroke:#262626;stroke-opacity:0.49688458" />
    <polyline
       stroke-linecap="butt"
       stroke-dasharray="16, 0"
       stroke-linejoin="miter"
       stroke-width="0.5"
       fill="none"
       stroke="#262626"
       points="537.372,647.001 537.372,54.5225"
       stroke-opacity="0.15"
       id="polyline8"
       clip-path="url(#clipPath80)"
       style="stroke:#262626;stroke-opacity:0.49688458" />
    <polyline
       stroke-linecap="butt"
       stroke-dasharray="16, 0"
       stroke-linejoin="miter"
       stroke-width="0.5"
       fill="none"
       stroke="#262626"
       points="648.429,647.001 648.429,54.5225"
       stroke-opacity="0.15"
       id="polyline9"
       clip-path="url(#clipPath79)"
       style="stroke:#262626;stroke-opacity:0.49688458" />
    <polyline
       stroke-linecap="butt"
       stroke-linejoin="miter"
       stroke-width="0.5"
       fill="none"
       stroke="#262626"
       points="93.1445,647.001 93.1445,641.071"
       id="polyline10"
       clip-path="url(#clipPath78)" />
    <polyline
       stroke-linecap="butt"
       stroke-linejoin="miter"
       stroke-width="0.5"
       fill="none"
       stroke="#262626"
       points="204.201,647.001 204.201,641.071"
       id="polyline11"
       clip-path="url(#clipPath77)" />
    <polyline
       stroke-linecap="butt"
       stroke-linejoin="miter"
       stroke-width="0.5"
       fill="none"
       stroke="#262626"
       points="315.258,647.001 315.258,641.071"
       id="polyline12"
       clip-path="url(#clipPath76)" />
    <polyline
       stroke-linecap="butt"
       stroke-linejoin="miter"
       stroke-width="0.5"
       fill="none"
       stroke="#262626"
       points="426.315,647.001 426.315,641.071"
       id="polyline13"
       clip-path="url(#clipPath75)" />
    <polyline
       stroke-linecap="butt"
       stroke-linejoin="miter"
       stroke-width="0.5"
       fill="none"
       stroke="#262626"
       points="537.372,647.001 537.372,641.071"
       id="polyline14"
       clip-path="url(#clipPath74)" />
    <polyline
       stroke-linecap="butt"
       stroke-linejoin="miter"
       stroke-width="0.5"
       fill="none"
       stroke="#262626"
       points="648.429,647.001 648.429,641.071"
       id="polyline15"
       clip-path="url(#clipPath73)" />
    <text
       x="90.144501"
       fill="#262626"
       y="662.50702"
       id="text15"
       style="font-style:normal;font-weight:normal;font-size:10px;font-family:FreeSans">0</text>
    <text
       x="195.201 201.201 207.201"
       fill="#262626"
       y="662.50702 662.50702 662.50702"
       id="text16"
       style="font-style:normal;font-weight:normal;font-size:10px;font-family:FreeSans">200</text>
    <text
       x="306.258 312.258 318.258"
       fill="#262626"
       y="662.50702 662.50702 662.50702"
       id="text17"
       style="font-style:normal;font-weight:normal;font-size:10px;font-family:FreeSans">400</text>
    <text
       x="417.315 423.315 429.315"
       fill="#262626"
       y="662.50702 662.50702 662.50702"
       id="text18"
       style="font-style:normal;font-weight:normal;font-size:10px;font-family:FreeSans">600</text>
    <text
       x="528.37201 534.37201 540.37201"
       fill="#262626"
       y="662.50702 662.50702 662.50702"
       id="text19"
       style="font-style:normal;font-weight:normal;font-size:10px;font-family:FreeSans">800</text>
    <text
       x="636.42902 642.42902 648.42902 654.42902"
       fill="#262626"
       y="662.50702 662.50702 662.50702 662.50702"
       id="text20"
       style="font-style:normal;font-weight:normal;font-size:10px;font-family:FreeSans">1000</text>
    <polyline
       stroke-linecap="butt"
       stroke-dasharray="16, 0"
       stroke-linejoin="miter"
       stroke-width="0.5"
       fill="none"
       stroke="#262626"
       points="93.1445,647.001 648.429,647.001"
       stroke-opacity="0.15"
       id="polyline20"
       clip-path="url(#clipPath72)" />
    <polyline
       stroke-linecap="butt"
       stroke-dasharray="16, 0"
       stroke-linejoin="miter"
       stroke-width="0.5"
       fill="none"
       stroke="#262626"
       points="93.1445,548.254 648.429,548.254"
       stroke-opacity="0.15"
       id="polyline21"
       clip-path="url(#clipPath71)"
       style="stroke:#262626;stroke-opacity:0.50037342" />
    <polyline
       stroke-linecap="butt"
       stroke-dasharray="16, 0"
       stroke-linejoin="miter"
       stroke-width="0.5"
       fill="none"
       stroke="#262626"
       points="93.1445,449.508 648.429,449.508"
       stroke-opacity="0.15"
       id="polyline22"
       clip-path="url(#clipPath70)"
       style="stroke:#262626;stroke-opacity:0.50037342" />
    <polyline
       stroke-linecap="butt"
       stroke-dasharray="16, 0"
       stroke-linejoin="miter"
       stroke-width="0.5"
       fill="none"
       stroke="#262626"
       points="93.1445,350.762 648.429,350.762"
       stroke-opacity="0.15"
       id="polyline23"
       clip-path="url(#clipPath69)"
       style="stroke:#262626;stroke-opacity:0.50037342" />
    <polyline
       stroke-linecap="butt"
       stroke-dasharray="16, 0"
       stroke-linejoin="miter"
       stroke-width="0.5"
       fill="none"
       stroke="#262626"
       points="93.1445,252.015 648.429,252.015"
       stroke-opacity="0.15"
       id="polyline24"
       clip-path="url(#clipPath68)"
       style="stroke:#262626;stroke-opacity:0.50037342" />
    <polyline
       stroke-linecap="butt"
       stroke-dasharray="16, 0"
       stroke-linejoin="miter"
       stroke-width="0.5"
       fill="none"
       stroke="#262626"
       points="93.1445,153.269 648.429,153.269"
       stroke-opacity="0.15"
       id="polyline25"
       clip-path="url(#clipPath67)"
       style="stroke:#262626;stroke-opacity:0.50037342" />
    <polyline
       stroke-linecap="butt"
       stroke-dasharray="16, 0"
       stroke-linejoin="miter"
       stroke-width="0.5"
       fill="none"
       stroke="#262626"
       points="93.1445,54.5225 648.429,54.5225"
       stroke-opacity="0.15"
       id="polyline26"
       clip-path="url(#clipPath66)"
       style="stroke:#262626;stroke-opacity:0.50224978" />
    <polyline
       stroke-linecap="butt"
       stroke-linejoin="miter"
       stroke-width="0.5"
       fill="none"
       stroke="#262626"
       points="93.1445,647.001 99.0723,647.001"
       id="polyline27"
       clip-path="url(#clipPath65)" />
    <polyline
       stroke-linecap="butt"
       stroke-linejoin="miter"
       stroke-width="0.5"
       fill="none"
       stroke="#262626"
       points="93.1445,548.254 99.0723,548.254"
       id="polyline28"
       clip-path="url(#clipPath64)" />
    <polyline
       stroke-linecap="butt"
       stroke-linejoin="miter"
       stroke-width="0.5"
       fill="none"
       stroke="#262626"
       points="93.1445,449.508 99.0723,449.508"
       id="polyline29"
       clip-path="url(#clipPath63)" />
    <polyline
       stroke-linecap="butt"
       stroke-linejoin="miter"
       stroke-width="0.5"
       fill="none"
       stroke="#262626"
       points="93.1445,350.762 99.0723,350.762"
       id="polyline30"
       clip-path="url(#clipPath62)" />
    <polyline
       stroke-linecap="butt"
       stroke-linejoin="miter"
       stroke-width="0.5"
       fill="none"
       stroke="#262626"
       points="93.1445,252.015 99.0723,252.015"
       id="polyline31"
       clip-path="url(#clipPath61)" />
    <polyline
       stroke-linecap="butt"
       stroke-linejoin="miter"
       stroke-width="0.5"
       fill="none"
       stroke="#262626"
       points="93.1445,153.269 99.0723,153.269"
       id="polyline32"
       clip-path="url(#clipPath60)" />
    <polyline
       stroke-linecap="butt"
       stroke-linejoin="miter"
       stroke-width="0.5"
       fill="none"
       stroke="#262626"
       points="93.1445,54.5225 99.0723,54.5225"
       id="polyline33"
       clip-path="url(#clipPath59)" />
    <text
       x="82.141998"
       fill="#262626"
       y="651.00098"
       id="text33"
       style="font-style:normal;font-weight:normal;font-size:10px;font-family:FreeSans">0</text>
    <text
       x="82.141998"
       fill="#262626"
       y="552.25403"
       id="text34"
       style="font-style:normal;font-weight:normal;font-size:10px;font-family:FreeSans">2</text>
    <text
       x="82.141998"
       fill="#262626"
       y="453.508"
       id="text35"
       style="font-style:normal;font-weight:normal;font-size:10px;font-family:FreeSans">4</text>
    <text
       x="82.141998"
       fill="#262626"
       y="354.76199"
       id="text36"
       style="font-style:normal;font-weight:normal;font-size:10px;font-family:FreeSans">6</text>
    <text
       x="82.141998"
       fill="#262626"
       y="256.01501"
       id="text37"
       style="font-style:normal;font-weight:normal;font-size:10px;font-family:FreeSans">8</text>
    <text
       x="76.141998 82.141998"
       fill="#262626"
       y="157.269 157.269"
       id="text38"
       style="font-style:normal;font-weight:normal;font-size:10px;font-family:FreeSans">10</text>
    <text
       x="76.141998 82.141998"
       fill="#262626"
       y="58.522499 58.522499"
       id="text39"
       style="font-style:normal;font-weight:normal;font-size:10px;font-family:FreeSans">12</text>
    <polyline
       stroke-linecap="square"
       stroke-dasharray="16, 0"
       stroke-linejoin="miter"
       stroke-width="0.5"
       fill="none"
       stroke="#262626"
       points="93.1445,647.001 648.429,647.001"
       id="polyline39"
       clip-path="url(#clipPath58)" />
    <polyline
       stroke-linecap="square"
       stroke-dasharray="16, 0"
       stroke-linejoin="miter"
       stroke-width="0.5"
       fill="none"
       stroke="#262626"
       points="93.1445,647.001 93.1445,54.5225"
       id="polyline40"
       clip-path="url(#clipPath57)" />
    <use
       xlink:href="#0-g0-82"
       x="-72.000008"
       y="-64.528023"
       id="use40"
       transform="matrix(1.1,0,0,1.1,434.98683,746.7067)"
       style="fill:#262626"
       clip-path="url(#clipPath106)" />
    <use
       xlink:href="#0-g1-76"
       x="-64.435471"
       y="-63.033642"
       id="use41"
       transform="matrix(1.1,0,0,1.1,434.98683,746.7067)"
       style="fill:#262626"
       clip-path="url(#clipPath104)" />
    <use
       xlink:href="#0-g2-91"
       x="-56.811295"
       y="-64.528023"
       id="use42"
       transform="matrix(1.1,0,0,1.1,434.98683,746.7067)"
       style="fill:#262626"
       clip-path="url(#clipPath102)" />
    <use
       xlink:href="#0-g2-10"
       x="-54.043884"
       y="-64.528023"
       id="use43"
       transform="matrix(1.1,0,0,1.1,434.98683,746.7067)"
       style="fill:#262626"
       clip-path="url(#clipPath100)" />
    <use
       xlink:href="#0-g2-93"
       x="-46.848625"
       y="-64.528023"
       id="use44"
       transform="matrix(1.1,0,0,1.1,434.98683,746.7067)"
       style="fill:#262626"
       clip-path="url(#clipPath98)" />
    <use
       xlink:href="#1-g0-80"
       x="-72.000008"
       y="-64.528023"
       id="use45"
       transform="matrix(0,-1.1,1.1,0,139.34196,287.56158)"
       style="fill:#262626"
       clip-path="url(#clipPath95)" />
    <use
       xlink:href="#1-g1-76"
       x="-65.603851"
       y="-63.033642"
       id="use46"
       transform="matrix(0,-1.1,1.1,0,139.34196,287.56158)"
       style="fill:#262626"
       clip-path="url(#clipPath93)" />
    <use
       xlink:href="#1-g2-91"
       x="-57.979675"
       y="-64.528023"
       id="use47"
       transform="matrix(0,-1.1,1.1,0,139.34196,287.56158)"
       style="fill:#262626"
       clip-path="url(#clipPath91)" />
    <use
       xlink:href="#1-g0-87"
       x="-55.212265"
       y="-64.528023"
       id="use48"
       transform="matrix(0,-1.1,1.1,0,139.34196,287.56158)"
       style="fill:#262626"
       clip-path="url(#clipPath89)" />
    <use
       xlink:href="#1-g2-93"
       x="-44.41938"
       y="-64.528023"
       id="use49"
       transform="matrix(0,-1.1,1.1,0,139.34196,287.56158)"
       style="fill:#262626"
       clip-path="url(#clipPath87)" />
    <text
       x="293.78699 301.78699 305.78699 311.78699 315.78699 318.78699 324.78699 330.78699 333.78699 336.78699 343.78699 350.78699 354.78699 360.78699 367.78699 373.78699 376.78699 382.78699 386.78699 394.78699 400.78699 406.78699 409.78699 415.78699 419.78699 425.78699 432.78699 438.78699 441.78699"
       fill="#000000"
       y="43.522499 44.522499 44.522499 44.522499 44.522499 44.522499 44.522499 44.522499 44.522499 44.522499 44.522499 44.522499 44.522499 44.522499 44.522499 44.522499 44.522499 44.522499 44.522499 44.522499 44.522499 44.522499 44.522499 44.522499 44.522499 44.522499 44.522499 44.522499 44.522499"
       id="text49"
       style="font-style:normal;font-weight:bold;font-size:11px;font-family:FreeSans">Gráfica: Potencia-Resistencia</text>
    <polyline
       stroke-linecap="butt"
       stroke-linejoin="round"
       stroke-width="0.5"
       fill="none"
       stroke="#0071bc"
       points="93.1445,647.001 93.6998,639.164 94.2551,631.451 94.8104,623.86 95.3657,616.389 95.921,609.036 96.4762,601.798 97.0315,594.674 97.5868,587.661 98.1421,580.759 98.6974,573.963 99.2527,567.274 99.8079,560.689 100.363,554.206 100.919,547.824 101.474,541.54 102.029,535.353 102.584,529.262 103.14,523.265 103.695,517.36 104.25,511.546 104.806,505.821 105.361,500.184 105.916,494.633 106.471,489.166 107.027,483.784 107.582,478.483 108.137,473.262 108.692,468.122 109.248,463.059 109.803,458.073 110.358,453.162 110.914,448.326 111.469,443.563 112.024,438.871 112.579,434.251 113.135,429.7 113.69,425.217 114.245,420.802 114.801,416.453 115.356,412.17 115.911,407.951 116.466,403.794 117.022,399.701 117.577,395.668 118.132,391.695 118.688,387.782 119.243,383.928 119.798,380.131 120.353,376.39 120.909,372.705 121.464,369.075 122.019,365.499 122.575,361.976 123.13,358.506 123.685,355.087 124.24,351.719 124.796,348.401 125.351,345.132 125.906,341.912 126.462,338.739 127.017,335.614 127.572,332.535 128.127,329.501 128.683,326.513 129.238,323.568 129.793,320.668 130.349,317.81 130.904,314.995 131.459,312.221 132.014,309.489 132.57,306.797 133.125,304.145 133.68,301.532 134.236,298.958 134.791,296.422 135.346,293.924 135.901,291.462 136.457,289.038 137.012,286.649 137.567,284.296 138.123,281.978 138.678,279.694 139.233,277.444 139.788,275.228 140.344,273.045 140.899,270.894 141.454,268.775 142.01,266.688 142.565,264.633 143.12,262.607 143.675,260.613 144.231,258.648 144.786,256.712 145.341,254.806 145.897,252.928 146.452,251.078 147.007,249.256 147.562,247.462 148.118,245.695 148.673,243.954 149.228,242.24 149.784,240.552 150.339,238.889 150.894,237.252 151.449,235.639 152.005,234.051 152.56,232.487 153.115,230.948 153.671,229.431 154.226,227.938 154.781,226.468 155.336,225.021 155.892,223.595 156.447,222.192 157.002,220.811 157.558,219.451 158.113,218.112 158.668,216.794 159.223,215.496 159.779,214.219 160.334,212.962 160.889,211.724 161.445,210.506 162,209.308 162.555,208.128 163.11,206.967 163.666,205.824 164.221,204.7 164.776,203.594 165.332,202.505 165.887,201.434 166.442,200.381 166.997,199.344 167.553,198.324 168.108,197.321 168.663,196.334 169.219,195.363 169.774,194.409 170.329,193.47 170.884,192.547 171.44,191.639 171.995,190.746 172.55,189.868 173.105,189.005 173.661,188.157 174.216,187.323 174.771,186.503 175.327,185.697 175.882,184.905 176.437,184.127 176.992,183.362 177.548,182.611 178.103,181.873 178.658,181.147 179.214,180.435 179.769,179.735 180.324,179.048 180.879,178.373 181.435,177.71 181.99,177.06 182.545,176.421 183.101,175.794 183.656,175.178 184.211,174.574 184.766,173.981 185.322,173.4 185.877,172.829 186.432,172.269 186.988,171.72 187.543,171.182 188.098,170.654 188.653,170.137 189.209,169.629 189.764,169.132 190.319,168.645 190.875,168.167 191.43,167.699 191.985,167.241 192.54,166.793 193.096,166.353 193.651,165.923 194.206,165.502 194.762,165.09 195.317,164.687 195.872,164.293 196.427,163.907 196.983,163.53 197.538,163.162 198.093,162.802 198.649,162.45 199.204,162.106 199.759,161.771 200.314,161.443 200.87,161.123 201.425,160.811 201.98,160.507 202.536,160.21 203.091,159.921 203.646,159.639 204.201,159.364 204.757,159.097 205.312,158.837 205.867,158.584 206.423,158.338 206.978,158.098 207.533,157.866 208.088,157.64 208.644,157.421 209.199,157.208 209.754,157.002 210.31,156.802 210.865,156.609 211.42,156.422 211.975,156.241 212.531,156.066 213.086,155.897 213.641,155.734 214.197,155.577 214.752,155.426 215.307,155.281 215.862,155.141 216.418,155.006 216.973,154.878 217.528,154.754 218.084,154.637 218.639,154.524 219.194,154.417 219.749,154.315 220.305,154.218 220.86,154.126 221.415,154.039 221.971,153.957 222.526,153.881 223.081,153.808 223.636,153.741 224.192,153.679 224.747,153.621 225.302,153.567 225.858,153.519 226.413,153.474 226.968,153.435 227.523,153.399 228.079,153.368 228.634,153.342 229.189,153.319 229.745,153.301 230.3,153.287 230.855,153.277 231.41,153.271 231.966,153.269 232.521,153.271 233.076,153.277 233.632,153.286 234.187,153.3 234.742,153.317 235.297,153.338 235.853,153.363 236.408,153.391 236.963,153.423 237.519,153.459 238.074,153.498 238.629,153.54 239.184,153.586 239.74,153.635 240.295,153.688 240.85,153.744 241.406,153.803 241.961,153.865 242.516,153.931 243.071,153.999 243.627,154.071 244.182,154.146 244.737,154.224 245.293,154.305 245.848,154.388 246.403,154.475 246.958,154.565 247.514,154.657 248.069,154.753 248.624,154.851 249.179,154.952 249.735,155.055 250.29,155.161 250.845,155.27 251.401,155.382 251.956,155.496 252.511,155.613 253.066,155.732 253.622,155.854 254.177,155.978 254.732,156.105 255.288,156.234 255.843,156.365 256.398,156.499 256.953,156.635 257.509,156.773 258.064,156.914 258.619,157.057 259.175,157.202 259.73,157.349 260.285,157.499 260.84,157.65 261.396,157.804 261.951,157.96 262.506,158.118 263.062,158.277 263.617,158.439 264.172,158.603 264.727,158.769 265.283,158.937 265.838,159.106 266.393,159.278 266.949,159.451 267.504,159.626 268.059,159.804 268.614,159.982 269.17,160.163 269.725,160.345 270.28,160.529 270.836,160.715 271.391,160.903 271.946,161.092 272.501,161.282 273.057,161.475 273.612,161.669 274.167,161.864 274.723,162.062 275.278,162.26 275.833,162.46 276.388,162.662 276.944,162.865 277.499,163.07 278.054,163.276 278.61,163.484 279.165,163.693 279.72,163.903 280.275,164.114 280.831,164.328 281.386,164.542 281.941,164.758 282.497,164.975 283.052,165.193 283.607,165.412 284.162,165.633 284.718,165.855 285.273,166.079 285.828,166.303 286.384,166.529 286.939,166.756 287.494,166.984 288.049,167.213 288.605,167.443 289.16,167.674 289.715,167.907 290.271,168.141 290.826,168.375 291.381,168.611 291.936,168.848 292.492,169.085 293.047,169.324 293.602,169.564 294.158,169.805 294.713,170.046 295.268,170.289 295.823,170.533 296.379,170.777 296.934,171.023 297.489,171.269 298.045,171.516 298.6,171.765 299.155,172.014 299.71,172.263 300.266,172.514 300.821,172.766 301.376,173.018 301.932,173.271 302.487,173.525 303.042,173.78 303.597,174.036 304.153,174.292 304.708,174.549 305.263,174.807 305.819,175.065 306.374,175.325 306.929,175.585 307.484,175.845 308.04,176.107 308.595,176.369 309.15,176.631 309.706,176.895 310.261,177.159 310.816,177.423 311.371,177.689 311.927,177.955 312.482,178.221 313.037,178.488 313.592,178.756 314.148,179.024 314.703,179.293 315.258,179.562 315.814,179.832 316.369,180.103 316.924,180.374 317.479,180.645 318.035,180.917 318.59,181.19 319.145,181.463 319.701,181.737 320.256,182.011 320.811,182.285 321.366,182.56 321.922,182.836 322.477,183.112 323.032,183.388 323.588,183.665 324.143,183.942 324.698,184.22 325.253,184.498 325.809,184.776 326.364,185.055 326.919,185.334 327.475,185.614 328.03,185.894 328.585,186.174 329.14,186.455 329.696,186.736 330.251,187.018 330.806,187.3 331.362,187.582 331.917,187.864 332.472,188.147 333.027,188.43 333.583,188.714 334.138,188.997 334.693,189.281 335.249,189.566 335.804,189.85 336.359,190.135 336.914,190.42 337.47,190.706 338.025,190.992 338.58,191.277 339.136,191.564 339.691,191.85 340.246,192.137 340.801,192.424 341.357,192.711 341.912,192.998 342.467,193.286 343.023,193.573 343.578,193.862 344.133,194.15 344.688,194.438 345.244,194.727 345.799,195.015 346.354,195.304 346.91,195.593 347.465,195.883 348.02,196.172 348.575,196.462 349.131,196.752 349.686,197.042 350.241,197.332 350.797,197.622 351.352,197.912 351.907,198.203 352.462,198.493 353.018,198.784 353.573,199.075 354.128,199.366 354.684,199.657 355.239,199.948 355.794,200.239 356.349,200.531 356.905,200.822 357.46,201.114 358.015,201.405 358.571,201.697 359.126,201.989 359.681,202.281 360.236,202.573 360.792,202.865 361.347,203.157 361.902,203.449 362.458,203.741 363.013,204.033 363.568,204.326 364.123,204.618 364.679,204.91 365.234,205.203 365.789,205.495 366.345,205.788 366.9,206.08 367.455,206.373 368.01,206.665 368.566,206.958 369.121,207.25 369.676,207.543 370.232,207.835 370.787,208.128 371.342,208.421 371.897,208.713 372.453,209.006 373.008,209.298 373.563,209.591 374.119,209.883 374.674,210.176 375.229,210.468 375.784,210.761 376.34,211.053 376.895,211.346 377.45,211.638 378.006,211.93 378.561,212.223 379.116,212.515 379.671,212.807 380.227,213.099 380.782,213.392 381.337,213.684 381.893,213.976 382.448,214.268 383.003,214.56 383.558,214.851 384.114,215.143 384.669,215.435 385.224,215.727 385.78,216.018 386.335,216.31 386.89,216.601 387.445,216.892 388.001,217.184 388.556,217.475 389.111,217.766 389.667,218.057 390.222,218.348 390.777,218.639 391.332,218.93 391.888,219.22 392.443,219.511 392.998,219.801 393.553,220.092 394.109,220.382 394.664,220.672 395.219,220.962 395.775,221.252 396.33,221.542 396.885,221.832 397.44,222.121 397.996,222.411 398.551,222.7 399.106,222.989 399.662,223.278 400.217,223.567 400.772,223.856 401.327,224.145 401.883,224.433 402.438,224.722 402.993,225.01 403.549,225.298 404.104,225.587 404.659,225.875 405.214,226.162 405.77,226.45 406.325,226.737 406.88,227.025 407.436,227.312 407.991,227.599 408.546,227.886 409.101,228.173 409.657,228.459 410.212,228.746 410.767,229.032 411.323,229.318 411.878,229.604 412.433,229.89 412.988,230.176 413.544,230.461 414.099,230.747 414.654,231.032 415.21,231.317 415.765,231.602 416.32,231.887 416.875,232.171 417.431,232.456 417.986,232.74 418.541,233.024 419.097,233.308 419.652,233.591 420.207,233.875 420.762,234.158 421.318,234.441 421.873,234.724 422.428,235.007 422.984,235.289 423.539,235.572 424.094,235.854 424.649,236.136 425.205,236.418 425.76,236.7 426.315,236.981 426.871,237.262 427.426,237.544 427.981,237.824 428.536,238.105 429.092,238.386 429.647,238.666 430.202,238.946 430.758,239.226 431.313,239.506 431.868,239.785 432.423,240.065 432.979,240.344 433.534,240.623 434.089,240.902 434.645,241.18 435.2,241.459 435.755,241.737 436.31,242.015 436.866,242.292 437.421,242.57 437.976,242.847 438.532,243.124 439.087,243.401 439.642,243.678 440.197,243.954 440.753,244.231 441.308,244.507 441.863,244.782 442.419,245.058 442.974,245.334 443.529,245.609 444.084,245.884 444.64,246.159 445.195,246.433 445.75,246.707 446.306,246.982 446.861,247.255 447.416,247.529 447.971,247.803 448.527,248.076 449.082,248.349 449.637,248.622 450.193,248.894 450.748,249.167 451.303,249.439 451.858,249.711 452.414,249.982 452.969,250.254 453.524,250.525 454.079,250.796 454.635,251.067 455.19,251.338 455.745,251.608 456.301,251.878 456.856,252.148 457.411,252.418 457.967,252.687 458.522,252.956 459.077,253.225 459.632,253.494 460.188,253.762 460.743,254.031 461.298,254.299 461.853,254.567 462.409,254.834 462.964,255.101 463.519,255.369 464.075,255.635 464.63,255.902 465.185,256.169 465.741,256.435 466.296,256.701 466.851,256.966 467.406,257.232 467.962,257.497 468.517,257.762 469.072,258.027 469.627,258.291 470.183,258.556 470.738,258.82 471.293,259.084 471.849,259.347 472.404,259.611 472.959,259.874 473.514,260.137 474.07,260.399 474.625,260.662 475.18,260.924 475.736,261.186 476.291,261.447 476.846,261.709 477.401,261.97 477.957,262.231 478.512,262.492 479.067,262.752 479.623,263.012 480.178,263.272 480.733,263.532 481.288,263.792 481.844,264.051 482.399,264.31 482.954,264.569 483.51,264.827 484.065,265.085 484.62,265.343 485.175,265.601 485.731,265.859 486.286,266.116 486.841,266.373 487.397,266.63 487.952,266.887 488.507,267.143 489.062,267.399 489.618,267.655 490.173,267.911 490.728,268.166 491.284,268.421 491.839,268.676 492.394,268.93 492.949,269.185 493.505,269.439 494.06,269.693 494.615,269.947 495.171,270.2 495.726,270.453 496.281,270.706 496.836,270.959 497.392,271.211 497.947,271.463 498.502,271.715 499.058,271.967 499.613,272.218 500.168,272.469 500.723,272.72 501.279,272.971 501.834,273.221 502.389,273.472 502.945,273.722 503.5,273.971 504.055,274.221 504.61,274.47 505.166,274.719 505.721,274.968 506.276,275.216 506.832,275.464 507.387,275.712 507.942,275.96 508.497,276.208 509.053,276.455 509.608,276.702 510.163,276.949 510.719,277.195 511.274,277.441 511.829,277.687 512.384,277.933 512.94,278.179 513.495,278.424 514.05,278.669 514.606,278.914 515.161,279.158 515.716,279.402 516.271,279.646 516.827,279.89 517.382,280.134 517.937,280.377 518.493,280.62 519.048,280.863 519.603,281.105 520.158,281.348 520.714,281.59 521.269,281.832 521.824,282.073 522.38,282.314 522.935,282.556 523.49,282.796 524.045,283.037 524.601,283.277 525.156,283.517 525.711,283.757 526.267,283.997 526.822,284.236 527.377,284.475 527.932,284.714 528.488,284.953 529.043,285.191 529.598,285.429 530.154,285.667 530.709,285.905 531.264,286.142 531.819,286.379 532.375,286.616 532.93,286.853 533.485,287.089 534.04,287.325 534.596,287.561 535.151,287.797 535.706,288.032 536.262,288.268 536.817,288.503 537.372,288.737 537.927,288.972 538.483,289.206 539.038,289.44 539.593,289.674 540.149,289.907 540.704,290.14 541.259,290.373 541.814,290.606 542.37,290.839 542.925,291.071 543.48,291.303 544.036,291.535 544.591,291.766 545.146,291.997 545.701,292.229 546.257,292.459 546.812,292.69 547.367,292.92 547.923,293.15 548.478,293.38 549.033,293.61 549.588,293.839 550.144,294.068 550.699,294.297 551.254,294.526 551.81,294.754 552.365,294.982 552.92,295.21 553.475,295.438 554.031,295.665 554.586,295.893 555.141,296.12 555.697,296.346 556.252,296.573 556.807,296.799 557.362,297.025 557.918,297.251 558.473,297.476 559.028,297.702 559.584,297.927 560.139,298.152 560.694,298.376 561.249,298.6 561.805,298.825 562.36,299.048 562.915,299.272 563.471,299.496 564.026,299.719 564.581,299.942 565.136,300.164 565.692,300.387 566.247,300.609 566.802,300.831 567.358,301.053 567.913,301.274 568.468,301.495 569.023,301.716 569.579,301.937 570.134,302.158 570.689,302.378 571.245,302.598 571.8,302.818 572.355,303.038 572.91,303.257 573.466,303.476 574.021,303.695 574.576,303.914 575.132,304.132 575.687,304.351 576.242,304.569 576.797,304.786 577.353,305.004 577.908,305.221 578.463,305.438 579.019,305.655 579.574,305.872 580.129,306.088 580.684,306.304 581.24,306.52 581.795,306.736 582.35,306.951 582.906,307.167 583.461,307.382 584.016,307.596 584.571,307.811 585.127,308.025 585.682,308.239 586.237,308.453 586.793,308.667 587.348,308.88 587.903,309.093 588.458,309.306 589.014,309.519 589.569,309.732 590.124,309.944 590.68,310.156 591.235,310.368 591.79,310.579 592.345,310.791 592.901,311.002 593.456,311.213 594.011,311.423 594.567,311.634 595.122,311.844 595.677,312.054 596.232,312.264 596.788,312.473 597.343,312.683 597.898,312.892 598.454,313.101 599.009,313.309 599.564,313.518 600.119,313.726 600.675,313.934 601.23,314.142 601.785,314.349 602.341,314.557 602.896,314.764 603.451,314.97 604.006,315.177 604.562,315.384 605.117,315.59 605.672,315.796 606.228,316.002 606.783,316.207 607.338,316.412 607.893,316.617 608.449,316.822 609.004,317.027 609.559,317.232 610.115,317.436 610.67,317.64 611.225,317.844 611.78,318.047 612.336,318.25 612.891,318.454 613.446,318.657 614.002,318.859 614.557,319.062 615.112,319.264 615.667,319.466 616.223,319.668 616.778,319.87 617.333,320.071 617.888,320.272 618.444,320.473 618.999,320.674 619.554,320.874 620.11,321.075 620.665,321.275 621.22,321.475 621.775,321.674 622.331,321.874 622.886,322.073 623.441,322.272 623.997,322.471 624.552,322.67 625.107,322.868 625.662,323.066 626.218,323.264 626.773,323.462 627.328,323.66 627.884,323.857 628.439,324.054 628.994,324.251 629.549,324.448 630.105,324.644 630.66,324.84 631.215,325.037 631.771,325.232 632.326,325.428 632.881,325.624 633.436,325.819 633.992,326.014 634.547,326.209 635.102,326.403 635.658,326.598 636.213,326.792 636.768,326.986 637.323,327.18 637.879,327.373 638.434,327.567 638.989,327.76 639.545,327.953 640.1,328.146 640.655,328.338 641.21,328.53 641.766,328.723 642.321,328.915 642.876,329.106 643.432,329.298 643.987,329.489 644.542,329.68 645.097,329.871 645.653,330.062 646.208,330.252 646.763,330.443 647.319,330.633 647.874,330.823 648.429,331.012"
       id="polyline50"
       clip-path="url(#clipPath54)" />
    <polyline
       stroke-linecap="butt"
       stroke-linejoin="round"
       stroke-width="0.5"
       fill="none"
       stroke="#d85218"
       points="93.1445,647.001 93.7004,639.156 94.2562,631.436 94.812,623.838 95.3679,616.359 95.9237,608.999 96.4796,601.755 97.0354,594.624 97.5912,587.606 98.1471,580.697 98.7029,573.896 99.2588,567.201 99.8146,560.61 100.37,554.122 100.926,547.735 101.482,541.446 102.038,535.255 102.594,529.16 103.15,523.158 103.705,517.249 104.261,511.431 104.817,505.702 105.373,500.061 105.929,494.506 106.485,489.036 107.041,483.65 107.596,478.346 108.152,473.122 108.708,467.979 109.264,462.913 109.82,457.924 110.376,453.011 110.931,448.172 111.487,443.406 112.043,438.713 112.599,434.09 113.155,429.537 113.711,425.053 114.266,420.636 114.822,416.285 115.378,412 115.934,407.779 116.49,403.621 117.046,399.526 117.601,395.492 118.157,391.518 118.713,387.604 119.269,383.748 119.825,379.95 120.381,376.208 120.937,372.522 121.492,368.891 122.048,365.315 122.604,361.791 123.16,358.32 123.716,354.9 124.272,351.532 124.827,348.213 125.383,344.944 125.939,341.723 126.495,338.55 127.051,335.425 127.607,332.345 128.162,329.311 128.718,326.323 129.274,323.378 129.83,320.478 130.386,317.62 130.942,314.805 131.498,312.031 132.053,309.299 132.609,306.607 133.165,303.955 133.721,301.342 134.277,298.769 134.833,296.233 135.388,293.735 135.944,291.274 136.5,288.85 137.056,286.462 137.612,284.109 138.168,281.791 138.723,279.508 139.279,277.259 139.835,275.043 140.391,272.861 140.947,270.71 141.503,268.592 142.058,266.506 142.614,264.451 143.17,262.426 143.726,260.432 144.282,258.468 144.838,256.533 145.394,254.628 145.949,252.751 146.505,250.902 147.061,249.081 147.617,247.288 148.173,245.521 148.729,243.782 149.284,242.068 149.84,240.381 150.396,238.719 150.952,237.083 151.508,235.471 152.064,233.884 152.619,232.321 153.175,230.782 153.731,229.267 154.287,227.775 154.843,226.306 155.399,224.86 155.954,223.436 156.51,222.033 157.066,220.653 157.622,219.294 158.178,217.956 158.734,216.639 159.29,215.343 159.845,214.067 160.401,212.811 160.957,211.575 161.513,210.358 162.069,209.16 162.625,207.982 163.18,206.822 163.736,205.681 164.292,204.557 164.848,203.452 165.404,202.365 165.96,201.295 166.515,200.243 167.071,199.207 167.627,198.189 168.183,197.187 168.739,196.201 169.295,195.232 169.85,194.278 170.406,193.341 170.962,192.419 171.518,191.512 172.074,190.62 172.63,189.744 173.186,188.882 173.741,188.035 174.297,187.202 174.853,186.384 175.409,185.579 175.965,184.788 176.521,184.011 177.076,183.248 177.632,182.498 178.188,181.761 178.744,181.037 179.3,180.326 179.856,179.627 180.411,178.941 180.967,178.267 181.523,177.606 182.079,176.957 182.635,176.319 183.191,175.693 183.747,175.079 184.302,174.476 184.858,173.885 185.414,173.304 185.97,172.735 186.526,172.176 187.082,171.629 187.637,171.091 188.193,170.565 188.749,170.048 189.305,169.542 189.861,169.046 190.417,168.56 190.972,168.084 191.528,167.618 192.084,167.161 192.64,166.713 193.196,166.275 193.752,165.846 194.307,165.426 194.863,165.016 195.419,164.614 195.975,164.221 196.531,163.836 197.087,163.461 197.643,163.093 198.198,162.734 198.754,162.384 199.31,162.041 199.866,161.707 200.422,161.38 200.978,161.062 201.533,160.751 202.089,160.448 202.645,160.152 203.201,159.864 203.757,159.584 204.313,159.31 204.868,159.044 205.424,158.785 205.98,158.533 206.536,158.288 207.092,158.05 207.648,157.819 208.204,157.594 208.759,157.376 209.315,157.165 209.871,156.96 210.427,156.761 210.983,156.569 211.539,156.383 212.094,156.203 212.65,156.029 213.206,155.861 213.762,155.7 214.318,155.544 214.874,155.394 215.429,155.249 215.985,155.11 216.541,154.977 217.097,154.85 217.653,154.728 218.209,154.611 218.764,154.499 219.32,154.393 219.876,154.292 220.432,154.196 220.988,154.106 221.544,154.02 222.1,153.939 222.655,153.863 223.211,153.792 223.767,153.726 224.323,153.664 224.879,153.608 225.435,153.555 225.99,153.508 226.546,153.465 227.102,153.426 227.658,153.391 228.214,153.362 228.77,153.336 229.325,153.314 229.881,153.297 230.437,153.284 230.993,153.275 231.549,153.27 232.105,153.269 232.66,153.272 233.216,153.279 233.772,153.289 234.328,153.304 234.884,153.322 235.44,153.344 235.996,153.37 236.551,153.399 237.107,153.432 237.663,153.469 238.219,153.508 238.775,153.552 239.331,153.599 239.886,153.649 240.442,153.702 240.998,153.759 241.554,153.819 242.11,153.882 242.666,153.949 243.221,154.018 243.777,154.091 244.333,154.167 244.889,154.246 245.445,154.327 246.001,154.412 246.556,154.5 247.112,154.59 247.668,154.684 248.224,154.78 248.78,154.879 249.336,154.981 249.892,155.085 250.447,155.192 251.003,155.302 251.559,155.414 252.115,155.529 252.671,155.647 253.227,155.767 253.782,155.889 254.338,156.014 254.894,156.142 255.45,156.272 256.006,156.404 256.562,156.539 257.117,156.676 257.673,156.815 258.229,156.956 258.785,157.1 259.341,157.246 259.897,157.394 260.452,157.544 261.008,157.697 261.564,157.851 262.12,158.008 262.676,158.166 263.232,158.327 263.788,158.49 264.343,158.654 264.899,158.821 265.455,158.989 266.011,159.16 266.567,159.332 267.123,159.506 267.678,159.682 268.234,159.86 268.79,160.039 269.346,160.221 269.902,160.404 270.458,160.589 271.013,160.775 271.569,160.963 272.125,161.153 272.681,161.344 273.237,161.538 273.793,161.732 274.349,161.929 274.904,162.126 275.46,162.326 276.016,162.527 276.572,162.729 277.128,162.933 277.684,163.138 278.239,163.345 278.795,163.553 279.351,163.763 279.907,163.974 280.463,164.186 281.019,164.4 281.574,164.615 282.13,164.831 282.686,165.049 283.242,165.268 283.798,165.488 284.354,165.71 284.909,165.932 285.465,166.156 286.021,166.381 286.577,166.608 287.133,166.835 287.689,167.064 288.245,167.294 288.8,167.524 289.356,167.756 289.912,167.99 290.468,168.224 291.024,168.459 291.58,168.695 292.135,168.933 292.691,169.171 293.247,169.41 293.803,169.651 294.359,169.892 294.915,170.134 295.47,170.378 296.026,170.622 296.582,170.867 297.138,171.113 297.694,171.36 298.25,171.608 298.805,171.857 299.361,172.106 299.917,172.357 300.473,172.608 301.029,172.86 301.585,173.113 302.141,173.367 302.696,173.621 303.252,173.877 303.808,174.133 304.364,174.39 304.92,174.647 305.476,174.906 306.031,175.165 306.587,175.424 307.143,175.685 307.699,175.946 308.255,176.208 308.811,176.471 309.366,176.734 309.922,176.998 310.478,177.262 311.034,177.527 311.59,177.793 312.146,178.06 312.702,178.327 313.257,178.594 313.813,178.862 314.369,179.131 314.925,179.4 315.481,179.67 316.037,179.941 316.592,180.212 317.148,180.483 317.704,180.755 318.26,181.028 318.816,181.301 319.372,181.575 319.927,181.849 320.483,182.123 321.039,182.398 321.595,182.674 322.151,182.949 322.707,183.226 323.262,183.503 323.818,183.78 324.374,184.058 324.93,184.336 325.486,184.614 326.042,184.893 326.598,185.172 327.153,185.452 327.709,185.732 328.265,186.013 328.821,186.294 329.377,186.575 329.933,186.856 330.488,187.138 331.044,187.42 331.6,187.703 332.156,187.986 332.712,188.269 333.268,188.553 333.823,188.837 334.379,189.121 334.935,189.405 335.491,189.69 336.047,189.975 336.603,190.26 337.158,190.546 337.714,190.832 338.27,191.118 338.826,191.404 339.382,191.691 339.938,191.977 340.494,192.265 341.049,192.552 341.605,192.839 342.161,193.127 342.717,193.415 343.273,193.703 343.829,193.992 344.384,194.28 344.94,194.569 345.496,194.858 346.052,195.147 346.608,195.436 347.164,195.726 347.719,196.015 348.275,196.305 348.831,196.595 349.387,196.885 349.943,197.176 350.499,197.466 351.055,197.757 351.61,198.047 352.166,198.338 352.722,198.629 353.278,198.92 353.834,199.211 354.39,199.503 354.945,199.794 355.501,200.086 356.057,200.377 356.613,200.669 357.169,200.961 357.725,201.253 358.28,201.545 358.836,201.837 359.392,202.129 359.948,202.421 360.504,202.713 361.06,203.006 361.615,203.298 362.171,203.59 362.727,203.883 363.283,204.175 363.839,204.468 364.395,204.761 364.951,205.053 365.506,205.346 366.062,205.639 366.618,205.932 367.174,206.224 367.73,206.517 368.286,206.81 368.841,207.103 369.397,207.396 369.953,207.689 370.509,207.982 371.065,208.274 371.621,208.567 372.176,208.86 372.732,209.153 373.288,209.446 373.844,209.739 374.4,210.031 374.956,210.324 375.511,210.617 376.067,210.91 376.623,211.203 377.179,211.495 377.735,211.788 378.291,212.081 378.847,212.373 379.402,212.666 379.958,212.958 380.514,213.251 381.07,213.543 381.626,213.835 382.182,214.128 382.737,214.42 383.293,214.712 383.849,215.004 384.405,215.296 384.961,215.588 385.517,215.88 386.072,216.172 386.628,216.464 387.184,216.755 387.74,217.047 388.296,217.339 388.852,217.63 389.407,217.921 389.963,218.213 390.519,218.504 391.075,218.795 391.631,219.086 392.187,219.377 392.743,219.667 393.298,219.958 393.854,220.249 394.41,220.539 394.966,220.83 395.522,221.12 396.078,221.41 396.633,221.7 397.189,221.99 397.745,222.28 398.301,222.57 398.857,222.859 399.413,223.149 399.968,223.438 400.524,223.727 401.08,224.016 401.636,224.305 402.192,224.594 402.748,224.883 403.303,225.171 403.859,225.46 404.415,225.748 404.971,226.036 405.527,226.324 406.083,226.612 406.639,226.9 407.194,227.187 407.75,227.475 408.306,227.762 408.862,228.049 409.418,228.336 409.974,228.623 410.529,228.91 411.085,229.196 411.641,229.482 412.197,229.769 412.753,230.055 413.309,230.341 413.864,230.626 414.42,230.912 414.976,231.197 415.532,231.482 416.088,231.768 416.644,232.052 417.199,232.337 417.755,232.622 418.311,232.906 418.867,233.19 419.423,233.474 419.979,233.758 420.535,234.042 421.09,234.325 421.646,234.609 422.202,234.892 422.758,235.175 423.314,235.457 423.87,235.74 424.425,236.022 424.981,236.305 425.537,236.587 426.093,236.868 426.649,237.15 427.205,237.432 427.76,237.713 428.316,237.994 428.872,238.275 429.428,238.556 429.984,238.836 430.54,239.116 431.095,239.396 431.651,239.676 432.207,239.956 432.763,240.236 433.319,240.515 433.875,240.794 434.431,241.073 434.986,241.352 435.542,241.63 436.098,241.908 436.654,242.186 437.21,242.464 437.766,242.742 438.321,243.019 438.877,243.297 439.433,243.574 439.989,243.851 440.545,244.127 441.101,244.404 441.656,244.68 442.212,244.956 442.768,245.232 443.324,245.507 443.88,245.782 444.436,246.058 444.992,246.332 445.547,246.607 446.103,246.882 446.659,247.156 447.215,247.43 447.771,247.704 448.327,247.977 448.882,248.251 449.438,248.524 449.994,248.797 450.55,249.07 451.106,249.342 451.662,249.614 452.217,249.886 452.773,250.158 453.329,250.43 453.885,250.701 454.441,250.972 454.997,251.243 455.552,251.514 456.108,251.784 456.664,252.055 457.22,252.325 457.776,252.594 458.332,252.864 458.888,253.133 459.443,253.402 459.999,253.671 460.555,253.94 461.111,254.208 461.667,254.476 462.223,254.744 462.778,255.012 463.334,255.28 463.89,255.547 464.446,255.814 465.002,256.081 465.558,256.347 466.113,256.613 466.669,256.879 467.225,257.145 467.781,257.411 468.337,257.676 468.893,257.941 469.448,258.206 470.004,258.471 470.56,258.735 471.116,258.999 471.672,259.263 472.228,259.527 472.784,259.79 473.339,260.054 473.895,260.317 474.451,260.579 475.007,260.842 475.563,261.104 476.119,261.366 476.674,261.628 477.23,261.889 477.786,262.151 478.342,262.412 478.898,262.673 479.454,262.933 480.009,263.193 480.565,263.454 481.121,263.713 481.677,263.973 482.233,264.232 482.789,264.491 483.345,264.75 483.9,265.009 484.456,265.267 485.012,265.525 485.568,265.783 486.124,266.041 486.68,266.298 487.235,266.556 487.791,266.812 488.347,267.069 488.903,267.326 489.459,267.582 490.015,267.838 490.57,268.093 491.126,268.349 491.682,268.604 492.238,268.859 492.794,269.114 493.35,269.368 493.905,269.622 494.461,269.876 495.017,270.13 495.573,270.383 496.129,270.637 496.685,270.89 497.241,271.142 497.796,271.395 498.352,271.647 498.908,271.899 499.464,272.151 500.02,272.402 500.576,272.654 501.131,272.905 501.687,273.155 502.243,273.406 502.799,273.656 503.355,273.906 503.911,274.156 504.466,274.405 505.022,274.655 505.578,274.904 506.134,275.153 506.69,275.401 507.246,275.649 507.802,275.897 508.357,276.145 508.913,276.393 509.469,276.64 510.025,276.887 510.581,277.134 511.137,277.38 511.692,277.627 512.248,277.873 512.804,278.119 513.36,278.364 513.916,278.609 514.472,278.855 515.027,279.099 515.583,279.344 516.139,279.588 516.695,279.832 517.251,280.076 517.807,280.32 518.362,280.563 518.918,280.806 519.474,281.049 520.03,281.292 520.586,281.534 521.142,281.776 521.698,282.018 522.253,282.26 522.809,282.501 523.365,282.742 523.921,282.983 524.477,283.224 525.033,283.464 525.588,283.704 526.144,283.944 526.7,284.184 527.256,284.423 527.812,284.662 528.368,284.901 528.923,285.14 529.479,285.378 530.035,285.616 530.591,285.854 531.147,286.092 531.703,286.329 532.258,286.567 532.814,286.804 533.37,287.04 533.926,287.277 534.482,287.513 535.038,287.749 535.594,287.985 536.149,288.22 536.705,288.455 537.261,288.69 537.817,288.925 538.373,289.16 538.929,289.394 539.484,289.628 540.04,289.862 540.596,290.095 541.152,290.328 541.708,290.561 542.264,290.794 542.819,291.027 543.375,291.259 543.931,291.491 544.487,291.723 545.043,291.954 545.599,292.186 546.154,292.417 546.71,292.648 547.266,292.878 547.822,293.109 548.378,293.339 548.934,293.569 549.49,293.798 550.045,294.028 550.601,294.257 551.157,294.486 551.713,294.714 552.269,294.943 552.825,295.171 553.38,295.399 553.936,295.627 554.492,295.854 555.048,296.081 555.604,296.308 556.16,296.535 556.715,296.762 557.271,296.988 557.827,297.214 558.383,297.44 558.939,297.665 559.495,297.891 560.05,298.116 560.606,298.341 561.162,298.565 561.718,298.79 562.274,299.014 562.83,299.238 563.386,299.461 563.941,299.685 564.497,299.908 565.053,300.131 565.609,300.354 566.165,300.576 566.721,300.798 567.276,301.02 567.832,301.242 568.388,301.464 568.944,301.685 569.5,301.906 570.056,302.127 570.611,302.347 571.167,302.568 571.723,302.788 572.279,303.008 572.835,303.227 573.391,303.447 573.946,303.666 574.502,303.885 575.058,304.104 575.614,304.322 576.17,304.54 576.726,304.758 577.282,304.976 577.837,305.194 578.393,305.411 578.949,305.628 579.505,305.845 580.061,306.062 580.617,306.278 581.172,306.494 581.728,306.71 582.284,306.926 582.84,307.141 583.396,307.357 583.952,307.572 584.508,307.786 585.063,308.001 585.619,308.215 586.175,308.429 586.731,308.643 587.287,308.857 587.843,309.07 588.398,309.283 588.954,309.496 589.51,309.709 590.066,309.922 590.622,310.134 591.178,310.346 591.733,310.558 592.289,310.769 592.845,310.981 593.401,311.192 593.957,311.403 594.513,311.613 595.068,311.824 595.624,312.034 596.18,312.244 596.736,312.454 597.292,312.663 597.848,312.873 598.404,313.082 598.959,313.291 599.515,313.499 600.071,313.708 600.627,313.916 601.183,314.124 601.739,314.332 602.294,314.539 602.85,314.747 603.406,314.954 603.962,315.161 604.518,315.367 605.074,315.574 605.629,315.78 606.185,315.986 606.741,316.192 607.297,316.397 607.853,316.603 608.409,316.808 608.964,317.013 609.52,317.217 610.076,317.422 610.632,317.626 611.188,317.83 611.744,318.034 612.299,318.237 612.855,318.441 613.411,318.644 613.967,318.847 614.523,319.049 615.079,319.252 615.635,319.454 616.19,319.656 616.746,319.858 617.302,320.06 617.858,320.261 618.414,320.462 618.97,320.663 619.525,320.864 620.081,321.064 620.637,321.265 621.193,321.465 621.749,321.665 622.305,321.865 622.86,322.064 623.416,322.263 623.972,322.462 624.528,322.661 625.084,322.86 625.64,323.058 626.195,323.256 626.751,323.454 627.307,323.652 627.863,323.85 628.419,324.047 628.975,324.244 629.531,324.441 630.086,324.638 630.642,324.834 631.198,325.03 631.754,325.227 632.31,325.422 632.866,325.618 633.421,325.814 633.977,326.009 634.533,326.204 635.089,326.399 635.645,326.593 636.201,326.788 636.757,326.982 637.312,327.176 637.868,327.37 638.424,327.563 638.98,327.757 639.536,327.95 640.092,328.143 640.647,328.335 641.203,328.528 641.759,328.72 642.315,328.912 642.871,329.104 643.427,329.296 643.982,329.488 644.538,329.679 645.094,329.87 645.65,330.061 646.206,330.252 646.762,330.442 647.317,330.632 647.873,330.822 648.429,331.012"
       id="polyline51"
       clip-path="url(#clipPath53)"
       style="stroke-width:1.5;stroke-dasharray:none" />
  </g>
</svg>
