<?xml version="1.0" encoding="UTF-8" standalone="no"?>
<!-- Created with Inkscape (http://www.inkscape.org/) -->

<svg
   width="96"
   height="95.999931"
   viewBox="0 0 25.399997 25.399979"
   version="1.1"
   id="svg5"
   sodipodi:docname="base.svg"
   inkscape:version="1.2.1 (9c6d41e410, 2022-07-14)"
   xmlns:inkscape="http://www.inkscape.org/namespaces/inkscape"
   xmlns:sodipodi="http://sodipodi.sourceforge.net/DTD/sodipodi-0.dtd"
   xmlns="http://www.w3.org/2000/svg"
   xmlns:svg="http://www.w3.org/2000/svg">
  <sodipodi:namedview
     id="namedview7"
     pagecolor="#ffffff"
     bordercolor="#000000"
     borderopacity="0.25"
     inkscape:showpageshadow="false"
     inkscape:pageopacity="0.0"
     inkscape:pagecheckerboard="false"
     inkscape:deskcolor="#d1d1d1"
     inkscape:document-units="px"
     showgrid="true"
     inkscape:zoom="7.9999999"
     inkscape:cx="140.3125"
     inkscape:cy="661.93751"
     inkscape:window-width="1920"
     inkscape:window-height="1050"
     inkscape:window-x="1920"
     inkscape:window-y="18"
     inkscape:window-maximized="1"
     inkscape:current-layer="layer1"
     showguides="true">
    <inkscape:grid
       type="xygrid"
       id="grid1223"
       spacingx="1.0583333"
       spacingy="1.0583333"
       empspacing="4"
       originx="5.0517557e-06"
       originy="-122.76667" />
    <sodipodi:guide
       position="-25.4,313.26669"
       orientation="0,-1"
       id="guide1694"
       inkscape:locked="false" />
    <sodipodi:guide
       position="-25.4,313.26669"
       orientation="1,0"
       id="guide1696"
       inkscape:locked="false" />
    <sodipodi:guide
       position="25.399999,313.2667"
       orientation="1,0"
       id="guide21735"
       inkscape:locked="false" />
    <sodipodi:guide
       position="-25.4,270.93335"
       orientation="0,-1"
       id="guide21941"
       inkscape:locked="false" />
    <sodipodi:guide
       position="76.199994,313.2667"
       orientation="1,0"
       id="guide24413"
       inkscape:locked="false" />
    <sodipodi:guide
       position="-25.4,228.60002"
       orientation="0,-1"
       id="guide35496"
       inkscape:locked="false" />
    <sodipodi:guide
       position="127,313.26668"
       orientation="1,0"
       id="guide50631"
       inkscape:locked="false" />
    <sodipodi:guide
       position="-25.4,190.50001"
       orientation="0,-1"
       id="guide53352"
       inkscape:locked="false" />
    <sodipodi:guide
       position="-25.4,152.40002"
       orientation="0,-1"
       id="guide159195"
       inkscape:locked="false" />
    <sodipodi:guide
       position="42.333332,152.40002"
       orientation="1,0"
       id="guide500405"
       inkscape:locked="false" />
    <sodipodi:guide
       position="-25.4,114.30003"
       orientation="0,-1"
       id="guide503869"
       inkscape:locked="false" />
    <sodipodi:guide
       position="177.79999,110.06669"
       orientation="1,0"
       id="guide645019"
       inkscape:locked="false" />
    <sodipodi:guide
       position="33.866666,71.966688"
       orientation="1,0"
       id="guide686712"
       inkscape:locked="false" />
    <sodipodi:guide
       position="-25.4,76.200025"
       orientation="0,-1"
       id="guide686714"
       inkscape:locked="false" />
    <sodipodi:guide
       position="93.133333,71.966689"
       orientation="1,0"
       id="guide765939"
       inkscape:locked="false" />
    <sodipodi:guide
       position="152.39999,71.966689"
       orientation="1,0"
       id="guide816936"
       inkscape:locked="false" />
    <sodipodi:guide
       position="228.6,152.40002"
       orientation="1,0"
       id="guide839718"
       inkscape:locked="false" />
    <sodipodi:guide
       position="55.033332,114.29999"
       orientation="1,0"
       id="guide195271"
       inkscape:locked="false" />
    <sodipodi:guide
       position="97.366663,114.30003"
       orientation="1,0"
       id="guide236368"
       inkscape:locked="false" />
    <sodipodi:guide
       position="-25.4,25.399989"
       orientation="0,-1"
       id="guide314999"
       inkscape:locked="false" />
    <sodipodi:guide
       position="-1.4440947e-06,-2.6519403e-06"
       orientation="1,0"
       id="guide431293"
       inkscape:locked="false" />
    <sodipodi:guide
       position="-25.4,-2.6519403e-06"
       orientation="0,-1"
       id="guide431295"
       inkscape:locked="false" />
  </sodipodi:namedview>
  <defs
     id="defs2">
    <marker
       style="overflow:visible"
       id="marker382226"
       refX="0"
       refY="0"
       orient="auto-start-reverse"
       inkscape:stockid="Arrow2"
       markerWidth="5.7140002"
       markerHeight="2.8570001"
       viewBox="0 0 7.7 5.6"
       inkscape:isstock="true"
       inkscape:collect="always"
       preserveAspectRatio="xMidYMid">
      <path
         transform="scale(0.7)"
         d="M -2,-4 9,0 -2,4 c 2,-2.33 2,-5.66 0,-8 z"
         style="fill:context-stroke;fill-rule:evenodd;stroke:none"
         id="path382224" />
    </marker>
    <marker
       style="overflow:visible"
       id="Arrow2-3"
       refX="0"
       refY="0"
       orient="auto-start-reverse"
       inkscape:stockid="Arrow2"
       markerWidth="3.9283752"
       markerHeight="2.8570001"
       viewBox="0 0 7.7 5.6"
       inkscape:isstock="true"
       inkscape:collect="always"
       preserveAspectRatio="xMidYMid">
      <path
         transform="scale(0.7)"
         d="M -2,-4 9,0 -2,4 c 2,-2.33 2,-5.66 0,-8 z"
         style="fill:context-stroke;fill-rule:evenodd;stroke:none"
         id="arrow2L-6" />
    </marker>
    <clipPath
       id="clipPath3277">
      <path
         d="m 4,2 h 7 V 5.484375 H 4 Z m 0,0"
         id="path49083" />
    </clipPath>
    <clipPath
       id="clipPath9029">
      <path
         d="M 0,0 H 15 V 3.851562 H 0 Z m 0,0"
         id="path83806" />
    </clipPath>
    <clipPath
       id="clipPath25988">
      <path
         d="m 15,3 h 2 v 0.851562 h -2 z m 0,0"
         id="path22123" />
    </clipPath>
    <clipPath
       id="clipPath96938">
      <path
         d="m 17,0 h 3.535156 V 3.851562 H 17 Z m 0,0"
         id="path6620" />
    </clipPath>
    <clipPath
       id="clipPath2947">
      <path
         d="m 4,2 h 7.882812 V 5.484375 H 4 Z m 0,0"
         id="path97739" />
    </clipPath>
  </defs>
  <g
     inkscape:label="Capa 1"
     inkscape:groupmode="layer"
     id="layer1"
     transform="translate(-25.4,-287.86701)">
    <rect
       style="fill:#ffffff;stroke:none;stroke-width:0.264583;stroke-linecap:round;stroke-linejoin:round;stroke-dasharray:none;stroke-dashoffset:0;paint-order:stroke markers fill"
       id="rect433175"
       width="25.4"
       height="25.399982"
       x="25.4"
       y="287.867"
       inkscape:export-filename="x0402.svg"
       inkscape:export-xdpi="96"
       inkscape:export-ydpi="96" />
    <path
       style="fill:none;stroke:#999999;stroke-width:0.264583;stroke-linecap:round;stroke-linejoin:round;stroke-dasharray:none;stroke-dashoffset:0;paint-order:stroke markers fill"
       d="M 29.633332,300.56662 H 46.566665"
       id="path376826" />
    <path
       style="fill:none;stroke:#999999;stroke-width:0.264583;stroke-linecap:round;stroke-linejoin:round;stroke-dasharray:none;stroke-dashoffset:0;paint-order:stroke markers fill"
       d="m 38.099999,292.09995 v 16.93334"
       id="path376828" />
    <path
       style="fill:none;stroke:#0000ff;stroke-width:0.264583;stroke-linecap:round;stroke-linejoin:round;stroke-dasharray:none;stroke-dashoffset:0;marker-end:url(#marker382226);paint-order:stroke markers fill"
       d="m 38.099999,300.56661 v -4.23333"
       id="path384477" />
    <path
       style="fill:none;stroke:#0000ff;stroke-width:0.264583;stroke-linecap:round;stroke-linejoin:round;stroke-dasharray:none;stroke-dashoffset:0;marker-end:url(#marker382226);paint-order:stroke markers fill"
       d="M 38.099999,300.56662 H 33.866665"
       id="path384479"
       sodipodi:nodetypes="cc" />
    <path
       style="fill:none;stroke:#0000ff;stroke-width:0.264583;stroke-linecap:round;stroke-linejoin:round;stroke-dasharray:none;stroke-dashoffset:0;marker-start:url(#Arrow2-3);paint-order:stroke markers fill"
       d="m 41.274998,309.03365 -3.174999,-8.46666"
       id="path376824"
       sodipodi:nodetypes="cc" />
    <g
       inkscape:label=""
       transform="translate(42.19729,305.53564)"
       id="g415503">
      <g
         id="g415501"
         transform="matrix(0.352778,0,0,0.352778,-0.121267,-0.0134497)">
        <g
           style="fill:#000000;fill-opacity:1"
           id="g415487">
          <g
             id="g415485"
             transform="translate(0,4.085)">
            <path
               style="stroke:none"
               d="m 3.109375,-3.609375 c 0.046875,-0.1875 0.0625,-0.203125 0.3125,-0.203125 H 3.96875 c 0.640625,0 0.734375,0.1875 0.734375,0.546875 0,0.078125 -0.015625,0.234375 -0.046875,0.421875 0,0.015625 -0.015625,0.078125 -0.015625,0.109375 0,0.046875 0.046875,0.09375 0.109375,0.09375 0.109375,0 0.109375,-0.0625 0.125,-0.15625 L 5.03125,-3.9375 c 0,-0.109375 -0.0625,-0.109375 -0.171875,-0.109375 H 0.96875 c -0.15625,0 -0.171875,0 -0.21875,0.125 l -0.390625,1.09375 c -0.015625,0.0625 -0.015625,0.09375 -0.015625,0.09375 0,0.015625 0,0.09375 0.109375,0.09375 0.078125,0 0.078125,-0.015625 0.140625,-0.171875 0.265625,-0.734375 0.453125,-1 1.21875,-1 h 0.546875 c 0.125,0 0.125,0 0.203125,0.03125 L 1.75,-0.515625 c -0.03125,0.171875 -0.0625,0.21875 -0.234375,0.25 C 1.34375,-0.234375 1,-0.234375 1,-0.234375 c -0.15625,0 -0.171875,0 -0.203125,0.015625 C 0.765625,-0.203125 0.75,-0.109375 0.75,-0.078125 0.75,-0.078125 0.765625,0 0.859375,0 c 0.15625,0 0.34375,-0.015625 0.5,-0.015625 0.25,0 0.40625,-0.015625 0.5625,-0.015625 0.171875,0 0.359375,0.015625 0.53125,0.015625 C 2.640625,-0.015625 2.828125,0 3,0 3.046875,0 3.09375,0 3.109375,-0.046875 3.125,-0.0625 3.140625,-0.125 3.140625,-0.15625 3.125,-0.234375 3.09375,-0.234375 2.90625,-0.234375 2.765625,-0.234375 2.640625,-0.25 2.515625,-0.25 2.375,-0.265625 2.296875,-0.265625 2.296875,-0.359375 Z m 0,0"
               id="path415483" />
          </g>
        </g>
        <g
           clip-path="url(#clipPath3277)"
           clip-rule="nonzero"
           id="g415499">
          <g
             style="fill:#000000;fill-opacity:1"
             id="g415497">
            <g
               id="g415491"
               transform="translate(4.3699999,5.4850001)">
              <path
                 style="stroke:none"
                 d="M 1.5625,-3.265625 C 1.59375,-3.34375 1.59375,-3.34375 1.59375,-3.375 c 0,-0.078125 -0.078125,-0.078125 -0.15625,-0.078125 L 0.828125,-3.40625 c -0.09375,0 -0.09375,0 -0.125,0.03125 -0.015625,0.015625 -0.03125,0.078125 -0.03125,0.109375 0,0.078125 0.078125,0.078125 0.140625,0.078125 0.015625,0 0.09375,0 0.171875,0.015625 0.09375,0.015625 0.109375,0.03125 0.109375,0.0625 0,0.03125 -0.0625,0.234375 -0.09375,0.34375 L 0.59375,-1.09375 C 0.5625,-1 0.546875,-0.921875 0.546875,-0.8125 c 0,0.515625 0.375,0.875 0.859375,0.875 0.71875,0 1.40625,-0.703125 1.40625,-1.390625 0,-0.5 -0.359375,-0.875 -0.875,-0.875 -0.21875,0 -0.453125,0.078125 -0.703125,0.265625 z m -0.15625,3.15625 c -0.203125,0 -0.453125,-0.140625 -0.453125,-0.53125 0,-0.171875 0.03125,-0.328125 0.078125,-0.5 0.015625,-0.0625 0.09375,-0.375 0.109375,-0.40625 C 1.15625,-1.59375 1.5,-2.03125 1.921875,-2.03125 c 0.21875,0 0.4375,0.125 0.4375,0.5 0,0.1875 -0.09375,0.65625 -0.25,0.953125 -0.171875,0.28125 -0.453125,0.46875 -0.703125,0.46875 z m 0,0"
                 id="path415489" />
            </g>
            <g
               id="g415495"
               transform="translate(7.5246568,5.4850001)">
              <path
                 style="stroke:none"
                 d="m 2.5625,-1.921875 c -0.078125,0.015625 -0.21875,0.125 -0.21875,0.296875 0,0.125 0.09375,0.203125 0.21875,0.203125 0.109375,0 0.296875,-0.09375 0.296875,-0.34375 0,-0.375 -0.484375,-0.4375 -0.75,-0.4375 -0.84375,0 -1.578125,0.6875 -1.578125,1.34375 0,0.4375 0.328125,0.921875 1.078125,0.921875 0.09375,0 0.484375,0 0.828125,-0.140625 0.328125,-0.125 0.53125,-0.359375 0.53125,-0.40625 0,-0.046875 -0.0625,-0.125 -0.109375,-0.125 -0.015625,0 -0.03125,0.015625 -0.109375,0.09375 -0.21875,0.25 -0.640625,0.40625 -1.140625,0.40625 -0.421875,0 -0.625,-0.234375 -0.625,-0.578125 0,-0.515625 0.34375,-1.34375 1.125,-1.34375 0.046875,0 0.296875,0 0.453125,0.109375 z m 0,0"
                 id="path415493" />
            </g>
          </g>
        </g>
      </g>
    </g>
    <g
       inkscape:label=""
       transform="translate(39.226831,297.36994)"
       id="g419521">
      <g
         id="g419519"
         transform="matrix(0.352778,0,0,0.352778,-0.253559,0.0687476)">
        <g
           clip-path="url(#clipPath9029)"
           clip-rule="nonzero"
           id="g43">
          <g
             style="fill:#000000;fill-opacity:1"
             id="g41">
            <g
               id="g419488"
               transform="translate(0,3.852)">
              <path
                 style="stroke:none"
                 d="m 2.140625,-3.796875 c 0,-0.1875 -0.015625,-0.1875 -0.203125,-0.1875 -0.390625,0.390625 -1,0.390625 -1.21875,0.390625 v 0.234375 c 0.15625,0 0.5625,0 0.921875,-0.171875 v 3.015625 c 0,0.203125 0,0.28125 -0.625,0.28125 h -0.25 V 0 c 0.328125,-0.03125 0.796875,-0.03125 1.125,-0.03125 0.328125,0 0.796875,0 1.125,0.03125 v -0.234375 h -0.25 c -0.625,0 -0.625,-0.078125 -0.625,-0.28125 z m 0,0"
                 id="path419486" />
            </g>
            <g
               id="g419492"
               transform="translate(3.6529109,3.852)">
              <path
                 style="stroke:none"
                 d="m 2.140625,-3.796875 c 0,-0.1875 -0.015625,-0.1875 -0.203125,-0.1875 -0.390625,0.390625 -1,0.390625 -1.21875,0.390625 v 0.234375 c 0.15625,0 0.5625,0 0.921875,-0.171875 v 3.015625 c 0,0.203125 0,0.28125 -0.625,0.28125 h -0.25 V 0 c 0.328125,-0.03125 0.796875,-0.03125 1.125,-0.03125 0.328125,0 0.796875,0 1.125,0.03125 v -0.234375 h -0.25 c -0.625,0 -0.625,-0.078125 -0.625,-0.28125 z m 0,0"
                 id="path419490" />
            </g>
            <g
               id="g419496"
               transform="translate(7.3058228,3.852)">
              <path
                 style="stroke:none"
                 d="M 0.96875,-1.984375 C 0.984375,-2.28125 1,-2.78125 1.203125,-3.140625 1.46875,-3.609375 1.859375,-3.78125 2.21875,-3.78125 c 0.140625,0 0.421875,0.015625 0.5625,0.1875 -0.21875,0.046875 -0.265625,0.1875 -0.265625,0.296875 0,0.15625 0.109375,0.28125 0.296875,0.28125 0.171875,0 0.28125,-0.109375 0.28125,-0.296875 0,-0.375 -0.265625,-0.671875 -0.875,-0.671875 -0.9375,0 -1.84375,0.8125 -1.84375,2.09375 0,1.453125 0.671875,2.015625 1.46875,2.015625 0.234375,0 0.640625,-0.03125 1,-0.390625 0.203125,-0.1875 0.421875,-0.421875 0.421875,-0.953125 0,-0.203125 -0.015625,-0.59375 -0.375,-0.921875 -0.21875,-0.203125 -0.484375,-0.40625 -0.984375,-0.40625 -0.421875,0 -0.734375,0.21875 -0.9375,0.5625 z m 0.875,1.890625 C 1,-0.09375 1,-1.125 1,-1.359375 c 0,-0.5 0.328125,-1 0.875,-1 0.3125,0 0.484375,0.125 0.625,0.3125 0.171875,0.234375 0.171875,0.515625 0.171875,0.828125 0,0.40625 -0.015625,0.609375 -0.21875,0.859375 C 2.3125,-0.1875 2.125,-0.09375 1.84375,-0.09375 Z m 0,0"
                 id="path419494" />
            </g>
            <g
               id="g419500"
               transform="translate(10.958734,3.852)">
              <path
                 style="stroke:none"
                 d="M 0.96875,-1.984375 C 0.984375,-2.28125 1,-2.78125 1.203125,-3.140625 1.46875,-3.609375 1.859375,-3.78125 2.21875,-3.78125 c 0.140625,0 0.421875,0.015625 0.5625,0.1875 -0.21875,0.046875 -0.265625,0.1875 -0.265625,0.296875 0,0.15625 0.109375,0.28125 0.296875,0.28125 0.171875,0 0.28125,-0.109375 0.28125,-0.296875 0,-0.375 -0.265625,-0.671875 -0.875,-0.671875 -0.9375,0 -1.84375,0.8125 -1.84375,2.09375 0,1.453125 0.671875,2.015625 1.46875,2.015625 0.234375,0 0.640625,-0.03125 1,-0.390625 0.203125,-0.1875 0.421875,-0.421875 0.421875,-0.953125 0,-0.203125 -0.015625,-0.59375 -0.375,-0.921875 -0.21875,-0.203125 -0.484375,-0.40625 -0.984375,-0.40625 -0.421875,0 -0.734375,0.21875 -0.9375,0.5625 z m 0.875,1.890625 C 1,-0.09375 1,-1.125 1,-1.359375 c 0,-0.5 0.328125,-1 0.875,-1 0.3125,0 0.484375,0.125 0.625,0.3125 0.171875,0.234375 0.171875,0.515625 0.171875,0.828125 0,0.40625 -0.015625,0.609375 -0.21875,0.859375 C 2.3125,-0.1875 2.125,-0.09375 1.84375,-0.09375 Z m 0,0"
                 id="path419498" />
            </g>
          </g>
        </g>
        <g
           clip-path="url(#clipPath25988)"
           clip-rule="nonzero"
           id="g49">
          <g
             style="fill:#000000;fill-opacity:1"
             id="g419508">
            <g
               id="g419506"
               transform="translate(14.612,3.852)">
              <path
                 style="stroke:none"
                 d="m 1.5,-0.359375 c 0,-0.21875 -0.171875,-0.359375 -0.359375,-0.359375 -0.21875,0 -0.375,0.171875 -0.375,0.359375 C 0.765625,-0.15625 0.9375,0 1.140625,0 1.328125,0 1.5,-0.171875 1.5,-0.359375 Z m 0,0"
                 id="path419504" />
            </g>
          </g>
        </g>
        <g
           clip-path="url(#clipPath96938)"
           clip-rule="nonzero"
           id="g419517">
          <g
             style="fill:#000000;fill-opacity:1"
             id="g419515">
            <g
               id="g419513"
               transform="translate(16.881001,3.852)">
              <path
                 style="stroke:none"
                 d="m 3.421875,-3.609375 c 0.046875,-0.0625 0.046875,-0.078125 0.046875,-0.25 H 1.921875 c -0.234375,0 -0.390625,0 -0.625,-0.015625 C 1.015625,-3.890625 0.9375,-3.90625 0.90625,-4.046875 H 0.6875 l -0.21875,1.3125 H 0.6875 c 0.03125,-0.125 0.078125,-0.484375 0.171875,-0.546875 0.046875,-0.03125 0.5625,-0.03125 0.65625,-0.03125 h 1.34375 c -0.0625,0.078125 -0.375,0.46875 -0.53125,0.640625 C 1.75,-1.96875 1.34375,-1.125 1.34375,-0.21875 c 0,0.0625 0,0.34375 0.296875,0.34375 0.28125,0 0.28125,-0.28125 0.28125,-0.359375 v -0.15625 c 0,-1.15625 0.25,-1.734375 0.546875,-2.09375 z m 0,0"
                 id="path419511" />
            </g>
          </g>
        </g>
      </g>
    </g>
    <g
       inkscape:label=""
       transform="translate(32.244712,301.82067)"
       id="g423361">
      <g
         id="g423359"
         transform="matrix(0.352778,0,0,0.352778,-0.121267,-0.0134497)">
        <g
           style="fill:#000000;fill-opacity:1"
           id="g423345">
          <g
             id="g423343"
             transform="translate(0,4.085)">
            <path
               style="stroke:none"
               d="m 3.109375,-3.609375 c 0.046875,-0.1875 0.0625,-0.203125 0.3125,-0.203125 H 3.96875 c 0.640625,0 0.734375,0.1875 0.734375,0.546875 0,0.078125 -0.015625,0.234375 -0.046875,0.421875 0,0.015625 -0.015625,0.078125 -0.015625,0.109375 0,0.046875 0.046875,0.09375 0.109375,0.09375 0.109375,0 0.109375,-0.0625 0.125,-0.15625 L 5.03125,-3.9375 c 0,-0.109375 -0.0625,-0.109375 -0.171875,-0.109375 H 0.96875 c -0.15625,0 -0.171875,0 -0.21875,0.125 l -0.390625,1.09375 c -0.015625,0.0625 -0.015625,0.09375 -0.015625,0.09375 0,0.015625 0,0.09375 0.109375,0.09375 0.078125,0 0.078125,-0.015625 0.140625,-0.171875 0.265625,-0.734375 0.453125,-1 1.21875,-1 h 0.546875 c 0.125,0 0.125,0 0.203125,0.03125 L 1.75,-0.515625 c -0.03125,0.171875 -0.0625,0.21875 -0.234375,0.25 C 1.34375,-0.234375 1,-0.234375 1,-0.234375 c -0.15625,0 -0.171875,0 -0.203125,0.015625 C 0.765625,-0.203125 0.75,-0.109375 0.75,-0.078125 0.75,-0.078125 0.765625,0 0.859375,0 c 0.15625,0 0.34375,-0.015625 0.5,-0.015625 0.25,0 0.40625,-0.015625 0.5625,-0.015625 0.171875,0 0.359375,0.015625 0.53125,0.015625 C 2.640625,-0.015625 2.828125,0 3,0 3.046875,0 3.09375,0 3.109375,-0.046875 3.125,-0.0625 3.140625,-0.125 3.140625,-0.15625 3.125,-0.234375 3.09375,-0.234375 2.90625,-0.234375 2.765625,-0.234375 2.640625,-0.25 2.515625,-0.25 2.375,-0.265625 2.296875,-0.265625 2.296875,-0.359375 Z m 0,0"
               id="path423341" />
          </g>
        </g>
        <g
           clip-path="url(#clipPath2947)"
           clip-rule="nonzero"
           id="g423357">
          <g
             style="fill:#000000;fill-opacity:1"
             id="g423355">
            <g
               id="g423349"
               transform="translate(4.3699999,5.4850001)">
              <path
                 style="stroke:none"
                 d="m 2.875,-1.609375 c 0.03125,-0.109375 0.078125,-0.296875 0.078125,-0.3125 0,-0.09375 -0.0625,-0.1875 -0.1875,-0.1875 -0.078125,0 -0.203125,0.0625 -0.25,0.203125 -0.09375,-0.125 -0.28125,-0.296875 -0.59375,-0.296875 -0.703125,0 -1.40625,0.6875 -1.40625,1.390625 0,0.515625 0.375,0.875 0.875,0.875 0.40625,0 0.734375,-0.296875 0.796875,-0.359375 0.078125,0.25 0.359375,0.359375 0.578125,0.359375 0.203125,0 0.34375,-0.125 0.4375,-0.28125 0.140625,-0.203125 0.203125,-0.46875 0.203125,-0.5 0,-0.0625 -0.078125,-0.0625 -0.109375,-0.0625 -0.078125,0 -0.09375,0.03125 -0.109375,0.109375 -0.09375,0.359375 -0.21875,0.5625 -0.390625,0.5625 -0.140625,0 -0.203125,-0.109375 -0.203125,-0.265625 0,-0.078125 0.046875,-0.265625 0.078125,-0.40625 z M 2.21875,-0.65625 c -0.03125,0.0625 -0.03125,0.078125 -0.109375,0.171875 -0.1875,0.21875 -0.453125,0.375 -0.703125,0.375 -0.171875,0 -0.4375,-0.09375 -0.4375,-0.515625 0,-0.234375 0.125,-0.75 0.296875,-1.015625 0.1875,-0.265625 0.453125,-0.390625 0.65625,-0.390625 0.21875,0 0.4375,0.125 0.515625,0.4375 z m 0,0"
                 id="path423347" />
            </g>
            <g
               id="g423353"
               transform="translate(8.227519,5.4850001)">
              <path
                 style="stroke:none"
                 d="M 1.5625,-3.265625 C 1.59375,-3.34375 1.59375,-3.34375 1.59375,-3.375 c 0,-0.078125 -0.078125,-0.078125 -0.15625,-0.078125 L 0.828125,-3.40625 c -0.09375,0 -0.09375,0 -0.125,0.03125 -0.015625,0.015625 -0.03125,0.078125 -0.03125,0.109375 0,0.078125 0.078125,0.078125 0.140625,0.078125 0.015625,0 0.09375,0 0.171875,0.015625 0.09375,0.015625 0.109375,0.03125 0.109375,0.0625 0,0.03125 -0.0625,0.234375 -0.09375,0.34375 L 0.59375,-1.09375 C 0.5625,-1 0.546875,-0.921875 0.546875,-0.8125 c 0,0.515625 0.375,0.875 0.859375,0.875 0.71875,0 1.40625,-0.703125 1.40625,-1.390625 0,-0.5 -0.359375,-0.875 -0.875,-0.875 -0.21875,0 -0.453125,0.078125 -0.703125,0.265625 z m -0.15625,3.15625 c -0.203125,0 -0.453125,-0.140625 -0.453125,-0.53125 0,-0.171875 0.03125,-0.328125 0.078125,-0.5 0.015625,-0.0625 0.09375,-0.375 0.109375,-0.40625 C 1.15625,-1.59375 1.5,-2.03125 1.921875,-2.03125 c 0.21875,0 0.4375,0.125 0.4375,0.5 0,0.1875 -0.09375,0.65625 -0.25,0.953125 -0.171875,0.28125 -0.453125,0.46875 -0.703125,0.46875 z m 0,0"
                 id="path423351" />
            </g>
          </g>
        </g>
      </g>
    </g>
  </g>
</svg>
