<?xml version="1.0" encoding="UTF-8" standalone="no"?>
<svg
   xmlns:dc="http://purl.org/dc/elements/1.1/"
   xmlns:cc="http://creativecommons.org/ns#"
   xmlns:rdf="http://www.w3.org/1999/02/22-rdf-syntax-ns#"
   xmlns:svg="http://www.w3.org/2000/svg"
   xmlns="http://www.w3.org/2000/svg"
   xmlns:xlink="http://www.w3.org/1999/xlink"
   xmlns:sodipodi="http://sodipodi.sourceforge.net/DTD/sodipodi-0.dtd"
   xmlns:inkscape="http://www.inkscape.org/namespaces/inkscape"
   width="135.91304mm"
   height="125.14791mm"
   viewBox="0 0 135.91304 125.14791"
   version="1.1"
   id="svg55188"
   sodipodi:docname="f21.svg"
   inkscape:version="1.0.2 (e86c870879, 2021-01-15)">
  <defs
     id="defs55182">
    <radialGradient
       inkscape:collect="always"
       xlink:href="#linearGradient25799"
       id="radialGradient26011"
       cx="1746.4071"
       cy="1624.4668"
       fx="1746.4071"
       fy="1624.4668"
       r="137.62534"
       gradientTransform="matrix(0.26458334,0,0,0.2642665,-369.18149,-288.5338)"
       gradientUnits="userSpaceOnUse" />
    <linearGradient
       inkscape:collect="always"
       id="linearGradient25799">
      <stop
         style="stop-color:#eaf7e2;stop-opacity:1"
         offset="0"
         id="stop25795" />
      <stop
         style="stop-color:#aade87;stop-opacity:1"
         offset="1"
         id="stop25797" />
    </linearGradient>
    <marker
       style="overflow:visible"
       id="marker25117"
       refX="0"
       refY="0"
       orient="auto"
       inkscape:stockid="Arrow1Lend"
       inkscape:isstock="true">
      <path
         transform="matrix(-0.8,0,0,-0.8,-10,0)"
         style="fill:#000000;fill-opacity:1;fill-rule:evenodd;stroke:#000000;stroke-width:1pt;stroke-opacity:1"
         d="M 0,0 5,-5 -12.5,0 5,5 Z"
         id="path25115" />
    </marker>
    <marker
       style="overflow:visible"
       id="marker25097"
       refX="0"
       refY="0"
       orient="auto"
       inkscape:stockid="Arrow1Lend"
       inkscape:isstock="true">
      <path
         transform="matrix(-0.8,0,0,-0.8,-10,0)"
         style="fill:#000000;fill-opacity:1;fill-rule:evenodd;stroke:#000000;stroke-width:1pt;stroke-opacity:1"
         d="M 0,0 5,-5 -12.5,0 5,5 Z"
         id="path25095" />
    </marker>
    <marker
       style="overflow:visible"
       id="marker25107"
       refX="0"
       refY="0"
       orient="auto"
       inkscape:stockid="Arrow1Lend"
       inkscape:isstock="true">
      <path
         transform="matrix(-0.8,0,0,-0.8,-10,0)"
         style="fill:#000000;fill-opacity:1;fill-rule:evenodd;stroke:#000000;stroke-width:1pt;stroke-opacity:1"
         d="M 0,0 5,-5 -12.5,0 5,5 Z"
         id="path25105" />
    </marker>
    <marker
       style="overflow:visible"
       id="marker26081"
       refX="0"
       refY="0"
       orient="auto"
       inkscape:stockid="Arrow1Lstart"
       inkscape:isstock="true">
      <path
         transform="matrix(0.8,0,0,0.8,10,0)"
         style="fill:#000000;fill-opacity:1;fill-rule:evenodd;stroke:#000000;stroke-width:1pt;stroke-opacity:1"
         d="M 0,0 5,-5 -12.5,0 5,5 Z"
         id="path26079" />
    </marker>
    <marker
       style="overflow:visible"
       id="marker26091"
       refX="0"
       refY="0"
       orient="auto"
       inkscape:stockid="Arrow1Lend"
       inkscape:isstock="true">
      <path
         transform="matrix(-0.8,0,0,-0.8,-10,0)"
         style="fill:#000000;fill-opacity:1;fill-rule:evenodd;stroke:#000000;stroke-width:1pt;stroke-opacity:1"
         d="M 0,0 5,-5 -12.5,0 5,5 Z"
         id="path26089" />
    </marker>
    <g
       id="g5286">
      <symbol
         overflow="visible"
         id="symbol4555">
        <path
           style="stroke:none;"
           d=""
           id="path6812" />
      </symbol>
      <symbol
         overflow="visible"
         id="symbol5276">
        <path
           style="stroke:none;"
           d="M 4.84375 -3.796875 C 4.890625 -3.9375 4.890625 -3.953125 4.890625 -4.03125 C 4.890625 -4.203125 4.75 -4.296875 4.59375 -4.296875 C 4.5 -4.296875 4.34375 -4.234375 4.25 -4.09375 C 4.234375 -4.03125 4.140625 -3.734375 4.109375 -3.546875 C 4.03125 -3.296875 3.96875 -3.015625 3.90625 -2.75 L 3.453125 -0.953125 C 3.421875 -0.8125 2.984375 -0.109375 2.328125 -0.109375 C 1.828125 -0.109375 1.71875 -0.546875 1.71875 -0.921875 C 1.71875 -1.375 1.890625 -2 2.21875 -2.875 C 2.375 -3.28125 2.421875 -3.390625 2.421875 -3.59375 C 2.421875 -4.03125 2.109375 -4.40625 1.609375 -4.40625 C 0.65625 -4.40625 0.296875 -2.953125 0.296875 -2.875 C 0.296875 -2.765625 0.390625 -2.765625 0.40625 -2.765625 C 0.515625 -2.765625 0.515625 -2.796875 0.5625 -2.953125 C 0.84375 -3.890625 1.234375 -4.1875 1.578125 -4.1875 C 1.65625 -4.1875 1.828125 -4.1875 1.828125 -3.875 C 1.828125 -3.625 1.71875 -3.359375 1.65625 -3.171875 C 1.25 -2.109375 1.078125 -1.546875 1.078125 -1.078125 C 1.078125 -0.1875 1.703125 0.109375 2.296875 0.109375 C 2.6875 0.109375 3.015625 -0.0625 3.296875 -0.34375 C 3.171875 0.171875 3.046875 0.671875 2.65625 1.203125 C 2.390625 1.53125 2.015625 1.828125 1.5625 1.828125 C 1.421875 1.828125 0.96875 1.796875 0.796875 1.40625 C 0.953125 1.40625 1.09375 1.40625 1.21875 1.28125 C 1.328125 1.203125 1.421875 1.0625 1.421875 0.875 C 1.421875 0.5625 1.15625 0.53125 1.0625 0.53125 C 0.828125 0.53125 0.5 0.6875 0.5 1.171875 C 0.5 1.671875 0.9375 2.046875 1.5625 2.046875 C 2.578125 2.046875 3.609375 1.140625 3.890625 0.015625 Z M 4.84375 -3.796875 "
           id="path9267" />
      </symbol>
    </g>
    <g
       id="g3903">
      <symbol
         overflow="visible"
         id="symbol1992">
        <path
           style="stroke:none;"
           d=""
           id="path906" />
      </symbol>
      <symbol
         overflow="visible"
         id="symbol4188">
        <path
           style="stroke:none;"
           d="M 4.84375 -3.796875 C 4.890625 -3.9375 4.890625 -3.953125 4.890625 -4.03125 C 4.890625 -4.203125 4.75 -4.296875 4.59375 -4.296875 C 4.5 -4.296875 4.34375 -4.234375 4.25 -4.09375 C 4.234375 -4.03125 4.140625 -3.734375 4.109375 -3.546875 C 4.03125 -3.296875 3.96875 -3.015625 3.90625 -2.75 L 3.453125 -0.953125 C 3.421875 -0.8125 2.984375 -0.109375 2.328125 -0.109375 C 1.828125 -0.109375 1.71875 -0.546875 1.71875 -0.921875 C 1.71875 -1.375 1.890625 -2 2.21875 -2.875 C 2.375 -3.28125 2.421875 -3.390625 2.421875 -3.59375 C 2.421875 -4.03125 2.109375 -4.40625 1.609375 -4.40625 C 0.65625 -4.40625 0.296875 -2.953125 0.296875 -2.875 C 0.296875 -2.765625 0.390625 -2.765625 0.40625 -2.765625 C 0.515625 -2.765625 0.515625 -2.796875 0.5625 -2.953125 C 0.84375 -3.890625 1.234375 -4.1875 1.578125 -4.1875 C 1.65625 -4.1875 1.828125 -4.1875 1.828125 -3.875 C 1.828125 -3.625 1.71875 -3.359375 1.65625 -3.171875 C 1.25 -2.109375 1.078125 -1.546875 1.078125 -1.078125 C 1.078125 -0.1875 1.703125 0.109375 2.296875 0.109375 C 2.6875 0.109375 3.015625 -0.0625 3.296875 -0.34375 C 3.171875 0.171875 3.046875 0.671875 2.65625 1.203125 C 2.390625 1.53125 2.015625 1.828125 1.5625 1.828125 C 1.421875 1.828125 0.96875 1.796875 0.796875 1.40625 C 0.953125 1.40625 1.09375 1.40625 1.21875 1.28125 C 1.328125 1.203125 1.421875 1.0625 1.421875 0.875 C 1.421875 0.5625 1.15625 0.53125 1.0625 0.53125 C 0.828125 0.53125 0.5 0.6875 0.5 1.171875 C 0.5 1.671875 0.9375 2.046875 1.5625 2.046875 C 2.578125 2.046875 3.609375 1.140625 3.890625 0.015625 Z M 4.84375 -3.796875 "
           id="path7663" />
      </symbol>
    </g>
  </defs>
  <sodipodi:namedview
     id="base"
     pagecolor="#ffffff"
     bordercolor="#666666"
     borderopacity="1.0"
     inkscape:pageopacity="0.0"
     inkscape:pageshadow="2"
     inkscape:zoom="0.98994949"
     inkscape:cx="395.74544"
     inkscape:cy="141.45707"
     inkscape:document-units="mm"
     inkscape:current-layer="layer1"
     inkscape:document-rotation="0"
     showgrid="false"
     inkscape:window-width="958"
     inkscape:window-height="1048"
     inkscape:window-x="1920"
     inkscape:window-y="18"
     inkscape:window-maximized="0" />
  <metadata
     id="metadata55185">
    <rdf:RDF>
      <cc:Work
         rdf:about="">
        <dc:format>image/svg+xml</dc:format>
        <dc:type
           rdf:resource="http://purl.org/dc/dcmitype/StillImage" />
        <dc:title></dc:title>
      </cc:Work>
    </rdf:RDF>
  </metadata>
  <g
     inkscape:label="Capa 1"
     inkscape:groupmode="layer"
     id="layer1"
     transform="translate(-37.876818,-85.592715)">
    <path
       style="fill:none;fill-opacity:1;stroke:#ff0000;stroke-width:1.32292;stroke-linecap:round;stroke-linejoin:round;stroke-miterlimit:4;stroke-dasharray:5.29167, 2.64583, 1.32292, 2.64583;stroke-dashoffset:0;paint-order:markers fill stroke"
       d="M 105.72032,196.85002 V 184.94378"
       id="path25033"
       sodipodi:nodetypes="cc" />
    <g
       inkscape:label=""
       transform="matrix(3.7797281,0,0,3.7797281,-297.79908,-127.05625)"
       id="g25041">
      <g
         id="g25039">
        <g
           style="fill:#000000;fill-opacity:1"
           id="g25037">
          <g
             id="use25035"
             transform="matrix(0.26458333,0,0,0.26458333,91.925003,81.962997)">
            <path
               style="stroke:none"
               d="M 3.328125,-3.015625 C 3.390625,-3.265625 3.625,-4.1875 4.3125,-4.1875 c 0.046875,0 0.296875,0 0.5,0.125 C 4.53125,-4 4.34375,-3.765625 4.34375,-3.515625 c 0,0.15625 0.109375,0.34375 0.375,0.34375 0.21875,0 0.53125,-0.171875 0.53125,-0.578125 0,-0.515625 -0.578125,-0.65625 -0.921875,-0.65625 -0.578125,0 -0.921875,0.53125 -1.046875,0.75 -0.25,-0.65625 -0.78125,-0.75 -1.078125,-0.75 -1.03125,0 -1.609375,1.28125 -1.609375,1.53125 0,0.109375 0.109375,0.109375 0.125,0.109375 0.078125,0 0.109375,-0.03125 0.125,-0.109375 0.34375,-1.0625 1,-1.3125 1.34375,-1.3125 0.1875,0 0.53125,0.09375 0.53125,0.671875 0,0.3125 -0.171875,0.96875 -0.53125,2.375 -0.15625,0.609375 -0.515625,1.03125 -0.953125,1.03125 -0.0625,0 -0.28125,0 -0.5,-0.125 0.25,-0.0625 0.46875,-0.265625 0.46875,-0.546875 0,-0.265625 -0.21875,-0.34375 -0.359375,-0.34375 -0.3125,0 -0.546875,0.25 -0.546875,0.578125 0,0.453125 0.484375,0.65625 0.921875,0.65625 0.671875,0 1.03125,-0.703125 1.046875,-0.75 0.125,0.359375 0.484375,0.75 1.078125,0.75 1.03125,0 1.59375,-1.28125 1.59375,-1.53125 0,-0.109375 -0.078125,-0.109375 -0.109375,-0.109375 -0.09375,0 -0.109375,0.046875 -0.140625,0.109375 -0.328125,1.078125 -1,1.3125 -1.3125,1.3125 -0.390625,0 -0.546875,-0.3125 -0.546875,-0.65625 0,-0.21875 0.046875,-0.4375 0.15625,-0.875 z m 0,0"
               id="path55334" />
          </g>
        </g>
      </g>
    </g>
    <g
       inkscape:label=""
       transform="matrix(3.7797281,0,0,3.7797281,-189.47922,-127.05625)"
       id="g25049">
      <g
         id="g25047">
        <g
           style="fill:#000000;fill-opacity:1"
           id="g25045">
          <g
             id="use25043"
             transform="matrix(0.26458333,0,0,0.26458333,91.925003,81.962997)">
            <path
               style="stroke:none"
               d="m 4.84375,-3.796875 c 0.046875,-0.140625 0.046875,-0.15625 0.046875,-0.234375 0,-0.171875 -0.140625,-0.265625 -0.296875,-0.265625 -0.09375,0 -0.25,0.0625 -0.34375,0.203125 -0.015625,0.0625 -0.109375,0.359375 -0.140625,0.546875 -0.078125,0.25 -0.140625,0.53125 -0.203125,0.796875 l -0.453125,1.796875 c -0.03125,0.140625 -0.46875,0.84375 -1.125,0.84375 -0.5,0 -0.609375,-0.4375 -0.609375,-0.8125 C 1.71875,-1.375 1.890625,-2 2.21875,-2.875 2.375,-3.28125 2.421875,-3.390625 2.421875,-3.59375 c 0,-0.4375 -0.3125,-0.8125 -0.8125,-0.8125 -0.953125,0 -1.3125,1.453125 -1.3125,1.53125 0,0.109375 0.09375,0.109375 0.109375,0.109375 0.109375,0 0.109375,-0.03125 0.15625,-0.1875 0.28125,-0.9375 0.671875,-1.234375 1.015625,-1.234375 0.078125,0 0.25,0 0.25,0.3125 0,0.25 -0.109375,0.515625 -0.171875,0.703125 -0.40625,1.0625 -0.578125,1.625 -0.578125,2.09375 0,0.890625 0.625,1.1875 1.21875,1.1875 0.390625,0 0.71875,-0.171875 1,-0.453125 -0.125,0.515625 -0.25,1.015625 -0.640625,1.546875 -0.265625,0.328125 -0.640625,0.625 -1.09375,0.625 -0.140625,0 -0.59375,-0.03125 -0.765625,-0.421875 0.15625,0 0.296875,0 0.421875,-0.125 C 1.328125,1.203125 1.421875,1.0625 1.421875,0.875 1.421875,0.5625 1.15625,0.53125 1.0625,0.53125 0.828125,0.53125 0.5,0.6875 0.5,1.171875 c 0,0.5 0.4375,0.875 1.0625,0.875 1.015625,0 2.046875,-0.90625 2.328125,-2.03125 z m 0,0"
               id="path55330" />
          </g>
        </g>
      </g>
    </g>
    <g
       inkscape:label=""
       transform="matrix(3.7797281,0,0,3.7797281,-249.4748,-217.05925)"
       id="g25057">
      <g
         id="g25055">
        <g
           style="fill:#000000;fill-opacity:1"
           id="g25053">
          <g
             id="use25051"
             transform="matrix(0.26458333,0,0,0.26458333,91.925003,81.962997)">
            <path
               style="stroke:none"
               d="m 1.328125,-0.828125 c 0.53125,-0.578125 0.828125,-0.828125 1.1875,-1.140625 0,0 0.609375,-0.53125 0.96875,-0.890625 C 4.4375,-3.78125 4.65625,-4.265625 4.65625,-4.3125 c 0,-0.09375 -0.09375,-0.09375 -0.109375,-0.09375 -0.078125,0 -0.09375,0.015625 -0.15625,0.109375 -0.296875,0.484375 -0.5,0.640625 -0.734375,0.640625 -0.25,0 -0.359375,-0.15625 -0.515625,-0.328125 -0.1875,-0.21875 -0.359375,-0.421875 -0.6875,-0.421875 -0.75,0 -1.203125,0.921875 -1.203125,1.140625 0,0.046875 0.03125,0.109375 0.109375,0.109375 0.09375,0 0.109375,-0.046875 0.140625,-0.109375 0.1875,-0.46875 0.765625,-0.46875 0.84375,-0.46875 0.203125,0 0.390625,0.0625 0.625,0.140625 0.40625,0.15625 0.515625,0.15625 0.765625,0.15625 -0.359375,0.421875 -1.1875,1.140625 -1.375,1.296875 l -0.90625,0.84375 C 0.78125,-0.625 0.421875,-0.0625 0.421875,0.015625 c 0,0.09375 0.109375,0.09375 0.125,0.09375 0.078125,0 0.09375,-0.015625 0.15625,-0.125 0.234375,-0.359375 0.53125,-0.625 0.859375,-0.625 0.21875,0 0.328125,0.09375 0.578125,0.375 0.15625,0.21875 0.34375,0.375 0.625,0.375 1,0 1.578125,-1.265625 1.578125,-1.53125 0,-0.046875 -0.046875,-0.109375 -0.125,-0.109375 -0.09375,0 -0.109375,0.0625 -0.140625,0.140625 C 3.84375,-0.75 3.203125,-0.5625 2.875,-0.5625 c -0.1875,0 -0.375,-0.0625 -0.578125,-0.125 -0.34375,-0.125 -0.5,-0.171875 -0.703125,-0.171875 -0.015625,0 -0.171875,0 -0.265625,0.03125 z m 0,0"
               id="path55326" />
          </g>
        </g>
      </g>
    </g>
    <path
       style="fill:none;fill-opacity:1;stroke:#000000;stroke-width:0.264583;stroke-linecap:round;stroke-linejoin:round;stroke-miterlimit:4;stroke-dasharray:none;stroke-dashoffset:0;stroke-opacity:1;paint-order:markers fill stroke"
       id="path25067"
       sodipodi:type="arc"
       sodipodi:cx="105.83333"
       sodipodi:cy="116.41669"
       sodipodi:rx="54.992619"
       sodipodi:ry="54.992619"
       sodipodi:start="1.0471976"
       sodipodi:end="1.1951217"
       sodipodi:open="true"
       sodipodi:arc-type="arc"
       d="m 133.32964,164.04169 a 54.992619,54.992619 0 0 1 -7.31951,3.53245" />
    <path
       style="fill:none;fill-opacity:1;stroke:#000000;stroke-width:0.264583;stroke-linecap:round;stroke-linejoin:round;stroke-miterlimit:4;stroke-dasharray:none;stroke-dashoffset:0;stroke-opacity:1;paint-order:markers fill stroke"
       id="path25071"
       sodipodi:type="arc"
       sodipodi:cx="78.33699"
       sodipodi:cy="164.04169"
       sodipodi:rx="54.992615"
       sodipodi:ry="54.992615"
       sodipodi:start="6.1349712"
       sodipodi:end="0"
       sodipodi:arc-type="arc"
       sodipodi:open="true"
       d="m 132.72669,155.92081 a 54.992615,54.992615 0 0 1 0.60292,8.12088" />
    <circle
       style="fill:none;fill-opacity:1;stroke:#000000;stroke-width:0.264583;stroke-linecap:round;stroke-linejoin:round;stroke-miterlimit:4;stroke-dasharray:none;stroke-dashoffset:0;stroke-opacity:1;paint-order:markers fill stroke"
       id="circle25075"
       cx="105.83333"
       cy="148.16669"
       r="36.661743" />
    <path
       id="path25079"
       style="fill:none;fill-opacity:1;stroke:#000000;stroke-width:0.264583;stroke-linecap:round;stroke-linejoin:round;stroke-miterlimit:4;stroke-dasharray:none;stroke-dashoffset:0;stroke-opacity:1;paint-order:markers fill stroke"
       d="m 125.61039,159.26671 c 0.25723,2.78807 0.39949,5.57546 0.39968,8.30741"
       sodipodi:nodetypes="cc" />
    <path
       style="fill:none;fill-opacity:1;stroke:#000000;stroke-width:0.264583;stroke-linecap:round;stroke-linejoin:round;stroke-miterlimit:4;stroke-dasharray:none;stroke-dashoffset:0;stroke-opacity:1;paint-order:markers fill stroke"
       id="path25081"
       sodipodi:type="arc"
       sodipodi:cx="105.83333"
       sodipodi:cy="107.95001"
       sodipodi:rx="54.992619"
       sodipodi:ry="54.992619"
       sodipodi:start="1.0598765"
       sodipodi:end="1.2027534"
       sodipodi:open="true"
       sodipodi:arc-type="arc"
       d="m 132.72361,155.9198 a 54.992619,54.992619 0 0 1 -7.10448,3.34015" />
    <path
       style="fill:url(#radialGradient26011);fill-opacity:1;stroke:none;stroke-width:0.264583;stroke-linecap:round;stroke-linejoin:round;stroke-miterlimit:4;stroke-dasharray:0.264583, 0.79375;stroke-dashoffset:0;stroke-opacity:1;paint-order:markers fill stroke"
       d="m 100.66365,184.22811 c -11.03186,-1.68267 -20.6093,-8.11827 -26.22003,-17.61866 -7.81296,-13.22935 -6.38934,-30.04891 3.54547,-41.88881 8.65389,-10.31332 22.53615,-15.0287 35.65536,-12.11103 17.68134,3.93231 29.96888,20.42903 28.49303,38.25348 -0.28374,3.42665 -0.76782,5.78829 -1.83705,8.96236 -4.3801,13.00232 -15.8464,22.51083 -29.43043,24.40549 -2.56085,0.35719 -7.85569,0.35571 -10.20635,-0.003 z m 27.0488,-17.12063 c 0.96957,-0.41953 2.68015,-1.23854 3.80132,-1.82002 l 2.03849,-1.05722 -0.11806,-2.90396 c -0.11118,-2.73429 -0.39455,-5.38882 -0.59685,-5.59112 -0.0498,-0.0498 -0.83018,0.29937 -1.73416,0.77599 -0.90395,0.47662 -2.52402,1.24672 -3.60016,1.71135 l -1.95659,0.84482 0.009,1.26775 c 0.0103,1.49728 0.29324,7.5352 0.35311,7.5352 0.0228,0 0.83463,-0.34324 1.8042,-0.76279 z"
       id="path25999" />
    <path
       style="fill:#8dd35f;fill-opacity:1;stroke:none;stroke-width:0.187089;stroke-linecap:round;stroke-linejoin:round;stroke-miterlimit:4;stroke-dasharray:0.187089, 0.561266;stroke-dashoffset:0;stroke-opacity:1;paint-order:markers fill stroke"
       d="m 126.11384,163.89464 c -0.0799,-1.77501 -0.15608,-3.50869 -0.16925,-3.85265 -0.0241,-0.62537 -0.0238,-0.62545 2.2403,-1.60756 1.24537,-0.54017 2.73008,-1.24862 3.29936,-1.57435 l 1.03507,-0.59221 0.12309,0.82076 c 0.17478,1.16552 0.47445,4.9089 0.47807,5.97178 l 0.003,0.89635 -3.21794,1.58258 c -1.76986,0.87043 -3.31436,1.58258 -3.43221,1.58258 -0.14705,0 -0.25982,-1.01216 -0.35954,-3.22728 z"
       id="path26001" />
    <path
       style="fill:none;fill-opacity:1;stroke:#000000;stroke-width:0.264583;stroke-linecap:round;stroke-linejoin:round;stroke-miterlimit:4;stroke-dasharray:0.264583, 0.79375;stroke-dashoffset:0;stroke-opacity:1;paint-order:markers fill stroke"
       id="path25069"
       sodipodi:type="arc"
       sodipodi:cx="105.72038"
       sodipodi:cy="122.76666"
       sodipodi:rx="43.994099"
       sodipodi:ry="43.994099"
       sodipodi:start="1.047297"
       sodipodi:end="1.1953951"
       sodipodi:open="true"
       sodipodi:arc-type="arc"
       d="m 127.71364,160.86886 a 43.994099,43.994099 0 0 1 -5.863,2.82818" />
    <path
       style="fill:none;fill-opacity:1;stroke:#000000;stroke-width:0.264583;stroke-linecap:round;stroke-linejoin:round;stroke-miterlimit:4;stroke-dasharray:0.264583, 0.79375;stroke-dashoffset:0;stroke-opacity:1;paint-order:markers fill stroke"
       id="path25073"
       sodipodi:type="arc"
       sodipodi:cx="83.723251"
       sodipodi:cy="160.8667"
       sodipodi:rx="43.994091"
       sodipodi:ry="43.994091"
       sodipodi:start="6.1357845"
       sodipodi:end="0"
       sodipodi:open="true"
       sodipodi:arc-type="arc"
       d="m 127.24028,154.40539 a 43.994091,43.994091 0 0 1 0.47706,6.46131" />
    <path
       id="path25077"
       style="fill:none;fill-opacity:1;stroke:#000000;stroke-width:0.264583;stroke-linecap:round;stroke-linejoin:round;stroke-miterlimit:4;stroke-dasharray:0.264583, 0.79375;stroke-dashoffset:0;stroke-opacity:1;paint-order:markers fill stroke"
       d="m 121.8506,163.69705 4.04654,3.87707"
       sodipodi:nodetypes="cc" />
    <path
       id="path25083"
       style="fill:none;stroke:#000000;stroke-width:0.264583;stroke-linecap:round;stroke-linejoin:miter;stroke-miterlimit:4;stroke-dasharray:0.264583, 0.79375;stroke-dashoffset:0;stroke-opacity:1"
       d="m 127.24027,154.40538 5.37303,1.51562"
       sodipodi:nodetypes="cc" />
    <path
       id="path25085"
       style="fill:none;fill-opacity:1;stroke:#000000;stroke-width:0.264583;stroke-linecap:round;stroke-linejoin:round;stroke-miterlimit:4;stroke-dasharray:0.264583, 0.79375;stroke-dashoffset:0;stroke-opacity:1;paint-order:markers fill stroke"
       d="m 121.58335,157.06529 3.91699,2.19732" />
    <path
       id="path25087"
       style="fill:none;fill-opacity:1;stroke:#000000;stroke-width:0.264583;stroke-linecap:round;stroke-linejoin:round;stroke-miterlimit:4;stroke-dasharray:0.264583, 0.79375;stroke-dashoffset:0;stroke-opacity:1;paint-order:markers fill stroke"
       d="m 127.71731,160.86664 5.49934,3.17506" />
    <path
       id="path25089"
       style="fill:none;fill-opacity:1;stroke:#000000;stroke-width:0.264583;stroke-linecap:round;stroke-linejoin:round;stroke-miterlimit:4;stroke-dasharray:0.264583, 0.79375;stroke-dashoffset:0;stroke-opacity:1;paint-order:markers fill stroke"
       d="m 121.58335,157.06529 c 0.1784,2.20983 0.2673,4.42741 0.2673,6.63139"
       sodipodi:nodetypes="cc" />
    <path
       style="fill:none;fill-opacity:1;stroke:#000000;stroke-width:0.264583;stroke-linecap:round;stroke-linejoin:round;stroke-miterlimit:4;stroke-dasharray:0.264583, 0.79375;stroke-dashoffset:0;stroke-opacity:1;paint-order:markers fill stroke"
       id="path25091"
       sodipodi:type="arc"
       sodipodi:cx="105.72038"
       sodipodi:cy="116.03098"
       sodipodi:rx="43.994099"
       sodipodi:ry="43.994099"
       sodipodi:start="1.0597169"
       sodipodi:end="1.2018639"
       sodipodi:open="true"
       sodipodi:arc-type="arc"
       d="m 127.23873,154.40339 a 43.994099,43.994099 0 0 1 -5.6532,2.66145" />
    <path
       style="fill:none;fill-opacity:1;stroke:#000000;stroke-width:0.264583;stroke-linecap:round;stroke-linejoin:round;stroke-miterlimit:4;stroke-dasharray:none;marker-end:url(#marker25117);paint-order:markers fill stroke"
       d="M 105.72033,116.41668 V 88.90001"
       id="path25059"
       sodipodi:nodetypes="cc" />
    <path
       style="fill:none;fill-opacity:1;stroke:#000000;stroke-width:0.264583;stroke-linecap:round;stroke-linejoin:round;stroke-miterlimit:4;stroke-dasharray:none;marker-end:url(#marker25097);paint-order:markers fill stroke"
       d="m 78.22402,164.04168 -22.45534,12.9646"
       id="path25093"
       sodipodi:nodetypes="cc" />
    <path
       style="fill:none;fill-opacity:1;stroke:#000000;stroke-width:0.264583;stroke-linecap:round;stroke-linejoin:round;stroke-miterlimit:4;stroke-dasharray:none;marker-end:url(#marker25107);paint-order:markers fill stroke"
       d="m 133.21668,164.04168 22.4553,12.9646"
       id="path25063"
       sodipodi:nodetypes="cc" />
    <path
       style="fill:none;fill-opacity:1;stroke:#ff0000;stroke-width:1.32292;stroke-linecap:round;stroke-linejoin:round;stroke-miterlimit:4;stroke-dasharray:5.29167, 2.64583, 1.32292, 2.64583;stroke-dashoffset:0;paint-order:markers fill stroke"
       d="M 105.72032,116.41669 V 99.48337"
       id="path25061"
       sodipodi:nodetypes="cc" />
    <path
       style="fill:none;fill-opacity:1;stroke:#000000;stroke-width:0.264583;stroke-linecap:round;stroke-linejoin:round;stroke-miterlimit:4;stroke-dasharray:none;stroke-dashoffset:0;paint-order:markers fill stroke"
       d="m 133.21666,128.05834 v -8.46667"
       id="path26059"
       sodipodi:nodetypes="cc" />
    <path
       style="fill:none;fill-opacity:1;stroke:#000000;stroke-width:0.264583;stroke-linecap:round;stroke-linejoin:round;stroke-miterlimit:4;stroke-dasharray:none;stroke-dashoffset:0;paint-order:markers fill stroke"
       d="m 105.72035,112.18334 v -8.46667"
       id="path26061" />
    <path
       style="fill:none;fill-opacity:1;stroke:#000000;stroke-width:0.264583;stroke-linecap:round;stroke-linejoin:round;stroke-miterlimit:4;stroke-dasharray:none;stroke-dashoffset:0;marker-start:url(#marker26081);marker-end:url(#marker26091);paint-order:markers fill stroke"
       d="M 133.21666,123.825 105.72037,107.95"
       id="path26063" />
    <path
       style="fill:none;fill-opacity:1;stroke:#acdf8a;stroke-width:0.529167;stroke-linecap:round;stroke-linejoin:round;stroke-miterlimit:4;stroke-dasharray:none;stroke-dashoffset:0;stroke-opacity:1;paint-order:markers fill stroke"
       d="m 116.03147,113.90313 8.47803,4.89479"
       id="path26065"
       sodipodi:nodetypes="cc" />
    <g
       inkscape:label=""
       transform="matrix(3.7797281,0,0,3.7797281,-232.07607,-189.40999)"
       id="g26073">
      <g
         id="g26071">
        <g
           style="fill:#000000;fill-opacity:1"
           id="g26069">
          <g
             id="use26067"
             transform="matrix(0.26458333,0,0,0.26458333,91.925003,81.962997)">
            <path
               style="stroke:none"
               d="m 3.734375,-6.125 c 0.0625,-0.234375 0.09375,-0.328125 0.28125,-0.359375 C 4.109375,-6.5 4.421875,-6.5 4.625,-6.5 c 0.703125,0 1.8125,0 1.8125,0.984375 0,0.34375 -0.15625,1.03125 -0.546875,1.421875 -0.265625,0.25 -0.78125,0.578125 -1.6875,0.578125 H 3.09375 Z m 1.4375,2.734375 c 1.015625,-0.21875 2.1875,-0.921875 2.1875,-1.921875 0,-0.859375 -0.890625,-1.5 -2.203125,-1.5 H 2.328125 c -0.203125,0 -0.296875,0 -0.296875,0.203125 C 2.03125,-6.5 2.125,-6.5 2.3125,-6.5 c 0.015625,0 0.203125,0 0.375,0.015625 0.1875,0.03125 0.265625,0.03125 0.265625,0.171875 0,0.03125 0,0.0625 -0.03125,0.1875 l -1.34375,5.34375 C 1.484375,-0.390625 1.46875,-0.3125 0.671875,-0.3125 0.5,-0.3125 0.40625,-0.3125 0.40625,-0.109375 0.40625,0 0.53125,0 0.546875,0 c 0.28125,0 0.984375,-0.03125 1.25,-0.03125 0.28125,0 1,0.03125 1.28125,0.03125 0.078125,0 0.1875,0 0.1875,-0.203125 0,-0.109375 -0.078125,-0.109375 -0.28125,-0.109375 -0.359375,0 -0.640625,0 -0.640625,-0.171875 0,-0.0625 0.015625,-0.109375 0.03125,-0.171875 l 0.65625,-2.640625 h 1.1875 c 0.90625,0 1.078125,0.5625 1.078125,0.90625 0,0.140625 -0.078125,0.453125 -0.140625,0.6875 C 5.09375,-1.421875 5,-1.0625 5,-0.859375 5,0.21875 6.203125,0.21875 6.328125,0.21875 c 0.84375,0 1.203125,-1 1.203125,-1.140625 0,-0.125 -0.109375,-0.125 -0.125,-0.125 -0.09375,0 -0.109375,0.0625 -0.125,0.140625 C 7.03125,-0.171875 6.59375,0 6.375,0 6.046875,0 5.96875,-0.21875 5.96875,-0.609375 c 0,-0.3125 0.0625,-0.8125 0.109375,-1.140625 0.015625,-0.140625 0.03125,-0.328125 0.03125,-0.46875 0,-0.765625 -0.671875,-1.078125 -0.9375,-1.171875 z m 0,0"
               id="path55338" />
          </g>
        </g>
      </g>
    </g>
    <path
       style="fill:none;fill-opacity:1;stroke:#000000;stroke-width:0.264583;stroke-linecap:round;stroke-linejoin:round;stroke-miterlimit:4;stroke-dasharray:0.264583, 1.05833;stroke-dashoffset:0;paint-order:markers fill stroke"
       d="M 133.21666,164.04167 V 128.05833"
       id="path26075"
       sodipodi:nodetypes="cc" />
    <path
       style="fill:none;fill-opacity:1;stroke:#000000;stroke-width:0.264583;stroke-linecap:round;stroke-linejoin:round;stroke-miterlimit:4;stroke-dasharray:0.264583, 1.05833;stroke-dashoffset:0;paint-order:markers fill stroke"
       d="m 105.72037,116.41668 v -4.23334"
       id="path26077"
       sodipodi:nodetypes="cc" />
  </g>
</svg>
