<?xml version="1.0" encoding="UTF-8" standalone="no"?>
<svg
   xmlns:dc="http://purl.org/dc/elements/1.1/"
   xmlns:cc="http://creativecommons.org/ns#"
   xmlns:rdf="http://www.w3.org/1999/02/22-rdf-syntax-ns#"
   xmlns:svg="http://www.w3.org/2000/svg"
   xmlns="http://www.w3.org/2000/svg"
   xmlns:xlink="http://www.w3.org/1999/xlink"
   xmlns:sodipodi="http://sodipodi.sourceforge.net/DTD/sodipodi-0.dtd"
   xmlns:inkscape="http://www.inkscape.org/namespaces/inkscape"
   width="135.91304mm"
   height="125.14791mm"
   viewBox="0 0 135.91304 125.14791"
   version="1.1"
   id="svg1443"
   sodipodi:docname="f9.svg"
   inkscape:version="1.0.2 (e86c870879, 2021-01-15)">
  <defs
     id="defs1437">
    <marker
       style="overflow:visible"
       id="marker1762"
       refX="0"
       refY="0"
       orient="auto"
       inkscape:stockid="Arrow1Lend"
       inkscape:isstock="true"
       inkscape:collect="always">
      <path
         transform="matrix(-0.8,0,0,-0.8,-10,0)"
         style="fill:#000000;fill-opacity:1;fill-rule:evenodd;stroke:#000000;stroke-width:1pt;stroke-opacity:1"
         d="M 0,0 5,-5 -12.5,0 5,5 Z"
         id="path1760" />
    </marker>
    <marker
       style="overflow:visible"
       id="marker1772"
       refX="0"
       refY="0"
       orient="auto"
       inkscape:stockid="Arrow1Lend"
       inkscape:isstock="true"
       inkscape:collect="always">
      <path
         transform="matrix(-0.8,0,0,-0.8,-10,0)"
         style="fill:#000000;fill-opacity:1;fill-rule:evenodd;stroke:#000000;stroke-width:1pt;stroke-opacity:1"
         d="M 0,0 5,-5 -12.5,0 5,5 Z"
         id="path1770" />
    </marker>
    <marker
       style="overflow:visible"
       id="marker1782"
       refX="0"
       refY="0"
       orient="auto"
       inkscape:stockid="Arrow1Lend"
       inkscape:isstock="true"
       inkscape:collect="always">
      <path
         transform="matrix(-0.8,0,0,-0.8,-10,0)"
         style="fill:#000000;fill-opacity:1;fill-rule:evenodd;stroke:#000000;stroke-width:1pt;stroke-opacity:1"
         d="M 0,0 5,-5 -12.5,0 5,5 Z"
         id="path1780" />
    </marker>
    <marker
       style="overflow:visible"
       id="marker8917"
       refX="0"
       refY="0"
       orient="auto"
       inkscape:stockid="Arrow1Lstart"
       inkscape:isstock="true"
       inkscape:collect="always">
      <path
         transform="matrix(0.8,0,0,0.8,10,0)"
         style="fill:#000000;fill-opacity:1;fill-rule:evenodd;stroke:#000000;stroke-width:1pt;stroke-opacity:1"
         d="M 0,0 5,-5 -12.5,0 5,5 Z"
         id="path8915" />
    </marker>
    <marker
       style="overflow:visible"
       id="marker9197"
       refX="0"
       refY="0"
       orient="auto"
       inkscape:stockid="Arrow1Lend"
       inkscape:isstock="true"
       inkscape:collect="always">
      <path
         transform="matrix(-0.8,0,0,-0.8,-10,0)"
         style="fill:#000000;fill-opacity:1;fill-rule:evenodd;stroke:#000000;stroke-width:1pt;stroke-opacity:1"
         d="M 0,0 5,-5 -12.5,0 5,5 Z"
         id="path9195" />
    </marker>
    <g
       id="g5624">
      <symbol
         overflow="visible"
         id="symbol8165">
        <path
           style="stroke:none;"
           d=""
           id="path7928" />
      </symbol>
      <symbol
         overflow="visible"
         id="symbol8750">
        <path
           style="stroke:none;"
           d="M 3.734375 -6.125 C 3.796875 -6.359375 3.828125 -6.453125 4.015625 -6.484375 C 4.109375 -6.5 4.421875 -6.5 4.625 -6.5 C 5.328125 -6.5 6.4375 -6.5 6.4375 -5.515625 C 6.4375 -5.171875 6.28125 -4.484375 5.890625 -4.09375 C 5.625 -3.84375 5.109375 -3.515625 4.203125 -3.515625 L 3.09375 -3.515625 Z M 5.171875 -3.390625 C 6.1875 -3.609375 7.359375 -4.3125 7.359375 -5.3125 C 7.359375 -6.171875 6.46875 -6.8125 5.15625 -6.8125 L 2.328125 -6.8125 C 2.125 -6.8125 2.03125 -6.8125 2.03125 -6.609375 C 2.03125 -6.5 2.125 -6.5 2.3125 -6.5 C 2.328125 -6.5 2.515625 -6.5 2.6875 -6.484375 C 2.875 -6.453125 2.953125 -6.453125 2.953125 -6.3125 C 2.953125 -6.28125 2.953125 -6.25 2.921875 -6.125 L 1.578125 -0.78125 C 1.484375 -0.390625 1.46875 -0.3125 0.671875 -0.3125 C 0.5 -0.3125 0.40625 -0.3125 0.40625 -0.109375 C 0.40625 0 0.53125 0 0.546875 0 C 0.828125 0 1.53125 -0.03125 1.796875 -0.03125 C 2.078125 -0.03125 2.796875 0 3.078125 0 C 3.15625 0 3.265625 0 3.265625 -0.203125 C 3.265625 -0.3125 3.1875 -0.3125 2.984375 -0.3125 C 2.625 -0.3125 2.34375 -0.3125 2.34375 -0.484375 C 2.34375 -0.546875 2.359375 -0.59375 2.375 -0.65625 L 3.03125 -3.296875 L 4.21875 -3.296875 C 5.125 -3.296875 5.296875 -2.734375 5.296875 -2.390625 C 5.296875 -2.25 5.21875 -1.9375 5.15625 -1.703125 C 5.09375 -1.421875 5 -1.0625 5 -0.859375 C 5 0.21875 6.203125 0.21875 6.328125 0.21875 C 7.171875 0.21875 7.53125 -0.78125 7.53125 -0.921875 C 7.53125 -1.046875 7.421875 -1.046875 7.40625 -1.046875 C 7.3125 -1.046875 7.296875 -0.984375 7.28125 -0.90625 C 7.03125 -0.171875 6.59375 0 6.375 0 C 6.046875 0 5.96875 -0.21875 5.96875 -0.609375 C 5.96875 -0.921875 6.03125 -1.421875 6.078125 -1.75 C 6.09375 -1.890625 6.109375 -2.078125 6.109375 -2.21875 C 6.109375 -2.984375 5.4375 -3.296875 5.171875 -3.390625 Z M 5.171875 -3.390625 "
           id="path4807" />
      </symbol>
    </g>
  </defs>
  <sodipodi:namedview
     id="base"
     pagecolor="#ffffff"
     bordercolor="#666666"
     borderopacity="1.0"
     inkscape:pageopacity="0.0"
     inkscape:pageshadow="2"
     inkscape:zoom="1.4"
     inkscape:cx="245.47873"
     inkscape:cy="257.95875"
     inkscape:document-units="mm"
     inkscape:current-layer="layer1"
     inkscape:document-rotation="0"
     showgrid="false"
     inkscape:showpageshadow="false"
     fit-margin-top="0"
     fit-margin-left="0"
     fit-margin-right="0"
     fit-margin-bottom="0"
     inkscape:window-width="958"
     inkscape:window-height="1048"
     inkscape:window-x="1920"
     inkscape:window-y="18"
     inkscape:window-maximized="0" />
  <metadata
     id="metadata1440">
    <rdf:RDF>
      <cc:Work
         rdf:about="">
        <dc:format>image/svg+xml</dc:format>
        <dc:type
           rdf:resource="http://purl.org/dc/dcmitype/StillImage" />
        <dc:title></dc:title>
      </cc:Work>
    </rdf:RDF>
  </metadata>
  <g
     inkscape:label="Capa 1"
     inkscape:groupmode="layer"
     id="layer1"
     transform="translate(-54.04859,-97.326449)">
    <path
       style="fill:none;fill-opacity:1;stroke:#ff0000;stroke-width:1.32292;stroke-linecap:round;stroke-linejoin:round;stroke-miterlimit:4;stroke-dasharray:5.29167, 2.64583, 1.32292, 2.64583;stroke-dashoffset:0;paint-order:markers fill stroke"
       d="M 122.00505,208.58374 V 195.35458"
       id="path2543"
       sodipodi:nodetypes="cc" />
    <path
       style="fill:none;fill-opacity:1;stroke:#000000;stroke-width:0.264583;stroke-linecap:round;stroke-linejoin:round;stroke-miterlimit:4;stroke-dasharray:none;stroke-dashoffset:0;paint-order:markers fill stroke"
       id="path2503"
       sodipodi:type="arc"
       sodipodi:cx="116.5058"
       sodipodi:cy="141.90874"
       sodipodi:rx="18.330872"
       sodipodi:ry="18.330872"
       sodipodi:start="3.1415927"
       sodipodi:end="3.9547929"
       sodipodi:open="true"
       sodipodi:arc-type="arc"
       d="m 98.174927,141.90874 a 18.330872,18.330872 0 0 1 5.734313,-13.3172" />
    <path
       style="fill:none;fill-opacity:1;stroke:#000000;stroke-width:0.264583;stroke-linecap:round;stroke-linejoin:round;stroke-miterlimit:4;stroke-dasharray:none;stroke-dashoffset:0;paint-order:markers fill stroke"
       id="path2505"
       sodipodi:type="arc"
       sodipodi:cx="134.83667"
       sodipodi:cy="173.65875"
       sodipodi:rx="18.330872"
       sodipodi:ry="18.330872"
       sodipodi:start="0"
       sodipodi:end="1.0471976"
       sodipodi:open="true"
       sodipodi:arc-type="arc"
       d="m 153.16754,173.65875 a 18.330872,18.330872 0 0 1 -9.16544,15.875" />
    <path
       style="fill:none;fill-opacity:1;stroke:#000000;stroke-width:0.264583;stroke-linecap:round;stroke-linejoin:round;stroke-miterlimit:4;stroke-dasharray:none;stroke-dashoffset:0;paint-order:markers fill stroke"
       id="path2507"
       sodipodi:type="arc"
       sodipodi:cx="98.174927"
       sodipodi:cy="173.65875"
       sodipodi:rx="54.992615"
       sodipodi:ry="54.992615"
       sodipodi:start="5.2359878"
       sodipodi:end="0"
       sodipodi:open="true"
       sodipodi:arc-type="arc"
       d="m 125.67124,126.03375 a 54.992615,54.992615 0 0 1 27.4963,47.625" />
    <path
       style="fill:none;fill-opacity:1;stroke:#000000;stroke-width:0.264583;stroke-linecap:round;stroke-linejoin:round;stroke-miterlimit:4;stroke-dasharray:none;stroke-dashoffset:0;paint-order:markers fill stroke"
       id="path2509"
       sodipodi:type="arc"
       sodipodi:cx="153.16754"
       sodipodi:cy="141.90874"
       sodipodi:rx="54.992615"
       sodipodi:ry="54.992615"
       sodipodi:start="2.0943951"
       sodipodi:end="3.1415927"
       sodipodi:arc-type="arc"
       sodipodi:open="true"
       d="m 125.67123,189.53374 a 54.992615,54.992615 0 0 1 -27.496303,-47.625" />
    <path
       style="fill:none;fill-opacity:1;stroke:#000000;stroke-width:0.264583;stroke-linecap:round;stroke-linejoin:round;stroke-miterlimit:4;stroke-dasharray:none;stroke-dashoffset:0;paint-order:markers fill stroke"
       id="path2511"
       sodipodi:type="arc"
       sodipodi:cx="109.17346"
       sodipodi:cy="146.14207"
       sodipodi:rx="18.330872"
       sodipodi:ry="18.330872"
       sodipodi:start="3.1415927"
       sodipodi:end="5.2359878"
       sodipodi:open="true"
       sodipodi:arc-type="arc"
       d="m 90.84259,146.14207 a 18.330872,18.330872 0 0 1 9.16544,-15.875 18.330872,18.330872 0 0 1 18.33087,0" />
    <path
       style="fill:none;fill-opacity:1;stroke:#000000;stroke-width:0.264583;stroke-linecap:round;stroke-linejoin:round;stroke-miterlimit:4;stroke-dasharray:none;stroke-dashoffset:0;paint-order:markers fill stroke"
       id="path2513"
       sodipodi:type="arc"
       sodipodi:cx="127.50433"
       sodipodi:cy="177.89209"
       sodipodi:rx="18.330872"
       sodipodi:ry="18.330872"
       sodipodi:start="0"
       sodipodi:end="2.0943951"
       sodipodi:open="true"
       sodipodi:arc-type="arc"
       d="m 145.83521,177.89209 a 18.330872,18.330872 0 0 1 -9.16544,15.875 18.330872,18.330872 0 0 1 -18.33087,0" />
    <path
       style="fill:none;fill-opacity:1;stroke:#000000;stroke-width:0.264583;stroke-linecap:round;stroke-linejoin:round;stroke-miterlimit:4;stroke-dasharray:none;stroke-dashoffset:0;paint-order:markers fill stroke"
       id="path2517"
       sodipodi:type="arc"
       sodipodi:cx="145.83521"
       sodipodi:cy="146.14207"
       sodipodi:rx="54.992615"
       sodipodi:ry="54.992615"
       sodipodi:start="2.0943951"
       sodipodi:end="3.1415927"
       sodipodi:arc-type="arc"
       sodipodi:open="true"
       d="M 118.3389,193.76708 A 54.992615,54.992615 0 0 1 90.84259,146.14207" />
    <path
       style="fill:none;fill-opacity:1;stroke:#000000;stroke-width:0.264583;stroke-linecap:round;stroke-linejoin:round;stroke-miterlimit:4;stroke-dasharray:none;stroke-dashoffset:0;paint-order:markers fill stroke"
       id="path2519"
       sodipodi:type="arc"
       sodipodi:cx="116.5058"
       sodipodi:cy="141.90874"
       sodipodi:rx="18.330872"
       sodipodi:ry="18.330872"
       sodipodi:start="4.1887902"
       sodipodi:end="5.2359878"
       sodipodi:open="true"
       sodipodi:arc-type="arc"
       d="m 107.34036,126.03374 a 18.330872,18.330872 0 0 1 18.33087,0" />
    <path
       style="fill:none;fill-opacity:1;stroke:#000000;stroke-width:0.264583;stroke-linecap:round;stroke-linejoin:round;stroke-miterlimit:4;stroke-dasharray:none;stroke-dashoffset:0;paint-order:markers fill stroke"
       id="path2521"
       sodipodi:type="arc"
       sodipodi:cx="134.83667"
       sodipodi:cy="173.65875"
       sodipodi:rx="18.330872"
       sodipodi:ry="18.330872"
       sodipodi:start="1.2818816"
       sodipodi:end="2.0943951"
       sodipodi:open="true"
       sodipodi:arc-type="arc"
       d="m 140.05936,191.22988 a 18.330872,18.330872 0 0 1 -14.38813,-1.69613" />
    <path
       style="fill:none;stroke:#000000;stroke-width:0.264583px;stroke-linecap:butt;stroke-linejoin:miter;stroke-opacity:1"
       d="m 107.34036,126.03374 -7.33235,4.23333"
       id="path2523" />
    <path
       style="fill:none;stroke:#000000;stroke-width:0.264583px;stroke-linecap:butt;stroke-linejoin:miter;stroke-opacity:1"
       d="m 144.00211,189.53374 -7.33235,4.23333"
       id="path2525" />
    <path
       style="fill:none;fill-opacity:1;stroke:#000000;stroke-width:0.264583;stroke-linecap:round;stroke-linejoin:round;stroke-miterlimit:4;stroke-dasharray:none;stroke-dashoffset:0;paint-order:markers fill stroke"
       d="m 114.6084,181.1343 -7.26804,4.16611"
       id="path2527"
       sodipodi:nodetypes="cc" />
    <path
       style="fill:none;fill-opacity:1;stroke:#000000;stroke-width:0.264583;stroke-linecap:round;stroke-linejoin:round;stroke-miterlimit:4;stroke-dasharray:none;stroke-dashoffset:0;paint-order:markers fill stroke"
       d="m 110.04865,176.07306 -7.31732,4.2178"
       id="path2529"
       sodipodi:nodetypes="cc" />
    <path
       style="fill:#c6e9af;fill-opacity:1;stroke:none;stroke-width:0.132292;stroke-linecap:round;stroke-linejoin:round;stroke-miterlimit:4;stroke-dasharray:none;stroke-dashoffset:0;paint-order:markers fill stroke"
       d="m 101.57879,178.3906 c -6.22762,-8.52971 -9.72438,-18.30608 -10.43745,-29.18141 -0.37278,-5.68549 0.45363,-9.27823 3.03034,-13.17415 0.93022,-1.40646 2.99801,-3.56142 4.35461,-4.53818 1.45243,-1.04576 4.40535,-2.5732 4.40535,-2.27874 0,0.0337 -0.36209,0.49248 -0.80465,1.0194 -1.95843,2.33176 -3.35649,5.44723 -3.89621,8.68243 -0.30724,1.84165 -0.20784,7.06425 0.19055,10.01174 1.29015,9.54517 4.8338,18.34252 10.42955,25.89205 0.47394,0.63941 0.83916,1.18458 0.8116,1.21146 -0.12368,0.12069 -6.76248,3.90983 -6.85025,3.90983 -0.0542,0 -0.60924,-0.69949 -1.23344,-1.55443 z"
       id="path2531" />
    <path
       style="fill:#8dd35f;fill-opacity:1;stroke:none;stroke-width:0.132292;stroke-linecap:round;stroke-linejoin:round;stroke-miterlimit:4;stroke-dasharray:none;stroke-dashoffset:0;paint-order:markers fill stroke"
       d="m 105.98994,183.69943 c -0.72287,-0.76281 -1.67826,-1.82691 -2.12308,-2.36468 l -0.80878,-0.97775 0.8959,-0.52143 c 2.16567,-1.26043 6.01122,-3.46242 6.04681,-3.46242 0.0214,0 0.41909,0.46038 0.88363,1.02304 0.46454,0.56267 1.41871,1.61983 2.12039,2.34924 l 1.27577,1.32618 -3.48817,2.00738 -3.48816,2.00736 z"
       id="path2533" />
    <path
       style="fill:#c6e9af;fill-opacity:1;stroke:none;stroke-width:0.132292;stroke-linecap:round;stroke-linejoin:round;stroke-miterlimit:4;stroke-dasharray:none;stroke-dashoffset:0;paint-order:markers fill stroke"
       d="m 126.08268,195.94422 c -3.86825,-0.31316 -6.97076,-1.64009 -11.81327,-5.05248 -2.39852,-1.69017 -6.52766,-5.16379 -6.49612,-5.46481 0.007,-0.0683 1.54373,-1.00627 3.41463,-2.0845 l 3.40162,-1.96041 0.96221,0.91401 c 1.9508,1.85306 4.47862,3.84897 7.0252,5.54692 3.2456,2.16401 5.17342,3.10462 7.73906,3.77597 1.34063,0.3508 1.80425,0.40564 3.90261,0.46162 1.83715,0.049 2.66515,0.0142 3.62376,-0.15225 0.68338,-0.11867 1.25899,-0.19929 1.27914,-0.17914 0.0744,0.0744 -1.62862,1.27166 -2.65394,1.86574 -2.04011,1.18205 -4.84738,2.09388 -6.98083,2.26744 -1.93477,0.15739 -2.17128,0.16169 -3.40407,0.0619 z"
       id="path2537" />
    <path
       style="fill:none;fill-opacity:1;stroke:#000000;stroke-width:0.264583;stroke-linecap:round;stroke-linejoin:round;stroke-miterlimit:4;stroke-dasharray:none;stroke-dashoffset:0;paint-order:markers fill stroke"
       d="m 122.00505,159.90041 23.601,13.62604"
       id="path2539"
       sodipodi:nodetypes="cc" />
    <path
       style="fill:none;fill-opacity:1;stroke:#000000;stroke-width:0.264583;stroke-linecap:round;stroke-linejoin:round;stroke-miterlimit:4;stroke-dasharray:none;stroke-dashoffset:0;paint-order:markers fill stroke"
       d="M 122.00505,159.90041 V 132.38374"
       id="path2541"
       sodipodi:nodetypes="cc" />
    <path
       style="fill:none;fill-opacity:1;stroke:#ff0000;stroke-width:1.32292;stroke-linecap:round;stroke-linejoin:round;stroke-miterlimit:4;stroke-dasharray:5.29167, 2.64583, 1.32292, 2.64583;stroke-dashoffset:0;paint-order:markers fill stroke"
       d="M 122.00505,191.65041 V 132.64833"
       id="path2545"
       sodipodi:nodetypes="cc" />
    <g
       inkscape:label=""
       transform="matrix(3.7674735,0,0,3.7674735,-281.53826,-114.06098)"
       id="g1696">
      <g
         id="g1694">
        <g
           style="fill:#000000;fill-opacity:1"
           id="g1692">
          <g
             id="use1690"
             transform="matrix(0.26458333,0,0,0.26458333,91.925003,81.962997)">
            <path
               style="stroke:none"
               d="M 3.328125,-3.015625 C 3.390625,-3.265625 3.625,-4.1875 4.3125,-4.1875 c 0.046875,0 0.296875,0 0.5,0.125 C 4.53125,-4 4.34375,-3.765625 4.34375,-3.515625 c 0,0.15625 0.109375,0.34375 0.375,0.34375 0.21875,0 0.53125,-0.171875 0.53125,-0.578125 0,-0.515625 -0.578125,-0.65625 -0.921875,-0.65625 -0.578125,0 -0.921875,0.53125 -1.046875,0.75 -0.25,-0.65625 -0.78125,-0.75 -1.078125,-0.75 -1.03125,0 -1.609375,1.28125 -1.609375,1.53125 0,0.109375 0.109375,0.109375 0.125,0.109375 0.078125,0 0.109375,-0.03125 0.125,-0.109375 0.34375,-1.0625 1,-1.3125 1.34375,-1.3125 0.1875,0 0.53125,0.09375 0.53125,0.671875 0,0.3125 -0.171875,0.96875 -0.53125,2.375 -0.15625,0.609375 -0.515625,1.03125 -0.953125,1.03125 -0.0625,0 -0.28125,0 -0.5,-0.125 0.25,-0.0625 0.46875,-0.265625 0.46875,-0.546875 0,-0.265625 -0.21875,-0.34375 -0.359375,-0.34375 -0.3125,0 -0.546875,0.25 -0.546875,0.578125 0,0.453125 0.484375,0.65625 0.921875,0.65625 0.671875,0 1.03125,-0.703125 1.046875,-0.75 0.125,0.359375 0.484375,0.75 1.078125,0.75 1.03125,0 1.59375,-1.28125 1.59375,-1.53125 0,-0.109375 -0.078125,-0.109375 -0.109375,-0.109375 -0.09375,0 -0.109375,0.046875 -0.140625,0.109375 -0.328125,1.078125 -1,1.3125 -1.3125,1.3125 -0.390625,0 -0.546875,-0.3125 -0.546875,-0.65625 0,-0.21875 0.046875,-0.4375 0.15625,-0.875 z m 0,0"
               id="path1593" />
          </g>
        </g>
      </g>
    </g>
    <g
       inkscape:label=""
       transform="matrix(3.7674735,0,0,3.7674735,-172.98397,-114.06098)"
       id="g1704">
      <g
         id="g1702">
        <g
           style="fill:#000000;fill-opacity:1"
           id="g1700">
          <g
             id="use1698"
             transform="matrix(0.26458333,0,0,0.26458333,91.925003,81.962997)">
            <path
               style="stroke:none"
               d="m 4.84375,-3.796875 c 0.046875,-0.140625 0.046875,-0.15625 0.046875,-0.234375 0,-0.171875 -0.140625,-0.265625 -0.296875,-0.265625 -0.09375,0 -0.25,0.0625 -0.34375,0.203125 -0.015625,0.0625 -0.109375,0.359375 -0.140625,0.546875 -0.078125,0.25 -0.140625,0.53125 -0.203125,0.796875 l -0.453125,1.796875 c -0.03125,0.140625 -0.46875,0.84375 -1.125,0.84375 -0.5,0 -0.609375,-0.4375 -0.609375,-0.8125 C 1.71875,-1.375 1.890625,-2 2.21875,-2.875 2.375,-3.28125 2.421875,-3.390625 2.421875,-3.59375 c 0,-0.4375 -0.3125,-0.8125 -0.8125,-0.8125 -0.953125,0 -1.3125,1.453125 -1.3125,1.53125 0,0.109375 0.09375,0.109375 0.109375,0.109375 0.109375,0 0.109375,-0.03125 0.15625,-0.1875 0.28125,-0.9375 0.671875,-1.234375 1.015625,-1.234375 0.078125,0 0.25,0 0.25,0.3125 0,0.25 -0.109375,0.515625 -0.171875,0.703125 -0.40625,1.0625 -0.578125,1.625 -0.578125,2.09375 0,0.890625 0.625,1.1875 1.21875,1.1875 0.390625,0 0.71875,-0.171875 1,-0.453125 -0.125,0.515625 -0.25,1.015625 -0.640625,1.546875 -0.265625,0.328125 -0.640625,0.625 -1.09375,0.625 -0.140625,0 -0.59375,-0.03125 -0.765625,-0.421875 0.15625,0 0.296875,0 0.421875,-0.125 C 1.328125,1.203125 1.421875,1.0625 1.421875,0.875 1.421875,0.5625 1.15625,0.53125 1.0625,0.53125 0.828125,0.53125 0.5,0.6875 0.5,1.171875 c 0,0.5 0.4375,0.875 1.0625,0.875 1.015625,0 2.046875,-0.90625 2.328125,-2.03125 z m 0,0"
               id="path1589" />
          </g>
        </g>
      </g>
    </g>
    <g
       inkscape:label=""
       transform="matrix(3.7674735,0,0,3.7674735,-231.78407,-204.73314)"
       id="g1712">
      <g
         id="g1710">
        <g
           style="fill:#000000;fill-opacity:1"
           id="g1708">
          <g
             id="use1706"
             transform="matrix(0.26458333,0,0,0.26458333,91.925003,81.962997)">
            <path
               style="stroke:none"
               d="m 1.328125,-0.828125 c 0.53125,-0.578125 0.828125,-0.828125 1.1875,-1.140625 0,0 0.609375,-0.53125 0.96875,-0.890625 C 4.4375,-3.78125 4.65625,-4.265625 4.65625,-4.3125 c 0,-0.09375 -0.09375,-0.09375 -0.109375,-0.09375 -0.078125,0 -0.09375,0.015625 -0.15625,0.109375 -0.296875,0.484375 -0.5,0.640625 -0.734375,0.640625 -0.25,0 -0.359375,-0.15625 -0.515625,-0.328125 -0.1875,-0.21875 -0.359375,-0.421875 -0.6875,-0.421875 -0.75,0 -1.203125,0.921875 -1.203125,1.140625 0,0.046875 0.03125,0.109375 0.109375,0.109375 0.09375,0 0.109375,-0.046875 0.140625,-0.109375 0.1875,-0.46875 0.765625,-0.46875 0.84375,-0.46875 0.203125,0 0.390625,0.0625 0.625,0.140625 0.40625,0.15625 0.515625,0.15625 0.765625,0.15625 -0.359375,0.421875 -1.1875,1.140625 -1.375,1.296875 l -0.90625,0.84375 C 0.78125,-0.625 0.421875,-0.0625 0.421875,0.015625 c 0,0.09375 0.109375,0.09375 0.125,0.09375 0.078125,0 0.09375,-0.015625 0.15625,-0.125 0.234375,-0.359375 0.53125,-0.625 0.859375,-0.625 0.21875,0 0.328125,0.09375 0.578125,0.375 0.15625,0.21875 0.34375,0.375 0.625,0.375 1,0 1.578125,-1.265625 1.578125,-1.53125 0,-0.046875 -0.046875,-0.109375 -0.125,-0.109375 -0.09375,0 -0.109375,0.0625 -0.140625,0.140625 C 3.84375,-0.75 3.203125,-0.5625 2.875,-0.5625 c -0.1875,0 -0.375,-0.0625 -0.578125,-0.125 -0.34375,-0.125 -0.5,-0.171875 -0.703125,-0.171875 -0.015625,0 -0.171875,0 -0.265625,0.03125 z m 0,0"
               id="path1585" />
          </g>
        </g>
      </g>
    </g>
    <path
       style="fill:none;fill-opacity:1;stroke:#000000;stroke-width:0.264583;stroke-linecap:round;stroke-linejoin:round;stroke-miterlimit:4;stroke-dasharray:none;marker-end:url(#marker1762);paint-order:markers fill stroke"
       d="M 122.00505,128.15041 V 100.63374"
       id="path1754"
       sodipodi:nodetypes="cc" />
    <path
       style="fill:none;fill-opacity:1;stroke:#000000;stroke-width:0.264583;stroke-linecap:round;stroke-linejoin:round;stroke-miterlimit:4;stroke-dasharray:none;marker-end:url(#marker1772);paint-order:markers fill stroke"
       d="m 122.00505,159.90041 -49.95164,28.8396"
       id="path1746"
       sodipodi:nodetypes="cc" />
    <path
       style="fill:#aade87;fill-opacity:1;stroke:none;stroke-width:0.132292;stroke-linecap:round;stroke-linejoin:round;stroke-miterlimit:4;stroke-dasharray:none;stroke-dashoffset:0;paint-order:markers fill stroke"
       d="m 141.15867,190.42914 c 2.23951,-2.47028 3.78936,-5.5285 4.52952,-8.93782 0.25435,-1.17159 0.29149,-1.72845 0.28404,-4.25827 -0.053,-18.00915 -9.3268,-35.12946 -24.51976,-45.26598 -2.89162,-1.92925 -4.69844,-2.86346 -6.81302,-3.52263 -2.99725,-0.93432 -6.92301,-1.04444 -9.90343,-0.27777 -0.42643,0.10969 -0.79515,0.17961 -0.81938,0.15537 -0.10219,-0.10219 4.73419,-2.77006 5.79296,-3.19553 5.35945,-2.15377 11.18145,-1.66679 16.27898,1.36163 12.76133,7.58146 21.84204,19.78193 25.36262,34.07617 1.07621,4.36962 1.50924,7.86562 1.51573,12.23697 0.004,2.64855 -0.0388,3.43936 -0.23392,4.32528 -0.81722,3.71105 -2.47067,6.77144 -5.05755,9.36103 -0.65738,0.65809 -1.64939,1.50905 -2.20447,1.89107 -0.94938,0.65336 -4.80281,2.94345 -4.95282,2.94345 -0.038,0 0.29525,-0.40183 0.7405,-0.89297 z"
       id="path2535" />
    <path
       style="fill:none;fill-opacity:1;stroke:#000000;stroke-width:0.264583;stroke-linecap:round;stroke-linejoin:round;stroke-miterlimit:4;stroke-dasharray:none;stroke-dashoffset:0;paint-order:markers fill stroke"
       id="path2515"
       sodipodi:type="arc"
       sodipodi:cx="90.84259"
       sodipodi:cy="177.89209"
       sodipodi:rx="54.992615"
       sodipodi:ry="54.992615"
       sodipodi:start="5.2359878"
       sodipodi:end="0"
       sodipodi:open="true"
       sodipodi:arc-type="arc"
       d="m 118.3389,130.26709 a 54.992615,54.992615 0 0 1 27.49631,47.625" />
    <path
       style="fill:none;fill-opacity:1;stroke:#ff0000;stroke-width:1.32292;stroke-linecap:round;stroke-linejoin:round;stroke-miterlimit:4;stroke-dasharray:5.29167, 2.64583, 1.32292, 2.64583;stroke-dashoffset:0;paint-order:markers fill stroke"
       d="M 122.00505,128.15041 V 111.21708"
       id="path2543-6"
       sodipodi:nodetypes="cc" />
    <path
       style="fill:none;fill-opacity:1;stroke:#000000;stroke-width:0.264583;stroke-linecap:round;stroke-linejoin:round;stroke-miterlimit:4;stroke-dasharray:none;marker-end:url(#marker1782);paint-order:markers fill stroke"
       d="m 149.50136,175.77541 22.4553,12.9646"
       id="path1688"
       sodipodi:nodetypes="cc" />
    <path
       style="fill:none;fill-opacity:1;stroke:#000000;stroke-width:0.264583;stroke-linecap:round;stroke-linejoin:round;stroke-miterlimit:4;stroke-dasharray:none;stroke-dashoffset:0;paint-order:markers fill stroke"
       d="m 144.0021,178.95041 -7.33235,4.23333"
       id="path4574" />
    <path
       style="fill:none;fill-opacity:1;stroke:#000000;stroke-width:0.264583;stroke-linecap:round;stroke-linejoin:round;stroke-miterlimit:4;stroke-dasharray:none;stroke-dashoffset:0;marker-start:url(#marker8917);marker-end:url(#marker9197);paint-order:markers fill stroke"
       d="m 140.33593,181.06708 -27.49631,-15.875"
       id="path4576"
       sodipodi:nodetypes="cc" />
    <path
       style="fill:none;fill-opacity:1;stroke:#ffffff;stroke-width:0.529167;stroke-linecap:round;stroke-linejoin:round;stroke-miterlimit:4;stroke-dasharray:none;stroke-dashoffset:0;paint-order:markers fill stroke"
       d="m 122.46333,170.74833 8.70716,5.02708"
       id="path3733-3-6"
       sodipodi:nodetypes="cc" />
    <path
       style="fill:none;fill-opacity:1;stroke:#000000;stroke-width:0.264583;stroke-linecap:round;stroke-linejoin:round;stroke-miterlimit:4;stroke-dasharray:0.264583, 1.05833;stroke-dashoffset:0;paint-order:markers fill stroke"
       d="m 144.0021,178.95041 5.49926,-3.175"
       id="path3729-4-8"
       sodipodi:nodetypes="cc" />
    <g
       inkscape:label=""
       transform="translate(30.628383,94.619593)"
       id="g1719">
      <g
         id="g3327">
        <g
           style="fill:#000000;fill-opacity:1"
           id="g6786">
          <use
             xlink:href="#symbol8750"
             x="91.925003"
             y="81.962997"
             id="use8399"
             width="100%"
             height="100%" />
        </g>
      </g>
    </g>
  </g>
</svg>
