<?xml version="1.0" encoding="UTF-8" standalone="no"?>
<svg
   xmlns:dc="http://purl.org/dc/elements/1.1/"
   xmlns:cc="http://creativecommons.org/ns#"
   xmlns:rdf="http://www.w3.org/1999/02/22-rdf-syntax-ns#"
   xmlns:svg="http://www.w3.org/2000/svg"
   xmlns="http://www.w3.org/2000/svg"
   xmlns:sodipodi="http://sodipodi.sourceforge.net/DTD/sodipodi-0.dtd"
   xmlns:inkscape="http://www.inkscape.org/namespaces/inkscape"
   sodipodi:docname="umss.svg"
   inkscape:version="1.0.2 (e86c870879, 2021-01-15)"
   version="1.1"
   id="svg2"
   height="128"
   width="128">
  <defs
     id="defs4">
    <marker
       inkscape:stockid="Arrow1Sstart"
       orient="auto"
       refY="0.0"
       refX="0.0"
       id="Arrow1Sstart"
       style="overflow:visible">
      <path
         id="path3973"
         d="M 0.0,0.0 L 5.0,-5.0 L -12.5,0.0 L 5.0,5.0 L 0.0,0.0 z "
         style="fill-rule:evenodd;stroke:#000000;stroke-width:1.0pt"
         transform="scale(0.2) translate(6,0)" />
    </marker>
    <marker
       inkscape:stockid="Arrow2Mstart"
       orient="auto"
       refY="0.0"
       refX="0.0"
       id="Arrow2Mstart"
       style="overflow:visible">
      <path
         id="path3985"
         style="fill-rule:evenodd;stroke-width:0.62500000;stroke-linejoin:round"
         d="M 8.7185878,4.0337352 L -2.2072895,0.016013256 L 8.7185884,-4.0017078 C 6.9730900,-1.6296469 6.9831476,1.6157441 8.7185878,4.0337352 z "
         transform="scale(0.6) translate(0,0)" />
    </marker>
    <marker
       inkscape:stockid="Arrow1Lstart"
       orient="auto"
       refY="0.0"
       refX="0.0"
       id="Arrow1Lstart"
       style="overflow:visible">
      <path
         id="path3961"
         d="M 0.0,0.0 L 5.0,-5.0 L -12.5,0.0 L 5.0,5.0 L 0.0,0.0 z "
         style="fill-rule:evenodd;stroke:#000000;stroke-width:1.0pt"
         transform="scale(0.8) translate(12.5,0)" />
    </marker>
  </defs>
  <sodipodi:namedview
     id="base"
     pagecolor="#ffffff"
     bordercolor="#666666"
     borderopacity="1.0"
     inkscape:pageopacity="0.0"
     inkscape:pageshadow="2"
     inkscape:zoom="2.5794479"
     inkscape:cx="119.23739"
     inkscape:cy="89.451233"
     inkscape:document-units="px"
     inkscape:current-layer="layer3"
     showgrid="false"
     inkscape:showpageshadow="false"
     inkscape:window-width="1920"
     inkscape:window-height="1050"
     inkscape:window-x="1920"
     inkscape:window-y="18"
     inkscape:window-maximized="0"
     showguides="true"
     inkscape:guide-bbox="true"
     inkscape:document-rotation="0">
    <inkscape:grid
       type="xygrid"
       id="grid2997"
       empspacing="4"
       visible="true"
       enabled="true"
       snapvisiblegridlinesonly="true"
       originx="0"
       originy="1.6"
       spacingx="8"
       spacingy="8" />
  </sodipodi:namedview>
  <metadata
     id="metadata7">
    <rdf:RDF>
      <cc:Work
         rdf:about="">
        <dc:format>image/svg+xml</dc:format>
        <dc:type
           rdf:resource="http://purl.org/dc/dcmitype/StillImage" />
        <dc:title></dc:title>
      </cc:Work>
    </rdf:RDF>
  </metadata>
  <g
     style="display:inline"
     transform="translate(0,-924.36218)"
     inkscape:label="azul"
     id="g3804"
     inkscape:groupmode="layer" />
  <g
     inkscape:groupmode="layer"
     id="layer2"
     inkscape:label="rojo"
     transform="translate(0,-924.36218)"
     style="display:inline" />
  <g
     inkscape:groupmode="layer"
     id="layer4"
     inkscape:label="letras"
     style="display:inline" />
  <g
     inkscape:groupmode="layer"
     id="layer3"
     inkscape:label="penta"
     style="display:inline">
    <rect
       style="fill:#ffffff;stroke:none;stroke-width:2.00101;stroke-linecap:round;stroke-linejoin:round;stroke-miterlimit:10;paint-order:markers fill stroke"
       id="rect108"
       width="128"
       height="128"
       x="0"
       y="0" />
    <g
       id="g82"
       transform="matrix(0.92497857,0,0,0.92497857,4.4173482,9.5684414)">
      <path
         inkscape:connector-curvature="0"
         id="path3806"
         d="m 17.48167,924.36218 h 93.867 L 64.415168,1052.3629 Z"
         style="display:inline;fill:#000080;stroke:none;stroke-width:1.00893"
         transform="translate(0,-924.36218)" />
      <g
         id="g3819"
         transform="matrix(1.0089249,0,0,1.0089249,-0.15602084,-933.35222)"
         style="display:inline">
        <path
           sodipodi:nodetypes="cccc"
           style="display:inline;fill:#ffffff;fill-opacity:1;fill-rule:evenodd;stroke:none"
           d="m 20,926.76218 88,0.002 -44,119.99812 z"
           id="path3788"
           inkscape:connector-curvature="0" />
        <path
           sodipodi:nodetypes="cccc"
           transform="translate(0,924.36218)"
           inkscape:connector-curvature="0"
           id="path3815"
           d="M 20,2.4039063 37.601563,50.403906 64,32.402344 Z"
           style="fill:#ff0000;stroke:none" />
        <path
           style="fill:#ff0000;stroke:none"
           d="M 108,926.76413 90.398437,974.76609 64,956.76452 Z"
           id="path3817"
           inkscape:connector-curvature="0"
           sodipodi:nodetypes="cccc" />
      </g>
      <path
         style="display:inline;fill:#000080;fill-opacity:1;fill-rule:evenodd;stroke:none;stroke-width:1.00893"
         d="m 41.68283,3.2990429 v 6.7156661 c 0,2.220022 1.821369,4.00417 4.04835,4.00417 h 1.992549 c 2.226981,0 4.04835,-1.784148 4.04835,-4.00417 V 3.2990429 h -3.479051 v 6.652608 c 0,0.02129 8.49e-4,0.04198 0,0.06306 -0.03345,0.830622 -0.739954,1.481858 -1.581387,1.481858 -0.841434,0 -1.516312,-0.651236 -1.54976,-1.481858 v -0.06306 -6.652608 z"
         id="path3772"
         inkscape:connector-curvature="0"
         sodipodi:nodetypes="cssssccscscccc" />
      <path
         style="display:inline;fill:#000080;fill-opacity:1;fill-rule:evenodd;stroke:none;stroke-width:1.00893"
         d="m 53.799243,3.299053 v 10.719826 h 2.826059 V 8.1860327 l 1.648536,5.8328463 h 2.119545 l 1.677973,-5.8328463 v 5.8328463 h 2.82606 V 3.299053 h -3.76808 L 59.33361,10.014709 57.567323,3.299053 Z"
         id="path3790"
         inkscape:connector-curvature="0" />
      <path
         style="display:inline;fill:#000080;stroke:none;stroke-width:1.00893"
         d="m 68.256589,4.2782833 c 1.773749,-1.2860795 4.649564,-1.2860795 6.423314,0 0.851784,0.6175973 1.330313,1.4552387 1.32323,2.328653 0,0 -0.0071,1e-7 -3.332652,1e-7 0,-0.5137054 -0.538259,-0.8614317 -1.202235,-0.8614317 -0.663976,0 -1.256778,0.420687 -1.194235,0.8568619 0.04797,0.3345527 0.690997,0.5507115 2.216965,0.9035234 1.502733,0.3474392 2.195446,0.9007559 2.195446,0.9007559 1.760226,1.2787447 1.760226,3.3638911 -0.01353,4.6499711 -1.77375,1.28608 -4.649565,1.28608 -6.423314,0 -0.851785,-0.617597 -1.330313,-1.455238 -1.323232,-2.328653 0,0 0.0071,0 3.332653,0 0,0.513706 0.538259,0.861431 1.202235,0.861431 0.663976,0 1.256778,-0.420686 1.194236,-0.856861 C 72.6075,10.397981 71.885994,10.119531 70.438503,9.8290103 69.082333,9.5568199 68.243061,8.9282536 68.243061,8.9282536 66.482837,7.6495097 66.482837,5.5643628 68.256591,4.2782833 Z"
         id="path3823"
         inkscape:connector-curvature="0"
         sodipodi:nodetypes="ssccssscssccssscs" />
      <path
         sodipodi:nodetypes="ssccssscssccssscs"
         inkscape:connector-curvature="0"
         id="path3898"
         d="m 79.364076,4.2782833 c 1.773749,-1.2860795 4.649564,-1.2860795 6.423314,0 0.851785,0.6175973 1.330313,1.4552387 1.323231,2.328653 0,0 -0.0071,1e-7 -3.332652,1e-7 0,-0.5137054 -0.53826,-0.8614317 -1.202236,-0.8614317 -0.663976,0 -1.256777,0.420687 -1.194235,0.8568619 0.04798,0.3345527 0.690997,0.5507115 2.216966,0.9035234 1.502732,0.3474392 2.195445,0.9007559 2.195445,0.9007559 1.760227,1.2787447 1.760227,3.3638911 -0.01353,4.6499711 -1.77375,1.28608 -4.649565,1.28608 -6.423314,0 -0.851784,-0.617597 -1.330313,-1.455238 -1.323231,-2.328653 0,0 0.0071,0 3.332652,0 0,0.513706 0.538259,0.861431 1.202235,0.861431 0.663976,0 1.256778,-0.420686 1.194236,-0.856861 C 83.714987,10.397981 82.993481,10.119531 81.545991,9.8290103 80.18982,9.5568199 79.350549,8.9282536 79.350549,8.9282536 77.590324,7.6495097 77.590324,5.5643628 79.364078,4.2782833 Z"
         style="display:inline;fill:#000080;stroke:none;stroke-width:1.00893" />
      <circle
         style="fill:#ffffff;fill-opacity:1;fill-rule:evenodd;stroke:none;stroke-width:0.977319"
         id="path3911"
         cx="64.415169"
         cy="50.090031"
         r="6.2048879" />
      <path
         sodipodi:type="star"
         style="fill:none;stroke:#000080;stroke-width:0.756693;stroke-linecap:round;stroke-linejoin:miter;stroke-miterlimit:4;stroke-dasharray:none;stroke-dashoffset:0;stroke-opacity:1"
         id="path3915"
         sodipodi:sides="5"
         sodipodi:cx="64.409004"
         sodipodi:cy="-50.121483"
         sodipodi:r1="8.126565"
         sodipodi:r2="6.5745296"
         sodipodi:arg1="0.94493075"
         sodipodi:arg2="1.5732493"
         inkscape:flatsided="true"
         inkscape:rounded="0"
         inkscape:randomized="0"
         d="m 69.169538,-43.535257 -9.553321,-0.02343 -2.929852,-9.09299 7.742573,-5.596343 7.715026,5.634259 z"
         inkscape:transform-center-x="-0.006154159"
         inkscape:transform-center-y="0.77016084"
         transform="scale(1,-1)" />
      <path
         transform="scale(1,-1)"
         inkscape:transform-center-y="0.77016088"
         inkscape:transform-center-x="-0.0061541594"
         d="m 68.445556,-44.570711 -4.030392,-2.960998 -4.037895,2.964498 1.570617,-4.748129 -4.067183,-2.924186 5.001087,0.02649 1.524237,-4.771744 1.520225,4.764503 5.009214,-0.02491 -4.061537,2.918132 z"
         inkscape:randomized="0"
         inkscape:rounded="0"
         inkscape:flatsided="false"
         sodipodi:arg2="1.5684178"
         sodipodi:arg1="0.942044"
         sodipodi:r2="2.5897815"
         sodipodi:r1="6.8632956"
         sodipodi:cy="-50.121483"
         sodipodi:cx="64.409004"
         sodipodi:sides="5"
         id="path3937"
         style="fill:none;stroke:#000080;stroke-width:0.756693;stroke-linecap:round;stroke-linejoin:miter;stroke-miterlimit:4;stroke-dasharray:none;stroke-dashoffset:0;stroke-opacity:1"
         sodipodi:type="star" />
      <path
         inkscape:transform-center-y="-0.25161129"
         inkscape:transform-center-x="-0.0020113939"
         d="m 65.968438,52.277312 -3.121104,-0.0077 -0.957193,-2.970712 2.529526,-1.828345 2.520526,1.840733 z"
         inkscape:randomized="0"
         inkscape:rounded="0"
         inkscape:flatsided="true"
         sodipodi:arg2="1.5732493"
         sodipodi:arg1="0.94493075"
         sodipodi:r2="2.147922"
         sodipodi:r1="2.6549773"
         sodipodi:cy="50.125568"
         sodipodi:cx="64.413155"
         sodipodi:sides="5"
         id="path3939"
         style="fill:none;stroke:#000080;stroke-width:0.240038;stroke-linecap:round;stroke-linejoin:miter;stroke-miterlimit:4;stroke-dasharray:none;stroke-dashoffset:0;stroke-opacity:1"
         sodipodi:type="star" />
      <path
         style="fill:none;stroke:#000080;stroke-width:0.756694;stroke-linecap:butt;stroke-linejoin:miter;stroke-miterlimit:4;stroke-dasharray:none;stroke-dashoffset:0;stroke-opacity:1"
         d="M 57.253828,80.670251 72.229296,52.595767"
         id="path3949"
         inkscape:connector-curvature="0"
         sodipodi:nodetypes="cc" />
      <path
         style="fill:none;stroke:#000080;stroke-width:0.756694;stroke-linecap:butt;stroke-linejoin:miter;stroke-miterlimit:4;stroke-dasharray:none;stroke-dashoffset:0;stroke-opacity:1"
         d="M 71.550723,80.568311 56.595925,52.620213"
         id="path3951"
         inkscape:connector-curvature="0"
         sodipodi:nodetypes="cc" />
      <path
         style="fill:none;stroke:#000080;stroke-width:0.756694;stroke-linecap:butt;stroke-linejoin:miter;stroke-miterlimit:4;stroke-dasharray:none;stroke-dashoffset:0;stroke-opacity:1;marker-start:none"
         d="M 64.415168,98.674365 V 58.222956"
         id="path3955"
         inkscape:connector-curvature="0"
         sodipodi:nodetypes="cc" />
      <path
         style="fill:#000080;stroke:none;stroke-width:1.00893"
         d="m 62.884786,98.043652 c 1.134612,0.322741 1.914532,0.309171 3.060764,0 -0.659746,1.271876 -0.945264,1.253086 -1.521613,2.826048 -0.594185,-1.597382 -0.870762,-1.580092 -1.539151,-2.826048 z"
         id="path4961"
         inkscape:connector-curvature="0"
         sodipodi:nodetypes="cccc" />
      <path
         sodipodi:nodetypes="cccc"
         inkscape:connector-curvature="0"
         id="path4965"
         d="m 69.751061,80.656759 c 1.143973,-0.287804 1.812616,-0.68952 2.650699,-1.530382 0.06458,1.431355 -0.192079,1.557835 0.09527,3.208237 -1.313269,-1.086279 -1.54415,-0.933023 -2.745969,-1.677855 z"
         style="fill:#000080;stroke:none;stroke-width:1.00893"
         inkscape:transform-center-y="-1.6085031"
         inkscape:transform-center-x="1.3653894" />
      <path
         inkscape:transform-center-x="-1.3653897"
         inkscape:transform-center-y="-1.6085031"
         style="fill:#000080;stroke:none;stroke-width:1.00893"
         d="m 59.094462,80.656759 c -1.143973,-0.287804 -1.812616,-0.68952 -2.650698,-1.530382 -0.06458,1.431355 0.192079,1.557835 -0.09527,3.208237 1.313269,-1.086279 1.544151,-0.933023 2.745968,-1.677855 z"
         id="path4967"
         inkscape:connector-curvature="0"
         sodipodi:nodetypes="cccc" />
    </g>
  </g>
</svg>
