<?xml version="1.0" encoding="UTF-8" standalone="no"?>
<!-- Created with Inkscape (http://www.inkscape.org/) -->

<svg
   width="224"
   height="128.00002"
   viewBox="0 0 59.266664 33.86667"
   version="1.1"
   id="svg5"
   sodipodi:docname="f70.svg"
   inkscape:version="1.2.1 (9c6d41e410, 2022-07-14)"
   xmlns:inkscape="http://www.inkscape.org/namespaces/inkscape"
   xmlns:sodipodi="http://sodipodi.sourceforge.net/DTD/sodipodi-0.dtd"
   xmlns="http://www.w3.org/2000/svg"
   xmlns:svg="http://www.w3.org/2000/svg">
  <sodipodi:namedview
     id="namedview7"
     pagecolor="#ffffff"
     bordercolor="#000000"
     borderopacity="0.25"
     inkscape:showpageshadow="false"
     inkscape:pageopacity="0.0"
     inkscape:pagecheckerboard="0"
     inkscape:deskcolor="#d1d1d1"
     inkscape:document-units="px"
     showgrid="false"
     inkscape:zoom="1.3238076"
     inkscape:cx="80.44976"
     inkscape:cy="4.9100793"
     inkscape:window-width="1920"
     inkscape:window-height="1050"
     inkscape:window-x="0"
     inkscape:window-y="18"
     inkscape:window-maximized="1"
     inkscape:current-layer="layer1"
     showguides="true">
    <inkscape:grid
       type="xygrid"
       id="grid132"
       spacingx="1.0583333"
       spacingy="1.0583333"
       empspacing="4"
       originx="1.4438228e-12"
       originy="3.7599552e-13" />
    <sodipodi:guide
       position="6.9183172e-13,237.06667"
       orientation="0,-1"
       id="guide43929"
       inkscape:locked="false" />
    <sodipodi:guide
       position="6.9183172e-13,203.2"
       orientation="0,-1"
       id="guide43931"
       inkscape:locked="false" />
    <sodipodi:guide
       position="6.9183172e-13,169.33334"
       orientation="0,-1"
       id="guide43980"
       inkscape:locked="false" />
    <sodipodi:guide
       position="6.9183172e-13,135.46667"
       orientation="0,-1"
       id="guide50670"
       inkscape:locked="false" />
    <sodipodi:guide
       position="6.9183172e-13,101.60001"
       orientation="0,-1"
       id="guide53390"
       inkscape:locked="false" />
    <sodipodi:guide
       position="6.9183172e-13,67.733337"
       orientation="0,-1"
       id="guide56092"
       inkscape:locked="false" />
    <sodipodi:guide
       position="6.9183172e-13,33.866677"
       orientation="0,-1"
       id="guide60236"
       inkscape:locked="false" />
    <sodipodi:guide
       position="59.266664,237.06667"
       orientation="1,0"
       id="guide64322"
       inkscape:locked="false" />
    <sodipodi:guide
       position="93.133327,237.06667"
       orientation="1,0"
       id="guide77000"
       inkscape:locked="false" />
    <sodipodi:guide
       position="127,237.06667"
       orientation="1,0"
       id="guide91126"
       inkscape:locked="false" />
    <sodipodi:guide
       position="110.06666,220.13334"
       orientation="0,-1"
       id="guide94039"
       inkscape:locked="false" />
    <sodipodi:guide
       position="143.93332,161.925"
       orientation="1,0"
       id="guide94041"
       inkscape:locked="false" />
    <sodipodi:guide
       position="160.86666,237.06667"
       orientation="1,0"
       id="guide98266"
       inkscape:locked="false" />
    <sodipodi:guide
       position="110.06666,186.26667"
       orientation="1,0"
       id="guide108765"
       inkscape:locked="false" />
    <sodipodi:guide
       position="110.06666,186.26667"
       orientation="0,-1"
       id="guide108767"
       inkscape:locked="false" />
    <sodipodi:guide
       position="6.9183172e-13,1.2833417e-05"
       orientation="0,-1"
       id="guide305044"
       inkscape:locked="false" />
    <sodipodi:guide
       position="6.9183172e-13,-33.866657"
       orientation="0,-1"
       id="guide74580"
       inkscape:locked="false" />
    <sodipodi:guide
       position="6.9183172e-13,-33.866657"
       orientation="1,0"
       id="guide76758"
       inkscape:locked="false" />
    <sodipodi:guide
       position="6.9183172e-13,-67.733323"
       orientation="0,-1"
       id="guide22879"
       inkscape:locked="false" />
  </sodipodi:namedview>
  <defs
     id="defs2">
    <marker
       style="overflow:visible"
       id="Arrow2"
       refX="0"
       refY="0"
       orient="auto-start-reverse"
       inkscape:stockid="Arrow2"
       markerWidth="7.6999998"
       markerHeight="5.5999999"
       viewBox="0 0 7.7 5.6"
       inkscape:isstock="true"
       inkscape:collect="always"
       preserveAspectRatio="xMidYMid">
      <path
         transform="scale(0.7)"
         d="M -2,-4 9,0 -2,4 c 2,-2.33 2,-5.66 0,-8 z"
         style="fill:context-stroke;fill-rule:evenodd;stroke:none"
         id="arrow2L" />
    </marker>
    <clipPath
       id="clipPath1">
      <path
         d="m 26,5 h 6 v 5.234375 h -6 z m 0,0"
         id="path50995" />
    </clipPath>
    <clipPath
       id="clipPath7172">
      <path
         d="m 29,5 h 6 v 5.234375 h -6 z m 0,0"
         id="path69959" />
    </clipPath>
  </defs>
  <g
     inkscape:label="Capa 1"
     inkscape:groupmode="layer"
     id="layer1"
     transform="translate(0,-203.2)">
    <rect
       style="fill:#ffffff;stroke:none;stroke-width:0.0264583;stroke-linecap:round;stroke-linejoin:round;paint-order:stroke markers fill"
       id="rect70176"
       width="59.266666"
       height="33.866669"
       x="7.5199108e-13"
       y="203.2"
       inkscape:export-filename="f01.svg"
       inkscape:export-xdpi="96"
       inkscape:export-ydpi="96" />
    <g
       id="g169503"
       transform="translate(0,203.19999)">
      <rect
         style="fill:none;stroke:#ff0000;stroke-width:0.264583;stroke-linecap:round;stroke-linejoin:round;paint-order:stroke markers fill"
         id="rect169485"
         width="8.4666662"
         height="8.4666662"
         x="12.7"
         y="12.7" />
      <path
         style="fill:none;stroke:#000000;stroke-width:0.264583;stroke-linecap:round;stroke-linejoin:round;marker-end:url(#Arrow2);paint-order:stroke markers fill"
         d="M 16.933334,12.7 V 4.2333331"
         id="path169487" />
      <path
         style="fill:none;stroke:#000000;stroke-width:0.264583;stroke-linecap:round;stroke-linejoin:round;marker-end:url(#Arrow2);paint-order:stroke markers fill"
         d="m 16.933334,21.457708 v 8.466667"
         id="path169489" />
      <path
         style="fill:none;stroke:#000000;stroke-width:0.264583;stroke-linecap:round;stroke-linejoin:round;marker-end:url(#Arrow2);paint-order:stroke markers fill"
         d="M 10.583334,22.224999 V 13.758333"
         id="path169495" />
      <path
         style="fill:none;stroke:#000000;stroke-width:0.264583;stroke-linecap:round;stroke-linejoin:round;marker-end:url(#Arrow2);paint-order:stroke markers fill"
         d="m 23.283334,11.641667 v 8.466666"
         id="path169497" />
      <path
         style="fill:none;stroke:#000000;stroke-width:0.264583;stroke-linecap:round;stroke-linejoin:round;marker-end:url(#Arrow2);paint-order:stroke markers fill"
         d="M 22.225,10.583333 H 13.758334"
         id="path169499" />
      <path
         style="fill:none;stroke:#000000;stroke-width:0.264583;stroke-linecap:round;stroke-linejoin:round;marker-end:url(#Arrow2);paint-order:stroke markers fill"
         d="m 11.641668,23.283333 h 8.466666"
         id="path169501" />
    </g>
    <g
       inkscape:label=""
       transform="translate(19.835705,207.15772)"
       id="g44115">
      <g
         id="g44113"
         transform="matrix(0.352778,0,0,0.352778,-0.115755,0.046699)">
        <g
           style="fill:#000000;fill-opacity:1"
           id="g44044">
          <g
             id="use60"
             transform="translate(0,7.1100001)">
            <path
               style="stroke:none"
               d="m 4.375,-2.90625 c 0.140625,0 0.203125,0 0.296875,-0.0625 0.078125,-0.078125 0.125,-0.1875 0.125,-0.25 0,-0.21875 -0.203125,-0.21875 -0.34375,-0.21875 H 2.5 c -1.234375,0 -2.171875,1.265625 -2.171875,2.21875 0,0.78125 0.5625,1.296875 1.296875,1.296875 1,0 2.09375,-0.96875 2.09375,-2.15625 C 3.71875,-2.5 3.5625,-2.75 3.484375,-2.90625 Z m -2.734375,2.765625 c -0.40625,0 -0.75,-0.265625 -0.75,-0.84375 0,-0.34375 0.1875,-1.921875 1.46875,-1.921875 0.78125,0 0.78125,0.59375 0.78125,0.75 0,0.828125 -0.5625,2.015625 -1.5,2.015625 z m 0,0"
               id="path44041" />
          </g>
        </g>
        <g
           style="fill:#000000;fill-opacity:1"
           id="g44050">
          <g
             id="g44048"
             transform="translate(4.8390002,8.1070004)">
            <path
               style="stroke:none"
               d="m 3.5625,-2.296875 c 0.015625,-0.046875 0.015625,-0.0625 0.015625,-0.078125 0,-0.078125 -0.046875,-0.203125 -0.203125,-0.203125 -0.109375,0 -0.203125,0.0625 -0.25,0.15625 -0.03125,0.03125 -0.0625,0.21875 -0.09375,0.328125 l -0.3125,1.25 c -0.046875,0.171875 -0.0625,0.265625 -0.3125,0.484375 -0.0625,0.0625 -0.25,0.21875 -0.515625,0.21875 -0.4375,0 -0.4375,-0.390625 -0.4375,-0.5 0,-0.25 0.078125,-0.53125 0.34375,-1.1875 0.046875,-0.140625 0.0625,-0.1875 0.0625,-0.296875 0,-0.328125 -0.296875,-0.515625 -0.59375,-0.515625 -0.609375,0 -0.90625,0.796875 -0.90625,0.921875 0,0.03125 0.03125,0.078125 0.109375,0.078125 0.09375,0 0.109375,-0.03125 0.125,-0.078125 C 0.765625,-2.296875 1.078125,-2.4375 1.25,-2.4375 c 0.109375,0 0.15625,0.078125 0.15625,0.21875 0,0.125 -0.078125,0.328125 -0.140625,0.484375 -0.21875,0.53125 -0.28125,0.796875 -0.28125,1.015625 0,0.5625 0.421875,0.78125 0.890625,0.78125 0.078125,0 0.359375,0 0.6875,-0.28125 -0.078125,0.328125 -0.140625,0.5625 -0.421875,0.875 -0.109375,0.125 -0.375,0.359375 -0.734375,0.359375 -0.0625,0 -0.3125,0 -0.453125,-0.15625 C 1.21875,0.8125 1.25,0.578125 1.25,0.53125 1.25,0.359375 1.125,0.296875 1,0.296875 c -0.140625,0 -0.34375,0.125 -0.34375,0.390625 0,0.296875 0.28125,0.53125 0.75,0.53125 C 2.046875,1.21875 2.8125,0.75 2.984375,0 Z m 0,0"
               id="path44046" />
          </g>
        </g>
        <g
           style="fill:#000000;fill-opacity:1"
           id="g70">
          <g
             id="use68"
             transform="translate(11.689,7.1100001)">
            <path
               style="stroke:none"
               d="m 5.828125,-2.65625 c 0.109375,0 0.28125,0 0.28125,-0.1875 0,-0.171875 -0.203125,-0.171875 -0.3125,-0.171875 H 0.78125 c -0.125,0 -0.3125,0 -0.3125,0.171875 0,0.1875 0.15625,0.1875 0.28125,0.1875 z m -0.03125,1.6875 c 0.109375,0 0.3125,0 0.3125,-0.171875 0,-0.1875 -0.171875,-0.1875 -0.28125,-0.1875 H 0.75 c -0.125,0 -0.28125,0 -0.28125,0.1875 0,0.171875 0.1875,0.171875 0.3125,0.171875 z m 0,0"
               id="path44052" />
          </g>
        </g>
        <g
           style="fill:#000000;fill-opacity:1"
           id="g44072">
          <g
             id="g44058"
             transform="translate(21.823,3.852)">
            <path
               style="stroke:none"
               d="m 1.765625,-1.984375 c 0.5,0 0.84375,0.34375 0.84375,0.953125 0,0.65625 -0.390625,0.9375 -0.828125,0.9375 C 1.609375,-0.09375 1,-0.125 0.734375,-0.46875 0.96875,-0.5 1.0625,-0.65625 1.0625,-0.8125 c 0,-0.203125 -0.140625,-0.34375 -0.34375,-0.34375 -0.15625,0 -0.34375,0.109375 -0.34375,0.359375 0,0.59375 0.65625,0.921875 1.421875,0.921875 0.890625,0 1.46875,-0.5625 1.46875,-1.15625 0,-0.4375 -0.328125,-0.90625 -1.046875,-1.078125 0.484375,-0.15625 0.859375,-0.546875 0.859375,-1.03125 0,-0.484375 -0.5625,-0.84375 -1.28125,-0.84375 -0.703125,0 -1.234375,0.328125 -1.234375,0.8125 0,0.265625 0.203125,0.328125 0.328125,0.328125 0.15625,0 0.3125,-0.09375 0.3125,-0.3125 0,-0.1875 -0.125,-0.296875 -0.296875,-0.3125 0.28125,-0.3125 0.828125,-0.3125 0.890625,-0.3125 0.296875,0 0.6875,0.140625 0.6875,0.640625 0,0.328125 -0.1875,0.90625 -0.796875,0.9375 -0.109375,0 -0.265625,0.015625 -0.3125,0.015625 -0.0625,0.015625 -0.125,0.015625 -0.125,0.109375 0,0.09375 0.0625,0.09375 0.15625,0.09375 z m 0,0"
               id="path44056" />
          </g>
          <g
             id="g44062"
             transform="translate(25.47591,3.852)">
            <path
               style="stroke:none"
               d="m 3.296875,-1.90625 c 0,-0.4375 0,-2.078125 -1.46875,-2.078125 -1.46875,0 -1.46875,1.640625 -1.46875,2.078125 0,0.421875 0,2.03125 1.46875,2.03125 1.46875,0 1.46875,-1.609375 1.46875,-2.03125 z m -1.46875,1.84375 c -0.25,0 -0.65625,-0.125 -0.8125,-0.625 -0.09375,-0.34375 -0.09375,-0.921875 -0.09375,-1.296875 0,-0.40625 0,-0.859375 0.09375,-1.1875 0.140625,-0.53125 0.59375,-0.609375 0.8125,-0.609375 0.265625,0 0.671875,0.125 0.796875,0.578125 0.09375,0.3125 0.09375,0.75 0.09375,1.21875 0,0.375 0,0.984375 -0.09375,1.3125 C 2.453125,-0.140625 2.015625,-0.0625 1.828125,-0.0625 Z m 0,0"
               id="path44060" />
          </g>
          <g
             id="g44066"
             transform="translate(29.128822,3.852)">
            <path
               style="stroke:none"
               d="m 3.296875,-1.90625 c 0,-0.4375 0,-2.078125 -1.46875,-2.078125 -1.46875,0 -1.46875,1.640625 -1.46875,2.078125 0,0.421875 0,2.03125 1.46875,2.03125 1.46875,0 1.46875,-1.609375 1.46875,-2.03125 z m -1.46875,1.84375 c -0.25,0 -0.65625,-0.125 -0.8125,-0.625 -0.09375,-0.34375 -0.09375,-0.921875 -0.09375,-1.296875 0,-0.40625 0,-0.859375 0.09375,-1.1875 0.140625,-0.53125 0.59375,-0.609375 0.8125,-0.609375 0.265625,0 0.671875,0.125 0.796875,0.578125 0.09375,0.3125 0.09375,0.75 0.09375,1.21875 0,0.375 0,0.984375 -0.09375,1.3125 C 2.453125,-0.140625 2.015625,-0.0625 1.828125,-0.0625 Z m 0,0"
               id="path44064" />
          </g>
          <g
             id="g44070"
             transform="translate(32.781734,3.852)">
            <path
               style="stroke:none"
               d="m 3.296875,-1.90625 c 0,-0.4375 0,-2.078125 -1.46875,-2.078125 -1.46875,0 -1.46875,1.640625 -1.46875,2.078125 0,0.421875 0,2.03125 1.46875,2.03125 1.46875,0 1.46875,-1.609375 1.46875,-2.03125 z m -1.46875,1.84375 c -0.25,0 -0.65625,-0.125 -0.8125,-0.625 -0.09375,-0.34375 -0.09375,-0.921875 -0.09375,-1.296875 0,-0.40625 0,-0.859375 0.09375,-1.1875 0.140625,-0.53125 0.59375,-0.609375 0.8125,-0.609375 0.265625,0 0.671875,0.125 0.796875,0.578125 0.09375,0.3125 0.09375,0.75 0.09375,1.21875 0,0.375 0,0.984375 -0.09375,1.3125 C 2.453125,-0.140625 2.015625,-0.0625 1.828125,-0.0625 Z m 0,0"
               id="path44068" />
          </g>
        </g>
        <path
           style="fill:none;stroke:#000000;stroke-width:0.359;stroke-linecap:butt;stroke-linejoin:miter;stroke-miterlimit:10;stroke-opacity:1"
           d="M 0.00121875,8.125e-4 H 14.610594"
           transform="matrix(1,0,0,-1,21.823,5.118)"
           id="path44074" />
        <g
           clip-path="url(#clipPath1)"
           clip-rule="nonzero"
           id="g88">
          <g
             style="fill:#000000;fill-opacity:1"
             id="g44080">
            <g
               id="g44078"
               transform="translate(26.367001,10.236)">
              <path
                 style="stroke:none"
                 d="m 1.359375,-0.734375 c -0.234375,0.34375 -0.4375,0.46875 -0.765625,0.5 -0.09375,0 -0.15625,0 -0.15625,0.140625 C 0.4375,-0.03125 0.484375,0 0.515625,0 0.6875,0 0.890625,-0.03125 1.0625,-0.03125 1.203125,-0.03125 1.5625,0 1.703125,0 c 0.0625,0 0.125,-0.03125 0.125,-0.15625 0,-0.078125 -0.078125,-0.078125 -0.09375,-0.078125 C 1.578125,-0.25 1.453125,-0.28125 1.453125,-0.40625 c 0,-0.078125 0.0625,-0.1875 0.078125,-0.21875 l 0.5,-0.734375 h 1.796875 l 0.15625,0.96875 c 0,0.15625 -0.34375,0.15625 -0.40625,0.15625 -0.078125,0 -0.171875,0 -0.171875,0.140625 C 3.40625,-0.0625 3.4375,0 3.5,0 c 0.1875,0 0.625,-0.03125 0.796875,-0.03125 0.125,0 0.234375,0.015625 0.359375,0.015625 C 4.78125,-0.015625 4.90625,0 5.015625,0 5.0625,0 5.15625,0 5.15625,-0.15625 c 0,-0.078125 -0.078125,-0.078125 -0.171875,-0.078125 -0.375,0 -0.375,-0.046875 -0.40625,-0.203125 L 3.984375,-4.109375 C 3.96875,-4.21875 3.96875,-4.265625 3.828125,-4.265625 c -0.125,0 -0.15625,0.046875 -0.21875,0.125 z M 2.1875,-1.59375 3.484375,-3.546875 3.78125,-1.59375 Z m 0,0"
                 id="path44076" />
            </g>
          </g>
        </g>
        <g
           style="fill:#000000;fill-opacity:1"
           id="g44095">
          <g
             id="g44085"
             transform="translate(39.042,7.1100001)">
            <path
               style="stroke:none"
               d="m 2.9375,-3.15625 c -0.234375,0.0625 -0.265625,0.25 -0.265625,0.34375 0,0.21875 0.15625,0.375 0.375,0.375 0.21875,0 0.375,-0.140625 0.375,-0.390625 0,-0.484375 -0.53125,-0.71875 -1.28125,-0.71875 -1.109375,0 -1.859375,0.875 -1.859375,1.828125 0,1.015625 0.828125,1.796875 1.828125,1.796875 1.125,0 1.40625,-0.9375 1.40625,-1.03125 0,-0.09375 -0.109375,-0.09375 -0.125,-0.09375 -0.0625,0 -0.09375,0 -0.125,0.078125 -0.046875,0.171875 -0.28125,0.796875 -1.078125,0.796875 -0.484375,0 -1.203125,-0.375 -1.203125,-1.5625 0,-1.140625 0.59375,-1.578125 1.171875,-1.578125 0.078125,0 0.5,0 0.78125,0.15625 z m 0,0"
               id="path44083" />
          </g>
          <g
             id="g44089"
             transform="translate(42.805481,7.1100001)">
            <path
               style="stroke:none"
               d="m 3.984375,-1.703125 c 0,-0.984375 -0.828125,-1.84375 -1.875,-1.84375 -1.046875,0 -1.875,0.859375 -1.875,1.84375 0,1 0.859375,1.78125 1.875,1.78125 1.03125,0 1.875,-0.78125 1.875,-1.78125 z m -1.875,1.53125 C 1.6875,-0.171875 1.34375,-0.375 1.171875,-0.65625 0.96875,-0.984375 0.953125,-1.375 0.953125,-1.765625 c 0,-0.3125 0,-0.78125 0.234375,-1.125 0.21875,-0.28125 0.546875,-0.4375 0.921875,-0.4375 0.421875,0 0.765625,0.203125 0.9375,0.46875 0.21875,0.34375 0.234375,0.765625 0.234375,1.09375 0,0.359375 -0.015625,0.796875 -0.25,1.140625 -0.203125,0.3125 -0.5625,0.453125 -0.921875,0.453125 z m 0,0"
               id="path44087" />
          </g>
          <g
             id="g44093"
             transform="translate(47.039993,7.1100001)">
            <path
               style="stroke:none"
               d="m 2.84375,-3.34375 c 0,-0.125 0,-0.203125 -0.109375,-0.203125 -0.046875,0 -0.0625,0 -0.1875,0.125 -0.015625,0 -0.09375,0.078125 -0.109375,0.078125 -0.015625,0 -0.03125,0 -0.078125,-0.03125 C 2.234375,-3.46875 2,-3.546875 1.640625,-3.546875 c -1.109375,0 -1.359375,0.59375 -1.359375,0.984375 0,0.390625 0.296875,0.625 0.3125,0.65625 0.328125,0.234375 0.5,0.265625 1.046875,0.359375 0.375,0.078125 0.984375,0.1875 0.984375,0.71875 0,0.3125 -0.203125,0.6875 -0.9375,0.6875 -0.8125,0 -1.046875,-0.625 -1.140625,-1.046875 C 0.515625,-1.296875 0.5,-1.328125 0.40625,-1.328125 c -0.125,0 -0.125,0.0625 -0.125,0.21875 V -0.125 c 0,0.125 0,0.203125 0.09375,0.203125 0.0625,0 0.0625,0 0.203125,-0.15625 C 0.625,-0.125 0.703125,-0.21875 0.75,-0.265625 c 0.359375,0.328125 0.734375,0.34375 0.9375,0.34375 1.015625,0 1.359375,-0.578125 1.359375,-1.109375 0,-0.375 -0.21875,-0.9375 -1.171875,-1.109375 -0.0625,-0.015625 -0.515625,-0.09375 -0.546875,-0.09375 -0.25,-0.0625 -0.625,-0.234375 -0.625,-0.546875 0,-0.234375 0.1875,-0.578125 0.9375,-0.578125 0.890625,0 0.9375,0.65625 0.953125,0.875 0,0.0625 0.0625,0.09375 0.109375,0.09375 0.140625,0 0.140625,-0.0625 0.140625,-0.203125 z m 0,0"
               id="path44091" />
          </g>
        </g>
        <g
           style="fill:#000000;fill-opacity:1"
           id="g44105">
          <g
             id="g44099"
             transform="translate(51.790974,7.1100001)">
            <path
               style="stroke:none"
               d="m 2.015625,-2.65625 c 0.625,0 1.03125,0.453125 1.03125,1.296875 0,1 -0.5625,1.28125 -0.984375,1.28125 -0.4375,0 -1.046875,-0.15625 -1.328125,-0.578125 0.296875,0 0.5,-0.1875 0.5,-0.4375 0,-0.265625 -0.1875,-0.4375 -0.453125,-0.4375 -0.203125,0 -0.4375,0.125 -0.4375,0.453125 0,0.75 0.8125,1.25 1.734375,1.25 C 3.125,0.171875 3.875,-0.5625 3.875,-1.359375 3.875,-2.03125 3.34375,-2.625 2.53125,-2.8125 c 0.625,-0.21875 1.109375,-0.75 1.109375,-1.390625 0,-0.640625 -0.71875,-1.09375 -1.546875,-1.09375 -0.859375,0 -1.5,0.453125 -1.5,1.0625 0,0.296875 0.1875,0.421875 0.40625,0.421875 0.25,0 0.40625,-0.171875 0.40625,-0.40625 0,-0.296875 -0.265625,-0.40625 -0.4375,-0.40625 0.34375,-0.4375 0.953125,-0.46875 1.09375,-0.46875 0.203125,0 0.8125,0.0625 0.8125,0.890625 0,0.546875 -0.234375,0.890625 -0.34375,1.015625 -0.234375,0.25 -0.421875,0.265625 -0.90625,0.296875 -0.15625,0 -0.21875,0.015625 -0.21875,0.125 0,0.109375 0.078125,0.109375 0.21875,0.109375 z m 0,0"
               id="path44097" />
          </g>
          <g
             id="g44103"
             transform="translate(56.025486,7.1100001)">
            <path
               style="stroke:none"
               d="m 3.890625,-2.546875 c 0,-0.84375 -0.078125,-1.359375 -0.34375,-1.875 -0.34375,-0.703125 -1,-0.875 -1.4375,-0.875 -1,0 -1.375,0.75 -1.484375,0.96875 -0.28125,0.578125 -0.296875,1.375 -0.296875,1.78125 0,0.53125 0.015625,1.328125 0.40625,1.96875 0.359375,0.59375 0.953125,0.75 1.375,0.75 0.390625,0 1.0625,-0.125 1.46875,-0.90625 0.296875,-0.578125 0.3125,-1.296875 0.3125,-1.8125 z M 2.109375,-0.0625 C 1.84375,-0.0625 1.296875,-0.1875 1.125,-1.015625 1.03125,-1.46875 1.03125,-2.21875 1.03125,-2.640625 1.03125,-3.1875 1.03125,-3.75 1.125,-4.1875 1.296875,-5 1.90625,-5.078125 2.109375,-5.078125 c 0.265625,0 0.828125,0.140625 0.984375,0.859375 0.09375,0.4375 0.09375,1.046875 0.09375,1.578125 0,0.46875 0,1.1875 -0.09375,1.640625 -0.171875,0.828125 -0.71875,0.9375 -0.984375,0.9375 z m 0,0"
               id="path44101" />
          </g>
        </g>
        <g
           style="fill:#000000;fill-opacity:1"
           id="g44111">
          <g
             id="g44109"
             transform="translate(60.259998,4.2979999)">
            <path
               style="stroke:none"
               d="m 3.265625,-1.5 c 0,-0.75 -0.609375,-1.359375 -1.359375,-1.359375 -0.734375,0 -1.34375,0.609375 -1.34375,1.359375 0,0.765625 0.609375,1.359375 1.34375,1.359375 0.75,0 1.359375,-0.59375 1.359375,-1.359375 z M 1.90625,-0.453125 C 1.328125,-0.453125 0.875,-0.90625 0.875,-1.5 c 0,-0.578125 0.453125,-1.046875 1.03125,-1.046875 0.578125,0 1.046875,0.46875 1.046875,1.046875 0,0.59375 -0.46875,1.046875 -1.046875,1.046875 z m 0,0"
               id="path44107" />
          </g>
        </g>
      </g>
    </g>
    <g
       inkscape:label=""
       transform="translate(25.082983,224.77831)"
       id="g48826">
      <g
         id="g48824"
         transform="matrix(0.352778,0,0,0.352778,-0.0826823,0.046699)">
        <g
           style="fill:#000000;fill-opacity:1"
           id="g48749">
          <g
             id="g48747"
             transform="translate(0,7.1100001)">
            <path
               style="stroke:none"
               d="m 2.5,-2.90625 h 1.421875 c 0.140625,0 0.21875,0 0.296875,-0.0625 0.09375,-0.09375 0.125,-0.1875 0.125,-0.25 0,-0.21875 -0.203125,-0.21875 -0.328125,-0.21875 h -2.40625 c -0.171875,0 -0.484375,0 -0.875,0.390625 -0.28125,0.28125 -0.5,0.640625 -0.5,0.703125 0,0.078125 0.046875,0.09375 0.109375,0.09375 C 0.4375,-2.25 0.453125,-2.265625 0.5,-2.328125 0.890625,-2.90625 1.359375,-2.90625 1.53125,-2.90625 h 0.6875 l -0.6875,2.203125 C 1.484375,-0.515625 1.375,-0.1875 1.375,-0.15625 c 0,0.1875 0.171875,0.25 0.265625,0.25 0.296875,0 0.34375,-0.28125 0.375,-0.390625 z m 0,0"
               id="path48745" />
          </g>
        </g>
        <g
           style="fill:#000000;fill-opacity:1"
           id="g48759">
          <g
             id="g48753"
             transform="translate(3.7579999,8.1070004)">
            <path
               style="stroke:none"
               d="m 3.375,-2.359375 c -0.21875,0.0625 -0.265625,0.234375 -0.265625,0.328125 0,0.1875 0.15625,0.234375 0.234375,0.234375 0.1875,0 0.359375,-0.140625 0.359375,-0.375 0,-0.328125 -0.359375,-0.46875 -0.65625,-0.46875 -0.40625,0 -0.640625,0.3125 -0.703125,0.421875 -0.078125,-0.15625 -0.3125,-0.421875 -0.765625,-0.421875 -0.6875,0 -1.09375,0.71875 -1.09375,0.921875 0,0.03125 0.03125,0.078125 0.109375,0.078125 0.09375,0 0.109375,-0.03125 0.125,-0.078125 0.15625,-0.484375 0.5625,-0.71875 0.84375,-0.71875 0.296875,0 0.390625,0.1875 0.390625,0.390625 0,0.0625 0,0.125 -0.046875,0.3125 -0.140625,0.546875 -0.265625,1.09375 -0.296875,1.171875 -0.09375,0.21875 -0.3125,0.421875 -0.5625,0.421875 -0.03125,0 -0.203125,0 -0.34375,-0.09375 C 0.9375,-0.3125 0.96875,-0.5 0.96875,-0.546875 c 0,-0.15625 -0.125,-0.234375 -0.25,-0.234375 -0.15625,0 -0.34375,0.125 -0.34375,0.375 0,0.34375 0.375,0.46875 0.65625,0.46875 0.34375,0 0.59375,-0.234375 0.703125,-0.421875 0.125,0.25 0.40625,0.421875 0.75,0.421875 0.703125,0 1.09375,-0.734375 1.09375,-0.921875 0,-0.015625 0,-0.09375 -0.109375,-0.09375 -0.078125,0 -0.09375,0.046875 -0.109375,0.109375 C 3.1875,-0.328125 2.765625,-0.140625 2.5,-0.140625 c -0.21875,0 -0.375,-0.125 -0.375,-0.375 0,-0.125 0.015625,-0.25 0.078125,-0.453125 L 2.390625,-1.75 c 0.0625,-0.234375 0.09375,-0.34375 0.21875,-0.484375 C 2.6875,-2.328125 2.84375,-2.4375 3.03125,-2.4375 c 0.03125,0 0.203125,0 0.34375,0.078125 z m 0,0"
               id="path48751" />
          </g>
          <g
             id="g48757"
             transform="translate(7.9297671,8.1070004)">
            <path
               style="stroke:none"
               d="m 3.5625,-2.296875 c 0.015625,-0.046875 0.015625,-0.0625 0.015625,-0.078125 0,-0.078125 -0.046875,-0.203125 -0.203125,-0.203125 -0.109375,0 -0.203125,0.0625 -0.25,0.15625 -0.03125,0.03125 -0.0625,0.21875 -0.09375,0.328125 l -0.3125,1.25 c -0.046875,0.171875 -0.0625,0.265625 -0.3125,0.484375 -0.0625,0.0625 -0.25,0.21875 -0.515625,0.21875 -0.4375,0 -0.4375,-0.390625 -0.4375,-0.5 0,-0.25 0.078125,-0.53125 0.34375,-1.1875 0.046875,-0.140625 0.0625,-0.1875 0.0625,-0.296875 0,-0.328125 -0.296875,-0.515625 -0.59375,-0.515625 -0.609375,0 -0.90625,0.796875 -0.90625,0.921875 0,0.03125 0.03125,0.078125 0.109375,0.078125 0.09375,0 0.109375,-0.03125 0.125,-0.078125 C 0.765625,-2.296875 1.078125,-2.4375 1.25,-2.4375 c 0.109375,0 0.15625,0.078125 0.15625,0.21875 0,0.125 -0.078125,0.328125 -0.140625,0.484375 -0.21875,0.53125 -0.28125,0.796875 -0.28125,1.015625 0,0.5625 0.421875,0.78125 0.890625,0.78125 0.078125,0 0.359375,0 0.6875,-0.28125 -0.078125,0.328125 -0.140625,0.5625 -0.421875,0.875 -0.109375,0.125 -0.375,0.359375 -0.734375,0.359375 -0.0625,0 -0.3125,0 -0.453125,-0.15625 C 1.21875,0.8125 1.25,0.578125 1.25,0.53125 1.25,0.359375 1.125,0.296875 1,0.296875 c -0.140625,0 -0.34375,0.125 -0.34375,0.390625 0,0.296875 0.28125,0.53125 0.75,0.53125 C 2.046875,1.21875 2.8125,0.75 2.984375,0 Z m 0,0"
               id="path48755" />
          </g>
        </g>
        <g
           style="fill:#000000;fill-opacity:1"
           id="g48765">
          <g
             id="g48763"
             transform="translate(14.779,7.1100001)">
            <path
               style="stroke:none"
               d="m 5.828125,-2.65625 c 0.109375,0 0.28125,0 0.28125,-0.1875 0,-0.171875 -0.203125,-0.171875 -0.3125,-0.171875 H 0.78125 c -0.125,0 -0.3125,0 -0.3125,0.171875 0,0.1875 0.15625,0.1875 0.28125,0.1875 z m -0.03125,1.6875 c 0.109375,0 0.3125,0 0.3125,-0.171875 0,-0.1875 -0.171875,-0.1875 -0.28125,-0.1875 H 0.75 c -0.125,0 -0.28125,0 -0.28125,0.1875 0,0.171875 0.1875,0.171875 0.3125,0.171875 z m 0,0"
               id="path48761" />
          </g>
        </g>
        <g
           style="fill:#000000;fill-opacity:1"
           id="g48783">
          <g
             id="g48769"
             transform="translate(24.914,3.852)">
            <path
               style="stroke:none"
               d="m 1.765625,-1.984375 c 0.5,0 0.84375,0.34375 0.84375,0.953125 0,0.65625 -0.390625,0.9375 -0.828125,0.9375 C 1.609375,-0.09375 1,-0.125 0.734375,-0.46875 0.96875,-0.5 1.0625,-0.65625 1.0625,-0.8125 c 0,-0.203125 -0.140625,-0.34375 -0.34375,-0.34375 -0.15625,0 -0.34375,0.109375 -0.34375,0.359375 0,0.59375 0.65625,0.921875 1.421875,0.921875 0.890625,0 1.46875,-0.5625 1.46875,-1.15625 0,-0.4375 -0.328125,-0.90625 -1.046875,-1.078125 0.484375,-0.15625 0.859375,-0.546875 0.859375,-1.03125 0,-0.484375 -0.5625,-0.84375 -1.28125,-0.84375 -0.703125,0 -1.234375,0.328125 -1.234375,0.8125 0,0.265625 0.203125,0.328125 0.328125,0.328125 0.15625,0 0.3125,-0.09375 0.3125,-0.3125 0,-0.1875 -0.125,-0.296875 -0.296875,-0.3125 0.28125,-0.3125 0.828125,-0.3125 0.890625,-0.3125 0.296875,0 0.6875,0.140625 0.6875,0.640625 0,0.328125 -0.1875,0.90625 -0.796875,0.9375 -0.109375,0 -0.265625,0.015625 -0.3125,0.015625 -0.0625,0.015625 -0.125,0.015625 -0.125,0.109375 0,0.09375 0.0625,0.09375 0.15625,0.09375 z m 0,0"
               id="path48767" />
          </g>
          <g
             id="g48773"
             transform="translate(28.566912,3.852)">
            <path
               style="stroke:none"
               d="m 3.296875,-1.90625 c 0,-0.4375 0,-2.078125 -1.46875,-2.078125 -1.46875,0 -1.46875,1.640625 -1.46875,2.078125 0,0.421875 0,2.03125 1.46875,2.03125 1.46875,0 1.46875,-1.609375 1.46875,-2.03125 z m -1.46875,1.84375 c -0.25,0 -0.65625,-0.125 -0.8125,-0.625 -0.09375,-0.34375 -0.09375,-0.921875 -0.09375,-1.296875 0,-0.40625 0,-0.859375 0.09375,-1.1875 0.140625,-0.53125 0.59375,-0.609375 0.8125,-0.609375 0.265625,0 0.671875,0.125 0.796875,0.578125 0.09375,0.3125 0.09375,0.75 0.09375,1.21875 0,0.375 0,0.984375 -0.09375,1.3125 C 2.453125,-0.140625 2.015625,-0.0625 1.828125,-0.0625 Z m 0,0"
               id="path48771" />
          </g>
          <g
             id="g48777"
             transform="translate(32.219822,3.852)">
            <path
               style="stroke:none"
               d="m 3.296875,-1.90625 c 0,-0.4375 0,-2.078125 -1.46875,-2.078125 -1.46875,0 -1.46875,1.640625 -1.46875,2.078125 0,0.421875 0,2.03125 1.46875,2.03125 1.46875,0 1.46875,-1.609375 1.46875,-2.03125 z m -1.46875,1.84375 c -0.25,0 -0.65625,-0.125 -0.8125,-0.625 -0.09375,-0.34375 -0.09375,-0.921875 -0.09375,-1.296875 0,-0.40625 0,-0.859375 0.09375,-1.1875 0.140625,-0.53125 0.59375,-0.609375 0.8125,-0.609375 0.265625,0 0.671875,0.125 0.796875,0.578125 0.09375,0.3125 0.09375,0.75 0.09375,1.21875 0,0.375 0,0.984375 -0.09375,1.3125 C 2.453125,-0.140625 2.015625,-0.0625 1.828125,-0.0625 Z m 0,0"
               id="path48775" />
          </g>
          <g
             id="g48781"
             transform="translate(35.872734,3.852)">
            <path
               style="stroke:none"
               d="m 3.296875,-1.90625 c 0,-0.4375 0,-2.078125 -1.46875,-2.078125 -1.46875,0 -1.46875,1.640625 -1.46875,2.078125 0,0.421875 0,2.03125 1.46875,2.03125 1.46875,0 1.46875,-1.609375 1.46875,-2.03125 z m -1.46875,1.84375 c -0.25,0 -0.65625,-0.125 -0.8125,-0.625 -0.09375,-0.34375 -0.09375,-0.921875 -0.09375,-1.296875 0,-0.40625 0,-0.859375 0.09375,-1.1875 0.140625,-0.53125 0.59375,-0.609375 0.8125,-0.609375 0.265625,0 0.671875,0.125 0.796875,0.578125 0.09375,0.3125 0.09375,0.75 0.09375,1.21875 0,0.375 0,0.984375 -0.09375,1.3125 C 2.453125,-0.140625 2.015625,-0.0625 1.828125,-0.0625 Z m 0,0"
               id="path48779" />
          </g>
        </g>
        <path
           style="fill:none;stroke:#000000;stroke-width:0.359;stroke-linecap:butt;stroke-linejoin:miter;stroke-miterlimit:10;stroke-opacity:1"
           d="M 6.25e-5,8.125e-4 H 14.613344"
           transform="matrix(1,0,0,-1,24.914,5.118)"
           id="path87" />
        <g
           clip-path="url(#clipPath7172)"
           clip-rule="nonzero"
           id="g48792">
          <g
             style="fill:#000000;fill-opacity:1"
             id="g48790">
            <g
               id="g48788"
               transform="translate(29.458,10.236)">
              <path
                 style="stroke:none"
                 d="m 1.359375,-0.734375 c -0.234375,0.34375 -0.4375,0.46875 -0.765625,0.5 -0.09375,0 -0.15625,0 -0.15625,0.140625 C 0.4375,-0.03125 0.484375,0 0.515625,0 0.6875,0 0.890625,-0.03125 1.0625,-0.03125 1.203125,-0.03125 1.5625,0 1.703125,0 c 0.0625,0 0.125,-0.03125 0.125,-0.15625 0,-0.078125 -0.078125,-0.078125 -0.09375,-0.078125 C 1.578125,-0.25 1.453125,-0.28125 1.453125,-0.40625 c 0,-0.078125 0.0625,-0.1875 0.078125,-0.21875 l 0.5,-0.734375 h 1.796875 l 0.15625,0.96875 c 0,0.15625 -0.34375,0.15625 -0.40625,0.15625 -0.078125,0 -0.171875,0 -0.171875,0.140625 C 3.40625,-0.0625 3.4375,0 3.5,0 c 0.1875,0 0.625,-0.03125 0.796875,-0.03125 0.125,0 0.234375,0.015625 0.359375,0.015625 C 4.78125,-0.015625 4.90625,0 5.015625,0 5.0625,0 5.15625,0 5.15625,-0.15625 c 0,-0.078125 -0.078125,-0.078125 -0.171875,-0.078125 -0.375,0 -0.375,-0.046875 -0.40625,-0.203125 L 3.984375,-4.109375 C 3.96875,-4.21875 3.96875,-4.265625 3.828125,-4.265625 c -0.125,0 -0.15625,0.046875 -0.21875,0.125 z M 2.1875,-1.59375 3.484375,-3.546875 3.78125,-1.59375 Z m 0,0"
                 id="path48786" />
            </g>
          </g>
        </g>
        <g
           style="fill:#000000;fill-opacity:1"
           id="g48806">
          <g
             id="g48796"
             transform="translate(42.132,7.1100001)">
            <path
               style="stroke:none"
               d="m 2.84375,-3.34375 c 0,-0.125 0,-0.203125 -0.109375,-0.203125 -0.046875,0 -0.0625,0 -0.1875,0.125 -0.015625,0 -0.09375,0.078125 -0.109375,0.078125 -0.015625,0 -0.03125,0 -0.078125,-0.03125 C 2.234375,-3.46875 2,-3.546875 1.640625,-3.546875 c -1.109375,0 -1.359375,0.59375 -1.359375,0.984375 0,0.390625 0.296875,0.625 0.3125,0.65625 0.328125,0.234375 0.5,0.265625 1.046875,0.359375 0.375,0.078125 0.984375,0.1875 0.984375,0.71875 0,0.3125 -0.203125,0.6875 -0.9375,0.6875 -0.8125,0 -1.046875,-0.625 -1.140625,-1.046875 C 0.515625,-1.296875 0.5,-1.328125 0.40625,-1.328125 c -0.125,0 -0.125,0.0625 -0.125,0.21875 V -0.125 c 0,0.125 0,0.203125 0.09375,0.203125 0.0625,0 0.0625,0 0.203125,-0.15625 C 0.625,-0.125 0.703125,-0.21875 0.75,-0.265625 c 0.359375,0.328125 0.734375,0.34375 0.9375,0.34375 1.015625,0 1.359375,-0.578125 1.359375,-1.109375 0,-0.375 -0.21875,-0.9375 -1.171875,-1.109375 -0.0625,-0.015625 -0.515625,-0.09375 -0.546875,-0.09375 -0.25,-0.0625 -0.625,-0.234375 -0.625,-0.546875 0,-0.234375 0.1875,-0.578125 0.9375,-0.578125 0.890625,0 0.9375,0.65625 0.953125,0.875 0,0.0625 0.0625,0.09375 0.109375,0.09375 0.140625,0 0.140625,-0.0625 0.140625,-0.203125 z m 0,0"
               id="path48794" />
          </g>
          <g
             id="g48800"
             transform="translate(45.472267,7.1100001)">
            <path
               style="stroke:none"
               d="m 3.296875,-1.8125 c 0.171875,0 0.21875,0 0.21875,-0.1875 C 3.515625,-2.703125 3.125,-3.546875 2,-3.546875 c -0.984375,0 -1.765625,0.8125 -1.765625,1.796875 0,1.03125 0.859375,1.828125 1.875,1.828125 1,0 1.40625,-0.84375 1.40625,-1.03125 0,-0.03125 -0.03125,-0.109375 -0.125,-0.109375 -0.09375,0 -0.109375,0.046875 -0.125,0.09375 -0.28125,0.78125 -0.96875,0.796875 -1.109375,0.796875 -0.359375,0 -0.734375,-0.15625 -0.96875,-0.53125 C 0.953125,-1.0625 0.953125,-1.578125 0.953125,-1.8125 Z M 0.953125,-2.03125 C 1.03125,-3.140625 1.703125,-3.328125 2,-3.328125 c 0.9375,0 0.96875,1.125 0.96875,1.296875 z m 0,0"
               id="path48798" />
          </g>
          <g
             id="g48804"
             transform="translate(49.235748,7.1100001)">
            <path
               style="stroke:none"
               d="m 3.875,-2.421875 c 0,-0.65625 -0.3125,-1.09375 -1.140625,-1.09375 -0.796875,0 -1.15625,0.578125 -1.25,0.765625 v -0.765625 l -1.15625,0.09375 v 0.265625 c 0.546875,0 0.609375,0.046875 0.609375,0.4375 V -0.625 c 0,0.359375 -0.09375,0.359375 -0.609375,0.359375 V 0 c 0.34375,-0.03125 0.6875,-0.03125 0.90625,-0.03125 0.234375,0 0.5625,0 0.90625,0.03125 v -0.265625 c -0.5,0 -0.609375,0 -0.609375,-0.359375 v -1.4375 c 0,-0.84375 0.640625,-1.234375 1.125,-1.234375 0.484375,0 0.609375,0.34375 0.609375,0.84375 V -0.625 c 0,0.359375 -0.09375,0.359375 -0.609375,0.359375 V 0 C 3,-0.03125 3.359375,-0.03125 3.5625,-0.03125 c 0.234375,0 0.578125,0 0.921875,0.03125 v -0.265625 c -0.515625,0 -0.609375,0 -0.609375,-0.359375 z m 0,0"
               id="path48802" />
          </g>
        </g>
        <g
           style="fill:#000000;fill-opacity:1"
           id="g48816">
          <g
             id="g48810"
             transform="translate(55.351208,7.1100001)">
            <path
               style="stroke:none"
               d="m 2.015625,-2.65625 c 0.625,0 1.03125,0.453125 1.03125,1.296875 0,1 -0.5625,1.28125 -0.984375,1.28125 -0.4375,0 -1.046875,-0.15625 -1.328125,-0.578125 0.296875,0 0.5,-0.1875 0.5,-0.4375 0,-0.265625 -0.1875,-0.4375 -0.453125,-0.4375 -0.203125,0 -0.4375,0.125 -0.4375,0.453125 0,0.75 0.8125,1.25 1.734375,1.25 C 3.125,0.171875 3.875,-0.5625 3.875,-1.359375 3.875,-2.03125 3.34375,-2.625 2.53125,-2.8125 c 0.625,-0.21875 1.109375,-0.75 1.109375,-1.390625 0,-0.640625 -0.71875,-1.09375 -1.546875,-1.09375 -0.859375,0 -1.5,0.453125 -1.5,1.0625 0,0.296875 0.1875,0.421875 0.40625,0.421875 0.25,0 0.40625,-0.171875 0.40625,-0.40625 0,-0.296875 -0.265625,-0.40625 -0.4375,-0.40625 0.34375,-0.4375 0.953125,-0.46875 1.09375,-0.46875 0.203125,0 0.8125,0.0625 0.8125,0.890625 0,0.546875 -0.234375,0.890625 -0.34375,1.015625 -0.234375,0.25 -0.421875,0.265625 -0.90625,0.296875 -0.15625,0 -0.21875,0.015625 -0.21875,0.125 0,0.109375 0.078125,0.109375 0.21875,0.109375 z m 0,0"
               id="path48808" />
          </g>
          <g
             id="g48814"
             transform="translate(59.585724,7.1100001)">
            <path
               style="stroke:none"
               d="m 3.890625,-2.546875 c 0,-0.84375 -0.078125,-1.359375 -0.34375,-1.875 -0.34375,-0.703125 -1,-0.875 -1.4375,-0.875 -1,0 -1.375,0.75 -1.484375,0.96875 -0.28125,0.578125 -0.296875,1.375 -0.296875,1.78125 0,0.53125 0.015625,1.328125 0.40625,1.96875 0.359375,0.59375 0.953125,0.75 1.375,0.75 0.390625,0 1.0625,-0.125 1.46875,-0.90625 0.296875,-0.578125 0.3125,-1.296875 0.3125,-1.8125 z M 2.109375,-0.0625 C 1.84375,-0.0625 1.296875,-0.1875 1.125,-1.015625 1.03125,-1.46875 1.03125,-2.21875 1.03125,-2.640625 1.03125,-3.1875 1.03125,-3.75 1.125,-4.1875 1.296875,-5 1.90625,-5.078125 2.109375,-5.078125 c 0.265625,0 0.828125,0.140625 0.984375,0.859375 0.09375,0.4375 0.09375,1.046875 0.09375,1.578125 0,0.46875 0,1.1875 -0.09375,1.640625 -0.171875,0.828125 -0.71875,0.9375 -0.984375,0.9375 z m 0,0"
               id="path48812" />
          </g>
        </g>
        <g
           style="fill:#000000;fill-opacity:1"
           id="g48822">
          <g
             id="g48820"
             transform="translate(63.820999,4.2979999)">
            <path
               style="stroke:none"
               d="m 3.265625,-1.5 c 0,-0.75 -0.609375,-1.359375 -1.359375,-1.359375 -0.734375,0 -1.34375,0.609375 -1.34375,1.359375 0,0.765625 0.609375,1.359375 1.34375,1.359375 0.75,0 1.359375,-0.59375 1.359375,-1.359375 z M 1.90625,-0.453125 C 1.328125,-0.453125 0.875,-0.90625 0.875,-1.5 c 0,-0.578125 0.453125,-1.046875 1.03125,-1.046875 0.578125,0 1.046875,0.46875 1.046875,1.046875 0,0.59375 -0.46875,1.046875 -1.046875,1.046875 z m 0,0"
               id="path48818" />
          </g>
        </g>
      </g>
    </g>
  </g>
</svg>
