<?xml version="1.0" encoding="UTF-8" standalone="no"?>
<!-- Created with Inkscape (http://www.inkscape.org/) -->

<svg
   width="128.00002"
   height="128.00002"
   viewBox="0 0 33.866669 33.86667"
   version="1.1"
   id="svg5"
   sodipodi:docname="f71.svg"
   inkscape:version="1.2.1 (9c6d41e410, 2022-07-14)"
   xmlns:inkscape="http://www.inkscape.org/namespaces/inkscape"
   xmlns:sodipodi="http://sodipodi.sourceforge.net/DTD/sodipodi-0.dtd"
   xmlns="http://www.w3.org/2000/svg"
   xmlns:svg="http://www.w3.org/2000/svg">
  <sodipodi:namedview
     id="namedview7"
     pagecolor="#ffffff"
     bordercolor="#000000"
     borderopacity="0.25"
     inkscape:showpageshadow="false"
     inkscape:pageopacity="0.0"
     inkscape:pagecheckerboard="0"
     inkscape:deskcolor="#d1d1d1"
     inkscape:document-units="px"
     showgrid="false"
     inkscape:zoom="1.3238076"
     inkscape:cx="105.37785"
     inkscape:cy="81.205157"
     inkscape:window-width="1920"
     inkscape:window-height="1050"
     inkscape:window-x="0"
     inkscape:window-y="18"
     inkscape:window-maximized="1"
     inkscape:current-layer="layer1"
     showguides="true">
    <inkscape:grid
       type="xygrid"
       id="grid132"
       spacingx="1.0583333"
       spacingy="1.0583333"
       empspacing="4"
       originx="1.4438228e-12"
       originy="3.7599552e-13" />
    <sodipodi:guide
       position="-59.266663,237.06667"
       orientation="0,-1"
       id="guide43929"
       inkscape:locked="false" />
    <sodipodi:guide
       position="-59.266663,203.2"
       orientation="0,-1"
       id="guide43931"
       inkscape:locked="false" />
    <sodipodi:guide
       position="-59.266663,169.33334"
       orientation="0,-1"
       id="guide43980"
       inkscape:locked="false" />
    <sodipodi:guide
       position="-59.266663,135.46667"
       orientation="0,-1"
       id="guide50670"
       inkscape:locked="false" />
    <sodipodi:guide
       position="-59.266663,101.60001"
       orientation="0,-1"
       id="guide53390"
       inkscape:locked="false" />
    <sodipodi:guide
       position="-59.266663,67.733337"
       orientation="0,-1"
       id="guide56092"
       inkscape:locked="false" />
    <sodipodi:guide
       position="-59.266663,33.866677"
       orientation="0,-1"
       id="guide60236"
       inkscape:locked="false" />
    <sodipodi:guide
       position="1.1464958e-06,237.06667"
       orientation="1,0"
       id="guide64322"
       inkscape:locked="false" />
    <sodipodi:guide
       position="33.866664,237.06667"
       orientation="1,0"
       id="guide77000"
       inkscape:locked="false" />
    <sodipodi:guide
       position="67.733337,237.06667"
       orientation="1,0"
       id="guide91126"
       inkscape:locked="false" />
    <sodipodi:guide
       position="50.799997,220.13334"
       orientation="0,-1"
       id="guide94039"
       inkscape:locked="false" />
    <sodipodi:guide
       position="84.666657,161.925"
       orientation="1,0"
       id="guide94041"
       inkscape:locked="false" />
    <sodipodi:guide
       position="101.6,237.06667"
       orientation="1,0"
       id="guide98266"
       inkscape:locked="false" />
    <sodipodi:guide
       position="50.799997,186.26667"
       orientation="1,0"
       id="guide108765"
       inkscape:locked="false" />
    <sodipodi:guide
       position="50.799997,186.26667"
       orientation="0,-1"
       id="guide108767"
       inkscape:locked="false" />
    <sodipodi:guide
       position="-59.266663,1.2833417e-05"
       orientation="0,-1"
       id="guide305044"
       inkscape:locked="false" />
    <sodipodi:guide
       position="-59.266663,-33.866657"
       orientation="0,-1"
       id="guide74580"
       inkscape:locked="false" />
    <sodipodi:guide
       position="-59.266663,-33.866657"
       orientation="1,0"
       id="guide76758"
       inkscape:locked="false" />
    <sodipodi:guide
       position="-59.266663,-67.733323"
       orientation="0,-1"
       id="guide22879"
       inkscape:locked="false" />
  </sodipodi:namedview>
  <defs
     id="defs2">
    <marker
       style="overflow:visible"
       id="Arrow2-3"
       refX="0"
       refY="0"
       orient="auto-start-reverse"
       inkscape:stockid="Arrow2"
       markerWidth="7.6999998"
       markerHeight="5.5999999"
       viewBox="0 0 7.7 5.6"
       inkscape:isstock="true"
       inkscape:collect="always"
       preserveAspectRatio="xMidYMid">
      <path
         transform="scale(0.7)"
         d="M -2,-4 9,0 -2,4 c 2,-2.33 2,-5.66 0,-8 z"
         style="fill:context-stroke;fill-rule:evenodd;stroke:none"
         id="arrow2L-6" />
    </marker>
    <clipPath
       id="clipPath9178">
      <path
         d="M 0,0 H 5 V 3.433594 H 0 Z m 0,0"
         id="path32828" />
    </clipPath>
    <clipPath
       id="clipPath8810">
      <path
         d="M 0,0 H 17 V 5.136719 H 0 Z m 0,0"
         id="path81658" />
    </clipPath>
    <clipPath
       id="clipPath80039">
      <path
         d="m 17,4 h 2 v 1.136719 h -2 z m 0,0"
         id="path67977" />
    </clipPath>
    <clipPath
       id="clipPath45365">
      <path
         d="m 19,0 h 8.757812 V 5.136719 H 19 Z m 0,0"
         id="path40993" />
    </clipPath>
    <clipPath
       id="clipPath2580">
      <path
         d="M 7,0 H 23.523438 V 5.96875 H 7 Z m 0,0"
         id="path31438" />
    </clipPath>
  </defs>
  <g
     inkscape:label="Capa 1"
     inkscape:groupmode="layer"
     id="layer1"
     transform="translate(-59.266663,-203.2)">
    <rect
       style="fill:#ffffff;stroke:none;stroke-width:0.0264583;stroke-linecap:round;stroke-linejoin:round;paint-order:stroke markers fill"
       id="rect70172"
       width="33.866665"
       height="33.866665"
       x="59.266666"
       y="203.2"
       inkscape:export-filename="f71.svg"
       inkscape:export-xdpi="96"
       inkscape:export-ydpi="96" />
    <path
       style="fill:none;stroke:#000000;stroke-width:0.132292;stroke-linecap:round;stroke-linejoin:round;stroke-dasharray:0.132292, 0.396876;stroke-dashoffset:0;paint-order:stroke markers fill"
       d="m 81.491664,216.95833 v 3.175"
       id="path120630-3"
       sodipodi:nodetypes="cc" />
    <path
       style="fill:none;stroke:#000000;stroke-width:0.264583;stroke-linecap:round;stroke-linejoin:round;marker-end:url(#Arrow2-3);paint-order:stroke markers fill"
       d="m 76.199998,232.54228 v -25.4"
       id="path334202"
       sodipodi:nodetypes="cc" />
    <path
       style="fill:none;stroke:#000000;stroke-width:0.264583;stroke-linecap:round;stroke-linejoin:round;marker-end:url(#Arrow2-3);paint-order:stroke markers fill"
       d="m 63.79104,220.13333 h 25.4"
       id="path334204"
       sodipodi:nodetypes="cc" />
    <path
       style="fill:none;stroke:#000000;stroke-width:0.132292;stroke-linecap:round;stroke-linejoin:round;stroke-dasharray:none;paint-order:stroke markers fill"
       d="m 78.316664,219.07499 v 2.11667"
       id="path334206" />
    <path
       style="fill:none;stroke:#000000;stroke-width:0.132292;stroke-linecap:round;stroke-linejoin:round;stroke-dasharray:none;paint-order:stroke markers fill"
       d="m 80.433331,219.07499 v 2.11667"
       id="path334208" />
    <path
       style="fill:none;stroke:#000000;stroke-width:0.132292;stroke-linecap:round;stroke-linejoin:round;stroke-dasharray:none;paint-order:stroke markers fill"
       d="m 82.549997,219.07499 v 2.11667"
       id="path334210" />
    <path
       style="fill:none;stroke:#000000;stroke-width:0.132292;stroke-linecap:round;stroke-linejoin:round;stroke-dasharray:none;paint-order:stroke markers fill"
       d="m 84.666664,219.07499 v 2.11667"
       id="path334212" />
    <path
       style="fill:none;stroke:#000000;stroke-width:0.132292;stroke-linecap:round;stroke-linejoin:round;stroke-dasharray:none;paint-order:stroke markers fill"
       d="m 86.783331,219.07499 v 2.11667"
       id="path334214" />
    <path
       style="fill:none;stroke:#000000;stroke-width:0.132292;stroke-linecap:round;stroke-linejoin:round;stroke-dasharray:none;paint-order:stroke markers fill"
       d="M 75.141663,218.01666 H 77.25833"
       id="path334216" />
    <path
       style="fill:none;stroke:#000000;stroke-width:0.132292;stroke-linecap:round;stroke-linejoin:round;stroke-dasharray:none;paint-order:stroke markers fill"
       d="M 75.141663,215.89999 H 77.25833"
       id="path334218" />
    <path
       style="fill:none;stroke:#000000;stroke-width:0.132292;stroke-linecap:round;stroke-linejoin:round;stroke-dasharray:none;paint-order:stroke markers fill"
       d="M 75.141663,224.36666 H 77.25833"
       id="path334220" />
    <path
       style="fill:none;stroke:#000000;stroke-width:0.132292;stroke-linecap:round;stroke-linejoin:round;stroke-dasharray:none;paint-order:stroke markers fill"
       d="M 75.141663,222.24999 H 77.25833"
       id="path334222" />
    <g
       inkscape:label=""
       transform="translate(90.300083,222.06258)"
       id="g334234">
      <g
         id="g334232"
         transform="matrix(0.352778,0,0,0.352778,-0.115755,0.00194031)">
        <g
           clip-path="url(#clipPath9178)"
           clip-rule="nonzero"
           id="g334230">
          <g
             style="fill:#000000;fill-opacity:1"
             id="g334228">
            <g
               id="g334226"
               transform="translate(0,3.4319999)">
              <path
                 style="stroke:none"
                 d="m 4.375,-2.90625 c 0.140625,0 0.203125,0 0.296875,-0.0625 0.078125,-0.078125 0.125,-0.1875 0.125,-0.25 0,-0.21875 -0.203125,-0.21875 -0.34375,-0.21875 H 2.5 c -1.234375,0 -2.171875,1.265625 -2.171875,2.21875 0,0.78125 0.5625,1.296875 1.296875,1.296875 1,0 2.09375,-0.96875 2.09375,-2.15625 C 3.71875,-2.5 3.5625,-2.75 3.484375,-2.90625 Z m -2.734375,2.765625 c -0.40625,0 -0.75,-0.265625 -0.75,-0.84375 0,-0.34375 0.1875,-1.921875 1.46875,-1.921875 0.78125,0 0.78125,0.59375 0.78125,0.75 0,0.828125 -0.5625,2.015625 -1.5,2.015625 z m 0,0"
                 id="path334224" />
            </g>
          </g>
        </g>
      </g>
    </g>
    <g
       inkscape:label=""
       transform="translate(73.024998,206.37499)"
       id="g334244">
      <g
         id="g334242"
         transform="matrix(0.352778,0,0,0.352778,-0.0826823,0.00194031)">
        <g
           style="fill:#000000;fill-opacity:1"
           id="g334240">
          <g
             id="g334238"
             transform="translate(0,3.4319999)">
            <path
               style="stroke:none"
               d="m 2.5,-2.90625 h 1.421875 c 0.140625,0 0.21875,0 0.296875,-0.0625 0.09375,-0.09375 0.125,-0.1875 0.125,-0.25 0,-0.21875 -0.203125,-0.21875 -0.328125,-0.21875 h -2.40625 c -0.171875,0 -0.484375,0 -0.875,0.390625 -0.28125,0.28125 -0.5,0.640625 -0.5,0.703125 0,0.078125 0.046875,0.09375 0.109375,0.09375 C 0.4375,-2.25 0.453125,-2.265625 0.5,-2.328125 0.890625,-2.90625 1.359375,-2.90625 1.53125,-2.90625 h 0.6875 l -0.6875,2.203125 C 1.484375,-0.515625 1.375,-0.1875 1.375,-0.15625 c 0,0.1875 0.171875,0.25 0.265625,0.25 0.296875,0 0.34375,-0.28125 0.375,-0.390625 z m 0,0"
               id="path334236" />
          </g>
        </g>
      </g>
    </g>
    <path
       style="fill:none;stroke:#000000;stroke-width:0.132292;stroke-linecap:round;stroke-linejoin:round;stroke-dasharray:none;paint-order:stroke markers fill"
       d="m 69.916143,219.07499 v 2.11667"
       id="path334246" />
    <path
       style="fill:none;stroke:#000000;stroke-width:0.132292;stroke-linecap:round;stroke-linejoin:round;stroke-dasharray:none;paint-order:stroke markers fill"
       d="m 72.03281,219.07499 v 2.11667"
       id="path334248" />
    <path
       style="fill:none;stroke:#000000;stroke-width:0.132292;stroke-linecap:round;stroke-linejoin:round;stroke-dasharray:none;paint-order:stroke markers fill"
       d="m 74.149476,219.07499 v 2.11667"
       id="path334250" />
    <path
       style="fill:none;stroke:#000000;stroke-width:0.132292;stroke-linecap:round;stroke-linejoin:round;stroke-dasharray:none;paint-order:stroke markers fill"
       d="M 75.141663,213.78333 H 77.25833"
       id="path334252" />
    <path
       style="fill:none;stroke:#000000;stroke-width:0.132292;stroke-linecap:round;stroke-linejoin:round;stroke-dasharray:none;paint-order:stroke markers fill"
       d="M 75.141663,211.66666 H 77.25833"
       id="path334254" />
    <path
       style="fill:none;stroke:#000000;stroke-width:0.132292;stroke-linecap:round;stroke-linejoin:round;stroke-dasharray:none;paint-order:stroke markers fill"
       d="M 75.141663,209.55 H 77.25833"
       id="path334256" />
    <path
       style="fill:none;stroke:#000000;stroke-width:0.132292;stroke-linecap:round;stroke-linejoin:round;stroke-dasharray:none;paint-order:stroke markers fill"
       d="M 75.141663,228.6 H 77.25833"
       id="path334258" />
    <path
       style="fill:none;stroke:#000000;stroke-width:0.132292;stroke-linecap:round;stroke-linejoin:round;stroke-dasharray:none;paint-order:stroke markers fill"
       d="M 75.141663,226.48333 H 77.25833"
       id="path334260" />
    <path
       style="fill:none;stroke:#000000;stroke-width:0.132292;stroke-linecap:round;stroke-linejoin:round;stroke-dasharray:none;paint-order:stroke markers fill"
       d="M 75.141663,230.71666 H 77.25833"
       id="path334262" />
    <path
       style="fill:none;stroke:#000000;stroke-width:0.132292;stroke-linecap:round;stroke-linejoin:round;stroke-dasharray:none;paint-order:stroke markers fill"
       d="m 65.616664,219.07499 v 2.11667"
       id="path334264" />
    <path
       style="fill:none;stroke:#000000;stroke-width:0.132292;stroke-linecap:round;stroke-linejoin:round;stroke-dasharray:none;paint-order:stroke markers fill"
       d="m 67.733331,219.07499 v 2.11667"
       id="path334266" />
    <path
       style="fill:none;stroke:#0000ff;stroke-width:0.132292;stroke-linecap:round;stroke-linejoin:round;stroke-dasharray:none;stroke-dashoffset:0;paint-order:stroke markers fill"
       d="m 76.199998,223.30833 5.291666,-6.35"
       id="path334270"
       sodipodi:nodetypes="cc" />
    <g
       inkscape:label=""
       transform="translate(82.911858,215.92937)"
       id="g34807">
      <g
         id="g34805"
         transform="matrix(0.352778,0,0,0.352778,-0.148828,0.0567531)">
        <g
           clip-path="url(#clipPath8810)"
           clip-rule="nonzero"
           id="g34785">
          <g
             style="fill:#000000;fill-opacity:1"
             id="g34783">
            <g
               id="g34769"
               transform="translate(0,5.1360002)">
              <path
                 style="stroke:none"
                 d="m 2.25,-1.625 c 0.125,-0.125 0.453125,-0.390625 0.59375,-0.5 0.484375,-0.453125 0.953125,-0.890625 0.953125,-1.609375 0,-0.953125 -0.796875,-1.5625 -1.78125,-1.5625 -0.96875,0 -1.59375,0.71875 -1.59375,1.4375 0,0.390625 0.3125,0.4375 0.421875,0.4375 0.171875,0 0.421875,-0.109375 0.421875,-0.421875 0,-0.40625 -0.40625,-0.40625 -0.5,-0.40625 C 1,-4.84375 1.53125,-5.03125 1.921875,-5.03125 c 0.734375,0 1.125,0.625 1.125,1.296875 0,0.828125 -0.578125,1.4375 -1.53125,2.390625 l -1,1.046875 C 0.421875,-0.21875 0.421875,-0.203125 0.421875,0 H 3.5625 l 0.234375,-1.421875 h -0.25 C 3.53125,-1.265625 3.46875,-0.875 3.375,-0.71875 c -0.046875,0.0625 -0.65625,0.0625 -0.78125,0.0625 H 1.171875 Z m 0,0"
                 id="path34767" />
            </g>
            <g
               id="g34773"
               transform="translate(4.2345142,5.1360002)">
              <path
                 style="stroke:none"
                 d="m 1.109375,-4.484375 c 0.109375,0.03125 0.421875,0.125 0.765625,0.125 1,0 1.59375,-0.703125 1.59375,-0.828125 0,-0.09375 -0.046875,-0.109375 -0.09375,-0.109375 -0.015625,0 -0.03125,0 -0.09375,0.03125 -0.3125,0.125 -0.6875,0.21875 -1.109375,0.21875 -0.46875,0 -0.859375,-0.109375 -1.109375,-0.21875 -0.078125,-0.03125 -0.09375,-0.03125 -0.109375,-0.03125 -0.09375,0 -0.09375,0.078125 -0.09375,0.234375 v 2.328125 c 0,0.140625 0,0.234375 0.125,0.234375 0.0625,0 0.078125,-0.03125 0.125,-0.09375 C 1.203125,-2.703125 1.5,-3.109375 2.1875,-3.109375 c 0.4375,0 0.65625,0.359375 0.734375,0.515625 0.125,0.28125 0.140625,0.65625 0.140625,0.953125 0,0.296875 0,0.734375 -0.21875,1.078125 -0.15625,0.25 -0.484375,0.484375 -0.90625,0.484375 -0.515625,0 -1.015625,-0.3125 -1.203125,-0.84375 C 0.75,-0.90625 0.8125,-0.90625 0.8125,-0.90625 c 0.21875,0 0.40625,-0.140625 0.40625,-0.390625 0,-0.296875 -0.234375,-0.40625 -0.390625,-0.40625 -0.15625,0 -0.40625,0.078125 -0.40625,0.421875 0,0.71875 0.625,1.453125 1.53125,1.453125 1,0 1.84375,-0.78125 1.84375,-1.765625 0,-0.921875 -0.671875,-1.75 -1.609375,-1.75 -0.390625,0 -0.765625,0.125 -1.078125,0.40625 z m 0,0"
                 id="path34771" />
            </g>
            <g
               id="g34777"
               transform="translate(8.4690285,5.1360002)">
              <path
                 style="stroke:none"
                 d="m 3.125,-2.34375 c 0,1.9375 -0.921875,2.265625 -1.390625,2.265625 -0.171875,0 -0.578125,-0.015625 -0.796875,-0.265625 0.359375,-0.03125 0.375,-0.296875 0.375,-0.375 0,-0.234375 -0.1875,-0.375 -0.375,-0.375 -0.140625,0 -0.375,0.09375 -0.375,0.390625 0,0.546875 0.453125,0.875 1.1875,0.875 1.09375,0 2.125,-1.09375 2.125,-2.796875 0,-2.0625 -0.921875,-2.671875 -1.734375,-2.671875 -0.953125,0 -1.796875,0.734375 -1.796875,1.78125 C 0.34375,-2.5 1.125,-1.75 2.03125,-1.75 c 0.5625,0 0.90625,-0.359375 1.09375,-0.765625 z m -1.0625,0.375 c -0.375,0 -0.609375,-0.171875 -0.78125,-0.46875 -0.1875,-0.28125 -0.1875,-0.671875 -0.1875,-1.078125 0,-0.46875 0,-0.796875 0.21875,-1.125 0.203125,-0.296875 0.453125,-0.453125 0.828125,-0.453125 0.53125,0 0.765625,0.53125 0.796875,0.5625 0.15625,0.390625 0.171875,1.015625 0.171875,1.171875 0,0.640625 -0.34375,1.390625 -1.046875,1.390625 z m 0,0"
                 id="path34775" />
            </g>
            <g
               id="g34781"
               transform="translate(12.703542,5.1360002)">
              <path
                 style="stroke:none"
                 d="m 2.640625,-2.875 c 0.453125,-0.21875 1,-0.609375 1,-1.234375 0,-0.765625 -0.78125,-1.1875 -1.515625,-1.1875 -0.84375,0 -1.53125,0.578125 -1.53125,1.328125 0,0.296875 0.09375,0.5625 0.296875,0.796875 0.140625,0.171875 0.171875,0.1875 0.65625,0.5 -0.984375,0.4375 -1.203125,1.015625 -1.203125,1.453125 0,0.890625 0.890625,1.390625 1.765625,1.390625 0.96875,0 1.765625,-0.671875 1.765625,-1.515625 0,-0.5 -0.265625,-0.828125 -0.40625,-0.96875 -0.125,-0.125 -0.140625,-0.140625 -0.828125,-0.5625 z M 1.40625,-3.625 C 1.171875,-3.765625 0.984375,-4 0.984375,-4.265625 c 0,-0.5 0.546875,-0.828125 1.125,-0.828125 0.609375,0 1.125,0.421875 1.125,0.984375 0,0.453125 -0.359375,0.84375 -0.828125,1.078125 z m 0.390625,1.09375 c 0.03125,0.015625 0.9375,0.578125 1.078125,0.65625 0.125,0.078125 0.546875,0.328125 0.546875,0.8125 0,0.609375 -0.65625,0.984375 -1.296875,0.984375 -0.71875,0 -1.3125,-0.484375 -1.3125,-1.140625 0,-0.59375 0.4375,-1.0625 0.984375,-1.3125 z m 0,0"
                 id="path34779" />
            </g>
          </g>
        </g>
        <g
           clip-path="url(#clipPath80039)"
           clip-rule="nonzero"
           id="g34791">
          <g
             style="fill:#000000;fill-opacity:1"
             id="g53">
            <g
               id="use51"
               transform="translate(16.937,5.1360002)">
              <path
                 style="stroke:none"
                 d="m 1.625,-0.4375 c 0,-0.265625 -0.234375,-0.453125 -0.453125,-0.453125 -0.25,0 -0.4375,0.21875 -0.4375,0.4375 C 0.734375,-0.171875 0.953125,0 1.171875,0 1.421875,0 1.625,-0.203125 1.625,-0.4375 Z m 0,0"
                 id="path34787" />
            </g>
          </g>
        </g>
        <g
           clip-path="url(#clipPath45365)"
           clip-rule="nonzero"
           id="g34803">
          <g
             style="fill:#000000;fill-opacity:1"
             id="g34801">
            <g
               id="g34795"
               transform="translate(19.289,5.1360002)">
              <path
                 style="stroke:none"
                 d="m 3.890625,-2.546875 c 0,-0.84375 -0.078125,-1.359375 -0.34375,-1.875 -0.34375,-0.703125 -1,-0.875 -1.4375,-0.875 -1,0 -1.375,0.75 -1.484375,0.96875 -0.28125,0.578125 -0.296875,1.375 -0.296875,1.78125 0,0.53125 0.015625,1.328125 0.40625,1.96875 0.359375,0.59375 0.953125,0.75 1.375,0.75 0.390625,0 1.0625,-0.125 1.46875,-0.90625 0.296875,-0.578125 0.3125,-1.296875 0.3125,-1.8125 z M 2.109375,-0.0625 C 1.84375,-0.0625 1.296875,-0.1875 1.125,-1.015625 1.03125,-1.46875 1.03125,-2.21875 1.03125,-2.640625 1.03125,-3.1875 1.03125,-3.75 1.125,-4.1875 1.296875,-5 1.90625,-5.078125 2.109375,-5.078125 c 0.265625,0 0.828125,0.140625 0.984375,0.859375 0.09375,0.4375 0.09375,1.046875 0.09375,1.578125 0,0.46875 0,1.1875 -0.09375,1.640625 -0.171875,0.828125 -0.71875,0.9375 -0.984375,0.9375 z m 0,0"
                 id="path34793" />
            </g>
            <g
               id="g34799"
               transform="translate(23.523514,5.1360002)">
              <path
                 style="stroke:none"
                 d="m 2.640625,-2.875 c 0.453125,-0.21875 1,-0.609375 1,-1.234375 0,-0.765625 -0.78125,-1.1875 -1.515625,-1.1875 -0.84375,0 -1.53125,0.578125 -1.53125,1.328125 0,0.296875 0.09375,0.5625 0.296875,0.796875 0.140625,0.171875 0.171875,0.1875 0.65625,0.5 -0.984375,0.4375 -1.203125,1.015625 -1.203125,1.453125 0,0.890625 0.890625,1.390625 1.765625,1.390625 0.96875,0 1.765625,-0.671875 1.765625,-1.515625 0,-0.5 -0.265625,-0.828125 -0.40625,-0.96875 -0.125,-0.125 -0.140625,-0.140625 -0.828125,-0.5625 z M 1.40625,-3.625 C 1.171875,-3.765625 0.984375,-4 0.984375,-4.265625 c 0,-0.5 0.546875,-0.828125 1.125,-0.828125 0.609375,0 1.125,0.421875 1.125,0.984375 0,0.453125 -0.359375,0.84375 -0.828125,1.078125 z m 0.390625,1.09375 c 0.03125,0.015625 0.9375,0.578125 1.078125,0.65625 0.125,0.078125 0.546875,0.328125 0.546875,0.8125 0,0.609375 -0.65625,0.984375 -1.296875,0.984375 -0.71875,0 -1.3125,-0.484375 -1.3125,-1.140625 0,-0.59375 0.4375,-1.0625 0.984375,-1.3125 z m 0,0"
                 id="path34797" />
            </g>
          </g>
        </g>
      </g>
    </g>
    <path
       style="fill:none;stroke:#000000;stroke-width:0.132292;stroke-linecap:round;stroke-linejoin:round;stroke-dasharray:0.132292, 0.396876;stroke-dashoffset:0;paint-order:stroke markers fill"
       d="M 81.491664,216.95833 H 76.199998"
       id="path58023"
       sodipodi:nodetypes="cc" />
    <g
       inkscape:label=""
       transform="translate(78.382809,213.44518)"
       id="g77047">
      <g
         id="g77045"
         transform="matrix(0.352778,0,0,0.352778,-0.270095,0.0567531)">
        <g
           style="fill:#000000;fill-opacity:1"
           id="g77043">
          <g
             id="use18"
             transform="translate(0,5.1360002)">
            <path
               style="stroke:none"
               d="m 2.5,-5.078125 c 0,-0.21875 -0.015625,-0.21875 -0.234375,-0.21875 -0.328125,0.3125 -0.75,0.5 -1.5,0.5 v 0.265625 c 0.21875,0 0.640625,0 1.109375,-0.203125 v 4.078125 c 0,0.296875 -0.03125,0.390625 -0.78125,0.390625 H 0.8125 V 0 c 0.328125,-0.03125 1.015625,-0.03125 1.375,-0.03125 0.359375,0 1.046875,0 1.375,0.03125 V -0.265625 H 3.28125 c -0.75,0 -0.78125,-0.09375 -0.78125,-0.390625 z m 0,0"
               id="path33" />
          </g>
          <g
             id="use20"
             transform="translate(4.2345142,5.1360002)">
            <path
               style="stroke:none"
               d="m 1.109375,-4.484375 c 0.109375,0.03125 0.421875,0.125 0.765625,0.125 1,0 1.59375,-0.703125 1.59375,-0.828125 0,-0.09375 -0.046875,-0.109375 -0.09375,-0.109375 -0.015625,0 -0.03125,0 -0.09375,0.03125 -0.3125,0.125 -0.6875,0.21875 -1.109375,0.21875 -0.46875,0 -0.859375,-0.109375 -1.109375,-0.21875 -0.078125,-0.03125 -0.09375,-0.03125 -0.109375,-0.03125 -0.09375,0 -0.09375,0.078125 -0.09375,0.234375 v 2.328125 c 0,0.140625 0,0.234375 0.125,0.234375 0.0625,0 0.078125,-0.03125 0.125,-0.09375 C 1.203125,-2.703125 1.5,-3.109375 2.1875,-3.109375 c 0.4375,0 0.65625,0.359375 0.734375,0.515625 0.125,0.28125 0.140625,0.65625 0.140625,0.953125 0,0.296875 0,0.734375 -0.21875,1.078125 -0.15625,0.25 -0.484375,0.484375 -0.90625,0.484375 -0.515625,0 -1.015625,-0.3125 -1.203125,-0.84375 C 0.75,-0.90625 0.8125,-0.90625 0.8125,-0.90625 c 0.21875,0 0.40625,-0.140625 0.40625,-0.390625 0,-0.296875 -0.234375,-0.40625 -0.390625,-0.40625 -0.15625,0 -0.40625,0.078125 -0.40625,0.421875 0,0.71875 0.625,1.453125 1.53125,1.453125 1,0 1.84375,-0.78125 1.84375,-1.765625 0,-0.921875 -0.671875,-1.75 -1.609375,-1.75 -0.390625,0 -0.765625,0.125 -1.078125,0.40625 z m 0,0"
               id="path37" />
          </g>
          <g
             id="use22"
             transform="translate(8.4690285,5.1360002)">
            <path
               style="stroke:none"
               d="m 3.890625,-2.546875 c 0,-0.84375 -0.078125,-1.359375 -0.34375,-1.875 -0.34375,-0.703125 -1,-0.875 -1.4375,-0.875 -1,0 -1.375,0.75 -1.484375,0.96875 -0.28125,0.578125 -0.296875,1.375 -0.296875,1.78125 0,0.53125 0.015625,1.328125 0.40625,1.96875 0.359375,0.59375 0.953125,0.75 1.375,0.75 0.390625,0 1.0625,-0.125 1.46875,-0.90625 0.296875,-0.578125 0.3125,-1.296875 0.3125,-1.8125 z M 2.109375,-0.0625 C 1.84375,-0.0625 1.296875,-0.1875 1.125,-1.015625 1.03125,-1.46875 1.03125,-2.21875 1.03125,-2.640625 1.03125,-3.1875 1.03125,-3.75 1.125,-4.1875 1.296875,-5 1.90625,-5.078125 2.109375,-5.078125 c 0.265625,0 0.828125,0.140625 0.984375,0.859375 0.09375,0.4375 0.09375,1.046875 0.09375,1.578125 0,0.46875 0,1.1875 -0.09375,1.640625 -0.171875,0.828125 -0.71875,0.9375 -0.984375,0.9375 z m 0,0"
               id="path41" />
          </g>
          <g
             id="use24"
             transform="translate(12.703542,5.1360002)">
            <path
               style="stroke:none"
               d="m 3.890625,-2.546875 c 0,-0.84375 -0.078125,-1.359375 -0.34375,-1.875 -0.34375,-0.703125 -1,-0.875 -1.4375,-0.875 -1,0 -1.375,0.75 -1.484375,0.96875 -0.28125,0.578125 -0.296875,1.375 -0.296875,1.78125 0,0.53125 0.015625,1.328125 0.40625,1.96875 0.359375,0.59375 0.953125,0.75 1.375,0.75 0.390625,0 1.0625,-0.125 1.46875,-0.90625 0.296875,-0.578125 0.3125,-1.296875 0.3125,-1.8125 z M 2.109375,-0.0625 C 1.84375,-0.0625 1.296875,-0.1875 1.125,-1.015625 1.03125,-1.46875 1.03125,-2.21875 1.03125,-2.640625 1.03125,-3.1875 1.03125,-3.75 1.125,-4.1875 1.296875,-5 1.90625,-5.078125 2.109375,-5.078125 c 0.265625,0 0.828125,0.140625 0.984375,0.859375 0.09375,0.4375 0.09375,1.046875 0.09375,1.578125 0,0.46875 0,1.1875 -0.09375,1.640625 -0.171875,0.828125 -0.71875,0.9375 -0.984375,0.9375 z m 0,0"
               id="path45" />
          </g>
        </g>
      </g>
    </g>
    <circle
       style="fill:none;stroke:#0000ff;stroke-width:0.132292;stroke-linecap:round;stroke-linejoin:round;stroke-dasharray:none;stroke-dashoffset:0;paint-order:stroke markers fill"
       id="path103772"
       cx="78.845833"
       cy="220.13332"
       r="4.0929656" />
    <g
       inkscape:label=""
       transform="translate(66.420391,223.2996)"
       id="g110685">
      <g
         id="g110683"
         transform="matrix(0.352778,0,0,0.352778,-0.248047,0.0564003)">
        <g
           style="fill:#000000;fill-opacity:1"
           id="g110662">
          <g
             id="g110660"
             transform="translate(0,5.1370001)">
            <path
               style="stroke:none"
               d="m 5.5625,-1.8125 c 0.140625,0 0.3125,0 0.3125,-0.171875 0,-0.1875 -0.171875,-0.1875 -0.3125,-0.1875 H 1 c -0.125,0 -0.296875,0 -0.296875,0.1875 C 0.703125,-1.8125 0.875,-1.8125 1,-1.8125 Z m 0,0"
               id="path110658" />
          </g>
        </g>
        <g
           clip-path="url(#clipPath2580)"
           clip-rule="nonzero"
           id="g110681">
          <g
             style="fill:#000000;fill-opacity:1"
             id="g110679">
            <g
               id="use31"
               transform="translate(6.5869999,5.1370001)">
              <path
                 style="stroke:none"
                 d="m 2.5,-5.078125 c 0,-0.21875 -0.015625,-0.21875 -0.234375,-0.21875 -0.328125,0.3125 -0.75,0.5 -1.5,0.5 v 0.265625 c 0.21875,0 0.640625,0 1.109375,-0.203125 v 4.078125 c 0,0.296875 -0.03125,0.390625 -0.78125,0.390625 H 0.8125 V 0 c 0.328125,-0.03125 1.015625,-0.03125 1.375,-0.03125 0.359375,0 1.046875,0 1.375,0.03125 V -0.265625 H 3.28125 c -0.75,0 -0.78125,-0.09375 -0.78125,-0.390625 z m 0,0"
                 id="path110664" />
            </g>
            <g
               id="g110669"
               transform="translate(10.821514,5.1370001)">
              <path
                 style="stroke:none"
                 d="m 1.109375,-4.484375 c 0.109375,0.03125 0.421875,0.125 0.765625,0.125 1,0 1.59375,-0.703125 1.59375,-0.828125 0,-0.09375 -0.046875,-0.109375 -0.09375,-0.109375 -0.015625,0 -0.03125,0 -0.09375,0.03125 -0.3125,0.125 -0.6875,0.21875 -1.109375,0.21875 -0.46875,0 -0.859375,-0.109375 -1.109375,-0.21875 -0.078125,-0.03125 -0.09375,-0.03125 -0.109375,-0.03125 -0.09375,0 -0.09375,0.078125 -0.09375,0.234375 v 2.328125 c 0,0.140625 0,0.234375 0.125,0.234375 0.0625,0 0.078125,-0.03125 0.125,-0.09375 C 1.203125,-2.703125 1.5,-3.109375 2.1875,-3.109375 c 0.4375,0 0.65625,0.359375 0.734375,0.515625 0.125,0.28125 0.140625,0.65625 0.140625,0.953125 0,0.296875 0,0.734375 -0.21875,1.078125 -0.15625,0.25 -0.484375,0.484375 -0.90625,0.484375 -0.515625,0 -1.015625,-0.3125 -1.203125,-0.84375 C 0.75,-0.90625 0.8125,-0.90625 0.8125,-0.90625 c 0.21875,0 0.40625,-0.140625 0.40625,-0.390625 0,-0.296875 -0.234375,-0.40625 -0.390625,-0.40625 -0.15625,0 -0.40625,0.078125 -0.40625,0.421875 0,0.71875 0.625,1.453125 1.53125,1.453125 1,0 1.84375,-0.78125 1.84375,-1.765625 0,-0.921875 -0.671875,-1.75 -1.609375,-1.75 -0.390625,0 -0.765625,0.125 -1.078125,0.40625 z m 0,0"
                 id="path110667" />
            </g>
            <g
               id="g110673"
               transform="translate(15.056028,5.1370001)">
              <path
                 style="stroke:none"
                 d="m 3.890625,-2.546875 c 0,-0.84375 -0.078125,-1.359375 -0.34375,-1.875 -0.34375,-0.703125 -1,-0.875 -1.4375,-0.875 -1,0 -1.375,0.75 -1.484375,0.96875 -0.28125,0.578125 -0.296875,1.375 -0.296875,1.78125 0,0.53125 0.015625,1.328125 0.40625,1.96875 0.359375,0.59375 0.953125,0.75 1.375,0.75 0.390625,0 1.0625,-0.125 1.46875,-0.90625 0.296875,-0.578125 0.3125,-1.296875 0.3125,-1.8125 z M 2.109375,-0.0625 C 1.84375,-0.0625 1.296875,-0.1875 1.125,-1.015625 1.03125,-1.46875 1.03125,-2.21875 1.03125,-2.640625 1.03125,-3.1875 1.03125,-3.75 1.125,-4.1875 1.296875,-5 1.90625,-5.078125 2.109375,-5.078125 c 0.265625,0 0.828125,0.140625 0.984375,0.859375 0.09375,0.4375 0.09375,1.046875 0.09375,1.578125 0,0.46875 0,1.1875 -0.09375,1.640625 -0.171875,0.828125 -0.71875,0.9375 -0.984375,0.9375 z m 0,0"
                 id="path110671" />
            </g>
            <g
               id="g110677"
               transform="translate(19.290543,5.1370001)">
              <path
                 style="stroke:none"
                 d="m 3.890625,-2.546875 c 0,-0.84375 -0.078125,-1.359375 -0.34375,-1.875 -0.34375,-0.703125 -1,-0.875 -1.4375,-0.875 -1,0 -1.375,0.75 -1.484375,0.96875 -0.28125,0.578125 -0.296875,1.375 -0.296875,1.78125 0,0.53125 0.015625,1.328125 0.40625,1.96875 0.359375,0.59375 0.953125,0.75 1.375,0.75 0.390625,0 1.0625,-0.125 1.46875,-0.90625 0.296875,-0.578125 0.3125,-1.296875 0.3125,-1.8125 z M 2.109375,-0.0625 C 1.84375,-0.0625 1.296875,-0.1875 1.125,-1.015625 1.03125,-1.46875 1.03125,-2.21875 1.03125,-2.640625 1.03125,-3.1875 1.03125,-3.75 1.125,-4.1875 1.296875,-5 1.90625,-5.078125 2.109375,-5.078125 c 0.265625,0 0.828125,0.140625 0.984375,0.859375 0.09375,0.4375 0.09375,1.046875 0.09375,1.578125 0,0.46875 0,1.1875 -0.09375,1.640625 -0.171875,0.828125 -0.71875,0.9375 -0.984375,0.9375 z m 0,0"
                 id="path110675" />
            </g>
          </g>
        </g>
      </g>
    </g>
  </g>
</svg>
