<?xml version="1.0" encoding="UTF-8" standalone="no"?>
<!-- Created with Inkscape (http://www.inkscape.org/) -->

<svg
   width="127.99998"
   height="127.99995"
   viewBox="0 0 33.866661 33.866653"
   version="1.1"
   id="svg5"
   sodipodi:docname="zbase1.svg"
   inkscape:version="1.2.1 (9c6d41e410, 2022-07-14)"
   xmlns:inkscape="http://www.inkscape.org/namespaces/inkscape"
   xmlns:sodipodi="http://sodipodi.sourceforge.net/DTD/sodipodi-0.dtd"
   xmlns="http://www.w3.org/2000/svg"
   xmlns:svg="http://www.w3.org/2000/svg">
  <sodipodi:namedview
     id="namedview7"
     pagecolor="#ffffff"
     bordercolor="#000000"
     borderopacity="0.25"
     inkscape:showpageshadow="false"
     inkscape:pageopacity="0.0"
     inkscape:pagecheckerboard="0"
     inkscape:deskcolor="#d1d1d1"
     inkscape:document-units="px"
     showgrid="true"
     inkscape:zoom="1.4142136"
     inkscape:cx="415.77879"
     inkscape:cy="851.00301"
     inkscape:window-width="1920"
     inkscape:window-height="1050"
     inkscape:window-x="0"
     inkscape:window-y="18"
     inkscape:window-maximized="1"
     inkscape:current-layer="layer1"
     showguides="true">
    <inkscape:grid
       type="xygrid"
       id="grid132"
       spacingx="1.0583333"
       spacingy="1.0583333"
       empspacing="4"
       originx="1.4438228e-12"
       originy="3.7599552e-13" />
    <sodipodi:guide
       position="-127,270.93333"
       orientation="0,-1"
       id="guide43929"
       inkscape:locked="false" />
    <sodipodi:guide
       position="-127,237.06666"
       orientation="0,-1"
       id="guide43931"
       inkscape:locked="false" />
    <sodipodi:guide
       position="-127,203.2"
       orientation="0,-1"
       id="guide43980"
       inkscape:locked="false" />
    <sodipodi:guide
       position="-127,169.33333"
       orientation="0,-1"
       id="guide50670"
       inkscape:locked="false" />
    <sodipodi:guide
       position="-127,135.46666"
       orientation="0,-1"
       id="guide53390"
       inkscape:locked="false" />
    <sodipodi:guide
       position="-127,101.59999"
       orientation="0,-1"
       id="guide56092"
       inkscape:locked="false" />
    <sodipodi:guide
       position="-127,67.733331"
       orientation="0,-1"
       id="guide60236"
       inkscape:locked="false" />
    <sodipodi:guide
       position="-67.733332,270.93333"
       orientation="1,0"
       id="guide64322"
       inkscape:locked="false" />
    <sodipodi:guide
       position="-33.866668,270.93333"
       orientation="1,0"
       id="guide77000"
       inkscape:locked="false" />
    <sodipodi:guide
       position="7.0811493e-06,270.93333"
       orientation="1,0"
       id="guide91126"
       inkscape:locked="false" />
    <sodipodi:guide
       position="-16.933334,254"
       orientation="0,-1"
       id="guide94039"
       inkscape:locked="false" />
    <sodipodi:guide
       position="16.933328,195.79166"
       orientation="1,0"
       id="guide94041"
       inkscape:locked="false" />
    <sodipodi:guide
       position="33.866669,270.93333"
       orientation="1,0"
       id="guide98266"
       inkscape:locked="false" />
    <sodipodi:guide
       position="-16.933334,76.199991"
       orientation="1,0"
       id="guide108765"
       inkscape:locked="false" />
    <sodipodi:guide
       position="-16.933334,220.13333"
       orientation="0,-1"
       id="guide108767"
       inkscape:locked="false" />
    <sodipodi:guide
       position="-127,33.866665"
       orientation="0,-1"
       id="guide305044"
       inkscape:locked="false" />
    <sodipodi:guide
       position="-127,-6.7791058e-06"
       orientation="0,-1"
       id="guide74580"
       inkscape:locked="false" />
    <sodipodi:guide
       position="-127,-6.7791058e-06"
       orientation="1,0"
       id="guide76758"
       inkscape:locked="false" />
    <sodipodi:guide
       position="-127,-33.866674"
       orientation="0,-1"
       id="guide22879"
       inkscape:locked="false" />
  </sodipodi:namedview>
  <defs
     id="defs2">
    <marker
       style="overflow:visible"
       id="Arrow2-3-2"
       refX="0"
       refY="0"
       orient="auto-start-reverse"
       inkscape:stockid="Arrow2"
       markerWidth="7.6999998"
       markerHeight="5.5999999"
       viewBox="0 0 7.7 5.6"
       inkscape:isstock="true"
       inkscape:collect="always"
       preserveAspectRatio="xMidYMid">
      <path
         transform="scale(0.7)"
         d="M -2,-4 9,0 -2,4 c 2,-2.33 2,-5.66 0,-8 z"
         style="fill:context-stroke;fill-rule:evenodd;stroke:none"
         id="arrow2L-6-2" />
    </marker>
    <marker
       style="overflow:visible"
       id="Arrow2-0-2"
       refX="0"
       refY="0"
       orient="auto-start-reverse"
       inkscape:stockid="Arrow2"
       markerWidth="7.6999998"
       markerHeight="5.5999999"
       viewBox="0 0 7.7 5.6"
       inkscape:isstock="true"
       inkscape:collect="always"
       preserveAspectRatio="xMidYMid">
      <path
         transform="scale(0.7)"
         d="M -2,-4 9,0 -2,4 c 2,-2.33 2,-5.66 0,-8 z"
         style="fill:context-stroke;fill-rule:evenodd;stroke:none"
         id="arrow2L-626-2" />
    </marker>
    <clipPath
       id="clipPath8840">
      <path
         d="M 0,0 H 7 V 4.964844 H 0 Z m 0,0"
         id="path81926" />
    </clipPath>
    <clipPath
       id="clipPath77691">
      <path
         d="M 8,4 H 9 V 4.964844 H 8 Z m 0,0"
         id="path90457" />
    </clipPath>
    <clipPath
       id="clipPath2045">
      <path
         d="m 9,0 h 8 V 4.964844 H 9 Z m 0,0"
         id="path85255" />
    </clipPath>
  </defs>
  <g
     inkscape:label="Capa 1"
     inkscape:groupmode="layer"
     id="layer1"
     transform="translate(-126.99999,-237.06666)">
    <rect
       style="fill:#ffffff;stroke:none;stroke-width:0.0264583;stroke-linecap:round;stroke-linejoin:round;paint-order:stroke markers fill"
       id="rect63285"
       width="33.866665"
       height="33.866665"
       x="126.99999"
       y="237.06665"
       inkscape:export-filename="f42.svg"
       inkscape:export-xdpi="96"
       inkscape:export-ydpi="96" />
    <path
       style="fill:none;stroke:#808080;stroke-width:0.264583;stroke-linecap:round;stroke-linejoin:round;marker-end:url(#Arrow2-3-2);paint-order:stroke markers fill"
       d="m 143.93333,266.69999 v -25.4"
       id="path71501"
       sodipodi:nodetypes="cc" />
    <path
       style="fill:none;stroke:#808080;stroke-width:0.264583;stroke-linecap:round;stroke-linejoin:round;marker-end:url(#Arrow2-3-2);paint-order:stroke markers fill"
       d="m 131.23334,253.99999 h 25.39999"
       id="path71503"
       sodipodi:nodetypes="cc" />
    <g
       id="g63293"
       transform="rotate(-73.63,238.79364,50.630764)"
       inkscape:transform-center-x="-1.1598998e-06"
       inkscape:transform-center-y="-0.069808229">
      <path
         style="fill:none;stroke:#000000;stroke-width:0.264583;stroke-linecap:round;stroke-linejoin:round;marker-end:url(#Arrow2-0-2);paint-order:stroke markers fill"
         d="M 16.93333,29.633333 V 4.2333328"
         id="path63287"
         sodipodi:nodetypes="cc" />
      <path
         style="fill:none;stroke:#000000;stroke-width:0.264583;stroke-linecap:round;stroke-linejoin:round;marker-end:url(#Arrow2-0-2);paint-order:stroke markers fill"
         d="M 4.2333292,16.933335 H 29.778851"
         id="path63289"
         sodipodi:nodetypes="cc" />
      <rect
         style="fill:none;stroke:#ff0000;stroke-width:0.264583;stroke-linecap:round;stroke-linejoin:round;paint-order:stroke markers fill"
         id="rect63291"
         width="8.4666662"
         height="8.4666662"
         x="12.699996"
         y="12.7" />
    </g>
    <g
       inkscape:label=""
       transform="translate(131.23443,244.53832)"
       id="g81912">
      <g
         id="g81910"
         transform="matrix(0.352778,0,0,0.352778,-0.165365,-0.00101427)">
        <g
           clip-path="url(#clipPath8840)"
           clip-rule="nonzero"
           id="g81882">
          <g
             style="fill:#000000;fill-opacity:1"
             id="g81880">
            <g
               id="g81874"
               transform="translate(0,4.9640002)">
              <path
                 style="stroke:none"
                 d="m 3.421875,-3.609375 c 0.046875,-0.0625 0.046875,-0.078125 0.046875,-0.25 H 1.921875 c -0.234375,0 -0.390625,0 -0.625,-0.015625 C 1.015625,-3.890625 0.9375,-3.90625 0.90625,-4.046875 H 0.6875 l -0.21875,1.3125 H 0.6875 c 0.03125,-0.125 0.078125,-0.484375 0.171875,-0.546875 0.046875,-0.03125 0.5625,-0.03125 0.65625,-0.03125 h 1.34375 c -0.0625,0.078125 -0.375,0.46875 -0.53125,0.640625 C 1.75,-1.96875 1.34375,-1.125 1.34375,-0.21875 c 0,0.0625 0,0.34375 0.296875,0.34375 0.28125,0 0.28125,-0.28125 0.28125,-0.359375 v -0.15625 c 0,-1.15625 0.25,-1.734375 0.546875,-2.09375 z m 0,0"
                 id="path81872" />
            </g>
            <g
               id="g81878"
               transform="translate(3.6529109,4.9640002)">
              <path
                 style="stroke:none"
                 d="m 1.765625,-1.984375 c 0.5,0 0.84375,0.34375 0.84375,0.953125 0,0.65625 -0.390625,0.9375 -0.828125,0.9375 C 1.609375,-0.09375 1,-0.125 0.734375,-0.46875 0.96875,-0.5 1.0625,-0.65625 1.0625,-0.8125 c 0,-0.203125 -0.140625,-0.34375 -0.34375,-0.34375 -0.15625,0 -0.34375,0.109375 -0.34375,0.359375 0,0.59375 0.65625,0.921875 1.421875,0.921875 0.890625,0 1.46875,-0.5625 1.46875,-1.15625 0,-0.4375 -0.328125,-0.90625 -1.046875,-1.078125 0.484375,-0.15625 0.859375,-0.546875 0.859375,-1.03125 0,-0.484375 -0.5625,-0.84375 -1.28125,-0.84375 -0.703125,0 -1.234375,0.328125 -1.234375,0.8125 0,0.265625 0.203125,0.328125 0.328125,0.328125 0.15625,0 0.3125,-0.09375 0.3125,-0.3125 0,-0.1875 -0.125,-0.296875 -0.296875,-0.3125 0.28125,-0.3125 0.828125,-0.3125 0.890625,-0.3125 0.296875,0 0.6875,0.140625 0.6875,0.640625 0,0.328125 -0.1875,0.90625 -0.796875,0.9375 -0.109375,0 -0.265625,0.015625 -0.3125,0.015625 -0.0625,0.015625 -0.125,0.015625 -0.125,0.109375 0,0.09375 0.0625,0.09375 0.15625,0.09375 z m 0,0"
                 id="path81876" />
            </g>
          </g>
        </g>
        <g
           clip-path="url(#clipPath77691)"
           clip-rule="nonzero"
           id="g81890">
          <g
             style="fill:#000000;fill-opacity:1"
             id="g81888">
            <g
               id="g81886"
               transform="translate(7.3060002,4.9640002)">
              <path
                 style="stroke:none"
                 d="m 1.5,-0.359375 c 0,-0.21875 -0.171875,-0.359375 -0.359375,-0.359375 -0.21875,0 -0.375,0.171875 -0.375,0.359375 C 0.765625,-0.15625 0.9375,0 1.140625,0 1.328125,0 1.5,-0.171875 1.5,-0.359375 Z m 0,0"
                 id="path81884" />
            </g>
          </g>
        </g>
        <g
           clip-path="url(#clipPath2045)"
           clip-rule="nonzero"
           id="g81902">
          <g
             style="fill:#000000;fill-opacity:1"
             id="g81900">
            <g
               id="g81894"
               transform="translate(9.5749998,4.9640002)">
              <path
                 style="stroke:none"
                 d="M 0.96875,-1.984375 C 0.984375,-2.28125 1,-2.78125 1.203125,-3.140625 1.46875,-3.609375 1.859375,-3.78125 2.21875,-3.78125 c 0.140625,0 0.421875,0.015625 0.5625,0.1875 -0.21875,0.046875 -0.265625,0.1875 -0.265625,0.296875 0,0.15625 0.109375,0.28125 0.296875,0.28125 0.171875,0 0.28125,-0.109375 0.28125,-0.296875 0,-0.375 -0.265625,-0.671875 -0.875,-0.671875 -0.9375,0 -1.84375,0.8125 -1.84375,2.09375 0,1.453125 0.671875,2.015625 1.46875,2.015625 0.234375,0 0.640625,-0.03125 1,-0.390625 0.203125,-0.1875 0.421875,-0.421875 0.421875,-0.953125 0,-0.203125 -0.015625,-0.59375 -0.375,-0.921875 -0.21875,-0.203125 -0.484375,-0.40625 -0.984375,-0.40625 -0.421875,0 -0.734375,0.21875 -0.9375,0.5625 z m 0.875,1.890625 C 1,-0.09375 1,-1.125 1,-1.359375 c 0,-0.5 0.328125,-1 0.875,-1 0.3125,0 0.484375,0.125 0.625,0.3125 0.171875,0.234375 0.171875,0.515625 0.171875,0.828125 0,0.40625 -0.015625,0.609375 -0.21875,0.859375 C 2.3125,-0.1875 2.125,-0.09375 1.84375,-0.09375 Z m 0,0"
                 id="path81892" />
            </g>
            <g
               id="g81898"
               transform="translate(13.227911,4.9640002)">
              <path
                 style="stroke:none"
                 d="m 1.765625,-1.984375 c 0.5,0 0.84375,0.34375 0.84375,0.953125 0,0.65625 -0.390625,0.9375 -0.828125,0.9375 C 1.609375,-0.09375 1,-0.125 0.734375,-0.46875 0.96875,-0.5 1.0625,-0.65625 1.0625,-0.8125 c 0,-0.203125 -0.140625,-0.34375 -0.34375,-0.34375 -0.15625,0 -0.34375,0.109375 -0.34375,0.359375 0,0.59375 0.65625,0.921875 1.421875,0.921875 0.890625,0 1.46875,-0.5625 1.46875,-1.15625 0,-0.4375 -0.328125,-0.90625 -1.046875,-1.078125 0.484375,-0.15625 0.859375,-0.546875 0.859375,-1.03125 0,-0.484375 -0.5625,-0.84375 -1.28125,-0.84375 -0.703125,0 -1.234375,0.328125 -1.234375,0.8125 0,0.265625 0.203125,0.328125 0.328125,0.328125 0.15625,0 0.3125,-0.09375 0.3125,-0.3125 0,-0.1875 -0.125,-0.296875 -0.296875,-0.3125 0.28125,-0.3125 0.828125,-0.3125 0.890625,-0.3125 0.296875,0 0.6875,0.140625 0.6875,0.640625 0,0.328125 -0.1875,0.90625 -0.796875,0.9375 -0.109375,0 -0.265625,0.015625 -0.3125,0.015625 -0.0625,0.015625 -0.125,0.015625 -0.125,0.109375 0,0.09375 0.0625,0.09375 0.15625,0.09375 z m 0,0"
                 id="path81896" />
            </g>
          </g>
        </g>
        <g
           style="fill:#000000;fill-opacity:1"
           id="g81908">
          <g
             id="g81906"
             transform="translate(16.881001,2.4560001)">
            <path
               style="stroke:none"
               d="m 3.046875,-1.25 c 0,-0.65625 -0.546875,-1.203125 -1.21875,-1.203125 -0.65625,0 -1.203125,0.546875 -1.203125,1.203125 0,0.671875 0.546875,1.21875 1.203125,1.21875 0.671875,0 1.21875,-0.546875 1.21875,-1.21875 z m -1.21875,0.9375 c -0.5,0 -0.921875,-0.421875 -0.921875,-0.9375 0,-0.515625 0.421875,-0.921875 0.921875,-0.921875 0.515625,0 0.9375,0.40625 0.9375,0.921875 0,0.515625 -0.421875,0.9375 -0.9375,0.9375 z m 0,0"
               id="path81904" />
          </g>
        </g>
      </g>
    </g>
    <path
       style="fill:none;stroke:#0000ff;stroke-width:0.132292;stroke-linecap:round;stroke-linejoin:round;stroke-dasharray:none;stroke-dashoffset:0;paint-order:stroke markers fill"
       id="path84101"
       sodipodi:type="arc"
       sodipodi:cx="143.93332"
       sodipodi:cy="255.12955"
       sodipodi:rx="9.5249996"
       sodipodi:ry="9.5249996"
       sodipodi:start="3.4973359"
       sodipodi:end="4.712389"
       sodipodi:arc-type="arc"
       d="m 135.0047,251.81211 a 9.5249996,9.5249996 0 0 1 8.92862,-6.20756"
       sodipodi:open="true" />
  </g>
</svg>
