<?xml version="1.0" encoding="UTF-8" standalone="no"?>
<!-- Created with Inkscape (http://www.inkscape.org/) -->

<svg
   width="224"
   height="128.00002"
   viewBox="0 0 59.266664 33.86667"
   version="1.1"
   id="svg5"
   sodipodi:docname="f90.svg"
   inkscape:version="1.2.1 (9c6d41e410, 2022-07-14)"
   xmlns:inkscape="http://www.inkscape.org/namespaces/inkscape"
   xmlns:sodipodi="http://sodipodi.sourceforge.net/DTD/sodipodi-0.dtd"
   xmlns="http://www.w3.org/2000/svg"
   xmlns:svg="http://www.w3.org/2000/svg">
  <sodipodi:namedview
     id="namedview7"
     pagecolor="#ffffff"
     bordercolor="#000000"
     borderopacity="0.25"
     inkscape:showpageshadow="false"
     inkscape:pageopacity="0.0"
     inkscape:pagecheckerboard="0"
     inkscape:deskcolor="#d1d1d1"
     inkscape:document-units="px"
     showgrid="false"
     inkscape:zoom="2"
     inkscape:cx="187.75"
     inkscape:cy="25.75"
     inkscape:window-width="1920"
     inkscape:window-height="1050"
     inkscape:window-x="0"
     inkscape:window-y="18"
     inkscape:window-maximized="1"
     inkscape:current-layer="layer1"
     showguides="true">
    <inkscape:grid
       type="xygrid"
       id="grid132"
       spacingx="1.0583333"
       spacingy="1.0583333"
       empspacing="4"
       originx="1.4438228e-12"
       originy="3.7599552e-13" />
    <sodipodi:guide
       position="8.8772545e-17,304.79999"
       orientation="0,-1"
       id="guide43929"
       inkscape:locked="false" />
    <sodipodi:guide
       position="8.8772545e-17,270.93332"
       orientation="0,-1"
       id="guide43931"
       inkscape:locked="false" />
    <sodipodi:guide
       position="8.8772545e-17,237.06666"
       orientation="0,-1"
       id="guide43980"
       inkscape:locked="false" />
    <sodipodi:guide
       position="8.8772545e-17,203.19999"
       orientation="0,-1"
       id="guide50670"
       inkscape:locked="false" />
    <sodipodi:guide
       position="8.8772545e-17,169.33333"
       orientation="0,-1"
       id="guide53390"
       inkscape:locked="false" />
    <sodipodi:guide
       position="8.8772545e-17,135.46666"
       orientation="0,-1"
       id="guide56092"
       inkscape:locked="false" />
    <sodipodi:guide
       position="8.8772545e-17,101.6"
       orientation="0,-1"
       id="guide60236"
       inkscape:locked="false" />
    <sodipodi:guide
       position="59.266664,304.79999"
       orientation="1,0"
       id="guide64322"
       inkscape:locked="false" />
    <sodipodi:guide
       position="93.133327,304.79999"
       orientation="1,0"
       id="guide77000"
       inkscape:locked="false" />
    <sodipodi:guide
       position="127,304.79999"
       orientation="1,0"
       id="guide91126"
       inkscape:locked="false" />
    <sodipodi:guide
       position="110.06666,287.86666"
       orientation="0,-1"
       id="guide94039"
       inkscape:locked="false" />
    <sodipodi:guide
       position="143.93332,229.65832"
       orientation="1,0"
       id="guide94041"
       inkscape:locked="false" />
    <sodipodi:guide
       position="160.86666,304.79999"
       orientation="1,0"
       id="guide98266"
       inkscape:locked="false" />
    <sodipodi:guide
       position="110.06666,110.06666"
       orientation="1,0"
       id="guide108765"
       inkscape:locked="false" />
    <sodipodi:guide
       position="110.06666,253.99999"
       orientation="0,-1"
       id="guide108767"
       inkscape:locked="false" />
    <sodipodi:guide
       position="8.8772545e-17,67.733335"
       orientation="0,-1"
       id="guide305044"
       inkscape:locked="false" />
    <sodipodi:guide
       position="8.8772545e-17,33.866665"
       orientation="0,-1"
       id="guide74580"
       inkscape:locked="false" />
    <sodipodi:guide
       position="8.8772545e-17,33.866665"
       orientation="1,0"
       id="guide76758"
       inkscape:locked="false" />
    <sodipodi:guide
       position="8.8772545e-17,-1.3255672e-06"
       orientation="0,-1"
       id="guide22879"
       inkscape:locked="false" />
  </sodipodi:namedview>
  <defs
     id="defs2">
    <marker
       style="overflow:visible"
       id="Arrow2"
       refX="0"
       refY="0"
       orient="auto-start-reverse"
       inkscape:stockid="Arrow2"
       markerWidth="7.6999998"
       markerHeight="5.5999999"
       viewBox="0 0 7.7 5.6"
       inkscape:isstock="true"
       inkscape:collect="always"
       preserveAspectRatio="xMidYMid">
      <path
         transform="scale(0.7)"
         d="M -2,-4 9,0 -2,4 c 2,-2.33 2,-5.66 0,-8 z"
         style="fill:context-stroke;fill-rule:evenodd;stroke:none"
         id="arrow2L" />
    </marker>
    <clipPath
       id="clipPath1513">
      <path
         d="m 26,5 h 6 v 5.234375 h -6 z m 0,0"
         id="path83898" />
    </clipPath>
    <clipPath
       id="clipPath679">
      <path
         d="m 4,7 h 8 v 4.945312 H 4 Z m 0,0"
         id="path64398" />
    </clipPath>
    <clipPath
       id="clipPath72914">
      <path
         d="m 32,7 h 6 v 4.945312 h -6 z m 0,0"
         id="path93816" />
    </clipPath>
  </defs>
  <g
     inkscape:label="Capa 1"
     inkscape:groupmode="layer"
     id="layer1"
     transform="translate(0,-270.93332)">
    <rect
       style="fill:#ffffff;stroke:none;stroke-width:0.0264583;stroke-linecap:round;stroke-linejoin:round;paint-order:stroke markers fill"
       id="rect2468"
       width="59.266666"
       height="33.866669"
       x="1.443734e-12"
       y="270.93332"
       inkscape:export-filename="f80.svg"
       inkscape:export-xdpi="96"
       inkscape:export-ydpi="96" />
    <g
       id="g2484"
       transform="translate(2.2299112e-8,270.9333)">
      <rect
         style="fill:none;stroke:#ff0000;stroke-width:0.264583;stroke-linecap:round;stroke-linejoin:round;paint-order:stroke markers fill"
         id="rect2470"
         width="8.4666662"
         height="8.4666662"
         x="12.7"
         y="12.7" />
      <path
         style="fill:none;stroke:#000000;stroke-width:0.264583;stroke-linecap:round;stroke-linejoin:round;marker-end:url(#Arrow2);paint-order:stroke markers fill"
         d="M 16.933334,12.7 V 4.2333331"
         id="path2472" />
      <path
         style="fill:none;stroke:#000000;stroke-width:0.264583;stroke-linecap:round;stroke-linejoin:round;marker-end:url(#Arrow2);paint-order:stroke markers fill"
         d="m 16.933334,21.457708 v 8.466667"
         id="path2474" />
      <path
         style="fill:none;stroke:#000000;stroke-width:0.264583;stroke-linecap:round;stroke-linejoin:round;marker-end:url(#Arrow2);paint-order:stroke markers fill"
         d="M 10.583334,22.224999 V 13.758333"
         id="path2476" />
      <path
         style="fill:none;stroke:#000000;stroke-width:0.264583;stroke-linecap:round;stroke-linejoin:round;marker-end:url(#Arrow2);paint-order:stroke markers fill"
         d="m 23.283334,11.641667 v 8.466666"
         id="path2478" />
      <path
         style="fill:none;stroke:#000000;stroke-width:0.264583;stroke-linecap:round;stroke-linejoin:round;marker-end:url(#Arrow2);paint-order:stroke markers fill"
         d="M 22.225,10.583333 H 13.758334"
         id="path2480" />
      <path
         style="fill:none;stroke:#000000;stroke-width:0.264583;stroke-linecap:round;stroke-linejoin:round;marker-end:url(#Arrow2);paint-order:stroke markers fill"
         d="m 11.641668,23.283333 h 8.466666"
         id="path2482" />
    </g>
    <g
       inkscape:label=""
       transform="translate(21.219255,274.77529)"
       id="g9134">
      <g
         id="g9132"
         transform="matrix(0.352778,0,0,0.352778,-0.115755,0.046699)">
        <g
           style="fill:#000000;fill-opacity:1"
           id="g9090">
          <g
             id="g9088"
             transform="translate(0,7.1100001)">
            <path
               style="stroke:none"
               d="m 4.375,-2.90625 c 0.140625,0 0.203125,0 0.296875,-0.0625 0.078125,-0.078125 0.125,-0.1875 0.125,-0.25 0,-0.21875 -0.203125,-0.21875 -0.34375,-0.21875 H 2.5 c -1.234375,0 -2.171875,1.265625 -2.171875,2.21875 0,0.78125 0.5625,1.296875 1.296875,1.296875 1,0 2.09375,-0.96875 2.09375,-2.15625 C 3.71875,-2.5 3.5625,-2.75 3.484375,-2.90625 Z m -2.734375,2.765625 c -0.40625,0 -0.75,-0.265625 -0.75,-0.84375 0,-0.34375 0.1875,-1.921875 1.46875,-1.921875 0.78125,0 0.78125,0.59375 0.78125,0.75 0,0.828125 -0.5625,2.015625 -1.5,2.015625 z m 0,0"
               id="path9086" />
          </g>
        </g>
        <g
           style="fill:#000000;fill-opacity:1"
           id="g9096">
          <g
             id="g9094"
             transform="translate(4.8390002,8.1070004)">
            <path
               style="stroke:none"
               d="m 3.5625,-2.296875 c 0.015625,-0.046875 0.015625,-0.0625 0.015625,-0.078125 0,-0.078125 -0.046875,-0.203125 -0.203125,-0.203125 -0.109375,0 -0.203125,0.0625 -0.25,0.15625 -0.03125,0.03125 -0.0625,0.21875 -0.09375,0.328125 l -0.3125,1.25 c -0.046875,0.171875 -0.0625,0.265625 -0.3125,0.484375 -0.0625,0.0625 -0.25,0.21875 -0.515625,0.21875 -0.4375,0 -0.4375,-0.390625 -0.4375,-0.5 0,-0.25 0.078125,-0.53125 0.34375,-1.1875 0.046875,-0.140625 0.0625,-0.1875 0.0625,-0.296875 0,-0.328125 -0.296875,-0.515625 -0.59375,-0.515625 -0.609375,0 -0.90625,0.796875 -0.90625,0.921875 0,0.03125 0.03125,0.078125 0.109375,0.078125 0.09375,0 0.109375,-0.03125 0.125,-0.078125 C 0.765625,-2.296875 1.078125,-2.4375 1.25,-2.4375 c 0.109375,0 0.15625,0.078125 0.15625,0.21875 0,0.125 -0.078125,0.328125 -0.140625,0.484375 -0.21875,0.53125 -0.28125,0.796875 -0.28125,1.015625 0,0.5625 0.421875,0.78125 0.890625,0.78125 0.078125,0 0.359375,0 0.6875,-0.28125 -0.078125,0.328125 -0.140625,0.5625 -0.421875,0.875 -0.109375,0.125 -0.375,0.359375 -0.734375,0.359375 -0.0625,0 -0.3125,0 -0.453125,-0.15625 C 1.21875,0.8125 1.25,0.578125 1.25,0.53125 1.25,0.359375 1.125,0.296875 1,0.296875 c -0.140625,0 -0.34375,0.125 -0.34375,0.390625 0,0.296875 0.28125,0.53125 0.75,0.53125 C 2.046875,1.21875 2.8125,0.75 2.984375,0 Z m 0,0"
               id="path9092" />
          </g>
        </g>
        <g
           style="fill:#000000;fill-opacity:1"
           id="g9102">
          <g
             id="g9100"
             transform="translate(11.689,7.1100001)">
            <path
               style="stroke:none"
               d="m 5.828125,-2.65625 c 0.109375,0 0.28125,0 0.28125,-0.1875 0,-0.171875 -0.203125,-0.171875 -0.3125,-0.171875 H 0.78125 c -0.125,0 -0.3125,0 -0.3125,0.171875 0,0.1875 0.15625,0.1875 0.28125,0.1875 z m -0.03125,1.6875 c 0.109375,0 0.3125,0 0.3125,-0.171875 0,-0.1875 -0.171875,-0.1875 -0.28125,-0.1875 H 0.75 c -0.125,0 -0.28125,0 -0.28125,0.1875 0,0.171875 0.1875,0.171875 0.3125,0.171875 z m 0,0"
               id="path9098" />
          </g>
        </g>
        <g
           style="fill:#000000;fill-opacity:1"
           id="g9120">
          <g
             id="g9106"
             transform="translate(21.823,3.852)">
            <path
               style="stroke:none"
               d="M 1.015625,-3.328125 C 1.21875,-3.265625 1.421875,-3.25 1.625,-3.25 c 0.140625,0 0.46875,0 0.84375,-0.203125 0.109375,-0.0625 0.46875,-0.3125 0.46875,-0.4375 0,-0.078125 -0.046875,-0.09375 -0.078125,-0.09375 -0.015625,0 -0.015625,0 -0.09375,0.03125 C 2.5625,-3.875 2.25,-3.78125 1.859375,-3.78125 1.5625,-3.78125 1.25,-3.84375 0.96875,-3.9375 0.921875,-3.96875 0.890625,-3.984375 0.875,-3.984375 c -0.09375,0 -0.09375,0.078125 -0.09375,0.171875 v 1.796875 c 0,0.09375 0,0.171875 0.109375,0.171875 C 0.953125,-1.84375 0.96875,-1.875 1,-1.921875 1.15625,-2.109375 1.421875,-2.3125 1.890625,-2.3125 2.625,-2.3125 2.625,-1.421875 2.625,-1.234375 2.625,-1 2.609375,-0.65625 2.40625,-0.40625 c -0.1875,0.21875 -0.46875,0.3125 -0.71875,0.3125 -0.40625,0 -0.828125,-0.21875 -0.96875,-0.578125 0.296875,0 0.328125,-0.234375 0.328125,-0.296875 0,-0.171875 -0.125,-0.3125 -0.3125,-0.3125 C 0.6875,-1.28125 0.4375,-1.25 0.4375,-0.953125 0.4375,-0.40625 0.953125,0.125 1.703125,0.125 2.53125,0.125 3.21875,-0.453125 3.21875,-1.203125 3.21875,-1.890625 2.671875,-2.5 1.890625,-2.5 c -0.375,0 -0.6875,0.125 -0.875,0.28125 z m 0,0"
               id="path9104" />
          </g>
          <g
             id="g9110"
             transform="translate(25.47591,3.852)">
            <path
               style="stroke:none"
               d="M 1.015625,-3.328125 C 1.21875,-3.265625 1.421875,-3.25 1.625,-3.25 c 0.140625,0 0.46875,0 0.84375,-0.203125 0.109375,-0.0625 0.46875,-0.3125 0.46875,-0.4375 0,-0.078125 -0.046875,-0.09375 -0.078125,-0.09375 -0.015625,0 -0.015625,0 -0.09375,0.03125 C 2.5625,-3.875 2.25,-3.78125 1.859375,-3.78125 1.5625,-3.78125 1.25,-3.84375 0.96875,-3.9375 0.921875,-3.96875 0.890625,-3.984375 0.875,-3.984375 c -0.09375,0 -0.09375,0.078125 -0.09375,0.171875 v 1.796875 c 0,0.09375 0,0.171875 0.109375,0.171875 C 0.953125,-1.84375 0.96875,-1.875 1,-1.921875 1.15625,-2.109375 1.421875,-2.3125 1.890625,-2.3125 2.625,-2.3125 2.625,-1.421875 2.625,-1.234375 2.625,-1 2.609375,-0.65625 2.40625,-0.40625 c -0.1875,0.21875 -0.46875,0.3125 -0.71875,0.3125 -0.40625,0 -0.828125,-0.21875 -0.96875,-0.578125 0.296875,0 0.328125,-0.234375 0.328125,-0.296875 0,-0.171875 -0.125,-0.3125 -0.3125,-0.3125 C 0.6875,-1.28125 0.4375,-1.25 0.4375,-0.953125 0.4375,-0.40625 0.953125,0.125 1.703125,0.125 2.53125,0.125 3.21875,-0.453125 3.21875,-1.203125 3.21875,-1.890625 2.671875,-2.5 1.890625,-2.5 c -0.375,0 -0.6875,0.125 -0.875,0.28125 z m 0,0"
               id="path9108" />
          </g>
          <g
             id="g9114"
             transform="translate(29.128822,3.852)">
            <path
               style="stroke:none"
               d="m 3.296875,-1.90625 c 0,-0.4375 0,-2.078125 -1.46875,-2.078125 -1.46875,0 -1.46875,1.640625 -1.46875,2.078125 0,0.421875 0,2.03125 1.46875,2.03125 1.46875,0 1.46875,-1.609375 1.46875,-2.03125 z m -1.46875,1.84375 c -0.25,0 -0.65625,-0.125 -0.8125,-0.625 -0.09375,-0.34375 -0.09375,-0.921875 -0.09375,-1.296875 0,-0.40625 0,-0.859375 0.09375,-1.1875 0.140625,-0.53125 0.59375,-0.609375 0.8125,-0.609375 0.265625,0 0.671875,0.125 0.796875,0.578125 0.09375,0.3125 0.09375,0.75 0.09375,1.21875 0,0.375 0,0.984375 -0.09375,1.3125 C 2.453125,-0.140625 2.015625,-0.0625 1.828125,-0.0625 Z m 0,0"
               id="path9112" />
          </g>
          <g
             id="g9118"
             transform="translate(32.781734,3.852)">
            <path
               style="stroke:none"
               d="m 3.296875,-1.90625 c 0,-0.4375 0,-2.078125 -1.46875,-2.078125 -1.46875,0 -1.46875,1.640625 -1.46875,2.078125 0,0.421875 0,2.03125 1.46875,2.03125 1.46875,0 1.46875,-1.609375 1.46875,-2.03125 z m -1.46875,1.84375 c -0.25,0 -0.65625,-0.125 -0.8125,-0.625 -0.09375,-0.34375 -0.09375,-0.921875 -0.09375,-1.296875 0,-0.40625 0,-0.859375 0.09375,-1.1875 0.140625,-0.53125 0.59375,-0.609375 0.8125,-0.609375 0.265625,0 0.671875,0.125 0.796875,0.578125 0.09375,0.3125 0.09375,0.75 0.09375,1.21875 0,0.375 0,0.984375 -0.09375,1.3125 C 2.453125,-0.140625 2.015625,-0.0625 1.828125,-0.0625 Z m 0,0"
               id="path9116" />
          </g>
        </g>
        <path
           style="fill:none;stroke:#000000;stroke-width:0.359;stroke-linecap:butt;stroke-linejoin:miter;stroke-miterlimit:10;stroke-opacity:1"
           d="M 0.00121875,8.125e-4 H 14.610594"
           transform="matrix(1,0,0,-1,21.823,5.118)"
           id="path9122" />
        <g
           clip-path="url(#clipPath1513)"
           clip-rule="nonzero"
           id="g9130">
          <g
             style="fill:#000000;fill-opacity:1"
             id="g9128">
            <g
               id="g9126"
               transform="translate(26.367001,10.236)">
              <path
                 style="stroke:none"
                 d="m 1.359375,-0.734375 c -0.234375,0.34375 -0.4375,0.46875 -0.765625,0.5 -0.09375,0 -0.15625,0 -0.15625,0.140625 C 0.4375,-0.03125 0.484375,0 0.515625,0 0.6875,0 0.890625,-0.03125 1.0625,-0.03125 1.203125,-0.03125 1.5625,0 1.703125,0 c 0.0625,0 0.125,-0.03125 0.125,-0.15625 0,-0.078125 -0.078125,-0.078125 -0.09375,-0.078125 C 1.578125,-0.25 1.453125,-0.28125 1.453125,-0.40625 c 0,-0.078125 0.0625,-0.1875 0.078125,-0.21875 l 0.5,-0.734375 h 1.796875 l 0.15625,0.96875 c 0,0.15625 -0.34375,0.15625 -0.40625,0.15625 -0.078125,0 -0.171875,0 -0.171875,0.140625 C 3.40625,-0.0625 3.4375,0 3.5,0 c 0.1875,0 0.625,-0.03125 0.796875,-0.03125 0.125,0 0.234375,0.015625 0.359375,0.015625 C 4.78125,-0.015625 4.90625,0 5.015625,0 5.0625,0 5.15625,0 5.15625,-0.15625 c 0,-0.078125 -0.078125,-0.078125 -0.171875,-0.078125 -0.375,0 -0.375,-0.046875 -0.40625,-0.203125 L 3.984375,-4.109375 C 3.96875,-4.21875 3.96875,-4.265625 3.828125,-4.265625 c -0.125,0 -0.15625,0.046875 -0.21875,0.125 z M 2.1875,-1.59375 3.484375,-3.546875 3.78125,-1.59375 Z m 0,0"
                 id="path9124" />
            </g>
          </g>
        </g>
      </g>
    </g>
    <g
       inkscape:label=""
       transform="translate(25.112981,293.37722)"
       id="g15730">
      <g
         id="g15728"
         transform="matrix(0.352778,0,0,0.352778,-0.0826823,-0.107774)">
        <g
           style="fill:#000000;fill-opacity:1"
           id="g56">
          <g
             id="use54"
             transform="translate(0,8.8179998)">
            <path
               style="stroke:none"
               d="m 2.5,-2.90625 h 1.421875 c 0.140625,0 0.21875,0 0.296875,-0.0625 0.09375,-0.09375 0.125,-0.1875 0.125,-0.25 0,-0.21875 -0.203125,-0.21875 -0.328125,-0.21875 h -2.40625 c -0.171875,0 -0.484375,0 -0.875,0.390625 -0.28125,0.28125 -0.5,0.640625 -0.5,0.703125 0,0.078125 0.046875,0.09375 0.109375,0.09375 C 0.4375,-2.25 0.453125,-2.265625 0.5,-2.328125 0.890625,-2.90625 1.359375,-2.90625 1.53125,-2.90625 h 0.6875 l -0.6875,2.203125 C 1.484375,-0.515625 1.375,-0.1875 1.375,-0.15625 c 0,0.1875 0.171875,0.25 0.265625,0.25 0.296875,0 0.34375,-0.28125 0.375,-0.390625 z m 0,0"
               id="path101" />
          </g>
        </g>
        <g
           clip-path="url(#clipPath679)"
           clip-rule="nonzero"
           id="g15699">
          <g
             style="fill:#000000;fill-opacity:1"
             id="g15697">
            <g
               id="g15692"
               transform="translate(3.7579999,9.8149996)">
              <path
                 style="stroke:none"
                 d="m 3.375,-2.359375 c -0.21875,0.0625 -0.265625,0.234375 -0.265625,0.328125 0,0.1875 0.15625,0.234375 0.234375,0.234375 0.1875,0 0.359375,-0.140625 0.359375,-0.375 0,-0.328125 -0.359375,-0.46875 -0.65625,-0.46875 -0.40625,0 -0.640625,0.3125 -0.703125,0.421875 -0.078125,-0.15625 -0.3125,-0.421875 -0.765625,-0.421875 -0.6875,0 -1.09375,0.71875 -1.09375,0.921875 0,0.03125 0.03125,0.078125 0.109375,0.078125 0.09375,0 0.109375,-0.03125 0.125,-0.078125 0.15625,-0.484375 0.5625,-0.71875 0.84375,-0.71875 0.296875,0 0.390625,0.1875 0.390625,0.390625 0,0.0625 0,0.125 -0.046875,0.3125 -0.140625,0.546875 -0.265625,1.09375 -0.296875,1.171875 -0.09375,0.21875 -0.3125,0.421875 -0.5625,0.421875 -0.03125,0 -0.203125,0 -0.34375,-0.09375 C 0.9375,-0.3125 0.96875,-0.5 0.96875,-0.546875 c 0,-0.15625 -0.125,-0.234375 -0.25,-0.234375 -0.15625,0 -0.34375,0.125 -0.34375,0.375 0,0.34375 0.375,0.46875 0.65625,0.46875 0.34375,0 0.59375,-0.234375 0.703125,-0.421875 0.125,0.25 0.40625,0.421875 0.75,0.421875 0.703125,0 1.09375,-0.734375 1.09375,-0.921875 0,-0.015625 0,-0.09375 -0.109375,-0.09375 -0.078125,0 -0.09375,0.046875 -0.109375,0.109375 C 3.1875,-0.328125 2.765625,-0.140625 2.5,-0.140625 c -0.21875,0 -0.375,-0.125 -0.375,-0.375 0,-0.125 0.015625,-0.25 0.078125,-0.453125 L 2.390625,-1.75 c 0.0625,-0.234375 0.09375,-0.34375 0.21875,-0.484375 C 2.6875,-2.328125 2.84375,-2.4375 3.03125,-2.4375 c 0.03125,0 0.203125,0 0.34375,0.078125 z m 0,0"
                 id="path105" />
            </g>
            <g
               id="g15695"
               transform="translate(7.9297671,9.8149996)">
              <path
                 style="stroke:none"
                 d="m 3.5625,-2.296875 c 0.015625,-0.046875 0.015625,-0.0625 0.015625,-0.078125 0,-0.078125 -0.046875,-0.203125 -0.203125,-0.203125 -0.109375,0 -0.203125,0.0625 -0.25,0.15625 -0.03125,0.03125 -0.0625,0.21875 -0.09375,0.328125 l -0.3125,1.25 c -0.046875,0.171875 -0.0625,0.265625 -0.3125,0.484375 -0.0625,0.0625 -0.25,0.21875 -0.515625,0.21875 -0.4375,0 -0.4375,-0.390625 -0.4375,-0.5 0,-0.25 0.078125,-0.53125 0.34375,-1.1875 0.046875,-0.140625 0.0625,-0.1875 0.0625,-0.296875 0,-0.328125 -0.296875,-0.515625 -0.59375,-0.515625 -0.609375,0 -0.90625,0.796875 -0.90625,0.921875 0,0.03125 0.03125,0.078125 0.109375,0.078125 0.09375,0 0.109375,-0.03125 0.125,-0.078125 C 0.765625,-2.296875 1.078125,-2.4375 1.25,-2.4375 c 0.109375,0 0.15625,0.078125 0.15625,0.21875 0,0.125 -0.078125,0.328125 -0.140625,0.484375 -0.21875,0.53125 -0.28125,0.796875 -0.28125,1.015625 0,0.5625 0.421875,0.78125 0.890625,0.78125 0.078125,0 0.359375,0 0.6875,-0.28125 -0.078125,0.328125 -0.140625,0.5625 -0.421875,0.875 -0.109375,0.125 -0.375,0.359375 -0.734375,0.359375 -0.0625,0 -0.3125,0 -0.453125,-0.15625 C 1.21875,0.8125 1.25,0.578125 1.25,0.53125 1.25,0.359375 1.125,0.296875 1,0.296875 c -0.140625,0 -0.34375,0.125 -0.34375,0.390625 0,0.296875 0.28125,0.53125 0.75,0.53125 C 2.046875,1.21875 2.8125,0.75 2.984375,0 Z m 0,0"
                 id="path109" />
            </g>
          </g>
        </g>
        <g
           style="fill:#000000;fill-opacity:1"
           id="g68">
          <g
             id="use66"
             transform="translate(14.779,8.8179998)">
            <path
               style="stroke:none"
               d="m 5.828125,-2.65625 c 0.109375,0 0.28125,0 0.28125,-0.1875 0,-0.171875 -0.203125,-0.171875 -0.3125,-0.171875 H 0.78125 c -0.125,0 -0.3125,0 -0.3125,0.171875 0,0.1875 0.15625,0.1875 0.28125,0.1875 z m -0.03125,1.6875 c 0.109375,0 0.3125,0 0.3125,-0.171875 0,-0.1875 -0.171875,-0.1875 -0.28125,-0.1875 H 0.75 c -0.125,0 -0.28125,0 -0.28125,0.1875 0,0.171875 0.1875,0.171875 0.3125,0.171875 z m 0,0"
               id="path113" />
          </g>
        </g>
        <g
           style="fill:#000000;fill-opacity:1"
           id="g76">
          <g
             id="use70"
             transform="translate(24.914,5.5599999)">
            <path
               style="stroke:none"
               d="M 1.015625,-3.328125 C 1.21875,-3.265625 1.421875,-3.25 1.625,-3.25 c 0.140625,0 0.46875,0 0.84375,-0.203125 0.109375,-0.0625 0.46875,-0.3125 0.46875,-0.4375 0,-0.078125 -0.046875,-0.09375 -0.078125,-0.09375 -0.015625,0 -0.015625,0 -0.09375,0.03125 C 2.5625,-3.875 2.25,-3.78125 1.859375,-3.78125 1.5625,-3.78125 1.25,-3.84375 0.96875,-3.9375 0.921875,-3.96875 0.890625,-3.984375 0.875,-3.984375 c -0.09375,0 -0.09375,0.078125 -0.09375,0.171875 v 1.796875 c 0,0.09375 0,0.171875 0.109375,0.171875 C 0.953125,-1.84375 0.96875,-1.875 1,-1.921875 1.15625,-2.109375 1.421875,-2.3125 1.890625,-2.3125 2.625,-2.3125 2.625,-1.421875 2.625,-1.234375 2.625,-1 2.609375,-0.65625 2.40625,-0.40625 c -0.1875,0.21875 -0.46875,0.3125 -0.71875,0.3125 -0.40625,0 -0.828125,-0.21875 -0.96875,-0.578125 0.296875,0 0.328125,-0.234375 0.328125,-0.296875 0,-0.171875 -0.125,-0.3125 -0.3125,-0.3125 C 0.6875,-1.28125 0.4375,-1.25 0.4375,-0.953125 0.4375,-0.40625 0.953125,0.125 1.703125,0.125 2.53125,0.125 3.21875,-0.453125 3.21875,-1.203125 3.21875,-1.890625 2.671875,-2.5 1.890625,-2.5 c -0.375,0 -0.6875,0.125 -0.875,0.28125 z m 0,0"
               id="path117" />
          </g>
          <g
             id="g15707"
             transform="translate(28.566912,5.5599999)">
            <path
               style="stroke:none"
               d="m 3.296875,-1.90625 c 0,-0.4375 0,-2.078125 -1.46875,-2.078125 -1.46875,0 -1.46875,1.640625 -1.46875,2.078125 0,0.421875 0,2.03125 1.46875,2.03125 1.46875,0 1.46875,-1.609375 1.46875,-2.03125 z m -1.46875,1.84375 c -0.25,0 -0.65625,-0.125 -0.8125,-0.625 -0.09375,-0.34375 -0.09375,-0.921875 -0.09375,-1.296875 0,-0.40625 0,-0.859375 0.09375,-1.1875 0.140625,-0.53125 0.59375,-0.609375 0.8125,-0.609375 0.265625,0 0.671875,0.125 0.796875,0.578125 0.09375,0.3125 0.09375,0.75 0.09375,1.21875 0,0.375 0,0.984375 -0.09375,1.3125 C 2.453125,-0.140625 2.015625,-0.0625 1.828125,-0.0625 Z m 0,0"
               id="path121" />
          </g>
          <g
             id="use74"
             transform="translate(32.219822,5.5599999)">
            <path
               style="stroke:none"
               d="m 3.296875,-1.90625 c 0,-0.4375 0,-2.078125 -1.46875,-2.078125 -1.46875,0 -1.46875,1.640625 -1.46875,2.078125 0,0.421875 0,2.03125 1.46875,2.03125 1.46875,0 1.46875,-1.609375 1.46875,-2.03125 z m -1.46875,1.84375 c -0.25,0 -0.65625,-0.125 -0.8125,-0.625 -0.09375,-0.34375 -0.09375,-0.921875 -0.09375,-1.296875 0,-0.40625 0,-0.859375 0.09375,-1.1875 0.140625,-0.53125 0.59375,-0.609375 0.8125,-0.609375 0.265625,0 0.671875,0.125 0.796875,0.578125 0.09375,0.3125 0.09375,0.75 0.09375,1.21875 0,0.375 0,0.984375 -0.09375,1.3125 C 2.453125,-0.140625 2.015625,-0.0625 1.828125,-0.0625 Z m 0,0"
               id="path125" />
          </g>
        </g>
        <g
           style="fill:#000000;fill-opacity:1"
           id="g15714">
          <g
             id="use78"
             transform="translate(35.872002,0.61799997)">
            <path
               style="stroke:none"
               d="M 2.859375,5.015625 1.625,2.6875 C 1.578125,2.625 1.5625,2.59375 1.515625,2.59375 1.484375,2.59375 1.4375,2.625 1.421875,2.640625 l -0.65625,0.40625 C 0.6875,3.09375 0.65625,3.125 0.65625,3.171875 c 0,0.046875 0.0625,0.09375 0.109375,0.09375 0.015625,0 0.03125,0 0.4375,-0.265625 l 1.375,2.578125 c 0.046875,0.078125 0.0625,0.09375 0.140625,0.09375 0.125,0 0.140625,-0.03125 0.203125,-0.125 L 6.09375,-0.03125 c 0.03125,-0.0625 0.046875,-0.078125 0.046875,-0.125 0,-0.078125 -0.078125,-0.15625 -0.15625,-0.15625 -0.09375,0 -0.125,0.078125 -0.15625,0.109375 z m 0,0"
               id="path129" />
          </g>
        </g>
        <path
           style="fill:none;stroke:#000000;stroke-width:0.309;stroke-linecap:butt;stroke-linejoin:miter;stroke-miterlimit:10;stroke-opacity:1"
           d="M 0.0015625,-8.4375e-4 H 3.653906"
           transform="matrix(1,0,0,-1,41.85,0.464)"
           id="path15716" />
        <g
           style="fill:#000000;fill-opacity:1"
           id="g86">
          <g
             id="use84"
             transform="translate(41.849998,5.5599999)">
            <path
               style="stroke:none"
               d="m 1.765625,-1.984375 c 0.5,0 0.84375,0.34375 0.84375,0.953125 0,0.65625 -0.390625,0.9375 -0.828125,0.9375 C 1.609375,-0.09375 1,-0.125 0.734375,-0.46875 0.96875,-0.5 1.0625,-0.65625 1.0625,-0.8125 c 0,-0.203125 -0.140625,-0.34375 -0.34375,-0.34375 -0.15625,0 -0.34375,0.109375 -0.34375,0.359375 0,0.59375 0.65625,0.921875 1.421875,0.921875 0.890625,0 1.46875,-0.5625 1.46875,-1.15625 0,-0.4375 -0.328125,-0.90625 -1.046875,-1.078125 0.484375,-0.15625 0.859375,-0.546875 0.859375,-1.03125 0,-0.484375 -0.5625,-0.84375 -1.28125,-0.84375 -0.703125,0 -1.234375,0.328125 -1.234375,0.8125 0,0.265625 0.203125,0.328125 0.328125,0.328125 0.15625,0 0.3125,-0.09375 0.3125,-0.3125 0,-0.1875 -0.125,-0.296875 -0.296875,-0.3125 0.28125,-0.3125 0.828125,-0.3125 0.890625,-0.3125 0.296875,0 0.6875,0.140625 0.6875,0.640625 0,0.328125 -0.1875,0.90625 -0.796875,0.9375 -0.109375,0 -0.265625,0.015625 -0.3125,0.015625 -0.0625,0.015625 -0.125,0.015625 -0.125,0.109375 0,0.09375 0.0625,0.09375 0.15625,0.09375 z m 0,0"
               id="path133" />
          </g>
        </g>
        <path
           style="fill:none;stroke:#000000;stroke-width:0.359;stroke-linecap:butt;stroke-linejoin:miter;stroke-miterlimit:10;stroke-opacity:1"
           d="M 6.25e-5,0.00178125 H 20.589906"
           transform="matrix(1,0,0,-1,24.914,6.826)"
           id="path88" />
        <g
           clip-path="url(#clipPath72914)"
           clip-rule="nonzero"
           id="g94">
          <g
             style="fill:#000000;fill-opacity:1"
             id="g92">
            <g
               id="g15724"
               transform="translate(32.445999,11.944)">
              <path
                 style="stroke:none"
                 d="m 1.359375,-0.734375 c -0.234375,0.34375 -0.4375,0.46875 -0.765625,0.5 -0.09375,0 -0.15625,0 -0.15625,0.140625 C 0.4375,-0.03125 0.484375,0 0.515625,0 0.6875,0 0.890625,-0.03125 1.0625,-0.03125 1.203125,-0.03125 1.5625,0 1.703125,0 c 0.0625,0 0.125,-0.03125 0.125,-0.15625 0,-0.078125 -0.078125,-0.078125 -0.09375,-0.078125 C 1.578125,-0.25 1.453125,-0.28125 1.453125,-0.40625 c 0,-0.078125 0.0625,-0.1875 0.078125,-0.21875 l 0.5,-0.734375 h 1.796875 l 0.15625,0.96875 c 0,0.15625 -0.34375,0.15625 -0.40625,0.15625 -0.078125,0 -0.171875,0 -0.171875,0.140625 C 3.40625,-0.0625 3.4375,0 3.5,0 c 0.1875,0 0.625,-0.03125 0.796875,-0.03125 0.125,0 0.234375,0.015625 0.359375,0.015625 C 4.78125,-0.015625 4.90625,0 5.015625,0 5.0625,0 5.15625,0 5.15625,-0.15625 c 0,-0.078125 -0.078125,-0.078125 -0.171875,-0.078125 -0.375,0 -0.375,-0.046875 -0.40625,-0.203125 L 3.984375,-4.109375 C 3.96875,-4.21875 3.96875,-4.265625 3.828125,-4.265625 c -0.125,0 -0.15625,0.046875 -0.21875,0.125 z M 2.1875,-1.59375 3.484375,-3.546875 3.78125,-1.59375 Z m 0,0"
                 id="path15722" />
            </g>
          </g>
        </g>
      </g>
    </g>
  </g>
</svg>
