<?xml version="1.0" encoding="UTF-8" standalone="no"?>
<!-- Created with Inkscape (http://www.inkscape.org/) -->

<svg
   width="228.00002"
   height="144.00002"
   viewBox="0 0 60.324997 38.1"
   version="1.1"
   id="svg5"
   sodipodi:docname="zbase3.svg"
   inkscape:version="1.2.1 (9c6d41e410, 2022-07-14)"
   xmlns:inkscape="http://www.inkscape.org/namespaces/inkscape"
   xmlns:sodipodi="http://sodipodi.sourceforge.net/DTD/sodipodi-0.dtd"
   xmlns="http://www.w3.org/2000/svg"
   xmlns:svg="http://www.w3.org/2000/svg">
  <sodipodi:namedview
     id="namedview7"
     pagecolor="#ffffff"
     bordercolor="#000000"
     borderopacity="0.25"
     inkscape:showpageshadow="false"
     inkscape:pageopacity="0.0"
     inkscape:pagecheckerboard="false"
     inkscape:deskcolor="#d1d1d1"
     inkscape:document-units="px"
     showgrid="true"
     inkscape:zoom="8.0000002"
     inkscape:cx="90.499998"
     inkscape:cy="200.93749"
     inkscape:window-width="1920"
     inkscape:window-height="1050"
     inkscape:window-x="0"
     inkscape:window-y="18"
     inkscape:window-maximized="1"
     inkscape:current-layer="layer1"
     showguides="true">
    <inkscape:grid
       type="xygrid"
       id="grid1223"
       spacingx="1.0583333"
       spacingy="1.0583333"
       empspacing="4"
       originx="-4.2333331"
       originy="2.1166698" />
    <sodipodi:guide
       position="25.399996,19.050324"
       orientation="0.8660254,-0.5"
       id="guide1885"
       inkscape:locked="false"
       inkscape:label=""
       inkscape:color="rgb(0,134,229)" />
    <sodipodi:guide
       position="25.399999,19.050324"
       orientation="0.5,0.8660254"
       id="guide1887"
       inkscape:locked="false"
       inkscape:label=""
       inkscape:color="rgb(0,134,229)" />
    <sodipodi:guide
       position="25.399996,19.050325"
       orientation="1,0"
       id="guide1889"
       inkscape:locked="false" />
    <sodipodi:guide
       position="25.399995,19.050324"
       orientation="0,-1"
       id="guide1891"
       inkscape:locked="false" />
    <sodipodi:guide
       position="8.4666628,29.633657"
       orientation="0,-1"
       id="guide1960"
       inkscape:locked="false" />
    <sodipodi:guide
       position="8.4666638,8.4669907"
       orientation="0,-1"
       id="guide1962"
       inkscape:locked="false" />
    <sodipodi:guide
       position="8.4666638,23.283657"
       orientation="0,-1"
       id="guide2948"
       inkscape:locked="false" />
    <sodipodi:guide
       position="8.4666628,27.516993"
       orientation="1,0"
       id="guide4269"
       inkscape:locked="false" />
    <sodipodi:guide
       position="42.333327,19.050323"
       orientation="1,0"
       id="guide4271"
       inkscape:locked="false" />
    <sodipodi:guide
       position="-3.0216186e-06,0.00032371321"
       orientation="0,-1"
       id="guide17436"
       inkscape:locked="false" />
    <sodipodi:guide
       position="-3.0216186e-06,0.00032371321"
       orientation="1,0"
       id="guide17438"
       inkscape:locked="false" />
    <sodipodi:guide
       position="60.324995,38.100323"
       orientation="0,-1"
       id="guide17440"
       inkscape:locked="false" />
    <sodipodi:guide
       position="60.324995,38.100323"
       orientation="1,0"
       id="guide17442"
       inkscape:locked="false" />
    <sodipodi:guide
       position="27.516663,-12.699675"
       orientation="-0.5,0.8660254"
       id="guide3062"
       inkscape:locked="false"
       inkscape:label=""
       inkscape:color="rgb(0,134,229)" />
  </sodipodi:namedview>
  <defs
     id="defs2">
    <clipPath
       id="clipPath5753">
      <path
         d="M 0,0 H 7 V 4.964844 H 0 Z m 0,0"
         id="path4312" />
    </clipPath>
    <clipPath
       id="clipPath5284">
      <path
         d="M 15,0 H 41 V 5.976562 H 15 Z m 0,0"
         id="path9170" />
    </clipPath>
    <clipPath
       id="clipPath7007">
      <path
         d="M 16,0 H 42 V 5.976562 H 16 Z m 0,0"
         id="path9272" />
    </clipPath>
    <clipPath
       id="clipPath3462">
      <path
         d="M 0,0 H 6.425781 V 4.085938 H 0 Z m 0,0"
         id="path446" />
    </clipPath>
    <marker
       style="overflow:visible"
       id="Arrow2-6"
       refX="0"
       refY="0"
       orient="auto-start-reverse"
       inkscape:stockid="Arrow2"
       markerWidth="7.6999998"
       markerHeight="5.5999999"
       viewBox="0 0 7.7 5.6"
       inkscape:isstock="true"
       inkscape:collect="always"
       preserveAspectRatio="xMidYMid">
      <path
         transform="scale(0.7)"
         d="M -2,-4 9,0 -2,4 c 2,-2.33 2,-5.66 0,-8 z"
         style="fill:context-stroke;fill-rule:evenodd;stroke:none"
         id="arrow2L-7" />
    </marker>
    <marker
       style="overflow:visible"
       id="Arrow2-6-3"
       refX="0"
       refY="0"
       orient="auto-start-reverse"
       inkscape:stockid="Arrow2"
       markerWidth="7.6999998"
       markerHeight="5.5999999"
       viewBox="0 0 7.7 5.6"
       inkscape:isstock="true"
       inkscape:collect="always"
       preserveAspectRatio="xMidYMid">
      <path
         transform="scale(0.7)"
         d="M -2,-4 9,0 -2,4 c 2,-2.33 2,-5.66 0,-8 z"
         style="fill:context-stroke;fill-rule:evenodd;stroke:none"
         id="arrow2L-7-5" />
    </marker>
    <marker
       style="overflow:visible"
       id="Arrow2-6-3-2"
       refX="0"
       refY="0"
       orient="auto-start-reverse"
       inkscape:stockid="Arrow2"
       markerWidth="7.6999998"
       markerHeight="5.5999999"
       viewBox="0 0 7.7 5.6"
       inkscape:isstock="true"
       inkscape:collect="always"
       preserveAspectRatio="xMidYMid">
      <path
         transform="scale(0.7)"
         d="M -2,-4 9,0 -2,4 c 2,-2.33 2,-5.66 0,-8 z"
         style="fill:context-stroke;fill-rule:evenodd;stroke:none"
         id="arrow2L-7-5-9" />
    </marker>
    <clipPath
       id="clipPath3977">
      <path
         d="M 0,0 H 5.589844 V 4.664062 H 0 Z m 0,0"
         id="path4916" />
    </clipPath>
    <marker
       style="overflow:visible"
       id="Arrow2-6-9"
       refX="0"
       refY="0"
       orient="auto-start-reverse"
       inkscape:stockid="Arrow2"
       markerWidth="7.6999998"
       markerHeight="5.5999999"
       viewBox="0 0 7.7 5.6"
       inkscape:isstock="true"
       inkscape:collect="always"
       preserveAspectRatio="xMidYMid">
      <path
         transform="scale(0.7)"
         d="M -2,-4 9,0 -2,4 c 2,-2.33 2,-5.66 0,-8 z"
         style="fill:context-stroke;fill-rule:evenodd;stroke:none"
         id="arrow2L-7-3" />
    </marker>
  </defs>
  <g
     inkscape:label="Capa 1"
     inkscape:groupmode="layer"
     id="layer1"
     transform="translate(-4.2333331,-196.85033)">
    <rect
       style="fill:#ffffff;stroke:none;stroke-width:0.15875;stroke-linecap:butt;stroke-linejoin:round;stroke-dasharray:0.15875, 0.15875;stroke-dashoffset:0;paint-order:stroke markers fill"
       id="rect17706"
       width="60.324997"
       height="38.099998"
       x="4.2333331"
       y="196.85033" />
    <path
       style="fill:none;stroke:#000000;stroke-width:0.0529167;stroke-linecap:round;stroke-linejoin:round;stroke-dasharray:none;stroke-dashoffset:0;paint-order:stroke markers fill"
       d="M 30.691666,215.90033 38.099999,208.492"
       id="path3469"
       sodipodi:nodetypes="cc" />
    <path
       style="fill:none;stroke:#000000;stroke-width:0.0529167;stroke-linecap:round;stroke-linejoin:round;stroke-dasharray:none;stroke-dashoffset:0;paint-order:stroke markers fill"
       d="m 30.691666,215.90033 8.466667,8.46667"
       id="path3741" />
    <path
       style="fill:none;stroke:#000000;stroke-width:0.0529167;stroke-linecap:round;stroke-linejoin:round;stroke-dasharray:none;stroke-dashoffset:0;paint-order:stroke markers fill"
       d="m 29.633334,215.90033 8.466667,8.46667"
       id="path3735" />
    <path
       style="fill:none;stroke:#000000;stroke-width:0.0529167;stroke-linecap:round;stroke-linejoin:round;stroke-dasharray:none;stroke-dashoffset:0;paint-order:stroke markers fill"
       d="m 28.575,215.90033 8.466667,8.46667"
       id="path3737" />
    <path
       style="fill:none;stroke:#000000;stroke-width:0.0529167;stroke-linecap:round;stroke-linejoin:round;stroke-dasharray:none;stroke-dashoffset:0;paint-order:stroke markers fill"
       d="m 27.516665,215.90033 8.466667,8.46667"
       id="path3731" />
    <path
       style="fill:none;stroke:#000000;stroke-width:0.0529167;stroke-linecap:round;stroke-linejoin:round;stroke-dasharray:none;stroke-dashoffset:0;paint-order:stroke markers fill"
       d="m 26.458331,215.90033 8.466667,8.46667"
       id="path3733" />
    <path
       style="fill:none;stroke:#000000;stroke-width:0.0529167;stroke-linecap:round;stroke-linejoin:round;stroke-dasharray:none;stroke-dashoffset:0;paint-order:stroke markers fill"
       d="M 21.166666,216.95866 28.575,224.367"
       id="path3721"
       sodipodi:nodetypes="cc" />
    <path
       style="fill:none;stroke:#000000;stroke-width:0.0529167;stroke-linecap:round;stroke-linejoin:round;stroke-dasharray:none;stroke-dashoffset:0;paint-order:stroke markers fill"
       d="m 21.166666,218.017 6.35,6.35"
       id="path3773"
       sodipodi:nodetypes="cc" />
    <path
       style="fill:none;stroke:#000000;stroke-width:0.0529167;stroke-linecap:round;stroke-linejoin:round;stroke-dasharray:none;stroke-dashoffset:0;paint-order:stroke markers fill"
       d="m 21.166666,219.07533 5.291666,5.29167"
       id="path3775"
       sodipodi:nodetypes="cc" />
    <path
       style="fill:none;stroke:#000000;stroke-width:0.0529167;stroke-linecap:round;stroke-linejoin:round;stroke-dasharray:none;stroke-dashoffset:0;paint-order:stroke markers fill"
       d="M 21.166666,220.13366 25.4,224.367"
       id="path3769"
       sodipodi:nodetypes="cc" />
    <path
       style="fill:none;stroke:#000000;stroke-width:0.0529167;stroke-linecap:round;stroke-linejoin:round;stroke-dasharray:none;stroke-dashoffset:0;paint-order:stroke markers fill"
       d="m 21.166666,221.192 3.175,3.175"
       id="path3771"
       sodipodi:nodetypes="cc" />
    <path
       style="fill:none;stroke:#000000;stroke-width:0.0529167;stroke-linecap:round;stroke-linejoin:round;stroke-dasharray:none;stroke-dashoffset:0;paint-order:stroke markers fill"
       d="m 25.399999,215.90033 8.466667,-8.46667"
       id="path3455" />
    <path
       style="fill:none;stroke:#000000;stroke-width:0.0529167;stroke-linecap:round;stroke-linejoin:round;stroke-dasharray:none;stroke-dashoffset:0;paint-order:stroke markers fill"
       d="m 26.458331,215.90033 8.466667,-8.46667"
       id="path3461" />
    <path
       style="fill:none;stroke:#000000;stroke-width:0.0529167;stroke-linecap:round;stroke-linejoin:round;stroke-dasharray:none;stroke-dashoffset:0;paint-order:stroke markers fill"
       d="m 27.516665,215.90033 8.466667,-8.46667"
       id="path3459" />
    <path
       style="fill:none;stroke:#000000;stroke-width:0.0529167;stroke-linecap:round;stroke-linejoin:round;stroke-dasharray:none;stroke-dashoffset:0;paint-order:stroke markers fill"
       d="m 28.575,215.90033 8.466667,-8.46667"
       id="path3465" />
    <path
       style="fill:none;stroke:#000000;stroke-width:0.0529167;stroke-linecap:round;stroke-linejoin:round;stroke-dasharray:none;stroke-dashoffset:0;paint-order:stroke markers fill"
       d="m 29.633334,215.90033 8.466667,-8.46667"
       id="path3463" />
    <path
       style="fill:none;stroke:#000000;stroke-width:0.0529167;stroke-linecap:round;stroke-linejoin:round;stroke-dasharray:none;stroke-dashoffset:0;paint-order:stroke markers fill"
       d="m 21.166667,215.90033 8.466667,8.46667"
       id="path3719" />
    <path
       style="fill:none;stroke:#000000;stroke-width:0.0529167;stroke-linecap:round;stroke-linejoin:round;stroke-dasharray:none;stroke-dashoffset:0;paint-order:stroke markers fill"
       d="m 22.224999,215.90033 8.466667,8.46667"
       id="path3725" />
    <path
       style="fill:none;stroke:#000000;stroke-width:0.0529167;stroke-linecap:round;stroke-linejoin:round;stroke-dasharray:none;stroke-dashoffset:0;paint-order:stroke markers fill"
       d="M 23.283333,215.90033 31.75,224.367"
       id="path3723" />
    <path
       style="fill:none;stroke:#000000;stroke-width:0.0529167;stroke-linecap:round;stroke-linejoin:round;stroke-dasharray:none;stroke-dashoffset:0;paint-order:stroke markers fill"
       d="m 24.341665,215.90033 8.466667,8.46667"
       id="path3729" />
    <path
       style="fill:none;stroke:#000000;stroke-width:0.0529167;stroke-linecap:round;stroke-linejoin:round;stroke-dasharray:none;stroke-dashoffset:0;paint-order:stroke markers fill"
       d="m 25.399999,215.90033 8.466667,8.46667"
       id="path3727" />
    <path
       style="fill:#ffffff;stroke:none;stroke-width:0.15875;stroke-linecap:round;stroke-linejoin:round;stroke-dasharray:none;stroke-dashoffset:0;paint-order:stroke markers fill"
       d="m 22.388728,226.48366 12.787761,-22.149 1.701444,0.98234 -12.787731,22.14901 z"
       id="path3781"
       sodipodi:nodetypes="ccccc" />
    <path
       style="fill:none;stroke:#ffcc00;stroke-width:0.132292;stroke-linecap:round;stroke-linejoin:round;stroke-dasharray:1.05833, 0.264583, 0.132292, 0.264583;stroke-dashoffset:0;paint-order:stroke markers fill"
       d="M 23.239463,226.97483 36.0272,204.82582"
       id="path1964"
       sodipodi:nodetypes="cc" />
    <path
       style="fill:none;stroke:#000000;stroke-width:0.132292;stroke-linecap:round;stroke-linejoin:round;stroke-dasharray:none;stroke-dashoffset:0;paint-order:stroke markers fill"
       d="m 35.695505,207.43366 h 2.404493 v 8.46667 h -7.33235"
       id="path2942" />
    <path
       style="fill:none;stroke:#000000;stroke-width:0.132292;stroke-linecap:round;stroke-linejoin:round;stroke-dasharray:none;stroke-dashoffset:0;paint-order:stroke markers fill"
       d="M 28.499013,215.90033 H 12.699999"
       id="path2944" />
    <path
       style="fill:none;stroke:#000000;stroke-width:0.132292;stroke-linecap:round;stroke-linejoin:round;stroke-dasharray:none;stroke-dashoffset:0;paint-order:stroke markers fill"
       d="M 12.699999,207.43366 H 33.387248"
       id="path2946" />
    <path
       style="fill:none;stroke:#000000;stroke-width:0.132292;stroke-linecap:round;stroke-linejoin:round;stroke-dasharray:none;stroke-dashoffset:0;paint-order:stroke markers fill"
       d="M 28.499013,215.90033 H 21.166666 V 224.367 H 23.61078"
       id="path3203"
       sodipodi:nodetypes="cccc" />
    <path
       style="fill:none;stroke:#000000;stroke-width:0.132292;stroke-linecap:round;stroke-linejoin:round;stroke-dasharray:none;stroke-dashoffset:0;paint-order:stroke markers fill"
       d="M 25.879415,224.367 H 46.566663"
       id="path3205" />
    <path
       style="fill:none;stroke:#000000;stroke-width:0.132292;stroke-linecap:round;stroke-linejoin:round;stroke-dasharray:none;stroke-dashoffset:0;paint-order:stroke markers fill"
       d="M 30.767648,215.90033 H 46.566663"
       id="path3207" />
    <path
       style="fill:none;stroke:#000000;stroke-width:0.0529167;stroke-linecap:round;stroke-linejoin:round;stroke-dasharray:none;stroke-dashoffset:0;paint-order:stroke markers fill"
       d="m 12.7,215.90033 8.466667,-8.46667"
       id="path3344" />
    <path
       style="fill:none;stroke:#000000;stroke-width:0.0529167;stroke-linecap:round;stroke-linejoin:round;stroke-dasharray:none;stroke-dashoffset:0;paint-order:stroke markers fill"
       d="m 12.699999,214.842 7.408334,-7.40834"
       id="path3348"
       sodipodi:nodetypes="cc" />
    <path
       style="fill:none;stroke:#000000;stroke-width:0.0529167;stroke-linecap:round;stroke-linejoin:round;stroke-dasharray:none;stroke-dashoffset:0;paint-order:stroke markers fill"
       d="m 14.816666,215.90033 8.466667,-8.46667"
       id="path3350" />
    <path
       style="fill:none;stroke:#000000;stroke-width:0.0529167;stroke-linecap:round;stroke-linejoin:round;stroke-dasharray:none;stroke-dashoffset:0;paint-order:stroke markers fill"
       d="m 13.758332,215.90033 8.466667,-8.46667"
       id="path3352" />
    <path
       style="fill:none;stroke:#000000;stroke-width:0.0529167;stroke-linecap:round;stroke-linejoin:round;stroke-dasharray:none;stroke-dashoffset:0;paint-order:stroke markers fill"
       d="m 16.933332,215.90033 8.466667,-8.46667"
       id="path3439" />
    <path
       style="fill:none;stroke:#000000;stroke-width:0.0529167;stroke-linecap:round;stroke-linejoin:round;stroke-dasharray:none;stroke-dashoffset:0;paint-order:stroke markers fill"
       d="m 15.874998,215.90033 8.466667,-8.46667"
       id="path3441" />
    <path
       style="fill:none;stroke:#000000;stroke-width:0.0529167;stroke-linecap:round;stroke-linejoin:round;stroke-dasharray:none;stroke-dashoffset:0;paint-order:stroke markers fill"
       d="m 19.049998,215.90033 8.466667,-8.46667"
       id="path3443" />
    <path
       style="fill:none;stroke:#000000;stroke-width:0.0529167;stroke-linecap:round;stroke-linejoin:round;stroke-dasharray:none;stroke-dashoffset:0;paint-order:stroke markers fill"
       d="m 17.991664,215.90033 8.466667,-8.46667"
       id="path3445" />
    <path
       style="fill:none;stroke:#000000;stroke-width:0.0529167;stroke-linecap:round;stroke-linejoin:round;stroke-dasharray:none;stroke-dashoffset:0;paint-order:stroke markers fill"
       d="m 21.166667,215.90033 8.466667,-8.46667"
       id="path3447" />
    <path
       style="fill:none;stroke:#000000;stroke-width:0.0529167;stroke-linecap:round;stroke-linejoin:round;stroke-dasharray:none;stroke-dashoffset:0;paint-order:stroke markers fill"
       d="M 20.108333,215.90033 28.575,207.43366"
       id="path3449" />
    <path
       style="fill:none;stroke:#000000;stroke-width:0.0529167;stroke-linecap:round;stroke-linejoin:round;stroke-dasharray:none;stroke-dashoffset:0;paint-order:stroke markers fill"
       d="M 23.283333,215.90033 31.75,207.43366"
       id="path3451" />
    <path
       style="fill:none;stroke:#000000;stroke-width:0.0529167;stroke-linecap:round;stroke-linejoin:round;stroke-dasharray:none;stroke-dashoffset:0;paint-order:stroke markers fill"
       d="m 22.224999,215.90033 8.466667,-8.46667"
       id="path3453" />
    <path
       style="fill:none;stroke:#000000;stroke-width:0.0529167;stroke-linecap:round;stroke-linejoin:round;stroke-dasharray:none;stroke-dashoffset:0;paint-order:stroke markers fill"
       d="m 24.341665,215.90033 8.466667,-8.46667"
       id="path3457" />
    <path
       style="fill:none;stroke:#000000;stroke-width:0.0529167;stroke-linecap:round;stroke-linejoin:round;stroke-dasharray:none;stroke-dashoffset:0;paint-order:stroke markers fill"
       d="m 31.75,215.90033 6.349999,-6.35"
       id="path3467"
       sodipodi:nodetypes="cc" />
    <path
       style="fill:none;stroke:#000000;stroke-width:0.0529167;stroke-linecap:round;stroke-linejoin:round;stroke-dasharray:none;stroke-dashoffset:0;paint-order:stroke markers fill"
       d="M 33.866666,215.90033 38.099999,211.667"
       id="path3471"
       sodipodi:nodetypes="cc" />
    <path
       style="fill:none;stroke:#000000;stroke-width:0.0529167;stroke-linecap:round;stroke-linejoin:round;stroke-dasharray:none;stroke-dashoffset:0;paint-order:stroke markers fill"
       d="m 32.808332,215.90033 5.291667,-5.29167"
       id="path3473"
       sodipodi:nodetypes="cc" />
    <path
       style="fill:none;stroke:#000000;stroke-width:0.0529167;stroke-linecap:round;stroke-linejoin:round;stroke-dasharray:none;stroke-dashoffset:0;paint-order:stroke markers fill"
       d="m 35.983332,215.90033 2.116667,-2.11667"
       id="path3475"
       sodipodi:nodetypes="cc" />
    <path
       style="fill:none;stroke:#000000;stroke-width:0.0529167;stroke-linecap:round;stroke-linejoin:round;stroke-dasharray:none;stroke-dashoffset:0;paint-order:stroke markers fill"
       d="m 34.924998,215.90033 3.175001,-3.175"
       id="path3477"
       sodipodi:nodetypes="cc" />
    <path
       style="fill:none;stroke:#000000;stroke-width:0.0529167;stroke-linecap:round;stroke-linejoin:round;stroke-dasharray:none;stroke-dashoffset:0;paint-order:stroke markers fill"
       d="M 37.041665,215.90033 38.099999,214.842"
       id="path3479"
       sodipodi:nodetypes="cc" />
    <path
       style="fill:none;stroke:#000000;stroke-width:0.0529167;stroke-linecap:round;stroke-linejoin:round;stroke-dasharray:none;stroke-dashoffset:0;paint-order:stroke markers fill"
       d="m 12.699999,211.667 4.233334,-4.23334"
       id="path3587"
       sodipodi:nodetypes="cc" />
    <path
       style="fill:none;stroke:#000000;stroke-width:0.0529167;stroke-linecap:round;stroke-linejoin:round;stroke-dasharray:none;stroke-dashoffset:0;paint-order:stroke markers fill"
       d="m 12.699999,210.60866 3.175,-3.175"
       id="path3589"
       sodipodi:nodetypes="cc" />
    <path
       style="fill:none;stroke:#000000;stroke-width:0.0529167;stroke-linecap:round;stroke-linejoin:round;stroke-dasharray:none;stroke-dashoffset:0;paint-order:stroke markers fill"
       d="m 12.699999,213.78366 6.35,-6.35"
       id="path3591"
       sodipodi:nodetypes="cc" />
    <path
       style="fill:none;stroke:#000000;stroke-width:0.0529167;stroke-linecap:round;stroke-linejoin:round;stroke-dasharray:none;stroke-dashoffset:0;paint-order:stroke markers fill"
       d="m 12.699999,212.72533 5.291666,-5.29167"
       id="path3593"
       sodipodi:nodetypes="cc" />
    <path
       style="fill:none;stroke:#000000;stroke-width:0.0529167;stroke-linecap:round;stroke-linejoin:round;stroke-dasharray:none;stroke-dashoffset:0;paint-order:stroke markers fill"
       d="m 12.699999,209.55033 2.116667,-2.11667"
       id="path3595"
       sodipodi:nodetypes="cc" />
    <path
       style="fill:none;stroke:#000000;stroke-width:0.0529167;stroke-linecap:round;stroke-linejoin:round;stroke-dasharray:none;stroke-dashoffset:0;paint-order:stroke markers fill"
       d="m 12.699999,208.492 1.058333,-1.05834"
       id="path3597"
       sodipodi:nodetypes="cc" />
    <path
       style="fill:none;stroke:#000000;stroke-width:0.0529167;stroke-linecap:round;stroke-linejoin:round;stroke-dasharray:none;stroke-dashoffset:0;paint-order:stroke markers fill"
       d="m 31.75,215.90033 8.466667,8.46667"
       id="path3739" />
    <path
       style="fill:none;stroke:#000000;stroke-width:0.0529167;stroke-linecap:round;stroke-linejoin:round;stroke-dasharray:none;stroke-dashoffset:0;paint-order:stroke markers fill"
       d="m 33.866666,215.90033 8.466667,8.46667"
       id="path3743" />
    <path
       style="fill:none;stroke:#000000;stroke-width:0.0529167;stroke-linecap:round;stroke-linejoin:round;stroke-dasharray:none;stroke-dashoffset:0;paint-order:stroke markers fill"
       d="m 32.808332,215.90033 8.466667,8.46667"
       id="path3745" />
    <path
       style="fill:none;stroke:#000000;stroke-width:0.0529167;stroke-linecap:round;stroke-linejoin:round;stroke-dasharray:none;stroke-dashoffset:0;paint-order:stroke markers fill"
       d="m 35.983332,215.90033 8.466667,8.46667"
       id="path3747" />
    <path
       style="fill:none;stroke:#000000;stroke-width:0.0529167;stroke-linecap:round;stroke-linejoin:round;stroke-dasharray:none;stroke-dashoffset:0;paint-order:stroke markers fill"
       d="m 34.924998,215.90033 8.466667,8.46667"
       id="path3749" />
    <path
       style="fill:none;stroke:#000000;stroke-width:0.0529167;stroke-linecap:round;stroke-linejoin:round;stroke-dasharray:none;stroke-dashoffset:0;paint-order:stroke markers fill"
       d="m 38.100001,215.90033 8.466667,8.46667"
       id="path3751" />
    <path
       style="fill:none;stroke:#000000;stroke-width:0.0529167;stroke-linecap:round;stroke-linejoin:round;stroke-dasharray:none;stroke-dashoffset:0;paint-order:stroke markers fill"
       d="m 37.041667,215.90033 8.466667,8.46667"
       id="path3753" />
    <path
       style="fill:none;stroke:#000000;stroke-width:0.0529167;stroke-linecap:round;stroke-linejoin:round;stroke-dasharray:none;stroke-dashoffset:0;paint-order:stroke markers fill"
       d="m 40.216667,215.90033 6.349996,6.35"
       id="path3755"
       sodipodi:nodetypes="cc" />
    <path
       style="fill:none;stroke:#000000;stroke-width:0.0529167;stroke-linecap:round;stroke-linejoin:round;stroke-dasharray:none;stroke-dashoffset:0;paint-order:stroke markers fill"
       d="m 39.158333,215.90033 7.40833,7.40833"
       id="path3757"
       sodipodi:nodetypes="cc" />
    <path
       style="fill:none;stroke:#000000;stroke-width:0.0529167;stroke-linecap:round;stroke-linejoin:round;stroke-dasharray:none;stroke-dashoffset:0;paint-order:stroke markers fill"
       d="m 42.333333,215.90033 4.233332,4.23333"
       id="path3759"
       sodipodi:nodetypes="cc" />
    <path
       style="fill:none;stroke:#000000;stroke-width:0.0529167;stroke-linecap:round;stroke-linejoin:round;stroke-dasharray:none;stroke-dashoffset:0;paint-order:stroke markers fill"
       d="m 41.274999,215.90033 5.291664,5.29167"
       id="path3761"
       sodipodi:nodetypes="cc" />
    <path
       style="fill:none;stroke:#000000;stroke-width:0.0529167;stroke-linecap:round;stroke-linejoin:round;stroke-dasharray:none;stroke-dashoffset:0;paint-order:stroke markers fill"
       d="m 44.449999,215.90033 2.116666,2.11667"
       id="path3763"
       sodipodi:nodetypes="cc" />
    <path
       style="fill:none;stroke:#000000;stroke-width:0.0529167;stroke-linecap:round;stroke-linejoin:round;stroke-dasharray:none;stroke-dashoffset:0;paint-order:stroke markers fill"
       d="m 43.391665,215.90033 3.174998,3.175"
       id="path3765"
       sodipodi:nodetypes="cc" />
    <path
       style="fill:none;stroke:#000000;stroke-width:0.0529167;stroke-linecap:round;stroke-linejoin:round;stroke-dasharray:none;stroke-dashoffset:0;paint-order:stroke markers fill"
       d="m 45.508332,215.90033 1.058333,1.05833"
       id="path3767"
       sodipodi:nodetypes="cc" />
    <path
       style="fill:none;stroke:#000000;stroke-width:0.0529167;stroke-linecap:round;stroke-linejoin:round;stroke-dasharray:none;stroke-dashoffset:0;paint-order:stroke markers fill"
       d="m 21.166666,222.25033 2.116667,2.11667"
       id="path3777"
       sodipodi:nodetypes="cc" />
    <path
       style="fill:none;stroke:#000000;stroke-width:0.0529167;stroke-linecap:round;stroke-linejoin:round;stroke-dasharray:none;stroke-dashoffset:0;paint-order:stroke markers fill"
       d="m 21.166666,223.30866 1.058333,1.05834"
       id="path3779"
       sodipodi:nodetypes="cc" />
    <g
       inkscape:label=""
       transform="translate(38.188645,202.146)"
       id="g7410">
      <g
         id="g7408"
         transform="matrix(0.352778,0,0,0.352778,-0.176389,1.32219e-4)">
        <g
           style="fill:#000000;fill-opacity:1"
           id="g41">
          <g
             id="use39"
             transform="translate(0,4.4840002)">
            <path
               style="stroke:none"
               d="m 2.171875,-1.921875 h 0.6875 c 0.484375,0 0.5625,0.078125 0.5625,0.28125 0,0.078125 -0.03125,0.265625 -0.0625,0.34375 0,0 0.015625,0.078125 0.125,0.078125 0.078125,0 0.09375,-0.03125 0.109375,-0.125 l 0.359375,-1.421875 c 0,-0.015625 -0.015625,-0.09375 -0.109375,-0.09375 -0.09375,0 -0.109375,0.046875 -0.125,0.125 -0.125,0.46875 -0.265625,0.578125 -0.828125,0.578125 H 2.25 L 2.609375,-3.625 c 0.046875,-0.1875 0.046875,-0.203125 0.3125,-0.203125 h 0.96875 c 0.796875,0 1,0.15625 1,0.703125 0,0.140625 -0.015625,0.34375 -0.015625,0.359375 0,0.109375 0.078125,0.109375 0.109375,0.109375 0.09375,0 0.109375,-0.046875 0.109375,-0.15625 L 5.203125,-3.875 C 5.21875,-4.0625 5.171875,-4.0625 5.03125,-4.0625 h -3.375 c -0.109375,0 -0.203125,0 -0.203125,0.15625 0,0.078125 0.09375,0.078125 0.203125,0.078125 0.109375,0 0.265625,0 0.390625,0.046875 0,0.0625 0,0.09375 -0.03125,0.1875 L 1.234375,-0.5 c -0.046875,0.21875 -0.0625,0.265625 -0.515625,0.265625 -0.125,0 -0.140625,0 -0.15625,0.015625 C 0.53125,-0.203125 0.5,-0.125 0.5,-0.078125 0.515625,-0.0625 0.515625,0 0.609375,0 c 0.125,0 0.265625,-0.015625 0.40625,-0.015625 0.140625,0 0.28125,-0.015625 0.421875,-0.015625 0.15625,0 0.328125,0.015625 0.5,0.015625 C 2.078125,-0.015625 2.25,0 2.390625,0 2.421875,0 2.53125,0 2.53125,-0.15625 c 0,-0.078125 -0.078125,-0.078125 -0.21875,-0.078125 -0.015625,0 -0.171875,0 -0.3125,-0.015625 -0.1875,-0.015625 -0.203125,-0.03125 -0.203125,-0.09375 0,-0.015625 0,-0.046875 0.015625,-0.125 z m 0,0"
               id="path72" />
          </g>
        </g>
        <g
           style="fill:#000000;fill-opacity:1"
           id="g45">
          <g
             id="use43"
             transform="translate(7.723,4.4840002)">
            <path
               style="stroke:none"
               d="m 4.890625,-2.03125 c 0.09375,0 0.21875,0 0.21875,-0.15625 0,-0.15625 -0.15625,-0.15625 -0.25,-0.15625 H 0.71875 c -0.078125,0 -0.25,0 -0.25,0.15625 0,0.15625 0.140625,0.15625 0.21875,0.15625 z m -0.03125,1.375 c 0.09375,0 0.25,0 0.25,-0.15625 0,-0.15625 -0.125,-0.15625 -0.21875,-0.15625 H 0.6875 c -0.078125,0 -0.21875,0 -0.21875,0.15625 0,0.15625 0.171875,0.15625 0.25,0.15625 z m 0,0"
               id="path76" />
          </g>
        </g>
        <g
           clip-path="url(#clipPath5284)"
           clip-rule="nonzero"
           id="g7406">
          <g
             style="fill:#000000;fill-opacity:1"
             id="g7404">
            <g
               id="use47"
               transform="translate(15.4353,4.4840002)">
              <path
                 style="stroke:none"
                 d="M 1.015625,-3.328125 C 1.21875,-3.265625 1.421875,-3.25 1.625,-3.25 c 0.140625,0 0.46875,0 0.84375,-0.203125 0.109375,-0.0625 0.46875,-0.3125 0.46875,-0.4375 0,-0.078125 -0.046875,-0.09375 -0.078125,-0.09375 -0.015625,0 -0.015625,0 -0.09375,0.03125 C 2.5625,-3.875 2.25,-3.78125 1.859375,-3.78125 1.5625,-3.78125 1.25,-3.84375 0.96875,-3.9375 0.921875,-3.96875 0.890625,-3.984375 0.875,-3.984375 c -0.09375,0 -0.09375,0.078125 -0.09375,0.171875 v 1.796875 c 0,0.09375 0,0.171875 0.109375,0.171875 C 0.953125,-1.84375 0.96875,-1.875 1,-1.921875 1.15625,-2.109375 1.421875,-2.3125 1.890625,-2.3125 2.625,-2.3125 2.625,-1.421875 2.625,-1.234375 2.625,-1 2.609375,-0.65625 2.40625,-0.40625 c -0.1875,0.21875 -0.46875,0.3125 -0.71875,0.3125 -0.40625,0 -0.828125,-0.21875 -0.96875,-0.578125 0.296875,0 0.328125,-0.234375 0.328125,-0.296875 0,-0.171875 -0.125,-0.3125 -0.3125,-0.3125 C 0.6875,-1.28125 0.4375,-1.25 0.4375,-0.953125 0.4375,-0.40625 0.953125,0.125 1.703125,0.125 2.53125,0.125 3.21875,-0.453125 3.21875,-1.203125 3.21875,-1.890625 2.671875,-2.5 1.890625,-2.5 c -0.375,0 -0.6875,0.125 -0.875,0.28125 z m 0,0"
                 id="path80" />
            </g>
            <g
               id="g7379"
               transform="translate(19.088211,4.4840002)">
              <path
                 style="stroke:none"
                 d="m 3.296875,-1.90625 c 0,-0.4375 0,-2.078125 -1.46875,-2.078125 -1.46875,0 -1.46875,1.640625 -1.46875,2.078125 0,0.421875 0,2.03125 1.46875,2.03125 1.46875,0 1.46875,-1.609375 1.46875,-2.03125 z m -1.46875,1.84375 c -0.25,0 -0.65625,-0.125 -0.8125,-0.625 -0.09375,-0.34375 -0.09375,-0.921875 -0.09375,-1.296875 0,-0.40625 0,-0.859375 0.09375,-1.1875 0.140625,-0.53125 0.59375,-0.609375 0.8125,-0.609375 0.265625,0 0.671875,0.125 0.796875,0.578125 0.09375,0.3125 0.09375,0.75 0.09375,1.21875 0,0.375 0,0.984375 -0.09375,1.3125 C 2.453125,-0.140625 2.015625,-0.0625 1.828125,-0.0625 Z m 0,0"
                 id="path84" />
            </g>
            <g
               id="use51"
               transform="translate(22.741121,4.4840002)">
              <path
                 style="stroke:none"
                 d="m 3.296875,-1.90625 c 0,-0.4375 0,-2.078125 -1.46875,-2.078125 -1.46875,0 -1.46875,1.640625 -1.46875,2.078125 0,0.421875 0,2.03125 1.46875,2.03125 1.46875,0 1.46875,-1.609375 1.46875,-2.03125 z m -1.46875,1.84375 c -0.25,0 -0.65625,-0.125 -0.8125,-0.625 -0.09375,-0.34375 -0.09375,-0.921875 -0.09375,-1.296875 0,-0.40625 0,-0.859375 0.09375,-1.1875 0.140625,-0.53125 0.59375,-0.609375 0.8125,-0.609375 0.265625,0 0.671875,0.125 0.796875,0.578125 0.09375,0.3125 0.09375,0.75 0.09375,1.21875 0,0.375 0,0.984375 -0.09375,1.3125 C 2.453125,-0.140625 2.015625,-0.0625 1.828125,-0.0625 Z m 0,0"
                 id="path7381" />
            </g>
            <g
               id="g7386"
               transform="translate(26.394033,4.4840002)">
              <path
                 style="stroke:none"
                 d="m 3.296875,-1.90625 c 0,-0.4375 0,-2.078125 -1.46875,-2.078125 -1.46875,0 -1.46875,1.640625 -1.46875,2.078125 0,0.421875 0,2.03125 1.46875,2.03125 1.46875,0 1.46875,-1.609375 1.46875,-2.03125 z m -1.46875,1.84375 c -0.25,0 -0.65625,-0.125 -0.8125,-0.625 -0.09375,-0.34375 -0.09375,-0.921875 -0.09375,-1.296875 0,-0.40625 0,-0.859375 0.09375,-1.1875 0.140625,-0.53125 0.59375,-0.609375 0.8125,-0.609375 0.265625,0 0.671875,0.125 0.796875,0.578125 0.09375,0.3125 0.09375,0.75 0.09375,1.21875 0,0.375 0,0.984375 -0.09375,1.3125 C 2.453125,-0.140625 2.015625,-0.0625 1.828125,-0.0625 Z m 0,0"
                 id="path7384" />
            </g>
            <g
               id="g7390"
               transform="translate(30.046946,4.4840002)">
              <path
                 style="stroke:none"
                 d="m 1.859375,-4.171875 v -0.3125 H 0.890625 V 1.5 h 0.96875 V 1.1875 h -0.65625 v -5.359375 z m 0,0"
                 id="path7388" />
            </g>
            <g
               id="g7394"
               transform="translate(32.149864,4.4840002)">
              <path
                 style="stroke:none"
                 d="m 2.078125,-1.609375 c 0.65625,-0.5 0.96875,-0.71875 1.40625,-0.734375 v -0.234375 c -0.078125,0 -0.25,0.015625 -0.4375,0.015625 -0.265625,0 -0.6875,-0.015625 -0.75,-0.015625 V -2.34375 C 2.40625,-2.328125 2.40625,-2.265625 2.40625,-2.25 c 0,0.03125 0,0.125 -0.1875,0.25 L 1.296875,-1.328125 V -4.15625 l -0.953125,0.0625 v 0.234375 c 0.421875,0 0.46875,0.046875 0.46875,0.34375 v 3.03125 c 0,0.25 -0.046875,0.25 -0.46875,0.25 V 0 C 0.515625,-0.015625 0.921875,-0.03125 1.046875,-0.03125 1.140625,-0.03125 1.5625,-0.015625 1.75,0 v -0.234375 c -0.421875,0 -0.46875,0 -0.46875,-0.25 V -1.03125 l 0.453125,-0.328125 c 0.03125,0.03125 0.1875,0.203125 0.671875,0.765625 0.0625,0.078125 0.140625,0.171875 0.140625,0.265625 0,0.078125 -0.09375,0.09375 -0.15625,0.09375 V 0 C 2.515625,-0.015625 2.9375,-0.03125 3.09375,-0.03125 3.328125,-0.03125 3.59375,0 3.640625,0 v -0.234375 c -0.3125,0 -0.390625,-0.046875 -0.609375,-0.28125 z m 0,0"
                 id="path7392" />
            </g>
            <g
               id="g7398"
               transform="translate(35.996449,4.4840002)">
              <path
                 style="stroke:none"
                 d="M 0.953125,-1.046875 C 1.09375,-0.96875 1.328125,-0.875 1.625,-0.875 2.296875,-0.875 2.75,-1.296875 2.75,-1.75 2.75,-2.09375 2.5,-2.3125 2.5,-2.328125 2.765625,-2.5 3.015625,-2.515625 3.109375,-2.515625 3.09375,-2.484375 3.0625,-2.46875 3.0625,-2.375 c 0,0.09375 0.078125,0.1875 0.203125,0.1875 0.140625,0 0.203125,-0.09375 0.203125,-0.203125 0,-0.125 -0.109375,-0.3125 -0.375,-0.3125 -0.25,0 -0.53125,0.09375 -0.734375,0.28125 -0.203125,-0.140625 -0.46875,-0.21875 -0.71875,-0.21875 -0.65625,0 -1.125,0.421875 -1.125,0.890625 0,0.1875 0.078125,0.390625 0.28125,0.59375 -0.125,0.171875 -0.171875,0.34375 -0.171875,0.484375 0,0.328125 0.21875,0.5 0.25,0.53125 -0.234375,0.0625 -0.59375,0.265625 -0.59375,0.59375 0,0.46875 0.71875,0.78125 1.546875,0.78125 C 2.59375,1.234375 3.375,0.953125 3.375,0.4375 3.375,0.296875 3.328125,-0.09375 2.84375,-0.28125 2.5,-0.4375 2.171875,-0.4375 1.609375,-0.4375 c -0.15625,0 -0.375,0 -0.4375,0 C 1.015625,-0.46875 0.875,-0.609375 0.875,-0.828125 c 0,-0.125 0.0625,-0.203125 0.078125,-0.21875 z m 0.6875,-0.03125 c -0.5,0 -0.625,-0.359375 -0.625,-0.671875 0,-0.109375 0,-0.6875 0.609375,-0.6875 0.53125,0 0.625,0.421875 0.625,0.671875 0,0.125 0,0.6875 -0.609375,0.6875 z M 1.96875,0 C 2.15625,0 2.984375,0 2.984375,0.453125 2.984375,0.75 2.5,1.03125 1.828125,1.03125 1.171875,1.03125 0.671875,0.765625 0.671875,0.453125 0.671875,0.296875 0.796875,0 1.296875,0 Z m 0,0"
                 id="path7396" />
            </g>
            <g
               id="g7402"
               transform="translate(39.649361,4.4840002)">
              <path
                 style="stroke:none"
                 d="m 1.203125,-4.484375 h -0.96875 v 0.3125 h 0.65625 V 1.1875 H 0.234375 V 1.5 h 0.96875 z m 0,0"
                 id="path7400" />
            </g>
          </g>
        </g>
      </g>
    </g>
    <g
       inkscape:label=""
       transform="translate(21.166666,231.76273)"
       id="g7859">
      <g
         id="g7857"
         transform="matrix(0.352778,0,0,0.352778,-0.176389,-0.00793751)">
        <g
           style="fill:#000000;fill-opacity:1"
           id="g14">
          <g
             id="use12"
             transform="translate(0,4.085)">
            <path
               style="stroke:none"
               d="m 2.171875,-1.921875 h 0.6875 c 0.484375,0 0.5625,0.078125 0.5625,0.28125 0,0.078125 -0.03125,0.265625 -0.0625,0.34375 0,0 0.015625,0.078125 0.125,0.078125 0.078125,0 0.09375,-0.03125 0.109375,-0.125 l 0.359375,-1.421875 c 0,-0.015625 -0.015625,-0.09375 -0.109375,-0.09375 -0.09375,0 -0.109375,0.046875 -0.125,0.125 -0.125,0.46875 -0.265625,0.578125 -0.828125,0.578125 H 2.25 L 2.609375,-3.625 c 0.046875,-0.1875 0.046875,-0.203125 0.3125,-0.203125 h 0.96875 c 0.796875,0 1,0.15625 1,0.703125 0,0.140625 -0.015625,0.34375 -0.015625,0.359375 0,0.109375 0.078125,0.109375 0.109375,0.109375 0.09375,0 0.109375,-0.046875 0.109375,-0.15625 L 5.203125,-3.875 C 5.21875,-4.0625 5.171875,-4.0625 5.03125,-4.0625 h -3.375 c -0.109375,0 -0.203125,0 -0.203125,0.15625 0,0.078125 0.09375,0.078125 0.203125,0.078125 0.109375,0 0.265625,0 0.390625,0.046875 0,0.0625 0,0.09375 -0.03125,0.1875 L 1.234375,-0.5 c -0.046875,0.21875 -0.0625,0.265625 -0.515625,0.265625 -0.125,0 -0.140625,0 -0.15625,0.015625 C 0.53125,-0.203125 0.5,-0.125 0.5,-0.078125 0.515625,-0.0625 0.515625,0 0.609375,0 c 0.125,0 0.265625,-0.015625 0.40625,-0.015625 0.140625,0 0.28125,-0.015625 0.421875,-0.015625 0.15625,0 0.328125,0.015625 0.5,0.015625 C 2.078125,-0.015625 2.25,0 2.390625,0 2.421875,0 2.53125,0 2.53125,-0.15625 c 0,-0.078125 -0.078125,-0.078125 -0.21875,-0.078125 -0.015625,0 -0.171875,0 -0.3125,-0.015625 -0.1875,-0.015625 -0.203125,-0.03125 -0.203125,-0.09375 0,-0.015625 0,-0.046875 0.015625,-0.125 z m 0,0"
               id="path21" />
          </g>
        </g>
      </g>
    </g>
    <g
       inkscape:label=""
       transform="translate(47.610463,217.48774)"
       id="g8328">
      <g
         id="g8326"
         transform="matrix(0.352778,0,0,0.352778,-0.176389,1.32219e-4)">
        <g
           style="fill:#000000;fill-opacity:1"
           id="g8296">
          <g
             id="g8294"
             transform="translate(0,4.4840002)">
            <path
               style="stroke:none"
               d="m 5.265625,-3.421875 c 0.0625,-0.265625 0.1875,-0.40625 0.640625,-0.421875 0.03125,0 0.125,-0.015625 0.125,-0.140625 0,-0.0625 -0.03125,-0.109375 -0.09375,-0.109375 -0.140625,0 -0.484375,0.03125 -0.640625,0.03125 H 4.96875 c -0.109375,0 -0.234375,-0.03125 -0.328125,-0.03125 C 4.53125,-4.09375 4.5,-4.015625 4.5,-3.9375 c 0,0.09375 0.109375,0.09375 0.15625,0.09375 0.28125,0 0.390625,0.078125 0.390625,0.234375 0,0.03125 -0.015625,0.0625 -0.015625,0.09375 l -0.65625,2.625 -1.640625,-3.09375 C 2.6875,-4.078125 2.671875,-4.09375 2.53125,-4.09375 H 1.671875 c -0.109375,0 -0.203125,0 -0.203125,0.15625 0,0.09375 0.078125,0.09375 0.21875,0.09375 0.03125,0 0.234375,0 0.390625,0.03125 L 1.28125,-0.671875 C 1.21875,-0.4375 1.125,-0.25 0.640625,-0.234375 0.5625,-0.234375 0.5,-0.203125 0.5,-0.078125 0.515625,-0.0625 0.515625,0 0.609375,0 0.75,0 1.09375,-0.03125 1.25,-0.03125 l 0.328125,0.015625 C 1.6875,-0.015625 1.8125,0 1.90625,0 2.03125,0 2.046875,-0.125 2.046875,-0.15625 2.015625,-0.234375 1.96875,-0.234375 1.890625,-0.234375 1.609375,-0.25 1.5,-0.328125 1.5,-0.484375 c 0,-0.03125 0,-0.046875 0.015625,-0.125 L 2.28125,-3.65625 4.171875,-0.109375 C 4.203125,-0.015625 4.21875,0 4.296875,0 4.40625,0 4.421875,-0.03125 4.4375,-0.140625 Z m 0,0"
               id="path8292" />
          </g>
        </g>
        <g
           style="fill:#000000;fill-opacity:1"
           id="g8302">
          <g
             id="g8300"
             transform="translate(8.5480003,4.4840002)">
            <path
               style="stroke:none"
               d="m 4.890625,-2.03125 c 0.09375,0 0.21875,0 0.21875,-0.15625 0,-0.15625 -0.15625,-0.15625 -0.25,-0.15625 H 0.71875 c -0.078125,0 -0.25,0 -0.25,0.15625 0,0.15625 0.140625,0.15625 0.21875,0.15625 z m -0.03125,1.375 c 0.09375,0 0.25,0 0.25,-0.15625 0,-0.15625 -0.125,-0.15625 -0.21875,-0.15625 H 0.6875 c -0.078125,0 -0.21875,0 -0.21875,0.15625 0,0.15625 0.171875,0.15625 0.25,0.15625 z m 0,0"
               id="path8298" />
          </g>
        </g>
        <g
           clip-path="url(#clipPath7007)"
           clip-rule="nonzero"
           id="g65">
          <g
             style="fill:#000000;fill-opacity:1"
             id="g63">
            <g
               id="g8306"
               transform="translate(16.2603,4.4840002)">
              <path
                 style="stroke:none"
                 d="m 2.140625,-3.796875 c 0,-0.1875 -0.015625,-0.1875 -0.203125,-0.1875 -0.390625,0.390625 -1,0.390625 -1.21875,0.390625 v 0.234375 c 0.15625,0 0.5625,0 0.921875,-0.171875 v 3.015625 c 0,0.203125 0,0.28125 -0.625,0.28125 h -0.25 V 0 c 0.328125,-0.03125 0.796875,-0.03125 1.125,-0.03125 0.328125,0 0.796875,0 1.125,0.03125 v -0.234375 h -0.25 c -0.625,0 -0.625,-0.078125 -0.625,-0.28125 z m 0,0"
                 id="path8304" />
            </g>
            <g
               id="use49"
               transform="translate(19.913212,4.4840002)">
              <path
                 style="stroke:none"
                 d="m 3.296875,-1.90625 c 0,-0.4375 0,-2.078125 -1.46875,-2.078125 -1.46875,0 -1.46875,1.640625 -1.46875,2.078125 0,0.421875 0,2.03125 1.46875,2.03125 1.46875,0 1.46875,-1.609375 1.46875,-2.03125 z m -1.46875,1.84375 c -0.25,0 -0.65625,-0.125 -0.8125,-0.625 -0.09375,-0.34375 -0.09375,-0.921875 -0.09375,-1.296875 0,-0.40625 0,-0.859375 0.09375,-1.1875 0.140625,-0.53125 0.59375,-0.609375 0.8125,-0.609375 0.265625,0 0.671875,0.125 0.796875,0.578125 0.09375,0.3125 0.09375,0.75 0.09375,1.21875 0,0.375 0,0.984375 -0.09375,1.3125 C 2.453125,-0.140625 2.015625,-0.0625 1.828125,-0.0625 Z m 0,0"
                 id="path8308" />
            </g>
            <g
               id="g8312"
               transform="translate(23.566122,4.4840002)">
              <path
                 style="stroke:none"
                 d="m 3.296875,-1.90625 c 0,-0.4375 0,-2.078125 -1.46875,-2.078125 -1.46875,0 -1.46875,1.640625 -1.46875,2.078125 0,0.421875 0,2.03125 1.46875,2.03125 1.46875,0 1.46875,-1.609375 1.46875,-2.03125 z m -1.46875,1.84375 c -0.25,0 -0.65625,-0.125 -0.8125,-0.625 -0.09375,-0.34375 -0.09375,-0.921875 -0.09375,-1.296875 0,-0.40625 0,-0.859375 0.09375,-1.1875 0.140625,-0.53125 0.59375,-0.609375 0.8125,-0.609375 0.265625,0 0.671875,0.125 0.796875,0.578125 0.09375,0.3125 0.09375,0.75 0.09375,1.21875 0,0.375 0,0.984375 -0.09375,1.3125 C 2.453125,-0.140625 2.015625,-0.0625 1.828125,-0.0625 Z m 0,0"
                 id="path88" />
            </g>
            <g
               id="use53"
               transform="translate(27.219034,4.4840002)">
              <path
                 style="stroke:none"
                 d="m 3.296875,-1.90625 c 0,-0.4375 0,-2.078125 -1.46875,-2.078125 -1.46875,0 -1.46875,1.640625 -1.46875,2.078125 0,0.421875 0,2.03125 1.46875,2.03125 1.46875,0 1.46875,-1.609375 1.46875,-2.03125 z m -1.46875,1.84375 c -0.25,0 -0.65625,-0.125 -0.8125,-0.625 -0.09375,-0.34375 -0.09375,-0.921875 -0.09375,-1.296875 0,-0.40625 0,-0.859375 0.09375,-1.1875 0.140625,-0.53125 0.59375,-0.609375 0.8125,-0.609375 0.265625,0 0.671875,0.125 0.796875,0.578125 0.09375,0.3125 0.09375,0.75 0.09375,1.21875 0,0.375 0,0.984375 -0.09375,1.3125 C 2.453125,-0.140625 2.015625,-0.0625 1.828125,-0.0625 Z m 0,0"
                 id="path92" />
            </g>
            <g
               id="use55"
               transform="translate(30.871944,4.4840002)">
              <path
                 style="stroke:none"
                 d="m 1.859375,-4.171875 v -0.3125 H 0.890625 V 1.5 h 0.96875 V 1.1875 h -0.65625 v -5.359375 z m 0,0"
                 id="path96" />
            </g>
            <g
               id="use57"
               transform="translate(32.974865,4.4840002)">
              <path
                 style="stroke:none"
                 d="m 2.078125,-1.609375 c 0.65625,-0.5 0.96875,-0.71875 1.40625,-0.734375 v -0.234375 c -0.078125,0 -0.25,0.015625 -0.4375,0.015625 -0.265625,0 -0.6875,-0.015625 -0.75,-0.015625 V -2.34375 C 2.40625,-2.328125 2.40625,-2.265625 2.40625,-2.25 c 0,0.03125 0,0.125 -0.1875,0.25 L 1.296875,-1.328125 V -4.15625 l -0.953125,0.0625 v 0.234375 c 0.421875,0 0.46875,0.046875 0.46875,0.34375 v 3.03125 c 0,0.25 -0.046875,0.25 -0.46875,0.25 V 0 C 0.515625,-0.015625 0.921875,-0.03125 1.046875,-0.03125 1.140625,-0.03125 1.5625,-0.015625 1.75,0 v -0.234375 c -0.421875,0 -0.46875,0 -0.46875,-0.25 V -1.03125 l 0.453125,-0.328125 c 0.03125,0.03125 0.1875,0.203125 0.671875,0.765625 0.0625,0.078125 0.140625,0.171875 0.140625,0.265625 0,0.078125 -0.09375,0.09375 -0.15625,0.09375 V 0 C 2.515625,-0.015625 2.9375,-0.03125 3.09375,-0.03125 3.328125,-0.03125 3.59375,0 3.640625,0 v -0.234375 c -0.3125,0 -0.390625,-0.046875 -0.609375,-0.28125 z m 0,0"
                 id="path100" />
            </g>
            <g
               id="use59"
               transform="translate(36.821449,4.4840002)">
              <path
                 style="stroke:none"
                 d="M 0.953125,-1.046875 C 1.09375,-0.96875 1.328125,-0.875 1.625,-0.875 2.296875,-0.875 2.75,-1.296875 2.75,-1.75 2.75,-2.09375 2.5,-2.3125 2.5,-2.328125 2.765625,-2.5 3.015625,-2.515625 3.109375,-2.515625 3.09375,-2.484375 3.0625,-2.46875 3.0625,-2.375 c 0,0.09375 0.078125,0.1875 0.203125,0.1875 0.140625,0 0.203125,-0.09375 0.203125,-0.203125 0,-0.125 -0.109375,-0.3125 -0.375,-0.3125 -0.25,0 -0.53125,0.09375 -0.734375,0.28125 -0.203125,-0.140625 -0.46875,-0.21875 -0.71875,-0.21875 -0.65625,0 -1.125,0.421875 -1.125,0.890625 0,0.1875 0.078125,0.390625 0.28125,0.59375 -0.125,0.171875 -0.171875,0.34375 -0.171875,0.484375 0,0.328125 0.21875,0.5 0.25,0.53125 -0.234375,0.0625 -0.59375,0.265625 -0.59375,0.59375 0,0.46875 0.71875,0.78125 1.546875,0.78125 C 2.59375,1.234375 3.375,0.953125 3.375,0.4375 3.375,0.296875 3.328125,-0.09375 2.84375,-0.28125 2.5,-0.4375 2.171875,-0.4375 1.609375,-0.4375 c -0.15625,0 -0.375,0 -0.4375,0 C 1.015625,-0.46875 0.875,-0.609375 0.875,-0.828125 c 0,-0.125 0.0625,-0.203125 0.078125,-0.21875 z m 0.6875,-0.03125 c -0.5,0 -0.625,-0.359375 -0.625,-0.671875 0,-0.109375 0,-0.6875 0.609375,-0.6875 0.53125,0 0.625,0.421875 0.625,0.671875 0,0.125 0,0.6875 -0.609375,0.6875 z M 1.96875,0 C 2.15625,0 2.984375,0 2.984375,0.453125 2.984375,0.75 2.5,1.03125 1.828125,1.03125 1.171875,1.03125 0.671875,0.765625 0.671875,0.453125 0.671875,0.296875 0.796875,0 1.296875,0 Z m 0,0"
                 id="path104" />
            </g>
            <g
               id="use61"
               transform="translate(40.474361,4.4840002)">
              <path
                 style="stroke:none"
                 d="m 1.203125,-4.484375 h -0.96875 v 0.3125 h 0.65625 V 1.1875 H 0.234375 V 1.5 h 0.96875 z m 0,0"
                 id="path108" />
            </g>
          </g>
        </g>
      </g>
    </g>
    <g
       inkscape:label=""
       transform="translate(9.8019856,209.16804)"
       id="g8846">
      <g
         id="g8844"
         transform="matrix(0.352778,0,0,0.352778,-0.176389,0.00308679)">
        <g
           clip-path="url(#clipPath3462)"
           clip-rule="nonzero"
           id="g19">
          <g
             style="fill:#000000;fill-opacity:1"
             id="g17">
            <g
               id="use15"
               transform="translate(0,4.085)">
              <path
                 style="stroke:none"
                 d="m 5.265625,-3.421875 c 0.0625,-0.265625 0.1875,-0.40625 0.640625,-0.421875 0.03125,0 0.125,-0.015625 0.125,-0.140625 0,-0.0625 -0.03125,-0.109375 -0.09375,-0.109375 -0.140625,0 -0.484375,0.03125 -0.640625,0.03125 H 4.96875 c -0.109375,0 -0.234375,-0.03125 -0.328125,-0.03125 C 4.53125,-4.09375 4.5,-4.015625 4.5,-3.9375 c 0,0.09375 0.109375,0.09375 0.15625,0.09375 0.28125,0 0.390625,0.078125 0.390625,0.234375 0,0.03125 -0.015625,0.0625 -0.015625,0.09375 l -0.65625,2.625 -1.640625,-3.09375 C 2.6875,-4.078125 2.671875,-4.09375 2.53125,-4.09375 H 1.671875 c -0.109375,0 -0.203125,0 -0.203125,0.15625 0,0.09375 0.078125,0.09375 0.21875,0.09375 0.03125,0 0.234375,0 0.390625,0.03125 L 1.28125,-0.671875 C 1.21875,-0.4375 1.125,-0.25 0.640625,-0.234375 0.5625,-0.234375 0.5,-0.203125 0.5,-0.078125 0.515625,-0.0625 0.515625,0 0.609375,0 0.75,0 1.09375,-0.03125 1.25,-0.03125 l 0.328125,0.015625 C 1.6875,-0.015625 1.8125,0 1.90625,0 2.03125,0 2.046875,-0.125 2.046875,-0.15625 2.015625,-0.234375 1.96875,-0.234375 1.890625,-0.234375 1.609375,-0.25 1.5,-0.328125 1.5,-0.484375 c 0,-0.03125 0,-0.046875 0.015625,-0.125 L 2.28125,-3.65625 4.171875,-0.109375 C 4.203125,-0.015625 4.21875,0 4.296875,0 4.40625,0 4.421875,-0.03125 4.4375,-0.140625 Z m 0,0"
                 id="path26" />
            </g>
          </g>
        </g>
      </g>
    </g>
    <path
       style="fill:none;stroke:#0000ff;stroke-width:0.132292;stroke-linecap:round;stroke-linejoin:round;stroke-dasharray:none;stroke-dashoffset:0;paint-order:stroke markers fill"
       id="path8920"
       sodipodi:type="arc"
       sodipodi:cx="25.879416"
       sodipodi:cy="224.367"
       sodipodi:rx="4.2333302"
       sodipodi:ry="4.2333302"
       sodipodi:start="5.2359878"
       sodipodi:end="0"
       sodipodi:arc-type="arc"
       d="m 27.996081,220.70083 a 4.2333302,4.2333302 0 0 1 2.116665,3.66617"
       sodipodi:open="true" />
    <rect
       style="fill:#ffffff;stroke:none;stroke-width:0.132292;stroke-linecap:round;stroke-linejoin:round;stroke-dasharray:none;stroke-dashoffset:0;paint-order:stroke markers fill"
       id="rect9788"
       width="4.2333331"
       height="2.1166666"
       x="30.565702"
       y="221.21846" />
    <rect
       style="fill:#ffffff;stroke:none;stroke-width:0.132292;stroke-linecap:round;stroke-linejoin:round;stroke-dasharray:none;stroke-dashoffset:0;paint-order:stroke markers fill"
       id="rect9788-2"
       width="2.0687096"
       height="1.8449945"
       x="26.532745"
       y="212.64204" />
    <g
       inkscape:label=""
       transform="translate(30.922383,221.40155)"
       id="g6154"
       style="fill:#0000ff">
      <g
         id="surface1"
         transform="matrix(0.352778,0,0,0.352778,-0.132292,-0.00101427)"
         style="fill:#0000ff">
        <g
           clip-path="url(#clipPath5753)"
           clip-rule="nonzero"
           id="g30"
           style="fill:#0000ff">
          <g
             style="fill:#0000ff;fill-opacity:1"
             id="g28">
            <g
               id="use24"
               transform="translate(0,4.9640002)"
               style="fill:#0000ff">
              <path
                 style="fill:#0000ff;stroke:none"
                 d="M 0.96875,-1.984375 C 0.984375,-2.28125 1,-2.78125 1.203125,-3.140625 1.46875,-3.609375 1.859375,-3.78125 2.21875,-3.78125 c 0.140625,0 0.421875,0.015625 0.5625,0.1875 -0.21875,0.046875 -0.265625,0.1875 -0.265625,0.296875 0,0.15625 0.109375,0.28125 0.296875,0.28125 0.171875,0 0.28125,-0.109375 0.28125,-0.296875 0,-0.375 -0.265625,-0.671875 -0.875,-0.671875 -0.9375,0 -1.84375,0.8125 -1.84375,2.09375 0,1.453125 0.671875,2.015625 1.46875,2.015625 0.234375,0 0.640625,-0.03125 1,-0.390625 0.203125,-0.1875 0.421875,-0.421875 0.421875,-0.953125 0,-0.203125 -0.015625,-0.59375 -0.375,-0.921875 -0.21875,-0.203125 -0.484375,-0.40625 -0.984375,-0.40625 -0.421875,0 -0.734375,0.21875 -0.9375,0.5625 z m 0.875,1.890625 C 1,-0.09375 1,-1.125 1,-1.359375 c 0,-0.5 0.328125,-1 0.875,-1 0.3125,0 0.484375,0.125 0.625,0.3125 0.171875,0.234375 0.171875,0.515625 0.171875,0.828125 0,0.40625 -0.015625,0.609375 -0.21875,0.859375 C 2.3125,-0.1875 2.125,-0.09375 1.84375,-0.09375 Z m 0,0"
                 id="path41" />
            </g>
            <g
               id="use26"
               transform="translate(3.6529109,4.9640002)"
               style="fill:#0000ff">
              <path
                 style="fill:#0000ff;stroke:none"
                 d="m 3.296875,-1.90625 c 0,-0.4375 0,-2.078125 -1.46875,-2.078125 -1.46875,0 -1.46875,1.640625 -1.46875,2.078125 0,0.421875 0,2.03125 1.46875,2.03125 1.46875,0 1.46875,-1.609375 1.46875,-2.03125 z m -1.46875,1.84375 c -0.25,0 -0.65625,-0.125 -0.8125,-0.625 -0.09375,-0.34375 -0.09375,-0.921875 -0.09375,-1.296875 0,-0.40625 0,-0.859375 0.09375,-1.1875 0.140625,-0.53125 0.59375,-0.609375 0.8125,-0.609375 0.265625,0 0.671875,0.125 0.796875,0.578125 0.09375,0.3125 0.09375,0.75 0.09375,1.21875 0,0.375 0,0.984375 -0.09375,1.3125 C 2.453125,-0.140625 2.015625,-0.0625 1.828125,-0.0625 Z m 0,0"
                 id="path45" />
            </g>
          </g>
        </g>
        <g
           style="fill:#0000ff;fill-opacity:1"
           id="g34">
          <g
             id="use32"
             transform="translate(7.3060002,2.4560001)"
             style="fill:#0000ff">
            <path
               style="fill:#0000ff;stroke:none"
               d="m 3.046875,-1.25 c 0,-0.65625 -0.546875,-1.203125 -1.21875,-1.203125 -0.65625,0 -1.203125,0.546875 -1.203125,1.203125 0,0.671875 0.546875,1.21875 1.203125,1.21875 0.671875,0 1.21875,-0.546875 1.21875,-1.21875 z m -1.21875,0.9375 c -0.5,0 -0.921875,-0.421875 -0.921875,-0.9375 0,-0.515625 0.421875,-0.921875 0.921875,-0.921875 0.515625,0 0.9375,0.40625 0.9375,0.921875 0,0.515625 -0.421875,0.9375 -0.9375,0.9375 z m 0,0"
               id="path49" />
          </g>
        </g>
      </g>
    </g>
    <path
       style="fill:#ffffff;stroke:#ff0000;stroke-width:0.132292;stroke-linecap:round;stroke-linejoin:round;stroke-dasharray:none;stroke-dashoffset:0;marker-end:url(#Arrow2-6);paint-order:stroke markers fill"
       d="M 12.700001,211.66699 H 6.3499985"
       id="path10312-5" />
    <path
       style="fill:#ffffff;stroke:#ff0000;stroke-width:0.132292;stroke-linecap:round;stroke-linejoin:round;stroke-dasharray:none;stroke-dashoffset:0;marker-end:url(#Arrow2-6-9);paint-order:stroke markers fill"
       d="m 46.56666,220.13334 h 6.350003"
       id="path10312-5-60" />
    <path
       style="fill:#ffffff;stroke:#ff0000;stroke-width:0.132292;stroke-linecap:round;stroke-linejoin:round;stroke-dasharray:none;stroke-dashoffset:0;marker-end:url(#Arrow2-6-3);paint-order:stroke markers fill"
       d="m 23.239463,226.97483 -3.174976,5.49928"
       id="path10312-5-6" />
    <path
       style="fill:#ffffff;stroke:#ff0000;stroke-width:0.132292;stroke-linecap:round;stroke-linejoin:round;stroke-dasharray:none;stroke-dashoffset:0;marker-end:url(#Arrow2-6-3-2);paint-order:stroke markers fill"
       d="m 36.027198,204.82582 3.174976,-5.49928"
       id="path10312-5-6-1" />
    <path
       style="fill:#ffffff;stroke:#ff0000;stroke-width:0.132292;stroke-linecap:round;stroke-linejoin:round;stroke-dasharray:none;stroke-dashoffset:0;paint-order:stroke markers fill"
       d="m 22.388725,226.48366 1.701477,0.98235"
       id="path12336" />
    <path
       style="fill:#ffffff;stroke:#ff0000;stroke-width:0.132292;stroke-linecap:round;stroke-linejoin:round;stroke-dasharray:none;stroke-dashoffset:0;paint-order:stroke markers fill"
       d="m 36.87794,205.317 -1.701476,-0.98235"
       id="path12581" />
    <g
       inkscape:label=""
       transform="translate(26.748545,212.71429)"
       id="g14743"
       style="fill:#0000ff">
      <g
         id="g14741"
         transform="matrix(0.352778,0,0,0.352778,-0.165365,0.0275608)"
         style="fill:#0000ff">
        <g
           clip-path="url(#clipPath3977)"
           clip-rule="nonzero"
           id="g14739"
           style="fill:#0000ff">
          <g
             style="fill:#0000ff;fill-opacity:1"
             id="g14737">
            <g
               id="g14735"
               transform="translate(0,4.375)"
               style="fill:#0000ff">
              <path
                 style="fill:#0000ff;stroke:none"
                 d="m 4.703125,-4.3125 -0.15625,-0.140625 -0.46875,0.59375 c -0.234375,-0.125 -0.65625,-0.359375 -1.28125,-0.359375 -1.3125,0 -2.328125,1.015625 -2.328125,2.1875 0,0.609375 0.28125,1.234375 0.859375,1.671875 l -0.4375,0.59375 0.15625,0.125 0.46875,-0.59375 c 0.203125,0.125 0.65625,0.359375 1.28125,0.359375 1.296875,0 2.3125,-0.96875 2.3125,-2.15625 0,-0.65625 -0.328125,-1.296875 -0.859375,-1.703125 z M 1.53125,-0.59375 C 1.125,-1.015625 1.078125,-1.609375 1.078125,-2.03125 1.078125,-2.609375 1.1875,-3.0625 1.5,-3.453125 c 0.1875,-0.234375 0.625,-0.5625 1.296875,-0.5625 0.125,0 0.65625,0 1.109375,0.390625 z M 4.0625,-3.484375 c 0.4375,0.453125 0.453125,1.1875 0.453125,1.453125 0,0.65625 -0.15625,1.109375 -0.46875,1.453125 -0.265625,0.28125 -0.703125,0.515625 -1.25,0.515625 -0.265625,0 -0.71875,-0.0625 -1.109375,-0.390625 z m 0,0"
                 id="path14733" />
            </g>
          </g>
        </g>
      </g>
    </g>
    <path
       style="fill:#ffffff;stroke:#ff0000;stroke-width:0.132292;stroke-linecap:round;stroke-linejoin:round;stroke-dasharray:none;stroke-dashoffset:0;paint-order:stroke markers fill"
       d="M 24.090202,227.46601 36.877941,205.317"
       id="path11850"
       sodipodi:nodetypes="cc" />
    <path
       style="fill:#ffffff;stroke:#ff0000;stroke-width:0.132292;stroke-linecap:round;stroke-linejoin:round;stroke-dasharray:none;stroke-dashoffset:0;paint-order:stroke markers fill"
       d="M 22.388726,226.48366 35.176464,204.33465"
       id="path11848"
       sodipodi:nodetypes="cc" />
    <path
       style="fill:#ffffff;stroke:#0000ff;stroke-width:0.15875;stroke-linecap:butt;stroke-linejoin:round;stroke-dasharray:0.15875, 0.15875;stroke-dashoffset:0;paint-order:stroke markers fill"
       d="m 28.782596,215.40915 1.701477,0.98235"
       id="path16327" />
  </g>
</svg>
