<?xml version="1.0" encoding="UTF-8" standalone="no"?>
<!-- Created with Inkscape (http://www.inkscape.org/) -->

<svg
   width="192.3"
   height="144.3"
   viewBox="0 0 50.879375 38.179376"
   version="1.1"
   id="svg1"
   inkscape:version="1.3 (0e150ed6c4, 2023-07-21)"
   sodipodi:docname="figura_01.svg"
   xmlns:inkscape="http://www.inkscape.org/namespaces/inkscape"
   xmlns:sodipodi="http://sodipodi.sourceforge.net/DTD/sodipodi-0.dtd"
   xmlns="http://www.w3.org/2000/svg"
   xmlns:svg="http://www.w3.org/2000/svg">
  <sodipodi:namedview
     id="namedview1"
     pagecolor="#ffffff"
     bordercolor="#000000"
     borderopacity="0.25"
     inkscape:showpageshadow="2"
     inkscape:pageopacity="0.0"
     inkscape:pagecheckerboard="0"
     inkscape:deskcolor="#d1d1d1"
     inkscape:document-units="px"
     inkscape:zoom="3.3638608"
     inkscape:cx="105.68214"
     inkscape:cy="63.320099"
     inkscape:window-width="1920"
     inkscape:window-height="1050"
     inkscape:window-x="1920"
     inkscape:window-y="18"
     inkscape:window-maximized="1"
     inkscape:current-layer="layer1" />
  <defs
     id="defs1" />
  <g
     inkscape:label="Capa 1"
     inkscape:groupmode="layer"
     id="layer1"
     transform="translate(-246.32709,-398.7271)">
    <path
       id="path2"
       d="m 254.74524,417.53455 h -1.11125 m 1.11125,0 h 1.11125"
       style="fill:none;stroke:#000000;stroke-width:0.0881945;stroke-linecap:butt;stroke-linejoin:miter;stroke-miterlimit:3.8;stroke-dasharray:none;stroke-opacity:1" />
    <path
       id="path3"
       d="m 254.74524,404.79927 h -1.11125 m 1.11125,0 h 1.11125"
       style="fill:none;stroke:#000000;stroke-width:0.0881945;stroke-linecap:butt;stroke-linejoin:miter;stroke-miterlimit:3.8;stroke-dasharray:none;stroke-opacity:1" />
    <path
       id="path5"
       d="m 271.34344,430.28746 v 1.11125 m 0,-1.11125 v -1.11125"
       style="fill:none;stroke:#000000;stroke-width:0.0881945;stroke-linecap:butt;stroke-linejoin:miter;stroke-miterlimit:3.8;stroke-dasharray:none;stroke-opacity:1" />
    <path
       id="path6"
       d="m 287.92399,430.28746 v 1.11125 m 0,-1.11125 v -1.11125"
       style="fill:none;stroke:#000000;stroke-width:0.0881945;stroke-linecap:butt;stroke-linejoin:miter;stroke-miterlimit:3.8;stroke-dasharray:none;stroke-opacity:1" />
    <path
       id="path7"
       d="m 250.6001,430.28746 h 41.46903"
       style="fill:none;stroke:#000000;stroke-width:0.0440972;stroke-linecap:butt;stroke-linejoin:miter;stroke-miterlimit:3.8;stroke-dasharray:0.176389, 0.352778;stroke-dashoffset:0;stroke-opacity:1" />
    <path
       id="path8"
       d="M 254.74524,433.4801 V 401.60663"
       style="fill:none;stroke:#000000;stroke-width:0.0440972;stroke-linecap:butt;stroke-linejoin:miter;stroke-miterlimit:3.8;stroke-dasharray:0.176389, 0.352778;stroke-dashoffset:0;stroke-opacity:1" />
    <path
       id="path9"
       d="m 289.95247,430.26983 v 0.56444 l 2.1343,-0.56444 -2.1343,-0.56445 v 0.56445"
       style="fill:#000000;fill-opacity:1;fill-rule:nonzero;stroke:none;stroke-width:0.0352778" />
    <path
       id="path10"
       d="m 289.95247,430.26983 v 0.56444 l 2.1343,-0.56444 -2.1343,-0.56445 z"
       style="fill:none;stroke:#000000;stroke-width:0.0881945;stroke-linecap:butt;stroke-linejoin:miter;stroke-miterlimit:3.8;stroke-dasharray:none;stroke-opacity:1" />
    <path
       id="path11"
       d="m 250.61774,430.26983 h 39.33473"
       style="fill:none;stroke:#000000;stroke-width:0.0881945;stroke-linecap:butt;stroke-linejoin:miter;stroke-miterlimit:3.8;stroke-dasharray:none;stroke-opacity:1" />
    <path
       id="path12"
       d="m 254.76288,403.7233 h 0.56445 l -0.56445,-2.13431 -0.56444,2.13431 h 0.56444"
       style="fill:#000000;fill-opacity:1;fill-rule:nonzero;stroke:none;stroke-width:0.0352778" />
    <path
       id="path13"
       d="m 254.76288,403.7233 h 0.56445 l -0.56445,-2.13431 -0.56444,2.13431 z"
       style="fill:none;stroke:#000000;stroke-width:0.0881945;stroke-linecap:butt;stroke-linejoin:miter;stroke-miterlimit:3.8;stroke-dasharray:none;stroke-opacity:1" />
    <path
       id="path14"
       d="M 254.76288,433.46246 V 403.7233"
       style="fill:none;stroke:#000000;stroke-width:0.0881945;stroke-linecap:butt;stroke-linejoin:miter;stroke-miterlimit:3.8;stroke-dasharray:none;stroke-opacity:1" />
    <path
       id="path15"
       d="m 254.76288,411.14927 h 24.88848"
       style="fill:none;stroke:#000000;stroke-width:0.0881945;stroke-linecap:butt;stroke-linejoin:miter;stroke-miterlimit:3.8;stroke-dasharray:0.352778, 0.705556;stroke-dashoffset:0;stroke-opacity:1" />
    <path
       id="path16"
       d="m 279.65136,430.26983 v -19.12056 m -24.88848,19.12056 24.88848,-19.12056"
       style="fill:none;stroke:#000000;stroke-width:0.0881945;stroke-linecap:butt;stroke-linejoin:miter;stroke-miterlimit:3.8;stroke-dasharray:0.352778, 0.705556;stroke-dashoffset:0;stroke-opacity:1" />
    <path
       d="m 280.15691,431.34367 c -0.12678,0.0276 -0.13229,0.13781 -0.13229,0.14883 0,0.0606 0.0496,0.10473 0.11024,0.10473 0.0606,0 0.15434,-0.0496 0.15434,-0.17087 0,-0.15985 -0.17639,-0.20395 -0.28112,-0.20395 -0.12678,0 -0.23702,0.0937 -0.30316,0.20395 -0.0606,-0.14883 -0.20395,-0.20395 -0.31971,-0.20395 -0.30868,0 -0.47955,0.35277 -0.47955,0.42995 0,0.0276 0.022,0.0386 0.0441,0.0386 0.0331,0 0.0386,-0.0165 0.0441,-0.0496 0.0661,-0.20395 0.23702,-0.34175 0.38034,-0.34175 0.11024,0 0.16536,0.0827 0.16536,0.1819 0,0.0551 -0.0331,0.18741 -0.0551,0.27561 -0.022,0.0827 -0.0827,0.33073 -0.0992,0.38585 -0.0386,0.14882 -0.1378,0.27009 -0.26458,0.27009 -0.011,0 -0.0827,0 -0.14332,-0.0386 0.12678,-0.0331 0.12678,-0.14883 0.12678,-0.15434 0,-0.0661 -0.0496,-0.10474 -0.11024,-0.10474 -0.0772,0 -0.15985,0.0661 -0.15985,0.17088 0,0.13229 0.1378,0.20395 0.28112,0.20395 0.14882,0 0.25355,-0.11024 0.30316,-0.20395 0.0661,0.13781 0.19293,0.20395 0.33073,0.20395 0.30317,0 0.47405,-0.35278 0.47405,-0.42995 0,-0.0276 -0.022,-0.0386 -0.0441,-0.0386 -0.0331,0 -0.0386,0.022 -0.0496,0.0496 -0.0551,0.18741 -0.21497,0.34175 -0.37483,0.34175 -0.0937,0 -0.15985,-0.0606 -0.15985,-0.1819 0,-0.0551 0.0165,-0.12127 0.0551,-0.27561 0.0165,-0.0882 0.0772,-0.33073 0.0937,-0.38585 0.0386,-0.14882 0.1378,-0.27009 0.26458,-0.27009 0.0165,0 0.0882,0 0.14883,0.0441 z m 0,0"
       id="path20"
       style="fill:#000000;fill-opacity:1;stroke-width:0.352777" />
    <path
       d="m 253.38166,410.44978 c 0.011,-0.0386 0.011,-0.0441 0.011,-0.0661 0,-0.0717 -0.0551,-0.0882 -0.0882,-0.0882 -0.0165,0 -0.0772,0.006 -0.11575,0.0772 -0.006,0.0165 -0.0331,0.11576 -0.0441,0.17639 l -0.17088,0.67248 c 0,0.011 -0.12126,0.23702 -0.32521,0.23702 -0.13781,0 -0.18742,-0.10473 -0.18742,-0.22599 0,-0.16537 0.0937,-0.41341 0.15986,-0.57878 0.0276,-0.0717 0.0386,-0.0937 0.0386,-0.14883 0,-0.15433 -0.12678,-0.23702 -0.25356,-0.23702 -0.28112,0 -0.39687,0.39688 -0.39687,0.42995 0,0.0276 0.0221,0.0386 0.0441,0.0386 0.0386,0 0.0386,-0.0165 0.0496,-0.0441 0.0717,-0.24805 0.19293,-0.34727 0.29215,-0.34727 0.0441,0 0.0661,0.0276 0.0661,0.0937 0,0.0606 -0.022,0.12678 -0.0386,0.17639 -0.11576,0.29765 -0.16537,0.44097 -0.16537,0.57326 0,0.27561 0.20947,0.34726 0.37483,0.34726 0.13229,0 0.226,-0.0606 0.29766,-0.12126 -0.0441,0.15434 -0.0717,0.26458 -0.17639,0.40238 -0.0937,0.11025 -0.20395,0.18742 -0.33073,0.18742 -0.0496,0 -0.15434,-0.011 -0.20946,-0.0937 0.14883,-0.011 0.15985,-0.1378 0.15985,-0.15434 0,-0.0662 -0.0551,-0.10473 -0.11024,-0.10473 -0.0661,0 -0.15986,0.0496 -0.15986,0.18741 0,0.13229 0.12127,0.24254 0.31971,0.24254 0.28663,0 0.60633,-0.23151 0.69453,-0.56775 z m 0,0"
       id="path21"
       style="fill:#000000;fill-opacity:1;stroke-width:0.352777" />
    <path
       d="m 265.65257,419.35324 c 0.0331,-0.12126 0.0661,-0.24253 0.0937,-0.36931 0,-0.006 0.022,-0.0827 0.022,-0.0992 0.011,-0.0276 0.0827,-0.14331 0.15434,-0.20946 0.0882,-0.0827 0.18741,-0.0992 0.23702,-0.0992 0.0276,0 0.0827,0.006 0.12127,0.0386 -0.12127,0.0276 -0.13781,0.12678 -0.13781,0.15434 0,0.0606 0.0441,0.10473 0.11025,0.10473 0.0716,0 0.15985,-0.0606 0.15985,-0.17639 0,-0.0992 -0.0882,-0.19844 -0.24805,-0.19844 -0.19292,0 -0.3197,0.12678 -0.38034,0.20395 -0.0551,-0.20395 -0.24804,-0.20395 -0.2756,-0.20395 -0.0992,0 -0.17088,0.0661 -0.21498,0.15434 -0.0661,0.12678 -0.0992,0.2701 -0.0992,0.27561 0,0.0276 0.022,0.0386 0.0441,0.0386 0.0386,0 0.0386,-0.011 0.0606,-0.0882 0.0331,-0.1378 0.0827,-0.30317 0.19843,-0.30317 0.0772,0 0.0937,0.0717 0.0937,0.13229 0,0.0551 -0.0165,0.10474 -0.0386,0.19844 -0.006,0.022 -0.0496,0.18741 -0.0606,0.226 l -0.10473,0.42443 c -0.011,0.0441 -0.0276,0.11025 -0.0276,0.12127 0,0.0662 0.0551,0.0882 0.0937,0.0882 0.0992,0 0.11575,-0.0772 0.1378,-0.17638 z m 0,0"
       id="path23"
       style="fill:#000000;fill-opacity:1;stroke-width:0.352777" />
    <path
       d="m 262.81147,427.33558 c 0,-0.35278 -0.13229,-0.60082 -0.36931,-0.60082 -0.41892,0 -0.85438,0.78272 -0.85438,1.40559 0,0.2701 0.0937,0.60083 0.37482,0.60083 0.4079,0 0.84887,-0.76068 0.84887,-1.4056 z m -0.90399,0.35278 c 0.13229,-0.56775 0.35829,-0.87643 0.53468,-0.87643 0.17087,0 0.17087,0.30317 0.17087,0.35829 0,0.15434 -0.0551,0.38033 -0.0882,0.51814 z m 0.59531,0.0992 c -0.13229,0.56223 -0.3638,0.87643 -0.54019,0.87643 -0.14883,0 -0.16536,-0.226 -0.16536,-0.35278 0,-0.1819 0.0496,-0.4079 0.0827,-0.52365 z m 0,0"
       id="path26"
       style="fill:#000000;fill-opacity:1;stroke-width:0.352777" />
    <circle
       style="fill:#000000;stroke-width:0.079375;stroke-linecap:round;stroke-linejoin:round;stroke-opacity:0.996078"
       id="path29"
       cx="279.65137"
       cy="411.14926"
       r="0.38887998" />
    <path
       style="fill:none;stroke:#000000;stroke-width:0.079375;stroke-linecap:round;stroke-linejoin:round;stroke-opacity:0.996078"
       id="path30"
       sodipodi:type="arc"
       sodipodi:cx="254.74524"
       sodipodi:cy="430.28748"
       sodipodi:rx="6.2456059"
       sodipodi:ry="6.2456059"
       sodipodi:start="5.6246337"
       sodipodi:end="0"
       sodipodi:arc-type="arc"
       d="m 259.68476,426.46534 a 6.2456059,6.2456059 0 0 1 1.30609,3.82214"
       sodipodi:open="true" />
  </g>
</svg>
