<?xml version="1.0" encoding="UTF-8" standalone="no"?>
<!-- Created with Inkscape (http://www.inkscape.org/) -->

<svg
   width="101.33542mm"
   height="75.935417mm"
   viewBox="0 0 101.33542 75.935417"
   version="1.1"
   id="svg1"
   xml:space="preserve"
   inkscape:version="1.3 (0e150ed6c4, 2023-07-21)"
   sodipodi:docname="tarea_01.svg"
   xmlns:inkscape="http://www.inkscape.org/namespaces/inkscape"
   xmlns:sodipodi="http://sodipodi.sourceforge.net/DTD/sodipodi-0.dtd"
   xmlns:xlink="http://www.w3.org/1999/xlink"
   xmlns="http://www.w3.org/2000/svg"
   xmlns:svg="http://www.w3.org/2000/svg"><sodipodi:namedview
     id="namedview1"
     pagecolor="#ffffff"
     bordercolor="#000000"
     borderopacity="0.25"
     inkscape:showpageshadow="2"
     inkscape:pageopacity="0.0"
     inkscape:pagecheckerboard="0"
     inkscape:deskcolor="#d1d1d1"
     inkscape:document-units="mm"
     showguides="true"
     inkscape:zoom="2.1770318"
     inkscape:cx="168.34848"
     inkscape:cy="187.41113"
     inkscape:window-width="1920"
     inkscape:window-height="1050"
     inkscape:window-x="1920"
     inkscape:window-y="18"
     inkscape:window-maximized="0"
     inkscape:current-layer="layer1"><sodipodi:guide
       position="13.12567,13.345419"
       orientation="1,0"
       id="guide1"
       inkscape:locked="false" /><sodipodi:guide
       position="13.12567,13.345419"
       orientation="0,-1"
       id="guide2"
       inkscape:locked="false" /><sodipodi:guide
       position="67.632815,46.716667"
       orientation="1,0"
       id="guide23"
       inkscape:locked="false" /><sodipodi:guide
       position="67.632816,46.716666"
       orientation="0,-1"
       id="guide24"
       inkscape:locked="false" /></sodipodi:namedview><defs
     id="defs1"><linearGradient
       id="linearGradient48"
       inkscape:collect="always"><stop
         style="stop-color:#414141;stop-opacity:1;"
         offset="0"
         id="stop48" /><stop
         style="stop-color:#e6e6e6;stop-opacity:0.49666807;"
         offset="1"
         id="stop49" /></linearGradient><marker
       style="overflow:visible"
       id="marker29"
       refX="0"
       refY="0"
       orient="auto-start-reverse"
       inkscape:stockid="Dart arrow"
       markerWidth="0.5"
       markerHeight="0.5"
       viewBox="0 0 1 1"
       inkscape:isstock="true"
       inkscape:collect="always"
       preserveAspectRatio="xMidYMid"><path
         style="fill:context-stroke;fill-rule:evenodd;stroke:none"
         d="M 0,0 5,-5 -12.5,0 5,5 Z"
         transform="scale(-0.5)"
         id="path29" /></marker><marker
       style="overflow:visible"
       id="DartArrow"
       refX="0"
       refY="0"
       orient="auto-start-reverse"
       inkscape:stockid="Dart arrow"
       markerWidth="0.5"
       markerHeight="0.5"
       viewBox="0 0 1 1"
       inkscape:isstock="true"
       inkscape:collect="always"
       preserveAspectRatio="xMidYMid"><path
         style="fill:context-stroke;fill-rule:evenodd;stroke:none"
         d="M 0,0 5,-5 -12.5,0 5,5 Z"
         transform="scale(-0.5)"
         id="path6" /></marker><marker
       style="overflow:visible"
       id="ConcaveTriangle"
       refX="0"
       refY="0"
       orient="auto-start-reverse"
       inkscape:stockid="Concave triangle arrow"
       markerWidth="0.75"
       markerHeight="0.75"
       viewBox="0 0 1 1"
       inkscape:isstock="true"
       inkscape:collect="always"
       preserveAspectRatio="xMidYMid"><path
         transform="scale(0.7)"
         d="M -2,-4 9,0 -2,4 c 2,-2.33 2,-5.66 0,-8 z"
         style="fill:context-stroke;fill-rule:evenodd;stroke:none"
         id="path21" /></marker><marker
       style="overflow:visible"
       id="ConcaveTriangle-5"
       refX="0"
       refY="0"
       orient="auto-start-reverse"
       inkscape:stockid="Concave triangle arrow"
       markerWidth="0.75"
       markerHeight="0.75"
       viewBox="0 0 1 1"
       inkscape:isstock="true"
       inkscape:collect="always"
       preserveAspectRatio="xMidYMid"><path
         transform="scale(0.7)"
         d="M -2,-4 9,0 -2,4 c 2,-2.33 2,-5.66 0,-8 z"
         style="fill:context-stroke;fill-rule:evenodd;stroke:none"
         id="path21-6" /></marker><radialGradient
       inkscape:collect="always"
       xlink:href="#linearGradient48"
       id="radialGradient49"
       cx="68.770134"
       cy="176.83409"
       fx="68.770134"
       fy="176.83409"
       r="9.6855001"
       gradientUnits="userSpaceOnUse"
       gradientTransform="matrix(1.6524979,0,0,1.6524981,-43.942026,-115.34388)" /><radialGradient
       inkscape:collect="always"
       xlink:href="#linearGradient48"
       id="radialGradient50"
       gradientUnits="userSpaceOnUse"
       gradientTransform="matrix(0.44357913,0,0,0.44357914,92.828058,62.451012)"
       cx="67.133545"
       cy="176.0226"
       fx="67.133545"
       fy="176.0226"
       r="9.6855001" /></defs><g
     inkscape:label="Capa 1"
     inkscape:groupmode="layer"
     id="layer1"
     transform="translate(-54.3479, -110.532)"><path
       style="fill:none;stroke:#ff0000;stroke-width:0.529167;stroke-linecap:round;stroke-linejoin:round;stroke-dasharray:none;stroke-opacity:0.996078;marker-end:url(#ConcaveTriangle)"
       d="M 67.47357,173.122 V 116.52359"
       id="path20"
       sodipodi:nodetypes="cc" /><path
       style="fill:none;stroke:#ff0000;stroke-width:0.529167;stroke-linecap:round;stroke-linejoin:round;stroke-dasharray:none;stroke-opacity:0.996078;marker-end:url(#ConcaveTriangle)"
       d="m 67.47357,173.122 79.27053,0"
       id="path22"
       sodipodi:nodetypes="cc" /><path
       style="fill:none;stroke:#000080;stroke-width:0.529167;stroke-linecap:round;stroke-linejoin:round;stroke-dasharray:none;stroke-opacity:0.996078;marker-end:url(#ConcaveTriangle-5)"
       d="m 121.98071,139.75075 8.35652,-20.74999"
       id="path20-9"
       sodipodi:nodetypes="cc" /><circle
       style="fill:url(#radialGradient49);stroke:#000000;stroke-width:0.52916667;stroke-linecap:round;stroke-linejoin:round;stroke-opacity:0.996078;stroke-dasharray:none"
       id="path19"
       cx="67.473572"
       cy="173.12199"
       r="9.4209166" /><circle
       style="fill:url(#radialGradient50);stroke:#000000;stroke-width:0.529167;stroke-linecap:round;stroke-linejoin:round;stroke-dasharray:none;stroke-opacity:0.996078"
       id="circle49"
       cx="122.20636"
       cy="139.5251"
       r="2.6748228" /><path
       style="fill:none;stroke:#000000;stroke-width:0.529167;stroke-linecap:round;stroke-linejoin:round;stroke-dasharray:none;stroke-opacity:0.996078"
       d="m 67.47357,173.122 54.50714,-33.37125"
       id="path24" /><path
       style="fill:none;stroke:#000000;stroke-width:0.396875;stroke-linecap:butt;stroke-linejoin:round;stroke-dasharray:0.79375, 0.396875;stroke-dashoffset:0;stroke-opacity:0.996078;marker-start:url(#DartArrow);marker-end:url(#marker29)"
       id="path28"
       sodipodi:type="arc"
       sodipodi:cx="67.473572"
       sodipodi:cy="173.12199"
       sodipodi:rx="26.524656"
       sodipodi:ry="26.524656"
       sodipodi:start="5.7915856"
       sodipodi:end="6.2262213"
       sodipodi:arc-type="arc"
       d="m 90.857148,160.60138 a 26.524656,26.524656 0 0 1 3.098057,11.01048"
       sodipodi:open="true" /><g
       inkscape:label=""
       transform="translate(75.831472,179.69864)"
       id="g13"><g
   fill="#000000"
   fill-opacity="1"
   id="g12"
   transform="matrix(0.352778,0,0,0.352778,-1.06138,-0.706129)">&#10;    <g
   id="g11"
   transform="translate(1.993,16.111)">&#10;      <path
   d="m 18.75,-12.59375 c 0.1875,-0.703125 0.234375,-0.921875 1.703125,-0.921875 0.390625,0 0.578125,0 0.578125,-0.390625 0,-0.203125 -0.140625,-0.203125 -0.546875,-0.203125 h -2.46875 C 17.5,-14.109375 17.46875,-14.09375 17.25,-13.75 L 9.703125,-1.84375 8.15625,-13.65625 c -0.0625,-0.453125 -0.078125,-0.453125 -0.609375,-0.453125 h -2.5625 c -0.40625,0 -0.578125,0 -0.578125,0.390625 0,0.203125 0.171875,0.203125 0.484375,0.203125 1.265625,0 1.265625,0.171875 1.265625,0.40625 0,0.03125 0,0.15625 -0.078125,0.46875 l -2.65625,10.53125 c -0.234375,1 -0.71875,1.453125 -2.09375,1.515625 -0.0625,0 -0.3125,0.015625 -0.3125,0.359375 C 1.015625,0 1.203125,0 1.28125,0 1.6875,0 2.75,-0.046875 3.15625,-0.046875 h 1 C 4.4375,-0.046875 4.796875,0 5.078125,0 c 0.140625,0 0.375,0 0.375,-0.390625 0,-0.1875 -0.203125,-0.203125 -0.28125,-0.203125 -0.6875,-0.03125 -1.34375,-0.15625 -1.34375,-0.890625 0,-0.203125 0,-0.234375 0.078125,-0.515625 L 6.75,-13.390625 H 6.78125 L 8.484375,-0.5625 C 8.546875,-0.0625 8.578125,0 8.765625,0 8.984375,0 9.09375,-0.171875 9.1875,-0.34375 L 17.5,-13.484375 h 0.01563 l -3,11.953125 c -0.1875,0.71875 -0.21875,0.9375 -1.671875,0.9375 -0.390625,0 -0.59375,0 -0.59375,0.359375 C 12.25,0 12.4375,0 12.5625,0 c 0.34375,0 0.765625,-0.046875 1.109375,-0.046875 h 2.4375 C 16.46875,-0.046875 16.890625,0 17.25,0 c 0.15625,0 0.390625,0 0.390625,-0.390625 0,-0.203125 -0.1875,-0.203125 -0.5,-0.203125 -1.25,0 -1.25,-0.171875 -1.25,-0.375 0,-0.015625 0,-0.171875 0.03125,-0.328125 z m 0,0"
   id="path10" />&#10;    </g>&#10;  </g>&#10;</g><g
       inkscape:label=""
       transform="translate(119.29319,144.4758)"
       id="g22"><g
   fill="#000000"
   fill-opacity="1"
   id="g21"
   transform="matrix(0.352778,0,0,0.352778,-0.901524,-0.627459)">&#10;    <g
   id="g20"
   transform="translate(1.993,10.888)">&#10;      <path
   d="M 4.25,-6.046875 C 4.296875,-6.171875 4.8125,-7.203125 5.578125,-7.875 6.109375,-8.359375 6.8125,-8.703125 7.625,-8.703125 c 0.828125,0 1.109375,0.625 1.109375,1.453125 0,0.125 0,0.53125 -0.25,1.5 L 7.96875,-3.609375 C 7.8125,-3 7.421875,-1.46875 7.375,-1.234375 c -0.078125,0.3125 -0.203125,0.84375 -0.203125,0.921875 0,0.296875 0.21875,0.515625 0.53125,0.515625 0.625,0 0.71875,-0.46875 0.90625,-1.21875 l 1.25,-4.9375 c 0.03125,-0.15625 1.109375,-2.75 3.375,-2.75 0.828125,0 1.125,0.625 1.125,1.453125 0,1.15625 -0.8125,3.40625 -1.265625,4.640625 -0.1875,0.5 -0.28125,0.765625 -0.28125,1.140625 0,0.9375 0.640625,1.671875 1.625,1.671875 1.921875,0 2.640625,-3.03125 2.640625,-3.15625 0,-0.109375 -0.07813,-0.1875 -0.203125,-0.1875 -0.1875,0 -0.203125,0.0625 -0.3125,0.40625 -0.46875,1.65625 -1.234375,2.53125 -2.0625,2.53125 -0.203125,0 -0.53125,-0.03125 -0.53125,-0.6875 0,-0.53125 0.25,-1.203125 0.328125,-1.421875 0.375,-1 1.296875,-3.4375 1.296875,-4.625 0,-1.25 -0.71875,-2.171875 -2.296875,-2.171875 -1.375,0 -2.5,0.78125 -3.3125,2 -0.0625,-1.109375 -0.75,-2 -2.296875,-2 -1.84375,0 -2.8125,1.296875 -3.1875,1.8125 -0.0625,-1.171875 -0.90625,-1.8125 -1.8125,-1.8125 -0.59375,0 -1.078125,0.296875 -1.46875,1.078125 -0.375,0.734375 -0.65625,2 -0.65625,2.078125 0,0.09375 0.078125,0.1875 0.21875,0.1875 0.171875,0 0.1875,-0.015625 0.3125,-0.5 0.3125,-1.21875 0.703125,-2.4375 1.53125,-2.4375 0.46875,0 0.640625,0.34375 0.640625,0.953125 0,0.453125 -0.203125,1.265625 -0.359375,1.90625 l -0.578125,2.234375 c -0.078125,0.390625 -0.296875,1.3125 -0.40625,1.6875 -0.140625,0.53125 -0.375,1.515625 -0.375,1.609375 0,0.296875 0.234375,0.515625 0.546875,0.515625 0.234375,0 0.53125,-0.125 0.6875,-0.4375 0.046875,-0.09375 0.234375,-0.8125 0.34375,-1.234375 l 0.453125,-1.859375 z m 0,0"
   id="path14" />&#10;    </g>&#10;  </g>&#10;</g><g
       inkscape:label=""
       transform="translate(129.69077,126.70577)"
       id="g25"><g
   fill="#000000"
   fill-opacity="1"
   id="g24"
   transform="matrix(0.352778,0,0,0.352778,-0.901524,-0.627459)">&#10;    <g
   id="g23"
   transform="translate(1.993,10.888)">&#10;      <path
   d="m 9.4375,-7.71875 c 0,-1.3125 -0.65625,-1.390625 -0.828125,-1.390625 -0.484375,0 -0.953125,0.5 -0.953125,0.90625 0,0.25 0.15625,0.390625 0.234375,0.484375 0.203125,0.171875 0.75,0.734375 0.75,1.8125 0,0.859375 -1.25,5.703125 -3.71875,5.703125 -1.265625,0 -1.515625,-1.0625 -1.515625,-1.828125 0,-1.03125 0.484375,-2.46875 1.03125,-3.953125 0.328125,-0.859375 0.421875,-1.0625 0.421875,-1.46875 0,-0.875 -0.625,-1.65625 -1.640625,-1.65625 -1.890625,0 -2.65625,3 -2.65625,3.15625 0,0.09375 0.078125,0.1875 0.21875,0.1875 0.1875,0 0.203125,-0.078125 0.296875,-0.375 0.484375,-1.765625 1.296875,-2.5625 2.078125,-2.5625 0.1875,0 0.546875,0 0.546875,0.6875 0,0.53125 -0.234375,1.140625 -0.546875,1.921875 -0.984375,2.640625 -0.984375,3.28125 -0.984375,3.78125 0,0.453125 0.0625,1.296875 0.703125,1.875 0.734375,0.640625 1.765625,0.640625 1.953125,0.640625 3.4375,0 4.609375,-6.75 4.609375,-7.921875 z m 0,0"
   id="path23" />&#10;    </g>&#10;  </g>&#10;</g><g
       inkscape:label=""
       transform="translate(93.274687,150.41867)"
       id="g28"><g
   fill="#000000"
   fill-opacity="1"
   id="g27"
   transform="matrix(0.352778,0,0,0.352778,-0.901524,-0.627459)">&#10;    <g
   id="g26"
   transform="translate(1.993,10.888)">&#10;      <path
   d="m 8.03125,-8.453125 c -0.640625,0.125 -0.96875,0.578125 -0.96875,1.03125 0,0.5 0.390625,0.671875 0.6875,0.671875 0.578125,0 1.046875,-0.5 1.046875,-1.125 0,-0.65625 -0.640625,-1.234375 -1.671875,-1.234375 -0.828125,0 -1.78125,0.375 -2.640625,1.625 -0.140625,-1.09375 -0.96875,-1.625 -1.796875,-1.625 -0.8125,0 -1.21875,0.625 -1.46875,1.078125 -0.34375,0.734375 -0.65625,1.984375 -0.65625,2.078125 0,0.09375 0.078125,0.1875 0.21875,0.1875 0.171875,0 0.1875,-0.015625 0.3125,-0.5 0.3125,-1.234375 0.703125,-2.4375 1.53125,-2.4375 0.5,0 0.640625,0.359375 0.640625,0.953125 0,0.453125 -0.203125,1.265625 -0.359375,1.90625 l -0.578125,2.234375 c -0.078125,0.390625 -0.296875,1.3125 -0.40625,1.6875 -0.140625,0.53125 -0.375,1.515625 -0.375,1.609375 0,0.296875 0.234375,0.515625 0.546875,0.515625 0.21875,0 0.609375,-0.140625 0.734375,-0.546875 C 2.890625,-0.515625 3.65625,-3.640625 3.78125,-4.109375 3.890625,-4.5625 4,-5 4.109375,-5.453125 4.1875,-5.75 4.28125,-6.078125 4.34375,-6.34375 4.40625,-6.53125 4.953125,-7.546875 5.46875,-8 c 0.25,-0.21875 0.796875,-0.703125 1.640625,-0.703125 0.328125,0 0.65625,0.0625 0.921875,0.25 z m 0,0"
   id="path26" />&#10;    </g>&#10;  </g>&#10;</g><g
       inkscape:label=""
       transform="translate(143.31885,176.01166)"
       id="g35"><g
   fill="#000000"
   fill-opacity="1"
   id="g34"
   transform="matrix(0.352778,0,0,0.352778,-0.884987,-0.706129)">&#10;    <g
   id="g33"
   transform="translate(1.993,16.111)">&#10;      <path
   d="M 9.8125,-8.390625 7.875,-12.90625 c 0.265625,-0.5 0.890625,-0.578125 1.125,-0.609375 0.125,0 0.359375,-0.01563 0.359375,-0.359375 0,-0.234375 -0.1875,-0.234375 -0.3125,-0.234375 -0.34375,0 -0.765625,0.04687 -1.109375,0.04687 H 6.734375 c -1.265625,0 -2.171875,-0.04687 -2.1875,-0.04687 -0.171875,0 -0.375,0 -0.375,0.390625 0,0.203125 0.1875,0.203125 0.453125,0.203125 1.203125,0 1.28125,0.21875 1.484375,0.703125 l 2.46875,5.75 -4.484375,4.796875 C 3.34375,-1.46875 2.453125,-0.6875 0.921875,-0.59375 0.6875,-0.578125 0.515625,-0.578125 0.515625,-0.203125 0.515625,-0.140625 0.53125,0 0.765625,0 1.046875,0 1.359375,-0.046875 1.65625,-0.046875 H 2.625 C 3.28125,-0.046875 4,0 4.640625,0 c 0.15625,0 0.40625,0 0.40625,-0.375 0,-0.203125 -0.15625,-0.21875 -0.28125,-0.21875 C 4.359375,-0.640625 4.09375,-0.875 4.09375,-1.203125 c 0,-0.34375 0.25,-0.59375 0.84375,-1.21875 l 1.84375,-2 c 0.453125,-0.46875 1.546875,-1.671875 2,-2.125 l 2.171875,5.078125 c 0.01563,0.046875 0.09375,0.25 0.09375,0.265625 0,0.1875 -0.453125,0.5625 -1.109375,0.609375 -0.125,0 -0.359375,0.015625 -0.359375,0.390625 C 9.578125,0 9.796875,0 9.890625,0 10.25,0 10.65625,-0.046875 11.015625,-0.046875 h 2.265625 c 0.375,0 0.765625,0.046875 1.109375,0.046875 0.15625,0 0.375,0 0.375,-0.390625 0,-0.203125 -0.203125,-0.203125 -0.390625,-0.203125 -1.234375,-0.03125 -1.28125,-0.125 -1.625,-0.890625 l -2.734375,-6.40625 2.625,-2.8125 c 0.203125,-0.203125 0.6875,-0.71875 0.875,-0.921875 0.875,-0.9375 1.703125,-1.78125 3.375,-1.890625 0.21875,-0.01563 0.421875,-0.01563 0.421875,-0.359375 0,-0.234375 -0.1875,-0.234375 -0.265625,-0.234375 -0.296875,0 -0.609375,0.04687 -0.890625,0.04687 h -0.953125 c -0.65625,0 -1.390625,-0.04687 -2.03125,-0.04687 -0.140625,0 -0.390625,0 -0.390625,0.375 0,0.203125 0.15625,0.21875 0.28125,0.21875 0.328125,0.04687 0.671875,0.21875 0.671875,0.609375 l -0.01563,0.03125 c -0.03125,0.15625 -0.0625,0.359375 -0.296875,0.609375 z m 0,0"
   id="path31" />&#10;    </g>&#10;  </g>&#10;</g><g
       inkscape:label=""
       transform="translate(58.700348,114.02328)"
       id="g45"><g
   fill="#000000"
   fill-opacity="1"
   id="g44"
   transform="matrix(0.352778,0,0,0.352778,-0.945621,-0.706129)">&#10;    <g
   id="g43"
   transform="translate(1.993,16.111)">&#10;      <path
   d="M 12.140625,-11.8125 12.625,-12.296875 c 0.90625,-0.921875 1.671875,-1.15625 2.390625,-1.21875 0.234375,-0.01563 0.421875,-0.03125 0.421875,-0.390625 0,-0.203125 -0.21875,-0.203125 -0.25,-0.203125 -0.25,0 -0.515625,0.04687 -0.765625,0.04687 h -0.84375 c -0.609375,0 -1.25,-0.04687 -1.828125,-0.04687 -0.140625,0 -0.375,0 -0.375,0.390625 0,0.1875 0.21875,0.203125 0.28125,0.203125 0.609375,0.04687 0.609375,0.359375 0.609375,0.484375 0,0.21875 -0.15625,0.53125 -0.578125,1.015625 L 6.78125,-6.375 4.4375,-12.65625 c -0.125,-0.296875 -0.125,-0.34375 -0.125,-0.375 0,-0.4375 0.859375,-0.484375 1.09375,-0.484375 0.25,0 0.484375,0 0.484375,-0.359375 0,-0.234375 -0.1875,-0.234375 -0.3125,-0.234375 -0.359375,0 -0.765625,0.04687 -1.109375,0.04687 H 2.171875 c -0.375,0 -0.765625,-0.04687 -1.125,-0.04687 -0.140625,0 -0.359375,0 -0.359375,0.390625 0,0.203125 0.1875,0.203125 0.484375,0.203125 1.015625,0 1.203125,0.1875 1.390625,0.671875 l 2.5625,6.875 c 0.015625,0.0625 0.078125,0.28125 0.078125,0.34375 0,0.0625 -1.015625,4.140625 -1.078125,4.34375 -0.15625,0.5625 -0.359375,0.65625 -1.6875,0.6875 -0.34375,0 -0.515625,0 -0.515625,0.390625 C 1.921875,0 2.140625,0 2.203125,0 c 0.375,0 0.8125,-0.046875 1.203125,-0.046875 h 2.4375 C 6.21875,-0.046875 6.65625,0 7.015625,0 c 0.15625,0 0.40625,0 0.40625,-0.375 0,-0.21875 -0.15625,-0.21875 -0.5,-0.21875 -1.28125,0 -1.28125,-0.15625 -1.28125,-0.375 0,-0.140625 0.15625,-0.8125 0.265625,-1.21875 l 0.75,-2.984375 c 0.125,-0.421875 0.125,-0.46875 0.3125,-0.671875 z m 0,0"
   id="path36" />&#10;    </g>&#10;  </g>&#10;</g><g
       inkscape:label=""
       transform="translate(86.372146,164.49344)"
       id="g48"><g
   fill="#000000"
   fill-opacity="1"
   id="g47"
   transform="matrix(0.352778,0,0,0.352778,-0.99523,-0.632927)">&#10;    <g
   id="g46"
   transform="translate(1.993,16.341)">&#10;      <path
   d="m 9.15625,-10.390625 c 0,-2.109375 -0.671875,-4.15625 -2.359375,-4.15625 -2.890625,0 -5.96875,6.0625 -5.96875,10.59375 0,0.953125 0.203125,4.15625 2.375,4.15625 2.8125,0 5.953125,-5.90625 5.953125,-10.59375 z m -6.265625,2.90625 c 0.3125,-1.21875 0.75,-2.953125 1.578125,-4.40625 0.671875,-1.25 1.390625,-2.234375 2.3125,-2.234375 0.671875,0 1.125,0.578125 1.125,2.5625 0,0.734375 -0.0625,1.765625 -0.65625,4.078125 z m 4.21875,0.625 c -0.515625,2.03125 -0.953125,3.328125 -1.703125,4.625 -0.59375,1.0625 -1.3125,2.03125 -2.1875,2.03125 -0.640625,0 -1.15625,-0.5 -1.15625,-2.546875 0,-1.34375 0.328125,-2.75 0.671875,-4.109375 z m 0,0"
   id="path45" />&#10;    </g>&#10;  </g>&#10;</g></g></svg>
