<?xml version="1.0" encoding="UTF-8" standalone="no"?>
<!-- Created with Inkscape (http://www.inkscape.org/) -->

<svg
   version="1.1"
   id="svg1"
   width="733.96936"
   height="563.48743"
   viewBox="0 0 733.96933 563.48742"
   sodipodi:docname="figura12.svg"
   inkscape:version="1.4 (e7c3feb100, 2024-10-09)"
   xmlns:inkscape="http://www.inkscape.org/namespaces/inkscape"
   xmlns:sodipodi="http://sodipodi.sourceforge.net/DTD/sodipodi-0.dtd"
   xmlns="http://www.w3.org/2000/svg"
   xmlns:svg="http://www.w3.org/2000/svg">
  <defs
     id="defs1" />
  <sodipodi:namedview
     id="namedview1"
     pagecolor="#ffffff"
     bordercolor="#000000"
     borderopacity="0.25"
     inkscape:showpageshadow="2"
     inkscape:pageopacity="0.0"
     inkscape:pagecheckerboard="0"
     inkscape:deskcolor="#d1d1d1"
     inkscape:zoom="0.98871723"
     inkscape:cx="428.83849"
     inkscape:cy="260.43847"
     inkscape:window-width="1920"
     inkscape:window-height="1046"
     inkscape:window-x="1920"
     inkscape:window-y="18"
     inkscape:window-maximized="1"
     inkscape:current-layer="g1">
    <inkscape:page
       x="0"
       y="0"
       inkscape:label="1"
       id="page1"
       width="733.96936"
       height="563.48743"
       margin="0"
       bleed="0" />
  </sodipodi:namedview>
  <g
     id="g1"
     inkscape:groupmode="layer"
     inkscape:label="1"
     transform="translate(-188.77496,-4.597445)">
    <path
       id="path1"
       d="M -10,-15 V 15"
       style="fill:none;stroke:#000080;stroke-width:3;stroke-linecap:square;stroke-linejoin:bevel;stroke-miterlimit:10;stroke-dasharray:none;stroke-opacity:1"
       transform="matrix(1.8534579,0,0,1.8534579,659.55327,302.11364)" />
    <path
       id="path2"
       d="m -30,0 h 20"
       style="fill:none;stroke:#000080;stroke-width:2;stroke-linecap:square;stroke-linejoin:bevel;stroke-miterlimit:10;stroke-dasharray:none;stroke-opacity:1"
       transform="matrix(1.8534579,0,0,1.8534579,659.55327,302.11364)" />
    <path
       id="path3"
       d="M -10,-5 0,-15"
       style="fill:none;stroke:#000080;stroke-width:2;stroke-linecap:square;stroke-linejoin:bevel;stroke-miterlimit:10;stroke-dasharray:none;stroke-opacity:1"
       transform="matrix(1.8534579,0,0,1.8534579,659.55327,302.11364)" />
    <path
       id="path4"
       d="M 0,-15 V -30"
       style="fill:none;stroke:#000080;stroke-width:2;stroke-linecap:square;stroke-linejoin:bevel;stroke-miterlimit:10;stroke-dasharray:none;stroke-opacity:1"
       transform="matrix(1.8534579,0,0,1.8534579,659.55327,302.11364)" />
    <path
       id="path5"
       d="M -10,5 0,15"
       style="fill:none;stroke:#000080;stroke-width:2;stroke-linecap:square;stroke-linejoin:bevel;stroke-miterlimit:10;stroke-dasharray:none;stroke-opacity:1"
       transform="matrix(1.8534579,0,0,1.8534579,659.55327,302.11364)" />
    <path
       id="path6"
       d="M 0,15 V 30"
       style="fill:none;stroke:#000080;stroke-width:2;stroke-linecap:square;stroke-linejoin:bevel;stroke-miterlimit:10;stroke-dasharray:none;stroke-opacity:1"
       transform="matrix(1.8534579,0,0,1.8534579,659.55327,302.11364)" />
    <path
       id="path7"
       d="M -6,15 H 0"
       style="fill:none;stroke:#000080;stroke-width:2;stroke-linecap:square;stroke-linejoin:bevel;stroke-miterlimit:10;stroke-dasharray:none;stroke-opacity:1"
       transform="matrix(1.8534579,0,0,1.8534579,659.55327,302.11364)" />
    <path
       id="path8"
       d="m 0,9 v 6"
       style="fill:none;stroke:#000080;stroke-width:2;stroke-linecap:square;stroke-linejoin:bevel;stroke-miterlimit:10;stroke-dasharray:none;stroke-opacity:1"
       transform="matrix(1.8534579,0,0,1.8534579,659.55327,302.11364)" />
    <text
       id="text8"
       xml:space="preserve"
       transform="matrix(1.8534579,0,0,1.8534579,674.38093,283.31842)"><tspan
         id="tspan8"
         style="font-variant:normal;font-weight:normal;font-size:12px;font-family:'Liberation Sans';writing-mode:lr-tb;fill:#000000;fill-opacity:1;fill-rule:nonzero;stroke:none"
         x="0"
         dx="0 0 0 -0.0077499999"
         y="0">T2N2222A</tspan></text>
    <text
       id="text9"
       xml:space="preserve"
       transform="matrix(1.8534579,0,0,1.8534579,674.38093,307.41338)"><tspan
         id="tspan9"
         style="font-variant:normal;font-weight:normal;font-size:12px;font-family:'Liberation Sans';writing-mode:lr-tb;fill:#000000;fill-opacity:1;fill-rule:nonzero;stroke:none"
         x="0"
         dx="0 -0.89462501 0 -0.0078750001 -0.0080000004"
         y="0">Vaf=302</tspan></text>
    <text
       id="text10"
       xml:space="preserve"
       transform="matrix(1.8534579,0,0,1.8534579,674.38093,331.50833)"><tspan
         id="tspan10"
         style="font-variant:normal;font-weight:normal;font-size:12px;font-family:'Liberation Sans';writing-mode:lr-tb;fill:#000000;fill-opacity:1;fill-rule:nonzero;stroke:none"
         x="0"
         dx="0 0 -0.0077499999 0 -0.0080000004 0 -0.0078750001"
         y="0">Vje=0.675</tspan></text>
    <path
       id="path10"
       d="M -13,-4 H 13"
       style="fill:none;stroke:#000080;stroke-width:2;stroke-linecap:square;stroke-linejoin:bevel;stroke-miterlimit:10;stroke-dasharray:none;stroke-opacity:1"
       transform="matrix(1.8534579,0,0,1.8534579,214.72336,302.11364)" />
    <path
       id="path11"
       d="M -6,4 H 6"
       style="fill:none;stroke:#000080;stroke-width:4;stroke-linecap:square;stroke-linejoin:bevel;stroke-miterlimit:10;stroke-dasharray:none;stroke-opacity:1"
       transform="matrix(1.8534579,0,0,1.8534579,214.72336,302.11364)" />
    <path
       id="path12"
       d="M 0,-30 V -4"
       style="fill:none;stroke:#000080;stroke-width:2;stroke-linecap:square;stroke-linejoin:bevel;stroke-miterlimit:10;stroke-dasharray:none;stroke-opacity:1"
       transform="matrix(1.8534579,0,0,1.8534579,214.72336,302.11364)" />
    <path
       id="path13"
       d="M 0,4 V 30"
       style="fill:none;stroke:#000080;stroke-width:2;stroke-linecap:square;stroke-linejoin:bevel;stroke-miterlimit:10;stroke-dasharray:none;stroke-opacity:1"
       transform="matrix(1.8534579,0,0,1.8534579,214.72336,302.11364)" />
    <path
       id="path14"
       d="m 5,-11 h 6"
       style="fill:none;stroke:#ff0000;stroke-width:1;stroke-linecap:square;stroke-linejoin:bevel;stroke-miterlimit:10;stroke-dasharray:none;stroke-opacity:1"
       transform="matrix(1.8534579,0,0,1.8534579,214.72336,302.11364)" />
    <path
       id="path15"
       d="m 8,-14 v 6"
       style="fill:none;stroke:#ff0000;stroke-width:1;stroke-linecap:square;stroke-linejoin:bevel;stroke-miterlimit:10;stroke-dasharray:none;stroke-opacity:1"
       transform="matrix(1.8534579,0,0,1.8534579,214.72336,302.11364)" />
    <path
       id="path16"
       d="m 5,11 h 6"
       style="fill:none;stroke:#000000;stroke-width:1;stroke-linecap:square;stroke-linejoin:bevel;stroke-miterlimit:10;stroke-dasharray:none;stroke-opacity:1"
       transform="matrix(1.8534579,0,0,1.8534579,214.72336,302.11364)" />
    <text
       id="text16"
       xml:space="preserve"
       x="254.87978"
       y="296.79581"
       style="font-size:22.2415px;stroke-width:1.85346"><tspan
         id="tspan16"
         style="font-variant:normal;font-weight:normal;font-size:22.2415px;font-family:'Liberation Sans';writing-mode:lr-tb;fill:#000000;fill-opacity:1;fill-rule:nonzero;stroke:none;stroke-width:1.85346"
         x="254.87978"
         y="296.79581">V1</tspan></text>
    <text
       id="text17"
       xml:space="preserve"
       x="254.87978"
       y="320.89075"
       style="font-size:22.2415px;stroke-width:1.85346"><tspan
         id="tspan17"
         style="font-variant:normal;font-weight:normal;font-size:22.2415px;font-family:'Liberation Sans';writing-mode:lr-tb;fill:#000000;fill-opacity:1;fill-rule:nonzero;stroke:none;stroke-width:1.85346"
         x="254.87978"
         dx="0 -0.014364298 -0.014827664 0 -0.014595981"
         y="320.89075">U=9	V</tspan></text>
    <path
       id="path17"
       d="M 31,-20 V 20"
       style="fill:none;stroke:#000080;stroke-width:2;stroke-linecap:square;stroke-linejoin:bevel;stroke-miterlimit:10;stroke-dasharray:none;stroke-opacity:1"
       transform="matrix(1.8534579,0,0,1.8534579,863.43364,468.92486)" />
    <path
       id="path18"
       d="M -9,-20 V 20"
       style="fill:none;stroke:#000080;stroke-width:2;stroke-linecap:square;stroke-linejoin:bevel;stroke-miterlimit:10;stroke-dasharray:none;stroke-opacity:1"
       transform="matrix(1.8534579,0,0,1.8534579,863.43364,468.92486)" />
    <path
       id="path19"
       d="M 31,-20 H -9"
       style="fill:none;stroke:#000080;stroke-width:2;stroke-linecap:square;stroke-linejoin:bevel;stroke-miterlimit:10;stroke-dasharray:none;stroke-opacity:1"
       transform="matrix(1.8534579,0,0,1.8534579,863.43364,468.92486)" />
    <path
       id="path20"
       d="M 31,20 H -9"
       style="fill:none;stroke:#000080;stroke-width:2;stroke-linecap:square;stroke-linejoin:bevel;stroke-miterlimit:10;stroke-dasharray:none;stroke-opacity:1"
       transform="matrix(1.8534579,0,0,1.8534579,863.43364,468.92486)" />
    <path
       id="path21"
       d="M 27,-16 V 16"
       style="fill:none;stroke:#000080;stroke-width:2;stroke-linecap:square;stroke-linejoin:bevel;stroke-miterlimit:10;stroke-dasharray:none;stroke-opacity:1"
       transform="matrix(1.8534579,0,0,1.8534579,863.43364,468.92486)" />
    <path
       id="path22"
       d="M 9,-16 V 16"
       style="fill:none;stroke:#000080;stroke-width:2;stroke-linecap:square;stroke-linejoin:bevel;stroke-miterlimit:10;stroke-dasharray:none;stroke-opacity:1"
       transform="matrix(1.8534579,0,0,1.8534579,863.43364,468.92486)" />
    <path
       id="path23"
       d="M 27,-16 H 9"
       style="fill:none;stroke:#000080;stroke-width:2;stroke-linecap:square;stroke-linejoin:bevel;stroke-miterlimit:10;stroke-dasharray:none;stroke-opacity:1"
       transform="matrix(1.8534579,0,0,1.8534579,863.43364,468.92486)" />
    <path
       id="path24"
       d="M 27,16 H 9"
       style="fill:none;stroke:#000080;stroke-width:2;stroke-linecap:square;stroke-linejoin:bevel;stroke-miterlimit:10;stroke-dasharray:none;stroke-opacity:1"
       transform="matrix(1.8534579,0,0,1.8534579,863.43364,468.92486)" />
    <path
       id="path25"
       d="M 24,-11 9,-2"
       style="fill:none;stroke:#000080;stroke-width:2;stroke-linecap:square;stroke-linejoin:bevel;stroke-miterlimit:10;stroke-dasharray:none;stroke-opacity:1"
       transform="matrix(1.8534579,0,0,1.8534579,863.43364,468.92486)" />
    <path
       id="path26"
       d="M 0,-10 H -6"
       style="fill:none;stroke:#ff0000;stroke-width:2;stroke-linecap:square;stroke-linejoin:bevel;stroke-miterlimit:10;stroke-dasharray:none;stroke-opacity:1"
       transform="matrix(1.8534579,0,0,1.8534579,863.43364,468.92486)" />
    <path
       id="path27"
       d="m -3,-13 v 6"
       style="fill:none;stroke:#ff0000;stroke-width:2;stroke-linecap:square;stroke-linejoin:bevel;stroke-miterlimit:10;stroke-dasharray:none;stroke-opacity:1"
       transform="matrix(1.8534579,0,0,1.8534579,863.43364,468.92486)" />
    <path
       id="path28"
       d="m -3,7 v 6"
       style="fill:none;stroke:#000000;stroke-width:2;stroke-linecap:square;stroke-linejoin:bevel;stroke-miterlimit:10;stroke-dasharray:none;stroke-opacity:1"
       transform="matrix(1.8534579,0,0,1.8534579,863.43364,468.92486)" />
    <path
       id="path29"
       d="M -9,-10 H -20"
       style="fill:none;stroke:#000080;stroke-width:2;stroke-linecap:square;stroke-linejoin:bevel;stroke-miterlimit:10;stroke-dasharray:none;stroke-opacity:1"
       transform="matrix(1.8534579,0,0,1.8534579,863.43364,468.92486)" />
    <path
       id="path30"
       d="M -9,10 H -20"
       style="fill:none;stroke:#000080;stroke-width:2;stroke-linecap:square;stroke-linejoin:bevel;stroke-miterlimit:10;stroke-dasharray:none;stroke-opacity:1"
       transform="matrix(1.8534579,0,0,1.8534579,863.43364,468.92486)" />
    <path
       id="path31"
       d="M 18.438212,12.034649 C 21.285254,8.6452326 23,4.2728665 23,-0.5 23,-5.2729117 21.285222,-9.6453154 18.438131,-13.034745"
       style="fill:none;stroke:#000080;stroke-width:2;stroke-linecap:square;stroke-linejoin:bevel;stroke-miterlimit:10;stroke-dasharray:none;stroke-opacity:1"
       transform="matrix(1.8534579,0,0,1.8534579,863.43364,468.92486)" />
    <text
       id="text31"
       xml:space="preserve"
       x="858.80945"
       y="540.9491"
       style="font-size:22.2415px;stroke-width:1.85346"><tspan
         id="tspan31"
         style="font-variant:normal;font-weight:normal;font-size:22.2415px;font-family:'Liberation Sans';writing-mode:lr-tb;fill:#000000;fill-opacity:1;fill-rule:nonzero;stroke:none;stroke-width:1.85346"
         x="858.80945"
         dx="0 -1.2237456"
         y="540.9491">Ve</tspan></text>
    <path
       id="path32"
       d="M 31,-20 V 20"
       style="fill:none;stroke:#000080;stroke-width:2;stroke-linecap:square;stroke-linejoin:bevel;stroke-miterlimit:10;stroke-dasharray:none;stroke-opacity:1"
       transform="matrix(1.8534579,0,0,1.8534579,863.43364,302.11364)" />
    <path
       id="path33"
       d="M -9,-20 V 20"
       style="fill:none;stroke:#000080;stroke-width:2;stroke-linecap:square;stroke-linejoin:bevel;stroke-miterlimit:10;stroke-dasharray:none;stroke-opacity:1"
       transform="matrix(1.8534579,0,0,1.8534579,863.43364,302.11364)" />
    <path
       id="path34"
       d="M 31,-20 H -9"
       style="fill:none;stroke:#000080;stroke-width:2;stroke-linecap:square;stroke-linejoin:bevel;stroke-miterlimit:10;stroke-dasharray:none;stroke-opacity:1"
       transform="matrix(1.8534579,0,0,1.8534579,863.43364,302.11364)" />
    <path
       id="path35"
       d="M 31,20 H -9"
       style="fill:none;stroke:#000080;stroke-width:2;stroke-linecap:square;stroke-linejoin:bevel;stroke-miterlimit:10;stroke-dasharray:none;stroke-opacity:1"
       transform="matrix(1.8534579,0,0,1.8534579,863.43364,302.11364)" />
    <path
       id="path36"
       d="M 27,-16 V 16"
       style="fill:none;stroke:#000080;stroke-width:2;stroke-linecap:square;stroke-linejoin:bevel;stroke-miterlimit:10;stroke-dasharray:none;stroke-opacity:1"
       transform="matrix(1.8534579,0,0,1.8534579,863.43364,302.11364)" />
    <path
       id="path37"
       d="M 9,-16 V 16"
       style="fill:none;stroke:#000080;stroke-width:2;stroke-linecap:square;stroke-linejoin:bevel;stroke-miterlimit:10;stroke-dasharray:none;stroke-opacity:1"
       transform="matrix(1.8534579,0,0,1.8534579,863.43364,302.11364)" />
    <path
       id="path38"
       d="M 27,-16 H 9"
       style="fill:none;stroke:#000080;stroke-width:2;stroke-linecap:square;stroke-linejoin:bevel;stroke-miterlimit:10;stroke-dasharray:none;stroke-opacity:1"
       transform="matrix(1.8534579,0,0,1.8534579,863.43364,302.11364)" />
    <path
       id="path39"
       d="M 27,16 H 9"
       style="fill:none;stroke:#000080;stroke-width:2;stroke-linecap:square;stroke-linejoin:bevel;stroke-miterlimit:10;stroke-dasharray:none;stroke-opacity:1"
       transform="matrix(1.8534579,0,0,1.8534579,863.43364,302.11364)" />
    <path
       id="path40"
       d="M 24,-11 9,-2"
       style="fill:none;stroke:#000080;stroke-width:2;stroke-linecap:square;stroke-linejoin:bevel;stroke-miterlimit:10;stroke-dasharray:none;stroke-opacity:1"
       transform="matrix(1.8534579,0,0,1.8534579,863.43364,302.11364)" />
    <path
       id="path41"
       d="M 0,-10 H -6"
       style="fill:none;stroke:#ff0000;stroke-width:2;stroke-linecap:square;stroke-linejoin:bevel;stroke-miterlimit:10;stroke-dasharray:none;stroke-opacity:1"
       transform="matrix(1.8534579,0,0,1.8534579,863.43364,302.11364)" />
    <path
       id="path42"
       d="m -3,-13 v 6"
       style="fill:none;stroke:#ff0000;stroke-width:2;stroke-linecap:square;stroke-linejoin:bevel;stroke-miterlimit:10;stroke-dasharray:none;stroke-opacity:1"
       transform="matrix(1.8534579,0,0,1.8534579,863.43364,302.11364)" />
    <path
       id="path43"
       d="m -3,7 v 6"
       style="fill:none;stroke:#000000;stroke-width:2;stroke-linecap:square;stroke-linejoin:bevel;stroke-miterlimit:10;stroke-dasharray:none;stroke-opacity:1"
       transform="matrix(1.8534579,0,0,1.8534579,863.43364,302.11364)" />
    <path
       id="path44"
       d="M -9,-10 H -20"
       style="fill:none;stroke:#000080;stroke-width:2;stroke-linecap:square;stroke-linejoin:bevel;stroke-miterlimit:10;stroke-dasharray:none;stroke-opacity:1"
       transform="matrix(1.8534579,0,0,1.8534579,863.43364,302.11364)" />
    <path
       id="path45"
       d="M -9,10 H -20"
       style="fill:none;stroke:#000080;stroke-width:2;stroke-linecap:square;stroke-linejoin:bevel;stroke-miterlimit:10;stroke-dasharray:none;stroke-opacity:1"
       transform="matrix(1.8534579,0,0,1.8534579,863.43364,302.11364)" />
    <path
       id="path46"
       d="M 18.438212,12.034649 C 21.285254,8.6452326 23,4.2728665 23,-0.5 23,-5.2729117 21.285222,-9.6453154 18.438131,-13.034745"
       style="fill:none;stroke:#000080;stroke-width:2;stroke-linecap:square;stroke-linejoin:bevel;stroke-miterlimit:10;stroke-dasharray:none;stroke-opacity:1"
       transform="matrix(1.8534579,0,0,1.8534579,863.43364,302.11364)" />
    <text
       id="text46"
       xml:space="preserve"
       x="858.80945"
       y="374.13785"
       style="font-size:22.2415px;stroke-width:1.85346"><tspan
         id="tspan46"
         style="font-variant:normal;font-weight:normal;font-size:22.2415px;font-family:'Liberation Sans';writing-mode:lr-tb;fill:#000000;fill-opacity:1;fill-rule:nonzero;stroke:none;stroke-width:1.85346"
         x="858.80945"
         y="374.13785">Vce</tspan></text>
    <path
       id="path47"
       d="m 0,-30 v 10"
       style="fill:none;stroke:#000080;stroke-width:2;stroke-linecap:square;stroke-linejoin:bevel;stroke-miterlimit:10;stroke-dasharray:none;stroke-opacity:1"
       transform="matrix(1.8534579,0,0,1.8534579,659.55327,190.90617)" />
    <path
       id="path48"
       d="M 0,30 V 20"
       style="fill:none;stroke:#000080;stroke-width:2;stroke-linecap:square;stroke-linejoin:bevel;stroke-miterlimit:10;stroke-dasharray:none;stroke-opacity:1"
       transform="matrix(1.8534579,0,0,1.8534579,659.55327,190.90617)" />
    <path
       id="path49"
       d="M 0,-20 V 20"
       style="fill:none;stroke:#000080;stroke-width:2;stroke-linecap:square;stroke-linejoin:bevel;stroke-miterlimit:10;stroke-dasharray:none;stroke-opacity:1"
       transform="matrix(1.8534579,0,0,1.8534579,659.55327,190.90617)" />
    <path
       id="path50"
       d="M 4,-4 0,4"
       style="fill:none;stroke:#000080;stroke-width:2;stroke-linecap:butt;stroke-linejoin:bevel;stroke-miterlimit:10;stroke-dasharray:none;stroke-opacity:1"
       transform="matrix(1.8534579,0,0,1.8534579,659.55327,190.90617)" />
    <path
       id="path51"
       d="M 0,4 -4,-4"
       style="fill:none;stroke:#000080;stroke-width:2;stroke-linecap:butt;stroke-linejoin:bevel;stroke-miterlimit:10;stroke-dasharray:none;stroke-opacity:1"
       transform="matrix(1.8534579,0,0,1.8534579,659.55327,190.90617)" />
    <path
       id="path52"
       d="M 31,-20 V 20"
       style="fill:none;stroke:#000080;stroke-width:2;stroke-linecap:square;stroke-linejoin:bevel;stroke-miterlimit:10;stroke-dasharray:none;stroke-opacity:1"
       transform="matrix(1.8534579,0,0,1.8534579,659.55327,190.90617)" />
    <path
       id="path53"
       d="M -9,-20 V 20"
       style="fill:none;stroke:#000080;stroke-width:2;stroke-linecap:square;stroke-linejoin:bevel;stroke-miterlimit:10;stroke-dasharray:none;stroke-opacity:1"
       transform="matrix(1.8534579,0,0,1.8534579,659.55327,190.90617)" />
    <path
       id="path54"
       d="M 31,-20 H -9"
       style="fill:none;stroke:#000080;stroke-width:2;stroke-linecap:square;stroke-linejoin:bevel;stroke-miterlimit:10;stroke-dasharray:none;stroke-opacity:1"
       transform="matrix(1.8534579,0,0,1.8534579,659.55327,190.90617)" />
    <path
       id="path55"
       d="M 31,20 H -9"
       style="fill:none;stroke:#000080;stroke-width:2;stroke-linecap:square;stroke-linejoin:bevel;stroke-miterlimit:10;stroke-dasharray:none;stroke-opacity:1"
       transform="matrix(1.8534579,0,0,1.8534579,659.55327,190.90617)" />
    <path
       id="path56"
       d="M 27,-16 V 16"
       style="fill:none;stroke:#000080;stroke-width:2;stroke-linecap:square;stroke-linejoin:bevel;stroke-miterlimit:10;stroke-dasharray:none;stroke-opacity:1"
       transform="matrix(1.8534579,0,0,1.8534579,659.55327,190.90617)" />
    <path
       id="path57"
       d="M 9,-16 V 16"
       style="fill:none;stroke:#000080;stroke-width:2;stroke-linecap:square;stroke-linejoin:bevel;stroke-miterlimit:10;stroke-dasharray:none;stroke-opacity:1"
       transform="matrix(1.8534579,0,0,1.8534579,659.55327,190.90617)" />
    <path
       id="path58"
       d="M 27,-16 H 9"
       style="fill:none;stroke:#000080;stroke-width:2;stroke-linecap:square;stroke-linejoin:bevel;stroke-miterlimit:10;stroke-dasharray:none;stroke-opacity:1"
       transform="matrix(1.8534579,0,0,1.8534579,659.55327,190.90617)" />
    <path
       id="path59"
       d="M 27,16 H 9"
       style="fill:none;stroke:#000080;stroke-width:2;stroke-linecap:square;stroke-linejoin:bevel;stroke-miterlimit:10;stroke-dasharray:none;stroke-opacity:1"
       transform="matrix(1.8534579,0,0,1.8534579,659.55327,190.90617)" />
    <path
       id="path60"
       d="M 24,-11 9,-2"
       style="fill:none;stroke:#000080;stroke-width:2;stroke-linecap:square;stroke-linejoin:bevel;stroke-miterlimit:10;stroke-dasharray:none;stroke-opacity:1"
       transform="matrix(1.8534579,0,0,1.8534579,659.55327,190.90617)" />
    <path
       id="path61"
       d="M 18.438212,12.034649 C 21.285254,8.6452326 23,4.2728665 23,-0.5 23,-5.2729117 21.285222,-9.6453154 18.438131,-13.034745"
       style="fill:none;stroke:#000080;stroke-width:2;stroke-linecap:square;stroke-linejoin:bevel;stroke-miterlimit:10;stroke-dasharray:none;stroke-opacity:1"
       transform="matrix(1.8534579,0,0,1.8534579,659.55327,190.90617)" />
    <text
       id="text61"
       xml:space="preserve"
       x="603.75043"
       y="198.93169"
       style="font-size:22.2415px;stroke-width:1.85346"><tspan
         id="tspan61"
         style="font-variant:normal;font-weight:normal;font-size:22.2415px;font-family:'Liberation Sans';writing-mode:lr-tb;fill:#000000;fill-opacity:1;fill-rule:nonzero;stroke:none;stroke-width:1.85346"
         x="603.75043"
         dx="0 -0.014595981"
         y="198.93169">Ic</tspan></text>
    <path
       id="path62"
       d="M 0,30 V 18"
       style="fill:none;stroke:#000080;stroke-width:2;stroke-linecap:square;stroke-linejoin:bevel;stroke-miterlimit:10;stroke-dasharray:none;stroke-opacity:1"
       transform="matrix(1.8534579,0,0,1.8534579,437.13832,190.90617)" />
    <path
       id="path63"
       d="M 0,18 7,15"
       style="fill:none;stroke:#000080;stroke-width:2;stroke-linecap:round;stroke-linejoin:bevel;stroke-miterlimit:10;stroke-dasharray:none;stroke-opacity:1"
       transform="matrix(1.8534579,0,0,1.8534579,437.13832,190.90617)" />
    <path
       id="path64"
       d="M 7,15 -7,9"
       style="fill:none;stroke:#000080;stroke-width:2;stroke-linecap:round;stroke-linejoin:bevel;stroke-miterlimit:10;stroke-dasharray:none;stroke-opacity:1"
       transform="matrix(1.8534579,0,0,1.8534579,437.13832,190.90617)" />
    <path
       id="path65"
       d="M -7,9 7,3"
       style="fill:none;stroke:#000080;stroke-width:2;stroke-linecap:round;stroke-linejoin:bevel;stroke-miterlimit:10;stroke-dasharray:none;stroke-opacity:1"
       transform="matrix(1.8534579,0,0,1.8534579,437.13832,190.90617)" />
    <path
       id="path66"
       d="M 7,3 -7,-3"
       style="fill:none;stroke:#000080;stroke-width:2;stroke-linecap:round;stroke-linejoin:bevel;stroke-miterlimit:10;stroke-dasharray:none;stroke-opacity:1"
       transform="matrix(1.8534579,0,0,1.8534579,437.13832,190.90617)" />
    <path
       id="path67"
       d="M -7,-3 7,-9"
       style="fill:none;stroke:#000080;stroke-width:2;stroke-linecap:round;stroke-linejoin:bevel;stroke-miterlimit:10;stroke-dasharray:none;stroke-opacity:1"
       transform="matrix(1.8534579,0,0,1.8534579,437.13832,190.90617)" />
    <path
       id="path68"
       d="M 7,-9 -7,-15"
       style="fill:none;stroke:#000080;stroke-width:2;stroke-linecap:round;stroke-linejoin:bevel;stroke-miterlimit:10;stroke-dasharray:none;stroke-opacity:1"
       transform="matrix(1.8534579,0,0,1.8534579,437.13832,190.90617)" />
    <path
       id="path69"
       d="m -7,-15 7,-3"
       style="fill:none;stroke:#000080;stroke-width:2;stroke-linecap:round;stroke-linejoin:bevel;stroke-miterlimit:10;stroke-dasharray:none;stroke-opacity:1"
       transform="matrix(1.8534579,0,0,1.8534579,437.13832,190.90617)" />
    <path
       id="path70"
       d="M 0,-18 V -30"
       style="fill:none;stroke:#000080;stroke-width:2;stroke-linecap:square;stroke-linejoin:bevel;stroke-miterlimit:10;stroke-dasharray:none;stroke-opacity:1"
       transform="matrix(1.8534579,0,0,1.8534579,437.13832,190.90617)" />
    <text
       id="text70"
       xml:space="preserve"
       x="357.61407"
       y="198.55711"
       style="font-size:22.2415px;stroke-width:1.85346"><tspan
         id="tspan70"
         style="font-variant:normal;font-weight:normal;font-size:22.2415px;font-family:'Liberation Sans';writing-mode:lr-tb;fill:#000000;fill-opacity:1;fill-rule:nonzero;stroke:none;stroke-width:1.85346"
         x="357.61407"
         dx="0 -0.014364298"
         y="198.55711">R1</tspan></text>
    <path
       id="path71"
       d="M 0,30 V 18"
       style="fill:none;stroke:#000080;stroke-width:2;stroke-linecap:square;stroke-linejoin:bevel;stroke-miterlimit:10;stroke-dasharray:none;stroke-opacity:1"
       transform="matrix(1.8534579,0,0,1.8534579,437.13832,413.32112)" />
    <path
       id="path72"
       d="M 0,18 7,15"
       style="fill:none;stroke:#000080;stroke-width:2;stroke-linecap:round;stroke-linejoin:bevel;stroke-miterlimit:10;stroke-dasharray:none;stroke-opacity:1"
       transform="matrix(1.8534579,0,0,1.8534579,437.13832,413.32112)" />
    <path
       id="path73"
       d="M 7,15 -7,9"
       style="fill:none;stroke:#000080;stroke-width:2;stroke-linecap:round;stroke-linejoin:bevel;stroke-miterlimit:10;stroke-dasharray:none;stroke-opacity:1"
       transform="matrix(1.8534579,0,0,1.8534579,437.13832,413.32112)" />
    <path
       id="path74"
       d="M -7,9 7,3"
       style="fill:none;stroke:#000080;stroke-width:2;stroke-linecap:round;stroke-linejoin:bevel;stroke-miterlimit:10;stroke-dasharray:none;stroke-opacity:1"
       transform="matrix(1.8534579,0,0,1.8534579,437.13832,413.32112)" />
    <path
       id="path75"
       d="M 7,3 -7,-3"
       style="fill:none;stroke:#000080;stroke-width:2;stroke-linecap:round;stroke-linejoin:bevel;stroke-miterlimit:10;stroke-dasharray:none;stroke-opacity:1"
       transform="matrix(1.8534579,0,0,1.8534579,437.13832,413.32112)" />
    <path
       id="path76"
       d="M -7,-3 7,-9"
       style="fill:none;stroke:#000080;stroke-width:2;stroke-linecap:round;stroke-linejoin:bevel;stroke-miterlimit:10;stroke-dasharray:none;stroke-opacity:1"
       transform="matrix(1.8534579,0,0,1.8534579,437.13832,413.32112)" />
    <path
       id="path77"
       d="M 7,-9 -7,-15"
       style="fill:none;stroke:#000080;stroke-width:2;stroke-linecap:round;stroke-linejoin:bevel;stroke-miterlimit:10;stroke-dasharray:none;stroke-opacity:1"
       transform="matrix(1.8534579,0,0,1.8534579,437.13832,413.32112)" />
    <path
       id="path78"
       d="m -7,-15 7,-3"
       style="fill:none;stroke:#000080;stroke-width:2;stroke-linecap:round;stroke-linejoin:bevel;stroke-miterlimit:10;stroke-dasharray:none;stroke-opacity:1"
       transform="matrix(1.8534579,0,0,1.8534579,437.13832,413.32112)" />
    <path
       id="path79"
       d="M 0,-18 V -30"
       style="fill:none;stroke:#000080;stroke-width:2;stroke-linecap:square;stroke-linejoin:bevel;stroke-miterlimit:10;stroke-dasharray:none;stroke-opacity:1"
       transform="matrix(1.8534579,0,0,1.8534579,437.13832,413.32112)" />
    <text
       id="text79"
       xml:space="preserve"
       x="357.61407"
       y="417.73032"
       style="font-size:22.2415px;stroke-width:1.85346"><tspan
         id="tspan79"
         style="font-variant:normal;font-weight:normal;font-size:22.2415px;font-family:'Liberation Sans';writing-mode:lr-tb;fill:#000000;fill-opacity:1;fill-rule:nonzero;stroke:none;stroke-width:1.85346"
         x="357.61407"
         dx="0 -0.014364298"
         y="417.73032">R2</tspan></text>
    <path
       id="path80"
       d="m -30,0 h 12"
       style="fill:none;stroke:#000080;stroke-width:2;stroke-linecap:square;stroke-linejoin:bevel;stroke-miterlimit:10;stroke-dasharray:none;stroke-opacity:1"
       transform="matrix(1.8534579,0,0,1.8534579,548.34579,79.698692)" />
    <path
       id="path81"
       d="m -18,0 3,7"
       style="fill:none;stroke:#000080;stroke-width:2;stroke-linecap:round;stroke-linejoin:bevel;stroke-miterlimit:10;stroke-dasharray:none;stroke-opacity:1"
       transform="matrix(1.8534579,0,0,1.8534579,548.34579,79.698692)" />
    <path
       id="path82"
       d="M -15,7 -9,-7"
       style="fill:none;stroke:#000080;stroke-width:2;stroke-linecap:round;stroke-linejoin:bevel;stroke-miterlimit:10;stroke-dasharray:none;stroke-opacity:1"
       transform="matrix(1.8534579,0,0,1.8534579,548.34579,79.698692)" />
    <path
       id="path83"
       d="M -9,-7 -3,7"
       style="fill:none;stroke:#000080;stroke-width:2;stroke-linecap:round;stroke-linejoin:bevel;stroke-miterlimit:10;stroke-dasharray:none;stroke-opacity:1"
       transform="matrix(1.8534579,0,0,1.8534579,548.34579,79.698692)" />
    <path
       id="path84"
       d="M -3,7 3,-7"
       style="fill:none;stroke:#000080;stroke-width:2;stroke-linecap:round;stroke-linejoin:bevel;stroke-miterlimit:10;stroke-dasharray:none;stroke-opacity:1"
       transform="matrix(1.8534579,0,0,1.8534579,548.34579,79.698692)" />
    <path
       id="path85"
       d="M 3,-7 9,7"
       style="fill:none;stroke:#000080;stroke-width:2;stroke-linecap:round;stroke-linejoin:bevel;stroke-miterlimit:10;stroke-dasharray:none;stroke-opacity:1"
       transform="matrix(1.8534579,0,0,1.8534579,548.34579,79.698692)" />
    <path
       id="path86"
       d="M 9,7 15,-7"
       style="fill:none;stroke:#000080;stroke-width:2;stroke-linecap:round;stroke-linejoin:bevel;stroke-miterlimit:10;stroke-dasharray:none;stroke-opacity:1"
       transform="matrix(1.8534579,0,0,1.8534579,548.34579,79.698692)" />
    <path
       id="path87"
       d="m 15,-7 3,7"
       style="fill:none;stroke:#000080;stroke-width:2;stroke-linecap:round;stroke-linejoin:bevel;stroke-miterlimit:10;stroke-dasharray:none;stroke-opacity:1"
       transform="matrix(1.8534579,0,0,1.8534579,548.34579,79.698692)" />
    <path
       id="path88"
       d="M 18,0 H 30"
       style="fill:none;stroke:#000080;stroke-width:2;stroke-linecap:square;stroke-linejoin:bevel;stroke-miterlimit:10;stroke-dasharray:none;stroke-opacity:1"
       transform="matrix(1.8534579,0,0,1.8534579,548.34579,79.698692)" />
    <text
       id="text88"
       xml:space="preserve"
       x="528.09528"
       y="40.867496"
       style="font-size:22.2415px;stroke-width:1.85346"><tspan
         id="tspan88"
         style="font-variant:normal;font-weight:normal;font-size:22.2415px;font-family:'Liberation Sans';writing-mode:lr-tb;fill:#000000;fill-opacity:1;fill-rule:nonzero;stroke:none;stroke-width:1.85346"
         x="528.09528"
         dx="0 -0.014364298"
         y="40.867496">RC</tspan></text>
    <path
       id="path89"
       d="M 0,30 V 18"
       style="fill:none;stroke:#000080;stroke-width:2;stroke-linecap:square;stroke-linejoin:bevel;stroke-miterlimit:10;stroke-dasharray:none;stroke-opacity:1"
       transform="matrix(1.8534579,0,0,1.8534579,659.55327,468.92486)" />
    <path
       id="path90"
       d="M 0,18 7,15"
       style="fill:none;stroke:#000080;stroke-width:2;stroke-linecap:round;stroke-linejoin:bevel;stroke-miterlimit:10;stroke-dasharray:none;stroke-opacity:1"
       transform="matrix(1.8534579,0,0,1.8534579,659.55327,468.92486)" />
    <path
       id="path91"
       d="M 7,15 -7,9"
       style="fill:none;stroke:#000080;stroke-width:2;stroke-linecap:round;stroke-linejoin:bevel;stroke-miterlimit:10;stroke-dasharray:none;stroke-opacity:1"
       transform="matrix(1.8534579,0,0,1.8534579,659.55327,468.92486)" />
    <path
       id="path92"
       d="M -7,9 7,3"
       style="fill:none;stroke:#000080;stroke-width:2;stroke-linecap:round;stroke-linejoin:bevel;stroke-miterlimit:10;stroke-dasharray:none;stroke-opacity:1"
       transform="matrix(1.8534579,0,0,1.8534579,659.55327,468.92486)" />
    <path
       id="path93"
       d="M 7,3 -7,-3"
       style="fill:none;stroke:#000080;stroke-width:2;stroke-linecap:round;stroke-linejoin:bevel;stroke-miterlimit:10;stroke-dasharray:none;stroke-opacity:1"
       transform="matrix(1.8534579,0,0,1.8534579,659.55327,468.92486)" />
    <path
       id="path94"
       d="M -7,-3 7,-9"
       style="fill:none;stroke:#000080;stroke-width:2;stroke-linecap:round;stroke-linejoin:bevel;stroke-miterlimit:10;stroke-dasharray:none;stroke-opacity:1"
       transform="matrix(1.8534579,0,0,1.8534579,659.55327,468.92486)" />
    <path
       id="path95"
       d="M 7,-9 -7,-15"
       style="fill:none;stroke:#000080;stroke-width:2;stroke-linecap:round;stroke-linejoin:bevel;stroke-miterlimit:10;stroke-dasharray:none;stroke-opacity:1"
       transform="matrix(1.8534579,0,0,1.8534579,659.55327,468.92486)" />
    <path
       id="path96"
       d="m -7,-15 7,-3"
       style="fill:none;stroke:#000080;stroke-width:2;stroke-linecap:round;stroke-linejoin:bevel;stroke-miterlimit:10;stroke-dasharray:none;stroke-opacity:1"
       transform="matrix(1.8534579,0,0,1.8534579,659.55327,468.92486)" />
    <path
       id="path97"
       d="M 0,-18 V -30"
       style="fill:none;stroke:#000080;stroke-width:2;stroke-linecap:square;stroke-linejoin:bevel;stroke-miterlimit:10;stroke-dasharray:none;stroke-opacity:1"
       transform="matrix(1.8534579,0,0,1.8534579,659.55327,468.92486)" />
    <text
       id="text97"
       xml:space="preserve"
       x="591.7807"
       y="472.8689"
       style="font-size:22.2415px;stroke-width:1.85346"><tspan
         id="tspan97"
         style="font-variant:normal;font-weight:normal;font-size:22.2415px;font-family:'Liberation Sans';writing-mode:lr-tb;fill:#000000;fill-opacity:1;fill-rule:nonzero;stroke:none;stroke-width:1.85346"
         x="591.7807"
         dx="0 -0.014364298"
         y="472.8689">RE</tspan></text>
    <path
       id="path98"
       d="M 0,0 V 10"
       style="fill:none;stroke:#000080;stroke-width:2;stroke-linecap:square;stroke-linejoin:bevel;stroke-miterlimit:10;stroke-dasharray:none;stroke-opacity:1"
       transform="matrix(1.8534579,0,0,1.8534579,214.72336,524.5286)" />
    <path
       id="path99"
       d="M -11,10 H 11"
       style="fill:none;stroke:#000080;stroke-width:3;stroke-linecap:square;stroke-linejoin:bevel;stroke-miterlimit:10;stroke-dasharray:none;stroke-opacity:1"
       transform="matrix(1.8534579,0,0,1.8534579,214.72336,524.5286)" />
    <path
       id="path100"
       d="M -7,16 H 7"
       style="fill:none;stroke:#000080;stroke-width:3;stroke-linecap:square;stroke-linejoin:bevel;stroke-miterlimit:10;stroke-dasharray:none;stroke-opacity:1"
       transform="matrix(1.8534579,0,0,1.8534579,214.72336,524.5286)" />
    <path
       id="path101"
       d="M -3,22 H 3"
       style="fill:none;stroke:#000080;stroke-width:3;stroke-linecap:square;stroke-linejoin:bevel;stroke-miterlimit:10;stroke-dasharray:none;stroke-opacity:1"
       transform="matrix(1.8534579,0,0,1.8534579,214.72336,524.5286)" />
    <path
       id="path105"
       d="m 640,490 v 30"
       style="fill:none;stroke:#000080;stroke-width:2;stroke-linecap:square;stroke-linejoin:bevel;stroke-miterlimit:10;stroke-dasharray:none;stroke-opacity:1"
       transform="matrix(1.8534579,0,0,1.8534579,-526.65981,-550.47701)" />
    <path
       id="path106"
       d="m 520,430 v 30"
       style="fill:none;stroke:#000080;stroke-width:2;stroke-linecap:square;stroke-linejoin:bevel;stroke-miterlimit:10;stroke-dasharray:none;stroke-opacity:1"
       transform="matrix(1.8534579,0,0,1.8534579,-526.65981,-550.47701)" />
    <path
       id="path107"
       d="m 520,550 v 30"
       style="fill:none;stroke:#000080;stroke-width:2;stroke-linecap:square;stroke-linejoin:bevel;stroke-miterlimit:10;stroke-dasharray:none;stroke-opacity:1"
       transform="matrix(1.8534579,0,0,1.8534579,-526.65981,-550.47701)" />
    <path
       id="path108"
       d="m 520,340 h 30"
       style="fill:none;stroke:#000080;stroke-width:2;stroke-linecap:square;stroke-linejoin:bevel;stroke-miterlimit:10;stroke-dasharray:none;stroke-opacity:1"
       transform="matrix(1.8534579,0,0,1.8534579,-526.65981,-550.47701)" />
    <path
       id="path109"
       d="m 520,340 v 30"
       style="fill:none;stroke:#000080;stroke-width:2;stroke-linecap:square;stroke-linejoin:bevel;stroke-miterlimit:10;stroke-dasharray:none;stroke-opacity:1"
       transform="matrix(1.8534579,0,0,1.8534579,-526.65981,-550.47701)" />
    <path
       id="path110"
       d="m 520,460 v 30"
       style="fill:none;stroke:#000080;stroke-width:2;stroke-linecap:square;stroke-linejoin:bevel;stroke-miterlimit:10;stroke-dasharray:none;stroke-opacity:1"
       transform="matrix(1.8534579,0,0,1.8534579,-526.65981,-550.47701)" />
    <path
       id="path111"
       d="m 520,460 h 90"
       style="fill:none;stroke:#000080;stroke-width:2;stroke-linecap:square;stroke-linejoin:bevel;stroke-miterlimit:10;stroke-dasharray:none;stroke-opacity:1"
       transform="matrix(1.8534579,0,0,1.8534579,-526.65981,-550.47701)" />
    <path
       id="path112"
       d="m 640,340 v 30"
       style="fill:none;stroke:#000080;stroke-width:2;stroke-linecap:square;stroke-linejoin:bevel;stroke-miterlimit:10;stroke-dasharray:none;stroke-opacity:1"
       transform="matrix(1.8534579,0,0,1.8534579,-526.65981,-550.47701)" />
    <path
       id="path113"
       d="m 610,340 h 30"
       style="fill:none;stroke:#000080;stroke-width:2;stroke-linecap:square;stroke-linejoin:bevel;stroke-miterlimit:10;stroke-dasharray:none;stroke-opacity:1"
       transform="matrix(1.8534579,0,0,1.8534579,-526.65981,-550.47701)" />
    <path
       id="path114"
       d="M 400,340 H 520"
       style="fill:none;stroke:#000080;stroke-width:2;stroke-linecap:square;stroke-linejoin:bevel;stroke-miterlimit:10;stroke-dasharray:none;stroke-opacity:1"
       transform="matrix(1.8534579,0,0,1.8534579,-526.65981,-550.47701)" />
    <path
       id="path115"
       d="m 400,340 v 90"
       style="fill:none;stroke:#000080;stroke-width:2;stroke-linecap:square;stroke-linejoin:bevel;stroke-miterlimit:10;stroke-dasharray:none;stroke-opacity:1"
       transform="matrix(1.8534579,0,0,1.8534579,-526.65981,-550.47701)" />
    <path
       id="path116"
       d="m 400,490 v 90"
       style="fill:none;stroke:#000080;stroke-width:2;stroke-linecap:square;stroke-linejoin:bevel;stroke-miterlimit:10;stroke-dasharray:none;stroke-opacity:1"
       transform="matrix(1.8534579,0,0,1.8534579,-526.65981,-550.47701)" />
    <path
       id="path117"
       d="m 640,430 h 80"
       style="fill:none;stroke:#000080;stroke-width:2;stroke-linecap:square;stroke-linejoin:bevel;stroke-miterlimit:10;stroke-dasharray:none;stroke-opacity:1"
       transform="matrix(1.8534579,0,0,1.8534579,-526.65981,-550.47701)" />
    <path
       id="path118"
       d="m 720,430 v 20"
       style="fill:none;stroke:#000080;stroke-width:2;stroke-linecap:square;stroke-linejoin:bevel;stroke-miterlimit:10;stroke-dasharray:none;stroke-opacity:1"
       transform="matrix(1.8534579,0,0,1.8534579,-526.65981,-550.47701)" />
    <path
       id="path119"
       d="m 720,450 h 10"
       style="fill:none;stroke:#000080;stroke-width:2;stroke-linecap:square;stroke-linejoin:bevel;stroke-miterlimit:10;stroke-dasharray:none;stroke-opacity:1"
       transform="matrix(1.8534579,0,0,1.8534579,-526.65981,-550.47701)" />
    <path
       id="path120"
       d="m 640,490 h 80"
       style="fill:none;stroke:#000080;stroke-width:2;stroke-linecap:square;stroke-linejoin:bevel;stroke-miterlimit:10;stroke-dasharray:none;stroke-opacity:1"
       transform="matrix(1.8534579,0,0,1.8534579,-526.65981,-550.47701)" />
    <path
       id="path121"
       d="m 720,470 v 20"
       style="fill:none;stroke:#000080;stroke-width:2;stroke-linecap:square;stroke-linejoin:bevel;stroke-miterlimit:10;stroke-dasharray:none;stroke-opacity:1"
       transform="matrix(1.8534579,0,0,1.8534579,-526.65981,-550.47701)" />
    <path
       id="path122"
       d="m 720,470 h 10"
       style="fill:none;stroke:#000080;stroke-width:2;stroke-linecap:square;stroke-linejoin:bevel;stroke-miterlimit:10;stroke-dasharray:none;stroke-opacity:1"
       transform="matrix(1.8534579,0,0,1.8534579,-526.65981,-550.47701)" />
    <path
       id="path123"
       d="m 640,580 h 80"
       style="fill:none;stroke:#000080;stroke-width:2;stroke-linecap:square;stroke-linejoin:bevel;stroke-miterlimit:10;stroke-dasharray:none;stroke-opacity:1"
       transform="matrix(1.8534579,0,0,1.8534579,-526.65981,-550.47701)" />
    <path
       id="path124"
       d="m 720,560 v 20"
       style="fill:none;stroke:#000080;stroke-width:2;stroke-linecap:square;stroke-linejoin:bevel;stroke-miterlimit:10;stroke-dasharray:none;stroke-opacity:1"
       transform="matrix(1.8534579,0,0,1.8534579,-526.65981,-550.47701)" />
    <path
       id="path125"
       d="m 720,560 h 10"
       style="fill:none;stroke:#000080;stroke-width:2;stroke-linecap:square;stroke-linejoin:bevel;stroke-miterlimit:10;stroke-dasharray:none;stroke-opacity:1"
       transform="matrix(1.8534579,0,0,1.8534579,-526.65981,-550.47701)" />
    <path
       id="path126"
       d="m 640,520 h 80"
       style="fill:none;stroke:#000080;stroke-width:2;stroke-linecap:square;stroke-linejoin:bevel;stroke-miterlimit:10;stroke-dasharray:none;stroke-opacity:1"
       transform="matrix(1.8534579,0,0,1.8534579,-526.65981,-550.47701)" />
    <path
       id="path127"
       d="m 720,520 v 20"
       style="fill:none;stroke:#000080;stroke-width:2;stroke-linecap:square;stroke-linejoin:bevel;stroke-miterlimit:10;stroke-dasharray:none;stroke-opacity:1"
       transform="matrix(1.8534579,0,0,1.8534579,-526.65981,-550.47701)" />
    <path
       id="path128"
       d="m 720,540 h 10"
       style="fill:none;stroke:#000080;stroke-width:2;stroke-linecap:square;stroke-linejoin:bevel;stroke-miterlimit:10;stroke-dasharray:none;stroke-opacity:1"
       transform="matrix(1.8534579,0,0,1.8534579,-526.65981,-550.47701)" />
    <path
       id="path129"
       d="M 520,580 H 640"
       style="fill:none;stroke:#000080;stroke-width:2;stroke-linecap:square;stroke-linejoin:bevel;stroke-miterlimit:10;stroke-dasharray:none;stroke-opacity:1"
       transform="matrix(1.8534579,0,0,1.8534579,-526.65981,-550.47701)" />
    <path
       id="path130"
       d="M 400,580 H 520"
       style="fill:none;stroke:#000080;stroke-width:2;stroke-linecap:square;stroke-linejoin:bevel;stroke-miterlimit:10;stroke-dasharray:none;stroke-opacity:1"
       transform="matrix(1.8534579,0,0,1.8534579,-526.65981,-550.47701)" />
    <path
       id="path131"
       d="m 608,458 h 4 v 4 h -4 z"
       style="fill:#000080;fill-opacity:1;fill-rule:nonzero;stroke:none"
       transform="matrix(1.8534579,0,0,1.8534579,-526.65981,-550.47701)" />
    <path
       id="path132"
       d="m 643,430 c 0,1.65685 -1.34315,3 -3,3 -1.65686,0 -3,-1.34315 -3,-3 0,-1.65686 1.34314,-3 3,-3 1.65685,0 3,1.34314 3,3 z"
       style="fill:#000080;fill-opacity:1;fill-rule:evenodd;stroke:#000080;stroke-width:1;stroke-linecap:square;stroke-linejoin:bevel;stroke-miterlimit:10;stroke-dasharray:none;stroke-opacity:1"
       transform="matrix(1.8534579,0,0,1.8534579,-526.65981,-550.47701)" />
    <path
       id="path133"
       d="m 643,490 c 0,1.65685 -1.34315,3 -3,3 -1.65686,0 -3,-1.34315 -3,-3 0,-1.65686 1.34314,-3 3,-3 1.65685,0 3,1.34314 3,3 z"
       style="fill:#000080;fill-opacity:1;fill-rule:evenodd;stroke:#000080;stroke-width:1;stroke-linecap:square;stroke-linejoin:bevel;stroke-miterlimit:10;stroke-dasharray:none;stroke-opacity:1"
       transform="matrix(1.8534579,0,0,1.8534579,-526.65981,-550.47701)" />
    <path
       id="path134"
       d="m 398,428 h 4 v 4 h -4 z"
       style="fill:#000080;fill-opacity:1;fill-rule:nonzero;stroke:none"
       transform="matrix(1.8534579,0,0,1.8534579,-526.65981,-550.47701)" />
    <path
       id="path135"
       d="m 398,488 h 4 v 4 h -4 z"
       style="fill:#000080;fill-opacity:1;fill-rule:nonzero;stroke:none"
       transform="matrix(1.8534579,0,0,1.8534579,-526.65981,-550.47701)" />
    <path
       id="path136"
       d="m 728,538 h 4 v 4 h -4 z"
       style="fill:#000080;fill-opacity:1;fill-rule:nonzero;stroke:none"
       transform="matrix(1.8534579,0,0,1.8534579,-526.65981,-550.47701)" />
    <path
       id="path137"
       d="m 728,558 h 4 v 4 h -4 z"
       style="fill:#000080;fill-opacity:1;fill-rule:nonzero;stroke:none"
       transform="matrix(1.8534579,0,0,1.8534579,-526.65981,-550.47701)" />
    <path
       id="path138"
       d="m 728,448 h 4 v 4 h -4 z"
       style="fill:#000080;fill-opacity:1;fill-rule:nonzero;stroke:none"
       transform="matrix(1.8534579,0,0,1.8534579,-526.65981,-550.47701)" />
    <path
       id="path139"
       d="m 728,468 h 4 v 4 h -4 z"
       style="fill:#000080;fill-opacity:1;fill-rule:nonzero;stroke:none"
       transform="matrix(1.8534579,0,0,1.8534579,-526.65981,-550.47701)" />
    <path
       id="path140"
       d="m 638,368 h 4 v 4 h -4 z"
       style="fill:#000080;fill-opacity:1;fill-rule:nonzero;stroke:none"
       transform="matrix(1.8534579,0,0,1.8534579,-526.65981,-550.47701)" />
    <path
       id="path141"
       d="m 518,428 h 4 v 4 h -4 z"
       style="fill:#000080;fill-opacity:1;fill-rule:nonzero;stroke:none"
       transform="matrix(1.8534579,0,0,1.8534579,-526.65981,-550.47701)" />
    <path
       id="path142"
       d="m 518,368 h 4 v 4 h -4 z"
       style="fill:#000080;fill-opacity:1;fill-rule:nonzero;stroke:none"
       transform="matrix(1.8534579,0,0,1.8534579,-526.65981,-550.47701)" />
    <path
       id="path143"
       d="m 518,548 h 4 v 4 h -4 z"
       style="fill:#000080;fill-opacity:1;fill-rule:nonzero;stroke:none"
       transform="matrix(1.8534579,0,0,1.8534579,-526.65981,-550.47701)" />
    <path
       id="path144"
       d="m 518,488 h 4 v 4 h -4 z"
       style="fill:#000080;fill-opacity:1;fill-rule:nonzero;stroke:none"
       transform="matrix(1.8534579,0,0,1.8534579,-526.65981,-550.47701)" />
    <path
       id="path145"
       d="m 548,338 h 4 v 4 h -4 z"
       style="fill:#000080;fill-opacity:1;fill-rule:nonzero;stroke:none"
       transform="matrix(1.8534579,0,0,1.8534579,-526.65981,-550.47701)" />
    <path
       id="path146"
       d="m 608,338 h 4 v 4 h -4 z"
       style="fill:#000080;fill-opacity:1;fill-rule:nonzero;stroke:none"
       transform="matrix(1.8534579,0,0,1.8534579,-526.65981,-550.47701)" />
    <path
       id="path147"
       d="m 643,580 c 0,1.65685 -1.34315,3 -3,3 -1.65686,0 -3,-1.34315 -3,-3 0,-1.65686 1.34314,-3 3,-3 1.65685,0 3,1.34314 3,3 z"
       style="fill:#000080;fill-opacity:1;fill-rule:evenodd;stroke:#000080;stroke-width:1;stroke-linecap:square;stroke-linejoin:bevel;stroke-miterlimit:10;stroke-dasharray:none;stroke-opacity:1"
       transform="matrix(1.8534579,0,0,1.8534579,-526.65981,-550.47701)" />
    <path
       id="path148"
       d="m 643,520 c 0,1.65685 -1.34315,3 -3,3 -1.65686,0 -3,-1.34315 -3,-3 0,-1.65686 1.34314,-3 3,-3 1.65685,0 3,1.34314 3,3 z"
       style="fill:#000080;fill-opacity:1;fill-rule:evenodd;stroke:#000080;stroke-width:1;stroke-linecap:square;stroke-linejoin:bevel;stroke-miterlimit:10;stroke-dasharray:none;stroke-opacity:1"
       transform="matrix(1.8534579,0,0,1.8534579,-526.65981,-550.47701)" />
    <path
       id="path149"
       d="m 403,580 c 0,1.65685 -1.34315,3 -3,3 -1.65686,0 -3,-1.34315 -3,-3 0,-1.65686 1.34314,-3 3,-3 1.65685,0 3,1.34314 3,3 z"
       style="fill:#000080;fill-opacity:1;fill-rule:evenodd;stroke:#000080;stroke-width:1;stroke-linecap:square;stroke-linejoin:bevel;stroke-miterlimit:10;stroke-dasharray:none;stroke-opacity:1"
       transform="matrix(1.8534579,0,0,1.8534579,-526.65981,-550.47701)" />
    <path
       id="path150"
       d="m 523,460 c 0,1.65685 -1.34315,3 -3,3 -1.65686,0 -3,-1.34315 -3,-3 0,-1.65686 1.34314,-3 3,-3 1.65685,0 3,1.34314 3,3 z"
       style="fill:#000080;fill-opacity:1;fill-rule:evenodd;stroke:#000080;stroke-width:1;stroke-linecap:square;stroke-linejoin:bevel;stroke-miterlimit:10;stroke-dasharray:none;stroke-opacity:1"
       transform="matrix(1.8534579,0,0,1.8534579,-526.65981,-550.47701)" />
    <path
       id="path151"
       d="m 523,580 c 0,1.65685 -1.34315,3 -3,3 -1.65686,0 -3,-1.34315 -3,-3 0,-1.65686 1.34314,-3 3,-3 1.65685,0 3,1.34314 3,3 z"
       style="fill:#000080;fill-opacity:1;fill-rule:evenodd;stroke:#000080;stroke-width:1;stroke-linecap:square;stroke-linejoin:bevel;stroke-miterlimit:10;stroke-dasharray:none;stroke-opacity:1"
       transform="matrix(1.8534579,0,0,1.8534579,-526.65981,-550.47701)" />
    <path
       id="path152"
       d="m 523,340 c 0,1.65685 -1.34315,3 -3,3 -1.65686,0 -3,-1.34315 -3,-3 0,-1.65686 1.34314,-3 3,-3 1.65685,0 3,1.34314 3,3 z"
       style="fill:#000080;fill-opacity:1;fill-rule:evenodd;stroke:#000080;stroke-width:1;stroke-linecap:square;stroke-linejoin:bevel;stroke-miterlimit:10;stroke-dasharray:none;stroke-opacity:1"
       transform="matrix(1.8534579,0,0,1.8534579,-526.65981,-550.47701)" />
  </g>
</svg>
