<?xml version="1.0" encoding="UTF-8" standalone="no"?>
<svg
   xmlns:dc="http://purl.org/dc/elements/1.1/"
   xmlns:cc="http://creativecommons.org/ns#"
   xmlns:rdf="http://www.w3.org/1999/02/22-rdf-syntax-ns#"
   xmlns:svg="http://www.w3.org/2000/svg"
   xmlns="http://www.w3.org/2000/svg"
   xmlns:xlink="http://www.w3.org/1999/xlink"
   xmlns:sodipodi="http://sodipodi.sourceforge.net/DTD/sodipodi-0.dtd"
   xmlns:inkscape="http://www.inkscape.org/namespaces/inkscape"
   width="61.012146mm"
   height="80.148338mm"
   viewBox="0 0 61.012146 80.148338"
   version="1.1"
   id="svg8"
   sodipodi:docname="figura4.svg"
   inkscape:version="1.0.2 (e86c870879, 2021-01-15)"
   inkscape:export-filename="/home/jacobian/Documentos/Laboratorio/FIS200/06. Informe #06/resources/figura4.png"
   inkscape:export-xdpi="180"
   inkscape:export-ydpi="180">
  <defs
     id="defs2">
    <marker
       style="overflow:visible"
       id="marker2006"
       refX="0"
       refY="0"
       orient="auto"
       inkscape:stockid="Arrow1Send"
       inkscape:isstock="true">
      <path
         transform="matrix(-0.2,0,0,-0.2,-1.2,0)"
         style="fill:#ff0000;fill-opacity:1;fill-rule:evenodd;stroke:#ff0000;stroke-width:1pt;stroke-opacity:1"
         d="M 0,0 5,-5 -12.5,0 5,5 Z"
         id="path2004" />
    </marker>
    <marker
       style="overflow:visible"
       id="marker1788"
       refX="0"
       refY="0"
       orient="auto"
       inkscape:stockid="Arrow1Send"
       inkscape:isstock="true">
      <path
         transform="matrix(-0.2,0,0,-0.2,-1.2,0)"
         style="fill:#ff0000;fill-opacity:1;fill-rule:evenodd;stroke:#ff0000;stroke-width:1pt;stroke-opacity:1"
         d="M 0,0 5,-5 -12.5,0 5,5 Z"
         id="path1786" />
    </marker>
    <marker
       style="overflow:visible"
       id="marker1778"
       refX="0"
       refY="0"
       orient="auto"
       inkscape:stockid="Arrow1Send"
       inkscape:isstock="true">
      <path
         transform="matrix(-0.2,0,0,-0.2,-1.2,0)"
         style="fill:#ff0000;fill-opacity:1;fill-rule:evenodd;stroke:#ff0000;stroke-width:1pt;stroke-opacity:1"
         d="M 0,0 5,-5 -12.5,0 5,5 Z"
         id="path1776" />
    </marker>
    <marker
       style="overflow:visible"
       id="marker1682"
       refX="0"
       refY="0"
       orient="auto"
       inkscape:stockid="Arrow1Send"
       inkscape:isstock="true"
       inkscape:collect="always">
      <path
         transform="matrix(-0.2,0,0,-0.2,-1.2,0)"
         style="fill:#ff0000;fill-opacity:1;fill-rule:evenodd;stroke:#ff0000;stroke-width:1pt;stroke-opacity:1"
         d="M 0,0 5,-5 -12.5,0 5,5 Z"
         id="path1680" />
    </marker>
    <marker
       style="overflow:visible"
       id="marker1634"
       refX="0"
       refY="0"
       orient="auto"
       inkscape:stockid="Arrow1Send"
       inkscape:isstock="true"
       inkscape:collect="always">
      <path
         transform="matrix(-0.2,0,0,-0.2,-1.2,0)"
         style="fill:#ff0000;fill-opacity:1;fill-rule:evenodd;stroke:#ff0000;stroke-width:1pt;stroke-opacity:1"
         d="M 0,0 5,-5 -12.5,0 5,5 Z"
         id="path1632" />
    </marker>
    <marker
       style="overflow:visible"
       id="marker1454"
       refX="0"
       refY="0"
       orient="auto"
       inkscape:stockid="Arrow1Send"
       inkscape:isstock="true"
       inkscape:collect="always">
      <path
         transform="matrix(-0.2,0,0,-0.2,-1.2,0)"
         style="fill:#ff0000;fill-opacity:1;fill-rule:evenodd;stroke:#ff0000;stroke-width:1pt;stroke-opacity:1"
         d="M 0,0 5,-5 -12.5,0 5,5 Z"
         id="path1452" />
    </marker>
    <marker
       style="overflow:visible"
       id="Arrow1Send"
       refX="0"
       refY="0"
       orient="auto"
       inkscape:stockid="Arrow1Send"
       inkscape:isstock="true"
       inkscape:collect="always">
      <path
         transform="matrix(-0.2,0,0,-0.2,-1.2,0)"
         style="fill:#ff0000;fill-opacity:1;fill-rule:evenodd;stroke:#ff0000;stroke-width:1pt;stroke-opacity:1"
         d="M 0,0 5,-5 -12.5,0 5,5 Z"
         id="path971" />
    </marker>
    <marker
       style="overflow:visible"
       id="Arrow2Mend"
       refX="0"
       refY="0"
       orient="auto"
       inkscape:stockid="Arrow2Mend"
       inkscape:isstock="true">
      <path
         transform="scale(-0.6)"
         d="M 8.7185878,4.0337352 -2.2072895,0.01601326 8.7185884,-4.0017078 c -1.7454984,2.3720609 -1.7354408,5.6174519 -6e-7,8.035443 z"
         style="fill:#ff0000;fill-opacity:1;fill-rule:evenodd;stroke:#ff0000;stroke-width:0.625;stroke-linejoin:round;stroke-opacity:1"
         id="path983" />
    </marker>
    <g
       id="g8181">
      <symbol
         overflow="visible"
         id="symbol7563">
        <path
           style="stroke:none"
           d=""
           id="path260" />
      </symbol>
      <symbol
         overflow="visible"
         id="symbol2628">
        <path
           style="stroke:none"
           d="m 3.734375,-6.125 c 0.0625,-0.234375 0.09375,-0.328125 0.28125,-0.359375 C 4.109375,-6.5 4.421875,-6.5 4.625,-6.5 c 0.703125,0 1.8125,0 1.8125,0.984375 0,0.34375 -0.15625,1.03125 -0.546875,1.421875 -0.265625,0.25 -0.78125,0.578125 -1.6875,0.578125 H 3.09375 Z m 1.4375,2.734375 c 1.015625,-0.21875 2.1875,-0.921875 2.1875,-1.921875 0,-0.859375 -0.890625,-1.5 -2.203125,-1.5 H 2.328125 c -0.203125,0 -0.296875,0 -0.296875,0.203125 C 2.03125,-6.5 2.125,-6.5 2.3125,-6.5 c 0.015625,0 0.203125,0 0.375,0.015625 0.1875,0.03125 0.265625,0.03125 0.265625,0.171875 0,0.03125 0,0.0625 -0.03125,0.1875 l -1.34375,5.34375 C 1.484375,-0.390625 1.46875,-0.3125 0.671875,-0.3125 0.5,-0.3125 0.40625,-0.3125 0.40625,-0.109375 0.40625,0 0.53125,0 0.546875,0 c 0.28125,0 0.984375,-0.03125 1.25,-0.03125 0.28125,0 1,0.03125 1.28125,0.03125 0.078125,0 0.1875,0 0.1875,-0.203125 0,-0.109375 -0.078125,-0.109375 -0.28125,-0.109375 -0.359375,0 -0.640625,0 -0.640625,-0.171875 0,-0.0625 0.015625,-0.109375 0.03125,-0.171875 l 0.65625,-2.640625 h 1.1875 c 0.90625,0 1.078125,0.5625 1.078125,0.90625 0,0.140625 -0.078125,0.453125 -0.140625,0.6875 C 5.09375,-1.421875 5,-1.0625 5,-0.859375 5,0.21875 6.203125,0.21875 6.328125,0.21875 c 0.84375,0 1.203125,-1 1.203125,-1.140625 0,-0.125 -0.109375,-0.125 -0.125,-0.125 -0.09375,0 -0.109375,0.0625 -0.125,0.140625 C 7.03125,-0.171875 6.59375,0 6.375,0 6.046875,0 5.96875,-0.21875 5.96875,-0.609375 c 0,-0.3125 0.0625,-0.8125 0.109375,-1.140625 0.015625,-0.140625 0.03125,-0.328125 0.03125,-0.46875 0,-0.765625 -0.671875,-1.078125 -0.9375,-1.171875 z m 0,0"
           id="path9912" />
      </symbol>
      <symbol
         overflow="visible"
         id="symbol8546">
        <path
           style="stroke:none"
           d=""
           id="path834" />
      </symbol>
      <symbol
         overflow="visible"
         id="symbol9619">
        <path
           style="stroke:none"
           d="m 2.328125,-4.4375 c 0,-0.1875 0,-0.1875 -0.203125,-0.1875 -0.453125,0.4375 -1.078125,0.4375 -1.359375,0.4375 v 0.25 c 0.15625,0 0.625,0 1,-0.1875 v 3.546875 c 0,0.234375 0,0.328125 -0.6875,0.328125 H 0.8125 V 0 c 0.125,0 0.984375,-0.03125 1.234375,-0.03125 0.21875,0 1.09375,0.03125 1.25,0.03125 V -0.25 H 3.03125 c -0.703125,0 -0.703125,-0.09375 -0.703125,-0.328125 z m 0,0"
           id="path7678" />
      </symbol>
    </g>
    <g
       id="g492">
      <symbol
         overflow="visible"
         id="symbol6152">
        <path
           style="stroke:none"
           d=""
           id="path1081" />
      </symbol>
      <symbol
         overflow="visible"
         id="symbol195">
        <path
           style="stroke:none"
           d="m 3.734375,-6.125 c 0.0625,-0.234375 0.09375,-0.328125 0.28125,-0.359375 C 4.109375,-6.5 4.421875,-6.5 4.625,-6.5 c 0.703125,0 1.8125,0 1.8125,0.984375 0,0.34375 -0.15625,1.03125 -0.546875,1.421875 -0.265625,0.25 -0.78125,0.578125 -1.6875,0.578125 H 3.09375 Z m 1.4375,2.734375 c 1.015625,-0.21875 2.1875,-0.921875 2.1875,-1.921875 0,-0.859375 -0.890625,-1.5 -2.203125,-1.5 H 2.328125 c -0.203125,0 -0.296875,0 -0.296875,0.203125 C 2.03125,-6.5 2.125,-6.5 2.3125,-6.5 c 0.015625,0 0.203125,0 0.375,0.015625 0.1875,0.03125 0.265625,0.03125 0.265625,0.171875 0,0.03125 0,0.0625 -0.03125,0.1875 l -1.34375,5.34375 C 1.484375,-0.390625 1.46875,-0.3125 0.671875,-0.3125 0.5,-0.3125 0.40625,-0.3125 0.40625,-0.109375 0.40625,0 0.53125,0 0.546875,0 c 0.28125,0 0.984375,-0.03125 1.25,-0.03125 0.28125,0 1,0.03125 1.28125,0.03125 0.078125,0 0.1875,0 0.1875,-0.203125 0,-0.109375 -0.078125,-0.109375 -0.28125,-0.109375 -0.359375,0 -0.640625,0 -0.640625,-0.171875 0,-0.0625 0.015625,-0.109375 0.03125,-0.171875 l 0.65625,-2.640625 h 1.1875 c 0.90625,0 1.078125,0.5625 1.078125,0.90625 0,0.140625 -0.078125,0.453125 -0.140625,0.6875 C 5.09375,-1.421875 5,-1.0625 5,-0.859375 5,0.21875 6.203125,0.21875 6.328125,0.21875 c 0.84375,0 1.203125,-1 1.203125,-1.140625 0,-0.125 -0.109375,-0.125 -0.125,-0.125 -0.09375,0 -0.109375,0.0625 -0.125,0.140625 C 7.03125,-0.171875 6.59375,0 6.375,0 6.046875,0 5.96875,-0.21875 5.96875,-0.609375 c 0,-0.3125 0.0625,-0.8125 0.109375,-1.140625 0.015625,-0.140625 0.03125,-0.328125 0.03125,-0.46875 0,-0.765625 -0.671875,-1.078125 -0.9375,-1.171875 z m 0,0"
           id="path7346" />
      </symbol>
      <symbol
         overflow="visible"
         id="symbol747">
        <path
           style="stroke:none"
           d=""
           id="path6355" />
      </symbol>
      <symbol
         overflow="visible"
         id="symbol6832">
        <path
           style="stroke:none"
           d="M 3.515625,-1.265625 H 3.28125 c -0.015625,0.15625 -0.09375,0.5625 -0.1875,0.625 C 3.046875,-0.59375 2.515625,-0.59375 2.40625,-0.59375 H 1.125 c 0.734375,-0.640625 0.984375,-0.84375 1.390625,-1.171875 0.515625,-0.40625 1,-0.84375 1,-1.5 0,-0.84375 -0.734375,-1.359375 -1.625,-1.359375 -0.859375,0 -1.453125,0.609375 -1.453125,1.25 0,0.34375 0.296875,0.390625 0.375,0.390625 0.15625,0 0.359375,-0.125 0.359375,-0.375 0,-0.125 -0.046875,-0.375 -0.40625,-0.375 C 0.984375,-4.21875 1.453125,-4.375 1.78125,-4.375 c 0.703125,0 1.0625,0.546875 1.0625,1.109375 0,0.609375 -0.4375,1.078125 -0.65625,1.328125 L 0.515625,-0.265625 C 0.4375,-0.203125 0.4375,-0.1875 0.4375,0 h 2.875 z m 0,0"
           id="path3373" />
      </symbol>
    </g>
    <g
       id="g1039">
      <symbol
         overflow="visible"
         id="symbol5211">
        <path
           style="stroke:none"
           d=""
           id="path7720" />
      </symbol>
      <symbol
         overflow="visible"
         id="symbol7360">
        <path
           style="stroke:none"
           d="m 3.734375,-6.125 c 0.0625,-0.234375 0.09375,-0.328125 0.28125,-0.359375 C 4.109375,-6.5 4.421875,-6.5 4.625,-6.5 c 0.703125,0 1.8125,0 1.8125,0.984375 0,0.34375 -0.15625,1.03125 -0.546875,1.421875 -0.265625,0.25 -0.78125,0.578125 -1.6875,0.578125 H 3.09375 Z m 1.4375,2.734375 c 1.015625,-0.21875 2.1875,-0.921875 2.1875,-1.921875 0,-0.859375 -0.890625,-1.5 -2.203125,-1.5 H 2.328125 c -0.203125,0 -0.296875,0 -0.296875,0.203125 C 2.03125,-6.5 2.125,-6.5 2.3125,-6.5 c 0.015625,0 0.203125,0 0.375,0.015625 0.1875,0.03125 0.265625,0.03125 0.265625,0.171875 0,0.03125 0,0.0625 -0.03125,0.1875 l -1.34375,5.34375 C 1.484375,-0.390625 1.46875,-0.3125 0.671875,-0.3125 0.5,-0.3125 0.40625,-0.3125 0.40625,-0.109375 0.40625,0 0.53125,0 0.546875,0 c 0.28125,0 0.984375,-0.03125 1.25,-0.03125 0.28125,0 1,0.03125 1.28125,0.03125 0.078125,0 0.1875,0 0.1875,-0.203125 0,-0.109375 -0.078125,-0.109375 -0.28125,-0.109375 -0.359375,0 -0.640625,0 -0.640625,-0.171875 0,-0.0625 0.015625,-0.109375 0.03125,-0.171875 l 0.65625,-2.640625 h 1.1875 c 0.90625,0 1.078125,0.5625 1.078125,0.90625 0,0.140625 -0.078125,0.453125 -0.140625,0.6875 C 5.09375,-1.421875 5,-1.0625 5,-0.859375 5,0.21875 6.203125,0.21875 6.328125,0.21875 c 0.84375,0 1.203125,-1 1.203125,-1.140625 0,-0.125 -0.109375,-0.125 -0.125,-0.125 -0.09375,0 -0.109375,0.0625 -0.125,0.140625 C 7.03125,-0.171875 6.59375,0 6.375,0 6.046875,0 5.96875,-0.21875 5.96875,-0.609375 c 0,-0.3125 0.0625,-0.8125 0.109375,-1.140625 0.015625,-0.140625 0.03125,-0.328125 0.03125,-0.46875 0,-0.765625 -0.671875,-1.078125 -0.9375,-1.171875 z m 0,0"
           id="path5634" />
      </symbol>
      <symbol
         overflow="visible"
         id="symbol9943">
        <path
           style="stroke:none"
           d=""
           id="path7115" />
      </symbol>
      <symbol
         overflow="visible"
         id="symbol3914">
        <path
           style="stroke:none"
           d="m 1.90625,-2.328125 c 0.546875,0 0.9375,0.375 0.9375,1.125 0,0.859375 -0.515625,1.125 -0.90625,1.125 -0.28125,0 -0.90625,-0.078125 -1.1875,-0.5 0.328125,0 0.40625,-0.234375 0.40625,-0.390625 0,-0.21875 -0.171875,-0.375 -0.390625,-0.375 -0.1875,0 -0.390625,0.125 -0.390625,0.40625 0,0.65625 0.71875,1.078125 1.5625,1.078125 0.96875,0 1.640625,-0.65625 1.640625,-1.34375 0,-0.546875 -0.4375,-1.09375 -1.203125,-1.25 0.71875,-0.265625 0.984375,-0.78125 0.984375,-1.21875 0,-0.546875 -0.625,-0.953125 -1.40625,-0.953125 -0.765625,0 -1.359375,0.375 -1.359375,0.9375 0,0.234375 0.15625,0.359375 0.359375,0.359375 0.21875,0 0.359375,-0.15625 0.359375,-0.34375 0,-0.203125 -0.140625,-0.359375 -0.359375,-0.375 0.25,-0.296875 0.71875,-0.375 0.984375,-0.375 0.3125,0 0.75,0.15625 0.75,0.75 0,0.296875 -0.09375,0.625 -0.28125,0.828125 -0.21875,0.265625 -0.421875,0.28125 -0.765625,0.3125 -0.171875,0.015625 -0.1875,0.015625 -0.21875,0.015625 -0.015625,0 -0.078125,0.015625 -0.078125,0.09375 0,0.09375 0.0625,0.09375 0.1875,0.09375 z m 0,0"
           id="path3568" />
      </symbol>
    </g>
    <g
       id="g1404">
      <symbol
         overflow="visible"
         id="symbol1917">
        <path
           style="stroke:none"
           d=""
           id="path3779" />
      </symbol>
      <symbol
         overflow="visible"
         id="symbol9982">
        <path
           style="stroke:none"
           d="m 3.734375,-6.125 c 0.0625,-0.234375 0.09375,-0.328125 0.28125,-0.359375 C 4.109375,-6.5 4.421875,-6.5 4.625,-6.5 c 0.703125,0 1.8125,0 1.8125,0.984375 0,0.34375 -0.15625,1.03125 -0.546875,1.421875 -0.265625,0.25 -0.78125,0.578125 -1.6875,0.578125 H 3.09375 Z m 1.4375,2.734375 c 1.015625,-0.21875 2.1875,-0.921875 2.1875,-1.921875 0,-0.859375 -0.890625,-1.5 -2.203125,-1.5 H 2.328125 c -0.203125,0 -0.296875,0 -0.296875,0.203125 C 2.03125,-6.5 2.125,-6.5 2.3125,-6.5 c 0.015625,0 0.203125,0 0.375,0.015625 0.1875,0.03125 0.265625,0.03125 0.265625,0.171875 0,0.03125 0,0.0625 -0.03125,0.1875 l -1.34375,5.34375 C 1.484375,-0.390625 1.46875,-0.3125 0.671875,-0.3125 0.5,-0.3125 0.40625,-0.3125 0.40625,-0.109375 0.40625,0 0.53125,0 0.546875,0 c 0.28125,0 0.984375,-0.03125 1.25,-0.03125 0.28125,0 1,0.03125 1.28125,0.03125 0.078125,0 0.1875,0 0.1875,-0.203125 0,-0.109375 -0.078125,-0.109375 -0.28125,-0.109375 -0.359375,0 -0.640625,0 -0.640625,-0.171875 0,-0.0625 0.015625,-0.109375 0.03125,-0.171875 l 0.65625,-2.640625 h 1.1875 c 0.90625,0 1.078125,0.5625 1.078125,0.90625 0,0.140625 -0.078125,0.453125 -0.140625,0.6875 C 5.09375,-1.421875 5,-1.0625 5,-0.859375 5,0.21875 6.203125,0.21875 6.328125,0.21875 c 0.84375,0 1.203125,-1 1.203125,-1.140625 0,-0.125 -0.109375,-0.125 -0.125,-0.125 -0.09375,0 -0.109375,0.0625 -0.125,0.140625 C 7.03125,-0.171875 6.59375,0 6.375,0 6.046875,0 5.96875,-0.21875 5.96875,-0.609375 c 0,-0.3125 0.0625,-0.8125 0.109375,-1.140625 0.015625,-0.140625 0.03125,-0.328125 0.03125,-0.46875 0,-0.765625 -0.671875,-1.078125 -0.9375,-1.171875 z m 0,0"
           id="path65" />
      </symbol>
      <symbol
         overflow="visible"
         id="symbol8979">
        <path
           style="stroke:none"
           d=""
           id="path7644" />
      </symbol>
      <symbol
         overflow="visible"
         id="symbol6854">
        <path
           style="stroke:none"
           d="m 3.6875,-1.140625 v -0.25 H 2.90625 V -4.5 c 0,-0.140625 0,-0.203125 -0.140625,-0.203125 -0.09375,0 -0.125,0 -0.1875,0.109375 l -2.3125,3.203125 v 0.25 h 2.0625 v 0.5625 c 0,0.25 0,0.328125 -0.578125,0.328125 H 1.5625 V 0 C 1.921875,-0.015625 2.359375,-0.03125 2.609375,-0.03125 2.875,-0.03125 3.3125,-0.015625 3.671875,0 v -0.25 h -0.1875 C 2.90625,-0.25 2.90625,-0.328125 2.90625,-0.578125 v -0.5625 z M 2.375,-3.9375 v 2.546875 H 0.53125 Z m 0,0"
           id="path4434" />
      </symbol>
    </g>
    <g
       id="g5947">
      <symbol
         overflow="visible"
         id="symbol8705">
        <path
           style="stroke:none"
           d=""
           id="path2859" />
      </symbol>
      <symbol
         overflow="visible"
         id="symbol5835">
        <path
           style="stroke:none"
           d="m 3.734375,-6.125 c 0.0625,-0.234375 0.09375,-0.328125 0.28125,-0.359375 C 4.109375,-6.5 4.421875,-6.5 4.625,-6.5 c 0.703125,0 1.8125,0 1.8125,0.984375 0,0.34375 -0.15625,1.03125 -0.546875,1.421875 -0.265625,0.25 -0.78125,0.578125 -1.6875,0.578125 H 3.09375 Z m 1.4375,2.734375 c 1.015625,-0.21875 2.1875,-0.921875 2.1875,-1.921875 0,-0.859375 -0.890625,-1.5 -2.203125,-1.5 H 2.328125 c -0.203125,0 -0.296875,0 -0.296875,0.203125 C 2.03125,-6.5 2.125,-6.5 2.3125,-6.5 c 0.015625,0 0.203125,0 0.375,0.015625 0.1875,0.03125 0.265625,0.03125 0.265625,0.171875 0,0.03125 0,0.0625 -0.03125,0.1875 l -1.34375,5.34375 C 1.484375,-0.390625 1.46875,-0.3125 0.671875,-0.3125 0.5,-0.3125 0.40625,-0.3125 0.40625,-0.109375 0.40625,0 0.53125,0 0.546875,0 c 0.28125,0 0.984375,-0.03125 1.25,-0.03125 0.28125,0 1,0.03125 1.28125,0.03125 0.078125,0 0.1875,0 0.1875,-0.203125 0,-0.109375 -0.078125,-0.109375 -0.28125,-0.109375 -0.359375,0 -0.640625,0 -0.640625,-0.171875 0,-0.0625 0.015625,-0.109375 0.03125,-0.171875 l 0.65625,-2.640625 h 1.1875 c 0.90625,0 1.078125,0.5625 1.078125,0.90625 0,0.140625 -0.078125,0.453125 -0.140625,0.6875 C 5.09375,-1.421875 5,-1.0625 5,-0.859375 5,0.21875 6.203125,0.21875 6.328125,0.21875 c 0.84375,0 1.203125,-1 1.203125,-1.140625 0,-0.125 -0.109375,-0.125 -0.125,-0.125 -0.09375,0 -0.109375,0.0625 -0.125,0.140625 C 7.03125,-0.171875 6.59375,0 6.375,0 6.046875,0 5.96875,-0.21875 5.96875,-0.609375 c 0,-0.3125 0.0625,-0.8125 0.109375,-1.140625 0.015625,-0.140625 0.03125,-0.328125 0.03125,-0.46875 0,-0.765625 -0.671875,-1.078125 -0.9375,-1.171875 z m 0,0"
           id="path1134" />
      </symbol>
      <symbol
         overflow="visible"
         id="symbol3297">
        <path
           style="stroke:none"
           d=""
           id="path4799" />
      </symbol>
      <symbol
         overflow="visible"
         id="symbol3813">
        <path
           style="stroke:none"
           d="m 2.265625,-4.359375 c 0,-0.109375 -0.09375,-0.265625 -0.28125,-0.265625 -0.1875,0 -0.390625,0.1875 -0.390625,0.390625 0,0.109375 0.078125,0.265625 0.28125,0.265625 0.1875,0 0.390625,-0.203125 0.390625,-0.390625 z M 0.84375,-0.8125 c -0.03125,0.09375 -0.0625,0.171875 -0.0625,0.296875 0,0.328125 0.265625,0.578125 0.65625,0.578125 0.6875,0 1,-0.953125 1,-1.0625 0,-0.09375 -0.09375,-0.09375 -0.109375,-0.09375 -0.09375,0 -0.109375,0.046875 -0.140625,0.125 -0.15625,0.5625 -0.453125,0.84375 -0.734375,0.84375 -0.140625,0 -0.171875,-0.09375 -0.171875,-0.25 0,-0.15625 0.046875,-0.28125 0.109375,-0.4375 C 1.46875,-1 1.546875,-1.1875 1.609375,-1.375 1.671875,-1.546875 1.9375,-2.171875 1.953125,-2.265625 1.984375,-2.328125 2,-2.40625 2,-2.484375 2,-2.8125 1.71875,-3.078125 1.34375,-3.078125 0.640625,-3.078125 0.328125,-2.125 0.328125,-2 c 0,0.078125 0.09375,0.078125 0.125,0.078125 0.09375,0 0.09375,-0.03125 0.125,-0.109375 C 0.75,-2.625 1.0625,-2.875 1.3125,-2.875 c 0.109375,0 0.171875,0.046875 0.171875,0.234375 0,0.171875 -0.03125,0.265625 -0.203125,0.703125 z m 0,0"
           id="path7734" />
      </symbol>
    </g>
    <marker
       style="overflow:visible"
       id="marker1634-6"
       refX="0"
       refY="0"
       orient="auto"
       inkscape:stockid="Arrow1Send"
       inkscape:isstock="true"
       inkscape:collect="always">
      <path
         transform="matrix(-0.2,0,0,-0.2,-1.2,0)"
         style="fill:#ff0000;fill-opacity:1;fill-rule:evenodd;stroke:#ff0000;stroke-width:1pt;stroke-opacity:1"
         d="M 0,0 5,-5 -12.5,0 5,5 Z"
         id="path1632-7" />
    </marker>
    <g
       id="g1512">
      <symbol
         overflow="visible"
         id="symbol4266">
        <path
           style="stroke:none"
           d=""
           id="path9919" />
      </symbol>
      <symbol
         overflow="visible"
         id="symbol1849">
        <path
           style="stroke:none"
           d="M 3.734375,-6.046875 C 3.8125,-6.40625 3.84375,-6.5 4.640625,-6.5 c 0.234375,0 0.3125,0 0.3125,-0.1875 0,-0.125 -0.109375,-0.125 -0.140625,-0.125 -0.296875,0 -1.03125,0.03125 -1.328125,0.03125 -0.296875,0 -1.015625,-0.03125 -1.328125,-0.03125 -0.0625,0 -0.1875,0 -0.1875,0.203125 C 1.96875,-6.5 2.046875,-6.5 2.25,-6.5 c 0.40625,0 0.6875,0 0.6875,0.1875 0,0.046875 0,0.078125 -0.03125,0.15625 l -1.34375,5.375 c -0.09375,0.375 -0.109375,0.46875 -0.90625,0.46875 -0.234375,0 -0.3125,0 -0.3125,0.203125 C 0.34375,0 0.453125,0 0.484375,0 0.78125,0 1.5,-0.03125 1.796875,-0.03125 2.09375,-0.03125 2.828125,0 3.125,0 c 0.078125,0 0.203125,0 0.203125,-0.1875 0,-0.125 -0.078125,-0.125 -0.296875,-0.125 -0.1875,0 -0.234375,0 -0.421875,-0.015625 -0.21875,-0.015625 -0.25,-0.0625 -0.25,-0.171875 0,-0.078125 0.015625,-0.15625 0.03125,-0.234375 z m 0,0"
           id="path8331" />
      </symbol>
      <symbol
         overflow="visible"
         id="symbol7357">
        <path
           style="stroke:none"
           d=""
           id="path7771" />
      </symbol>
      <symbol
         overflow="visible"
         id="symbol2259">
        <path
           style="stroke:none"
           d="m 2.328125,-4.4375 c 0,-0.1875 0,-0.1875 -0.203125,-0.1875 -0.453125,0.4375 -1.078125,0.4375 -1.359375,0.4375 v 0.25 c 0.15625,0 0.625,0 1,-0.1875 v 3.546875 c 0,0.234375 0,0.328125 -0.6875,0.328125 H 0.8125 V 0 c 0.125,0 0.984375,-0.03125 1.234375,-0.03125 0.21875,0 1.09375,0.03125 1.25,0.03125 V -0.25 H 3.03125 c -0.703125,0 -0.703125,-0.09375 -0.703125,-0.328125 z m 0,0"
           id="path1916" />
      </symbol>
    </g>
    <g
       id="g1915">
      <symbol
         overflow="visible"
         id="symbol5103">
        <path
           style="stroke:none"
           d=""
           id="path4504" />
      </symbol>
      <symbol
         overflow="visible"
         id="symbol2409">
        <path
           style="stroke:none"
           d="M 3.734375,-6.046875 C 3.8125,-6.40625 3.84375,-6.5 4.640625,-6.5 c 0.234375,0 0.3125,0 0.3125,-0.1875 0,-0.125 -0.109375,-0.125 -0.140625,-0.125 -0.296875,0 -1.03125,0.03125 -1.328125,0.03125 -0.296875,0 -1.015625,-0.03125 -1.328125,-0.03125 -0.0625,0 -0.1875,0 -0.1875,0.203125 C 1.96875,-6.5 2.046875,-6.5 2.25,-6.5 c 0.40625,0 0.6875,0 0.6875,0.1875 0,0.046875 0,0.078125 -0.03125,0.15625 l -1.34375,5.375 c -0.09375,0.375 -0.109375,0.46875 -0.90625,0.46875 -0.234375,0 -0.3125,0 -0.3125,0.203125 C 0.34375,0 0.453125,0 0.484375,0 0.78125,0 1.5,-0.03125 1.796875,-0.03125 2.09375,-0.03125 2.828125,0 3.125,0 c 0.078125,0 0.203125,0 0.203125,-0.1875 0,-0.125 -0.078125,-0.125 -0.296875,-0.125 -0.1875,0 -0.234375,0 -0.421875,-0.015625 -0.21875,-0.015625 -0.25,-0.0625 -0.25,-0.171875 0,-0.078125 0.015625,-0.15625 0.03125,-0.234375 z m 0,0"
           id="path4882" />
      </symbol>
      <symbol
         overflow="visible"
         id="symbol9294">
        <path
           style="stroke:none"
           d=""
           id="path337" />
      </symbol>
      <symbol
         overflow="visible"
         id="symbol1531">
        <path
           style="stroke:none"
           d="M 3.515625,-1.265625 H 3.28125 c -0.015625,0.15625 -0.09375,0.5625 -0.1875,0.625 C 3.046875,-0.59375 2.515625,-0.59375 2.40625,-0.59375 H 1.125 c 0.734375,-0.640625 0.984375,-0.84375 1.390625,-1.171875 0.515625,-0.40625 1,-0.84375 1,-1.5 0,-0.84375 -0.734375,-1.359375 -1.625,-1.359375 -0.859375,0 -1.453125,0.609375 -1.453125,1.25 0,0.34375 0.296875,0.390625 0.375,0.390625 0.15625,0 0.359375,-0.125 0.359375,-0.375 0,-0.125 -0.046875,-0.375 -0.40625,-0.375 C 0.984375,-4.21875 1.453125,-4.375 1.78125,-4.375 c 0.703125,0 1.0625,0.546875 1.0625,1.109375 0,0.609375 -0.4375,1.078125 -0.65625,1.328125 L 0.515625,-0.265625 C 0.4375,-0.203125 0.4375,-0.1875 0.4375,0 h 2.875 z m 0,0"
           id="path4135" />
      </symbol>
    </g>
    <g
       id="g9486">
      <symbol
         overflow="visible"
         id="symbol3117">
        <path
           style="stroke:none"
           d=""
           id="path804" />
      </symbol>
      <symbol
         overflow="visible"
         id="symbol5797">
        <path
           style="stroke:none"
           d="M 3.734375,-6.046875 C 3.8125,-6.40625 3.84375,-6.5 4.640625,-6.5 c 0.234375,0 0.3125,0 0.3125,-0.1875 0,-0.125 -0.109375,-0.125 -0.140625,-0.125 -0.296875,0 -1.03125,0.03125 -1.328125,0.03125 -0.296875,0 -1.015625,-0.03125 -1.328125,-0.03125 -0.0625,0 -0.1875,0 -0.1875,0.203125 C 1.96875,-6.5 2.046875,-6.5 2.25,-6.5 c 0.40625,0 0.6875,0 0.6875,0.1875 0,0.046875 0,0.078125 -0.03125,0.15625 l -1.34375,5.375 c -0.09375,0.375 -0.109375,0.46875 -0.90625,0.46875 -0.234375,0 -0.3125,0 -0.3125,0.203125 C 0.34375,0 0.453125,0 0.484375,0 0.78125,0 1.5,-0.03125 1.796875,-0.03125 2.09375,-0.03125 2.828125,0 3.125,0 c 0.078125,0 0.203125,0 0.203125,-0.1875 0,-0.125 -0.078125,-0.125 -0.296875,-0.125 -0.1875,0 -0.234375,0 -0.421875,-0.015625 -0.21875,-0.015625 -0.25,-0.0625 -0.25,-0.171875 0,-0.078125 0.015625,-0.15625 0.03125,-0.234375 z m 0,0"
           id="path3681" />
      </symbol>
      <symbol
         overflow="visible"
         id="symbol7270">
        <path
           style="stroke:none"
           d=""
           id="path4684" />
      </symbol>
      <symbol
         overflow="visible"
         id="symbol9137">
        <path
           style="stroke:none"
           d="m 1.90625,-2.328125 c 0.546875,0 0.9375,0.375 0.9375,1.125 0,0.859375 -0.515625,1.125 -0.90625,1.125 -0.28125,0 -0.90625,-0.078125 -1.1875,-0.5 0.328125,0 0.40625,-0.234375 0.40625,-0.390625 0,-0.21875 -0.171875,-0.375 -0.390625,-0.375 -0.1875,0 -0.390625,0.125 -0.390625,0.40625 0,0.65625 0.71875,1.078125 1.5625,1.078125 0.96875,0 1.640625,-0.65625 1.640625,-1.34375 0,-0.546875 -0.4375,-1.09375 -1.203125,-1.25 0.71875,-0.265625 0.984375,-0.78125 0.984375,-1.21875 0,-0.546875 -0.625,-0.953125 -1.40625,-0.953125 -0.765625,0 -1.359375,0.375 -1.359375,0.9375 0,0.234375 0.15625,0.359375 0.359375,0.359375 0.21875,0 0.359375,-0.15625 0.359375,-0.34375 0,-0.203125 -0.140625,-0.359375 -0.359375,-0.375 0.25,-0.296875 0.71875,-0.375 0.984375,-0.375 0.3125,0 0.75,0.15625 0.75,0.75 0,0.296875 -0.09375,0.625 -0.28125,0.828125 -0.21875,0.265625 -0.421875,0.28125 -0.765625,0.3125 -0.171875,0.015625 -0.1875,0.015625 -0.21875,0.015625 -0.015625,0 -0.078125,0.015625 -0.078125,0.09375 0,0.09375 0.0625,0.09375 0.1875,0.09375 z m 0,0"
           id="path8503" />
      </symbol>
    </g>
    <g
       id="g530">
      <symbol
         overflow="visible"
         id="symbol4890">
        <path
           style="stroke:none"
           d=""
           id="path3492" />
      </symbol>
      <symbol
         overflow="visible"
         id="symbol8564">
        <path
           style="stroke:none"
           d="M 3.71875,-3.765625 C 3.53125,-4.140625 3.25,-4.40625 2.796875,-4.40625 c -1.15625,0 -2.390625,1.46875 -2.390625,2.921875 0,0.9375 0.546875,1.59375 1.3125,1.59375 0.203125,0 0.703125,-0.046875 1.296875,-0.75 0.078125,0.421875 0.4375,0.75 0.90625,0.75 0.359375,0 0.578125,-0.234375 0.75,-0.546875 0.15625,-0.359375 0.296875,-0.96875 0.296875,-0.984375 0,-0.109375 -0.09375,-0.109375 -0.125,-0.109375 -0.09375,0 -0.109375,0.046875 -0.140625,0.1875 -0.171875,0.640625 -0.34375,1.234375 -0.75,1.234375 -0.28125,0 -0.296875,-0.265625 -0.296875,-0.453125 0,-0.21875 0.015625,-0.3125 0.125,-0.75 C 3.890625,-1.71875 3.90625,-1.828125 4,-2.203125 L 4.359375,-3.59375 c 0.0625,-0.28125 0.0625,-0.296875 0.0625,-0.34375 0,-0.171875 -0.109375,-0.265625 -0.28125,-0.265625 -0.25,0 -0.390625,0.21875 -0.421875,0.4375 z M 3.078125,-1.1875 C 3.015625,-1 3.015625,-0.984375 2.875,-0.8125 2.4375,-0.265625 2.03125,-0.109375 1.75,-0.109375 c -0.5,0 -0.640625,-0.546875 -0.640625,-0.9375 0,-0.5 0.3125,-1.71875 0.546875,-2.1875 0.3125,-0.578125 0.75,-0.953125 1.15625,-0.953125 0.640625,0 0.78125,0.8125 0.78125,0.875 0,0.0625 -0.015625,0.125 -0.03125,0.171875 z m 0,0"
           id="path7673" />
      </symbol>
    </g>
    <g
       id="g7131">
      <symbol
         overflow="visible"
         id="symbol4770">
        <path
           style="stroke:none"
           d=""
           id="path2172" />
      </symbol>
      <symbol
         overflow="visible"
         id="symbol2419">
        <path
           style="stroke:none"
           d="m 2.375,-6.8125 c 0,0 0,-0.109375 -0.125,-0.109375 -0.21875,0 -0.953125,0.078125 -1.21875,0.109375 -0.078125,0 -0.1875,0.015625 -0.1875,0.1875 0,0.125 0.09375,0.125 0.25,0.125 0.46875,0 0.484375,0.0625 0.484375,0.171875 0,0.0625 -0.078125,0.40625 -0.125,0.609375 l -0.828125,3.25 c -0.109375,0.5 -0.15625,0.671875 -0.15625,1.015625 0,0.9375 0.53125,1.5625 1.265625,1.5625 1.171875,0 2.40625,-1.484375 2.40625,-2.921875 0,-0.90625 -0.53125,-1.59375 -1.328125,-1.59375 -0.453125,0 -0.875,0.296875 -1.171875,0.59375 z M 1.453125,-3.046875 C 1.5,-3.265625 1.5,-3.28125 1.59375,-3.390625 2.078125,-4.03125 2.53125,-4.1875 2.796875,-4.1875 c 0.359375,0 0.625,0.296875 0.625,0.9375 0,0.59375 -0.328125,1.734375 -0.515625,2.109375 -0.328125,0.671875 -0.78125,1.03125 -1.171875,1.03125 -0.34375,0 -0.671875,-0.265625 -0.671875,-1 0,-0.203125 0,-0.390625 0.15625,-1.015625 z m 0,0"
           id="path995" />
      </symbol>
    </g>
    <g
       id="g6413">
      <symbol
         overflow="visible"
         id="symbol9452">
        <path
           style="stroke:none"
           d=""
           id="path8851" />
      </symbol>
      <symbol
         overflow="visible"
         id="symbol8142">
        <path
           style="stroke:none"
           d="m 2.9375,-6.375 c 0,-0.25 0,-0.265625 -0.234375,-0.265625 C 2.078125,-6 1.203125,-6 0.890625,-6 v 0.3125 c 0.203125,0 0.78125,0 1.296875,-0.265625 v 5.171875 c 0,0.359375 -0.03125,0.46875 -0.921875,0.46875 h -0.3125 V 0 c 0.34375,-0.03125 1.203125,-0.03125 1.609375,-0.03125 0.390625,0 1.265625,0 1.609375,0.03125 v -0.3125 h -0.3125 c -0.90625,0 -0.921875,-0.109375 -0.921875,-0.46875 z m 0,0"
           id="path7169" />
      </symbol>
    </g>
    <g
       id="g6715">
      <symbol
         overflow="visible"
         id="symbol5383">
        <path
           style="stroke:none"
           d=""
           id="path2883" />
      </symbol>
      <symbol
         overflow="visible"
         id="symbol5561">
        <path
           style="stroke:none"
           d="m 1.265625,-0.765625 1.0625,-1.03125 c 1.546875,-1.375 2.140625,-1.90625 2.140625,-2.90625 0,-1.140625 -0.890625,-1.9375 -2.109375,-1.9375 -1.125,0 -1.859375,0.921875 -1.859375,1.8125 0,0.546875 0.5,0.546875 0.53125,0.546875 0.171875,0 0.515625,-0.109375 0.515625,-0.53125 0,-0.25 -0.1875,-0.515625 -0.53125,-0.515625 -0.078125,0 -0.09375,0 -0.125,0.015625 0.21875,-0.65625 0.765625,-1.015625 1.34375,-1.015625 0.90625,0 1.328125,0.8125 1.328125,1.625 C 3.5625,-3.90625 3.078125,-3.125 2.515625,-2.5 l -1.90625,2.125 C 0.5,-0.265625 0.5,-0.234375 0.5,0 H 4.203125 L 4.46875,-1.734375 H 4.234375 C 4.171875,-1.4375 4.109375,-1 4,-0.84375 3.9375,-0.765625 3.28125,-0.765625 3.0625,-0.765625 Z m 0,0"
           id="path9609" />
      </symbol>
    </g>
  </defs>
  <sodipodi:namedview
     id="base"
     pagecolor="#ffffff"
     bordercolor="#666666"
     borderopacity="1.0"
     inkscape:pageopacity="0.0"
     inkscape:pageshadow="2"
     inkscape:zoom="1.979899"
     inkscape:cx="204.30194"
     inkscape:cy="119.18452"
     inkscape:document-units="mm"
     inkscape:current-layer="layer2"
     inkscape:document-rotation="0"
     showgrid="false"
     inkscape:window-width="1920"
     inkscape:window-height="1050"
     inkscape:window-x="1920"
     inkscape:window-y="18"
     inkscape:window-maximized="0"
     lock-margins="true"
     fit-margin-top="4"
     fit-margin-left="4"
     fit-margin-right="4"
     fit-margin-bottom="4"
     inkscape:showpageshadow="false"
     showguides="false">
    <inkscape:grid
       type="xygrid"
       id="grid88"
       originx="185.10905"
       originy="-8.9742006" />
  </sodipodi:namedview>
  <metadata
     id="metadata5">
    <rdf:RDF>
      <cc:Work
         rdf:about="">
        <dc:format>image/svg+xml</dc:format>
        <dc:type
           rdf:resource="http://purl.org/dc/dcmitype/StillImage" />
        <dc:title></dc:title>
      </cc:Work>
    </rdf:RDF>
  </metadata>
  <g
     inkscape:groupmode="layer"
     id="layer2"
     inkscape:label="Capa 2"
     transform="translate(123.59447,-107.34162)">
    <path
       style="fill:none;stroke:#000000;stroke-width:0.265112;stroke-linecap:round;stroke-linejoin:round;stroke-miterlimit:10;paint-order:markers fill stroke"
       d="m -109.93542,140.70077 10.652989,-1e-5 0.94495,-2.27847 2.02317,4.67083 2.02316,-4.67083 2.02317,4.67083 2.02315,-4.67083 2.02317,4.67083 0.75595,-2.39235 h 11.396959"
       id="path31"
       sodipodi:nodetypes="cccccccccc" />
    <path
       style="fill:none;stroke:#000000;stroke-width:0.265112;stroke-linecap:round;stroke-linejoin:round;stroke-miterlimit:10;paint-order:markers fill stroke"
       d="m -90.885417,174.56742 h 5.28252 m 1.06748,0 h 8.466666"
       id="path33"
       sodipodi:nodetypes="cccc" />
    <path
       style="fill:none;stroke:#000000;stroke-width:0.265112;stroke-linecap:round;stroke-linejoin:round;stroke-miterlimit:10;paint-order:markers fill stroke"
       d="m -85.576057,170.75753 c 0,7.61059 0,7.61059 0,7.61059"
       id="path35" />
    <path
       style="fill:none;stroke:#000000;stroke-width:0.265112;stroke-linecap:round;stroke-linejoin:round;stroke-miterlimit:10;paint-order:markers fill stroke"
       d="m -84.535417,172.19089 v 4.74931"
       id="path37" />
    <path
       style="fill:none;stroke:#000000;stroke-width:0.265112;stroke-linecap:round;stroke-linejoin:round;stroke-miterlimit:10;paint-order:markers fill stroke"
       d="m -109.93542,119.53409 v 21.16666"
       id="path45"
       sodipodi:nodetypes="cc" />
    <text
       xml:space="preserve"
       style="font-size:4.53814px;font-family:'Latin Modern Math';-inkscape-font-specification:'Latin Modern Math, Normal';text-align:center;text-anchor:middle;fill:#000000;stroke:none;stroke-width:0.213151;stroke-linecap:round;stroke-linejoin:round;stroke-miterlimit:10;paint-order:markers fill stroke"
       x="-85.057411"
       y="183.39012"
       id="text141"><tspan
         sodipodi:role="line"
         id="tspan139"
         x="-85.057411"
         y="183.39012"
         style="stroke-width:0.213151">V</tspan></text>
    <g
       inkscape:label=""
       transform="matrix(0.46843632,0,0,0.46843632,-162.84578,121.02368)"
       id="g183">
      <g
         id="g2022">
        <g
           style="fill:#000000;fill-opacity:1"
           id="g9827">
          <use
             xlink:href="#symbol2628"
             x="91.925003"
             y="81.962997"
             id="use7796"
             width="100%"
             height="100%" />
        </g>
        <g
           style="fill:#000000;fill-opacity:1"
           id="g5152">
          <use
             xlink:href="#symbol9619"
             x="99.489998"
             y="83.457001"
             id="use8679"
             width="100%"
             height="100%" />
        </g>
      </g>
    </g>
    <g
       inkscape:label=""
       transform="matrix(0.46843632,0,0,0.46843632,-139.38068,76.138399)"
       id="g258">
      <g
         id="g7486">
        <g
           style="fill:#000000;fill-opacity:1"
           id="g6766">
          <use
             xlink:href="#symbol195"
             x="91.925003"
             y="81.962997"
             id="use3086"
             width="100%"
             height="100%" />
        </g>
        <g
           style="fill:#000000;fill-opacity:1"
           id="g8698">
          <use
             xlink:href="#symbol6832"
             x="99.489998"
             y="83.457001"
             id="use344"
             width="100%"
             height="100%" />
        </g>
      </g>
    </g>
    <g
       inkscape:label=""
       transform="matrix(0.46843632,0,0,0.46843632,-139.39532,109.89864)"
       id="g347">
      <g
         id="g2659">
        <g
           style="fill:#000000;fill-opacity:1"
           id="g2104">
          <use
             xlink:href="#symbol7360"
             x="91.925003"
             y="81.962997"
             id="use5348"
             width="100%"
             height="100%" />
        </g>
        <g
           style="fill:#000000;fill-opacity:1"
           id="g390">
          <use
             xlink:href="#symbol3914"
             x="99.489998"
             y="83.457001"
             id="use648"
             width="100%"
             height="100%" />
        </g>
      </g>
    </g>
    <g
       inkscape:label=""
       transform="matrix(0.46843632,0,0,0.46843632,-114.91441,121.02368)"
       id="g451">
      <g
         id="g7947">
        <g
           style="fill:#000000;fill-opacity:1"
           id="g3889">
          <use
             xlink:href="#symbol9982"
             x="91.925003"
             y="81.962997"
             id="use1855"
             width="100%"
             height="100%" />
        </g>
        <g
           style="fill:#000000;fill-opacity:1"
           id="g4240">
          <use
             xlink:href="#symbol6854"
             x="99.489998"
             y="83.457001"
             id="use8482"
             width="100%"
             height="100%" />
        </g>
      </g>
    </g>
    <path
       style="fill:none;stroke:#000000;stroke-width:0.265112;stroke-linecap:round;stroke-linejoin:round;stroke-miterlimit:10;paint-order:markers fill stroke"
       d="m -109.93542,119.53409 10.652989,-1e-5 0.94495,-2.27847 2.02317,4.67083 2.02316,-4.67083 2.02317,4.67083 2.02315,-4.67083 2.02317,4.67083 0.75595,-2.39235 h 11.396959"
       id="path92"
       sodipodi:nodetypes="cccccccccc" />
    <path
       style="fill:none;stroke:#000000;stroke-width:0.265112;stroke-linecap:round;stroke-linejoin:round;stroke-miterlimit:10;paint-order:markers fill stroke"
       d="m -109.93542,174.56742 5.11662,-1e-5 0.94495,-2.27847 2.02317,4.67083 2.023156,-4.67083 2.02317,4.67083 2.02315,-4.67083 2.02317,4.67083 0.75595,-2.39235 h 2.116666"
       id="path31-3"
       sodipodi:nodetypes="cccccccccc" />
    <path
       style="fill:none;stroke:#000000;stroke-width:0.265112;stroke-linecap:round;stroke-linejoin:round;stroke-miterlimit:10;paint-order:markers fill stroke"
       d="m -109.93542,140.70075 10e-6,10.65299 2.27847,0.94495 -4.67083,2.02317 4.67083,2.02316 -4.67083,2.02317 4.67083,2.02315 -4.67083,2.02317 2.39235,0.75595 v 11.39696"
       id="path103"
       sodipodi:nodetypes="cccccccccc" />
    <path
       style="fill:none;stroke:#000000;stroke-width:0.265112;stroke-linecap:round;stroke-linejoin:round;stroke-miterlimit:10;paint-order:markers fill stroke"
       d="m -76.06875,174.56743 -1e-5,-10.65299 -2.27847,-0.94495 4.67083,-2.02317 -4.67083,-2.02316 4.67083,-2.02317 -4.67083,-2.02315 4.67083,-2.02317 -2.39235,-0.75595 v -11.39696"
       id="path105"
       sodipodi:nodetypes="cccccccccc" />
    <path
       style="fill:none;stroke:#000000;stroke-width:0.265112;stroke-linecap:round;stroke-linejoin:round;stroke-miterlimit:10;paint-order:markers fill stroke"
       d="m -76.06875,119.53409 v 21.16666"
       id="path107"
       sodipodi:nodetypes="cc" />
    <circle
       style="fill:#000000;stroke:none;stroke-width:2.64583;stroke-miterlimit:10;paint-order:markers fill stroke"
       id="path125"
       cx="-109.9466"
       cy="140.70078"
       r="0.91878873" />
    <circle
       style="fill:#000000;stroke:none;stroke-width:2.64583;stroke-miterlimit:10;paint-order:markers fill stroke"
       id="circle129"
       cx="-76.056099"
       cy="140.70078"
       r="0.91878873" />
    <path
       style="fill:none;stroke:#ff0000;stroke-width:0.529167;stroke-miterlimit:10;stroke-dasharray:none;marker-end:url(#Arrow1Send);paint-order:markers fill stroke"
       id="path131"
       sodipodi:type="arc"
       sodipodi:cx="-93.002083"
       sodipodi:cy="130.11742"
       sodipodi:rx="6.3499999"
       sodipodi:ry="6.3499999"
       sodipodi:start="3.1415927"
       sodipodi:end="1.5707963"
       sodipodi:arc-type="arc"
       d="m -99.352083,130.11742 a 6.3499999,6.3499999 0 0 1 6.35,-6.35 6.3499999,6.3499999 0 0 1 6.35,6.35 6.3499999,6.3499999 0 0 1 -6.35,6.35"
       sodipodi:open="true" />
    <path
       style="fill:none;stroke:#ff0000;stroke-width:0.529167;stroke-miterlimit:10;stroke-dasharray:none;marker-end:url(#marker1454);paint-order:markers fill stroke"
       id="path1450"
       sodipodi:type="arc"
       sodipodi:cx="-93.002083"
       sodipodi:cy="157.63409"
       sodipodi:rx="6.3499999"
       sodipodi:ry="6.3499999"
       sodipodi:start="3.1415927"
       sodipodi:end="1.5707963"
       sodipodi:arc-type="arc"
       d="m -99.352083,157.63409 a 6.3499999,6.3499999 0 0 1 6.35,-6.35 6.3499999,6.3499999 0 0 1 6.35,6.35 6.3499999,6.3499999 0 0 1 -6.35,6.35"
       sodipodi:open="true" />
    <g
       inkscape:label=""
       transform="matrix(0.46685494,0,0,0.46685494,-144.39481,131.80806)"
       id="g1604">
      <g
         id="g328">
        <g
           style="fill:#000000;fill-opacity:1"
           id="g5269">
          <use
             xlink:href="#symbol5835"
             x="91.925003"
             y="81.962997"
             id="use3476"
             width="100%"
             height="100%" />
        </g>
        <g
           style="fill:#000000;fill-opacity:1"
           id="g3352">
          <use
             xlink:href="#symbol3813"
             x="99.489998"
             y="83.457001"
             id="use340"
             width="100%"
             height="100%" />
        </g>
      </g>
    </g>
    <path
       style="fill:none;stroke:#ff0000;stroke-width:0.529;stroke-miterlimit:10;stroke-dasharray:none;marker-end:url(#marker1634);paint-order:markers fill stroke"
       d="m -109.93542,138.8912 v -6.35"
       id="path1624" />
    <path
       style="fill:none;stroke:#ff0000;stroke-width:0.529;stroke-miterlimit:10;stroke-dasharray:none;marker-end:url(#marker1682);paint-order:markers fill stroke"
       d="m -109.93542,149.71388 v -6.35"
       id="path1678" />
    <path
       style="fill:none;stroke:#ff0000;stroke-width:0.529;stroke-miterlimit:10;stroke-dasharray:none;marker-end:url(#marker1788);paint-order:markers fill stroke"
       d="m -76.06875,142.41943 v 6.35"
       id="path1772" />
    <path
       style="fill:none;stroke:#ff0000;stroke-width:0.529;stroke-miterlimit:10;stroke-dasharray:none;marker-end:url(#marker1778);paint-order:markers fill stroke"
       d="m -76.06875,131.59675 v 6.35"
       id="path1774" />
    <path
       style="fill:none;stroke:#ff0000;stroke-width:0.529;stroke-miterlimit:10;stroke-dasharray:none;marker-end:url(#marker1634-6);paint-order:markers fill stroke"
       d="m -108.46538,140.70076 h 6.35"
       id="path1624-5" />
    <path
       style="fill:none;stroke:#ff0000;stroke-width:0.529;stroke-miterlimit:10;stroke-dasharray:none;marker-end:url(#marker2006);paint-order:markers fill stroke"
       d="m -84.535417,140.70076 h 6.35"
       id="path2002" />
    <g
       inkscape:label=""
       transform="matrix(0.46972935,0,0,0.46972935,-158.63834,107.97882)"
       id="g2231">
      <g
         id="g4693">
        <g
           style="fill:#000000;fill-opacity:1"
           id="g1103">
          <use
             xlink:href="#symbol1849"
             x="91.925003"
             y="81.962997"
             id="use2647"
             width="100%"
             height="100%" />
        </g>
        <g
           style="fill:#000000;fill-opacity:1"
           id="g6747">
          <use
             xlink:href="#symbol2259"
             x="96.305"
             y="83.457001"
             id="use5236"
             width="100%"
             height="100%" />
        </g>
      </g>
    </g>
    <g
       inkscape:label=""
       transform="matrix(0.46997035,0,0,0.46997035,-152.15115,97.136175)"
       id="g2399">
      <g
         id="g2108">
        <g
           style="fill:#000000;fill-opacity:1"
           id="g8650">
          <use
             xlink:href="#symbol2409"
             x="91.925003"
             y="81.962997"
             id="use94"
             width="100%"
             height="100%" />
        </g>
        <g
           style="fill:#000000;fill-opacity:1"
           id="g9057">
          <use
             xlink:href="#symbol1531"
             x="96.305"
             y="83.457001"
             id="use336"
             width="100%"
             height="100%" />
        </g>
      </g>
    </g>
    <g
       inkscape:label=""
       transform="matrix(0.46927722,0,0,0.46927722,-150.18699,106.9124)"
       id="g2582">
      <g
         id="g4388">
        <g
           style="fill:#000000;fill-opacity:1"
           id="g1772">
          <use
             xlink:href="#symbol5797"
             x="91.925003"
             y="81.962997"
             id="use8634"
             width="100%"
             height="100%" />
        </g>
        <g
           style="fill:#000000;fill-opacity:1"
           id="g7285">
          <use
             xlink:href="#symbol9137"
             x="96.305"
             y="83.457001"
             id="use5622"
             width="100%"
             height="100%" />
        </g>
      </g>
    </g>
    <g
       inkscape:label=""
       transform="matrix(0.46785182,0,0,0.46785182,-124.25656,108.13551)"
       id="g2612">
      <g
         id="g2610">
        <g
           style="fill:#000000;fill-opacity:1"
           id="g2604">
          <use
             xlink:href="#symbol1849"
             x="91.925003"
             y="81.962997"
             id="use2602"
             width="100%"
             height="100%" />
        </g>
        <g
           style="fill:#000000;fill-opacity:1"
           id="g2608">
          <use
             xlink:href="#symbol2259"
             x="96.305"
             y="83.457001"
             id="use2606"
             width="100%"
             height="100%" />
        </g>
      </g>
    </g>
    <g
       inkscape:label=""
       transform="matrix(0.46879234,0,0,0.46879234,-117.44119,97.224703)"
       id="g2624">
      <g
         id="g2622">
        <g
           style="fill:#000000;fill-opacity:1"
           id="g2616">
          <use
             xlink:href="#symbol2409"
             x="91.925003"
             y="81.962997"
             id="use2614"
             width="100%"
             height="100%" />
        </g>
        <g
           style="fill:#000000;fill-opacity:1"
           id="g2620">
          <use
             xlink:href="#symbol1531"
             x="96.305"
             y="83.457001"
             id="use2618"
             width="100%"
             height="100%" />
        </g>
      </g>
    </g>
    <g
       inkscape:label=""
       transform="matrix(0.46935987,0,0,0.46935987,-127.00351,100.40049)"
       id="g2636">
      <g
         id="g2634">
        <g
           style="fill:#000000;fill-opacity:1"
           id="g2628">
          <use
             xlink:href="#symbol5797"
             x="91.925003"
             y="81.962997"
             id="use2626"
             width="100%"
             height="100%" />
        </g>
        <g
           style="fill:#000000;fill-opacity:1"
           id="g2632">
          <use
             xlink:href="#symbol9137"
             x="96.305"
             y="83.457001"
             id="use2630"
             width="100%"
             height="100%" />
        </g>
      </g>
    </g>
    <g
       inkscape:label=""
       transform="matrix(0.45494623,0,0,0.45494623,-156.37366,104.49729)"
       id="g376">
      <g
         id="g4166">
        <g
           style="fill:#000000;fill-opacity:1"
           id="g4995">
          <use
             xlink:href="#symbol8564"
             x="91.925003"
             y="81.962997"
             id="use7479"
             width="100%"
             height="100%" />
        </g>
      </g>
    </g>
    <g
       inkscape:label=""
       transform="matrix(0.45494623,0,0,0.45494623,-114.78152,104.49729)"
       id="g589">
      <g
         id="g4017">
        <g
           style="fill:#000000;fill-opacity:1"
           id="g4805">
          <use
             xlink:href="#symbol2419"
             x="91.925003"
             y="81.962997"
             id="use4408"
             width="100%"
             height="100%" />
        </g>
      </g>
    </g>
    <g
       inkscape:label=""
       transform="matrix(0.8148056,0,0,0.8148056,-169.96557,93.759207)"
       id="g811"
       style="fill:#ff0000;stroke:none">
      <g
         id="g1358"
         style="fill:#ff0000;stroke:none">
        <g
           style="fill:#ff0000;fill-opacity:1;stroke:none"
           id="g6675">
          <use
             xlink:href="#symbol8142"
             x="91.925003"
             y="81.962997"
             id="use7568"
             width="100%"
             height="100%"
             style="fill:#ff0000;stroke:none" />
        </g>
      </g>
    </g>
    <g
       inkscape:label=""
       transform="matrix(0.8148056,0,0,0.8148056,-169.92737,66.242529)"
       id="g1042"
       style="fill:#ff0000;stroke:none">
      <g
         id="g9842"
         style="fill:#ff0000;stroke:none">
        <g
           style="fill:#ff0000;fill-opacity:1;stroke:none"
           id="g3253">
          <use
             xlink:href="#symbol5561"
             x="91.925003"
             y="81.962997"
             id="use691"
             width="100%"
             height="100%"
             style="fill:#ff0000;stroke:none" />
        </g>
      </g>
    </g>
  </g>
</svg>
