<?xml version="1.0" encoding="UTF-8" standalone="no"?>
<svg
   xmlns:dc="http://purl.org/dc/elements/1.1/"
   xmlns:cc="http://creativecommons.org/ns#"
   xmlns:rdf="http://www.w3.org/1999/02/22-rdf-syntax-ns#"
   xmlns:svg="http://www.w3.org/2000/svg"
   xmlns="http://www.w3.org/2000/svg"
   xmlns:sodipodi="http://sodipodi.sourceforge.net/DTD/sodipodi-0.dtd"
   xmlns:inkscape="http://www.inkscape.org/namespaces/inkscape"
   width="148.16667mm"
   height="111.125mm"
   viewBox="0 0 148.16667 111.125"
   version="1.1"
   id="svg442"
   inkscape:version="1.0.2 (e86c870879, 2021-01-15)"
   sodipodi:docname="p4.svg"
   inkscape:export-filename="/home/jacobian/Documentos/Laboratorio/FIS200/02. Informe #02/resources/p4.png"
   inkscape:export-xdpi="180"
   inkscape:export-ydpi="180">
  <defs
     id="defs436">
    <clipPath
       clipPathUnits="userSpaceOnUse"
       id="clipPath1-3">
      <path
         d="M 0,0 H 560 V 420 H 0 Z"
         id="path3-6" />
    </clipPath>
    <clipPath
       clipPathUnits="userSpaceOnUse"
       id="clipPath1">
      <path
         d="M 0,0 H 560 V 420 H 0 Z"
         id="path3" />
    </clipPath>
    <clipPath
       clipPathUnits="userSpaceOnUse"
       id="clipPath460">
      <path
         d="M 0,0 H 560 V 420 H 0 Z"
         id="path458" />
    </clipPath>
    <clipPath
       clipPathUnits="userSpaceOnUse"
       id="clipPath269">
      <path
         d="M 0,0 H 560 V 420 H 0 Z"
         id="path267" />
    </clipPath>
    <clipPath
       clipPathUnits="userSpaceOnUse"
       id="clipPath1-3-8">
      <path
         d="M 0,0 H 560 V 420 H 0 Z"
         id="path3-6-8" />
    </clipPath>
    <clipPath
       clipPathUnits="userSpaceOnUse"
       id="clipPath896-1">
      <path
         d="M 0,0 H 560 V 420 H 0 Z"
         id="path894-4" />
    </clipPath>
    <defs
       id="defs1-5-3">
      <clipPath
         clipPathUnits="userSpaceOnUse"
         id="clipPath1346">
        <path
           d="M 0,0 H 560 V 420 H 0 Z"
           id="path1344" />
      </clipPath>
    </defs>
    <clipPath
       clipPathUnits="userSpaceOnUse"
       id="clipPath1-3-4">
      <path
         d="M 0,0 H 560 V 420 H 0 Z"
         id="path3-6-4" />
    </clipPath>
    <clipPath
       clipPathUnits="userSpaceOnUse"
       id="clipPath896-7">
      <path
         d="M 0,0 H 560 V 420 H 0 Z"
         id="path894-6" />
    </clipPath>
    <defs
       id="defs1-5-4">
      <clipPath
         clipPathUnits="userSpaceOnUse"
         id="clipPath1843">
        <path
           d="M 0,0 H 560 V 420 H 0 Z"
           id="path1841" />
      </clipPath>
    </defs>
    <defs
       id="defs1-5">
      <clipPath
         clipPathUnits="userSpaceOnUse"
         id="clipPath896">
        <path
           d="M 0,0 H 560 V 420 H 0 Z"
           id="path894" />
      </clipPath>
    </defs>
    <defs
       id="defs1">
      <clipPath
         clipPathUnits="userSpaceOnUse"
         id="clipPath811">
        <path
           d="M 0,0 H 560 V 420 H 0 Z"
           id="path809" />
      </clipPath>
    </defs>
  </defs>
  <sodipodi:namedview
     id="base"
     pagecolor="#ffffff"
     bordercolor="#666666"
     borderopacity="1.0"
     inkscape:pageopacity="0.0"
     inkscape:pageshadow="2"
     inkscape:zoom="1.4"
     inkscape:cx="475.02274"
     inkscape:cy="192.48582"
     inkscape:document-units="mm"
     inkscape:current-layer="layer1"
     inkscape:document-rotation="0"
     showgrid="false"
     fit-margin-top="0"
     fit-margin-left="0"
     fit-margin-right="0"
     fit-margin-bottom="0"
     inkscape:showpageshadow="false"
     showguides="true"
     inkscape:guide-bbox="true"
     inkscape:window-width="1920"
     inkscape:window-height="1050"
     inkscape:window-x="1920"
     inkscape:window-y="18"
     inkscape:window-maximized="0">
    <sodipodi:guide
       position="19.314584,12.170835"
       orientation="0,-1"
       id="guide1146" />
    <sodipodi:guide
       position="19.314584,12.170835"
       orientation="1,0"
       id="guide1148" />
    <sodipodi:guide
       position="134.14375,12.170835"
       orientation="1,0"
       id="guide1150" />
    <sodipodi:guide
       position="19.314584,102.92292"
       orientation="0,-1"
       id="guide1152" />
  </sodipodi:namedview>
  <metadata
     id="metadata439">
    <rdf:RDF>
      <cc:Work
         rdf:about="">
        <dc:format>image/svg+xml</dc:format>
        <dc:type
           rdf:resource="http://purl.org/dc/dcmitype/StillImage" />
        <dc:title />
      </cc:Work>
    </rdf:RDF>
  </metadata>
  <g
     inkscape:label="curvas"
     inkscape:groupmode="layer"
     id="layer1"
     transform="translate(-313.68795,-90.741409)"
     style="display:inline">
    <circle
       r="1.0583333"
       style="font-style:normal;font-weight:normal;font-size:12px;font-family:Dialog;color-interpolation:linearRGB;fill:none;fill-opacity:1;stroke:#ff0000;stroke-width:0.264583;stroke-linecap:butt;stroke-linejoin:miter;stroke-miterlimit:10;stroke-dasharray:none;stroke-dashoffset:0;stroke-opacity:1;color-rendering:optimizeQuality;image-rendering:optimizeQuality;shape-rendering:auto;text-rendering:geometricPrecision"
       cx="333.00253"
       cy="103.4811"
       id="circle135" />
    <circle
       r="1.0583333"
       style="font-style:normal;font-weight:normal;font-size:12px;font-family:Dialog;color-interpolation:linearRGB;fill:none;fill-opacity:1;stroke:#ff0000;stroke-width:0.264583;stroke-linecap:butt;stroke-linejoin:miter;stroke-miterlimit:10;stroke-dasharray:none;stroke-dashoffset:0;stroke-opacity:1;color-rendering:optimizeQuality;image-rendering:optimizeQuality;shape-rendering:auto;text-rendering:geometricPrecision"
       cx="342.57162"
       cy="115.90506"
       id="circle137" />
    <circle
       r="1.0583333"
       style="font-style:normal;font-weight:normal;font-size:12px;font-family:Dialog;color-interpolation:linearRGB;fill:none;fill-opacity:1;stroke:#ff0000;stroke-width:0.264583;stroke-linecap:butt;stroke-linejoin:miter;stroke-miterlimit:10;stroke-dasharray:none;stroke-dashoffset:0;stroke-opacity:1;color-rendering:optimizeQuality;image-rendering:optimizeQuality;shape-rendering:auto;text-rendering:geometricPrecision"
       cx="352.14072"
       cy="124.62028"
       id="circle139" />
    <circle
       r="1.0583333"
       style="font-style:normal;font-weight:normal;font-size:12px;font-family:Dialog;color-interpolation:linearRGB;fill:none;fill-opacity:1;stroke:#ff0000;stroke-width:0.264583;stroke-linecap:butt;stroke-linejoin:miter;stroke-miterlimit:10;stroke-dasharray:none;stroke-dashoffset:0;stroke-opacity:1;color-rendering:optimizeQuality;image-rendering:optimizeQuality;shape-rendering:auto;text-rendering:geometricPrecision"
       cx="361.70981"
       cy="130.77933"
       id="circle141" />
    <circle
       r="1.0583333"
       style="font-style:normal;font-weight:normal;font-size:12px;font-family:Dialog;color-interpolation:linearRGB;fill:none;fill-opacity:1;stroke:#ff0000;stroke-width:0.264583;stroke-linecap:butt;stroke-linejoin:miter;stroke-miterlimit:10;stroke-dasharray:none;stroke-dashoffset:0;stroke-opacity:1;color-rendering:optimizeQuality;image-rendering:optimizeQuality;shape-rendering:auto;text-rendering:geometricPrecision"
       cx="371.27893"
       cy="136.08531"
       id="circle143" />
    <circle
       r="1.0583333"
       style="font-style:normal;font-weight:normal;font-size:12px;font-family:Dialog;color-interpolation:linearRGB;fill:none;fill-opacity:1;stroke:#ff0000;stroke-width:0.264583;stroke-linecap:butt;stroke-linejoin:miter;stroke-miterlimit:10;stroke-dasharray:none;stroke-dashoffset:0;stroke-opacity:1;color-rendering:optimizeQuality;image-rendering:optimizeQuality;shape-rendering:auto;text-rendering:geometricPrecision"
       cx="380.84802"
       cy="141.50925"
       id="circle145" />
    <circle
       r="1.0583333"
       style="font-style:normal;font-weight:normal;font-size:12px;font-family:Dialog;color-interpolation:linearRGB;fill:none;fill-opacity:1;stroke:#ff0000;stroke-width:0.264583;stroke-linecap:butt;stroke-linejoin:miter;stroke-miterlimit:10;stroke-dasharray:none;stroke-dashoffset:0;stroke-opacity:1;color-rendering:optimizeQuality;image-rendering:optimizeQuality;shape-rendering:auto;text-rendering:geometricPrecision"
       cx="390.41711"
       cy="146.44615"
       id="circle147" />
    <circle
       r="1.0583333"
       style="font-style:normal;font-weight:normal;font-size:12px;font-family:Dialog;color-interpolation:linearRGB;fill:none;fill-opacity:1;stroke:#ff0000;stroke-width:0.264583;stroke-linecap:butt;stroke-linejoin:miter;stroke-miterlimit:10;stroke-dasharray:none;stroke-dashoffset:0;stroke-opacity:1;color-rendering:optimizeQuality;image-rendering:optimizeQuality;shape-rendering:auto;text-rendering:geometricPrecision"
       cx="399.98621"
       cy="151.51617"
       id="circle149" />
    <circle
       r="1.0583333"
       style="font-style:normal;font-weight:normal;font-size:12px;font-family:Dialog;color-interpolation:linearRGB;fill:none;fill-opacity:1;stroke:#ff0000;stroke-width:0.264583;stroke-linecap:butt;stroke-linejoin:miter;stroke-miterlimit:10;stroke-dasharray:none;stroke-dashoffset:0;stroke-opacity:1;color-rendering:optimizeQuality;image-rendering:optimizeQuality;shape-rendering:auto;text-rendering:geometricPrecision"
       cx="409.5553"
       cy="157.38783"
       id="circle151" />
    <circle
       r="1.0583333"
       style="font-style:normal;font-weight:normal;font-size:12px;font-family:Dialog;color-interpolation:linearRGB;fill:none;fill-opacity:1;stroke:#ff0000;stroke-width:0.264583;stroke-linecap:butt;stroke-linejoin:miter;stroke-miterlimit:10;stroke-dasharray:none;stroke-dashoffset:0;stroke-opacity:1;color-rendering:optimizeQuality;image-rendering:optimizeQuality;shape-rendering:auto;text-rendering:geometricPrecision"
       cx="419.12439"
       cy="163.46217"
       id="circle153" />
    <circle
       r="1.0583333"
       style="font-style:normal;font-weight:normal;font-size:12px;font-family:Dialog;color-interpolation:linearRGB;fill:none;fill-opacity:1;stroke:#ff0000;stroke-width:0.264583;stroke-linecap:butt;stroke-linejoin:miter;stroke-miterlimit:10;stroke-dasharray:none;stroke-dashoffset:0;stroke-opacity:1;color-rendering:optimizeQuality;image-rendering:optimizeQuality;shape-rendering:auto;text-rendering:geometricPrecision"
       cx="428.69351"
       cy="172.02615"
       id="circle155" />
    <circle
       r="1.0583333"
       style="font-style:normal;font-weight:normal;font-size:12px;font-family:Dialog;color-interpolation:linearRGB;fill:none;fill-opacity:1;stroke:#ff0000;stroke-width:0.264583;stroke-linecap:butt;stroke-linejoin:miter;stroke-miterlimit:10;stroke-dasharray:none;stroke-dashoffset:0;stroke-opacity:1;color-rendering:optimizeQuality;image-rendering:optimizeQuality;shape-rendering:auto;text-rendering:geometricPrecision"
       cx="438.2626"
       cy="183.34293"
       id="circle157" />
    <path
       d="m 333.00253,103.4811 0.38405,0.57054 0.38404,0.56552 0.38404,0.56034 0.38404,0.55502 0.38405,0.54959 0.38404,0.54403 0.38404,0.53838 0.38404,0.53253 0.38405,0.52662 0.38407,0.52054 0.38404,0.51438 0.38404,0.50803 0.38404,0.50162 0.38405,0.49503 0.38404,0.48835 0.38404,0.48154 0.38405,0.47458 0.38404,0.46752 0.38404,0.46032 0.38404,0.45299 0.38405,0.44556 0.38404,0.43797 0.38404,0.43026 0.38404,0.42244 0.38405,0.41449 0.38404,0.40823 0.38404,0.4032 0.38405,0.3982 0.38404,0.39319 0.38407,0.38823 0.38404,0.38327 0.38404,0.3783 0.38405,0.37338 0.38404,0.36846 0.38404,0.36351 0.38404,0.35865 0.38405,0.35372 0.38404,0.34885 0.38404,0.34398 0.38404,0.33912 0.38405,0.3343 0.38404,0.32943 0.38404,0.32465 0.38404,0.31983 0.38405,0.31504 0.38404,0.31025 0.38404,0.30548 0.38405,0.3007 0.38404,0.29599 0.38407,0.29123 0.38401,0.28617 0.38407,0.2811 0.38405,0.27625 0.38404,0.27165 0.38404,0.26728 0.38404,0.26313 0.38405,0.25923 0.38404,0.25554 0.38404,0.25212 0.38404,0.24889 0.38405,0.24593 0.38404,0.24318 0.38404,0.24067 0.38405,0.23839 0.38404,0.23635 0.38404,0.23453 0.38404,0.23296 0.38405,0.23159 0.38404,0.23051 0.38407,0.2296 0.38404,0.22897 0.38404,0.22855 0.38405,0.22836 0.38404,0.22842 0.38404,0.2286 0.38404,0.2268 0.38405,0.22428 0.38404,0.22194 0.38404,0.21981 0.38405,0.21781 0.38404,0.216 0.38404,0.21437 0.38404,0.21291 0.38405,0.21161 0.38404,0.21053 0.38404,0.20958 0.38404,0.20886 0.38405,0.20825 0.38404,0.20786 0.38407,0.20762 0.38404,0.20759 0.38404,0.2077 0.38405,0.20799 0.38404,0.20849 0.38404,0.20913 0.38404,0.20994 0.38405,0.21098 0.38404,0.21212 0.38404,0.21352 0.38405,0.21497 0.38404,0.21627 0.38404,0.21728 0.38404,0.21823 0.38405,0.21899 0.38404,0.21968 0.38404,0.22024 0.38404,0.22069 0.38405,0.22098 0.38407,0.22117 0.38401,0.22124 0.38407,0.22119 0.38402,0.22101 0.38407,0.22072 0.38404,0.22026 0.38404,0.21976 0.38405,0.21908 0.38404,0.21828 0.38404,0.21738 0.38404,0.21635 0.38405,0.21521 0.38404,0.21392 0.38404,0.21251 0.38404,0.21101 0.38405,0.20936 0.38404,0.20762 0.38404,0.20593 0.38407,0.20439 0.38402,0.20299 0.38404,0.20164 0.38404,0.20047 0.38407,0.19936 0.38405,0.19844 0.38404,0.19754 0.38404,0.19685 0.38404,0.19619 0.38405,0.19571 0.38404,0.19532 0.38404,0.19505 0.38404,0.19489 0.38405,0.19484 0.38404,0.19492 0.38404,0.1951 0.38404,0.19542 0.38405,0.19582 0.38404,0.19637 0.38404,0.19701 0.38405,0.1978 0.38406,0.19865 0.38405,0.19968 0.38401,0.20053 0.38405,0.20008 0.38407,0.19947 0.38404,0.19905 0.38404,0.19864 0.38404,0.19847 0.38405,0.19833 0.38404,0.19831 0.38404,0.19846 0.38404,0.1987 0.38405,0.19905 0.38404,0.19952 0.38404,0.20013 0.38405,0.20082 0.38404,0.20166 0.38404,0.20262 0.38404,0.20368 0.38405,0.20487 0.38404,0.20616 0.38407,0.20756 0.38404,0.20913 0.38404,0.21077 0.38402,0.21254 0.38407,0.21444 0.38404,0.21646 0.38404,0.2186 0.38405,0.22098 0.38404,0.2232 0.38404,0.22532 0.38405,0.22733 0.38404,0.22918 0.38404,0.2309 0.38404,0.23255 0.38405,0.23399 0.38404,0.23535 0.38404,0.23659 0.38404,0.23768 0.38407,0.23862 0.38405,0.23948 0.38401,0.24016 0.38404,0.24077 0.38407,0.24122 0.38405,0.24154 0.38401,0.24172 0.38407,0.24181 0.38404,0.24174 0.38405,0.24157 0.38404,0.24122 0.38404,0.2408 0.38405,0.24021 0.38404,0.23913 0.38404,0.23681 0.38404,0.23473 0.38405,0.23302 0.38404,0.2317 0.38404,0.23074 0.38404,0.23008 0.38405,0.22985 0.38407,0.22992 0.38404,0.2304 0.38404,0.23122 0.38402,0.23241 0.38407,0.23397 0.38404,0.23585 0.38404,0.23812 0.38405,0.24075 0.38404,0.24373 0.38404,0.2471 0.38404,0.25077 0.38405,0.25487 0.38404,0.25929 0.38404,0.26408 0.38404,0.26924 0.38405,0.27475 0.38404,0.28064 0.38404,0.2866 0.38405,0.29212 0.38404,0.2975 0.38404,0.30276 0.38407,0.30795 0.38404,0.313 0.38405,0.31798 0.38401,0.32282 0.38407,0.32758 0.38404,0.33221 0.38405,0.33676 0.38404,0.34121 0.38404,0.34552 0.38404,0.34975 0.38405,0.35388 0.38404,0.35788 0.38404,0.36181 0.38404,0.3656 0.38405,0.36931 0.38404,0.3729 0.38404,0.3764 0.38405,0.37976 0.38404,0.38306 0.38404,0.38624 0.38407,0.38931 0.38404,0.39319 0.38405,0.39878 0.38404,0.40431 0.38404,0.40976 0.38404,0.41514 0.38405,0.42042 0.38404,0.42569 0.38404,0.43082 0.38404,0.4359 0.38405,0.44093 0.38404,0.44585 0.38404,0.45071 0.38405,0.45551 0.38404,0.46022 0.38404,0.46484 0.38404,0.46943 0.38405,0.47389 0.38404,0.47834 0.38404,0.48266 0.38407,0.48696 0.38404,0.49112 0.38402,0.49527 0.38407,0.4993 0.38404,0.50329 0.38404,0.50718 0.38405,0.51102 0.38404,0.51474 0.38404,0.51845 0.38405,0.52203 0.38404,0.52559 0.38404,0.52904 0.38404,0.53239 0.38405,0.53573 0.38404,0.53895 0.38404,0.54214 0.38404,0.5452 0.38405,0.54821 0.0296,0.0424"
       style="font-style:normal;font-weight:normal;font-size:12px;font-family:Dialog;color-interpolation:linearRGB;fill:none;fill-opacity:1;fill-rule:evenodd;stroke:#ff0000;stroke-width:0.176398;stroke-linecap:butt;stroke-linejoin:round;stroke-miterlimit:10;stroke-dasharray:none;stroke-dashoffset:0;stroke-opacity:1;color-rendering:optimizeQuality;image-rendering:optimizeQuality;shape-rendering:auto;text-rendering:geometricPrecision"
       id="path161" />
    <circle
       r="1.0583333"
       style="font-style:normal;font-weight:normal;font-size:12px;font-family:Dialog;color-interpolation:linearRGB;fill:none;fill-opacity:1;stroke:#0000ff;stroke-width:0.264583;stroke-linecap:butt;stroke-linejoin:miter;stroke-miterlimit:10;stroke-dasharray:none;stroke-dashoffset:0;stroke-opacity:1;color-rendering:optimizeQuality;image-rendering:optimizeQuality;shape-rendering:auto;text-rendering:geometricPrecision"
       cx="438.2626"
       cy="103.4811"
       id="circle135-7" />
    <circle
       r="1.0583333"
       style="font-style:normal;font-weight:normal;font-size:12px;font-family:Dialog;color-interpolation:linearRGB;fill:none;fill-opacity:1;stroke:#0000ff;stroke-width:0.264583;stroke-linecap:butt;stroke-linejoin:miter;stroke-miterlimit:10;stroke-dasharray:none;stroke-dashoffset:0;stroke-opacity:1;color-rendering:optimizeQuality;image-rendering:optimizeQuality;shape-rendering:auto;text-rendering:geometricPrecision"
       cx="428.69348"
       cy="115.90506"
       id="circle137-4" />
    <circle
       r="1.0583333"
       style="font-style:normal;font-weight:normal;font-size:12px;font-family:Dialog;color-interpolation:linearRGB;fill:none;fill-opacity:1;stroke:#0000ff;stroke-width:0.264583;stroke-linecap:butt;stroke-linejoin:miter;stroke-miterlimit:10;stroke-dasharray:none;stroke-dashoffset:0;stroke-opacity:1;color-rendering:optimizeQuality;image-rendering:optimizeQuality;shape-rendering:auto;text-rendering:geometricPrecision"
       cx="419.12439"
       cy="124.62028"
       id="circle139-5" />
    <circle
       r="1.0583333"
       style="font-style:normal;font-weight:normal;font-size:12px;font-family:Dialog;color-interpolation:linearRGB;fill:none;fill-opacity:1;stroke:#0000ff;stroke-width:0.264583;stroke-linecap:butt;stroke-linejoin:miter;stroke-miterlimit:10;stroke-dasharray:none;stroke-dashoffset:0;stroke-opacity:1;color-rendering:optimizeQuality;image-rendering:optimizeQuality;shape-rendering:auto;text-rendering:geometricPrecision"
       cx="409.5553"
       cy="130.77933"
       id="circle141-2" />
    <circle
       r="1.0583333"
       style="font-style:normal;font-weight:normal;font-size:12px;font-family:Dialog;color-interpolation:linearRGB;fill:none;fill-opacity:1;stroke:#0000ff;stroke-width:0.264583;stroke-linecap:butt;stroke-linejoin:miter;stroke-miterlimit:10;stroke-dasharray:none;stroke-dashoffset:0;stroke-opacity:1;color-rendering:optimizeQuality;image-rendering:optimizeQuality;shape-rendering:auto;text-rendering:geometricPrecision"
       cx="399.98618"
       cy="136.08531"
       id="circle143-5" />
    <circle
       r="1.0583333"
       style="font-style:normal;font-weight:normal;font-size:12px;font-family:Dialog;color-interpolation:linearRGB;fill:none;fill-opacity:1;stroke:#0000ff;stroke-width:0.264583;stroke-linecap:butt;stroke-linejoin:miter;stroke-miterlimit:10;stroke-dasharray:none;stroke-dashoffset:0;stroke-opacity:1;color-rendering:optimizeQuality;image-rendering:optimizeQuality;shape-rendering:auto;text-rendering:geometricPrecision"
       cx="390.41711"
       cy="141.50925"
       id="circle145-4" />
    <circle
       r="1.0583333"
       style="font-style:normal;font-weight:normal;font-size:12px;font-family:Dialog;color-interpolation:linearRGB;fill:none;fill-opacity:1;stroke:#0000ff;stroke-width:0.264583;stroke-linecap:butt;stroke-linejoin:miter;stroke-miterlimit:10;stroke-dasharray:none;stroke-dashoffset:0;stroke-opacity:1;color-rendering:optimizeQuality;image-rendering:optimizeQuality;shape-rendering:auto;text-rendering:geometricPrecision"
       cx="380.84802"
       cy="146.44615"
       id="circle147-7" />
    <circle
       r="1.0583333"
       style="font-style:normal;font-weight:normal;font-size:12px;font-family:Dialog;color-interpolation:linearRGB;fill:none;fill-opacity:1;stroke:#0000ff;stroke-width:0.264583;stroke-linecap:butt;stroke-linejoin:miter;stroke-miterlimit:10;stroke-dasharray:none;stroke-dashoffset:0;stroke-opacity:1;color-rendering:optimizeQuality;image-rendering:optimizeQuality;shape-rendering:auto;text-rendering:geometricPrecision"
       cx="371.2789"
       cy="151.51617"
       id="circle149-4" />
    <circle
       r="1.0583333"
       style="font-style:normal;font-weight:normal;font-size:12px;font-family:Dialog;color-interpolation:linearRGB;fill:none;fill-opacity:1;stroke:#0000ff;stroke-width:0.264583;stroke-linecap:butt;stroke-linejoin:miter;stroke-miterlimit:10;stroke-dasharray:none;stroke-dashoffset:0;stroke-opacity:1;color-rendering:optimizeQuality;image-rendering:optimizeQuality;shape-rendering:auto;text-rendering:geometricPrecision"
       cx="361.70981"
       cy="157.38783"
       id="circle151-4" />
    <circle
       r="1.0583333"
       style="font-style:normal;font-weight:normal;font-size:12px;font-family:Dialog;color-interpolation:linearRGB;fill:none;fill-opacity:1;stroke:#0000ff;stroke-width:0.264583;stroke-linecap:butt;stroke-linejoin:miter;stroke-miterlimit:10;stroke-dasharray:none;stroke-dashoffset:0;stroke-opacity:1;color-rendering:optimizeQuality;image-rendering:optimizeQuality;shape-rendering:auto;text-rendering:geometricPrecision"
       cx="352.14072"
       cy="163.46217"
       id="circle153-3" />
    <circle
       r="1.0583333"
       style="font-style:normal;font-weight:normal;font-size:12px;font-family:Dialog;color-interpolation:linearRGB;fill:none;fill-opacity:1;stroke:#0000ff;stroke-width:0.264583;stroke-linecap:butt;stroke-linejoin:miter;stroke-miterlimit:10;stroke-dasharray:none;stroke-dashoffset:0;stroke-opacity:1;color-rendering:optimizeQuality;image-rendering:optimizeQuality;shape-rendering:auto;text-rendering:geometricPrecision"
       cx="342.57162"
       cy="172.02615"
       id="circle155-0" />
    <circle
       r="1.0583333"
       style="font-style:normal;font-weight:normal;font-size:12px;font-family:Dialog;color-interpolation:linearRGB;fill:none;fill-opacity:1;stroke:#0000ff;stroke-width:0.264583;stroke-linecap:butt;stroke-linejoin:miter;stroke-miterlimit:10;stroke-dasharray:none;stroke-dashoffset:0;stroke-opacity:1;color-rendering:optimizeQuality;image-rendering:optimizeQuality;shape-rendering:auto;text-rendering:geometricPrecision"
       cx="333.00253"
       cy="183.34293"
       id="circle157-7" />
    <path
       d="m 333.00253,183.34293 0.38405,-0.5075 0.38404,-0.50361 0.38404,-0.49964 0.38404,-0.49561 0.38405,-0.49149 0.38404,-0.48729 0.38404,-0.48302 0.38404,-0.47868 0.38405,-0.4743 0.38407,-0.46979 0.38404,-0.46524 0.38404,-0.46062 0.38404,-0.45587 0.38405,-0.45114 0.38404,-0.44625 0.38404,-0.44133 0.38405,-0.43632 0.38404,-0.43127 0.38404,-0.42609 0.38404,-0.4209 0.38405,-0.41555 0.38404,-0.41021 0.38404,-0.40476 0.38404,-0.39926 0.38405,-0.39364 0.38404,-0.38955 0.38404,-0.3865 0.38405,-0.38333 0.38404,-0.38005 0.38407,-0.37669 0.38404,-0.37319 0.38404,-0.3696 0.38405,-0.36592 0.38404,-0.36213 0.38404,-0.35819 0.38404,-0.35423 0.38405,-0.35009 0.38404,-0.34589 0.38404,-0.34155 0.38404,-0.33714 0.38405,-0.3326 0.38404,-0.32798 0.38404,-0.32322 0.38404,-0.31837 0.38405,-0.31345 0.38404,-0.30835 0.38404,-0.30321 0.38405,-0.29795 0.38404,-0.29257 0.38407,-0.28708 0.38401,-0.28114 0.38407,-0.27522 0.38405,-0.26967 0.38404,-0.2645 0.38404,-0.25969 0.38404,-0.25521 0.38405,-0.25112 0.38404,-0.24739 0.38404,-0.244 0.38404,-0.24098 0.38405,-0.23833 0.38404,-0.23604 0.38404,-0.23408 0.38405,-0.23251 0.38404,-0.23133 0.38404,-0.23045 0.38404,-0.22995 0.38405,-0.22984 0.38404,-0.23006 0.38407,-0.23066 0.38404,-0.23159 0.38404,-0.23291 0.38405,-0.23458 0.38404,-0.23662 0.38404,-0.23894 0.38404,-0.24017 0.38405,-0.24077 0.38404,-0.24119 0.38404,-0.24154 0.38405,-0.24172 0.38404,-0.24181 0.38404,-0.24175 0.38404,-0.24156 0.38405,-0.24125 0.38404,-0.2408 0.38404,-0.24024 0.38404,-0.23952 0.38405,-0.23871 0.38404,-0.23776 0.38407,-0.23667 0.38404,-0.23545 0.38404,-0.23413 0.38405,-0.23265 0.38404,-0.23106 0.38404,-0.22934 0.38404,-0.22746 0.38405,-0.2255 0.38404,-0.22339 0.38404,-0.22117 0.38405,-0.21881 0.38404,-0.21661 0.38404,-0.21461 0.38404,-0.21269 0.38405,-0.21093 0.38404,-0.20923 0.38404,-0.20773 0.38404,-0.20627 0.38405,-0.20497 0.38407,-0.20375 0.38401,-0.2027 0.38407,-0.20175 0.38402,-0.20089 0.38407,-0.20016 0.38404,-0.19958 0.38404,-0.1991 0.38405,-0.19872 0.38404,-0.19847 0.38404,-0.19833 0.38404,-0.19833 0.38405,-0.19841 0.38404,-0.19865 0.38404,-0.199 0.38404,-0.19944 0.38405,-0.20002 0.38404,-0.20056 0.38404,-0.19973 0.38407,-0.19876 0.38402,-0.19785 0.38404,-0.19709 0.38404,-0.1964 0.38407,-0.19587 0.38405,-0.19545 0.38404,-0.19513 0.38404,-0.19492 0.38404,-0.19486 0.38405,-0.19487 0.38404,-0.19502 0.38404,-0.19529 0.38404,-0.19566 0.38405,-0.19619 0.38404,-0.19677 0.38404,-0.19749 0.38404,-0.19833 0.38405,-0.19931 0.38404,-0.20034 0.38404,-0.20156 0.38405,-0.20286 0.38406,-0.20428 0.38405,-0.20579 0.38401,-0.20749 0.38405,-0.20921 0.38407,-0.21087 0.38404,-0.21241 0.38404,-0.21381 0.38404,-0.21508 0.38405,-0.21627 0.38404,-0.2173 0.38404,-0.2182 0.38404,-0.21902 0.38405,-0.21971 0.38404,-0.22024 0.38404,-0.22066 0.38405,-0.22101 0.38404,-0.22117 0.38404,-0.22124 0.38404,-0.22119 0.38405,-0.22101 0.38404,-0.22069 0.38407,-0.22029 0.38404,-0.21974 0.38404,-0.21907 0.38402,-0.21828 0.38407,-0.21736 0.38404,-0.21635 0.38404,-0.21513 0.38405,-0.2136 0.38404,-0.21225 0.38404,-0.21105 0.38405,-0.21003 0.38404,-0.20921 0.38404,-0.20852 0.38404,-0.20804 0.38405,-0.20772 0.38404,-0.20757 0.38404,-0.20762 0.38404,-0.20783 0.38407,-0.20822 0.38405,-0.20879 0.38401,-0.20952 0.38404,-0.21042 0.38407,-0.21154 0.38405,-0.2128 0.38401,-0.21423 0.38407,-0.21585 0.38404,-0.21767 0.38405,-0.21961 0.38404,-0.22177 0.38404,-0.22408 0.38405,-0.22659 0.38404,-0.22857 0.38404,-0.22842 0.38404,-0.22836 0.38405,-0.22852 0.38404,-0.22892 0.38404,-0.22955 0.38404,-0.2304 0.38405,-0.23151 0.38407,-0.23283 0.38404,-0.23439 0.38404,-0.2362 0.38402,-0.2382 0.38407,-0.24048 0.38404,-0.24294 0.38404,-0.2457 0.38405,-0.24865 0.38404,-0.25183 0.38404,-0.25524 0.38404,-0.25893 0.38405,-0.26281 0.38404,-0.26691 0.38404,-0.27128 0.38404,-0.27585 0.38405,-0.2807 0.38404,-0.28572 0.38404,-0.29083 0.38405,-0.29557 0.38404,-0.30032 0.38404,-0.3051 0.38407,-0.30985 0.38404,-0.31464 0.38405,-0.31943 0.38401,-0.32422 0.38407,-0.32907 0.38404,-0.33387 0.38405,-0.33872 0.38404,-0.34359 0.38404,-0.34843 0.38404,-0.35333 0.38405,-0.35821 0.38404,-0.36312 0.38404,-0.36803 0.38404,-0.37299 0.38405,-0.37788 0.38404,-0.38285 0.38404,-0.38782 0.38405,-0.3928 0.38404,-0.39778 0.38404,-0.40277 0.38407,-0.40781 0.38404,-0.41386 0.38405,-0.42177 0.38404,-0.42963 0.38404,-0.43733 0.38404,-0.44492 0.38405,-0.45239 0.38404,-0.45971 0.38404,-0.46691 0.38404,-0.474 0.38405,-0.48096 0.38404,-0.48779 0.38404,-0.49448 0.38405,-0.50107 0.38404,-0.50752 0.38404,-0.51385 0.38404,-0.52003 0.38405,-0.5261 0.38404,-0.53208 0.38404,-0.53787 0.38407,-0.54356 0.38404,-0.54914 0.38402,-0.55457 0.38407,-0.55991 0.38404,-0.56507 0.38404,-0.57015 0.38405,-0.57507 0.38404,-0.57989 0.38404,-0.58457 0.38405,-0.58915 0.38404,-0.59354 0.38404,-0.59788 0.38404,-0.602058 0.30036,-0.474001"
       style="font-style:normal;font-weight:normal;font-size:12px;font-family:Dialog;color-interpolation:linearRGB;fill:none;fill-opacity:1;fill-rule:evenodd;stroke:#0000ff;stroke-width:0.176398;stroke-linecap:butt;stroke-linejoin:round;stroke-miterlimit:10;stroke-dasharray:none;stroke-dashoffset:0;stroke-opacity:1;color-rendering:optimizeQuality;image-rendering:optimizeQuality;shape-rendering:auto;text-rendering:geometricPrecision"
       id="path161-6" />
  </g>
  <g
     inkscape:groupmode="layer"
     id="layer2"
     inkscape:label="ejes"
     style="display:inline">
    <line
       y2="98.954163"
       style="font-style:normal;font-weight:normal;font-size:12px;font-family:Dialog;color-interpolation:linearRGB;fill:none;fill-opacity:1;stroke:#262626;stroke-width:0.176398;stroke-linecap:square;stroke-linejoin:round;stroke-miterlimit:10;stroke-dasharray:none;stroke-dashoffset:0;stroke-opacity:1;color-rendering:optimizeQuality;image-rendering:optimizeQuality;shape-rendering:auto;text-rendering:geometricPrecision"
       x1="19.314583"
       x2="134.14375"
       y1="98.954163"
       id="line17-2-2" />
    <line
       y2="97.805878"
       style="font-style:normal;font-weight:normal;font-size:12px;font-family:Dialog;color-interpolation:linearRGB;fill:none;fill-opacity:1;stroke:#262626;stroke-width:0.176398;stroke-linecap:square;stroke-linejoin:round;stroke-miterlimit:10;stroke-dasharray:none;stroke-dashoffset:0;stroke-opacity:1;color-rendering:optimizeQuality;image-rendering:optimizeQuality;shape-rendering:auto;text-rendering:geometricPrecision"
       x1="19.314583"
       x2="19.314583"
       y1="98.954163"
       id="line19-7-6" />
    <line
       y2="97.805878"
       style="font-style:normal;font-weight:normal;font-size:12px;font-family:Dialog;color-interpolation:linearRGB;fill:none;fill-opacity:1;stroke:#262626;stroke-width:0.176398;stroke-linecap:square;stroke-linejoin:round;stroke-miterlimit:10;stroke-dasharray:none;stroke-dashoffset:0;stroke-opacity:1;color-rendering:optimizeQuality;image-rendering:optimizeQuality;shape-rendering:auto;text-rendering:geometricPrecision"
       x1="38.452766"
       x2="38.452766"
       y1="98.954163"
       id="line21-0-6" />
    <line
       y2="97.805878"
       style="font-style:normal;font-weight:normal;font-size:12px;font-family:Dialog;color-interpolation:linearRGB;fill:none;fill-opacity:1;stroke:#262626;stroke-width:0.176398;stroke-linecap:square;stroke-linejoin:round;stroke-miterlimit:10;stroke-dasharray:none;stroke-dashoffset:0;stroke-opacity:1;color-rendering:optimizeQuality;image-rendering:optimizeQuality;shape-rendering:auto;text-rendering:geometricPrecision"
       x1="57.590981"
       x2="57.590981"
       y1="98.954163"
       id="line23-9-4" />
    <line
       y2="97.805878"
       style="font-style:normal;font-weight:normal;font-size:12px;font-family:Dialog;color-interpolation:linearRGB;fill:none;fill-opacity:1;stroke:#262626;stroke-width:0.176398;stroke-linecap:square;stroke-linejoin:round;stroke-miterlimit:10;stroke-dasharray:none;stroke-dashoffset:0;stroke-opacity:1;color-rendering:optimizeQuality;image-rendering:optimizeQuality;shape-rendering:auto;text-rendering:geometricPrecision"
       x1="76.729164"
       x2="76.729164"
       y1="98.954163"
       id="line25-3-9" />
    <line
       y2="97.805878"
       style="font-style:normal;font-weight:normal;font-size:12px;font-family:Dialog;color-interpolation:linearRGB;fill:none;fill-opacity:1;stroke:#262626;stroke-width:0.176398;stroke-linecap:square;stroke-linejoin:round;stroke-miterlimit:10;stroke-dasharray:none;stroke-dashoffset:0;stroke-opacity:1;color-rendering:optimizeQuality;image-rendering:optimizeQuality;shape-rendering:auto;text-rendering:geometricPrecision"
       x1="95.867355"
       x2="95.867355"
       y1="98.954163"
       id="line27-6-5" />
    <line
       y2="97.805878"
       style="font-style:normal;font-weight:normal;font-size:12px;font-family:Dialog;color-interpolation:linearRGB;fill:none;fill-opacity:1;stroke:#262626;stroke-width:0.176398;stroke-linecap:square;stroke-linejoin:round;stroke-miterlimit:10;stroke-dasharray:none;stroke-dashoffset:0;stroke-opacity:1;color-rendering:optimizeQuality;image-rendering:optimizeQuality;shape-rendering:auto;text-rendering:geometricPrecision"
       x1="115.00556"
       x2="115.00556"
       y1="98.954163"
       id="line29-0-0" />
    <line
       y2="97.805878"
       style="font-style:normal;font-weight:normal;font-size:12px;font-family:Dialog;color-interpolation:linearRGB;fill:none;fill-opacity:1;stroke:#262626;stroke-width:0.176398;stroke-linecap:square;stroke-linejoin:round;stroke-miterlimit:10;stroke-dasharray:none;stroke-dashoffset:0;stroke-opacity:1;color-rendering:optimizeQuality;image-rendering:optimizeQuality;shape-rendering:auto;text-rendering:geometricPrecision"
       x1="134.14375"
       x2="134.14375"
       y1="98.954163"
       id="line31-6-4" />
    <path
       style="font-style:normal;font-weight:normal;font-size:13.3333px;font-family:SansSerif;color-interpolation:linearRGB;fill:#262626;fill-opacity:1;stroke:none;stroke-width:0.264583;stroke-linecap:square;stroke-linejoin:miter;stroke-miterlimit:10;stroke-dasharray:none;stroke-dashoffset:0;stroke-opacity:1;color-rendering:optimizeQuality;image-rendering:optimizeQuality;shape-rendering:auto;text-rendering:geometricPrecision"
       d="m 19.062409,103.78004 v 0.2894 h -1.628855 q -0.0041,-0.10748 0.0372,-0.21085 0.06202,-0.16536 0.198437,-0.32658 0.136446,-0.16123 0.396875,-0.37208 0.401029,-0.33073 0.541576,-0.52297 0.140573,-0.19222 0.140573,-0.36172 0,-0.18192 -0.128164,-0.30387 -0.128164,-0.12195 -0.334857,-0.12195 -0.219128,0 -0.349329,0.13023 -0.130228,0.13023 -0.134382,0.36174 l -0.310039,-0.0331 q 0.03307,-0.3473 0.239766,-0.52917 0.206718,-0.18193 0.558112,-0.18193 0.355547,0 0.562239,0.19638 0.206693,0.19637 0.206693,0.48577 0,0.14883 -0.05993,0.29144 -0.05995,0.14264 -0.200502,0.30181 -0.140573,0.15915 -0.467174,0.43201 -0.272839,0.22738 -0.34933,0.31004 -0.07646,0.0827 -0.126074,0.16537 z m 0.371422,-0.92605 q 0,-0.43407 0.08887,-0.70072 0.08887,-0.26665 0.266647,-0.41135 0.177774,-0.1447 0.446485,-0.1447 0.198437,0 0.347265,0.0806 0.148828,0.0806 0.245983,0.22945 0.09715,0.14883 0.152956,0.36586 0.05583,0.21704 0.05583,0.58084 0,0.43411 -0.0889,0.70075 -0.08887,0.26665 -0.266647,0.41135 -0.177773,0.14467 -0.446484,0.14467 -0.355521,0 -0.56224,-0.2563 -0.239765,-0.30594 -0.239765,-1.00047 z m 0.310038,0 q 0,0.60773 0.140574,0.80823 0.140546,0.20052 0.351393,0.20052 0.206719,0 0.349329,-0.20052 0.142637,-0.2005 0.142637,-0.80823 0,-0.60769 -0.142637,-0.80613 -0.14261,-0.19844 -0.353457,-0.19844 -0.206719,0 -0.334856,0.17362 -0.152983,0.22739 -0.152983,0.83095 z"
       id="path35-6-7" />
    <path
       style="font-style:normal;font-weight:normal;font-size:13.3333px;font-family:SansSerif;color-interpolation:linearRGB;fill:#262626;fill-opacity:1;stroke:none;stroke-width:0.264583;stroke-linecap:square;stroke-linejoin:miter;stroke-miterlimit:10;stroke-dasharray:none;stroke-dashoffset:0;stroke-opacity:1;color-rendering:optimizeQuality;image-rendering:optimizeQuality;shape-rendering:auto;text-rendering:geometricPrecision"
       d="m 37.580463,104.06944 v -0.59119 h -1.066588 v -0.27696 L 37.6342,101.6055 h 0.248073 v 1.59579 h 0.334857 v 0.27696 h -0.334857 v 0.59119 z m 0,-0.86815 v -1.10797 l -0.773086,1.10797 z m 0.991553,-0.3473 q 0,-0.43407 0.08887,-0.70072 0.08887,-0.26665 0.266647,-0.41135 0.177774,-0.1447 0.446485,-0.1447 0.198437,0 0.347265,0.0806 0.148828,0.0806 0.245983,0.22945 0.09716,0.14883 0.152956,0.36586 0.05583,0.21704 0.05583,0.58084 0,0.43411 -0.0889,0.70075 -0.08887,0.26665 -0.266647,0.41135 -0.177773,0.14467 -0.446484,0.14467 -0.355521,0 -0.56224,-0.2563 -0.239765,-0.30594 -0.239765,-1.00047 z m 0.310038,0 q 0,0.60773 0.140574,0.80823 0.140546,0.20052 0.351393,0.20052 0.206719,0 0.349329,-0.20052 0.142637,-0.2005 0.142637,-0.80823 0,-0.60769 -0.142637,-0.80613 -0.14261,-0.19844 -0.353457,-0.19844 -0.206719,0 -0.334856,0.17362 -0.152983,0.22739 -0.152983,0.83095 z"
       id="path39-8-7" />
    <path
       style="font-style:normal;font-weight:normal;font-size:13.3333px;font-family:SansSerif;color-interpolation:linearRGB;fill:#262626;fill-opacity:1;stroke:none;stroke-width:0.264583;stroke-linecap:square;stroke-linejoin:miter;stroke-miterlimit:10;stroke-dasharray:none;stroke-dashoffset:0;stroke-opacity:1;color-rendering:optimizeQuality;image-rendering:optimizeQuality;shape-rendering:auto;text-rendering:geometricPrecision"
       d="m 57.318142,102.2091 -0.301811,0.0248 q -0.0372,-0.17777 -0.111627,-0.26046 -0.12401,-0.12813 -0.301784,-0.12813 -0.144674,0 -0.256302,0.0827 -0.140573,0.10337 -0.223255,0.30181 -0.08268,0.19844 -0.08681,0.5705 0.107474,-0.16537 0.266647,-0.24599 0.159173,-0.0806 0.332793,-0.0806 0.301784,0 0.514694,0.22117 0.21291,0.22116 0.21291,0.57671 0,0.23151 -0.101282,0.42995 -0.101283,0.19843 -0.274902,0.30384 -0.173647,0.10541 -0.396875,0.10541 -0.376212,0 -0.616003,-0.27696 -0.239766,-0.27699 -0.239766,-0.91779 0,-0.71107 0.264584,-1.03764 0.23151,-0.28115 0.620103,-0.28115 0.289402,0 0.47543,0.1633 0.186029,0.1633 0.223256,0.44858 z m -1.236107,1.06246 q 0,0.15708 0.06615,0.29972 0.06614,0.14261 0.186028,0.21704 0.119883,0.0744 0.252175,0.0744 0.190182,0 0.328665,-0.15504 0.138509,-0.15502 0.138509,-0.4196 0,-0.25633 -0.136445,-0.4031 -0.136419,-0.14674 -0.343138,-0.14674 -0.206693,0 -0.34933,0.14674 -0.14261,0.14677 -0.14261,0.38656 z m 1.628193,-0.41757 q 0,-0.43407 0.08887,-0.70072 0.08887,-0.26665 0.266647,-0.41135 0.177774,-0.1447 0.446485,-0.1447 0.198437,0 0.347265,0.0806 0.148828,0.0806 0.245983,0.22945 0.09716,0.14883 0.152956,0.36586 0.05583,0.21704 0.05583,0.58084 0,0.43411 -0.0889,0.70075 -0.08887,0.26665 -0.266647,0.41135 -0.177773,0.14467 -0.446484,0.14467 -0.355521,0 -0.56224,-0.2563 -0.239765,-0.30594 -0.239765,-1.00047 z m 0.310038,0 q 0,0.60773 0.140574,0.80823 0.140546,0.20052 0.351393,0.20052 0.206719,0 0.349329,-0.20052 0.142637,-0.2005 0.142637,-0.80823 0,-0.60769 -0.142637,-0.80613 -0.14261,-0.19844 -0.353457,-0.19844 -0.206719,0 -0.334856,0.17362 -0.152983,0.22739 -0.152983,0.83095 z"
       id="path43-9-7" />
    <path
       style="font-style:normal;font-weight:normal;font-size:13.3333px;font-family:SansSerif;color-interpolation:linearRGB;fill:#262626;fill-opacity:1;stroke:none;stroke-width:0.264583;stroke-linecap:square;stroke-linejoin:miter;stroke-miterlimit:10;stroke-dasharray:none;stroke-dashoffset:0;stroke-opacity:1;color-rendering:optimizeQuality;image-rendering:optimizeQuality;shape-rendering:auto;text-rendering:geometricPrecision"
       d="m 75.352512,102.73411 q -0.186028,-0.0703 -0.276992,-0.19637 -0.09096,-0.12608 -0.09096,-0.30385 0,-0.26871 0.192247,-0.45268 0.192246,-0.18399 0.514694,-0.18399 0.322474,0 0.518848,0.18812 0.196347,0.18809 0.196347,0.45683 0,0.16949 -0.09094,0.29557 -0.09094,0.1261 -0.272865,0.19637 0.227383,0.0744 0.345202,0.23979 0.117819,0.16537 0.117819,0.39275 0,0.31417 -0.223229,0.52917 -0.223229,0.21494 -0.587031,0.21494 -0.363802,0 -0.587058,-0.21494 -0.223255,-0.215 -0.223255,-0.53745 0,-0.23979 0.121973,-0.40307 0.121946,-0.1633 0.345201,-0.22119 z m -0.06202,-0.51263 q 0,0.17365 0.113692,0.28527 0.113691,0.11161 0.291465,0.11161 0.177747,0 0.289374,-0.10954 0.111628,-0.10957 0.111628,-0.2708 0,-0.16537 -0.115755,-0.27906 -0.115755,-0.11366 -0.285247,-0.11366 -0.173646,0 -0.289402,0.1116 -0.115755,0.11163 -0.115755,0.26458 z m -0.09509,1.13689 q 0,0.12816 0.06202,0.25011 0.06202,0.12197 0.181901,0.18812 0.119883,0.0661 0.260456,0.0661 0.214974,0 0.355521,-0.13851 0.140573,-0.13848 0.140573,-0.35345 0,-0.21913 -0.144701,-0.36174 -0.1447,-0.14264 -0.363802,-0.14264 -0.210846,0 -0.351393,0.14058 -0.140573,0.14054 -0.140573,0.35139 z m 1.653011,-0.50438 q 0,-0.43407 0.08887,-0.70072 0.08887,-0.26665 0.266647,-0.41135 0.177774,-0.1447 0.446485,-0.1447 0.198437,0 0.347265,0.0806 0.148828,0.0806 0.245983,0.22945 0.09716,0.14883 0.152956,0.36586 0.05583,0.21704 0.05583,0.58084 0,0.43411 -0.0889,0.70075 -0.08887,0.26665 -0.266647,0.41135 -0.177773,0.14467 -0.446484,0.14467 -0.355521,0 -0.56224,-0.2563 -0.239765,-0.30594 -0.239765,-1.00047 z m 0.310038,0 q 0,0.60773 0.140574,0.80823 0.140546,0.20052 0.351393,0.20052 0.206719,0 0.349329,-0.20052 0.142637,-0.2005 0.142637,-0.80823 0,-0.60769 -0.142637,-0.80613 -0.14261,-0.19844 -0.353457,-0.19844 -0.206719,0 -0.334856,0.17362 -0.152983,0.22739 -0.152983,0.83095 z"
       id="path47-0-2" />
    <path
       style="font-style:normal;font-weight:normal;font-size:13.3333px;font-family:SansSerif;color-interpolation:linearRGB;fill:#262626;fill-opacity:1;stroke:none;stroke-width:0.264583;stroke-linecap:square;stroke-linejoin:miter;stroke-miterlimit:10;stroke-dasharray:none;stroke-dashoffset:0;stroke-opacity:1;color-rendering:optimizeQuality;image-rendering:optimizeQuality;shape-rendering:auto;text-rendering:geometricPrecision"
       d="m 94.106231,104.06944 h -0.30181 v -1.92649 q -0.111627,0.10335 -0.287311,0.20876 -0.17571,0.10541 -0.316256,0.15504 v -0.29352 q 0.252174,-0.11576 0.442357,-0.28528 0.190156,-0.16949 0.26871,-0.33073 h 0.19431 z m 0.822034,-1.21545 q 0,-0.43407 0.08887,-0.70072 0.08887,-0.26665 0.266647,-0.41135 0.177774,-0.1447 0.446484,-0.1447 0.198438,0 0.347266,0.0806 0.148828,0.0806 0.245983,0.22945 0.09716,0.14883 0.152956,0.36586 0.05583,0.21704 0.05583,0.58084 0,0.43411 -0.0889,0.70075 -0.08887,0.26665 -0.266647,0.41135 -0.177774,0.14467 -0.446485,0.14467 -0.35552,0 -0.562239,-0.2563 -0.239766,-0.30594 -0.239766,-1.00047 z m 0.310039,0 q 0,0.60773 0.140573,0.80823 0.140547,0.20052 0.351393,0.20052 0.206719,0 0.34933,-0.20052 0.142637,-0.2005 0.142637,-0.80823 0,-0.60769 -0.142637,-0.80613 -0.142611,-0.19844 -0.353457,-0.19844 -0.206719,0 -0.334857,0.17362 -0.152982,0.22739 -0.152982,0.83095 z m 1.648857,0 q 0,-0.43407 0.0889,-0.70072 0.08887,-0.26665 0.266647,-0.41135 0.177774,-0.1447 0.446484,-0.1447 0.198438,0 0.347266,0.0806 0.148828,0.0806 0.245983,0.22945 0.09716,0.14883 0.152956,0.36586 0.0558,0.21704 0.0558,0.58084 0,0.43411 -0.08887,0.70075 -0.08887,0.26665 -0.266647,0.41135 -0.177774,0.14467 -0.446485,0.14467 -0.355547,0 -0.562239,-0.2563 -0.239792,-0.30594 -0.239792,-1.00047 z m 0.310065,0 q 0,0.60773 0.140573,0.80823 0.140547,0.20052 0.351393,0.20052 0.206693,0 0.34933,-0.20052 0.142637,-0.2005 0.142637,-0.80823 0,-0.60769 -0.142637,-0.80613 -0.142637,-0.19844 -0.353457,-0.19844 -0.206719,0 -0.334883,0.17362 -0.152956,0.22739 -0.152956,0.83095 z"
       id="path51-3-1" />
    <path
       style="font-style:normal;font-weight:normal;font-size:13.3333px;font-family:SansSerif;color-interpolation:linearRGB;fill:#262626;fill-opacity:1;stroke:none;stroke-width:0.264583;stroke-linecap:square;stroke-linejoin:miter;stroke-miterlimit:10;stroke-dasharray:none;stroke-dashoffset:0;stroke-opacity:1;color-rendering:optimizeQuality;image-rendering:optimizeQuality;shape-rendering:auto;text-rendering:geometricPrecision"
       d="m 113.24444,104.06944 h -0.30181 v -1.92649 q -0.11163,0.10335 -0.28731,0.20876 -0.17571,0.10541 -0.31626,0.15504 v -0.29352 q 0.25218,-0.11576 0.44236,-0.28528 0.19016,-0.16949 0.26871,-0.33073 h 0.19431 z m 2.40953,-0.2894 v 0.2894 h -1.62885 q -0.004,-0.10748 0.0372,-0.21085 0.062,-0.16536 0.19844,-0.32658 0.13644,-0.16123 0.39687,-0.37208 0.40103,-0.33073 0.54158,-0.52297 0.14057,-0.19222 0.14057,-0.36172 0,-0.18192 -0.12816,-0.30387 -0.12817,-0.12195 -0.33486,-0.12195 -0.21913,0 -0.34935,0.13023 -0.13021,0.13023 -0.13436,0.36174 l -0.31004,-0.0331 q 0.0331,-0.3473 0.23977,-0.52917 0.20672,-0.18193 0.55811,-0.18193 0.35552,0 0.56224,0.19638 0.20669,0.19637 0.20669,0.48577 0,0.14883 -0.0599,0.29144 -0.06,0.14264 -0.2005,0.30181 -0.14057,0.15915 -0.46717,0.43201 -0.27284,0.22738 -0.34933,0.31004 -0.0765,0.0827 -0.12608,0.16537 z m 0.3714,-0.92605 q 0,-0.43407 0.0889,-0.70072 0.0889,-0.26665 0.26665,-0.41135 0.17777,-0.1447 0.44648,-0.1447 0.19844,0 0.34727,0.0806 0.14883,0.0806 0.24598,0.22945 0.0972,0.14883 0.15296,0.36586 0.0558,0.21704 0.0558,0.58084 0,0.43411 -0.0889,0.70075 -0.0889,0.26665 -0.26664,0.41135 -0.17778,0.14467 -0.44649,0.14467 -0.35555,0 -0.56224,-0.2563 -0.23979,-0.30594 -0.23979,-1.00047 z m 0.31007,0 q 0,0.60773 0.14057,0.80823 0.14054,0.20052 0.35139,0.20052 0.20669,0 0.34933,-0.20052 0.14264,-0.2005 0.14264,-0.80823 0,-0.60769 -0.14264,-0.80613 -0.14264,-0.19844 -0.35346,-0.19844 -0.20672,0 -0.33488,0.17362 -0.15295,0.22739 -0.15295,0.83095 z"
       id="path55-5-6" />
    <path
       style="font-style:normal;font-weight:normal;font-size:13.3333px;font-family:SansSerif;color-interpolation:linearRGB;fill:#262626;fill-opacity:1;stroke:none;stroke-width:0.264583;stroke-linecap:square;stroke-linejoin:miter;stroke-miterlimit:10;stroke-dasharray:none;stroke-dashoffset:0;stroke-opacity:1;color-rendering:optimizeQuality;image-rendering:optimizeQuality;shape-rendering:auto;text-rendering:geometricPrecision"
       d="m 132.38263,104.06944 h -0.30181 v -1.92649 q -0.11163,0.10335 -0.28731,0.20876 -0.17571,0.10541 -0.31626,0.15504 v -0.29352 q 0.25218,-0.11576 0.44236,-0.28528 0.19016,-0.16949 0.26871,-0.33073 h 0.19431 z m 1.7894,0 v -0.59119 h -1.06658 v -0.27696 l 1.12032,-1.59579 h 0.24805 v 1.59579 h 0.33488 v 0.27696 h -0.33488 v 0.59119 z m 0,-0.86815 v -1.10797 l -0.77308,1.10797 z m 0.99153,-0.3473 q 0,-0.43407 0.0889,-0.70072 0.0889,-0.26665 0.26665,-0.41135 0.17777,-0.1447 0.44648,-0.1447 0.19844,0 0.34727,0.0806 0.14883,0.0806 0.24598,0.22945 0.0972,0.14883 0.15296,0.36586 0.0558,0.21704 0.0558,0.58084 0,0.43411 -0.0889,0.70075 -0.0889,0.26665 -0.26664,0.41135 -0.17778,0.14467 -0.44649,0.14467 -0.35555,0 -0.56224,-0.2563 -0.23979,-0.30594 -0.23979,-1.00047 z m 0.31007,0 q 0,0.60773 0.14057,0.80823 0.14054,0.20052 0.35139,0.20052 0.20669,0 0.34933,-0.20052 0.14264,-0.2005 0.14264,-0.80823 0,-0.60769 -0.14264,-0.80613 -0.14264,-0.19844 -0.35346,-0.19844 -0.20672,0 -0.33488,0.17362 -0.15295,0.22739 -0.15295,0.83095 z"
       id="path59-2-5" />
    <path
       style="font-style:normal;font-weight:normal;font-size:14.6667px;font-family:mwa_cmr10;color-interpolation:linearRGB;fill:#262626;fill-opacity:1;stroke:none;stroke-width:0.264583;stroke-linecap:square;stroke-linejoin:miter;stroke-miterlimit:10;stroke-dasharray:none;stroke-dashoffset:0;stroke-opacity:1;color-rendering:optimizeQuality;image-rendering:optimizeQuality;shape-rendering:auto;text-rendering:geometricPrecision"
       d="m 72.350709,108.5211 q -0.231511,0 -0.425794,-0.12816 -0.19431,-0.12814 -0.30181,-0.33486 -0.107474,-0.20669 -0.107474,-0.4382 0,-0.23979 0.117819,-0.44649 0.117819,-0.20672 0.31832,-0.32866 0.200501,-0.12197 0.444421,-0.12197 0.1447,0 0.274928,0.06 0.130228,0.06 0.225293,0.17156 v -0.82683 q 0,-0.10747 -0.03307,-0.15502 -0.03307,-0.0475 -0.09094,-0.0579 -0.05789,-0.0103 -0.186029,-0.0103 v -0.14057 l 0.587031,-0.0413 v 2.39366 q 0,0.10335 0.03307,0.15089 0.03307,0.0476 0.09096,0.0579 0.05786,0.0103 0.186028,0.0103 v 0.14055 l -0.59944,0.0455 v -0.25217 q -0.103372,0.11988 -0.243919,0.18603 -0.140573,0.0661 -0.289401,0.0661 z m -0.40513,-0.38859 q 0.07027,0.12814 0.183965,0.20463 0.113691,0.0765 0.245983,0.0765 0.165364,0 0.301784,-0.093 0.136419,-0.093 0.206718,-0.24598 v -0.95084 q -0.04548,-0.0868 -0.117845,-0.15711 -0.07234,-0.0703 -0.159147,-0.10541 -0.08681,-0.0351 -0.186028,-0.0351 -0.206719,0 -0.33282,0.11575 -0.126074,0.11576 -0.177747,0.29766 -0.05167,0.1819 -0.05167,0.38447 0,0.15708 0.01654,0.27492 0.01654,0.11782 0.07027,0.23358 z"
       id="path63-8-4" />
    <path
       style="font-style:normal;font-weight:normal;font-size:14.6667px;font-family:mwa_cmr10;color-interpolation:linearRGB;fill:#262626;fill-opacity:1;stroke:none;stroke-width:0.264583;stroke-linecap:square;stroke-linejoin:miter;stroke-miterlimit:10;stroke-dasharray:none;stroke-dashoffset:0;stroke-opacity:1;color-rendering:optimizeQuality;image-rendering:optimizeQuality;shape-rendering:auto;text-rendering:geometricPrecision"
       d="m 75.299887,109.46781 v -3.96875 h 0.545703 v 0.15711 h -0.384492 v 3.65455 h 0.384492 v 0.15709 z"
       id="path65-9-9" />
    <path
       style="font-style:normal;font-weight:normal;font-size:14.6667px;font-family:mwa_cmr10;color-interpolation:linearRGB;fill:#262626;fill-opacity:1;stroke:none;stroke-width:0.264583;stroke-linecap:square;stroke-linejoin:miter;stroke-miterlimit:10;stroke-dasharray:none;stroke-dashoffset:0;stroke-opacity:1;color-rendering:optimizeQuality;image-rendering:optimizeQuality;shape-rendering:auto;text-rendering:geometricPrecision"
       d="m 76.377826,108.00434 q 0,0.1695 0.08681,0.28938 0.08681,0.11991 0.252174,0.11991 0.235638,0 0.454766,-0.1075 0.219101,-0.10748 0.35552,-0.29766 0.01241,-0.0124 0.02895,-0.0124 0.02066,0 0.04133,0.0228 0.02069,0.0227 0.02069,0.0393 0,0.0165 -0.0083,0.0248 -0.144701,0.20256 -0.390684,0.32038 -0.245957,0.11782 -0.51054,0.11782 -0.190182,0 -0.334883,-0.0909 -0.144674,-0.091 -0.225293,-0.24185 -0.08062,-0.15089 -0.08062,-0.34108 0,-0.26871 0.150892,-0.53123 0.150891,-0.26252 0.398938,-0.42788 0.248047,-0.16536 0.520912,-0.16536 0.177747,0 0.320384,0.0848 0.142637,0.0847 0.142637,0.25424 0,0.11162 -0.06408,0.18809 -0.06408,0.0765 -0.167429,0.0765 -0.06615,0 -0.109564,-0.0414 -0.04342,-0.0413 -0.04342,-0.10335 0,-0.0951 0.06821,-0.16124 0.06824,-0.0661 0.159173,-0.0661 h 0.0083 q -0.04961,-0.0661 -0.136446,-0.0971 -0.08681,-0.031 -0.181901,-0.031 -0.23151,0 -0.407194,0.19844 -0.17571,0.19843 -0.262519,0.47334 -0.08681,0.27492 -0.08681,0.50643 z"
       id="path67-7-0" />
    <path
       style="font-style:normal;font-weight:normal;font-size:14.6667px;font-family:mwa_cmr10;color-interpolation:linearRGB;fill:#262626;fill-opacity:1;stroke:none;stroke-width:0.264583;stroke-linecap:square;stroke-linejoin:miter;stroke-miterlimit:10;stroke-dasharray:none;stroke-dashoffset:0;stroke-opacity:1;color-rendering:optimizeQuality;image-rendering:optimizeQuality;shape-rendering:auto;text-rendering:geometricPrecision"
       d="m 77.895926,108.40947 q 0,-0.0248 0.0041,-0.0372 l 0.297656,-1.18234 q 0.02895,-0.11163 0.02895,-0.19431 0,-0.16949 -0.115755,-0.16949 -0.124037,0 -0.183965,0.14676 -0.05996,0.14674 -0.117846,0.37412 0,0.0124 -0.01238,0.0186 -0.01241,0.006 -0.02069,0.006 h -0.04546 q -0.01654,0 -0.02482,-0.0145 -0.0083,-0.0145 -0.0083,-0.0269 0.04133,-0.1695 0.08062,-0.28938 0.03926,-0.11991 0.12401,-0.21913 0.08475,-0.0992 0.21291,-0.0992 0.148828,0 0.26252,0.093 0.113691,0.093 0.113691,0.2377 0.119883,-0.15295 0.276966,-0.24182 0.15711,-0.0889 0.339011,-0.0889 0.186028,0 0.322447,0.0951 0.136446,0.0951 0.136446,0.27286 0.12401,-0.17364 0.287311,-0.2708 0.163301,-0.0971 0.357611,-0.0971 0.202565,0 0.328665,0.11162 0.126074,0.11163 0.126074,0.3142 0,0.16536 -0.07234,0.39481 -0.07236,0.22944 -0.179837,0.51469 -0.05789,0.13642 -0.05789,0.23979 0,0.11576 0.09096,0.11576 0.157083,0 0.260456,-0.16537 0.103346,-0.16536 0.144674,-0.35554 0.01241,-0.0248 0.03307,-0.0248 h 0.04548 q 0.01654,0 0.02688,0.0103 0.01032,0.0103 0.01032,0.0269 0,0.004 -0.0041,0.0124 -0.05374,0.22323 -0.188092,0.41342 -0.134355,0.19015 -0.336947,0.19015 -0.140546,0 -0.237701,-0.0971 -0.09715,-0.0972 -0.09715,-0.23358 0,-0.0703 0.02894,-0.15295 0.115755,-0.30179 0.190156,-0.53536 0.07443,-0.2336 0.07443,-0.41135 0,-0.11163 -0.04548,-0.18812 -0.04548,-0.0765 -0.148828,-0.0765 -0.219101,0 -0.376211,0.13229 -0.157083,0.13229 -0.276966,0.35139 -0.0042,0.0372 -0.0083,0.0579 l -0.256302,1.02113 q -0.01654,0.0537 -0.06408,0.093 -0.04755,0.0393 -0.105436,0.0393 -0.04546,0 -0.08059,-0.031 -0.03516,-0.031 -0.03516,-0.0806 0,-0.0248 0.0042,-0.0372 l 0.252175,-1.01285 q 0.04133,-0.16123 0.04133,-0.26871 0,-0.11163 -0.04546,-0.18812 -0.04548,-0.0765 -0.152982,-0.0765 -0.144674,0 -0.268711,0.0641 -0.12401,0.0641 -0.214974,0.16949 -0.09094,0.10541 -0.165364,0.25011 l -0.268711,1.079 q -0.01241,0.0537 -0.05996,0.093 -0.04754,0.0393 -0.10541,0.0393 -0.04961,0 -0.08475,-0.031 -0.03514,-0.031 -0.03514,-0.0806 z"
       id="path69-3-9" />
    <path
       style="font-style:normal;font-weight:normal;font-size:14.6667px;font-family:mwa_cmr10;color-interpolation:linearRGB;fill:#262626;fill-opacity:1;stroke:none;stroke-width:0.264583;stroke-linecap:square;stroke-linejoin:miter;stroke-miterlimit:10;stroke-dasharray:none;stroke-dashoffset:0;stroke-opacity:1;color-rendering:optimizeQuality;image-rendering:optimizeQuality;shape-rendering:auto;text-rendering:geometricPrecision"
       d="m 81.083996,109.46781 v -0.15709 h 0.384466 v -3.65455 h -0.384466 v -0.15711 h 0.545703 v 3.96875 z"
       id="path71-6-1" />
    <line
       y2="8.2020836"
       style="font-style:normal;font-weight:normal;font-size:12px;font-family:Dialog;color-interpolation:linearRGB;fill:none;fill-opacity:1;stroke:#262626;stroke-width:0.176398;stroke-linecap:square;stroke-linejoin:round;stroke-miterlimit:10;stroke-dasharray:none;stroke-dashoffset:0;stroke-opacity:1;color-rendering:optimizeQuality;image-rendering:optimizeQuality;shape-rendering:auto;text-rendering:geometricPrecision"
       x1="19.314583"
       x2="19.314583"
       y1="98.954163"
       id="line75-2-7" />
    <line
       y2="98.954163"
       style="font-style:normal;font-weight:normal;font-size:12px;font-family:Dialog;color-interpolation:linearRGB;fill:none;fill-opacity:1;stroke:#262626;stroke-width:0.176398;stroke-linecap:square;stroke-linejoin:round;stroke-miterlimit:10;stroke-dasharray:none;stroke-dashoffset:0;stroke-opacity:1;color-rendering:optimizeQuality;image-rendering:optimizeQuality;shape-rendering:auto;text-rendering:geometricPrecision"
       x1="19.314583"
       x2="20.462873"
       y1="98.954163"
       id="line77-9-1" />
    <line
       y2="83.828812"
       style="font-style:normal;font-weight:normal;font-size:12px;font-family:Dialog;color-interpolation:linearRGB;fill:none;fill-opacity:1;stroke:#262626;stroke-width:0.176398;stroke-linecap:square;stroke-linejoin:round;stroke-miterlimit:10;stroke-dasharray:none;stroke-dashoffset:0;stroke-opacity:1;color-rendering:optimizeQuality;image-rendering:optimizeQuality;shape-rendering:auto;text-rendering:geometricPrecision"
       x1="19.314583"
       x2="20.462873"
       y1="83.828812"
       id="line79-3-1" />
    <line
       y2="68.703476"
       style="font-style:normal;font-weight:normal;font-size:12px;font-family:Dialog;color-interpolation:linearRGB;fill:none;fill-opacity:1;stroke:#262626;stroke-width:0.176398;stroke-linecap:square;stroke-linejoin:round;stroke-miterlimit:10;stroke-dasharray:none;stroke-dashoffset:0;stroke-opacity:1;color-rendering:optimizeQuality;image-rendering:optimizeQuality;shape-rendering:auto;text-rendering:geometricPrecision"
       x1="19.314583"
       x2="20.462873"
       y1="68.703476"
       id="line81-1-5" />
    <line
       y2="53.578125"
       style="font-style:normal;font-weight:normal;font-size:12px;font-family:Dialog;color-interpolation:linearRGB;fill:none;fill-opacity:1;stroke:#262626;stroke-width:0.176398;stroke-linecap:square;stroke-linejoin:round;stroke-miterlimit:10;stroke-dasharray:none;stroke-dashoffset:0;stroke-opacity:1;color-rendering:optimizeQuality;image-rendering:optimizeQuality;shape-rendering:auto;text-rendering:geometricPrecision"
       x1="19.314583"
       x2="20.462873"
       y1="53.578125"
       id="line83-9-9" />
    <line
       y2="38.452766"
       style="font-style:normal;font-weight:normal;font-size:12px;font-family:Dialog;color-interpolation:linearRGB;fill:none;fill-opacity:1;stroke:#262626;stroke-width:0.176398;stroke-linecap:square;stroke-linejoin:round;stroke-miterlimit:10;stroke-dasharray:none;stroke-dashoffset:0;stroke-opacity:1;color-rendering:optimizeQuality;image-rendering:optimizeQuality;shape-rendering:auto;text-rendering:geometricPrecision"
       x1="19.314583"
       x2="20.462873"
       y1="38.452766"
       id="line85-4-7" />
    <line
       y2="23.32744"
       style="font-style:normal;font-weight:normal;font-size:12px;font-family:Dialog;color-interpolation:linearRGB;fill:none;fill-opacity:1;stroke:#262626;stroke-width:0.176398;stroke-linecap:square;stroke-linejoin:round;stroke-miterlimit:10;stroke-dasharray:none;stroke-dashoffset:0;stroke-opacity:1;color-rendering:optimizeQuality;image-rendering:optimizeQuality;shape-rendering:auto;text-rendering:geometricPrecision"
       x1="19.314583"
       x2="20.462873"
       y1="23.32744"
       id="line87-7-7" />
    <line
       y2="8.2020836"
       style="font-style:normal;font-weight:normal;font-size:12px;font-family:Dialog;color-interpolation:linearRGB;fill:none;fill-opacity:1;stroke:#262626;stroke-width:0.176398;stroke-linecap:square;stroke-linejoin:round;stroke-miterlimit:10;stroke-dasharray:none;stroke-dashoffset:0;stroke-opacity:1;color-rendering:optimizeQuality;image-rendering:optimizeQuality;shape-rendering:auto;text-rendering:geometricPrecision"
       x1="19.314583"
       x2="20.462873"
       y1="8.2020836"
       id="line89-8-6" />
    <path
       style="font-style:normal;font-weight:normal;font-size:13.3333px;font-family:SansSerif;color-interpolation:linearRGB;fill:#262626;fill-opacity:1;stroke:none;stroke-width:0.264583;stroke-linecap:square;stroke-linejoin:miter;stroke-miterlimit:10;stroke-dasharray:none;stroke-dashoffset:0;stroke-opacity:1;color-rendering:optimizeQuality;image-rendering:optimizeQuality;shape-rendering:auto;text-rendering:geometricPrecision"
       d="M 10.867205,99.66936 V 99.367576 H 11.7974 v 0.301784 z m 2.347039,0.74001 H 12.91246 v -1.926481 q -0.111627,0.103346 -0.287311,0.208756 -0.175709,0.10541 -0.316283,0.155046 v -0.293528 q 0.252201,-0.115756 0.442357,-0.285274 0.190183,-0.169492 0.268711,-0.330729 h 0.19431 z m 0.822034,-0.644919 0.314193,-0.02894 q 0.0372,0.235664 0.165364,0.351389 0.128165,0.11578 0.310066,0.11578 0.219101,0 0.369993,-0.16536 0.150892,-0.165363 0.150892,-0.434101 0,-0.260429 -0.144674,-0.409284 -0.144701,-0.148801 -0.380339,-0.148801 -0.148828,0 -0.266647,0.06615 -0.117845,0.06614 -0.183991,0.169492 l -0.28112,-0.0372 0.235664,-1.260925 h 1.223698 v 0.285248 h -0.979805 l -0.132291,0.661458 q 0.219128,-0.152956 0.46302,-0.152956 0.322475,0 0.54364,0.223256 0.221191,0.223229 0.221191,0.574648 0,0.334857 -0.19431,0.578745 -0.235637,0.29766 -0.644921,0.29766 -0.334857,0 -0.547767,-0.18809 -0.21291,-0.18809 -0.241856,-0.498159 z M 15.9952,99.19393 q 0,-0.434075 0.08887,-0.700722 0.0889,-0.266647 0.266647,-0.411348 0.177773,-0.1447 0.446484,-0.1447 0.198438,0 0.347266,0.08062 0.148828,0.08062 0.245983,0.229447 0.09716,0.148828 0.152982,0.365866 0.0558,0.217037 0.0558,0.580839 0,0.434102 -0.08887,0.700749 -0.0889,0.266649 -0.266673,0.411349 -0.177748,0.14467 -0.446485,0.14467 -0.35552,0 -0.562239,-0.2563 Q 15.9952,99.888462 15.9952,99.19393 Z m 0.310065,0 q 0,0.607722 0.140547,0.80822 0.140573,0.20053 0.351393,0.20053 0.206719,0 0.349356,-0.20053 0.14261,-0.200498 0.14261,-0.80822 0,-0.607695 -0.14261,-0.806132 -0.142637,-0.198438 -0.353483,-0.198438 -0.206693,0 -0.334857,0.17362 -0.152956,0.227383 -0.152956,0.83095 z"
       id="path93-5-3" />
    <path
       style="font-style:normal;font-weight:normal;font-size:13.3333px;font-family:SansSerif;color-interpolation:linearRGB;fill:#262626;fill-opacity:1;stroke:none;stroke-width:0.264583;stroke-linecap:square;stroke-linejoin:miter;stroke-miterlimit:10;stroke-dasharray:none;stroke-dashoffset:0;stroke-opacity:1;color-rendering:optimizeQuality;image-rendering:optimizeQuality;shape-rendering:auto;text-rendering:geometricPrecision"
       d="M 10.867205,84.544005 V 84.242221 H 11.7974 v 0.301784 z m 2.347039,0.740013 H 12.91246 v -1.926484 q -0.111627,0.103346 -0.287311,0.208756 -0.175709,0.10541 -0.316283,0.155046 v -0.293528 q 0.252201,-0.115756 0.442357,-0.285274 0.190183,-0.169492 0.268711,-0.330729 h 0.19431 z m 0.822034,-1.215443 q 0,-0.434075 0.0889,-0.700722 0.08887,-0.266647 0.266647,-0.411348 0.177747,-0.1447 0.446485,-0.1447 0.198437,0 0.347265,0.08062 0.148828,0.08062 0.245983,0.229447 0.09713,0.148828 0.152956,0.365866 0.0558,0.217037 0.0558,0.580839 0,0.434102 -0.08887,0.700749 -0.0889,0.266647 -0.266647,0.411348 -0.177774,0.144674 -0.446484,0.144674 -0.355547,0 -0.56224,-0.256302 -0.239792,-0.305937 -0.239792,-1.000469 z m 0.310065,0 q 0,0.607722 0.140547,0.808223 0.140573,0.200528 0.35142,0.200528 0.206692,0 0.349329,-0.200528 0.14261,-0.200501 0.14261,-0.808223 0,-0.607695 -0.14261,-0.806132 -0.142637,-0.198438 -0.353483,-0.198438 -0.206693,0 -0.334857,0.17362 -0.152956,0.227383 -0.152956,0.83095 z m 1.648857,0 q 0,-0.434075 0.08887,-0.700722 0.0889,-0.266647 0.266647,-0.411348 0.177773,-0.1447 0.446484,-0.1447 0.198438,0 0.347266,0.08062 0.148828,0.08062 0.245983,0.229447 0.09716,0.148828 0.152982,0.365866 0.0558,0.217037 0.0558,0.580839 0,0.434102 -0.08887,0.700749 -0.0889,0.266647 -0.266673,0.411348 -0.177748,0.144674 -0.446485,0.144674 -0.35552,0 -0.562239,-0.256302 Q 15.9952,84.763107 15.9952,84.068575 Z m 0.310065,0 q 0,0.607722 0.140547,0.808223 0.140573,0.200528 0.351393,0.200528 0.206719,0 0.349356,-0.200528 0.14261,-0.200501 0.14261,-0.808223 0,-0.607695 -0.14261,-0.806132 -0.142637,-0.198438 -0.353483,-0.198438 -0.206693,0 -0.334857,0.17362 -0.152956,0.227383 -0.152956,0.83095 z"
       id="path97-3-5" />
    <path
       style="font-style:normal;font-weight:normal;font-size:13.3333px;font-family:SansSerif;color-interpolation:linearRGB;fill:#262626;fill-opacity:1;stroke:none;stroke-width:0.264583;stroke-linecap:square;stroke-linejoin:miter;stroke-miterlimit:10;stroke-dasharray:none;stroke-dashoffset:0;stroke-opacity:1;color-rendering:optimizeQuality;image-rendering:optimizeQuality;shape-rendering:auto;text-rendering:geometricPrecision"
       d="m 12.719288,69.418675 v -0.301784 h 0.930196 v 0.301784 z m 1.210151,0.09509 0.314193,-0.02895 q 0.03723,0.235664 0.165365,0.351393 0.128164,0.115782 0.310065,0.115782 0.219101,0 0.37002,-0.165365 0.150892,-0.165364 0.150892,-0.434102 0,-0.260429 -0.144701,-0.409284 -0.144701,-0.148801 -0.380339,-0.148801 -0.148828,0 -0.266647,0.06615 -0.117819,0.06614 -0.183964,0.169492 l -0.28112,-0.0372 0.235638,-1.260925 h 1.223698 v 0.285248 H 14.46276 l -0.132292,0.661458 q 0.219102,-0.152956 0.463021,-0.152956 0.322448,0 0.54364,0.223256 0.221165,0.223229 0.221165,0.574648 0,0.334857 -0.19431,0.57875 -0.235638,0.297656 -0.644922,0.297656 -0.334857,0 -0.547767,-0.188092 -0.21291,-0.188092 -0.241856,-0.498158 z m 1.958922,-0.570521 q 0,-0.434075 0.0889,-0.700722 0.08887,-0.266647 0.266648,-0.411348 0.177747,-0.1447 0.446484,-0.1447 0.198437,0 0.347266,0.08062 0.148828,0.08062 0.245983,0.229447 0.09713,0.148828 0.152955,0.365866 0.0558,0.217037 0.0558,0.580839 0,0.434102 -0.08887,0.700749 -0.0889,0.266647 -0.266647,0.411348 -0.177773,0.144674 -0.446484,0.144674 -0.355547,0 -0.56224,-0.256302 -0.239792,-0.305937 -0.239792,-1.000469 z m 0.310066,0 q 0,0.607722 0.140546,0.808223 0.140573,0.200528 0.35142,0.200528 0.206692,0 0.349329,-0.200528 0.142611,-0.200501 0.142611,-0.808223 0,-0.607695 -0.142611,-0.806132 -0.142637,-0.198438 -0.353483,-0.198438 -0.206693,0 -0.334857,0.17362 -0.152955,0.227383 -0.152955,0.83095 z"
       id="path101-1-3" />
    <path
       style="font-style:normal;font-weight:normal;font-size:13.3333px;font-family:SansSerif;color-interpolation:linearRGB;fill:#262626;fill-opacity:1;stroke:none;stroke-width:0.264583;stroke-linecap:square;stroke-linejoin:miter;stroke-miterlimit:10;stroke-dasharray:none;stroke-dashoffset:0;stroke-opacity:1;color-rendering:optimizeQuality;image-rendering:optimizeQuality;shape-rendering:auto;text-rendering:geometricPrecision"
       d="m 15.931515,53.817889 q 0,-0.434075 0.08887,-0.700722 0.0889,-0.266647 0.266647,-0.411348 0.177773,-0.1447 0.446484,-0.1447 0.198437,0 0.347266,0.08062 0.148828,0.08062 0.245983,0.229447 0.09716,0.148828 0.152955,0.365866 0.05583,0.217037 0.05583,0.580839 0,0.434102 -0.0889,0.700749 -0.08887,0.266647 -0.266647,0.411348 -0.177747,0.144674 -0.446484,0.144674 -0.355521,0 -0.56224,-0.256302 -0.239765,-0.305937 -0.239765,-1.000469 z m 0.310065,0 q 0,0.607722 0.140547,0.808223 0.140547,0.200528 0.351393,0.200528 0.206719,0 0.349329,-0.200528 0.142637,-0.200501 0.142637,-0.808223 0,-0.607695 -0.142637,-0.806132 -0.14261,-0.198438 -0.353457,-0.198438 -0.206718,0 -0.334856,0.17362 -0.152956,0.227383 -0.152956,0.83095 z"
       id="path105-6-4" />
    <path
       style="font-style:normal;font-weight:normal;font-size:13.3333px;font-family:SansSerif;color-interpolation:linearRGB;fill:#262626;fill-opacity:1;stroke:none;stroke-width:0.264583;stroke-linecap:square;stroke-linejoin:miter;stroke-miterlimit:10;stroke-dasharray:none;stroke-dashoffset:0;stroke-opacity:1;color-rendering:optimizeQuality;image-rendering:optimizeQuality;shape-rendering:auto;text-rendering:geometricPrecision"
       d="m 14.079432,39.263054 0.314192,-0.02895 q 0.0372,0.235664 0.165365,0.351393 0.128164,0.115782 0.310039,0.115782 0.219128,0 0.370019,-0.165365 0.150892,-0.165364 0.150892,-0.434102 0,-0.260429 -0.1447,-0.409284 -0.144701,-0.148801 -0.380339,-0.148801 -0.148828,0 -0.266647,0.06615 -0.117819,0.06614 -0.183965,0.169492 l -0.281119,-0.0372 0.235637,-1.260925 h 1.223698 v 0.285248 h -0.979778 l -0.132292,0.661458 q 0.219102,-0.152956 0.463021,-0.152956 0.322448,0 0.543639,0.223256 0.221166,0.223229 0.221166,0.574648 0,0.334857 -0.194284,0.57875 -0.235664,0.297656 -0.644948,0.297656 -0.334857,0 -0.547767,-0.188092 -0.21291,-0.188092 -0.241829,-0.498158 z m 1.958922,-0.570521 q 0,-0.434075 0.08887,-0.700722 0.08887,-0.266647 0.266647,-0.411348 0.177774,-0.1447 0.446485,-0.1447 0.198437,0 0.347265,0.08062 0.148828,0.08062 0.245983,0.229447 0.09716,0.148828 0.152956,0.365866 0.05583,0.217037 0.05583,0.580839 0,0.434102 -0.0889,0.700749 -0.08887,0.266647 -0.266647,0.411348 -0.177773,0.144674 -0.446484,0.144674 -0.355521,0 -0.56224,-0.256302 -0.239765,-0.305937 -0.239765,-1.000469 z m 0.310038,0 q 0,0.607722 0.140574,0.808223 0.140546,0.200528 0.351393,0.200528 0.206719,0 0.349329,-0.200528 0.142637,-0.200501 0.142637,-0.808223 0,-0.607695 -0.142637,-0.806132 -0.14261,-0.198438 -0.353457,-0.198438 -0.206719,0 -0.334856,0.17362 -0.152983,0.227383 -0.152983,0.83095 z"
       id="path109-2-1" />
    <path
       style="font-style:normal;font-weight:normal;font-size:13.3333px;font-family:SansSerif;color-interpolation:linearRGB;fill:#262626;fill-opacity:1;stroke:none;stroke-width:0.264583;stroke-linecap:square;stroke-linejoin:miter;stroke-miterlimit:10;stroke-dasharray:none;stroke-dashoffset:0;stroke-opacity:1;color-rendering:optimizeQuality;image-rendering:optimizeQuality;shape-rendering:auto;text-rendering:geometricPrecision"
       d="m 13.099653,24.782647 h -0.30181 v -1.926484 q -0.111628,0.103346 -0.287311,0.208756 -0.17571,0.10541 -0.316257,0.155046 v -0.293528 q 0.252175,-0.115756 0.442357,-0.285274 0.190156,-0.169492 0.268711,-0.330729 h 0.19431 z m 0.822034,-1.215443 q 0,-0.434075 0.08887,-0.700722 0.08887,-0.266647 0.266647,-0.411348 0.177773,-0.1447 0.446484,-0.1447 0.198438,0 0.347266,0.08062 0.148828,0.08062 0.245983,0.229447 0.09716,0.148828 0.152955,0.365866 0.05583,0.217037 0.05583,0.580839 0,0.434102 -0.0889,0.700749 -0.08887,0.266647 -0.266648,0.411348 -0.177773,0.144674 -0.446484,0.144674 -0.355521,0 -0.562239,-0.256302 -0.239766,-0.305937 -0.239766,-1.000469 z m 0.310039,0 q 0,0.607722 0.140573,0.808223 0.140547,0.200528 0.351393,0.200528 0.206719,0 0.349329,-0.200528 0.142637,-0.200501 0.142637,-0.808223 0,-0.607695 -0.142637,-0.806132 -0.14261,-0.198438 -0.353456,-0.198438 -0.206719,0 -0.334857,0.17362 -0.152982,0.227383 -0.152982,0.83095 z m 1.648857,0 q 0,-0.434075 0.0889,-0.700722 0.08887,-0.266647 0.266647,-0.411348 0.177773,-0.1447 0.446484,-0.1447 0.198438,0 0.347266,0.08062 0.148828,0.08062 0.245983,0.229447 0.09715,0.148828 0.152956,0.365866 0.0558,0.217037 0.0558,0.580839 0,0.434102 -0.08887,0.700749 -0.08887,0.266647 -0.266647,0.411348 -0.177774,0.144674 -0.446485,0.144674 -0.355547,0 -0.562239,-0.256302 -0.239792,-0.305937 -0.239792,-1.000469 z m 0.310065,0 q 0,0.607722 0.140573,0.808223 0.140547,0.200528 0.351393,0.200528 0.206693,0 0.34933,-0.200528 0.142636,-0.200501 0.142636,-0.808223 0,-0.607695 -0.142636,-0.806132 -0.142637,-0.198438 -0.353457,-0.198438 -0.206719,0 -0.334883,0.17362 -0.152956,0.227383 -0.152956,0.83095 z"
       id="path113-6-9" />
    <path
       style="font-style:normal;font-weight:normal;font-size:13.3333px;font-family:SansSerif;color-interpolation:linearRGB;fill:#262626;fill-opacity:1;stroke:none;stroke-width:0.264583;stroke-linecap:square;stroke-linejoin:miter;stroke-miterlimit:10;stroke-dasharray:none;stroke-dashoffset:0;stroke-opacity:1;color-rendering:optimizeQuality;image-rendering:optimizeQuality;shape-rendering:auto;text-rendering:geometricPrecision"
       d="m 13.099653,9.6572915 h -0.30181 V 7.7308074 q -0.111628,0.1033462 -0.287311,0.2087562 -0.17571,0.10541 -0.316257,0.1550459 V 7.8010807 Q 12.44645,7.6853255 12.636632,7.515807 12.826788,7.3463149 12.905343,7.1850778 h 0.19431 z m 0.822034,-0.6449219 0.314193,-0.028945 q 0.0372,0.2356644 0.165364,0.3513932 0.128138,0.1157816 0.310039,0.1157816 0.219128,0 0.37002,-0.1653646 0.150892,-0.1653645 0.150892,-0.4341018 0,-0.2604294 -0.144701,-0.409284 -0.1447,-0.1488017 -0.380338,-0.1488017 -0.148828,0 -0.266647,0.066146 -0.117819,0.066146 -0.183965,0.1694921 l -0.28112,-0.037201 0.235638,-1.2609247 H 15.43476 V 7.515807 H 14.454981 L 14.32269,8.1772653 q 0.219101,-0.1529556 0.46302,-0.1529556 0.322448,0 0.54364,0.2232554 0.221165,0.2232289 0.221165,0.5746485 0,0.3348567 -0.19431,0.5787496 -0.235638,0.2976562 -0.644922,0.2976562 -0.334857,0 -0.547767,-0.1880923 -0.21291,-0.1880922 -0.241829,-0.4981575 z m 1.958896,-0.570521 q 0,-0.4340754 0.0889,-0.7007225 0.08887,-0.2666471 0.266647,-0.4113477 0.177773,-0.1447006 0.446484,-0.1447006 0.198438,0 0.347266,0.080618 0.148828,0.080619 0.245983,0.2294467 0.09715,0.1488281 0.152956,0.3658658 0.0558,0.2170377 0.0558,0.5808398 0,0.4341019 -0.08887,0.700749 -0.08887,0.266647 -0.266647,0.4113477 -0.177774,0.1446741 -0.446485,0.1446741 -0.355547,0 -0.562239,-0.2563018 -0.239792,-0.3059377 -0.239792,-1.000469 z m 0.310065,0 q 0,0.6077215 0.140573,0.8082227 0.140547,0.2005277 0.351393,0.2005277 0.206693,0 0.34933,-0.2005277 0.142636,-0.2005012 0.142636,-0.8082227 0,-0.607695 -0.142636,-0.8061325 -0.142637,-0.1984375 -0.353457,-0.1984375 -0.206719,0 -0.334883,0.1736196 -0.152956,0.2273829 -0.152956,0.8309504 z"
       id="path117-5-9" />
    <path
       style="font-style:normal;font-weight:normal;font-size:14.6667px;font-family:mwa_cmr10;color-interpolation:linearRGB;fill:#262626;fill-opacity:1;stroke:none;stroke-width:0.264583;stroke-linecap:square;stroke-linejoin:miter;stroke-miterlimit:10;stroke-dasharray:none;stroke-dashoffset:0;stroke-opacity:1;color-rendering:optimizeQuality;image-rendering:optimizeQuality;shape-rendering:auto;text-rendering:geometricPrecision"
       d="m 8.349853,56.923648 -2.4928776,0.934296 q -0.082682,0.03723 -0.1033463,0.136446 -0.020664,0.09922 -0.020664,0.252174 H 5.592392 v -1.091406 h 0.1405731 q 0,0.326602 0.1033463,0.326602 0.00413,0 0.010345,0 0.00619,0 0.010319,0 L 7.8827047,56.716929 5.9686031,55.997606 q -0.016536,-0.0041 -0.049609,-0.0041 -0.095091,0 -0.1405467,0.08887 -0.045482,0.08887 -0.045482,0.196374 H 5.592392 v -0.855768 h 0.1405731 q 0,0.148828 0.055801,0.262519 0.055827,0.113692 0.1798373,0.163301 l 2.3812499,0.897096 q 0.041354,0.01241 0.041354,0.06202 v 0.05374 q 0,0.04961 -0.041354,0.06202 z"
       id="path121-4-8" />
    <path
       style="font-style:normal;font-weight:normal;font-size:14.6667px;font-family:mwa_cmr10;color-interpolation:linearRGB;fill:#262626;fill-opacity:1;stroke:none;stroke-width:0.264583;stroke-linecap:square;stroke-linejoin:miter;stroke-miterlimit:10;stroke-dasharray:none;stroke-dashoffset:0;stroke-opacity:1;color-rendering:optimizeQuality;image-rendering:optimizeQuality;shape-rendering:auto;text-rendering:geometricPrecision"
       d="M 9.2965586,53.649879 H 5.3278087 v -0.545703 h 0.1571096 v 0.384466 h 3.6545572 v -0.384466 h 0.1570831 z"
       id="path123-7-8" />
    <path
       style="font-style:normal;font-weight:normal;font-size:14.6667px;font-family:mwa_cmr10;color-interpolation:linearRGB;fill:#262626;fill-opacity:1;stroke:none;stroke-width:0.264583;stroke-linecap:square;stroke-linejoin:miter;stroke-miterlimit:10;stroke-dasharray:none;stroke-dashoffset:0;stroke-opacity:1;color-rendering:optimizeQuality;image-rendering:optimizeQuality;shape-rendering:auto;text-rendering:geometricPrecision"
       d="m 8.349853,52.16681 -2.5300781,0.314193 q -0.08681,0.02892 -0.08681,0.301783 0,0.0372 -0.053737,0.0372 -0.041354,-0.0083 -0.064082,-0.0186 -0.022754,-0.01035 -0.022754,-0.04755 v -0.96737 q 0,-0.02069 0.016536,-0.03101 0.016536,-0.01035 0.037227,-0.01035 0.08681,0.01654 0.08681,0.05374 0,0.310065 0.1074738,0.326602 L 7.9157776,51.865 5.9644756,50.641302 q -0.066146,-0.03307 -0.1075002,-0.03307 -0.066146,0 -0.095065,0.06202 -0.028945,0.06202 -0.028945,0.144701 0,0.04133 -0.053737,0.04133 -0.028945,-0.0083 -0.047546,-0.01445 -0.0186,-0.0062 -0.028945,-0.01654 -0.010345,-0.01035 -0.010345,-0.03516 v -0.764805 q 0,-0.0372 0.053763,-0.0372 0.08681,0.01241 0.08681,0.04961 0,0.301784 0.2604559,0.467149 0.00826,0.0083 0.00826,0.01654 l 2.348177,1.46349 q 0.041354,0.02892 0.041354,0.0744 v 0.05374 q 0,0.04548 -0.041354,0.05376 z"
       id="path125-6-5" />
    <path
       style="font-style:normal;font-weight:normal;font-size:14.6667px;font-family:mwa_cmr10;color-interpolation:linearRGB;fill:#262626;fill-opacity:1;stroke:none;stroke-width:0.264583;stroke-linecap:square;stroke-linejoin:miter;stroke-miterlimit:10;stroke-dasharray:none;stroke-dashoffset:0;stroke-opacity:1;color-rendering:optimizeQuality;image-rendering:optimizeQuality;shape-rendering:auto;text-rendering:geometricPrecision"
       d="M 9.2965586,49.826279 H 9.1394755 V 49.441813 H 5.4849183 v 0.384466 H 5.3278087 v -0.545703 h 3.9687499 z"
       id="path127-5-0" />
  </g>
  <g
     inkscape:groupmode="layer"
     id="layer3"
     inkscape:label="titulo"
     style="display:inline">
    <path
       style="font-style:normal;font-weight:bold;font-size:14.6667px;font-family:SansSerif;color-interpolation:linearRGB;fill:#000000;fill-opacity:1;stroke:none;stroke-width:0.264583;stroke-linecap:square;stroke-linejoin:miter;stroke-miterlimit:10;stroke-dasharray:none;stroke-dashoffset:0;stroke-opacity:1;color-rendering:optimizeQuality;image-rendering:optimizeQuality;shape-rendering:auto;text-rendering:geometricPrecision"
       d="m 50.291576,3.5760025 h 1.050078 q 0.355521,0 0.541576,0.053763 0.24802,0.074401 0.425794,0.2624931 0.177773,0.1881188 0.270801,0.4588934 0.093,0.270801 0.093,0.6718035 0,0.3513931 -0.08681,0.6035675 -0.103346,0.3100652 -0.301784,0.5043752 -0.148828,0.1447006 -0.405156,0.2232289 -0.190156,0.062018 -0.508503,0.062018 h -1.078997 z m 0.574648,0.4795573 v 1.8810287 h 0.429948 q 0.239766,0 0.347266,-0.024792 0.136419,-0.037227 0.229447,-0.1199091 0.093,-0.082682 0.150892,-0.2728384 0.05789,-0.1901825 0.05789,-0.5209116 0,-0.3307292 -0.05789,-0.5064125 -0.05789,-0.1757098 -0.163301,-0.2749286 -0.10541,-0.099219 -0.266647,-0.1322916 -0.119883,-0.028945 -0.471276,-0.028945 z m 2.225781,0.024818 V 3.5760025 h 0.545703 v 0.5043752 z m 0,2.3357681 V 4.35737 h 0.545703 v 2.0587758 z m 0.887201,-0.5870575 0.545703,-0.082656 q 0.03307,0.1570831 0.140573,0.2397654 0.107474,0.082682 0.297657,0.082682 0.21082,0 0.31832,-0.078555 0.07027,-0.053737 0.07027,-0.1446742 0,-0.062018 -0.0372,-0.1033727 -0.04136,-0.0372 -0.181901,-0.070273 -0.657331,-0.1447007 -0.835078,-0.2645834 -0.24392,-0.169492 -0.24392,-0.4630208 0,-0.2687108 0.210847,-0.4506119 0.21082,-0.181901 0.653177,-0.181901 0.42582,0 0.630449,0.1364192 0.204655,0.1364191 0.283183,0.4092839 l -0.516757,0.095091 q -0.03307,-0.1199092 -0.12401,-0.1839913 -0.09096,-0.064082 -0.260456,-0.064082 -0.214974,0 -0.310066,0.057891 -0.06202,0.041328 -0.06202,0.1116277 0,0.057864 0.05374,0.099219 0.07443,0.053737 0.510566,0.1529556 0.436166,0.099219 0.605658,0.2397655 0.17362,0.1488545 0.17362,0.4051564 0,0.2852473 -0.237702,0.4878123 -0.237702,0.2025915 -0.700722,0.2025915 -0.421693,0 -0.665586,-0.1695186 Q 54.053633,6.122617 53.979206,5.8290884 Z M 57.268612,4.35737 v 0.4340754 h -0.372084 v 0.8309504 q 0,0.2521744 0.01035,0.2935287 0.01035,0.041328 0.04961,0.06821 0.03926,0.026882 0.09303,0.026882 0.0744,0 0.219102,-0.053763 l 0.04548,0.4258204 q -0.190183,0.078555 -0.429948,0.078555 -0.148828,0 -0.266674,-0.049609 -0.117819,-0.049609 -0.173619,-0.1281642 -0.0558,-0.078555 -0.07649,-0.2108464 -0.01654,-0.095065 -0.01654,-0.3844661 V 4.7914454 H 56.102778 V 4.35737 h 0.248047 V 3.948086 L 56.896528,3.6297658 V 4.35737 Z m 0.753904,0.6283854 -0.491967,-0.090964 q 0.08268,-0.2976562 0.285248,-0.4402931 0.202591,-0.1426104 0.603594,-0.1426104 0.367929,0 0.545703,0.08681 0.177773,0.08681 0.25011,0.2191014 0.07234,0.1322917 0.07234,0.4878388 l -0.0041,0.6325129 q 0,0.2728648 0.02482,0.4010025 0.02479,0.1281642 0.09922,0.2769923 h -0.541576 q -0.02066,-0.053737 -0.04961,-0.1612371 -0.01654,-0.049609 -0.02066,-0.062018 -0.140573,0.1322916 -0.299747,0.2005277 -0.159147,0.06821 -0.33692,0.06821 -0.31832,0 -0.502285,-0.1715823 -0.183965,-0.1715559 -0.183965,-0.4361392 0,-0.1736196 0.08475,-0.3100652 0.08475,-0.1364192 0.233574,-0.2087562 0.148828,-0.072364 0.434076,-0.130228 0.380338,-0.0703 0.529166,-0.1322916 v -0.053737 q 0,-0.1571096 -0.07855,-0.2232554 -0.07853,-0.066146 -0.293503,-0.066146 -0.1447,0 -0.225319,0.055801 -0.08062,0.055827 -0.134355,0.2005277 z m 0.731731,0.4423304 q -0.107473,0.033073 -0.332793,0.082682 -0.225319,0.049609 -0.295592,0.095091 -0.107474,0.074427 -0.107474,0.1901561 0,0.1157816 0.08475,0.1984375 0.08475,0.082709 0.217038,0.082709 0.148828,0 0.28112,-0.095091 0.09922,-0.074427 0.128164,-0.1819011 0.02479,-0.066146 0.02479,-0.2645833 z m 2.892531,0.98806 H 61.101075 V 5.3660675 q 0,-0.3348567 -0.03516,-0.4320117 -0.03514,-0.097155 -0.113665,-0.1508919 -0.07856,-0.053737 -0.190183,-0.053737 -0.140546,0 -0.252174,0.076491 -0.111628,0.076465 -0.152956,0.2046287 -0.04135,0.1281642 -0.04135,0.4754298 v 0.9301694 h -0.54571 V 4.35737 h 0.504375 v 0.3017837 q 0.268711,-0.3472656 0.677995,-0.3472656 0.181901,0 0.330729,0.064082 0.148828,0.064056 0.225293,0.1653646 0.07649,0.1012825 0.1075,0.2294202 0.03101,0.1281641 0.03101,0.367956 z M 63.936932,4.965065 63.39951,5.0642837 q -0.02482,-0.1612371 -0.121973,-0.2418291 -0.09716,-0.080619 -0.25011,-0.080619 -0.202565,0 -0.324538,0.1384829 -0.121947,0.1385094 -0.121947,0.4692386 0,0.3679295 0.124037,0.5188214 0.12401,0.1508919 0.330729,0.1508919 0.157083,0 0.254238,-0.088874 0.09716,-0.0889 0.138483,-0.3038739 l 0.537448,0.090964 q -0.08681,0.3679296 -0.322474,0.5560219 -0.235638,0.1881188 -0.632513,0.1881188 -0.450611,0 -0.719322,-0.2852473 -0.268738,-0.2852738 -0.268738,-0.785495 0,-0.5126302 0.268738,-0.7958138 0.268711,-0.2831835 0.727604,-0.2831835 0.376184,0 0.59944,0.1612106 0.223229,0.1612371 0.31832,0.4919668 z M 64.299385,4.0803777 V 3.5760025 h 0.545703 v 0.5043752 z m 0,2.3357681 V 4.35737 h 0.545703 v 2.0587758 z m 1.482513,-1.4303904 -0.491966,-0.090964 q 0.08268,-0.2976562 0.285247,-0.4402931 0.202592,-0.1426104 0.603594,-0.1426104 0.36793,0 0.545703,0.08681 0.177774,0.08681 0.250111,0.2191014 0.07234,0.1322917 0.07234,0.4878388 l -0.0041,0.6325129 q 0,0.2728648 0.02482,0.4010025 0.02479,0.1281642 0.09922,0.2769923 h -0.541576 q -0.02066,-0.053737 -0.04961,-0.1612371 -0.01654,-0.049609 -0.02066,-0.062018 -0.140573,0.1322916 -0.29972,0.2005277 -0.159173,0.06821 -0.336947,0.06821 -0.31832,0 -0.502285,-0.1715823 -0.183965,-0.1715559 -0.183965,-0.4361392 0,-0.1736196 0.08475,-0.3100652 0.08475,-0.1364192 0.233575,-0.2087562 0.148828,-0.072364 0.434075,-0.130228 0.380339,-0.0703 0.529167,-0.1322916 v -0.053737 q 0,-0.1571096 -0.07856,-0.2232554 -0.07853,-0.066146 -0.293502,-0.066146 -0.144701,0 -0.22532,0.055801 -0.08062,0.055827 -0.134355,0.2005277 z m 0.731732,0.4423304 q -0.107474,0.033073 -0.332793,0.082682 -0.225319,0.049609 -0.295593,0.095091 -0.107473,0.074427 -0.107473,0.1901561 0,0.1157816 0.08475,0.1984375 0.08475,0.082709 0.217037,0.082709 0.148828,0 0.28112,-0.095091 0.09922,-0.074427 0.128164,-0.1819011 0.02479,-0.066146 0.02479,-0.2645833 z m 0.957765,0.2315104 V 5.1138931 h 1.070716 v 0.5457031 z m 1.357471,0.7565496 V 3.5760025 h 0.921914 q 0.520885,0 0.682123,0.041354 0.243919,0.066146 0.40722,0.279056 0.163301,0.2128837 0.163301,0.5518944 0,0.2604558 -0.09509,0.4402931 -0.09509,0.1798108 -0.239792,0.2811198 -0.144674,0.1012825 -0.297656,0.1343554 -0.206692,0.041328 -0.595312,0.041328 h -0.372057 v 1.0707423 z m 0.574649,-2.360586 v 0.8061589 h 0.314192 q 0.338985,0 0.452676,-0.045482 0.113691,-0.045482 0.177774,-0.1384829 0.06408,-0.093027 0.06408,-0.2211652 0,-0.1529821 -0.09096,-0.2542646 -0.09094,-0.1012825 -0.231511,-0.1261004 -0.09922,-0.020664 -0.409257,-0.020664 z m 1.87952,1.3022527 q 0,-0.2728384 0.134356,-0.5250392 0.134355,-0.2521744 0.380338,-0.3865298 0.245983,-0.1343554 0.547767,-0.1343554 0.467175,0 0.764831,0.3038475 0.297656,0.3038739 0.297656,0.7668948 0,0.4671483 -0.30181,0.7730595 -0.301784,0.3059378 -0.756523,0.3059378 -0.285274,0 -0.541576,-0.1281642 Q 71.551746,6.2052993 71.417391,5.9593162 71.283035,5.7133595 71.283035,5.3578125 Z m 0.558112,0.028945 q 0,0.3059112 0.146765,0.4692121 0.146764,0.1633008 0.357584,0.1633008 0.214974,0 0.359675,-0.1633008 0.1447,-0.1633009 0.1447,-0.4733396 0,-0.3018102 -0.1447,-0.4651111 Q 72.56047,4.754245 72.345496,4.754245 q -0.21082,0 -0.357584,0.1632743 -0.146765,0.1633009 -0.146765,0.4692382 z M 74.722486,4.35737 v 0.4340754 h -0.372057 v 0.8309504 q 0,0.2521744 0.01032,0.2935287 0.01035,0.041328 0.04961,0.06821 0.03929,0.026882 0.09303,0.026882 0.0744,0 0.219101,-0.053763 l 0.04548,0.4258204 q -0.190182,0.078555 -0.429948,0.078555 -0.148828,0 -0.266647,-0.049609 -0.117819,-0.049609 -0.173646,-0.1281642 -0.0558,-0.078555 -0.07646,-0.2108464 -0.01654,-0.095065 -0.01654,-0.3844661 V 4.7914454 h -0.24805 V 4.35737 h 0.248047 V 3.948086 L 74.350429,3.6297658 V 4.35737 Z m 1.539399,1.4055725 0.541549,0.090964 q -0.103346,0.2976562 -0.328639,0.4526756 -0.225319,0.1550459 -0.56433,0.1550459 -0.537421,0 -0.79375,-0.3513932 -0.206692,-0.2811462 -0.206692,-0.7069402 0,-0.5126302 0.268711,-0.8020314 0.268711,-0.2893748 0.677995,-0.2893748 0.458893,0 0.723476,0.3038475 0.264584,0.3038739 0.252175,0.9281054 h -1.364245 q 0.0083,0.2439194 0.134355,0.3782748 0.126074,0.1343554 0.312129,0.1343554 0.128138,0 0.214974,-0.070273 0.08681,-0.070273 0.132292,-0.223256 z m 0.03307,-0.5539582 q -0.0083,-0.2356379 -0.124037,-0.3576108 -0.115755,-0.1219464 -0.28112,-0.1219464 -0.177773,0 -0.297656,0.1281641 -0.115755,0.1322917 -0.111627,0.3513931 z m 2.805694,1.2071615 h -0.5457 V 5.3660675 q 0,-0.3348567 -0.03514,-0.4320117 -0.03514,-0.097155 -0.113692,-0.1508919 -0.07855,-0.053737 -0.190182,-0.053737 -0.140547,0 -0.252175,0.076491 -0.111627,0.076465 -0.152955,0.2046287 -0.04136,0.1281642 -0.04136,0.4754298 V 6.4161458 H 77.223751 V 4.35737 h 0.504375 v 0.3017837 q 0.268711,-0.3472656 0.677995,-0.3472656 0.181901,0 0.330729,0.064082 0.148829,0.064056 0.22532,0.1653646 0.07646,0.1012825 0.107473,0.2294202 0.03101,0.1281641 0.03101,0.367956 z M 81.390803,4.965065 80.853382,5.064284 q -0.02482,-0.1612371 -0.121947,-0.2418291 -0.09716,-0.080619 -0.250137,-0.080619 -0.202565,0 -0.324511,0.1384829 -0.121973,0.1385094 -0.121973,0.4692386 0,0.3679295 0.124036,0.5188214 0.124011,0.1508919 0.33073,0.1508919 0.157083,0 0.254238,-0.088874 0.09716,-0.0889 0.138509,-0.3038739 l 0.537422,0.090964 q -0.08681,0.3679296 -0.322448,0.5560219 -0.235664,0.1881188 -0.632539,0.1881188 -0.450612,0 -0.719323,-0.2852473 -0.268711,-0.2852738 -0.268711,-0.785495 0,-0.5126302 0.268711,-0.7958138 0.268711,-0.2831835 0.727604,-0.2831835 0.376211,0 0.59944,0.1612106 0.223256,0.1612371 0.31832,0.4919665 z M 81.753259,4.0803777 V 3.5760025 h 0.545703 v 0.5043752 z m 0,2.3357681 V 4.35737 h 0.545703 v 2.0587758 z m 1.482513,-1.4303904 -0.491939,-0.090964 q 0.08268,-0.2976562 0.285247,-0.4402931 0.202565,-0.1426104 0.603567,-0.1426104 0.367956,0 0.545704,0.08681 0.177773,0.08681 0.25011,0.2191014 0.07236,0.1322917 0.07236,0.4878388 l -0.0041,0.6325129 q 0,0.2728648 0.02479,0.4010025 0.02482,0.1281642 0.09922,0.2769923 h -0.541575 q -0.02066,-0.053737 -0.04961,-0.1612371 -0.01654,-0.049609 -0.02066,-0.062018 -0.140546,0.1322916 -0.29972,0.2005277 -0.159173,0.06821 -0.33692,0.06821 -0.318347,0 -0.502311,-0.1715823 -0.183965,-0.1715559 -0.183965,-0.4361392 0,-0.1736196 0.08475,-0.3100652 0.08475,-0.1364192 0.233574,-0.2087562 0.148828,-0.072364 0.434102,-0.130228 0.380338,-0.0703 0.529167,-0.1322916 v -0.053737 q 0,-0.1571096 -0.07855,-0.2232554 -0.07855,-0.066146 -0.293529,-0.066146 -0.144701,0 -0.225319,0.055801 -0.08059,0.055827 -0.134356,0.2005277 z m 0.731759,0.4423304 q -0.107501,0.033073 -0.33282,0.082682 -0.225293,0.049609 -0.295566,0.095091 -0.1075,0.074427 -0.1075,0.1901561 0,0.1157816 0.08475,0.1984375 0.08475,0.082709 0.217038,0.082709 0.148828,0 0.281119,-0.095091 0.09922,-0.074427 0.128165,-0.1819011 0.02482,-0.066146 0.02482,-0.2645833 z m 1.019757,0.98806 V 3.5760025 h 0.545703 v 2.8401433 z m 2.158894,0 V 3.5760025 h 2.104257 v 0.4795573 h -1.529635 v 0.6283854 h 1.426289 v 0.4795573 h -1.426289 v 0.773086 h 1.5875 v 0.4795573 z m 2.582307,0 V 3.5760025 h 0.545703 v 2.8401433 z m 2.268008,-0.6532033 0.541576,0.090964 q -0.103347,0.2976562 -0.328666,0.4526756 -0.225319,0.1550459 -0.564303,0.1550459 -0.537448,0 -0.79375,-0.3513932 -0.206719,-0.2811462 -0.206719,-0.7069402 0,-0.5126302 0.268737,-0.8020314 0.268711,-0.2893748 0.677995,-0.2893748 0.458867,0 0.72345,0.3038475 0.264583,0.3038739 0.252201,0.9281054 h -1.364271 q 0.0083,0.2439194 0.134355,0.3782748 0.126101,0.1343554 0.312129,0.1343554 0.128164,0 0.214974,-0.070273 0.08681,-0.070273 0.132292,-0.223256 z m 0.03307,-0.5539582 q -0.0083,-0.2356379 -0.12401,-0.3576108 -0.115756,-0.1219464 -0.28112,-0.1219464 -0.177774,0 -0.297656,0.1281641 -0.115756,0.1322917 -0.111628,0.3513931 z M 90.971236,4.0348958 91.23582,3.4561198 h 0.611849 l -0.533294,0.578776 z m 3.7855,0.9301692 -0.537448,0.099219 q -0.02479,-0.1612371 -0.121947,-0.2418291 -0.09716,-0.080619 -0.25011,-0.080619 -0.202565,0 -0.324538,0.1384829 -0.121947,0.1385094 -0.121947,0.4692386 0,0.3679295 0.124011,0.5188214 0.124036,0.1508919 0.330729,0.1508919 0.157109,0 0.254264,-0.088874 0.09716,-0.0889 0.138483,-0.3038739 l 0.537448,0.090964 q -0.08684,0.3679296 -0.322474,0.5560219 -0.235638,0.1881188 -0.632513,0.1881188 -0.450612,0 -0.719349,-0.2852473 -0.268711,-0.2852738 -0.268711,-0.785495 0,-0.5126302 0.268711,-0.7958138 0.268737,-0.2831835 0.727604,-0.2831835 0.376211,0 0.599467,0.1612106 0.223229,0.1612371 0.31832,0.4919665 z M 96.06174,4.35737 v 0.4340754 h -0.372057 v 0.8309504 q 0,0.2521744 0.01032,0.2935287 0.01035,0.041328 0.04961,0.06821 0.03929,0.026882 0.09303,0.026882 0.07443,0 0.219101,-0.053763 l 0.04548,0.4258204 q -0.190156,0.078555 -0.429948,0.078555 -0.148828,0 -0.266647,-0.049609 -0.117819,-0.049609 -0.173646,-0.1281642 -0.0558,-0.078555 -0.07646,-0.2108464 -0.01654,-0.095065 -0.01654,-0.3844661 V 4.7914454 h -0.24805 V 4.35737 H 95.14398 V 3.948086 L 95.689683,3.6297658 V 4.35737 Z m 0.869659,2.0587758 H 96.385696 V 4.35737 h 0.508503 v 0.2935023 q 0.128164,-0.2066925 0.23151,-0.2728384 0.103347,-0.066146 0.235638,-0.066146 0.186055,0 0.359675,0.1033462 l -0.169492,0.47543 q -0.136419,-0.090964 -0.256329,-0.090964 -0.115755,0 -0.194283,0.064082 -0.07855,0.064082 -0.124037,0.2273829 -0.04548,0.1633008 -0.04548,0.68834 z M 97.919592,4.0803777 V 3.5760025 h 0.545703 v 0.5043752 z m 0,2.3357681 V 4.35737 h 0.545703 v 2.0587758 z m 2.871578,-1.4510808 -0.53742,0.099219 q -0.0248,-0.1612371 -0.12198,-0.2418291 -0.0971,-0.080619 -0.250108,-0.080619 -0.202565,0 -0.324511,0.1384829 -0.121973,0.1385094 -0.121973,0.4692386 0,0.3679295 0.124037,0.5188214 0.12401,0.1508919 0.330729,0.1508919 0.157086,0 0.254236,-0.088874 0.0972,-0.0889 0.13851,-0.3038739 l 0.53742,0.090964 q -0.0868,0.3679296 -0.32244,0.5560219 -0.23567,0.1881188 -0.632544,0.1881188 -0.450612,0 -0.719323,-0.2852473 -0.268711,-0.2852738 -0.268711,-0.785495 0,-0.5126302 0.268711,-0.7958138 0.268711,-0.2831835 0.727604,-0.2831835 0.376213,0 0.599443,0.1612106 0.22325,0.1612371 0.31832,0.4919665 z m 0.23429,0.3927475 q 0,-0.2728384 0.13435,-0.5250392 0.13436,-0.2521744 0.38034,-0.3865298 0.24598,-0.1343554 0.54777,-0.1343554 0.46717,0 0.76483,0.3038475 0.29765,0.3038739 0.29765,0.7668948 0,0.4671483 -0.30181,0.7730595 -0.30178,0.3059378 -0.75652,0.3059378 -0.28527,0 -0.54157,-0.1281642 -0.25633,-0.1281642 -0.39069,-0.3741473 -0.13435,-0.2459567 -0.13435,-0.6015037 z m 0.55811,0.028945 q 0,0.3059112 0.14676,0.4692121 0.14677,0.1633008 0.35759,0.1633008 0.21497,0 0.35967,-0.1633008 0.1447,-0.1633009 0.1447,-0.4733396 0,-0.3018102 -0.1447,-0.4651111 -0.1447,-0.1632743 -0.35967,-0.1632743 -0.21082,0 -0.35759,0.1632743 -0.14676,0.1633009 -0.14676,0.4692386 z"
       id="path131-9-3" />
  </g>
</svg>
