<svg font-family="sans-serif" viewBox="0 0 753 407" xmlns:xlink="http://www.w3.org/1999/xlink" text-decoration="none" font-style="normal" width="753px" xmlns="http://www.w3.org/2000/svg" font-size="15" version="1.1" font-weight="normal" height="407px"><title>Temperatura máxima y mínima promedio en Cochabamba</title><defs><clipPath id="plot-sample-bounds-3"><rect y="0" x="75.8" height="385" width="601.3"></rect></clipPath><clipPath id="plot-sample-bounds-scaled-3"><rect y="0" x="758.3" height="3850" width="6013.5"></rect></clipPath></defs><g transform="scale(0.1)"><path fill-opacity="0.188" stroke="none" d="M758,1997l17,0l16,0l17,1l16,-1l17,0l16,0l17,-3l16,0l17,0l16,-1l17,1l17,1l16,-1l17,1l16,2l17,1l16,1l17,2l16,0l17,2l16,0l17,0l16,2l17,2l16,-1l17,-1l16,1l17,0l16,0l17,1l16,0l17,1l16,1l17,0l16,0l17,1l17,0l16,4l17,-1l16,2l17,1l16,2l17,1l16,2l17,0l16,-1l17,0l16,1l17,-1l16,0l17,1l16,0l17,1l16,0l17,0l16,2l17,1l16,2l17,2l16,1l17,0l17,3l16,3l17,3l16,1l17,3l16,3l17,2l16,1l17,3l16,3l17,2l16,2l17,1l16,0l17,3l16,3l17,1l16,3l17,4l16,2l17,3l16,5l17,5l17,3l16,4l17,5l16,4l17,3l16,7l17,5l16,8l17,6l16,3l17,4l16,6l17,8l16,7l17,7l16,6l17,7l16,5l17,7l16,5l17,5l16,9l17,8l16,9l17,8l17,8l16,7l17,9l16,8l17,8l16,10l17,10l16,9l17,5l16,7l17,8l16,6l17,8l16,6l17,7l16,8l17,10l16,8l17,5l16,7l17,7l16,9l17,7l16,9l17,9l17,9l16,9l17,6l16,6l17,5l16,9l17,5l16,6l17,7l16,8l17,6l16,3l17,4l16,2l17,6l16,6l17,5l16,3l17,4l16,4l17,4l16,3l17,3l17,5l16,4l17,2l16,6l17,2l16,1l17,1l16,-1l17,1l16,4l17,3l16,2l17,2l16,2l17,2l16,2l17,1l16,-3l17,0l16,0l17,2l16,1l17,1l16,-3l17,-2l17,-2l16,0l17,1l16,2l17,1l16,-2l17,-5l16,-1l17,1l16,-7l17,-2l16,-3l17,-3l16,-3l17,-2l16,-5l17,-4l16,-4l17,-5l16,-6l17,-4l16,-6l17,-7l16,-1l17,-4l17,-4l16,-5l17,-4l16,-4l17,-3l16,-5l17,-3l16,-5l17,-8l16,-8l17,-8l16,-5l17,-3l16,-6l17,-8l16,-4l17,-6l16,-3l17,-3l16,-4l17,-4l16,-4l17,-4l17,-5l16,-3l17,-4l16,-5l17,-4l16,-4l17,-8l16,-7l17,-6l16,-6l17,-6l16,-6l17,-5l16,-5l17,-5l16,-4l17,-5l16,-5l17,-3l16,-7l17,-8l16,-5l17,-5l16,-7l17,-4l17,-9l16,-7l17,-5l16,-4l17,-5l16,-8l17,-7l16,-6l17,-6l16,-6l17,-6l16,-5l17,-3l16,-4l17,-6l16,-6l17,-4l16,-4l17,-5l16,-4l17,-6l16,-8l17,-3l16,-4l17,-7l17,-4l16,-3l17,-5l16,-4l17,-3l16,-5l17,-2l16,-6l17,-5l16,-5l17,-6l16,-1l17,-4l16,-4l17,-1l16,-1l17,-2l16,0l17,-3l16,1l17,0l16,-1l17,-3l17,-3l16,-3l17,-4l16,-2l17,-1l16,-4l17,-3l16,-1l17,-3l16,-1l17,-1l16,-1l17,-2l16,-1l17,-2l16,2l17,0l16,-3l17,0l16,0l17,-1l16,-2l17,0l16,-3l17,-4l17,-3l16,-2l17,-5l16,-4l17,-2l16,-1l17,1l16,2l17,0l16,-1l17,-1l16,-1l17,1l16,1l17,1l16,-1l17,-2l16,-2l17,-1l16,0l17,0l16,-2l17,-2l16,0l17,-3l17,0l16,-1l17,-1l16,-3l17,0l16,0l17,0l16,2l17,1l16,0l17,0l0,-221l-17,0l-16,-2l-17,0l-16,-1l-17,-3l-16,0l-17,0l-16,-1l-17,-1l-16,-1l-17,-2l-17,-3l-16,0l-17,0l-16,2l-17,0l-16,0l-17,0l-16,1l-17,-1l-16,1l-17,1l-16,1l-17,0l-16,2l-17,-1l-16,1l-17,1l-16,0l-17,2l-16,-1l-17,-1l-16,1l-17,1l-16,2l-17,3l-17,1l-16,3l-17,0l-16,0l-17,1l-16,2l-17,3l-16,0l-17,1l-16,1l-17,1l-16,1l-17,3l-16,1l-17,2l-16,1l-17,1l-16,2l-17,1l-16,2l-17,2l-16,1l-17,0l-16,1l-17,1l-17,4l-16,1l-17,1l-16,2l-17,2l-16,1l-17,3l-16,3l-17,5l-16,3l-17,3l-16,1l-17,4l-16,4l-17,2l-16,4l-17,5l-16,3l-17,2l-16,3l-17,5l-16,0l-17,4l-17,6l-16,5l-17,4l-16,4l-17,4l-16,6l-17,4l-16,2l-17,4l-16,2l-17,7l-16,5l-17,2l-16,7l-17,4l-16,2l-17,3l-16,6l-17,4l-16,6l-17,3l-16,2l-17,4l-16,3l-17,5l-17,4l-16,5l-17,7l-16,8l-17,10l-16,6l-17,2l-16,4l-17,3l-16,4l-17,5l-16,3l-17,3l-16,7l-17,6l-16,8l-17,5l-16,7l-17,4l-16,0l-17,3l-16,6l-17,6l-16,2l-17,5l-17,7l-16,7l-17,9l-16,7l-17,7l-16,4l-17,8l-16,8l-17,4l-16,1l-17,6l-16,5l-17,1l-16,3l-17,4l-16,4l-17,2l-16,4l-17,7l-16,5l-17,2l-16,3l-17,4l-17,2l-16,6l-17,7l-16,3l-17,4l-16,-1l-17,3l-16,1l-17,1l-16,-3l-17,0l-16,0l-17,1l-16,1l-17,1l-16,-2l-17,-1l-16,1l-17,-1l-16,1l-17,5l-16,1l-17,-3l-16,-2l-17,2l-17,2l-16,2l-17,0l-16,1l-17,-1l-16,-2l-17,-4l-16,-3l-17,-1l-16,1l-17,-2l-16,2l-17,0l-16,0l-17,-3l-16,0l-17,0l-16,-2l-17,-2l-16,-2l-17,-3l-16,-2l-17,0l-16,-4l-17,-3l-17,-4l-16,-2l-17,-2l-16,0l-17,-1l-16,-9l-17,-10l-16,-7l-17,-7l-16,-6l-17,-10l-16,-6l-17,-2l-16,-4l-17,-4l-16,-7l-17,-8l-16,-5l-17,-7l-16,-7l-17,-5l-16,-6l-17,-8l-17,-6l-16,-7l-17,-6l-16,-8l-17,-7l-16,-7l-17,-5l-16,-8l-17,-8l-16,-7l-17,-6l-16,-7l-17,-3l-16,-3l-17,-1l-16,-4l-17,-7l-16,-5l-17,-1l-16,-6l-17,-6l-16,-7l-17,-6l-16,-4l-17,-5l-17,-5l-16,-5l-17,-4l-16,-4l-17,-4l-16,-4l-17,-6l-16,-4l-17,-4l-16,-2l-17,-3l-16,-6l-17,-4l-16,-5l-17,-2l-16,-6l-17,-4l-16,-3l-17,-5l-16,-2l-17,-3l-16,-6l-17,-2l-16,-3l-17,-3l-17,-2l-16,-2l-17,-1l-16,-3l-17,-3l-16,-1l-17,-4l-16,-4l-17,-2l-16,-1l-17,-3l-16,-1l-17,-2l-16,0l-17,-1l-16,-1l-17,-2l-16,0l-17,-1l-16,2l-17,-2l-16,0l-17,-1l-17,0l-16,-1l-17,0l-16,0l-17,1l-16,2l-17,-2l-16,0l-17,-1l-16,0l-17,-3l-16,1l-17,0l-16,-1l-17,2l-16,-1l-17,0l-16,-3l-17,1l-16,1l-17,-2l-16,-1l-17,-1l-16,-1l-17,0l-17,0l-16,0l-17,-2l-16,0l-17,2l-16,0l-17,0l-16,-1l-17,-2l-16,-2l-17,-1l-16,0l-17,-1l-16,-1l-17,1l-16,-3l-17,2l-16,0l-17,0l-16,1l-17,0l-16,-2l-17,0l-16,-1l-17,-2l-17,-3l-16,0l-17,-1l-16,-2l-17,-1l-16,-2l-17,-1l-16,-2l-17,-1l-16,-1l-17,0Z" fill="#4646b9"></path><path fill-opacity="0.188" stroke="none" d="M758,1945l17,0l16,0l17,1l16,2l17,1l16,0l17,0l16,-1l17,0l16,1l17,1l17,-2l16,2l17,1l16,-2l17,1l16,2l17,0l16,0l17,1l16,0l17,1l16,2l17,1l16,1l17,0l16,1l17,1l16,2l17,0l16,1l17,1l16,1l17,0l16,1l17,0l17,0l16,1l17,2l16,0l17,0l16,1l17,2l16,0l17,0l16,1l17,1l16,-1l17,1l16,0l17,0l16,1l17,0l16,0l17,0l16,0l17,1l16,1l17,0l16,0l17,0l17,1l16,2l17,1l16,1l17,1l16,2l17,0l16,2l17,2l16,2l17,1l16,2l17,2l16,2l17,3l16,2l17,1l16,2l17,3l16,3l17,3l16,3l17,3l17,4l16,4l17,5l16,5l17,5l16,5l17,6l16,5l17,5l16,5l17,6l16,6l17,5l16,6l17,7l16,5l17,6l16,6l17,6l16,6l17,6l16,7l17,6l16,9l17,8l17,7l16,6l17,8l16,9l17,7l16,10l17,8l16,6l17,6l16,6l17,7l16,8l17,8l16,8l17,7l16,9l17,7l16,7l17,6l16,6l17,7l16,9l17,9l16,9l17,8l17,8l16,8l17,6l16,7l17,6l16,8l17,7l16,8l17,4l16,4l17,6l16,3l17,7l16,5l17,6l16,7l17,4l16,3l17,3l16,4l17,3l16,2l17,3l17,4l16,5l17,3l16,4l17,1l16,0l17,1l16,1l17,0l16,3l17,2l16,0l17,1l16,2l17,2l16,0l17,1l16,1l17,0l16,-1l17,0l16,1l17,-1l16,-2l17,-3l17,0l16,0l17,1l16,1l17,1l16,-1l17,-2l16,-1l17,-2l16,-2l17,-2l16,-1l17,-3l16,-4l17,-2l16,-3l17,-2l16,-4l17,-4l16,-4l17,-6l16,-5l17,-6l16,-3l17,-2l17,-2l16,-4l17,-4l16,-3l17,-3l16,-4l17,-6l16,-4l17,-6l16,-7l17,-7l16,-5l17,-5l16,-6l17,-4l16,-5l17,-5l16,-6l17,-4l16,-4l17,-3l16,-5l17,-5l17,-3l16,-5l17,-4l16,-5l17,-4l16,-4l17,-6l16,-7l17,-6l16,-7l17,-5l16,-7l17,-5l16,-5l17,-3l16,-6l17,-3l16,-6l17,-4l16,-6l17,-7l16,-6l17,-6l16,-6l17,-4l17,-7l16,-5l17,-5l16,-6l17,-3l16,-8l17,-7l16,-5l17,-6l16,-6l17,-5l16,-5l17,-4l16,-4l17,-7l16,-4l17,-5l16,-4l17,-6l16,-5l17,-6l16,-5l17,-5l16,-6l17,-5l17,-4l16,-4l17,-5l16,-4l17,-5l16,-4l17,-4l16,-5l17,-5l16,-5l17,-4l16,-2l17,-4l16,-3l17,-2l16,-2l17,-2l16,-3l17,-2l16,-1l17,-1l16,-1l17,-2l17,-2l16,-2l17,-2l16,-1l17,-1l16,-4l17,-2l16,-3l17,-1l16,-1l17,-1l16,-2l17,-1l16,-1l17,-3l16,0l17,-1l16,-2l17,0l16,-3l17,1l16,-1l17,-2l16,-1l17,-1l17,-1l16,-2l17,-2l16,-3l17,-2l16,-2l17,0l16,0l17,-1l16,-2l17,-1l16,0l17,1l16,1l17,-1l16,-1l17,1l16,0l17,0l16,-1l17,1l16,1l17,0l16,0l17,-1l17,1l16,0l17,-1l16,0l17,-1l16,-1l17,0l16,0l17,0l16,1l17,-1l0,-102l-17,-1l-16,-2l-17,-1l-16,-2l-17,-2l-16,0l-17,-1l-16,0l-17,-1l-16,0l-17,-2l-17,-2l-16,1l-17,1l-16,-2l-17,-1l-16,0l-17,-1l-16,0l-17,-1l-16,0l-17,1l-16,-1l-17,-1l-16,1l-17,0l-16,2l-17,1l-16,1l-17,2l-16,0l-17,2l-16,0l-17,0l-16,2l-17,2l-17,2l-16,1l-17,1l-16,1l-17,-1l-16,1l-17,1l-16,1l-17,-1l-16,2l-17,2l-16,2l-17,2l-16,1l-17,3l-16,2l-17,0l-16,2l-17,1l-16,3l-17,2l-16,1l-17,-1l-16,1l-17,1l-17,3l-16,2l-17,3l-16,4l-17,2l-16,2l-17,2l-16,4l-17,4l-16,5l-17,5l-16,3l-17,4l-16,4l-17,5l-16,4l-17,3l-16,3l-17,4l-16,5l-17,4l-16,4l-17,5l-17,5l-16,5l-17,4l-16,4l-17,5l-16,6l-17,5l-16,5l-17,3l-16,5l-17,5l-16,3l-17,5l-16,6l-17,5l-16,4l-17,3l-16,6l-17,3l-16,6l-17,6l-16,2l-17,4l-16,6l-17,5l-17,5l-16,5l-17,4l-16,7l-17,7l-16,8l-17,4l-16,6l-17,3l-16,6l-17,3l-16,2l-17,5l-16,6l-17,6l-16,5l-17,7l-16,8l-17,3l-16,4l-17,3l-16,4l-17,7l-16,5l-17,7l-17,5l-16,5l-17,8l-16,7l-17,5l-16,4l-17,7l-16,7l-17,6l-16,4l-17,4l-16,4l-17,3l-16,4l-17,6l-16,4l-17,5l-16,6l-17,5l-16,3l-17,4l-16,4l-17,2l-17,2l-16,4l-17,6l-16,4l-17,4l-16,0l-17,1l-16,0l-17,0l-16,0l-17,0l-16,2l-17,1l-16,1l-17,0l-16,-2l-17,0l-16,-1l-17,1l-16,1l-17,1l-16,1l-17,-2l-16,0l-17,-1l-17,1l-16,1l-17,0l-16,-1l-17,-1l-16,0l-17,-3l-16,-2l-17,-1l-16,-1l-17,0l-16,0l-17,2l-16,0l-17,0l-16,1l-17,-1l-16,-2l-17,-3l-16,-1l-17,-2l-16,-1l-17,-2l-16,-2l-17,-3l-17,-4l-16,-3l-17,-3l-16,-5l-17,-2l-16,-5l-17,-4l-16,-6l-17,-6l-16,-7l-17,-7l-16,-5l-17,-4l-16,-5l-17,-5l-16,-7l-17,-8l-16,-7l-17,-6l-16,-7l-17,-7l-16,-6l-17,-9l-17,-5l-16,-7l-17,-7l-16,-8l-17,-8l-16,-7l-17,-7l-16,-6l-17,-8l-16,-8l-17,-5l-16,-7l-17,-7l-16,-7l-17,-7l-16,-6l-17,-7l-16,-6l-17,-4l-16,-7l-17,-7l-16,-7l-17,-6l-16,-6l-17,-6l-17,-6l-16,-6l-17,-6l-16,-6l-17,-6l-16,-5l-17,-7l-16,-4l-17,-5l-16,-3l-17,-4l-16,-4l-17,-5l-16,-4l-17,-4l-16,-4l-17,-5l-16,-3l-17,-4l-16,-2l-17,-3l-16,-4l-17,-2l-16,-3l-17,-2l-17,-3l-16,-1l-17,-1l-16,-3l-17,-2l-16,-2l-17,-2l-16,-2l-17,-4l-16,0l-17,-3l-16,-1l-17,-2l-16,-1l-17,-2l-16,-2l-17,-1l-16,-1l-17,-1l-16,-1l-17,0l-16,-1l-17,-2l-17,0l-16,1l-17,-1l-16,-1l-17,1l-16,-1l-17,-1l-16,-2l-17,0l-16,-2l-17,0l-16,0l-17,0l-16,0l-17,0l-16,0l-17,0l-16,-1l-17,1l-16,0l-17,-1l-16,-1l-17,0l-16,-1l-17,-1l-17,-1l-16,0l-17,-1l-16,0l-17,0l-16,0l-17,0l-16,0l-17,0l-16,0l-17,0l-16,0l-17,-1l-16,0l-17,0l-16,-2l-17,0l-16,0l-17,0l-16,-1l-17,0l-16,1l-17,0l-16,-2l-17,-2l-17,-2l-16,0l-17,-1l-16,-1l-17,0l-16,0l-17,0l-16,-1l-17,-1l-16,-2l-17,0Z" fill="#4646b9"></path><g clip-path="url(#plot-sample-bounds-scaled-3)"><path stroke-width="20" stroke="#4646b9" d="M758,1894l17,1l16,1l17,1l16,0l17,1l16,0l17,-1l16,1l17,0l16,1l17,1l17,1l16,0l17,1l16,-1l17,0l16,1l17,0l16,1l17,0l16,0l17,1l16,1l17,1l16,0l17,1l16,0l17,1l16,1l17,0l16,0l17,0l16,0l17,1l16,1l17,1l17,0l16,1l17,0l16,2l17,0l16,1l17,0l16,1l17,1l16,0l17,0l16,1l17,-1l16,0l17,1l16,1l17,1l16,0l17,1l16,0l17,0l16,1l17,1l16,0l17,0l17,2l16,1l17,1l16,1l17,1l16,1l17,2l16,1l17,2l16,1l17,2l16,2l17,2l16,2l17,3l16,2l17,2l16,1l17,4l16,3l17,2l16,2l17,3l17,3l16,4l17,4l16,5l17,4l16,4l17,4l16,5l17,4l16,5l17,5l16,5l17,5l16,6l17,5l16,4l17,6l16,5l17,6l16,5l17,5l16,7l17,5l16,8l17,7l17,6l16,6l17,8l16,7l17,8l16,7l17,6l16,6l17,6l16,6l17,7l16,7l17,7l16,7l17,7l16,7l17,8l16,7l17,6l16,7l17,7l16,8l17,8l16,8l17,7l17,7l16,8l17,6l16,7l17,6l16,7l17,7l16,7l17,5l16,5l17,4l16,5l17,6l16,5l17,6l16,7l17,5l16,4l17,2l16,4l17,3l16,3l17,4l17,3l16,3l17,3l16,3l17,2l16,1l17,1l16,2l17,1l16,2l17,1l16,0l17,0l16,1l17,1l16,0l17,1l16,1l17,1l16,1l17,1l16,1l17,-1l16,-2l17,-1l17,-1l16,0l17,2l16,0l17,-2l16,-1l17,-1l16,0l17,0l16,-2l17,-1l16,-1l17,-2l16,-3l17,-1l16,-2l17,-2l16,-1l17,-3l16,-2l17,-4l16,-4l17,-5l16,-4l17,-2l17,-4l16,-4l17,-4l16,-3l17,-4l16,-4l17,-5l16,-4l17,-6l16,-5l17,-5l16,-4l17,-4l16,-5l17,-5l16,-6l17,-6l16,-5l17,-5l16,-5l17,-6l16,-5l17,-5l17,-5l16,-4l17,-6l16,-5l17,-4l16,-3l17,-5l16,-7l17,-6l16,-7l17,-5l16,-6l17,-6l16,-4l17,-4l16,-4l17,-4l16,-5l17,-4l16,-6l17,-8l16,-6l17,-6l16,-5l17,-5l17,-6l16,-4l17,-5l16,-4l17,-5l16,-6l17,-6l16,-5l17,-6l16,-4l17,-5l16,-6l17,-4l16,-4l17,-5l16,-4l17,-4l16,-4l17,-6l16,-5l17,-5l16,-5l17,-5l16,-5l17,-5l17,-5l16,-2l17,-5l16,-4l17,-4l16,-4l17,-3l16,-5l17,-5l16,-4l17,-5l16,-1l17,-5l16,-3l17,-3l16,-2l17,-2l16,-2l17,-2l16,-2l17,-1l16,-2l17,-3l17,-2l16,-2l17,-1l16,-1l17,-2l16,-2l17,-2l16,-2l17,-1l16,-2l17,-2l16,-1l17,-2l16,-1l17,-3l16,0l17,0l16,-1l17,-2l16,-1l17,0l16,-1l17,-1l16,-1l17,-2l17,-2l16,-2l17,-2l16,-2l17,-1l16,0l17,-1l16,0l17,-1l16,-1l17,-1l16,0l17,1l16,0l17,-1l16,0l17,0l16,-1l17,1l16,0l17,1l16,0l17,0l16,0l17,0l17,0l16,0l17,0l16,0l17,0l16,0l17,0l16,2l17,1l16,0l17,0" fill="none" stroke-opacity="1.0"></path></g><path fill-opacity="0.188" stroke="none" d="M758,1516l17,1l16,0l17,10l16,8l17,1l16,-4l17,4l16,0l17,4l16,1l17,-1l17,0l16,0l17,0l16,1l17,2l16,-1l17,0l16,-1l17,-2l16,0l17,1l16,-3l17,-1l16,4l17,2l16,-1l17,-2l16,-1l17,-3l16,1l17,5l16,1l17,2l16,0l17,-3l17,1l16,-1l17,-1l16,0l17,-1l16,2l17,-1l16,1l17,-3l16,3l17,-2l16,2l17,0l16,-5l17,4l16,1l17,0l16,3l17,0l16,-4l17,-4l16,5l17,-3l16,0l17,0l17,1l16,0l17,-1l16,-7l17,-5l16,3l17,-1l16,-2l17,3l16,3l17,0l16,-2l17,-1l16,3l17,0l16,-3l17,-3l16,-3l17,1l16,-1l17,-6l16,-3l17,-5l17,-2l16,-5l17,-3l16,-3l17,-4l16,-2l17,-5l16,-4l17,-4l16,-6l17,-4l16,-1l17,1l16,-5l17,-1l16,-2l17,-3l16,-6l17,-2l16,-3l17,-2l16,-5l17,-1l16,-5l17,0l17,-2l16,-1l17,-1l16,2l17,-4l16,-2l17,-3l16,2l17,0l16,2l17,0l16,0l17,-1l16,0l17,-3l16,2l17,1l16,2l17,0l16,2l17,-2l16,0l17,-1l16,0l17,-3l17,0l16,2l17,2l16,-1l17,1l16,0l17,2l16,3l17,6l16,6l17,3l16,5l17,4l16,0l17,2l16,0l17,2l16,4l17,4l16,2l17,6l16,0l17,0l17,0l16,0l17,2l16,4l17,2l16,1l17,3l16,1l17,6l16,7l17,4l16,3l17,4l16,5l17,0l16,-1l17,-4l16,-1l17,0l16,0l17,0l16,0l17,0l16,2l17,1l17,1l16,-1l17,0l16,1l17,1l16,1l17,2l16,0l17,-2l16,-2l17,0l16,0l17,-2l16,0l17,-7l16,-9l17,-6l16,-7l17,-6l16,-7l17,-1l16,-1l17,4l16,1l17,-1l17,-2l16,-4l17,-3l16,-1l17,0l16,-1l17,-1l16,-1l17,1l16,-2l17,-1l16,0l17,-6l16,-2l17,-5l16,0l17,-2l16,-3l17,-2l16,-2l17,0l16,3l17,1l17,5l16,4l17,2l16,-2l17,-4l16,-6l17,-7l16,-1l17,1l16,2l17,0l16,-1l17,-2l16,1l17,-5l16,-4l17,-4l16,-1l17,-4l16,2l17,3l16,-1l17,2l16,3l17,2l17,0l16,0l17,-5l16,1l17,-5l16,-3l17,-5l16,-2l17,-4l16,1l17,2l16,2l17,-1l16,-4l17,-3l16,-1l17,0l16,-2l17,-1l16,-5l17,2l16,3l17,3l16,-2l17,0l17,-8l16,-6l17,-1l16,-4l17,-5l16,-3l17,-2l16,-1l17,7l16,0l17,0l16,3l17,0l16,-4l17,-2l16,-2l17,0l16,-1l17,-3l16,1l17,1l16,-1l17,-1l17,1l16,4l17,3l16,0l17,0l16,-2l17,4l16,2l17,3l16,3l17,2l16,2l17,0l16,3l17,2l16,5l17,-3l16,3l17,1l16,-1l17,4l16,3l17,6l16,5l17,1l17,-1l16,6l17,2l16,-1l17,2l16,2l17,4l16,-3l17,2l16,-4l17,0l16,1l17,2l16,3l17,3l16,5l17,5l16,3l17,5l16,4l17,3l16,1l17,3l16,1l17,3l17,8l16,5l17,2l16,2l17,4l16,4l17,4l16,3l17,2l16,5l17,6l0,-418l-17,-3l-16,-3l-17,-4l-16,-5l-17,-3l-16,-4l-17,-1l-16,-4l-17,-4l-16,-3l-17,-4l-17,-3l-16,-5l-17,-4l-16,1l-17,-4l-16,-5l-17,-3l-16,-2l-17,-2l-16,-2l-17,0l-16,-4l-17,-1l-16,-3l-17,-1l-16,-1l-17,0l-16,0l-17,0l-16,0l-17,-3l-16,-1l-17,0l-16,1l-17,-2l-17,1l-16,-2l-17,-1l-16,1l-17,-2l-16,1l-17,-2l-16,1l-17,1l-16,-1l-17,2l-16,0l-17,0l-16,0l-17,0l-16,-1l-17,-1l-16,1l-17,-1l-16,2l-17,0l-16,2l-17,3l-16,1l-17,0l-17,1l-16,2l-17,3l-16,1l-17,2l-16,2l-17,1l-16,0l-17,2l-16,2l-17,1l-16,1l-17,2l-16,3l-17,0l-16,0l-17,0l-16,3l-17,1l-16,0l-17,3l-16,3l-17,4l-17,4l-16,2l-17,3l-16,2l-17,0l-16,0l-17,2l-16,1l-17,0l-16,2l-17,0l-16,2l-17,1l-16,2l-17,0l-16,1l-17,1l-16,1l-17,1l-16,3l-17,2l-16,0l-17,3l-16,3l-17,1l-17,0l-16,-1l-17,3l-16,0l-17,-1l-16,-1l-17,1l-16,1l-17,2l-16,1l-17,0l-16,2l-17,3l-16,3l-17,1l-16,3l-17,1l-16,1l-17,2l-16,2l-17,2l-16,2l-17,3l-16,0l-17,2l-17,0l-16,1l-17,2l-16,1l-17,1l-16,3l-17,2l-16,4l-17,4l-16,3l-17,4l-16,2l-17,3l-16,3l-17,0l-16,3l-17,4l-16,4l-17,1l-16,1l-17,4l-16,1l-17,3l-17,2l-16,2l-17,4l-16,3l-17,5l-16,2l-17,3l-16,1l-17,2l-16,1l-17,2l-16,2l-17,3l-16,2l-17,4l-16,1l-17,0l-16,1l-17,0l-16,2l-17,0l-16,0l-17,2l-16,0l-17,-1l-17,-1l-16,-3l-17,0l-16,0l-17,-1l-16,-1l-17,1l-16,-2l-17,-3l-16,-1l-17,-3l-16,-2l-17,-2l-16,1l-17,0l-16,0l-17,-2l-16,-1l-17,-2l-16,-1l-17,-3l-16,-2l-17,-2l-16,-1l-17,-1l-17,-2l-16,-1l-17,-2l-16,-3l-17,0l-16,-1l-17,-3l-16,1l-17,-1l-16,-2l-17,0l-16,-1l-17,-3l-16,-2l-17,-2l-16,-1l-17,-2l-16,1l-17,-2l-16,-3l-17,-4l-16,-3l-17,-3l-17,-3l-16,-2l-17,-5l-16,-2l-17,-3l-16,-2l-17,-1l-16,-2l-17,0l-16,-2l-17,-1l-16,-3l-17,-2l-16,-2l-17,-2l-16,-3l-17,-1l-16,-1l-17,-2l-16,-2l-17,0l-16,-3l-17,-1l-16,-1l-17,-1l-17,-2l-16,0l-17,-1l-16,3l-17,0l-16,3l-17,1l-16,-2l-17,1l-16,-2l-17,1l-16,0l-17,0l-16,-1l-17,-4l-16,0l-17,0l-16,1l-17,0l-16,2l-17,1l-16,0l-17,0l-16,0l-17,2l-17,1l-16,-1l-17,0l-16,-1l-17,-1l-16,0l-17,0l-16,-1l-17,0l-16,-2l-17,2l-16,-1l-17,0l-16,1l-17,2l-16,2l-17,0l-16,2l-17,2l-16,3l-17,3l-16,1l-17,2l-17,2l-16,0l-17,2l-16,-1l-17,2l-16,1l-17,0l-16,1l-17,0l-16,0l-17,2l-16,0l-17,-1l-16,0l-17,-1l-16,0l-17,0l-16,0l-17,-1l-16,0l-17,-2l-16,0l-17,0l-16,-1l-17,-1l-17,-1l-16,-1l-17,1l-16,-1l-17,-1l-16,0l-17,-2l-16,0l-17,-2l-16,0l-17,0l-16,1l-17,-1l-16,0l-17,0l-16,2l-17,0l-16,2l-17,2l-16,3l-17,3l-16,-3l-17,0l-16,3l-17,0l-17,-2l-16,2l-17,-2l-16,-4l-17,-1l-16,0l-17,-3l-16,-3l-17,-5l-16,-5l-17,-2Z" fill="#ba4545"></path><path fill-opacity="0.188" stroke="none" d="M758,1400l17,2l16,2l17,4l16,7l17,4l16,-1l17,2l16,2l17,1l16,3l17,0l17,-3l16,2l17,0l16,1l17,0l16,0l17,1l16,-1l17,-2l16,1l17,1l16,0l17,0l16,1l17,5l16,-2l17,-2l16,-2l17,0l16,0l17,5l16,1l17,0l16,-1l17,-2l17,1l16,1l17,-2l16,-2l17,-1l16,2l17,2l16,0l17,-3l16,3l17,1l16,-1l17,-2l16,-1l17,4l16,-1l17,2l16,0l17,1l16,-2l17,-5l16,2l17,-2l16,-4l17,-2l17,1l16,-3l17,-2l16,-2l17,-5l16,1l17,-1l16,-2l17,1l16,0l17,0l16,-3l17,2l16,-1l17,1l16,-5l17,-4l16,-2l17,0l16,-2l17,-5l16,-5l17,-4l17,-3l16,-4l17,-1l16,-3l17,-6l16,-1l17,-1l16,-1l17,-6l16,-3l17,-3l16,0l17,-1l16,-3l17,-3l16,-4l17,-2l16,-1l17,-3l16,-1l17,-4l16,-2l17,-3l16,-3l17,1l17,-1l16,-2l17,-1l16,0l17,0l16,0l17,0l16,1l17,0l16,1l17,1l16,1l17,1l16,0l17,0l16,2l17,1l16,1l17,3l16,2l17,1l16,2l17,0l16,1l17,1l17,1l16,2l17,0l16,5l17,2l16,1l17,3l16,1l17,3l16,2l17,5l16,2l17,4l16,2l17,3l16,2l17,2l16,2l17,2l16,3l17,4l16,2l17,1l17,2l16,1l17,4l16,3l17,2l16,2l17,1l16,2l17,3l16,2l17,3l16,0l17,2l16,3l17,2l16,2l17,1l16,0l17,0l16,0l17,-1l16,0l17,0l16,1l17,0l17,0l16,1l17,-2l16,1l17,-1l16,0l17,0l16,-1l17,-1l16,-2l17,0l16,-1l17,-2l16,0l17,-3l16,-4l17,-2l16,-4l17,-6l16,-4l17,-2l16,-3l17,1l16,0l17,-2l17,-1l16,-2l17,-2l16,-3l17,0l16,-1l17,-1l16,-1l17,-2l16,-4l17,-3l16,0l17,-3l16,-5l17,-4l16,0l17,-4l16,-2l17,-2l16,-3l17,0l16,0l17,0l17,1l16,3l17,0l16,-2l17,-3l16,-5l17,-2l16,-1l17,-1l16,-1l17,0l16,-2l17,-1l16,-5l17,-2l16,-3l17,-1l16,-1l17,-2l16,-2l17,1l16,-1l17,0l16,-1l17,-1l17,0l16,-1l17,-4l16,-2l17,-4l16,-3l17,-3l16,-3l17,-1l16,-2l17,0l16,-1l17,-1l16,-2l17,-3l16,0l17,-4l16,1l17,-2l16,0l17,-2l16,-2l17,-2l16,1l17,-1l17,-2l16,-4l17,0l16,-2l17,-1l16,-1l17,0l16,-2l17,4l16,2l17,0l16,-1l17,-2l16,-1l17,-1l16,-1l17,-1l16,-3l17,-2l16,-1l17,-2l16,-2l17,1l17,-1l16,2l17,1l16,2l17,0l16,2l17,2l16,2l17,1l16,0l17,1l16,1l17,1l16,1l17,0l16,2l17,-1l16,0l17,2l16,4l17,2l16,2l17,4l16,3l17,2l17,2l16,4l17,1l16,4l17,3l16,1l17,2l16,0l17,2l16,-1l17,1l16,0l17,3l16,2l17,4l16,4l17,2l16,4l17,5l16,4l17,4l16,3l17,4l16,2l17,4l17,7l16,4l17,4l16,0l17,3l16,3l17,6l16,2l17,5l16,4l17,6l0,-202l-17,-4l-16,-5l-17,-3l-16,-3l-17,-5l-16,-7l-17,-1l-16,-2l-17,-4l-16,-2l-17,-4l-17,-4l-16,-4l-17,-4l-16,-6l-17,-4l-16,-5l-17,-3l-16,-4l-17,-2l-16,-3l-17,-3l-16,-3l-17,-1l-16,-2l-17,0l-16,0l-17,0l-16,0l-17,-2l-16,0l-17,-3l-16,-1l-17,0l-16,-1l-17,-1l-17,1l-16,-3l-17,-2l-16,0l-17,-2l-16,-1l-17,1l-16,0l-17,1l-16,1l-17,0l-16,0l-17,0l-16,1l-17,-1l-16,0l-17,0l-16,0l-17,-1l-16,1l-17,-1l-16,-1l-17,2l-16,0l-17,1l-17,-1l-16,1l-17,1l-16,1l-17,0l-16,2l-17,0l-16,1l-17,2l-16,1l-17,2l-16,1l-17,0l-16,1l-17,-1l-16,0l-17,0l-16,3l-17,2l-16,1l-17,4l-16,2l-17,2l-17,3l-16,1l-17,1l-16,2l-17,3l-16,0l-17,3l-16,2l-17,1l-16,0l-17,3l-16,3l-17,2l-16,2l-17,1l-16,1l-17,0l-16,0l-17,2l-16,2l-17,2l-16,2l-17,2l-16,2l-17,3l-17,0l-16,0l-17,0l-16,-1l-17,-1l-16,2l-17,3l-16,0l-17,2l-16,3l-17,1l-16,3l-17,3l-16,1l-17,1l-16,2l-17,0l-16,1l-17,2l-16,4l-17,1l-16,3l-17,2l-16,1l-17,1l-17,1l-16,1l-17,2l-16,1l-17,3l-16,2l-17,1l-16,4l-17,3l-16,5l-17,3l-16,2l-17,1l-16,2l-17,2l-16,2l-17,3l-16,2l-17,2l-16,2l-17,3l-16,2l-17,3l-17,2l-16,2l-17,2l-16,2l-17,4l-16,2l-17,4l-16,2l-17,2l-16,0l-17,2l-16,2l-17,1l-16,1l-17,2l-16,2l-17,0l-16,0l-17,2l-16,0l-17,2l-16,-1l-17,2l-16,0l-17,-1l-17,-1l-16,-1l-17,1l-16,-1l-17,-1l-16,-1l-17,0l-16,0l-17,-2l-16,-2l-17,-2l-16,-2l-17,-1l-16,-2l-17,0l-16,1l-17,-1l-16,-1l-17,-4l-16,-2l-17,-1l-16,-3l-17,-2l-16,-1l-17,-3l-17,-2l-16,-1l-17,-2l-16,-2l-17,-2l-16,0l-17,-2l-16,-1l-17,-3l-16,-1l-17,-3l-16,-2l-17,-2l-16,-2l-17,-2l-16,-1l-17,-1l-16,-2l-17,-2l-16,-2l-17,-3l-16,-2l-17,-2l-17,-1l-16,-2l-17,-2l-16,-3l-17,-1l-16,-2l-17,-2l-16,-1l-17,0l-16,-1l-17,0l-16,-1l-17,-3l-16,-3l-17,-3l-16,-3l-17,-2l-16,0l-17,-1l-16,0l-17,-2l-16,0l-17,-1l-16,-1l-17,-1l-17,0l-16,1l-17,-1l-16,1l-17,0l-16,0l-17,0l-16,1l-17,-1l-16,0l-17,2l-16,1l-17,0l-16,-1l-17,1l-16,0l-17,0l-16,0l-17,1l-16,4l-17,3l-16,1l-17,1l-16,1l-17,5l-17,1l-16,1l-17,0l-16,1l-17,0l-16,1l-17,0l-16,-1l-17,2l-16,-1l-17,2l-16,-1l-17,-1l-16,0l-17,3l-16,1l-17,-1l-16,2l-17,3l-16,1l-17,2l-16,3l-17,1l-17,2l-16,2l-17,0l-16,1l-17,1l-16,1l-17,-1l-16,0l-17,-1l-16,1l-17,1l-16,0l-17,1l-16,0l-17,0l-16,1l-17,0l-16,0l-17,-1l-16,1l-17,3l-16,2l-17,1l-16,0l-17,2l-17,-2l-16,-2l-17,0l-16,-1l-17,-2l-16,0l-17,1l-16,0l-17,1l-16,-2l-17,-2l-16,1l-17,3l-16,-1l-17,0l-16,0l-17,-1l-16,2l-17,0l-16,2l-17,1l-16,1l-17,2l-16,2l-17,0l-17,-1l-16,-2l-17,-4l-16,-2l-17,-3l-16,-2l-17,-2l-16,-3l-17,-5l-16,-3l-17,-6Z" fill="#ba4545"></path><g clip-path="url(#plot-sample-bounds-scaled-3)"><path stroke-width="20" stroke="#ba4545" d="M758,1300l17,3l16,3l17,6l16,4l17,2l16,1l17,2l16,2l17,2l16,2l17,2l17,-2l16,-1l17,-1l16,-1l17,1l16,-1l17,-1l16,-1l17,0l16,0l17,0l16,0l17,-1l16,0l17,3l16,0l17,0l16,-1l17,-1l16,0l17,3l16,0l17,1l16,1l17,0l17,1l16,0l17,0l16,-2l17,-1l16,0l17,2l16,0l17,0l16,1l17,0l16,0l17,-1l16,-1l17,0l16,0l17,1l16,1l17,0l16,-1l17,-4l16,1l17,-2l16,-2l17,-2l17,0l16,-1l17,-2l16,-3l17,-4l16,-1l17,-1l16,-1l17,-1l16,0l17,0l16,-1l17,0l16,0l17,0l16,-2l17,-1l16,-1l17,0l16,-1l17,-4l16,-1l17,-3l17,-2l16,-2l17,-2l16,-1l17,-3l16,-1l17,-2l16,-1l17,-1l16,-3l17,-1l16,0l17,0l16,-1l17,-2l16,-1l17,-1l16,-1l17,-1l16,-1l17,-3l16,-2l17,0l16,-2l17,0l17,-1l16,1l17,0l16,1l17,0l16,-1l17,0l16,0l17,1l16,1l17,2l16,2l17,1l16,1l17,0l16,0l17,1l16,1l17,2l16,2l17,0l16,2l17,2l16,1l17,1l17,1l16,3l17,2l16,2l17,3l16,0l17,1l16,2l17,3l16,3l17,4l16,3l17,3l16,2l17,2l16,2l17,1l16,2l17,3l16,2l17,3l16,1l17,1l17,2l16,2l17,1l16,4l17,2l16,1l17,2l16,2l17,2l16,1l17,2l16,1l17,1l16,3l17,2l16,1l17,0l16,1l17,0l16,-1l17,0l16,0l17,0l16,0l17,1l17,1l16,-1l17,-1l16,0l17,0l16,0l17,0l16,0l17,-1l16,-2l17,-1l16,-2l17,-1l16,-1l17,-2l16,-3l17,-3l16,-2l17,-5l16,-3l17,-3l16,-2l17,0l16,-2l17,-2l17,-1l16,-2l17,-3l16,-1l17,-2l16,-1l17,-2l16,-1l17,-1l16,-3l17,-2l16,0l17,-4l16,-4l17,-4l16,-1l17,-3l16,-2l17,-2l16,-2l17,-1l16,-1l17,0l17,0l16,1l17,-1l16,-2l17,-2l16,-4l17,-4l16,0l17,-1l16,-1l17,-1l16,-3l17,-1l16,-3l17,-2l16,-2l17,-3l16,-2l17,-2l16,0l17,0l16,1l17,0l16,0l17,-1l17,-1l16,-2l17,-2l16,-2l17,-3l16,-2l17,-3l16,-1l17,-1l16,-1l17,-1l16,-1l17,-2l16,-1l17,-2l16,-1l17,-2l16,0l17,-2l16,-2l17,-1l16,-1l17,-1l16,-1l17,-2l17,-3l16,-4l17,-1l16,-3l17,-2l16,-1l17,-1l16,0l17,1l16,0l17,0l16,0l17,-1l16,-2l17,-2l16,-1l17,0l16,-1l17,-2l16,-2l17,-1l16,-1l17,0l17,0l16,0l17,0l16,0l17,0l16,1l17,1l16,1l17,2l16,1l17,1l16,1l17,-1l16,1l17,0l16,1l17,0l16,-1l17,1l16,1l17,2l16,1l17,3l16,3l17,1l17,0l16,2l17,2l16,1l17,2l16,1l17,2l16,1l17,0l16,0l17,0l16,2l17,1l16,3l17,1l16,4l17,2l16,2l17,4l16,5l17,5l16,2l17,4l16,5l17,3l17,6l16,3l17,3l16,2l17,3l16,4l17,5l16,3l17,3l16,4l17,5" fill="none" stroke-opacity="1.0"></path></g><g clip-path="url(#plot-sample-bounds-scaled-3)"><path stroke-width="10" stroke="#4646b9" stroke-dasharray="10 20" d="M758,1900l17,0l16,1l17,1l16,1l17,0l16,0l17,0l16,0l17,0l16,1l17,1l17,1l16,0l17,0l16,0l17,0l16,1l17,0l16,1l17,0l16,0l17,1l16,1l17,1l16,1l17,0l16,0l17,1l16,1l17,0l16,0l17,0l16,1l17,0l16,0l17,1l17,1l16,1l17,0l16,1l17,1l16,1l17,0l16,1l17,0l16,1l17,0l16,1l17,0l16,0l17,0l16,1l17,1l16,0l17,1l16,0l17,0l16,1l17,1l16,0l17,1l17,1l16,1l17,1l16,1l17,2l16,0l17,2l16,2l17,2l16,1l17,2l16,2l17,2l16,2l17,3l16,2l17,2l16,2l17,3l16,3l17,2l16,2l17,3l17,4l16,4l17,4l16,5l17,4l16,5l17,5l16,5l17,5l16,6l17,4l16,6l17,7l16,5l17,6l16,6l17,6l16,5l17,8l16,6l17,6l16,7l17,7l16,9l17,8l17,8l16,7l17,10l16,9l17,9l16,10l17,7l16,8l17,7l16,7l17,9l16,8l17,9l16,9l17,9l16,9l17,11l16,9l17,8l16,8l17,10l16,11l17,10l16,10l17,9l17,10l16,9l17,8l16,9l17,8l16,9l17,9l16,9l17,6l16,7l17,6l16,5l17,9l16,6l17,8l16,9l17,6l16,5l17,3l16,4l17,4l16,4l17,5l17,5l16,4l17,3l16,3l17,3l16,2l17,1l16,3l17,2l16,1l17,2l16,1l17,0l16,0l17,1l16,1l17,2l16,1l17,1l16,2l17,1l16,1l17,0l16,-3l17,-2l17,0l16,1l17,2l16,0l17,-2l16,-1l17,-2l16,1l17,-1l16,-1l17,-2l16,-1l17,-3l16,-3l17,-2l16,-2l17,-1l16,-2l17,-4l16,-2l17,-5l16,-5l17,-7l16,-4l17,-4l17,-3l16,-5l17,-5l16,-4l17,-5l16,-5l17,-6l16,-6l17,-8l16,-6l17,-5l16,-6l17,-5l16,-6l17,-6l16,-9l17,-7l16,-7l17,-6l16,-7l17,-7l16,-7l17,-7l17,-6l16,-6l17,-7l16,-6l17,-5l16,-5l17,-6l16,-9l17,-9l16,-8l17,-8l16,-8l17,-7l16,-5l17,-5l16,-6l17,-5l16,-7l17,-5l16,-9l17,-10l16,-8l17,-7l16,-7l17,-6l17,-7l16,-6l17,-6l16,-6l17,-5l16,-8l17,-7l16,-7l17,-6l16,-6l17,-6l16,-7l17,-5l16,-5l17,-6l16,-5l17,-5l16,-4l17,-6l16,-6l17,-6l16,-5l17,-6l16,-6l17,-6l17,-4l16,-3l17,-5l16,-4l17,-4l16,-4l17,-3l16,-6l17,-4l16,-6l17,-4l16,-2l17,-4l16,-4l17,-2l16,-2l17,-3l16,-2l17,-1l16,-3l17,-1l16,-1l17,-4l17,-2l16,-1l17,-2l16,-1l17,-2l16,-2l17,-2l16,-3l17,-1l16,-2l17,-1l16,-2l17,-2l16,-1l17,-2l16,-1l17,0l16,-1l17,-2l16,-1l17,0l16,-1l17,-1l16,-2l17,-2l17,-1l16,-3l17,-1l16,-2l17,-1l16,-1l17,-1l16,0l17,-1l16,-1l17,-1l16,0l17,0l16,1l17,-1l16,-1l17,1l16,-1l17,0l16,0l17,1l16,1l17,-1l16,0l17,0l17,0l16,0l17,0l16,-1l17,0l16,0l17,1l16,1l17,1l16,0l17,0" fill="none" stroke-opacity="1.0"></path></g><g clip-path="url(#plot-sample-bounds-scaled-3)"><path stroke-width="10" stroke="#ba4545" stroke-dasharray="10 20" d="M758,1326l17,2l16,3l17,5l16,3l17,3l16,0l17,2l16,2l17,2l16,1l17,1l17,-1l16,-1l17,0l16,-1l17,0l16,-1l17,-1l16,-1l17,0l16,0l17,0l16,0l17,-1l16,0l17,3l16,-1l17,0l16,-1l17,0l16,0l17,3l16,0l17,1l16,0l17,0l17,1l16,0l17,0l16,-1l17,-1l16,0l17,1l16,0l17,0l16,0l17,0l16,0l17,0l16,-1l17,1l16,-1l17,1l16,0l17,0l16,0l17,-4l16,1l17,-2l16,-1l17,-2l17,0l16,-2l17,-1l16,-3l17,-4l16,0l17,-1l16,-1l17,-1l16,0l17,1l16,-1l17,0l16,0l17,0l16,-2l17,-1l16,-1l17,0l16,0l17,-4l16,-1l17,-2l17,-2l16,-2l17,-1l16,-1l17,-3l16,-1l17,-1l16,0l17,-2l16,-3l17,0l16,0l17,0l16,-1l17,-1l16,-2l17,0l16,-1l17,-1l16,0l17,-2l16,-1l17,-1l16,-1l17,0l17,0l16,1l17,0l16,1l17,0l16,0l17,0l16,1l17,1l16,2l17,1l16,2l17,2l16,0l17,0l16,2l17,1l16,2l17,1l16,2l17,1l16,2l17,1l16,2l17,1l17,2l16,2l17,3l16,2l17,2l16,1l17,3l16,0l17,4l16,2l17,5l16,3l17,3l16,2l17,2l16,2l17,2l16,2l17,2l16,3l17,3l16,1l17,1l17,2l16,2l17,2l16,3l17,2l16,1l17,3l16,2l17,1l16,2l17,1l16,2l17,0l16,4l17,2l16,0l17,1l16,0l17,0l16,0l17,0l16,0l17,0l16,0l17,1l17,1l16,-1l17,0l16,0l17,-1l16,0l17,0l16,0l17,-1l16,-1l17,-2l16,-1l17,-2l16,0l17,-3l16,-3l17,-2l16,-3l17,-4l16,-3l17,-3l16,-3l17,0l16,-1l17,-2l17,-2l16,-1l17,-3l16,-2l17,-1l16,-1l17,-2l16,-3l17,0l16,-2l17,-2l16,-1l17,-3l16,-4l17,-4l16,-2l17,-1l16,-3l17,-2l16,-1l17,-2l16,0l17,-1l17,0l16,1l17,-1l16,-2l17,-2l16,-4l17,-3l16,-1l17,-1l16,-1l17,-1l16,-2l17,-2l16,-2l17,-3l16,-2l17,-2l16,-2l17,-2l16,-1l17,0l16,0l17,0l16,-1l17,0l17,-2l16,-1l17,-2l16,-2l17,-3l16,-2l17,-3l16,-1l17,-2l16,-1l17,-1l16,-1l17,-1l16,-2l17,-2l16,-1l17,-1l16,-1l17,-2l16,-1l17,-2l16,0l17,-2l16,-1l17,-2l17,-2l16,-3l17,-2l16,-2l17,-2l16,-3l17,0l16,0l17,1l16,1l17,-1l16,-1l17,0l16,-2l17,-1l16,-1l17,-1l16,-1l17,-1l16,-1l17,-2l16,-2l17,0l17,0l16,1l17,-1l16,1l17,0l16,0l17,2l16,1l17,2l16,0l17,1l16,1l17,-1l16,1l17,-1l16,2l17,-1l16,-1l17,1l16,1l17,1l16,2l17,1l16,3l17,1l17,0l16,1l17,1l16,1l17,2l16,1l17,1l16,0l17,1l16,-1l17,0l16,1l17,2l16,2l17,2l16,2l17,2l16,2l17,4l16,4l17,4l16,3l17,3l16,4l17,3l17,5l16,2l17,4l16,0l17,3l16,4l17,5l16,1l17,5l16,3l17,4" fill="none" stroke-opacity="1.0"></path></g><line stroke-width="10" stroke="#000" x2="6780" y1="2624.5" x1="750" fill="none" y2="2624.5" stroke-opacity="0.25098039215686274"></line></g><g><rect fill-opacity="0.063" stroke="none" y="5" x="528" height="380" width="112.1" fill="#f00"></rect><text y="23.7" text-anchor="middle" x="584">calurosos</text></g><g><rect fill-opacity="0.063" stroke="none" y="5" x="330.5" height="380" width="86.2" fill="#00f"></rect><text y="23.7" text-anchor="middle" x="373.6">frescos</text></g><g transform="scale(0.1)"></g><g stroke-width="1" stroke="#000" fill="none" stroke-opacity="0.072"><line x2="126.2" y1="30" x1="126.2" y2="390" stroke-opacity="0.12"></line><line x2="172.5" y1="30" x1="172.5" y2="390" stroke-opacity="0.12"></line><line x2="223.7" y1="30" x1="223.7" y2="390" stroke-opacity="0.12"></line><line x2="273.2" y1="30" x1="273.2" y2="390" stroke-opacity="0.12"></line><line x2="324.5" y1="30" x1="324.5" y2="390" stroke-opacity="0.12"></line><line x2="374" y1="30" x1="374" y2="390" stroke-opacity="0.12"></line><line x2="425.2" y1="30" x1="425.2" y2="390" stroke-opacity="0.12"></line><line x2="476.4" y1="30" x1="476.4" y2="390" stroke-opacity="0.12"></line><line x2="526" y1="30" x1="526" y2="390" stroke-opacity="0.12"></line><line x2="577.2" y1="30" x1="577.2" y2="390" stroke-opacity="0.12"></line><line x2="626.8" y1="30" x1="626.8" y2="390" stroke-opacity="0.12"></line><line x2="681" y1="372.2" x1="72" y2="372.2"></line><line x2="681" y1="344.7" x1="72" y2="344.7"></line><line x2="681" y1="317.3" x1="72" y2="317.3"></line><line x2="681" y1="289.8" x1="72" y2="289.8"></line><line x2="681" y1="262.4" x1="72" y2="262.4"></line><line x2="681" y1="234.9" x1="72" y2="234.9"></line><line x2="681" y1="207.5" x1="72" y2="207.5"></line><line x2="681" y1="180.1" x1="72" y2="180.1"></line><line x2="681" y1="152.6" x1="72" y2="152.6"></line><line x2="681" y1="125.2" x1="72" y2="125.2"></line><line x2="681" y1="97.7" x1="72" y2="97.7"></line><line x2="681" y1="70.3" x1="72" y2="70.3"></line><line x2="681" y1="42.8" x1="72" y2="42.8"></line></g><g><rect fill-opacity="0.004" y="30" x="75" height="355" width="51.2" fill="#fff"></rect><text stroke="none" y="400.7" text-anchor="middle" x="100.6">ene.</text></g><g><rect fill-opacity="0.004" y="30" x="126.2" height="355" width="46.3" fill="#fff"></rect><text stroke="none" y="400.7" text-anchor="middle" x="149.3">feb.</text></g><g><rect fill-opacity="0.004" y="30" x="172.5" height="355" width="51.2" fill="#fff"></rect><text stroke="none" y="400.7" text-anchor="middle" x="198.1">mar.</text></g><g><rect fill-opacity="0.004" y="30" x="223.7" height="355" width="49.6" fill="#fff"></rect><text stroke="none" y="400.7" text-anchor="middle" x="248.5">abr.</text></g><g><rect fill-opacity="0.004" y="30" x="273.2" height="355" width="51.2" fill="#fff"></rect><text stroke="none" y="400.7" text-anchor="middle" x="298.9">may.</text></g><g><rect fill-opacity="0.004" y="30" x="324.5" height="355" width="49.6" fill="#fff"></rect><text stroke="none" y="400.7" text-anchor="middle" x="349.2">jun.</text></g><g><rect fill-opacity="0.004" y="30" x="374" height="355" width="51.2" fill="#fff"></rect><text stroke="none" y="400.7" text-anchor="middle" x="399.6">jul.</text></g><g><rect fill-opacity="0.004" y="30" x="425.2" height="355" width="51.2" fill="#fff"></rect><text stroke="none" y="400.7" text-anchor="middle" x="450.8">ago.</text></g><g><rect fill-opacity="0.004" y="30" x="476.4" height="355" width="49.6" fill="#fff"></rect><text stroke="none" y="400.7" text-anchor="middle" x="501.2">sep.</text></g><g><rect fill-opacity="0.004" y="30" x="526" height="355" width="51.2" fill="#fff"></rect><text stroke="none" y="400.7" text-anchor="middle" x="551.6">oct.</text></g><g><rect fill-opacity="0.004" y="30" x="577.2" height="355" width="49.6" fill="#fff"></rect><text stroke="none" y="400.7" text-anchor="middle" x="602">nov.</text></g><g><rect fill-opacity="0.004" y="30" x="626.8" height="355" width="51.2" fill="#fff"></rect><text stroke="none" y="400.7" text-anchor="middle" x="652.4">dic.</text></g><g stroke="none" fill="#000"><text y="377.2" text-anchor="end" x="71">-20 °C</text><text y="377.2" x="682">-20 °C</text><text y="349.8" text-anchor="end" x="71">-15 °C</text><text y="349.8" x="682">-15 °C</text><text y="322.3" text-anchor="end" x="71">-10 °C</text><text y="322.3" x="682">-10 °C</text><text y="294.9" text-anchor="end" x="71">-5 °C</text><text y="294.9" x="682">-5 °C</text><text y="267.4" text-anchor="end" x="71">0 °C</text><text y="267.4" x="682">0 °C</text><text y="240" text-anchor="end" x="71">5 °C</text><text y="240" x="682">5 °C</text><text y="212.5" text-anchor="end" x="71">10 °C</text><text y="212.5" x="682">10 °C</text><text y="185.1" text-anchor="end" x="71">15 °C</text><text y="185.1" x="682">15 °C</text><text y="157.6" text-anchor="end" x="71">20 °C</text><text y="157.6" x="682">20 °C</text><text y="130.2" text-anchor="end" x="71">25 °C</text><text y="130.2" x="682">25 °C</text><text y="102.7" text-anchor="end" x="71">30 °C</text><text y="102.7" x="682">30 °C</text><text y="75.3" text-anchor="end" x="71">35 °C</text><text y="75.3" x="682">35 °C</text><text y="47.8" text-anchor="end" x="71">40 °C</text><text y="47.8" x="682">40 °C</text></g><g font-family="sans-serif" text-decoration="none" font-style="normal" font-size="15" font-weight="normal"><g font-family="sans-serif" stroke="none" text-decoration="none" font-style="normal" font-size="15" font-weight="normal"><g stroke-width="4" stroke="#fff" opacity="0.4" fill="#fff" stroke-linejoin="bevel"><text y="109.5" text-anchor="middle" x="371.5">29 jun.</text><text y="128.1" text-anchor="middle" x="371.5">23 °C</text></g><text y="109.5" text-anchor="middle" x="371.5">29 jun.</text><text y="128.1" text-anchor="middle" x="371.5">23 °C</text></g></g><circle stroke="none" cy="135.4" cx="371.5" r="2" fill="#000"></circle><g font-family="sans-serif" text-decoration="none" font-style="normal" font-size="15" font-weight="normal"><g font-family="sans-serif" stroke="none" text-decoration="none" font-style="normal" font-size="15" font-weight="normal"><g stroke-width="4" stroke="#fff" opacity="0.4" fill="#fff" stroke-linejoin="bevel"><text y="91.9" text-anchor="middle" x="574.7">30 oct.</text><text y="110.5" text-anchor="middle" x="574.7">26 °C</text></g><text y="91.9" text-anchor="middle" x="574.7">30 oct.</text><text y="110.5" text-anchor="middle" x="574.7">26 °C</text></g></g><circle stroke="none" cy="117.8" cx="574.7" r="2" fill="#000"></circle><g font-family="sans-serif" text-decoration="none" font-style="normal" font-size="15" font-weight="normal"><g font-family="sans-serif" stroke="none" text-decoration="none" font-style="normal" font-size="15" font-weight="normal"><g opacity="0.4"><text stroke-width="4" stroke="#fff" y="259.2" text-anchor="middle" x="371.5" stroke-linejoin="bevel" fill="#fff">4 °C</text></g><text y="259.2" text-anchor="middle" x="371.5">4 °C</text></g></g><circle stroke="none" cy="242" cx="371.5" r="2" fill="#000"></circle><g font-family="sans-serif" text-decoration="none" font-style="normal" font-size="15" font-weight="normal"><g font-family="sans-serif" stroke="none" text-decoration="none" font-style="normal" font-size="15" font-weight="normal"><g opacity="0.4"><text stroke-width="4" stroke="#fff" y="211.4" text-anchor="middle" x="574.7" stroke-linejoin="bevel" fill="#fff">12 °C</text></g><text y="211.4" text-anchor="middle" x="574.7">12 °C</text></g></g><circle stroke="none" cy="194.1" cx="574.7" r="2" fill="#000"></circle><g font-family="sans-serif" text-decoration="none" font-style="normal" font-size="15" font-weight="normal"><g font-family="sans-serif" stroke="none" text-decoration="none" font-style="normal" font-size="15" font-weight="normal"><g stroke-width="4" stroke="#fff" opacity="0.4" fill="#fff" stroke-linejoin="bevel"><text y="95.5" text-anchor="middle" x="640.1">9 dic.</text><text y="114.1" text-anchor="middle" x="640.1">26 °C</text></g><text y="95.5" text-anchor="middle" x="640.1">9 dic.</text><text y="114.1" text-anchor="middle" x="640.1">26 °C</text></g></g><circle stroke="none" cy="121.3" cx="640.1" r="2" fill="#000"></circle><g font-family="sans-serif" text-decoration="none" font-style="normal" font-size="15" font-weight="normal"><g font-family="sans-serif" stroke="none" text-decoration="none" font-style="normal" font-size="15" font-weight="normal"><g opacity="0.4"><text stroke-width="4" stroke="#fff" y="222.1" text-anchor="middle" x="528" stroke-linejoin="bevel" fill="#fff">10 °C</text></g><text y="222.1" text-anchor="middle" x="528">10 °C</text></g></g><circle stroke="none" cy="204.8" cx="528" r="2" fill="#000"></circle><g font-family="sans-serif" text-decoration="none" font-style="normal" font-size="15" font-weight="normal"><g font-family="sans-serif" stroke="none" text-decoration="none" font-style="normal" font-size="15" font-weight="normal"><g opacity="0.4"><text stroke-width="4" stroke="#fff" y="206.4" text-anchor="middle" x="640.1" stroke-linejoin="bevel" fill="#fff">13 °C</text></g><text y="206.4" text-anchor="middle" x="640.1">13 °C</text></g></g><circle stroke="none" cy="189.1" cx="640.1" r="2" fill="#000"></circle><g font-family="sans-serif" text-decoration="none" font-style="normal" font-size="15" font-weight="normal"><g font-family="sans-serif" stroke="none" text-decoration="none" font-style="normal" font-size="15" font-weight="normal"><g opacity="0.4"><text stroke-width="4" stroke="#fff" y="255.2" text-anchor="middle" x="330.5" stroke-linejoin="bevel" fill="#fff">4 °C</text></g><text y="255.2" text-anchor="middle" x="330.5">4 °C</text></g></g><circle stroke="none" cy="238" cx="330.5" r="2" fill="#000"></circle><g font-family="sans-serif" text-decoration="none" font-style="normal" font-size="15" font-weight="normal"><g font-family="sans-serif" stroke="none" text-decoration="none" font-style="normal" font-size="15" font-weight="normal"><g opacity="0.4"><text stroke-width="4" stroke="#fff" y="254.9" text-anchor="middle" x="416.6" stroke-linejoin="bevel" fill="#fff">5 °C</text></g><text y="254.9" text-anchor="middle" x="416.6">5 °C</text></g></g><circle stroke="none" cy="237.6" cx="416.6" r="2" fill="#000"></circle></svg>