<?xml version="1.0" encoding="UTF-8" standalone="no"?>
<svg
   xmlns:dc="http://purl.org/dc/elements/1.1/"
   xmlns:cc="http://creativecommons.org/ns#"
   xmlns:rdf="http://www.w3.org/1999/02/22-rdf-syntax-ns#"
   xmlns:svg="http://www.w3.org/2000/svg"
   xmlns="http://www.w3.org/2000/svg"
   xmlns:xlink="http://www.w3.org/1999/xlink"
   xmlns:sodipodi="http://sodipodi.sourceforge.net/DTD/sodipodi-0.dtd"
   xmlns:inkscape="http://www.inkscape.org/namespaces/inkscape"
   width="1920"
   height="1080"
   viewBox="0 0 507.99999 285.75001"
   version="1.1"
   id="svg8"
   inkscape:version="1.0.2 (e86c870879, 2021-01-15)"
   sodipodi:docname="14.svg"
   inkscape:export-filename="/home/jacobian/Documentos/UMSS/FIS102/Exposición 07/imágenes/215.png"
   inkscape:export-xdpi="96"
   inkscape:export-ydpi="96">
  <defs
     id="defs2">
    <g
       id="g5587">
      <symbol
         overflow="visible"
         id="symbol7748">
        <path
           style="stroke:none;"
           d=""
           id="path8522" />
      </symbol>
      <symbol
         overflow="visible"
         id="symbol822">
        <path
           style="stroke:none;"
           d="M 3.71875 -3.765625 C 3.53125 -4.140625 3.25 -4.40625 2.796875 -4.40625 C 1.640625 -4.40625 0.40625 -2.9375 0.40625 -1.484375 C 0.40625 -0.546875 0.953125 0.109375 1.71875 0.109375 C 1.921875 0.109375 2.421875 0.0625 3.015625 -0.640625 C 3.09375 -0.21875 3.453125 0.109375 3.921875 0.109375 C 4.28125 0.109375 4.5 -0.125 4.671875 -0.4375 C 4.828125 -0.796875 4.96875 -1.40625 4.96875 -1.421875 C 4.96875 -1.53125 4.875 -1.53125 4.84375 -1.53125 C 4.75 -1.53125 4.734375 -1.484375 4.703125 -1.34375 C 4.53125 -0.703125 4.359375 -0.109375 3.953125 -0.109375 C 3.671875 -0.109375 3.65625 -0.375 3.65625 -0.5625 C 3.65625 -0.78125 3.671875 -0.875 3.78125 -1.3125 C 3.890625 -1.71875 3.90625 -1.828125 4 -2.203125 L 4.359375 -3.59375 C 4.421875 -3.875 4.421875 -3.890625 4.421875 -3.9375 C 4.421875 -4.109375 4.3125 -4.203125 4.140625 -4.203125 C 3.890625 -4.203125 3.75 -3.984375 3.71875 -3.765625 Z M 3.078125 -1.1875 C 3.015625 -1 3.015625 -0.984375 2.875 -0.8125 C 2.4375 -0.265625 2.03125 -0.109375 1.75 -0.109375 C 1.25 -0.109375 1.109375 -0.65625 1.109375 -1.046875 C 1.109375 -1.546875 1.421875 -2.765625 1.65625 -3.234375 C 1.96875 -3.8125 2.40625 -4.1875 2.8125 -4.1875 C 3.453125 -4.1875 3.59375 -3.375 3.59375 -3.3125 C 3.59375 -3.25 3.578125 -3.1875 3.5625 -3.140625 Z M 3.078125 -1.1875 "
           id="path1790" />
      </symbol>
    </g>
    <g
       id="g8046">
      <symbol
         overflow="visible"
         id="symbol2182">
        <path
           style="stroke:none;"
           d=""
           id="path6297" />
      </symbol>
      <symbol
         overflow="visible"
         id="symbol8243">
        <path
           style="stroke:none;"
           d="M 2.375 -6.8125 C 2.375 -6.8125 2.375 -6.921875 2.25 -6.921875 C 2.03125 -6.921875 1.296875 -6.84375 1.03125 -6.8125 C 0.953125 -6.8125 0.84375 -6.796875 0.84375 -6.625 C 0.84375 -6.5 0.9375 -6.5 1.09375 -6.5 C 1.5625 -6.5 1.578125 -6.4375 1.578125 -6.328125 C 1.578125 -6.265625 1.5 -5.921875 1.453125 -5.71875 L 0.625 -2.46875 C 0.515625 -1.96875 0.46875 -1.796875 0.46875 -1.453125 C 0.46875 -0.515625 1 0.109375 1.734375 0.109375 C 2.90625 0.109375 4.140625 -1.375 4.140625 -2.8125 C 4.140625 -3.71875 3.609375 -4.40625 2.8125 -4.40625 C 2.359375 -4.40625 1.9375 -4.109375 1.640625 -3.8125 Z M 1.453125 -3.046875 C 1.5 -3.265625 1.5 -3.28125 1.59375 -3.390625 C 2.078125 -4.03125 2.53125 -4.1875 2.796875 -4.1875 C 3.15625 -4.1875 3.421875 -3.890625 3.421875 -3.25 C 3.421875 -2.65625 3.09375 -1.515625 2.90625 -1.140625 C 2.578125 -0.46875 2.125 -0.109375 1.734375 -0.109375 C 1.390625 -0.109375 1.0625 -0.375 1.0625 -1.109375 C 1.0625 -1.3125 1.0625 -1.5 1.21875 -2.125 Z M 1.453125 -3.046875 "
           id="path8072" />
      </symbol>
    </g>
    <g
       id="g6379">
      <symbol
         overflow="visible"
         id="symbol3679">
        <path
           style="stroke:none;"
           d=""
           id="path1976" />
      </symbol>
      <symbol
         overflow="visible"
         id="symbol5158">
        <path
           style="stroke:none;"
           d="M 3.953125 -3.78125 C 3.78125 -3.78125 3.65625 -3.78125 3.515625 -3.65625 C 3.34375 -3.5 3.328125 -3.328125 3.328125 -3.265625 C 3.328125 -3.015625 3.515625 -2.90625 3.703125 -2.90625 C 3.984375 -2.90625 4.25 -3.15625 4.25 -3.546875 C 4.25 -4.03125 3.78125 -4.40625 3.078125 -4.40625 C 1.734375 -4.40625 0.40625 -2.984375 0.40625 -1.578125 C 0.40625 -0.671875 0.984375 0.109375 2.03125 0.109375 C 3.453125 0.109375 4.28125 -0.953125 4.28125 -1.0625 C 4.28125 -1.125 4.234375 -1.203125 4.171875 -1.203125 C 4.109375 -1.203125 4.09375 -1.171875 4.03125 -1.09375 C 3.25 -0.109375 2.15625 -0.109375 2.046875 -0.109375 C 1.421875 -0.109375 1.140625 -0.59375 1.140625 -1.203125 C 1.140625 -1.609375 1.34375 -2.578125 1.6875 -3.1875 C 2 -3.765625 2.546875 -4.1875 3.09375 -4.1875 C 3.421875 -4.1875 3.8125 -4.0625 3.953125 -3.78125 Z M 3.953125 -3.78125 "
           id="path9321" />
      </symbol>
    </g>
    <g
       id="g2276">
      <symbol
         overflow="visible"
         id="symbol798">
        <path
           style="stroke:none;"
           d=""
           id="path2159" />
      </symbol>
      <symbol
         overflow="visible"
         id="symbol791">
        <path
           style="stroke:none;"
           d="M 5.140625 -6.8125 C 5.140625 -6.8125 5.140625 -6.921875 5.015625 -6.921875 C 4.859375 -6.921875 3.921875 -6.828125 3.75 -6.8125 C 3.671875 -6.796875 3.609375 -6.75 3.609375 -6.625 C 3.609375 -6.5 3.703125 -6.5 3.84375 -6.5 C 4.328125 -6.5 4.34375 -6.4375 4.34375 -6.328125 L 4.3125 -6.125 L 3.71875 -3.765625 C 3.53125 -4.140625 3.25 -4.40625 2.796875 -4.40625 C 1.640625 -4.40625 0.40625 -2.9375 0.40625 -1.484375 C 0.40625 -0.546875 0.953125 0.109375 1.71875 0.109375 C 1.921875 0.109375 2.421875 0.0625 3.015625 -0.640625 C 3.09375 -0.21875 3.453125 0.109375 3.921875 0.109375 C 4.28125 0.109375 4.5 -0.125 4.671875 -0.4375 C 4.828125 -0.796875 4.96875 -1.40625 4.96875 -1.421875 C 4.96875 -1.53125 4.875 -1.53125 4.84375 -1.53125 C 4.75 -1.53125 4.734375 -1.484375 4.703125 -1.34375 C 4.53125 -0.703125 4.359375 -0.109375 3.953125 -0.109375 C 3.671875 -0.109375 3.65625 -0.375 3.65625 -0.5625 C 3.65625 -0.8125 3.671875 -0.875 3.703125 -1.046875 Z M 3.078125 -1.1875 C 3.015625 -1 3.015625 -0.984375 2.875 -0.8125 C 2.4375 -0.265625 2.03125 -0.109375 1.75 -0.109375 C 1.25 -0.109375 1.109375 -0.65625 1.109375 -1.046875 C 1.109375 -1.546875 1.421875 -2.765625 1.65625 -3.234375 C 1.96875 -3.8125 2.40625 -4.1875 2.8125 -4.1875 C 3.453125 -4.1875 3.59375 -3.375 3.59375 -3.3125 C 3.59375 -3.25 3.578125 -3.1875 3.5625 -3.140625 Z M 3.078125 -1.1875 "
           id="path6538" />
      </symbol>
    </g>
    <g
       id="g3156">
      <symbol
         overflow="visible"
         id="symbol4289">
        <path
           style="stroke:none;"
           d=""
           id="path8964" />
      </symbol>
      <symbol
         overflow="visible"
         id="symbol4709">
        <path
           style="stroke:none;"
           d="M 1.859375 -2.296875 C 2.15625 -2.296875 2.890625 -2.328125 3.390625 -2.53125 C 4.09375 -2.828125 4.140625 -3.421875 4.140625 -3.5625 C 4.140625 -4 3.765625 -4.40625 3.078125 -4.40625 C 1.96875 -4.40625 0.453125 -3.4375 0.453125 -1.6875 C 0.453125 -0.671875 1.046875 0.109375 2.03125 0.109375 C 3.453125 0.109375 4.28125 -0.953125 4.28125 -1.0625 C 4.28125 -1.125 4.234375 -1.203125 4.171875 -1.203125 C 4.109375 -1.203125 4.09375 -1.171875 4.03125 -1.09375 C 3.25 -0.109375 2.15625 -0.109375 2.046875 -0.109375 C 1.265625 -0.109375 1.171875 -0.953125 1.171875 -1.265625 C 1.171875 -1.390625 1.1875 -1.6875 1.328125 -2.296875 Z M 1.390625 -2.515625 C 1.78125 -4.03125 2.8125 -4.1875 3.078125 -4.1875 C 3.53125 -4.1875 3.8125 -3.890625 3.8125 -3.5625 C 3.8125 -2.515625 2.21875 -2.515625 1.796875 -2.515625 Z M 1.390625 -2.515625 "
           id="path9772" />
      </symbol>
      <symbol
         overflow="visible"
         id="symbol9145">
        <path
           style="stroke:none;"
           d="M 9.140625 -5.65625 C 9.390625 -6.09375 9.625 -6.453125 10.265625 -6.5 C 10.34375 -6.515625 10.453125 -6.515625 10.453125 -6.703125 C 10.453125 -6.734375 10.40625 -6.8125 10.328125 -6.8125 C 10.09375 -6.8125 9.8125 -6.78125 9.5625 -6.78125 C 9.21875 -6.78125 8.859375 -6.8125 8.515625 -6.8125 C 8.46875 -6.8125 8.328125 -6.8125 8.328125 -6.625 C 8.328125 -6.515625 8.421875 -6.5 8.484375 -6.5 C 8.71875 -6.484375 9.078125 -6.40625 9.078125 -6.109375 C 9.078125 -6 9.015625 -5.921875 8.9375 -5.78125 L 6.25 -1.09375 L 5.875 -6.03125 C 5.875 -6.234375 5.859375 -6.484375 6.578125 -6.5 C 6.75 -6.5 6.84375 -6.5 6.84375 -6.703125 C 6.84375 -6.796875 6.734375 -6.8125 6.703125 -6.8125 C 6.296875 -6.8125 5.875 -6.78125 5.484375 -6.78125 C 5.25 -6.78125 4.671875 -6.8125 4.4375 -6.8125 C 4.375 -6.8125 4.25 -6.8125 4.25 -6.609375 C 4.25 -6.5 4.34375 -6.5 4.484375 -6.5 C 4.921875 -6.5 5 -6.4375 5.015625 -6.25 L 5.078125 -5.484375 L 2.546875 -1.09375 L 2.171875 -6.140625 C 2.171875 -6.265625 2.171875 -6.484375 2.9375 -6.5 C 3.03125 -6.5 3.140625 -6.5 3.140625 -6.703125 C 3.140625 -6.8125 3.015625 -6.8125 3 -6.8125 C 2.609375 -6.8125 2.1875 -6.78125 1.78125 -6.78125 C 1.421875 -6.78125 1.0625 -6.8125 0.734375 -6.8125 C 0.671875 -6.8125 0.546875 -6.8125 0.546875 -6.625 C 0.546875 -6.5 0.640625 -6.5 0.796875 -6.5 C 1.296875 -6.5 1.3125 -6.40625 1.328125 -6.125 L 1.78125 -0.046875 C 1.78125 0.140625 1.796875 0.21875 1.9375 0.21875 C 2.046875 0.21875 2.078125 0.15625 2.171875 0.015625 L 5.109375 -5.078125 L 5.46875 -0.046875 C 5.5 0.171875 5.515625 0.21875 5.625 0.21875 C 5.765625 0.21875 5.828125 0.125 5.875 0.03125 Z M 9.140625 -5.65625 "
           id="path5832" />
      </symbol>
      <symbol
         overflow="visible"
         id="symbol3881">
        <path
           style="stroke:none;"
           d="M 4.359375 -0.0625 C 5.90625 -0.640625 7.375 -2.421875 7.375 -4.34375 C 7.375 -5.953125 6.3125 -7.03125 4.828125 -7.03125 C 2.6875 -7.03125 0.484375 -4.765625 0.484375 -2.4375 C 0.484375 -0.78125 1.609375 0.21875 3.046875 0.21875 C 3.296875 0.21875 3.625 0.171875 4.015625 0.0625 C 3.984375 0.6875 3.984375 0.703125 3.984375 0.84375 C 3.984375 1.15625 3.984375 1.9375 4.8125 1.9375 C 5.984375 1.9375 6.46875 0.109375 6.46875 0 C 6.46875 -0.0625 6.40625 -0.09375 6.359375 -0.09375 C 6.28125 -0.09375 6.265625 -0.046875 6.234375 0.015625 C 6 0.71875 5.421875 0.96875 5.078125 0.96875 C 4.609375 0.96875 4.46875 0.703125 4.359375 -0.0625 Z M 2.484375 -0.140625 C 1.703125 -0.453125 1.359375 -1.21875 1.359375 -2.125 C 1.359375 -2.8125 1.625 -4.234375 2.375 -5.296875 C 3.109375 -6.3125 4.046875 -6.78125 4.78125 -6.78125 C 5.765625 -6.78125 6.5 -6 6.5 -4.671875 C 6.5 -3.671875 5.984375 -1.328125 4.3125 -0.40625 C 4.265625 -0.75 4.171875 -1.46875 3.4375 -1.46875 C 2.90625 -1.46875 2.421875 -0.984375 2.421875 -0.453125 C 2.421875 -0.265625 2.484375 -0.15625 2.484375 -0.140625 Z M 3.09375 -0.03125 C 2.953125 -0.03125 2.640625 -0.03125 2.640625 -0.453125 C 2.640625 -0.859375 3.015625 -1.25 3.4375 -1.25 C 3.859375 -1.25 4.046875 -1.015625 4.046875 -0.40625 C 4.046875 -0.265625 4.03125 -0.25 3.9375 -0.203125 C 3.671875 -0.09375 3.375 -0.03125 3.09375 -0.03125 Z M 3.09375 -0.03125 "
           id="path7301" />
      </symbol>
      <symbol
         overflow="visible"
         id="symbol6125">
        <path
           style="stroke:none;"
           d=""
           id="path8279" />
      </symbol>
      <symbol
         overflow="visible"
         id="symbol2613">
        <path
           style="stroke:none;"
           d="M 6.84375 -3.265625 C 7 -3.265625 7.1875 -3.265625 7.1875 -3.453125 C 7.1875 -3.65625 7 -3.65625 6.859375 -3.65625 L 0.890625 -3.65625 C 0.75 -3.65625 0.5625 -3.65625 0.5625 -3.453125 C 0.5625 -3.265625 0.75 -3.265625 0.890625 -3.265625 Z M 6.859375 -1.328125 C 7 -1.328125 7.1875 -1.328125 7.1875 -1.53125 C 7.1875 -1.71875 7 -1.71875 6.84375 -1.71875 L 0.890625 -1.71875 C 0.75 -1.71875 0.5625 -1.71875 0.5625 -1.53125 C 0.5625 -1.328125 0.75 -1.328125 0.890625 -1.328125 Z M 6.859375 -1.328125 "
           id="path1728" />
      </symbol>
      <symbol
         overflow="visible"
         id="symbol5902">
        <path
           style="stroke:none;"
           d=""
           id="path8915" />
      </symbol>
      <symbol
         overflow="visible"
         id="symbol1404">
        <path
           style="stroke:none;"
           d="M 5.859375 -4.1875 C 5.921875 -4.453125 5.9375 -4.515625 6.453125 -4.515625 C 6.609375 -4.515625 6.6875 -4.515625 6.6875 -4.65625 C 6.6875 -4.6875 6.671875 -4.765625 6.578125 -4.765625 C 6.375 -4.765625 5.875 -4.734375 5.671875 -4.734375 C 5.546875 -4.734375 5.296875 -4.734375 5.1875 -4.734375 C 5.046875 -4.75 4.875 -4.765625 4.75 -4.765625 C 4.703125 -4.765625 4.59375 -4.765625 4.59375 -4.609375 C 4.59375 -4.515625 4.6875 -4.515625 4.828125 -4.515625 C 4.828125 -4.515625 4.96875 -4.515625 5.09375 -4.5 C 5.234375 -4.484375 5.25 -4.46875 5.25 -4.390625 C 5.25 -4.390625 5.25 -4.34375 5.21875 -4.25 L 4.8125 -2.59375 L 2.46875 -2.59375 L 2.875 -4.21875 C 2.9375 -4.453125 2.953125 -4.515625 3.484375 -4.515625 C 3.609375 -4.515625 3.703125 -4.515625 3.703125 -4.65625 C 3.703125 -4.6875 3.671875 -4.765625 3.59375 -4.765625 C 3.390625 -4.765625 2.875 -4.734375 2.671875 -4.734375 C 2.5625 -4.734375 2.3125 -4.734375 2.1875 -4.734375 C 2.0625 -4.75 1.890625 -4.765625 1.75 -4.765625 C 1.71875 -4.765625 1.609375 -4.765625 1.609375 -4.609375 C 1.609375 -4.515625 1.6875 -4.515625 1.828125 -4.515625 C 1.84375 -4.515625 1.96875 -4.515625 2.09375 -4.5 C 2.25 -4.484375 2.265625 -4.46875 2.265625 -4.390625 C 2.265625 -4.390625 2.265625 -4.34375 2.234375 -4.25 L 1.296875 -0.546875 C 1.25 -0.3125 1.234375 -0.25 0.6875 -0.25 C 0.578125 -0.25 0.484375 -0.25 0.484375 -0.109375 C 0.484375 -0.03125 0.53125 0 0.59375 0 C 0.796875 0 1.296875 -0.03125 1.5 -0.03125 C 1.609375 -0.03125 1.859375 -0.03125 1.984375 -0.015625 C 2.125 -0.015625 2.296875 0 2.421875 0 C 2.453125 0 2.578125 0 2.578125 -0.140625 C 2.578125 -0.25 2.5 -0.25 2.34375 -0.25 C 2.234375 -0.25 2.203125 -0.25 2.078125 -0.265625 C 1.921875 -0.28125 1.921875 -0.296875 1.921875 -0.375 C 1.921875 -0.375 1.921875 -0.421875 1.953125 -0.515625 L 2.40625 -2.34375 L 4.75 -2.34375 L 4.296875 -0.546875 C 4.234375 -0.3125 4.21875 -0.25 3.671875 -0.25 C 3.5625 -0.25 3.46875 -0.25 3.46875 -0.109375 C 3.46875 -0.03125 3.515625 0 3.578125 0 C 3.78125 0 4.28125 -0.03125 4.484375 -0.03125 C 4.609375 -0.03125 4.84375 -0.03125 4.96875 -0.015625 C 5.109375 -0.015625 5.28125 0 5.421875 0 C 5.453125 0 5.5625 0 5.5625 -0.140625 C 5.5625 -0.25 5.484375 -0.25 5.328125 -0.25 C 5.21875 -0.25 5.1875 -0.25 5.0625 -0.265625 C 4.90625 -0.28125 4.90625 -0.296875 4.90625 -0.375 C 4.90625 -0.40625 4.9375 -0.484375 4.9375 -0.515625 Z M 5.859375 -4.1875 "
           id="path4755" />
      </symbol>
    </g>
    <g
       id="g8132">
      <symbol
         overflow="visible"
         id="symbol3953">
        <path
           style="stroke:none;"
           d=""
           id="path1593" />
      </symbol>
      <symbol
         overflow="visible"
         id="symbol4025">
        <path
           style="stroke:none;"
           d="M 9.140625 -5.65625 C 9.390625 -6.09375 9.625 -6.453125 10.265625 -6.5 C 10.34375 -6.515625 10.453125 -6.515625 10.453125 -6.703125 C 10.453125 -6.734375 10.40625 -6.8125 10.328125 -6.8125 C 10.09375 -6.8125 9.8125 -6.78125 9.5625 -6.78125 C 9.21875 -6.78125 8.859375 -6.8125 8.515625 -6.8125 C 8.46875 -6.8125 8.328125 -6.8125 8.328125 -6.625 C 8.328125 -6.515625 8.421875 -6.5 8.484375 -6.5 C 8.71875 -6.484375 9.078125 -6.40625 9.078125 -6.109375 C 9.078125 -6 9.015625 -5.921875 8.9375 -5.78125 L 6.25 -1.09375 L 5.875 -6.03125 C 5.875 -6.234375 5.859375 -6.484375 6.578125 -6.5 C 6.75 -6.5 6.84375 -6.5 6.84375 -6.703125 C 6.84375 -6.796875 6.734375 -6.8125 6.703125 -6.8125 C 6.296875 -6.8125 5.875 -6.78125 5.484375 -6.78125 C 5.25 -6.78125 4.671875 -6.8125 4.4375 -6.8125 C 4.375 -6.8125 4.25 -6.8125 4.25 -6.609375 C 4.25 -6.5 4.34375 -6.5 4.484375 -6.5 C 4.921875 -6.5 5 -6.4375 5.015625 -6.25 L 5.078125 -5.484375 L 2.546875 -1.09375 L 2.171875 -6.140625 C 2.171875 -6.265625 2.171875 -6.484375 2.9375 -6.5 C 3.03125 -6.5 3.140625 -6.5 3.140625 -6.703125 C 3.140625 -6.8125 3.015625 -6.8125 3 -6.8125 C 2.609375 -6.8125 2.1875 -6.78125 1.78125 -6.78125 C 1.421875 -6.78125 1.0625 -6.8125 0.734375 -6.8125 C 0.671875 -6.8125 0.546875 -6.8125 0.546875 -6.625 C 0.546875 -6.5 0.640625 -6.5 0.796875 -6.5 C 1.296875 -6.5 1.3125 -6.40625 1.328125 -6.125 L 1.78125 -0.046875 C 1.78125 0.140625 1.796875 0.21875 1.9375 0.21875 C 2.046875 0.21875 2.078125 0.15625 2.171875 0.015625 L 5.109375 -5.078125 L 5.46875 -0.046875 C 5.5 0.171875 5.515625 0.21875 5.625 0.21875 C 5.765625 0.21875 5.828125 0.125 5.875 0.03125 Z M 9.140625 -5.65625 "
           id="path7079" />
      </symbol>
      <symbol
         overflow="visible"
         id="symbol1471">
        <path
           style="stroke:none;"
           d="M 4.359375 -0.0625 C 5.90625 -0.640625 7.375 -2.421875 7.375 -4.34375 C 7.375 -5.953125 6.3125 -7.03125 4.828125 -7.03125 C 2.6875 -7.03125 0.484375 -4.765625 0.484375 -2.4375 C 0.484375 -0.78125 1.609375 0.21875 3.046875 0.21875 C 3.296875 0.21875 3.625 0.171875 4.015625 0.0625 C 3.984375 0.6875 3.984375 0.703125 3.984375 0.84375 C 3.984375 1.15625 3.984375 1.9375 4.8125 1.9375 C 5.984375 1.9375 6.46875 0.109375 6.46875 0 C 6.46875 -0.0625 6.40625 -0.09375 6.359375 -0.09375 C 6.28125 -0.09375 6.265625 -0.046875 6.234375 0.015625 C 6 0.71875 5.421875 0.96875 5.078125 0.96875 C 4.609375 0.96875 4.46875 0.703125 4.359375 -0.0625 Z M 2.484375 -0.140625 C 1.703125 -0.453125 1.359375 -1.21875 1.359375 -2.125 C 1.359375 -2.8125 1.625 -4.234375 2.375 -5.296875 C 3.109375 -6.3125 4.046875 -6.78125 4.78125 -6.78125 C 5.765625 -6.78125 6.5 -6 6.5 -4.671875 C 6.5 -3.671875 5.984375 -1.328125 4.3125 -0.40625 C 4.265625 -0.75 4.171875 -1.46875 3.4375 -1.46875 C 2.90625 -1.46875 2.421875 -0.984375 2.421875 -0.453125 C 2.421875 -0.265625 2.484375 -0.15625 2.484375 -0.140625 Z M 3.09375 -0.03125 C 2.953125 -0.03125 2.640625 -0.03125 2.640625 -0.453125 C 2.640625 -0.859375 3.015625 -1.25 3.4375 -1.25 C 3.859375 -1.25 4.046875 -1.015625 4.046875 -0.40625 C 4.046875 -0.265625 4.03125 -0.25 3.9375 -0.203125 C 3.671875 -0.09375 3.375 -0.03125 3.09375 -0.03125 Z M 3.09375 -0.03125 "
           id="path1951" />
      </symbol>
      <symbol
         overflow="visible"
         id="symbol7355">
        <path
           style="stroke:none;"
           d=""
           id="path8532" />
      </symbol>
      <symbol
         overflow="visible"
         id="symbol1">
        <path
           style="stroke:none;"
           d="M 6.84375 -3.265625 C 7 -3.265625 7.1875 -3.265625 7.1875 -3.453125 C 7.1875 -3.65625 7 -3.65625 6.859375 -3.65625 L 0.890625 -3.65625 C 0.75 -3.65625 0.5625 -3.65625 0.5625 -3.453125 C 0.5625 -3.265625 0.75 -3.265625 0.890625 -3.265625 Z M 6.859375 -1.328125 C 7 -1.328125 7.1875 -1.328125 7.1875 -1.53125 C 7.1875 -1.71875 7 -1.71875 6.84375 -1.71875 L 0.890625 -1.71875 C 0.75 -1.71875 0.5625 -1.71875 0.5625 -1.53125 C 0.5625 -1.328125 0.75 -1.328125 0.890625 -1.328125 Z M 6.859375 -1.328125 "
           id="path2964" />
      </symbol>
      <symbol
         overflow="visible"
         id="symbol2866">
        <path
           style="stroke:none;"
           d=""
           id="path5148" />
      </symbol>
      <symbol
         overflow="visible"
         id="symbol7500">
        <path
           style="stroke:none;"
           d="M 1.578125 -7.125 C 1.578125 -7.296875 1.578125 -7.484375 1.390625 -7.484375 C 1.1875 -7.484375 1.1875 -7.296875 1.1875 -7.125 L 1.1875 2.140625 C 1.1875 2.3125 1.1875 2.5 1.390625 2.5 C 1.578125 2.5 1.578125 2.3125 1.578125 2.140625 Z M 1.578125 -7.125 "
           id="path7087" />
      </symbol>
      <symbol
         overflow="visible"
         id="symbol5726">
        <path
           style="stroke:none;"
           d="M 6.5625 -2.296875 C 6.734375 -2.296875 6.921875 -2.296875 6.921875 -2.5 C 6.921875 -2.6875 6.734375 -2.6875 6.5625 -2.6875 L 1.171875 -2.6875 C 1 -2.6875 0.828125 -2.6875 0.828125 -2.5 C 0.828125 -2.296875 1 -2.296875 1.171875 -2.296875 Z M 6.5625 -2.296875 "
           id="path175" />
      </symbol>
      <symbol
         overflow="visible"
         id="symbol7304">
        <path
           style="stroke:none;"
           d=""
           id="path8746" />
      </symbol>
      <symbol
         overflow="visible"
         id="symbol4224">
        <path
           style="stroke:none;"
           d="M 5.859375 -4.1875 C 5.921875 -4.453125 5.9375 -4.515625 6.453125 -4.515625 C 6.609375 -4.515625 6.6875 -4.515625 6.6875 -4.65625 C 6.6875 -4.6875 6.671875 -4.765625 6.578125 -4.765625 C 6.375 -4.765625 5.875 -4.734375 5.671875 -4.734375 C 5.546875 -4.734375 5.296875 -4.734375 5.1875 -4.734375 C 5.046875 -4.75 4.875 -4.765625 4.75 -4.765625 C 4.703125 -4.765625 4.59375 -4.765625 4.59375 -4.609375 C 4.59375 -4.515625 4.6875 -4.515625 4.828125 -4.515625 C 4.828125 -4.515625 4.96875 -4.515625 5.09375 -4.5 C 5.234375 -4.484375 5.25 -4.46875 5.25 -4.390625 C 5.25 -4.390625 5.25 -4.34375 5.21875 -4.25 L 4.8125 -2.59375 L 2.46875 -2.59375 L 2.875 -4.21875 C 2.9375 -4.453125 2.953125 -4.515625 3.484375 -4.515625 C 3.609375 -4.515625 3.703125 -4.515625 3.703125 -4.65625 C 3.703125 -4.6875 3.671875 -4.765625 3.59375 -4.765625 C 3.390625 -4.765625 2.875 -4.734375 2.671875 -4.734375 C 2.5625 -4.734375 2.3125 -4.734375 2.1875 -4.734375 C 2.0625 -4.75 1.890625 -4.765625 1.75 -4.765625 C 1.71875 -4.765625 1.609375 -4.765625 1.609375 -4.609375 C 1.609375 -4.515625 1.6875 -4.515625 1.828125 -4.515625 C 1.84375 -4.515625 1.96875 -4.515625 2.09375 -4.5 C 2.25 -4.484375 2.265625 -4.46875 2.265625 -4.390625 C 2.265625 -4.390625 2.265625 -4.34375 2.234375 -4.25 L 1.296875 -0.546875 C 1.25 -0.3125 1.234375 -0.25 0.6875 -0.25 C 0.578125 -0.25 0.484375 -0.25 0.484375 -0.109375 C 0.484375 -0.03125 0.53125 0 0.59375 0 C 0.796875 0 1.296875 -0.03125 1.5 -0.03125 C 1.609375 -0.03125 1.859375 -0.03125 1.984375 -0.015625 C 2.125 -0.015625 2.296875 0 2.421875 0 C 2.453125 0 2.578125 0 2.578125 -0.140625 C 2.578125 -0.25 2.5 -0.25 2.34375 -0.25 C 2.234375 -0.25 2.203125 -0.25 2.078125 -0.265625 C 1.921875 -0.28125 1.921875 -0.296875 1.921875 -0.375 C 1.921875 -0.375 1.921875 -0.421875 1.953125 -0.515625 L 2.40625 -2.34375 L 4.75 -2.34375 L 4.296875 -0.546875 C 4.234375 -0.3125 4.21875 -0.25 3.671875 -0.25 C 3.5625 -0.25 3.46875 -0.25 3.46875 -0.109375 C 3.46875 -0.03125 3.515625 0 3.578125 0 C 3.78125 0 4.28125 -0.03125 4.484375 -0.03125 C 4.609375 -0.03125 4.84375 -0.03125 4.96875 -0.015625 C 5.109375 -0.015625 5.28125 0 5.421875 0 C 5.453125 0 5.5625 0 5.5625 -0.140625 C 5.5625 -0.25 5.484375 -0.25 5.328125 -0.25 C 5.21875 -0.25 5.1875 -0.25 5.0625 -0.265625 C 4.90625 -0.28125 4.90625 -0.296875 4.90625 -0.375 C 4.90625 -0.40625 4.9375 -0.484375 4.9375 -0.515625 Z M 5.859375 -4.1875 "
           id="path865" />
      </symbol>
      <symbol
         overflow="visible"
         id="symbol5942">
        <path
           style="stroke:none;"
           d="M 5.875 -4.8125 C 5.875 -4.84375 5.859375 -4.90625 5.78125 -4.90625 C 5.734375 -4.90625 5.71875 -4.890625 5.65625 -4.8125 L 5.15625 -4.28125 C 5.09375 -4.359375 4.703125 -4.90625 3.84375 -4.90625 C 2.140625 -4.90625 0.484375 -3.40625 0.484375 -1.828125 C 0.484375 -0.6875 1.375 0.140625 2.625 0.140625 C 3 0.140625 3.671875 0.0625 4.390625 -0.546875 C 4.9375 -1.015625 5.09375 -1.609375 5.09375 -1.671875 C 5.09375 -1.765625 5.015625 -1.765625 4.96875 -1.765625 C 4.890625 -1.765625 4.875 -1.734375 4.84375 -1.65625 C 4.5625 -0.703125 3.59375 -0.109375 2.75 -0.109375 C 2 -0.109375 1.1875 -0.515625 1.1875 -1.609375 C 1.1875 -1.8125 1.234375 -2.90625 2.03125 -3.796875 C 2.515625 -4.328125 3.25 -4.640625 3.90625 -4.640625 C 4.71875 -4.640625 5.1875 -4.0625 5.1875 -3.28125 C 5.1875 -3.09375 5.171875 -3.03125 5.171875 -3 C 5.171875 -2.90625 5.265625 -2.90625 5.296875 -2.90625 C 5.40625 -2.90625 5.40625 -2.921875 5.4375 -3.0625 Z M 5.875 -4.8125 "
           id="path3341" />
      </symbol>
    </g>
    <g
       id="g8890">
      <symbol
         overflow="visible"
         id="symbol8619">
        <path
           style="stroke:none;"
           d=""
           id="path7637" />
      </symbol>
      <symbol
         overflow="visible"
         id="symbol9093">
        <path
           style="stroke:none;"
           d="M 1.578125 -7.125 C 1.578125 -7.296875 1.578125 -7.484375 1.390625 -7.484375 C 1.1875 -7.484375 1.1875 -7.296875 1.1875 -7.125 L 1.1875 2.140625 C 1.1875 2.3125 1.1875 2.5 1.390625 2.5 C 1.578125 2.5 1.578125 2.3125 1.578125 2.140625 Z M 1.578125 -7.125 "
           id="path8826" />
      </symbol>
      <symbol
         overflow="visible"
         id="symbol497">
        <path
           style="stroke:none;"
           d="M 6.5625 -2.296875 C 6.734375 -2.296875 6.921875 -2.296875 6.921875 -2.5 C 6.921875 -2.6875 6.734375 -2.6875 6.5625 -2.6875 L 1.171875 -2.6875 C 1 -2.6875 0.828125 -2.6875 0.828125 -2.5 C 0.828125 -2.296875 1 -2.296875 1.171875 -2.296875 Z M 6.5625 -2.296875 "
           id="path4076" />
      </symbol>
      <symbol
         overflow="visible"
         id="symbol1087">
        <path
           style="stroke:none;"
           d=""
           id="path8526" />
      </symbol>
      <symbol
         overflow="visible"
         id="symbol5771">
        <path
           style="stroke:none;"
           d="M 9.140625 -5.65625 C 9.390625 -6.09375 9.625 -6.453125 10.265625 -6.5 C 10.34375 -6.515625 10.453125 -6.515625 10.453125 -6.703125 C 10.453125 -6.734375 10.40625 -6.8125 10.328125 -6.8125 C 10.09375 -6.8125 9.8125 -6.78125 9.5625 -6.78125 C 9.21875 -6.78125 8.859375 -6.8125 8.515625 -6.8125 C 8.46875 -6.8125 8.328125 -6.8125 8.328125 -6.625 C 8.328125 -6.515625 8.421875 -6.5 8.484375 -6.5 C 8.71875 -6.484375 9.078125 -6.40625 9.078125 -6.109375 C 9.078125 -6 9.015625 -5.921875 8.9375 -5.78125 L 6.25 -1.09375 L 5.875 -6.03125 C 5.875 -6.234375 5.859375 -6.484375 6.578125 -6.5 C 6.75 -6.5 6.84375 -6.5 6.84375 -6.703125 C 6.84375 -6.796875 6.734375 -6.8125 6.703125 -6.8125 C 6.296875 -6.8125 5.875 -6.78125 5.484375 -6.78125 C 5.25 -6.78125 4.671875 -6.8125 4.4375 -6.8125 C 4.375 -6.8125 4.25 -6.8125 4.25 -6.609375 C 4.25 -6.5 4.34375 -6.5 4.484375 -6.5 C 4.921875 -6.5 5 -6.4375 5.015625 -6.25 L 5.078125 -5.484375 L 2.546875 -1.09375 L 2.171875 -6.140625 C 2.171875 -6.265625 2.171875 -6.484375 2.9375 -6.5 C 3.03125 -6.5 3.140625 -6.5 3.140625 -6.703125 C 3.140625 -6.8125 3.015625 -6.8125 3 -6.8125 C 2.609375 -6.8125 2.1875 -6.78125 1.78125 -6.78125 C 1.421875 -6.78125 1.0625 -6.8125 0.734375 -6.8125 C 0.671875 -6.8125 0.546875 -6.8125 0.546875 -6.625 C 0.546875 -6.5 0.640625 -6.5 0.796875 -6.5 C 1.296875 -6.5 1.3125 -6.40625 1.328125 -6.125 L 1.78125 -0.046875 C 1.78125 0.140625 1.796875 0.21875 1.9375 0.21875 C 2.046875 0.21875 2.078125 0.15625 2.171875 0.015625 L 5.109375 -5.078125 L 5.46875 -0.046875 C 5.5 0.171875 5.515625 0.21875 5.625 0.21875 C 5.765625 0.21875 5.828125 0.125 5.875 0.03125 Z M 9.140625 -5.65625 "
           id="path3600" />
      </symbol>
      <symbol
         overflow="visible"
         id="symbol7256">
        <path
           style="stroke:none;"
           d="M 4.359375 -0.0625 C 5.90625 -0.640625 7.375 -2.421875 7.375 -4.34375 C 7.375 -5.953125 6.3125 -7.03125 4.828125 -7.03125 C 2.6875 -7.03125 0.484375 -4.765625 0.484375 -2.4375 C 0.484375 -0.78125 1.609375 0.21875 3.046875 0.21875 C 3.296875 0.21875 3.625 0.171875 4.015625 0.0625 C 3.984375 0.6875 3.984375 0.703125 3.984375 0.84375 C 3.984375 1.15625 3.984375 1.9375 4.8125 1.9375 C 5.984375 1.9375 6.46875 0.109375 6.46875 0 C 6.46875 -0.0625 6.40625 -0.09375 6.359375 -0.09375 C 6.28125 -0.09375 6.265625 -0.046875 6.234375 0.015625 C 6 0.71875 5.421875 0.96875 5.078125 0.96875 C 4.609375 0.96875 4.46875 0.703125 4.359375 -0.0625 Z M 2.484375 -0.140625 C 1.703125 -0.453125 1.359375 -1.21875 1.359375 -2.125 C 1.359375 -2.8125 1.625 -4.234375 2.375 -5.296875 C 3.109375 -6.3125 4.046875 -6.78125 4.78125 -6.78125 C 5.765625 -6.78125 6.5 -6 6.5 -4.671875 C 6.5 -3.671875 5.984375 -1.328125 4.3125 -0.40625 C 4.265625 -0.75 4.171875 -1.46875 3.4375 -1.46875 C 2.90625 -1.46875 2.421875 -0.984375 2.421875 -0.453125 C 2.421875 -0.265625 2.484375 -0.15625 2.484375 -0.140625 Z M 3.09375 -0.03125 C 2.953125 -0.03125 2.640625 -0.03125 2.640625 -0.453125 C 2.640625 -0.859375 3.015625 -1.25 3.4375 -1.25 C 3.859375 -1.25 4.046875 -1.015625 4.046875 -0.40625 C 4.046875 -0.265625 4.03125 -0.25 3.9375 -0.203125 C 3.671875 -0.09375 3.375 -0.03125 3.09375 -0.03125 Z M 3.09375 -0.03125 "
           id="path352" />
      </symbol>
      <symbol
         overflow="visible"
         id="symbol77">
        <path
           style="stroke:none;"
           d=""
           id="path5584" />
      </symbol>
      <symbol
         overflow="visible"
         id="symbol7211">
        <path
           style="stroke:none;"
           d="M 6.84375 -3.265625 C 7 -3.265625 7.1875 -3.265625 7.1875 -3.453125 C 7.1875 -3.65625 7 -3.65625 6.859375 -3.65625 L 0.890625 -3.65625 C 0.75 -3.65625 0.5625 -3.65625 0.5625 -3.453125 C 0.5625 -3.265625 0.75 -3.265625 0.890625 -3.265625 Z M 6.859375 -1.328125 C 7 -1.328125 7.1875 -1.328125 7.1875 -1.53125 C 7.1875 -1.71875 7 -1.71875 6.84375 -1.71875 L 0.890625 -1.71875 C 0.75 -1.71875 0.5625 -1.71875 0.5625 -1.53125 C 0.5625 -1.328125 0.75 -1.328125 0.890625 -1.328125 Z M 6.859375 -1.328125 "
           id="path144" />
      </symbol>
      <symbol
         overflow="visible"
         id="symbol7733">
        <path
           style="stroke:none;"
           d=""
           id="path5141" />
      </symbol>
      <symbol
         overflow="visible"
         id="symbol5466">
        <path
           style="stroke:none;"
           d="M 5.859375 -4.1875 C 5.921875 -4.453125 5.9375 -4.515625 6.453125 -4.515625 C 6.609375 -4.515625 6.6875 -4.515625 6.6875 -4.65625 C 6.6875 -4.6875 6.671875 -4.765625 6.578125 -4.765625 C 6.375 -4.765625 5.875 -4.734375 5.671875 -4.734375 C 5.546875 -4.734375 5.296875 -4.734375 5.1875 -4.734375 C 5.046875 -4.75 4.875 -4.765625 4.75 -4.765625 C 4.703125 -4.765625 4.59375 -4.765625 4.59375 -4.609375 C 4.59375 -4.515625 4.6875 -4.515625 4.828125 -4.515625 C 4.828125 -4.515625 4.96875 -4.515625 5.09375 -4.5 C 5.234375 -4.484375 5.25 -4.46875 5.25 -4.390625 C 5.25 -4.390625 5.25 -4.34375 5.21875 -4.25 L 4.8125 -2.59375 L 2.46875 -2.59375 L 2.875 -4.21875 C 2.9375 -4.453125 2.953125 -4.515625 3.484375 -4.515625 C 3.609375 -4.515625 3.703125 -4.515625 3.703125 -4.65625 C 3.703125 -4.6875 3.671875 -4.765625 3.59375 -4.765625 C 3.390625 -4.765625 2.875 -4.734375 2.671875 -4.734375 C 2.5625 -4.734375 2.3125 -4.734375 2.1875 -4.734375 C 2.0625 -4.75 1.890625 -4.765625 1.75 -4.765625 C 1.71875 -4.765625 1.609375 -4.765625 1.609375 -4.609375 C 1.609375 -4.515625 1.6875 -4.515625 1.828125 -4.515625 C 1.84375 -4.515625 1.96875 -4.515625 2.09375 -4.5 C 2.25 -4.484375 2.265625 -4.46875 2.265625 -4.390625 C 2.265625 -4.390625 2.265625 -4.34375 2.234375 -4.25 L 1.296875 -0.546875 C 1.25 -0.3125 1.234375 -0.25 0.6875 -0.25 C 0.578125 -0.25 0.484375 -0.25 0.484375 -0.109375 C 0.484375 -0.03125 0.53125 0 0.59375 0 C 0.796875 0 1.296875 -0.03125 1.5 -0.03125 C 1.609375 -0.03125 1.859375 -0.03125 1.984375 -0.015625 C 2.125 -0.015625 2.296875 0 2.421875 0 C 2.453125 0 2.578125 0 2.578125 -0.140625 C 2.578125 -0.25 2.5 -0.25 2.34375 -0.25 C 2.234375 -0.25 2.203125 -0.25 2.078125 -0.265625 C 1.921875 -0.28125 1.921875 -0.296875 1.921875 -0.375 C 1.921875 -0.375 1.921875 -0.421875 1.953125 -0.515625 L 2.40625 -2.34375 L 4.75 -2.34375 L 4.296875 -0.546875 C 4.234375 -0.3125 4.21875 -0.25 3.671875 -0.25 C 3.5625 -0.25 3.46875 -0.25 3.46875 -0.109375 C 3.46875 -0.03125 3.515625 0 3.578125 0 C 3.78125 0 4.28125 -0.03125 4.484375 -0.03125 C 4.609375 -0.03125 4.84375 -0.03125 4.96875 -0.015625 C 5.109375 -0.015625 5.28125 0 5.421875 0 C 5.453125 0 5.5625 0 5.5625 -0.140625 C 5.5625 -0.25 5.484375 -0.25 5.328125 -0.25 C 5.21875 -0.25 5.1875 -0.25 5.0625 -0.265625 C 4.90625 -0.28125 4.90625 -0.296875 4.90625 -0.375 C 4.90625 -0.40625 4.9375 -0.484375 4.9375 -0.515625 Z M 5.859375 -4.1875 "
           id="path5221" />
      </symbol>
      <symbol
         overflow="visible"
         id="symbol9913">
        <path
           style="stroke:none;"
           d="M 5.875 -4.8125 C 5.875 -4.84375 5.859375 -4.90625 5.78125 -4.90625 C 5.734375 -4.90625 5.71875 -4.890625 5.65625 -4.8125 L 5.15625 -4.28125 C 5.09375 -4.359375 4.703125 -4.90625 3.84375 -4.90625 C 2.140625 -4.90625 0.484375 -3.40625 0.484375 -1.828125 C 0.484375 -0.6875 1.375 0.140625 2.625 0.140625 C 3 0.140625 3.671875 0.0625 4.390625 -0.546875 C 4.9375 -1.015625 5.09375 -1.609375 5.09375 -1.671875 C 5.09375 -1.765625 5.015625 -1.765625 4.96875 -1.765625 C 4.890625 -1.765625 4.875 -1.734375 4.84375 -1.65625 C 4.5625 -0.703125 3.59375 -0.109375 2.75 -0.109375 C 2 -0.109375 1.1875 -0.515625 1.1875 -1.609375 C 1.1875 -1.8125 1.234375 -2.90625 2.03125 -3.796875 C 2.515625 -4.328125 3.25 -4.640625 3.90625 -4.640625 C 4.71875 -4.640625 5.1875 -4.0625 5.1875 -3.28125 C 5.1875 -3.09375 5.171875 -3.03125 5.171875 -3 C 5.171875 -2.90625 5.265625 -2.90625 5.296875 -2.90625 C 5.40625 -2.90625 5.40625 -2.921875 5.4375 -3.0625 Z M 5.875 -4.8125 "
           id="path3228" />
      </symbol>
    </g>
    <g
       id="g4993">
      <symbol
         overflow="visible"
         id="symbol9074">
        <path
           style="stroke:none;"
           d=""
           id="path3952" />
      </symbol>
      <symbol
         overflow="visible"
         id="symbol1967">
        <path
           style="stroke:none;"
           d="M 1.859375 -2.296875 C 2.15625 -2.296875 2.890625 -2.328125 3.390625 -2.53125 C 4.09375 -2.828125 4.140625 -3.421875 4.140625 -3.5625 C 4.140625 -4 3.765625 -4.40625 3.078125 -4.40625 C 1.96875 -4.40625 0.453125 -3.4375 0.453125 -1.6875 C 0.453125 -0.671875 1.046875 0.109375 2.03125 0.109375 C 3.453125 0.109375 4.28125 -0.953125 4.28125 -1.0625 C 4.28125 -1.125 4.234375 -1.203125 4.171875 -1.203125 C 4.109375 -1.203125 4.09375 -1.171875 4.03125 -1.09375 C 3.25 -0.109375 2.15625 -0.109375 2.046875 -0.109375 C 1.265625 -0.109375 1.171875 -0.953125 1.171875 -1.265625 C 1.171875 -1.390625 1.1875 -1.6875 1.328125 -2.296875 Z M 1.390625 -2.515625 C 1.78125 -4.03125 2.8125 -4.1875 3.078125 -4.1875 C 3.53125 -4.1875 3.8125 -3.890625 3.8125 -3.5625 C 3.8125 -2.515625 2.21875 -2.515625 1.796875 -2.515625 Z M 1.390625 -2.515625 "
           id="path115" />
      </symbol>
      <symbol
         overflow="visible"
         id="symbol8132">
        <path
           style="stroke:none;"
           d="M 9.140625 -5.65625 C 9.390625 -6.09375 9.625 -6.453125 10.265625 -6.5 C 10.34375 -6.515625 10.453125 -6.515625 10.453125 -6.703125 C 10.453125 -6.734375 10.40625 -6.8125 10.328125 -6.8125 C 10.09375 -6.8125 9.8125 -6.78125 9.5625 -6.78125 C 9.21875 -6.78125 8.859375 -6.8125 8.515625 -6.8125 C 8.46875 -6.8125 8.328125 -6.8125 8.328125 -6.625 C 8.328125 -6.515625 8.421875 -6.5 8.484375 -6.5 C 8.71875 -6.484375 9.078125 -6.40625 9.078125 -6.109375 C 9.078125 -6 9.015625 -5.921875 8.9375 -5.78125 L 6.25 -1.09375 L 5.875 -6.03125 C 5.875 -6.234375 5.859375 -6.484375 6.578125 -6.5 C 6.75 -6.5 6.84375 -6.5 6.84375 -6.703125 C 6.84375 -6.796875 6.734375 -6.8125 6.703125 -6.8125 C 6.296875 -6.8125 5.875 -6.78125 5.484375 -6.78125 C 5.25 -6.78125 4.671875 -6.8125 4.4375 -6.8125 C 4.375 -6.8125 4.25 -6.8125 4.25 -6.609375 C 4.25 -6.5 4.34375 -6.5 4.484375 -6.5 C 4.921875 -6.5 5 -6.4375 5.015625 -6.25 L 5.078125 -5.484375 L 2.546875 -1.09375 L 2.171875 -6.140625 C 2.171875 -6.265625 2.171875 -6.484375 2.9375 -6.5 C 3.03125 -6.5 3.140625 -6.5 3.140625 -6.703125 C 3.140625 -6.8125 3.015625 -6.8125 3 -6.8125 C 2.609375 -6.8125 2.1875 -6.78125 1.78125 -6.78125 C 1.421875 -6.78125 1.0625 -6.8125 0.734375 -6.8125 C 0.671875 -6.8125 0.546875 -6.8125 0.546875 -6.625 C 0.546875 -6.5 0.640625 -6.5 0.796875 -6.5 C 1.296875 -6.5 1.3125 -6.40625 1.328125 -6.125 L 1.78125 -0.046875 C 1.78125 0.140625 1.796875 0.21875 1.9375 0.21875 C 2.046875 0.21875 2.078125 0.15625 2.171875 0.015625 L 5.109375 -5.078125 L 5.46875 -0.046875 C 5.5 0.171875 5.515625 0.21875 5.625 0.21875 C 5.765625 0.21875 5.828125 0.125 5.875 0.03125 Z M 9.140625 -5.65625 "
           id="path449" />
      </symbol>
      <symbol
         overflow="visible"
         id="symbol1868">
        <path
           style="stroke:none;"
           d="M 4.359375 -0.0625 C 5.90625 -0.640625 7.375 -2.421875 7.375 -4.34375 C 7.375 -5.953125 6.3125 -7.03125 4.828125 -7.03125 C 2.6875 -7.03125 0.484375 -4.765625 0.484375 -2.4375 C 0.484375 -0.78125 1.609375 0.21875 3.046875 0.21875 C 3.296875 0.21875 3.625 0.171875 4.015625 0.0625 C 3.984375 0.6875 3.984375 0.703125 3.984375 0.84375 C 3.984375 1.15625 3.984375 1.9375 4.8125 1.9375 C 5.984375 1.9375 6.46875 0.109375 6.46875 0 C 6.46875 -0.0625 6.40625 -0.09375 6.359375 -0.09375 C 6.28125 -0.09375 6.265625 -0.046875 6.234375 0.015625 C 6 0.71875 5.421875 0.96875 5.078125 0.96875 C 4.609375 0.96875 4.46875 0.703125 4.359375 -0.0625 Z M 2.484375 -0.140625 C 1.703125 -0.453125 1.359375 -1.21875 1.359375 -2.125 C 1.359375 -2.8125 1.625 -4.234375 2.375 -5.296875 C 3.109375 -6.3125 4.046875 -6.78125 4.78125 -6.78125 C 5.765625 -6.78125 6.5 -6 6.5 -4.671875 C 6.5 -3.671875 5.984375 -1.328125 4.3125 -0.40625 C 4.265625 -0.75 4.171875 -1.46875 3.4375 -1.46875 C 2.90625 -1.46875 2.421875 -0.984375 2.421875 -0.453125 C 2.421875 -0.265625 2.484375 -0.15625 2.484375 -0.140625 Z M 3.09375 -0.03125 C 2.953125 -0.03125 2.640625 -0.03125 2.640625 -0.453125 C 2.640625 -0.859375 3.015625 -1.25 3.4375 -1.25 C 3.859375 -1.25 4.046875 -1.015625 4.046875 -0.40625 C 4.046875 -0.265625 4.03125 -0.25 3.9375 -0.203125 C 3.671875 -0.09375 3.375 -0.03125 3.09375 -0.03125 Z M 3.09375 -0.03125 "
           id="path2684" />
      </symbol>
      <symbol
         overflow="visible"
         id="symbol548">
        <path
           style="stroke:none;"
           d=""
           id="path4300" />
      </symbol>
      <symbol
         overflow="visible"
         id="symbol3601">
        <path
           style="stroke:none;"
           d="M 6.84375 -3.265625 C 7 -3.265625 7.1875 -3.265625 7.1875 -3.453125 C 7.1875 -3.65625 7 -3.65625 6.859375 -3.65625 L 0.890625 -3.65625 C 0.75 -3.65625 0.5625 -3.65625 0.5625 -3.453125 C 0.5625 -3.265625 0.75 -3.265625 0.890625 -3.265625 Z M 6.859375 -1.328125 C 7 -1.328125 7.1875 -1.328125 7.1875 -1.53125 C 7.1875 -1.71875 7 -1.71875 6.84375 -1.71875 L 0.890625 -1.71875 C 0.75 -1.71875 0.5625 -1.71875 0.5625 -1.53125 C 0.5625 -1.328125 0.75 -1.328125 0.890625 -1.328125 Z M 6.859375 -1.328125 "
           id="path8596" />
      </symbol>
      <symbol
         overflow="visible"
         id="symbol4134">
        <path
           style="stroke:none;"
           d=""
           id="path3071" />
      </symbol>
      <symbol
         overflow="visible"
         id="symbol8914">
        <path
           style="stroke:none;"
           d="M 1.578125 -7.125 C 1.578125 -7.296875 1.578125 -7.484375 1.390625 -7.484375 C 1.1875 -7.484375 1.1875 -7.296875 1.1875 -7.125 L 1.1875 2.140625 C 1.1875 2.3125 1.1875 2.5 1.390625 2.5 C 1.578125 2.5 1.578125 2.3125 1.578125 2.140625 Z M 1.578125 -7.125 "
           id="path5977" />
      </symbol>
      <symbol
         overflow="visible"
         id="symbol8359">
        <path
           style="stroke:none;"
           d=""
           id="path2425" />
      </symbol>
      <symbol
         overflow="visible"
         id="symbol3529">
        <path
           style="stroke:none;"
           d="M 5.859375 -4.1875 C 5.921875 -4.453125 5.9375 -4.515625 6.453125 -4.515625 C 6.609375 -4.515625 6.6875 -4.515625 6.6875 -4.65625 C 6.6875 -4.6875 6.671875 -4.765625 6.578125 -4.765625 C 6.375 -4.765625 5.875 -4.734375 5.671875 -4.734375 C 5.546875 -4.734375 5.296875 -4.734375 5.1875 -4.734375 C 5.046875 -4.75 4.875 -4.765625 4.75 -4.765625 C 4.703125 -4.765625 4.59375 -4.765625 4.59375 -4.609375 C 4.59375 -4.515625 4.6875 -4.515625 4.828125 -4.515625 C 4.828125 -4.515625 4.96875 -4.515625 5.09375 -4.5 C 5.234375 -4.484375 5.25 -4.46875 5.25 -4.390625 C 5.25 -4.390625 5.25 -4.34375 5.21875 -4.25 L 4.8125 -2.59375 L 2.46875 -2.59375 L 2.875 -4.21875 C 2.9375 -4.453125 2.953125 -4.515625 3.484375 -4.515625 C 3.609375 -4.515625 3.703125 -4.515625 3.703125 -4.65625 C 3.703125 -4.6875 3.671875 -4.765625 3.59375 -4.765625 C 3.390625 -4.765625 2.875 -4.734375 2.671875 -4.734375 C 2.5625 -4.734375 2.3125 -4.734375 2.1875 -4.734375 C 2.0625 -4.75 1.890625 -4.765625 1.75 -4.765625 C 1.71875 -4.765625 1.609375 -4.765625 1.609375 -4.609375 C 1.609375 -4.515625 1.6875 -4.515625 1.828125 -4.515625 C 1.84375 -4.515625 1.96875 -4.515625 2.09375 -4.5 C 2.25 -4.484375 2.265625 -4.46875 2.265625 -4.390625 C 2.265625 -4.390625 2.265625 -4.34375 2.234375 -4.25 L 1.296875 -0.546875 C 1.25 -0.3125 1.234375 -0.25 0.6875 -0.25 C 0.578125 -0.25 0.484375 -0.25 0.484375 -0.109375 C 0.484375 -0.03125 0.53125 0 0.59375 0 C 0.796875 0 1.296875 -0.03125 1.5 -0.03125 C 1.609375 -0.03125 1.859375 -0.03125 1.984375 -0.015625 C 2.125 -0.015625 2.296875 0 2.421875 0 C 2.453125 0 2.578125 0 2.578125 -0.140625 C 2.578125 -0.25 2.5 -0.25 2.34375 -0.25 C 2.234375 -0.25 2.203125 -0.25 2.078125 -0.265625 C 1.921875 -0.28125 1.921875 -0.296875 1.921875 -0.375 C 1.921875 -0.375 1.921875 -0.421875 1.953125 -0.515625 L 2.40625 -2.34375 L 4.75 -2.34375 L 4.296875 -0.546875 C 4.234375 -0.3125 4.21875 -0.25 3.671875 -0.25 C 3.5625 -0.25 3.46875 -0.25 3.46875 -0.109375 C 3.46875 -0.03125 3.515625 0 3.578125 0 C 3.78125 0 4.28125 -0.03125 4.484375 -0.03125 C 4.609375 -0.03125 4.84375 -0.03125 4.96875 -0.015625 C 5.109375 -0.015625 5.28125 0 5.421875 0 C 5.453125 0 5.5625 0 5.5625 -0.140625 C 5.5625 -0.25 5.484375 -0.25 5.328125 -0.25 C 5.21875 -0.25 5.1875 -0.25 5.0625 -0.265625 C 4.90625 -0.28125 4.90625 -0.296875 4.90625 -0.375 C 4.90625 -0.40625 4.9375 -0.484375 4.9375 -0.515625 Z M 5.859375 -4.1875 "
           id="path1872" />
      </symbol>
    </g>
    <g
       id="g8038">
      <symbol
         overflow="visible"
         id="symbol9031">
        <path
           style="stroke:none;"
           d=""
           id="path2647" />
      </symbol>
      <symbol
         overflow="visible"
         id="symbol5817">
        <path
           style="stroke:none;"
           d="M 1.859375 -2.296875 C 2.15625 -2.296875 2.890625 -2.328125 3.390625 -2.53125 C 4.09375 -2.828125 4.140625 -3.421875 4.140625 -3.5625 C 4.140625 -4 3.765625 -4.40625 3.078125 -4.40625 C 1.96875 -4.40625 0.453125 -3.4375 0.453125 -1.6875 C 0.453125 -0.671875 1.046875 0.109375 2.03125 0.109375 C 3.453125 0.109375 4.28125 -0.953125 4.28125 -1.0625 C 4.28125 -1.125 4.234375 -1.203125 4.171875 -1.203125 C 4.109375 -1.203125 4.09375 -1.171875 4.03125 -1.09375 C 3.25 -0.109375 2.15625 -0.109375 2.046875 -0.109375 C 1.265625 -0.109375 1.171875 -0.953125 1.171875 -1.265625 C 1.171875 -1.390625 1.1875 -1.6875 1.328125 -2.296875 Z M 1.390625 -2.515625 C 1.78125 -4.03125 2.8125 -4.1875 3.078125 -4.1875 C 3.53125 -4.1875 3.8125 -3.890625 3.8125 -3.5625 C 3.8125 -2.515625 2.21875 -2.515625 1.796875 -2.515625 Z M 1.390625 -2.515625 "
           id="path1827" />
      </symbol>
      <symbol
         overflow="visible"
         id="symbol6005">
        <path
           style="stroke:none;"
           d="M 9.140625 -5.65625 C 9.390625 -6.09375 9.625 -6.453125 10.265625 -6.5 C 10.34375 -6.515625 10.453125 -6.515625 10.453125 -6.703125 C 10.453125 -6.734375 10.40625 -6.8125 10.328125 -6.8125 C 10.09375 -6.8125 9.8125 -6.78125 9.5625 -6.78125 C 9.21875 -6.78125 8.859375 -6.8125 8.515625 -6.8125 C 8.46875 -6.8125 8.328125 -6.8125 8.328125 -6.625 C 8.328125 -6.515625 8.421875 -6.5 8.484375 -6.5 C 8.71875 -6.484375 9.078125 -6.40625 9.078125 -6.109375 C 9.078125 -6 9.015625 -5.921875 8.9375 -5.78125 L 6.25 -1.09375 L 5.875 -6.03125 C 5.875 -6.234375 5.859375 -6.484375 6.578125 -6.5 C 6.75 -6.5 6.84375 -6.5 6.84375 -6.703125 C 6.84375 -6.796875 6.734375 -6.8125 6.703125 -6.8125 C 6.296875 -6.8125 5.875 -6.78125 5.484375 -6.78125 C 5.25 -6.78125 4.671875 -6.8125 4.4375 -6.8125 C 4.375 -6.8125 4.25 -6.8125 4.25 -6.609375 C 4.25 -6.5 4.34375 -6.5 4.484375 -6.5 C 4.921875 -6.5 5 -6.4375 5.015625 -6.25 L 5.078125 -5.484375 L 2.546875 -1.09375 L 2.171875 -6.140625 C 2.171875 -6.265625 2.171875 -6.484375 2.9375 -6.5 C 3.03125 -6.5 3.140625 -6.5 3.140625 -6.703125 C 3.140625 -6.8125 3.015625 -6.8125 3 -6.8125 C 2.609375 -6.8125 2.1875 -6.78125 1.78125 -6.78125 C 1.421875 -6.78125 1.0625 -6.8125 0.734375 -6.8125 C 0.671875 -6.8125 0.546875 -6.8125 0.546875 -6.625 C 0.546875 -6.5 0.640625 -6.5 0.796875 -6.5 C 1.296875 -6.5 1.3125 -6.40625 1.328125 -6.125 L 1.78125 -0.046875 C 1.78125 0.140625 1.796875 0.21875 1.9375 0.21875 C 2.046875 0.21875 2.078125 0.15625 2.171875 0.015625 L 5.109375 -5.078125 L 5.46875 -0.046875 C 5.5 0.171875 5.515625 0.21875 5.625 0.21875 C 5.765625 0.21875 5.828125 0.125 5.875 0.03125 Z M 9.140625 -5.65625 "
           id="path4058" />
      </symbol>
      <symbol
         overflow="visible"
         id="symbol1756">
        <path
           style="stroke:none;"
           d="M 4.359375 -0.0625 C 5.90625 -0.640625 7.375 -2.421875 7.375 -4.34375 C 7.375 -5.953125 6.3125 -7.03125 4.828125 -7.03125 C 2.6875 -7.03125 0.484375 -4.765625 0.484375 -2.4375 C 0.484375 -0.78125 1.609375 0.21875 3.046875 0.21875 C 3.296875 0.21875 3.625 0.171875 4.015625 0.0625 C 3.984375 0.6875 3.984375 0.703125 3.984375 0.84375 C 3.984375 1.15625 3.984375 1.9375 4.8125 1.9375 C 5.984375 1.9375 6.46875 0.109375 6.46875 0 C 6.46875 -0.0625 6.40625 -0.09375 6.359375 -0.09375 C 6.28125 -0.09375 6.265625 -0.046875 6.234375 0.015625 C 6 0.71875 5.421875 0.96875 5.078125 0.96875 C 4.609375 0.96875 4.46875 0.703125 4.359375 -0.0625 Z M 2.484375 -0.140625 C 1.703125 -0.453125 1.359375 -1.21875 1.359375 -2.125 C 1.359375 -2.8125 1.625 -4.234375 2.375 -5.296875 C 3.109375 -6.3125 4.046875 -6.78125 4.78125 -6.78125 C 5.765625 -6.78125 6.5 -6 6.5 -4.671875 C 6.5 -3.671875 5.984375 -1.328125 4.3125 -0.40625 C 4.265625 -0.75 4.171875 -1.46875 3.4375 -1.46875 C 2.90625 -1.46875 2.421875 -0.984375 2.421875 -0.453125 C 2.421875 -0.265625 2.484375 -0.15625 2.484375 -0.140625 Z M 3.09375 -0.03125 C 2.953125 -0.03125 2.640625 -0.03125 2.640625 -0.453125 C 2.640625 -0.859375 3.015625 -1.25 3.4375 -1.25 C 3.859375 -1.25 4.046875 -1.015625 4.046875 -0.40625 C 4.046875 -0.265625 4.03125 -0.25 3.9375 -0.203125 C 3.671875 -0.09375 3.375 -0.03125 3.09375 -0.03125 Z M 3.09375 -0.03125 "
           id="path4545" />
      </symbol>
      <symbol
         overflow="visible"
         id="symbol4552">
        <path
           style="stroke:none;"
           d=""
           id="path3084" />
      </symbol>
      <symbol
         overflow="visible"
         id="symbol3828">
        <path
           style="stroke:none;"
           d="M 6.84375 -3.265625 C 7 -3.265625 7.1875 -3.265625 7.1875 -3.453125 C 7.1875 -3.65625 7 -3.65625 6.859375 -3.65625 L 0.890625 -3.65625 C 0.75 -3.65625 0.5625 -3.65625 0.5625 -3.453125 C 0.5625 -3.265625 0.75 -3.265625 0.890625 -3.265625 Z M 6.859375 -1.328125 C 7 -1.328125 7.1875 -1.328125 7.1875 -1.53125 C 7.1875 -1.71875 7 -1.71875 6.84375 -1.71875 L 0.890625 -1.71875 C 0.75 -1.71875 0.5625 -1.71875 0.5625 -1.53125 C 0.5625 -1.328125 0.75 -1.328125 0.890625 -1.328125 Z M 6.859375 -1.328125 "
           id="path6310" />
      </symbol>
      <symbol
         overflow="visible"
         id="symbol8786">
        <path
           style="stroke:none;"
           d=""
           id="path8657" />
      </symbol>
      <symbol
         overflow="visible"
         id="symbol7671">
        <path
           style="stroke:none;"
           d="M 1.578125 -7.125 C 1.578125 -7.296875 1.578125 -7.484375 1.390625 -7.484375 C 1.1875 -7.484375 1.1875 -7.296875 1.1875 -7.125 L 1.1875 2.140625 C 1.1875 2.3125 1.1875 2.5 1.390625 2.5 C 1.578125 2.5 1.578125 2.3125 1.578125 2.140625 Z M 1.578125 -7.125 "
           id="path8665" />
      </symbol>
      <symbol
         overflow="visible"
         id="symbol2516">
        <path
           style="stroke:none;"
           d="M 6.5625 -2.296875 C 6.734375 -2.296875 6.921875 -2.296875 6.921875 -2.5 C 6.921875 -2.6875 6.734375 -2.6875 6.5625 -2.6875 L 1.171875 -2.6875 C 1 -2.6875 0.828125 -2.6875 0.828125 -2.5 C 0.828125 -2.296875 1 -2.296875 1.171875 -2.296875 Z M 6.5625 -2.296875 "
           id="path6256" />
      </symbol>
      <symbol
         overflow="visible"
         id="symbol9505">
        <path
           style="stroke:none;"
           d=""
           id="path9488" />
      </symbol>
      <symbol
         overflow="visible"
         id="symbol3980">
        <path
           style="stroke:none;"
           d="M 5.859375 -4.1875 C 5.921875 -4.453125 5.9375 -4.515625 6.453125 -4.515625 C 6.609375 -4.515625 6.6875 -4.515625 6.6875 -4.65625 C 6.6875 -4.6875 6.671875 -4.765625 6.578125 -4.765625 C 6.375 -4.765625 5.875 -4.734375 5.671875 -4.734375 C 5.546875 -4.734375 5.296875 -4.734375 5.1875 -4.734375 C 5.046875 -4.75 4.875 -4.765625 4.75 -4.765625 C 4.703125 -4.765625 4.59375 -4.765625 4.59375 -4.609375 C 4.59375 -4.515625 4.6875 -4.515625 4.828125 -4.515625 C 4.828125 -4.515625 4.96875 -4.515625 5.09375 -4.5 C 5.234375 -4.484375 5.25 -4.46875 5.25 -4.390625 C 5.25 -4.390625 5.25 -4.34375 5.21875 -4.25 L 4.8125 -2.59375 L 2.46875 -2.59375 L 2.875 -4.21875 C 2.9375 -4.453125 2.953125 -4.515625 3.484375 -4.515625 C 3.609375 -4.515625 3.703125 -4.515625 3.703125 -4.65625 C 3.703125 -4.6875 3.671875 -4.765625 3.59375 -4.765625 C 3.390625 -4.765625 2.875 -4.734375 2.671875 -4.734375 C 2.5625 -4.734375 2.3125 -4.734375 2.1875 -4.734375 C 2.0625 -4.75 1.890625 -4.765625 1.75 -4.765625 C 1.71875 -4.765625 1.609375 -4.765625 1.609375 -4.609375 C 1.609375 -4.515625 1.6875 -4.515625 1.828125 -4.515625 C 1.84375 -4.515625 1.96875 -4.515625 2.09375 -4.5 C 2.25 -4.484375 2.265625 -4.46875 2.265625 -4.390625 C 2.265625 -4.390625 2.265625 -4.34375 2.234375 -4.25 L 1.296875 -0.546875 C 1.25 -0.3125 1.234375 -0.25 0.6875 -0.25 C 0.578125 -0.25 0.484375 -0.25 0.484375 -0.109375 C 0.484375 -0.03125 0.53125 0 0.59375 0 C 0.796875 0 1.296875 -0.03125 1.5 -0.03125 C 1.609375 -0.03125 1.859375 -0.03125 1.984375 -0.015625 C 2.125 -0.015625 2.296875 0 2.421875 0 C 2.453125 0 2.578125 0 2.578125 -0.140625 C 2.578125 -0.25 2.5 -0.25 2.34375 -0.25 C 2.234375 -0.25 2.203125 -0.25 2.078125 -0.265625 C 1.921875 -0.28125 1.921875 -0.296875 1.921875 -0.375 C 1.921875 -0.375 1.921875 -0.421875 1.953125 -0.515625 L 2.40625 -2.34375 L 4.75 -2.34375 L 4.296875 -0.546875 C 4.234375 -0.3125 4.21875 -0.25 3.671875 -0.25 C 3.5625 -0.25 3.46875 -0.25 3.46875 -0.109375 C 3.46875 -0.03125 3.515625 0 3.578125 0 C 3.78125 0 4.28125 -0.03125 4.484375 -0.03125 C 4.609375 -0.03125 4.84375 -0.03125 4.96875 -0.015625 C 5.109375 -0.015625 5.28125 0 5.421875 0 C 5.453125 0 5.5625 0 5.5625 -0.140625 C 5.5625 -0.25 5.484375 -0.25 5.328125 -0.25 C 5.21875 -0.25 5.1875 -0.25 5.0625 -0.265625 C 4.90625 -0.28125 4.90625 -0.296875 4.90625 -0.375 C 4.90625 -0.40625 4.9375 -0.484375 4.9375 -0.515625 Z M 5.859375 -4.1875 "
           id="path8972" />
      </symbol>
      <symbol
         overflow="visible"
         id="symbol1330">
        <path
           style="stroke:none;"
           d="M 5.875 -4.8125 C 5.875 -4.84375 5.859375 -4.90625 5.78125 -4.90625 C 5.734375 -4.90625 5.71875 -4.890625 5.65625 -4.8125 L 5.15625 -4.28125 C 5.09375 -4.359375 4.703125 -4.90625 3.84375 -4.90625 C 2.140625 -4.90625 0.484375 -3.40625 0.484375 -1.828125 C 0.484375 -0.6875 1.375 0.140625 2.625 0.140625 C 3 0.140625 3.671875 0.0625 4.390625 -0.546875 C 4.9375 -1.015625 5.09375 -1.609375 5.09375 -1.671875 C 5.09375 -1.765625 5.015625 -1.765625 4.96875 -1.765625 C 4.890625 -1.765625 4.875 -1.734375 4.84375 -1.65625 C 4.5625 -0.703125 3.59375 -0.109375 2.75 -0.109375 C 2 -0.109375 1.1875 -0.515625 1.1875 -1.609375 C 1.1875 -1.8125 1.234375 -2.90625 2.03125 -3.796875 C 2.515625 -4.328125 3.25 -4.640625 3.90625 -4.640625 C 4.71875 -4.640625 5.1875 -4.0625 5.1875 -3.28125 C 5.1875 -3.09375 5.171875 -3.03125 5.171875 -3 C 5.171875 -2.90625 5.265625 -2.90625 5.296875 -2.90625 C 5.40625 -2.90625 5.40625 -2.921875 5.4375 -3.0625 Z M 5.875 -4.8125 "
           id="path3460" />
      </symbol>
    </g>
    <g
       id="g1405">
      <symbol
         overflow="visible"
         id="symbol7279">
        <path
           style="stroke:none;"
           d=""
           id="path3585" />
      </symbol>
      <symbol
         overflow="visible"
         id="symbol9506">
        <path
           style="stroke:none;"
           d="M 1.859375 -2.296875 C 2.15625 -2.296875 2.890625 -2.328125 3.390625 -2.53125 C 4.09375 -2.828125 4.140625 -3.421875 4.140625 -3.5625 C 4.140625 -4 3.765625 -4.40625 3.078125 -4.40625 C 1.96875 -4.40625 0.453125 -3.4375 0.453125 -1.6875 C 0.453125 -0.671875 1.046875 0.109375 2.03125 0.109375 C 3.453125 0.109375 4.28125 -0.953125 4.28125 -1.0625 C 4.28125 -1.125 4.234375 -1.203125 4.171875 -1.203125 C 4.109375 -1.203125 4.09375 -1.171875 4.03125 -1.09375 C 3.25 -0.109375 2.15625 -0.109375 2.046875 -0.109375 C 1.265625 -0.109375 1.171875 -0.953125 1.171875 -1.265625 C 1.171875 -1.390625 1.1875 -1.6875 1.328125 -2.296875 Z M 1.390625 -2.515625 C 1.78125 -4.03125 2.8125 -4.1875 3.078125 -4.1875 C 3.53125 -4.1875 3.8125 -3.890625 3.8125 -3.5625 C 3.8125 -2.515625 2.21875 -2.515625 1.796875 -2.515625 Z M 1.390625 -2.515625 "
           id="path3130" />
      </symbol>
      <symbol
         overflow="visible"
         id="symbol5975">
        <path
           style="stroke:none;"
           d="M 4.25 -6.046875 C 4.328125 -6.328125 4.359375 -6.390625 4.484375 -6.421875 C 4.578125 -6.4375 4.90625 -6.4375 5.109375 -6.4375 C 6.125 -6.4375 6.5625 -6.40625 6.5625 -5.625 C 6.5625 -5.46875 6.53125 -5.078125 6.484375 -4.828125 C 6.484375 -4.78125 6.453125 -4.671875 6.453125 -4.640625 C 6.453125 -4.578125 6.484375 -4.5 6.578125 -4.5 C 6.6875 -4.5 6.703125 -4.578125 6.734375 -4.734375 L 7 -6.46875 C 7.015625 -6.515625 7.015625 -6.609375 7.015625 -6.640625 C 7.015625 -6.75 6.921875 -6.75 6.75 -6.75 L 1.21875 -6.75 C 0.984375 -6.75 0.96875 -6.734375 0.890625 -6.546875 L 0.296875 -4.796875 C 0.296875 -4.78125 0.234375 -4.640625 0.234375 -4.609375 C 0.234375 -4.5625 0.296875 -4.5 0.359375 -4.5 C 0.453125 -4.5 0.46875 -4.5625 0.53125 -4.71875 C 1.0625 -6.265625 1.328125 -6.4375 2.796875 -6.4375 L 3.1875 -6.4375 C 3.46875 -6.4375 3.46875 -6.40625 3.46875 -6.3125 C 3.46875 -6.265625 3.4375 -6.140625 3.421875 -6.109375 L 2.09375 -0.78125 C 2 -0.421875 1.96875 -0.3125 0.90625 -0.3125 C 0.546875 -0.3125 0.484375 -0.3125 0.484375 -0.125 C 0.484375 0 0.59375 0 0.65625 0 C 0.921875 0 1.203125 -0.015625 1.46875 -0.015625 C 1.75 -0.015625 2.046875 -0.03125 2.328125 -0.03125 C 2.609375 -0.03125 2.875 -0.015625 3.15625 -0.015625 C 3.4375 -0.015625 3.734375 0 4.015625 0 C 4.109375 0 4.234375 0 4.234375 -0.203125 C 4.234375 -0.3125 4.15625 -0.3125 3.890625 -0.3125 C 3.65625 -0.3125 3.515625 -0.3125 3.265625 -0.328125 C 2.96875 -0.359375 2.890625 -0.390625 2.890625 -0.546875 C 2.890625 -0.5625 2.890625 -0.609375 2.9375 -0.75 Z M 4.25 -6.046875 "
           id="path7467" />
      </symbol>
      <symbol
         overflow="visible"
         id="symbol7850">
        <path
           style="stroke:none;"
           d=""
           id="path4460" />
      </symbol>
      <symbol
         overflow="visible"
         id="symbol2262">
        <path
           style="stroke:none;"
           d="M 6.84375 -3.265625 C 7 -3.265625 7.1875 -3.265625 7.1875 -3.453125 C 7.1875 -3.65625 7 -3.65625 6.859375 -3.65625 L 0.890625 -3.65625 C 0.75 -3.65625 0.5625 -3.65625 0.5625 -3.453125 C 0.5625 -3.265625 0.75 -3.265625 0.890625 -3.265625 Z M 6.859375 -1.328125 C 7 -1.328125 7.1875 -1.328125 7.1875 -1.53125 C 7.1875 -1.71875 7 -1.71875 6.84375 -1.71875 L 0.890625 -1.71875 C 0.75 -1.71875 0.5625 -1.71875 0.5625 -1.53125 C 0.5625 -1.328125 0.75 -1.328125 0.890625 -1.328125 Z M 6.859375 -1.328125 "
           id="path2160" />
      </symbol>
      <symbol
         overflow="visible"
         id="symbol8442">
        <path
           style="stroke:none;"
           d=""
           id="path3478" />
      </symbol>
      <symbol
         overflow="visible"
         id="symbol1671">
        <path
           style="stroke:none;"
           d="M 5.859375 -4.1875 C 5.921875 -4.453125 5.9375 -4.515625 6.453125 -4.515625 C 6.609375 -4.515625 6.6875 -4.515625 6.6875 -4.65625 C 6.6875 -4.6875 6.671875 -4.765625 6.578125 -4.765625 C 6.375 -4.765625 5.875 -4.734375 5.671875 -4.734375 C 5.546875 -4.734375 5.296875 -4.734375 5.1875 -4.734375 C 5.046875 -4.75 4.875 -4.765625 4.75 -4.765625 C 4.703125 -4.765625 4.59375 -4.765625 4.59375 -4.609375 C 4.59375 -4.515625 4.6875 -4.515625 4.828125 -4.515625 C 4.828125 -4.515625 4.96875 -4.515625 5.09375 -4.5 C 5.234375 -4.484375 5.25 -4.46875 5.25 -4.390625 C 5.25 -4.390625 5.25 -4.34375 5.21875 -4.25 L 4.8125 -2.59375 L 2.46875 -2.59375 L 2.875 -4.21875 C 2.9375 -4.453125 2.953125 -4.515625 3.484375 -4.515625 C 3.609375 -4.515625 3.703125 -4.515625 3.703125 -4.65625 C 3.703125 -4.6875 3.671875 -4.765625 3.59375 -4.765625 C 3.390625 -4.765625 2.875 -4.734375 2.671875 -4.734375 C 2.5625 -4.734375 2.3125 -4.734375 2.1875 -4.734375 C 2.0625 -4.75 1.890625 -4.765625 1.75 -4.765625 C 1.71875 -4.765625 1.609375 -4.765625 1.609375 -4.609375 C 1.609375 -4.515625 1.6875 -4.515625 1.828125 -4.515625 C 1.84375 -4.515625 1.96875 -4.515625 2.09375 -4.5 C 2.25 -4.484375 2.265625 -4.46875 2.265625 -4.390625 C 2.265625 -4.390625 2.265625 -4.34375 2.234375 -4.25 L 1.296875 -0.546875 C 1.25 -0.3125 1.234375 -0.25 0.6875 -0.25 C 0.578125 -0.25 0.484375 -0.25 0.484375 -0.109375 C 0.484375 -0.03125 0.53125 0 0.59375 0 C 0.796875 0 1.296875 -0.03125 1.5 -0.03125 C 1.609375 -0.03125 1.859375 -0.03125 1.984375 -0.015625 C 2.125 -0.015625 2.296875 0 2.421875 0 C 2.453125 0 2.578125 0 2.578125 -0.140625 C 2.578125 -0.25 2.5 -0.25 2.34375 -0.25 C 2.234375 -0.25 2.203125 -0.25 2.078125 -0.265625 C 1.921875 -0.28125 1.921875 -0.296875 1.921875 -0.375 C 1.921875 -0.375 1.921875 -0.421875 1.953125 -0.515625 L 2.40625 -2.34375 L 4.75 -2.34375 L 4.296875 -0.546875 C 4.234375 -0.3125 4.21875 -0.25 3.671875 -0.25 C 3.5625 -0.25 3.46875 -0.25 3.46875 -0.109375 C 3.46875 -0.03125 3.515625 0 3.578125 0 C 3.78125 0 4.28125 -0.03125 4.484375 -0.03125 C 4.609375 -0.03125 4.84375 -0.03125 4.96875 -0.015625 C 5.109375 -0.015625 5.28125 0 5.421875 0 C 5.453125 0 5.5625 0 5.5625 -0.140625 C 5.5625 -0.25 5.484375 -0.25 5.328125 -0.25 C 5.21875 -0.25 5.1875 -0.25 5.0625 -0.265625 C 4.90625 -0.28125 4.90625 -0.296875 4.90625 -0.375 C 4.90625 -0.40625 4.9375 -0.484375 4.9375 -0.515625 Z M 5.859375 -4.1875 "
           id="path1915" />
      </symbol>
      <symbol
         overflow="visible"
         id="symbol9502">
        <path
           style="stroke:none;"
           d="M 5.875 -4.8125 C 5.875 -4.84375 5.859375 -4.90625 5.78125 -4.90625 C 5.734375 -4.90625 5.71875 -4.890625 5.65625 -4.8125 L 5.15625 -4.28125 C 5.09375 -4.359375 4.703125 -4.90625 3.84375 -4.90625 C 2.140625 -4.90625 0.484375 -3.40625 0.484375 -1.828125 C 0.484375 -0.6875 1.375 0.140625 2.625 0.140625 C 3 0.140625 3.671875 0.0625 4.390625 -0.546875 C 4.9375 -1.015625 5.09375 -1.609375 5.09375 -1.671875 C 5.09375 -1.765625 5.015625 -1.765625 4.96875 -1.765625 C 4.890625 -1.765625 4.875 -1.734375 4.84375 -1.65625 C 4.5625 -0.703125 3.59375 -0.109375 2.75 -0.109375 C 2 -0.109375 1.1875 -0.515625 1.1875 -1.609375 C 1.1875 -1.8125 1.234375 -2.90625 2.03125 -3.796875 C 2.515625 -4.328125 3.25 -4.640625 3.90625 -4.640625 C 4.71875 -4.640625 5.1875 -4.0625 5.1875 -3.28125 C 5.1875 -3.09375 5.171875 -3.03125 5.171875 -3 C 5.171875 -2.90625 5.265625 -2.90625 5.296875 -2.90625 C 5.40625 -2.90625 5.40625 -2.921875 5.4375 -3.0625 Z M 5.875 -4.8125 "
           id="path3829" />
      </symbol>
      <symbol
         overflow="visible"
         id="symbol8632">
        <path
           style="stroke:none;"
           d=""
           id="path6376" />
      </symbol>
      <symbol
         overflow="visible"
         id="symbol541">
        <path
           style="stroke:none;"
           d="M 6.5625 -2.296875 C 6.734375 -2.296875 6.921875 -2.296875 6.921875 -2.5 C 6.921875 -2.6875 6.734375 -2.6875 6.5625 -2.6875 L 1.171875 -2.6875 C 1 -2.6875 0.828125 -2.6875 0.828125 -2.5 C 0.828125 -2.296875 1 -2.296875 1.171875 -2.296875 Z M 6.5625 -2.296875 "
           id="path5494" />
      </symbol>
    </g>
  </defs>
  <sodipodi:namedview
     id="base"
     pagecolor="#ffffff"
     bordercolor="#666666"
     borderopacity="1.0"
     inkscape:pageopacity="0.0"
     inkscape:pageshadow="2"
     inkscape:zoom="0.49497475"
     inkscape:cx="675.59422"
     inkscape:cy="383.61666"
     inkscape:document-units="px"
     inkscape:current-layer="layer1"
     inkscape:document-rotation="0"
     showgrid="false"
     units="px"
     borderlayer="true"
     inkscape:showpageshadow="false"
     inkscape:window-width="1920"
     inkscape:window-height="1050"
     inkscape:window-x="1920"
     inkscape:window-y="18"
     inkscape:window-maximized="0"
     showguides="true"
     inkscape:guide-bbox="true">
    <inkscape:grid
       type="xygrid"
       id="grid10"
       spacingx="2.1166667"
       spacingy="2.1166667"
       empspacing="8"
       enabled="true" />
    <sodipodi:guide
       position="0,-2.3125003e-06"
       orientation="0,-1"
       id="guide831" />
    <sodipodi:guide
       position="507.99999,285.75001"
       orientation="0,-1"
       id="guide833" />
    <sodipodi:guide
       position="0,-2.3125003e-06"
       orientation="1,0"
       id="guide835" />
    <sodipodi:guide
       position="507.99999,285.75002"
       orientation="1,0"
       id="guide837" />
    <inkscape:grid
       type="axonomgrid"
       id="grid839"
       gridanglex="30"
       gridanglez="30"
       empspacing="16"
       enabled="false" />
  </sodipodi:namedview>
  <metadata
     id="metadata5">
    <rdf:RDF>
      <cc:Work
         rdf:about="">
        <dc:format>image/svg+xml</dc:format>
        <dc:type
           rdf:resource="http://purl.org/dc/dcmitype/StillImage" />
        <dc:title />
      </cc:Work>
    </rdf:RDF>
  </metadata>
  <g
     inkscape:label="fondo"
     inkscape:groupmode="layer"
     id="layer1"
     style="display:inline">
    <rect
       style="fill:#20205f;fill-opacity:1;stroke-width:0.79375;stroke-linecap:round;stroke-linejoin:bevel"
       id="rect836"
       width="508"
       height="285.75"
       x="0"
       y="0" />
  </g>
  <g
     inkscape:groupmode="layer"
     id="layer2"
     inkscape:label="sadi"
     style="display:none"
     sodipodi:insensitive="true">
    <image
       sodipodi:absref="/home/jacobian/Imágenes/Sadi_Carnot_Boilly_1813.jpg"
       xlink:href="../../../../Im%C3%A1genes/Sadi_Carnot_Boilly_1813.jpg"
       width="135.46666"
       height="182.68025"
       preserveAspectRatio="none"
       id="image848"
       x="186.26668"
       y="54.386417" />
  </g>
  <g
     inkscape:groupmode="layer"
     id="layer3"
     inkscape:label="ciclo"
     style="display:none"
     sodipodi:insensitive="true">
    <image
       sodipodi:absref="/home/jacobian/Documentos/UMSS/FIS102/Exposición 07/vídeos/carnot/carnot-001.jpg"
       xlink:href="v%C3%ADdeos/carnot/carnot-001.jpg"
       width="508"
       height="285.75"
       preserveAspectRatio="none"
       id="image863"
       x="-508"
       y="-2.6590403e-11" />
    <g
       id="g1098"
       transform="translate(-189.35998,-15.901807)">
      <circle
         style="fill:#ffffff;fill-opacity:1;stroke:#000000;stroke-width:0.79375;stroke-linecap:round;stroke-miterlimit:4;stroke-dasharray:none"
         id="circle1087"
         cx="315.46521"
         cy="200.25246"
         r="7.2520418" />
      <g
         inkscape:label=""
         transform="matrix(1.2742897,0,0,1.2742897,194.79196,100.1484)"
         id="g1066">
        <g
           id="g594">
          <g
             style="fill:#000000;fill-opacity:1"
             id="g1239">
            <use
               xlink:href="#symbol791"
               x="91.925003"
               y="81.962997"
               id="use2868"
               width="100%"
               height="100%" />
          </g>
        </g>
      </g>
    </g>
    <g
       id="g1119"
       transform="translate(0.1889881)">
      <circle
         style="fill:#ffffff;fill-opacity:1;stroke:#000000;stroke-width:0.79375;stroke-linecap:round;stroke-miterlimit:4;stroke-dasharray:none"
         id="path1085"
         cx="294.43564"
         cy="200.25246"
         r="7.2520418" />
      <g
         inkscape:label=""
         transform="matrix(1.2742897,0,0,1.2742897,174.30994,98.545585)"
         id="g998">
        <g
           id="g1662">
          <g
             style="fill:#000000;fill-opacity:1"
             id="g3025">
            <use
               xlink:href="#symbol5158"
               x="91.925003"
               y="81.962997"
               id="use5659"
               width="100%"
               height="100%" />
          </g>
        </g>
      </g>
    </g>
    <g
       id="g1105"
       transform="translate(-155.82627,-38.460122)">
      <circle
         style="fill:#ffffff;fill-opacity:1;stroke:#000000;stroke-width:0.79375;stroke-linecap:round;stroke-miterlimit:4;stroke-dasharray:none"
         id="circle1091"
         cx="315.46521"
         cy="182.15866"
         r="7.2520418" />
      <g
         inkscape:label=""
         transform="matrix(1.2742897,0,0,1.2742897,195.38929,82.054607)"
         id="g939">
        <g
           id="g2416">
          <g
             style="fill:#000000;fill-opacity:1"
             id="g5729">
            <use
               xlink:href="#symbol8243"
               x="91.925003"
               y="81.962997"
               id="use5538"
               width="100%"
               height="100%" />
          </g>
        </g>
      </g>
    </g>
    <g
       id="g1112"
       transform="translate(-214.59498,-120.84186)">
      <circle
         style="fill:#ffffff;fill-opacity:1;stroke:#000000;stroke-width:0.79375;stroke-linecap:round;stroke-miterlimit:4;stroke-dasharray:none"
         id="circle1089"
         cx="294.43564"
         cy="182.15866"
         r="7.2520418" />
      <g
         inkscape:label=""
         transform="matrix(1.2742897,0,0,1.2742897,173.8719,80.451789)"
         id="g889">
        <g
           id="g5480">
          <g
             style="fill:#000000;fill-opacity:1"
             id="g1310">
            <use
               xlink:href="#symbol822"
               x="91.925003"
               y="81.962997"
               id="use4727"
               width="100%"
               height="100%" />
          </g>
        </g>
      </g>
    </g>
    <g
       inkscape:label=""
       transform="translate(70.032614,-39.903641)"
       id="g1587">
      <g
         id="g294">
        <g
           style="fill:#000000;fill-opacity:1"
           id="g6581">
          <use
             xlink:href="#symbol9093"
             x="91.925003"
             y="81.962997"
             id="use2457"
             width="100%"
             height="100%" />
        </g>
        <g
           style="fill:#000000;fill-opacity:1"
           id="g508">
          <use
             xlink:href="#symbol5771"
             x="94.693001"
             y="81.962997"
             id="use4879"
             width="100%"
             height="100%" />
        </g>
        <g
           style="fill:#000000;fill-opacity:1"
           id="g274">
          <use
             xlink:href="#symbol9093"
             x="105.486"
             y="81.962997"
             id="use6263"
             width="100%"
             height="100%" />
        </g>
        <g
           style="fill:#000000;fill-opacity:1"
           id="g1169">
          <use
             xlink:href="#symbol7211"
             x="111.02"
             y="81.962997"
             id="use2160"
             width="100%"
             height="100%" />
        </g>
        <g
           style="fill:#000000;fill-opacity:1"
           id="g2344">
          <use
             xlink:href="#symbol9093"
             x="121.536"
             y="81.962997"
             id="use1905"
             width="100%"
             height="100%" />
        </g>
        <g
           style="fill:#000000;fill-opacity:1"
           id="g657">
          <use
             xlink:href="#symbol7256"
             x="124.304"
             y="81.962997"
             id="use3015"
             width="100%"
             height="100%" />
        </g>
        <g
           style="fill:#000000;fill-opacity:1"
           id="g5071">
          <use
             xlink:href="#symbol5466"
             x="132.17999"
             y="83.457001"
             id="use3112"
             width="100%"
             height="100%" />
        </g>
        <g
           style="fill:#000000;fill-opacity:1"
           id="g7148">
          <use
             xlink:href="#symbol9093"
             x="139.73599"
             y="81.962997"
             id="use8365"
             width="100%"
             height="100%" />
        </g>
        <g
           style="fill:#000000;fill-opacity:1"
           id="g9018">
          <use
             xlink:href="#symbol497"
             x="144.7153"
             y="81.962997"
             id="use5552"
             width="100%"
             height="100%" />
        </g>
        <g
           style="fill:#000000;fill-opacity:1"
           id="g4884">
          <use
             xlink:href="#symbol9093"
             x="154.67592"
             y="81.962997"
             id="use8186"
             width="100%"
             height="100%" />
        </g>
        <g
           style="fill:#000000;fill-opacity:1"
           id="g592">
          <use
             xlink:href="#symbol7256"
             x="157.44701"
             y="81.962997"
             id="use6194"
             width="100%"
             height="100%" />
        </g>
        <g
           style="fill:#000000;fill-opacity:1"
           id="g8770">
          <use
             xlink:href="#symbol9913"
             x="165.323"
             y="83.457001"
             id="use3735"
             width="100%"
             height="100%" />
        </g>
        <g
           style="fill:#000000;fill-opacity:1"
           id="g1572">
          <use
             xlink:href="#symbol9093"
             x="172.024"
             y="81.962997"
             id="use2940"
             width="100%"
             height="100%" />
        </g>
      </g>
    </g>
    <g
       inkscape:label=""
       transform="translate(70.766989,-11.298696)"
       id="g1838">
      <g
         id="g650">
        <g
           style="fill:#000000;fill-opacity:1"
           id="g6585">
          <use
             xlink:href="#symbol1967"
             x="91.925003"
             y="86.211998"
             id="use1752"
             width="100%"
             height="100%" />
        </g>
        <g
           style="fill:#000000;fill-opacity:1"
           id="g9007">
          <use
             xlink:href="#symbol3601"
             x="99.331001"
             y="86.211998"
             id="use309"
             width="100%"
             height="100%" />
        </g>
        <g
           style="fill:#000000;fill-opacity:1"
           id="g5195">
          <use
             xlink:href="#symbol8914"
             x="113.363"
             y="79.472"
             id="use3512"
             width="100%"
             height="100%" />
        </g>
        <g
           style="fill:#000000;fill-opacity:1"
           id="g5475">
          <use
             xlink:href="#symbol8132"
             x="116.13"
             y="79.472"
             id="use2639"
             width="100%"
             height="100%" />
        </g>
        <g
           style="fill:#000000;fill-opacity:1"
           id="g3791">
          <use
             xlink:href="#symbol8914"
             x="126.923"
             y="79.472"
             id="use5669"
             width="100%"
             height="100%" />
        </g>
        <path
           style="fill:none;stroke:#000000;stroke-width:0.398;stroke-linecap:butt;stroke-linejoin:miter;stroke-miterlimit:10;stroke-opacity:1"
           d="M -3.125e-5,-0.00165625 H 20.968719"
           transform="matrix(1,0,0,-1,111.043,83.721)"
           id="path531" />
        <g
           style="fill:#000000;fill-opacity:1"
           id="g5666">
          <use
             xlink:href="#symbol8914"
             x="111.043"
             y="93.045998"
             id="use7862"
             width="100%"
             height="100%" />
        </g>
        <g
           style="fill:#000000;fill-opacity:1"
           id="g4385">
          <use
             xlink:href="#symbol1868"
             x="113.81"
             y="93.045998"
             id="use7552"
             width="100%"
             height="100%" />
        </g>
        <g
           style="fill:#000000;fill-opacity:1"
           id="g9025">
          <use
             xlink:href="#symbol3529"
             x="121.686"
             y="94.540001"
             id="use7010"
             width="100%"
             height="100%" />
        </g>
        <g
           style="fill:#000000;fill-opacity:1"
           id="g309">
          <use
             xlink:href="#symbol8914"
             x="129.243"
             y="93.045998"
             id="use5073"
             width="100%"
             height="100%" />
        </g>
      </g>
    </g>
    <g
       inkscape:label=""
       transform="translate(70.766989,-11.298696)"
       id="g2156">
      <g
         id="g6180">
        <g
           style="fill:#000000;fill-opacity:1"
           id="g9982">
          <use
             xlink:href="#symbol5817"
             x="91.925003"
             y="86.211998"
             id="use7844"
             width="100%"
             height="100%" />
        </g>
        <g
           style="fill:#000000;fill-opacity:1"
           id="g4867">
          <use
             xlink:href="#symbol3828"
             x="99.331001"
             y="86.211998"
             id="use1242"
             width="100%"
             height="100%" />
        </g>
        <g
           style="fill:#000000;fill-opacity:1"
           id="g9495">
          <use
             xlink:href="#symbol7671"
             x="113.363"
             y="79.472"
             id="use1208"
             width="100%"
             height="100%" />
        </g>
        <g
           style="fill:#000000;fill-opacity:1"
           id="g511">
          <use
             xlink:href="#symbol6005"
             x="116.13"
             y="79.472"
             id="use2849"
             width="100%"
             height="100%" />
        </g>
        <g
           style="fill:#000000;fill-opacity:1"
           id="g8012">
          <use
             xlink:href="#symbol7671"
             x="126.923"
             y="79.472"
             id="use8103"
             width="100%"
             height="100%" />
        </g>
        <path
           style="fill:none;stroke:#000000;stroke-width:0.398;stroke-linecap:butt;stroke-linejoin:miter;stroke-miterlimit:10;stroke-opacity:1"
           d="M -3.125e-5,-0.00165625 H 20.968719"
           transform="matrix(1,0,0,-1,111.043,83.721)"
           id="path9800" />
        <g
           style="fill:#000000;fill-opacity:1"
           id="g9654">
          <use
             xlink:href="#symbol7671"
             x="111.043"
             y="93.045998"
             id="use5228"
             width="100%"
             height="100%" />
        </g>
        <g
           style="fill:#000000;fill-opacity:1"
           id="g885">
          <use
             xlink:href="#symbol1756"
             x="113.81"
             y="93.045998"
             id="use2163"
             width="100%"
             height="100%" />
        </g>
        <g
           style="fill:#000000;fill-opacity:1"
           id="g5818">
          <use
             xlink:href="#symbol3980"
             x="121.686"
             y="94.540001"
             id="use2645"
             width="100%"
             height="100%" />
        </g>
        <g
           style="fill:#000000;fill-opacity:1"
           id="g953">
          <use
             xlink:href="#symbol7671"
             x="129.243"
             y="93.045998"
             id="use5087"
             width="100%"
             height="100%" />
        </g>
        <g
           style="fill:#000000;fill-opacity:1"
           id="g6419">
          <use
             xlink:href="#symbol3828"
             x="135.97301"
             y="86.211998"
             id="use230"
             width="100%"
             height="100%" />
        </g>
        <g
           style="fill:#000000;fill-opacity:1"
           id="g1189">
          <use
             xlink:href="#symbol7671"
             x="147.685"
             y="79.472"
             id="use1711"
             width="100%"
             height="100%" />
        </g>
        <g
           style="fill:#000000;fill-opacity:1"
           id="g3721">
          <use
             xlink:href="#symbol1756"
             x="150.452"
             y="79.472"
             id="use2129"
             width="100%"
             height="100%" />
        </g>
        <g
           style="fill:#000000;fill-opacity:1"
           id="g9034">
          <use
             xlink:href="#symbol3980"
             x="158.328"
             y="80.967003"
             id="use2292"
             width="100%"
             height="100%" />
        </g>
        <g
           style="fill:#000000;fill-opacity:1"
           id="g1222">
          <use
             xlink:href="#symbol7671"
             x="165.88499"
             y="79.472"
             id="use6376"
             width="100%"
             height="100%" />
        </g>
        <g
           style="fill:#000000;fill-opacity:1"
           id="g6913">
          <use
             xlink:href="#symbol2516"
             x="170.8643"
             y="79.472"
             id="use5928"
             width="100%"
             height="100%" />
        </g>
        <g
           style="fill:#000000;fill-opacity:1"
           id="g9116">
          <use
             xlink:href="#symbol7671"
             x="180.82492"
             y="79.472"
             id="use6271"
             width="100%"
             height="100%" />
        </g>
        <g
           style="fill:#000000;fill-opacity:1"
           id="g7598">
          <use
             xlink:href="#symbol1756"
             x="183.59599"
             y="79.472"
             id="use5879"
             width="100%"
             height="100%" />
        </g>
        <g
           style="fill:#000000;fill-opacity:1"
           id="g9550">
          <use
             xlink:href="#symbol1330"
             x="191.472"
             y="80.967003"
             id="use7935"
             width="100%"
             height="100%" />
        </g>
        <g
           style="fill:#000000;fill-opacity:1"
           id="g8013">
          <use
             xlink:href="#symbol7671"
             x="198.173"
             y="79.472"
             id="use8307"
             width="100%"
             height="100%" />
        </g>
        <path
           style="fill:none;stroke:#000000;stroke-width:0.398;stroke-linecap:butt;stroke-linejoin:miter;stroke-miterlimit:10;stroke-opacity:1"
           d="M -0.00140625,-0.00165625 H 53.256406"
           transform="matrix(1,0,0,-1,147.685,83.721)"
           id="path5048" />
        <g
           style="fill:#000000;fill-opacity:1"
           id="g2498">
          <use
             xlink:href="#symbol7671"
             x="163.82899"
             y="93.045998"
             id="use9782"
             width="100%"
             height="100%" />
        </g>
        <g
           style="fill:#000000;fill-opacity:1"
           id="g9161">
          <use
             xlink:href="#symbol1756"
             x="166.59599"
             y="93.045998"
             id="use2313"
             width="100%"
             height="100%" />
        </g>
        <g
           style="fill:#000000;fill-opacity:1"
           id="g865">
          <use
             xlink:href="#symbol3980"
             x="174.472"
             y="94.540001"
             id="use3129"
             width="100%"
             height="100%" />
        </g>
        <g
           style="fill:#000000;fill-opacity:1"
           id="g2984">
          <use
             xlink:href="#symbol7671"
             x="182.02901"
             y="93.045998"
             id="use4802"
             width="100%"
             height="100%" />
        </g>
      </g>
    </g>
    <g
       inkscape:label=""
       transform="translate(70.766989,26.05026)"
       id="g2548">
      <g
         id="g6029">
        <g
           style="fill:#000000;fill-opacity:1"
           id="g3360">
          <use
             xlink:href="#symbol9506"
             x="91.925003"
             y="85.547997"
             id="use783"
             width="100%"
             height="100%" />
        </g>
        <g
           style="fill:#000000;fill-opacity:1"
           id="g7713">
          <use
             xlink:href="#symbol2262"
             x="99.331001"
             y="85.547997"
             id="use6975"
             width="100%"
             height="100%" />
        </g>
        <g
           style="fill:#000000;fill-opacity:1"
           id="g2823">
          <use
             xlink:href="#symbol5975"
             x="111.043"
             y="78.807999"
             id="use2248"
             width="100%"
             height="100%" />
        </g>
        <g
           style="fill:#000000;fill-opacity:1"
           id="g9858">
          <use
             xlink:href="#symbol1671"
             x="116.865"
             y="80.302002"
             id="use7082"
             width="100%"
             height="100%" />
        </g>
        <g
           style="fill:#000000;fill-opacity:1"
           id="g2998">
          <use
             xlink:href="#symbol541"
             x="126.635"
             y="78.807999"
             id="use5505"
             width="100%"
             height="100%" />
        </g>
        <g
           style="fill:#000000;fill-opacity:1"
           id="g7519">
          <use
             xlink:href="#symbol5975"
             x="136.59801"
             y="78.807999"
             id="use2741"
             width="100%"
             height="100%" />
        </g>
        <g
           style="fill:#000000;fill-opacity:1"
           id="g6312">
          <use
             xlink:href="#symbol9502"
             x="142.42"
             y="80.302002"
             id="use972"
             width="100%"
             height="100%" />
        </g>
        <path
           style="fill:none;stroke:#000000;stroke-width:0.398;stroke-linecap:butt;stroke-linejoin:miter;stroke-miterlimit:10;stroke-opacity:1"
           d="M -3.125e-5,-0.00159375 H 38.078094"
           transform="matrix(1,0,0,-1,111.043,83.057)"
           id="path8185" />
        <g
           style="fill:#000000;fill-opacity:1"
           id="g5995">
          <use
             xlink:href="#symbol5975"
             x="123.393"
             y="92.382004"
             id="use8323"
             width="100%"
             height="100%" />
        </g>
        <g
           style="fill:#000000;fill-opacity:1"
           id="g4051">
          <use
             xlink:href="#symbol1671"
             x="129.215"
             y="93.875999"
             id="use6021"
             width="100%"
             height="100%" />
        </g>
      </g>
    </g>
  </g>
</svg>
