<?xml version="1.0" encoding="UTF-8" standalone="no"?>
<svg
   xmlns:dc="http://purl.org/dc/elements/1.1/"
   xmlns:cc="http://creativecommons.org/ns#"
   xmlns:rdf="http://www.w3.org/1999/02/22-rdf-syntax-ns#"
   xmlns:svg="http://www.w3.org/2000/svg"
   xmlns="http://www.w3.org/2000/svg"
   xmlns:xlink="http://www.w3.org/1999/xlink"
   xmlns:sodipodi="http://sodipodi.sourceforge.net/DTD/sodipodi-0.dtd"
   xmlns:inkscape="http://www.inkscape.org/namespaces/inkscape"
   width="261.84445"
   height="261.84445"
   viewBox="0 0 69.279674 69.27968"
   version="1.1"
   id="svg8"
   sodipodi:docname="a1.svg"
   inkscape:version="1.0.2 (e86c870879, 2021-01-15)">
  <defs
     id="defs2">
    <g
       id="g5195">
      <symbol
         overflow="visible"
         id="symbol657">
        <path
           style="stroke:none"
           d=""
           id="path1203" />
      </symbol>
      <symbol
         overflow="visible"
         id="symbol8568">
        <path
           style="stroke:none"
           d="M 3.71875,-3.765625 C 3.53125,-4.140625 3.25,-4.40625 2.796875,-4.40625 c -1.15625,0 -2.390625,1.46875 -2.390625,2.921875 0,0.9375 0.546875,1.59375 1.3125,1.59375 0.203125,0 0.703125,-0.046875 1.296875,-0.75 0.078125,0.421875 0.4375,0.75 0.90625,0.75 0.359375,0 0.578125,-0.234375 0.75,-0.546875 0.15625,-0.359375 0.296875,-0.96875 0.296875,-0.984375 0,-0.109375 -0.09375,-0.109375 -0.125,-0.109375 -0.09375,0 -0.109375,0.046875 -0.140625,0.1875 -0.171875,0.640625 -0.34375,1.234375 -0.75,1.234375 -0.28125,0 -0.296875,-0.265625 -0.296875,-0.453125 0,-0.21875 0.015625,-0.3125 0.125,-0.75 C 3.890625,-1.71875 3.90625,-1.828125 4,-2.203125 L 4.359375,-3.59375 c 0.0625,-0.28125 0.0625,-0.296875 0.0625,-0.34375 0,-0.171875 -0.109375,-0.265625 -0.28125,-0.265625 -0.25,0 -0.390625,0.21875 -0.421875,0.4375 z M 3.078125,-1.1875 C 3.015625,-1 3.015625,-0.984375 2.875,-0.8125 2.4375,-0.265625 2.03125,-0.109375 1.75,-0.109375 c -0.5,0 -0.640625,-0.546875 -0.640625,-0.9375 0,-0.5 0.3125,-1.71875 0.546875,-2.1875 0.3125,-0.578125 0.75,-0.953125 1.15625,-0.953125 0.640625,0 0.78125,0.8125 0.78125,0.875 0,0.0625 -0.015625,0.125 -0.03125,0.171875 z m 0,0"
           id="path1322" />
      </symbol>
    </g>
    <g
       id="g2354">
      <symbol
         overflow="visible"
         id="symbol9675">
        <path
           style="stroke:none"
           d=""
           id="path8064" />
      </symbol>
      <symbol
         overflow="visible"
         id="symbol5154">
        <path
           style="stroke:none"
           d="m 2.375,-6.8125 c 0,0 0,-0.109375 -0.125,-0.109375 -0.21875,0 -0.953125,0.078125 -1.21875,0.109375 -0.078125,0 -0.1875,0.015625 -0.1875,0.1875 0,0.125 0.09375,0.125 0.25,0.125 0.46875,0 0.484375,0.0625 0.484375,0.171875 0,0.0625 -0.078125,0.40625 -0.125,0.609375 l -0.828125,3.25 c -0.109375,0.5 -0.15625,0.671875 -0.15625,1.015625 0,0.9375 0.53125,1.5625 1.265625,1.5625 1.171875,0 2.40625,-1.484375 2.40625,-2.921875 0,-0.90625 -0.53125,-1.59375 -1.328125,-1.59375 -0.453125,0 -0.875,0.296875 -1.171875,0.59375 z M 1.453125,-3.046875 C 1.5,-3.265625 1.5,-3.28125 1.59375,-3.390625 2.078125,-4.03125 2.53125,-4.1875 2.796875,-4.1875 c 0.359375,0 0.625,0.296875 0.625,0.9375 0,0.59375 -0.328125,1.734375 -0.515625,2.109375 -0.328125,0.671875 -0.78125,1.03125 -1.171875,1.03125 -0.34375,0 -0.671875,-0.265625 -0.671875,-1 0,-0.203125 0,-0.390625 0.15625,-1.015625 z m 0,0"
           id="path3983" />
      </symbol>
    </g>
    <g
       id="g85">
      <symbol
         overflow="visible"
         id="symbol521">
        <path
           style="stroke:none"
           d=""
           id="path6113" />
      </symbol>
      <symbol
         overflow="visible"
         id="symbol5329">
        <path
           style="stroke:none"
           d="m 0.328125,1.71875 c -0.03125,0.125 -0.03125,0.140625 -0.03125,0.171875 0,0.140625 0.109375,0.265625 0.28125,0.265625 0.203125,0 0.328125,-0.1875 0.34375,-0.21875 0.0625,-0.078125 0.375,-1.421875 0.640625,-2.5 0.203125,0.40625 0.515625,0.671875 0.984375,0.671875 C 3.71875,0.109375 5,-1.296875 5,-2.78125 c 0,-1.0625 -0.65625,-1.625 -1.375,-1.625 -0.96875,0 -2.015625,1 -2.3125,2.21875 z m 2.21875,-1.828125 C 1.84375,-0.109375 1.6875,-0.90625 1.6875,-1 c 0,-0.03125 0.046875,-0.234375 0.078125,-0.359375 0.28125,-1.125 0.375,-1.484375 0.59375,-1.875 0.4375,-0.734375 0.9375,-0.953125 1.234375,-0.953125 0.375,0 0.6875,0.296875 0.6875,0.984375 0,0.546875 -0.28125,1.65625 -0.546875,2.140625 -0.328125,0.640625 -0.8125,0.953125 -1.1875,0.953125 z m 0,0"
           id="path7010" />
      </symbol>
    </g>
  </defs>
  <sodipodi:namedview
     id="base"
     pagecolor="#ffffff"
     bordercolor="#666666"
     borderopacity="1.0"
     inkscape:pageopacity="0.0"
     inkscape:pageshadow="2"
     inkscape:zoom="2.3274786"
     inkscape:cx="183.56711"
     inkscape:cy="118.66997"
     inkscape:document-units="px"
     inkscape:current-layer="layer1"
     inkscape:document-rotation="0"
     showgrid="false"
     units="px"
     inkscape:showpageshadow="false"
     borderlayer="true"
     showguides="false"
     inkscape:guide-bbox="true"
     inkscape:window-width="1920"
     inkscape:window-height="1050"
     inkscape:window-x="1920"
     inkscape:window-y="18"
     inkscape:window-maximized="0">
    <inkscape:grid
       type="xygrid"
       id="grid10"
       spacingx="2.1166666"
       spacingy="2.1166666"
       empspacing="4"
       originx="-33.093491"
       originy="-33.093494" />
    <sodipodi:guide
       position="-33.093493,102.37317"
       orientation="0,-1"
       id="guide12" />
    <sodipodi:guide
       position="-33.093493,102.37318"
       orientation="1,0"
       id="guide14" />
    <sodipodi:guide
       position="102.37317,-33.093492"
       orientation="1,0"
       id="guide16" />
    <sodipodi:guide
       position="102.37317,-33.093492"
       orientation="0,-1"
       id="guide18" />
    <sodipodi:guide
       position="34.639838,34.639841"
       orientation="1,0"
       id="guide22" />
    <sodipodi:guide
       position="34.639834,34.639841"
       orientation="0,-1"
       id="guide24" />
  </sodipodi:namedview>
  <metadata
     id="metadata5">
    <rdf:RDF>
      <cc:Work
         rdf:about="">
        <dc:format>image/svg+xml</dc:format>
        <dc:type
           rdf:resource="http://purl.org/dc/dcmitype/StillImage" />
        <dc:title />
      </cc:Work>
    </rdf:RDF>
  </metadata>
  <g
     inkscape:label="Capa 1"
     inkscape:groupmode="layer"
     id="layer1"
     transform="translate(-33.093493,-33.093493)">
    <path
       id="path26-3"
       style="fill:#cccccc;stroke:none;stroke-width:0.79375;stroke-linecap:round;stroke-miterlimit:4;stroke-dasharray:none"
       d="M 67.733332,33.490368 A 34.242963,34.242963 0 0 0 33.49037,67.733331 34.242963,34.242963 0 0 0 67.733332,101.9763 34.242963,34.242963 0 0 0 101.9763,67.733331 34.242963,34.242963 0 0 0 67.733332,33.490368 Z m 0,17.121482 A 17.12148,17.12148 0 0 1 84.854813,67.733331 17.12148,17.12148 0 0 1 67.733332,84.854814 17.12148,17.12148 0 0 1 50.611851,67.733331 17.12148,17.12148 0 0 1 67.733332,50.61185 Z" />
    <circle
       style="fill:none;stroke:#000000;stroke-width:0.79375;stroke-linecap:round;stroke-miterlimit:4;stroke-dasharray:none"
       id="path26"
       cx="67.73333"
       cy="67.73333"
       r="34.242962" />
    <circle
       style="fill:none;stroke:#000000;stroke-width:0.79375;stroke-linecap:round;stroke-miterlimit:4;stroke-dasharray:none"
       id="path28"
       cx="67.73333"
       cy="67.73333"
       r="17.121481" />
    <g
       inkscape:label=""
       transform="translate(-18.403228,-6.8259215)"
       id="g50"
       style="fill:#000000">
      <g
         id="g7819"
         style="fill:#000000">
        <g
           style="fill:#000000;fill-opacity:1"
           id="g1392">
          <use
             xlink:href="#symbol8568"
             x="91.925003"
             y="81.962997"
             id="use6642"
             width="100%"
             height="100%"
             style="fill:#000000" />
        </g>
      </g>
    </g>
    <g
       inkscape:label=""
       transform="translate(-5.391211,-22.567719)"
       id="g99"
       style="fill:#000000">
      <g
         id="g4447"
         style="fill:#000000">
        <g
           style="fill:#000000;fill-opacity:1"
           id="g7248">
          <use
             xlink:href="#symbol5154"
             x="91.925003"
             y="81.962997"
             id="use6343"
             width="100%"
             height="100%"
             style="fill:#000000" />
        </g>
      </g>
    </g>
    <g
       inkscape:label=""
       transform="translate(-52.580713,-18.037767)"
       id="g157"
       style="fill:#000000">
      <g
         id="g1351"
         style="fill:#000000">
        <g
           style="fill:#000000;fill-opacity:1"
           id="g8040">
          <use
             xlink:href="#symbol5329"
             x="91.925003"
             y="81.962997"
             id="use7940"
             width="100%"
             height="100%"
             style="fill:#000000" />
        </g>
      </g>
    </g>
    <path
       style="fill:none;stroke:#000000;stroke-width:0.52916663;stroke-linecap:round;stroke-linejoin:miter;stroke-miterlimit:4;stroke-dasharray:0.52916663,1.05833326;stroke-opacity:1;stroke-dashoffset:0"
       d="m 84.854811,67.73333 -17.121481,1e-6 24.234051,-24.193101"
       id="path202"
       sodipodi:nodetypes="ccc" />
  </g>
</svg>
