<?xml version="1.0" encoding="UTF-8" standalone="no"?>
<!-- Created with Inkscape (http://www.inkscape.org/) -->

<svg
   width="65.315613mm"
   height="34.334156mm"
   viewBox="0 0 65.315613 34.334156"
   version="1.1"
   id="svg1"
   inkscape:version="1.3.2 (091e20ef0f, 2023-11-25)"
   sodipodi:docname="dibujo.svg"
   xmlns:inkscape="http://www.inkscape.org/namespaces/inkscape"
   xmlns:sodipodi="http://sodipodi.sourceforge.net/DTD/sodipodi-0.dtd"
   xmlns="http://www.w3.org/2000/svg"
   xmlns:svg="http://www.w3.org/2000/svg">
  <sodipodi:namedview
     id="namedview1"
     pagecolor="#ffffff"
     bordercolor="#000000"
     borderopacity="0.25"
     inkscape:showpageshadow="2"
     inkscape:pageopacity="0.0"
     inkscape:pagecheckerboard="0"
     inkscape:deskcolor="#d1d1d1"
     inkscape:document-units="mm"
     inkscape:zoom="3.3351929"
     inkscape:cx="97.595556"
     inkscape:cy="52.470729"
     inkscape:window-width="1920"
     inkscape:window-height="1046"
     inkscape:window-x="1920"
     inkscape:window-y="18"
     inkscape:window-maximized="1"
     inkscape:current-layer="layer1"
     showgrid="false" />
  <defs
     id="defs1">
    <clipPath
       clipPathUnits="userSpaceOnUse"
       id="clipPath27">
      <path
         d="M 56.700001,120.77461 H 245.85001 v 100.45 H 56.700001 Z"
         transform="matrix(33.920169,0,0,33.927324,-1923.2736,-4097.5595)"
         clip-rule="evenodd"
         id="path27" />
    </clipPath>
    <clipPath
       clipPathUnits="userSpaceOnUse"
       id="clipPath29">
      <path
         d="M 56.700001,120.77461 H 245.85001 v 100.45 H 56.700001 Z"
         transform="matrix(33.920169,0,0,33.927324,-1923.2736,-4097.5595)"
         clip-rule="evenodd"
         id="path29" />
    </clipPath>
    <clipPath
       clipPathUnits="userSpaceOnUse"
       id="clipPath31">
      <path
         d="M 56.700001,120.77461 H 245.85001 v 100.45 H 56.700001 Z"
         transform="matrix(33.920169,0,0,33.927324,-1923.2736,-4097.5595)"
         clip-rule="evenodd"
         id="path31" />
    </clipPath>
    <clipPath
       clipPathUnits="userSpaceOnUse"
       id="clipPath33">
      <path
         d="M 56.700001,120.77461 H 245.85001 v 100.45 H 56.700001 Z"
         transform="matrix(33.920169,0,0,33.927324,-1923.2736,-4097.5595)"
         clip-rule="evenodd"
         id="path33" />
    </clipPath>
    <clipPath
       clipPathUnits="userSpaceOnUse"
       id="clipPath35">
      <path
         d="M 56.700001,120.77461 H 245.85001 v 100.45 H 56.700001 Z"
         transform="matrix(2.1200103,0,0,2.1204578,-130.20459,-375.09745)"
         clip-rule="evenodd"
         id="path35" />
    </clipPath>
    <clipPath
       clipPathUnits="userSpaceOnUse"
       id="clipPath37">
      <path
         d="M 56.700001,120.77461 H 245.85001 v 100.45 H 56.700001 Z"
         transform="matrix(2.1200103,0,0,2.1204578,-149.20459,-375.09745)"
         clip-rule="evenodd"
         id="path37" />
    </clipPath>
    <clipPath
       clipPathUnits="userSpaceOnUse"
       id="clipPath39">
      <path
         d="M 56.700001,120.77461 H 245.85001 v 100.45 H 56.700001 Z"
         transform="matrix(2.1200103,0,0,2.1204578,-152.20459,-375.09745)"
         clip-rule="evenodd"
         id="path39" />
    </clipPath>
    <clipPath
       clipPathUnits="userSpaceOnUse"
       id="clipPath41">
      <path
         d="M 56.700001,120.77461 H 245.85001 v 100.45 H 56.700001 Z"
         transform="matrix(2.1200103,0,0,2.1204578,-161.20459,-375.09745)"
         clip-rule="evenodd"
         id="path41" />
    </clipPath>
    <clipPath
       clipPathUnits="userSpaceOnUse"
       id="clipPath43">
      <path
         d="M 56.700001,120.77461 H 245.85001 v 100.45 H 56.700001 Z"
         transform="matrix(33.920169,0,0,33.927324,-1923.2736,-4097.5595)"
         clip-rule="evenodd"
         id="path43" />
    </clipPath>
    <clipPath
       clipPathUnits="userSpaceOnUse"
       id="clipPath45">
      <path
         d="M 56.700001,120.77461 H 245.85001 v 100.45 H 56.700001 Z"
         transform="matrix(33.920169,0,0,33.927324,-1923.2736,-4097.5595)"
         clip-rule="evenodd"
         id="path45" />
    </clipPath>
    <clipPath
       clipPathUnits="userSpaceOnUse"
       id="clipPath47">
      <path
         d="M 56.700001,120.77461 H 245.85001 v 100.45 H 56.700001 Z"
         transform="matrix(33.920169,0,0,33.927324,-1923.2736,-4097.5595)"
         clip-rule="evenodd"
         id="path47" />
    </clipPath>
    <clipPath
       clipPathUnits="userSpaceOnUse"
       id="clipPath49">
      <path
         d="M 56.700001,120.77461 H 245.85001 v 100.45 H 56.700001 Z"
         transform="matrix(33.920169,0,0,33.927324,-1923.2736,-4097.5595)"
         clip-rule="evenodd"
         id="path49" />
    </clipPath>
    <clipPath
       clipPathUnits="userSpaceOnUse"
       id="clipPath51">
      <path
         d="M 56.700001,120.77461 H 245.85001 v 100.45 H 56.700001 Z"
         transform="matrix(33.920169,0,0,33.927324,-1923.2736,-4097.5595)"
         clip-rule="evenodd"
         id="path51" />
    </clipPath>
    <clipPath
       clipPathUnits="userSpaceOnUse"
       id="clipPath53">
      <path
         d="M 56.700001,120.77461 H 245.85001 v 100.45 H 56.700001 Z"
         transform="matrix(33.920169,0,0,33.927324,-1923.2736,-4097.5595)"
         clip-rule="evenodd"
         id="path53" />
    </clipPath>
    <clipPath
       clipPathUnits="userSpaceOnUse"
       id="clipPath55">
      <path
         d="M 56.700001,120.77461 H 245.85001 v 100.45 H 56.700001 Z"
         transform="matrix(2.1200103,0,0,2.1204578,-239.20458,-308.09747)"
         clip-rule="evenodd"
         id="path55" />
    </clipPath>
    <clipPath
       clipPathUnits="userSpaceOnUse"
       id="clipPath57">
      <path
         d="M 56.700001,120.77461 H 245.85001 v 100.45 H 56.700001 Z"
         transform="matrix(2.1200103,0,0,2.1204578,-258.20459,-308.09747)"
         clip-rule="evenodd"
         id="path57" />
    </clipPath>
    <clipPath
       clipPathUnits="userSpaceOnUse"
       id="clipPath59">
      <path
         d="M 56.700001,120.77461 H 245.85001 v 100.45 H 56.700001 Z"
         transform="matrix(2.1200103,0,0,2.1204578,-272.20459,-308.09747)"
         clip-rule="evenodd"
         id="path59" />
    </clipPath>
    <clipPath
       clipPathUnits="userSpaceOnUse"
       id="clipPath61">
      <path
         d="M 56.700001,120.77461 H 245.85001 v 100.45 H 56.700001 Z"
         transform="matrix(33.920169,0,0,33.927324,-1923.2736,-4097.5595)"
         clip-rule="evenodd"
         id="path61" />
    </clipPath>
    <clipPath
       clipPathUnits="userSpaceOnUse"
       id="clipPath63">
      <path
         d="M 56.700001,120.77461 H 245.85001 v 100.45 H 56.700001 Z"
         transform="matrix(33.920169,0,0,33.927324,-1923.2736,-4097.5595)"
         clip-rule="evenodd"
         id="path63" />
    </clipPath>
    <clipPath
       clipPathUnits="userSpaceOnUse"
       id="clipPath65">
      <path
         d="M 56.700001,120.77461 H 245.85001 v 100.45 H 56.700001 Z"
         transform="matrix(2.1200103,0,0,2.1204578,-344.20459,-355.09748)"
         clip-rule="evenodd"
         id="path65" />
    </clipPath>
    <clipPath
       clipPathUnits="userSpaceOnUse"
       id="clipPath67">
      <path
         d="M 56.700001,120.77461 H 245.85001 v 100.45 H 56.700001 Z"
         transform="matrix(2.1200103,0,0,2.1204578,-353.20458,-357.09748)"
         clip-rule="evenodd"
         id="path67" />
    </clipPath>
    <clipPath
       clipPathUnits="userSpaceOnUse"
       id="clipPath69">
      <path
         d="M 56.700001,120.77461 H 245.85001 v 100.45 H 56.700001 Z"
         transform="matrix(2.1200103,0,0,2.1204578,-362.20459,-355.09748)"
         clip-rule="evenodd"
         id="path69" />
    </clipPath>
    <clipPath
       clipPathUnits="userSpaceOnUse"
       id="clipPath71">
      <path
         d="M 56.700001,120.77461 H 245.85001 v 100.45 H 56.700001 Z"
         transform="matrix(2.1200103,0,0,2.1204578,-365.20457,-355.09748)"
         clip-rule="evenodd"
         id="path71" />
    </clipPath>
    <clipPath
       clipPathUnits="userSpaceOnUse"
       id="clipPath73">
      <path
         d="M 56.700001,120.77461 H 245.85001 v 100.45 H 56.700001 Z"
         transform="matrix(2.1200103,0,0,2.1204578,-374.20459,-355.09748)"
         clip-rule="evenodd"
         id="path73" />
    </clipPath>
    <clipPath
       clipPathUnits="userSpaceOnUse"
       id="clipPath75">
      <path
         d="M 56.700001,120.77461 H 245.85001 v 100.45 H 56.700001 Z"
         transform="matrix(2.1200103,0,0,2.1204578,-251.20459,-271.09747)"
         clip-rule="evenodd"
         id="path75" />
    </clipPath>
    <clipPath
       clipPathUnits="userSpaceOnUse"
       id="clipPath77">
      <path
         d="M 56.700001,120.77461 H 245.85001 v 100.45 H 56.700001 Z"
         transform="matrix(2.1200103,0,0,2.1204578,-260.20458,-272.09749)"
         clip-rule="evenodd"
         id="path77" />
    </clipPath>
    <clipPath
       clipPathUnits="userSpaceOnUse"
       id="clipPath79">
      <path
         d="M 56.700001,120.77461 H 245.85001 v 100.45 H 56.700001 Z"
         transform="matrix(2.1200103,0,0,2.1204578,-222.20459,-282.09747)"
         clip-rule="evenodd"
         id="path79" />
    </clipPath>
    <clipPath
       clipPathUnits="userSpaceOnUse"
       id="clipPath81">
      <path
         d="M 56.700001,120.77461 H 245.85001 v 100.45 H 56.700001 Z"
         transform="matrix(2.1200103,0,0,2.1204578,-498.20457,-373.09749)"
         clip-rule="evenodd"
         id="path81" />
    </clipPath>
    <clipPath
       clipPathUnits="userSpaceOnUse"
       id="clipPath83">
      <path
         d="M 56.700001,120.77461 H 245.85001 v 100.45 H 56.700001 Z"
         transform="matrix(2.1200103,0,0,2.1204578,-507.20459,-375.09745)"
         clip-rule="evenodd"
         id="path83" />
    </clipPath>
    <clipPath
       clipPathUnits="userSpaceOnUse"
       id="clipPath85">
      <path
         d="M 56.700001,120.77461 H 245.85001 v 100.45 H 56.700001 Z"
         transform="matrix(2.1200103,0,0,2.1204578,-488.20458,-405.09746)"
         clip-rule="evenodd"
         id="path85" />
    </clipPath>
    <clipPath
       clipPathUnits="userSpaceOnUse"
       id="clipPath87">
      <path
         d="M 56.700001,120.77461 H 245.85001 v 100.45 H 56.700001 Z"
         transform="matrix(2.1200103,0,0,2.1204578,-417.2046,-370.09747)"
         clip-rule="evenodd"
         id="path87" />
    </clipPath>
    <clipPath
       clipPathUnits="userSpaceOnUse"
       id="clipPath89">
      <path
         d="M 56.700001,120.77461 H 245.85001 v 100.45 H 56.700001 Z"
         transform="matrix(2.1200103,0,0,2.1204578,-429.20459,-370.09747)"
         clip-rule="evenodd"
         id="path89" />
    </clipPath>
    <clipPath
       clipPathUnits="userSpaceOnUse"
       id="clipPath91">
      <path
         d="M 56.700001,120.77461 H 245.85001 v 100.45 H 56.700001 Z"
         transform="matrix(2.1200103,0,0,2.1204578,-432.20457,-370.09747)"
         clip-rule="evenodd"
         id="path91" />
    </clipPath>
    <clipPath
       clipPathUnits="userSpaceOnUse"
       id="clipPath93">
      <path
         d="M 56.700001,120.77461 H 245.85001 v 100.45 H 56.700001 Z"
         transform="matrix(2.1200103,0,0,2.1204578,-441.20457,-370.09747)"
         clip-rule="evenodd"
         id="path93" />
    </clipPath>
    <clipPath
       clipPathUnits="userSpaceOnUse"
       id="clipPath95">
      <path
         d="M 56.700001,120.77461 H 245.85001 v 100.45 H 56.700001 Z"
         transform="matrix(33.920169,0,0,33.927324,-1923.2736,-4097.5595)"
         clip-rule="evenodd"
         id="path95" />
    </clipPath>
    <clipPath
       clipPathUnits="userSpaceOnUse"
       id="clipPath97">
      <path
         d="M 56.700001,120.77461 H 245.85001 v 100.45 H 56.700001 Z"
         transform="matrix(33.920169,0,0,33.927324,-1923.2736,-4097.5595)"
         clip-rule="evenodd"
         id="path97" />
    </clipPath>
    <clipPath
       clipPathUnits="userSpaceOnUse"
       id="clipPath99">
      <path
         d="M 56.700001,120.77461 H 245.85001 v 100.45 H 56.700001 Z"
         transform="matrix(33.920169,0,0,33.927324,-1923.2736,-4097.5595)"
         clip-rule="evenodd"
         id="path99" />
    </clipPath>
    <clipPath
       clipPathUnits="userSpaceOnUse"
       id="clipPath101">
      <path
         d="M 56.700001,120.77461 H 245.85001 v 100.45 H 56.700001 Z"
         transform="matrix(2.1200103,0,0,2.1204578,-381.2046,-445.09747)"
         clip-rule="evenodd"
         id="path101" />
    </clipPath>
    <clipPath
       clipPathUnits="userSpaceOnUse"
       id="clipPath103">
      <path
         d="M 56.700001,120.77461 H 245.85001 v 100.45 H 56.700001 Z"
         transform="matrix(2.1200103,0,0,2.1204578,-400.20459,-445.09747)"
         clip-rule="evenodd"
         id="path103" />
    </clipPath>
    <clipPath
       clipPathUnits="userSpaceOnUse"
       id="clipPath105">
      <path
         d="M 56.700001,120.77461 H 245.85001 v 100.45 H 56.700001 Z"
         transform="matrix(2.1200103,0,0,2.1204578,-414.20459,-445.09747)"
         clip-rule="evenodd"
         id="path105" />
    </clipPath>
    <clipPath
       clipPathUnits="userSpaceOnUse"
       id="clipPath107">
      <path
         d="M 56.700001,120.77461 H 245.85001 v 100.45 H 56.700001 Z"
         transform="matrix(33.920169,0,0,33.927324,-1923.2736,-4097.5595)"
         clip-rule="evenodd"
         id="path107" />
    </clipPath>
    <clipPath
       clipPathUnits="userSpaceOnUse"
       id="clipPath109">
      <path
         d="M 56.700001,120.77461 H 245.85001 v 100.45 H 56.700001 Z"
         transform="matrix(33.920169,0,0,33.927324,-1923.2736,-4097.5595)"
         clip-rule="evenodd"
         id="path109" />
    </clipPath>
    <clipPath
       clipPathUnits="userSpaceOnUse"
       id="clipPath111">
      <path
         d="M 56.700001,120.77461 H 245.85001 v 100.45 H 56.700001 Z"
         transform="matrix(33.920169,0,0,33.927324,-1923.2736,-4097.5595)"
         clip-rule="evenodd"
         id="path111" />
    </clipPath>
    <clipPath
       clipPathUnits="userSpaceOnUse"
       id="clipPath113">
      <path
         d="M 56.700001,120.77461 H 245.85001 v 100.45 H 56.700001 Z"
         transform="matrix(33.920169,0,0,33.927324,-1923.2736,-4097.5595)"
         clip-rule="evenodd"
         id="path113" />
    </clipPath>
    <clipPath
       clipPathUnits="userSpaceOnUse"
       id="clipPath115">
      <path
         d="M 56.700001,120.77461 H 245.85001 v 100.45 H 56.700001 Z"
         transform="matrix(33.920169,0,0,33.927324,-1923.2736,-4097.5595)"
         clip-rule="evenodd"
         id="path115" />
    </clipPath>
    <clipPath
       clipPathUnits="userSpaceOnUse"
       id="clipPath117">
      <path
         d="M 56.700001,120.77461 H 245.85001 v 100.45 H 56.700001 Z"
         transform="matrix(33.920169,0,0,33.927324,-1923.2736,-4097.5595)"
         clip-rule="evenodd"
         id="path117" />
    </clipPath>
    <clipPath
       clipPathUnits="userSpaceOnUse"
       id="clipPath119">
      <path
         d="M 56.700001,120.77461 H 245.85001 v 100.45 H 56.700001 Z"
         transform="matrix(33.920169,0,0,33.927324,-1923.2736,-4097.5595)"
         clip-rule="evenodd"
         id="path119" />
    </clipPath>
    <clipPath
       clipPathUnits="userSpaceOnUse"
       id="clipPath121">
      <path
         d="M 56.700001,120.77461 H 245.85001 v 100.45 H 56.700001 Z"
         transform="matrix(33.920169,0,0,33.927324,-1923.2736,-4097.5595)"
         clip-rule="evenodd"
         id="path121" />
    </clipPath>
    <clipPath
       clipPathUnits="userSpaceOnUse"
       id="clipPath123">
      <path
         d="M 56.700001,120.77461 H 245.85001 v 100.45 H 56.700001 Z"
         transform="matrix(2.1200103,0,0,2.1204578,-396.2046,-308.09747)"
         clip-rule="evenodd"
         id="path123" />
    </clipPath>
    <clipPath
       clipPathUnits="userSpaceOnUse"
       id="clipPath125">
      <path
         d="M 56.700001,120.77461 H 245.85001 v 100.45 H 56.700001 Z"
         transform="matrix(2.1200103,0,0,2.1204578,-410.20457,-308.09747)"
         clip-rule="evenodd"
         id="path125" />
    </clipPath>
    <clipPath
       clipPathUnits="userSpaceOnUse"
       id="clipPath127">
      <path
         d="M 56.700001,120.77461 H 245.85001 v 100.45 H 56.700001 Z"
         transform="matrix(33.920169,0,0,33.927324,-1923.2736,-4097.5595)"
         clip-rule="evenodd"
         id="path127" />
    </clipPath>
    <clipPath
       clipPathUnits="userSpaceOnUse"
       id="clipPath129">
      <path
         d="M 56.700001,120.77461 H 245.85001 v 100.45 H 56.700001 Z"
         transform="matrix(33.920169,0,0,33.927324,-1923.2736,-4097.5595)"
         clip-rule="evenodd"
         id="path129" />
    </clipPath>
    <clipPath
       clipPathUnits="userSpaceOnUse"
       id="clipPath131">
      <path
         d="M 56.700001,120.77461 H 245.85001 v 100.45 H 56.700001 Z"
         transform="matrix(33.920169,0,0,33.927324,-1923.2736,-4097.5595)"
         clip-rule="evenodd"
         id="path131" />
    </clipPath>
    <clipPath
       clipPathUnits="userSpaceOnUse"
       id="clipPath133">
      <path
         d="M 56.700001,120.77461 H 245.85001 v 100.45 H 56.700001 Z"
         transform="matrix(33.920169,0,0,33.927324,-1923.2736,-4097.5595)"
         clip-rule="evenodd"
         id="path133" />
    </clipPath>
  </defs>
  <g
     inkscape:label="Capa 1"
     inkscape:groupmode="layer"
     id="layer1"
     transform="translate(-72.017461,-131.33342)">
    <path
       id="path26"
       d="m 779,1840 c 0,-172 140,-312 312,-312 173,0 312,140 312,312 0,172 -139,312 -312,312 -172,0 -312,-140 -312,-312"
       style="fill:#cdcdcd;fill-opacity:1;fill-rule:evenodd;stroke:#000000;stroke-width:20.194;stroke-linecap:butt;stroke-linejoin:miter;stroke-miterlimit:10;stroke-dasharray:none;stroke-opacity:1"
       transform="matrix(0.01040024,0,0,0.01039804,71.124961,131.07769)"
       clip-path="url(#clipPath27)" />
    <path
       id="path28"
       d="M 1090,1762 V 1618"
       style="fill:none;stroke:#000000;stroke-width:20.194;stroke-linecap:butt;stroke-linejoin:miter;stroke-miterlimit:10;stroke-dasharray:none;stroke-opacity:1"
       transform="matrix(0.01040024,0,0,0.01039804,71.124961,131.07769)"
       clip-path="url(#clipPath29)" />
    <path
       id="path30"
       d="m 1018,1690 h 144"
       style="fill:none;stroke:#000000;stroke-width:20.194;stroke-linecap:butt;stroke-linejoin:miter;stroke-miterlimit:10;stroke-dasharray:none;stroke-opacity:1"
       transform="matrix(0.01040024,0,0,0.01039804,71.124961,131.07769)"
       clip-path="url(#clipPath31)" />
    <path
       id="path32"
       d="m 1018,2002 h 144"
       style="fill:none;stroke:#000000;stroke-width:20.194;stroke-linecap:butt;stroke-linejoin:miter;stroke-miterlimit:10;stroke-dasharray:none;stroke-opacity:1"
       transform="matrix(0.01040024,0,0,0.01039804,71.124961,131.07769)"
       clip-path="url(#clipPath33)" />
    <path
       id="path42"
       d="M 1091,1528 V 520"
       style="fill:none;stroke:#000000;stroke-width:20.194;stroke-linecap:butt;stroke-linejoin:miter;stroke-miterlimit:10;stroke-dasharray:none;stroke-opacity:1"
       transform="matrix(0.01040024,0,0,0.01039804,71.124961,131.07769)"
       clip-path="url(#clipPath43)" />
    <path
       id="path44"
       d="M 1091,3208 H 3314"
       style="fill:none;stroke:#000000;stroke-width:20.194;stroke-linecap:butt;stroke-linejoin:miter;stroke-miterlimit:10;stroke-dasharray:none;stroke-opacity:1"
       transform="matrix(0.01040024,0,0,0.01039804,71.124961,131.07769)"
       clip-path="url(#clipPath45)" />
    <path
       id="path46"
       d="m 3274,3208 c 0,22 18,40 40,40 22,0 40,-18 40,-40 0,-22 -18,-40 -40,-40 -22,0 -40,18 -40,40"
       style="fill:#000000;fill-opacity:1;fill-rule:evenodd;stroke:none"
       transform="matrix(0.01040024,0,0,0.01039804,71.124961,131.07769)"
       clip-path="url(#clipPath47)" />
    <path
       id="path48"
       d="M 1915,520 H 1091"
       style="fill:none;stroke:#000000;stroke-width:20.194;stroke-linecap:butt;stroke-linejoin:miter;stroke-miterlimit:10;stroke-dasharray:none;stroke-opacity:1"
       transform="matrix(0.01040024,0,0,0.01039804,71.124961,131.07769)"
       clip-path="url(#clipPath49)" />
    <path
       id="path50"
       d="M 3314,520 H 2491"
       style="fill:none;stroke:#000000;stroke-width:20.194;stroke-linecap:butt;stroke-linejoin:miter;stroke-miterlimit:10;stroke-dasharray:none;stroke-opacity:1"
       transform="matrix(0.01040024,0,0,0.01039804,71.124961,131.07769)"
       clip-path="url(#clipPath51)" />
    <path
       id="path52"
       d="m 2491,520 -48,96 -96,-192 -96,192 -96,-192 -96,192 -96,-192 -48,96"
       style="fill:none;stroke:#000000;stroke-width:20.194;stroke-linecap:butt;stroke-linejoin:miter;stroke-miterlimit:10;stroke-dasharray:none;stroke-opacity:1"
       transform="matrix(0.01040024,0,0,0.01039804,71.124961,131.07769)"
       clip-path="url(#clipPath53)" />
    <path
       id="path60"
       d="M 1091,3208 V 2152"
       style="fill:none;stroke:#000000;stroke-width:20.194;stroke-linecap:butt;stroke-linejoin:miter;stroke-miterlimit:10;stroke-dasharray:none;stroke-opacity:1"
       transform="matrix(0.01040024,0,0,0.01039804,71.124961,131.07769)"
       clip-path="url(#clipPath61)" />
    <path
       id="path62"
       d="M 5618,1528 V 520"
       style="fill:none;stroke:#000000;stroke-width:20.194;stroke-linecap:butt;stroke-linejoin:miter;stroke-miterlimit:10;stroke-dasharray:none;stroke-opacity:1"
       transform="matrix(0.01040024,0,0,0.01039804,71.124961,131.07769)"
       clip-path="url(#clipPath63)" />
    <path
       id="path78"
       d="M 3.9988605,-1.8615815 V -4.99257 H 0.8933766 v -1.3170031 h 3.1054839 v -3.1061394 h 1.3415691 v 3.1061394 H 8.4459135 V -4.99257 H 5.3404296 v 3.1309885 z m 0,0"
       style="fill:#000000;fill-opacity:1;fill-rule:nonzero;stroke:none"
       aria-label="+            "
       transform="matrix(0.1664038,0,0,0.16636868,88.098148,135.40327)"
       clip-path="url(#clipPath79)" />
    <path
       id="path84"
       d="M 3.2568712,-1.5167668 V -4.0513765 H 0.72279633 v -1.068512 H 3.2568712 v -2.5346097 h 1.0682865 v 2.5346097 h 2.5340748 v 1.068512 H 4.3251577 v 2.5346097 z m 0,0"
       style="fill:#000000;fill-opacity:1;fill-rule:nonzero;stroke:none"
       aria-label="+"
       transform="matrix(0.1664038,0,0,0.16636868,132.36156,155.86662)"
       clip-path="url(#clipPath85)" />
    <path
       id="path94"
       d="m 4754,3208 h 864"
       style="fill:none;stroke:#000000;stroke-width:20.194;stroke-linecap:butt;stroke-linejoin:miter;stroke-miterlimit:10;stroke-dasharray:none;stroke-opacity:1"
       transform="matrix(0.01040024,0,0,0.01039804,71.124961,131.07769)"
       clip-path="url(#clipPath95)" />
    <path
       id="path96"
       d="m 3314,3208 h 864"
       style="fill:none;stroke:#000000;stroke-width:20.194;stroke-linecap:butt;stroke-linejoin:miter;stroke-miterlimit:10;stroke-dasharray:none;stroke-opacity:1"
       transform="matrix(0.01040024,0,0,0.01039804,71.124961,131.07769)"
       clip-path="url(#clipPath97)" />
    <path
       id="path98"
       d="m 4178,3208 48,-96 96,192 96,-192 96,192 96,-192 96,192 48,-96"
       style="fill:none;stroke:#000000;stroke-width:20.194;stroke-linecap:butt;stroke-linejoin:miter;stroke-miterlimit:10;stroke-dasharray:none;stroke-opacity:1"
       transform="matrix(0.01040024,0,0,0.01039804,71.124961,131.07769)"
       clip-path="url(#clipPath99)" />
    <path
       id="path106"
       d="m 3314,2176 360,-360 -360,-360 -360,360 z"
       style="fill:#cdcdcd;fill-opacity:1;fill-rule:evenodd;stroke:#000000;stroke-width:20.194;stroke-linecap:butt;stroke-linejoin:miter;stroke-miterlimit:10;stroke-dasharray:none;stroke-opacity:1"
       transform="matrix(0.01040024,0,0,0.01039804,71.124961,131.07769)"
       clip-path="url(#clipPath107)" />
    <path
       id="path108"
       d="M 3311,2008 V 1763"
       style="fill:none;stroke:#000000;stroke-width:20.194;stroke-linecap:butt;stroke-linejoin:miter;stroke-miterlimit:10;stroke-dasharray:none;stroke-opacity:1"
       transform="matrix(0.01040024,0,0,0.01039804,71.124961,131.07769)"
       clip-path="url(#clipPath109)" />
    <path
       id="path110"
       d="m 3232,1783 79,-159 80,159 z"
       style="fill:#000000;fill-opacity:1;fill-rule:evenodd;stroke:none"
       transform="matrix(0.01040024,0,0,0.01039804,71.124961,131.07769)"
       clip-path="url(#clipPath111)" />
    <path
       id="path112"
       d="M 3314,3208 V 2176"
       style="fill:none;stroke:#000000;stroke-width:20.194;stroke-linecap:butt;stroke-linejoin:miter;stroke-miterlimit:10;stroke-dasharray:none;stroke-opacity:1"
       transform="matrix(0.01040024,0,0,0.01039804,71.124961,131.07769)"
       clip-path="url(#clipPath113)" />
    <path
       id="path114"
       d="M 3314,1456 V 520"
       style="fill:none;stroke:#000000;stroke-width:20.194;stroke-linecap:butt;stroke-linejoin:miter;stroke-miterlimit:10;stroke-dasharray:none;stroke-opacity:1"
       transform="matrix(0.01040024,0,0,0.01039804,71.124961,131.07769)"
       clip-path="url(#clipPath115)" />
    <path
       id="path116"
       d="M 4178,520 H 3314"
       style="fill:none;stroke:#000000;stroke-width:20.194;stroke-linecap:butt;stroke-linejoin:miter;stroke-miterlimit:10;stroke-dasharray:none;stroke-opacity:1"
       transform="matrix(0.01040024,0,0,0.01039804,71.124961,131.07769)"
       clip-path="url(#clipPath117)" />
    <path
       id="path118"
       d="M 5618,520 H 4754"
       style="fill:none;stroke:#000000;stroke-width:20.194;stroke-linecap:butt;stroke-linejoin:miter;stroke-miterlimit:10;stroke-dasharray:none;stroke-opacity:1"
       transform="matrix(0.01040024,0,0,0.01039804,71.124961,131.07769)"
       clip-path="url(#clipPath119)" />
    <path
       id="path120"
       d="m 4754,520 -48,96 -96,-192 -96,192 -96,-192 -96,192 -96,-192 -48,96"
       style="fill:none;stroke:#000000;stroke-width:20.194;stroke-linecap:butt;stroke-linejoin:miter;stroke-miterlimit:10;stroke-dasharray:none;stroke-opacity:1"
       transform="matrix(0.01040024,0,0,0.01039804,71.124961,131.07769)"
       clip-path="url(#clipPath121)" />
    <path
       id="path126"
       d="m 5306,1840 c 0,-172 140,-312 312,-312 172,0 312,140 312,312 0,172 -140,312 -312,312 -172,0 -312,-140 -312,-312"
       style="fill:#cdcdcd;fill-opacity:1;fill-rule:evenodd;stroke:#000000;stroke-width:20.194;stroke-linecap:butt;stroke-linejoin:miter;stroke-miterlimit:10;stroke-dasharray:none;stroke-opacity:1"
       transform="matrix(0.01040024,0,0,0.01039804,71.124961,131.07769)"
       clip-path="url(#clipPath127)" />
    <path
       id="path128"
       d="M 5618,3208 V 2152"
       style="fill:none;stroke:#000000;stroke-width:20.194;stroke-linecap:butt;stroke-linejoin:miter;stroke-miterlimit:10;stroke-dasharray:none;stroke-opacity:1"
       transform="matrix(0.01040024,0,0,0.01039804,71.124961,131.07769)"
       clip-path="url(#clipPath129)" />
    <path
       id="path130"
       d="m 5618,1672 v 245"
       style="fill:none;stroke:#000000;stroke-width:20.194;stroke-linecap:butt;stroke-linejoin:miter;stroke-miterlimit:10;stroke-dasharray:none;stroke-opacity:1"
       transform="matrix(0.01040024,0,0,0.01039804,71.124961,131.07769)"
       clip-path="url(#clipPath131)" />
    <path
       id="path132"
       d="m 5539,1897 79,159 79,-159 z"
       style="fill:#000000;fill-opacity:1;fill-rule:evenodd;stroke:none"
       transform="matrix(0.01040024,0,0,0.01039804,71.124961,131.07769)"
       clip-path="url(#clipPath133)" />
    <path
       id="path1"
       d="M 0.8933766,-4.99257 V -6.3095731 H 8.4459135 V -4.99257 Z"
       style="fill:#000000;fill-opacity:1;fill-rule:nonzero;stroke:none"
       aria-label="+            "
       transform="matrix(0.1664038,0,0,0.16636868,97.774495,135.40327)"
       clip-path="url(#clipPath79)"
       sodipodi:nodetypes="ccccc" />
    <path
       id="path2"
       d="m 0.72279633,-4.0513765 v -1.068512 H 6.8592325 v 1.068512 z"
       style="fill:#000000;fill-opacity:1;fill-rule:nonzero;stroke:none"
       aria-label="+"
       transform="matrix(0.1664038,0,0,0.16636868,132.36156,146.32704)"
       clip-path="url(#clipPath85)"
       sodipodi:nodetypes="ccccc" />
    <g
       inkscape:label=""
       transform="translate(72.017461,148.98363)"
       id="g2">
      <g
         fill="#000000"
         fill-opacity="1"
         id="g9"
         transform="matrix(0.352778,0,0,0.352778,-0.973182,-0.707055)">
        <g
           id="use5"
           transform="translate(1.993,7.223)">
          <path
             d="m 2.328125,-4.4375 c 0,-0.1875 0,-0.1875 -0.203125,-0.1875 -0.453125,0.4375 -1.078125,0.4375 -1.359375,0.4375 v 0.25 c 0.15625,0 0.625,0 1,-0.1875 v 3.546875 c 0,0.234375 0,0.328125 -0.6875,0.328125 H 0.8125 V 0 c 0.125,0 0.984375,-0.03125 1.234375,-0.03125 0.21875,0 1.09375,0.03125 1.25,0.03125 V -0.25 H 3.03125 c -0.703125,0 -0.703125,-0.09375 -0.703125,-0.328125 z m 0,0"
             id="path9" />
        </g>
        <g
           id="use6"
           transform="translate(5.9645791,7.223)">
          <path
             d="M 3.515625,-1.265625 H 3.28125 c -0.015625,0.15625 -0.09375,0.5625 -0.1875,0.625 C 3.046875,-0.59375 2.515625,-0.59375 2.40625,-0.59375 H 1.125 c 0.734375,-0.640625 0.984375,-0.84375 1.390625,-1.171875 0.515625,-0.40625 1,-0.84375 1,-1.5 0,-0.84375 -0.734375,-1.359375 -1.625,-1.359375 -0.859375,0 -1.453125,0.609375 -1.453125,1.25 0,0.34375 0.296875,0.390625 0.375,0.390625 0.15625,0 0.359375,-0.125 0.359375,-0.375 0,-0.125 -0.046875,-0.375 -0.40625,-0.375 C 0.984375,-4.21875 1.453125,-4.375 1.78125,-4.375 c 0.703125,0 1.0625,0.546875 1.0625,1.109375 0,0.609375 -0.4375,1.078125 -0.65625,1.328125 L 0.515625,-0.265625 C 0.4375,-0.203125 0.4375,-0.1875 0.4375,0 h 2.875 z m 0,0"
             id="path10" />
        </g>
        <g
           id="use7"
           transform="translate(9.9361582,7.223)">
          <path
             d="M 2.015625,1.734375 V 1.40625 h -0.71875 v -6.296875 h 0.71875 V -5.21875 h -1.0625 v 6.953125 z m 0,0"
             id="path11" />
        </g>
        <g
           id="use8"
           transform="translate(12.191485,7.223)">
          <path
             d="M 4.859375,-4.046875 C 4.953125,-4.265625 5.125,-4.5 5.65625,-4.515625 v -0.25 c -0.203125,0.03125 -0.484375,0.03125 -0.6875,0.03125 -0.265625,0 -0.78125,-0.03125 -0.828125,-0.03125 v 0.25 c 0.25,0 0.484375,0.125 0.484375,0.328125 0,0.0625 -0.015625,0.109375 -0.046875,0.15625 l -1.4375,3.359375 -1.5,-3.53125 C 1.59375,-4.28125 1.59375,-4.296875 1.59375,-4.328125 c 0,-0.1875 0.359375,-0.1875 0.546875,-0.1875 v -0.25 c -0.34375,0.015625 -0.78125,0.03125 -1.03125,0.03125 -0.34375,0 -0.875,-0.03125 -0.890625,-0.03125 v 0.25 h 0.109375 c 0.375,0 0.5,0.046875 0.59375,0.25 l 1.8125,4.25 c 0.046875,0.109375 0.0625,0.15625 0.203125,0.15625 0.0625,0 0.140625,0 0.203125,-0.140625 z m 0,0"
             id="path12" />
        </g>
        <g
           id="use9"
           transform="translate(18.072491,7.223)">
          <path
             d="M 1.296875,-5.21875 H 0.21875 v 0.328125 H 0.953125 V 1.40625 H 0.21875 v 0.328125 h 1.078125 z m 0,0"
             id="path13" />
        </g>
      </g>
    </g>
    <g
       inkscape:label=""
       transform="translate(120.04578,148.98363)"
       id="g6">
      <g
         fill="#000000"
         fill-opacity="1"
         id="g7"
         transform="matrix(0.352778,0,0,0.352778,-0.835378,-0.707055)">
        <g
           id="use4"
           transform="translate(1.993,7.223)">
          <path
             d="m 1.046875,-2.28125 c 0,-0.5625 0.046875,-1.078125 0.3125,-1.515625 0.234375,-0.375 0.609375,-0.625 1.0625,-0.625 0.203125,0 0.484375,0.046875 0.625,0.234375 C 2.875,-4.171875 2.71875,-4.046875 2.71875,-3.84375 c 0,0.171875 0.125,0.328125 0.328125,0.328125 0.21875,0 0.34375,-0.140625 0.34375,-0.34375 0,-0.40625 -0.296875,-0.765625 -0.984375,-0.765625 -1,0 -2.03125,0.921875 -2.03125,2.421875 0,1.796875 0.84375,2.34375 1.625,2.34375 0.84375,0 1.578125,-0.65625 1.578125,-1.5625 0,-0.890625 -0.703125,-1.546875 -1.515625,-1.546875 -0.5625,0 -0.859375,0.375 -1.015625,0.6875 z M 2,-0.078125 c -0.359375,0 -0.625,-0.203125 -0.78125,-0.515625 C 1.125,-0.796875 1.0625,-1.15625 1.0625,-1.5625 c 0,-0.6875 0.40625,-1.203125 0.96875,-1.203125 0.3125,0 0.53125,0.125 0.703125,0.375 0.171875,0.265625 0.171875,0.5625 0.171875,0.96875 0,0.390625 0,0.6875 -0.1875,0.96875 -0.15625,0.234375 -0.390625,0.375 -0.71875,0.375 z m 0,0"
             id="path7" />
        </g>
        <g
           id="g3"
           transform="translate(5.9645791,7.223)">
          <path
             d="M 2.015625,1.734375 V 1.40625 h -0.71875 v -6.296875 h 0.71875 V -5.21875 h -1.0625 v 6.953125 z m 0,0"
             id="path8" />
        </g>
        <g
           id="g4"
           transform="translate(8.2199059,7.223)">
          <path
             d="M 3.125,-4.8125 C 3.09375,-4.921875 3.0625,-4.96875 2.9375,-4.96875 c -0.140625,0 -0.15625,0.046875 -0.203125,0.15625 L 1.125,-0.734375 C 1.0625,-0.5625 0.9375,-0.25 0.3125,-0.25 V 0 C 0.546875,-0.015625 0.796875,-0.03125 1.03125,-0.03125 1.3125,-0.03125 1.828125,0 1.875,0 v -0.25 c -0.3125,0 -0.515625,-0.140625 -0.515625,-0.328125 0,-0.0625 0.015625,-0.078125 0.046875,-0.140625 L 1.734375,-1.578125 H 3.71875 L 4.125,-0.5625 c 0,0.03125 0.03125,0.078125 0.03125,0.109375 C 4.15625,-0.25 3.78125,-0.25 3.59375,-0.25 V 0 C 3.9375,-0.015625 4.390625,-0.03125 4.625,-0.03125 4.953125,-0.03125 5.484375,0 5.546875,0 v -0.25 h -0.125 c -0.46875,0 -0.515625,-0.078125 -0.59375,-0.265625 z m -0.40625,0.71875 0.890625,2.265625 h -1.78125 z m 0,0"
             id="path3" />
        </g>
        <g
           id="g5"
           transform="translate(14.100912,7.223)">
          <path
             d="M 1.296875,-5.21875 H 0.21875 v 0.328125 H 0.953125 V 1.40625 H 0.21875 v 0.328125 h 1.078125 z m 0,0"
             id="path4" />
        </g>
      </g>
    </g>
    <g
       inkscape:label=""
       transform="translate(108.32241,144.97364)"
       id="g20">
      <g
         fill="#000000"
         fill-opacity="1"
         id="g10"
         transform="matrix(0.352778,0,0,0.352778,-0.896011,-0.707055)">
        <g
           id="g8"
           transform="translate(1.993,7.223)">
          <path
             d="m 4.984375,-3.9375 c 0.25,-0.375 0.484375,-0.546875 0.859375,-0.578125 0.078125,0 0.15625,0 0.15625,-0.140625 0,-0.03125 -0.015625,-0.109375 -0.09375,-0.109375 -0.171875,0 -0.390625,0.03125 -0.5625,0.03125 -0.21875,0 -0.515625,-0.03125 -0.71875,-0.03125 -0.0625,0 -0.140625,0.03125 -0.140625,0.15625 0,0.09375 0.09375,0.09375 0.125,0.09375 0.21875,0.015625 0.28125,0.109375 0.28125,0.203125 0,0.109375 -0.046875,0.171875 -0.125,0.28125 l -2.28125,3.375 -0.640625,-3.5625 c -0.015625,-0.0625 -0.015625,-0.078125 -0.015625,-0.109375 0,-0.1875 0.390625,-0.1875 0.4375,-0.1875 0.125,0 0.21875,0 0.21875,-0.140625 0,-0.015625 -0.015625,-0.109375 -0.125,-0.109375 -0.203125,0 -0.6875,0.03125 -0.890625,0.03125 -0.171875,0 -0.609375,-0.03125 -0.78125,-0.03125 -0.0625,0 -0.140625,0.03125 -0.140625,0.15625 0,0.09375 0.09375,0.09375 0.171875,0.09375 0.390625,0 0.40625,0.046875 0.4375,0.234375 l 0.765625,4.234375 c 0.015625,0.140625 0.03125,0.1875 0.15625,0.1875 0.140625,0 0.171875,-0.046875 0.25,-0.15625 z m 0,0"
             id="path6" />
        </g>
      </g>
      <g
         fill="#000000"
         fill-opacity="1"
         id="g15"
         transform="matrix(0.352778,0,0,0.352778,-0.896011,-0.707055)">
        <g
           id="g14"
           transform="translate(6.697,8.2189999)">
          <path
             d="M 3,-1.59375 C 3,-1.953125 3,-3.3125 1.6875,-3.3125 c -1.296875,0 -1.296875,1.359375 -1.296875,1.71875 0,0.359375 0,1.703125 1.296875,1.703125 C 3,0.109375 3,-1.234375 3,-1.59375 Z M 1.6875,-0.0625 C 1.515625,-0.0625 1.09375,-0.125 0.96875,-0.625 0.890625,-0.890625 0.890625,-1.25 0.890625,-1.65625 c 0,-0.375 0,-0.71875 0.078125,-1 0.125,-0.421875 0.515625,-0.5 0.71875,-0.5 0.375,0 0.640625,0.1875 0.734375,0.546875 C 2.5,-2.359375 2.5,-1.953125 2.5,-1.65625 c 0,0.34375 0,0.75 -0.078125,1.046875 C 2.296875,-0.125 1.890625,-0.0625 1.6875,-0.0625 Z m 0,0"
             id="path14" />
        </g>
      </g>
      <g
         fill="#000000"
         fill-opacity="1"
         id="g19"
         transform="matrix(0.352778,0,0,0.352778,-0.896011,-0.707055)">
        <g
           id="g16"
           transform="translate(10.585,7.223)">
          <path
             d="M 2.015625,1.734375 V 1.40625 h -0.71875 v -6.296875 h 0.71875 V -5.21875 h -1.0625 v 6.953125 z m 0,0"
             id="path15" />
        </g>
        <g
           id="g17"
           transform="translate(12.840327,7.223)">
          <path
             d="M 3.125,-4.8125 C 3.09375,-4.921875 3.0625,-4.96875 2.9375,-4.96875 c -0.140625,0 -0.15625,0.046875 -0.203125,0.15625 L 1.125,-0.734375 C 1.0625,-0.5625 0.9375,-0.25 0.3125,-0.25 V 0 C 0.546875,-0.015625 0.796875,-0.03125 1.03125,-0.03125 1.3125,-0.03125 1.828125,0 1.875,0 v -0.25 c -0.3125,0 -0.515625,-0.140625 -0.515625,-0.328125 0,-0.0625 0.015625,-0.078125 0.046875,-0.140625 L 1.734375,-1.578125 H 3.71875 L 4.125,-0.5625 c 0,0.03125 0.03125,0.078125 0.03125,0.109375 C 4.15625,-0.25 3.78125,-0.25 3.59375,-0.25 V 0 C 3.9375,-0.015625 4.390625,-0.03125 4.625,-0.03125 4.953125,-0.03125 5.484375,0 5.546875,0 v -0.25 h -0.125 c -0.46875,0 -0.515625,-0.078125 -0.59375,-0.265625 z m -0.40625,0.71875 0.890625,2.265625 h -1.78125 z m 0,0"
             id="path16" />
        </g>
        <g
           id="g18"
           transform="translate(18.721333,7.223)">
          <path
             d="M 1.296875,-5.21875 H 0.21875 v 0.328125 H 0.953125 V 1.40625 H 0.21875 v 0.328125 h 1.078125 z m 0,0"
             id="path17" />
        </g>
      </g>
    </g>
    <g
       inkscape:label=""
       transform="translate(115.10637,138.49856)"
       id="g27">
      <g
         fill="#000000"
         fill-opacity="1"
         id="g22"
         transform="matrix(0.352778,0,0,0.352778,-0.857426,-0.707055)">
        <g
           id="g21"
           transform="translate(1.993,7.223)">
          <path
             d="m 3.8125,-0.984375 c 0.640625,-0.65625 0.890625,-1.59375 0.890625,-1.65625 0,-0.09375 -0.078125,-0.09375 -0.109375,-0.09375 C 4.5,-2.734375 4.5,-2.71875 4.453125,-2.5625 4.328125,-2.109375 4.09375,-1.671875 3.796875,-1.296875 3.796875,-1.40625 3.78125,-1.875 3.765625,-1.9375 3.65625,-2.625 3.140625,-3.078125 2.4375,-3.078125 c -1.015625,0 -2,0.953125 -2,1.9375 0,0.640625 0.46875,1.203125 1.265625,1.203125 0.640625,0 1.21875,-0.28125 1.609375,-0.578125 0.171875,0.5 0.515625,0.578125 0.734375,0.578125 0.40625,0 0.65625,-0.328125 0.65625,-0.484375 C 4.703125,-0.5 4.609375,-0.5 4.578125,-0.5 c -0.09375,0 -0.109375,0.03125 -0.125,0.0625 -0.09375,0.265625 -0.3125,0.3125 -0.390625,0.3125 -0.09375,0 -0.21875,0 -0.25,-0.859375 z M 3.265625,-0.75 C 2.578125,-0.1875 2,-0.125 1.734375,-0.125 c -0.46875,0 -0.71875,-0.3125 -0.71875,-0.78125 0,-0.1875 0.09375,-0.953125 0.453125,-1.4375 C 1.796875,-2.765625 2.1875,-2.875 2.4375,-2.875 c 0.546875,0 0.71875,0.53125 0.765625,0.96875 0.046875,0.296875 0.03125,0.796875 0.0625,1.15625 z m 0,0"
             id="path20" />
        </g>
      </g>
      <g
         fill="#000000"
         fill-opacity="1"
         id="g26"
         transform="matrix(0.352778,0,0,0.352778,-0.857426,-0.707055)">
        <g
           id="g23"
           transform="translate(7.1719999,7.223)">
          <path
             d="M 2.015625,1.734375 V 1.40625 h -0.71875 v -6.296875 h 0.71875 V -5.21875 h -1.0625 v 6.953125 z m 0,0"
             id="path22" />
        </g>
        <g
           id="g24"
           transform="translate(9.4273272,7.223)">
          <path
             d="m 5.28125,-1.171875 h -0.25 c 0,0.015625 -0.0625,0.34375 -0.125,0.515625 C 4.875,-0.546875 4.84375,-0.5 4.421875,-0.5 H 3.828125 C 3.9375,-0.890625 4.140625,-1.15625 4.53125,-1.671875 4.875,-2.140625 5.1875,-2.59375 5.1875,-3.15625 c 0,-0.953125 -1.015625,-1.75 -2.34375,-1.75 -1.34375,0 -2.359375,0.796875 -2.359375,1.75 0,0.609375 0.34375,1.0625 0.828125,1.71875 0.203125,0.265625 0.421875,0.578125 0.53125,0.9375 H 1.25 C 0.84375,-0.5 0.8125,-0.546875 0.78125,-0.625 0.71875,-0.765625 0.640625,-1.15625 0.640625,-1.171875 h -0.25 L 0.640625,0 H 1.90625 c 0.140625,0 0.1875,0 0.1875,-0.15625 0,-0.5 -0.25,-1.09375 -0.40625,-1.4375 -0.265625,-0.609375 -0.453125,-1.0625 -0.453125,-1.578125 0,-0.984375 0.78125,-1.53125 1.609375,-1.53125 0.8125,0 1.59375,0.546875 1.59375,1.53125 0,0.53125 -0.203125,1 -0.4375,1.546875 C 3.84375,-1.28125 3.578125,-0.65625 3.578125,-0.15625 3.578125,0 3.609375,0 3.78125,0 h 1.25 z m 0,0"
             id="path23" />
        </g>
        <g
           id="g25"
           transform="translate(15.114461,7.223)">
          <path
             d="M 1.296875,-5.21875 H 0.21875 v 0.328125 H 0.953125 V 1.40625 H 0.21875 v 0.328125 h 1.078125 z m 0,0"
             id="path24" />
        </g>
      </g>
    </g>
    <g
       inkscape:label=""
       transform="translate(114.40593,159.93663)"
       id="g56">
      <g
         fill="#000000"
         fill-opacity="1"
         id="g35"
         transform="matrix(0.352778,0,0,0.352778,-0.857426,-0.707055)">
        <g
           id="g34"
           transform="translate(1.993,7.223)">
          <path
             d="M 3.515625,-1.265625 H 3.28125 c -0.015625,0.15625 -0.09375,0.5625 -0.1875,0.625 C 3.046875,-0.59375 2.515625,-0.59375 2.40625,-0.59375 H 1.125 c 0.734375,-0.640625 0.984375,-0.84375 1.390625,-1.171875 0.515625,-0.40625 1,-0.84375 1,-1.5 0,-0.84375 -0.734375,-1.359375 -1.625,-1.359375 -0.859375,0 -1.453125,0.609375 -1.453125,1.25 0,0.34375 0.296875,0.390625 0.375,0.390625 0.15625,0 0.359375,-0.125 0.359375,-0.375 0,-0.125 -0.046875,-0.375 -0.40625,-0.375 C 0.984375,-4.21875 1.453125,-4.375 1.78125,-4.375 c 0.703125,0 1.0625,0.546875 1.0625,1.109375 0,0.609375 -0.4375,1.078125 -0.65625,1.328125 L 0.515625,-0.265625 C 0.4375,-0.203125 0.4375,-0.1875 0.4375,0 h 2.875 z m 0,0"
             id="path34" />
        </g>
      </g>
      <g
         fill="#000000"
         fill-opacity="1"
         id="g37"
         transform="matrix(0.352778,0,0,0.352778,-0.857426,-0.707055)">
        <g
           id="g36"
           transform="translate(5.9640002,7.223)">
          <path
             d="m 3.8125,-0.984375 c 0.640625,-0.65625 0.890625,-1.59375 0.890625,-1.65625 0,-0.09375 -0.078125,-0.09375 -0.109375,-0.09375 C 4.5,-2.734375 4.5,-2.71875 4.453125,-2.5625 4.328125,-2.109375 4.09375,-1.671875 3.796875,-1.296875 3.796875,-1.40625 3.78125,-1.875 3.765625,-1.9375 3.65625,-2.625 3.140625,-3.078125 2.4375,-3.078125 c -1.015625,0 -2,0.953125 -2,1.9375 0,0.640625 0.46875,1.203125 1.265625,1.203125 0.640625,0 1.21875,-0.28125 1.609375,-0.578125 0.171875,0.5 0.515625,0.578125 0.734375,0.578125 0.40625,0 0.65625,-0.328125 0.65625,-0.484375 C 4.703125,-0.5 4.609375,-0.5 4.578125,-0.5 c -0.09375,0 -0.109375,0.03125 -0.125,0.0625 -0.09375,0.265625 -0.3125,0.3125 -0.390625,0.3125 -0.09375,0 -0.21875,0 -0.25,-0.859375 z M 3.265625,-0.75 C 2.578125,-0.1875 2,-0.125 1.734375,-0.125 c -0.46875,0 -0.71875,-0.3125 -0.71875,-0.78125 0,-0.1875 0.09375,-0.953125 0.453125,-1.4375 C 1.796875,-2.765625 2.1875,-2.875 2.4375,-2.875 c 0.546875,0 0.71875,0.53125 0.765625,0.96875 0.046875,0.296875 0.03125,0.796875 0.0625,1.15625 z m 0,0"
             id="path36" />
        </g>
      </g>
      <g
         fill="#000000"
         fill-opacity="1"
         id="g55"
         transform="matrix(0.352778,0,0,0.352778,-0.857426,-0.707055)">
        <g
           id="g38"
           transform="translate(11.143,7.223)">
          <path
             d="M 2.015625,1.734375 V 1.40625 h -0.71875 v -6.296875 h 0.71875 V -5.21875 h -1.0625 v 6.953125 z m 0,0"
             id="path38" />
        </g>
        <g
           id="g40"
           transform="translate(13.398327,7.223)">
          <path
             d="m 5.28125,-1.171875 h -0.25 c 0,0.015625 -0.0625,0.34375 -0.125,0.515625 C 4.875,-0.546875 4.84375,-0.5 4.421875,-0.5 H 3.828125 C 3.9375,-0.890625 4.140625,-1.15625 4.53125,-1.671875 4.875,-2.140625 5.1875,-2.59375 5.1875,-3.15625 c 0,-0.953125 -1.015625,-1.75 -2.34375,-1.75 -1.34375,0 -2.359375,0.796875 -2.359375,1.75 0,0.609375 0.34375,1.0625 0.828125,1.71875 0.203125,0.265625 0.421875,0.578125 0.53125,0.9375 H 1.25 C 0.84375,-0.5 0.8125,-0.546875 0.78125,-0.625 0.71875,-0.765625 0.640625,-1.15625 0.640625,-1.171875 h -0.25 L 0.640625,0 H 1.90625 c 0.140625,0 0.1875,0 0.1875,-0.15625 0,-0.5 -0.25,-1.09375 -0.40625,-1.4375 -0.265625,-0.609375 -0.453125,-1.0625 -0.453125,-1.578125 0,-0.984375 0.78125,-1.53125 1.609375,-1.53125 0.8125,0 1.59375,0.546875 1.59375,1.53125 0,0.53125 -0.203125,1 -0.4375,1.546875 C 3.84375,-1.28125 3.578125,-0.65625 3.578125,-0.15625 3.578125,0 3.609375,0 3.78125,0 h 1.25 z m 0,0"
             id="path40" />
        </g>
        <g
           id="g54"
           transform="translate(19.085461,7.223)">
          <path
             d="M 1.296875,-5.21875 H 0.21875 v 0.328125 H 0.953125 V 1.40625 H 0.21875 v 0.328125 h 1.078125 z m 0,0"
             id="path54" />
        </g>
      </g>
    </g>
    <g
       inkscape:label=""
       transform="translate(90.859159,138.49856)"
       id="g70">
      <g
         fill="#000000"
         fill-opacity="1"
         id="g58"
         transform="matrix(0.352778,0,0,0.352778,-0.835378,-0.707055)">
        <g
           id="g57"
           transform="translate(1.993,7.223)">
          <path
             d="m 1.90625,-2.328125 c 0.546875,0 0.9375,0.375 0.9375,1.125 0,0.859375 -0.515625,1.125 -0.90625,1.125 -0.28125,0 -0.90625,-0.078125 -1.1875,-0.5 0.328125,0 0.40625,-0.234375 0.40625,-0.390625 0,-0.21875 -0.171875,-0.375 -0.390625,-0.375 -0.1875,0 -0.390625,0.125 -0.390625,0.40625 0,0.65625 0.71875,1.078125 1.5625,1.078125 0.96875,0 1.640625,-0.65625 1.640625,-1.34375 0,-0.546875 -0.4375,-1.09375 -1.203125,-1.25 0.71875,-0.265625 0.984375,-0.78125 0.984375,-1.21875 0,-0.546875 -0.625,-0.953125 -1.40625,-0.953125 -0.765625,0 -1.359375,0.375 -1.359375,0.9375 0,0.234375 0.15625,0.359375 0.359375,0.359375 0.21875,0 0.359375,-0.15625 0.359375,-0.34375 0,-0.203125 -0.140625,-0.359375 -0.359375,-0.375 0.25,-0.296875 0.71875,-0.375 0.984375,-0.375 0.3125,0 0.75,0.15625 0.75,0.75 0,0.296875 -0.09375,0.625 -0.28125,0.828125 -0.21875,0.265625 -0.421875,0.28125 -0.765625,0.3125 -0.171875,0.015625 -0.1875,0.015625 -0.21875,0.015625 -0.015625,0 -0.078125,0.015625 -0.078125,0.09375 0,0.09375 0.0625,0.09375 0.1875,0.09375 z m 0,0"
             id="path56" />
        </g>
      </g>
      <g
         fill="#000000"
         fill-opacity="1"
         id="g60"
         transform="matrix(0.352778,0,0,0.352778,-0.835378,-0.707055)">
        <g
           id="g59"
           transform="translate(5.9640002,7.223)">
          <path
             d="m 3.8125,-0.984375 c 0.640625,-0.65625 0.890625,-1.59375 0.890625,-1.65625 0,-0.09375 -0.078125,-0.09375 -0.109375,-0.09375 C 4.5,-2.734375 4.5,-2.71875 4.453125,-2.5625 4.328125,-2.109375 4.09375,-1.671875 3.796875,-1.296875 3.796875,-1.40625 3.78125,-1.875 3.765625,-1.9375 3.65625,-2.625 3.140625,-3.078125 2.4375,-3.078125 c -1.015625,0 -2,0.953125 -2,1.9375 0,0.640625 0.46875,1.203125 1.265625,1.203125 0.640625,0 1.21875,-0.28125 1.609375,-0.578125 0.171875,0.5 0.515625,0.578125 0.734375,0.578125 0.40625,0 0.65625,-0.328125 0.65625,-0.484375 C 4.703125,-0.5 4.609375,-0.5 4.578125,-0.5 c -0.09375,0 -0.109375,0.03125 -0.125,0.0625 -0.09375,0.265625 -0.3125,0.3125 -0.390625,0.3125 -0.09375,0 -0.21875,0 -0.25,-0.859375 z M 3.265625,-0.75 C 2.578125,-0.1875 2,-0.125 1.734375,-0.125 c -0.46875,0 -0.71875,-0.3125 -0.71875,-0.78125 0,-0.1875 0.09375,-0.953125 0.453125,-1.4375 C 1.796875,-2.765625 2.1875,-2.875 2.4375,-2.875 c 0.546875,0 0.71875,0.53125 0.765625,0.96875 0.046875,0.296875 0.03125,0.796875 0.0625,1.15625 z m 0,0"
             id="path58" />
        </g>
      </g>
      <g
         fill="#000000"
         fill-opacity="1"
         id="g69"
         transform="matrix(0.352778,0,0,0.352778,-0.835378,-0.707055)">
        <g
           id="g64"
           transform="translate(11.143,7.223)">
          <path
             d="M 2.015625,1.734375 V 1.40625 h -0.71875 v -6.296875 h 0.71875 V -5.21875 h -1.0625 v 6.953125 z m 0,0"
             id="path64" />
        </g>
        <g
           id="g66"
           transform="translate(13.398327,7.223)">
          <path
             d="m 5.28125,-1.171875 h -0.25 c 0,0.015625 -0.0625,0.34375 -0.125,0.515625 C 4.875,-0.546875 4.84375,-0.5 4.421875,-0.5 H 3.828125 C 3.9375,-0.890625 4.140625,-1.15625 4.53125,-1.671875 4.875,-2.140625 5.1875,-2.59375 5.1875,-3.15625 c 0,-0.953125 -1.015625,-1.75 -2.34375,-1.75 -1.34375,0 -2.359375,0.796875 -2.359375,1.75 0,0.609375 0.34375,1.0625 0.828125,1.71875 0.203125,0.265625 0.421875,0.578125 0.53125,0.9375 H 1.25 C 0.84375,-0.5 0.8125,-0.546875 0.78125,-0.625 0.71875,-0.765625 0.640625,-1.15625 0.640625,-1.171875 h -0.25 L 0.640625,0 H 1.90625 c 0.140625,0 0.1875,0 0.1875,-0.15625 0,-0.5 -0.25,-1.09375 -0.40625,-1.4375 -0.265625,-0.609375 -0.453125,-1.0625 -0.453125,-1.578125 0,-0.984375 0.78125,-1.53125 1.609375,-1.53125 0.8125,0 1.59375,0.546875 1.59375,1.53125 0,0.53125 -0.203125,1 -0.4375,1.546875 C 3.84375,-1.28125 3.578125,-0.65625 3.578125,-0.15625 3.578125,0 3.609375,0 3.78125,0 h 1.25 z m 0,0"
             id="path66" />
        </g>
        <g
           id="g68"
           transform="translate(19.085461,7.223)">
          <path
             d="M 1.296875,-5.21875 H 0.21875 v 0.328125 H 0.953125 V 1.40625 H 0.21875 v 0.328125 h 1.078125 z m 0,0"
             id="path68" />
        </g>
      </g>
    </g>
    <g
       inkscape:label=""
       transform="translate(134.8082,149.1745)"
       id="g73">
      <g
         fill="#000000"
         fill-opacity="1"
         id="g71"
         transform="matrix(0.352778,0,0,0.352778,-0.896011,-0.702866)">
        <g
           id="use2"
           transform="translate(1.993,6.7579999)">
          <path
             d="m 4.984375,-3.9375 c 0.25,-0.375 0.484375,-0.546875 0.859375,-0.578125 0.078125,0 0.15625,0 0.15625,-0.140625 0,-0.03125 -0.015625,-0.109375 -0.09375,-0.109375 -0.171875,0 -0.390625,0.03125 -0.5625,0.03125 -0.21875,0 -0.515625,-0.03125 -0.71875,-0.03125 -0.0625,0 -0.140625,0.03125 -0.140625,0.15625 0,0.09375 0.09375,0.09375 0.125,0.09375 0.21875,0.015625 0.28125,0.109375 0.28125,0.203125 0,0.109375 -0.046875,0.171875 -0.125,0.28125 l -2.28125,3.375 -0.640625,-3.5625 c -0.015625,-0.0625 -0.015625,-0.078125 -0.015625,-0.109375 0,-0.1875 0.390625,-0.1875 0.4375,-0.1875 0.125,0 0.21875,0 0.21875,-0.140625 0,-0.015625 -0.015625,-0.109375 -0.125,-0.109375 -0.203125,0 -0.6875,0.03125 -0.890625,0.03125 -0.171875,0 -0.609375,-0.03125 -0.78125,-0.03125 -0.0625,0 -0.140625,0.03125 -0.140625,0.15625 0,0.09375 0.09375,0.09375 0.171875,0.09375 0.390625,0 0.40625,0.046875 0.4375,0.234375 l 0.765625,4.234375 c 0.015625,0.140625 0.03125,0.1875 0.15625,0.1875 0.140625,0 0.171875,-0.046875 0.25,-0.15625 z m 0,0"
             id="path70" />
        </g>
      </g>
      <g
         fill="#000000"
         fill-opacity="1"
         id="g72"
         transform="matrix(0.352778,0,0,0.352778,-0.896011,-0.702866)">
        <g
           id="use3"
           transform="translate(6.697,7.7540002)">
          <path
             d="M 3,-1.59375 C 3,-1.953125 3,-3.3125 1.6875,-3.3125 c -1.296875,0 -1.296875,1.359375 -1.296875,1.71875 0,0.359375 0,1.703125 1.296875,1.703125 C 3,0.109375 3,-1.234375 3,-1.59375 Z M 1.6875,-0.0625 C 1.515625,-0.0625 1.09375,-0.125 0.96875,-0.625 0.890625,-0.890625 0.890625,-1.25 0.890625,-1.65625 c 0,-0.375 0,-0.71875 0.078125,-1 0.125,-0.421875 0.515625,-0.5 0.71875,-0.5 0.375,0 0.640625,0.1875 0.734375,0.546875 C 2.5,-2.359375 2.5,-1.953125 2.5,-1.65625 c 0,0.34375 0,0.75 -0.078125,1.046875 C 2.296875,-0.125 1.890625,-0.0625 1.6875,-0.0625 Z m 0,0"
             id="path5" />
        </g>
      </g>
    </g>
    <g
       inkscape:label=""
       transform="translate(92.702593,131.33342)"
       id="g78">
      <g
         fill="#000000"
         fill-opacity="1"
         id="g75"
         transform="matrix(0.352778,0,0,0.352778,-0.896011,-0.702866)">
        <g
           id="g74"
           transform="translate(1.993,6.7579999)">
          <path
             d="m 4.984375,-3.9375 c 0.25,-0.375 0.484375,-0.546875 0.859375,-0.578125 0.078125,0 0.15625,0 0.15625,-0.140625 0,-0.03125 -0.015625,-0.109375 -0.09375,-0.109375 -0.171875,0 -0.390625,0.03125 -0.5625,0.03125 -0.21875,0 -0.515625,-0.03125 -0.71875,-0.03125 -0.0625,0 -0.140625,0.03125 -0.140625,0.15625 0,0.09375 0.09375,0.09375 0.125,0.09375 0.21875,0.015625 0.28125,0.109375 0.28125,0.203125 0,0.109375 -0.046875,0.171875 -0.125,0.28125 l -2.28125,3.375 -0.640625,-3.5625 c -0.015625,-0.0625 -0.015625,-0.078125 -0.015625,-0.109375 0,-0.1875 0.390625,-0.1875 0.4375,-0.1875 0.125,0 0.21875,0 0.21875,-0.140625 0,-0.015625 -0.015625,-0.109375 -0.125,-0.109375 -0.203125,0 -0.6875,0.03125 -0.890625,0.03125 -0.171875,0 -0.609375,-0.03125 -0.78125,-0.03125 -0.0625,0 -0.140625,0.03125 -0.140625,0.15625 0,0.09375 0.09375,0.09375 0.171875,0.09375 0.390625,0 0.40625,0.046875 0.4375,0.234375 l 0.765625,4.234375 c 0.015625,0.140625 0.03125,0.1875 0.15625,0.1875 0.140625,0 0.171875,-0.046875 0.25,-0.15625 z m 0,0"
             id="path74" />
        </g>
      </g>
      <g
         fill="#000000"
         fill-opacity="1"
         id="g77"
         transform="matrix(0.352778,0,0,0.352778,-0.896011,-0.702866)">
        <g
           id="g76"
           transform="translate(6.697,7.7540002)">
          <path
             d="m 3.09375,-1.953125 c -0.234375,0.0625 -0.234375,0.28125 -0.234375,0.296875 0,0.078125 0.0625,0.203125 0.234375,0.203125 0.140625,0 0.3125,-0.125 0.3125,-0.34375 0,-0.296875 -0.328125,-0.40625 -0.59375,-0.40625 -0.328125,0 -0.546875,0.203125 -0.640625,0.34375 -0.15625,-0.28125 -0.484375,-0.34375 -0.65625,-0.34375 -0.625,0 -0.984375,0.59375 -0.984375,0.765625 0,0.078125 0.078125,0.078125 0.109375,0.078125 0.046875,0 0.078125,0 0.109375,-0.0625 0.140625,-0.484375 0.546875,-0.609375 0.734375,-0.609375 0.171875,0 0.359375,0.0625 0.359375,0.328125 0,0.125 -0.09375,0.46875 -0.265625,1.140625 -0.0625,0.28125 -0.296875,0.453125 -0.515625,0.453125 -0.03125,0 -0.171875,0 -0.296875,-0.078125 0.21875,-0.09375 0.21875,-0.28125 0.21875,-0.296875 0,-0.140625 -0.109375,-0.203125 -0.21875,-0.203125 -0.125,0 -0.296875,0.09375 -0.296875,0.328125 0,0.3125 0.328125,0.421875 0.59375,0.421875 0.265625,0 0.5,-0.171875 0.609375,-0.34375 C 1.875,0.015625 2.1875,0.0625 2.34375,0.0625 c 0.625,0 0.984375,-0.59375 0.984375,-0.78125 0,-0.0625 -0.078125,-0.0625 -0.109375,-0.0625 -0.078125,0 -0.09375,0.03125 -0.109375,0.0625 C 2.96875,-0.265625 2.59375,-0.109375 2.375,-0.109375 c -0.15625,0 -0.359375,-0.0625 -0.359375,-0.34375 0,-0.0625 0,-0.09375 0.03125,-0.265625 0.09375,-0.34375 0.21875,-0.890625 0.265625,-0.984375 0.0625,-0.125 0.234375,-0.328125 0.484375,-0.328125 0.015625,0 0.1875,0 0.296875,0.078125 z m 0,0"
             id="path76" />
        </g>
      </g>
    </g>
  </g>
</svg>
