<?xml version="1.0" encoding="UTF-8" standalone="no"?>
<!-- Created with Inkscape (http://www.inkscape.org/) -->

<svg
   width="192.00002"
   height="144.00002"
   viewBox="0 0 50.800002 38.100005"
   version="1.1"
   id="svg5"
   sodipodi:docname="f04.svg"
   inkscape:version="1.2.1 (9c6d41e410, 2022-07-14)"
   xmlns:inkscape="http://www.inkscape.org/namespaces/inkscape"
   xmlns:sodipodi="http://sodipodi.sourceforge.net/DTD/sodipodi-0.dtd"
   xmlns="http://www.w3.org/2000/svg"
   xmlns:svg="http://www.w3.org/2000/svg">
  <sodipodi:namedview
     id="namedview7"
     pagecolor="#ffffff"
     bordercolor="#000000"
     borderopacity="0.25"
     inkscape:showpageshadow="false"
     inkscape:pageopacity="0.0"
     inkscape:pagecheckerboard="false"
     inkscape:deskcolor="#d1d1d1"
     inkscape:document-units="px"
     showgrid="true"
     inkscape:zoom="1.4142136"
     inkscape:cx="214.25335"
     inkscape:cy="40.65864"
     inkscape:window-width="1920"
     inkscape:window-height="1050"
     inkscape:window-x="0"
     inkscape:window-y="18"
     inkscape:window-maximized="1"
     inkscape:current-layer="layer1"
     showguides="true">
    <inkscape:grid
       type="xygrid"
       id="grid1223"
       spacingx="1.0583333"
       spacingy="1.0583333"
       empspacing="4"
       originx="3.1554436e-30"
       originy="-42.333334" />
    <sodipodi:guide
       position="5.051758e-06,160.86667"
       orientation="0,-1"
       id="guide1694"
       inkscape:locked="false" />
    <sodipodi:guide
       position="5.051758e-06,160.86667"
       orientation="1,0"
       id="guide1696"
       inkscape:locked="false" />
    <sodipodi:guide
       position="50.800003,160.86668"
       orientation="1,0"
       id="guide21735"
       inkscape:locked="false" />
    <sodipodi:guide
       position="5.051758e-06,118.53333"
       orientation="0,-1"
       id="guide21941"
       inkscape:locked="false" />
    <sodipodi:guide
       position="101.6,160.86668"
       orientation="1,0"
       id="guide24413"
       inkscape:locked="false" />
    <sodipodi:guide
       position="5.051758e-06,76.200001"
       orientation="0,-1"
       id="guide35496"
       inkscape:locked="false" />
    <sodipodi:guide
       position="152.40001,160.86666"
       orientation="1,0"
       id="guide50631"
       inkscape:locked="false" />
    <sodipodi:guide
       position="5.051758e-06,38.100001"
       orientation="0,-1"
       id="guide53352"
       inkscape:locked="false" />
    <sodipodi:guide
       position="5.051758e-06,1.2019308e-05"
       orientation="0,-1"
       id="guide159195"
       inkscape:locked="false" />
    <sodipodi:guide
       position="67.733336,1.2019308e-05"
       orientation="1,0"
       id="guide500405"
       inkscape:locked="false" />
    <sodipodi:guide
       position="5.051758e-06,-42.333326"
       orientation="0,-1"
       id="guide503869"
       inkscape:locked="false" />
    <sodipodi:guide
       position="135.46667,-42.333324"
       orientation="1,0"
       id="guide515144"
       inkscape:locked="false" />
    <sodipodi:guide
       position="203.2,-42.333326"
       orientation="1,0"
       id="guide645019"
       inkscape:locked="false" />
    <sodipodi:guide
       position="59.26667,-80.433326"
       orientation="1,0"
       id="guide686712"
       inkscape:locked="false" />
    <sodipodi:guide
       position="5.051758e-06,-80.433326"
       orientation="0,-1"
       id="guide686714"
       inkscape:locked="false" />
    <sodipodi:guide
       position="118.53334,-80.433325"
       orientation="1,0"
       id="guide765939"
       inkscape:locked="false" />
    <sodipodi:guide
       position="177.8,-80.433325"
       orientation="1,0"
       id="guide816936"
       inkscape:locked="false" />
    <sodipodi:guide
       position="254,1.4019308e-05"
       orientation="1,0"
       id="guide839718"
       inkscape:locked="false" />
  </sodipodi:namedview>
  <defs
     id="defs2">
    <clipPath
       id="clipPath6546">
      <path
         d="M 0,0 H 9 V 10.910156 H 0 Z m 0,0"
         id="path8556" />
    </clipPath>
    <clipPath
       id="clipPath2879">
      <path
         d="m 18,0 h 2 v 10.910156 h -2 z m 0,0"
         id="path7893" />
    </clipPath>
    <clipPath
       id="clipPath1547">
      <path
         d="M 0,0 H 9 V 10.910156 H 0 Z m 0,0"
         id="path5093" />
    </clipPath>
    <clipPath
       id="clipPath6104">
      <path
         d="m 18,0 h 2 v 10.910156 h -2 z m 0,0"
         id="path1337" />
    </clipPath>
    <clipPath
       id="clipPath8949-2-8">
      <path
         d="M 0,0 H 20 V 10.910156 H 0 Z m 0,0"
         id="path5518-0-7" />
    </clipPath>
    <clipPath
       id="clipPath5441-6-2">
      <path
         d="m 25,3 h 6 v 7.910156 h -6 z m 0,0"
         id="path5186-1-8" />
    </clipPath>
    <clipPath
       id="clipPath464-5-2">
      <path
         d="M 31,0 H 46 V 10.910156 H 31 Z m 0,0"
         id="path1405-5-9" />
    </clipPath>
    <clipPath
       id="clipPath8841-4-9">
      <path
         d="m 46,0 h 2 v 10.910156 h -2 z m 0,0"
         id="path2805-7-6" />
    </clipPath>
    <marker
       style="overflow:visible"
       id="Arrow2-4-0"
       refX="0"
       refY="0"
       orient="auto-start-reverse"
       inkscape:stockid="Arrow2"
       markerWidth="3.3000002"
       markerHeight="2.4000001"
       viewBox="0 0 7.7 5.6"
       inkscape:isstock="true"
       inkscape:collect="always"
       preserveAspectRatio="xMidYMid">
      <path
         transform="scale(0.7)"
         d="M -2,-4 9,0 -2,4 c 2,-2.33 2,-5.66 0,-8 z"
         style="fill:context-stroke;fill-rule:evenodd;stroke:none"
         id="arrow2L-4-2" />
    </marker>
  </defs>
  <g
     inkscape:label="Capa 1"
     inkscape:groupmode="layer"
     id="layer1"
     transform="translate(5.051758e-6,-122.76663)">
    <rect
       style="fill:#ffffff;stroke:none;stroke-width:0.264583;stroke-linejoin:round;stroke-dasharray:none;stroke-dashoffset:0;paint-order:stroke markers fill"
       id="rect427319"
       width="50.799999"
       height="38.099998"
       x="-5.0517579e-06"
       y="122.76663"
       inkscape:export-filename="f04.svg"
       inkscape:export-xdpi="96"
       inkscape:export-ydpi="96" />
    <rect
       style="fill:#cccccc;stroke:#000000;stroke-width:0.132292;stroke-linejoin:round;stroke-dasharray:none;paint-order:stroke markers fill"
       id="rect136677"
       width="16.933332"
       height="4.2333374"
       x="4.2333322"
       y="143.93329" />
    <path
       style="fill:#000000;stroke:none;stroke-width:0.396875;stroke-linejoin:round;stroke-dasharray:none;stroke-dashoffset:0;paint-order:stroke markers fill"
       id="path138687"
       sodipodi:type="arc"
       sodipodi:cx="4.2333322"
       sodipodi:cy="146.04996"
       sodipodi:rx="2.116663"
       sodipodi:ry="2.116663"
       sodipodi:start="4.712389"
       sodipodi:end="1.5707963"
       sodipodi:arc-type="arc"
       d="m 4.2333322,143.93329 a 2.116663,2.116663 0 0 1 2.1166629,2.11667 2.116663,2.116663 0 0 1 -2.1166629,2.11666"
       sodipodi:open="true" />
    <path
       style="fill:none;stroke:#000000;stroke-width:0.264583;stroke-linejoin:round;stroke-dasharray:none;paint-order:stroke markers fill"
       d="m 4.2333333,141.81663 v 8.46666"
       id="path93226" />
    <g
       inkscape:label=""
       transform="matrix(0.56153608,0,0,0.56153608,10.770051,153.43795)"
       id="g4541"
       style="fill:#0000ff">
      <g
         id="g4539"
         transform="matrix(0.352778,0,0,0.352778,-0.110243,-0.00357193)"
         style="fill:#0000ff">
        <g
           clip-path="url(#clipPath6546)"
           clip-rule="nonzero"
           id="g4523"
           style="fill:#0000ff">
          <g
             style="fill:#0000ff;fill-opacity:1"
             id="g4521">
            <g
               id="g4515"
               transform="translate(0,8.1820002)"
               style="fill:#0000ff">
              <path
                 style="fill:#0000ff;stroke:none"
                 d="m 3.203125,-1.796875 v 0.953125 c 0,0.390625 -0.015625,0.5 -0.828125,0.5 H 2.15625 V 0 c 0.4375,-0.03125 1,-0.03125 1.46875,-0.03125 0.453125,0 1.03125,0 1.484375,0.03125 V -0.34375 H 4.875 c -0.8125,0 -0.828125,-0.109375 -0.828125,-0.5 v -0.953125 h 1.09375 v -0.34375 H 4.046875 V -7.09375 c 0,-0.21875 0,-0.296875 -0.171875,-0.296875 -0.09375,0 -0.140625,0 -0.21875,0.140625 L 0.3125,-2.140625 v 0.34375 z m 0.0625,-0.34375 h -2.65625 l 2.65625,-4.0625 z m 0,0"
                 id="path4513" />
            </g>
            <g
               id="g4519"
               transform="translate(5.4545498,8.1820002)"
               style="fill:#0000ff">
              <path
                 style="fill:#0000ff;stroke:none"
                 d="M 2.78125,2.71875 V 2.296875 H 1.71875 V -7.75 h 1.0625 v -0.421875 h -1.5 V 2.71875 Z m 0,0"
                 id="path4517" />
            </g>
          </g>
        </g>
        <g
           style="fill:#0000ff;fill-opacity:1"
           id="g4529">
          <g
             id="g4527"
             transform="translate(8.4849997,8.1820002)"
             style="fill:#0000ff">
            <path
               style="fill:#0000ff;stroke:none"
               d="m 0.953125,-0.640625 c -0.03125,0.15625 -0.09375,0.40625 -0.09375,0.46875 0,0.1875 0.15625,0.296875 0.3125,0.296875 C 1.3125,0.125 1.5,0.03125 1.578125,-0.1875 1.59375,-0.203125 1.71875,-0.71875 1.78125,-1 l 0.25,-0.96875 c 0.0625,-0.25 0.125,-0.484375 0.1875,-0.734375 0.03125,-0.1875 0.125,-0.5 0.140625,-0.546875 0.15625,-0.34375 0.734375,-1.328125 1.78125,-1.328125 0.484375,0 0.578125,0.40625 0.578125,0.765625 0,0.265625 -0.078125,0.578125 -0.15625,0.90625 L 4.25,-1.640625 4.03125,-0.8125 c -0.046875,0.21875 -0.140625,0.578125 -0.140625,0.640625 0,0.1875 0.15625,0.296875 0.3125,0.296875 0.34375,0 0.40625,-0.28125 0.5,-0.625 0.15625,-0.609375 0.546875,-2.203125 0.65625,-2.625 0.03125,-0.140625 0.609375,-1.453125 1.796875,-1.453125 0.46875,0 0.59375,0.375 0.59375,0.765625 0,0.609375 -0.46875,1.859375 -0.6875,2.4375 -0.09375,0.265625 -0.140625,0.375 -0.140625,0.59375 0,0.515625 0.390625,0.90625 0.890625,0.90625 1.03125,0 1.4375,-1.59375 1.4375,-1.6875 0,-0.109375 -0.09375,-0.109375 -0.125,-0.109375 -0.109375,0 -0.109375,0.03125 -0.171875,0.203125 C 8.796875,-0.890625 8.4375,-0.125 7.84375,-0.125 c -0.1875,0 -0.265625,-0.109375 -0.265625,-0.359375 0,-0.265625 0.09375,-0.53125 0.203125,-0.765625 0.203125,-0.578125 0.65625,-1.78125 0.65625,-2.40625 0,-0.703125 -0.4375,-1.171875 -1.25,-1.171875 -0.8125,0 -1.375,0.484375 -1.78125,1.0625 C 5.40625,-3.90625 5.359375,-4.28125 5.0625,-4.53125 4.78125,-4.765625 4.4375,-4.828125 4.171875,-4.828125 3.1875,-4.828125 2.65625,-4.125 2.46875,-3.875 c -0.0625,-0.625 -0.515625,-0.953125 -1,-0.953125 -0.515625,0 -0.71875,0.4375 -0.8125,0.625 -0.203125,0.390625 -0.34375,1.03125 -0.34375,1.0625 0,0.109375 0.109375,0.109375 0.140625,0.109375 0.109375,0 0.109375,-0.015625 0.171875,-0.25 0.1875,-0.78125 0.40625,-1.296875 0.796875,-1.296875 0.1875,0 0.34375,0.078125 0.34375,0.5 0,0.234375 -0.03125,0.34375 -0.171875,0.921875 z m 0,0"
               id="path4525" />
          </g>
        </g>
        <g
           clip-path="url(#clipPath2879)"
           clip-rule="nonzero"
           id="g4537"
           style="fill:#0000ff">
          <g
             style="fill:#0000ff;fill-opacity:1"
             id="g4535">
            <g
               id="g4533"
               transform="translate(18.063,8.1820002)"
               style="fill:#0000ff">
              <path
                 style="fill:#0000ff;stroke:none"
                 d="m 1.734375,-8.171875 h -1.5 V -7.75 h 1.0625 V 2.296875 h -1.0625 V 2.71875 h 1.5 z m 0,0"
                 id="path4531" />
            </g>
          </g>
        </g>
      </g>
    </g>
    <g
       inkscape:label=""
       transform="matrix(0.56153608,0,0,0.56153608,25.600641,153.43795)"
       id="g5297"
       style="fill:#0000ff">
      <g
         id="g5295"
         transform="matrix(0.352778,0,0,0.352778,-0.159852,-0.00357193)"
         style="fill:#0000ff">
        <g
           clip-path="url(#clipPath1547)"
           clip-rule="nonzero"
           id="g5279"
           style="fill:#0000ff">
          <g
             style="fill:#0000ff;fill-opacity:1"
             id="g5277">
            <g
               id="g5271"
               transform="translate(0,8.1820002)"
               style="fill:#0000ff">
              <path
                 style="fill:#0000ff;stroke:none"
                 d="M 3.15625,-3.84375 C 4.0625,-4.140625 4.6875,-4.890625 4.6875,-5.765625 c 0,-0.890625 -0.953125,-1.5 -2,-1.5 -1.109375,0 -1.9375,0.65625 -1.9375,1.484375 0,0.359375 0.25,0.5625 0.5625,0.5625 0.328125,0 0.546875,-0.234375 0.546875,-0.546875 0,-0.546875 -0.5,-0.546875 -0.671875,-0.546875 C 1.53125,-6.84375 2.25,-6.984375 2.640625,-6.984375 3.09375,-6.984375 3.6875,-6.75 3.6875,-5.765625 3.6875,-5.640625 3.671875,-5 3.375,-4.53125 3.046875,-4 2.6875,-3.96875 2.40625,-3.953125 c -0.078125,0 -0.34375,0.03125 -0.421875,0.03125 -0.09375,0 -0.15625,0.015625 -0.15625,0.125 0,0.125 0.0625,0.125 0.25,0.125 H 2.5625 c 0.890625,0 1.296875,0.734375 1.296875,1.8125 0,1.484375 -0.75,1.796875 -1.234375,1.796875 -0.46875,0 -1.28125,-0.1875 -1.671875,-0.828125 0.390625,0.046875 0.71875,-0.1875 0.71875,-0.609375 0,-0.390625 -0.28125,-0.609375 -0.609375,-0.609375 -0.25,0 -0.609375,0.15625 -0.609375,0.640625 0,0.984375 1.015625,1.703125 2.203125,1.703125 1.328125,0 2.328125,-0.984375 2.328125,-2.09375 0,-0.90625 -0.6875,-1.75 -1.828125,-1.984375 z m 0,0"
                 id="path5269" />
            </g>
            <g
               id="g5275"
               transform="translate(5.4545498,8.1820002)"
               style="fill:#0000ff">
              <path
                 style="fill:#0000ff;stroke:none"
                 d="M 2.78125,2.71875 V 2.296875 H 1.71875 V -7.75 h 1.0625 v -0.421875 h -1.5 V 2.71875 Z m 0,0"
                 id="path5273" />
            </g>
          </g>
        </g>
        <g
           style="fill:#0000ff;fill-opacity:1"
           id="g5285">
          <g
             id="g5283"
             transform="translate(8.4849997,8.1820002)"
             style="fill:#0000ff">
            <path
               style="fill:#0000ff;stroke:none"
               d="m 0.953125,-0.640625 c -0.03125,0.15625 -0.09375,0.40625 -0.09375,0.46875 0,0.1875 0.15625,0.296875 0.3125,0.296875 C 1.3125,0.125 1.5,0.03125 1.578125,-0.1875 1.59375,-0.203125 1.71875,-0.71875 1.78125,-1 l 0.25,-0.96875 c 0.0625,-0.25 0.125,-0.484375 0.1875,-0.734375 0.03125,-0.1875 0.125,-0.5 0.140625,-0.546875 0.15625,-0.34375 0.734375,-1.328125 1.78125,-1.328125 0.484375,0 0.578125,0.40625 0.578125,0.765625 0,0.265625 -0.078125,0.578125 -0.15625,0.90625 L 4.25,-1.640625 4.03125,-0.8125 c -0.046875,0.21875 -0.140625,0.578125 -0.140625,0.640625 0,0.1875 0.15625,0.296875 0.3125,0.296875 0.34375,0 0.40625,-0.28125 0.5,-0.625 0.15625,-0.609375 0.546875,-2.203125 0.65625,-2.625 0.03125,-0.140625 0.609375,-1.453125 1.796875,-1.453125 0.46875,0 0.59375,0.375 0.59375,0.765625 0,0.609375 -0.46875,1.859375 -0.6875,2.4375 -0.09375,0.265625 -0.140625,0.375 -0.140625,0.59375 0,0.515625 0.390625,0.90625 0.890625,0.90625 1.03125,0 1.4375,-1.59375 1.4375,-1.6875 0,-0.109375 -0.09375,-0.109375 -0.125,-0.109375 -0.109375,0 -0.109375,0.03125 -0.171875,0.203125 C 8.796875,-0.890625 8.4375,-0.125 7.84375,-0.125 c -0.1875,0 -0.265625,-0.109375 -0.265625,-0.359375 0,-0.265625 0.09375,-0.53125 0.203125,-0.765625 0.203125,-0.578125 0.65625,-1.78125 0.65625,-2.40625 0,-0.703125 -0.4375,-1.171875 -1.25,-1.171875 -0.8125,0 -1.375,0.484375 -1.78125,1.0625 C 5.40625,-3.90625 5.359375,-4.28125 5.0625,-4.53125 4.78125,-4.765625 4.4375,-4.828125 4.171875,-4.828125 3.1875,-4.828125 2.65625,-4.125 2.46875,-3.875 c -0.0625,-0.625 -0.515625,-0.953125 -1,-0.953125 -0.515625,0 -0.71875,0.4375 -0.8125,0.625 -0.203125,0.390625 -0.34375,1.03125 -0.34375,1.0625 0,0.109375 0.109375,0.109375 0.140625,0.109375 0.109375,0 0.109375,-0.015625 0.171875,-0.25 0.1875,-0.78125 0.40625,-1.296875 0.796875,-1.296875 0.1875,0 0.34375,0.078125 0.34375,0.5 0,0.234375 -0.03125,0.34375 -0.171875,0.921875 z m 0,0"
               id="path5281" />
          </g>
        </g>
        <g
           clip-path="url(#clipPath6104)"
           clip-rule="nonzero"
           id="g5293"
           style="fill:#0000ff">
          <g
             style="fill:#0000ff;fill-opacity:1"
             id="g5291">
            <g
               id="g5289"
               transform="translate(18.063,8.1820002)"
               style="fill:#0000ff">
              <path
                 style="fill:#0000ff;stroke:none"
                 d="m 1.734375,-8.171875 h -1.5 V -7.75 h 1.0625 V 2.296875 h -1.0625 V 2.71875 h 1.5 z m 0,0"
                 id="path5287" />
            </g>
          </g>
        </g>
      </g>
    </g>
    <g
       inkscape:label=""
       transform="matrix(0.56153608,0,0,0.56153608,37.360221,136.50462)"
       id="g5351"
       style="fill:#0000ff">
      <g
         id="g5349"
         transform="matrix(0.352778,0,0,0.352778,-0.110243,-0.00357193)"
         style="fill:#0000ff">
        <g
           clip-path="url(#clipPath6546)"
           clip-rule="nonzero"
           id="g5333"
           style="fill:#0000ff">
          <g
             style="fill:#0000ff;fill-opacity:1"
             id="g5331">
            <g
               id="g5325"
               transform="translate(0,8.1820002)"
               style="fill:#0000ff">
              <path
                 style="fill:#0000ff;stroke:none"
                 d="m 3.203125,-1.796875 v 0.953125 c 0,0.390625 -0.015625,0.5 -0.828125,0.5 H 2.15625 V 0 c 0.4375,-0.03125 1,-0.03125 1.46875,-0.03125 0.453125,0 1.03125,0 1.484375,0.03125 V -0.34375 H 4.875 c -0.8125,0 -0.828125,-0.109375 -0.828125,-0.5 v -0.953125 h 1.09375 v -0.34375 H 4.046875 V -7.09375 c 0,-0.21875 0,-0.296875 -0.171875,-0.296875 -0.09375,0 -0.140625,0 -0.21875,0.140625 L 0.3125,-2.140625 v 0.34375 z m 0.0625,-0.34375 h -2.65625 l 2.65625,-4.0625 z m 0,0"
                 id="path5323" />
            </g>
            <g
               id="g5329"
               transform="translate(5.4545498,8.1820002)"
               style="fill:#0000ff">
              <path
                 style="fill:#0000ff;stroke:none"
                 d="M 2.78125,2.71875 V 2.296875 H 1.71875 V -7.75 h 1.0625 v -0.421875 h -1.5 V 2.71875 Z m 0,0"
                 id="path5327" />
            </g>
          </g>
        </g>
        <g
           style="fill:#0000ff;fill-opacity:1"
           id="g5339">
          <g
             id="g5337"
             transform="translate(8.4849997,8.1820002)"
             style="fill:#0000ff">
            <path
               style="fill:#0000ff;stroke:none"
               d="m 0.953125,-0.640625 c -0.03125,0.15625 -0.09375,0.40625 -0.09375,0.46875 0,0.1875 0.15625,0.296875 0.3125,0.296875 C 1.3125,0.125 1.5,0.03125 1.578125,-0.1875 1.59375,-0.203125 1.71875,-0.71875 1.78125,-1 l 0.25,-0.96875 c 0.0625,-0.25 0.125,-0.484375 0.1875,-0.734375 0.03125,-0.1875 0.125,-0.5 0.140625,-0.546875 0.15625,-0.34375 0.734375,-1.328125 1.78125,-1.328125 0.484375,0 0.578125,0.40625 0.578125,0.765625 0,0.265625 -0.078125,0.578125 -0.15625,0.90625 L 4.25,-1.640625 4.03125,-0.8125 c -0.046875,0.21875 -0.140625,0.578125 -0.140625,0.640625 0,0.1875 0.15625,0.296875 0.3125,0.296875 0.34375,0 0.40625,-0.28125 0.5,-0.625 0.15625,-0.609375 0.546875,-2.203125 0.65625,-2.625 0.03125,-0.140625 0.609375,-1.453125 1.796875,-1.453125 0.46875,0 0.59375,0.375 0.59375,0.765625 0,0.609375 -0.46875,1.859375 -0.6875,2.4375 -0.09375,0.265625 -0.140625,0.375 -0.140625,0.59375 0,0.515625 0.390625,0.90625 0.890625,0.90625 1.03125,0 1.4375,-1.59375 1.4375,-1.6875 0,-0.109375 -0.09375,-0.109375 -0.125,-0.109375 -0.109375,0 -0.109375,0.03125 -0.171875,0.203125 C 8.796875,-0.890625 8.4375,-0.125 7.84375,-0.125 c -0.1875,0 -0.265625,-0.109375 -0.265625,-0.359375 0,-0.265625 0.09375,-0.53125 0.203125,-0.765625 0.203125,-0.578125 0.65625,-1.78125 0.65625,-2.40625 0,-0.703125 -0.4375,-1.171875 -1.25,-1.171875 -0.8125,0 -1.375,0.484375 -1.78125,1.0625 C 5.40625,-3.90625 5.359375,-4.28125 5.0625,-4.53125 4.78125,-4.765625 4.4375,-4.828125 4.171875,-4.828125 3.1875,-4.828125 2.65625,-4.125 2.46875,-3.875 c -0.0625,-0.625 -0.515625,-0.953125 -1,-0.953125 -0.515625,0 -0.71875,0.4375 -0.8125,0.625 -0.203125,0.390625 -0.34375,1.03125 -0.34375,1.0625 0,0.109375 0.109375,0.109375 0.140625,0.109375 0.109375,0 0.109375,-0.015625 0.171875,-0.25 0.1875,-0.78125 0.40625,-1.296875 0.796875,-1.296875 0.1875,0 0.34375,0.078125 0.34375,0.5 0,0.234375 -0.03125,0.34375 -0.171875,0.921875 z m 0,0"
               id="path5335" />
          </g>
        </g>
        <g
           clip-path="url(#clipPath2879)"
           clip-rule="nonzero"
           id="g5347"
           style="fill:#0000ff">
          <g
             style="fill:#0000ff;fill-opacity:1"
             id="g5345">
            <g
               id="g5343"
               transform="translate(18.063,8.1820002)"
               style="fill:#0000ff">
              <path
                 style="fill:#0000ff;stroke:none"
                 d="m 1.734375,-8.171875 h -1.5 V -7.75 h 1.0625 V 2.296875 h -1.0625 V 2.71875 h 1.5 z m 0,0"
                 id="path5341" />
            </g>
          </g>
        </g>
      </g>
    </g>
    <path
       style="fill:none;stroke:#000000;stroke-width:0.264583;stroke-linejoin:round;stroke-dasharray:none;paint-order:stroke markers fill"
       d="m 33.866671,129.11665 -12.7,16.93332"
       id="path21849-9"
       sodipodi:nodetypes="cc" />
    <g
       inkscape:label=""
       transform="matrix(0.53939247,0,0,0.53939247,7.7832811,133.53123)"
       id="g2560-7-7"
       style="fill:#0000ff">
      <g
         id="g2558-1-6"
         transform="matrix(0.352778,0,0,0.352778,-0.192925,-0.00357193)"
         style="fill:#0000ff">
        <g
           clip-path="url(#clipPath8949-2-8)"
           clip-rule="nonzero"
           id="g58-1-1"
           style="fill:#0000ff">
          <g
             style="fill:#0000ff;fill-opacity:1"
             id="g56-5-3">
            <g
               id="use48-9-2"
               transform="translate(0,8.1820002)"
               style="fill:#0000ff">
              <path
                 style="fill:#0000ff;stroke:none"
                 d="m 4.890625,-2.1875 c 0,-1.296875 -0.890625,-2.390625 -2.0625,-2.390625 -0.53125,0 -1,0.171875 -1.390625,0.546875 v -2.125 c 0.21875,0.078125 0.578125,0.140625 0.921875,0.140625 1.34375,0 2.109375,-0.984375 2.109375,-1.125 0,-0.0625 -0.03125,-0.125 -0.109375,-0.125 0,0 -0.03125,0 -0.078125,0.03125 -0.21875,0.109375 -0.765625,0.3125 -1.484375,0.3125 -0.4375,0 -0.9375,-0.0625 -1.453125,-0.296875 C 1.25,-7.25 1.234375,-7.25 1.203125,-7.25 1.09375,-7.25 1.09375,-7.171875 1.09375,-6.984375 v 3.21875 c 0,0.203125 0,0.28125 0.15625,0.28125 0.078125,0 0.109375,-0.03125 0.140625,-0.09375 0.125,-0.171875 0.53125,-0.765625 1.40625,-0.765625 0.578125,0 0.84375,0.5 0.9375,0.703125 0.171875,0.40625 0.1875,0.828125 0.1875,1.375 0,0.375 0,1.03125 -0.25,1.484375 C 3.40625,-0.34375 3,-0.0625 2.5,-0.0625 c -0.796875,0 -1.421875,-0.578125 -1.609375,-1.21875 0.03125,0 0.0625,0.015625 0.1875,0.015625 0.359375,0 0.546875,-0.265625 0.546875,-0.53125 0,-0.265625 -0.1875,-0.53125 -0.546875,-0.53125 -0.15625,0 -0.53125,0.078125 -0.53125,0.578125 0,0.9375 0.75,1.984375 1.96875,1.984375 1.265625,0 2.375,-1.046875 2.375,-2.421875 z m 0,0"
                 id="path89-7-1" />
            </g>
            <g
               id="use50-7-5"
               transform="translate(5.4545498,8.1820002)"
               style="fill:#0000ff">
              <path
                 style="fill:#0000ff;stroke:none"
                 d="m 5.015625,-3.484375 c 0,-0.875 -0.046875,-1.75 -0.4375,-2.5625 -0.5,-1.046875 -1.390625,-1.21875 -1.859375,-1.21875 -0.640625,0 -1.4375,0.28125 -1.890625,1.296875 -0.34375,0.75 -0.40625,1.609375 -0.40625,2.484375 0,0.8125 0.046875,1.796875 0.5,2.625 0.46875,0.875 1.265625,1.09375 1.796875,1.09375 0.578125,0 1.421875,-0.21875 1.890625,-1.265625 0.359375,-0.75 0.40625,-1.59375 0.40625,-2.453125 z M 2.71875,0 C 2.296875,0 1.640625,-0.265625 1.453125,-1.3125 c -0.125,-0.65625 -0.125,-1.671875 -0.125,-2.3125 0,-0.6875 0,-1.40625 0.09375,-2 C 1.625,-6.921875 2.4375,-7.03125 2.71875,-7.03125 c 0.359375,0 1.078125,0.203125 1.28125,1.28125 0.109375,0.609375 0.109375,1.4375 0.109375,2.125 0,0.828125 0,1.5625 -0.125,2.265625 C 3.828125,-0.328125 3.203125,0 2.71875,0 Z m 0,0"
                 id="path93-6-9" />
            </g>
            <g
               id="use52-7-9"
               transform="translate(10.9091,8.1820002)"
               style="fill:#0000ff">
              <path
                 style="fill:#0000ff;stroke:none"
                 d="m 5.015625,-3.484375 c 0,-0.875 -0.046875,-1.75 -0.4375,-2.5625 -0.5,-1.046875 -1.390625,-1.21875 -1.859375,-1.21875 -0.640625,0 -1.4375,0.28125 -1.890625,1.296875 -0.34375,0.75 -0.40625,1.609375 -0.40625,2.484375 0,0.8125 0.046875,1.796875 0.5,2.625 0.46875,0.875 1.265625,1.09375 1.796875,1.09375 0.578125,0 1.421875,-0.21875 1.890625,-1.265625 0.359375,-0.75 0.40625,-1.59375 0.40625,-2.453125 z M 2.71875,0 C 2.296875,0 1.640625,-0.265625 1.453125,-1.3125 c -0.125,-0.65625 -0.125,-1.671875 -0.125,-2.3125 0,-0.6875 0,-1.40625 0.09375,-2 C 1.625,-6.921875 2.4375,-7.03125 2.71875,-7.03125 c 0.359375,0 1.078125,0.203125 1.28125,1.28125 0.109375,0.609375 0.109375,1.4375 0.109375,2.125 0,0.828125 0,1.5625 -0.125,2.265625 C 3.828125,-0.328125 3.203125,0 2.71875,0 Z m 0,0"
                 id="path97-3-1" />
            </g>
            <g
               id="use54-6-4"
               transform="translate(16.363649,8.1820002)"
               style="fill:#0000ff">
              <path
                 style="fill:#0000ff;stroke:none"
                 d="M 2.78125,2.71875 V 2.296875 H 1.71875 V -7.75 h 1.0625 v -0.421875 h -1.5 V 2.71875 Z m 0,0"
                 id="path101-5-9" />
            </g>
          </g>
        </g>
        <g
           style="fill:#0000ff;fill-opacity:1"
           id="g62-6-1">
          <g
             id="use60-3-0"
             transform="translate(19.393999,8.1820002)"
             style="fill:#0000ff">
            <path
               style="fill:#0000ff;stroke:none"
               d="m 3.125,-7.453125 c 0,0 0,-0.109375 -0.140625,-0.109375 -0.25,0 -1.046875,0.078125 -1.328125,0.109375 -0.078125,0 -0.203125,0.015625 -0.203125,0.21875 0,0.125 0.09375,0.125 0.265625,0.125 0.515625,0 0.53125,0.078125 0.53125,0.1875 l -0.03125,0.21875 -1.578125,6.28125 C 0.59375,-0.265625 0.59375,-0.25 0.59375,-0.1875 c 0,0.25 0.21875,0.3125 0.328125,0.3125 C 1.0625,0.125 1.21875,0.015625 1.28125,-0.109375 1.34375,-0.203125 1.828125,-2.21875 1.890625,-2.5 c 0.375,0.03125 1.265625,0.203125 1.265625,0.921875 0,0.078125 0,0.125 -0.03125,0.234375 -0.015625,0.140625 -0.03125,0.265625 -0.03125,0.390625 0,0.640625 0.421875,1.078125 1,1.078125 0.328125,0 0.625,-0.171875 0.859375,-0.578125 C 5.21875,-0.9375 5.34375,-1.53125 5.34375,-1.5625 c 0,-0.109375 -0.09375,-0.109375 -0.125,-0.109375 -0.109375,0 -0.125,0.046875 -0.15625,0.203125 -0.21875,0.796875 -0.46875,1.34375 -0.953125,1.34375 -0.203125,0 -0.34375,-0.109375 -0.34375,-0.5 0,-0.1875 0.046875,-0.4375 0.078125,-0.625 0.046875,-0.171875 0.046875,-0.21875 0.046875,-0.328125 0,-0.71875 -0.6875,-1.03125 -1.609375,-1.140625 0.34375,-0.203125 0.6875,-0.546875 0.9375,-0.8125 0.515625,-0.578125 1.03125,-1.046875 1.5625,-1.046875 0.0625,0 0.078125,0 0.09375,0.015625 C 5,-4.546875 5.015625,-4.546875 5.109375,-4.484375 5.125,-4.46875 5.125,-4.453125 5.140625,-4.4375 4.625,-4.40625 4.53125,-3.984375 4.53125,-3.84375 c 0,0.171875 0.109375,0.375 0.40625,0.375 0.28125,0 0.609375,-0.234375 0.609375,-0.671875 0,-0.3125 -0.25,-0.6875 -0.75,-0.6875 -0.296875,0 -0.8125,0.09375 -1.59375,0.96875 C 2.828125,-3.453125 2.40625,-3.015625 2,-2.84375 Z m 0,0"
               id="path105-9-7" />
          </g>
        </g>
        <g
           clip-path="url(#clipPath5441-6-2)"
           clip-rule="nonzero"
           id="g68-4-5"
           style="fill:#0000ff">
          <g
             style="fill:#0000ff;fill-opacity:1"
             id="g66-8-8">
            <g
               id="use64-1-7"
               transform="translate(25.411461,8.1820002)"
               style="fill:#0000ff">
              <path
                 style="fill:#0000ff;stroke:none"
                 d="m 5.140625,-4.109375 c 0,-0.0625 0.03125,-0.125 0.03125,-0.203125 0,-0.1875 -0.140625,-0.296875 -0.3125,-0.296875 -0.109375,0 -0.40625,0.078125 -0.453125,0.46875 -0.203125,-0.390625 -0.578125,-0.6875 -1.015625,-0.6875 -1.234375,0 -2.59375,1.53125 -2.59375,3.109375 C 0.796875,-0.640625 1.46875,0 2.25,0 2.890625,0 3.40625,-0.515625 3.515625,-0.625 3.296875,0.34375 3.15625,0.796875 3.15625,0.8125 3.125,0.921875 2.75,2 1.59375,2 1.390625,2 1.03125,1.984375 0.71875,1.890625 1.046875,1.78125 1.171875,1.5 1.171875,1.3125 c 0,-0.171875 -0.125,-0.375 -0.421875,-0.375 -0.234375,0 -0.59375,0.203125 -0.59375,0.640625 0,0.4375 0.40625,0.65625 1.453125,0.65625 1.375,0 2.15625,-0.84375 2.3125,-1.5 z m -1.421875,2.71875 c -0.0625,0.28125 -0.3125,0.546875 -0.5625,0.765625 -0.21875,0.1875 -0.5625,0.390625 -0.875,0.390625 -0.546875,0 -0.703125,-0.578125 -0.703125,-1.015625 0,-0.515625 0.3125,-1.796875 0.609375,-2.359375 0.28125,-0.53125 0.75,-0.96875 1.21875,-0.96875 0.71875,0 0.875,0.875 0.875,0.9375 0,0.046875 -0.03125,0.125 -0.03125,0.15625 z m 0,0"
                 id="path109-2-0" />
            </g>
          </g>
        </g>
        <g
           clip-path="url(#clipPath464-5-2)"
           clip-rule="nonzero"
           id="g76-9-4"
           style="fill:#0000ff">
          <g
             style="fill:#0000ff;fill-opacity:1"
             id="g74-3-8">
            <g
               id="use70-9-0"
               transform="translate(31.007828,8.1820002)"
               style="fill:#0000ff">
              <path
                 style="fill:#0000ff;stroke:none"
                 d="m 4.78125,-7.765625 c 0.0625,-0.140625 0.0625,-0.1875 0.0625,-0.203125 0,-0.109375 -0.09375,-0.203125 -0.21875,-0.203125 -0.078125,0 -0.15625,0.03125 -0.1875,0.09375 L 0.65625,2.3125 C 0.59375,2.453125 0.59375,2.5 0.59375,2.515625 c 0,0.109375 0.109375,0.203125 0.21875,0.203125 0.140625,0 0.1875,-0.0625 0.25,-0.25 z m 0,0"
                 id="path113-0-4" />
            </g>
            <g
               id="use72-8-2"
               transform="translate(36.462379,8.1820002)"
               style="fill:#0000ff">
              <path
                 style="fill:#0000ff;stroke:none"
                 d="m 0.953125,-0.640625 c -0.03125,0.15625 -0.09375,0.40625 -0.09375,0.46875 0,0.1875 0.15625,0.296875 0.3125,0.296875 C 1.3125,0.125 1.5,0.03125 1.578125,-0.1875 1.59375,-0.203125 1.71875,-0.71875 1.78125,-1 l 0.25,-0.96875 c 0.0625,-0.25 0.125,-0.484375 0.1875,-0.734375 0.03125,-0.1875 0.125,-0.5 0.140625,-0.546875 0.15625,-0.34375 0.734375,-1.328125 1.78125,-1.328125 0.484375,0 0.578125,0.40625 0.578125,0.765625 0,0.265625 -0.078125,0.578125 -0.15625,0.90625 L 4.25,-1.640625 4.03125,-0.8125 c -0.046875,0.21875 -0.140625,0.578125 -0.140625,0.640625 0,0.1875 0.15625,0.296875 0.3125,0.296875 0.34375,0 0.40625,-0.28125 0.5,-0.625 0.15625,-0.609375 0.546875,-2.203125 0.65625,-2.625 0.03125,-0.140625 0.609375,-1.453125 1.796875,-1.453125 0.46875,0 0.59375,0.375 0.59375,0.765625 0,0.609375 -0.46875,1.859375 -0.6875,2.4375 -0.09375,0.265625 -0.140625,0.375 -0.140625,0.59375 0,0.515625 0.390625,0.90625 0.890625,0.90625 1.03125,0 1.4375,-1.59375 1.4375,-1.6875 0,-0.109375 -0.09375,-0.109375 -0.125,-0.109375 -0.109375,0 -0.109375,0.03125 -0.171875,0.203125 C 8.796875,-0.890625 8.4375,-0.125 7.84375,-0.125 c -0.1875,0 -0.265625,-0.109375 -0.265625,-0.359375 0,-0.265625 0.09375,-0.53125 0.203125,-0.765625 0.203125,-0.578125 0.65625,-1.78125 0.65625,-2.40625 0,-0.703125 -0.4375,-1.171875 -1.25,-1.171875 -0.8125,0 -1.375,0.484375 -1.78125,1.0625 C 5.40625,-3.90625 5.359375,-4.28125 5.0625,-4.53125 4.78125,-4.765625 4.4375,-4.828125 4.171875,-4.828125 3.1875,-4.828125 2.65625,-4.125 2.46875,-3.875 c -0.0625,-0.625 -0.515625,-0.953125 -1,-0.953125 -0.515625,0 -0.71875,0.4375 -0.8125,0.625 -0.203125,0.390625 -0.34375,1.03125 -0.34375,1.0625 0,0.109375 0.109375,0.109375 0.140625,0.109375 0.109375,0 0.109375,-0.015625 0.171875,-0.25 0.1875,-0.78125 0.40625,-1.296875 0.796875,-1.296875 0.1875,0 0.34375,0.078125 0.34375,0.5 0,0.234375 -0.03125,0.34375 -0.171875,0.921875 z m 0,0"
                 id="path117-8-9" />
            </g>
          </g>
        </g>
        <g
           clip-path="url(#clipPath8841-4-9)"
           clip-rule="nonzero"
           id="g82-5-6"
           style="fill:#0000ff">
          <g
             style="fill:#0000ff;fill-opacity:1"
             id="g80-0-1">
            <g
               id="use78-9-0"
               transform="translate(46.043999,8.1820002)"
               style="fill:#0000ff">
              <path
                 style="fill:#0000ff;stroke:none"
                 d="m 1.734375,-8.171875 h -1.5 V -7.75 h 1.0625 V 2.296875 h -1.0625 V 2.71875 h 1.5 z m 0,0"
                 id="path121-6-4" />
            </g>
          </g>
        </g>
      </g>
    </g>
    <path
       style="fill:none;stroke:#008000;stroke-width:0.396875;stroke-linejoin:round;stroke-dasharray:none;marker-end:url(#Arrow2-4-0);paint-order:stroke markers fill"
       d="m 21.166671,136.52498 v 6.34999"
       id="path43126-0-2"
       sodipodi:nodetypes="cc" />
    <path
       style="fill:none;stroke:#008000;stroke-width:0.396875;stroke-linejoin:round;stroke-dasharray:none;marker-end:url(#Arrow2-4-0);paint-order:stroke markers fill"
       d="m 8.4666711,136.52499 v 6.34999"
       id="path43380-8-2"
       sodipodi:nodetypes="cc" />
    <path
       style="fill:none;stroke:#008000;stroke-width:0.396875;stroke-linejoin:round;stroke-dasharray:none;marker-end:url(#Arrow2-4-0);paint-order:stroke markers fill"
       d="m 10.583331,136.52498 v 6.34999"
       id="path43384-5-2"
       sodipodi:nodetypes="cc" />
    <path
       style="fill:none;stroke:#008000;stroke-width:0.396875;stroke-linejoin:round;stroke-dasharray:none;marker-end:url(#Arrow2-4-0);paint-order:stroke markers fill"
       d="m 12.700001,136.52498 v 6.34999"
       id="path43388-0-0"
       sodipodi:nodetypes="cc" />
    <path
       style="fill:none;stroke:#008000;stroke-width:0.396875;stroke-linejoin:round;stroke-dasharray:none;marker-end:url(#Arrow2-4-0);paint-order:stroke markers fill"
       d="m 14.816671,136.52498 v 6.34999"
       id="path43392-6-5"
       sodipodi:nodetypes="cc" />
    <path
       style="fill:none;stroke:#008000;stroke-width:0.396875;stroke-linejoin:round;stroke-dasharray:none;marker-end:url(#Arrow2-4-0);paint-order:stroke markers fill"
       d="m 16.933331,136.52498 v 6.34999"
       id="path43396-4-5"
       sodipodi:nodetypes="cc" />
    <path
       style="fill:none;stroke:#008000;stroke-width:0.396875;stroke-linejoin:round;stroke-dasharray:none;marker-end:url(#Arrow2-4-0);paint-order:stroke markers fill"
       d="m 19.050001,136.52498 v 6.34999"
       id="path43400-6-2"
       sodipodi:nodetypes="cc" />
    <path
       style="fill:none;stroke:#000000;stroke-width:0.396875;stroke-linejoin:round;stroke-dasharray:none;paint-order:stroke markers fill"
       d="m 33.866671,156.63332 v -4.23334"
       id="path38703-1-2" />
    <path
       style="fill:none;stroke:#000000;stroke-width:0.396875;stroke-linejoin:round;stroke-dasharray:none;paint-order:stroke markers fill"
       d="m 30.691681,154.51665 h 3.17499"
       id="path44954-7-9" />
    <path
       style="fill:none;stroke:#000000;stroke-width:0.264583;stroke-linejoin:round;stroke-dasharray:none;paint-order:stroke markers fill"
       d="M 4.2333321,142.87498 3.1750022,141.81665"
       id="path136655"
       sodipodi:nodetypes="cc" />
    <path
       style="fill:none;stroke:#000000;stroke-width:0.264583;stroke-linejoin:round;stroke-dasharray:none;paint-order:stroke markers fill"
       d="m 3.1750022,150.28331 -1.05834,-1.05834"
       id="path136659"
       sodipodi:nodetypes="cc" />
    <path
       style="fill:none;stroke:#000000;stroke-width:0.264583;stroke-linejoin:round;stroke-dasharray:none;paint-order:stroke markers fill"
       d="M 4.2333321,150.2833 C 2.1166622,148.16664 2.1166622,148.16664 2.1166622,148.16664"
       id="path136661" />
    <path
       style="fill:none;stroke:#000000;stroke-width:0.264583;stroke-linejoin:round;stroke-dasharray:none;paint-order:stroke markers fill"
       d="M 4.2333321,149.22497 C 2.1166622,147.1083 2.1166622,147.1083 2.1166622,147.1083"
       id="path136663" />
    <path
       style="fill:none;stroke:#000000;stroke-width:0.264583;stroke-linejoin:round;stroke-dasharray:none;paint-order:stroke markers fill"
       d="M 4.2333321,148.16664 C 2.1166622,146.04997 2.1166622,146.04997 2.1166622,146.04997"
       id="path136665" />
    <path
       style="fill:none;stroke:#000000;stroke-width:0.264583;stroke-linejoin:round;stroke-dasharray:none;paint-order:stroke markers fill"
       d="M 4.2333321,147.1083 C 2.1166622,144.99164 2.1166622,144.99164 2.1166622,144.99164"
       id="path136667" />
    <path
       style="fill:none;stroke:#000000;stroke-width:0.264583;stroke-linejoin:round;stroke-dasharray:none;paint-order:stroke markers fill"
       d="M 4.2333321,146.04997 C 2.1166622,143.93331 2.1166622,143.93331 2.1166622,143.93331"
       id="path136669" />
    <path
       style="fill:none;stroke:#000000;stroke-width:0.264583;stroke-linejoin:round;stroke-dasharray:none;paint-order:stroke markers fill"
       d="M 4.2333321,144.99163 C 2.1166622,142.87497 2.1166622,142.87497 2.1166622,142.87497"
       id="path136671" />
    <path
       style="fill:none;stroke:#000000;stroke-width:0.264583;stroke-linejoin:round;stroke-dasharray:none;paint-order:stroke markers fill"
       d="M 4.2333321,143.93331 C 2.1166622,141.81665 2.1166622,141.81665 2.1166622,141.81665"
       id="path136673" />
    <path
       style="fill:none;stroke:#000000;stroke-width:0.264583;stroke-linejoin:round;stroke-dasharray:none;paint-order:stroke markers fill"
       d="m 35.983332,129.11666 -1.05833,-1.05834"
       id="path136655-4"
       sodipodi:nodetypes="cc" />
    <path
       style="fill:none;stroke:#000000;stroke-width:0.264583;stroke-linejoin:round;stroke-dasharray:none;paint-order:stroke markers fill"
       d="m 34.924997,130.17498 -1.058335,-1.05833"
       id="path136671-5"
       sodipodi:nodetypes="cc" />
    <path
       style="fill:none;stroke:#000000;stroke-width:0.264583;stroke-linejoin:round;stroke-dasharray:none;paint-order:stroke markers fill"
       d="m 35.983332,130.17499 c -2.11667,-2.11667 -2.11667,-2.11667 -2.11667,-2.11667"
       id="path136673-6" />
    <path
       style="fill:#cccccc;stroke:#000000;stroke-width:0.396875;stroke-linejoin:round;stroke-dasharray:none;stroke-dashoffset:0;paint-order:stroke markers fill"
       id="path138747"
       sodipodi:type="arc"
       sodipodi:cx="4.2333322"
       sodipodi:cy="146.04996"
       sodipodi:rx="0.19304819"
       sodipodi:ry="0.19304819"
       sodipodi:start="4.712389"
       sodipodi:end="1.5707963"
       sodipodi:arc-type="arc"
       d="m 4.2333322,145.85691 a 0.19304819,0.19304819 0 0 1 0.1930482,0.19305 0.19304819,0.19304819 0 0 1 -0.1930482,0.19305"
       sodipodi:open="true" />
    <path
       style="fill:none;stroke:#000000;stroke-width:0.396875;stroke-linejoin:round;stroke-dasharray:none;paint-order:stroke markers fill"
       d="m 4.2333311,156.63332 v -4.23333"
       id="path146585" />
    <path
       style="fill:none;stroke:#000000;stroke-width:0.396875;stroke-linejoin:round;stroke-dasharray:none;paint-order:stroke markers fill"
       d="m 4.2333411,154.51666 h 5.29166"
       id="path146587"
       sodipodi:nodetypes="cc" />
    <path
       style="fill:none;stroke:#000000;stroke-width:0.396875;stroke-linejoin:round;stroke-dasharray:none;paint-order:stroke markers fill"
       d="m 21.166671,156.63332 v -4.23334"
       id="path146589" />
    <path
       style="fill:none;stroke:#000000;stroke-width:0.396875;stroke-linejoin:round;stroke-dasharray:none;paint-order:stroke markers fill"
       d="m 15.875001,154.51665 h 8.46666"
       id="path146591"
       sodipodi:nodetypes="cc" />
    <path
       style="fill:none;stroke:#000000;stroke-width:0.396875;stroke-linejoin:round;stroke-dasharray:none;paint-order:stroke markers fill"
       d="m 37.041671,129.11666 h 4.23333"
       id="path146585-8" />
    <path
       style="fill:none;stroke:#000000;stroke-width:0.396875;stroke-linejoin:round;stroke-dasharray:none;paint-order:stroke markers fill"
       d="m 39.158331,129.11667 v 6.34998"
       id="path146587-0"
       sodipodi:nodetypes="cc" />
    <path
       style="fill:none;stroke:#000000;stroke-width:0.396875;stroke-linejoin:round;stroke-dasharray:none;paint-order:stroke markers fill"
       d="m 37.041661,146.04998 h 4.23334"
       id="path146589-5" />
    <path
       style="fill:none;stroke:#000000;stroke-width:0.396875;stroke-linejoin:round;stroke-dasharray:none;paint-order:stroke markers fill"
       d="m 39.158331,139.69997 v 6.35001"
       id="path146591-6"
       sodipodi:nodetypes="cc" />
    <path
       style="fill:none;stroke:#008000;stroke-width:0.396875;stroke-linejoin:round;stroke-dasharray:none;marker-end:url(#Arrow2-4-0);paint-order:stroke markers fill"
       d="m 6.3500011,136.52499 v 6.34999"
       id="path153139"
       sodipodi:nodetypes="cc" />
    <path
       style="fill:none;stroke:#008000;stroke-width:0.396875;stroke-linejoin:round;stroke-dasharray:none;marker-end:url(#Arrow2-4-0);paint-order:stroke markers fill"
       d="m 4.2333311,136.52499 v 6.34999"
       id="path153141"
       sodipodi:nodetypes="cc" />
    <path
       style="fill:none;stroke:#000000;stroke-width:0.132292;stroke-linejoin:round;stroke-dasharray:0.264583, 0.132292;stroke-dashoffset:0;paint-order:stroke markers fill"
       d="m 4.2333311,152.39996 v -2.11667"
       id="path161440"
       sodipodi:nodetypes="cc" />
    <path
       style="fill:none;stroke:#000000;stroke-width:0.132292;stroke-linejoin:round;stroke-dasharray:0.264583, 0.132292;stroke-dashoffset:0;paint-order:stroke markers fill"
       d="m 21.166671,152.39996 v -4.23334"
       id="path161442"
       sodipodi:nodetypes="cc" />
    <path
       style="fill:none;stroke:#000000;stroke-width:0.132292;stroke-linejoin:round;stroke-dasharray:0.264583, 0.132292;stroke-dashoffset:0;paint-order:stroke markers fill"
       d="M 33.866671,152.39996 V 130.17497"
       id="path161444"
       sodipodi:nodetypes="cc" />
    <path
       style="fill:none;stroke:#000000;stroke-width:0.132292;stroke-linejoin:round;stroke-dasharray:0.264583, 0.132292;stroke-dashoffset:0;paint-order:stroke markers fill"
       d="m 21.166671,146.04996 h 15.875"
       id="path161446"
       sodipodi:nodetypes="cc" />
    <path
       style="fill:none;stroke:#000000;stroke-width:0.132292;stroke-linejoin:round;stroke-dasharray:0.264583, 0.132292;stroke-dashoffset:0;paint-order:stroke markers fill"
       d="M 4.2333311,136.52497 H 21.166671"
       id="path163570-8-5"
       sodipodi:nodetypes="cc" />
    <path
       style="fill:none;stroke:#000000;stroke-width:0.264583;stroke-linejoin:round;stroke-dasharray:none;paint-order:stroke markers fill"
       d="m 33.866666,128.05829 v 2.11667"
       id="path93228" />
  </g>
</svg>
