<?xml version="1.0" encoding="UTF-8" standalone="no"?>
<!-- Created with Inkscape (http://www.inkscape.org/) -->

<svg
   width="192"
   height="160.00002"
   viewBox="0 0 50.799998 42.333338"
   version="1.1"
   id="svg5"
   sodipodi:docname="g02.svg"
   inkscape:version="1.2.1 (9c6d41e410, 2022-07-14)"
   xmlns:inkscape="http://www.inkscape.org/namespaces/inkscape"
   xmlns:sodipodi="http://sodipodi.sourceforge.net/DTD/sodipodi-0.dtd"
   xmlns="http://www.w3.org/2000/svg"
   xmlns:svg="http://www.w3.org/2000/svg">
  <sodipodi:namedview
     id="namedview7"
     pagecolor="#ffffff"
     bordercolor="#000000"
     borderopacity="0.25"
     inkscape:showpageshadow="false"
     inkscape:pageopacity="0.0"
     inkscape:pagecheckerboard="false"
     inkscape:deskcolor="#d1d1d1"
     inkscape:document-units="px"
     showgrid="true"
     inkscape:zoom="1.4142136"
     inkscape:cx="152.02795"
     inkscape:cy="190.56527"
     inkscape:window-width="1920"
     inkscape:window-height="1050"
     inkscape:window-x="0"
     inkscape:window-y="18"
     inkscape:window-maximized="1"
     inkscape:current-layer="layer1"
     showguides="true">
    <inkscape:grid
       type="xygrid"
       id="grid1223"
       spacingx="1.0583333"
       spacingy="1.0583333"
       empspacing="4"
       originx="6.1035155e-06"
       originy="-42.333335" />
    <sodipodi:guide
       position="-152.39999,84.666672"
       orientation="0,-1"
       id="guide1694"
       inkscape:locked="false" />
    <sodipodi:guide
       position="-152.39999,84.666672"
       orientation="1,0"
       id="guide1696"
       inkscape:locked="false" />
    <sodipodi:guide
       position="-101.59999,84.666682"
       orientation="1,0"
       id="guide21735"
       inkscape:locked="false" />
    <sodipodi:guide
       position="-152.39999,42.333332"
       orientation="0,-1"
       id="guide21941"
       inkscape:locked="false" />
    <sodipodi:guide
       position="-50.800001,84.666682"
       orientation="1,0"
       id="guide24413"
       inkscape:locked="false" />
    <sodipodi:guide
       position="-152.39999,2.0848109e-06"
       orientation="0,-1"
       id="guide35496"
       inkscape:locked="false" />
    <sodipodi:guide
       position="8.4304356e-06,84.666662"
       orientation="1,0"
       id="guide50631"
       inkscape:locked="false" />
    <sodipodi:guide
       position="-152.39999,-38.099998"
       orientation="0,-1"
       id="guide53352"
       inkscape:locked="false" />
    <sodipodi:guide
       position="-152.39999,-76.199987"
       orientation="0,-1"
       id="guide159195"
       inkscape:locked="false" />
    <sodipodi:guide
       position="-84.66666,-76.199987"
       orientation="1,0"
       id="guide500405"
       inkscape:locked="false" />
    <sodipodi:guide
       position="-152.39999,-118.53332"
       orientation="0,-1"
       id="guide503869"
       inkscape:locked="false" />
    <sodipodi:guide
       position="-16.933332,-118.53332"
       orientation="1,0"
       id="guide515144"
       inkscape:locked="false" />
    <sodipodi:guide
       position="50.799998,-118.53332"
       orientation="1,0"
       id="guide645019"
       inkscape:locked="false" />
    <sodipodi:guide
       position="-93.133326,-156.63332"
       orientation="1,0"
       id="guide686712"
       inkscape:locked="false" />
    <sodipodi:guide
       position="-152.39999,-156.63332"
       orientation="0,-1"
       id="guide686714"
       inkscape:locked="false" />
    <sodipodi:guide
       position="-33.866662,-156.63332"
       orientation="1,0"
       id="guide765939"
       inkscape:locked="false" />
    <sodipodi:guide
       position="25.399998,-156.63332"
       orientation="1,0"
       id="guide816936"
       inkscape:locked="false" />
    <sodipodi:guide
       position="101.6,-76.199985"
       orientation="1,0"
       id="guide839718"
       inkscape:locked="false" />
  </sodipodi:namedview>
  <defs
     id="defs2">
    <marker
       style="overflow:visible"
       id="Arrow2"
       refX="0"
       refY="0"
       orient="auto-start-reverse"
       inkscape:stockid="Arrow2"
       markerWidth="4"
       markerHeight="2.4000001"
       viewBox="0 0 7.7 5.6"
       inkscape:isstock="true"
       inkscape:collect="always"
       preserveAspectRatio="xMidYMid">
      <path
         transform="scale(0.7)"
         d="M -2,-4 9,0 -2,4 c 2,-2.33 2,-5.66 0,-8 z"
         style="fill:context-stroke;fill-rule:evenodd;stroke:none"
         id="arrow2L" />
    </marker>
    <clipPath
       id="clipPath2215">
      <path
         d="M 0,0 H 11 V 7.597656 H 0 Z m 0,0"
         id="path897" />
    </clipPath>
    <clipPath
       id="clipPath8952">
      <path
         d="M 0,0 H 11.816406 V 7.453125 H 0 Z m 0,0"
         id="path4309" />
    </clipPath>
    <clipPath
       id="clipPath7255">
      <path
         d="M 0,0 H 31 V 10.910156 H 0 Z m 0,0"
         id="path6767" />
    </clipPath>
    <clipPath
       id="clipPath4945">
      <path
         d="m 36,3 h 6 v 7.910156 h -6 z m 0,0"
         id="path448" />
    </clipPath>
    <clipPath
       id="clipPath834">
      <path
         d="m 42,0 h 2 v 10.910156 h -2 z m 0,0"
         id="path9986" />
    </clipPath>
    <clipPath
       id="clipPath9558">
      <path
         d="m 7,3 h 3 V 9.089844 H 7 Z m 0,0"
         id="path73396" />
    </clipPath>
    <clipPath
       id="clipPath87">
      <path
         d="m 6,3 h 5 V 9.089844 H 6 Z m 0,0"
         id="path92991" />
    </clipPath>
    <clipPath
       id="clipPath9302">
      <path
         d="M 5,2 H 9 V 6.554688 H 5 Z m 0,0"
         id="path62991" />
    </clipPath>
  </defs>
  <g
     inkscape:label="Capa 1"
     inkscape:groupmode="layer"
     id="layer1"
     transform="translate(-152.39999,-42.333332)">
    <rect
       style="fill:#ffffff;stroke:none;stroke-width:0.264583;stroke-linejoin:round;stroke-dasharray:none;stroke-dashoffset:0;paint-order:stroke markers fill"
       id="rect423935"
       width="50.799999"
       height="42.333336"
       x="152.39999"
       y="42.333332" />
    <path
       style="fill:none;stroke:#000000;stroke-width:0.264583;stroke-linejoin:round;stroke-dasharray:none;paint-order:stroke markers fill"
       d="m 158.74998,50.800001 19.05,19.05 19.05,-19.05"
       id="path31218"
       sodipodi:nodetypes="ccc" />
    <path
       style="fill:none;stroke:#000000;stroke-width:0.264583;stroke-linejoin:round;stroke-dasharray:none;paint-order:stroke markers fill"
       d="m 177.79998,50.800001 v 22.225"
       id="path31220"
       sodipodi:nodetypes="cc" />
    <rect
       style="fill:none;stroke:#000000;stroke-width:0.264583;stroke-linejoin:round;stroke-dasharray:none;paint-order:stroke markers fill"
       id="rect31222"
       width="6.3500013"
       height="6.3499985"
       x="174.62498"
       y="73.024986" />
    <path
       style="fill:none;stroke:#0000ff;stroke-width:0.264583;stroke-linejoin:round;stroke-dasharray:none;paint-order:stroke markers fill"
       id="path31224"
       sodipodi:type="arc"
       sodipodi:cx="158.74998"
       sodipodi:cy="50.800003"
       sodipodi:rx="6.3499999"
       sodipodi:ry="6.3499999"
       sodipodi:start="0"
       sodipodi:end="0.78539816"
       sodipodi:open="true"
       sodipodi:arc-type="arc"
       d="m 165.09998,50.800003 a 6.3499999,6.3499999 0 0 1 -1.85987,4.490128" />
    <path
       style="fill:none;stroke:#0000ff;stroke-width:0.264583;stroke-linejoin:round;stroke-dasharray:none;paint-order:stroke markers fill"
       id="path31226"
       sodipodi:type="arc"
       sodipodi:cx="196.84999"
       sodipodi:cy="50.800003"
       sodipodi:rx="6.3499999"
       sodipodi:ry="6.3499999"
       sodipodi:start="2.3561945"
       sodipodi:end="3.1415927"
       sodipodi:arc-type="arc"
       d="m 192.35986,55.290131 a 6.3499999,6.3499999 0 0 1 -1.85987,-4.490128"
       sodipodi:open="true" />
    <rect
       style="fill:none;stroke:#000000;stroke-width:0.264583;stroke-linejoin:round;stroke-dasharray:none;paint-order:stroke markers fill"
       id="rect31228"
       width="42.333332"
       height="2.1166666"
       x="156.63333"
       y="48.683334" />
    <path
       style="fill:none;stroke:#000000;stroke-width:0.264583;stroke-linejoin:round;stroke-dasharray:none;paint-order:stroke markers fill"
       d="m 156.63332,50.800001 c 2.11666,-2.116666 2.11666,-2.116666 2.11666,-2.116666"
       id="path31230" />
    <path
       style="fill:none;stroke:#000000;stroke-width:0.264583;stroke-linejoin:round;stroke-dasharray:none;paint-order:stroke markers fill"
       d="m 157.69165,50.800001 c 2.11667,-2.116666 2.11667,-2.116666 2.11667,-2.116666"
       id="path31232" />
    <path
       style="fill:none;stroke:#000000;stroke-width:0.264583;stroke-linejoin:round;stroke-dasharray:none;paint-order:stroke markers fill"
       d="m 158.74998,50.800001 c 2.11667,-2.116666 2.11667,-2.116666 2.11667,-2.116666"
       id="path31234" />
    <path
       style="fill:none;stroke:#000000;stroke-width:0.264583;stroke-linejoin:round;stroke-dasharray:none;paint-order:stroke markers fill"
       d="m 159.80832,50.800001 c 2.11666,-2.116666 2.11666,-2.116666 2.11666,-2.116666"
       id="path31236" />
    <path
       style="fill:none;stroke:#000000;stroke-width:0.264583;stroke-linejoin:round;stroke-dasharray:none;paint-order:stroke markers fill"
       d="m 160.86665,50.800001 c 2.11667,-2.116666 2.11667,-2.116666 2.11667,-2.116666"
       id="path31238" />
    <path
       style="fill:none;stroke:#000000;stroke-width:0.264583;stroke-linejoin:round;stroke-dasharray:none;paint-order:stroke markers fill"
       d="m 161.92498,50.800001 c 2.11667,-2.116666 2.11667,-2.116666 2.11667,-2.116666"
       id="path31240" />
    <path
       style="fill:none;stroke:#000000;stroke-width:0.264583;stroke-linejoin:round;stroke-dasharray:none;paint-order:stroke markers fill"
       d="m 162.98332,50.800001 c 2.11666,-2.116666 2.11666,-2.116666 2.11666,-2.116666"
       id="path31242" />
    <path
       style="fill:none;stroke:#000000;stroke-width:0.264583;stroke-linejoin:round;stroke-dasharray:none;paint-order:stroke markers fill"
       d="m 164.04165,50.800001 c 2.11667,-2.116666 2.11667,-2.116666 2.11667,-2.116666"
       id="path31244" />
    <path
       style="fill:none;stroke:#000000;stroke-width:0.264583;stroke-linejoin:round;stroke-dasharray:none;paint-order:stroke markers fill"
       d="m 156.63332,49.741668 1.05833,-1.058333"
       id="path31246"
       sodipodi:nodetypes="cc" />
    <path
       style="fill:none;stroke:#000000;stroke-width:0.264583;stroke-linejoin:round;stroke-dasharray:none;paint-order:stroke markers fill"
       d="m 165.09998,50.800001 c 2.11667,-2.116666 2.11667,-2.116666 2.11667,-2.116666"
       id="path31248" />
    <path
       style="fill:none;stroke:#000000;stroke-width:0.264583;stroke-linejoin:round;stroke-dasharray:none;paint-order:stroke markers fill"
       d="m 166.15832,50.800001 c 2.11666,-2.116666 2.11666,-2.116666 2.11666,-2.116666"
       id="path31250" />
    <path
       style="fill:none;stroke:#000000;stroke-width:0.264583;stroke-linejoin:round;stroke-dasharray:none;paint-order:stroke markers fill"
       d="m 167.21665,50.800001 c 2.11667,-2.116666 2.11667,-2.116666 2.11667,-2.116666"
       id="path31252" />
    <path
       style="fill:none;stroke:#000000;stroke-width:0.264583;stroke-linejoin:round;stroke-dasharray:none;paint-order:stroke markers fill"
       d="m 168.27498,50.800001 c 2.11667,-2.116666 2.11667,-2.116666 2.11667,-2.116666"
       id="path31254" />
    <path
       style="fill:none;stroke:#000000;stroke-width:0.264583;stroke-linejoin:round;stroke-dasharray:none;paint-order:stroke markers fill"
       d="m 169.33332,50.800001 c 2.11666,-2.116666 2.11666,-2.116666 2.11666,-2.116666"
       id="path31256" />
    <path
       style="fill:none;stroke:#000000;stroke-width:0.264583;stroke-linejoin:round;stroke-dasharray:none;paint-order:stroke markers fill"
       d="m 170.39165,50.800001 c 2.11667,-2.116666 2.11667,-2.116666 2.11667,-2.116666"
       id="path31258" />
    <path
       style="fill:none;stroke:#000000;stroke-width:0.264583;stroke-linejoin:round;stroke-dasharray:none;paint-order:stroke markers fill"
       d="m 171.44998,50.800001 c 2.11667,-2.116666 2.11667,-2.116666 2.11667,-2.116666"
       id="path31260" />
    <path
       style="fill:none;stroke:#000000;stroke-width:0.264583;stroke-linejoin:round;stroke-dasharray:none;paint-order:stroke markers fill"
       d="m 172.50832,50.800001 c 2.11666,-2.116666 2.11666,-2.116666 2.11666,-2.116666"
       id="path31262" />
    <path
       style="fill:none;stroke:#000000;stroke-width:0.264583;stroke-linejoin:round;stroke-dasharray:none;paint-order:stroke markers fill"
       d="m 173.56665,50.800001 c 2.11667,-2.116666 2.11667,-2.116666 2.11667,-2.116666"
       id="path31264" />
    <path
       style="fill:none;stroke:#000000;stroke-width:0.264583;stroke-linejoin:round;stroke-dasharray:none;paint-order:stroke markers fill"
       d="m 174.62498,50.800001 c 2.11667,-2.116666 2.11667,-2.116666 2.11667,-2.116666"
       id="path31266" />
    <path
       style="fill:none;stroke:#000000;stroke-width:0.264583;stroke-linejoin:round;stroke-dasharray:none;paint-order:stroke markers fill"
       d="m 175.68332,50.800001 c 2.11666,-2.116666 2.11666,-2.116666 2.11666,-2.116666"
       id="path31268" />
    <path
       style="fill:none;stroke:#000000;stroke-width:0.264583;stroke-linejoin:round;stroke-dasharray:none;paint-order:stroke markers fill"
       d="m 176.74165,50.800001 c 2.11667,-2.116666 2.11667,-2.116666 2.11667,-2.116666"
       id="path31270" />
    <path
       style="fill:none;stroke:#000000;stroke-width:0.264583;stroke-linejoin:round;stroke-dasharray:none;paint-order:stroke markers fill"
       d="m 177.79998,50.800001 c 2.11667,-2.116666 2.11667,-2.116666 2.11667,-2.116666"
       id="path31272" />
    <path
       style="fill:none;stroke:#000000;stroke-width:0.264583;stroke-linejoin:round;stroke-dasharray:none;paint-order:stroke markers fill"
       d="m 178.85832,50.800001 c 2.11666,-2.116666 2.11666,-2.116666 2.11666,-2.116666"
       id="path31274" />
    <path
       style="fill:none;stroke:#000000;stroke-width:0.264583;stroke-linejoin:round;stroke-dasharray:none;paint-order:stroke markers fill"
       d="m 179.91665,50.800001 c 2.11667,-2.116666 2.11667,-2.116666 2.11667,-2.116666"
       id="path31276" />
    <path
       style="fill:none;stroke:#000000;stroke-width:0.264583;stroke-linejoin:round;stroke-dasharray:none;paint-order:stroke markers fill"
       d="m 180.97498,50.800001 c 2.11667,-2.116666 2.11667,-2.116666 2.11667,-2.116666"
       id="path31278" />
    <path
       style="fill:none;stroke:#000000;stroke-width:0.264583;stroke-linejoin:round;stroke-dasharray:none;paint-order:stroke markers fill"
       d="m 182.03332,50.800001 c 2.11666,-2.116666 2.11666,-2.116666 2.11666,-2.116666"
       id="path31280" />
    <path
       style="fill:none;stroke:#000000;stroke-width:0.264583;stroke-linejoin:round;stroke-dasharray:none;paint-order:stroke markers fill"
       d="m 183.09165,50.800001 c 2.11667,-2.116666 2.11667,-2.116666 2.11667,-2.116666"
       id="path31282" />
    <path
       style="fill:none;stroke:#000000;stroke-width:0.264583;stroke-linejoin:round;stroke-dasharray:none;paint-order:stroke markers fill"
       d="m 184.14998,50.800001 c 2.11667,-2.116666 2.11667,-2.116666 2.11667,-2.116666"
       id="path31284" />
    <path
       style="fill:none;stroke:#000000;stroke-width:0.264583;stroke-linejoin:round;stroke-dasharray:none;paint-order:stroke markers fill"
       d="m 185.20832,50.800001 c 2.11666,-2.116666 2.11666,-2.116666 2.11666,-2.116666"
       id="path31286" />
    <path
       style="fill:none;stroke:#000000;stroke-width:0.264583;stroke-linejoin:round;stroke-dasharray:none;paint-order:stroke markers fill"
       d="m 186.26665,50.800001 c 2.11667,-2.116666 2.11667,-2.116666 2.11667,-2.116666"
       id="path31288" />
    <path
       style="fill:none;stroke:#000000;stroke-width:0.264583;stroke-linejoin:round;stroke-dasharray:none;paint-order:stroke markers fill"
       d="m 187.32498,50.800001 c 2.11667,-2.116666 2.11667,-2.116666 2.11667,-2.116666"
       id="path31290" />
    <path
       style="fill:none;stroke:#000000;stroke-width:0.264583;stroke-linejoin:round;stroke-dasharray:none;paint-order:stroke markers fill"
       d="m 188.38332,50.800001 c 2.11666,-2.116666 2.11666,-2.116666 2.11666,-2.116666"
       id="path31292" />
    <path
       style="fill:none;stroke:#000000;stroke-width:0.264583;stroke-linejoin:round;stroke-dasharray:none;paint-order:stroke markers fill"
       d="m 189.44165,50.800001 c 2.11667,-2.116666 2.11667,-2.116666 2.11667,-2.116666"
       id="path31294" />
    <path
       style="fill:none;stroke:#000000;stroke-width:0.264583;stroke-linejoin:round;stroke-dasharray:none;paint-order:stroke markers fill"
       d="m 190.49998,50.800001 c 2.11667,-2.116666 2.11667,-2.116666 2.11667,-2.116666"
       id="path31296" />
    <path
       style="fill:none;stroke:#000000;stroke-width:0.264583;stroke-linejoin:round;stroke-dasharray:none;paint-order:stroke markers fill"
       d="m 191.55832,50.800001 c 2.11666,-2.116666 2.11666,-2.116666 2.11666,-2.116666"
       id="path31298" />
    <path
       style="fill:none;stroke:#000000;stroke-width:0.264583;stroke-linejoin:round;stroke-dasharray:none;paint-order:stroke markers fill"
       d="m 192.61665,50.800001 c 2.11667,-2.116666 2.11667,-2.116666 2.11667,-2.116666"
       id="path31300" />
    <path
       style="fill:none;stroke:#000000;stroke-width:0.264583;stroke-linejoin:round;stroke-dasharray:none;paint-order:stroke markers fill"
       d="m 193.67498,50.800001 c 2.11667,-2.116666 2.11667,-2.116666 2.11667,-2.116666"
       id="path31302" />
    <path
       style="fill:none;stroke:#000000;stroke-width:0.264583;stroke-linejoin:round;stroke-dasharray:none;paint-order:stroke markers fill"
       d="m 194.73332,50.800001 c 2.11666,-2.116666 2.11666,-2.116666 2.11666,-2.116666"
       id="path31304" />
    <path
       style="fill:none;stroke:#000000;stroke-width:0.264583;stroke-linejoin:round;stroke-dasharray:none;paint-order:stroke markers fill"
       d="m 195.79165,50.800001 c 2.11667,-2.116666 2.11667,-2.116666 2.11667,-2.116666"
       id="path31306" />
    <path
       style="fill:none;stroke:#000000;stroke-width:0.264583;stroke-linejoin:round;stroke-dasharray:none;paint-order:stroke markers fill"
       d="m 196.84998,50.800001 c 2.11667,-2.116666 2.11667,-2.116666 2.11667,-2.116666"
       id="path31308" />
    <path
       style="fill:none;stroke:#000000;stroke-width:0.264583;stroke-linejoin:round;stroke-dasharray:none;paint-order:stroke markers fill"
       d="m 197.90832,50.800001 1.05833,-1.058333"
       id="path31310"
       sodipodi:nodetypes="cc" />
    <path
       style="fill:none;stroke:#ff0000;stroke-width:0.396875;stroke-linejoin:round;stroke-dasharray:none;marker-end:url(#Arrow2);paint-order:stroke markers fill"
       d="M 177.79998,69.850001 V 80.433334"
       id="path31312"
       sodipodi:nodetypes="cc" />
    <path
       style="fill:none;stroke:#ff0000;stroke-width:0.396875;stroke-linejoin:round;stroke-dasharray:none;marker-end:url(#Arrow2);paint-order:stroke markers fill"
       d="m 177.79998,69.850001 8.46667,-8.466667"
       id="path31314"
       sodipodi:nodetypes="cc" />
    <path
       style="fill:none;stroke:#ff0000;stroke-width:0.396875;stroke-linejoin:round;stroke-dasharray:none;marker-end:url(#Arrow2);paint-order:stroke markers fill"
       d="m 177.79998,69.850001 -8.46666,-8.466667"
       id="path31316"
       sodipodi:nodetypes="cc" />
    <path
       style="fill:none;stroke:#ff0000;stroke-width:0.396875;stroke-linejoin:round;stroke-dasharray:none;marker-end:url(#Arrow2);paint-order:stroke markers fill"
       d="M 177.79998,69.850001 V 61.383334"
       id="path31360"
       sodipodi:nodetypes="cc" />
    <g
       inkscape:label=""
       transform="matrix(0.80906088,0,0,0.80906088,176.25247,75.136637)"
       id="g120753">
      <g
         id="g120751"
         transform="matrix(0.352778,0,0,0.352778,-0.209462,-6.6143e-4)">
        <g
           clip-path="url(#clipPath8952)"
           clip-rule="nonzero"
           id="g120749">
          <g
             style="fill:#000000;fill-opacity:1"
             id="g120747">
            <g
               id="g120745"
               transform="translate(0,7.4549999)">
              <path
                 style="stroke:none"
                 d="m 10,-6.1875 c 0.28125,-0.46875 0.53125,-0.875 1.21875,-0.921875 0.109375,-0.015625 0.21875,-0.015625 0.21875,-0.21875 0,-0.046875 -0.04687,-0.125 -0.140625,-0.125 -0.265625,0 -0.5625,0.03125 -0.84375,0.03125 -0.359375,0 -0.765625,-0.03125 -1.125,-0.03125 -0.0625,0 -0.203125,0 -0.203125,0.21875 0,0.109375 0.09375,0.125 0.15625,0.125 0.265625,0.015625 0.640625,0.09375 0.640625,0.421875 0,0.125 -0.046875,0.203125 -0.140625,0.359375 L 6.84375,-1.1875 6.4375,-6.59375 c -0.015625,-0.21875 -0.03125,-0.5 0.765625,-0.515625 0.1875,0 0.296875,0 0.296875,-0.21875 0,-0.109375 -0.125,-0.125 -0.171875,-0.125 -0.4375,0 -0.890625,0.03125 -1.328125,0.03125 -0.25,0 -0.890625,-0.03125 -1.140625,-0.03125 -0.078125,0 -0.21875,0 -0.21875,0.21875 0,0.125 0.109375,0.125 0.265625,0.125 0.484375,0 0.5625,0.0625 0.578125,0.265625 L 5.546875,-6 2.796875,-1.1875 2.375,-6.71875 c 0,-0.125 0,-0.375 0.828125,-0.390625 0.109375,0 0.234375,0 0.234375,-0.21875 0,-0.125 -0.140625,-0.125 -0.15625,-0.125 -0.4375,0 -0.890625,0.03125 -1.34375,0.03125 -0.375,0 -0.765625,-0.03125 -1.140625,-0.03125 -0.0625,0 -0.203125,0 -0.203125,0.21875 0,0.125 0.109375,0.125 0.28125,0.125 0.546875,0 0.546875,0.09375 0.578125,0.40625 l 0.484375,6.65625 c 0.015625,0.203125 0.03125,0.28125 0.171875,0.28125 0.140625,0 0.171875,-0.0625 0.265625,-0.21875 l 3.203125,-5.5625 0.40625,5.5 C 6.015625,0.1875 6.03125,0.234375 6.15625,0.234375 6.296875,0.234375 6.375,0.125 6.421875,0.03125 Z m 0,0"
                 id="path120743" />
            </g>
          </g>
        </g>
      </g>
    </g>
    <g
       inkscape:label=""
       transform="matrix(0.80906088,0,0,0.80906088,169.43573,65.398938)"
       id="g120771"
       style="fill:#ff0000;stroke:none">
      <g
         id="g120769"
         transform="matrix(0.352778,0,0,0.352778,-0.0937066,-0.02271)"
         style="fill:#ff0000;stroke:none">
        <g
           style="fill:#ff0000;fill-opacity:1;stroke:none"
           id="g120759">
          <g
             id="g120757"
             transform="translate(0,7.4549999)"
             style="fill:#ff0000;stroke:none">
            <path
               style="fill:#ff0000;stroke:none"
               d="m 4.65625,-6.625 c 0.078125,-0.296875 0.125,-0.359375 0.25,-0.40625 C 5,-7.046875 5.359375,-7.046875 5.59375,-7.046875 c 1.109375,0 1.59375,0.046875 1.59375,0.890625 0,0.171875 -0.046875,0.59375 -0.09375,0.875 0,0.046875 -0.03125,0.171875 -0.03125,0.203125 0,0.078125 0.03125,0.15625 0.140625,0.15625 0.109375,0 0.140625,-0.09375 0.15625,-0.265625 L 7.65625,-7.078125 c 0.015625,-0.046875 0.015625,-0.15625 0.015625,-0.1875 0,-0.125 -0.109375,-0.125 -0.28125,-0.125 h -6.0625 c -0.265625,0 -0.265625,0.015625 -0.34375,0.21875 L 0.328125,-5.25 c -0.015625,0.03125 -0.0625,0.171875 -0.0625,0.203125 0,0.0625 0.046875,0.125 0.125,0.125 0.109375,0 0.125,-0.0625 0.1875,-0.234375 0.59375,-1.6875 0.875,-1.890625 2.484375,-1.890625 h 0.421875 c 0.3125,0 0.3125,0.046875 0.3125,0.125 0,0.078125 -0.03125,0.203125 -0.046875,0.234375 L 2.296875,-0.859375 C 2.1875,-0.453125 2.15625,-0.34375 1,-0.34375 c -0.40625,0 -0.46875,0 -0.46875,0.21875 0,0.125 0.125,0.125 0.1875,0.125 0.296875,0 0.59375,-0.015625 0.890625,-0.015625 0.3125,0 0.625,-0.015625 0.9375,-0.015625 0.296875,0 0.609375,0.015625 0.90625,0.015625 0.3125,0 0.640625,0.015625 0.9375,0.015625 0.109375,0 0.25,0 0.25,-0.21875 0,-0.125 -0.09375,-0.125 -0.375,-0.125 -0.28125,0 -0.421875,0 -0.703125,-0.015625 -0.3125,-0.03125 -0.40625,-0.0625 -0.40625,-0.234375 0,-0.015625 0,-0.078125 0.046875,-0.234375 z m 0,0"
               id="path120755" />
          </g>
        </g>
        <g
           clip-path="url(#clipPath9558)"
           clip-rule="nonzero"
           id="g120767"
           style="fill:#ff0000;stroke:none">
          <g
             style="fill:#ff0000;fill-opacity:1;stroke:none"
             id="g120765">
            <g
               id="g120763"
               transform="translate(6.375,9.0909996)"
               style="fill:#ff0000;stroke:none">
              <path
                 style="fill:#ff0000;stroke:none"
                 d="m 2.5,-5.078125 c 0,-0.21875 -0.015625,-0.21875 -0.234375,-0.21875 -0.328125,0.3125 -0.75,0.5 -1.5,0.5 v 0.265625 c 0.21875,0 0.640625,0 1.109375,-0.203125 v 4.078125 c 0,0.296875 -0.03125,0.390625 -0.78125,0.390625 H 0.8125 V 0 c 0.328125,-0.03125 1.015625,-0.03125 1.375,-0.03125 0.359375,0 1.046875,0 1.375,0.03125 V -0.265625 H 3.28125 c -0.75,0 -0.78125,-0.09375 -0.78125,-0.390625 z m 0,0"
                 id="path120761" />
            </g>
          </g>
        </g>
      </g>
    </g>
    <g
       inkscape:label=""
       transform="matrix(0.80906088,0,0,0.80906088,173.66019,57.814117)"
       id="g120789"
       style="fill:#ff0000;stroke:none">
      <g
         id="g120787"
         transform="matrix(0.352778,0,0,0.352778,-0.0937066,-0.02271)"
         style="fill:#ff0000;stroke:none">
        <g
           style="fill:#ff0000;fill-opacity:1;stroke:none"
           id="g120777">
          <g
             id="g120775"
             transform="translate(0,7.4549999)"
             style="fill:#ff0000;stroke:none">
            <path
               style="fill:#ff0000;stroke:none"
               d="m 4.65625,-6.625 c 0.078125,-0.296875 0.125,-0.359375 0.25,-0.40625 C 5,-7.046875 5.359375,-7.046875 5.59375,-7.046875 c 1.109375,0 1.59375,0.046875 1.59375,0.890625 0,0.171875 -0.046875,0.59375 -0.09375,0.875 0,0.046875 -0.03125,0.171875 -0.03125,0.203125 0,0.078125 0.03125,0.15625 0.140625,0.15625 0.109375,0 0.140625,-0.09375 0.15625,-0.265625 L 7.65625,-7.078125 c 0.015625,-0.046875 0.015625,-0.15625 0.015625,-0.1875 0,-0.125 -0.109375,-0.125 -0.28125,-0.125 h -6.0625 c -0.265625,0 -0.265625,0.015625 -0.34375,0.21875 L 0.328125,-5.25 c -0.015625,0.03125 -0.0625,0.171875 -0.0625,0.203125 0,0.0625 0.046875,0.125 0.125,0.125 0.109375,0 0.125,-0.0625 0.1875,-0.234375 0.59375,-1.6875 0.875,-1.890625 2.484375,-1.890625 h 0.421875 c 0.3125,0 0.3125,0.046875 0.3125,0.125 0,0.078125 -0.03125,0.203125 -0.046875,0.234375 L 2.296875,-0.859375 C 2.1875,-0.453125 2.15625,-0.34375 1,-0.34375 c -0.40625,0 -0.46875,0 -0.46875,0.21875 0,0.125 0.125,0.125 0.1875,0.125 0.296875,0 0.59375,-0.015625 0.890625,-0.015625 0.3125,0 0.625,-0.015625 0.9375,-0.015625 0.296875,0 0.609375,0.015625 0.90625,0.015625 0.3125,0 0.640625,0.015625 0.9375,0.015625 0.109375,0 0.25,0 0.25,-0.21875 0,-0.125 -0.09375,-0.125 -0.375,-0.125 -0.28125,0 -0.421875,0 -0.703125,-0.015625 -0.3125,-0.03125 -0.40625,-0.0625 -0.40625,-0.234375 0,-0.015625 0,-0.078125 0.046875,-0.234375 z m 0,0"
               id="path120773" />
          </g>
        </g>
        <g
           clip-path="url(#clipPath87)"
           clip-rule="nonzero"
           id="g120785"
           style="fill:#ff0000;stroke:none">
          <g
             style="fill:#ff0000;fill-opacity:1;stroke:none"
             id="g120783">
            <g
               id="g120781"
               transform="translate(6.375,9.0909996)"
               style="fill:#ff0000;stroke:none">
              <path
                 style="fill:#ff0000;stroke:none"
                 d="m 2.25,-1.625 c 0.125,-0.125 0.453125,-0.390625 0.59375,-0.5 0.484375,-0.453125 0.953125,-0.890625 0.953125,-1.609375 0,-0.953125 -0.796875,-1.5625 -1.78125,-1.5625 -0.96875,0 -1.59375,0.71875 -1.59375,1.4375 0,0.390625 0.3125,0.4375 0.421875,0.4375 0.171875,0 0.421875,-0.109375 0.421875,-0.421875 0,-0.40625 -0.40625,-0.40625 -0.5,-0.40625 C 1,-4.84375 1.53125,-5.03125 1.921875,-5.03125 c 0.734375,0 1.125,0.625 1.125,1.296875 0,0.828125 -0.578125,1.4375 -1.53125,2.390625 l -1,1.046875 C 0.421875,-0.21875 0.421875,-0.203125 0.421875,0 H 3.5625 l 0.234375,-1.421875 h -0.25 C 3.53125,-1.265625 3.46875,-0.875 3.375,-0.71875 c -0.046875,0.0625 -0.65625,0.0625 -0.78125,0.0625 H 1.171875 Z m 0,0"
                 id="path120779" />
            </g>
          </g>
        </g>
      </g>
    </g>
    <g
       inkscape:label=""
       transform="matrix(0.69480594,0,0,0.69480594,186.41121,52.1605)"
       id="g120811"
       style="fill:#0000ff">
      <g
         id="g120809"
         transform="matrix(0.352778,0,0,0.352778,-0.110243,5.73285e-4)"
         style="fill:#0000ff">
        <g
           clip-path="url(#clipPath2215)"
           clip-rule="nonzero"
           id="g120801"
           style="fill:#0000ff">
          <g
             style="fill:#0000ff;fill-opacity:1"
             id="g120799">
            <g
               id="g120793"
               transform="translate(0,7.598)"
               style="fill:#0000ff">
              <path
                 style="fill:#0000ff;stroke:none"
                 d="m 3.203125,-1.796875 v 0.953125 c 0,0.390625 -0.015625,0.5 -0.828125,0.5 H 2.15625 V 0 c 0.4375,-0.03125 1,-0.03125 1.46875,-0.03125 0.453125,0 1.03125,0 1.484375,0.03125 V -0.34375 H 4.875 c -0.8125,0 -0.828125,-0.109375 -0.828125,-0.5 v -0.953125 h 1.09375 v -0.34375 H 4.046875 V -7.09375 c 0,-0.21875 0,-0.296875 -0.171875,-0.296875 -0.09375,0 -0.140625,0 -0.21875,0.140625 L 0.3125,-2.140625 v 0.34375 z m 0.0625,-0.34375 h -2.65625 l 2.65625,-4.0625 z m 0,0"
                 id="path120791" />
            </g>
            <g
               id="g120797"
               transform="translate(5.4545498,7.598)"
               style="fill:#0000ff">
              <path
                 style="fill:#0000ff;stroke:none"
                 d="m 4.890625,-2.1875 c 0,-1.296875 -0.890625,-2.390625 -2.0625,-2.390625 -0.53125,0 -1,0.171875 -1.390625,0.546875 v -2.125 c 0.21875,0.078125 0.578125,0.140625 0.921875,0.140625 1.34375,0 2.109375,-0.984375 2.109375,-1.125 0,-0.0625 -0.03125,-0.125 -0.109375,-0.125 0,0 -0.03125,0 -0.078125,0.03125 -0.21875,0.109375 -0.765625,0.3125 -1.484375,0.3125 -0.4375,0 -0.9375,-0.0625 -1.453125,-0.296875 C 1.25,-7.25 1.234375,-7.25 1.203125,-7.25 1.09375,-7.25 1.09375,-7.171875 1.09375,-6.984375 v 3.21875 c 0,0.203125 0,0.28125 0.15625,0.28125 0.078125,0 0.109375,-0.03125 0.140625,-0.09375 0.125,-0.171875 0.53125,-0.765625 1.40625,-0.765625 0.578125,0 0.84375,0.5 0.9375,0.703125 0.171875,0.40625 0.1875,0.828125 0.1875,1.375 0,0.375 0,1.03125 -0.25,1.484375 C 3.40625,-0.34375 3,-0.0625 2.5,-0.0625 c -0.796875,0 -1.421875,-0.578125 -1.609375,-1.21875 0.03125,0 0.0625,0.015625 0.1875,0.015625 0.359375,0 0.546875,-0.265625 0.546875,-0.53125 0,-0.265625 -0.1875,-0.53125 -0.546875,-0.53125 -0.15625,0 -0.53125,0.078125 -0.53125,0.578125 0,0.9375 0.75,1.984375 1.96875,1.984375 1.265625,0 2.375,-1.046875 2.375,-2.421875 z m 0,0"
                 id="path120795" />
            </g>
          </g>
        </g>
        <g
           style="fill:#0000ff;fill-opacity:1"
           id="g120807">
          <g
             id="g120805"
             transform="translate(10.909,3.6389999)"
             style="fill:#0000ff">
            <path
               style="fill:#0000ff;stroke:none"
               d="m 3.75,-1.984375 c 0,-0.921875 -0.734375,-1.65625 -1.640625,-1.65625 -0.90625,0 -1.640625,0.734375 -1.640625,1.65625 0,0.90625 0.734375,1.640625 1.640625,1.640625 0.90625,0 1.640625,-0.734375 1.640625,-1.640625 z m -1.640625,1.28125 c -0.703125,0 -1.265625,-0.578125 -1.265625,-1.28125 0,-0.71875 0.5625,-1.296875 1.265625,-1.296875 0.71875,0 1.28125,0.578125 1.28125,1.296875 0,0.703125 -0.5625,1.28125 -1.28125,1.28125 z m 0,0"
               id="path120803" />
          </g>
        </g>
      </g>
    </g>
    <g
       inkscape:label=""
       transform="matrix(0.69480594,0,0,0.69480594,166.00745,52.049187)"
       id="g120833"
       style="fill:#0000ff">
      <g
         id="g120831"
         transform="matrix(0.352778,0,0,0.352778,-0.16413485,0.16078015)"
         style="fill:#0000ff">
        <g
           clip-path="url(#clipPath2215)"
           clip-rule="nonzero"
           id="g120823"
           style="fill:#0000ff">
          <g
             style="fill:#0000ff;fill-opacity:1"
             id="g120821">
            <g
               id="g120815"
               transform="translate(0,7.598)"
               style="fill:#0000ff">
              <path
                 style="fill:#0000ff;stroke:none"
                 d="m 3.203125,-1.796875 v 0.953125 c 0,0.390625 -0.015625,0.5 -0.828125,0.5 H 2.15625 V 0 c 0.4375,-0.03125 1,-0.03125 1.46875,-0.03125 0.453125,0 1.03125,0 1.484375,0.03125 V -0.34375 H 4.875 c -0.8125,0 -0.828125,-0.109375 -0.828125,-0.5 v -0.953125 h 1.09375 v -0.34375 H 4.046875 V -7.09375 c 0,-0.21875 0,-0.296875 -0.171875,-0.296875 -0.09375,0 -0.140625,0 -0.21875,0.140625 L 0.3125,-2.140625 v 0.34375 z m 0.0625,-0.34375 h -2.65625 l 2.65625,-4.0625 z m 0,0"
                 id="path120813" />
            </g>
            <g
               id="g120819"
               transform="translate(5.4545498,7.598)"
               style="fill:#0000ff">
              <path
                 style="fill:#0000ff;stroke:none"
                 d="m 4.890625,-2.1875 c 0,-1.296875 -0.890625,-2.390625 -2.0625,-2.390625 -0.53125,0 -1,0.171875 -1.390625,0.546875 v -2.125 c 0.21875,0.078125 0.578125,0.140625 0.921875,0.140625 1.34375,0 2.109375,-0.984375 2.109375,-1.125 0,-0.0625 -0.03125,-0.125 -0.109375,-0.125 0,0 -0.03125,0 -0.078125,0.03125 -0.21875,0.109375 -0.765625,0.3125 -1.484375,0.3125 -0.4375,0 -0.9375,-0.0625 -1.453125,-0.296875 C 1.25,-7.25 1.234375,-7.25 1.203125,-7.25 1.09375,-7.25 1.09375,-7.171875 1.09375,-6.984375 v 3.21875 c 0,0.203125 0,0.28125 0.15625,0.28125 0.078125,0 0.109375,-0.03125 0.140625,-0.09375 0.125,-0.171875 0.53125,-0.765625 1.40625,-0.765625 0.578125,0 0.84375,0.5 0.9375,0.703125 0.171875,0.40625 0.1875,0.828125 0.1875,1.375 0,0.375 0,1.03125 -0.25,1.484375 C 3.40625,-0.34375 3,-0.0625 2.5,-0.0625 c -0.796875,0 -1.421875,-0.578125 -1.609375,-1.21875 0.03125,0 0.0625,0.015625 0.1875,0.015625 0.359375,0 0.546875,-0.265625 0.546875,-0.53125 0,-0.265625 -0.1875,-0.53125 -0.546875,-0.53125 -0.15625,0 -0.53125,0.078125 -0.53125,0.578125 0,0.9375 0.75,1.984375 1.96875,1.984375 1.265625,0 2.375,-1.046875 2.375,-2.421875 z m 0,0"
                 id="path120817" />
            </g>
          </g>
        </g>
        <g
           style="fill:#0000ff;fill-opacity:1"
           id="g120829">
          <g
             id="g120827"
             transform="translate(10.909,3.6389999)"
             style="fill:#0000ff">
            <path
               style="fill:#0000ff;stroke:none"
               d="m 3.75,-1.984375 c 0,-0.921875 -0.734375,-1.65625 -1.640625,-1.65625 -0.90625,0 -1.640625,0.734375 -1.640625,1.65625 0,0.90625 0.734375,1.640625 1.640625,1.640625 0.90625,0 1.640625,-0.734375 1.640625,-1.640625 z m -1.640625,1.28125 c -0.703125,0 -1.265625,-0.578125 -1.265625,-1.28125 0,-0.71875 0.5625,-1.296875 1.265625,-1.296875 0.71875,0 1.28125,0.578125 1.28125,1.296875 0,0.703125 -0.5625,1.28125 -1.28125,1.28125 z m 0,0"
               id="path120825" />
          </g>
        </g>
      </g>
    </g>
    <g
       inkscape:label=""
       transform="matrix(0.69480594,0,0,0.69480594,183.1666,75.15679)"
       id="g120887"
       style="fill:#0000ff">
      <g
         id="g120885"
         transform="matrix(0.352778,0,0,0.352778,-0.341753,-0.00357193)"
         style="fill:#0000ff">
        <g
           clip-path="url(#clipPath7255)"
           clip-rule="nonzero"
           id="g120861"
           style="fill:#0000ff">
          <g
             style="fill:#0000ff;fill-opacity:1"
             id="g120859">
            <g
               id="g120837"
               transform="translate(0,8.1820002)"
               style="fill:#0000ff">
              <path
                 style="fill:#0000ff;stroke:none"
                 d="m 3.203125,-6.984375 c 0,-0.25 0,-0.28125 -0.25,-0.28125 C 2.28125,-6.5625 1.3125,-6.5625 0.96875,-6.5625 v 0.328125 c 0.21875,0 0.859375,0 1.4375,-0.28125 v 5.65625 c 0,0.390625 -0.046875,0.515625 -1.015625,0.515625 H 1.03125 V 0 c 0.390625,-0.03125 1.328125,-0.03125 1.765625,-0.03125 0.4375,0 1.390625,0 1.765625,0.03125 V -0.34375 H 4.21875 c -0.984375,0 -1.015625,-0.109375 -1.015625,-0.515625 z m 0,0"
                 id="path120835" />
            </g>
            <g
               id="g120841"
               transform="translate(5.4545498,8.1820002)"
               style="fill:#0000ff">
              <path
                 style="fill:#0000ff;stroke:none"
                 d="m 5.015625,-3.484375 c 0,-0.875 -0.046875,-1.75 -0.4375,-2.5625 -0.5,-1.046875 -1.390625,-1.21875 -1.859375,-1.21875 -0.640625,0 -1.4375,0.28125 -1.890625,1.296875 -0.34375,0.75 -0.40625,1.609375 -0.40625,2.484375 0,0.8125 0.046875,1.796875 0.5,2.625 0.46875,0.875 1.265625,1.09375 1.796875,1.09375 0.578125,0 1.421875,-0.21875 1.890625,-1.265625 0.359375,-0.75 0.40625,-1.59375 0.40625,-2.453125 z M 2.71875,0 C 2.296875,0 1.640625,-0.265625 1.453125,-1.3125 c -0.125,-0.65625 -0.125,-1.671875 -0.125,-2.3125 0,-0.6875 0,-1.40625 0.09375,-2 C 1.625,-6.921875 2.4375,-7.03125 2.71875,-7.03125 c 0.359375,0 1.078125,0.203125 1.28125,1.28125 0.109375,0.609375 0.109375,1.4375 0.109375,2.125 0,0.828125 0,1.5625 -0.125,2.265625 C 3.828125,-0.328125 3.203125,0 2.71875,0 Z m 0,0"
                 id="path120839" />
            </g>
            <g
               id="g120845"
               transform="translate(10.9091,8.1820002)"
               style="fill:#0000ff">
              <path
                 style="fill:#0000ff;stroke:none"
                 d="m 5.015625,-3.484375 c 0,-0.875 -0.046875,-1.75 -0.4375,-2.5625 -0.5,-1.046875 -1.390625,-1.21875 -1.859375,-1.21875 -0.640625,0 -1.4375,0.28125 -1.890625,1.296875 -0.34375,0.75 -0.40625,1.609375 -0.40625,2.484375 0,0.8125 0.046875,1.796875 0.5,2.625 0.46875,0.875 1.265625,1.09375 1.796875,1.09375 0.578125,0 1.421875,-0.21875 1.890625,-1.265625 0.359375,-0.75 0.40625,-1.59375 0.40625,-2.453125 z M 2.71875,0 C 2.296875,0 1.640625,-0.265625 1.453125,-1.3125 c -0.125,-0.65625 -0.125,-1.671875 -0.125,-2.3125 0,-0.6875 0,-1.40625 0.09375,-2 C 1.625,-6.921875 2.4375,-7.03125 2.71875,-7.03125 c 0.359375,0 1.078125,0.203125 1.28125,1.28125 0.109375,0.609375 0.109375,1.4375 0.109375,2.125 0,0.828125 0,1.5625 -0.125,2.265625 C 3.828125,-0.328125 3.203125,0 2.71875,0 Z m 0,0"
                 id="path120843" />
            </g>
            <g
               id="g120849"
               transform="translate(16.363649,8.1820002)"
               style="fill:#0000ff">
              <path
                 style="fill:#0000ff;stroke:none"
                 d="m 5.015625,-3.484375 c 0,-0.875 -0.046875,-1.75 -0.4375,-2.5625 -0.5,-1.046875 -1.390625,-1.21875 -1.859375,-1.21875 -0.640625,0 -1.4375,0.28125 -1.890625,1.296875 -0.34375,0.75 -0.40625,1.609375 -0.40625,2.484375 0,0.8125 0.046875,1.796875 0.5,2.625 0.46875,0.875 1.265625,1.09375 1.796875,1.09375 0.578125,0 1.421875,-0.21875 1.890625,-1.265625 0.359375,-0.75 0.40625,-1.59375 0.40625,-2.453125 z M 2.71875,0 C 2.296875,0 1.640625,-0.265625 1.453125,-1.3125 c -0.125,-0.65625 -0.125,-1.671875 -0.125,-2.3125 0,-0.6875 0,-1.40625 0.09375,-2 C 1.625,-6.921875 2.4375,-7.03125 2.71875,-7.03125 c 0.359375,0 1.078125,0.203125 1.28125,1.28125 0.109375,0.609375 0.109375,1.4375 0.109375,2.125 0,0.828125 0,1.5625 -0.125,2.265625 C 3.828125,-0.328125 3.203125,0 2.71875,0 Z m 0,0"
                 id="path120847" />
            </g>
            <g
               id="g120853"
               transform="translate(21.818199,8.1820002)"
               style="fill:#0000ff">
              <path
                 style="fill:#0000ff;stroke:none"
                 d="m 5.015625,-3.484375 c 0,-0.875 -0.046875,-1.75 -0.4375,-2.5625 -0.5,-1.046875 -1.390625,-1.21875 -1.859375,-1.21875 -0.640625,0 -1.4375,0.28125 -1.890625,1.296875 -0.34375,0.75 -0.40625,1.609375 -0.40625,2.484375 0,0.8125 0.046875,1.796875 0.5,2.625 0.46875,0.875 1.265625,1.09375 1.796875,1.09375 0.578125,0 1.421875,-0.21875 1.890625,-1.265625 0.359375,-0.75 0.40625,-1.59375 0.40625,-2.453125 z M 2.71875,0 C 2.296875,0 1.640625,-0.265625 1.453125,-1.3125 c -0.125,-0.65625 -0.125,-1.671875 -0.125,-2.3125 0,-0.6875 0,-1.40625 0.09375,-2 C 1.625,-6.921875 2.4375,-7.03125 2.71875,-7.03125 c 0.359375,0 1.078125,0.203125 1.28125,1.28125 0.109375,0.609375 0.109375,1.4375 0.109375,2.125 0,0.828125 0,1.5625 -0.125,2.265625 C 3.828125,-0.328125 3.203125,0 2.71875,0 Z m 0,0"
                 id="path120851" />
            </g>
            <g
               id="g120857"
               transform="translate(27.272751,8.1820002)"
               style="fill:#0000ff">
              <path
                 style="fill:#0000ff;stroke:none"
                 d="M 2.78125,2.71875 V 2.296875 H 1.71875 V -7.75 h 1.0625 v -0.421875 h -1.5 V 2.71875 Z m 0,0"
                 id="path120855" />
            </g>
          </g>
        </g>
        <g
           style="fill:#0000ff;fill-opacity:1"
           id="g120867">
          <g
             id="g120865"
             transform="translate(30.302999,8.1820002)"
             style="fill:#0000ff">
            <path
               style="fill:#0000ff;stroke:none"
               d="m 3.125,-7.453125 c 0,0 0,-0.109375 -0.140625,-0.109375 -0.25,0 -1.046875,0.078125 -1.328125,0.109375 -0.078125,0 -0.203125,0.015625 -0.203125,0.21875 0,0.125 0.09375,0.125 0.265625,0.125 0.515625,0 0.53125,0.078125 0.53125,0.1875 l -0.03125,0.21875 -1.578125,6.28125 C 0.59375,-0.265625 0.59375,-0.25 0.59375,-0.1875 c 0,0.25 0.21875,0.3125 0.328125,0.3125 C 1.0625,0.125 1.21875,0.015625 1.28125,-0.109375 1.34375,-0.203125 1.828125,-2.21875 1.890625,-2.5 c 0.375,0.03125 1.265625,0.203125 1.265625,0.921875 0,0.078125 0,0.125 -0.03125,0.234375 -0.015625,0.140625 -0.03125,0.265625 -0.03125,0.390625 0,0.640625 0.421875,1.078125 1,1.078125 0.328125,0 0.625,-0.171875 0.859375,-0.578125 C 5.21875,-0.9375 5.34375,-1.53125 5.34375,-1.5625 c 0,-0.109375 -0.09375,-0.109375 -0.125,-0.109375 -0.109375,0 -0.125,0.046875 -0.15625,0.203125 -0.21875,0.796875 -0.46875,1.34375 -0.953125,1.34375 -0.203125,0 -0.34375,-0.109375 -0.34375,-0.5 0,-0.1875 0.046875,-0.4375 0.078125,-0.625 0.046875,-0.171875 0.046875,-0.21875 0.046875,-0.328125 0,-0.71875 -0.6875,-1.03125 -1.609375,-1.140625 0.34375,-0.203125 0.6875,-0.546875 0.9375,-0.8125 0.515625,-0.578125 1.03125,-1.046875 1.5625,-1.046875 0.0625,0 0.078125,0 0.09375,0.015625 C 5,-4.546875 5.015625,-4.546875 5.109375,-4.484375 5.125,-4.46875 5.125,-4.453125 5.140625,-4.4375 4.625,-4.40625 4.53125,-3.984375 4.53125,-3.84375 c 0,0.171875 0.109375,0.375 0.40625,0.375 0.28125,0 0.609375,-0.234375 0.609375,-0.671875 0,-0.3125 -0.25,-0.6875 -0.75,-0.6875 -0.296875,0 -0.8125,0.09375 -1.59375,0.96875 C 2.828125,-3.453125 2.40625,-3.015625 2,-2.84375 Z m 0,0"
               id="path120863" />
          </g>
        </g>
        <g
           clip-path="url(#clipPath4945)"
           clip-rule="nonzero"
           id="g120875"
           style="fill:#0000ff">
          <g
             style="fill:#0000ff;fill-opacity:1"
             id="g120873">
            <g
               id="g120871"
               transform="translate(36.320461,8.1820002)"
               style="fill:#0000ff">
              <path
                 style="fill:#0000ff;stroke:none"
                 d="m 5.140625,-4.109375 c 0,-0.0625 0.03125,-0.125 0.03125,-0.203125 0,-0.1875 -0.140625,-0.296875 -0.3125,-0.296875 -0.109375,0 -0.40625,0.078125 -0.453125,0.46875 -0.203125,-0.390625 -0.578125,-0.6875 -1.015625,-0.6875 -1.234375,0 -2.59375,1.53125 -2.59375,3.109375 C 0.796875,-0.640625 1.46875,0 2.25,0 2.890625,0 3.40625,-0.515625 3.515625,-0.625 3.296875,0.34375 3.15625,0.796875 3.15625,0.8125 3.125,0.921875 2.75,2 1.59375,2 1.390625,2 1.03125,1.984375 0.71875,1.890625 1.046875,1.78125 1.171875,1.5 1.171875,1.3125 c 0,-0.171875 -0.125,-0.375 -0.421875,-0.375 -0.234375,0 -0.59375,0.203125 -0.59375,0.640625 0,0.4375 0.40625,0.65625 1.453125,0.65625 1.375,0 2.15625,-0.84375 2.3125,-1.5 z m -1.421875,2.71875 c -0.0625,0.28125 -0.3125,0.546875 -0.5625,0.765625 -0.21875,0.1875 -0.5625,0.390625 -0.875,0.390625 -0.546875,0 -0.703125,-0.578125 -0.703125,-1.015625 0,-0.515625 0.3125,-1.796875 0.609375,-2.359375 0.28125,-0.53125 0.75,-0.96875 1.21875,-0.96875 0.71875,0 0.875,0.875 0.875,0.9375 0,0.046875 -0.03125,0.125 -0.03125,0.15625 z m 0,0"
                 id="path120869" />
            </g>
          </g>
        </g>
        <g
           clip-path="url(#clipPath834)"
           clip-rule="nonzero"
           id="g120883"
           style="fill:#0000ff">
          <g
             style="fill:#0000ff;fill-opacity:1"
             id="g120881">
            <g
               id="g120879"
               transform="translate(41.919998,8.1820002)"
               style="fill:#0000ff">
              <path
                 style="fill:#0000ff;stroke:none"
                 d="m 1.734375,-8.171875 h -1.5 V -7.75 h 1.0625 V 2.296875 h -1.0625 V 2.71875 h 1.5 z m 0,0"
                 id="path120877" />
            </g>
          </g>
        </g>
      </g>
    </g>
    <g
       inkscape:label=""
       transform="matrix(1.106621,0,0,1.106621,183.90415,65.43803)"
       id="g124773"
       style="fill:#ff0000">
      <g
         id="g124771"
         transform="matrix(0.352778,0,0,0.352778,-0.071658,-0.0195351)"
         style="fill:#ff0000">
        <g
           style="fill:#ff0000;fill-opacity:1"
           id="g124761">
          <g
             id="g124759"
             transform="translate(0,5.4460001)"
             style="fill:#ff0000">
            <path
               style="fill:#ff0000;stroke:none"
               d="M 3.609375,-4.828125 C 3.671875,-5.109375 3.6875,-5.125 4.015625,-5.125 h 0.59375 c 0.828125,0 0.921875,0.265625 0.921875,0.65625 0,0.203125 -0.046875,0.546875 -0.046875,0.59375 -0.015625,0.078125 -0.03125,0.15625 -0.03125,0.171875 0,0.09375 0.078125,0.125 0.125,0.125 0.09375,0 0.125,-0.046875 0.140625,-0.203125 l 0.21875,-1.5 c 0,-0.109375 -0.09375,-0.109375 -0.234375,-0.109375 H 1 c -0.1875,0 -0.21875,0 -0.265625,0.171875 L 0.25,-3.84375 c -0.015625,0.046875 -0.046875,0.109375 -0.046875,0.15625 0,0.0625 0.0625,0.109375 0.125,0.109375 0.09375,0 0.109375,-0.046875 0.15625,-0.171875 C 0.9375,-5.03125 1.15625,-5.125 2.375,-5.125 h 0.3125 c 0.234375,0 0.25,0.015625 0.25,0.078125 0,0.015625 -0.03125,0.171875 -0.046875,0.203125 l -1.046875,4.1875 c -0.078125,0.3125 -0.09375,0.390625 -0.921875,0.390625 -0.265625,0 -0.34375,0 -0.34375,0.15625 0,0 0,0.109375 0.140625,0.109375 0.21875,0 0.765625,-0.03125 0.984375,-0.03125 H 2.375 c 0.21875,0 0.78125,0.03125 1,0.03125 0.0625,0 0.1875,0 0.1875,-0.15625 0,-0.109375 -0.09375,-0.109375 -0.296875,-0.109375 -0.203125,0 -0.265625,0 -0.46875,-0.015625 -0.25,-0.015625 -0.28125,-0.046875 -0.28125,-0.15625 0,-0.03125 0,-0.0625 0.03125,-0.140625 z m 0,0"
               id="path124757" />
          </g>
        </g>
        <g
           clip-path="url(#clipPath9302)"
           clip-rule="nonzero"
           id="g124769"
           style="fill:#ff0000">
          <g
             style="fill:#ff0000;fill-opacity:1"
             id="g124767">
            <g
               id="g124765"
               transform="translate(4.9299998,6.553)"
               style="fill:#ff0000">
              <path
                 style="fill:#ff0000;stroke:none"
                 d="m 1.765625,-1.984375 c 0.5,0 0.84375,0.34375 0.84375,0.953125 0,0.65625 -0.390625,0.9375 -0.828125,0.9375 C 1.609375,-0.09375 1,-0.125 0.734375,-0.46875 0.96875,-0.5 1.0625,-0.65625 1.0625,-0.8125 c 0,-0.203125 -0.140625,-0.34375 -0.34375,-0.34375 -0.15625,0 -0.34375,0.109375 -0.34375,0.359375 0,0.59375 0.65625,0.921875 1.421875,0.921875 0.890625,0 1.46875,-0.5625 1.46875,-1.15625 0,-0.4375 -0.328125,-0.90625 -1.046875,-1.078125 0.484375,-0.15625 0.859375,-0.546875 0.859375,-1.03125 0,-0.484375 -0.5625,-0.84375 -1.28125,-0.84375 -0.703125,0 -1.234375,0.328125 -1.234375,0.8125 0,0.265625 0.203125,0.328125 0.328125,0.328125 0.15625,0 0.3125,-0.09375 0.3125,-0.3125 0,-0.1875 -0.125,-0.296875 -0.296875,-0.3125 0.28125,-0.3125 0.828125,-0.3125 0.890625,-0.3125 0.296875,0 0.6875,0.140625 0.6875,0.640625 0,0.328125 -0.1875,0.90625 -0.796875,0.9375 -0.109375,0 -0.265625,0.015625 -0.3125,0.015625 -0.0625,0.015625 -0.125,0.015625 -0.125,0.109375 0,0.09375 0.0625,0.09375 0.15625,0.09375 z m 0,0"
                 id="path124763" />
            </g>
          </g>
        </g>
      </g>
    </g>
  </g>
</svg>
