<?xml version="1.0" encoding="UTF-8" standalone="no"?>
<!-- Created with Inkscape (http://www.inkscape.org/) -->

<svg
   width="191.99998"
   height="144.00002"
   viewBox="0 0 50.799994 38.100005"
   version="1.1"
   id="svg5"
   sodipodi:docname="base.svg"
   inkscape:version="1.2.1 (9c6d41e410, 2022-07-14)"
   xmlns:inkscape="http://www.inkscape.org/namespaces/inkscape"
   xmlns:sodipodi="http://sodipodi.sourceforge.net/DTD/sodipodi-0.dtd"
   xmlns="http://www.w3.org/2000/svg"
   xmlns:svg="http://www.w3.org/2000/svg">
  <sodipodi:namedview
     id="namedview7"
     pagecolor="#ffffff"
     bordercolor="#000000"
     borderopacity="0.25"
     inkscape:showpageshadow="false"
     inkscape:pageopacity="0.0"
     inkscape:pagecheckerboard="false"
     inkscape:deskcolor="#d1d1d1"
     inkscape:document-units="px"
     showgrid="true"
     inkscape:zoom="2.8284271"
     inkscape:cx="158.74547"
     inkscape:cy="673.34244"
     inkscape:window-width="1920"
     inkscape:window-height="1050"
     inkscape:window-x="1920"
     inkscape:window-y="18"
     inkscape:window-maximized="1"
     inkscape:current-layer="layer1"
     showguides="true">
    <inkscape:grid
       type="xygrid"
       id="grid1223"
       spacingx="1.0583333"
       spacingy="1.0583333"
       empspacing="4"
       originx="3.1554436e-30"
       originy="-42.333334" />
    <sodipodi:guide
       position="-50.800004,237.06668"
       orientation="0,-1"
       id="guide1694"
       inkscape:locked="false" />
    <sodipodi:guide
       position="-50.800004,237.06668"
       orientation="1,0"
       id="guide1696"
       inkscape:locked="false" />
    <sodipodi:guide
       position="-6.3106232e-06,237.06669"
       orientation="1,0"
       id="guide21735"
       inkscape:locked="false" />
    <sodipodi:guide
       position="-50.800004,194.73334"
       orientation="0,-1"
       id="guide21941"
       inkscape:locked="false" />
    <sodipodi:guide
       position="50.799986,237.06669"
       orientation="1,0"
       id="guide24413"
       inkscape:locked="false" />
    <sodipodi:guide
       position="-50.800004,152.40001"
       orientation="0,-1"
       id="guide35496"
       inkscape:locked="false" />
    <sodipodi:guide
       position="101.6,237.06667"
       orientation="1,0"
       id="guide50631"
       inkscape:locked="false" />
    <sodipodi:guide
       position="-50.800004,114.30001"
       orientation="0,-1"
       id="guide53352"
       inkscape:locked="false" />
    <sodipodi:guide
       position="-50.800004,76.200022"
       orientation="0,-1"
       id="guide159195"
       inkscape:locked="false" />
    <sodipodi:guide
       position="16.933327,76.200022"
       orientation="1,0"
       id="guide500405"
       inkscape:locked="false" />
    <sodipodi:guide
       position="-50.800004,38.10002"
       orientation="0,-1"
       id="guide503869"
       inkscape:locked="false" />
    <sodipodi:guide
       position="84.666656,33.866686"
       orientation="1,0"
       id="guide515144"
       inkscape:locked="false" />
    <sodipodi:guide
       position="152.39999,33.866684"
       orientation="1,0"
       id="guide645019"
       inkscape:locked="false" />
    <sodipodi:guide
       position="8.4666607,-4.2333152"
       orientation="1,0"
       id="guide686712"
       inkscape:locked="false" />
    <sodipodi:guide
       position="-50.800004,2.1238042e-05"
       orientation="0,-1"
       id="guide686714"
       inkscape:locked="false" />
    <sodipodi:guide
       position="67.733326,-4.2333142"
       orientation="1,0"
       id="guide765939"
       inkscape:locked="false" />
    <sodipodi:guide
       position="126.99999,-4.2333142"
       orientation="1,0"
       id="guide816936"
       inkscape:locked="false" />
    <sodipodi:guide
       position="203.19999,76.200024"
       orientation="1,0"
       id="guide839718"
       inkscape:locked="false" />
  </sodipodi:namedview>
  <defs
     id="defs2">
    <clipPath
       id="clipPath9902">
      <path
         d="M 0,0 H 25 V 10.910156 H 0 Z m 0,0"
         id="path4289" />
    </clipPath>
    <clipPath
       id="clipPath1047">
      <path
         d="m 31,3 h 6 v 7.910156 h -6 z m 0,0"
         id="path4752" />
    </clipPath>
    <clipPath
       id="clipPath8779">
      <path
         d="m 36,0 h 3 v 10.910156 h -3 z m 0,0"
         id="path4012" />
    </clipPath>
    <clipPath
       id="clipPath1547">
      <path
         d="M 0,0 H 9 V 10.910156 H 0 Z m 0,0"
         id="path5093" />
    </clipPath>
    <clipPath
       id="clipPath6104">
      <path
         d="m 18,0 h 2 v 10.910156 h -2 z m 0,0"
         id="path1337" />
    </clipPath>
    <clipPath
       id="clipPath3850">
      <path
         d="M 0,0 H 9 V 10.910156 H 0 Z m 0,0"
         id="path7450" />
    </clipPath>
    <clipPath
       id="clipPath852">
      <path
         d="m 18,0 h 2 v 10.910156 h -2 z m 0,0"
         id="path3371" />
    </clipPath>
    <clipPath
       id="clipPath1497">
      <path
         d="M 0,0 H 20 V 10.910156 H 0 Z m 0,0"
         id="path1329" />
    </clipPath>
    <clipPath
       id="clipPath3207">
      <path
         d="m 25,3 h 6 v 7.910156 h -6 z m 0,0"
         id="path480" />
    </clipPath>
    <clipPath
       id="clipPath1709">
      <path
         d="m 31,0 h 2 v 10.910156 h -2 z m 0,0"
         id="path5212" />
    </clipPath>
    <marker
       style="overflow:visible"
       id="Arrow2-4-3-6"
       refX="0"
       refY="0"
       orient="auto-start-reverse"
       inkscape:stockid="Arrow2"
       markerWidth="3.3000002"
       markerHeight="2.4000001"
       viewBox="0 0 7.7 5.6"
       inkscape:isstock="true"
       inkscape:collect="always"
       preserveAspectRatio="xMidYMid">
      <path
         transform="scale(0.7)"
         d="M -2,-4 9,0 -2,4 c 2,-2.33 2,-5.66 0,-8 z"
         style="fill:context-stroke;fill-rule:evenodd;stroke:none"
         id="arrow2L-4-9-0" />
    </marker>
    <marker
       style="overflow:visible"
       id="Arrow2-4-0-4-7"
       refX="0"
       refY="0"
       orient="auto-start-reverse"
       inkscape:stockid="Arrow2"
       markerWidth="3.3000002"
       markerHeight="2.4000001"
       viewBox="0 0 7.7 5.6"
       inkscape:isstock="true"
       inkscape:collect="always"
       preserveAspectRatio="xMidYMid">
      <path
         transform="scale(0.7)"
         d="M -2,-4 9,0 -2,4 c 2,-2.33 2,-5.66 0,-8 z"
         style="fill:context-stroke;fill-rule:evenodd;stroke:none"
         id="arrow2L-4-2-7-5" />
    </marker>
    <marker
       style="overflow:visible"
       id="Arrow2-4-37"
       refX="0"
       refY="0"
       orient="auto-start-reverse"
       inkscape:stockid="Arrow2"
       markerWidth="3.3000002"
       markerHeight="2.4000001"
       viewBox="0 0 7.7 5.6"
       inkscape:isstock="true"
       inkscape:collect="always"
       preserveAspectRatio="xMidYMid">
      <path
         transform="scale(0.7)"
         d="M -2,-4 9,0 -2,4 c 2,-2.33 2,-5.66 0,-8 z"
         style="fill:context-stroke;fill-rule:evenodd;stroke:none"
         id="arrow2L-4-93" />
    </marker>
    <clipPath
       id="clipPath8014-4-4-4">
      <path
         d="M 0,0 H 6.34375 V 5.445312 H 0 Z m 0,0"
         id="path56221-0-8-1" />
    </clipPath>
    <clipPath
       id="clipPath1682-9-5-9">
      <path
         d="M 0,0 H 6.78125 V 5.445312 H 0 Z m 0,0"
         id="path41491-1-8-0" />
    </clipPath>
    <clipPath
       id="clipPath8690-9-2-9">
      <path
         d="M 0,0 H 6.597656 V 5.445312 H 0 Z m 0,0"
         id="path32056-6-6-8" />
    </clipPath>
    <clipPath
       id="clipPath77-2-0-8">
      <path
         d="M 0,0 H 7 V 5.445312 H 0 Z m 0,0"
         id="path36808-5-6-5" />
    </clipPath>
    <clipPath
       id="clipPath4544-0-8">
      <path
         d="M 0,0 H 6.652344 V 5.445312 H 0 Z m 0,0"
         id="path26047-9-4" />
    </clipPath>
    <clipPath
       id="clipPath2155">
      <path
         d="M 0,0 H 15 V 7.96875 H 0 Z m 0,0"
         id="path63647" />
    </clipPath>
    <clipPath
       id="clipPath81735">
      <path
         d="m 19,2 h 5 v 5.96875 h -5 z m 0,0"
         id="path48344" />
    </clipPath>
    <clipPath
       id="clipPath19104">
      <path
         d="m 24,0 h 2 v 7.96875 h -2 z m 0,0"
         id="path37242" />
    </clipPath>
  </defs>
  <g
     inkscape:label="Capa 1"
     inkscape:groupmode="layer"
     id="layer1"
     transform="translate(-50.800004,-198.96664)">
    <rect
       style="fill:#ffffff;stroke:none;stroke-width:0.264583;stroke-linejoin:round;stroke-dasharray:none;stroke-dashoffset:0;paint-order:stroke markers fill"
       id="rect427327"
       width="50.799999"
       height="38.099998"
       x="50.800003"
       y="198.96663"
       inkscape:export-filename="g06.svg"
       inkscape:export-xdpi="96"
       inkscape:export-ydpi="96" />
    <rect
       style="fill:#cccccc;stroke:#000000;stroke-width:0.132292;stroke-linejoin:round;stroke-dasharray:none;paint-order:stroke markers fill"
       id="rect373998"
       width="33.866665"
       height="2.1166687"
       x="55.03334"
       y="216.9583" />
    <path
       style="fill:none;stroke:#000000;stroke-width:0.264583;stroke-linejoin:round;paint-order:stroke markers fill"
       d="m 55.033332,213.78329 v 8.46667"
       id="path5089-23" />
    <g
       inkscape:label=""
       transform="translate(87.77829,214.60224)"
       id="g112742-9-3"
       style="fill:#ff0000">
      <g
         id="g112740-4-7"
         transform="matrix(0.352778,0,0,0.352778,-0.137804,-0.0085108)"
         style="fill:#ff0000">
        <g
           clip-path="url(#clipPath4544-0-8)"
           clip-rule="nonzero"
           id="g112738-5-1"
           style="fill:#ff0000">
          <g
             style="fill:#ff0000;fill-opacity:1"
             id="g112736-1-3">
            <g
               id="g112734-0-8"
               transform="translate(0,5.4460001)"
               style="fill:#ff0000">
              <path
                 style="fill:#ff0000;stroke:none"
                 d="M 5.96875,-1.84375 C 5.984375,-1.875 6,-1.921875 6,-1.953125 c 0,-0.015625 0,-0.125 -0.125,-0.125 -0.078125,0 -0.09375,0.03125 -0.171875,0.203125 -0.5,1.171875 -0.875,1.609375 -2.1875,1.609375 h -1.4375 C 2,-0.28125 1.96875,-0.28125 1.96875,-0.328125 c 0,-0.0625 0.015625,-0.140625 0.046875,-0.1875 L 2.5625,-2.6875 h 0.84375 c 0.59375,0 0.703125,0.09375 0.703125,0.359375 0,0 0,0.125 -0.046875,0.359375 -0.015625,0.03125 -0.03125,0.078125 -0.03125,0.109375 0,0 0.015625,0.109375 0.125,0.109375 0.09375,0 0.109375,-0.046875 0.140625,-0.1875 L 4.71875,-3.609375 C 4.71875,-3.625 4.75,-3.75 4.75,-3.765625 4.75,-3.84375 4.6875,-3.875 4.625,-3.875 c -0.09375,0 -0.109375,0.046875 -0.140625,0.1875 -0.171875,0.625 -0.375,0.734375 -1.0625,0.734375 H 2.625 l 0.46875,-1.90625 C 3.171875,-5.140625 3.171875,-5.15625 3.5,-5.15625 h 1.25 c 0.953125,0 1.265625,0.1875 1.265625,0.890625 0,0.171875 -0.046875,0.375 -0.046875,0.515625 0,0.09375 0.0625,0.140625 0.125,0.140625 0.109375,0 0.109375,-0.078125 0.125,-0.203125 L 6.359375,-5.171875 C 6.375,-5.21875 6.375,-5.265625 6.375,-5.3125 6.375,-5.421875 6.28125,-5.421875 6.140625,-5.421875 H 1.9375 c -0.15625,0 -0.25,0 -0.25,0.15625 0,0.109375 0.109375,0.109375 0.234375,0.109375 0.03125,0 0.171875,0 0.3125,0.015625 0.171875,0.015625 0.1875,0.046875 0.1875,0.109375 0,0.046875 -0.015625,0.09375 -0.03125,0.125 l -1.0625,4.28125 c -0.078125,0.296875 -0.09375,0.359375 -0.6875,0.359375 -0.140625,0 -0.25,0 -0.25,0.15625 C 0.390625,0 0.5,0 0.640625,0 h 4.3125 c 0.1875,0 0.203125,0 0.265625,-0.140625 z m 0,0"
                 id="path112732-3-0" />
            </g>
          </g>
        </g>
      </g>
    </g>
    <g
       inkscape:label=""
       transform="translate(83.62157,214.59672)"
       id="g108841-1-6-9"
       style="fill:#ff0000">
      <g
         id="g108839-4-0-7"
         transform="matrix(0.352778,0,0,0.352778,-0.143316,-0.00299865)"
         style="fill:#ff0000">
        <g
           clip-path="url(#clipPath77-2-0-8)"
           clip-rule="nonzero"
           id="g108837-6-7-9"
           style="fill:#ff0000">
          <g
             style="fill:#ff0000;fill-opacity:1"
             id="g108835-9-0-9">
            <g
               id="g108833-4-1-3"
               transform="translate(0,5.4460001)"
               style="fill:#ff0000">
              <path
                 style="fill:#ff0000;stroke:none"
                 d="M 1.328125,-0.625 C 1.265625,-0.328125 1.25,-0.265625 0.65625,-0.265625 c -0.15625,0 -0.25,0 -0.25,0.15625 C 0.40625,0 0.515625,0 0.640625,0 h 2.75 c 1.671875,0 3.34375,-1.609375 3.34375,-3.390625 0,-1.21875 -0.8125,-2.046875 -2,-2.046875 h -2.78125 c -0.140625,0 -0.25,0 -0.25,0.140625 0,0.125 0.09375,0.125 0.234375,0.125 0.265625,0 0.5,0 0.5,0.125 0,0.03125 -0.015625,0.03125 -0.03125,0.140625 z M 3.09375,-4.890625 C 3.15625,-5.15625 3.171875,-5.171875 3.5,-5.171875 h 0.96875 c 0.921875,0 1.5625,0.53125 1.5625,1.5 0,0.265625 -0.125,1.5625 -0.8125,2.453125 C 4.875,-0.765625 4.1875,-0.265625 3.25,-0.265625 H 2.0625 C 1.984375,-0.28125 1.953125,-0.28125 1.953125,-0.328125 c 0,-0.0625 0.015625,-0.140625 0.03125,-0.1875 z m 0,0"
                 id="path108831-2-0-2" />
            </g>
          </g>
        </g>
      </g>
    </g>
    <g
       inkscape:label=""
       transform="translate(55.817755,214.50853)"
       id="g97234-4-1-4"
       style="fill:#ff0000">
      <g
         id="g97232-4-3-3"
         transform="matrix(0.352778,0,0,0.352778,-0.110243,0.0851958)"
         style="fill:#ff0000">
        <g
           clip-path="url(#clipPath8014-4-4-4)"
           clip-rule="nonzero"
           id="g97230-9-7-7"
           style="fill:#ff0000">
          <g
             style="fill:#ff0000;fill-opacity:1"
             id="g97228-9-7-1">
            <g
               id="g97226-3-2-2"
               transform="translate(0,5.4460001)"
               style="fill:#ff0000">
              <path
                 style="fill:#ff0000;stroke:none"
                 d="M 1.46875,-0.953125 C 1.109375,-0.359375 0.78125,-0.28125 0.5,-0.265625 0.421875,-0.25 0.3125,-0.25 0.3125,-0.109375 0.3125,-0.09375 0.328125,0 0.4375,0 0.5,0 0.546875,-0.03125 1.109375,-0.03125 1.65625,-0.03125 1.828125,0 1.875,0 c 0.03125,0 0.15625,0 0.15625,-0.15625 0,-0.09375 -0.109375,-0.109375 -0.140625,-0.109375 -0.171875,0 -0.34375,-0.0625 -0.34375,-0.25 0,-0.109375 0.078125,-0.21875 0.21875,-0.453125 L 2.3125,-1.84375 H 4.5 L 4.65625,-0.5 c 0,0.125 -0.140625,0.234375 -0.515625,0.234375 -0.109375,0 -0.21875,0 -0.21875,0.15625 0,0 0,0.109375 0.140625,0.109375 0.078125,0 0.375,-0.015625 0.453125,-0.03125 h 0.5 C 5.734375,-0.03125 5.859375,0 5.921875,0 5.953125,0 6.09375,0 6.09375,-0.15625 c 0,-0.109375 -0.109375,-0.109375 -0.234375,-0.109375 -0.4375,0 -0.453125,-0.0625 -0.46875,-0.265625 L 4.75,-5.453125 C 4.734375,-5.640625 4.71875,-5.6875 4.59375,-5.6875 c -0.140625,0 -0.1875,0.078125 -0.25,0.15625 z M 2.484375,-2.109375 4.125,-4.71875 4.46875,-2.109375 Z m 0,0"
                 id="path97224-6-6-2" />
            </g>
          </g>
        </g>
      </g>
    </g>
    <g
       inkscape:label=""
       transform="translate(70.92488,214.59672)"
       id="g101087-0-4-0"
       style="fill:#ff0000">
      <g
         id="g101085-5-5-2"
         transform="matrix(0.352778,0,0,0.352778,-0.148828,-0.00299865)"
         style="fill:#ff0000">
        <g
           clip-path="url(#clipPath1682-9-5-9)"
           clip-rule="nonzero"
           id="g101083-0-2-1"
           style="fill:#ff0000">
          <g
             style="fill:#ff0000;fill-opacity:1"
             id="g101081-2-0-7">
            <g
               id="g101079-9-2-5"
               transform="translate(0,5.4460001)"
               style="fill:#ff0000">
              <path
                 style="fill:#ff0000;stroke:none"
                 d="m 1.34375,-0.625 c -0.0625,0.296875 -0.078125,0.359375 -0.671875,0.359375 -0.15625,0 -0.25,0 -0.25,0.15625 C 0.421875,0 0.53125,0 0.65625,0 H 3.625 C 4.9375,0 5.90625,-0.9375 5.90625,-1.703125 5.90625,-2.28125 5.40625,-2.75 4.609375,-2.84375 5.53125,-3.015625 6.328125,-3.625 6.328125,-4.328125 6.328125,-4.921875 5.75,-5.4375 4.75,-5.4375 H 1.96875 c -0.140625,0 -0.25,0 -0.25,0.140625 0,0.125 0.09375,0.125 0.234375,0.125 0.265625,0 0.5,0 0.5,0.125 0,0.03125 -0.015625,0.03125 -0.03125,0.140625 z m 1.25,-2.3125 0.484375,-1.953125 c 0.0625,-0.265625 0.078125,-0.28125 0.40625,-0.28125 H 4.625 c 0.78125,0 0.96875,0.5 0.96875,0.828125 0,0.671875 -0.734375,1.40625 -1.75,1.40625 z M 2.046875,-0.265625 C 1.96875,-0.28125 1.9375,-0.28125 1.9375,-0.328125 c 0,-0.0625 0.015625,-0.140625 0.03125,-0.1875 l 0.5625,-2.203125 h 1.625 c 0.734375,0 0.984375,0.5 0.984375,0.953125 0,0.78125 -0.765625,1.5 -1.71875,1.5 z m 0,0"
                 id="path101077-4-9-1" />
            </g>
          </g>
        </g>
      </g>
    </g>
    <g
       inkscape:label=""
       transform="translate(79.38603,214.53609)"
       id="g104956-3-6-7"
       style="fill:#ff0000">
      <g
         id="g104954-5-4-4"
         transform="matrix(0.352778,0,0,0.352778,-0.148828,0.057635)"
         style="fill:#ff0000">
        <g
           clip-path="url(#clipPath8690-9-2-9)"
           clip-rule="nonzero"
           id="g104952-1-6-1"
           style="fill:#ff0000">
          <g
             style="fill:#ff0000;fill-opacity:1"
             id="g104950-7-2-7">
            <g
               id="g104948-4-8-1"
               transform="translate(0,5.4460001)"
               style="fill:#ff0000">
              <path
                 style="fill:#ff0000;stroke:none"
                 d="m 6.34375,-5.390625 c 0,-0.03125 0.015625,-0.078125 0.015625,-0.125 0,-0.046875 -0.046875,-0.09375 -0.09375,-0.09375 -0.0625,0 -0.078125,0.015625 -0.140625,0.09375 L 5.5625,-4.90625 C 5.484375,-5 5.0625,-5.609375 4.140625,-5.609375 c -1.859375,0 -3.71875,1.71875 -3.71875,3.546875 0,1.390625 1.046875,2.234375 2.3125,2.234375 1.046875,0 1.9375,-0.640625 2.359375,-1.265625 0.265625,-0.390625 0.375,-0.765625 0.375,-0.8125 0,-0.078125 -0.046875,-0.109375 -0.125,-0.109375 -0.09375,0 -0.109375,0.046875 -0.125,0.125 -0.34375,1.109375 -1.421875,1.796875 -2.375,1.796875 -0.8125,0 -1.671875,-0.484375 -1.671875,-1.703125 0,-0.25 0.09375,-1.578125 0.984375,-2.578125 C 2.75,-5.046875 3.5625,-5.34375 4.1875,-5.34375 c 1.015625,0 1.421875,0.796875 1.421875,1.5625 0,0.109375 -0.03125,0.265625 -0.03125,0.359375 0,0.09375 0.109375,0.09375 0.140625,0.09375 0.09375,0 0.109375,-0.03125 0.140625,-0.171875 z m 0,0"
                 id="path104946-3-9-1" />
            </g>
          </g>
        </g>
      </g>
    </g>
    <g
       inkscape:label=""
       transform="matrix(0.56806002,0,0,0.56806002,65.79506,229.62537)"
       id="g374028"
       style="fill:#0000ff">
      <g
         id="g374026"
         transform="matrix(0.352778,0,0,0.352778,-0.159852,-0.00357193)"
         style="fill:#0000ff">
        <g
           clip-path="url(#clipPath1547)"
           clip-rule="nonzero"
           id="g374010"
           style="fill:#0000ff">
          <g
             style="fill:#0000ff;fill-opacity:1"
             id="g374008">
            <g
               id="g374002"
               transform="translate(0,8.1820002)"
               style="fill:#0000ff">
              <path
                 style="fill:#0000ff;stroke:none"
                 d="M 3.15625,-3.84375 C 4.0625,-4.140625 4.6875,-4.890625 4.6875,-5.765625 c 0,-0.890625 -0.953125,-1.5 -2,-1.5 -1.109375,0 -1.9375,0.65625 -1.9375,1.484375 0,0.359375 0.25,0.5625 0.5625,0.5625 0.328125,0 0.546875,-0.234375 0.546875,-0.546875 0,-0.546875 -0.5,-0.546875 -0.671875,-0.546875 C 1.53125,-6.84375 2.25,-6.984375 2.640625,-6.984375 3.09375,-6.984375 3.6875,-6.75 3.6875,-5.765625 3.6875,-5.640625 3.671875,-5 3.375,-4.53125 3.046875,-4 2.6875,-3.96875 2.40625,-3.953125 c -0.078125,0 -0.34375,0.03125 -0.421875,0.03125 -0.09375,0 -0.15625,0.015625 -0.15625,0.125 0,0.125 0.0625,0.125 0.25,0.125 H 2.5625 c 0.890625,0 1.296875,0.734375 1.296875,1.8125 0,1.484375 -0.75,1.796875 -1.234375,1.796875 -0.46875,0 -1.28125,-0.1875 -1.671875,-0.828125 0.390625,0.046875 0.71875,-0.1875 0.71875,-0.609375 0,-0.390625 -0.28125,-0.609375 -0.609375,-0.609375 -0.25,0 -0.609375,0.15625 -0.609375,0.640625 0,0.984375 1.015625,1.703125 2.203125,1.703125 1.328125,0 2.328125,-0.984375 2.328125,-2.09375 0,-0.90625 -0.6875,-1.75 -1.828125,-1.984375 z m 0,0"
                 id="path374000" />
            </g>
            <g
               id="g374006"
               transform="translate(5.4545498,8.1820002)"
               style="fill:#0000ff">
              <path
                 style="fill:#0000ff;stroke:none"
                 d="M 2.78125,2.71875 V 2.296875 H 1.71875 V -7.75 h 1.0625 v -0.421875 h -1.5 V 2.71875 Z m 0,0"
                 id="path374004" />
            </g>
          </g>
        </g>
        <g
           style="fill:#0000ff;fill-opacity:1"
           id="g374016">
          <g
             id="g374014"
             transform="translate(8.4849997,8.1820002)"
             style="fill:#0000ff">
            <path
               style="fill:#0000ff;stroke:none"
               d="m 0.953125,-0.640625 c -0.03125,0.15625 -0.09375,0.40625 -0.09375,0.46875 0,0.1875 0.15625,0.296875 0.3125,0.296875 C 1.3125,0.125 1.5,0.03125 1.578125,-0.1875 1.59375,-0.203125 1.71875,-0.71875 1.78125,-1 l 0.25,-0.96875 c 0.0625,-0.25 0.125,-0.484375 0.1875,-0.734375 0.03125,-0.1875 0.125,-0.5 0.140625,-0.546875 0.15625,-0.34375 0.734375,-1.328125 1.78125,-1.328125 0.484375,0 0.578125,0.40625 0.578125,0.765625 0,0.265625 -0.078125,0.578125 -0.15625,0.90625 L 4.25,-1.640625 4.03125,-0.8125 c -0.046875,0.21875 -0.140625,0.578125 -0.140625,0.640625 0,0.1875 0.15625,0.296875 0.3125,0.296875 0.34375,0 0.40625,-0.28125 0.5,-0.625 0.15625,-0.609375 0.546875,-2.203125 0.65625,-2.625 0.03125,-0.140625 0.609375,-1.453125 1.796875,-1.453125 0.46875,0 0.59375,0.375 0.59375,0.765625 0,0.609375 -0.46875,1.859375 -0.6875,2.4375 -0.09375,0.265625 -0.140625,0.375 -0.140625,0.59375 0,0.515625 0.390625,0.90625 0.890625,0.90625 1.03125,0 1.4375,-1.59375 1.4375,-1.6875 0,-0.109375 -0.09375,-0.109375 -0.125,-0.109375 -0.109375,0 -0.109375,0.03125 -0.171875,0.203125 C 8.796875,-0.890625 8.4375,-0.125 7.84375,-0.125 c -0.1875,0 -0.265625,-0.109375 -0.265625,-0.359375 0,-0.265625 0.09375,-0.53125 0.203125,-0.765625 0.203125,-0.578125 0.65625,-1.78125 0.65625,-2.40625 0,-0.703125 -0.4375,-1.171875 -1.25,-1.171875 -0.8125,0 -1.375,0.484375 -1.78125,1.0625 C 5.40625,-3.90625 5.359375,-4.28125 5.0625,-4.53125 4.78125,-4.765625 4.4375,-4.828125 4.171875,-4.828125 3.1875,-4.828125 2.65625,-4.125 2.46875,-3.875 c -0.0625,-0.625 -0.515625,-0.953125 -1,-0.953125 -0.515625,0 -0.71875,0.4375 -0.8125,0.625 -0.203125,0.390625 -0.34375,1.03125 -0.34375,1.0625 0,0.109375 0.109375,0.109375 0.140625,0.109375 0.109375,0 0.109375,-0.015625 0.171875,-0.25 0.1875,-0.78125 0.40625,-1.296875 0.796875,-1.296875 0.1875,0 0.34375,0.078125 0.34375,0.5 0,0.234375 -0.03125,0.34375 -0.171875,0.921875 z m 0,0"
               id="path374012" />
          </g>
        </g>
        <g
           clip-path="url(#clipPath6104)"
           clip-rule="nonzero"
           id="g374024"
           style="fill:#0000ff">
          <g
             style="fill:#0000ff;fill-opacity:1"
             id="g374022">
            <g
               id="g374020"
               transform="translate(18.063,8.1820002)"
               style="fill:#0000ff">
              <path
                 style="fill:#0000ff;stroke:none"
                 d="m 1.734375,-8.171875 h -1.5 V -7.75 h 1.0625 V 2.296875 h -1.0625 V 2.71875 h 1.5 z m 0,0"
                 id="path374018" />
            </g>
          </g>
        </g>
      </g>
    </g>
    <g
       inkscape:label=""
       transform="matrix(0.56806002,0,0,0.56806002,82.78006,229.62536)"
       id="g374058"
       style="fill:#0000ff">
      <g
         id="g374056"
         transform="matrix(0.352778,0,0,0.352778,-0.341753,-0.00357193)"
         style="fill:#0000ff">
        <g
           clip-path="url(#clipPath3850)"
           clip-rule="nonzero"
           id="g374040"
           style="fill:#0000ff">
          <g
             style="fill:#0000ff;fill-opacity:1"
             id="g374038">
            <g
               id="g374032"
               transform="translate(0,8.1820002)"
               style="fill:#0000ff">
              <path
                 style="fill:#0000ff;stroke:none"
                 d="m 3.203125,-6.984375 c 0,-0.25 0,-0.28125 -0.25,-0.28125 C 2.28125,-6.5625 1.3125,-6.5625 0.96875,-6.5625 v 0.328125 c 0.21875,0 0.859375,0 1.4375,-0.28125 v 5.65625 c 0,0.390625 -0.046875,0.515625 -1.015625,0.515625 H 1.03125 V 0 c 0.390625,-0.03125 1.328125,-0.03125 1.765625,-0.03125 0.4375,0 1.390625,0 1.765625,0.03125 V -0.34375 H 4.21875 c -0.984375,0 -1.015625,-0.109375 -1.015625,-0.515625 z m 0,0"
                 id="path374030" />
            </g>
            <g
               id="g374036"
               transform="translate(5.4545498,8.1820002)"
               style="fill:#0000ff">
              <path
                 style="fill:#0000ff;stroke:none"
                 d="M 2.78125,2.71875 V 2.296875 H 1.71875 V -7.75 h 1.0625 v -0.421875 h -1.5 V 2.71875 Z m 0,0"
                 id="path374034" />
            </g>
          </g>
        </g>
        <g
           style="fill:#0000ff;fill-opacity:1"
           id="g374046">
          <g
             id="g374044"
             transform="translate(8.4849997,8.1820002)"
             style="fill:#0000ff">
            <path
               style="fill:#0000ff;stroke:none"
               d="m 0.953125,-0.640625 c -0.03125,0.15625 -0.09375,0.40625 -0.09375,0.46875 0,0.1875 0.15625,0.296875 0.3125,0.296875 C 1.3125,0.125 1.5,0.03125 1.578125,-0.1875 1.59375,-0.203125 1.71875,-0.71875 1.78125,-1 l 0.25,-0.96875 c 0.0625,-0.25 0.125,-0.484375 0.1875,-0.734375 0.03125,-0.1875 0.125,-0.5 0.140625,-0.546875 0.15625,-0.34375 0.734375,-1.328125 1.78125,-1.328125 0.484375,0 0.578125,0.40625 0.578125,0.765625 0,0.265625 -0.078125,0.578125 -0.15625,0.90625 L 4.25,-1.640625 4.03125,-0.8125 c -0.046875,0.21875 -0.140625,0.578125 -0.140625,0.640625 0,0.1875 0.15625,0.296875 0.3125,0.296875 0.34375,0 0.40625,-0.28125 0.5,-0.625 0.15625,-0.609375 0.546875,-2.203125 0.65625,-2.625 0.03125,-0.140625 0.609375,-1.453125 1.796875,-1.453125 0.46875,0 0.59375,0.375 0.59375,0.765625 0,0.609375 -0.46875,1.859375 -0.6875,2.4375 -0.09375,0.265625 -0.140625,0.375 -0.140625,0.59375 0,0.515625 0.390625,0.90625 0.890625,0.90625 1.03125,0 1.4375,-1.59375 1.4375,-1.6875 0,-0.109375 -0.09375,-0.109375 -0.125,-0.109375 -0.109375,0 -0.109375,0.03125 -0.171875,0.203125 C 8.796875,-0.890625 8.4375,-0.125 7.84375,-0.125 c -0.1875,0 -0.265625,-0.109375 -0.265625,-0.359375 0,-0.265625 0.09375,-0.53125 0.203125,-0.765625 0.203125,-0.578125 0.65625,-1.78125 0.65625,-2.40625 0,-0.703125 -0.4375,-1.171875 -1.25,-1.171875 -0.8125,0 -1.375,0.484375 -1.78125,1.0625 C 5.40625,-3.90625 5.359375,-4.28125 5.0625,-4.53125 4.78125,-4.765625 4.4375,-4.828125 4.171875,-4.828125 3.1875,-4.828125 2.65625,-4.125 2.46875,-3.875 c -0.0625,-0.625 -0.515625,-0.953125 -1,-0.953125 -0.515625,0 -0.71875,0.4375 -0.8125,0.625 -0.203125,0.390625 -0.34375,1.03125 -0.34375,1.0625 0,0.109375 0.109375,0.109375 0.140625,0.109375 0.109375,0 0.109375,-0.015625 0.171875,-0.25 0.1875,-0.78125 0.40625,-1.296875 0.796875,-1.296875 0.1875,0 0.34375,0.078125 0.34375,0.5 0,0.234375 -0.03125,0.34375 -0.171875,0.921875 z m 0,0"
               id="path374042" />
          </g>
        </g>
        <g
           clip-path="url(#clipPath852)"
           clip-rule="nonzero"
           id="g374054"
           style="fill:#0000ff">
          <g
             style="fill:#0000ff;fill-opacity:1"
             id="g374052">
            <g
               id="g374050"
               transform="translate(18.063,8.1820002)"
               style="fill:#0000ff">
              <path
                 style="fill:#0000ff;stroke:none"
                 d="m 1.734375,-8.171875 h -1.5 V -7.75 h 1.0625 V 2.296875 h -1.0625 V 2.71875 h 1.5 z m 0,0"
                 id="path374048" />
            </g>
          </g>
        </g>
      </g>
    </g>
    <g
       inkscape:label=""
       transform="matrix(0.56806002,0,0,0.56806002,91.22771,219.28626)"
       id="g374108"
       style="fill:#0000ff">
      <g
         id="g374106"
         transform="matrix(0.352778,0,0,0.352778,-0.341753,-0.00357193)"
         style="fill:#0000ff">
        <g
           clip-path="url(#clipPath9902)"
           clip-rule="nonzero"
           id="g374082"
           style="fill:#0000ff">
          <g
             style="fill:#0000ff;fill-opacity:1"
             id="g374080">
            <g
               id="g374062"
               transform="translate(0,8.1820002)"
               style="fill:#0000ff">
              <path
                 style="fill:#0000ff;stroke:none"
                 d="m 3.203125,-6.984375 c 0,-0.25 0,-0.28125 -0.25,-0.28125 C 2.28125,-6.5625 1.3125,-6.5625 0.96875,-6.5625 v 0.328125 c 0.21875,0 0.859375,0 1.4375,-0.28125 v 5.65625 c 0,0.390625 -0.046875,0.515625 -1.015625,0.515625 H 1.03125 V 0 c 0.390625,-0.03125 1.328125,-0.03125 1.765625,-0.03125 0.4375,0 1.390625,0 1.765625,0.03125 V -0.34375 H 4.21875 c -0.984375,0 -1.015625,-0.109375 -1.015625,-0.515625 z m 0,0"
                 id="path374060" />
            </g>
            <g
               id="g374066"
               transform="translate(5.4545498,8.1820002)"
               style="fill:#0000ff">
              <path
                 style="fill:#0000ff;stroke:none"
                 d="m 5.015625,-3.484375 c 0,-0.875 -0.046875,-1.75 -0.4375,-2.5625 -0.5,-1.046875 -1.390625,-1.21875 -1.859375,-1.21875 -0.640625,0 -1.4375,0.28125 -1.890625,1.296875 -0.34375,0.75 -0.40625,1.609375 -0.40625,2.484375 0,0.8125 0.046875,1.796875 0.5,2.625 0.46875,0.875 1.265625,1.09375 1.796875,1.09375 0.578125,0 1.421875,-0.21875 1.890625,-1.265625 0.359375,-0.75 0.40625,-1.59375 0.40625,-2.453125 z M 2.71875,0 C 2.296875,0 1.640625,-0.265625 1.453125,-1.3125 c -0.125,-0.65625 -0.125,-1.671875 -0.125,-2.3125 0,-0.6875 0,-1.40625 0.09375,-2 C 1.625,-6.921875 2.4375,-7.03125 2.71875,-7.03125 c 0.359375,0 1.078125,0.203125 1.28125,1.28125 0.109375,0.609375 0.109375,1.4375 0.109375,2.125 0,0.828125 0,1.5625 -0.125,2.265625 C 3.828125,-0.328125 3.203125,0 2.71875,0 Z m 0,0"
                 id="path374064" />
            </g>
            <g
               id="g374070"
               transform="translate(10.9091,8.1820002)"
               style="fill:#0000ff">
              <path
                 style="fill:#0000ff;stroke:none"
                 d="m 5.015625,-3.484375 c 0,-0.875 -0.046875,-1.75 -0.4375,-2.5625 -0.5,-1.046875 -1.390625,-1.21875 -1.859375,-1.21875 -0.640625,0 -1.4375,0.28125 -1.890625,1.296875 -0.34375,0.75 -0.40625,1.609375 -0.40625,2.484375 0,0.8125 0.046875,1.796875 0.5,2.625 0.46875,0.875 1.265625,1.09375 1.796875,1.09375 0.578125,0 1.421875,-0.21875 1.890625,-1.265625 0.359375,-0.75 0.40625,-1.59375 0.40625,-2.453125 z M 2.71875,0 C 2.296875,0 1.640625,-0.265625 1.453125,-1.3125 c -0.125,-0.65625 -0.125,-1.671875 -0.125,-2.3125 0,-0.6875 0,-1.40625 0.09375,-2 C 1.625,-6.921875 2.4375,-7.03125 2.71875,-7.03125 c 0.359375,0 1.078125,0.203125 1.28125,1.28125 0.109375,0.609375 0.109375,1.4375 0.109375,2.125 0,0.828125 0,1.5625 -0.125,2.265625 C 3.828125,-0.328125 3.203125,0 2.71875,0 Z m 0,0"
                 id="path374068" />
            </g>
            <g
               id="g374074"
               transform="translate(16.363649,8.1820002)"
               style="fill:#0000ff">
              <path
                 style="fill:#0000ff;stroke:none"
                 d="m 5.015625,-3.484375 c 0,-0.875 -0.046875,-1.75 -0.4375,-2.5625 -0.5,-1.046875 -1.390625,-1.21875 -1.859375,-1.21875 -0.640625,0 -1.4375,0.28125 -1.890625,1.296875 -0.34375,0.75 -0.40625,1.609375 -0.40625,2.484375 0,0.8125 0.046875,1.796875 0.5,2.625 0.46875,0.875 1.265625,1.09375 1.796875,1.09375 0.578125,0 1.421875,-0.21875 1.890625,-1.265625 0.359375,-0.75 0.40625,-1.59375 0.40625,-2.453125 z M 2.71875,0 C 2.296875,0 1.640625,-0.265625 1.453125,-1.3125 c -0.125,-0.65625 -0.125,-1.671875 -0.125,-2.3125 0,-0.6875 0,-1.40625 0.09375,-2 C 1.625,-6.921875 2.4375,-7.03125 2.71875,-7.03125 c 0.359375,0 1.078125,0.203125 1.28125,1.28125 0.109375,0.609375 0.109375,1.4375 0.109375,2.125 0,0.828125 0,1.5625 -0.125,2.265625 C 3.828125,-0.328125 3.203125,0 2.71875,0 Z m 0,0"
                 id="path374072" />
            </g>
            <g
               id="g374078"
               transform="translate(21.818199,8.1820002)"
               style="fill:#0000ff">
              <path
                 style="fill:#0000ff;stroke:none"
                 d="M 2.78125,2.71875 V 2.296875 H 1.71875 V -7.75 h 1.0625 v -0.421875 h -1.5 V 2.71875 Z m 0,0"
                 id="path374076" />
            </g>
          </g>
        </g>
        <g
           style="fill:#0000ff;fill-opacity:1"
           id="g374088">
          <g
             id="g374086"
             transform="translate(24.849001,8.1820002)"
             style="fill:#0000ff">
            <path
               style="fill:#0000ff;stroke:none"
               d="m 3.125,-7.453125 c 0,0 0,-0.109375 -0.140625,-0.109375 -0.25,0 -1.046875,0.078125 -1.328125,0.109375 -0.078125,0 -0.203125,0.015625 -0.203125,0.21875 0,0.125 0.09375,0.125 0.265625,0.125 0.515625,0 0.53125,0.078125 0.53125,0.1875 l -0.03125,0.21875 -1.578125,6.28125 C 0.59375,-0.265625 0.59375,-0.25 0.59375,-0.1875 c 0,0.25 0.21875,0.3125 0.328125,0.3125 C 1.0625,0.125 1.21875,0.015625 1.28125,-0.109375 1.34375,-0.203125 1.828125,-2.21875 1.890625,-2.5 c 0.375,0.03125 1.265625,0.203125 1.265625,0.921875 0,0.078125 0,0.125 -0.03125,0.234375 -0.015625,0.140625 -0.03125,0.265625 -0.03125,0.390625 0,0.640625 0.421875,1.078125 1,1.078125 0.328125,0 0.625,-0.171875 0.859375,-0.578125 C 5.21875,-0.9375 5.34375,-1.53125 5.34375,-1.5625 c 0,-0.109375 -0.09375,-0.109375 -0.125,-0.109375 -0.109375,0 -0.125,0.046875 -0.15625,0.203125 -0.21875,0.796875 -0.46875,1.34375 -0.953125,1.34375 -0.203125,0 -0.34375,-0.109375 -0.34375,-0.5 0,-0.1875 0.046875,-0.4375 0.078125,-0.625 0.046875,-0.171875 0.046875,-0.21875 0.046875,-0.328125 0,-0.71875 -0.6875,-1.03125 -1.609375,-1.140625 0.34375,-0.203125 0.6875,-0.546875 0.9375,-0.8125 0.515625,-0.578125 1.03125,-1.046875 1.5625,-1.046875 0.0625,0 0.078125,0 0.09375,0.015625 C 5,-4.546875 5.015625,-4.546875 5.109375,-4.484375 5.125,-4.46875 5.125,-4.453125 5.140625,-4.4375 4.625,-4.40625 4.53125,-3.984375 4.53125,-3.84375 c 0,0.171875 0.109375,0.375 0.40625,0.375 0.28125,0 0.609375,-0.234375 0.609375,-0.671875 0,-0.3125 -0.25,-0.6875 -0.75,-0.6875 -0.296875,0 -0.8125,0.09375 -1.59375,0.96875 C 2.828125,-3.453125 2.40625,-3.015625 2,-2.84375 Z m 0,0"
               id="path374084" />
          </g>
        </g>
        <g
           clip-path="url(#clipPath1047)"
           clip-rule="nonzero"
           id="g374096"
           style="fill:#0000ff">
          <g
             style="fill:#0000ff;fill-opacity:1"
             id="g374094">
            <g
               id="g374092"
               transform="translate(30.866461,8.1820002)"
               style="fill:#0000ff">
              <path
                 style="fill:#0000ff;stroke:none"
                 d="m 5.140625,-4.109375 c 0,-0.0625 0.03125,-0.125 0.03125,-0.203125 0,-0.1875 -0.140625,-0.296875 -0.3125,-0.296875 -0.109375,0 -0.40625,0.078125 -0.453125,0.46875 -0.203125,-0.390625 -0.578125,-0.6875 -1.015625,-0.6875 -1.234375,0 -2.59375,1.53125 -2.59375,3.109375 C 0.796875,-0.640625 1.46875,0 2.25,0 2.890625,0 3.40625,-0.515625 3.515625,-0.625 3.296875,0.34375 3.15625,0.796875 3.15625,0.8125 3.125,0.921875 2.75,2 1.59375,2 1.390625,2 1.03125,1.984375 0.71875,1.890625 1.046875,1.78125 1.171875,1.5 1.171875,1.3125 c 0,-0.171875 -0.125,-0.375 -0.421875,-0.375 -0.234375,0 -0.59375,0.203125 -0.59375,0.640625 0,0.4375 0.40625,0.65625 1.453125,0.65625 1.375,0 2.15625,-0.84375 2.3125,-1.5 z m -1.421875,2.71875 c -0.0625,0.28125 -0.3125,0.546875 -0.5625,0.765625 -0.21875,0.1875 -0.5625,0.390625 -0.875,0.390625 -0.546875,0 -0.703125,-0.578125 -0.703125,-1.015625 0,-0.515625 0.3125,-1.796875 0.609375,-2.359375 0.28125,-0.53125 0.75,-0.96875 1.21875,-0.96875 0.71875,0 0.875,0.875 0.875,0.9375 0,0.046875 -0.03125,0.125 -0.03125,0.15625 z m 0,0"
                 id="path374090" />
            </g>
          </g>
        </g>
        <g
           clip-path="url(#clipPath8779)"
           clip-rule="nonzero"
           id="g374104"
           style="fill:#0000ff">
          <g
             style="fill:#0000ff;fill-opacity:1"
             id="g374102">
            <g
               id="g374100"
               transform="translate(36.466,8.1820002)"
               style="fill:#0000ff">
              <path
                 style="fill:#0000ff;stroke:none"
                 d="m 1.734375,-8.171875 h -1.5 V -7.75 h 1.0625 V 2.296875 h -1.0625 V 2.71875 h 1.5 z m 0,0"
                 id="path374098" />
            </g>
          </g>
        </g>
      </g>
    </g>
    <g
       inkscape:label=""
       transform="matrix(0.56806002,0,0,0.56806002,75.53307,219.70741)"
       id="g374154"
       style="fill:#0000ff">
      <g
         id="g374152"
         transform="matrix(0.352778,0,0,0.352778,-0.192925,-0.00357193)"
         style="fill:#0000ff">
        <g
           clip-path="url(#clipPath1497)"
           clip-rule="nonzero"
           id="g374128"
           style="fill:#0000ff">
          <g
             style="fill:#0000ff;fill-opacity:1"
             id="g374126">
            <g
               id="g374112"
               transform="translate(0,8.1820002)"
               style="fill:#0000ff">
              <path
                 style="fill:#0000ff;stroke:none"
                 d="m 4.890625,-2.1875 c 0,-1.296875 -0.890625,-2.390625 -2.0625,-2.390625 -0.53125,0 -1,0.171875 -1.390625,0.546875 v -2.125 c 0.21875,0.078125 0.578125,0.140625 0.921875,0.140625 1.34375,0 2.109375,-0.984375 2.109375,-1.125 0,-0.0625 -0.03125,-0.125 -0.109375,-0.125 0,0 -0.03125,0 -0.078125,0.03125 -0.21875,0.109375 -0.765625,0.3125 -1.484375,0.3125 -0.4375,0 -0.9375,-0.0625 -1.453125,-0.296875 C 1.25,-7.25 1.234375,-7.25 1.203125,-7.25 1.09375,-7.25 1.09375,-7.171875 1.09375,-6.984375 v 3.21875 c 0,0.203125 0,0.28125 0.15625,0.28125 0.078125,0 0.109375,-0.03125 0.140625,-0.09375 0.125,-0.171875 0.53125,-0.765625 1.40625,-0.765625 0.578125,0 0.84375,0.5 0.9375,0.703125 0.171875,0.40625 0.1875,0.828125 0.1875,1.375 0,0.375 0,1.03125 -0.25,1.484375 C 3.40625,-0.34375 3,-0.0625 2.5,-0.0625 c -0.796875,0 -1.421875,-0.578125 -1.609375,-1.21875 0.03125,0 0.0625,0.015625 0.1875,0.015625 0.359375,0 0.546875,-0.265625 0.546875,-0.53125 0,-0.265625 -0.1875,-0.53125 -0.546875,-0.53125 -0.15625,0 -0.53125,0.078125 -0.53125,0.578125 0,0.9375 0.75,1.984375 1.96875,1.984375 1.265625,0 2.375,-1.046875 2.375,-2.421875 z m 0,0"
                 id="path374110" />
            </g>
            <g
               id="g374116"
               transform="translate(5.4545498,8.1820002)"
               style="fill:#0000ff">
              <path
                 style="fill:#0000ff;stroke:none"
                 d="m 5.015625,-3.484375 c 0,-0.875 -0.046875,-1.75 -0.4375,-2.5625 -0.5,-1.046875 -1.390625,-1.21875 -1.859375,-1.21875 -0.640625,0 -1.4375,0.28125 -1.890625,1.296875 -0.34375,0.75 -0.40625,1.609375 -0.40625,2.484375 0,0.8125 0.046875,1.796875 0.5,2.625 0.46875,0.875 1.265625,1.09375 1.796875,1.09375 0.578125,0 1.421875,-0.21875 1.890625,-1.265625 0.359375,-0.75 0.40625,-1.59375 0.40625,-2.453125 z M 2.71875,0 C 2.296875,0 1.640625,-0.265625 1.453125,-1.3125 c -0.125,-0.65625 -0.125,-1.671875 -0.125,-2.3125 0,-0.6875 0,-1.40625 0.09375,-2 C 1.625,-6.921875 2.4375,-7.03125 2.71875,-7.03125 c 0.359375,0 1.078125,0.203125 1.28125,1.28125 0.109375,0.609375 0.109375,1.4375 0.109375,2.125 0,0.828125 0,1.5625 -0.125,2.265625 C 3.828125,-0.328125 3.203125,0 2.71875,0 Z m 0,0"
                 id="path374114" />
            </g>
            <g
               id="g374120"
               transform="translate(10.9091,8.1820002)"
               style="fill:#0000ff">
              <path
                 style="fill:#0000ff;stroke:none"
                 d="m 5.015625,-3.484375 c 0,-0.875 -0.046875,-1.75 -0.4375,-2.5625 -0.5,-1.046875 -1.390625,-1.21875 -1.859375,-1.21875 -0.640625,0 -1.4375,0.28125 -1.890625,1.296875 -0.34375,0.75 -0.40625,1.609375 -0.40625,2.484375 0,0.8125 0.046875,1.796875 0.5,2.625 0.46875,0.875 1.265625,1.09375 1.796875,1.09375 0.578125,0 1.421875,-0.21875 1.890625,-1.265625 0.359375,-0.75 0.40625,-1.59375 0.40625,-2.453125 z M 2.71875,0 C 2.296875,0 1.640625,-0.265625 1.453125,-1.3125 c -0.125,-0.65625 -0.125,-1.671875 -0.125,-2.3125 0,-0.6875 0,-1.40625 0.09375,-2 C 1.625,-6.921875 2.4375,-7.03125 2.71875,-7.03125 c 0.359375,0 1.078125,0.203125 1.28125,1.28125 0.109375,0.609375 0.109375,1.4375 0.109375,2.125 0,0.828125 0,1.5625 -0.125,2.265625 C 3.828125,-0.328125 3.203125,0 2.71875,0 Z m 0,0"
                 id="path374118" />
            </g>
            <g
               id="g374124"
               transform="translate(16.363649,8.1820002)"
               style="fill:#0000ff">
              <path
                 style="fill:#0000ff;stroke:none"
                 d="M 2.78125,2.71875 V 2.296875 H 1.71875 V -7.75 h 1.0625 v -0.421875 h -1.5 V 2.71875 Z m 0,0"
                 id="path374122" />
            </g>
          </g>
        </g>
        <g
           style="fill:#0000ff;fill-opacity:1"
           id="g374134">
          <g
             id="g374132"
             transform="translate(19.393999,8.1820002)"
             style="fill:#0000ff">
            <path
               style="fill:#0000ff;stroke:none"
               d="m 3.125,-7.453125 c 0,0 0,-0.109375 -0.140625,-0.109375 -0.25,0 -1.046875,0.078125 -1.328125,0.109375 -0.078125,0 -0.203125,0.015625 -0.203125,0.21875 0,0.125 0.09375,0.125 0.265625,0.125 0.515625,0 0.53125,0.078125 0.53125,0.1875 l -0.03125,0.21875 -1.578125,6.28125 C 0.59375,-0.265625 0.59375,-0.25 0.59375,-0.1875 c 0,0.25 0.21875,0.3125 0.328125,0.3125 C 1.0625,0.125 1.21875,0.015625 1.28125,-0.109375 1.34375,-0.203125 1.828125,-2.21875 1.890625,-2.5 c 0.375,0.03125 1.265625,0.203125 1.265625,0.921875 0,0.078125 0,0.125 -0.03125,0.234375 -0.015625,0.140625 -0.03125,0.265625 -0.03125,0.390625 0,0.640625 0.421875,1.078125 1,1.078125 0.328125,0 0.625,-0.171875 0.859375,-0.578125 C 5.21875,-0.9375 5.34375,-1.53125 5.34375,-1.5625 c 0,-0.109375 -0.09375,-0.109375 -0.125,-0.109375 -0.109375,0 -0.125,0.046875 -0.15625,0.203125 -0.21875,0.796875 -0.46875,1.34375 -0.953125,1.34375 -0.203125,0 -0.34375,-0.109375 -0.34375,-0.5 0,-0.1875 0.046875,-0.4375 0.078125,-0.625 0.046875,-0.171875 0.046875,-0.21875 0.046875,-0.328125 0,-0.71875 -0.6875,-1.03125 -1.609375,-1.140625 0.34375,-0.203125 0.6875,-0.546875 0.9375,-0.8125 0.515625,-0.578125 1.03125,-1.046875 1.5625,-1.046875 0.0625,0 0.078125,0 0.09375,0.015625 C 5,-4.546875 5.015625,-4.546875 5.109375,-4.484375 5.125,-4.46875 5.125,-4.453125 5.140625,-4.4375 4.625,-4.40625 4.53125,-3.984375 4.53125,-3.84375 c 0,0.171875 0.109375,0.375 0.40625,0.375 0.28125,0 0.609375,-0.234375 0.609375,-0.671875 0,-0.3125 -0.25,-0.6875 -0.75,-0.6875 -0.296875,0 -0.8125,0.09375 -1.59375,0.96875 C 2.828125,-3.453125 2.40625,-3.015625 2,-2.84375 Z m 0,0"
               id="path374130" />
          </g>
        </g>
        <g
           clip-path="url(#clipPath3207)"
           clip-rule="nonzero"
           id="g374142"
           style="fill:#0000ff">
          <g
             style="fill:#0000ff;fill-opacity:1"
             id="g374140">
            <g
               id="g374138"
               transform="translate(25.411461,8.1820002)"
               style="fill:#0000ff">
              <path
                 style="fill:#0000ff;stroke:none"
                 d="m 5.140625,-4.109375 c 0,-0.0625 0.03125,-0.125 0.03125,-0.203125 0,-0.1875 -0.140625,-0.296875 -0.3125,-0.296875 -0.109375,0 -0.40625,0.078125 -0.453125,0.46875 -0.203125,-0.390625 -0.578125,-0.6875 -1.015625,-0.6875 -1.234375,0 -2.59375,1.53125 -2.59375,3.109375 C 0.796875,-0.640625 1.46875,0 2.25,0 2.890625,0 3.40625,-0.515625 3.515625,-0.625 3.296875,0.34375 3.15625,0.796875 3.15625,0.8125 3.125,0.921875 2.75,2 1.59375,2 1.390625,2 1.03125,1.984375 0.71875,1.890625 1.046875,1.78125 1.171875,1.5 1.171875,1.3125 c 0,-0.171875 -0.125,-0.375 -0.421875,-0.375 -0.234375,0 -0.59375,0.203125 -0.59375,0.640625 0,0.4375 0.40625,0.65625 1.453125,0.65625 1.375,0 2.15625,-0.84375 2.3125,-1.5 z m -1.421875,2.71875 c -0.0625,0.28125 -0.3125,0.546875 -0.5625,0.765625 -0.21875,0.1875 -0.5625,0.390625 -0.875,0.390625 -0.546875,0 -0.703125,-0.578125 -0.703125,-1.015625 0,-0.515625 0.3125,-1.796875 0.609375,-2.359375 0.28125,-0.53125 0.75,-0.96875 1.21875,-0.96875 0.71875,0 0.875,0.875 0.875,0.9375 0,0.046875 -0.03125,0.125 -0.03125,0.15625 z m 0,0"
                 id="path374136" />
            </g>
          </g>
        </g>
        <g
           clip-path="url(#clipPath1709)"
           clip-rule="nonzero"
           id="g374150"
           style="fill:#0000ff">
          <g
             style="fill:#0000ff;fill-opacity:1"
             id="g374148">
            <g
               id="g374146"
               transform="translate(31.011,8.1820002)"
               style="fill:#0000ff">
              <path
                 style="fill:#0000ff;stroke:none"
                 d="m 1.734375,-8.171875 h -1.5 V -7.75 h 1.0625 V 2.296875 h -1.0625 V 2.71875 h 1.5 z m 0,0"
                 id="path374144" />
            </g>
          </g>
        </g>
      </g>
    </g>
    <path
       style="fill:none;stroke:#000000;stroke-width:0.396875;stroke-linejoin:round;stroke-dasharray:none;paint-order:stroke markers fill"
       d="m 55.033345,232.83328 v -4.23334"
       id="path374214" />
    <path
       style="fill:none;stroke:#000000;stroke-width:0.396875;stroke-linejoin:round;stroke-dasharray:none;paint-order:stroke markers fill"
       d="M 55.033355,230.71661 H 64.55835"
       id="path374216"
       sodipodi:nodetypes="cc" />
    <path
       style="fill:none;stroke:#000000;stroke-width:0.396875;stroke-linejoin:round;stroke-dasharray:none;paint-order:stroke markers fill"
       d="m 88.90001,228.59993 v 4.23334"
       id="path374218" />
    <path
       style="fill:none;stroke:#000000;stroke-width:0.396875;stroke-linejoin:round;stroke-dasharray:none;paint-order:stroke markers fill"
       d="m 87.84168,230.7166 h 1.05833"
       id="path374220"
       sodipodi:nodetypes="cc" />
    <path
       style="fill:none;stroke:#ff0000;stroke-width:0.396875;stroke-linejoin:round;stroke-dasharray:none;marker-end:url(#Arrow2-4-3-6);paint-order:stroke markers fill"
       d="m 80.43334,218.01662 2.11667,-1e-5"
       id="path374222"
       sodipodi:nodetypes="cc" />
    <path
       style="fill:none;stroke:#000000;stroke-width:0.396875;stroke-linejoin:round;stroke-dasharray:none;paint-order:stroke markers fill"
       d="m 70.90835,230.71661 10.58333,1e-5"
       id="path374226"
       sodipodi:nodetypes="cc" />
    <path
       style="fill:none;stroke:#000000;stroke-width:0.396875;stroke-linejoin:round;stroke-dasharray:none;paint-order:stroke markers fill"
       d="m 80.43334,228.59993 v 4.23334"
       id="path374228" />
    <path
       style="fill:none;stroke:#000000;stroke-width:0.132292;stroke-linejoin:round;stroke-dasharray:0.264583, 0.132292;stroke-dashoffset:0;paint-order:stroke markers fill"
       d="m 80.43334,228.59995 v -9.52501"
       id="path374230"
       sodipodi:nodetypes="cc" />
    <path
       style="fill:none;stroke:#000000;stroke-width:0.264583;stroke-linejoin:round;stroke-dasharray:none;paint-order:stroke markers fill"
       d="m 55.033346,214.84161 -1.05833,-1.05833"
       id="path374232"
       sodipodi:nodetypes="cc" />
    <path
       style="fill:none;stroke:#000000;stroke-width:0.264583;stroke-linejoin:round;stroke-dasharray:none;paint-order:stroke markers fill"
       d="m 53.975016,222.24994 -1.05834,-1.05834"
       id="path374236"
       sodipodi:nodetypes="cc" />
    <path
       style="fill:none;stroke:#000000;stroke-width:0.264583;stroke-linejoin:round;stroke-dasharray:none;paint-order:stroke markers fill"
       d="m 55.033346,222.24993 c -2.11667,-2.11666 -2.11667,-2.11666 -2.11667,-2.11666"
       id="path374238" />
    <path
       style="fill:none;stroke:#000000;stroke-width:0.264583;stroke-linejoin:round;stroke-dasharray:none;paint-order:stroke markers fill"
       d="m 55.033346,221.1916 c -2.11667,-2.11667 -2.11667,-2.11667 -2.11667,-2.11667"
       id="path374240" />
    <path
       style="fill:none;stroke:#000000;stroke-width:0.264583;stroke-linejoin:round;stroke-dasharray:none;paint-order:stroke markers fill"
       d="m 55.033346,220.13327 c -2.11667,-2.11667 -2.11667,-2.11667 -2.11667,-2.11667"
       id="path374242" />
    <path
       style="fill:none;stroke:#000000;stroke-width:0.264583;stroke-linejoin:round;stroke-dasharray:none;paint-order:stroke markers fill"
       d="m 55.033346,219.07493 c -2.11667,-2.11666 -2.11667,-2.11666 -2.11667,-2.11666"
       id="path374244" />
    <path
       style="fill:none;stroke:#000000;stroke-width:0.264583;stroke-linejoin:round;stroke-dasharray:none;paint-order:stroke markers fill"
       d="m 55.033346,218.0166 c -2.11667,-2.11667 -2.11667,-2.11667 -2.11667,-2.11667"
       id="path374246" />
    <path
       style="fill:none;stroke:#000000;stroke-width:0.264583;stroke-linejoin:round;stroke-dasharray:none;paint-order:stroke markers fill"
       d="m 55.033346,216.95826 c -2.11667,-2.11666 -2.11667,-2.11666 -2.11667,-2.11666"
       id="path374248" />
    <path
       style="fill:none;stroke:#000000;stroke-width:0.264583;stroke-linejoin:round;stroke-dasharray:none;paint-order:stroke markers fill"
       d="m 55.033346,215.89994 c -2.11667,-2.11666 -2.11667,-2.11666 -2.11667,-2.11666"
       id="path374250" />
    <path
       style="fill:none;stroke:#000000;stroke-width:0.132292;stroke-linejoin:round;stroke-dasharray:0.264583, 0.132292;stroke-dashoffset:0;paint-order:stroke markers fill"
       d="m 88.90001,228.59995 v -9.52501"
       id="path374254"
       sodipodi:nodetypes="cc" />
    <path
       style="fill:none;stroke:#000000;stroke-width:0.132292;stroke-linejoin:round;stroke-dasharray:0.264583, 0.132292;stroke-dashoffset:0;paint-order:stroke markers fill"
       d="m 55.033345,228.59995 v -6.35002"
       id="path374256"
       sodipodi:nodetypes="cc" />
    <path
       style="fill:none;stroke:#ff0000;stroke-width:0.396875;stroke-linejoin:round;stroke-dasharray:none;marker-end:url(#Arrow2-4-3-6);paint-order:stroke markers fill"
       d="m 88.90001,218.01662 4.233334,-1e-5"
       id="path374258"
       sodipodi:nodetypes="cc" />
    <path
       style="fill:none;stroke:#ff0000;stroke-width:0.396875;stroke-linejoin:round;stroke-dasharray:none;marker-end:url(#Arrow2-4-0-4-7);paint-order:stroke markers fill"
       d="m 84.66668,218.01 v 3.18161"
       id="path374262"
       sodipodi:nodetypes="cc" />
    <path
       style="fill:none;stroke:#ff0000;stroke-width:0.396875;stroke-linejoin:round;stroke-dasharray:none;marker-end:url(#Arrow2-4-0-4-7);paint-order:stroke markers fill"
       d="m 71.96668,218.01661 v 3.175"
       id="path374276"
       sodipodi:nodetypes="cc" />
    <circle
       style="fill:#ff0000;stroke:none;stroke-width:0.396875;stroke-linejoin:round;stroke-dasharray:none;stroke-dashoffset:0;paint-order:stroke markers fill"
       id="circle253343-8"
       cy="218.01662"
       cx="55.03334"
       r="0.78441644" />
    <circle
       style="fill:#ff0000;stroke:none;stroke-width:0.396875;stroke-linejoin:round;stroke-dasharray:none;stroke-dashoffset:0;paint-order:stroke markers fill"
       id="circle377496"
       cy="218.01662"
       cx="71.966682"
       r="0.78441644" />
    <circle
       style="fill:#ff0000;stroke:none;stroke-width:0.396875;stroke-linejoin:round;stroke-dasharray:none;stroke-dashoffset:0;paint-order:stroke markers fill"
       id="circle377498"
       cy="218.01662"
       cx="80.433342"
       r="0.78441644" />
    <circle
       style="fill:#ff0000;stroke:none;stroke-width:0.396875;stroke-linejoin:round;stroke-dasharray:none;stroke-dashoffset:0;paint-order:stroke markers fill"
       id="circle377500"
       cy="218.01662"
       cx="84.666672"
       r="0.78441644" />
    <circle
       style="fill:#ff0000;stroke:none;stroke-width:0.396875;stroke-linejoin:round;stroke-dasharray:none;stroke-dashoffset:0;paint-order:stroke markers fill"
       id="circle377502"
       cy="218.01662"
       cx="88.899986"
       r="0.78441644" />
    <path
       style="fill:none;stroke:#ff0000;stroke-width:0.396875;stroke-linejoin:round;stroke-dasharray:none;marker-end:url(#Arrow2-4-37);paint-order:stroke markers fill"
       d="m 55.026715,218.0166 v -3.175"
       id="path62062-7"
       sodipodi:nodetypes="cc" />
    <path
       style="fill:none;stroke:#ff0000;stroke-width:0.396875;stroke-linejoin:round;stroke-dasharray:none;marker-end:url(#Arrow2-4-37);paint-order:stroke markers fill"
       d="m 55.026715,218.0166 h 3.175"
       id="path62064-8"
       sodipodi:nodetypes="cc" />
    <path
       style="fill:none;stroke:#ff0000;stroke-width:0.396875;stroke-linejoin:round;stroke-dasharray:none;stroke-dashoffset:0;marker-start:url(#Arrow2-4-37);paint-order:stroke markers fill"
       id="path63819-7"
       sodipodi:type="arc"
       sodipodi:cx="55.026703"
       sodipodi:cy="218.01662"
       sodipodi:rx="2.1166666"
       sodipodi:ry="2.1166666"
       sodipodi:start="1.3089969"
       sodipodi:end="4.1887902"
       sodipodi:open="true"
       sodipodi:arc-type="arc"
       d="m 55.574537,220.06116 a 2.1166666,2.1166666 0 0 1 -2.503379,-1.23453 2.1166666,2.1166666 0 0 1 0.897212,-2.6431" />
    <g
       inkscape:label=""
       transform="matrix(0.71326447,0,0,0.71326447,68.83615,223.01194)"
       id="g400085"
       style="fill:#0000ff">
      <g
         id="g400083"
         transform="matrix(0.352778,0,0,0.352778,-0.165365,-0.0029105)"
         style="fill:#0000ff">
        <g
           clip-path="url(#clipPath2155)"
           clip-rule="nonzero"
           id="g400063"
           style="fill:#0000ff">
          <g
             style="fill:#0000ff;fill-opacity:1"
             id="g50">
            <g
               id="g400051"
               transform="translate(0,5.9770002)"
               style="fill:#0000ff">
              <path
                 style="fill:#0000ff;stroke:none"
                 d="M 4.03125,-4.859375 C 4.109375,-4.9375 4.109375,-4.953125 4.109375,-5.125 H 2.078125 C 1.875,-5.125 1.640625,-5.140625 1.4375,-5.15625 1.015625,-5.1875 1.015625,-5.265625 0.984375,-5.390625 h -0.25 l -0.265625,1.6875 h 0.25 C 0.734375,-3.828125 0.828125,-4.375 0.9375,-4.4375 1.015625,-4.484375 1.625,-4.484375 1.734375,-4.484375 h 1.6875 L 2.609375,-3.375 C 1.703125,-2.171875 1.5,-0.90625 1.5,-0.28125 c 0,0.078125 0,0.453125 0.375,0.453125 0.375,0 0.375,-0.359375 0.375,-0.453125 V -0.671875 C 2.25,-1.8125 2.453125,-2.75 2.84375,-3.28125 Z m 0,0"
                 id="path75" />
            </g>
            <g
               id="g400054"
               transform="translate(4.2345142,5.9770002)"
               style="fill:#0000ff">
              <path
                 style="fill:#0000ff;stroke:none"
                 d="m 1.109375,-4.484375 c 0.109375,0.03125 0.421875,0.125 0.765625,0.125 1,0 1.59375,-0.703125 1.59375,-0.828125 0,-0.09375 -0.046875,-0.109375 -0.09375,-0.109375 -0.015625,0 -0.03125,0 -0.09375,0.03125 -0.3125,0.125 -0.6875,0.21875 -1.109375,0.21875 -0.46875,0 -0.859375,-0.109375 -1.109375,-0.21875 -0.078125,-0.03125 -0.09375,-0.03125 -0.109375,-0.03125 -0.09375,0 -0.09375,0.078125 -0.09375,0.234375 v 2.328125 c 0,0.140625 0,0.234375 0.125,0.234375 0.0625,0 0.078125,-0.03125 0.125,-0.09375 C 1.203125,-2.703125 1.5,-3.109375 2.1875,-3.109375 c 0.4375,0 0.65625,0.359375 0.734375,0.515625 0.125,0.28125 0.140625,0.65625 0.140625,0.953125 0,0.296875 0,0.734375 -0.21875,1.078125 -0.15625,0.25 -0.484375,0.484375 -0.90625,0.484375 -0.515625,0 -1.015625,-0.3125 -1.203125,-0.84375 C 0.75,-0.90625 0.8125,-0.90625 0.8125,-0.90625 c 0.21875,0 0.40625,-0.140625 0.40625,-0.390625 0,-0.296875 -0.234375,-0.40625 -0.390625,-0.40625 -0.15625,0 -0.40625,0.078125 -0.40625,0.421875 0,0.71875 0.625,1.453125 1.53125,1.453125 1,0 1.84375,-0.78125 1.84375,-1.765625 0,-0.921875 -0.671875,-1.75 -1.609375,-1.75 -0.390625,0 -0.765625,0.125 -1.078125,0.40625 z m 0,0"
                 id="path79" />
            </g>
            <g
               id="g400057"
               transform="translate(8.4690285,5.9770002)"
               style="fill:#0000ff">
              <path
                 style="fill:#0000ff;stroke:none"
                 d="m 3.890625,-2.546875 c 0,-0.84375 -0.078125,-1.359375 -0.34375,-1.875 -0.34375,-0.703125 -1,-0.875 -1.4375,-0.875 -1,0 -1.375,0.75 -1.484375,0.96875 -0.28125,0.578125 -0.296875,1.375 -0.296875,1.78125 0,0.53125 0.015625,1.328125 0.40625,1.96875 0.359375,0.59375 0.953125,0.75 1.375,0.75 0.390625,0 1.0625,-0.125 1.46875,-0.90625 0.296875,-0.578125 0.3125,-1.296875 0.3125,-1.8125 z M 2.109375,-0.0625 C 1.84375,-0.0625 1.296875,-0.1875 1.125,-1.015625 1.03125,-1.46875 1.03125,-2.21875 1.03125,-2.640625 1.03125,-3.1875 1.03125,-3.75 1.125,-4.1875 1.296875,-5 1.90625,-5.078125 2.109375,-5.078125 c 0.265625,0 0.828125,0.140625 0.984375,0.859375 0.09375,0.4375 0.09375,1.046875 0.09375,1.578125 0,0.46875 0,1.1875 -0.09375,1.640625 -0.171875,0.828125 -0.71875,0.9375 -0.984375,0.9375 z m 0,0"
                 id="path83" />
            </g>
            <g
               id="g400060"
               transform="translate(12.703542,5.9770002)"
               style="fill:#0000ff">
              <path
                 style="fill:#0000ff;stroke:none"
                 d="M 2.15625,1.984375 V 1.625 H 1.359375 V -5.609375 H 2.15625 V -5.96875 H 0.984375 v 7.953125 z m 0,0"
                 id="path87" />
            </g>
          </g>
        </g>
        <g
           style="fill:#0000ff;fill-opacity:1"
           id="g56">
          <g
             id="g400067"
             transform="translate(15.055,5.9770002)"
             style="fill:#0000ff">
            <path
               style="fill:#0000ff;stroke:none"
               d="m 2.328125,-5.296875 c 0,-0.015625 0.03125,-0.109375 0.03125,-0.125 0,-0.03125 -0.03125,-0.109375 -0.125,-0.109375 -0.03125,0 -0.28125,0.03125 -0.46875,0.046875 l -0.4375,0.03125 C 1.140625,-5.4375 1.0625,-5.4375 1.0625,-5.296875 c 0,0.125 0.109375,0.125 0.21875,0.125 0.375,0 0.375,0.046875 0.375,0.109375 0,0.03125 0,0.046875 -0.03125,0.1875 l -1.140625,4.53125 c -0.03125,0.125 -0.03125,0.171875 -0.03125,0.171875 0,0.140625 0.109375,0.25 0.265625,0.25 0.265625,0 0.328125,-0.25 0.359375,-0.359375 0.078125,-0.34375 0.296875,-1.1875 0.375,-1.515625 0.4375,0.046875 0.984375,0.1875 0.984375,0.65625 0,0.03125 0,0.078125 -0.015625,0.15625 -0.03125,0.09375 -0.046875,0.21875 -0.046875,0.25 0,0.46875 0.34375,0.8125 0.8125,0.8125 0.328125,0 0.546875,-0.25 0.640625,-0.390625 C 4.03125,-0.609375 4.15625,-1.09375 4.15625,-1.140625 4.15625,-1.21875 4.09375,-1.25 4.03125,-1.25 c -0.09375,0 -0.109375,0.0625 -0.140625,0.203125 -0.109375,0.375 -0.3125,0.90625 -0.6875,0.90625 -0.203125,0 -0.25,-0.171875 -0.25,-0.390625 0,-0.109375 0,-0.203125 0.046875,-0.390625 0,-0.03125 0.03125,-0.15625 0.03125,-0.234375 0,-0.65625 -0.8125,-0.796875 -1.21875,-0.859375 C 2.109375,-2.1875 2.375,-2.46875 2.46875,-2.5625 2.90625,-3 3.265625,-3.296875 3.65625,-3.296875 c 0.09375,0 0.1875,0.03125 0.25,0.109375 C 3.484375,-3.125 3.484375,-2.75 3.484375,-2.75 c 0,0.171875 0.140625,0.296875 0.3125,0.296875 0.21875,0 0.453125,-0.171875 0.453125,-0.5 0,-0.28125 -0.1875,-0.5625 -0.59375,-0.5625 -0.453125,0 -0.875,0.359375 -1.328125,0.8125 -0.46875,0.453125 -0.65625,0.53125 -0.796875,0.59375 z m 0,0"
               id="path400065" />
          </g>
        </g>
        <g
           clip-path="url(#clipPath81735)"
           clip-rule="nonzero"
           id="g400075"
           style="fill:#0000ff">
          <g
             style="fill:#0000ff;fill-opacity:1"
             id="g400073">
            <g
               id="use58"
               transform="translate(19.679253,5.9770002)"
               style="fill:#0000ff">
              <path
                 style="fill:#0000ff;stroke:none"
                 d="m 3.953125,-2.9375 c 0.03125,-0.125 0.03125,-0.171875 0.03125,-0.171875 0,-0.1875 -0.15625,-0.25 -0.25,-0.25 -0.1875,0 -0.328125,0.140625 -0.359375,0.3125 -0.0625,-0.125 -0.3125,-0.46875 -0.78125,-0.46875 -0.953125,0 -1.984375,1.0625 -1.984375,2.21875 C 0.609375,-0.4375 1.171875,0 1.765625,0 2.125,0 2.453125,-0.203125 2.71875,-0.4375 L 2.546875,0.28125 C 2.453125,0.625 2.40625,0.859375 2.09375,1.109375 1.75,1.40625 1.453125,1.40625 1.25,1.40625 c -0.203125,0 -0.390625,-0.015625 -0.578125,-0.046875 0.171875,-0.09375 0.25,-0.265625 0.25,-0.40625 0,-0.1875 -0.140625,-0.296875 -0.3125,-0.296875 -0.1875,0 -0.4375,0.171875 -0.4375,0.484375 0,0.453125 0.609375,0.484375 1.09375,0.484375 1.140625,0 1.703125,-0.609375 1.8125,-1.09375 z M 2.875,-1.046875 c -0.046875,0.21875 -0.234375,0.375 -0.390625,0.53125 -0.078125,0.046875 -0.375,0.296875 -0.703125,0.296875 -0.328125,0 -0.546875,-0.265625 -0.546875,-0.75 0,-0.328125 0.1875,-1.203125 0.40625,-1.609375 0.25,-0.453125 0.625,-0.71875 0.953125,-0.71875 0.53125,0 0.671875,0.59375 0.671875,0.671875 L 3.25,-2.515625 Z m 0,0"
                 id="path400070" />
            </g>
          </g>
        </g>
        <g
           clip-path="url(#clipPath19104)"
           clip-rule="nonzero"
           id="g400081"
           style="fill:#0000ff">
          <g
             style="fill:#0000ff;fill-opacity:1"
             id="g66">
            <g
               id="use64"
               transform="translate(23.992001,5.9770002)"
               style="fill:#0000ff">
              <path
                 style="fill:#0000ff;stroke:none"
                 d="M 1.359375,-5.96875 H 0.1875 v 0.359375 H 0.984375 V 1.625 H 0.1875 v 0.359375 h 1.171875 z m 0,0"
                 id="path400077" />
            </g>
          </g>
        </g>
      </g>
    </g>
    <g
       inkscape:label=""
       transform="matrix(0.56806002,0,0,0.56806002,81.91665,222.64035)"
       id="g403421"
       style="fill:#0000ff">
      <g
         id="g403419"
         transform="matrix(0.352778,0,0,0.352778,-0.192925,-0.00357193)"
         style="fill:#0000ff">
        <g
           clip-path="url(#clipPath1497)"
           clip-rule="nonzero"
           id="g403395"
           style="fill:#0000ff">
          <g
             style="fill:#0000ff;fill-opacity:1"
             id="g403393">
            <g
               id="g403379"
               transform="translate(0,8.1820002)"
               style="fill:#0000ff">
              <path
                 style="fill:#0000ff;stroke:none"
                 d="m 4.890625,-2.1875 c 0,-1.296875 -0.890625,-2.390625 -2.0625,-2.390625 -0.53125,0 -1,0.171875 -1.390625,0.546875 v -2.125 c 0.21875,0.078125 0.578125,0.140625 0.921875,0.140625 1.34375,0 2.109375,-0.984375 2.109375,-1.125 0,-0.0625 -0.03125,-0.125 -0.109375,-0.125 0,0 -0.03125,0 -0.078125,0.03125 -0.21875,0.109375 -0.765625,0.3125 -1.484375,0.3125 -0.4375,0 -0.9375,-0.0625 -1.453125,-0.296875 C 1.25,-7.25 1.234375,-7.25 1.203125,-7.25 1.09375,-7.25 1.09375,-7.171875 1.09375,-6.984375 v 3.21875 c 0,0.203125 0,0.28125 0.15625,0.28125 0.078125,0 0.109375,-0.03125 0.140625,-0.09375 0.125,-0.171875 0.53125,-0.765625 1.40625,-0.765625 0.578125,0 0.84375,0.5 0.9375,0.703125 0.171875,0.40625 0.1875,0.828125 0.1875,1.375 0,0.375 0,1.03125 -0.25,1.484375 C 3.40625,-0.34375 3,-0.0625 2.5,-0.0625 c -0.796875,0 -1.421875,-0.578125 -1.609375,-1.21875 0.03125,0 0.0625,0.015625 0.1875,0.015625 0.359375,0 0.546875,-0.265625 0.546875,-0.53125 0,-0.265625 -0.1875,-0.53125 -0.546875,-0.53125 -0.15625,0 -0.53125,0.078125 -0.53125,0.578125 0,0.9375 0.75,1.984375 1.96875,1.984375 1.265625,0 2.375,-1.046875 2.375,-2.421875 z m 0,0"
                 id="path403377" />
            </g>
            <g
               id="g403383"
               transform="translate(5.4545498,8.1820002)"
               style="fill:#0000ff">
              <path
                 style="fill:#0000ff;stroke:none"
                 d="m 5.015625,-3.484375 c 0,-0.875 -0.046875,-1.75 -0.4375,-2.5625 -0.5,-1.046875 -1.390625,-1.21875 -1.859375,-1.21875 -0.640625,0 -1.4375,0.28125 -1.890625,1.296875 -0.34375,0.75 -0.40625,1.609375 -0.40625,2.484375 0,0.8125 0.046875,1.796875 0.5,2.625 0.46875,0.875 1.265625,1.09375 1.796875,1.09375 0.578125,0 1.421875,-0.21875 1.890625,-1.265625 0.359375,-0.75 0.40625,-1.59375 0.40625,-2.453125 z M 2.71875,0 C 2.296875,0 1.640625,-0.265625 1.453125,-1.3125 c -0.125,-0.65625 -0.125,-1.671875 -0.125,-2.3125 0,-0.6875 0,-1.40625 0.09375,-2 C 1.625,-6.921875 2.4375,-7.03125 2.71875,-7.03125 c 0.359375,0 1.078125,0.203125 1.28125,1.28125 0.109375,0.609375 0.109375,1.4375 0.109375,2.125 0,0.828125 0,1.5625 -0.125,2.265625 C 3.828125,-0.328125 3.203125,0 2.71875,0 Z m 0,0"
                 id="path403381" />
            </g>
            <g
               id="g403387"
               transform="translate(10.9091,8.1820002)"
               style="fill:#0000ff">
              <path
                 style="fill:#0000ff;stroke:none"
                 d="m 5.015625,-3.484375 c 0,-0.875 -0.046875,-1.75 -0.4375,-2.5625 -0.5,-1.046875 -1.390625,-1.21875 -1.859375,-1.21875 -0.640625,0 -1.4375,0.28125 -1.890625,1.296875 -0.34375,0.75 -0.40625,1.609375 -0.40625,2.484375 0,0.8125 0.046875,1.796875 0.5,2.625 0.46875,0.875 1.265625,1.09375 1.796875,1.09375 0.578125,0 1.421875,-0.21875 1.890625,-1.265625 0.359375,-0.75 0.40625,-1.59375 0.40625,-2.453125 z M 2.71875,0 C 2.296875,0 1.640625,-0.265625 1.453125,-1.3125 c -0.125,-0.65625 -0.125,-1.671875 -0.125,-2.3125 0,-0.6875 0,-1.40625 0.09375,-2 C 1.625,-6.921875 2.4375,-7.03125 2.71875,-7.03125 c 0.359375,0 1.078125,0.203125 1.28125,1.28125 0.109375,0.609375 0.109375,1.4375 0.109375,2.125 0,0.828125 0,1.5625 -0.125,2.265625 C 3.828125,-0.328125 3.203125,0 2.71875,0 Z m 0,0"
                 id="path403385" />
            </g>
            <g
               id="g403391"
               transform="translate(16.363649,8.1820002)"
               style="fill:#0000ff">
              <path
                 style="fill:#0000ff;stroke:none"
                 d="M 2.78125,2.71875 V 2.296875 H 1.71875 V -7.75 h 1.0625 v -0.421875 h -1.5 V 2.71875 Z m 0,0"
                 id="path403389" />
            </g>
          </g>
        </g>
        <g
           style="fill:#0000ff;fill-opacity:1"
           id="g403401">
          <g
             id="g403399"
             transform="translate(19.393999,8.1820002)"
             style="fill:#0000ff">
            <path
               style="fill:#0000ff;stroke:none"
               d="m 3.125,-7.453125 c 0,0 0,-0.109375 -0.140625,-0.109375 -0.25,0 -1.046875,0.078125 -1.328125,0.109375 -0.078125,0 -0.203125,0.015625 -0.203125,0.21875 0,0.125 0.09375,0.125 0.265625,0.125 0.515625,0 0.53125,0.078125 0.53125,0.1875 l -0.03125,0.21875 -1.578125,6.28125 C 0.59375,-0.265625 0.59375,-0.25 0.59375,-0.1875 c 0,0.25 0.21875,0.3125 0.328125,0.3125 C 1.0625,0.125 1.21875,0.015625 1.28125,-0.109375 1.34375,-0.203125 1.828125,-2.21875 1.890625,-2.5 c 0.375,0.03125 1.265625,0.203125 1.265625,0.921875 0,0.078125 0,0.125 -0.03125,0.234375 -0.015625,0.140625 -0.03125,0.265625 -0.03125,0.390625 0,0.640625 0.421875,1.078125 1,1.078125 0.328125,0 0.625,-0.171875 0.859375,-0.578125 C 5.21875,-0.9375 5.34375,-1.53125 5.34375,-1.5625 c 0,-0.109375 -0.09375,-0.109375 -0.125,-0.109375 -0.109375,0 -0.125,0.046875 -0.15625,0.203125 -0.21875,0.796875 -0.46875,1.34375 -0.953125,1.34375 -0.203125,0 -0.34375,-0.109375 -0.34375,-0.5 0,-0.1875 0.046875,-0.4375 0.078125,-0.625 0.046875,-0.171875 0.046875,-0.21875 0.046875,-0.328125 0,-0.71875 -0.6875,-1.03125 -1.609375,-1.140625 0.34375,-0.203125 0.6875,-0.546875 0.9375,-0.8125 0.515625,-0.578125 1.03125,-1.046875 1.5625,-1.046875 0.0625,0 0.078125,0 0.09375,0.015625 C 5,-4.546875 5.015625,-4.546875 5.109375,-4.484375 5.125,-4.46875 5.125,-4.453125 5.140625,-4.4375 4.625,-4.40625 4.53125,-3.984375 4.53125,-3.84375 c 0,0.171875 0.109375,0.375 0.40625,0.375 0.28125,0 0.609375,-0.234375 0.609375,-0.671875 0,-0.3125 -0.25,-0.6875 -0.75,-0.6875 -0.296875,0 -0.8125,0.09375 -1.59375,0.96875 C 2.828125,-3.453125 2.40625,-3.015625 2,-2.84375 Z m 0,0"
               id="path403397" />
          </g>
        </g>
        <g
           clip-path="url(#clipPath3207)"
           clip-rule="nonzero"
           id="g403409"
           style="fill:#0000ff">
          <g
             style="fill:#0000ff;fill-opacity:1"
             id="g403407">
            <g
               id="g403405"
               transform="translate(25.411461,8.1820002)"
               style="fill:#0000ff">
              <path
                 style="fill:#0000ff;stroke:none"
                 d="m 5.140625,-4.109375 c 0,-0.0625 0.03125,-0.125 0.03125,-0.203125 0,-0.1875 -0.140625,-0.296875 -0.3125,-0.296875 -0.109375,0 -0.40625,0.078125 -0.453125,0.46875 -0.203125,-0.390625 -0.578125,-0.6875 -1.015625,-0.6875 -1.234375,0 -2.59375,1.53125 -2.59375,3.109375 C 0.796875,-0.640625 1.46875,0 2.25,0 2.890625,0 3.40625,-0.515625 3.515625,-0.625 3.296875,0.34375 3.15625,0.796875 3.15625,0.8125 3.125,0.921875 2.75,2 1.59375,2 1.390625,2 1.03125,1.984375 0.71875,1.890625 1.046875,1.78125 1.171875,1.5 1.171875,1.3125 c 0,-0.171875 -0.125,-0.375 -0.421875,-0.375 -0.234375,0 -0.59375,0.203125 -0.59375,0.640625 0,0.4375 0.40625,0.65625 1.453125,0.65625 1.375,0 2.15625,-0.84375 2.3125,-1.5 z m -1.421875,2.71875 c -0.0625,0.28125 -0.3125,0.546875 -0.5625,0.765625 -0.21875,0.1875 -0.5625,0.390625 -0.875,0.390625 -0.546875,0 -0.703125,-0.578125 -0.703125,-1.015625 0,-0.515625 0.3125,-1.796875 0.609375,-2.359375 0.28125,-0.53125 0.75,-0.96875 1.21875,-0.96875 0.71875,0 0.875,0.875 0.875,0.9375 0,0.046875 -0.03125,0.125 -0.03125,0.15625 z m 0,0"
                 id="path403403" />
            </g>
          </g>
        </g>
        <g
           clip-path="url(#clipPath1709)"
           clip-rule="nonzero"
           id="g403417"
           style="fill:#0000ff">
          <g
             style="fill:#0000ff;fill-opacity:1"
             id="g403415">
            <g
               id="g403413"
               transform="translate(31.011,8.1820002)"
               style="fill:#0000ff">
              <path
                 style="fill:#0000ff;stroke:none"
                 d="m 1.734375,-8.171875 h -1.5 V -7.75 h 1.0625 V 2.296875 h -1.0625 V 2.71875 h 1.5 z m 0,0"
                 id="path403411" />
            </g>
          </g>
        </g>
      </g>
    </g>
  </g>
</svg>
