<?xml version="1.0" encoding="UTF-8" standalone="no"?>
<!-- Created with Inkscape (http://www.inkscape.org/) -->

<svg
   width="191.99998"
   height="143.99998"
   viewBox="0 0 50.799994 38.099997"
   version="1.1"
   id="svg5"
   sodipodi:docname="h03.svg"
   inkscape:version="1.2.1 (9c6d41e410, 2022-07-14)"
   xmlns:inkscape="http://www.inkscape.org/namespaces/inkscape"
   xmlns:sodipodi="http://sodipodi.sourceforge.net/DTD/sodipodi-0.dtd"
   xmlns="http://www.w3.org/2000/svg"
   xmlns:svg="http://www.w3.org/2000/svg">
  <sodipodi:namedview
     id="namedview7"
     pagecolor="#ffffff"
     bordercolor="#000000"
     borderopacity="0.25"
     inkscape:showpageshadow="false"
     inkscape:pageopacity="0.0"
     inkscape:pagecheckerboard="false"
     inkscape:deskcolor="#d1d1d1"
     inkscape:document-units="px"
     showgrid="true"
     inkscape:zoom="0.99999999"
     inkscape:cx="434"
     inkscape:cy="308.5"
     inkscape:window-width="1920"
     inkscape:window-height="1050"
     inkscape:window-x="0"
     inkscape:window-y="18"
     inkscape:window-maximized="1"
     inkscape:current-layer="layer1"
     showguides="true">
    <inkscape:grid
       type="xygrid"
       id="grid1223"
       spacingx="1.0583333"
       spacingy="1.0583333"
       empspacing="4"
       originx="3.1554436e-30"
       originy="-42.333334" />
    <sodipodi:guide
       position="-101.6,122.7667"
       orientation="0,-1"
       id="guide1694"
       inkscape:locked="false" />
    <sodipodi:guide
       position="-101.6,122.7667"
       orientation="1,0"
       id="guide1696"
       inkscape:locked="false" />
    <sodipodi:guide
       position="-50.800003,122.76671"
       orientation="1,0"
       id="guide21735"
       inkscape:locked="false" />
    <sodipodi:guide
       position="-101.6,80.433356"
       orientation="0,-1"
       id="guide21941"
       inkscape:locked="false" />
    <sodipodi:guide
       position="-1.0991852e-05,122.76671"
       orientation="1,0"
       id="guide24413"
       inkscape:locked="false" />
    <sodipodi:guide
       position="-101.6,38.100026"
       orientation="0,-1"
       id="guide35496"
       inkscape:locked="false" />
    <sodipodi:guide
       position="50.799999,122.76669"
       orientation="1,0"
       id="guide50631"
       inkscape:locked="false" />
    <sodipodi:guide
       position="-101.6,2.5932471e-05"
       orientation="0,-1"
       id="guide53352"
       inkscape:locked="false" />
    <sodipodi:guide
       position="-101.6,-38.099963"
       orientation="0,-1"
       id="guide159195"
       inkscape:locked="false" />
    <sodipodi:guide
       position="-33.86667,-38.099963"
       orientation="1,0"
       id="guide500405"
       inkscape:locked="false" />
    <sodipodi:guide
       position="-101.6,-80.433301"
       orientation="0,-1"
       id="guide503869"
       inkscape:locked="false" />
    <sodipodi:guide
       position="33.866659,-80.433299"
       orientation="1,0"
       id="guide515144"
       inkscape:locked="false" />
    <sodipodi:guide
       position="101.59999,-80.433301"
       orientation="1,0"
       id="guide645019"
       inkscape:locked="false" />
    <sodipodi:guide
       position="-42.333336,-118.5333"
       orientation="1,0"
       id="guide686712"
       inkscape:locked="false" />
    <sodipodi:guide
       position="-101.6,-118.5333"
       orientation="0,-1"
       id="guide686714"
       inkscape:locked="false" />
    <sodipodi:guide
       position="16.933329,-118.5333"
       orientation="1,0"
       id="guide765939"
       inkscape:locked="false" />
    <sodipodi:guide
       position="76.199989,-118.5333"
       orientation="1,0"
       id="guide816936"
       inkscape:locked="false" />
    <sodipodi:guide
       position="152.39999,-38.099961"
       orientation="1,0"
       id="guide839718"
       inkscape:locked="false" />
  </sodipodi:namedview>
  <defs
     id="defs2">
    <clipPath
       id="clipPath8831-1">
      <path
         d="M 0,0 H 9 V 10.910156 H 0 Z m 0,0"
         id="path743-0" />
    </clipPath>
    <clipPath
       id="clipPath5229-6">
      <path
         d="m 18,0 h 2 v 10.910156 h -2 z m 0,0"
         id="path6494-3" />
    </clipPath>
    <clipPath
       id="clipPath9902-6">
      <path
         d="M 0,0 H 25 V 10.910156 H 0 Z m 0,0"
         id="path4289-5" />
    </clipPath>
    <clipPath
       id="clipPath1047-6">
      <path
         d="m 31,3 h 6 v 7.910156 h -6 z m 0,0"
         id="path4752-9" />
    </clipPath>
    <clipPath
       id="clipPath8779-3">
      <path
         d="m 36,0 h 3 v 10.910156 h -3 z m 0,0"
         id="path4012-7" />
    </clipPath>
    <clipPath
       id="clipPath3896-4">
      <path
         d="M 0,0 H 25 V 10.910156 H 0 Z m 0,0"
         id="path7205-5" />
    </clipPath>
    <clipPath
       id="clipPath9306-2">
      <path
         d="m 31,3 h 6 v 7.910156 h -6 z m 0,0"
         id="path6195-5" />
    </clipPath>
    <clipPath
       id="clipPath7935-4">
      <path
         d="m 36,0 h 3 v 10.910156 h -3 z m 0,0"
         id="path1419-7" />
    </clipPath>
    <marker
       style="overflow:visible"
       id="Arrow2-4"
       refX="0"
       refY="0"
       orient="auto-start-reverse"
       inkscape:stockid="Arrow2"
       markerWidth="3.3000002"
       markerHeight="2.4000001"
       viewBox="0 0 7.7 5.6"
       inkscape:isstock="true"
       inkscape:collect="always"
       preserveAspectRatio="xMidYMid">
      <path
         transform="scale(0.7)"
         d="M -2,-4 9,0 -2,4 c 2,-2.33 2,-5.66 0,-8 z"
         style="fill:context-stroke;fill-rule:evenodd;stroke:none"
         id="arrow2L-4" />
    </marker>
    <clipPath
       id="clipPath7433">
      <path
         d="m 6,3 h 5 V 6.441406 H 6 Z m 0,0"
         id="path11204" />
    </clipPath>
    <clipPath
       id="clipPath3571">
      <path
         d="m 6,3 h 4 V 7.605469 H 6 Z m 0,0"
         id="path79087" />
    </clipPath>
    <clipPath
       id="clipPath2515">
      <path
         d="m 8,2 h 6 V 6.785156 H 8 Z m 0,0"
         id="path94721" />
    </clipPath>
    <clipPath
       id="clipPath7672">
      <path
         d="m 6,3 h 4 V 7.605469 H 6 Z m 0,0"
         id="path52991" />
    </clipPath>
    <clipPath
       id="clipPath9445">
      <path
         d="m 6,3 h 4 V 6.441406 H 6 Z m 0,0"
         id="path11058" />
    </clipPath>
  </defs>
  <g
     inkscape:label="Capa 1"
     inkscape:groupmode="layer"
     id="layer1"
     transform="translate(-101.6,-84.666665)">
    <rect
       style="fill:#ffffff;stroke:none;stroke-width:0.264583;stroke-linejoin:round;stroke-dasharray:none;stroke-dashoffset:0;paint-order:stroke markers fill"
       id="rect427313"
       width="50.799999"
       height="38.099998"
       x="101.6"
       y="84.666664"
       inkscape:export-filename="h03.svg"
       inkscape:export-xdpi="96"
       inkscape:export-ydpi="96" />
    <rect
       style="fill:#cccccc;stroke:#000000;stroke-width:0.132292;stroke-linejoin:round;stroke-dasharray:none;paint-order:stroke markers fill"
       id="rect91006"
       width="38.099987"
       height="2.1166656"
       x="105.83331"
       y="100.54166" />
    <path
       style="fill:none;stroke:#000000;stroke-width:0.264583;stroke-linejoin:round;paint-order:stroke markers fill"
       d="m 105.83333,97.36663 v 8.46667"
       id="path5089-3" />
    <path
       style="fill:none;stroke:#000000;stroke-width:0.264583;stroke-linejoin:round;stroke-dasharray:none;paint-order:stroke markers fill"
       d="m 105.83332,98.425001 -1.05833,-1.058332"
       id="path91248"
       sodipodi:nodetypes="cc" />
    <path
       style="fill:none;stroke:#000000;stroke-width:0.264583;stroke-linejoin:round;stroke-dasharray:none;paint-order:stroke markers fill"
       d="m 104.77499,105.83333 -1.05834,-1.05834"
       id="path91252"
       sodipodi:nodetypes="cc" />
    <path
       style="fill:none;stroke:#000000;stroke-width:0.264583;stroke-linejoin:round;stroke-dasharray:none;paint-order:stroke markers fill"
       d="m 105.83332,105.83332 c -2.11667,-2.11666 -2.11667,-2.11666 -2.11667,-2.11666"
       id="path91254" />
    <path
       style="fill:none;stroke:#000000;stroke-width:0.264583;stroke-linejoin:round;stroke-dasharray:none;paint-order:stroke markers fill"
       d="m 105.83332,104.77499 c -2.11667,-2.11667 -2.11667,-2.11667 -2.11667,-2.11667"
       id="path91256" />
    <path
       style="fill:none;stroke:#000000;stroke-width:0.264583;stroke-linejoin:round;stroke-dasharray:none;paint-order:stroke markers fill"
       d="m 105.83332,103.71666 c -2.11667,-2.11667 -2.11667,-2.11667 -2.11667,-2.11667"
       id="path91258" />
    <path
       style="fill:none;stroke:#000000;stroke-width:0.264583;stroke-linejoin:round;stroke-dasharray:none;paint-order:stroke markers fill"
       d="m 105.83332,102.65832 c -2.11667,-2.11666 -2.11667,-2.11666 -2.11667,-2.11666"
       id="path91260" />
    <path
       style="fill:none;stroke:#000000;stroke-width:0.264583;stroke-linejoin:round;stroke-dasharray:none;paint-order:stroke markers fill"
       d="m 105.83332,101.59999 c -2.11667,-2.116669 -2.11667,-2.116669 -2.11667,-2.116669"
       id="path91262" />
    <path
       style="fill:none;stroke:#000000;stroke-width:0.264583;stroke-linejoin:round;stroke-dasharray:none;paint-order:stroke markers fill"
       d="m 105.83332,100.54165 c -2.11667,-2.116659 -2.11667,-2.116659 -2.11667,-2.116659"
       id="path91264" />
    <path
       style="fill:none;stroke:#000000;stroke-width:0.264583;stroke-linejoin:round;stroke-dasharray:none;paint-order:stroke markers fill"
       d="m 105.83332,99.483331 c -2.11667,-2.116664 -2.11667,-2.116664 -2.11667,-2.116664"
       id="path91266" />
    <g
       inkscape:label=""
       transform="matrix(0.53939247,0,0,0.53939247,110.35177,115.38049)"
       id="g91036"
       style="fill:#0000ff">
      <g
         id="g91034"
         transform="matrix(0.352778,0,0,0.352778,-0.192925,-0.00357193)"
         style="fill:#0000ff">
        <g
           clip-path="url(#clipPath8831-1)"
           clip-rule="nonzero"
           id="g91018"
           style="fill:#0000ff">
          <g
             style="fill:#0000ff;fill-opacity:1"
             id="g91016">
            <g
               id="g91010"
               transform="translate(0,8.1820002)"
               style="fill:#0000ff">
              <path
                 style="fill:#0000ff;stroke:none"
                 d="m 1.390625,-0.84375 1.15625,-1.125 c 1.703125,-1.5 2.34375,-2.09375 2.34375,-3.171875 0,-1.25 -0.96875,-2.125 -2.3125,-2.125 -1.21875,0 -2.03125,1 -2.03125,1.96875 0,0.625 0.546875,0.625 0.578125,0.625 0.1875,0 0.5625,-0.140625 0.5625,-0.578125 0,-0.296875 -0.1875,-0.578125 -0.578125,-0.578125 -0.078125,0 -0.109375,0 -0.140625,0.015625 0.25,-0.703125 0.84375,-1.109375 1.46875,-1.109375 1,0 1.46875,0.875 1.46875,1.78125 0,0.859375 -0.546875,1.734375 -1.140625,2.40625 l -2.09375,2.328125 c -0.125,0.125 -0.125,0.140625 -0.125,0.40625 H 4.59375 L 4.890625,-1.890625 H 4.625 C 4.5625,-1.578125 4.5,-1.09375 4.390625,-0.921875 4.3125,-0.84375 3.59375,-0.84375 3.34375,-0.84375 Z m 0,0"
                 id="path91008" />
            </g>
            <g
               id="g91014"
               transform="translate(5.4545498,8.1820002)"
               style="fill:#0000ff">
              <path
                 style="fill:#0000ff;stroke:none"
                 d="M 2.78125,2.71875 V 2.296875 H 1.71875 V -7.75 h 1.0625 v -0.421875 h -1.5 V 2.71875 Z m 0,0"
                 id="path91012" />
            </g>
          </g>
        </g>
        <g
           style="fill:#0000ff;fill-opacity:1"
           id="g91024">
          <g
             id="g91022"
             transform="translate(8.4849997,8.1820002)"
             style="fill:#0000ff">
            <path
               style="fill:#0000ff;stroke:none"
               d="m 0.953125,-0.640625 c -0.03125,0.15625 -0.09375,0.40625 -0.09375,0.46875 0,0.1875 0.15625,0.296875 0.3125,0.296875 C 1.3125,0.125 1.5,0.03125 1.578125,-0.1875 1.59375,-0.203125 1.71875,-0.71875 1.78125,-1 l 0.25,-0.96875 c 0.0625,-0.25 0.125,-0.484375 0.1875,-0.734375 0.03125,-0.1875 0.125,-0.5 0.140625,-0.546875 0.15625,-0.34375 0.734375,-1.328125 1.78125,-1.328125 0.484375,0 0.578125,0.40625 0.578125,0.765625 0,0.265625 -0.078125,0.578125 -0.15625,0.90625 L 4.25,-1.640625 4.03125,-0.8125 c -0.046875,0.21875 -0.140625,0.578125 -0.140625,0.640625 0,0.1875 0.15625,0.296875 0.3125,0.296875 0.34375,0 0.40625,-0.28125 0.5,-0.625 0.15625,-0.609375 0.546875,-2.203125 0.65625,-2.625 0.03125,-0.140625 0.609375,-1.453125 1.796875,-1.453125 0.46875,0 0.59375,0.375 0.59375,0.765625 0,0.609375 -0.46875,1.859375 -0.6875,2.4375 -0.09375,0.265625 -0.140625,0.375 -0.140625,0.59375 0,0.515625 0.390625,0.90625 0.890625,0.90625 1.03125,0 1.4375,-1.59375 1.4375,-1.6875 0,-0.109375 -0.09375,-0.109375 -0.125,-0.109375 -0.109375,0 -0.109375,0.03125 -0.171875,0.203125 C 8.796875,-0.890625 8.4375,-0.125 7.84375,-0.125 c -0.1875,0 -0.265625,-0.109375 -0.265625,-0.359375 0,-0.265625 0.09375,-0.53125 0.203125,-0.765625 0.203125,-0.578125 0.65625,-1.78125 0.65625,-2.40625 0,-0.703125 -0.4375,-1.171875 -1.25,-1.171875 -0.8125,0 -1.375,0.484375 -1.78125,1.0625 C 5.40625,-3.90625 5.359375,-4.28125 5.0625,-4.53125 4.78125,-4.765625 4.4375,-4.828125 4.171875,-4.828125 3.1875,-4.828125 2.65625,-4.125 2.46875,-3.875 c -0.0625,-0.625 -0.515625,-0.953125 -1,-0.953125 -0.515625,0 -0.71875,0.4375 -0.8125,0.625 -0.203125,0.390625 -0.34375,1.03125 -0.34375,1.0625 0,0.109375 0.109375,0.109375 0.140625,0.109375 0.109375,0 0.109375,-0.015625 0.171875,-0.25 0.1875,-0.78125 0.40625,-1.296875 0.796875,-1.296875 0.1875,0 0.34375,0.078125 0.34375,0.5 0,0.234375 -0.03125,0.34375 -0.171875,0.921875 z m 0,0"
               id="path91020" />
          </g>
        </g>
        <g
           clip-path="url(#clipPath5229-6)"
           clip-rule="nonzero"
           id="g91032"
           style="fill:#0000ff">
          <g
             style="fill:#0000ff;fill-opacity:1"
             id="g91030">
            <g
               id="g91028"
               transform="translate(18.063,8.1820002)"
               style="fill:#0000ff">
              <path
                 style="fill:#0000ff;stroke:none"
                 d="m 1.734375,-8.171875 h -1.5 V -7.75 h 1.0625 V 2.296875 h -1.0625 V 2.71875 h 1.5 z m 0,0"
                 id="path91026" />
            </g>
          </g>
        </g>
      </g>
    </g>
    <g
       inkscape:label=""
       transform="matrix(0.53939247,0,0,0.53939247,123.05177,115.38049)"
       id="g91066"
       style="fill:#0000ff">
      <g
         id="g91064"
         transform="matrix(0.352778,0,0,0.352778,-0.192925,-0.00357193)"
         style="fill:#0000ff">
        <g
           clip-path="url(#clipPath8831-1)"
           clip-rule="nonzero"
           id="g91048"
           style="fill:#0000ff">
          <g
             style="fill:#0000ff;fill-opacity:1"
             id="g91046">
            <g
               id="g91040"
               transform="translate(0,8.1820002)"
               style="fill:#0000ff">
              <path
                 style="fill:#0000ff;stroke:none"
                 d="m 1.390625,-0.84375 1.15625,-1.125 c 1.703125,-1.5 2.34375,-2.09375 2.34375,-3.171875 0,-1.25 -0.96875,-2.125 -2.3125,-2.125 -1.21875,0 -2.03125,1 -2.03125,1.96875 0,0.625 0.546875,0.625 0.578125,0.625 0.1875,0 0.5625,-0.140625 0.5625,-0.578125 0,-0.296875 -0.1875,-0.578125 -0.578125,-0.578125 -0.078125,0 -0.109375,0 -0.140625,0.015625 0.25,-0.703125 0.84375,-1.109375 1.46875,-1.109375 1,0 1.46875,0.875 1.46875,1.78125 0,0.859375 -0.546875,1.734375 -1.140625,2.40625 l -2.09375,2.328125 c -0.125,0.125 -0.125,0.140625 -0.125,0.40625 H 4.59375 L 4.890625,-1.890625 H 4.625 C 4.5625,-1.578125 4.5,-1.09375 4.390625,-0.921875 4.3125,-0.84375 3.59375,-0.84375 3.34375,-0.84375 Z m 0,0"
                 id="path91038" />
            </g>
            <g
               id="g91044"
               transform="translate(5.4545498,8.1820002)"
               style="fill:#0000ff">
              <path
                 style="fill:#0000ff;stroke:none"
                 d="M 2.78125,2.71875 V 2.296875 H 1.71875 V -7.75 h 1.0625 v -0.421875 h -1.5 V 2.71875 Z m 0,0"
                 id="path91042" />
            </g>
          </g>
        </g>
        <g
           style="fill:#0000ff;fill-opacity:1"
           id="g91054">
          <g
             id="g91052"
             transform="translate(8.4849997,8.1820002)"
             style="fill:#0000ff">
            <path
               style="fill:#0000ff;stroke:none"
               d="m 0.953125,-0.640625 c -0.03125,0.15625 -0.09375,0.40625 -0.09375,0.46875 0,0.1875 0.15625,0.296875 0.3125,0.296875 C 1.3125,0.125 1.5,0.03125 1.578125,-0.1875 1.59375,-0.203125 1.71875,-0.71875 1.78125,-1 l 0.25,-0.96875 c 0.0625,-0.25 0.125,-0.484375 0.1875,-0.734375 0.03125,-0.1875 0.125,-0.5 0.140625,-0.546875 0.15625,-0.34375 0.734375,-1.328125 1.78125,-1.328125 0.484375,0 0.578125,0.40625 0.578125,0.765625 0,0.265625 -0.078125,0.578125 -0.15625,0.90625 L 4.25,-1.640625 4.03125,-0.8125 c -0.046875,0.21875 -0.140625,0.578125 -0.140625,0.640625 0,0.1875 0.15625,0.296875 0.3125,0.296875 0.34375,0 0.40625,-0.28125 0.5,-0.625 0.15625,-0.609375 0.546875,-2.203125 0.65625,-2.625 0.03125,-0.140625 0.609375,-1.453125 1.796875,-1.453125 0.46875,0 0.59375,0.375 0.59375,0.765625 0,0.609375 -0.46875,1.859375 -0.6875,2.4375 -0.09375,0.265625 -0.140625,0.375 -0.140625,0.59375 0,0.515625 0.390625,0.90625 0.890625,0.90625 1.03125,0 1.4375,-1.59375 1.4375,-1.6875 0,-0.109375 -0.09375,-0.109375 -0.125,-0.109375 -0.109375,0 -0.109375,0.03125 -0.171875,0.203125 C 8.796875,-0.890625 8.4375,-0.125 7.84375,-0.125 c -0.1875,0 -0.265625,-0.109375 -0.265625,-0.359375 0,-0.265625 0.09375,-0.53125 0.203125,-0.765625 0.203125,-0.578125 0.65625,-1.78125 0.65625,-2.40625 0,-0.703125 -0.4375,-1.171875 -1.25,-1.171875 -0.8125,0 -1.375,0.484375 -1.78125,1.0625 C 5.40625,-3.90625 5.359375,-4.28125 5.0625,-4.53125 4.78125,-4.765625 4.4375,-4.828125 4.171875,-4.828125 3.1875,-4.828125 2.65625,-4.125 2.46875,-3.875 c -0.0625,-0.625 -0.515625,-0.953125 -1,-0.953125 -0.515625,0 -0.71875,0.4375 -0.8125,0.625 -0.203125,0.390625 -0.34375,1.03125 -0.34375,1.0625 0,0.109375 0.109375,0.109375 0.140625,0.109375 0.109375,0 0.109375,-0.015625 0.171875,-0.25 0.1875,-0.78125 0.40625,-1.296875 0.796875,-1.296875 0.1875,0 0.34375,0.078125 0.34375,0.5 0,0.234375 -0.03125,0.34375 -0.171875,0.921875 z m 0,0"
               id="path91050" />
          </g>
        </g>
        <g
           clip-path="url(#clipPath5229-6)"
           clip-rule="nonzero"
           id="g91062"
           style="fill:#0000ff">
          <g
             style="fill:#0000ff;fill-opacity:1"
             id="g91060">
            <g
               id="g91058"
               transform="translate(18.063,8.1820002)"
               style="fill:#0000ff">
              <path
                 style="fill:#0000ff;stroke:none"
                 d="m 1.734375,-8.171875 h -1.5 V -7.75 h 1.0625 V 2.296875 h -1.0625 V 2.71875 h 1.5 z m 0,0"
                 id="path91056" />
            </g>
          </g>
        </g>
      </g>
    </g>
    <g
       inkscape:label=""
       transform="matrix(0.53939247,0,0,0.53939247,135.75177,115.38049)"
       id="g91096"
       style="fill:#0000ff">
      <g
         id="g91094"
         transform="matrix(0.352778,0,0,0.352778,-0.192925,-0.00357193)"
         style="fill:#0000ff">
        <g
           clip-path="url(#clipPath8831-1)"
           clip-rule="nonzero"
           id="g91078"
           style="fill:#0000ff">
          <g
             style="fill:#0000ff;fill-opacity:1"
             id="g91076">
            <g
               id="g91070"
               transform="translate(0,8.1820002)"
               style="fill:#0000ff">
              <path
                 style="fill:#0000ff;stroke:none"
                 d="m 1.390625,-0.84375 1.15625,-1.125 c 1.703125,-1.5 2.34375,-2.09375 2.34375,-3.171875 0,-1.25 -0.96875,-2.125 -2.3125,-2.125 -1.21875,0 -2.03125,1 -2.03125,1.96875 0,0.625 0.546875,0.625 0.578125,0.625 0.1875,0 0.5625,-0.140625 0.5625,-0.578125 0,-0.296875 -0.1875,-0.578125 -0.578125,-0.578125 -0.078125,0 -0.109375,0 -0.140625,0.015625 0.25,-0.703125 0.84375,-1.109375 1.46875,-1.109375 1,0 1.46875,0.875 1.46875,1.78125 0,0.859375 -0.546875,1.734375 -1.140625,2.40625 l -2.09375,2.328125 c -0.125,0.125 -0.125,0.140625 -0.125,0.40625 H 4.59375 L 4.890625,-1.890625 H 4.625 C 4.5625,-1.578125 4.5,-1.09375 4.390625,-0.921875 4.3125,-0.84375 3.59375,-0.84375 3.34375,-0.84375 Z m 0,0"
                 id="path91068" />
            </g>
            <g
               id="g91074"
               transform="translate(5.4545498,8.1820002)"
               style="fill:#0000ff">
              <path
                 style="fill:#0000ff;stroke:none"
                 d="M 2.78125,2.71875 V 2.296875 H 1.71875 V -7.75 h 1.0625 v -0.421875 h -1.5 V 2.71875 Z m 0,0"
                 id="path91072" />
            </g>
          </g>
        </g>
        <g
           style="fill:#0000ff;fill-opacity:1"
           id="g91084">
          <g
             id="g91082"
             transform="translate(8.4849997,8.1820002)"
             style="fill:#0000ff">
            <path
               style="fill:#0000ff;stroke:none"
               d="m 0.953125,-0.640625 c -0.03125,0.15625 -0.09375,0.40625 -0.09375,0.46875 0,0.1875 0.15625,0.296875 0.3125,0.296875 C 1.3125,0.125 1.5,0.03125 1.578125,-0.1875 1.59375,-0.203125 1.71875,-0.71875 1.78125,-1 l 0.25,-0.96875 c 0.0625,-0.25 0.125,-0.484375 0.1875,-0.734375 0.03125,-0.1875 0.125,-0.5 0.140625,-0.546875 0.15625,-0.34375 0.734375,-1.328125 1.78125,-1.328125 0.484375,0 0.578125,0.40625 0.578125,0.765625 0,0.265625 -0.078125,0.578125 -0.15625,0.90625 L 4.25,-1.640625 4.03125,-0.8125 c -0.046875,0.21875 -0.140625,0.578125 -0.140625,0.640625 0,0.1875 0.15625,0.296875 0.3125,0.296875 0.34375,0 0.40625,-0.28125 0.5,-0.625 0.15625,-0.609375 0.546875,-2.203125 0.65625,-2.625 0.03125,-0.140625 0.609375,-1.453125 1.796875,-1.453125 0.46875,0 0.59375,0.375 0.59375,0.765625 0,0.609375 -0.46875,1.859375 -0.6875,2.4375 -0.09375,0.265625 -0.140625,0.375 -0.140625,0.59375 0,0.515625 0.390625,0.90625 0.890625,0.90625 1.03125,0 1.4375,-1.59375 1.4375,-1.6875 0,-0.109375 -0.09375,-0.109375 -0.125,-0.109375 -0.109375,0 -0.109375,0.03125 -0.171875,0.203125 C 8.796875,-0.890625 8.4375,-0.125 7.84375,-0.125 c -0.1875,0 -0.265625,-0.109375 -0.265625,-0.359375 0,-0.265625 0.09375,-0.53125 0.203125,-0.765625 0.203125,-0.578125 0.65625,-1.78125 0.65625,-2.40625 0,-0.703125 -0.4375,-1.171875 -1.25,-1.171875 -0.8125,0 -1.375,0.484375 -1.78125,1.0625 C 5.40625,-3.90625 5.359375,-4.28125 5.0625,-4.53125 4.78125,-4.765625 4.4375,-4.828125 4.171875,-4.828125 3.1875,-4.828125 2.65625,-4.125 2.46875,-3.875 c -0.0625,-0.625 -0.515625,-0.953125 -1,-0.953125 -0.515625,0 -0.71875,0.4375 -0.8125,0.625 -0.203125,0.390625 -0.34375,1.03125 -0.34375,1.0625 0,0.109375 0.109375,0.109375 0.140625,0.109375 0.109375,0 0.109375,-0.015625 0.171875,-0.25 0.1875,-0.78125 0.40625,-1.296875 0.796875,-1.296875 0.1875,0 0.34375,0.078125 0.34375,0.5 0,0.234375 -0.03125,0.34375 -0.171875,0.921875 z m 0,0"
               id="path91080" />
          </g>
        </g>
        <g
           clip-path="url(#clipPath5229-6)"
           clip-rule="nonzero"
           id="g91092"
           style="fill:#0000ff">
          <g
             style="fill:#0000ff;fill-opacity:1"
             id="g91090">
            <g
               id="g91088"
               transform="translate(18.063,8.1820002)"
               style="fill:#0000ff">
              <path
                 style="fill:#0000ff;stroke:none"
                 d="m 1.734375,-8.171875 h -1.5 V -7.75 h 1.0625 V 2.296875 h -1.0625 V 2.71875 h 1.5 z m 0,0"
                 id="path91086" />
            </g>
          </g>
        </g>
      </g>
    </g>
    <g
       inkscape:label=""
       transform="matrix(0.53939247,0,0,0.53939247,128.50335,108.17731)"
       id="g91146"
       style="fill:#0000ff">
      <g
         id="g91144"
         transform="matrix(0.352778,0,0,0.352778,-0.341753,-0.00357193)"
         style="fill:#0000ff">
        <g
           clip-path="url(#clipPath9902-6)"
           clip-rule="nonzero"
           id="g91120"
           style="fill:#0000ff">
          <g
             style="fill:#0000ff;fill-opacity:1"
             id="g91118">
            <g
               id="g91100"
               transform="translate(0,8.1820002)"
               style="fill:#0000ff">
              <path
                 style="fill:#0000ff;stroke:none"
                 d="m 3.203125,-6.984375 c 0,-0.25 0,-0.28125 -0.25,-0.28125 C 2.28125,-6.5625 1.3125,-6.5625 0.96875,-6.5625 v 0.328125 c 0.21875,0 0.859375,0 1.4375,-0.28125 v 5.65625 c 0,0.390625 -0.046875,0.515625 -1.015625,0.515625 H 1.03125 V 0 c 0.390625,-0.03125 1.328125,-0.03125 1.765625,-0.03125 0.4375,0 1.390625,0 1.765625,0.03125 V -0.34375 H 4.21875 c -0.984375,0 -1.015625,-0.109375 -1.015625,-0.515625 z m 0,0"
                 id="path91098" />
            </g>
            <g
               id="g91104"
               transform="translate(5.4545498,8.1820002)"
               style="fill:#0000ff">
              <path
                 style="fill:#0000ff;stroke:none"
                 d="m 5.015625,-3.484375 c 0,-0.875 -0.046875,-1.75 -0.4375,-2.5625 -0.5,-1.046875 -1.390625,-1.21875 -1.859375,-1.21875 -0.640625,0 -1.4375,0.28125 -1.890625,1.296875 -0.34375,0.75 -0.40625,1.609375 -0.40625,2.484375 0,0.8125 0.046875,1.796875 0.5,2.625 0.46875,0.875 1.265625,1.09375 1.796875,1.09375 0.578125,0 1.421875,-0.21875 1.890625,-1.265625 0.359375,-0.75 0.40625,-1.59375 0.40625,-2.453125 z M 2.71875,0 C 2.296875,0 1.640625,-0.265625 1.453125,-1.3125 c -0.125,-0.65625 -0.125,-1.671875 -0.125,-2.3125 0,-0.6875 0,-1.40625 0.09375,-2 C 1.625,-6.921875 2.4375,-7.03125 2.71875,-7.03125 c 0.359375,0 1.078125,0.203125 1.28125,1.28125 0.109375,0.609375 0.109375,1.4375 0.109375,2.125 0,0.828125 0,1.5625 -0.125,2.265625 C 3.828125,-0.328125 3.203125,0 2.71875,0 Z m 0,0"
                 id="path91102" />
            </g>
            <g
               id="g91108"
               transform="translate(10.9091,8.1820002)"
               style="fill:#0000ff">
              <path
                 style="fill:#0000ff;stroke:none"
                 d="m 5.015625,-3.484375 c 0,-0.875 -0.046875,-1.75 -0.4375,-2.5625 -0.5,-1.046875 -1.390625,-1.21875 -1.859375,-1.21875 -0.640625,0 -1.4375,0.28125 -1.890625,1.296875 -0.34375,0.75 -0.40625,1.609375 -0.40625,2.484375 0,0.8125 0.046875,1.796875 0.5,2.625 0.46875,0.875 1.265625,1.09375 1.796875,1.09375 0.578125,0 1.421875,-0.21875 1.890625,-1.265625 0.359375,-0.75 0.40625,-1.59375 0.40625,-2.453125 z M 2.71875,0 C 2.296875,0 1.640625,-0.265625 1.453125,-1.3125 c -0.125,-0.65625 -0.125,-1.671875 -0.125,-2.3125 0,-0.6875 0,-1.40625 0.09375,-2 C 1.625,-6.921875 2.4375,-7.03125 2.71875,-7.03125 c 0.359375,0 1.078125,0.203125 1.28125,1.28125 0.109375,0.609375 0.109375,1.4375 0.109375,2.125 0,0.828125 0,1.5625 -0.125,2.265625 C 3.828125,-0.328125 3.203125,0 2.71875,0 Z m 0,0"
                 id="path91106" />
            </g>
            <g
               id="g91112"
               transform="translate(16.363649,8.1820002)"
               style="fill:#0000ff">
              <path
                 style="fill:#0000ff;stroke:none"
                 d="m 5.015625,-3.484375 c 0,-0.875 -0.046875,-1.75 -0.4375,-2.5625 -0.5,-1.046875 -1.390625,-1.21875 -1.859375,-1.21875 -0.640625,0 -1.4375,0.28125 -1.890625,1.296875 -0.34375,0.75 -0.40625,1.609375 -0.40625,2.484375 0,0.8125 0.046875,1.796875 0.5,2.625 0.46875,0.875 1.265625,1.09375 1.796875,1.09375 0.578125,0 1.421875,-0.21875 1.890625,-1.265625 0.359375,-0.75 0.40625,-1.59375 0.40625,-2.453125 z M 2.71875,0 C 2.296875,0 1.640625,-0.265625 1.453125,-1.3125 c -0.125,-0.65625 -0.125,-1.671875 -0.125,-2.3125 0,-0.6875 0,-1.40625 0.09375,-2 C 1.625,-6.921875 2.4375,-7.03125 2.71875,-7.03125 c 0.359375,0 1.078125,0.203125 1.28125,1.28125 0.109375,0.609375 0.109375,1.4375 0.109375,2.125 0,0.828125 0,1.5625 -0.125,2.265625 C 3.828125,-0.328125 3.203125,0 2.71875,0 Z m 0,0"
                 id="path91110" />
            </g>
            <g
               id="g91116"
               transform="translate(21.818199,8.1820002)"
               style="fill:#0000ff">
              <path
                 style="fill:#0000ff;stroke:none"
                 d="M 2.78125,2.71875 V 2.296875 H 1.71875 V -7.75 h 1.0625 v -0.421875 h -1.5 V 2.71875 Z m 0,0"
                 id="path91114" />
            </g>
          </g>
        </g>
        <g
           style="fill:#0000ff;fill-opacity:1"
           id="g91126">
          <g
             id="g91124"
             transform="translate(24.849001,8.1820002)"
             style="fill:#0000ff">
            <path
               style="fill:#0000ff;stroke:none"
               d="m 3.125,-7.453125 c 0,0 0,-0.109375 -0.140625,-0.109375 -0.25,0 -1.046875,0.078125 -1.328125,0.109375 -0.078125,0 -0.203125,0.015625 -0.203125,0.21875 0,0.125 0.09375,0.125 0.265625,0.125 0.515625,0 0.53125,0.078125 0.53125,0.1875 l -0.03125,0.21875 -1.578125,6.28125 C 0.59375,-0.265625 0.59375,-0.25 0.59375,-0.1875 c 0,0.25 0.21875,0.3125 0.328125,0.3125 C 1.0625,0.125 1.21875,0.015625 1.28125,-0.109375 1.34375,-0.203125 1.828125,-2.21875 1.890625,-2.5 c 0.375,0.03125 1.265625,0.203125 1.265625,0.921875 0,0.078125 0,0.125 -0.03125,0.234375 -0.015625,0.140625 -0.03125,0.265625 -0.03125,0.390625 0,0.640625 0.421875,1.078125 1,1.078125 0.328125,0 0.625,-0.171875 0.859375,-0.578125 C 5.21875,-0.9375 5.34375,-1.53125 5.34375,-1.5625 c 0,-0.109375 -0.09375,-0.109375 -0.125,-0.109375 -0.109375,0 -0.125,0.046875 -0.15625,0.203125 -0.21875,0.796875 -0.46875,1.34375 -0.953125,1.34375 -0.203125,0 -0.34375,-0.109375 -0.34375,-0.5 0,-0.1875 0.046875,-0.4375 0.078125,-0.625 0.046875,-0.171875 0.046875,-0.21875 0.046875,-0.328125 0,-0.71875 -0.6875,-1.03125 -1.609375,-1.140625 0.34375,-0.203125 0.6875,-0.546875 0.9375,-0.8125 0.515625,-0.578125 1.03125,-1.046875 1.5625,-1.046875 0.0625,0 0.078125,0 0.09375,0.015625 C 5,-4.546875 5.015625,-4.546875 5.109375,-4.484375 5.125,-4.46875 5.125,-4.453125 5.140625,-4.4375 4.625,-4.40625 4.53125,-3.984375 4.53125,-3.84375 c 0,0.171875 0.109375,0.375 0.40625,0.375 0.28125,0 0.609375,-0.234375 0.609375,-0.671875 0,-0.3125 -0.25,-0.6875 -0.75,-0.6875 -0.296875,0 -0.8125,0.09375 -1.59375,0.96875 C 2.828125,-3.453125 2.40625,-3.015625 2,-2.84375 Z m 0,0"
               id="path91122" />
          </g>
        </g>
        <g
           clip-path="url(#clipPath1047-6)"
           clip-rule="nonzero"
           id="g91134"
           style="fill:#0000ff">
          <g
             style="fill:#0000ff;fill-opacity:1"
             id="g91132">
            <g
               id="g91130"
               transform="translate(30.866461,8.1820002)"
               style="fill:#0000ff">
              <path
                 style="fill:#0000ff;stroke:none"
                 d="m 5.140625,-4.109375 c 0,-0.0625 0.03125,-0.125 0.03125,-0.203125 0,-0.1875 -0.140625,-0.296875 -0.3125,-0.296875 -0.109375,0 -0.40625,0.078125 -0.453125,0.46875 -0.203125,-0.390625 -0.578125,-0.6875 -1.015625,-0.6875 -1.234375,0 -2.59375,1.53125 -2.59375,3.109375 C 0.796875,-0.640625 1.46875,0 2.25,0 2.890625,0 3.40625,-0.515625 3.515625,-0.625 3.296875,0.34375 3.15625,0.796875 3.15625,0.8125 3.125,0.921875 2.75,2 1.59375,2 1.390625,2 1.03125,1.984375 0.71875,1.890625 1.046875,1.78125 1.171875,1.5 1.171875,1.3125 c 0,-0.171875 -0.125,-0.375 -0.421875,-0.375 -0.234375,0 -0.59375,0.203125 -0.59375,0.640625 0,0.4375 0.40625,0.65625 1.453125,0.65625 1.375,0 2.15625,-0.84375 2.3125,-1.5 z m -1.421875,2.71875 c -0.0625,0.28125 -0.3125,0.546875 -0.5625,0.765625 -0.21875,0.1875 -0.5625,0.390625 -0.875,0.390625 -0.546875,0 -0.703125,-0.578125 -0.703125,-1.015625 0,-0.515625 0.3125,-1.796875 0.609375,-2.359375 0.28125,-0.53125 0.75,-0.96875 1.21875,-0.96875 0.71875,0 0.875,0.875 0.875,0.9375 0,0.046875 -0.03125,0.125 -0.03125,0.15625 z m 0,0"
                 id="path91128" />
            </g>
          </g>
        </g>
        <g
           clip-path="url(#clipPath8779-3)"
           clip-rule="nonzero"
           id="g91142"
           style="fill:#0000ff">
          <g
             style="fill:#0000ff;fill-opacity:1"
             id="g91140">
            <g
               id="g91138"
               transform="translate(36.466,8.1820002)"
               style="fill:#0000ff">
              <path
                 style="fill:#0000ff;stroke:none"
                 d="m 1.734375,-8.171875 h -1.5 V -7.75 h 1.0625 V 2.296875 h -1.0625 V 2.71875 h 1.5 z m 0,0"
                 id="path91136" />
            </g>
          </g>
        </g>
      </g>
    </g>
    <g
       inkscape:label=""
       transform="matrix(0.53939247,0,0,0.53939247,118.38744,103.21628)"
       id="g91196"
       style="fill:#0000ff">
      <g
         id="g91194"
         transform="matrix(0.352778,0,0,0.352778,-0.341753,-0.00357193)"
         style="fill:#0000ff">
        <g
           clip-path="url(#clipPath9902-6)"
           clip-rule="nonzero"
           id="g91170"
           style="fill:#0000ff">
          <g
             style="fill:#0000ff;fill-opacity:1"
             id="g91168">
            <g
               id="g91150"
               transform="translate(0,8.1820002)"
               style="fill:#0000ff">
              <path
                 style="fill:#0000ff;stroke:none"
                 d="m 3.203125,-6.984375 c 0,-0.25 0,-0.28125 -0.25,-0.28125 C 2.28125,-6.5625 1.3125,-6.5625 0.96875,-6.5625 v 0.328125 c 0.21875,0 0.859375,0 1.4375,-0.28125 v 5.65625 c 0,0.390625 -0.046875,0.515625 -1.015625,0.515625 H 1.03125 V 0 c 0.390625,-0.03125 1.328125,-0.03125 1.765625,-0.03125 0.4375,0 1.390625,0 1.765625,0.03125 V -0.34375 H 4.21875 c -0.984375,0 -1.015625,-0.109375 -1.015625,-0.515625 z m 0,0"
                 id="path91148" />
            </g>
            <g
               id="g91154"
               transform="translate(5.4545498,8.1820002)"
               style="fill:#0000ff">
              <path
                 style="fill:#0000ff;stroke:none"
                 d="m 5.015625,-3.484375 c 0,-0.875 -0.046875,-1.75 -0.4375,-2.5625 -0.5,-1.046875 -1.390625,-1.21875 -1.859375,-1.21875 -0.640625,0 -1.4375,0.28125 -1.890625,1.296875 -0.34375,0.75 -0.40625,1.609375 -0.40625,2.484375 0,0.8125 0.046875,1.796875 0.5,2.625 0.46875,0.875 1.265625,1.09375 1.796875,1.09375 0.578125,0 1.421875,-0.21875 1.890625,-1.265625 0.359375,-0.75 0.40625,-1.59375 0.40625,-2.453125 z M 2.71875,0 C 2.296875,0 1.640625,-0.265625 1.453125,-1.3125 c -0.125,-0.65625 -0.125,-1.671875 -0.125,-2.3125 0,-0.6875 0,-1.40625 0.09375,-2 C 1.625,-6.921875 2.4375,-7.03125 2.71875,-7.03125 c 0.359375,0 1.078125,0.203125 1.28125,1.28125 0.109375,0.609375 0.109375,1.4375 0.109375,2.125 0,0.828125 0,1.5625 -0.125,2.265625 C 3.828125,-0.328125 3.203125,0 2.71875,0 Z m 0,0"
                 id="path91152" />
            </g>
            <g
               id="g91158"
               transform="translate(10.9091,8.1820002)"
               style="fill:#0000ff">
              <path
                 style="fill:#0000ff;stroke:none"
                 d="m 5.015625,-3.484375 c 0,-0.875 -0.046875,-1.75 -0.4375,-2.5625 -0.5,-1.046875 -1.390625,-1.21875 -1.859375,-1.21875 -0.640625,0 -1.4375,0.28125 -1.890625,1.296875 -0.34375,0.75 -0.40625,1.609375 -0.40625,2.484375 0,0.8125 0.046875,1.796875 0.5,2.625 0.46875,0.875 1.265625,1.09375 1.796875,1.09375 0.578125,0 1.421875,-0.21875 1.890625,-1.265625 0.359375,-0.75 0.40625,-1.59375 0.40625,-2.453125 z M 2.71875,0 C 2.296875,0 1.640625,-0.265625 1.453125,-1.3125 c -0.125,-0.65625 -0.125,-1.671875 -0.125,-2.3125 0,-0.6875 0,-1.40625 0.09375,-2 C 1.625,-6.921875 2.4375,-7.03125 2.71875,-7.03125 c 0.359375,0 1.078125,0.203125 1.28125,1.28125 0.109375,0.609375 0.109375,1.4375 0.109375,2.125 0,0.828125 0,1.5625 -0.125,2.265625 C 3.828125,-0.328125 3.203125,0 2.71875,0 Z m 0,0"
                 id="path91156" />
            </g>
            <g
               id="g91162"
               transform="translate(16.363649,8.1820002)"
               style="fill:#0000ff">
              <path
                 style="fill:#0000ff;stroke:none"
                 d="m 5.015625,-3.484375 c 0,-0.875 -0.046875,-1.75 -0.4375,-2.5625 -0.5,-1.046875 -1.390625,-1.21875 -1.859375,-1.21875 -0.640625,0 -1.4375,0.28125 -1.890625,1.296875 -0.34375,0.75 -0.40625,1.609375 -0.40625,2.484375 0,0.8125 0.046875,1.796875 0.5,2.625 0.46875,0.875 1.265625,1.09375 1.796875,1.09375 0.578125,0 1.421875,-0.21875 1.890625,-1.265625 0.359375,-0.75 0.40625,-1.59375 0.40625,-2.453125 z M 2.71875,0 C 2.296875,0 1.640625,-0.265625 1.453125,-1.3125 c -0.125,-0.65625 -0.125,-1.671875 -0.125,-2.3125 0,-0.6875 0,-1.40625 0.09375,-2 C 1.625,-6.921875 2.4375,-7.03125 2.71875,-7.03125 c 0.359375,0 1.078125,0.203125 1.28125,1.28125 0.109375,0.609375 0.109375,1.4375 0.109375,2.125 0,0.828125 0,1.5625 -0.125,2.265625 C 3.828125,-0.328125 3.203125,0 2.71875,0 Z m 0,0"
                 id="path91160" />
            </g>
            <g
               id="g91166"
               transform="translate(21.818199,8.1820002)"
               style="fill:#0000ff">
              <path
                 style="fill:#0000ff;stroke:none"
                 d="M 2.78125,2.71875 V 2.296875 H 1.71875 V -7.75 h 1.0625 v -0.421875 h -1.5 V 2.71875 Z m 0,0"
                 id="path91164" />
            </g>
          </g>
        </g>
        <g
           style="fill:#0000ff;fill-opacity:1"
           id="g91176">
          <g
             id="g91174"
             transform="translate(24.849001,8.1820002)"
             style="fill:#0000ff">
            <path
               style="fill:#0000ff;stroke:none"
               d="m 3.125,-7.453125 c 0,0 0,-0.109375 -0.140625,-0.109375 -0.25,0 -1.046875,0.078125 -1.328125,0.109375 -0.078125,0 -0.203125,0.015625 -0.203125,0.21875 0,0.125 0.09375,0.125 0.265625,0.125 0.515625,0 0.53125,0.078125 0.53125,0.1875 l -0.03125,0.21875 -1.578125,6.28125 C 0.59375,-0.265625 0.59375,-0.25 0.59375,-0.1875 c 0,0.25 0.21875,0.3125 0.328125,0.3125 C 1.0625,0.125 1.21875,0.015625 1.28125,-0.109375 1.34375,-0.203125 1.828125,-2.21875 1.890625,-2.5 c 0.375,0.03125 1.265625,0.203125 1.265625,0.921875 0,0.078125 0,0.125 -0.03125,0.234375 -0.015625,0.140625 -0.03125,0.265625 -0.03125,0.390625 0,0.640625 0.421875,1.078125 1,1.078125 0.328125,0 0.625,-0.171875 0.859375,-0.578125 C 5.21875,-0.9375 5.34375,-1.53125 5.34375,-1.5625 c 0,-0.109375 -0.09375,-0.109375 -0.125,-0.109375 -0.109375,0 -0.125,0.046875 -0.15625,0.203125 -0.21875,0.796875 -0.46875,1.34375 -0.953125,1.34375 -0.203125,0 -0.34375,-0.109375 -0.34375,-0.5 0,-0.1875 0.046875,-0.4375 0.078125,-0.625 0.046875,-0.171875 0.046875,-0.21875 0.046875,-0.328125 0,-0.71875 -0.6875,-1.03125 -1.609375,-1.140625 0.34375,-0.203125 0.6875,-0.546875 0.9375,-0.8125 0.515625,-0.578125 1.03125,-1.046875 1.5625,-1.046875 0.0625,0 0.078125,0 0.09375,0.015625 C 5,-4.546875 5.015625,-4.546875 5.109375,-4.484375 5.125,-4.46875 5.125,-4.453125 5.140625,-4.4375 4.625,-4.40625 4.53125,-3.984375 4.53125,-3.84375 c 0,0.171875 0.109375,0.375 0.40625,0.375 0.28125,0 0.609375,-0.234375 0.609375,-0.671875 0,-0.3125 -0.25,-0.6875 -0.75,-0.6875 -0.296875,0 -0.8125,0.09375 -1.59375,0.96875 C 2.828125,-3.453125 2.40625,-3.015625 2,-2.84375 Z m 0,0"
               id="path91172" />
          </g>
        </g>
        <g
           clip-path="url(#clipPath1047-6)"
           clip-rule="nonzero"
           id="g91184"
           style="fill:#0000ff">
          <g
             style="fill:#0000ff;fill-opacity:1"
             id="g91182">
            <g
               id="g91180"
               transform="translate(30.866461,8.1820002)"
               style="fill:#0000ff">
              <path
                 style="fill:#0000ff;stroke:none"
                 d="m 5.140625,-4.109375 c 0,-0.0625 0.03125,-0.125 0.03125,-0.203125 0,-0.1875 -0.140625,-0.296875 -0.3125,-0.296875 -0.109375,0 -0.40625,0.078125 -0.453125,0.46875 -0.203125,-0.390625 -0.578125,-0.6875 -1.015625,-0.6875 -1.234375,0 -2.59375,1.53125 -2.59375,3.109375 C 0.796875,-0.640625 1.46875,0 2.25,0 2.890625,0 3.40625,-0.515625 3.515625,-0.625 3.296875,0.34375 3.15625,0.796875 3.15625,0.8125 3.125,0.921875 2.75,2 1.59375,2 1.390625,2 1.03125,1.984375 0.71875,1.890625 1.046875,1.78125 1.171875,1.5 1.171875,1.3125 c 0,-0.171875 -0.125,-0.375 -0.421875,-0.375 -0.234375,0 -0.59375,0.203125 -0.59375,0.640625 0,0.4375 0.40625,0.65625 1.453125,0.65625 1.375,0 2.15625,-0.84375 2.3125,-1.5 z m -1.421875,2.71875 c -0.0625,0.28125 -0.3125,0.546875 -0.5625,0.765625 -0.21875,0.1875 -0.5625,0.390625 -0.875,0.390625 -0.546875,0 -0.703125,-0.578125 -0.703125,-1.015625 0,-0.515625 0.3125,-1.796875 0.609375,-2.359375 0.28125,-0.53125 0.75,-0.96875 1.21875,-0.96875 0.71875,0 0.875,0.875 0.875,0.9375 0,0.046875 -0.03125,0.125 -0.03125,0.15625 z m 0,0"
                 id="path91178" />
            </g>
          </g>
        </g>
        <g
           clip-path="url(#clipPath8779-3)"
           clip-rule="nonzero"
           id="g91192"
           style="fill:#0000ff">
          <g
             style="fill:#0000ff;fill-opacity:1"
             id="g91190">
            <g
               id="g91188"
               transform="translate(36.466,8.1820002)"
               style="fill:#0000ff">
              <path
                 style="fill:#0000ff;stroke:none"
                 d="m 1.734375,-8.171875 h -1.5 V -7.75 h 1.0625 V 2.296875 h -1.0625 V 2.71875 h 1.5 z m 0,0"
                 id="path91186" />
            </g>
          </g>
        </g>
      </g>
    </g>
    <g
       inkscape:label=""
       transform="matrix(0.53939247,0,0,0.53939247,125.72836,97.922219)"
       id="g91246"
       style="fill:#0000ff">
      <g
         id="g91244"
         transform="matrix(0.352778,0,0,0.352778,-0.192925,-0.00357193)"
         style="fill:#0000ff">
        <g
           clip-path="url(#clipPath3896-4)"
           clip-rule="nonzero"
           id="g91220"
           style="fill:#0000ff">
          <g
             style="fill:#0000ff;fill-opacity:1"
             id="g91218">
            <g
               id="g91200"
               transform="translate(0,8.1820002)"
               style="fill:#0000ff">
              <path
                 style="fill:#0000ff;stroke:none"
                 d="m 1.390625,-0.84375 1.15625,-1.125 c 1.703125,-1.5 2.34375,-2.09375 2.34375,-3.171875 0,-1.25 -0.96875,-2.125 -2.3125,-2.125 -1.21875,0 -2.03125,1 -2.03125,1.96875 0,0.625 0.546875,0.625 0.578125,0.625 0.1875,0 0.5625,-0.140625 0.5625,-0.578125 0,-0.296875 -0.1875,-0.578125 -0.578125,-0.578125 -0.078125,0 -0.109375,0 -0.140625,0.015625 0.25,-0.703125 0.84375,-1.109375 1.46875,-1.109375 1,0 1.46875,0.875 1.46875,1.78125 0,0.859375 -0.546875,1.734375 -1.140625,2.40625 l -2.09375,2.328125 c -0.125,0.125 -0.125,0.140625 -0.125,0.40625 H 4.59375 L 4.890625,-1.890625 H 4.625 C 4.5625,-1.578125 4.5,-1.09375 4.390625,-0.921875 4.3125,-0.84375 3.59375,-0.84375 3.34375,-0.84375 Z m 0,0"
                 id="path91198" />
            </g>
            <g
               id="g91204"
               transform="translate(5.4545498,8.1820002)"
               style="fill:#0000ff">
              <path
                 style="fill:#0000ff;stroke:none"
                 d="m 5.015625,-3.484375 c 0,-0.875 -0.046875,-1.75 -0.4375,-2.5625 -0.5,-1.046875 -1.390625,-1.21875 -1.859375,-1.21875 -0.640625,0 -1.4375,0.28125 -1.890625,1.296875 -0.34375,0.75 -0.40625,1.609375 -0.40625,2.484375 0,0.8125 0.046875,1.796875 0.5,2.625 0.46875,0.875 1.265625,1.09375 1.796875,1.09375 0.578125,0 1.421875,-0.21875 1.890625,-1.265625 0.359375,-0.75 0.40625,-1.59375 0.40625,-2.453125 z M 2.71875,0 C 2.296875,0 1.640625,-0.265625 1.453125,-1.3125 c -0.125,-0.65625 -0.125,-1.671875 -0.125,-2.3125 0,-0.6875 0,-1.40625 0.09375,-2 C 1.625,-6.921875 2.4375,-7.03125 2.71875,-7.03125 c 0.359375,0 1.078125,0.203125 1.28125,1.28125 0.109375,0.609375 0.109375,1.4375 0.109375,2.125 0,0.828125 0,1.5625 -0.125,2.265625 C 3.828125,-0.328125 3.203125,0 2.71875,0 Z m 0,0"
                 id="path91202" />
            </g>
            <g
               id="g91208"
               transform="translate(10.9091,8.1820002)"
               style="fill:#0000ff">
              <path
                 style="fill:#0000ff;stroke:none"
                 d="m 5.015625,-3.484375 c 0,-0.875 -0.046875,-1.75 -0.4375,-2.5625 -0.5,-1.046875 -1.390625,-1.21875 -1.859375,-1.21875 -0.640625,0 -1.4375,0.28125 -1.890625,1.296875 -0.34375,0.75 -0.40625,1.609375 -0.40625,2.484375 0,0.8125 0.046875,1.796875 0.5,2.625 0.46875,0.875 1.265625,1.09375 1.796875,1.09375 0.578125,0 1.421875,-0.21875 1.890625,-1.265625 0.359375,-0.75 0.40625,-1.59375 0.40625,-2.453125 z M 2.71875,0 C 2.296875,0 1.640625,-0.265625 1.453125,-1.3125 c -0.125,-0.65625 -0.125,-1.671875 -0.125,-2.3125 0,-0.6875 0,-1.40625 0.09375,-2 C 1.625,-6.921875 2.4375,-7.03125 2.71875,-7.03125 c 0.359375,0 1.078125,0.203125 1.28125,1.28125 0.109375,0.609375 0.109375,1.4375 0.109375,2.125 0,0.828125 0,1.5625 -0.125,2.265625 C 3.828125,-0.328125 3.203125,0 2.71875,0 Z m 0,0"
                 id="path91206" />
            </g>
            <g
               id="g91212"
               transform="translate(16.363649,8.1820002)"
               style="fill:#0000ff">
              <path
                 style="fill:#0000ff;stroke:none"
                 d="m 5.015625,-3.484375 c 0,-0.875 -0.046875,-1.75 -0.4375,-2.5625 -0.5,-1.046875 -1.390625,-1.21875 -1.859375,-1.21875 -0.640625,0 -1.4375,0.28125 -1.890625,1.296875 -0.34375,0.75 -0.40625,1.609375 -0.40625,2.484375 0,0.8125 0.046875,1.796875 0.5,2.625 0.46875,0.875 1.265625,1.09375 1.796875,1.09375 0.578125,0 1.421875,-0.21875 1.890625,-1.265625 0.359375,-0.75 0.40625,-1.59375 0.40625,-2.453125 z M 2.71875,0 C 2.296875,0 1.640625,-0.265625 1.453125,-1.3125 c -0.125,-0.65625 -0.125,-1.671875 -0.125,-2.3125 0,-0.6875 0,-1.40625 0.09375,-2 C 1.625,-6.921875 2.4375,-7.03125 2.71875,-7.03125 c 0.359375,0 1.078125,0.203125 1.28125,1.28125 0.109375,0.609375 0.109375,1.4375 0.109375,2.125 0,0.828125 0,1.5625 -0.125,2.265625 C 3.828125,-0.328125 3.203125,0 2.71875,0 Z m 0,0"
                 id="path91210" />
            </g>
            <g
               id="g91216"
               transform="translate(21.818199,8.1820002)"
               style="fill:#0000ff">
              <path
                 style="fill:#0000ff;stroke:none"
                 d="M 2.78125,2.71875 V 2.296875 H 1.71875 V -7.75 h 1.0625 v -0.421875 h -1.5 V 2.71875 Z m 0,0"
                 id="path91214" />
            </g>
          </g>
        </g>
        <g
           style="fill:#0000ff;fill-opacity:1"
           id="g91226">
          <g
             id="g91224"
             transform="translate(24.849001,8.1820002)"
             style="fill:#0000ff">
            <path
               style="fill:#0000ff;stroke:none"
               d="m 3.125,-7.453125 c 0,0 0,-0.109375 -0.140625,-0.109375 -0.25,0 -1.046875,0.078125 -1.328125,0.109375 -0.078125,0 -0.203125,0.015625 -0.203125,0.21875 0,0.125 0.09375,0.125 0.265625,0.125 0.515625,0 0.53125,0.078125 0.53125,0.1875 l -0.03125,0.21875 -1.578125,6.28125 C 0.59375,-0.265625 0.59375,-0.25 0.59375,-0.1875 c 0,0.25 0.21875,0.3125 0.328125,0.3125 C 1.0625,0.125 1.21875,0.015625 1.28125,-0.109375 1.34375,-0.203125 1.828125,-2.21875 1.890625,-2.5 c 0.375,0.03125 1.265625,0.203125 1.265625,0.921875 0,0.078125 0,0.125 -0.03125,0.234375 -0.015625,0.140625 -0.03125,0.265625 -0.03125,0.390625 0,0.640625 0.421875,1.078125 1,1.078125 0.328125,0 0.625,-0.171875 0.859375,-0.578125 C 5.21875,-0.9375 5.34375,-1.53125 5.34375,-1.5625 c 0,-0.109375 -0.09375,-0.109375 -0.125,-0.109375 -0.109375,0 -0.125,0.046875 -0.15625,0.203125 -0.21875,0.796875 -0.46875,1.34375 -0.953125,1.34375 -0.203125,0 -0.34375,-0.109375 -0.34375,-0.5 0,-0.1875 0.046875,-0.4375 0.078125,-0.625 0.046875,-0.171875 0.046875,-0.21875 0.046875,-0.328125 0,-0.71875 -0.6875,-1.03125 -1.609375,-1.140625 0.34375,-0.203125 0.6875,-0.546875 0.9375,-0.8125 0.515625,-0.578125 1.03125,-1.046875 1.5625,-1.046875 0.0625,0 0.078125,0 0.09375,0.015625 C 5,-4.546875 5.015625,-4.546875 5.109375,-4.484375 5.125,-4.46875 5.125,-4.453125 5.140625,-4.4375 4.625,-4.40625 4.53125,-3.984375 4.53125,-3.84375 c 0,0.171875 0.109375,0.375 0.40625,0.375 0.28125,0 0.609375,-0.234375 0.609375,-0.671875 0,-0.3125 -0.25,-0.6875 -0.75,-0.6875 -0.296875,0 -0.8125,0.09375 -1.59375,0.96875 C 2.828125,-3.453125 2.40625,-3.015625 2,-2.84375 Z m 0,0"
               id="path91222" />
          </g>
        </g>
        <g
           clip-path="url(#clipPath9306-2)"
           clip-rule="nonzero"
           id="g91234"
           style="fill:#0000ff">
          <g
             style="fill:#0000ff;fill-opacity:1"
             id="g91232">
            <g
               id="g91230"
               transform="translate(30.866461,8.1820002)"
               style="fill:#0000ff">
              <path
                 style="fill:#0000ff;stroke:none"
                 d="m 5.140625,-4.109375 c 0,-0.0625 0.03125,-0.125 0.03125,-0.203125 0,-0.1875 -0.140625,-0.296875 -0.3125,-0.296875 -0.109375,0 -0.40625,0.078125 -0.453125,0.46875 -0.203125,-0.390625 -0.578125,-0.6875 -1.015625,-0.6875 -1.234375,0 -2.59375,1.53125 -2.59375,3.109375 C 0.796875,-0.640625 1.46875,0 2.25,0 2.890625,0 3.40625,-0.515625 3.515625,-0.625 3.296875,0.34375 3.15625,0.796875 3.15625,0.8125 3.125,0.921875 2.75,2 1.59375,2 1.390625,2 1.03125,1.984375 0.71875,1.890625 1.046875,1.78125 1.171875,1.5 1.171875,1.3125 c 0,-0.171875 -0.125,-0.375 -0.421875,-0.375 -0.234375,0 -0.59375,0.203125 -0.59375,0.640625 0,0.4375 0.40625,0.65625 1.453125,0.65625 1.375,0 2.15625,-0.84375 2.3125,-1.5 z m -1.421875,2.71875 c -0.0625,0.28125 -0.3125,0.546875 -0.5625,0.765625 -0.21875,0.1875 -0.5625,0.390625 -0.875,0.390625 -0.546875,0 -0.703125,-0.578125 -0.703125,-1.015625 0,-0.515625 0.3125,-1.796875 0.609375,-2.359375 0.28125,-0.53125 0.75,-0.96875 1.21875,-0.96875 0.71875,0 0.875,0.875 0.875,0.9375 0,0.046875 -0.03125,0.125 -0.03125,0.15625 z m 0,0"
                 id="path91228" />
            </g>
          </g>
        </g>
        <g
           clip-path="url(#clipPath7935-4)"
           clip-rule="nonzero"
           id="g91242"
           style="fill:#0000ff">
          <g
             style="fill:#0000ff;fill-opacity:1"
             id="g91240">
            <g
               id="g91238"
               transform="translate(36.466,8.1820002)"
               style="fill:#0000ff">
              <path
                 style="fill:#0000ff;stroke:none"
                 d="m 1.734375,-8.171875 h -1.5 V -7.75 h 1.0625 V 2.296875 h -1.0625 V 2.71875 h 1.5 z m 0,0"
                 id="path91236" />
            </g>
          </g>
        </g>
      </g>
    </g>
    <path
       style="fill:none;stroke:#000000;stroke-width:0.396875;stroke-linejoin:round;stroke-dasharray:none;paint-order:stroke markers fill"
       d="M 105.83332,118.53333 V 114.3"
       id="path91270" />
    <path
       style="fill:none;stroke:#000000;stroke-width:0.396875;stroke-linejoin:round;stroke-dasharray:none;paint-order:stroke markers fill"
       d="m 118.53332,118.53333 v -4.23334"
       id="path91272" />
    <path
       style="fill:none;stroke:#000000;stroke-width:0.396875;stroke-linejoin:round;stroke-dasharray:none;paint-order:stroke markers fill"
       d="m 131.23332,118.53333 v -4.23334"
       id="path91274" />
    <path
       style="fill:none;stroke:#000000;stroke-width:0.396875;stroke-linejoin:round;stroke-dasharray:none;paint-order:stroke markers fill"
       d="m 143.93332,118.53333 v -4.23334"
       id="path91276" />
    <path
       style="fill:none;stroke:#000000;stroke-width:0.264583;stroke-linejoin:round;stroke-dasharray:none;paint-order:stroke markers fill"
       d="m 139.69999,106.89166 1.05833,-1.05834"
       id="path91280"
       sodipodi:nodetypes="cc" />
    <path
       style="fill:none;stroke:#000000;stroke-width:0.264583;stroke-linejoin:round;stroke-dasharray:none;paint-order:stroke markers fill"
       d="m 139.69999,107.94999 c 2.11666,-2.11667 2.11666,-2.11667 2.11666,-2.11667"
       id="path91282" />
    <path
       style="fill:none;stroke:#000000;stroke-width:0.264583;stroke-linejoin:round;stroke-dasharray:none;paint-order:stroke markers fill"
       d="m 140.75832,107.94999 c 2.11667,-2.11667 2.11667,-2.11667 2.11667,-2.11667"
       id="path91284" />
    <path
       style="fill:none;stroke:#000000;stroke-width:0.264583;stroke-linejoin:round;stroke-dasharray:none;paint-order:stroke markers fill"
       d="m 141.81665,107.94999 c 2.11667,-2.11667 2.11667,-2.11667 2.11667,-2.11667"
       id="path91286" />
    <path
       style="fill:none;stroke:#000000;stroke-width:0.264583;stroke-linejoin:round;stroke-dasharray:none;paint-order:stroke markers fill"
       d="m 142.87499,107.94999 c 2.11666,-2.11667 2.11666,-2.11667 2.11666,-2.11667"
       id="path91288" />
    <path
       style="fill:none;stroke:#000000;stroke-width:0.264583;stroke-linejoin:round;stroke-dasharray:none;paint-order:stroke markers fill"
       d="m 143.93332,107.94999 c 2.11667,-2.11667 2.11667,-2.11667 2.11667,-2.11667"
       id="path91290" />
    <path
       style="fill:none;stroke:#000000;stroke-width:0.264583;stroke-linejoin:round;stroke-dasharray:none;paint-order:stroke markers fill"
       d="m 144.99166,107.94999 c 2.11666,-2.11667 2.11666,-2.11667 2.11666,-2.11667"
       id="path91292" />
    <path
       style="fill:none;stroke:#000000;stroke-width:0.264583;stroke-linejoin:round;stroke-dasharray:none;paint-order:stroke markers fill"
       d="m 146.04999,107.94999 c 2.11666,-2.11667 2.11666,-2.11667 2.11666,-2.11667"
       id="path91294" />
    <path
       style="fill:none;stroke:#000000;stroke-width:0.264583;stroke-linejoin:round;stroke-dasharray:none;paint-order:stroke markers fill"
       d="m 147.10832,107.94999 1.05833,-1.05833"
       id="path91296"
       sodipodi:nodetypes="cc" />
    <path
       style="fill:none;stroke:#ff0000;stroke-width:0.396875;stroke-linejoin:round;stroke-dasharray:none;marker-end:url(#Arrow2-4);paint-order:stroke markers fill"
       d="M 105.83332,101.6 V 98.424997"
       id="path91302"
       sodipodi:nodetypes="cc" />
    <path
       style="fill:none;stroke:#ff0000;stroke-width:0.396875;stroke-linejoin:round;stroke-dasharray:none;marker-end:url(#Arrow2-4);paint-order:stroke markers fill"
       d="m 105.83332,101.6 h 3.175"
       id="path91304"
       sodipodi:nodetypes="cc" />
    <path
       style="fill:none;stroke:#ff0000;stroke-width:0.396875;stroke-linejoin:round;stroke-dasharray:none;marker-end:url(#Arrow2-4);paint-order:stroke markers fill"
       d="m 112.18332,101.6 v 4.23333"
       id="path91306"
       sodipodi:nodetypes="cc" />
    <path
       style="fill:none;stroke:#ff0000;stroke-width:0.396875;stroke-linejoin:round;stroke-dasharray:none;marker-end:url(#Arrow2-4);paint-order:stroke markers fill"
       d="m 118.53332,101.6 h 2.11667"
       id="path91308"
       sodipodi:nodetypes="cc" />
    <path
       style="fill:none;stroke:#ff0000;stroke-width:0.396875;stroke-linejoin:round;stroke-dasharray:none;marker-end:url(#Arrow2-4);paint-order:stroke markers fill"
       d="m 131.23332,101.6 -4.23334,-10e-6"
       id="path91310"
       sodipodi:nodetypes="cc" />
    <path
       style="fill:none;stroke:#000000;stroke-width:0.396875;stroke-linejoin:round;stroke-dasharray:none;paint-order:stroke markers fill"
       d="m 105.83333,116.41666 h 3.17499"
       id="path91312" />
    <path
       style="fill:none;stroke:#000000;stroke-width:0.396875;stroke-linejoin:round;stroke-dasharray:none;paint-order:stroke markers fill"
       d="m 115.35832,116.41666 h 6.34999"
       id="path91314"
       sodipodi:nodetypes="cc" />
    <path
       style="fill:none;stroke:#000000;stroke-width:0.396875;stroke-linejoin:round;stroke-dasharray:none;paint-order:stroke markers fill"
       d="m 128.19062,116.41666 h 6.34999"
       id="path91316"
       sodipodi:nodetypes="cc" />
    <path
       style="fill:none;stroke:#000000;stroke-width:0.396875;stroke-linejoin:round;stroke-dasharray:none;paint-order:stroke markers fill"
       d="m 140.75833,116.41666 h 3.17499"
       id="path91318" />
    <path
       style="fill:none;stroke:#000000;stroke-width:0.132292;stroke-linejoin:round;stroke-dasharray:0.264583, 0.132292;stroke-dashoffset:0;paint-order:stroke markers fill"
       d="m 105.83332,114.3 v -8.46667"
       id="path91320" />
    <path
       style="fill:none;stroke:#000000;stroke-width:0.132292;stroke-linejoin:round;stroke-dasharray:0.264583, 0.132292;stroke-dashoffset:0;paint-order:stroke markers fill"
       d="m 118.53332,114.3 v -8.46667"
       id="path91322" />
    <path
       style="fill:none;stroke:#000000;stroke-width:0.132292;stroke-linejoin:round;stroke-dasharray:0.264583, 0.132292;stroke-dashoffset:0;paint-order:stroke markers fill"
       d="m 131.23332,114.3 v -8.46667"
       id="path91324" />
    <path
       style="fill:none;stroke:#000000;stroke-width:0.132292;stroke-linejoin:round;stroke-dasharray:0.264583, 0.132292;stroke-dashoffset:0;paint-order:stroke markers fill"
       d="m 143.93332,114.3 v -6.35001"
       id="path91326"
       sodipodi:nodetypes="cc" />
    <path
       style="fill:none;stroke:#ff0000;stroke-width:0.396875;stroke-linejoin:round;stroke-dasharray:none;stroke-dashoffset:0;marker-start:url(#Arrow2-4);paint-order:stroke markers fill"
       id="path91328"
       sodipodi:type="arc"
       sodipodi:cx="105.83332"
       sodipodi:cy="101.6"
       sodipodi:rx="2.1166666"
       sodipodi:ry="2.1166666"
       sodipodi:start="1.3089969"
       sodipodi:end="4.1887902"
       sodipodi:open="true"
       sodipodi:arc-type="arc"
       d="m 106.38115,103.64454 a 2.1166666,2.1166666 0 0 1 -2.50337,-1.23453 2.1166666,2.1166666 0 0 1 0.89721,-2.643099" />
    <g
       inkscape:label=""
       transform="matrix(0.53939247,0,0,0.53939247,109.11724,107.5895)"
       id="g91378"
       style="fill:#0000ff">
      <g
         id="g91376"
         transform="matrix(0.352778,0,0,0.352778,-0.341753,-0.00357193)"
         style="fill:#0000ff">
        <g
           clip-path="url(#clipPath9902-6)"
           clip-rule="nonzero"
           id="g91352"
           style="fill:#0000ff">
          <g
             style="fill:#0000ff;fill-opacity:1"
             id="g91350">
            <g
               id="g91332"
               transform="translate(0,8.1820002)"
               style="fill:#0000ff">
              <path
                 style="fill:#0000ff;stroke:none"
                 d="m 3.203125,-6.984375 c 0,-0.25 0,-0.28125 -0.25,-0.28125 C 2.28125,-6.5625 1.3125,-6.5625 0.96875,-6.5625 v 0.328125 c 0.21875,0 0.859375,0 1.4375,-0.28125 v 5.65625 c 0,0.390625 -0.046875,0.515625 -1.015625,0.515625 H 1.03125 V 0 c 0.390625,-0.03125 1.328125,-0.03125 1.765625,-0.03125 0.4375,0 1.390625,0 1.765625,0.03125 V -0.34375 H 4.21875 c -0.984375,0 -1.015625,-0.109375 -1.015625,-0.515625 z m 0,0"
                 id="path91330" />
            </g>
            <g
               id="g91336"
               transform="translate(5.4545498,8.1820002)"
               style="fill:#0000ff">
              <path
                 style="fill:#0000ff;stroke:none"
                 d="m 5.015625,-3.484375 c 0,-0.875 -0.046875,-1.75 -0.4375,-2.5625 -0.5,-1.046875 -1.390625,-1.21875 -1.859375,-1.21875 -0.640625,0 -1.4375,0.28125 -1.890625,1.296875 -0.34375,0.75 -0.40625,1.609375 -0.40625,2.484375 0,0.8125 0.046875,1.796875 0.5,2.625 0.46875,0.875 1.265625,1.09375 1.796875,1.09375 0.578125,0 1.421875,-0.21875 1.890625,-1.265625 0.359375,-0.75 0.40625,-1.59375 0.40625,-2.453125 z M 2.71875,0 C 2.296875,0 1.640625,-0.265625 1.453125,-1.3125 c -0.125,-0.65625 -0.125,-1.671875 -0.125,-2.3125 0,-0.6875 0,-1.40625 0.09375,-2 C 1.625,-6.921875 2.4375,-7.03125 2.71875,-7.03125 c 0.359375,0 1.078125,0.203125 1.28125,1.28125 0.109375,0.609375 0.109375,1.4375 0.109375,2.125 0,0.828125 0,1.5625 -0.125,2.265625 C 3.828125,-0.328125 3.203125,0 2.71875,0 Z m 0,0"
                 id="path91334" />
            </g>
            <g
               id="g91340"
               transform="translate(10.9091,8.1820002)"
               style="fill:#0000ff">
              <path
                 style="fill:#0000ff;stroke:none"
                 d="m 5.015625,-3.484375 c 0,-0.875 -0.046875,-1.75 -0.4375,-2.5625 -0.5,-1.046875 -1.390625,-1.21875 -1.859375,-1.21875 -0.640625,0 -1.4375,0.28125 -1.890625,1.296875 -0.34375,0.75 -0.40625,1.609375 -0.40625,2.484375 0,0.8125 0.046875,1.796875 0.5,2.625 0.46875,0.875 1.265625,1.09375 1.796875,1.09375 0.578125,0 1.421875,-0.21875 1.890625,-1.265625 0.359375,-0.75 0.40625,-1.59375 0.40625,-2.453125 z M 2.71875,0 C 2.296875,0 1.640625,-0.265625 1.453125,-1.3125 c -0.125,-0.65625 -0.125,-1.671875 -0.125,-2.3125 0,-0.6875 0,-1.40625 0.09375,-2 C 1.625,-6.921875 2.4375,-7.03125 2.71875,-7.03125 c 0.359375,0 1.078125,0.203125 1.28125,1.28125 0.109375,0.609375 0.109375,1.4375 0.109375,2.125 0,0.828125 0,1.5625 -0.125,2.265625 C 3.828125,-0.328125 3.203125,0 2.71875,0 Z m 0,0"
                 id="path91338" />
            </g>
            <g
               id="g91344"
               transform="translate(16.363649,8.1820002)"
               style="fill:#0000ff">
              <path
                 style="fill:#0000ff;stroke:none"
                 d="m 5.015625,-3.484375 c 0,-0.875 -0.046875,-1.75 -0.4375,-2.5625 -0.5,-1.046875 -1.390625,-1.21875 -1.859375,-1.21875 -0.640625,0 -1.4375,0.28125 -1.890625,1.296875 -0.34375,0.75 -0.40625,1.609375 -0.40625,2.484375 0,0.8125 0.046875,1.796875 0.5,2.625 0.46875,0.875 1.265625,1.09375 1.796875,1.09375 0.578125,0 1.421875,-0.21875 1.890625,-1.265625 0.359375,-0.75 0.40625,-1.59375 0.40625,-2.453125 z M 2.71875,0 C 2.296875,0 1.640625,-0.265625 1.453125,-1.3125 c -0.125,-0.65625 -0.125,-1.671875 -0.125,-2.3125 0,-0.6875 0,-1.40625 0.09375,-2 C 1.625,-6.921875 2.4375,-7.03125 2.71875,-7.03125 c 0.359375,0 1.078125,0.203125 1.28125,1.28125 0.109375,0.609375 0.109375,1.4375 0.109375,2.125 0,0.828125 0,1.5625 -0.125,2.265625 C 3.828125,-0.328125 3.203125,0 2.71875,0 Z m 0,0"
                 id="path91342" />
            </g>
            <g
               id="g91348"
               transform="translate(21.818199,8.1820002)"
               style="fill:#0000ff">
              <path
                 style="fill:#0000ff;stroke:none"
                 d="M 2.78125,2.71875 V 2.296875 H 1.71875 V -7.75 h 1.0625 v -0.421875 h -1.5 V 2.71875 Z m 0,0"
                 id="path91346" />
            </g>
          </g>
        </g>
        <g
           style="fill:#0000ff;fill-opacity:1"
           id="g91358">
          <g
             id="g91356"
             transform="translate(24.849001,8.1820002)"
             style="fill:#0000ff">
            <path
               style="fill:#0000ff;stroke:none"
               d="m 3.125,-7.453125 c 0,0 0,-0.109375 -0.140625,-0.109375 -0.25,0 -1.046875,0.078125 -1.328125,0.109375 -0.078125,0 -0.203125,0.015625 -0.203125,0.21875 0,0.125 0.09375,0.125 0.265625,0.125 0.515625,0 0.53125,0.078125 0.53125,0.1875 l -0.03125,0.21875 -1.578125,6.28125 C 0.59375,-0.265625 0.59375,-0.25 0.59375,-0.1875 c 0,0.25 0.21875,0.3125 0.328125,0.3125 C 1.0625,0.125 1.21875,0.015625 1.28125,-0.109375 1.34375,-0.203125 1.828125,-2.21875 1.890625,-2.5 c 0.375,0.03125 1.265625,0.203125 1.265625,0.921875 0,0.078125 0,0.125 -0.03125,0.234375 -0.015625,0.140625 -0.03125,0.265625 -0.03125,0.390625 0,0.640625 0.421875,1.078125 1,1.078125 0.328125,0 0.625,-0.171875 0.859375,-0.578125 C 5.21875,-0.9375 5.34375,-1.53125 5.34375,-1.5625 c 0,-0.109375 -0.09375,-0.109375 -0.125,-0.109375 -0.109375,0 -0.125,0.046875 -0.15625,0.203125 -0.21875,0.796875 -0.46875,1.34375 -0.953125,1.34375 -0.203125,0 -0.34375,-0.109375 -0.34375,-0.5 0,-0.1875 0.046875,-0.4375 0.078125,-0.625 0.046875,-0.171875 0.046875,-0.21875 0.046875,-0.328125 0,-0.71875 -0.6875,-1.03125 -1.609375,-1.140625 0.34375,-0.203125 0.6875,-0.546875 0.9375,-0.8125 0.515625,-0.578125 1.03125,-1.046875 1.5625,-1.046875 0.0625,0 0.078125,0 0.09375,0.015625 C 5,-4.546875 5.015625,-4.546875 5.109375,-4.484375 5.125,-4.46875 5.125,-4.453125 5.140625,-4.4375 4.625,-4.40625 4.53125,-3.984375 4.53125,-3.84375 c 0,0.171875 0.109375,0.375 0.40625,0.375 0.28125,0 0.609375,-0.234375 0.609375,-0.671875 0,-0.3125 -0.25,-0.6875 -0.75,-0.6875 -0.296875,0 -0.8125,0.09375 -1.59375,0.96875 C 2.828125,-3.453125 2.40625,-3.015625 2,-2.84375 Z m 0,0"
               id="path91354" />
          </g>
        </g>
        <g
           clip-path="url(#clipPath1047-6)"
           clip-rule="nonzero"
           id="g91366"
           style="fill:#0000ff">
          <g
             style="fill:#0000ff;fill-opacity:1"
             id="g91364">
            <g
               id="g91362"
               transform="translate(30.866461,8.1820002)"
               style="fill:#0000ff">
              <path
                 style="fill:#0000ff;stroke:none"
                 d="m 5.140625,-4.109375 c 0,-0.0625 0.03125,-0.125 0.03125,-0.203125 0,-0.1875 -0.140625,-0.296875 -0.3125,-0.296875 -0.109375,0 -0.40625,0.078125 -0.453125,0.46875 -0.203125,-0.390625 -0.578125,-0.6875 -1.015625,-0.6875 -1.234375,0 -2.59375,1.53125 -2.59375,3.109375 C 0.796875,-0.640625 1.46875,0 2.25,0 2.890625,0 3.40625,-0.515625 3.515625,-0.625 3.296875,0.34375 3.15625,0.796875 3.15625,0.8125 3.125,0.921875 2.75,2 1.59375,2 1.390625,2 1.03125,1.984375 0.71875,1.890625 1.046875,1.78125 1.171875,1.5 1.171875,1.3125 c 0,-0.171875 -0.125,-0.375 -0.421875,-0.375 -0.234375,0 -0.59375,0.203125 -0.59375,0.640625 0,0.4375 0.40625,0.65625 1.453125,0.65625 1.375,0 2.15625,-0.84375 2.3125,-1.5 z m -1.421875,2.71875 c -0.0625,0.28125 -0.3125,0.546875 -0.5625,0.765625 -0.21875,0.1875 -0.5625,0.390625 -0.875,0.390625 -0.546875,0 -0.703125,-0.578125 -0.703125,-1.015625 0,-0.515625 0.3125,-1.796875 0.609375,-2.359375 0.28125,-0.53125 0.75,-0.96875 1.21875,-0.96875 0.71875,0 0.875,0.875 0.875,0.9375 0,0.046875 -0.03125,0.125 -0.03125,0.15625 z m 0,0"
                 id="path91360" />
            </g>
          </g>
        </g>
        <g
           clip-path="url(#clipPath8779-3)"
           clip-rule="nonzero"
           id="g91374"
           style="fill:#0000ff">
          <g
             style="fill:#0000ff;fill-opacity:1"
             id="g91372">
            <g
               id="g91370"
               transform="translate(36.466,8.1820002)"
               style="fill:#0000ff">
              <path
                 style="fill:#0000ff;stroke:none"
                 d="m 1.734375,-8.171875 h -1.5 V -7.75 h 1.0625 V 2.296875 h -1.0625 V 2.71875 h 1.5 z m 0,0"
                 id="path91368" />
            </g>
          </g>
        </g>
      </g>
    </g>
    <path
       style="fill:none;stroke:#ff0000;stroke-width:0.396875;stroke-linejoin:round;stroke-dasharray:none;marker-end:url(#Arrow2-4);paint-order:stroke markers fill"
       d="m 131.23332,101.6 v 4.23333"
       id="path91380"
       sodipodi:nodetypes="cc" />
    <path
       style="fill:none;stroke:#ff0000;stroke-width:0.396875;stroke-linejoin:round;stroke-dasharray:none;marker-end:url(#Arrow2-4);paint-order:stroke markers fill"
       d="m 143.93332,101.6 -3.175,-10e-6"
       id="path91382"
       sodipodi:nodetypes="cc" />
    <path
       style="fill:none;stroke:#ff0000;stroke-width:0.396875;stroke-linejoin:round;stroke-dasharray:none;marker-end:url(#Arrow2-4);paint-order:stroke markers fill"
       d="M 143.93332,101.6 V 98.424997"
       id="path91384"
       sodipodi:nodetypes="cc" />
    <g
       inkscape:label=""
       transform="translate(108.65631,97.825185)"
       id="g91402"
       style="fill:#ff0000">
      <g
         id="g91400"
         transform="matrix(0.352778,0,0,0.352778,-0.110243,0.084843)"
         style="fill:#ff0000">
        <g
           style="fill:#ff0000;fill-opacity:1"
           id="g91390">
          <g
             id="g91388"
             transform="translate(0,5.447)"
             style="fill:#ff0000">
            <path
               style="fill:#ff0000;stroke:none"
               d="M 1.46875,-0.953125 C 1.109375,-0.359375 0.78125,-0.28125 0.5,-0.265625 0.421875,-0.25 0.3125,-0.25 0.3125,-0.109375 0.3125,-0.09375 0.328125,0 0.4375,0 0.5,0 0.546875,-0.03125 1.109375,-0.03125 1.65625,-0.03125 1.828125,0 1.875,0 c 0.03125,0 0.15625,0 0.15625,-0.15625 0,-0.09375 -0.109375,-0.109375 -0.140625,-0.109375 -0.171875,0 -0.34375,-0.0625 -0.34375,-0.25 0,-0.109375 0.078125,-0.21875 0.21875,-0.453125 L 2.3125,-1.84375 H 4.5 L 4.65625,-0.5 c 0,0.125 -0.140625,0.234375 -0.515625,0.234375 -0.109375,0 -0.21875,0 -0.21875,0.15625 0,0 0,0.109375 0.140625,0.109375 0.078125,0 0.375,-0.015625 0.453125,-0.03125 h 0.5 C 5.734375,-0.03125 5.859375,0 5.921875,0 5.953125,0 6.09375,0 6.09375,-0.15625 c 0,-0.109375 -0.109375,-0.109375 -0.234375,-0.109375 -0.4375,0 -0.453125,-0.0625 -0.46875,-0.265625 L 4.75,-5.453125 C 4.734375,-5.640625 4.71875,-5.6875 4.59375,-5.6875 c -0.140625,0 -0.1875,0.078125 -0.25,0.15625 z M 2.484375,-2.109375 4.125,-4.71875 4.46875,-2.109375 Z m 0,0"
               id="path91386" />
          </g>
        </g>
        <g
           clip-path="url(#clipPath7433)"
           clip-rule="nonzero"
           id="g91398"
           style="fill:#ff0000">
          <g
             style="fill:#ff0000;fill-opacity:1"
             id="g91396">
            <g
               id="g91394"
               transform="translate(6.3429999,6.4429998)"
               style="fill:#ff0000">
              <path
                 style="fill:#ff0000;stroke:none"
                 d="m 3.375,-2.359375 c -0.21875,0.0625 -0.265625,0.234375 -0.265625,0.328125 0,0.1875 0.15625,0.234375 0.234375,0.234375 0.1875,0 0.359375,-0.140625 0.359375,-0.375 0,-0.328125 -0.359375,-0.46875 -0.65625,-0.46875 -0.40625,0 -0.640625,0.3125 -0.703125,0.421875 -0.078125,-0.15625 -0.3125,-0.421875 -0.765625,-0.421875 -0.6875,0 -1.09375,0.71875 -1.09375,0.921875 0,0.03125 0.03125,0.078125 0.109375,0.078125 0.09375,0 0.109375,-0.03125 0.125,-0.078125 0.15625,-0.484375 0.5625,-0.71875 0.84375,-0.71875 0.296875,0 0.390625,0.1875 0.390625,0.390625 0,0.0625 0,0.125 -0.046875,0.3125 -0.140625,0.546875 -0.265625,1.09375 -0.296875,1.171875 -0.09375,0.21875 -0.3125,0.421875 -0.5625,0.421875 -0.03125,0 -0.203125,0 -0.34375,-0.09375 C 0.9375,-0.3125 0.96875,-0.5 0.96875,-0.546875 c 0,-0.15625 -0.125,-0.234375 -0.25,-0.234375 -0.15625,0 -0.34375,0.125 -0.34375,0.375 0,0.34375 0.375,0.46875 0.65625,0.46875 0.34375,0 0.59375,-0.234375 0.703125,-0.421875 0.125,0.25 0.40625,0.421875 0.75,0.421875 0.703125,0 1.09375,-0.734375 1.09375,-0.921875 0,-0.015625 0,-0.09375 -0.109375,-0.09375 -0.078125,0 -0.09375,0.046875 -0.109375,0.109375 C 3.1875,-0.328125 2.765625,-0.140625 2.5,-0.140625 c -0.21875,0 -0.375,-0.125 -0.375,-0.375 0,-0.125 0.015625,-0.25 0.078125,-0.453125 L 2.390625,-1.75 c 0.0625,-0.234375 0.09375,-0.34375 0.21875,-0.484375 C 2.6875,-2.328125 2.84375,-2.4375 3.03125,-2.4375 c 0.03125,0 0.203125,0 0.34375,0.078125 z m 0,0"
                 id="path91392" />
            </g>
          </g>
        </g>
      </g>
    </g>
    <g
       inkscape:label=""
       transform="translate(103.95138,94.4867)"
       id="g91420"
       style="fill:#ff0000">
      <g
         id="g91418"
         transform="matrix(0.352778,0,0,0.352778,-0.110243,0.0851958)"
         style="fill:#ff0000">
        <g
           style="fill:#ff0000;fill-opacity:1"
           id="g91408">
          <g
             id="g91406"
             transform="translate(0,5.4460001)"
             style="fill:#ff0000">
            <path
               style="fill:#ff0000;stroke:none"
               d="M 1.46875,-0.953125 C 1.109375,-0.359375 0.78125,-0.28125 0.5,-0.265625 0.421875,-0.25 0.3125,-0.25 0.3125,-0.109375 0.3125,-0.09375 0.328125,0 0.4375,0 0.5,0 0.546875,-0.03125 1.109375,-0.03125 1.65625,-0.03125 1.828125,0 1.875,0 c 0.03125,0 0.15625,0 0.15625,-0.15625 0,-0.09375 -0.109375,-0.109375 -0.140625,-0.109375 -0.171875,0 -0.34375,-0.0625 -0.34375,-0.25 0,-0.109375 0.078125,-0.21875 0.21875,-0.453125 L 2.3125,-1.84375 H 4.5 L 4.65625,-0.5 c 0,0.125 -0.140625,0.234375 -0.515625,0.234375 -0.109375,0 -0.21875,0 -0.21875,0.15625 0,0 0,0.109375 0.140625,0.109375 0.078125,0 0.375,-0.015625 0.453125,-0.03125 h 0.5 C 5.734375,-0.03125 5.859375,0 5.921875,0 5.953125,0 6.09375,0 6.09375,-0.15625 c 0,-0.109375 -0.109375,-0.109375 -0.234375,-0.109375 -0.4375,0 -0.453125,-0.0625 -0.46875,-0.265625 L 4.75,-5.453125 C 4.734375,-5.640625 4.71875,-5.6875 4.59375,-5.6875 c -0.140625,0 -0.1875,0.078125 -0.25,0.15625 z M 2.484375,-2.109375 4.125,-4.71875 4.46875,-2.109375 Z m 0,0"
               id="path91404" />
          </g>
        </g>
        <g
           clip-path="url(#clipPath3571)"
           clip-rule="nonzero"
           id="g91416"
           style="fill:#ff0000">
          <g
             style="fill:#ff0000;fill-opacity:1"
             id="g91414">
            <g
               id="g91412"
               transform="translate(6.3429999,6.4429998)"
               style="fill:#ff0000">
              <path
                 style="fill:#ff0000;stroke:none"
                 d="m 3.5625,-2.296875 c 0.015625,-0.046875 0.015625,-0.0625 0.015625,-0.078125 0,-0.078125 -0.046875,-0.203125 -0.203125,-0.203125 -0.109375,0 -0.203125,0.0625 -0.25,0.15625 -0.03125,0.03125 -0.0625,0.21875 -0.09375,0.328125 l -0.3125,1.25 c -0.046875,0.171875 -0.0625,0.265625 -0.3125,0.484375 -0.0625,0.0625 -0.25,0.21875 -0.515625,0.21875 -0.4375,0 -0.4375,-0.390625 -0.4375,-0.5 0,-0.25 0.078125,-0.53125 0.34375,-1.1875 0.046875,-0.140625 0.0625,-0.1875 0.0625,-0.296875 0,-0.328125 -0.296875,-0.515625 -0.59375,-0.515625 -0.609375,0 -0.90625,0.796875 -0.90625,0.921875 0,0.03125 0.03125,0.078125 0.109375,0.078125 0.09375,0 0.109375,-0.03125 0.125,-0.078125 C 0.765625,-2.296875 1.078125,-2.4375 1.25,-2.4375 c 0.109375,0 0.15625,0.078125 0.15625,0.21875 0,0.125 -0.078125,0.328125 -0.140625,0.484375 -0.21875,0.53125 -0.28125,0.796875 -0.28125,1.015625 0,0.5625 0.421875,0.78125 0.890625,0.78125 0.078125,0 0.359375,0 0.6875,-0.28125 -0.078125,0.328125 -0.140625,0.5625 -0.421875,0.875 -0.109375,0.125 -0.375,0.359375 -0.734375,0.359375 -0.0625,0 -0.3125,0 -0.453125,-0.15625 C 1.21875,0.8125 1.25,0.578125 1.25,0.53125 1.25,0.359375 1.125,0.296875 1,0.296875 c -0.140625,0 -0.34375,0.125 -0.34375,0.390625 0,0.296875 0.28125,0.53125 0.75,0.53125 C 2.046875,1.21875 2.8125,0.75 2.984375,0 Z m 0,0"
                 id="path91410" />
            </g>
          </g>
        </g>
      </g>
    </g>
    <g
       inkscape:label=""
       transform="matrix(0.80785247,0,0,0.80785247,106.30957,104.43148)"
       id="g91438"
       style="fill:#ff0000">
      <g
         id="g91436"
         transform="matrix(0.352778,0,0,0.352778,-0.15434,-0.0033514)"
         style="fill:#ff0000">
        <g
           style="fill:#ff0000;fill-opacity:1"
           id="g91426">
          <g
             id="g91424"
             transform="translate(0,5.447)"
             style="fill:#ff0000">
            <path
               style="fill:#ff0000;stroke:none"
               d="m 7.734375,-4.796875 c 0.078125,-0.3125 0.09375,-0.375 0.65625,-0.375 0.1875,0 0.28125,0 0.28125,-0.15625 0,-0.109375 -0.109375,-0.109375 -0.25,-0.109375 h -1.03125 c -0.203125,0 -0.234375,0 -0.34375,0.15625 l -3,4.546875 -0.703125,-4.5 C 3.3125,-5.421875 3.296875,-5.4375 3.0625,-5.4375 H 1.984375 c -0.140625,0 -0.25,0 -0.25,0.140625 0,0.125 0.109375,0.125 0.234375,0.125 0.265625,0 0.5,0 0.5,0.125 0,0.03125 -0.015625,0.03125 -0.03125,0.140625 l -1.015625,4.046875 c -0.09375,0.40625 -0.3125,0.578125 -0.84375,0.59375 C 0.53125,-0.265625 0.4375,-0.25 0.4375,-0.109375 0.4375,-0.0625 0.484375,0 0.5625,0 0.59375,0 0.765625,-0.03125 1.34375,-0.03125 1.96875,-0.03125 2.09375,0 2.171875,0 2.203125,0 2.3125,0 2.3125,-0.15625 2.3125,-0.25 2.234375,-0.265625 2.171875,-0.265625 1.890625,-0.265625 1.65625,-0.3125 1.65625,-0.59375 1.65625,-0.640625 1.671875,-0.75 1.671875,-0.75 L 2.75,-5.078125 H 2.765625 L 3.53125,-0.21875 C 3.5625,-0.09375 3.5625,0 3.6875,0 3.796875,0 3.84375,-0.09375 3.890625,-0.15625 l 3.28125,-4.984375 H 7.1875 L 6.0625,-0.625 c -0.078125,0.296875 -0.09375,0.359375 -0.6875,0.359375 -0.140625,0 -0.25,0 -0.25,0.15625 C 5.125,-0.078125 5.15625,0 5.265625,0 5.359375,0 5.609375,-0.015625 5.71875,-0.03125 h 0.5 c 0.75,0 0.9375,0.03125 1,0.03125 0.046875,0 0.15625,0 0.15625,-0.15625 0,-0.109375 -0.109375,-0.109375 -0.25,-0.109375 -0.015625,0 -0.15625,0 -0.296875,-0.015625 -0.171875,-0.015625 -0.1875,-0.03125 -0.1875,-0.109375 0,-0.046875 0.015625,-0.09375 0.03125,-0.125 z m 0,0"
               id="path91422" />
          </g>
        </g>
        <g
           clip-path="url(#clipPath2515)"
           clip-rule="nonzero"
           id="g91434"
           style="fill:#ff0000">
          <g
             style="fill:#ff0000;fill-opacity:1"
             id="g91432">
            <g
               id="g91430"
               transform="translate(8.1330004,6.7859998)"
               style="fill:#ff0000">
              <path
                 style="fill:#ff0000;stroke:none"
                 d="m 1.359375,-0.734375 c -0.234375,0.34375 -0.4375,0.46875 -0.765625,0.5 -0.09375,0 -0.15625,0 -0.15625,0.140625 C 0.4375,-0.03125 0.484375,0 0.515625,0 0.6875,0 0.890625,-0.03125 1.0625,-0.03125 1.203125,-0.03125 1.5625,0 1.703125,0 c 0.0625,0 0.125,-0.03125 0.125,-0.15625 0,-0.078125 -0.078125,-0.078125 -0.09375,-0.078125 C 1.578125,-0.25 1.453125,-0.28125 1.453125,-0.40625 c 0,-0.078125 0.0625,-0.1875 0.078125,-0.21875 l 0.5,-0.734375 h 1.796875 l 0.15625,0.96875 c 0,0.15625 -0.34375,0.15625 -0.40625,0.15625 -0.078125,0 -0.171875,0 -0.171875,0.140625 C 3.40625,-0.0625 3.4375,0 3.5,0 c 0.1875,0 0.625,-0.03125 0.796875,-0.03125 0.125,0 0.234375,0.015625 0.359375,0.015625 C 4.78125,-0.015625 4.90625,0 5.015625,0 5.0625,0 5.15625,0 5.15625,-0.15625 c 0,-0.078125 -0.078125,-0.078125 -0.171875,-0.078125 -0.375,0 -0.375,-0.046875 -0.40625,-0.203125 L 3.984375,-4.109375 C 3.96875,-4.21875 3.96875,-4.265625 3.828125,-4.265625 c -0.125,0 -0.15625,0.046875 -0.21875,0.125 z M 2.1875,-1.59375 3.484375,-3.546875 3.78125,-1.59375 Z m 0,0"
                 id="path91428" />
            </g>
          </g>
        </g>
      </g>
    </g>
    <g
       inkscape:label=""
       transform="translate(144.60581,94.638114)"
       id="g14075"
       style="fill:#ff0000">
      <g
         id="g14073"
         transform="matrix(0.352778,0,0,0.352778,-0.137804,-0.0085108)"
         style="fill:#ff0000">
        <g
           style="fill:#ff0000;fill-opacity:1"
           id="g14063">
          <g
             id="g14061"
             transform="translate(0,5.4460001)"
             style="fill:#ff0000">
            <path
               style="fill:#ff0000;stroke:none"
               d="M 5.96875,-1.84375 C 5.984375,-1.875 6,-1.921875 6,-1.953125 c 0,-0.015625 0,-0.125 -0.125,-0.125 -0.078125,0 -0.09375,0.03125 -0.171875,0.203125 -0.5,1.171875 -0.875,1.609375 -2.1875,1.609375 h -1.4375 C 2,-0.28125 1.96875,-0.28125 1.96875,-0.328125 c 0,-0.0625 0.015625,-0.140625 0.046875,-0.1875 L 2.5625,-2.6875 h 0.84375 c 0.59375,0 0.703125,0.09375 0.703125,0.359375 0,0 0,0.125 -0.046875,0.359375 -0.015625,0.03125 -0.03125,0.078125 -0.03125,0.109375 0,0 0.015625,0.109375 0.125,0.109375 0.09375,0 0.109375,-0.046875 0.140625,-0.1875 L 4.71875,-3.609375 C 4.71875,-3.625 4.75,-3.75 4.75,-3.765625 4.75,-3.84375 4.6875,-3.875 4.625,-3.875 c -0.09375,0 -0.109375,0.046875 -0.140625,0.1875 -0.171875,0.625 -0.375,0.734375 -1.0625,0.734375 H 2.625 l 0.46875,-1.90625 C 3.171875,-5.140625 3.171875,-5.15625 3.5,-5.15625 h 1.25 c 0.953125,0 1.265625,0.1875 1.265625,0.890625 0,0.171875 -0.046875,0.375 -0.046875,0.515625 0,0.09375 0.0625,0.140625 0.125,0.140625 0.109375,0 0.109375,-0.078125 0.125,-0.203125 L 6.359375,-5.171875 C 6.375,-5.21875 6.375,-5.265625 6.375,-5.3125 6.375,-5.421875 6.28125,-5.421875 6.140625,-5.421875 H 1.9375 c -0.15625,0 -0.25,0 -0.25,0.15625 0,0.109375 0.109375,0.109375 0.234375,0.109375 0.03125,0 0.171875,0 0.3125,0.015625 0.171875,0.015625 0.1875,0.046875 0.1875,0.109375 0,0.046875 -0.015625,0.09375 -0.03125,0.125 l -1.0625,4.28125 c -0.078125,0.296875 -0.09375,0.359375 -0.6875,0.359375 -0.140625,0 -0.25,0 -0.25,0.15625 C 0.390625,0 0.5,0 0.640625,0 h 4.3125 c 0.1875,0 0.203125,0 0.265625,-0.140625 z m 0,0"
               id="path14059" />
          </g>
        </g>
        <g
           clip-path="url(#clipPath7672)"
           clip-rule="nonzero"
           id="g14071"
           style="fill:#ff0000">
          <g
             style="fill:#ff0000;fill-opacity:1"
             id="g14069">
            <g
               id="g14067"
               transform="translate(6.2059999,6.4429998)"
               style="fill:#ff0000">
              <path
                 style="fill:#ff0000;stroke:none"
                 d="m 3.5625,-2.296875 c 0.015625,-0.046875 0.015625,-0.0625 0.015625,-0.078125 0,-0.078125 -0.046875,-0.203125 -0.203125,-0.203125 -0.109375,0 -0.203125,0.0625 -0.25,0.15625 -0.03125,0.03125 -0.0625,0.21875 -0.09375,0.328125 l -0.3125,1.25 c -0.046875,0.171875 -0.0625,0.265625 -0.3125,0.484375 -0.0625,0.0625 -0.25,0.21875 -0.515625,0.21875 -0.4375,0 -0.4375,-0.390625 -0.4375,-0.5 0,-0.25 0.078125,-0.53125 0.34375,-1.1875 0.046875,-0.140625 0.0625,-0.1875 0.0625,-0.296875 0,-0.328125 -0.296875,-0.515625 -0.59375,-0.515625 -0.609375,0 -0.90625,0.796875 -0.90625,0.921875 0,0.03125 0.03125,0.078125 0.109375,0.078125 0.09375,0 0.109375,-0.03125 0.125,-0.078125 C 0.765625,-2.296875 1.078125,-2.4375 1.25,-2.4375 c 0.109375,0 0.15625,0.078125 0.15625,0.21875 0,0.125 -0.078125,0.328125 -0.140625,0.484375 -0.21875,0.53125 -0.28125,0.796875 -0.28125,1.015625 0,0.5625 0.421875,0.78125 0.890625,0.78125 0.078125,0 0.359375,0 0.6875,-0.28125 -0.078125,0.328125 -0.140625,0.5625 -0.421875,0.875 -0.109375,0.125 -0.375,0.359375 -0.734375,0.359375 -0.0625,0 -0.3125,0 -0.453125,-0.15625 C 1.21875,0.8125 1.25,0.578125 1.25,0.53125 1.25,0.359375 1.125,0.296875 1,0.296875 c -0.140625,0 -0.34375,0.125 -0.34375,0.390625 0,0.296875 0.28125,0.53125 0.75,0.53125 C 2.046875,1.21875 2.8125,0.75 2.984375,0 Z m 0,0"
                 id="path14065" />
            </g>
          </g>
        </g>
      </g>
    </g>
    <g
       inkscape:label=""
       transform="translate(137.89651,97.698769)"
       id="g27483"
       style="fill:#ff0000">
      <g
         id="g27481"
         transform="matrix(0.352778,0,0,0.352778,-0.137804,-0.00886355)"
         style="fill:#ff0000">
        <g
           style="fill:#ff0000;fill-opacity:1"
           id="g27471">
          <g
             id="g27469"
             transform="translate(0,5.447)"
             style="fill:#ff0000">
            <path
               style="fill:#ff0000;stroke:none"
               d="M 5.96875,-1.84375 C 5.984375,-1.875 6,-1.921875 6,-1.953125 c 0,-0.015625 0,-0.125 -0.125,-0.125 -0.078125,0 -0.09375,0.03125 -0.171875,0.203125 -0.5,1.171875 -0.875,1.609375 -2.1875,1.609375 h -1.4375 C 2,-0.28125 1.96875,-0.28125 1.96875,-0.328125 c 0,-0.0625 0.015625,-0.140625 0.046875,-0.1875 L 2.5625,-2.6875 h 0.84375 c 0.59375,0 0.703125,0.09375 0.703125,0.359375 0,0 0,0.125 -0.046875,0.359375 -0.015625,0.03125 -0.03125,0.078125 -0.03125,0.109375 0,0 0.015625,0.109375 0.125,0.109375 0.09375,0 0.109375,-0.046875 0.140625,-0.1875 L 4.71875,-3.609375 C 4.71875,-3.625 4.75,-3.75 4.75,-3.765625 4.75,-3.84375 4.6875,-3.875 4.625,-3.875 c -0.09375,0 -0.109375,0.046875 -0.140625,0.1875 -0.171875,0.625 -0.375,0.734375 -1.0625,0.734375 H 2.625 l 0.46875,-1.90625 C 3.171875,-5.140625 3.171875,-5.15625 3.5,-5.15625 h 1.25 c 0.953125,0 1.265625,0.1875 1.265625,0.890625 0,0.171875 -0.046875,0.375 -0.046875,0.515625 0,0.09375 0.0625,0.140625 0.125,0.140625 0.109375,0 0.109375,-0.078125 0.125,-0.203125 L 6.359375,-5.171875 C 6.375,-5.21875 6.375,-5.265625 6.375,-5.3125 6.375,-5.421875 6.28125,-5.421875 6.140625,-5.421875 H 1.9375 c -0.15625,0 -0.25,0 -0.25,0.15625 0,0.109375 0.109375,0.109375 0.234375,0.109375 0.03125,0 0.171875,0 0.3125,0.015625 0.171875,0.015625 0.1875,0.046875 0.1875,0.109375 0,0.046875 -0.015625,0.09375 -0.03125,0.125 l -1.0625,4.28125 c -0.078125,0.296875 -0.09375,0.359375 -0.6875,0.359375 -0.140625,0 -0.25,0 -0.25,0.15625 C 0.390625,0 0.5,0 0.640625,0 h 4.3125 c 0.1875,0 0.203125,0 0.265625,-0.140625 z m 0,0"
               id="path27467" />
          </g>
        </g>
        <g
           clip-path="url(#clipPath9445)"
           clip-rule="nonzero"
           id="g27479"
           style="fill:#ff0000">
          <g
             style="fill:#ff0000;fill-opacity:1"
             id="g27477">
            <g
               id="g27475"
               transform="translate(6.2059999,6.4429998)"
               style="fill:#ff0000">
              <path
                 style="fill:#ff0000;stroke:none"
                 d="m 3.375,-2.359375 c -0.21875,0.0625 -0.265625,0.234375 -0.265625,0.328125 0,0.1875 0.15625,0.234375 0.234375,0.234375 0.1875,0 0.359375,-0.140625 0.359375,-0.375 0,-0.328125 -0.359375,-0.46875 -0.65625,-0.46875 -0.40625,0 -0.640625,0.3125 -0.703125,0.421875 -0.078125,-0.15625 -0.3125,-0.421875 -0.765625,-0.421875 -0.6875,0 -1.09375,0.71875 -1.09375,0.921875 0,0.03125 0.03125,0.078125 0.109375,0.078125 0.09375,0 0.109375,-0.03125 0.125,-0.078125 0.15625,-0.484375 0.5625,-0.71875 0.84375,-0.71875 0.296875,0 0.390625,0.1875 0.390625,0.390625 0,0.0625 0,0.125 -0.046875,0.3125 -0.140625,0.546875 -0.265625,1.09375 -0.296875,1.171875 -0.09375,0.21875 -0.3125,0.421875 -0.5625,0.421875 -0.03125,0 -0.203125,0 -0.34375,-0.09375 C 0.9375,-0.3125 0.96875,-0.5 0.96875,-0.546875 c 0,-0.15625 -0.125,-0.234375 -0.25,-0.234375 -0.15625,0 -0.34375,0.125 -0.34375,0.375 0,0.34375 0.375,0.46875 0.65625,0.46875 0.34375,0 0.59375,-0.234375 0.703125,-0.421875 0.125,0.25 0.40625,0.421875 0.75,0.421875 0.703125,0 1.09375,-0.734375 1.09375,-0.921875 0,-0.015625 0,-0.09375 -0.109375,-0.09375 -0.078125,0 -0.09375,0.046875 -0.109375,0.109375 C 3.1875,-0.328125 2.765625,-0.140625 2.5,-0.140625 c -0.21875,0 -0.375,-0.125 -0.375,-0.375 0,-0.125 0.015625,-0.25 0.078125,-0.453125 L 2.390625,-1.75 c 0.0625,-0.234375 0.09375,-0.34375 0.21875,-0.484375 C 2.6875,-2.328125 2.84375,-2.4375 3.03125,-2.4375 c 0.03125,0 0.203125,0 0.34375,0.078125 z m 0,0"
                 id="path27473" />
            </g>
          </g>
        </g>
      </g>
    </g>
    <path
       sodipodi:type="star"
       style="fill:#000000;stroke:none;stroke-width:0.264583;stroke-linejoin:round;stroke-dasharray:none;paint-order:stroke markers fill"
       id="path41646-1-5"
       inkscape:flatsided="true"
       sodipodi:sides="3"
       sodipodi:cx="160.86665"
       sodipodi:cy="29.633333"
       sodipodi:r1="2.0182958"
       sodipodi:r2="1.9079375"
       sodipodi:arg1="0.52359878"
       sodipodi:arg2="1.5707963"
       inkscape:rounded="0"
       inkscape:randomized="0"
       d="m 162.61455,30.642481 -3.49579,0 1.74789,-3.027444 z"
       inkscape:transform-center-x="-1.1400001e-06"
       inkscape:transform-center-y="-0.95396856"
       transform="translate(-16.933325,75.141629)" />
    <path
       style="fill:none;stroke:#000000;stroke-width:0.264583;stroke-linejoin:round;paint-order:stroke markers fill"
       d="m 139.69999,105.8333 c 0,0 8.46667,0 8.46667,0"
       id="path9759-5" />
  </g>
</svg>
