<?xml version="1.0" encoding="UTF-8" standalone="no"?>
<svg
   xmlns:dc="http://purl.org/dc/elements/1.1/"
   xmlns:cc="http://creativecommons.org/ns#"
   xmlns:rdf="http://www.w3.org/1999/02/22-rdf-syntax-ns#"
   xmlns:svg="http://www.w3.org/2000/svg"
   xmlns="http://www.w3.org/2000/svg"
   xmlns:xlink="http://www.w3.org/1999/xlink"
   xmlns:sodipodi="http://sodipodi.sourceforge.net/DTD/sodipodi-0.dtd"
   xmlns:inkscape="http://www.inkscape.org/namespaces/inkscape"
   width="481.60001"
   height="291.60001"
   viewBox="0 0 127.42333 77.152504"
   version="1.1"
   id="svg8"
   inkscape:version="1.0.2 (e86c870879, 2021-01-15)"
   sodipodi:docname="f1.svg">
  <defs
     id="defs2">
    <marker
       style="overflow:visible"
       id="Arrow1Send"
       refX="0"
       refY="0"
       orient="auto"
       inkscape:stockid="Arrow1Send"
       inkscape:isstock="true">
      <path
         transform="matrix(-0.2,0,0,-0.2,-1.2,0)"
         style="fill:#ff0000;fill-opacity:1;fill-rule:evenodd;stroke:#ff0000;stroke-width:1pt;stroke-opacity:1"
         d="M 0,0 5,-5 -12.5,0 5,5 Z"
         id="path1004" />
    </marker>
    <marker
       style="overflow:visible"
       id="Arrow1Send-1"
       refX="0"
       refY="0"
       orient="auto"
       inkscape:stockid="Arrow1Send"
       inkscape:isstock="true">
      <path
         transform="matrix(-0.2,0,0,-0.2,-1.2,0)"
         style="fill:#ff0000;fill-opacity:1;fill-rule:evenodd;stroke:#ff0000;stroke-width:1pt;stroke-opacity:1"
         d="M 0,0 5,-5 -12.5,0 5,5 Z"
         id="path1004-2" />
    </marker>
    <marker
       style="overflow:visible"
       id="Arrow1Send-1-0"
       refX="0"
       refY="0"
       orient="auto"
       inkscape:stockid="Arrow1Send"
       inkscape:isstock="true">
      <path
         transform="matrix(-0.2,0,0,-0.2,-1.2,0)"
         style="fill:#ff0000;fill-opacity:1;fill-rule:evenodd;stroke:#ff0000;stroke-width:1pt;stroke-opacity:1"
         d="M 0,0 5,-5 -12.5,0 5,5 Z"
         id="path1004-2-9" />
    </marker>
    <marker
       style="overflow:visible"
       id="Arrow1Send-1-0-6"
       refX="0"
       refY="0"
       orient="auto"
       inkscape:stockid="Arrow1Send"
       inkscape:isstock="true">
      <path
         transform="matrix(-0.2,0,0,-0.2,-1.2,0)"
         style="fill:#ff0000;fill-opacity:1;fill-rule:evenodd;stroke:#ff0000;stroke-width:1pt;stroke-opacity:1"
         d="M 0,0 5,-5 -12.5,0 5,5 Z"
         id="path1004-2-9-0" />
    </marker>
    <marker
       style="overflow:visible"
       id="Arrow1Send-1-0-2"
       refX="0"
       refY="0"
       orient="auto"
       inkscape:stockid="Arrow1Send"
       inkscape:isstock="true">
      <path
         transform="matrix(-0.2,0,0,-0.2,-1.2,0)"
         style="fill:#ff0000;fill-opacity:1;fill-rule:evenodd;stroke:#ff0000;stroke-width:1pt;stroke-opacity:1"
         d="M 0,0 5,-5 -12.5,0 5,5 Z"
         id="path1004-2-9-6" />
    </marker>
    <g
       id="g4646">
      <symbol
         overflow="visible"
         id="symbol5868">
        <path
           style="stroke:none"
           d=""
           id="path9312" />
      </symbol>
      <symbol
         overflow="visible"
         id="symbol9379">
        <path
           style="stroke:none"
           d="M 0.34375,-6.8125 V -6.5 h 0.25 c 0.765625,0 0.78125,0.109375 0.78125,0.46875 v 5.25 c 0,0.359375 -0.015625,0.46875 -0.78125,0.46875 h -0.25 V 0 H 4 C 5.671875,0 7.046875,-1.46875 7.046875,-3.34375 7.046875,-5.25 5.703125,-6.8125 4,-6.8125 Z m 2.375,6.5 C 2.25,-0.3125 2.234375,-0.375 2.234375,-0.703125 V -6.09375 C 2.234375,-6.4375 2.25,-6.5 2.71875,-6.5 h 1 c 0.625,0 1.3125,0.21875 1.8125,0.921875 0.4375,0.59375 0.515625,1.453125 0.515625,2.234375 0,1.09375 -0.1875,1.703125 -0.546875,2.1875 -0.203125,0.265625 -0.765625,0.84375 -1.765625,0.84375 z m 0,0"
           id="path2454" />
      </symbol>
      <symbol
         overflow="visible"
         id="symbol4029">
        <path
           style="stroke:none"
           d="M 1.109375,-2.515625 C 1.171875,-4 2.015625,-4.25 2.359375,-4.25 c 1.015625,0 1.125,1.34375 1.125,1.734375 z m 0,0.21875 h 2.78125 c 0.21875,0 0.25,0 0.25,-0.21875 0,-0.984375 -0.546875,-1.953125 -1.78125,-1.953125 -1.15625,0 -2.078125,1.03125 -2.078125,2.28125 0,1.328125 1.046875,2.296875 2.1875,2.296875 C 3.6875,0.109375 4.140625,-1 4.140625,-1.1875 4.140625,-1.28125 4.0625,-1.3125 4,-1.3125 c -0.078125,0 -0.109375,0.0625 -0.125,0.140625 -0.34375,1.03125 -1.25,1.03125 -1.34375,1.03125 -0.5,0 -0.890625,-0.296875 -1.125,-0.671875 -0.296875,-0.46875 -0.296875,-1.125 -0.296875,-1.484375 z m 0,0"
           id="path1706" />
      </symbol>
      <symbol
         overflow="visible"
         id="symbol9062">
        <path
           style="stroke:none"
           d="m 1.75,-4.296875 v -1.15625 c 0,-0.875 0.46875,-1.359375 0.90625,-1.359375 0.03125,0 0.1875,0 0.328125,0.078125 C 2.875,-6.703125 2.6875,-6.5625 2.6875,-6.3125 c 0,0.21875 0.15625,0.421875 0.4375,0.421875 0.28125,0 0.4375,-0.203125 0.4375,-0.4375 0,-0.375 -0.375,-0.703125 -0.90625,-0.703125 -0.6875,0 -1.546875,0.53125 -1.546875,1.59375 v 1.140625 h -0.78125 v 0.3125 h 0.78125 V -0.75 C 1.109375,-0.3125 1,-0.3125 0.34375,-0.3125 V 0 c 0.390625,-0.015625 0.859375,-0.03125 1.125,-0.03125 0.40625,0 0.875,0 1.265625,0.03125 V -0.3125 H 2.53125 c -0.734375,0 -0.75,-0.109375 -0.75,-0.46875 v -3.203125 h 1.125 v -0.3125 z m 0,0"
           id="path1074" />
      </symbol>
      <symbol
         overflow="visible"
         id="symbol6185">
        <path
           style="stroke:none"
           d="M 4.6875,-2.140625 C 4.6875,-3.40625 3.703125,-4.46875 2.5,-4.46875 c -1.25,0 -2.21875,1.09375 -2.21875,2.328125 0,1.296875 1.03125,2.25 2.203125,2.25 1.203125,0 2.203125,-0.984375 2.203125,-2.25 z m -2.1875,2 c -0.4375,0 -0.875,-0.203125 -1.140625,-0.671875 -0.25,-0.4375 -0.25,-1.046875 -0.25,-1.40625 0,-0.390625 0,-0.921875 0.234375,-1.359375 C 1.609375,-4.03125 2.078125,-4.25 2.484375,-4.25 c 0.4375,0 0.859375,0.21875 1.125,0.65625 0.265625,0.421875 0.265625,1 0.265625,1.375 0,0.359375 0,0.90625 -0.21875,1.34375 C 3.421875,-0.421875 2.984375,-0.140625 2.5,-0.140625 Z m 0,0"
           id="path222" />
      </symbol>
      <symbol
         overflow="visible"
         id="symbol7361">
        <path
           style="stroke:none"
           d="M 1.671875,-3.3125 V -4.40625 L 0.28125,-4.296875 v 0.3125 c 0.703125,0 0.78125,0.0625 0.78125,0.5625 V -0.75 c 0,0.4375 -0.109375,0.4375 -0.78125,0.4375 V 0 c 0.390625,-0.015625 0.859375,-0.03125 1.140625,-0.03125 0.390625,0 0.859375,0 1.265625,0.03125 V -0.3125 H 2.46875 c -0.734375,0 -0.75,-0.109375 -0.75,-0.46875 V -2.3125 c 0,-0.984375 0.421875,-1.875 1.171875,-1.875 0.0625,0 0.09375,0 0.109375,0.015625 -0.03125,0 -0.234375,0.125 -0.234375,0.390625 0,0.265625 0.21875,0.421875 0.4375,0.421875 0.171875,0 0.421875,-0.125 0.421875,-0.4375 0,-0.3125 -0.3125,-0.609375 -0.734375,-0.609375 -0.734375,0 -1.09375,0.671875 -1.21875,1.09375 z m 0,0"
           id="path5722" />
      </symbol>
      <symbol
         overflow="visible"
         id="symbol7611">
        <path
           style="stroke:none"
           d="M 1.09375,-3.421875 V -0.75 c 0,0.4375 -0.109375,0.4375 -0.78125,0.4375 V 0 c 0.359375,-0.015625 0.859375,-0.03125 1.140625,-0.03125 0.25,0 0.765625,0.015625 1.109375,0.03125 v -0.3125 c -0.671875,0 -0.78125,0 -0.78125,-0.4375 V -2.59375 C 1.78125,-3.625 2.5,-4.1875 3.125,-4.1875 c 0.640625,0 0.75,0.53125 0.75,1.109375 V -0.75 c 0,0.4375 -0.109375,0.4375 -0.78125,0.4375 V 0 c 0.34375,-0.015625 0.859375,-0.03125 1.125,-0.03125 0.25,0 0.78125,0.015625 1.109375,0.03125 v -0.3125 c -0.65625,0 -0.765625,0 -0.765625,-0.4375 v -1.84375 c 0,-1.03125 0.703125,-1.59375 1.34375,-1.59375 0.625,0 0.734375,0.53125 0.734375,1.109375 V -0.75 c 0,0.4375 -0.109375,0.4375 -0.78125,0.4375 V 0 c 0.34375,-0.015625 0.859375,-0.03125 1.125,-0.03125 0.265625,0 0.78125,0.015625 1.125,0.03125 v -0.3125 c -0.515625,0 -0.765625,0 -0.78125,-0.296875 v -1.90625 c 0,-0.859375 0,-1.15625 -0.3125,-1.515625 -0.140625,-0.171875 -0.46875,-0.375 -1.046875,-0.375 -0.828125,0 -1.28125,0.59375 -1.4375,0.984375 C 4.390625,-4.296875 3.65625,-4.40625 3.203125,-4.40625 2.46875,-4.40625 2,-3.984375 1.71875,-3.359375 V -4.40625 L 0.3125,-4.296875 v 0.3125 c 0.703125,0 0.78125,0.0625 0.78125,0.5625 z m 0,0"
           id="path9203" />
      </symbol>
      <symbol
         overflow="visible"
         id="symbol6502">
        <path
           style="stroke:none"
           d="m 3.3125,-0.75 c 0.046875,0.390625 0.3125,0.8125 0.78125,0.8125 0.21875,0 0.828125,-0.140625 0.828125,-0.953125 v -0.5625 h -0.25 v 0.5625 c 0,0.578125 -0.25,0.640625 -0.359375,0.640625 -0.328125,0 -0.375,-0.453125 -0.375,-0.5 v -1.984375 c 0,-0.421875 0,-0.8125 -0.359375,-1.1875 C 3.1875,-4.3125 2.6875,-4.46875 2.21875,-4.46875 c -0.828125,0 -1.515625,0.46875 -1.515625,1.125 0,0.296875 0.203125,0.46875 0.46875,0.46875 0.28125,0 0.453125,-0.203125 0.453125,-0.453125 0,-0.125 -0.046875,-0.453125 -0.515625,-0.453125 C 1.390625,-4.140625 1.875,-4.25 2.1875,-4.25 c 0.5,0 1.0625,0.390625 1.0625,1.28125 v 0.359375 c -0.515625,0.03125 -1.203125,0.0625 -1.828125,0.359375 -0.75,0.34375 -1,0.859375 -1,1.296875 0,0.8125 0.96875,1.0625 1.59375,1.0625 0.65625,0 1.109375,-0.40625 1.296875,-0.859375 z M 3.25,-2.390625 v 1 c 0,0.9375 -0.71875,1.28125 -1.171875,1.28125 -0.484375,0 -0.890625,-0.34375 -0.890625,-0.84375 0,-0.546875 0.421875,-1.375 2.0625,-1.4375 z m 0,0"
           id="path7698" />
      </symbol>
      <symbol
         overflow="visible"
         id="symbol5089">
        <path
           style="stroke:none"
           d="m 1.171875,-2.171875 c 0,-1.625 0.8125,-2.046875 1.34375,-2.046875 0.09375,0 0.71875,0.015625 1.0625,0.375 -0.40625,0.03125 -0.46875,0.328125 -0.46875,0.453125 0,0.265625 0.1875,0.453125 0.453125,0.453125 0.265625,0 0.46875,-0.15625 0.46875,-0.46875 0,-0.671875 -0.765625,-1.0625 -1.53125,-1.0625 -1.25,0 -2.15625,1.078125 -2.15625,2.3125 0,1.28125 0.984375,2.265625 2.140625,2.265625 1.328125,0 1.65625,-1.203125 1.65625,-1.296875 0,-0.09375 -0.109375,-0.09375 -0.140625,-0.09375 -0.078125,0 -0.109375,0.03125 -0.125,0.09375 -0.28125,0.921875 -0.9375,1.046875 -1.296875,1.046875 -0.53125,0 -1.40625,-0.421875 -1.40625,-2.03125 z m 0,0"
           id="path6731" />
      </symbol>
      <symbol
         overflow="visible"
         id="symbol9200">
        <path
           style="stroke:none"
           d="M 1.765625,-4.40625 0.375,-4.296875 v 0.3125 c 0.640625,0 0.734375,0.0625 0.734375,0.546875 V -0.75 c 0,0.4375 -0.109375,0.4375 -0.78125,0.4375 V 0 C 0.640625,-0.015625 1.1875,-0.03125 1.421875,-0.03125 1.78125,-0.03125 2.125,-0.015625 2.46875,0 v -0.3125 c -0.671875,0 -0.703125,-0.046875 -0.703125,-0.4375 z m 0.03125,-1.734375 c 0,-0.3125 -0.234375,-0.53125 -0.515625,-0.53125 -0.3125,0 -0.53125,0.265625 -0.53125,0.53125 0,0.265625 0.21875,0.53125 0.53125,0.53125 0.28125,0 0.515625,-0.21875 0.515625,-0.53125 z m 0,0"
           id="path4913" />
      </symbol>
      <symbol
         overflow="visible"
         id="symbol1052">
        <path
           style="stroke:none"
           d="M 3.734375,-6.296875 C 3.828125,-6.375 3.90625,-6.484375 3.90625,-6.59375 c 0,-0.1875 -0.171875,-0.359375 -0.359375,-0.359375 -0.140625,0 -0.25,0.109375 -0.296875,0.171875 l -1.203125,1.515625 0.171875,0.1875 z m 0,0"
           id="path3555" />
      </symbol>
      <symbol
         overflow="visible"
         id="symbol6383">
        <path
           style="stroke:none"
           d="M 1.09375,-3.421875 V -0.75 c 0,0.4375 -0.109375,0.4375 -0.78125,0.4375 V 0 c 0.359375,-0.015625 0.859375,-0.03125 1.140625,-0.03125 0.25,0 0.765625,0.015625 1.109375,0.03125 v -0.3125 c -0.671875,0 -0.78125,0 -0.78125,-0.4375 V -2.59375 C 1.78125,-3.625 2.5,-4.1875 3.125,-4.1875 c 0.640625,0 0.75,0.53125 0.75,1.109375 V -0.75 c 0,0.4375 -0.109375,0.4375 -0.78125,0.4375 V 0 c 0.34375,-0.015625 0.859375,-0.03125 1.125,-0.03125 0.25,0 0.78125,0.015625 1.109375,0.03125 v -0.3125 c -0.515625,0 -0.765625,0 -0.765625,-0.296875 v -1.90625 c 0,-0.859375 0,-1.15625 -0.3125,-1.515625 -0.140625,-0.171875 -0.46875,-0.375 -1.046875,-0.375 C 2.46875,-4.40625 2,-3.984375 1.71875,-3.359375 V -4.40625 L 0.3125,-4.296875 v 0.3125 c 0.703125,0 0.78125,0.0625 0.78125,0.5625 z m 0,0"
           id="path9102" />
      </symbol>
      <symbol
         overflow="visible"
         id="symbol6288">
        <path
           style="stroke:none"
           d="m 3.296875,2.390625 c 0,-0.03125 0,-0.046875 -0.171875,-0.21875 C 1.890625,0.921875 1.5625,-0.96875 1.5625,-2.5 c 0,-1.734375 0.375,-3.46875 1.609375,-4.703125 0.125,-0.125 0.125,-0.140625 0.125,-0.171875 0,-0.078125 -0.03125,-0.109375 -0.09375,-0.109375 -0.109375,0 -1,0.6875 -1.59375,1.953125 -0.5,1.09375 -0.625,2.203125 -0.625,3.03125 0,0.78125 0.109375,1.984375 0.65625,3.125 C 2.25,1.84375 3.09375,2.5 3.203125,2.5 c 0.0625,0 0.09375,-0.03125 0.09375,-0.109375 z m 0,0"
           id="path981" />
      </symbol>
      <symbol
         overflow="visible"
         id="symbol7060">
        <path
           style="stroke:none"
           d="m 2.875,-2.5 c 0,-0.765625 -0.109375,-1.96875 -0.65625,-3.109375 -0.59375,-1.21875 -1.453125,-1.875 -1.546875,-1.875 -0.0625,0 -0.109375,0.046875 -0.109375,0.109375 0,0.03125 0,0.046875 0.1875,0.234375 0.984375,0.984375 1.546875,2.5625 1.546875,4.640625 0,1.71875 -0.359375,3.46875 -1.59375,4.71875 C 0.5625,2.34375 0.5625,2.359375 0.5625,2.390625 0.5625,2.453125 0.609375,2.5 0.671875,2.5 0.765625,2.5 1.671875,1.8125 2.25,0.546875 2.765625,-0.546875 2.875,-1.65625 2.875,-2.5 Z m 0,0"
           id="path8608" />
      </symbol>
      <symbol
         overflow="visible"
         id="symbol2429">
        <path
           style="stroke:none"
           d=""
           id="path1417" />
      </symbol>
      <symbol
         overflow="visible"
         id="symbol9260">
        <path
           style="stroke:none"
           d="m 2.96875,-2.25 c 0.15625,0 0.34375,0 0.34375,-0.171875 C 3.3125,-2.5625 3.1875,-2.5625 3.015625,-2.5625 H 1.40625 c 0.234375,-0.84375 0.796875,-1.421875 1.703125,-1.421875 h 0.3125 c 0.171875,0 0.328125,0 0.328125,-0.171875 0,-0.140625 -0.125,-0.140625 -0.296875,-0.140625 H 3.09375 c -1.296875,0 -2.625,1 -2.625,2.515625 0,1.109375 0.75,1.890625 1.796875,1.890625 0.65625,0 1.296875,-0.40625 1.296875,-0.515625 0,-0.015625 0,-0.125 -0.09375,-0.125 -0.015625,0 -0.046875,0 -0.125,0.046875 -0.3125,0.203125 -0.6875,0.375 -1.046875,0.375 -0.578125,0 -1.078125,-0.421875 -1.078125,-1.296875 0,-0.34375 0.078125,-0.734375 0.109375,-0.84375 z m 0,0"
           id="path6203" />
      </symbol>
    </g>
    <g
       id="g8363">
      <symbol
         overflow="visible"
         id="symbol9947">
        <path
           style="stroke:none"
           d=""
           id="path1389" />
      </symbol>
      <symbol
         overflow="visible"
         id="symbol7712">
        <path
           style="stroke:none"
           d="m 1.359375,-0.78125 c 0,0.359375 -0.03125,0.46875 -0.796875,0.46875 H 0.328125 V 0 h 5.75 L 6.5,-2.578125 H 6.25 C 6,-1.03125 5.765625,-0.3125 4.0625,-0.3125 H 2.734375 C 2.265625,-0.3125 2.25,-0.375 2.25,-0.703125 V -3.375 h 0.890625 c 0.96875,0 1.078125,0.328125 1.078125,1.171875 h 0.25 V -4.84375 h -0.25 c 0,0.859375 -0.109375,1.171875 -1.078125,1.171875 H 2.25 v -2.40625 c 0,-0.328125 0.015625,-0.390625 0.484375,-0.390625 h 1.28125 c 1.53125,0 1.796875,0.546875 1.953125,1.9375 h 0.25 l -0.28125,-2.25 H 0.328125 v 0.3125 H 0.5625 c 0.765625,0 0.796875,0.109375 0.796875,0.46875 z m 0,0"
           id="path2154" />
      </symbol>
      <symbol
         overflow="visible"
         id="symbol339">
        <path
           style="stroke:none"
           d="m 2.078125,-1.9375 c 0.21875,0.046875 1.03125,0.203125 1.03125,0.921875 0,0.5 -0.34375,0.90625 -1.125,0.90625 -0.84375,0 -1.203125,-0.5625 -1.390625,-1.421875 C 0.5625,-1.65625 0.5625,-1.6875 0.453125,-1.6875 c -0.125,0 -0.125,0.0625 -0.125,0.234375 V -0.125 c 0,0.171875 0,0.234375 0.109375,0.234375 0.046875,0 0.0625,-0.015625 0.25,-0.203125 0.015625,-0.015625 0.015625,-0.03125 0.203125,-0.21875 0.4375,0.40625 0.890625,0.421875 1.09375,0.421875 1.140625,0 1.609375,-0.671875 1.609375,-1.390625 0,-0.515625 -0.296875,-0.828125 -0.421875,-0.9375 C 2.84375,-2.546875 2.453125,-2.625 2.03125,-2.703125 1.46875,-2.8125 0.8125,-2.9375 0.8125,-3.515625 c 0,-0.359375 0.25,-0.765625 1.109375,-0.765625 1.09375,0 1.15625,0.90625 1.171875,1.203125 0,0.09375 0.09375,0.09375 0.109375,0.09375 0.140625,0 0.140625,-0.046875 0.140625,-0.234375 v -1.015625 c 0,-0.15625 0,-0.234375 -0.109375,-0.234375 -0.046875,0 -0.078125,0 -0.203125,0.125 -0.03125,0.03125 -0.125,0.125 -0.171875,0.15625 -0.375,-0.28125 -0.78125,-0.28125 -0.9375,-0.28125 -1.21875,0 -1.59375,0.671875 -1.59375,1.234375 0,0.34375 0.15625,0.625 0.421875,0.84375 0.328125,0.25 0.609375,0.3125 1.328125,0.453125 z m 0,0"
           id="path8943" />
      </symbol>
      <symbol
         overflow="visible"
         id="symbol1455">
        <path
           style="stroke:none"
           d="m 1.75,-4.296875 v -1.15625 c 0,-0.875 0.46875,-1.359375 0.90625,-1.359375 0.03125,0 0.1875,0 0.328125,0.078125 C 2.875,-6.703125 2.6875,-6.5625 2.6875,-6.3125 c 0,0.21875 0.15625,0.421875 0.4375,0.421875 0.28125,0 0.4375,-0.203125 0.4375,-0.4375 0,-0.375 -0.375,-0.703125 -0.90625,-0.703125 -0.6875,0 -1.546875,0.53125 -1.546875,1.59375 v 1.140625 h -0.78125 v 0.3125 h 0.78125 V -0.75 C 1.109375,-0.3125 1,-0.3125 0.34375,-0.3125 V 0 c 0.390625,-0.015625 0.859375,-0.03125 1.125,-0.03125 0.40625,0 0.875,0 1.265625,0.03125 V -0.3125 H 2.53125 c -0.734375,0 -0.75,-0.109375 -0.75,-0.46875 v -3.203125 h 1.125 v -0.3125 z m 0,0"
           id="path2098" />
      </symbol>
      <symbol
         overflow="visible"
         id="symbol1767">
        <path
           style="stroke:none"
           d="M 3.890625,-0.78125 V 0.109375 L 5.328125,0 V -0.3125 C 4.640625,-0.3125 4.5625,-0.375 4.5625,-0.875 v -3.53125 l -1.46875,0.109375 v 0.3125 c 0.6875,0 0.78125,0.0625 0.78125,0.5625 v 1.765625 c 0,0.875 -0.484375,1.546875 -1.21875,1.546875 -0.828125,0 -0.875,-0.46875 -0.875,-0.984375 v -3.3125 L 0.3125,-4.296875 v 0.3125 c 0.78125,0 0.78125,0.03125 0.78125,0.90625 v 1.5 c 0,0.78125 0,1.6875 1.515625,1.6875 0.5625,0 1,-0.28125 1.28125,-0.890625 z m 0,0"
           id="path3798" />
      </symbol>
      <symbol
         overflow="visible"
         id="symbol6633">
        <path
           style="stroke:none"
           d="M 1.109375,-2.515625 C 1.171875,-4 2.015625,-4.25 2.359375,-4.25 c 1.015625,0 1.125,1.34375 1.125,1.734375 z m 0,0.21875 h 2.78125 c 0.21875,0 0.25,0 0.25,-0.21875 0,-0.984375 -0.546875,-1.953125 -1.78125,-1.953125 -1.15625,0 -2.078125,1.03125 -2.078125,2.28125 0,1.328125 1.046875,2.296875 2.1875,2.296875 C 3.6875,0.109375 4.140625,-1 4.140625,-1.1875 4.140625,-1.28125 4.0625,-1.3125 4,-1.3125 c -0.078125,0 -0.109375,0.0625 -0.125,0.140625 -0.34375,1.03125 -1.25,1.03125 -1.34375,1.03125 -0.5,0 -0.890625,-0.296875 -1.125,-0.671875 -0.296875,-0.46875 -0.296875,-1.125 -0.296875,-1.484375 z m 0,0"
           id="path8532" />
      </symbol>
      <symbol
         overflow="visible"
         id="symbol2305">
        <path
           style="stroke:none"
           d="M 1.671875,-3.3125 V -4.40625 L 0.28125,-4.296875 v 0.3125 c 0.703125,0 0.78125,0.0625 0.78125,0.5625 V -0.75 c 0,0.4375 -0.109375,0.4375 -0.78125,0.4375 V 0 c 0.390625,-0.015625 0.859375,-0.03125 1.140625,-0.03125 0.390625,0 0.859375,0 1.265625,0.03125 V -0.3125 H 2.46875 c -0.734375,0 -0.75,-0.109375 -0.75,-0.46875 V -2.3125 c 0,-0.984375 0.421875,-1.875 1.171875,-1.875 0.0625,0 0.09375,0 0.109375,0.015625 -0.03125,0 -0.234375,0.125 -0.234375,0.390625 0,0.265625 0.21875,0.421875 0.4375,0.421875 0.171875,0 0.421875,-0.125 0.421875,-0.4375 0,-0.3125 -0.3125,-0.609375 -0.734375,-0.609375 -0.734375,0 -1.09375,0.671875 -1.21875,1.09375 z m 0,0"
           id="path6155" />
      </symbol>
      <symbol
         overflow="visible"
         id="symbol2124">
        <path
           style="stroke:none"
           d="m 3.890625,-4 c 0.09375,-0.109375 0.09375,-0.125 0.09375,-0.171875 0,-0.125 -0.09375,-0.125 -0.265625,-0.125 H 0.53125 L 0.421875,-2.6875 h 0.25 c 0.0625,-1.015625 0.25,-1.390625 1.34375,-1.390625 H 3.15625 L 0.375,-0.3125 C 0.28125,-0.203125 0.28125,-0.1875 0.28125,-0.140625 0.28125,0 0.34375,0 0.53125,0 H 3.828125 L 4,-1.859375 H 3.75 C 3.65625,-0.6875 3.453125,-0.25 2.296875,-0.25 h -1.1875 z m 0,0"
           id="path2626" />
      </symbol>
      <symbol
         overflow="visible"
         id="symbol2599">
        <path
           style="stroke:none"
           d="M 4.6875,-2.140625 C 4.6875,-3.40625 3.703125,-4.46875 2.5,-4.46875 c -1.25,0 -2.21875,1.09375 -2.21875,2.328125 0,1.296875 1.03125,2.25 2.203125,2.25 1.203125,0 2.203125,-0.984375 2.203125,-2.25 z m -2.1875,2 c -0.4375,0 -0.875,-0.203125 -1.140625,-0.671875 -0.25,-0.4375 -0.25,-1.046875 -0.25,-1.40625 0,-0.390625 0,-0.921875 0.234375,-1.359375 C 1.609375,-4.03125 2.078125,-4.25 2.484375,-4.25 c 0.4375,0 0.859375,0.21875 1.125,0.65625 0.265625,0.421875 0.265625,1 0.265625,1.375 0,0.359375 0,0.90625 -0.21875,1.34375 C 3.421875,-0.421875 2.984375,-0.140625 2.5,-0.140625 Z m 0,0"
           id="path1977" />
      </symbol>
      <symbol
         overflow="visible"
         id="symbol5374">
        <path
           style="stroke:none"
           d="m 3.296875,2.390625 c 0,-0.03125 0,-0.046875 -0.171875,-0.21875 C 1.890625,0.921875 1.5625,-0.96875 1.5625,-2.5 c 0,-1.734375 0.375,-3.46875 1.609375,-4.703125 0.125,-0.125 0.125,-0.140625 0.125,-0.171875 0,-0.078125 -0.03125,-0.109375 -0.09375,-0.109375 -0.109375,0 -1,0.6875 -1.59375,1.953125 -0.5,1.09375 -0.625,2.203125 -0.625,3.03125 0,0.78125 0.109375,1.984375 0.65625,3.125 C 2.25,1.84375 3.09375,2.5 3.203125,2.5 c 0.0625,0 0.09375,-0.03125 0.09375,-0.109375 z m 0,0"
           id="path4038" />
      </symbol>
      <symbol
         overflow="visible"
         id="symbol7047">
        <path
           style="stroke:none"
           d="m 2.875,-2.5 c 0,-0.765625 -0.109375,-1.96875 -0.65625,-3.109375 -0.59375,-1.21875 -1.453125,-1.875 -1.546875,-1.875 -0.0625,0 -0.109375,0.046875 -0.109375,0.109375 0,0.03125 0,0.046875 0.1875,0.234375 0.984375,0.984375 1.546875,2.5625 1.546875,4.640625 0,1.71875 -0.359375,3.46875 -1.59375,4.71875 C 0.5625,2.34375 0.5625,2.359375 0.5625,2.390625 0.5625,2.453125 0.609375,2.5 0.671875,2.5 0.765625,2.5 1.671875,1.8125 2.25,0.546875 2.765625,-0.546875 2.875,-1.65625 2.875,-2.5 Z m 0,0"
           id="path7069" />
      </symbol>
      <symbol
         overflow="visible"
         id="symbol316">
        <path
           style="stroke:none"
           d=""
           id="path4590" />
      </symbol>
      <symbol
         overflow="visible"
         id="symbol1190">
        <path
           style="stroke:none"
           d="m 5.15625,-3.71875 c 0.140625,0 0.5,0 0.5,-0.34375 0,-0.234375 -0.21875,-0.234375 -0.390625,-0.234375 h -2.28125 c -1.5,0 -2.609375,1.640625 -2.609375,2.828125 0,0.875 0.59375,1.578125 1.5,1.578125 1.171875,0 2.5,-1.203125 2.5,-2.734375 0,-0.171875 0,-0.65625 -0.3125,-1.09375 z M 1.890625,-0.109375 C 1.390625,-0.109375 1,-0.46875 1,-1.1875 c 0,-0.296875 0.109375,-1.109375 0.46875,-1.703125 0.421875,-0.6875 1.015625,-0.828125 1.359375,-0.828125 0.828125,0 0.90625,0.65625 0.90625,0.96875 0,0.46875 -0.203125,1.28125 -0.53125,1.796875 -0.390625,0.578125 -0.9375,0.84375 -1.3125,0.84375 z m 0,0"
           id="path5216" />
      </symbol>
    </g>
  </defs>
  <sodipodi:namedview
     id="base"
     pagecolor="#ffffff"
     bordercolor="#666666"
     borderopacity="1.0"
     inkscape:pageopacity="0.0"
     inkscape:pageshadow="2"
     inkscape:zoom="1.979899"
     inkscape:cx="361.83121"
     inkscape:cy="124.02027"
     inkscape:document-units="px"
     inkscape:current-layer="layer1"
     inkscape:document-rotation="0"
     showgrid="true"
     units="px"
     showborder="true"
     inkscape:showpageshadow="false"
     inkscape:window-width="1920"
     inkscape:window-height="1050"
     inkscape:window-x="1920"
     inkscape:window-y="18"
     inkscape:window-maximized="0"
     showguides="true"
     inkscape:guide-bbox="true"
     lock-margins="true"
     fit-margin-top="10"
     fit-margin-left="10"
     fit-margin-right="10"
     fit-margin-bottom="10">
    <inkscape:grid
       type="xygrid"
       id="grid12"
       spacingx="2.6458333"
       spacingy="2.6458333"
       originx="-2.4341666"
       originy="-52.705004" />
    <sodipodi:guide
       position="116.62832,10.795002"
       orientation="1,0"
       id="guide407" />
    <sodipodi:guide
       position="10.794999,66.357502"
       orientation="0,-1"
       id="guide409" />
    <sodipodi:guide
       position="10.794999,10.795002"
       orientation="0,-1"
       id="guide413" />
    <sodipodi:guide
       position="10.794999,10.795003"
       orientation="1,0"
       id="guide415" />
  </sodipodi:namedview>
  <metadata
     id="metadata5">
    <rdf:RDF>
      <cc:Work
         rdf:about="">
        <dc:format>image/svg+xml</dc:format>
        <dc:type
           rdf:resource="http://purl.org/dc/dcmitype/StillImage" />
        <dc:title></dc:title>
      </cc:Work>
    </rdf:RDF>
  </metadata>
  <g
     inkscape:label="Capa 1"
     inkscape:groupmode="layer"
     id="layer1"
     transform="translate(-2.4341667,-52.704999)">
    <rect
       style="fill:#fff6d5;fill-opacity:1;stroke:none;stroke-width:0.423333;stroke-linecap:round;stroke-linejoin:round;stroke-miterlimit:10;paint-order:markers fill stroke"
       id="rect915"
       width="68.791664"
       height="55.5625"
       x="50.270832"
       y="63.5"
       ry="0"
       rx="0" />
    <rect
       style="fill:#f4d7d7;fill-opacity:1;stroke:none;stroke-width:0.423333;stroke-linecap:round;stroke-linejoin:round;stroke-miterlimit:10;paint-order:markers fill stroke"
       id="rect913"
       width="37.041668"
       height="55.5625"
       x="13.229166"
       y="63.5" />
    <path
       style="fill:none;fill-opacity:0.698039;stroke:#000000;stroke-width:0.423333;stroke-linecap:round;stroke-linejoin:round;stroke-miterlimit:10;paint-order:markers fill stroke"
       d="M 13.229167,55.562499 V 127"
       id="path14"
       sodipodi:nodetypes="cc" />
    <path
       style="fill:none;fill-opacity:0.698039;stroke:#000000;stroke-width:0.423333;stroke-linecap:round;stroke-linejoin:round;stroke-miterlimit:10;stroke-dasharray:none;paint-order:markers fill stroke"
       d="M 5.2916666,119.0625 H 127"
       id="path16"
       sodipodi:nodetypes="cc" />
    <text
       xml:space="preserve"
       style="font-size:2.82223px;font-family:'Latin Modern Math';-inkscape-font-specification:'Latin Modern Math, Normal';text-align:center;text-anchor:middle;fill:#000000;fill-opacity:1;stroke:none;stroke-width:0.423333;stroke-linecap:round;stroke-linejoin:round;stroke-miterlimit:10;paint-order:markers fill stroke"
       x="10.611968"
       y="122.58758"
       id="text873"><tspan
         sodipodi:role="line"
         id="tspan871"
         x="10.611968"
         y="122.58758"
         style="stroke-width:0.423333">O</tspan></text>
    <text
       xml:space="preserve"
       style="font-size:2.82223px;font-family:'Latin Modern Math';-inkscape-font-specification:'Latin Modern Math, Normal';text-align:center;text-anchor:middle;fill:#000000;fill-opacity:1;stroke:none;stroke-width:0.423333;stroke-linecap:round;stroke-linejoin:round;stroke-miterlimit:10;paint-order:markers fill stroke"
       x="76.335197"
       y="81.633675"
       id="text22-7"><tspan
         sodipodi:role="line"
         id="tspan20-5"
         x="76.335197"
         y="81.633675"
         style="fill:#000000;fill-opacity:1;stroke:none;stroke-width:0.423333">Deformación</tspan><tspan
         sodipodi:role="line"
         x="76.335197"
         y="85.161461"
         style="fill:#000000;fill-opacity:1;stroke:none;stroke-width:0.423333"
         id="tspan963">plástica</tspan></text>
    <text
       xml:space="preserve"
       style="font-size:2.82223px;font-family:'Latin Modern Math';-inkscape-font-specification:'Latin Modern Math, Normal';text-align:center;text-anchor:middle;fill:#000000;fill-opacity:1;stroke:none;stroke-width:0.423333;stroke-linecap:round;stroke-linejoin:round;stroke-miterlimit:10;paint-order:markers fill stroke"
       x="52.879642"
       y="100.03055"
       id="text901"><tspan
         sodipodi:role="line"
         id="tspan899"
         x="52.879642"
         y="100.03055"
         style="fill:#000000;fill-opacity:1;stroke:none;stroke-width:0.423333">Límite de</tspan><tspan
         sodipodi:role="line"
         x="52.879642"
         y="103.55833"
         style="fill:#000000;fill-opacity:1;stroke:none;stroke-width:0.423333"
         id="tspan959">proporcionalidad</tspan></text>
    <text
       xml:space="preserve"
       style="font-size:2.82223px;font-family:'Latin Modern Math';-inkscape-font-specification:'Latin Modern Math, Normal';text-align:center;text-anchor:middle;fill:#000000;fill-opacity:1;stroke:none;stroke-width:0.423333;stroke-linecap:round;stroke-linejoin:round;stroke-miterlimit:10;paint-order:markers fill stroke"
       x="43.492981"
       y="67.230751"
       id="text905"><tspan
         sodipodi:role="line"
         id="tspan903"
         x="43.492981"
         y="67.230751"
         style="fill:#000000;fill-opacity:1;stroke:none;stroke-width:0.423333">Límite</tspan><tspan
         sodipodi:role="line"
         x="43.492981"
         y="70.758537"
         style="fill:#000000;fill-opacity:1;stroke:none;stroke-width:0.423333"
         id="tspan961">elástico</tspan></text>
    <text
       xml:space="preserve"
       style="font-size:2.82223px;font-family:'Latin Modern Math';-inkscape-font-specification:'Latin Modern Math, Normal';text-align:center;text-anchor:middle;fill:#000000;fill-opacity:1;stroke:none;stroke-width:0.423333;stroke-linecap:round;stroke-linejoin:round;stroke-miterlimit:10;paint-order:markers fill stroke"
       x="107.46365"
       y="94.203651"
       id="text909"><tspan
         sodipodi:role="line"
         id="tspan907"
         x="107.46365"
         y="94.203651"
         style="fill:#000000;fill-opacity:1;stroke:none;stroke-width:0.423333">Punto de</tspan><tspan
         sodipodi:role="line"
         x="107.46365"
         y="97.731438"
         style="fill:#000000;fill-opacity:1;stroke:none;stroke-width:0.423333"
         id="tspan965">ruptura</tspan></text>
    <path
       style="fill:none;fill-opacity:1;stroke:#000000;stroke-width:0.423333;stroke-linecap:round;stroke-linejoin:round;stroke-miterlimit:10;paint-order:markers fill stroke"
       d="M 13.229167,119.0625 39.687499,84.666666 c 26.458333,-15.275726 47.625,-15.875 74.083331,0"
       id="path911"
       sodipodi:nodetypes="ccc" />
    <path
       style="fill:none;fill-opacity:1;stroke:#000000;stroke-width:0.423333;stroke-linecap:round;stroke-linejoin:round;stroke-miterlimit:10;stroke-dasharray:0.423333, 0.846667;stroke-dashoffset:0;paint-order:markers fill stroke"
       d="M 39.6875,84.666666 V 119.24442"
       id="path985" />
    <rect
       style="fill:#ffffff;fill-opacity:1;stroke:#000000;stroke-width:0.423333;stroke-linecap:round;stroke-linejoin:round;stroke-miterlimit:10;stroke-dasharray:none;paint-order:markers fill stroke"
       id="rect917"
       width="2.6458333"
       height="2.6458333"
       x="38.317341"
       y="83.390999"
       ry="1.3229166" />
    <rect
       style="fill:#ffffff;fill-opacity:1;stroke:#000000;stroke-width:0.423333;stroke-linecap:round;stroke-linejoin:round;stroke-miterlimit:10;stroke-dasharray:none;paint-order:markers fill stroke"
       id="rect919"
       width="2.6458333"
       height="2.6458333"
       x="48.892677"
       y="77.865898"
       ry="1.3229166" />
    <rect
       style="fill:#ffffff;fill-opacity:1;stroke:#000000;stroke-width:0.423333;stroke-linecap:round;stroke-linejoin:round;stroke-miterlimit:10;stroke-dasharray:none;paint-order:markers fill stroke"
       id="rect919-9"
       width="2.6458333"
       height="2.6458333"
       x="112.49873"
       y="83.438675"
       ry="1.3229166" />
    <text
       xml:space="preserve"
       style="font-size:2.82223px;font-family:'Latin Modern Math';-inkscape-font-specification:'Latin Modern Math, Normal';text-align:center;text-anchor:middle;fill:#000000;fill-opacity:1;stroke:none;stroke-width:0.423333;stroke-linecap:round;stroke-linejoin:round;stroke-miterlimit:10;paint-order:markers fill stroke"
       x="26.527615"
       y="75.965485"
       id="text955"><tspan
         sodipodi:role="line"
         id="tspan953"
         x="26.527615"
         y="75.965485"
         style="fill:#000000;fill-opacity:1;stroke:none;stroke-width:0.423333">Comportamiento</tspan><tspan
         sodipodi:role="line"
         x="26.527615"
         y="79.493271"
         style="fill:#000000;fill-opacity:1;stroke:none;stroke-width:0.423333"
         id="tspan957">elástico</tspan></text>
    <path
       style="fill:none;fill-opacity:1;stroke:#ff0000;stroke-width:0.423333;stroke-linecap:round;stroke-linejoin:round;stroke-miterlimit:10;stroke-dasharray:none;stroke-dashoffset:0;marker-end:url(#Arrow1Send);paint-order:markers fill stroke"
       d="m 24.50456,81.459376 2.492494,16.435538"
       id="path987" />
    <path
       style="fill:none;fill-opacity:1;stroke:#ff0000;stroke-width:0.423333;stroke-linecap:round;stroke-linejoin:round;stroke-miterlimit:10;stroke-dasharray:none;stroke-dashoffset:0;marker-end:url(#Arrow1Send-1);paint-order:markers fill stroke"
       d="M 46.599527,97.007119 41.540554,87.394516"
       id="path987-7"
       sodipodi:nodetypes="cc" />
    <path
       style="fill:none;fill-opacity:1;stroke:#ff0000;stroke-width:0.423333;stroke-linecap:round;stroke-linejoin:round;stroke-miterlimit:10;stroke-dasharray:none;stroke-dashoffset:0;marker-end:url(#Arrow1Send-1-0);paint-order:markers fill stroke"
       d="m 43.257018,71.822421 4.769769,5.073319"
       id="path987-7-3"
       sodipodi:nodetypes="cc" />
    <path
       style="fill:none;fill-opacity:1;stroke:#ff0000;stroke-width:0.423333;stroke-linecap:round;stroke-linejoin:round;stroke-miterlimit:10;stroke-dasharray:none;stroke-dashoffset:0;marker-end:url(#Arrow1Send-1-0-6);paint-order:markers fill stroke"
       d="M 77.277446,79.219873 74.6285,74.83062"
       id="path987-7-3-6"
       sodipodi:nodetypes="cc" />
    <path
       style="fill:none;fill-opacity:1;stroke:#ff0000;stroke-width:0.423333;stroke-linecap:round;stroke-linejoin:round;stroke-miterlimit:10;stroke-dasharray:none;stroke-dashoffset:0;marker-end:url(#Arrow1Send-1-0-2);paint-order:markers fill stroke"
       d="m 108.9469,91.539858 2.93229,-4.338328"
       id="path987-7-3-1"
       sodipodi:nodetypes="cc" />
    <g
       inkscape:label=""
       transform="matrix(0.278617,0,0,0.278617,31.32598,101.4914)"
       id="g155">
      <g
         id="g9563">
        <g
           style="fill:#000000;fill-opacity:1"
           id="g3662">
          <use
             xlink:href="#symbol9379"
             x="91.925003"
             y="81.962997"
             id="use3034"
             width="100%"
             height="100%" />
          <use
             xlink:href="#symbol4029"
             x="99.535431"
             y="81.962997"
             id="use8019"
             width="100%"
             height="100%" />
          <use
             xlink:href="#symbol9062"
             x="103.96281"
             y="81.962997"
             id="use7816"
             width="100%"
             height="100%" />
          <use
             xlink:href="#symbol6185"
             x="107.00738"
             y="81.962997"
             id="use2581"
             width="100%"
             height="100%" />
          <use
             xlink:href="#symbol7361"
             x="111.98868"
             y="81.962997"
             id="use7752"
             width="100%"
             height="100%" />
          <use
             xlink:href="#symbol7611"
             x="115.89103"
             y="81.962997"
             id="use4034"
             width="100%"
             height="100%" />
          <use
             xlink:href="#symbol6502"
             x="124.19286"
             y="81.962997"
             id="use8793"
             width="100%"
             height="100%" />
          <use
             xlink:href="#symbol5089"
             x="129.17416"
             y="81.962997"
             id="use1090"
             width="100%"
             height="100%" />
          <use
             xlink:href="#symbol9200"
             x="133.60155"
             y="81.962997"
             id="use2816"
             width="100%"
             height="100%" />
          <use
             xlink:href="#symbol1052"
             x="136.36916"
             y="81.962997"
             id="use637"
             width="100%"
             height="100%" />
        </g>
        <g
           style="fill:#000000;fill-opacity:1"
           id="g6501">
          <use
             xlink:href="#symbol6185"
             x="136.36916"
             y="81.962997"
             id="use8916"
             width="100%"
             height="100%" />
          <use
             xlink:href="#symbol6383"
             x="141.35045"
             y="81.962997"
             id="use7422"
             width="100%"
             height="100%" />
          <use
             xlink:href="#symbol6288"
             x="146.88568"
             y="81.962997"
             id="use7473"
             width="100%"
             height="100%" />
        </g>
        <g
           style="fill:#000000;fill-opacity:1"
           id="g733">
          <use
             xlink:href="#symbol9260"
             x="150.75999"
             y="81.962997"
             id="use9614"
             width="100%"
             height="100%" />
        </g>
        <g
           style="fill:#000000;fill-opacity:1"
           id="g7155">
          <use
             xlink:href="#symbol7060"
             x="154.804"
             y="81.962997"
             id="use3053"
             width="100%"
             height="100%" />
        </g>
      </g>
    </g>
    <g
       inkscape:label=""
       transform="matrix(0,-0.278617,0.278617,0,-12.751557,123.88029)"
       id="g359">
      <g
         id="g8518">
        <g
           style="fill:#000000;fill-opacity:1"
           id="g3413">
          <use
             xlink:href="#symbol7712"
             x="91.925003"
             y="81.962997"
             id="use5809"
             width="100%"
             height="100%" />
          <use
             xlink:href="#symbol339"
             x="98.705544"
             y="81.962997"
             id="use5391"
             width="100%"
             height="100%" />
          <use
             xlink:href="#symbol1455"
             x="102.6348"
             y="81.962997"
             id="use7966"
             width="100%"
             height="100%" />
          <use
             xlink:href="#symbol1767"
             x="105.67937"
             y="81.962997"
             id="use1325"
             width="100%"
             height="100%" />
          <use
             xlink:href="#symbol6633"
             x="111.21458"
             y="81.962997"
             id="use3049"
             width="100%"
             height="100%" />
          <use
             xlink:href="#symbol2305"
             x="115.64197"
             y="81.962997"
             id="use6447"
             width="100%"
             height="100%" />
          <use
             xlink:href="#symbol2124"
             x="119.54432"
             y="81.962997"
             id="use3773"
             width="100%"
             height="100%" />
          <use
             xlink:href="#symbol2599"
             x="123.97169"
             y="81.962997"
             id="use9763"
             width="100%"
             height="100%" />
          <use
             xlink:href="#symbol5374"
             x="128.95299"
             y="81.962997"
             id="use3792"
             width="100%"
             height="100%" />
        </g>
        <g
           style="fill:#000000;fill-opacity:1"
           id="g4834">
          <use
             xlink:href="#symbol1190"
             x="132.828"
             y="81.962997"
             id="use7717"
             width="100%"
             height="100%" />
        </g>
        <g
           style="fill:#000000;fill-opacity:1"
           id="g5555">
          <use
             xlink:href="#symbol7047"
             x="138.87801"
             y="81.962997"
             id="use6519"
             width="100%"
             height="100%" />
        </g>
      </g>
    </g>
  </g>
</svg>
